<svg width="48" height="48" version="1.1" xmlns="http://www.w3.org/2000/svg" xmlns:xlink="http://www.w3.org/1999/xlink">
 <defs>
  <linearGradient id="c" x1="25.132" x2="25.132" y1=".98521" y2="47.013" gradientTransform="matrix(1 0 0 .95617 2e-7 -.53992)" gradientUnits="userSpaceOnUse">
   <stop stop-color="#81cc77" offset="0"/>
   <stop stop-color="#ccf7b9" offset="1"/>
  </linearGradient>
  <linearGradient id="b" x1="91.308" x2="95.182" y1="98.192" y2="102.07" gradientTransform="matrix(.56521 0 0 -.60266 -19.236 70.719)" gradientUnits="userSpaceOnUse">
   <stop stop-color="#baf5a0" offset="0"/>
   <stop stop-color="#89d27f" offset="1"/>
  </linearGradient>
  <radialGradient id="a" cx="26.53" cy="23.566" r="17.5" gradientTransform="matrix(-1.7302 -.0033869 .0034626 -1.7689 87.322 43.647)" gradientUnits="userSpaceOnUse">
   <stop stop-opacity=".65926" offset="0"/>
   <stop stop-color="#cecece" stop-opacity="0" offset="1"/>
  </radialGradient>
 </defs>
 <path d="m6.5 1.8722c5.8015 0 21.021 0.00228 21.021 0.00228l13.979 14.352 3.6e-5 29.651h-35v-44.006z" fill="none" stroke="#000" stroke-opacity=".54902"/>
 <path d="m6.5 1.8722c5.8015 0 20.954 0.00228 20.954 0.00228l14.046 14.33 3.6e-5 29.673h-35v-44.006z" fill="url(#c)"/>
 <g transform="matrix(.037149 0 0 .037149 12.331 12.604)" fill="#fff">
  <g fill="#fff">
   <g fill="#fff">
    <g fill="#fff">
     <path d="m99.777 446.09c-6.699 12.031-12.031 30.133-12.031 41.539 0 2.648 0 6.016 0.656 10.688l-83.726-143.99c-2.68-4.672-4.676-11.375-4.676-17.414 0-6.047 1.996-13.398 4.676-18.078l40.195-70.328-44.871-25.43 146.02-2.703 70.984 127.91-45.527-26.117-71.696 123.92zm64.313-405.86c12.715-22.125 33.496-34.18 58.926-34.18 27.48 0 48.918 12.742 64.312 38.828l22.777 38.172-79.051 136.66-127.91-74.352 60.95-105.13zm9.351 521.72c-38.172 0-69.645-31.477-69.645-69.648 0-10.719 4.703-28.82 11.402-40.195l21.41-38.172h158.76v148.02h-121.92zm127.29-525.76c-10.036-17.391-23.434-29.477-39.512-36.18h164.75c14.738 0 26.113 6.047 32.84 17.445l40.852 69.648 44.191-26.141-71.016 127.28-145.3-2.047 44.871-25.43-71.667-124.58zm253.86 379.09c20.07 0 36.832-5.359 50.887-16.055l-83.07 144.65c-6.699 11.375-18.73 18.078-32.789 18.078h-78.395v51.57l-75.004-125.23 75.004-125.27v52.258h143.37zm64.258-120.56c6.043 10.719 9.406 22.094 9.406 34.156 0 24.117-15.422 49.57-36.832 61.602-10.062 5.391-24.145 8.75-38.172 8.75h-44.242l-79-136.66 127.92-73.008 60.922 105.16z" fill="#fff"/>
    </g>
   </g>
  </g>
 </g>
 <path d="m6.5 1.8943c5.8015 0 20.954 0.0023 20.954 0.0023l14.046 14.33 4e-5 29.673h-35v-44.006z" fill="url(#a)"/>
 <path d="m29.296 14.15c-0.04524-3.4428 0.09264-9.2334-1.8427-12.276 0 0 12.641 12.709 13.994 14.29 0 0-2.3483-1.8776-12.152-2.0143z" fill="url(#b)"/>
</svg>
