<svg width="48" height="48" version="1.1" xmlns="http://www.w3.org/2000/svg" xmlns:xlink="http://www.w3.org/1999/xlink">
 <defs>
  <linearGradient id="a">
   <stop offset="0"/>
   <stop stop-opacity="0" offset="1"/>
  </linearGradient>
  <linearGradient id="h" x1="68.5" x2="68.5" y1="29.5" y2="97.5" gradientTransform="matrix(.37605 0 0 .37605 -.31458 3.451)" gradientUnits="userSpaceOnUse">
   <stop stop-color="#0868c9" offset="0"/>
   <stop stop-color="#053870" offset="1"/>
  </linearGradient>
  <linearGradient id="e" x1="302.86" x2="302.86" y1="366.65" y2="609.51" gradientTransform="matrix(.067325 0 0 .0147 -.34114 37.04)" gradientUnits="userSpaceOnUse">
   <stop stop-opacity="0" offset="0"/>
   <stop offset=".5"/>
   <stop stop-opacity="0" offset="1"/>
  </linearGradient>
  <radialGradient id="b" cx="605.71" cy="486.65" r="117.14" gradientTransform="matrix(-.02304 0 0 .0147 21.623 37.04)" gradientUnits="userSpaceOnUse" xlink:href="#a"/>
  <radialGradient id="c" cx="605.71" cy="486.65" r="117.14" gradientTransform="matrix(.02304 0 0 .0147 26.361 37.04)" gradientUnits="userSpaceOnUse" xlink:href="#a"/>
  <linearGradient id="f" x1="25.132" x2="25.132" y1=".98521" y2="47.013" gradientTransform="matrix(.97143 0 0 .93432 .68577 -1.357)" gradientUnits="userSpaceOnUse">
   <stop stop-color="#f4f4f4" offset="0"/>
   <stop stop-color="#dbdbdb" offset="1"/>
  </linearGradient>
  <linearGradient id="g" x1="24" x2="24" y1="5.9405" y2="42.111" gradientTransform="matrix(.89189 0 0 1.1351 2.5946 -4.7432)" gradientUnits="userSpaceOnUse">
   <stop stop-color="#fff" offset="0"/>
   <stop stop-color="#fff" stop-opacity=".23529" offset="0"/>
   <stop stop-color="#fff" stop-opacity=".15686" offset="1"/>
   <stop stop-color="#fff" stop-opacity=".39216" offset="1"/>
  </linearGradient>
  <linearGradient id="d" x1="-51.786" x2="-51.786" y1="50.786" y2="2.9062" gradientTransform="matrix(.8075 0 0 .89472 59.41 -2.9773)" gradientUnits="userSpaceOnUse">
   <stop stop-opacity=".31783" offset="0"/>
   <stop stop-opacity=".24031" offset="1"/>
  </linearGradient>
 </defs>
 <g>
  <g>
   <rect x="7.7378" y="42.43" width="32.508" height="3.5701" fill="url(#e)" opacity=".3"/>
   <path d="m7.7378 42.43v3.5699c-1.1865 0.0067-2.8684-0.79982-2.8684-1.7852 0-0.98533 1.324-1.7847 2.8684-1.7847z" fill="url(#b)" opacity=".3"/>
   <path d="m40.246 42.43v3.5699c1.1865 0.0067 2.8684-0.79982 2.8684-1.7852 0-0.98533-1.324-1.7847-2.8684-1.7847z" fill="url(#c)" opacity=".3"/>
  </g>
  <path d="m7 1c7.7911 0 34 0.00274 34 0.00274l4.1e-5 42.997h-34v-43z" fill="url(#f)"/>
 </g>
 <g>
  <path d="m40.5 43.5h-33v-42h33z" fill="none" stroke="url(#g)" stroke-linecap="round"/>
  <path d="m6.5 0.49996c8.0203 0 35 0.00298 35 0.00298l3.7e-5 43.997h-35v-44z" fill="none" stroke="url(#d)" stroke-linejoin="round" stroke-width=".99992"/>
  <g transform="matrix(.33136 0 0 .33136 1.3016 2.697)" fill="#45a3e9" opacity=".8" stroke-width="1px">
   <path d="m60.726 61.144v11.164c-1.3859 0.61594-3.6187 1.2319-6.6984 1.2319-12.011 0-17.785-8.3923-17.785-17.939 0-11.549 6.6214-18.093 18.016-18.093 4.8506 0 9.8551 1.2319 13.474 3.1567 0.30797 0.15399 0.61594 0 0.61594-0.46196v-7.0064c0-0.46196-0.07699-0.76993-0.46196-0.92392-2.8487-1.6169-8.1613-2.7718-13.859-2.7718-16.015 0-27.333 10.163-27.333 26.332 0 13.705 8.0843 25.485 26.255 25.485 5.9285 0 11.703-1.2319 16.554-3.3877 0.46196-0.23098 0.53895-0.38497 0.53895-0.84692v-22.79c0-0.38497-0.07699-0.61594-0.61594-0.61594h-17.323c-0.30797 0-0.53895 0.15399-0.53895 0.46196v6.0825c0 0.46196 0.15399 0.61594 0.61594 0.69294z"/>
   <path d="m91.672 42.358c-6.4674 0-12.858 2.1558-16.323 3.3107-0.23098 0.07699-0.30797 0.30797-0.30797 0.46196 0.15399 1.0009 0.30797 3.5417 0.30797 4.4656v46.427c0 0.30797 0.07699 0.53895 0.53895 0.46196l8.1613-0.76993c0.46196-0.07699 0.53895-0.30797 0.53895-0.61594v-15.091c0.84692 0.15399 1.9248 0.30797 3.3877 0.30797 11.01-0.07699 22.328-7.1604 22.328-20.788 0-10.009-6.0055-18.17-18.632-18.17zm-1.0009 7.4683c5.7745 0 10.086 3.6187 10.086 11.164 0 8.8542-5.7745 13.166-12.473 13.166-1.3089 0-2.6948-0.15399-3.6957-0.46196v-23.021c1.7708-0.46196 3.4647-0.84692 6.0825-0.84692z"/>
  </g>
 </g>
</svg>
