<svg width="48" height="48" version="1.1" viewBox="0 0 12.7 12.7" xmlns="http://www.w3.org/2000/svg">
 <defs>
  <linearGradient id="a" x1="25.132" x2="25.132" y1=".98521" y2="47.013" gradientTransform="matrix(.26458 0 0 .25298 4.0601e-6 -.13703)" gradientUnits="userSpaceOnUse">
   <stop stop-color="#dadada" offset="0"/>
   <stop stop-color="#fff" offset="1"/>
  </linearGradient>
  <radialGradient id="b" cx="26.53" cy="23.566" r="17.5" gradientTransform="matrix(-.45777 -.0008961 .00091613 -.46801 23.103 11.548)" gradientUnits="userSpaceOnUse">
   <stop stop-opacity=".65926" offset="0"/>
   <stop stop-color="#cecece" stop-opacity="0" offset="1"/>
  </radialGradient>
  <linearGradient id="c" x1="91.308" x2="95.182" y1="98.192" y2="102.07" gradientTransform="matrix(.14954 0 0 -.15945 -5.0754 18.727)" gradientUnits="userSpaceOnUse">
   <stop stop-color="#fcfcfc" offset="0"/>
   <stop stop-color="#c1c1c1" offset="1"/>
  </linearGradient>
 </defs>
 <path d="m1.7198 0.49534c1.535 0 5.5617 6.032e-4 5.5617 6.032e-4l3.6985 3.7972 1e-5 7.845h-9.2602v-11.643z" fill="none" stroke="#000" stroke-opacity=".54902" stroke-width=".26458"/>
 <path d="m1.7198 0.50116c1.535 0 5.544 6.032e-4 5.544 6.032e-4l3.7163 3.7914 1e-5 7.8508h-9.2602v-11.643z" fill="url(#a)" stroke-width=".26458"/>
 <path d="m8.6399 7.0978c-0.22125 3e-3 -0.41325 0.0525-0.5745 0.1275-0.06-0.1125-0.12-0.21-0.129-0.2835-0.01125-0.08475-0.0255-0.13725-0.01125-0.2385 0.0135-0.102 0.074999-0.246 0.074999-0.258-7.5e-4 -0.0105-0.0135-0.062249-0.141-0.063749-0.1275-3e-3 -0.2385 0.024-0.2505 0.0555a1.2225 1.2225 0 0 0-0.05325 0.18075c-0.0225 0.11175-0.255 0.50475-0.3885 0.7125a0.70649 0.70649 0 0 1-0.087748-0.2085c-0.01125-0.0855-0.02475-0.13725-0.01125-0.23925 0.0135-0.10125 0.074999-0.24525 0.074999-0.25725 0-0.0105-0.01275-0.062999-0.141-0.063749-0.1275-3e-3 -0.23775 0.023249-0.2505 0.055499-0.012 0.0315-0.02625 0.10725-0.05325 0.18-0.02625 0.07425-0.336 0.73124-0.417 0.90224-0.0405 0.08775-0.076499 0.1575-0.10275 0.20475-0.02625 0.04725-0.0015 0.0038-0.00375 0.0075l-0.0345 0.063v3e-3c-0.01725 0.03-0.036 0.05775-0.045 0.05775-6e-3 0-0.018-0.07875 3e-3 -0.1875 0.045-0.228 0.1575-0.58424 0.156-0.597 0-6e-3 0.021-0.06825-0.071999-0.1005-0.089999-0.0315-0.123 0.021-0.1305 0.021-0.0075 0-0.0135 0.0195-0.0135 0.0195s0.1005-0.40125-0.192-0.40125c-0.18375 0-0.4365 0.1905-0.5625 0.3645l-0.426 0.222c-0.06825 0.03525-0.13875 0.0735-0.20625 0.10725l-0.0135-0.01425c-0.35475-0.36-1.011-0.615-0.98324-1.1002 0.0097499-0.17625 0.074249-0.6405 1.26-1.203 0.97124-0.46125 1.749-0.3345 1.884-0.0525 0.192 0.40125-0.4155 1.1482-1.425 1.2555-0.38475 0.042-0.5865-0.1005-0.6375-0.153-0.05325-0.05625-0.06075-0.058499-0.080999-0.04725-0.03225 0.0165-0.012 0.066 0 0.095249 0.03 0.075 0.15375 0.207 0.3645 0.273 0.18525 0.05775 0.63675 0.09 1.1827-0.111 0.61125-0.22575 1.089-0.85199 0.94874-1.3755-0.1425-0.53325-1.071-0.708-1.9477-0.41175-0.522 0.17775-1.0875 0.45375-1.4947 0.81749-0.48375 0.42975-0.56025 0.80549-0.528 0.96149 0.1125 0.5565 0.91799 0.91949 1.2405 1.188-0.0165 0.0075-0.0315 0.0165-0.045 0.02325-0.16125 0.07575-0.77474 0.3825-0.92924 0.70574-0.17325 0.36675 0.02775 0.63 0.16125 0.66524 0.41475 0.11025 0.83849-0.087 1.068-0.4125 0.22875-0.32475 0.201-0.74699 0.095999-0.93899l-0.00375-0.0075 0.126-0.0705c0.082499-0.04575 0.16275-0.0885 0.23325-0.12525-0.03975 0.10275-0.0675 0.225-0.082499 0.402-0.018 0.20775 0.071999 0.47775 0.18975 0.5835a0.2175 0.2175 0 0 0 0.15225 0.04725c0.1365 0 0.19875-0.10725 0.267-0.23625 0.083999-0.1575 0.15825-0.339 0.15825-0.339s-0.092999 0.49275 0.16125 0.49275c0.092999 0 0.186-0.11475 0.22875-0.174v3e-3l0.0225-0.03375v-3e-3c0.03675-0.0615 0.12-0.2025 0.24375-0.435 0.15975-0.3 0.31425-0.6765 0.31425-0.6765s0.015 0.09225 0.06 0.24375c0.02775 0.09 0.086999 0.1875 0.1335 0.2835l-0.06 0.078 0.0015 3e-3 -0.097499 0.1185c-0.1275 0.144-0.27825 0.30825-0.2985 0.3555-0.02325 0.0555-0.01875 0.0975 0.02775 0.12975 0.033 0.024 0.092999 0.0285 0.156 0.024a0.71699 0.71699 0 0 0 0.2325-0.051c0.063-0.021 0.1335-0.0525 0.20175-0.1005a0.42 0.42 0 0 0 0.192-0.3765 0.72899 0.72899 0 0 0-0.07275-0.26625c0.0105-0.015 0.0225-0.03075 0.033-0.04725 0.1965-0.273 0.34725-0.573 0.34725-0.573s0.015 0.09225 0.06075 0.243c0.024 0.07725 0.071249 0.16125 0.1125 0.24375-0.183 0.1425-0.2985 0.30825-0.3375 0.417-0.073499 0.201-0.0165 0.2925 0.091499 0.3135a0.342 0.342 0 0 0 0.1695-0.033c0.0645-0.02025 0.1425-0.05475 0.2145-0.105 0.1245-0.08775 0.24375-0.21 0.237-0.3735a0.6885 0.6885 0 0 0-0.0525-0.22125c0.156-0.0615 0.35775-0.0975 0.615-0.0675 0.55125 0.0615 0.66 0.39 0.63975 0.52725-0.021 0.13725-0.1365 0.213-0.17475 0.23625-0.039 0.0225-0.051 0.03075-0.04725 0.04725 0.0045 0.02475 0.0225 0.024 0.0555 0.01875 0.04575-0.0068 0.29025-0.1125 0.3-0.3645 0.015-0.3255-0.30825-0.68024-0.88274-0.6765zm-4.2555 1.3687c-0.18225 0.18975-0.43875 0.2625-0.5475 0.20025-0.1185-0.0645-0.07275-0.345 0.1515-0.5475 0.1365-0.12225 0.31425-0.2355 0.4305-0.30525l0.1125-0.06525a0.048 0.048 0 0 1 0.01275-0.0068l0.0285-0.0165a0.72899 0.72899 0 0 1-0.18825 0.74104zm1.3335-0.86399c-0.063 0.14775-0.19725 0.5265-0.2775 0.5055-0.06975-0.018-0.1125-0.30525-0.01425-0.58875a1.2975 1.2975 0 0 1 0.2175-0.3795c0.1005-0.10575 0.21-0.14175 0.237-0.0975 0.03225 0.05625-0.123 0.468-0.16275 0.56025zm1.1002 0.501c-0.02775 0.01275-0.0525 0.0225-0.06375 0.015-0.00825-0.0045 0.01125-0.0225 0.01125-0.0225s0.138-0.14025 0.19275-0.2055l0.108-0.13125v0.01425c0 0.17025-0.17175 0.2835-0.24825 0.33zm0.84824-0.1845c-0.0195-0.01425-0.01725-0.05775 0.0495-0.195a0.73499 0.73499 0 0 1 0.189-0.23175 0.2805 0.2805 0 0 1 0.018 0.102c-7.5e-4 0.21225-0.15975 0.29175-0.2565 0.32475z" fill="#ee527f" style="paint-order:markers stroke fill"/>
 <g stroke-width=".26458">
  <path d="m1.7198 0.50116c1.535 0 5.544 6.032e-4 5.544 6.032e-4l3.7163 3.7914 1e-5 7.8508h-9.2602v-11.643z" fill="url(#b)"/>
  <rect x="5.1942" y=".49534" width="5.7858" height="6.3829" fill="none"/>
  <path d="m7.7651 3.7602c-0.01197-0.91089 0.02451-2.443-0.48754-3.248 0 0 3.3445 3.3625 3.7025 3.7808 0 0-0.62131-0.49677-3.2152-0.53294z" fill="url(#c)"/>
 </g>
</svg>
