<svg width="48" height="48" version="1.1" viewBox="0 0 12.7 12.7" xmlns="http://www.w3.org/2000/svg">
 <defs>
  <linearGradient id="b" x1="25.132" x2="25.132" y1=".98521" y2="47.013" gradientTransform="matrix(.26458 0 0 .25298 4.0601e-6 -.13703)" gradientUnits="userSpaceOnUse">
   <stop stop-color="#dadada" offset="0"/>
   <stop stop-color="#fff" offset="1"/>
  </linearGradient>
  <radialGradient id="a" cx="26.53" cy="23.566" r="17.5" gradientTransform="matrix(-.45777 -.0008961 .00091613 -.46801 23.103 11.548)" gradientUnits="userSpaceOnUse">
   <stop stop-opacity=".65926" offset="0"/>
   <stop stop-color="#cecece" stop-opacity="0" offset="1"/>
  </radialGradient>
  <linearGradient id="c" x1="91.308" x2="95.182" y1="98.192" y2="102.07" gradientTransform="matrix(.14954 0 0 -.15945 -5.0754 18.727)" gradientUnits="userSpaceOnUse">
   <stop stop-color="#fcfcfc" offset="0"/>
   <stop stop-color="#c1c1c1" offset="1"/>
  </linearGradient>
 </defs>
 <path d="m1.7198 0.49534c1.535 0 5.5617 6.0324e-4 5.5617 6.0324e-4l3.6985 3.7972 1e-5 7.845h-9.2602v-11.643z" fill="none" stroke="#000" stroke-opacity=".54902" stroke-width=".26458"/>
 <path d="m1.7198 0.50116c1.535 0 5.544 6.0324e-4 5.544 6.0324e-4l3.7163 3.7914 1e-5 7.8508h-9.2602v-11.643z" fill="url(#b)" stroke-width=".26458"/>
 <g transform="matrix(.74999 0 0 .74805 .396 -206.44)" fill="#999">
  <rect x="4.498" y="279.27" width="6.879" height="1.058" rx=".313" ry=".241" fill-opacity=".493" stroke-width="1.7801"/>
  <path d="m5.292 279.8h0.62v0.265h-0.62zm1.058 0h0.516v0.265h-0.516zm1.058 0h0.507v0.265h-0.507z" stroke-width="1.7801"/>
  <rect x="8.599" y="282.32" width="2.646" height="2.117" rx="0" ry="0" stroke="#b4bfd8" stroke-width=".35379"/>
  <path d="m12.172 280.22v10.964m-9.1721-12.379h7.4082m-7.498 11.188h10.055m-9.393-12.569v13.76" stroke="#b4bfd8" stroke-width=".35379"/>
  <path d="m8.467 279.8h0.506v0.265h-0.506z" stroke-width="1.7801"/>
  <path d="m4.498 281.12h0.561v0.265h-0.561zm0.784 0h0.56v0.265h-0.56zm0.776 0h0.33v0.265h-0.33zm0.568 0h0.56v0.265h-0.56zm0.776 0h1.101v0.265h-1.1zm1.345 0h1.076v0.265h-1.076zm-4.249 3.175h0.844v0.265h-0.844zm1.049 0h0.576v0.265h-0.576zm0.793 0h0.319v0.265h-0.32zm0.55 0h0.77v0.265h-0.77zm-2.392-1.058h1.092v0.264h-1.092zm1.332 0h0.823v0.264h-0.823zm1.037 0h0.788v0.264h-0.788zm-2.369 0.528h1.345v0.265h-1.345zm1.54 0h0.871v0.265h-0.87zm1.106 0h0.286v0.265h-0.286zm-2.646 2.117h1.109v0.265h-1.11zm1.314 0h0.285v0.265h-0.285zm0.501 0h0.61v0.265h-0.61zm0.82 0h1.106v0.265h-1.106zm1.32 0h0.844v0.265h-0.844zm1.049 0h0.339v0.265h-0.339zm-5.004-0.529h0.837v0.265h-0.837zm1.055 0h1.107v0.265h-1.107zm1.325 0h0.57v0.265h-0.57zm2.379 0h0.305v0.265h-0.305zm0.523 0h0.59v0.265h-0.59zm-2.113 0h1.372v0.265h-1.372zm-3.169 1.058h1.077v0.265h-1.077zm1.277 0h0.868v0.265h-0.868zm1.085 0h0.581v0.265h-0.581zm0.798 0h0.264v0.265h-0.264zm0.534 0h0.568v0.265h-0.568zm0.785 0h0.575v0.265h-0.575zm0.791 0h0.847v0.265h-0.847zm-5.27-1.587h1.107v0.264h-1.107zm1.328 0h1.084v0.264h-1.084zm1.331 0h0.516v0.264h-0.516zm-2.659-2.646h0.82v0.265h-0.82zm1.049 0h0.576v0.265h-0.576zm0.819 0h0.557v0.265h-0.557zm0.789 0h0.266v0.265h-0.266zm-2.657-0.529h1.1v0.265h-1.1zm1.328 0h1.084v0.265h-1.084zm1.331 0h0.516v0.265h-0.516zm-2.659 1.058h1.107v0.265h-1.107zm1.328 0h1.057v0.265h-1.057zm1.304 0h0.538v0.265h-0.538zm3.471 2.646h0.816v0.265h-0.816zm-0.564-4.233h1.35v0.265h-1.35zm0.021 4.762h1.082v0.265h-1.082zm0.775 0.529h0.556v0.265h-0.556zm-6.335 1.059h1.109v0.265h-1.11zm1.314 0h0.285v0.265h-0.285zm0.501 0h0.61v0.265h-0.61zm0.82 0h1.106v0.265h-1.106zm1.32 0h0.844v0.265h-0.844zm-3.955-0.529h0.837v0.264h-0.837zm1.055 0h1.107v0.264h-1.107zm1.325 0h0.57v0.264h-0.57zm0.789 0h1.372v0.264h-1.372zm-3.169 1.058h1.077v0.264h-1.077zm1.277 0h0.868v0.264h-0.868zm1.085 0h0.581v0.264h-0.581zm0.798 0h0.264v0.264h-0.264zm0.534 0h0.568v0.264h-0.568zm0.785 0h0.575v0.264h-0.575zm0.791 0h0.847v0.264h-0.847zm1.065 0h0.556v0.264h-0.556zm-6.341 1.058h1.11v0.265h-1.11zm1.314 0h0.285v0.265h-0.285zm0.501 0h0.61v0.265h-0.61zm0.82 0h1.106v0.265h-1.106zm1.32 0h0.844v0.265h-0.844zm-3.955-0.529h0.837v0.265h-0.837zm1.055 0h1.107v0.265h-1.107zm1.325 0h0.57v0.265h-0.57zm0.788 0h1.373v0.265h-1.373z" stroke-width="1.7801"/>
 </g>
 <g stroke-width=".26458">
  <path d="m1.7198 0.50116c1.535 0 5.544 6.0324e-4 5.544 6.0324e-4l3.7163 3.7914 1e-5 7.8508h-9.2602v-11.643z" fill="url(#a)"/>
  <rect x="5.1942" y=".49534" width="5.7858" height="6.3829" fill="none"/>
  <path d="m7.7651 3.7602c-0.01197-0.91089 0.02451-2.443-0.48754-3.248 0 0 3.3445 3.3625 3.7025 3.7808 0 0-0.62131-0.49677-3.2152-0.53294z" fill="url(#c)"/>
 </g>
</svg>
