<svg width="32" height="32" xmlns="http://www.w3.org/2000/svg"><defs><linearGradient id="b" x1="73.823" x2="68.874" y1="17.956" y2="119.07" gradientUnits="userSpaceOnUse"><stop stop-color="#2c2d31" offset="0"/><stop stop-color="#3c3e43" offset="1"/></linearGradient><linearGradient id="g" x1="71.179" x2="70.103" y1=".986" y2="126.5" gradientUnits="userSpaceOnUse"><stop stop-color="#f6f6f6" stop-opacity=".988" offset="0"/><stop stop-color="#bfbfbf" offset="1"/></linearGradient><linearGradient id="h" x1="50.235" x2="71.235" y1="8.332" y2="120.83" gradientUnits="userSpaceOnUse"><stop stop-color="#afb0b1" offset="0"/><stop stop-color="#bdbebf" offset="1"/></linearGradient><linearGradient id="i" x1="202.69" x2="227.87" y1="37.209" y2="97.865" gradientUnits="userSpaceOnUse"><stop stop-color="#494f52" offset="0"/><stop stop-color="#98a1a6" offset="1"/></linearGradient><linearGradient id="j" x1="196.6" x2="239.83" y1="30.726" y2="106.35" gradientUnits="userSpaceOnUse"><stop stop-color="#e2e6e8" offset="0"/><stop stop-color="#838d91" offset="1"/></linearGradient><linearGradient id="k" x1="214.77" x2="222.42" y1="69.601" y2="69.601" gradientUnits="userSpaceOnUse"><stop stop-color="#5f6569" offset="0"/><stop stop-color="#686e72" offset="1"/></linearGradient><radialGradient id="c" cx="64.985" cy="65.333" r="59.751" gradientUnits="userSpaceOnUse"><stop stop-color="#2c2d31" offset="0"/><stop stop-color="#393b3f" offset=".726"/><stop stop-color="#35373b" offset="1"/></radialGradient><radialGradient id="f" cx="219.42" cy="67.2" r="59.155" gradientTransform="matrix(.86 -.51029 .50553 .85198 -3.254 121.91)" gradientUnits="userSpaceOnUse"><stop stop-color="#4a4a4a" offset="0"/><stop stop-color="#4a4a4a" offset=".757"/><stop stop-color="#161616" offset="1"/></radialGradient><radialGradient id="l" cx="218.59" cy="69.601" r="3.005" gradientUnits="userSpaceOnUse"><stop stop-color="#27282c" offset="0"/><stop stop-color="#27282c" offset="1"/></radialGradient><filter id="a" x="-.036" y="-.036" width="1.072" height="1.072" color-interpolation-filters="sRGB"><feGaussianBlur stdDeviation=".395"/></filter><filter id="d" x="-.036" y="-.036" width="1.072" height="1.072" color-interpolation-filters="sRGB"><feGaussianBlur stdDeviation="1.793"/></filter><filter id="e" x="-.036" y="-.036" width="1.072" height="1.072" color-interpolation-filters="sRGB"><feGaussianBlur stdDeviation="1.779"/></filter></defs><path transform="translate(-440.23 -589.53) scale(1.139)" d="M412.79 526.62q-.24-.582-.541-1.14c-.113-.21-.233-.42-.36-.625a13.758 13.758 0 0 0-1.997-2.506c-2.571-2.57-5.677-3.857-9.314-3.857-3.637 0-6.741 1.286-9.312 3.857-2.572 2.572-3.858 5.676-3.858 9.313s1.286 6.743 3.858 9.314c2.57 2.571 5.675 3.856 9.312 3.856 3.637 0 6.743-1.285 9.314-3.856 1.416-1.417 2.443-2.997 3.08-4.737.517-1.419.776-2.943.776-4.577a13.592 13.592 0 0 0-.566-3.95 12.863 12.863 0 0 0-.392-1.092z" filter="url(#a)" opacity=".25"/><g transform="translate(.891 .81) scale(.2325)" stroke-width="4.134"><circle cx="64.985" cy="65.333" r="59.751" fill="url(#b)"/><circle cx="64.985" cy="65.333" r="59.751" fill="url(#c)"/><path d="M64.985 5.582a59.751 59.751 0 0 0-59.752 59.75 59.751 59.751 0 0 0 59.752 59.752 59.751 59.751 0 0 0 59.75-59.752 59.751 59.751 0 0 0-59.75-59.75zm0 5.25a54.501 54.501 0 0 1 54.5 54.5 54.501 54.501 0 0 1-54.5 54.502 54.501 54.501 0 0 1-54.502-54.502 54.501 54.501 0 0 1 54.502-54.5z" fill-opacity=".192" filter="url(#d)"/><path d="M217.16 7.773a59.751 59.751 0 0 0-7.256.686 33.701 33.701 0 0 1 1.574 8.256 33.701 33.701 0 0 1-31.62 35.66 33.701 33.701 0 0 1-17.397-3.703 59.751 59.751 0 0 0-2.2 8.98c.629-.788 1.363-1.831 2.315-3.197l-.792-.41c1.524.66 3.09 1.22 4.687 1.68-.033 4.519-.365 6.301 1.71 6.859 1.798.483 2.378-1.123 3.92-5.633 1.474.192 2.957.3 4.442.324 1.132 4.93 1.504 6.625 3.389 6.323 2.116-.34 1.979-2.142 2.41-6.614a39.082 39.082 0 0 0 4.406-.85c2.1 4.355 2.863 5.893 4.6 5.194 1.994-.803 1.451-2.533.877-7.02a39.035 39.035 0 0 0 3.943-1.882c3.274 3.664 4.427 4.946 5.914 3.787 1.688-1.316.703-2.83-1.072-6.942a38.974 38.974 0 0 0 3.426-2.962c3.935 2.632 5.371 3.55 6.504 2.08 1.29-1.674-.005-2.898-2.678-6.332a38.89 38.89 0 0 0 2.422-3.512c4.693 1.347 6.35 1.813 6.988.045.713-1.975-.874-2.755-4.42-5.174a38.828 38.828 0 0 0 1.526-4.33c4.86.158 6.58.202 6.765-1.666.209-2.093-1.529-2.46-5.572-3.943a38.79 38.79 0 0 0 .307-4.618c4.607-.887 6.266-1.248 6.039-3.082-.26-2.098-2.042-2.058-6.365-2.623a38.793 38.793 0 0 0-.856-4.289c.818-.421 1.445-.756 2.065-1.091zm.193 36.676-2.629.344a.44.44 0 0 0-.293.17.508.508 0 0 0-.087.326l.056 3.278a19.49 19.49 0 0 0-5.43 2.275l-2.24-2.356a.439.439 0 0 0-.62-.082l-2.104 1.614c-.098.074-.155.18-.17.293s.027.222.088.328l1.625 2.84a19.49 19.49 0 0 0-3.537 4.668l-3.088-.909a.45.45 0 0 0-.338-.002.44.44 0 0 0-.239.24l-1.015 2.45a.44.44 0 0 0-.002.338.53.53 0 0 0 .24.24l2.826 1.646a19.49 19.49 0 0 0-.754 5.303 19.49 19.49 0 0 0 .018.5l-3.15.762a.438.438 0 0 0-.38.494l.343 2.629a.443.443 0 0 0 .167.295c.09.069.206.085.329.086l3.287.013a19.49 19.49 0 0 0 2.27 5.39l-2.346 2.232c-.096.076-.156.18-.17.293s.013.23.087.328l1.614 2.103a.441.441 0 0 0 .293.17.524.524 0 0 0 .326-.088l2.832-1.619a19.49 19.49 0 0 0 4.674 3.54l-.907 3.08a.44.44 0 0 0 .238.578l2.45 1.015a.444.444 0 0 0 .34 0c.104-.043.176-.134.238-.24l1.645-2.823a19.49 19.49 0 0 0 5.293.752 19.49 19.49 0 0 0 .511-.017l.762 3.15a.444.444 0 0 0 .496.38l2.629-.345a.439.439 0 0 0 .293-.168.53.53 0 0 0 .088-.328l.014-3.289a19.49 19.49 0 0 0 5.255-2.197l2.387 2.264c.62.081.181.155.293.17a.439.439 0 0 0 .326-.088l2.106-1.614c.097-.074.153-.18.168-.293s-.025-.22-.088-.326l-1.678-2.795a19.49 19.49 0 0 0 3.49-4.568l3.202.767c.577-.238.235.044.34 0a.437.437 0 0 0 .238-.238l1.015-2.449a.445.445 0 0 0 .002-.34.51.51 0 0 0-.24-.238l-2.88-1.598a19.49 19.49 0 0 0 .76-5.33 19.49 19.49 0 0 0-.013-.365l3.147-.932c.38-.495.224-.078.293-.168a.44.44 0 0 0 .088-.326l-.346-2.63a.439.439 0 0 0-.168-.294.513.513 0 0 0-.328-.086l-3.278.057a19.49 19.49 0 0 0-2.203-5.297l2.272-2.395c.082-.62.153-.18.168-.292a.444.444 0 0 0-.088-.329l-1.611-2.103a.441.441 0 0 0-.293-.17.514.514 0 0 0-.329.088l-2.802 1.683a19.49 19.49 0 0 0-4.563-3.488l.77-3.209c-.24-.577.043-.233 0-.338s-.125-.193-.238-.24l-2.45-1.016a.44.44 0 0 0-.338 0 .51.51 0 0 0-.24.239l-1.6 2.885a19.49 19.49 0 0 0-5.34-.764 19.49 19.49 0 0 0-.35.012l-.932-3.145c-.496-.38-.08-.226-.17-.295a.438.438 0 0 0-.326-.086zm1.78 7.625a15.38 15.38 0 0 1 15.379 15.38 15.38 15.38 0 0 1-15.38 15.378 15.38 15.38 0 0 1-15.378-15.379 15.38 15.38 0 0 1 15.379-15.379zm49.91 18.033c-2.134-.01-2.303 1.779-3.444 6.079a39.085 39.085 0 0 0-4.447.095c-1.449-4.737-1.953-6.39-3.795-5.959-2.092.49-1.82 2.28-1.934 6.795a39.078 39.078 0 0 0-4.181 1.215c-2.543-4.258-3.429-5.74-5.115-4.881-1.94.989-1.208 2.668-.22 7.21a39.054 39.054 0 0 0-3.718 2.214c-3.729-3.362-5.01-4.53-6.375-3.205-1.54 1.495-.39 2.892 1.832 6.816a38.958 38.958 0 0 0-3.053 3.16c-4.425-2.366-5.95-3.192-6.957-1.578-1.143 1.832.33 2.904 3.465 6.223a38.89 38.89 0 0 0-2.095 3.736c-4.413-.942-6.09-1.624-7.053.295-.853 1.697.64 2.57 4.947 5.108a38.84 38.84 0 0 0-1.076 4.232c-4.464.228-6.253.017-6.686 2.111-.38 1.843 1.275 2.313 5.989 3.62a38.773 38.773 0 0 0 .07 4.302c-4.217 1.477-5.994 1.78-5.818 3.91.152 1.85 1.857 1.858 6.601 1.785a38.87 38.87 0 0 0 .9 3.237 59.751 59.751 0 0 0 5.606-1.01c-2.215-6.653-2.697-14.023.982-23.537.682-1.763 1.49-3.282 2.41-4.47a33.701 33.701 0 0 1 17.062-13.927c.933-.474 2.218-.84 3.644-1.123a33.701 33.701 0 0 1 3.106-.636 33.701 33.701 0 0 1 3.353-.32 33.701 33.701 0 0 1 13.51 2.179 59.751 59.751 0 0 0 2.018-10.271c-.803.791-1.621 2.25-2.99 4.4a39.038 39.038 0 0 0-4.227-1.054c-.31-5.01-.408-6.74-2.31-6.75z" fill-opacity=".453" filter="url(#e)" transform="translate(-154.15 -2.121)"/><path d="M217.16 7.773a59.751 59.751 0 0 0-7.256.686 33.701 33.701 0 0 1 1.574 8.256 33.701 33.701 0 0 1-31.62 35.66 33.701 33.701 0 0 1-17.397-3.703 59.751 59.751 0 0 0-2.2 8.98c.629-.788 1.363-1.831 2.315-3.197l-.792-.41c1.524.66 3.09 1.22 4.687 1.68-.033 4.519-.365 6.301 1.71 6.859 1.798.483 2.378-1.123 3.92-5.633 1.474.192 2.957.3 4.442.324 1.132 4.93 1.504 6.625 3.389 6.323 2.116-.34 1.979-2.142 2.41-6.614a39.082 39.082 0 0 0 4.406-.85c2.1 4.355 2.863 5.893 4.6 5.194 1.994-.803 1.451-2.533.877-7.02a39.035 39.035 0 0 0 3.943-1.882c3.274 3.664 4.427 4.946 5.914 3.787 1.688-1.316.703-2.83-1.072-6.942a38.974 38.974 0 0 0 3.426-2.962c3.935 2.632 5.371 3.55 6.504 2.08 1.29-1.674-.005-2.898-2.678-6.332a38.89 38.89 0 0 0 2.422-3.512c4.693 1.347 6.35 1.813 6.988.045.713-1.975-.874-2.755-4.42-5.174a38.828 38.828 0 0 0 1.526-4.33c4.86.158 6.58.202 6.765-1.666.209-2.093-1.529-2.46-5.572-3.943a38.79 38.79 0 0 0 .307-4.618c4.607-.887 6.266-1.248 6.039-3.082-.26-2.098-2.042-2.058-6.365-2.623a38.793 38.793 0 0 0-.856-4.289c.818-.421 1.445-.756 2.065-1.091zm.193 36.676-2.629.344a.44.44 0 0 0-.293.17.508.508 0 0 0-.087.326l.056 3.278a19.49 19.49 0 0 0-5.43 2.275l-2.24-2.356a.439.439 0 0 0-.62-.082l-2.104 1.614c-.098.074-.155.18-.17.293s.027.222.088.328l1.625 2.84a19.49 19.49 0 0 0-3.537 4.668l-3.088-.909a.45.45 0 0 0-.338-.002.44.44 0 0 0-.239.24l-1.015 2.45a.44.44 0 0 0-.002.338.53.53 0 0 0 .24.24l2.826 1.646a19.49 19.49 0 0 0-.754 5.303 19.49 19.49 0 0 0 .018.5l-3.15.762a.438.438 0 0 0-.38.494l.343 2.629a.443.443 0 0 0 .167.295c.09.069.206.085.329.086l3.287.013a19.49 19.49 0 0 0 2.27 5.39l-2.346 2.232c-.096.076-.156.18-.17.293s.013.23.087.328l1.614 2.103a.441.441 0 0 0 .293.17.524.524 0 0 0 .326-.088l2.832-1.619a19.49 19.49 0 0 0 4.674 3.54l-.907 3.08a.44.44 0 0 0 .238.578l2.45 1.015a.444.444 0 0 0 .34 0c.104-.043.176-.134.238-.24l1.645-2.823a19.49 19.49 0 0 0 5.293.752 19.49 19.49 0 0 0 .511-.017l.762 3.15a.444.444 0 0 0 .496.38l2.629-.345a.439.439 0 0 0 .293-.168.53.53 0 0 0 .088-.328l.014-3.289a19.49 19.49 0 0 0 5.255-2.197l2.387 2.264c.62.081.181.155.293.17a.439.439 0 0 0 .326-.088l2.106-1.614c.097-.074.153-.18.168-.293s-.025-.22-.088-.326l-1.678-2.795a19.49 19.49 0 0 0 3.49-4.568l3.202.767c.577-.238.235.044.34 0a.437.437 0 0 0 .238-.238l1.015-2.449a.445.445 0 0 0 .002-.34.51.51 0 0 0-.24-.238l-2.88-1.598a19.49 19.49 0 0 0 .76-5.33 19.49 19.49 0 0 0-.013-.365l3.147-.932c.38-.495.224-.078.293-.168a.44.44 0 0 0 .088-.326l-.346-2.63a.439.439 0 0 0-.168-.294.513.513 0 0 0-.328-.086l-3.278.057a19.49 19.49 0 0 0-2.203-5.297l2.272-2.395c.082-.62.153-.18.168-.292a.444.444 0 0 0-.088-.329l-1.611-2.103a.441.441 0 0 0-.293-.17.514.514 0 0 0-.329.088l-2.802 1.683a19.49 19.49 0 0 0-4.563-3.488l.77-3.209c-.24-.577.043-.233 0-.338s-.125-.193-.238-.24l-2.45-1.016a.44.44 0 0 0-.338 0 .51.51 0 0 0-.24.239l-1.6 2.885a19.49 19.49 0 0 0-5.34-.764 19.49 19.49 0 0 0-.35.012l-.932-3.145c-.496-.38-.08-.226-.17-.295a.438.438 0 0 0-.326-.086zm1.78 7.625a15.38 15.38 0 0 1 15.379 15.38 15.38 15.38 0 0 1-15.38 15.378 15.38 15.38 0 0 1-15.378-15.379 15.38 15.38 0 0 1 15.379-15.379zm49.91 18.033c-2.134-.01-2.303 1.779-3.444 6.079a39.085 39.085 0 0 0-4.447.095c-1.449-4.737-1.953-6.39-3.795-5.959-2.092.49-1.82 2.28-1.934 6.795a39.078 39.078 0 0 0-4.181 1.215c-2.543-4.258-3.429-5.74-5.115-4.881-1.94.989-1.208 2.668-.22 7.21a39.054 39.054 0 0 0-3.718 2.214c-3.729-3.362-5.01-4.53-6.375-3.205-1.54 1.495-.39 2.892 1.832 6.816a38.958 38.958 0 0 0-3.053 3.16c-4.425-2.366-5.95-3.192-6.957-1.578-1.143 1.832.33 2.904 3.465 6.223a38.89 38.89 0 0 0-2.095 3.736c-4.413-.942-6.09-1.624-7.053.295-.853 1.697.64 2.57 4.947 5.108a38.84 38.84 0 0 0-1.076 4.232c-4.464.228-6.253.017-6.686 2.111-.38 1.843 1.275 2.313 5.989 3.62a38.773 38.773 0 0 0 .07 4.302c-4.217 1.477-5.994 1.78-5.818 3.91.152 1.85 1.857 1.858 6.601 1.785a38.87 38.87 0 0 0 .9 3.237 59.751 59.751 0 0 0 5.606-1.01c-2.215-6.653-2.697-14.023.982-23.537.682-1.763 1.49-3.282 2.41-4.47a33.701 33.701 0 0 1 17.062-13.927c.933-.474 2.218-.84 3.644-1.123a33.701 33.701 0 0 1 3.106-.636 33.701 33.701 0 0 1 3.353-.32 33.701 33.701 0 0 1 13.51 2.179 59.751 59.751 0 0 0 2.018-10.271c-.803.791-1.621 2.25-2.99 4.4a39.038 39.038 0 0 0-4.227-1.054c-.31-5.01-.408-6.74-2.31-6.75z" fill="url(#f)" transform="translate(-154.15 -2.121)"/><path d="M63.01 5.652a59.751 59.751 0 0 0-1.494.053c-.31.161-.521.282-.867.46a.65.65 0 0 0-.332.741c.359 1.389.64 2.799.84 4.219a.65.65 0 0 0 .56.553c2.175.283 3.705.429 4.594.71.444.141.709.302.877.489.168.186.28.425.334.86.044.36-.002.54-.104.698-.101.159-.31.338-.724.524-.83.37-2.388.697-4.69 1.14a.65.65 0 0 0-.527.635 38.17 38.17 0 0 1-.3 4.54.65.65 0 0 0 .42.69c2.033.747 3.479 1.225 4.274 1.694.398.235.618.45.74.668.123.219.179.476.135.908-.036.369-.123.537-.26.67-.136.133-.385.262-.845.35-.92.176-2.562.14-4.992.06a.65.65 0 0 0-.647.471 38.184 38.184 0 0 1-1.5 4.258.65.65 0 0 0 .233.789c1.783 1.216 3.063 2.03 3.717 2.678.326.323.486.584.55.826.065.241.056.503-.091.912-.126.349-.251.49-.416.586-.166.095-.44.16-.909.133-.937-.056-2.526-.495-4.873-1.168a.65.65 0 0 0-.734.285 38.226 38.226 0 0 1-2.381 3.453.65.65 0 0 0 0 .797c1.345 1.728 2.33 2.906 2.764 3.73.216.412.29.71.279.961-.011.25-.1.5-.367.846-.223.289-.382.386-.567.428-.184.04-.46.02-.888-.141-.857-.323-2.206-1.197-4.172-2.512a.65.65 0 0 0-.815.075 38.337 38.337 0 0 1-3.369 2.914.65.65 0 0 0-.201.773c.894 2.07 1.576 3.49 1.8 4.416.114.463.115.777.042 1.02s-.222.463-.572.736c-.294.229-.475.283-.666.275-.192-.007-.459-.102-.842-.377-.767-.55-1.885-1.775-3.522-3.607a.65.65 0 0 0-.797-.137 38.394 38.394 0 0 1-3.877 1.852.65.65 0 0 0-.398.683c.289 2.259.556 3.826.52 4.786-.019.48-.104.784-.24.998s-.34.384-.755.55c-.342.138-.53.142-.71.082-.182-.059-.412-.221-.702-.585-.58-.73-1.31-2.193-2.36-4.37a.65.65 0 0 0-.745-.347 38.42 38.42 0 0 1-4.332.836.65.65 0 0 0-.56.582c-.218 2.25-.306 3.828-.556 4.75-.124.46-.274.736-.455.914-.18.177-.418.299-.857.369-.374.06-.56.02-.725-.08-.164-.1-.355-.315-.56-.752-.41-.873-.801-2.527-1.367-4.992a.65.65 0 0 0-.623-.506 38.425 38.425 0 0 1-4.368-.319.65.65 0 0 0-.699.434c-.77 2.254-1.315 3.775-1.8 4.557-.244.39-.452.574-.624.654-.172.08-.359.1-.713.006-.43-.116-.653-.261-.814-.457s-.282-.49-.357-.963c-.152-.948-.074-2.534-.057-4.809a.65.65 0 0 0-.47-.629 38.376 38.376 0 0 1-4.61-1.65.65.65 0 0 0-.557 1.174l.106.055c-.41.583-.762 1.074-1.117 1.566a59.751 59.751 0 0 0-.213 1.408c.63-.788 1.363-1.831 2.316-3.197l-.793-.41c1.525.66 3.09 1.22 4.688 1.68-.034 4.519-.365 6.3 1.71 6.859 1.797.483 2.378-1.123 3.92-5.633 1.473.192 2.956.3 4.442.324 1.131 4.93 1.503 6.624 3.388 6.322 2.117-.338 1.98-2.14 2.41-6.613a39.082 39.082 0 0 0 4.407-.85c2.1 4.355 2.863 5.893 4.6 5.194 1.994-.803 1.45-2.533.876-7.02a39.035 39.035 0 0 0 3.944-1.882c3.273 3.664 4.427 4.946 5.914 3.787 1.688-1.316.703-2.83-1.072-6.942a38.974 38.974 0 0 0 3.425-2.963c3.936 2.633 5.372 3.55 6.504 2.08 1.29-1.673-.005-2.897-2.677-6.331a38.89 38.89 0 0 0 2.422-3.512c4.693 1.347 6.35 1.813 6.988.045.713-1.975-.875-2.756-4.42-5.174a38.828 38.828 0 0 0 1.525-4.33c4.861.158 6.58.202 6.766-1.666.208-2.093-1.53-2.46-5.572-3.943a38.79 38.79 0 0 0 .306-4.618c4.607-.887 6.267-1.248 6.04-3.082-.26-2.098-2.043-2.058-6.366-2.623a38.793 38.793 0 0 0-.855-4.289c.818-.422 1.445-.756 2.064-1.092zm-6.572.604a59.751 59.751 0 0 0-.684.082 33.701 33.701 0 0 1 1.574 8.256 33.701 33.701 0 0 1-31.62 35.66A33.701 33.701 0 0 1 8.31 46.55a59.751 59.751 0 0 0-.232.637 34.326 34.326 0 0 0 17.668 3.715c18.93-1.136 33.367-17.418 32.23-36.348a34.344 34.344 0 0 0-1.54-8.299zm6.765 36.072-2.629.343a.44.44 0 0 0-.293.17.508.508 0 0 0-.087.326l.056 3.278a19.49 19.49 0 0 0-5.43 2.275l-2.24-2.355a.439.439 0 0 0-.62-.082l-2.104 1.613c-.098.074-.156.18-.17.293s.027.222.088.328l1.625 2.84a19.49 19.49 0 0 0-3.538 4.668l-3.087-.908a.45.45 0 0 0-.338-.002.44.44 0 0 0-.239.24l-1.015 2.449a.44.44 0 0 0-.002.338.53.53 0 0 0 .24.24l2.826 1.647a19.49 19.49 0 0 0-.754 5.302 19.49 19.49 0 0 0 .018.5l-3.15.762a.438.438 0 0 0-.38.494l.342 2.63a.443.443 0 0 0 .168.294c.09.069.206.085.329.086l3.287.014a19.49 19.49 0 0 0 2.27 5.388l-2.347 2.233a.442.442 0 0 0-.082.621l1.614 2.103a.441.441 0 0 0 .293.17.524.524 0 0 0 .326-.088l2.832-1.619a19.49 19.49 0 0 0 4.674 3.54l-.907 3.08a.44.44 0 0 0 .238.578l2.45 1.015a.444.444 0 0 0 .34 0c.104-.043.176-.134.238-.24l1.645-2.822a19.49 19.49 0 0 0 5.293.752 19.49 19.49 0 0 0 .511-.018l.762 3.15a.444.444 0 0 0 .496.38l2.629-.344a.439.439 0 0 0 .293-.168.53.53 0 0 0 .088-.328l.014-3.29a19.49 19.49 0 0 0 5.255-2.197l2.387 2.264c.62.082.181.155.293.17a.439.439 0 0 0 .326-.088l2.106-1.613c.097-.075.153-.181.168-.293s-.025-.222-.088-.327l-1.678-2.795a19.49 19.49 0 0 0 3.49-4.568l3.202.768c.577-.24.235.043.34 0a.437.437 0 0 0 .238-.239l1.015-2.449a.445.445 0 0 0 .002-.34.51.51 0 0 0-.24-.238l-2.88-1.598a19.49 19.49 0 0 0 .76-5.33 19.49 19.49 0 0 0-.013-.365l3.147-.932c.38-.495.224-.078.293-.168a.44.44 0 0 0 .088-.326l-.346-2.63a.439.439 0 0 0-.168-.294.513.513 0 0 0-.328-.086l-3.278.057a19.49 19.49 0 0 0-2.203-5.297l2.272-2.394c.082-.62.153-.181.168-.293a.444.444 0 0 0-.088-.328l-.186-.24h-.004l.004-.003-1.426-1.86a.441.441 0 0 0-.293-.17.514.514 0 0 0-.328.087l-2.802 1.684a19.49 19.49 0 0 0-4.563-3.489l.77-3.209c-.24-.577.043-.233 0-.338s-.126-.193-.239-.24l-.283-.117-2.166-.898a.44.44 0 0 0-.338 0 .51.51 0 0 0-.24.238l-1.6 2.885a19.49 19.49 0 0 0-5.34-.764 19.49 19.49 0 0 0-.35.012l-.933-3.145c-.495-.38-.08-.226-.17-.295a.438.438 0 0 0-.326-.086zm-.142.673.064.061.883 2.977a.65.65 0 0 0 .65.464c.108-.004.215-.009.323-.011h.004c1.745.006 3.481.254 5.158.738a.65.65 0 0 0 .748-.31l1.533-2.766 2.063.855c.007.028.019.058.027.084l-.728 3.04a.65.65 0 0 0 .318.72c1.628.9 3.114 2.038 4.41 3.373a.65.65 0 0 0 .8.104l2.688-1.616 1.36 1.776c-.008.027-.014.06-.02.088l-2.148 2.265a.65.65 0 0 0-.086.784 18.83 18.83 0 0 1 2.129 5.119.65.65 0 0 0 .642.492l3.143-.055.291 2.213c-.02.02-.042.046-.06.066l-2.977.881a.65.65 0 0 0-.465.655l.012.336a18.83 18.83 0 0 1-.737 5.148.65.65 0 0 0 .311.748l2.762 1.531-.856 2.065-.084.025-3.03-.726a.65.65 0 0 0-.722.318 18.844 18.844 0 0 1-3.375 4.416.65.65 0 0 0-.103.8l1.61 2.68-1.774 1.358c-.028-.008-.06-.014-.088-.02l-2.258-2.14a.65.65 0 0 0-.783-.086 18.834 18.834 0 0 1-5.08 2.123.65.65 0 0 0-.49.629l-.014 3.166-2.258.296-.728-3.013a.65.65 0 0 0-.663-.496c-.16.007-.318.012-.478.015h-.002c-1.73-.006-3.45-.25-5.113-.726a.65.65 0 0 0-.743.297l-1.584 2.718-2.101-.87.867-2.948a.65.65 0 0 0-.312-.756 18.833 18.833 0 0 1-4.518-3.42.65.65 0 0 0-.79-.111l-2.726 1.559-1.384-1.807 2.244-2.137a.65.65 0 0 0 .107-.81 18.839 18.839 0 0 1-2.193-5.21.65.65 0 0 0-.63-.49l-3.163-.013-.295-2.256 3.013-.729a.65.65 0 0 0 .497-.662 21.37 21.37 0 0 1-.016-.467v-.002a18.83 18.83 0 0 1 .728-5.123.65.65 0 0 0-.296-.742l-2.723-1.586.873-2.101 2.953.869a.65.65 0 0 0 .754-.313 18.84 18.84 0 0 1 3.42-4.511.65.65 0 0 0 .111-.79l-1.566-2.736 1.808-1.384 2.145 2.253a.65.65 0 0 0 .81.108 18.837 18.837 0 0 1 5.248-2.2.65.65 0 0 0 .493-.642l-.055-3.143zm1.922 6.301c-8.845 0-16.03 7.185-16.03 16.03.001 8.844 7.185 16.028 16.03 16.028 8.844 0 16.029-7.184 16.029-16.029 0-8.844-7.185-16.029-16.03-16.029zm0 .65a15.38 15.38 0 0 1 15.379 15.38 15.38 15.38 0 0 1-15.38 15.379 15.38 15.38 0 0 1-15.378-15.38 15.38 15.38 0 0 1 15.379-15.378zm49.91 18.034c-2.134-.011-2.303 1.778-3.444 6.078a39.085 39.085 0 0 0-4.447.095c-1.449-4.737-1.953-6.39-3.795-5.959-2.092.49-1.82 2.281-1.934 6.795a39.078 39.078 0 0 0-4.181 1.215c-2.543-4.258-3.429-5.74-5.115-4.88-1.94.988-1.208 2.668-.22 7.21a39.054 39.054 0 0 0-3.718 2.213c-3.729-3.362-5.01-4.53-6.375-3.205-1.54 1.495-.39 2.892 1.832 6.816a38.958 38.958 0 0 0-3.053 3.16c-4.425-2.366-5.95-3.192-6.957-1.578-1.143 1.832.33 2.904 3.465 6.223a38.89 38.89 0 0 0-2.096 3.736c-4.412-.942-6.088-1.624-7.052.295-.853 1.697.64 2.57 4.947 5.108a38.84 38.84 0 0 0-1.076 4.232c-4.464.228-6.254.017-6.686 2.111-.38 1.843 1.275 2.313 5.989 3.62a38.773 38.773 0 0 0 .07 4.302c-4.217 1.477-5.994 1.78-5.819 3.91.153 1.851 1.858 1.858 6.602 1.786a38.87 38.87 0 0 0 .9 3.236 59.751 59.751 0 0 0 .659-.078 38.285 38.285 0 0 1-.924-3.303.65.65 0 0 0-.645-.506c-2.37.037-3.978.037-4.875-.156-.448-.097-.691-.23-.824-.365-.133-.135-.214-.302-.244-.666-.036-.442.023-.7.152-.918.13-.218.362-.432.778-.662.831-.461 2.332-.921 4.455-1.664a.65.65 0 0 0 .433-.66 38.139 38.139 0 0 1-.068-4.231.65.65 0 0 0-.477-.652c-2.356-.653-3.943-1.112-4.771-1.555-.414-.222-.616-.42-.707-.588-.091-.168-.122-.355-.047-.719.09-.434.221-.663.406-.836.185-.172.466-.312.93-.416.928-.208 2.5-.227 4.746-.341a.65.65 0 0 0 .605-.524 38.193 38.193 0 0 1 1.057-4.162.65.65 0 0 0-.289-.756c-2.153-1.268-3.596-2.135-4.297-2.785-.35-.325-.496-.571-.541-.758-.045-.187-.028-.376.14-.713.2-.398.388-.586.612-.705.224-.118.535-.177 1.014-.156.957.042 2.49.436 4.71.91a.65.65 0 0 0 .721-.348 38.24 38.24 0 0 1 2.06-3.673.65.65 0 0 0-.075-.797c-1.58-1.671-2.73-2.785-3.272-3.586-.271-.4-.382-.7-.398-.953-.017-.254.045-.512.283-.893.2-.32.352-.434.535-.492.184-.058.472-.06.934.07.923.262 2.418 1.046 4.63 2.229a.65.65 0 0 0 .8-.149 38.318 38.318 0 0 1 3.001-3.107.65.65 0 0 0 .125-.797c-1.118-1.975-1.956-3.32-2.283-4.22-.163-.45-.198-.765-.152-1.014.046-.25.17-.485.49-.795.27-.263.445-.337.637-.35s.472.055.888.293c.834.476 2.097 1.596 3.961 3.277a.65.65 0 0 0 .8.057 38.392 38.392 0 0 1 3.655-2.176.65.65 0 0 0 .334-.715c-.498-2.287-.918-3.856-.974-4.836-.028-.49.03-.807.146-1.035.117-.227.304-.417.707-.623.334-.17.522-.188.71-.144.186.044.433.187.759.533.652.691 1.521 2.119 2.793 4.248a.65.65 0 0 0 .775.28 38.402 38.402 0 0 1 4.112-1.196.65.65 0 0 0 .504-.617c.057-2.273.03-3.858.212-4.8.092-.47.224-.758.391-.948.168-.19.394-.328.828-.43.365-.085.552-.058.723.03s.374.285.607.699c.467.827.971 2.418 1.696 4.787a.65.65 0 0 0 .671.459 38.428 38.428 0 0 1 4.373-.094.65.65 0 0 0 .653-.485c.574-2.163.915-3.69 1.31-4.55.198-.43.391-.676.598-.82s.46-.226.902-.223c.378.002.556.071.702.197.146.125.298.368.43.83.261.923.38 2.608.534 5.113a.65.65 0 0 0 .528.598c1.404.268 2.791.614 4.156 1.037a.65.65 0 0 0 .74-.271c.981-1.54 1.684-2.724 2.256-3.524a59.751 59.751 0 0 0 .186-1.226c-.803.791-1.622 2.25-2.99 4.4a39.038 39.038 0 0 0-4.227-1.055c-.31-5.009-.408-6.74-2.31-6.75zm-4.385 10.812a34.726 34.726 0 0 0-5.063.361.65.65 0 0 0-.006 0c-1.053.165-2.099.38-3.132.643-1.45.288-2.766.656-3.791 1.173a34.342 34.342 0 0 0-17.31 14.127c-.967 1.254-1.797 2.82-2.494 4.621-3.715 9.61-3.238 17.164-1.007 23.914a59.751 59.751 0 0 0 .63-.142c-2.214-6.653-2.696-14.023.983-23.537.681-1.763 1.49-3.282 2.41-4.47A33.701 33.701 0 0 1 98.789 81.56c.934-.474 2.218-.84 3.644-1.123a33.701 33.701 0 0 1 3.106-.637 33.701 33.701 0 0 1 3.353-.32 33.701 33.701 0 0 1 13.51 2.18 59.751 59.751 0 0 0 .167-.649 34.192 34.192 0 0 0-12.061-2.214z" fill="#fff" fill-opacity=".061"/><path d="M64.985.817C29.395.817.469 29.743.469 65.333s28.926 64.516 64.516 64.516 64.516-28.926 64.516-64.516S100.575.817 64.985.817zm0 7c31.807 0 57.516 25.709 57.516 57.516s-25.709 57.516-57.516 57.516S7.469 97.139 7.469 65.333 33.178 7.817 64.985 7.817z" fill="url(#g)"/><path d="M64.985 6.582c-32.435 0-58.75 26.316-58.75 58.75 0 32.436 26.315 58.75 58.75 58.75s58.75-26.314 58.75-58.75c0-32.434-26.315-58.75-58.75-58.75zm0 1.235c31.807 0 57.516 25.709 57.516 57.516s-25.709 57.516-57.516 57.516S7.469 97.139 7.469 65.333c0-19.08 9.252-35.966 23.521-46.424 9.518-6.976 21.268-11.092 33.994-11.092z" fill="url(#h)"/><g transform="translate(-153.61 -4.268)"><path d="m215.19 34.459-12.5 2.75 6.102 11.729c-2.672-9.837 3.456-11.205 9.335-11.232 2.378-.01 4.837.35 6.928.799 5.268 1.04 10.56 3.869 14.154 6.86 3.24 2.728 6.014 6.098 7.904 9.792 1.267 2.477 1.963 4.935 1.627 7.194-.356 2.398-2.82 4.304-7.378 5.502l10.703-2.393-1.125-9.75-6-10-9.875-8.75zm-17.02 8.414-7.88 5.85-5.661 10.197-2.64 12.926 7.773 18.463 8.63 9.45 7.106-11.147c-7.183 7.232-11.43 2.607-14.395-2.47-1.198-2.054-2.114-4.364-2.771-6.4-1.734-5.081-1.93-11.077-1.137-15.685.743-4.17 2.275-8.26 4.53-11.744 1.51-2.336 3.292-4.167 5.415-5.006 2.255-.89 5.137.29 8.453 3.639zm43.496 28.781c9.855 2.605 7.975 8.596 5.059 13.701-1.18 2.064-2.722 4.015-4.157 5.602-3.534 4.042-8.629 7.21-13.016 8.828-3.983 1.441-8.29 2.16-12.436 1.949-2.778-.141-5.255-.77-7.043-2.19-1.898-1.507-2.318-4.594-1.076-9.14l-3.277 10.467 9.006 3.9 11.66-.197 12.516-4.176 12.102-15.963 3.869-12.2z" fill="url(#i)"/><path d="M218.5 24.385c-2.14.181-2.13 1.993-2.898 6.443a38.984 38.878 0 0 0-4.315.596c-1.898-4.582-2.56-6.178-4.353-5.572-2.062.697-1.582 2.465-1.262 7.103a38.984 38.878 0 0 0-4 1.65c-3.202-3.866-4.3-5.208-5.844-4.095-1.741 1.256-.805 2.805.824 7.01a38.984 38.878 0 0 0-3.478 2.683c-4.035-2.982-5.424-4.02-6.654-2.57-1.397 1.647-.096 2.921 2.525 6.66a38.984 38.878 0 0 0-2.615 3.393c-4.23-1.572-5.79-2.49-7.022-.73-1.09 1.555.262 2.636 4.155 5.77a38.984 38.878 0 0 0-1.678 4.032c-4.45-.421-6.19-.89-6.922 1.12-.643 1.767.926 2.472 5.4 4.448a38.984 38.878 0 0 0-.554 4.268c-4.387.85-6.19.892-6.324 3.025-.118 1.854 1.568 2.107 6.273 2.723a38.984 38.878 0 0 0 .625 4.537c-4.03 1.766-5.765 2.218-5.428 4.315.3 1.867 2.021 1.707 6.95 1.25a38.984 38.878 0 0 0 1.742 4.197c-3.437 2.664-4.993 3.53-4.159 5.47.751 1.745 2.381 1.162 7.09-.501a38.984 38.878 0 0 0 2.547 3.289c-2.592 3.806-3.886 5.094-2.463 6.728 1.242 1.426 2.619.381 6.555-2.609a38.984 38.878 0 0 0 3.486 2.687c-1.577 4.392-2.527 5.965-.73 7.2 1.573 1.081 2.638-.291 5.777-4.26l-.768-.457a38.984 38.878 0 0 0 4.579 1.959c-.305 4.51-.742 6.268 1.296 6.949 1.765.59 2.44-.979 4.25-5.389a38.984 38.878 0 0 0 4.415.59c.834 4.99 1.104 6.704 3.003 6.516 2.133-.212 2.105-2.019 2.803-6.457a38.984 38.878 0 0 0 4.45-.584c1.835 4.472 2.503 6.052 4.279 5.459 2.039-.682 1.6-2.44 1.297-6.953a38.984 38.878 0 0 0 4.048-1.645c3.048 3.855 4.122 5.203 5.676 4.135 1.764-1.213.871-2.781-.654-6.992a38.984 38.878 0 0 0 3.597-2.752c3.771 2.863 5.15 3.866 6.368 2.467 1.387-1.594.169-2.894-2.293-6.483a38.984 38.878 0 0 0 2.629-3.36c4.604 1.627 6.229 2.19 6.972.464.83-1.929-.707-2.803-4.101-5.43a38.984 38.878 0 0 0 1.78-4.23c4.843.449 6.557.595 6.854-1.258.334-2.077-1.377-2.546-5.324-4.27a38.984 38.878 0 0 0 .582-4.59c4.652-.61 6.33-.87 6.213-2.714-.134-2.11-1.916-2.178-6.197-3a38.984 38.878 0 0 0-.596-4.332c4.398-1.943 5.955-2.655 5.317-4.41-.726-1.993-2.458-1.548-6.827-1.13a38.984 38.878 0 0 0-1.691-4.091c3.816-3.073 5.153-4.16 4.072-5.701-1.227-1.752-2.788-.848-6.976.712a38.984 38.878 0 0 0-2.692-3.474c2.83-3.999 3.817-5.41 2.356-6.598-1.642-1.334-2.9-.07-6.412 2.518a38.984 38.878 0 0 0-3.559-2.723c1.873-4.57 2.527-6.168.83-7-1.953-.957-2.861.634-5.896 4.147a38.984 38.878 0 0 0-4.03-1.657c.42-5 .575-6.728-1.306-7.013-2.11-.32-2.538 1.427-4.29 5.515a38.984 38.878 0 0 0-4.414-.55c-.746-4.898-1.005-6.607-2.89-6.448zm-1.557 11.949c4.316-.072 9.44.698 11.104 1.422 7.246 2.209 13.946 6.269 19.652 15.717 1.063 1.76 1.826 3.468 2.17 5.027.342 1.64.214 3.547-.845 5.051-.908 1.196-2.032 2.323-3.6 2.467-4.88.457-11.498.199-16.721.142-.879-.01-1.718-.365-1.97-.642-1.548-.975-2.59-3.097-4.315-3.695-2.755-1.277-3.87-.207-5.424-2.118a270.686 270.686 0 0 1-8.174-13.994c-1.842-3.206-.627-6.415 2.149-8.144 1.086-.843 3.385-1.19 5.974-1.233zm-19.234 9.887c.225-.007.451 0 .68.023 1.487.204 3.021.63 3.916 1.926 2.794 4.028 5.817 9.92 8.33 14.498.423.77.526 1.677.408 2.033-.09 1.827-1.429 3.775-1.103 5.572.24 3.027 1.72 3.472.818 5.764a270.555 270.555 0 0 1-8.183 13.99c-1.89 3.178-5.282 3.695-8.15 2.125-3.38-1.42-7.92-12.084-8.218-14.973-1.631-7.397-1.38-15.228 4.051-24.836 1.012-1.79 2.127-3.293 3.317-4.357 1.103-.965 2.561-1.717 4.134-1.766zm38.613 26.914c2.71.014 5.41.069 8.073.168 3.697.047 5.84 2.726 5.916 5.996.459 3.637-6.505 12.899-8.858 14.602-5.59 5.111-12.498 8.81-23.535 8.91-2.055.019-3.914-.195-5.431-.693-1.585-.541-3.161-1.62-3.916-3.297-.568-1.39-.966-2.933-.291-4.356 2.091-4.433 5.685-9.997 8.392-14.463.456-.751 1.19-1.293 1.557-1.369 1.627-.835 3.983-.651 5.377-1.832 2.501-1.721 2.148-3.226 4.584-3.59 2.704-.062 5.423-.09 8.133-.076z" fill="url(#j)"/><path d="M218.5 24.385c-2.14.181-2.13 1.993-2.898 6.443a38.984 38.878 0 0 0-4.315.596c-1.898-4.582-2.56-6.178-4.353-5.572-2.062.697-1.582 2.465-1.262 7.103a38.984 38.878 0 0 0-4 1.65c-3.202-3.866-4.3-5.208-5.844-4.095-1.741 1.256-.805 2.805.824 7.01a38.984 38.878 0 0 0-3.478 2.683c-4.035-2.982-5.424-4.02-6.654-2.57-1.397 1.647-.097 2.921 2.525 6.66a38.984 38.878 0 0 0-2.615 3.393c-4.23-1.572-5.79-2.49-7.022-.73-1.09 1.555.262 2.636 4.155 5.77a38.984 38.878 0 0 0-1.678 4.032c-4.45-.421-6.19-.89-6.922 1.12-.644 1.767.926 2.472 5.4 4.448a38.984 38.878 0 0 0-.554 4.268c-4.387.85-6.19.892-6.325 3.025-.117 1.854 1.569 2.107 6.274 2.723a38.984 38.878 0 0 0 .625 4.537c-4.03 1.766-5.765 2.218-5.428 4.315.3 1.867 2.02 1.707 6.95 1.25a38.984 38.878 0 0 0 1.742 4.197c-3.437 2.664-4.994 3.53-4.159 5.47.75 1.745 2.381 1.162 7.09-.501a38.984 38.878 0 0 0 2.547 3.289c-2.592 3.806-3.886 5.094-2.463 6.728 1.242 1.426 2.618.381 6.555-2.609a38.984 38.878 0 0 0 3.486 2.687c-1.577 4.392-2.527 5.965-.73 7.2 1.573 1.081 2.638-.291 5.777-4.26l-.768-.457a38.984 38.878 0 0 0 4.579 1.959c-.305 4.51-.742 6.268 1.296 6.95 1.765.589 2.44-.98 4.25-5.39a38.984 38.878 0 0 0 4.415.59c.834 4.99 1.104 6.704 3.003 6.516 2.133-.212 2.105-2.019 2.803-6.457a38.984 38.878 0 0 0 4.45-.584c1.835 4.472 2.503 6.052 4.279 5.459 2.039-.682 1.6-2.44 1.297-6.953a38.984 38.878 0 0 0 4.048-1.645c3.048 3.855 4.122 5.203 5.676 4.135 1.764-1.213.871-2.781-.654-6.992a38.984 38.878 0 0 0 3.597-2.752c3.771 2.863 5.15 3.866 6.368 2.467 1.387-1.594.169-2.894-2.293-6.483a38.984 38.878 0 0 0 2.629-3.36c4.604 1.627 6.229 2.19 6.972.464.83-1.929-.707-2.803-4.101-5.43a38.984 38.878 0 0 0 1.78-4.23c4.844.449 6.557.595 6.854-1.258.334-2.077-1.377-2.546-5.324-4.27a38.984 38.878 0 0 0 .582-4.59c4.652-.61 6.33-.87 6.213-2.714-.134-2.11-1.916-2.178-6.197-3a38.984 38.878 0 0 0-.596-4.332c4.398-1.943 5.955-2.656 5.317-4.41-.726-1.994-2.458-1.548-6.827-1.13a38.984 38.878 0 0 0-1.691-4.091c3.816-3.073 5.153-4.16 4.072-5.701-1.227-1.752-2.788-.848-6.976.712a38.984 38.878 0 0 0-2.692-3.474c2.83-3.999 3.817-5.41 2.356-6.598-1.642-1.334-2.9-.07-6.412 2.518a38.984 38.878 0 0 0-3.559-2.723c1.873-4.571 2.527-6.168.83-7-1.953-.957-2.861.634-5.896 4.147a38.984 38.878 0 0 0-4.03-1.657c.42-5 .575-6.728-1.306-7.013-2.11-.32-2.537 1.427-4.29 5.515a38.984 38.878 0 0 0-4.413-.55c-.747-4.898-1.006-6.607-2.891-6.448zm.043.498c.396-.033.619.025.809.16.19.135.377.391.554.85.354.917.617 2.567.99 5.015a.5.5 0 0 0 .461.422c1.462.099 2.917.281 4.358.545a.5.5 0 0 0 .549-.295c.88-2.054 1.437-3.515 1.97-4.336.267-.41.512-.648.77-.777.258-.13.557-.175 1.016-.105.395.06.6.17.753.347s.275.47.34.961c.13.984 0 2.67-.21 5.17a.5.5 0 0 0 .333.514 38.55 38.55 0 0 1 3.979 1.635.5.5 0 0 0 .594-.125c1.525-1.766 2.524-3.042 3.296-3.694.387-.326.699-.488.987-.537.288-.05.588-.001 1.013.207.357.175.519.34.612.553.093.213.124.526.04 1.01-.166.966-.787 2.513-1.724 4.798a.5.5 0 0 0 .182.604 38.488 38.488 0 0 1 3.514 2.687.5.5 0 0 0 .623.024c1.764-1.3 2.967-2.257 3.832-2.684.432-.213.76-.292 1.047-.271s.563.134.92.424c.306.249.427.445.47.673.043.228.002.541-.185.99-.376.9-1.318 2.257-2.733 4.257a.5.5 0 0 0 .031.617 38.38 38.38 0 0 1 2.657 3.43.5.5 0 0 0 .586.185c2.104-.784 3.552-1.393 4.517-1.576.483-.092.826-.078 1.098.02s.51.281.777.661c.227.324.289.547.268.778s-.146.52-.45.9c-.607.762-1.887 1.812-3.794 3.348a.5.5 0 0 0-.137.605 38.305 38.305 0 0 1 1.67 4.04.5.5 0 0 0 .52.333c2.194-.21 3.727-.416 4.693-.34.483.04.805.141 1.04.305s.418.406.575.838c.134.367.137.598.059.815-.08.216-.272.46-.657.748-.77.574-2.25 1.248-4.449 2.218a.5.5 0 0 0-.289.553 38.3 38.3 0 0 1 .588 4.278.5.5 0 0 0 .404.449c2.151.413 3.669.648 4.569.994.45.173.73.36.91.584.179.224.285.505.314.963.025.385-.039.606-.174.79-.134.186-.381.364-.822.53-.881.332-2.459.563-4.783.867a.5.5 0 0 0-.434.463 38.29 38.29 0 0 1-.576 4.531.5.5 0 0 0 .293.551c1.983.866 3.396 1.426 4.188 1.96.396.266.626.51.75.767s.164.554.091 1.004c-.062.388-.172.59-.347.742-.175.15-.465.271-.945.334-.962.124-2.6-.012-5.02-.237a.5.5 0 0 0-.518.332 38.315 38.315 0 0 1-1.76 4.176.5.5 0 0 0 .143.616c1.705 1.319 2.934 2.206 3.569 2.916.317.354.48.646.537.925.057.28.023.578-.157.996-.155.362-.312.531-.52.635-.206.104-.517.15-1 .092-.964-.115-2.525-.65-4.827-1.463a.5.5 0 0 0-.576.186 38.374 38.374 0 0 1-2.596 3.314.5.5 0 0 0-.035.613c1.237 1.803 2.15 3.035 2.547 3.912.198.44.264.77.234 1.055-.03.285-.152.559-.453.904-.255.293-.455.405-.682.442-.226.036-.53-.011-.963-.205-.866-.388-2.158-1.343-4.043-2.774a.5.5 0 0 0-.629.02 38.47 38.47 0 0 1-3.55 2.717.5.5 0 0 0-.192.584c.767 2.116 1.364 3.57 1.54 4.539.087.484.071.828-.028 1.1-.1.27-.287.507-.67.77-.326.225-.55.286-.781.263-.231-.023-.52-.151-.899-.46-.758-.615-1.796-1.908-3.32-3.835a.5.5 0 0 0-.605-.14 38.543 38.543 0 0 1-3.998 1.622.5.5 0 0 0-.336.506c.153 2.268.327 3.844.23 4.83-.048.493-.157.822-.328 1.057-.17.234-.416.41-.86.558-.37.125-.603.12-.818.035-.214-.084-.455-.283-.732-.677-.555-.79-1.19-2.296-2.107-4.531a.5.5 0 0 0-.557-.301 38.589 38.589 0 0 1-4.393.576.5.5 0 0 0-.457.42c-.35 2.23-.53 3.797-.843 4.732-.157.468-.337.761-.555.951s-.496.308-.96.354c-.399.04-.627-.017-.82-.15-.192-.134-.383-.39-.568-.854-.369-.927-.657-2.6-1.074-5.096a.5.5 0 0 0-.455-.416 38.58 38.58 0 0 1-4.358-.582.5.5 0 0 0-.556.301c-.905 2.204-1.537 3.692-2.088 4.47-.276.39-.513.585-.727.669-.214.084-.445.088-.814-.035-.443-.149-.689-.325-.86-.559-.17-.234-.279-.562-.328-1.055-.097-.986.078-2.561.23-4.828a.5.5 0 0 0-.331-.504 38.507 38.507 0 0 1-4.518-1.933.5.5 0 0 0-.482.875l.256.152c-1.3 1.637-2.34 2.949-3.026 3.514-.385.317-.677.448-.91.472s-.46-.036-.79-.263c-.392-.27-.58-.51-.679-.785-.098-.276-.109-.627-.013-1.125.19-.997.816-2.5 1.61-4.707a.5.5 0 0 0-.188-.583 38.534 38.534 0 0 1-3.444-2.654.5.5 0 0 0-.629-.02c-1.968 1.496-3.303 2.494-4.195 2.905-.446.205-.756.258-.986.223-.23-.035-.433-.149-.694-.448-.31-.355-.432-.634-.459-.923-.027-.29.047-.632.26-1.086.426-.91 1.396-2.196 2.7-4.11a.5.5 0 0 0-.036-.607 38.418 38.418 0 0 1-2.514-3.248.5.5 0 0 0-.578-.186c-2.354.832-3.944 1.382-4.926 1.504-.49.061-.804.016-1.013-.088s-.368-.274-.526-.64c-.18-.421-.212-.72-.154-1 .058-.28.221-.575.543-.932.644-.714 1.89-1.61 3.617-2.947a.5.5 0 0 0 .143-.614 38.31 38.31 0 0 1-1.719-4.142.5.5 0 0 0-.52-.334c-2.464.228-4.126.37-5.101.248-.487-.061-.779-.18-.955-.332-.177-.152-.289-.356-.352-.748-.073-.455-.032-.754.094-1.012s.361-.504.766-.773c.808-.538 2.25-1.105 4.275-1.993a.5.5 0 0 0 .29-.554c-.295-1.48-.5-2.975-.618-4.479a.5.5 0 0 0-.434-.457c-2.351-.308-3.943-.536-4.834-.869-.445-.166-.696-.346-.832-.531-.135-.185-.198-.408-.174-.795.03-.464.137-.746.319-.97.181-.225.468-.415.928-.589.918-.346 2.47-.58 4.675-1.007a.5.5 0 0 0 .403-.454c.104-1.413.288-2.82.548-4.212a.5.5 0 0 0-.29-.55c-2.237-.987-3.742-1.669-4.524-2.247-.391-.29-.586-.534-.666-.752-.08-.218-.076-.45.059-.82.159-.437.34-.678.578-.842.237-.165.565-.266 1.054-.303.98-.074 2.536.14 4.772.351a.5.5 0 0 0 .52-.332 38.335 38.335 0 0 1 1.654-3.98.5.5 0 0 0-.135-.606c-1.946-1.567-3.252-2.63-3.871-3.402-.31-.385-.435-.677-.457-.91-.022-.232.04-.456.27-.783.267-.383.506-.567.779-.664.273-.097.618-.11 1.103-.016.972.187 2.43.802 4.555 1.592a.5.5 0 0 0 .586-.186 38.415 38.415 0 0 1 2.582-3.35.5.5 0 0 0 .031-.613c-1.318-1.879-2.295-3.145-2.728-4.044-.217-.45-.296-.789-.272-1.079s.142-.567.445-.925c.259-.305.461-.423.692-.461.23-.038.545.011.998.215.905.406 2.27 1.403 4.287 2.894a.5.5 0 0 0 .625-.023 38.476 38.476 0 0 1 3.434-2.65.5.5 0 0 0 .183-.593c-.819-2.113-1.453-3.562-1.652-4.53-.1-.485-.093-.83 0-1.104.093-.274.276-.516.654-.79.325-.233.548-.3.781-.28.233.018.528.143.918.449.782.612 1.866 1.906 3.467 3.84a.5.5 0 0 0 .602.132 38.512 38.512 0 0 1 3.947-1.629.5.5 0 0 0 .334-.507c-.16-2.332-.35-3.944-.262-4.952.045-.503.151-.836.32-1.074s.417-.416.866-.568c.376-.127.61-.125.826-.04.217.086.46.29.742.692.564.806 1.213 2.346 2.162 4.637a.5.5 0 0 0 .559.299 38.589 38.589 0 0 1 4.26-.588.5.5 0 0 0 .45-.412c.387-2.237.588-3.81.915-4.744.163-.468.348-.76.568-.948.221-.187.502-.3.967-.34zm-1.607 10.951c-2.62.044-4.95.329-6.256 1.332-1.463.92-2.54 2.238-2.996 3.777-.46 1.55-.278 3.309.7 5.014l.003.004a271.29 271.29 0 0 0 8.183 14.008.5.5 0 0 0 .036.05c.842 1.037 1.712 1.34 2.57 1.477.858.138 1.725.175 3.031.78a.5.5 0 0 0 .047.02c.72.248 1.361.856 2.02 1.571.635.69 1.291 1.456 2.117 2.002.237.25.537.403.926.541.4.143.875.245 1.38.25 5.21.057 11.832.319 16.771-.144 1.784-.164 3.017-1.428 3.954-2.662a.5.5 0 0 0 .01-.016c1.162-1.651 1.29-3.7.927-5.44a.5.5 0 0 0-.002-.005c-.36-1.636-1.148-3.386-2.23-5.178-5.749-9.519-12.574-13.68-19.881-15.918l-.006-.002c-.946-.41-2.635-.766-4.684-1.043-2.051-.277-4.43-.455-6.62-.418zm.008.5c4.315-.072 9.439.698 11.104 1.422 7.245 2.209 13.946 6.269 19.652 15.717 1.062 1.76 1.826 3.468 2.17 5.027.34 1.64.213 3.547-.846 5.051-.908 1.196-2.032 2.323-3.6 2.467-4.88.457-11.498.199-16.72.142-.88-.01-1.719-.365-1.972-.642-1.547-.975-2.588-3.097-4.314-3.695-2.755-1.277-3.87-.206-5.424-2.118a270.686 270.686 0 0 1-8.174-13.994c-1.841-3.206-.627-6.415 2.149-8.144 1.086-.843 3.385-1.19 5.974-1.233zm-19.25 9.387c-1.723.054-3.277.865-4.448 1.888a.5.5 0 0 0-.006.004c-1.248 1.118-2.388 2.663-3.418 4.485-5.475 9.685-5.748 17.677-4.11 25.145.087.82.434 2.024.96 3.467a47.14 47.14 0 0 0 2.04 4.73c.807 1.62 1.71 3.196 2.64 4.475.925 1.272 1.856 2.26 2.865 2.69 1.519.822 3.197 1.111 4.761.753 1.576-.36 3.02-1.382 4.026-3.074a271.11 271.11 0 0 0 8.193-14.006.5.5 0 0 0 .026-.057c.49-1.243.325-2.148.023-2.963-.302-.814-.695-1.589-.809-3.023a.5.5 0 0 0-.006-.05c-.135-.75.08-1.607.38-2.532.29-.893.636-1.838.706-2.826.102-.33.089-.666.018-1.073a4.325 4.325 0 0 0-.463-1.326c-2.507-4.566-5.528-10.464-8.355-14.54l-.002-.003c-1.018-1.471-2.725-1.926-4.258-2.136a.5.5 0 0 0-.018-.002 5.65 5.65 0 0 0-.746-.026zm.015.5c.225-.007.451 0 .68.023 1.487.204 3.02.63 3.916 1.926 2.794 4.028 5.816 9.92 8.33 14.498.423.77.526 1.677.408 2.033-.09 1.827-1.43 3.775-1.103 5.572.24 3.027 1.72 3.472.818 5.764a270.555 270.555 0 0 1-8.184 13.99c-1.89 3.178-5.28 3.695-8.15 2.125-3.379-1.42-7.918-12.084-8.217-14.973-1.631-7.397-1.38-15.228 4.051-24.836 1.012-1.79 2.127-3.293 3.316-4.357 1.104-.964 2.562-1.717 4.135-1.766zm38.615 26.414c-2.715-.014-5.437.013-8.146.076a.5.5 0 0 0-.063.006c-1.32.197-2.023.792-2.578 1.46-.555.67-1.03 1.396-2.215 2.212a.5.5 0 0 0-.039.03c-.58.493-1.432.736-2.383.938-.919.196-1.913.369-2.804.803-.335.078-.619.257-.934.52-.326.272-.656.63-.918 1.062-2.7 4.455-6.299 10.021-8.416 14.508-.767 1.618-.306 3.326.28 4.76a.5.5 0 0 0 .007.016c.83 1.841 2.528 2.99 4.21 3.564a.5.5 0 0 0 .005.002c1.592.523 3.5.738 5.592.719 11.12-.1 18.178-3.857 23.824-9.006.668-.483 1.542-1.392 2.531-2.572a47.087 47.087 0 0 0 3.077-4.131c1-1.508 1.912-3.08 2.554-4.524.639-1.436 1.027-2.733.897-3.82-.046-1.73-.633-3.328-1.727-4.506-1.1-1.184-2.71-1.924-4.677-1.95a253.817 253.817 0 0 0-8.077-.167zm-.002.5c2.71.014 5.41.069 8.073.168 3.697.047 5.84 2.726 5.916 5.996.458 3.637-6.506 12.899-8.858 14.602-5.59 5.111-12.498 8.81-23.535 8.91-2.055.019-3.914-.195-5.431-.693-1.585-.541-3.161-1.62-3.916-3.297-.568-1.39-.966-2.933-.292-4.356 2.092-4.433 5.685-9.997 8.393-14.463.456-.751 1.19-1.293 1.557-1.369 1.627-.835 3.983-.651 5.377-1.832 2.5-1.72 2.148-3.226 4.584-3.59 2.704-.062 5.423-.09 8.132-.076z" fill="#fff" fill-opacity=".267"/><path d="M218.59 65.777a3.823 3.823 0 0 0-3.822 3.822 3.823 3.823 0 0 0 3.822 3.824 3.823 3.823 0 0 0 3.824-3.824 3.823 3.823 0 0 0-3.824-3.822zm-.021.795a3.005 3.005 0 0 1 3.005 3.006 3.005 3.005 0 0 1-3.006 3.006 3.005 3.005 0 0 1-3.005-3.006 3.005 3.005 0 0 1 3.006-3.006z" fill="url(#k)"/><circle cx="218.59" cy="69.601" r="3.005" fill="url(#l)"/><path d="M218.59 65.592a4.01 4.01 0 0 0 0 8.018 4.01 4.01 0 0 0 0-8.018zm0 .195a3.813 3.813 0 1 1 0 7.627 3.811 3.811 0 0 1-3.813-3.814 3.811 3.811 0 0 1 3.813-3.813z" fill="#fff" fill-opacity=".384"/></g></g></svg>