<svg width="32" height="32" xmlns="http://www.w3.org/2000/svg"><defs><linearGradient id="b" x1="403.44" x2="402.49" y1="544.99" y2="518.34" gradientTransform="translate(-7.835 -10.539) scale(1.0196)" gradientUnits="userSpaceOnUse"><stop stop-color="#d3d3d3" offset="0"/><stop stop-color="#fcf9f9" offset="1"/></linearGradient><linearGradient id="c" x1="16" x2="16" y1="30" y2="2" gradientTransform="matrix(1.5 0 0 1.5 409.47 507)" gradientUnits="userSpaceOnUse"><stop stop-color="#2a2c2f" offset="0"/><stop stop-color="#424649" offset="1"/></linearGradient><filter id="a" x="-.036" y="-.036" width="1.072" height="1.072" color-interpolation-filters="sRGB"><feGaussianBlur stdDeviation=".428"/></filter></defs><g transform="translate(-404.95 -542.704) scale(1.0509)"><circle cx="400.58" cy="531.67" r="14.274" filter="url(#a)" opacity=".25"/><circle cx="400.58" cy="531.67" r="14.274" fill="url(#b)"/><path d="M433.47 528c-1.662 0-3 1.338-3 3s1.338 3 3 3 3-1.338 3-3-1.338-3-3-3zm-7.5 0c-1.662 0-3 1.338-3 3s1.338 3 3 3 3-1.338 3-3-1.338-3-3-3zm15 0c-1.662 0-3 1.338-3 3s1.338 3 3 3 3-1.338 3-3-1.338-3-3-3z" fill="url(#c)" transform="translate(-12.009 26.554) scale(.95161)"/></g></svg>