<svg width="32" height="32" xmlns="http://www.w3.org/2000/svg"><defs><linearGradient id="c" x1="417" x2="417" y1="49.971" y2="576.63" gradientTransform="translate(-11.361 .124) scale(.06523)" gradientUnits="userSpaceOnUse"><stop stop-color="#f3f3f3" offset="0"/><stop stop-color="#b7b7b7" offset="1"/></linearGradient><linearGradient id="d" x1="417" x2="417" y1="51.538" y2="573.98" gradientTransform="matrix(.06457 0 0 .06457 -11.086 .286)" gradientUnits="userSpaceOnUse"><stop stop-color="#f3f3f3" offset="0"/><stop stop-color="#b7b7b7" offset="1"/></linearGradient><radialGradient id="b" cx="417" cy="245.84" r="231.55" gradientTransform="matrix(.07203 0 0 .07203 -14.036 -1.708)" gradientUnits="userSpaceOnUse"><stop stop-color="#00cef6" offset="0"/><stop stop-color="#009ad5" offset=".6"/><stop stop-color="#0a55da" offset="1"/></radialGradient><filter id="a" x="-.036" y="-.036" width="1.072" height="1.072" color-interpolation-filters="sRGB"><feGaussianBlur stdDeviation=".45"/></filter></defs><path class="shp36" d="M16 31c8.284 0 15-6.716 15-15 0-8.284-6.716-15-15-15C7.716 1 1 7.716 1 16c0 8.284 6.716 15 15 15z" filter="url(#a)" opacity=".25"/><path class="shp36" d="M16 31c8.284 0 15-6.716 15-15 0-8.284-6.716-15-15-15C7.716 1 1 7.716 1 16c0 8.284 6.716 15 15 15z" fill="url(#b)"/><path class="shp37" d="M15.84 3.383v2.388m2.487-2.143-.455 2.344m2.867-1.612-.933 2.197m3.136-1.017-1.335 1.979m3.268-.393-1.689 1.688m3.274.243-1.979 1.335m3.167.888-2.214.895m2.938 1.497-2.344.456m2.589 2.032h-2.388m2.143 2.488-2.344-.456m1.612 2.867-2.197-.933m1.017 3.137-1.979-1.336m.393 3.268-1.688-1.688m-.244 3.273-1.335-1.979m-.887 3.167-.895-2.214m-1.498 2.938-.455-2.344m-2.032 2.589v-2.388m-2.488 2.143.456-2.344M10.94 27.96l.933-2.198M8.737 26.78l1.336-1.979m-3.268.394 1.688-1.689m-3.274-.244 1.98-1.335m-3.16-.868 2.198-.933m-2.93-1.479 2.344-.455M3.063 16.16H5.45m-2.143-2.488 2.344.455M4.04 11.261l2.198.933M5.219 9.057l1.98 1.335m-.394-3.267 1.688 1.689m.244-3.274 1.335 1.979m.888-3.167.894 2.214m1.498-2.938.456 2.344" fill="none" stroke="url(#c)" stroke-linecap="round" stroke-width=".6"/><path class="shp38" d="m17.073 3.614-.097.956m2.519-.475-.278.92m2.567.028-.462.842m2.515.53-.615.738m2.362 1.007-.745.607m2.117 1.446-.847.454m1.795 1.835-.922.268m1.404 2.154-.956.087m.956 2.382-.956-.097m.475 2.52-.92-.278m-.028 2.566-.842-.462m-.53 2.515-.738-.615m-1.008 2.361-.606-.744m-1.447 2.117-.454-.847m-1.834 1.796-.268-.923m-2.154 1.404-.088-.957m-2.382.957.097-.955m-2.519.474.278-.92m-2.567-.028.463-.842m-2.515-.53.614-.738m-2.361-1.008.744-.607m-2.116-1.446.846-.454m-1.792-1.826.917-.284m-1.402-2.146.957-.087m-.957-2.382.956.097m-.475-2.52.92.278m.028-2.566.842.462m.53-2.516.739.615m1.007-2.36.607.744m1.446-2.117.454.847m1.835-1.795.268.922m2.154-1.404.087.956" fill="none" stroke="url(#d)" stroke-linecap="round" stroke-width=".6"/><g stroke-width="76.886"><path class="shp40" d="m14.328 14.545 3.245 3.246L25.5 6.62zM6.4 25.718l11.173-7.927-3.246-3.246z" fill="#fe504d"/><path d="M14.328 14.546 6.402 25.718l11.172-7.927-3.246-3.246z" fill="#eee"/><path d="M25.499 6.62 6.4 25.719l11.173-7.927 7.924-11.17z" fill-opacity=".251"/></g></svg>