<svg xmlns="http://www.w3.org/2000/svg" xmlns:xlink="http://www.w3.org/1999/xlink" width="32" height="32"><defs><linearGradient id="c"><stop style="stop-color:#0578ff;stop-opacity:1"/><stop style="stop-color:#42ccff;stop-opacity:1" offset="1"/></linearGradient><linearGradient id="b"><stop style="stop-color:#d2e6fe;stop-opacity:1"/><stop offset="1" style="stop-color:#f4f9ff;stop-opacity:1"/></linearGradient><linearGradient id="a"><stop style="stop-color:#3889e9"/><stop offset="1" style="stop-color:#5ea5fb"/></linearGradient><linearGradient xlink:href="#a" id="f" y1="545.798" y2="517.798" x2="0" gradientUnits="userSpaceOnUse"/><linearGradient xlink:href="#b" id="h" y1="23" y2="8" x2="0" gradientUnits="userSpaceOnUse"/><linearGradient xlink:href="#c" id="e" x1="400.72" y1="546.947" x2="400.518" y2="516.841" gradientUnits="userSpaceOnUse"/><filter style="color-interpolation-filters:sRGB" id="g" x="-.034" width="1.068" y="-.038" height="1.077"><feGaussianBlur stdDeviation=".24"/></filter><filter style="color-interpolation-filters:sRGB" id="d" x="-.036" width="1.072" y="-.036" height="1.072"><feGaussianBlur stdDeviation=".45"/></filter></defs><g transform="translate(-384.571 -515.798)"><circle r="15" style="fill:#000;stroke-width:4;fill-opacity:1;filter:url(#d);opacity:.25" cy="531.798" cx="400.571"/><circle cx="400.571" cy="531.798" style="fill:url(#e);stroke-width:4;fill-opacity:1" r="15"/><path style="shape-rendering:auto;color-interpolation-filters:linearRGB;stroke-opacity:.313725;fill:#fcfcfc;image-rendering:auto;fill-opacity:.058824;text-rendering:auto;color:#000;color-rendering:auto;color-interpolation:sRGB" d="M14 4.17a12 12 0 0 0-1 .22V8H9V6.271a12 12 0 0 0-1 .803V8h-.928a12 12 0 0 0-.806 1H8v4H4.395a12 12 0 0 0-.213 1H8v4H4.17a12 12 0 0 0 .22 1H8v4H6.271a12 12 0 0 0 .803 1H8v.928a12 12 0 0 0 1 .806V24h4v3.604a12 12 0 0 0 1 .214V24h4v3.83a12 12 0 0 0 1-.22V24h4v1.729a12 12 0 0 0 1-.803V24h.928a12 12 0 0 0 .806-1H24v-4h3.604a12 12 0 0 0 .214-1H24v-4h3.83a12 12 0 0 0-.22-1H24V9h1.729a12 12 0 0 0-.803-1H24v-.928a12 12 0 0 0-1-.806V8h-4V4.395a12 12 0 0 0-1-.213V8h-4V4.17zM9 9h4v4H9V9zm5 0h4v4h-4V9zm5 0h4v4h-4V9zM9 14h4v4H9v-4zm5 0h4v4h-4v-4zm5 0h4v4h-4v-4zM9 19h4v4H9v-4zm5 0h4v4h-4v-4zm5 0h4v4h-4v-4z" transform="translate(384.571 515.798)"/><circle cx="400.571" cy="531.798" style="fill:url(#f);stroke-width:4" r="0"/><path style="fill:#fff;opacity:.2;stroke-width:3.42857" d="M16 4A12 12 0 0 0 4 16a12 12 0 0 0 12 12 12 12 0 0 0 12-12A12 12 0 0 0 16 4zm0 1a11 11 0 0 1 11 11 11 11 0 0 1-11 11A11 11 0 0 1 5 16 11 11 0 0 1 16 5z" transform="translate(384.571 515.798)"/><path transform="translate(384.571 515.798)" d="M18.143 8.014C17.095 8.09 16 8.496 15 8.996c2 0 3 1 4 2l2 2.002V14l1 1 3-3.002-1-1.002h-1l-2-2c-.81-.809-1.81-1.06-2.857-.982zM19 11l-4 4h-1l-6 6 2 2 6-6v-1l4-4-1-1z" style="fill:#000;fill-rule:evenodd;filter:url(#g);opacity:.25"/><path style="fill:url(#h);fill-rule:evenodd" d="M18.143 8.014C17.095 8.09 16 8.496 15 8.996c2 0 3 1 4 2l2 2.002V14l1 1 3-3.002-1-1.002h-1l-2-2c-.81-.809-1.81-1.06-2.857-.982zM19 11l-4 4h-1l-6 6 2 2 6-6v-1l4-4-1-1z" transform="translate(384.571 515.798)"/></g></svg>