<svg width="32" height="32" xmlns="http://www.w3.org/2000/svg"><defs><linearGradient id="b" x1="403.44" x2="402.49" y1="544.99" y2="518.34" gradientTransform="translate(-7.835 -10.539) scale(1.0196)" gradientUnits="userSpaceOnUse"><stop stop-color="#d3d3d3" offset="0"/><stop stop-color="#fcf9f9" offset="1"/></linearGradient><filter id="a" x="-.036" y="-.036" width="1.072" height="1.072" color-interpolation-filters="sRGB"><feGaussianBlur stdDeviation=".428"/></filter></defs><g transform="translate(-404.95 -542.704) scale(1.0509)"><circle cx="400.58" cy="531.67" r="14.274" filter="url(#a)" opacity=".25"/><circle cx="400.58" cy="531.67" r="14.274" fill="url(#b)"/><g fill-rule="evenodd" stroke-width=".095"><path d="M400.45 543.89c4.644-3.427 5.21-7.039.165-10.906-5.898 4.307-3.738 7.688-.165 10.906z" fill="#48cfad" opacity=".85" stroke="#37bc9b"/><path d="M400.45 519.87c4.644 3.427 5.21 7.039.165 10.906-5.898-4.307-3.738-7.688-.165-10.906z" fill="#ed5565" opacity=".85" stroke="#da4453"/><path d="M412.68 531.73c-3.427 4.644-7.039 5.21-10.906.165 4.307-5.898 7.688-3.738 10.906-.165z" fill="#ffce54" opacity=".85" stroke="#f6bb42"/><path d="M388.64 531.81c3.427 4.644 7.039 5.21 10.906.165-4.307-5.898-7.688-3.738-10.906-.165z" fill="#ac92ec" opacity=".85" stroke="#967adc"/><path d="M399.99 531.12c-5.758.399-8.529-1.987-7.191-8.2 7.283-.54 7.828 3.434 7.191 8.2z" fill="#ec87c0" opacity=".85" stroke="#d770ad"/><path d="M392.66 540.9c5.758.399 8.529-1.987 7.191-8.2-7.283-.54-7.828 3.433-7.191 8.2z" fill="#5d9cec" opacity=".85" stroke="#4a89dc"/><path d="M401.41 531.18c5.758.399 8.529-1.987 7.191-8.2-7.283-.54-7.828 3.433-7.191 8.2z" fill="#fc6e51" opacity=".85" stroke="#e9573f"/><path d="M408.73 540.92c-5.758.399-8.529-1.987-7.191-8.2 7.283-.54 7.828 3.433 7.191 8.2z" fill="#a0d468" opacity=".85" stroke="#8cc152"/></g></g></svg>