<svg width="32" height="32" xmlns="http://www.w3.org/2000/svg"><defs><linearGradient id="c" x2="0" y1="545.8" y2="517.8" gradientTransform="translate(-384.57 -515.8)" gradientUnits="userSpaceOnUse"><stop stop-color="#3889e9" offset="0"/><stop stop-color="#5ea5fb" offset="1"/></linearGradient><linearGradient id="b" x1="400.72" x2="400.52" y1="546.95" y2="516.84" gradientTransform="translate(-384.57 -515.8)" gradientUnits="userSpaceOnUse"><stop stop-color="#0578ff" offset="0"/><stop stop-color="#42ccff" offset="1"/></linearGradient><filter id="a" x="-.036" y="-.036" width="1.072" height="1.072" color-interpolation-filters="sRGB"><feGaussianBlur stdDeviation=".45"/></filter></defs><g stroke-width="4"><circle cx="16" cy="16" r="15" filter="url(#a)" opacity=".25"/><circle cx="16" cy="16" r="15" fill="url(#b)"/></g><g fill="#fff" stroke-linecap="round" stroke-linejoin="round" stroke-width="1.4"><path d="M18 8c-.554 0-1 .446-1 1v5c0 .554.446 1 1 1h5c.554 0 1-.446 1-1V9c0-.554-.446-1-1-1zm0 1h5v5h-5zM18 17c-.554 0-1 .446-1 1v5c0 .554.446 1 1 1h5c.554 0 1-.446 1-1v-5c0-.554-.446-1-1-1zm0 1h5v5h-5zM9 17c-.554 0-1 .446-1 1v5c0 .554.446 1 1 1h5c.554 0 1-.446 1-1v-5c0-.554-.446-1-1-1zm0 1h5v5H9zM9 8c-.554 0-1 .446-1 1v5c0 .554.446 1 1 1h5c.554 0 1-.446 1-1V9c0-.554-.446-1-1-1zm0 1h5v5H9z"/></g></svg>