<svg width="32" height="32" version="1.1" viewBox="0 0 32 32" xmlns="http://www.w3.org/2000/svg" xmlns:xlink="http://www.w3.org/1999/xlink">
 <defs>
  <linearGradient id="linearGradient3426" x2="0" y1="545.8" y2="517.8" gradientTransform="translate(-384.57 -515.8)" gradientUnits="userSpaceOnUse">
   <stop stop-color="#3889e9" offset="0"/>
   <stop stop-color="#5ea5fb" offset="1"/>
  </linearGradient>
  <linearGradient id="linearGradient849" x1="400.72" x2="400.52" y1="546.95" y2="516.84" gradientTransform="translate(-384.57 -515.8)" gradientUnits="userSpaceOnUse">
   <stop stop-color="#0578ff" offset="0"/>
   <stop stop-color="#42ccff" offset="1"/>
  </linearGradient>
  <filter id="filter897" x="-.036" y="-.036" width="1.072" height="1.072" color-interpolation-filters="sRGB">
   <feGaussianBlur stdDeviation="0.45"/>
  </filter>
 </defs>
 <g stroke-width="4">
  <circle cx="16" cy="16" r="15" filter="url(#filter897)" opacity=".25"/>
  <circle cx="16" cy="16" r="15" fill="url(#linearGradient849)"/>
  <circle cx="16" cy="16" r="0" fill="url(#linearGradient3426)"/>
 </g>
 <g fill="#fff" stroke-linecap="round" stroke-linejoin="round" stroke-width="1.4">
  <path d="m18 8c-0.554 0-1 0.446-1 1v5c0 0.554 0.446 1 1 1h5c0.554 0 1-0.446 1-1v-5c0-0.554-0.446-1-1-1zm0 1h5v5h-5z"/>
  <path d="m18 17c-0.554 0-1 0.446-1 1v5c0 0.554 0.446 1 1 1h5c0.554 0 1-0.446 1-1v-5c0-0.554-0.446-1-1-1zm0 1h5v5h-5z"/>
  <path d="m9 17c-0.554 0-1 0.446-1 1v5c0 0.554 0.446 1 1 1h5c0.554 0 1-0.446 1-1v-5c0-0.554-0.446-1-1-1zm0 1h5v5h-5z"/>
  <path d="m9 8c-0.554 0-1 0.446-1 1v5c0 0.554 0.446 1 1 1h5c0.554 0 1-0.446 1-1v-5c0-0.554-0.446-1-1-1zm0 1h5v5h-5z"/>
 </g>
</svg>
