<svg width="32" height="32" viewBox="0 0 8.466 8.466" xmlns="http://www.w3.org/2000/svg"><defs><filter id="a" x="-.036" y="-.036" width="1.072" height="1.072" color-interpolation-filters="sRGB"><feGaussianBlur stdDeviation=".214"/></filter><filter id="c" x="-.031" y="-.043" width="1.062" height="1.086" color-interpolation-filters="sRGB"><feGaussianBlur stdDeviation=".133"/></filter><linearGradient id="b" x1="8.309" x2="8.441" y1="295.74" y2="281.32" gradientUnits="userSpaceOnUse"><stop stop-color="#3d71f3" offset="0"/><stop stop-color="#67c7eb" offset="1"/></linearGradient></defs><g transform="translate(-.47 -156.06) scale(.55556)" stroke-width="1.8" style="paint-order:stroke markers fill"><circle cx="8.466" cy="288.53" r="7.144" filter="url(#a)" opacity=".25"/><circle cx="8.466" cy="288.53" r="7.144" fill="url(#b)"/><path d="M3.696 285.65c-.274 0-.449.246-.334.494l2.721 5.891.245.53c.113.246.306.488.576.493.27-.005.463-.247.576-.493l1.381-2.99 1.092-2.36c.076-.166.253-.33.436-.33h1.156a.378.378 0 0 1 .06.008c.005 0 .01.004.014.006a.222.222 0 0 1 .14.316l-.864 1.872-.109.234-.432.936-.109.234-.055.12-.053.114c-.02.05-.041.111-.108.11-.068.001-.09-.066-.108-.11l-.432-.936-.109-.234-.052-.113-.66 1.424.785 1.7c.114.246.307.488.576.492.27-.005.463-.246.577-.493l.244-.53 2.721-5.89c.115-.249-.06-.495-.334-.495H9.781c-.274 0-.54.246-.654.494l-1.585 3.431h.002l-.1.214-.107.234-.108.234-.109.234-.108.234c-.018.044-.04.111-.108.11-.066.001-.088-.06-.108-.11l-.052-.113-.056-.12-.108-.235-.109-.234-.432-.936-.865-1.872c-.077-.166.04-.33.223-.33h1.149c.182 0 .36.164.436.33l.667 1.444.661-1.426-.502-1.09c-.115-.247-.38-.493-.655-.493H5.916z" filter="url(#c)" opacity=".25"/><path d="M3.696 285.65c-.274 0-.449.246-.334.494l2.721 5.891.245.53c.113.246.306.488.576.493.27-.005.463-.247.576-.493l1.381-2.99 1.092-2.36c.076-.166.253-.33.436-.33h1.156a.378.378 0 0 1 .06.008c.005 0 .01.004.014.006a.222.222 0 0 1 .14.316l-.864 1.872-.109.234-.432.936-.109.234-.055.12-.053.114c-.02.05-.041.111-.108.11-.068.001-.09-.066-.108-.11l-.432-.936-.109-.234-.052-.113-.66 1.424.785 1.7c.114.246.307.488.576.492.27-.005.463-.246.577-.493l.244-.53 2.721-5.89c.115-.249-.06-.495-.334-.495H9.781c-.274 0-.54.246-.654.494l-1.585 3.431h.002l-.1.214-.107.234-.108.234-.109.234-.108.234c-.018.044-.04.111-.108.11-.066.001-.088-.06-.108-.11l-.052-.113-.056-.12-.108-.235-.109-.234-.432-.936-.865-1.872c-.077-.166.04-.33.223-.33h1.149c.182 0 .36.164.436.33l.667 1.444.661-1.426-.502-1.09c-.115-.247-.38-.493-.655-.493H5.916z" fill="#fff"/></g></svg>