<svg width="16" height="16" version="1.1" xmlns="http://www.w3.org/2000/svg">
 <g transform="translate(-461 -195)" fill="#363636">
  <path transform="translate(461 195)" d="m8 0a8 8 0 0 0-0.23828 0.011719 8 8 0 0 1 0.39258-0.0058594 8 8 0 0 0-0.1543-0.0058594zm0.25977 0.0097656-0.03125 0.99609a7 7 0 0 1 1.582 0.23438l0.25586-0.95508a8 8 0 0 0-1.8066-0.27539zm-0.88672 0.021484a8 8 0 0 0-0.44727 0.050781 8 8 0 0 1 0.44727-0.050781zm-0.80078 0.10352a8 8 0 0 0-0.41211 0.089844 8 8 0 0 1 0.41211-0.089844zm-0.64062 0.14648a8 8 0 0 0-1.6973 0.67969l0.47266 0.88281a7 7 0 0 1 1.4824-0.5957l-0.25781-0.9668zm4.293 0.041016a8 8 0 0 1 0.078125 0.025391 8 8 0 0 0-0.078125-0.025391zm1.9883 0.89844-0.51953 0.83594a7 7 0 0 1 1.2559 0.99414l0.69726-0.69727a8 8 0 0 0-1.4336-1.1328zm-9.8594 1.1328a8 8 0 0 0-2.3535 5.6465 8 8 0 0 0 8 8 8 8 0 0 0 7.9902-7.7402l-1.0059-0.033203a7 7 0 0 1-6.9844 6.7734 7 7 0 0 1-7-7 7 7 0 0 1 2.0625-4.9375l-0.70898-0.70898zm12.686 1.8809-0.86719 0.46289a7 7 0 0 1 0.58789 1.4902l0.95898-0.25586a8 8 0 0 0-0.67969-1.6973zm0.74024 1.9414a8 8 0 0 1 0.082031 0.37109 8 8 0 0 0-0.082031-0.37109zm0.14453 0.78516a8 8 0 0 1 0.044922 0.40625 8 8 0 0 0-0.044922-0.40625zm0.06836 0.9043a8 8 0 0 1 0.001953 0.24609 8 8 0 0 0 0.005859-0.11133 8 8 0 0 0-0.007812-0.13477z"/>
  <path d="m465.77 199.23-0.76747 0.76746 3.6121 3.6121h4.7883v-1.0845h-4.3379z"/>
 </g>
</svg>
