<svg width="16" height="16" version="1.1" xmlns="http://www.w3.org/2000/svg">
 <path d="m3 0c-1.662 0-3 1.338-3 3v5c0 1.662 1.338 3 3 3h4.5v1.0664a2 2 0 0 0-1.2266 0.93359h-2.2734c-1.108 0-2 0.892-2 2v1h1v-1c0-0.554 0.446-1 1-1h2a2 2 0 0 0 2 2 2 2 0 0 0 2-2h2c0.554 0 1 0.446 1 1v1h1v-1c0-1.108-0.892-2-2-2h-2.2695a2 2 0 0 0-1.2305-0.93555v-1.0645h4.5c1.662 0 3-1.338 3-3v-5c0-1.662-1.338-3-3-3h-10zm0 1h10c1.108 0 2 0.892 2 2v5c0 1.108-0.892 2-2 2h-10c-1.108 0-2-0.892-2-2v-5c0-1.108 0.892-2 2-2zm1 2a1 1 0 0 0-1 1 1 1 0 0 0 1 1 1 1 0 0 0 1-1 1 1 0 0 0-1-1zm3 0a1 1 0 0 0-1 1 1 1 0 0 0 1 1 1 1 0 0 0 1-1 1 1 0 0 0-1-1zm1 10a1 1 0 0 1 1 1 1 1 0 0 1-1 1 1 1 0 0 1-1-1 1 1 0 0 1 1-1z" fill="#363636"/>
</svg>
