<svg width="16" height="16" version="1.1" xmlns="http://www.w3.org/2000/svg">
 <path d="m8 0a8 8 0 0 0-8 8 8 8 0 0 0 8 8 8 8 0 0 0 8-8 8 8 0 0 0-8-8zm0 1a7 7 0 0 1 7 7 7 7 0 0 1-7 7 7 7 0 0 1-7-7 7 7 0 0 1 7-7z" fill="#363636"/>
 <path d="m8 0a8 8 0 0 0-0.12305 0.0097656c-0.020903 0.29262-0.035156 0.58693-0.035156 0.88477 0 1.1325 0.15121 2.23 0.42969 3.2754-1.125 0.86472-2.4774 1.4482-3.9531 1.6484 0.49151-2.2372 1.6237-4.2281 3.1914-5.7832a8 8 0 0 0-1.5605 0.24414c-1.3147 1.5957-2.2571 3.5086-2.6699 5.6152-0.032726 3.758e-4 -0.06484 0.0019532-0.097656 0.0019532-0.96104 0-1.8817-0.16531-2.7402-0.46289a8 8 0 0 0-0.25781 0.96484c0.92523 0.31411 1.9141 0.49014 2.9434 0.49609-0.05446 0.47717-0.085938 0.9615-0.085938 1.4531 0 0.95987 0.11037 1.8936 0.3125 2.793-1.3187-0.8298-2.455-1.9181-3.3496-3.1895a8 8 0 0 0-0.0039062 0.048828 8 8 0 0 0 0.23047 1.8203c1.0005 1.0877 2.1879 2.002 3.5117 2.6895 0.37059 1.0679 0.88775 2.0651 1.5137 2.9824a8 8 0 0 0 1.5527 0.41406c-0.71257-0.84382-1.3099-1.7872-1.7637-2.8105 0.81571 0.31268 1.6704 0.54429 2.5566 0.68359-0.029944 0.30422-0.046875 0.61182-0.046875 0.92383 0 0.43178 0.032849 0.85534 0.089844 1.2715a8 8 0 0 0 0.35547 0.025391 8 8 0 0 0 0.66016-0.046875c-0.061644-0.40885-0.10547-0.82365-0.10547-1.25 0-0.27359 0.013468-0.54377 0.039062-0.81055 0.32838 0.025481 0.65928 0.042969 0.99414 0.042969 1.6147 0 3.157-0.30667 4.5781-0.85742a8 8 0 0 0 1.0996-1.7344c-1.4543-0.73651-2.7377-1.7624-3.7637-3.0098 1.2008-1.0201 2.696-1.6997 4.3398-1.9102a8 8 0 0 0-0.25977-0.97266c-1.7642 0.25289-3.3732 0.99116-4.6777 2.0859-0.63486-0.92112-1.1402-1.9368-1.4922-3.0234 1.0704-0.95739 1.9078-2.1627 2.4492-3.5176a8 8 0 0 0-0.89844-0.42383c-0.41864 1.0759-1.0461 2.0463-1.8438 2.8516-0.1789-0.81456-0.27734-1.6605-0.27734-2.5293 0-0.28445 0.018561-0.56454 0.039062-0.84375a8 8 0 0 0-0.88086-0.050781zm0.58203 5.1738c0.39134 1.0933 0.93072 2.115 1.5898 3.0469-1.1977 1.2444-2.0568 2.8169-2.4219 4.5703-1.125-0.17687-2.1972-0.51381-3.1914-0.98633-0.33628-1.0924-0.51758-2.2535-0.51758-3.457 0-0.50863 0.036897-1.0086 0.099609-1.5 1.6435-0.16798 3.1608-0.7653 4.4414-1.6738zm2.2012 3.8477c0.97914 1.1755 2.1676 2.1711 3.5059 2.9316-1.4388 0.63026-3.0282 0.98242-4.7012 0.98242-0.28131 0-0.55962-0.013762-0.83594-0.033203 0.32419-1.4793 1.0385-2.8106 2.0312-3.8809z" fill="#363636"/>
</svg>
