<svg width="16" height="16" version="1.1" xmlns="http://www.w3.org/2000/svg">
 <defs>
  <style id="current-color-scheme" type="text/css">.ColorScheme-Text { color:#363636; }</style>
 </defs>
 <path class="ColorScheme-Text" d="m7.9297 1.5059a0.5 0.5 0 0 0-0.023438 0.0078125 0.5 0.5 0 0 0-0.10547 0.037109 0.5 0.5 0 0 0-0.072266 0.035156 0.5 0.5 0 0 0-0.029297 0.013672l-8 6a0.5 0.5 0 0 0-0.099609 0.70117 0.5 0.5 0 0 0 0.70117 0.099609l1.6992-1.2754v6.875c0 1.108 0.892 2 2 2h8c1.108 0 2-0.892 2-2v-6.875l1.6992 1.2754a0.5 0.5 0 0 0 0.70117-0.099609 0.5 0.5 0 0 0-0.09961-0.70117l-8-6a0.5 0.5 0 0 0-0.029297-0.013672 0.5 0.5 0 0 0-0.072266-0.035156 0.5 0.5 0 0 0-0.10547-0.037109 0.5 0.5 0 0 0-0.023438-0.0078125 0.5 0.5 0 0 0-0.070312 0.0039062 0.5 0.5 0 0 0-0.070312-0.0039062zm4.5449 0.49414c-0.26491 0.013342-0.47461 0.23166-0.47461 0.5 0 0.277 0.223 0.5 0.5 0.5h1c0.277 0 0.5-0.223 0.5-0.5s-0.223-0.5-0.5-0.5h-1c-0.008656 0-0.016845-4.304e-4 -0.025391 0zm-4.4746 0.625 5 3.75v7.625c0 0.554-0.446 1-1 1h-3.5v-4h-1v4h-3.5c-0.554 0-1-0.446-1-1v-7.625l5-3.75zm-1 3.375c-0.554 0-1 0.446-1 1v2c0 0.554 0.446 1 1 1h2c0.554 0 1-0.446 1-1v-2c0-0.554-0.446-1-1-1h-2zm0 1h2v2h-2v-2z" fill="currentColor"/>
</svg>
