<svg width="16" height="16" version="1.1" xmlns="http://www.w3.org/2000/svg">
 <g transform="translate(-442,-176)">
  <path d="m444.7 189.34c-0.33153 0-0.64864 0.0943-0.92708 0.24827v0.64236c0 0.48902 0.39379 0.88281 0.88281 0.88281h10.679c0.48901 0 0.88281-0.39379 0.88281-0.88281v-0.63368c-0.28202-0.15932-0.60496-0.25695-0.94271-0.25695z" fill-opacity=".90196" opacity=".15"/>
  <g fill="#333">
   <g transform="matrix(.44444 0 0 .44444 245.52 106.67)" opacity=".772" stroke-width="2.25px">
    <path d="m446.28 172.02v-5.5291h1.5005v5.4721q0 1.2967 0.50562 1.9491 0.50561 0.64426 1.5168 0.64426 1.2151 0 1.9164-0.77474 0.70949-0.77473 0.70949-2.1122v-5.1785h1.5005v9.1337h-1.5005v-1.4027q-0.54639 0.83182-1.2722 1.2396-0.71765 0.3996-1.6718 0.3996-1.5739 0-2.3894-0.97861-0.81551-0.97861-0.81551-2.8624z"/>
    <path d="m462.86 166.76v1.419q-0.63609-0.3262-1.3211-0.48931-0.68503-0.1631-1.419-0.1631-1.1172 0-1.6799 0.34252-0.55455 0.34251-0.55455 1.0275 0 0.52192 0.3996 0.82366 0.3996 0.29358 1.6066 0.5627l0.51377 0.11417q1.5984 0.34252 2.2671 0.97046 0.67687 0.61978 0.67687 1.737 0 1.2722-1.0112 2.0143-1.0031 0.74211-2.7646 0.74211-0.73395 0-1.5332-0.14679-0.79105-0.13864-1.6718-0.42407v-1.5495q0.83181 0.43222 1.6392 0.6524 0.80735 0.21204 1.5984 0.21204 1.0602 0 1.631-0.35883 0.57086-0.36698 0.57086-1.0275 0-0.61163-0.41591-0.93783-0.40776-0.32621-1.8023-0.62794l-0.52192-0.12233q-1.3945-0.29358-2.0143-0.89706-0.61978-0.61163-0.61978-1.6718 0-1.2885 0.91337-1.9898 0.91337-0.70134 2.5933-0.70134 0.83182 0 1.5658 0.12233 0.73396 0.12232 1.3537 0.36698z"/>
    <path d="m472.31 171.07q0-1.6555-0.68503-2.5933-0.67687-0.94599-1.8675-0.94599t-1.8757 0.94599q-0.67687 0.93784-0.67687 2.5933t0.67687 2.6015q0.68503 0.93784 1.8757 0.93784t1.8675-0.93784q0.68503-0.94599 0.68503-2.6015zm-5.1051-3.1886q0.47299-0.81551 1.1906-1.207 0.7258-0.3996 1.7289-0.3996 1.6636 0 2.6993 1.3211 1.0438 1.3211 1.0438 3.4741t-1.0438 3.4741q-1.0357 1.3211-2.6993 1.3211-1.0031 0-1.7289-0.39144-0.71765-0.3996-1.1906-1.2151v1.37h-1.5087v-12.689h1.5087z"/>
   </g>
   <g fill-rule="evenodd">
    <path d="m446 177c-0.554 0-0.9333 0.45003-1 1l-1 8.248c-0.0667 0.54998 0.446 0.75195 1 0.75195h10c0.554 0 1.0667-0.20198 1-0.75195l-1-8.248c-0.0667-0.54997-0.446-1-1-1z" opacity=".3" style="paint-order:fill markers stroke"/>
    <path d="m446 176c-1.108 0-1.8626 0.90056-2 2l-1 8v4c0 1.108 0.892 2 2 2h10c1.108 0 2-0.892 2-2v-4l-1-8c-0.13743-1.0994-0.892-2-2-2zm0 1h8c0.554 0 0.93128 0.45028 1 1l1 8v4c0 0.554-0.446 1-1 1h-10c-0.554 0-1-0.446-1-1v-4l1-8c0.0687-0.54972 0.446-1 1-1z" style="paint-order:fill markers stroke"/>
    <path d="m444 186-0.1355 1c-0.0744 0.54898 0.45608 1 1.0226 1h10.226c0.56651 0 1.097-0.45102 1.0226-1l-0.13549-1c0 0.554-0.32058 1-0.88709 1h-10.226c-0.56651 0-0.88709-0.446-0.88709-1z" style="paint-order:fill markers stroke"/>
    <rect x="454" y="189" width="1" height="1" style="paint-order:fill markers stroke"/>
   </g>
  </g>
 </g>
</svg>
