<svg version="1.1" viewBox="0 0 16 16.007" xmlns="http://www.w3.org/2000/svg">
 <g transform="translate(-442 -175.99)">
  <path d="m446 177c-0.554 0-0.9333 0.45003-1 1l-1 8.248c-0.0667 0.54998 0.446 0.75195 1 0.75195h10c0.554 0 1.0667-0.20198 1-0.75195l-1-8.248c-0.0667-0.54997-0.446-1-1-1z" fill="#333" fill-rule="evenodd" opacity=".3" style="paint-order:fill markers stroke"/>
  <path d="m444.7 189.34c-0.33153 0-0.64864 0.0943-0.92708 0.24827v0.64236c0 0.48902 0.39379 0.88281 0.88281 0.88281h10.679c0.48901 0 0.88281-0.39379 0.88281-0.88281v-0.63368c-0.28202-0.15932-0.60496-0.25695-0.94271-0.25695z" fill-opacity=".90196" opacity=".15"/>
  <g fill="#333" fill-rule="evenodd">
   <path d="m446 176c-1.108 0-1.8626 0.90056-2 2l-1 8v4c0 1.108 0.892 2 2 2h10c1.108 0 2-0.892 2-2v-4l-1-8c-0.13743-1.0994-0.892-2-2-2zm0 1h8c0.554 0 0.93128 0.45028 1 1l1 8v4c0 0.554-0.446 1-1 1h-10c-0.554 0-1-0.446-1-1v-4l1-8c0.0687-0.54972 0.446-1 1-1z" style="paint-order:fill markers stroke"/>
   <path d="m444 186-0.1355 1c-0.0744 0.54898 0.45608 1 1.0226 1h10.226c0.56651 0 1.097-0.45102 1.0226-1l-0.13549-1c0 0.554-0.32058 1-0.88709 1h-10.226c-0.56651 0-0.88709-0.446-0.88709-1z" style="paint-order:fill markers stroke"/>
   <rect x="454" y="189" width="1" height="1" style="paint-order:fill markers stroke"/>
  </g>
 </g>
 <path d="m5.88 2.007-1.415 1.315 0.707 0.657 1.414-1.314zm4.241 0-0.707 0.658 1.414 1.314 0.707-0.657zm-2.12 1.428c-1.1 0-2 0.837-2 1.857s0.9 1.858 2 1.858c1.098 0 2-0.838 2-1.858s-0.902-1.857-2-1.857zm0 0.928c0.557 0 1 0.41 1 0.93 0 0.517-0.443 0.928-1 0.928-0.559 0-1-0.41-1-0.929 0-0.518 0.441-0.929 1-0.929zm-1 3.715v0.929h2v-0.929z" color="#000000" fill="#333" font-weight="400" overflow="visible" style="font-feature-settings:normal;font-variant-alternates:normal;font-variant-caps:normal;font-variant-ligatures:normal;font-variant-numeric:normal;font-variant-position:normal;isolation:auto;mix-blend-mode:normal;shape-padding:0;text-decoration-color:#000000;text-decoration-line:none;text-decoration-style:solid;text-indent:0;text-orientation:mixed;text-transform:none;white-space:normal"/>
</svg>
