<svg version="1.1" viewBox="0 0 16 16" xmlns="http://www.w3.org/2000/svg">
 <g transform="matrix(3.7796 0 0 3.7796 7.554e-5 -1106.5)" fill="#363636" stroke-width=".26458">
  <path d="m1.0419 292.77c-0.09525 0.0124-0.24818 0.0662-0.24818 0.26459v0.52916s-0.26458 0-0.26458 0.26459v0.79375h-0.26458s-0.26458 0-0.26458 0.26458v1.4552c0 0.13229 0.13229 0.13229 0.13229 0.13229h0.13229c0 0.26458 0.26458 0.26458 0.26458 0.26458s0 0.26459 0.26458 0.26459h2.6458c0.26458 0 0.26458-0.26459 0.26458-0.26459s0.26458 0 0.26458-0.26458h0.13229c0.13229 0 0.13229-0.11086 0.13229-0.13229v-1.4552c0-0.26458-0.26458-0.26458-0.26458-0.26458h-0.26458v-0.79375c0-0.26459-0.26458-0.26459-0.26458-0.26459v-0.52916c0-0.26459-0.26458-0.26459-0.31406-0.26459h-2.0174c-0.012435 0-0.034396-4e-3 -0.066146 0zm0.016404 0.26459h2.1167v1.5875h-2.1167zm-0.64505 1.8521a0.067733 0.067733 0 0 1 0.024871 0h3.357s0.17357 0 0.17357 0.14896v1.174h-3.7042v-1.174c0-0.11166 0.10001-0.14182 0.14896-0.14896zm0.38047 1.5875h2.6458v0.26458h-2.6458z" color="#000000" font-weight="400" overflow="visible" style="text-decoration-line:none;text-indent:0;text-transform:none"/>
  <path d="m0.79375 294.88v1.0583h2.6458v-1.0583z" opacity=".5"/>
 </g>
</svg>
