<svg width="22" height="22" version="1.1" viewBox="0 0 22 22" xmlns="http://www.w3.org/2000/svg">
 <defs>
  <style id="current-color-scheme" type="text/css">.ColorScheme-Text { color:#363636; } .ColorScheme-Highlight { color:#5294e2; }</style>
 </defs>
 <path class="ColorScheme-Text" d="m18.5 18c0-2.4553-4.168-3.7079-5.8306-4.1533 0 0 0.0689-1.3767 0.22959-1.8815 0.1607-0.50481 0.18361-1.0785 0.2525-1.2391 0.0689-0.16064 0.88047-0.89495 0.92646-1.5833-0.01112-0.41085-0.09231-0.50801-0.29512-0.50801v-2.1337c0-1.1519-1.6801-2.1578-2.7827-2.1578-1.1028 0-2.7827 1.0059-2.7827 2.1578v2.1337c-0.20298 0-0.28417 0.09732-0.29512 0.50801 0.045984 0.68835 0.85739 1.4227 0.92646 1.5833 0.068728 0.16064 0.091631 0.73414 0.25233 1.2391 0.1607 0.50481 0.22959 1.8815 0.22959 1.8815-1.6626 0.44537-5.8306 1.698-5.8306 4.1533z" color="#363636" fill="currentColor" opacity=".8"/>
</svg>
