<svg width="22" height="22" version="1.1" viewBox="0 0 22 22" xmlns="http://www.w3.org/2000/svg">
 <defs>
  <style id="current-color-scheme" type="text/css">.ColorScheme-Text { color:#363636; } .ColorScheme-Highlight { color:#5294e2; }</style>
 </defs>
 <g transform="translate(-9.2e-4)" class="ColorScheme-Text" fill="currentColor">
  <path class="ColorScheme-Text" d="m3.9414 4c-0.52232 0-0.94141 0.42287-0.94141 0.94922v11.102c0 0.52636 0.41909 0.94922 0.94141 0.94922h8.5957a4 4 0 0 1-0.40625-1h-7.6602c-0.31683 0-0.4707-0.15339-0.4707-0.47266v-6.9082c0-0.31928 0.14411-0.57617 0.46094-0.57617h13.078c0.31683 0 0.46094 0.25689 0.46094 0.57617v2.916a4 4 0 0 1 1 0.81836v-6.3535c0-0.52636-0.47768-1-1-1h-8.627c-0.57985-0.0229-0.60478 0.076888-1.0391-0.35742-0.43428-0.43428-0.61295-0.64258-1.334-0.64258zm0.51953 1h2.5391c0.3123 0 0.52123-9.069e-4 1 0.4707s0.6388 0.5293 1 0.5293h8.5234c0.47656 0 0.47656 0.26276 0.47656 0.67578v0.32422h-14v-1.5273c0-0.47225 0.28358-0.47266 0.46094-0.47266z" opacity=".75"/>
  <path class="ColorScheme-Text" d="m4.5625 8c-0.31188 0-0.5625 0.25544-0.5625 0.57227v6.9453c0 0.31682 0.1139 0.48242 0.42578 0.48242h7.7051a4 4 0 0 1-0.12891-1 4 4 0 0 1 4-4 4 4 0 0 1 1.998 0.53516v-2.9629c0-0.31683-0.25257-0.57227-0.56445-0.57227z" opacity=".2"/>
  <path class="ColorScheme-Text" d="m4.002 15v0.52734c0 0.35642 0.16859 0.47266 0.48047 0.47266h7.6484a4 4 0 0 1-0.12891-1h-8z" opacity=".3"/>
  <path class="ColorScheme-Text" d="m15.951 12a3 3 0 0 0-2.9492 3 3 3 0 0 0 3 3 3 3 0 0 0 3-3 3 3 0 0 0-3-3 3 3 0 0 0-0.05078 0zm0 1a2 2 0 0 1 2e-3 0 2 2 0 0 1 0.04883 0 2 2 0 0 1 2 2 2 2 0 0 1-2 2 2 2 0 0 1-2-2 2 2 0 0 1 1.9492-2zm-0.44922 1c-0.277 0-0.5 0.223-0.5 0.5v1c0 0.277 0.223 0.5 0.5 0.5h1c0.277 0 0.5-0.223 0.5-0.5s-0.223-0.5-0.5-0.5h-0.5v-0.5c0-0.277-0.223-0.5-0.5-0.5z" opacity=".75"/>
 </g>
</svg>
