<svg width="16" height="16" enable-background="new" version="1.1" xmlns="http://www.w3.org/2000/svg">
 <title>Paper Symbolic Icon Theme</title>
 <g fill="#333" fill-rule="evenodd">
  <path d="m1 4c-0.554 0-1 0.446-1 1v6c0 0.554 0.446 1 1 1h5.9883c-0.38499 0-0.82497-0.17458-1.1055-0.45508-0.005932-0.00579-0.011788-0.011678-0.017578-0.017578-0.13778-0.14503-0.24772-0.33054-0.32227-0.52734h-4.543v-6h3.9238c0.10791-0.12937 0.21085-0.2628 0.33789-0.375 0.29853-0.26409 0.66146-0.44855 1.0469-0.54492 0.28137-0.089026 0.45425-0.080084 0.6875-0.080078h-5.9961zm5.9961 0c0.69012 0 1.3856 0.23796 1.8867 0.71094 0.092994 0.08682 0.17057 0.18792 0.24805 0.28906h3.8691v6h-4.5723c-0.078896 0.20068-0.19361 0.38796-0.33594 0.5332-0.28046 0.28893-0.72268 0.4668-1.1035 0.4668h6.0117c0.554 0 1-0.446 1-1v-6c0-0.554-0.446-1-1-1h-6.0039z" style="paint-order:normal"/>
  <path d="m15 6.5879v2.8242a1.5 1.5 0 0 0 1-1.4121 1.5 1.5 0 0 0-1-1.4121z" style="paint-order:normal"/>
  <path d="m2 6v4h3.5605c0.056042-0.11514 0.12139-0.22949 0.1875-0.33984-0.093126-0.15517-0.1424-0.3327-0.14258-0.51367v-0.38281c0-0.38293 0.088933-0.7823 0.29492-1.1309 0.029804-0.051269 0.082683-0.088432 0.11523-0.13672-0.12557-0.002876-0.24948-0.029379-0.36523-0.078125l-0.69922-0.29297c-0.4468-0.18789-0.67057-0.66381-0.57422-1.125h-2.377zm7.5977 0c0.039728 0.18014 0.064453 0.36233 0.064453 0.54492 0 0.37047-0.10208 0.73229-0.26562 1.0508-0.12432 0.24209-0.23438 0.44146-0.43359 0.6543-0.091585 0.098128-0.2047 0.20738-0.33203 0.32617l-0.039062 0.041016c-0.017554 0.018264-0.035798 0.035855-0.054688 0.052734-0.20905 0.18849-0.16602 0.22235-0.16602 0.15039v0.32617c-1.83e-5 0.18636-0.052107 0.36901-0.15039 0.52734 0.064446 0.10712 0.13037 0.21591 0.1875 0.32617h3.5918v-4h-2.4023zm-1.5117 3.3496c0.00303 0.003029 0.0028594 0.0086487 0.0058594 0.011719 0.003059 0.00315 0.0086987 0.0026794 0.011719 0.0058594l-0.017578-0.017578z" style="paint-order:normal"/>
 </g>
 <path d="m6.9961 5c0.49322 0 0.89418 0.14677 1.2031 0.43945 0.30894 0.28726 0.46289 0.6556 0.46289 1.1055 0 0.19512-0.05132 0.39321-0.1543 0.59375s-0.19409 0.34297-0.27539 0.42969c-0.07588 0.081301-0.18525 0.18828-0.32617 0.31836l-0.03906 0.041016c-0.33062 0.2981-0.4961 0.59447-0.4961 0.89258v0.32617h-0.76562v-0.38281c0-0.2439 0.051316-0.45156 0.1543-0.625 0.10298-0.17886 0.28476-0.38847 0.54492-0.62695 0.14634-0.1355 0.24897-0.23574 0.30859-0.30078 0.06504-0.070461 0.12788-0.16396 0.1875-0.2832 0.06504-0.12466 0.09766-0.25273 0.09766-0.38281 0-0.24932-0.08154-0.4498-0.24414-0.60156-0.15718-0.15176-0.37636-0.22852-0.6582-0.22852-0.46612 0-0.78554 0.26092-0.95898 0.78125l-0.69922-0.29297c0.11382-0.30894 0.30951-0.58618 0.58594-0.83008 0.28184-0.24932 0.63866-0.37305 1.0723-0.37305zm-0.0078 4.8945c0.15718 0 0.28764 0.05371 0.39062 0.16211 0.1084 0.1084 0.16211 0.23886 0.16211 0.39062s-0.05371 0.28222-0.16211 0.39062c-0.10298 0.1084-0.23345 0.16211-0.39063 0.16211s-0.29004-0.05371-0.39844-0.16211c-0.10298-0.1084-0.1543-0.23886-0.1543-0.39062s0.051316-0.28222 0.1543-0.39062c0.1084-0.1084 0.24126-0.16211 0.39844-0.16211z" enable-background="new" fill="#333"/>
</svg>
