<svg width="16" height="16" enable-background="new" version="1.1" xmlns="http://www.w3.org/2000/svg" xmlns:osb="http://www.openswatchbook.org/uri/2009/osb">
 <title>Paper Symbolic Icon Theme</title>
 <g fill="#363636">
  <path d="m6.2125 7.8857c0.28909 0.07636 0.46364 0.37636 0.38727 0.66546l-0.70909 2.6345c-0.076364 0.29455-0.37636 0.46364-0.66545 0.38727-0.29455-0.07636-0.46364-0.37636-0.37636-0.66546l0.69818-2.6345c0.076364-0.29455 0.37636-0.46364 0.66545-0.38727"/>
  <path d="m8.3943 7.8857c0.28909 0.07636 0.46364 0.37636 0.38727 0.66546l-1.1291 4.2164c-0.076364 0.3-0.37636 0.46364-0.67091 0.38727-0.28909-0.08727-0.46364-0.37636-0.38727-0.67091l1.1345-4.2109c0.076364-0.29455 0.37636-0.46364 0.66545-0.38727"/>
  <path d="m10.576 7.8857c0.28909 0.07636 0.46364 0.37636 0.38727 0.66546l-0.70909 2.6345c-0.07636 0.29455-0.37636 0.46364-0.66545 0.38727-0.29455-0.07636-0.46364-0.37636-0.37636-0.66546l0.69818-2.6345c0.07636-0.29455 0.37636-0.46364 0.66545-0.38727"/>
  <path d="m10.727 6.7124v-0.58863a2.7273 2.9432 0 0 0-2.7273-2.9432c-1.3636 0-2.4818 1.0713-2.6945 2.4664-0.18-0.07063-0.37636-0.11184-0.57818-0.11184a1.6364 1.7659 0 0 0-1.6364 1.7659c0 0.65338 0.32727 1.2244 0.81818 1.5304v-6e-3c0.27273 0.16482 0.34909 0.53566 0.20182 0.80643-0.15273 0.27666-0.47455 0.37673-0.74727 0.21191v6e-3c-0.81818-0.50623-1.3636-1.4598-1.3636-2.5488a2.7273 2.9432 0 0 1 2.7273-2.9432c0.54545-1.3833 1.8-2.3545 3.2727-2.3545 1.8709 0 3.4036 1.5658 3.5455 3.5495l0.27273-0.01765a2.1818 2.3545 0 0 1 2.1818 2.3545c0 0.88295-0.43636 1.6305-1.0909 2.0367-0.27273 0.15893-0.59455 0.06474-0.74727-0.2178-0.14727-0.28254-0.07091-0.64161 0.20182-0.80643v6e-3c0.32727-0.2002 0.54546-0.58282 0.54546-1.0184a1.0909 1.1773 0 0 0-1.0909-1.1773z"/>
 </g>
</svg>
