<svg width="64" height="64" version="1.1" viewBox="0 0 16.933 16.933" xmlns="http://www.w3.org/2000/svg">
 <defs>
  <linearGradient id="c" x1="8.466" x2="8.466" y1="284.41" y2="295.41" gradientTransform="matrix(4.3611 0 0 4.3611 -4.9211 -1226.3)" gradientUnits="userSpaceOnUse">
   <stop stop-color="#35cafc" offset="0"/>
   <stop stop-color="#50d4ff" offset=".5"/>
   <stop stop-color="#4dcbf6" offset="1"/>
  </linearGradient>
  <linearGradient id="b" x1="8.467" x2="8.467" y1="282.18" y2="294.88" gradientTransform="matrix(.97498 0 0 .97498 .21088 7.2211)" gradientUnits="userSpaceOnUse">
   <stop stop-color="#78d9fd" offset="0"/>
   <stop stop-color="#7bdeff" offset="1"/>
  </linearGradient>
  <linearGradient id="a" x1="8.466" x2="8.466" y1="294.95" y2="295.41" gradientTransform="matrix(4.3611 0 0 4.3611 -4.9211 -1226.3)" gradientUnits="userSpaceOnUse">
   <stop stop-color="#3bc1f1" offset="0"/>
   <stop stop-color="#0e95c5" offset="1"/>
  </linearGradient>
  <linearGradient id="d" x1="-56.654" x2="-56.654" y1="1093.1" y2="1129.2" gradientTransform="matrix(.21796 0 0 .21796 20.804 -232.22)" gradientUnits="userSpaceOnUse">
   <stop stop-color="#03b6ec" offset="0"/>
   <stop stop-color="#13c0f7" offset="1"/>
  </linearGradient>
 </defs>
 <g transform="matrix(1.1539 0 0 1.1539 -1.302 -324.46)" style="paint-order:stroke markers fill">
  <circle cx="8.466" cy="288.53" r="6.1911" fill="url(#b)" stroke-width=".7511"/>
  <g stroke-width="3.2756">
   <path transform="matrix(.2293 0 0 .2293 1.1284 281.2)" d="m32 14c-1.2778 0-1.6612 0.73798-2.3066 1.8457l-1.3438 2.1543h-19.35c-1.2909 0-1.9585-0.036058-2.4883 0.050781-1.0591 0.1736-1.5074 0.95696-1.957 1.9492l-0.24219 0.5332c-1.5081 3.6268-2.3052 7.5182-2.3125 11.463 8.897e-4 1.0006 0.051537 2.0006 0.15234 2.9961 1.0582 10.424 7.4767 19.54 16.934 24.051 0.46103 0.22721 0.9283 0.44334 1.4004 0.64648h0.04492c3.6345 1.5157 7.5309 2.3002 11.469 2.3105 12.298-0.0044 23.348-7.5136 27.881-18.945 0.3587-0.9058 0.67248-1.8273 0.94141-2.7637l0.02734-0.07813v-0.0059c0.20685-0.75164 0.38354-1.5099 0.53125-2.2754 0.05364-0.23201 0.10424-0.46603 0.15234-0.69922 0.10955-0.66267 0.19687-1.3275 0.26172-1.9961 0.04479-0.33057 0.08348-0.66209 0.11719-0.99414 0.057134-0.74728 0.086891-1.4966 0.087894-2.246-0.003107-6.2735-1.9946-12.365-5.6367-17.447-0.14272-0.15566-0.30021-0.28932-0.48438-0.38281-0.20941-0.10631-0.44956-0.16602-0.72656-0.16602z" fill="url(#c)"/>
   <path transform="matrix(.2293 0 0 .2293 1.1284 281.2)" d="m21.332 60c3.4042 1.3064 7.0168 1.9904 10.668 2 3.7456-0.00134 7.3711-0.70747 10.736-2h-21.404z" fill="url(#a)"/>
   <path transform="matrix(.2293 0 0 .2293 1.1284 281.2)" d="m14.051 56c0.46484 0.3471 0.94498 0.67895 1.4316 1h33.07c0.47908-0.31739 0.9441-0.6556 1.4043-1h-35.906zm3.0586 2c0.61733 0.35302 1.2459 0.68907 1.8926 1h26.062c0.64212-0.31109 1.2714-0.64463 1.8887-1h-29.844z" fill="#3bc1f1"/>
  </g>
 </g>
 <path class="ColorScheme-Text" d="m8.4988 6.0853c-0.050585 0-0.10105 0.018688-0.14773 0.046857l-0.25852 0.1489c-0.16597 0.09606-0.22046 0.30727-0.12465 0.47458l2.2437 3.9177 0.82174-0.55364-2.2114-3.8574c-0.059888-0.10426-0.16168-0.16904-0.27239-0.17679-0.016598-0.00208-0.033913 0-0.050784 0zm-0.79401 1.3354c-0.1107 0.01182-0.2171 0.06795-0.277 0.1721l-0.22622 0.39082 0.85408 0.4979 0.22622-0.39082c0.095817-0.16731 0.04133-0.37804-0.12465-0.47458l-0.25393-0.1489c-0.062241-0.03631-0.1321-0.05155-0.19851-0.04688zm-0.64633 0.81888-1.9343 3.3828 0.85408 0.49319 1.9343-3.3782zm-2.8253 1.5169v0.99569h1.145l0.56785-0.99569zm3.3423 0-0.56785 0.99569h3.0054l-0.57247-0.99569zm3.4947 0 0.57247 0.99569h1.0573v-0.99569zm0.11087 0.61879-0.82174 0.55366 0.41086 0.71662 0.82174-0.55366zm0.5586 0.97717-0.82174 0.55366c0.02447 0.98991 0.7746 0.86665 1.0618 1.4843 0.54686-0.58683 0.38149-1.4891-0.24006-2.0381zm-6.7635 0.52578-0.44782 1.6146 1.3018-1.1168z" fill="url(#d)" opacity=".816" stroke-width=".26458"/>
</svg>
