<svg width="64" height="64" version="1.1" viewBox="0 0 16.933 16.933" xmlns="http://www.w3.org/2000/svg">
 <defs>
  <linearGradient id="c" x1="8.466" x2="8.466" y1="284.41" y2="295.41" gradientTransform="matrix(4.3611 0 0 4.3611 -4.9211 -1226.3)" gradientUnits="userSpaceOnUse">
   <stop stop-color="#35cafc" offset="0"/>
   <stop stop-color="#50d4ff" offset=".5"/>
   <stop stop-color="#4dcbf6" offset="1"/>
  </linearGradient>
  <linearGradient id="b" x1="8.467" x2="8.467" y1="282.18" y2="294.88" gradientTransform="matrix(.97498 0 0 .97498 .21088 7.2211)" gradientUnits="userSpaceOnUse">
   <stop stop-color="#78d9fd" offset="0"/>
   <stop stop-color="#7bdeff" offset="1"/>
  </linearGradient>
 </defs>
 <g transform="matrix(1.1539 0 0 1.1539 -1.302 -324.46)" style="paint-order:stroke markers fill">
  <circle cx="8.466" cy="288.53" r="6.1911" fill="url(#b)" stroke-width=".7511"/>
  <g stroke-width="3.2756">
   <path transform="matrix(.2293 0 0 .2293 1.1284 281.2)" d="m32 14c-1.2778 0-1.6612 0.73798-2.3066 1.8457l-1.3438 2.1543h-19.35c-1.2909 0-1.9585-0.036058-2.4883 0.050781-1.0591 0.1736-1.5074 0.95696-1.957 1.9492l-0.24219 0.5332c-1.5081 3.6268-2.3052 7.5182-2.3125 11.463 8.897e-4 1.0006 0.051537 2.0006 0.15234 2.9961 1.0582 10.424 7.4767 19.54 16.934 24.051 0.46103 0.22721 0.9283 0.44334 1.4004 0.64648h0.04492c3.6345 1.5157 7.5309 2.3002 11.469 2.3105 12.298-0.0044 23.348-7.5136 27.881-18.945 0.3587-0.9058 0.67248-1.8273 0.94141-2.7637l0.02734-0.07813v-0.0059c0.20685-0.75164 0.38354-1.5099 0.53125-2.2754 0.05364-0.23201 0.10424-0.46603 0.15234-0.69922 0.10955-0.66267 0.19687-1.3275 0.26172-1.9961 0.04479-0.33057 0.08348-0.66209 0.11719-0.99414 0.057134-0.74728 0.086891-1.4966 0.087894-2.246-0.003107-6.2735-1.9946-12.365-5.6367-17.447-0.14272-0.15566-0.30021-0.28932-0.48438-0.38281-0.20941-0.10631-0.44956-0.16602-0.72656-0.16602z" fill="url(#c)"/>
   <path transform="matrix(.2293 0 0 .2293 1.1284 281.2)" d="m14.051 56c0.46484 0.3471 0.94498 0.67895 1.4316 1h33.07c0.47908-0.31739 0.9441-0.6556 1.4043-1h-35.906zm3.0586 2c0.61733 0.35302 1.2459 0.68907 1.8926 1h26.062c0.64212-0.31109 1.2714-0.64463 1.8887-1h-29.844z" fill="#3bc1f1"/>
  </g>
 </g>
 <path d="m8.467 3.7262 6.126 5.291e-4c0.05503 0 0.10307 0.010903 0.14779 0.02687-0.04472-0.016343-0.09276-0.027389-0.14779-0.027389h-6.126zm-7.9363 4.7082c-1.5404e-4 0.017769-0.001519 0.035448-0.00155 0.053225 2.354e-4 0.26474 0.013635 0.52931 0.040306 0.7927 0.27998 2.758 1.9785 5.1704 4.4809 6.3639 0.12198 0.06012 0.2456 0.1173 0.37051 0.17104h0.011885c0.96166 0.40105 1.9924 0.60858 3.0344 0.61131 3.254-0.0012 6.1779-1.9879 7.3772-5.0124 0.09491-0.23966 0.17792-0.48397 0.24908-0.73172l0.0072-0.02067v-0.0016c0.05473-0.19888 0.10147-0.39949 0.14056-0.60202 0.01419-0.061387 0.02758-0.1233 0.04031-0.185 0.02899-0.17534 0.05209-0.35123 0.06925-0.52812 0.01185-0.087464 0.02209-0.17517 0.03101-0.26303 0.01512-0.19772 0.02299-0.39599 0.02325-0.59427-9e-6 -0.01765-0.0019-0.03507-0.0021-0.052709-0.0015 0.17629-0.0074 0.35284-0.02119 0.52863-0.0089 0.085908-0.01916 0.17184-0.03101 0.25734-0.01716 0.17297-0.04026 0.3448-0.06924 0.51624-0.01273 0.060326-0.02611 0.12086-0.04031 0.18086-0.03909 0.19806-0.08583 0.39412-0.14056 0.58858v0.0016l-0.0072 0.02015c-0.07112 0.24225-0.15414 0.48031-0.24904 0.71468-1.1994 2.9574-4.1232 4.9002-7.3772 4.9013-1.042-0.0026758-2.0727-0.20574-3.0344-0.59789h-0.011885c-0.12491-0.052561-0.24853-0.10806-0.37051-0.16691-2.5023-1.1671-4.2007-3.526-4.4809-6.2229-0.024861-0.24006-0.036869-0.48116-0.038755-0.72243z" opacity=".1" stroke-width=".86668" style="paint-order:stroke markers fill"/>
</svg>
