<svg width="64" height="64" version="1.1" viewBox="0 0 16.933 16.933" xmlns="http://www.w3.org/2000/svg">
 <defs>
  <linearGradient id="c" x1="8.466" x2="8.466" y1="284.41" y2="295.41" gradientTransform="matrix(4.3613 0 0 4.3613 -4.9211 -1226.3)" gradientUnits="userSpaceOnUse">
   <stop stop-color="#35cafc" offset="0"/>
   <stop stop-color="#50d4ff" offset=".5"/>
   <stop stop-color="#4dcbf6" offset="1"/>
  </linearGradient>
  <linearGradient id="b" x1="8.467" x2="8.467" y1="282.18" y2="288.99" gradientTransform="matrix(.97498 0 0 .97498 .21088 7.2211)" gradientUnits="userSpaceOnUse">
   <stop stop-color="#78d9fd" offset="0"/>
   <stop stop-color="#7bdeff" offset="1"/>
  </linearGradient>
  <linearGradient id="a" x1="8.466" x2="8.466" y1="294.95" y2="295.41" gradientTransform="matrix(4.3611 0 0 4.3611 -4.9211 -1226.3)" gradientUnits="userSpaceOnUse">
   <stop stop-color="#3bc1f1" offset="0"/>
   <stop stop-color="#0e95c5" offset="1"/>
  </linearGradient>
 </defs>
 <g transform="matrix(1.1539 0 0 1.1539 -1.302 -324.46)" style="paint-order:stroke markers fill">
  <circle cx="8.466" cy="288.53" r="6.1911" fill="url(#b)" stroke-width=".7511"/>
  <g stroke-width="3.2756">
   <path transform="matrix(.22929 0 0 .22929 1.1283 281.19)" d="m32.002 26c-1.2779 0-1.6612 0.73794-2.3066 1.8457l-1.3438 2.1543h-21.539c-1.291 0-1.9585-0.035136-2.4883 0.050781-1.0591 0.17358-1.5074 0.95694-1.957 1.9492l-0.24219 0.5332c-0.03961 0.095258-0.06978 0.19149-0.10547 0.28711 0.019504 0.74681 0.057535 1.4929 0.13281 2.2363 1.0582 10.424 7.4778 19.542 16.936 24.053 0.46105 0.22722 0.92827 0.44334 1.4004 0.64648h0.044922c3.6347 1.5158 7.5305 2.3002 11.469 2.3105 12.299-0.0044 23.35-7.5134 27.883-18.945 0.35872-0.90584 0.67246-1.8292 0.94141-2.7656l0.027344-0.078125v-0.00586c0.20686-0.75167 0.38353-1.5099 0.53125-2.2754 0.053642-0.23202 0.10424-0.46602 0.15234-0.69922 0.10956-0.6627 0.19687-1.3275 0.26172-1.9961 0.044792-0.33058 0.083476-0.66208 0.11719-0.99414 0.057136-0.74731 0.086887-1.4967 0.08789-2.2461-8.44e-4 -1.7041-0.16172-3.392-0.44922-5.0527-0.096629-0.15227-0.18119-0.30651-0.28906-0.45703-0.14274-0.1557-0.3002-0.28904-0.48438-0.38281-0.20943-0.10642-0.44955-0.16602-0.72656-0.16602l-28.053-0.001953z" fill="url(#c)" stroke-width="3.2757"/>
   <path transform="matrix(.2293 0 0 .2293 1.1284 281.2)" d="m21.332 60c3.4042 1.3064 7.0168 1.9904 10.668 2 3.7456-0.00134 7.3711-0.70747 10.736-2h-21.404z" fill="url(#a)"/>
   <path transform="matrix(.2293 0 0 .2293 1.1284 281.2)" d="m14.051 56c0.46484 0.3471 0.94498 0.67895 1.4316 1h33.07c0.47908-0.31739 0.9441-0.6556 1.4043-1h-35.906zm3.0586 2c0.61733 0.35302 1.2459 0.68907 1.8926 1h26.062c0.64212-0.31109 1.2714-0.64463 1.8887-1h-29.844z" fill="#3bc1f1"/>
  </g>
 </g>
</svg>
