<svg width="64" height="64" version="1.1" viewBox="0 0 16.933 16.933" xmlns="http://www.w3.org/2000/svg">
 <defs>
  <linearGradient id="c" x1="8.466" x2="8.466" y1="284.41" y2="295.41" gradientTransform="matrix(1.1539 0 0 1.1539 -1.302 -324.45)" gradientUnits="userSpaceOnUse">
   <stop stop-color="#35cafc" offset="0"/>
   <stop stop-color="#50d4ff" offset=".5"/>
   <stop stop-color="#4dcbf6" offset="1"/>
  </linearGradient>
  <linearGradient id="b" x1="8.467" x2="8.467" y1="282.18" y2="294.88" gradientTransform="matrix(1.125 0 0 1.125 -1.0587 -316.13)" gradientUnits="userSpaceOnUse">
   <stop stop-color="#78d9fd" offset="0"/>
   <stop stop-color="#7bdeff" offset="1"/>
  </linearGradient>
  <linearGradient id="d" x1="99.903" x2="99.903" y1="884.11" y2="1016.2" gradientTransform="matrix(.058821 0 0 .058821 2.4318 -45.976)" gradientUnits="userSpaceOnUse">
   <stop stop-color="#03b6ec" offset="0"/>
   <stop stop-color="#13c0f7" offset="1"/>
  </linearGradient>
 </defs>
 <g stroke-width=".86669">
  <circle cx="8.4669" cy="8.4748" r="7.1439" fill="url(#b)" style="paint-order:stroke markers fill"/>
  <path d="m8.4669 3.7209c-0.33809 0-0.43954 0.19526-0.6103 0.48835l-0.35556 0.57h-5.1198c-0.34156 0-0.5182-0.00954-0.65838 0.013436-0.28023 0.045932-0.39884 0.2532-0.5178 0.51574l-0.064081 0.14108c-0.39903 0.95961-0.60993 1.9892-0.61186 3.033 2.3541e-4 0.26475 0.013636 0.52934 0.040308 0.79274 0.27999 2.7581 1.9783 5.1701 4.4806 6.3636 0.12198 0.06012 0.24562 0.1173 0.37053 0.17105h0.011885c0.96165 0.40104 1.9926 0.60861 3.0346 0.61133 3.2539-0.0012 6.1776-1.988 7.377-5.0126 0.09491-0.23966 0.17793-0.48348 0.24909-0.73125l0.0072-0.02067v-0.0016c0.05473-0.19888 0.10148-0.3995 0.14056-0.60205 0.01419-0.061388 0.02758-0.12331 0.04031-0.18501 0.02899-0.17534 0.05209-0.35124 0.06925-0.52815 0.01185-0.087465 0.02209-0.17518 0.03101-0.26304 0.01512-0.19772 0.02299-0.39598 0.02325-0.59427-8.2e-4 -1.6599-0.52775-3.2716-1.4914-4.6163-0.03776-0.041186-0.07943-0.076551-0.12816-0.10129-0.05541-0.028128-0.11895-0.043927-0.19224-0.043927z" fill="url(#c)" style="paint-order:stroke markers fill"/>
  <path d="m3.7178 14.834c0.12299 0.09184 0.25003 0.17964 0.37879 0.26459h8.75c0.12676-0.08398 0.2498-0.17346 0.37156-0.26459h-9.5003zm0.80927 0.52918c0.16334 0.09341 0.32965 0.18232 0.50076 0.26459h6.8957c0.1699-0.08231 0.3364-0.17056 0.49973-0.26459h-7.8964z" fill="#3bc1f1" style="paint-order:stroke markers fill"/>
 </g>
 <path d="m6.6963 10.287c0 1.0655 0.020103 1.4374-0.66342 1.4374-0.68352 0-1.2263 0.22113-1.2263 0.84434 0 0.62322 0.64331 0.92477 1.0454 0.92477 0.40207 0 1.1962-0.28147 1.1962-1.1258v-3.8197l3.4176-0.79409v2.9251s0.04021 0.35184-0.41212 0.35184-1.4475-0.13069-1.4475 0.82424c0 0.95492 0.96498 0.89462 1.1158 0.89462 0.15078 0 1.1258-0.16085 1.1258-1.2967v-5.3677l-4.1715 0.80416z" fill="url(#d)"/>
 <path d="m8.467 3.7262 6.126 5.291e-4c0.05503 0 0.10307 0.010903 0.14779 0.02687-0.04472-0.016343-0.09276-0.027389-0.14779-0.027389h-6.126zm-7.9363 4.7082c-1.5404e-4 0.017769-0.001519 0.035448-0.00155 0.053225 2.354e-4 0.26474 0.013635 0.52931 0.040306 0.7927 0.27998 2.758 1.9785 5.1704 4.4809 6.3639 0.12198 0.06012 0.2456 0.1173 0.37051 0.17104h0.011885c0.96166 0.40105 1.9924 0.60858 3.0344 0.61131 3.254-0.0012 6.1779-1.9879 7.3772-5.0124 0.09491-0.23966 0.17792-0.48397 0.24908-0.73172l0.0072-0.02067v-0.0016c0.05473-0.19888 0.10147-0.39949 0.14056-0.60202 0.01419-0.061387 0.02758-0.1233 0.04031-0.185 0.02899-0.17534 0.05209-0.35123 0.06925-0.52812 0.01185-0.087464 0.02209-0.17517 0.03101-0.26303 0.01512-0.19772 0.02299-0.39599 0.02325-0.59427-9e-6 -0.01765-0.0019-0.03507-0.0021-0.052709-0.0015 0.17629-0.0074 0.35284-0.02119 0.52863-0.0089 0.085908-0.01916 0.17184-0.03101 0.25734-0.01716 0.17297-0.04026 0.3448-0.06924 0.51624-0.01273 0.060326-0.02611 0.12086-0.04031 0.18086-0.03909 0.19806-0.08583 0.39412-0.14056 0.58858v0.0016l-0.0072 0.02015c-0.07112 0.24225-0.15414 0.48031-0.24904 0.71468-1.1994 2.9574-4.1232 4.9002-7.3772 4.9013-1.042-0.0026758-2.0727-0.20574-3.0344-0.59789h-0.011885c-0.12491-0.052561-0.24853-0.10806-0.37051-0.16691-2.5023-1.1671-4.2007-3.526-4.4809-6.2229-0.024861-0.24006-0.036869-0.48116-0.038755-0.72243z" opacity=".1" stroke-width=".86668" style="paint-order:stroke markers fill"/>
</svg>
