<svg width="64" height="64" version="1.1" viewBox="0 0 16.933 16.933" xmlns="http://www.w3.org/2000/svg" xmlns:xlink="http://www.w3.org/1999/xlink">
 <defs>
  <linearGradient id="c" x1="8.466" x2="8.466" y1="284.41" y2="295.41" gradientTransform="matrix(4.3611 0 0 4.3611 -4.9211 -1226.3)" gradientUnits="userSpaceOnUse">
   <stop stop-color="#35cafc" offset="0"/>
   <stop stop-color="#50d4ff" offset=".5"/>
   <stop stop-color="#4dcbf6" offset="1"/>
  </linearGradient>
  <linearGradient id="b" x1="8.467" x2="8.467" y1="282.18" y2="294.88" gradientTransform="matrix(.97498 0 0 .97498 .21088 7.2211)" gradientUnits="userSpaceOnUse">
   <stop stop-color="#78d9fd" offset="0"/>
   <stop stop-color="#7bdeff" offset="1"/>
  </linearGradient>
  <linearGradient id="a" x1="8.466" x2="8.466" y1="294.95" y2="295.41" gradientTransform="matrix(4.3611 0 0 4.3611 -4.9211 -1226.3)" gradientUnits="userSpaceOnUse">
   <stop stop-color="#3bc1f1" offset="0"/>
   <stop stop-color="#0e95c5" offset="1"/>
  </linearGradient>
  <linearGradient id="d" x1="105.73" x2="105.73" y1="921.47" y2="999.25" gradientTransform="matrix(.076278 0 0 .075717 .33814 -62.953)" gradientUnits="userSpaceOnUse">
   <stop stop-color="#03b6ec" offset="0"/>
   <stop stop-color="#13c0f7" offset="1"/>
  </linearGradient>
 </defs>
 <g transform="matrix(1.1539 0 0 1.1539 -1.302 -324.46)" style="paint-order:stroke markers fill">
  <circle cx="8.466" cy="288.53" r="6.1911" fill="url(#b)" stroke-width=".7511"/>
  <g stroke-width="3.2756">
   <path transform="matrix(.2293 0 0 .2293 1.1284 281.2)" d="m32 14c-1.2778 0-1.6612 0.73798-2.3066 1.8457l-1.3438 2.1543h-19.35c-1.2909 0-1.9585-0.036058-2.4883 0.050781-1.0591 0.1736-1.5074 0.95696-1.957 1.9492l-0.24219 0.5332c-1.5081 3.6268-2.3052 7.5182-2.3125 11.463 8.897e-4 1.0006 0.051537 2.0006 0.15234 2.9961 1.0582 10.424 7.4767 19.54 16.934 24.051 0.46103 0.22721 0.9283 0.44334 1.4004 0.64648h0.04492c3.6345 1.5157 7.5309 2.3002 11.469 2.3105 12.298-0.0044 23.348-7.5136 27.881-18.945 0.3587-0.9058 0.67248-1.8273 0.94141-2.7637l0.02734-0.07813v-0.0059c0.20685-0.75164 0.38354-1.5099 0.53125-2.2754 0.05364-0.23201 0.10424-0.46603 0.15234-0.69922 0.10955-0.66267 0.19687-1.3275 0.26172-1.9961 0.04479-0.33057 0.08348-0.66209 0.11719-0.99414 0.057134-0.74728 0.086891-1.4966 0.087894-2.246-0.003107-6.2735-1.9946-12.365-5.6367-17.447-0.14272-0.15566-0.30021-0.28932-0.48438-0.38281-0.20941-0.10631-0.44956-0.16602-0.72656-0.16602z" fill="url(#c)"/>
   <path transform="matrix(.2293 0 0 .2293 1.1284 281.2)" d="m21.332 60c3.4042 1.3064 7.0168 1.9904 10.668 2 3.7456-0.00134 7.3711-0.70747 10.736-2h-21.404z" fill="url(#a)"/>
   <path transform="matrix(.2293 0 0 .2293 1.1284 281.2)" d="m14.051 56c0.46484 0.3471 0.94498 0.67895 1.4316 1h33.07c0.47908-0.31739 0.9441-0.6556 1.4043-1h-35.906zm3.0586 2c0.61733 0.35302 1.2459 0.68907 1.8926 1h26.062c0.64212-0.31109 1.2714-0.64463 1.8887-1h-29.844z" fill="#3bc1f1"/>
  </g>
 </g>
 <path d="m5.158 6.879c-0.27129 0-0.39495 0.089667-0.39495 0.25022l1.526e-4 6.068e-4v4.9825c-7.63e-5 0.0053-7.64e-4 0.0089-7.64e-4 0.01451 0 0.43774 0.37513 0.57025 0.57536 0.57025h0.62155c0.0087 0.0016 0.017654 0.0026 0.026816 0.0026h5.1203c0.0092 0 0.01798-0.0011 0.02666-0.0026h0.46199c0.20023 0 0.57536-0.1325 0.57536-0.57025 0-0.0065-7.48e-4 -0.01112-8.93e-4 -0.01731v-4.9763l1e-3 -0.00401c0-0.16009-0.12309-0.24955-0.39271-0.25007v-1.561e-4h-6.6199zm0.17714 1.2643h6.2634c0.13014 0 0.20562 0.10809 0.24373 0.24534v3.7254c-0.0054 0.14629-0.11262 0.31573-0.26295 0.31573h-0.32582v-1.3147c0-0.08085-0.0656-0.14597-0.14705-0.14597h-5.1203c-0.081444 0-0.14704 0.06512-0.14704 0.14597v1.3147h-0.48553c-0.15077 0-0.25831-0.17048-0.2631-0.31706l-1.526e-4 -1.51e-4v-3.7206c0.037812-0.13885 0.11358-0.2486 0.24477-0.2486z" color="#000000" fill="url(#d)"/>
</svg>
