<svg width="200" height="200" version="1.1" viewBox="0 0 200 200" xmlns="http://www.w3.org/2000/svg">
 <defs>
  <style id="current-color-scheme" type="text/css">.ColorScheme-Text { color:#565656; } .ColorScheme-Highlight { color:#5294e2; }</style>
  <linearGradient id="c" x1="-9.617" x2="-9.617" y1="1138.4" y2="1140.2" gradientUnits="userSpaceOnUse">
   <stop stop-opacity=".046784" offset="0"/>
   <stop offset="1"/>
  </linearGradient>
  <linearGradient id="f" x1="-26.201" x2="-26.201" y1="1070.2" y2="1082.6" gradientUnits="userSpaceOnUse">
   <stop stop-color="#78fda1" offset="0"/>
   <stop stop-color="#7bffb0" offset="1"/>
  </linearGradient>
  <linearGradient id="e" x1="-9.912" x2="-9.912" y1="1081.4" y2="1139.8" gradientUnits="userSpaceOnUse">
   <stop stop-color="#35fc85" offset="0"/>
   <stop stop-color="#61ffa3" offset=".5"/>
   <stop stop-color="#4df688" offset="1"/>
  </linearGradient>
 </defs>
 <g transform="translate(-.49008 -1.837)" color="#000000">
  <path transform="matrix(2.2139,0,0,2.2139,109.5,-2344.9)" d="m-44.762 1070.2h22.131c3.287 0 4.652 7.071 7.728 7.071h51.522a3.276 3.276 0 0 1 3.283 3.283v50.508c0 1.819-1.464-2.02-3.283-2.02h-81.38a3.276 3.276 0 0 1-3.283-3.283v-52.275a3.276 3.276 0 0 1 3.283-3.283z" fill="url(#f)"/>
  <path transform="matrix(2.2139,0,0,2.2139,109.5,-2344.9)" d="m-44.762 1081.3h81.38a3.276 3.276 0 0 1 3.283 3.283v52.275a3.276 3.276 0 0 1-3.283 3.283h-81.38a3.276 3.276 0 0 1-3.283-3.283v-52.275a3.276 3.276 0 0 1 3.283-3.283z" fill="url(#e)"/>
  <path d="m3.16 165.84v2.214h194.68v-2.214h-194.69zm0 4.87v1.176c0 0.359 0.019 0.694 0.068 1.038h194.55c0.05-0.344 0.069-0.679 0.069-1.038v-1.176h-194.69z" opacity=".08" style="text-indent:0;text-transform:none"/>
  <path transform="matrix(2.2139,0,0,2.2139,109.5,-2344.9)" d="m-47.75 1138.2a3.28 3.28 0 0 0 3 1.938h81.375c1.34 0 2.488-0.793 3-1.938z" fill="url(#c)" opacity=".25" style="text-indent:0;text-transform:none"/>
 </g>
 <path d="m143.92 153c0-14.383-24.407-21.721-34.142-24.33 0 0 0.40342-8.0645 1.3444-11.022s1.0751-6.3177 1.4786-7.2586 5.1557-5.2425 5.425-9.2748c-0.0651-2.4067-0.54053-2.9759-1.7281-2.9759v-12.499c0-6.7477-9.838-12.64-16.295-12.64-6.4577 0-16.295 5.8925-16.295 12.64v12.499c-1.1886 0-1.664 0.57011-1.7281 2.9759 0.26928 4.0322 5.0206 8.3338 5.425 9.2748 0.40244 0.94099 0.53658 4.3006 1.4776 7.2586 0.94099 2.9571 1.3444 11.022 1.3444 11.022-9.7354 2.6089-34.142 9.9465-34.142 24.33z" fill-rule="evenodd" opacity=".15"/>
</svg>
