<svg width="16" height="16" version="1.1" viewBox="0 0 4.5156 4.5156" xmlns="http://www.w3.org/2000/svg">
 <path d="m1.941 4.511c-0.017-4e-3 -0.025-7e-3 -0.018-8e-3s-2e-3 -7e-3 -0.02-0.014c-0.11-0.039-0.171-0.132-0.164-0.248 6e-3 -0.09 0.09-0.243 0.2-0.361 0.021-0.023 0.041-0.041 0.046-0.041 0.011 0 0.116 0.128 0.155 0.189 0.046 0.072 0.081 0.152 0.088 0.201 0.016 0.108-0.072 0.241-0.173 0.261-0.019 4e-3 -0.024 8e-3 -0.015 0.013 8e-3 5e-3 5e-3 8e-3 -0.01 8e-3 -0.012 0-0.03 2e-3 -0.04 4e-3s-0.032 0-0.049-3e-3zm0.885 2e-3c-0.022-3e-3 -0.027-6e-3 -0.018-0.012 0.01-7e-3 0.01-8e-3 -3e-3 -8e-3 -0.026 0-0.08-0.032-0.114-0.068-0.052-0.055-0.065-0.087-0.065-0.167 0-0.059 4e-3 -0.079 0.024-0.123 0.034-0.074 0.111-0.186 0.169-0.248l0.049-0.053 0.044 0.048c0.099 0.108 0.19 0.268 0.2 0.351 9e-3 0.073-0.015 0.138-0.072 0.194-0.034 0.034-0.059 0.05-0.088 0.058-0.031 8e-3 -0.037 0.012-0.025 0.017s9e-3 6e-3 -0.011 7e-3c-0.015 0-0.034 2e-3 -0.044 4e-3s-0.031 1e-3 -0.048-1e-3zm0.889 0c-0.021-2e-3 -0.03-6e-3 -0.024-0.01 7e-3 -4e-3 -3e-3 -0.011-0.026-0.018-0.053-0.016-0.125-0.09-0.145-0.15-0.024-0.072-0.016-0.127 0.033-0.226 0.039-0.078 0.138-0.218 0.183-0.257l0.02-0.018 0.048 0.053c0.059 0.064 0.135 0.177 0.168 0.248 0.032 0.07 0.035 0.175 5e-3 0.23-0.025 0.047-0.093 0.107-0.137 0.12-0.023 7e-3 -0.031 0.013-0.023 0.018s4e-3 7e-3 -0.011 7e-3c-0.012 0-0.03 2e-3 -0.04 3e-3 -0.01 2e-3 -0.033 1e-3 -0.053-1e-3zm-1.88-0.993c-0.363-0.044-0.659-0.301-0.748-0.653-0.12-0.474 0.158-0.944 0.633-1.07 0.118-0.031 0.304-0.033 0.419-4e-3 0.082 0.021 0.201 0.072 0.271 0.117 0.044 0.028 0.07 0.033 0.07 0.013 0-0.019-0.133-0.156-0.206-0.212-0.035-0.027-0.096-0.067-0.135-0.089-0.071-0.04-0.215-0.093-0.256-0.093-0.031 0-0.028-0.015 0.022-0.08 0.137-0.183 0.354-0.326 0.582-0.386 0.119-0.031 0.307-0.038 0.436-0.017 0.374 0.062 0.686 0.32 0.82 0.676 0.024 0.062 0.022 0.081-7e-3 0.081-0.038 0-0.129 0.029-0.198 0.062-0.083 0.04-0.164 0.106-0.227 0.185-0.091 0.115-0.092 0.157-2e-3 0.105 0.185-0.108 0.417-0.146 0.589-0.097 0.327 0.093 0.546 0.381 0.546 0.719 0 0.347-0.219 0.63-0.562 0.726l-0.071 0.02-0.96 1e-3c-0.528 1e-3 -0.986-2e-3 -1.017-6e-3zm-1.252-0.79c-0.047-0.021-0.066-0.054-0.065-0.115 0-0.093 0.056-0.183 0.152-0.245 0.045-0.029 0.116-0.053 0.127-0.042 2e-3 2e-3 -4e-3 0.041-0.013 0.086s-0.02 0.13-0.023 0.188l-6e-3 0.105-0.03 0.013c-0.047 0.02-0.109 0.024-0.14 0.01zm0.308-0.738c-0.095-0.18-0.123-0.409-0.073-0.611 0.076-0.309 0.317-0.555 0.626-0.636 0.07-0.018 0.108-0.023 0.206-0.024 0.122-1e-3 0.179 7e-3 0.283 0.04 0.065 0.021 0.162 0.067 0.193 0.093l0.021 0.017-0.061 0.033c-0.033 0.018-0.092 0.057-0.131 0.086s-0.079 0.059-0.09 0.066c-0.017 0.013-0.024 0.013-0.072 0-0.067-0.017-0.195-0.018-0.263 0-0.152 0.038-0.291 0.151-0.356 0.288-0.02 0.041-0.041 0.096-0.047 0.123-0.015 0.065-0.014 0.187 4e-3 0.251l0.014 0.052-0.055 0.059c-0.03 0.032-0.08 0.093-0.111 0.136-0.031 0.042-0.057 0.077-0.058 0.077s-0.014-0.023-0.029-0.051zm-0.644-0.251c-0.055-0.013-0.128-0.061-0.147-0.097-9e-3 -0.017-0.017-0.025-0.017-0.018s-4e-3 3e-3 -8e-3 -0.01c-8e-3 -0.027-2e-3 -0.072 0.01-0.065 4e-3 3e-3 8e-3 1e-3 8e-3 -4e-3 0-0.019 0.049-0.065 0.092-0.087 0.036-0.019 0.061-0.024 0.126-0.027 0.106-5e-3 0.164 0.011 0.22 0.062 0.036 0.032 0.042 0.043 0.046 0.08 7e-3 0.06-0.023 0.102-0.098 0.139-0.046 0.023-0.07 0.029-0.126 0.031-0.038 2e-3 -0.086-1e-3 -0.106-5e-3zm0.495-0.897c-0.12-0.038-0.225-0.171-0.225-0.285 0-0.082 0.038-0.118 0.126-0.118 0.133 0 0.284 0.151 0.285 0.286 1e-3 0.105-0.074 0.151-0.186 0.116zm1.654-0.082c-8e-3 -0.02 5e-3 -0.089 0.023-0.132 0.025-0.056 0.1-0.132 0.162-0.163 0.089-0.045 0.183-0.033 0.214 0.026 0.027 0.052 0.011 0.149-0.035 0.208-0.021 0.027-0.023 0.028-0.113 0.034-0.05 3e-3 -0.126 0.013-0.169 0.022-0.067 0.014-0.079 0.015-0.083 4e-3zm-0.796-0.277c-0.039-0.024-0.079-0.098-0.092-0.17-0.012-0.07-1e-3 -0.154 0.028-0.211 0.021-0.041 0.067-0.088 0.087-0.088 0.013 0 0.013-1e-3 2e-3 -9e-3 -9e-3 -6e-3 0-9e-3 0.035-9e-3 0.026 0 0.045 3e-3 0.042 6e-3s6e-3 0.013 0.02 0.021c0.062 0.038 0.098 0.121 0.098 0.228 0 0.098-0.018 0.152-0.07 0.205-0.038 0.039-0.046 0.044-0.081 0.044-0.023 0-0.051-7e-3 -0.068-0.017z" fill="#363636"/>
</svg>
