<svg width="16" height="16" version="1.1" viewBox="0 0 16 16" xmlns="http://www.w3.org/2000/svg">
 <defs>
  <style id="current-color-scheme" type="text/css">.ColorScheme-Text { color:#363636; } .ColorScheme-Highlight { color:#5294e2; }</style>
 </defs>
 <g class="ColorScheme-Text" transform="translate(-17)" fill="currentColor">
  <path d="m25 1a7 7 0 0 0-7 7 7 7 0 0 0 7 7 7 7 0 0 0 7-7 7 7 0 0 0-7-7zm0 1a6 6 0 0 1 6 6 6 6 0 0 1-6 6 6 6 0 0 1-6-6 6 6 0 0 1 6-6z" opacity=".8" style="paint-order:stroke fill markers"/>
  <path d="m25 2a6 6 0 0 0-6 6 6 6 0 0 0 6 6 6 6 0 0 0 6-6 6 6 0 0 0-6-6zm-1 1h1a1.0001 1.0001 0 0 1 1 1v3h2a1.0001 1.0001 0 0 1 1 1v1a1.0001 1.0001 0 0 1-1 1h-4a1.0001 1.0001 0 0 1-1-1v-5a1.0001 1.0001 0 0 1 1-1z" opacity=".35" style="paint-order:stroke fill markers"/>
  <path d="m24 4v5h4v-1h-3v-4z" opacity=".8" style="paint-order:stroke fill markers"/>
 </g>
</svg>
