<svg xmlns="http://www.w3.org/2000/svg" xmlns:xlink="http://www.w3.org/1999/xlink" width="200" height="200"><defs><linearGradient id="e"><stop offset="0" stop-color="#03b6ec"/><stop offset="1" stop-color="#13c0f7"/></linearGradient><linearGradient id="d"><stop offset="0" stop-color="#3bc1f1"/><stop offset="1" stop-color="#0e95c5"/></linearGradient><linearGradient id="b"><stop offset="0" stop-color="#78d9fd"/><stop offset="1" stop-color="#7bdeff"/></linearGradient><linearGradient id="a"><stop offset="0" stop-color="#35cafc"/><stop offset=".5" stop-color="#50d4ff"/><stop offset="1" stop-color="#4dcbf6"/></linearGradient><linearGradient id="c"><stop offset="0" stop-color="#35cafc"/><stop offset=".5" stop-color="#50d4ff"/><stop offset="1" stop-color="#4dcbf6"/></linearGradient><linearGradient xlink:href="#b" id="f" gradientUnits="userSpaceOnUse" x1="-26.201" y1="1070.198" x2="-26.201" y2="1082.581"/><linearGradient xlink:href="#a" id="g" gradientUnits="userSpaceOnUse" x1="-9.912" y1="1081.404" x2="-9.912" y2="1139.778"/><linearGradient xlink:href="#d" id="h" gradientUnits="userSpaceOnUse" x1="-9.617" y1="1138.386" x2="-9.617" y2="1140.19"/><linearGradient xlink:href="#e" id="i" x1="-6.545" y1="1093.065" x2="-6.545" y2="1124.684" gradientUnits="userSpaceOnUse"/></defs><path style="marker:none" d="M-44.762 1070.206h22.13c3.288 0 4.653 7.072 7.728 7.072h51.522a3.276 3.276 0 0 1 3.283 3.282v50.508c0 1.819-1.464-2.02-3.283-2.02h-81.38a3.276 3.276 0 0 1-3.283-3.283v-52.276a3.276 3.276 0 0 1 3.283-3.283z" color="#000" fill="url(#f)" overflow="visible" transform="matrix(2.21386 0 0 2.21386 109.49 -2344.896)"/><path d="M-44.762 1081.278h81.38a3.276 3.276 0 0 1 3.283 3.283v52.275a3.276 3.276 0 0 1-3.283 3.283h-81.38a3.276 3.276 0 0 1-3.283-3.283v-52.275a3.276 3.276 0 0 1 3.283-3.283z" style="marker:none" color="#000" fill="url(#g)" overflow="visible" transform="matrix(2.21386 0 0 2.21386 109.49 -2344.896)"/><path style="text-indent:0;text-align:start;line-height:normal;text-transform:none;block-progression:tb;marker:none;-inkscape-font-specification:Sans" d="M3.156 165.804v2.213h194.682v-2.213H3.156zM3.156 170.716v1.176c0 .358.02.693.07 1.038h194.542c.05-.345.07-.68.07-1.038v-1.176H3.156z" font-weight="400" opacity=".976" color="#000" fill="#3bc1f1" overflow="visible" font-family="Sans"/><path style="text-indent:0;text-align:start;line-height:normal;text-transform:none;block-progression:tb;marker:none;-inkscape-font-specification:Sans" d="M-47.75 1138.175a3.28 3.28 0 0 0 3 1.937h81.375c1.34 0 2.488-.792 3-1.937H-47.75z" font-weight="400" opacity=".976" color="#000" fill="url(#h)" overflow="visible" font-family="Sans" transform="matrix(2.21386 0 0 2.21386 109.49 -2344.896)"/><path d="M9.264 1097.582H3.95l-1.488-2.232c-.425-.638-1.063-.956-1.807-.956H-9.867c-.744 0-1.381.318-1.807.956l-1.381 2.232h-5.314a4.264 4.264 0 0 0-4.252 4.251v18.068a4.264 4.264 0 0 0 4.252 4.251H9.264a4.264 4.264 0 0 0 4.251-4.251v-18.068a4.264 4.264 0 0 0-4.251-4.251zm-26.57 7.44a2.132 2.132 0 0 1-2.126-2.126c0-1.17.956-2.126 2.125-2.126 1.17 0 2.126.957 2.126 2.126a2.132 2.132 0 0 1-2.126 2.126zm12.753 13.816c-4.676 0-8.502-3.826-8.502-8.502 0-4.677 3.826-8.503 8.502-8.503 4.677 0 8.503 3.826 8.503 8.503 0 4.676-3.826 8.502-8.503 8.502z" fill="url(#i)" transform="matrix(2.21386 0 0 2.21386 109.49 -2344.896)"/></svg>