<svg width="200" height="200" version="1.1" xmlns="http://www.w3.org/2000/svg" xmlns:xlink="http://www.w3.org/1999/xlink">
 <defs>
  <linearGradient id="f" x1="-26.201" x2="-26.201" y1="1070.2" y2="1082.6" gradientUnits="userSpaceOnUse">
   <stop stop-color="#78fda1" offset="0"/>
   <stop stop-color="#7bffb0" offset="1"/>
  </linearGradient>
  <linearGradient id="e" x1="-9.912" x2="-9.912" y1="1081.4" y2="1139.8" gradientUnits="userSpaceOnUse">
   <stop stop-color="#35fc85" offset="0"/>
   <stop stop-color="#61ffa3" offset=".5"/>
   <stop stop-color="#4df688" offset="1"/>
  </linearGradient>
  <linearGradient id="d" x1="-9.617" x2="-9.617" y1="1138.4" y2="1140.2" gradientUnits="userSpaceOnUse">
   <stop stop-opacity=".046784" offset="0"/>
   <stop offset="1"/>
  </linearGradient>
 </defs>
 <g transform="translate(-.49008 -1.837)" color="#000000">
  <path transform="matrix(2.2139,0,0,2.2139,109.5,-2344.9)" d="m-44.762 1070.2h22.131c3.287 0 4.652 7.071 7.728 7.071h51.522a3.276 3.276 0 0 1 3.283 3.283v50.508c0 1.819-1.464-2.02-3.283-2.02h-81.38a3.276 3.276 0 0 1-3.283-3.283v-52.275a3.276 3.276 0 0 1 3.283-3.283z" fill="url(#f)"/>
  <path transform="matrix(2.2139,0,0,2.2139,109.5,-2344.9)" d="m-44.762 1081.3h81.38a3.276 3.276 0 0 1 3.283 3.283v52.275a3.276 3.276 0 0 1-3.283 3.283h-81.38a3.276 3.276 0 0 1-3.283-3.283v-52.275a3.276 3.276 0 0 1 3.283-3.283z" fill="url(#e)"/>
  <path d="m3.16 165.84v2.214h194.68v-2.214h-194.69zm0 4.87v1.176c0 0.359 0.019 0.694 0.068 1.038h194.55c0.05-0.344 0.069-0.679 0.069-1.038v-1.176h-194.69z" opacity=".08" style="text-indent:0;text-transform:none"/>
  <path transform="matrix(2.2139,0,0,2.2139,109.5,-2344.9)" d="m-47.75 1138.2a3.28 3.28 0 0 0 3 1.938h81.375c1.34 0 2.488-0.793 3-1.938z" fill="url(#d)" opacity=".25" style="text-indent:0;text-transform:none"/>
 </g>
 <path class="ColorScheme-Text" transform="translate(109.5 -2344.9) scale(2.2139)" d="M-4.073 1096.2c-7.659 0-14.893 3.38-19.849 9.275a1.85 1.85 0 0 0 1.42 3.04c.528 0 1.052-.224 1.419-.659 4.247-5.053 10.448-7.953 17.01-7.953 6.562 0 12.763 2.901 17.01 7.953.366.438.89.66 1.419.66a1.848 1.848 0 0 0 1.419-3.041c-4.954-5.895-12.19-9.275-19.85-9.275zm0 7.844c-5.47 0-10.637 2.416-14.176 6.625a1.85 1.85 0 1 0 2.835 2.382 14.794 14.794 0 0 1 11.34-5.303c4.376 0 8.51 1.934 11.342 5.303.366.438.892.66 1.419.66a1.85 1.85 0 0 0 1.415-3.041c-3.54-4.21-8.704-6.626-14.176-6.626zm0 8.15a11.09 11.09 0 0 0-8.507 3.971 1.85 1.85 0 0 0 .23 2.609 1.843 1.843 0 0 0 2.609-.225 7.391 7.391 0 0 1 5.668-2.65c2.187 0 4.253.965 5.67 2.65a1.846 1.846 0 0 0 2.608.225 1.85 1.85 0 0 0 .23-2.609 11.09 11.09 0 0 0-8.508-3.971zm-.158 7.031c-1.448.14-2.842 1.222-2.89 2.835a3.049 3.049 0 0 0 6.097 0c-.257-2.165-1.758-2.973-3.207-2.835z" opacity=".15"/>
</svg>
