<svg width="22" height="22" version="1.1" xmlns="http://www.w3.org/2000/svg" xmlns:osb="http://www.openswatchbook.org/uri/2009/osb">
 <g transform="translate(-384.57 -525.8)">
  <path d="m395.57 532.33a4.3635 4.3635 0 0 1 4.3635 4.3635c0 1.4836-0.74179 2.7864-1.8701 3.5781v1.4088a0.62336 0.62336 0 0 1-0.62336 0.62336h-3.7401a0.62336 0.62336 0 0 1-0.62336-0.62336v-1.4088c-1.1283-0.79167-1.8701-2.0945-1.8701-3.5781a4.3635 4.3635 0 0 1 4.3635-4.3635m-1.8701 11.844v-0.62335h3.7401v0.62335a0.62336 0.62336 0 0 1-0.62336 0.62336h-2.4934a0.62336 0.62336 0 0 1-0.62336-0.62336m1.8701-10.597a3.1168 3.1168 0 0 0-3.1168 3.1168c0 1.2779 0.76673 2.375 1.8701 2.855v1.5085h2.4934v-1.5085c1.1034-0.47998 1.8701-1.5771 1.8701-2.855a3.1168 3.1168 0 0 0-3.1168-3.1168z" fill="#f2f2f2"/>
 </g>
</svg>
