<svg width="16" height="16" version="1.1" xmlns="http://www.w3.org/2000/svg">
 <g class="ColorScheme-Text" fill="currentColor">
  <path d="m0.94 2c-0.52232 0-0.94271 0.42366-0.94271 0.95001v11.1c0 0.52636 0.42039 0.95 0.94271 0.95h14.115c0.52232 0 0.94271-0.42364 0.94271-0.95v-10.05c0-0.52636-0.47768-1-1-1h-8.6258c-0.57985-0.0229-0.60632 0.0775-1.0406-0.35681-0.43428-0.43428-0.61257-0.64319-1.3336-0.64319zm0.51823 1h2.5391c0.3123 0 0.52123 0 1 0.47161s0.6388 0.52839 1 0.52839h8.5234c0.47656 0 0.47656 0.26243 0.47656 0.67545v0.32455h-14v-1.5278c0-0.47225 0.28358-0.47225 0.46094-0.47225zm0 3.0423h13.078c0.31683 0 0.46094 0.2572 0.46094 0.57648v6.909c0 0.31927-0.13306 0.47224-0.44989 0.47224h-13.078c-0.31683 0-0.47199-0.15297-0.47199-0.47224v-6.909c0-0.31928 0.14411-0.57648 0.46094-0.57648z" opacity=".75"/>
  <path d="m1.56 6h12.874c0.31188 0 0.56311 0.25522 0.56311 0.57205v6.9388c0 0.31682-0.11865 0.48919-0.43053 0.48919h-13.143c-0.31188 0-0.42639-0.16539-0.42639-0.48221v-6.9457c0-0.31683 0.25123-0.57205 0.56311-0.57205z" opacity=".2"/>
  <path d="m 1,13 v 0.52832 C 1,13.88474 1.1692,14 1.48108,14 h 13.073 C 14.86596,14 15,13.86131 15,13.50489 V 13 Z" opacity=".3"/>
 </g>
 <path d="m10.626 7.93c0.736 0 0.199 1.63 0.795 2.06 0.599 0.43 1.979-0.58 2.209 0.12 0.22 0.7-1.49 0.69-1.719 1.39-0.228 0.7 1.169 1.7 0.569 2.13-0.597 0.44-1.118-1.2-1.854-1.2-0.737 0-1.258 1.64-1.854 1.2-0.596-0.43 0.796-1.43 0.569-2.13-0.228-0.7-1.943-0.69-1.715-1.39 0.227-0.7 1.609 0.31 2.205-0.12 0.595-0.43 0.059-2.06 0.795-2.06z" fill="#363636"/>
</svg>
