<svg width="16" height="16" version="1.1" xmlns="http://www.w3.org/2000/svg">
 <g fill="#363636">
  <path d="m8 0a8 8 0 0 0-8 8 8 8 0 0 0 8 8 8 8 0 0 0 8-8 8 8 0 0 0-8-8zm0 1a7 7 0 0 1 7 7 7 7 0 0 1-7 7 7 7 0 0 1-7-7 7 7 0 0 1 7-7z" fill-rule="evenodd" style="paint-order:stroke fill markers"/>
  <path d="m8 2a6 6 0 0 0-6 6 6 6 0 0 0 1.1367 3.502c0.0029711-0.005166 0.0027853-0.010467 0.0058593-0.015625l3-5c0.084567-0.14111 0.20264-0.25918 0.34375-0.34375l5-3c0.005548-0.0033302 0.011974-0.0045947 0.017578-0.0078125a6 6 0 0 0-3.5039-1.1348zm4.8633 2.5c-0.002572 0.0044433-0.003209 0.0092444-0.005859 0.013672l-3 5c-0.084567 0.14111-0.20264 0.25918-0.34375 0.34375l-5 3c-0.0057209 0.003409-0.011848 0.002576-0.017578 0.005859a6 6 0 0 0 3.5039 1.1367 6 6 0 0 0 6-6 6 6 0 0 0-1.1367-3.5z" fill-rule="evenodd" opacity=".35" style="paint-order:stroke fill markers"/>
  <path d="m12 4-5 3-3 5 5-3 3-5zm-4 3.5a0.5 0.5 0 0 1 0.5 0.5 0.5 0.5 0 0 1-0.5 0.5 0.5 0.5 0 0 1-0.5-0.5 0.5 0.5 0 0 1 0.5-0.5z"/>
 </g>
</svg>
