<svg width="16" height="16" version="1.1" xmlns="http://www.w3.org/2000/svg">
 <path d="m7.45 0c-0.25 0-0.45 0.223-0.45 0.5v0.5h-1.5c-0.277 0-0.5 0.223-0.5 0.5v1c0 0.277 0.223 0.5 0.5 0.5h5c0.277 0 0.5-0.223 0.5-0.5v-1c0-0.277-0.223-0.5-0.5-0.5h-1.5v-0.5c0-0.277-0.2-0.5-0.45-0.5zm-4.95 1c-0.831 0-1.5 0.669-1.5 1.5v12c0 0.831 0.669 1.5 1.5 1.5h11c0.831 0 1.5-0.669 1.5-1.5v-12c0-0.831-0.669-1.5-1.5-1.5h-1.5v1h2v7h-6v0.25c0-0.13807-0.11193-0.25-0.25-0.25h-3.5c-0.13807 0-0.25 0.11193-0.25 0.25v0.5c0 0.139 0.112 0.25 0.25 0.25h3.5c0.13807 0 0.25-0.11193 0.25-0.25v5.25h-6v-13h2v-1zm1.75 4c-0.13807 0-0.25 0.11193-0.25 0.25v0.5c0 0.138 0.112 0.25 0.25 0.25h7.5c0.13807 0 0.25-0.11193 0.25-0.25v-0.5c0-0.13807-0.11193-0.25-0.25-0.25zm0 2c-0.13807 0-0.25 0.11193-0.25 0.25v0.5c0 0.138 0.112 0.25 0.25 0.25h7.5c0.13807 0 0.25-0.11193 0.25-0.25v-0.5c0-0.13807-0.11193-0.25-0.25-0.25zm4.791 3h4.959l-5 5z" fill="#666"/>
</svg>
