<svg width="16" height="16" version="1.1" xmlns="http://www.w3.org/2000/svg">
 <g>
  <g transform="matrix(.52112 0 0 .52112 20.599 3.4488)" enable-background="new" fill="#fff">
   <g transform="matrix(.02206 0 0 .02206 -29.9 -.39149)" fill="#fff"></g>
  </g>
  <circle transform="rotate(266.31)" cx="-13.695" cy="12.279" r="0" enable-background="new" fill="#bebebe"/>
  <g transform="matrix(.0067059 0 0 .0067059 29.888 -23.38)" enable-background="new" fill="#bebebe"></g>
  <g transform="matrix(.52112 0 0 .52112 3.1822 3.3782)" enable-background="new" fill="#fff">
   <g transform="matrix(.02206 0 0 .02206 -29.9 -.39149)" fill="#fff"></g>
  </g>
  <circle transform="rotate(266.31)" cx="-12.504" cy="-5.097" r="0" enable-background="new" fill="#bebebe"/>
  <g transform="matrix(.0067059 0 0 .0067059 12.471 -23.451)" enable-background="new" fill="#bebebe"></g>
  <path d="m8 1c-1.1046 0-2 0.89543-2 2h-3c-0.55399 0-1 0.446-1 1v10c0 0.554 0.44601 1 1 1h10c0.554 0 1-0.446 1-1v-10c0-0.1385-0.027656-0.27091-0.078125-0.39062-0.15141-0.35916-0.50638-0.60938-0.92188-0.60938h-3c0-1.1046-0.89543-2-2-2zm0 1c0.55228 0 1 0.44772 1 1s-0.44772 1-1 1-1-0.44772-1-1c2.944e-4 -0.03328 0.00225-0.066524 0.00586-0.099609 0.00649-0.066242 0.019574-0.13167 0.039063-0.19531 0.019856-0.063649 0.046028-0.12515 0.078125-0.18359 0.048236-0.088099 0.10947-0.16843 0.18164-0.23828 0.18619-0.18112 0.43556-0.28269 0.69531-0.2832zm-3.9355 4h7.8711c0.035449 0 0.064453 0.029004 0.064453 0.064453v0.87109c0 0.035449-0.029004 0.064453-0.064453 0.064453h-7.8711c-0.035449 0-0.064453-0.029004-0.064453-0.064453v-0.87109c0-0.035449 0.029004-0.064453 0.064453-0.064453zm0 2h7.8711c0.035449 0 0.064453 0.029004 0.064453 0.064453v0.87109c0 0.035449-0.029004 0.064453-0.064453 0.064453h-7.8711c-0.035449 0-0.064453-0.029004-0.064453-0.064453v-0.87109c0-0.035449 0.029004-0.064453 0.064453-0.064453zm0 2h7.8711c0.035449 0 0.064453 0.029004 0.064453 0.064453v0.87109c0 0.035449-0.029004 0.064453-0.064453 0.064453h-7.8711c-0.035449 0-0.064453-0.029004-0.064453-0.064453v-0.87109c0-0.035449 0.029004-0.064453 0.064453-0.064453zm0 2h7.8711c0.035449 0 0.064453 0.029004 0.064453 0.064453v0.87109c0 0.035449-0.029004 0.064453-0.064453 0.064453h-7.8711c-0.035449 0-0.064453-0.029004-0.064453-0.064453v-0.87109c0-0.035449 0.029004-0.064453 0.064453-0.064453z" enable-background="new" fill="#666" fill-rule="evenodd" style="paint-order:stroke fill markers"/>
 </g>
</svg>
