<svg version="1.1" viewBox="0 0 16 16" xmlns="http://www.w3.org/2000/svg">
 <defs>
  <style id="current-color-scheme" type="text/css">.ColorScheme-Text {
        color:#363636;
      }</style>
 </defs>
 <path class="ColorScheme-Text" d="m14.016 2.2491c-0.2509 9.066e-4 -0.50192 0.09731-0.69269 0.28938l-5.3068 5.3455-5.3455-5.3068c-0.38411-0.38138-1.004-0.37958-1.3854 0.0045572-0.38172 0.38412-0.38005 1.0061 0.0045573 1.3877l6.0405 5.9972c0.19207 0.19066 0.44404 0.28573 0.69497 0.28482 0.2508-9.06e-4 0.5019-0.09731 0.69269-0.28938l5.9972-6.0428c0.38154-0.3843 0.37986-1.004-0.004557-1.3854-0.19209-0.19069-0.44407-0.28573-0.69497-0.28482zm-6.0154 9.251a1.7499 1.7499 0 0 0-1.7499 1.7499 1.7499 1.7499 0 0 0 1.7499 1.7499 1.7499 1.7499 0 0 0 1.7499-1.7499 1.7499 1.7499 0 0 0-1.7499-1.7499z" color="#363636" fill="currentColor"/>
</svg>
