<svg width="22" height="22" version="1.1" xmlns="http://www.w3.org/2000/svg">
 <defs>
  <style id="current-color-scheme" type="text/css">.ColorScheme-Text { color:#565656; } .ColorScheme-Highlight { color:#5294e2; }</style>
 </defs>
 <g style="fill:currentColor" class="ColorScheme-Text" >
  <g transform="matrix(-.026558 9.602e-5 -9.602e-5 -.026558 18.986 16.994)">
   <path d="m345.44 248.29-194.29 194.28c-12.359 12.365-32.397 12.365-44.75 0-12.354-12.354-12.354-32.391 0-44.744l171.91-171.91-171.91-171.9c-12.354-12.359-12.354-32.394 0-44.748 12.354-12.359 32.391-12.359 44.75 0l194.29 194.28c6.177 6.18 9.262 14.271 9.262 22.366 0 8.099-3.091 16.196-9.267 22.373z"/>
  </g>
  <circle transform="scale(-1)" cx="-7.0373" cy="-11.004" r="1.5" fill-rule="evenodd" stroke-width=".75"/>
 </g>
</svg>
