<svg width="200" height="200" xmlns="http://www.w3.org/2000/svg"><defs><linearGradient id="a" x1="-26.201" x2="-26.201" y1="1070.2" y2="1082.6" gradientUnits="userSpaceOnUse"><stop stop-color="#78c3fd" offset="0"/><stop stop-color="#7bc6ff" offset="1"/></linearGradient><linearGradient id="b" x1="-9.912" x2="-9.912" y1="1081.4" y2="1139.8" gradientUnits="userSpaceOnUse"><stop stop-color="#35a5fc" offset="0"/><stop stop-color="#45c0ff" offset=".5"/><stop stop-color="#4dacf6" offset="1"/></linearGradient><linearGradient id="c" x1="-9.617" x2="-9.617" y1="1138.4" y2="1140.2" gradientUnits="userSpaceOnUse"><stop stop-opacity=".047" offset="0"/><stop offset="1"/></linearGradient></defs><g color="#000"><path transform="translate(109.013 -2346.697) scale(2.2139)" d="M-44.762 1070.2h22.131c3.287 0 4.652 7.071 7.728 7.071h51.522a3.276 3.276 0 0 1 3.283 3.283v50.508c0 1.819-1.464-2.02-3.283-2.02h-81.38a3.276 3.276 0 0 1-3.283-3.283v-52.275a3.276 3.276 0 0 1 3.283-3.283z" fill="url(#a)"/><path transform="translate(109.013 -2346.697) scale(2.2139)" d="M-44.762 1081.3h81.38a3.276 3.276 0 0 1 3.283 3.283v52.275a3.276 3.276 0 0 1-3.283 3.283h-81.38a3.276 3.276 0 0 1-3.283-3.283v-52.275a3.276 3.276 0 0 1 3.283-3.283z" fill="url(#b)"/><path d="M3.16 165.84v2.214h194.68v-2.214H3.15zm0 4.87v1.176c0 .359.019.694.068 1.038h194.55c.05-.344.069-.679.069-1.038v-1.176H3.157z" opacity=".08" style="text-indent:0;text-transform:none" transform="translate(-.487 -1.797)"/><path transform="translate(109.013 -2346.697) scale(2.2139)" d="M-47.75 1138.2a3.28 3.28 0 0 0 3 1.938h81.375c1.34 0 2.488-.793 3-1.938z" fill="url(#c)" opacity=".25" style="text-indent:0;text-transform:none"/></g><path d="M69.82 152.628 100 125.002c10.323 6.245 23.937 4.96 32.847-3.953 10.478-10.481 10.478-27.495 0-37.977v-.01c-10.479-10.482-27.422-10.417-37.9.077-8.91 8.913-10.246 22.48-4.017 32.792l-30.181 27.626zm57.131-63.67c7.208 7.21 7.207 18.974 0 26.182-7.14 7.143-18.692 7.14-25.914.131l-.195-.194c-.064-.077-.131-.13-.194-.198-7.016-7.223-6.949-18.713.194-25.857 7.207-7.21 18.902-7.276 26.11-.078z" opacity=".15"/></svg>