<svg xmlns="http://www.w3.org/2000/svg" xmlns:xlink="http://www.w3.org/1999/xlink" width="200" height="200"><defs><linearGradient id="e"><stop offset="0" stop-color="#03b6ec"/><stop offset="1" stop-color="#13c0f7"/></linearGradient><linearGradient id="d"><stop offset="0" stop-color="#3bc1f1"/><stop offset="1" stop-color="#0e95c5"/></linearGradient><linearGradient id="b"><stop offset="0" stop-color="#78d9fd"/><stop offset="1" stop-color="#7bdeff"/></linearGradient><linearGradient id="a"><stop offset="0" stop-color="#35cafc"/><stop offset=".5" stop-color="#50d4ff"/><stop offset="1" stop-color="#4dcbf6"/></linearGradient><linearGradient id="c"><stop offset="0" stop-color="#35cafc"/><stop offset=".5" stop-color="#50d4ff"/><stop offset="1" stop-color="#4dcbf6"/></linearGradient><linearGradient xlink:href="#b" id="f" gradientUnits="userSpaceOnUse" x1="-26.201" y1="1070.198" x2="-26.201" y2="1082.581"/><linearGradient xlink:href="#a" id="g" gradientUnits="userSpaceOnUse" x1="-9.912" y1="1081.404" x2="-9.912" y2="1139.778"/><linearGradient xlink:href="#d" id="h" gradientUnits="userSpaceOnUse" x1="-9.617" y1="1138.386" x2="-9.617" y2="1140.19"/><linearGradient xlink:href="#e" id="i" x1="102.357" y1="921.519" x2="102.357" y2="998.947" gradientUnits="userSpaceOnUse" gradientTransform="translate(-.195 5.902)"/></defs><g color="#000"><path style="marker:none" d="M-44.762 1070.206h22.13c3.288 0 4.653 7.072 7.728 7.072h51.522a3.276 3.276 0 0 1 3.283 3.282v50.508c0 1.819-1.464-2.02-3.283-2.02h-81.38a3.276 3.276 0 0 1-3.283-3.283v-52.276a3.276 3.276 0 0 1 3.283-3.283z" fill="url(#f)" overflow="visible" transform="matrix(2.21386 0 0 2.21386 109.49 -2344.896)"/><path d="M-44.762 1081.278h81.38a3.276 3.276 0 0 1 3.283 3.283v52.275a3.276 3.276 0 0 1-3.283 3.283h-81.38a3.276 3.276 0 0 1-3.283-3.283v-52.275a3.276 3.276 0 0 1 3.283-3.283z" style="marker:none" fill="url(#g)" overflow="visible" transform="matrix(2.21386 0 0 2.21386 109.49 -2344.896)"/><path style="text-indent:0;text-align:start;line-height:normal;text-transform:none;block-progression:tb;marker:none;-inkscape-font-specification:Sans" d="M3.156 165.804v2.213h194.682v-2.213H3.156zM3.156 170.716v1.176c0 .358.02.693.07 1.038h194.542c.05-.345.07-.68.07-1.038v-1.176H3.156z" font-weight="400" opacity=".976" fill="#3bc1f1" overflow="visible" font-family="Sans"/><path style="text-indent:0;text-align:start;line-height:normal;text-transform:none;block-progression:tb;marker:none;-inkscape-font-specification:Sans" d="M-47.75 1138.175a3.28 3.28 0 0 0 3 1.937h81.375c1.34 0 2.488-.792 3-1.937H-47.75z" font-weight="400" opacity=".976" fill="url(#h)" overflow="visible" font-family="Sans" transform="matrix(2.21386 0 0 2.21386 109.49 -2344.896)"/></g><path d="M69.82 1004.988L100 977.362c10.323 6.245 23.937 4.96 32.847-3.953 10.478-10.481 10.478-27.495 0-37.977v-.01c-10.479-10.482-27.422-10.417-37.9.077-8.91 8.913-10.246 22.48-4.017 32.792l-30.181 27.626zm57.131-63.67c7.208 7.21 7.207 18.974 0 26.182-7.14 7.143-18.692 7.14-25.914.131l-.195-.194c-.064-.077-.131-.13-.194-.198-7.016-7.223-6.949-18.713.194-25.857 7.207-7.21 18.902-7.276 26.11-.078z" style="line-height:normal" color="#000" fill="url(#i)" transform="translate(0 -852.362)"/></svg>