<svg xmlns="http://www.w3.org/2000/svg" xmlns:xlink="http://www.w3.org/1999/xlink" width="200" height="200"><defs><linearGradient id="i"><stop offset="0" stop-color="#03b6ec"/><stop offset="1" stop-color="#13c0f7"/></linearGradient><linearGradient id="d"><stop offset="0" stop-color="#3bc1f1"/><stop offset="1" stop-color="#0e95c5"/></linearGradient><linearGradient id="b"><stop offset="0" stop-color="#78d9fd"/><stop offset="1" stop-color="#7bdeff"/></linearGradient><linearGradient id="a"><stop offset="0" stop-color="#35cafc"/><stop offset=".5" stop-color="#50d4ff"/><stop offset="1" stop-color="#4dcbf6"/></linearGradient><linearGradient id="c"><stop offset="0" stop-color="#35cafc"/><stop offset=".5" stop-color="#50d4ff"/><stop offset="1" stop-color="#4dcbf6"/></linearGradient><linearGradient xlink:href="#b" id="j" gradientUnits="userSpaceOnUse" x1="-26.201" y1="1070.198" x2="-26.201" y2="1082.581"/><linearGradient xlink:href="#a" id="k" gradientUnits="userSpaceOnUse" x1="-9.912" y1="1081.404" x2="-9.912" y2="1139.778"/><linearGradient xlink:href="#d" id="l" gradientUnits="userSpaceOnUse" x1="-9.617" y1="1138.386" x2="-9.617" y2="1140.19"/><linearGradient xlink:href="#d" id="m" gradientUnits="userSpaceOnUse" x1="17" y1="6.1" x2="17" y2="33.1"/><linearGradient xlink:href="#d" id="g" gradientUnits="userSpaceOnUse" x1="17" y1="6.1" x2="17" y2="33.1"/><linearGradient xlink:href="#d" id="h" gradientUnits="userSpaceOnUse" x1="17" y1="6.1" x2="17" y2="33.1"/><linearGradient xlink:href="#d" id="f" gradientUnits="userSpaceOnUse" x1="17" y1="6.1" x2="17" y2="33.1"/><linearGradient xlink:href="#d" id="e" gradientUnits="userSpaceOnUse" x1="17" y1="6.1" x2="17" y2="33.1"/><linearGradient xlink:href="#i" id="n" gradientUnits="userSpaceOnUse" x1="16.586" y1="8.086" x2="16.586" y2="28.363" gradientTransform="matrix(1.66446 0 0 1.66446 -12.856 -11.858)"/></defs><path style="marker:none" d="M-44.762 1070.206h22.13c3.288 0 4.653 7.072 7.728 7.072h51.522a3.276 3.276 0 0 1 3.283 3.282v50.508c0 1.819-1.464-2.02-3.283-2.02h-81.38a3.276 3.276 0 0 1-3.283-3.283v-52.276a3.276 3.276 0 0 1 3.283-3.283z" color="#000" fill="url(#j)" overflow="visible" transform="matrix(2.21386 0 0 2.21386 109.49 -2344.896)"/><path d="M-44.762 1081.278h81.38a3.276 3.276 0 0 1 3.283 3.283v52.275a3.276 3.276 0 0 1-3.283 3.283h-81.38a3.276 3.276 0 0 1-3.283-3.283v-52.275a3.276 3.276 0 0 1 3.283-3.283z" style="marker:none" color="#000" fill="url(#k)" overflow="visible" transform="matrix(2.21386 0 0 2.21386 109.49 -2344.896)"/><path style="text-indent:0;text-align:start;line-height:normal;text-transform:none;block-progression:tb;marker:none;-inkscape-font-specification:Sans" d="M3.156 165.804v2.213h194.682v-2.213H3.156zM3.156 170.716v1.176c0 .358.02.693.07 1.038h194.542c.05-.345.07-.68.07-1.038v-1.176H3.156z" font-weight="400" opacity=".976" color="#000" fill="#3bc1f1" overflow="visible" font-family="Sans"/><path style="text-indent:0;text-align:start;line-height:normal;text-transform:none;block-progression:tb;marker:none;-inkscape-font-specification:Sans" d="M-47.75 1138.175a3.28 3.28 0 0 0 3 1.937h81.375c1.34 0 2.488-.792 3-1.937H-47.75z" font-weight="400" opacity=".976" color="#000" fill="url(#l)" overflow="visible" font-family="Sans" transform="matrix(2.21386 0 0 2.21386 109.49 -2344.896)"/><path d="M32.75 19.6L4.62 35.08c-1.165.665-2.496-.167-2.496-1.499V2.622c0-1.331 1.331-1.997 2.497-1.498l28.129 15.48a1.72 1.72 0 0 1 0 2.996z" fill="url(#n)" transform="translate(62.222 71.445) scale(2.22222)"/></svg>