<svg width="200" height="200" xmlns="http://www.w3.org/2000/svg"><defs><linearGradient id="a" x1="-26.201" x2="-26.201" y1="1070.2" y2="1082.6" gradientUnits="userSpaceOnUse"><stop stop-color="#78d9fd" offset="0"/><stop stop-color="#7bdeff" offset="1"/></linearGradient><linearGradient id="b" x1="-9.912" x2="-9.912" y1="1081.4" y2="1139.8" gradientUnits="userSpaceOnUse"><stop stop-color="#35cafc" offset="0"/><stop stop-color="#50d4ff" offset=".5"/><stop stop-color="#4dcbf6" offset="1"/></linearGradient><linearGradient id="c" x1="-9.617" x2="-9.617" y1="1138.4" y2="1140.2" gradientUnits="userSpaceOnUse"><stop stop-color="#3bc1f1" offset="0"/><stop stop-color="#0e95c5" offset="1"/></linearGradient><linearGradient id="d" x1="147.8" x2="147.8" y1="70.061" y2="142.36" gradientTransform="translate(-47.797 2.644)" gradientUnits="userSpaceOnUse"><stop stop-color="#03b6ec" offset="0"/><stop stop-color="#13c0f7" offset="1"/></linearGradient></defs><path transform="translate(109.49 -2344.9) scale(2.2139)" d="M-44.762 1070.2h22.13c3.288 0 4.653 7.072 7.728 7.072h51.522a3.276 3.276 0 0 1 3.283 3.282v50.508c0 1.819-1.464-2.02-3.283-2.02h-81.38a3.276 3.276 0 0 1-3.283-3.283v-52.276a3.276 3.276 0 0 1 3.283-3.283z" fill="url(#a)" overflow="visible"/><path transform="translate(109.49 -2344.9) scale(2.2139)" d="M-44.762 1081.3h81.38a3.276 3.276 0 0 1 3.283 3.283v52.275a3.276 3.276 0 0 1-3.283 3.283h-81.38a3.276 3.276 0 0 1-3.283-3.283v-52.275a3.276 3.276 0 0 1 3.283-3.283z" fill="url(#b)" overflow="visible"/><path d="M3.156 165.804v2.213h194.682v-2.213H3.156zm0 4.912v1.176c0 .358.02.693.07 1.038h194.542c.05-.345.07-.68.07-1.038v-1.176H3.156z" fill="#3bc1f1" font-family="Sans" font-weight="400" opacity=".976" overflow="visible" style="block-progression:tb;text-indent:0;text-transform:none"/><path transform="translate(109.49 -2344.9) scale(2.2139)" d="M-47.75 1138.2a3.28 3.28 0 0 0 3 1.937h81.375c1.34 0 2.488-.792 3-1.937H-47.75z" fill="url(#c)" font-family="Sans" font-weight="400" opacity=".976" overflow="visible" style="block-progression:tb;text-indent:0;text-transform:none"/><path class="ColorScheme-Text" d="M100 72.705 89.93 98.83 62 100.302l21.708 17.67-7.173 27.029 23.466-15.2 23.464 15.2-7.172-27.029 21.708-17.67-27.93-1.472z" fill="url(#d)"/></svg>