<svg width="200" height="200" xmlns="http://www.w3.org/2000/svg"><defs><linearGradient id="a" x1="-26.201" x2="-26.201" y1="1070.2" y2="1082.6" gradientUnits="userSpaceOnUse"><stop stop-color="#acacac" offset="0"/><stop stop-color="#b0b0b0" offset="1"/></linearGradient><linearGradient id="b" x1="-9.912" x2="-9.912" y1="1081.4" y2="1139.8" gradientUnits="userSpaceOnUse"><stop stop-color="#929292" offset="0"/><stop stop-color="#a0a0a0" offset=".5"/><stop stop-color="#969696" offset="1"/></linearGradient><linearGradient id="c" x1="-9.617" x2="-9.617" y1="1138.4" y2="1140.2" gradientUnits="userSpaceOnUse"><stop stop-opacity=".047" offset="0"/><stop offset="1"/></linearGradient></defs><g color="#000"><path transform="translate(109.01 -2346.737) scale(2.2139)" d="M-44.762 1070.2h22.131c3.287 0 4.652 7.071 7.728 7.071h51.522a3.276 3.276 0 0 1 3.283 3.283v50.508c0 1.819-1.464-2.02-3.283-2.02h-81.38a3.276 3.276 0 0 1-3.283-3.283v-52.275a3.276 3.276 0 0 1 3.283-3.283z" fill="url(#a)"/><path transform="translate(109.01 -2346.737) scale(2.2139)" d="M-44.762 1081.3h81.38a3.276 3.276 0 0 1 3.283 3.283v52.275a3.276 3.276 0 0 1-3.283 3.283h-81.38a3.276 3.276 0 0 1-3.283-3.283v-52.275a3.276 3.276 0 0 1 3.283-3.283z" fill="url(#b)"/><path d="M3.16 165.84v2.214h194.68v-2.214H3.15zm0 4.87v1.176c0 .359.019.694.068 1.038h194.55c.05-.344.069-.679.069-1.038v-1.176H3.157z" opacity=".08" style="text-indent:0;text-transform:none" transform="translate(-.49 -1.837)"/><path transform="translate(109.01 -2346.737) scale(2.2139)" d="M-47.75 1138.2a3.28 3.28 0 0 0 3 1.938h81.375c1.34 0 2.488-.793 3-1.938z" fill="url(#c)" opacity=".25" style="text-indent:0;text-transform:none"/></g><path d="M130 85.037h-11.765l-3.294-4.942c-.941-1.412-2.354-2.116-4-2.116H87.644c-1.647 0-3.057.704-4 2.116l-3.057 4.942H68.823a9.44 9.44 0 0 0-9.414 9.411v40a9.44 9.44 0 0 0 9.414 9.412H130a9.44 9.44 0 0 0 9.41-9.411v-40a9.44 9.44 0 0 0-9.41-9.412zm-58.824 16.471a4.72 4.72 0 0 1-4.707-4.707 4.718 4.718 0 0 1 4.705-4.706 4.72 4.72 0 0 1 4.707 4.706 4.72 4.72 0 0 1-4.707 4.707zm28.234 30.587c-10.352 0-18.822-8.47-18.822-18.822 0-10.355 8.47-18.825 18.822-18.825 10.355 0 18.825 8.47 18.825 18.825 0 10.352-8.47 18.822-18.825 18.822z" opacity=".15"/></svg>