<svg width="200mm" height="200mm" viewBox="0 0 200 200" xmlns="http://www.w3.org/2000/svg" xmlns:xlink="http://www.w3.org/1999/xlink"><defs><filter id="h" x="-.084" y="-.187" width="1.169" height="1.375" color-interpolation-filters="sRGB"><feGaussianBlur stdDeviation="1.079"/></filter><filter id="j" x="-.367" y="-.591" width="1.733" height="2.181" color-interpolation-filters="sRGB"><feGaussianBlur stdDeviation="1.695"/></filter><filter id="S" x="-.086" y="-.07" width="1.171" height="1.139" color-interpolation-filters="sRGB"><feGaussianBlur stdDeviation=".938"/></filter><filter id="T" x="-.08" y="-.106" width="1.16" height="1.212" color-interpolation-filters="sRGB"><feGaussianBlur stdDeviation=".204"/></filter><filter id="U" x="-.08" y="-.106" width="1.16" height="1.212" color-interpolation-filters="sRGB"><feGaussianBlur stdDeviation=".204"/></filter><filter id="V" x="-.376" y="-.286" width="1.753" height="1.573" color-interpolation-filters="sRGB"><feGaussianBlur stdDeviation=".466"/></filter><filter id="W" x="-.376" y="-.286" width="1.753" height="1.573" color-interpolation-filters="sRGB"><feGaussianBlur stdDeviation=".466"/></filter><filter id="X" x="-.08" y="-.106" width="1.16" height="1.212" color-interpolation-filters="sRGB"><feGaussianBlur stdDeviation=".204"/></filter><filter id="aa" x="-.054" y="-.07" width="1.108" height="1.141" color-interpolation-filters="sRGB"><feGaussianBlur stdDeviation=".054"/></filter><filter id="ab" x="-.376" y="-.286" width="1.753" height="1.573" color-interpolation-filters="sRGB"><feGaussianBlur stdDeviation=".466"/></filter><filter id="ac" x="-.08" y="-.106" width="1.16" height="1.212" color-interpolation-filters="sRGB"><feGaussianBlur stdDeviation=".204"/></filter><filter id="ad" x="-.376" y="-.286" width="1.753" height="1.573" color-interpolation-filters="sRGB"><feGaussianBlur stdDeviation=".466"/></filter><filter id="ae" x="-.08" y="-.106" width="1.16" height="1.212" color-interpolation-filters="sRGB"><feGaussianBlur stdDeviation=".204"/></filter><filter id="af" x="-.243" y="-.784" width="1.486" height="2.568" color-interpolation-filters="sRGB"><feGaussianBlur stdDeviation=".895"/></filter><filter id="ag" x="-.243" y="-.784" width="1.486" height="2.568" color-interpolation-filters="sRGB"><feGaussianBlur stdDeviation=".895"/></filter><filter id="ah" x="-.243" y="-.784" width="1.486" height="2.568" color-interpolation-filters="sRGB"><feGaussianBlur stdDeviation=".895"/></filter><filter id="ai" x="-.243" y="-.784" width="1.486" height="2.568" color-interpolation-filters="sRGB"><feGaussianBlur stdDeviation=".895"/></filter><filter id="aj" x="-.16" y="-.244" width="1.32" height="1.487" color-interpolation-filters="sRGB"><feGaussianBlur stdDeviation=".573"/></filter><filter id="ak" x="-.243" y="-.784" width="1.486" height="2.568" color-interpolation-filters="sRGB"><feGaussianBlur stdDeviation=".895"/></filter><filter id="al" x="-.243" y="-.784" width="1.486" height="2.568" color-interpolation-filters="sRGB"><feGaussianBlur stdDeviation=".895"/></filter><filter id="z" x="-.173" y="-.121" width="1.346" height="1.243" color-interpolation-filters="sRGB"><feGaussianBlur stdDeviation=".184"/></filter><filter id="B" x="-.054" y="-.033" width="1.108" height="1.066" color-interpolation-filters="sRGB"><feGaussianBlur stdDeviation=".097"/></filter><filter id="D" x="-.215" y="-.175" width="1.43" height="1.351" color-interpolation-filters="sRGB"><feGaussianBlur stdDeviation=".138"/></filter><filter id="F" x="-.043" y="-.082" width="1.086" height="1.165" color-interpolation-filters="sRGB"><feGaussianBlur stdDeviation=".17"/></filter><filter id="H" x="-.076" y="-.076" width="1.153" height="1.152" color-interpolation-filters="sRGB"><feGaussianBlur stdDeviation=".229"/></filter><filter id="J" x="-.198" y="-.124" width="1.395" height="1.248" color-interpolation-filters="sRGB"><feGaussianBlur stdDeviation=".243"/></filter><filter id="L" x="-.12" y="-.147" width="1.239" height="1.294" color-interpolation-filters="sRGB"><feGaussianBlur stdDeviation=".128"/></filter><filter id="R" x="-.24" y="-.032" width="1.481" height="1.064" color-interpolation-filters="sRGB"><feGaussianBlur stdDeviation=".506"/></filter><filter id="l" x="-.084" y="-.187" width="1.169" height="1.375" color-interpolation-filters="sRGB"><feGaussianBlur stdDeviation="1.079"/></filter><filter id="n" x="-.367" y="-.591" width="1.733" height="2.181" color-interpolation-filters="sRGB"><feGaussianBlur stdDeviation="1.695"/></filter><clipPath id="g"><path d="m45.102 268 3.776 30.736c0 2.843 5.376 5.147 12.01 5.147 6.633 0 12.01-2.304 12.01-5.147L76.64 268c0 2.177-7.06 3.942-15.769 3.942-8.708 0-15.768-1.765-15.769-3.942zm31.538 0z" color="#000" fill="#fff" opacity=".691"/></clipPath><clipPath id="i"><path d="m45.102 268 3.776 30.736c0 2.843 5.376 5.147 12.01 5.147 6.633 0 12.01-2.304 12.01-5.147L76.64 268c0 2.177-7.06 3.942-15.769 3.942-8.708 0-15.768-1.765-15.769-3.942zm31.538 0z" color="#000" fill="#fff" opacity=".691"/></clipPath><clipPath id="r"><path d="M-16.962 206.64c-1.17-.697-2.658-1.984-2.658-3.933 0-1.17.756-1.713.756-1.713-.059.614-.708 1.795.13 2.48.201.308.437.331 1.11.308.674-.024.532.177.532.177s.165-.744.33-.933c.166-.19.863-1.701.863-1.701s3.32-1.69 3.555-1.796c.237-.106 1.193-.248 1.193-.248s3.39 1.193 3.556 1.359c.165.165.378 1.263.378 1.263l-.426 1.642-3.082 1.158 1.57 3.378-3.354.225s-3.662-.296-4.453-1.666z" fill="#b0afad" fill-rule="evenodd"/></clipPath><clipPath id="s"><path d="M-16.962 206.64c-1.17-.697-2.658-1.984-2.658-3.933 0-1.17.756-1.713.756-1.713-.059.614-.708 1.795.13 2.48.201.308.437.331 1.11.308.674-.024.532.177.532.177s.165-.744.33-.933c.166-.19.863-1.701.863-1.701s3.32-1.69 3.555-1.796c.237-.106 1.193-.248 1.193-.248s3.39 1.193 3.556 1.359c.165.165.378 1.263.378 1.263l-.426 1.642-3.082 1.158 1.57 3.378-3.354.225s-3.662-.296-4.453-1.666z" fill="#b0afad" fill-rule="evenodd"/></clipPath><clipPath id="t"><path d="M-16.962 206.64c-1.17-.697-2.658-1.984-2.658-3.933 0-1.17.756-1.713.756-1.713-.059.614-.708 1.795.13 2.48.201.308.437.331 1.11.308.674-.024.532.177.532.177s.165-.744.33-.933c.166-.19.863-1.701.863-1.701s3.32-1.69 3.555-1.796c.237-.106 1.193-.248 1.193-.248s3.39 1.193 3.556 1.359c.165.165.378 1.263.378 1.263l-.426 1.642-3.082 1.158 1.57 3.378-3.354.225s-3.662-.296-4.453-1.666z" fill="#b0afad" fill-rule="evenodd"/></clipPath><clipPath id="y"><path d="M-14.611 203.49c4.3 1.606 4.37 4.311 5.303 4.311.934 0 .84.496 1.323-.165.485-.662 1.607-1.83 1.725-2.894.118-1.063 1.027-.579 1.016-.142-.012.437-.307 3.355-.201 3.58s.26.342.354-.438c.095-.78.118-1.984.32-2.138.2-.153 1.428-.897 1.665-1.748 0 0 .035-.425-.685-.673-.72-.248 1.712-2.292 1.712-2.292s3.485 1.607 4.37 2.528c0 0-.336 1.226.081 1.226s.602 1.086-.317.869-1.62-.618-2.188.017-.819 1.236-1.12 1.353-.701.317-.685-.535-.116.702-.367.668c-.25-.033-.15.401-1.687.451 0 0 .902.351.969.886.067.534.117.55.117.55s1.92.168 2.004-.383c.084-.552.551-1.303.752-1.554.2-.25 1.102-1.286 1.954-1.17 0 0-1.553.986-2.171 2.356-.618 1.37 4.393 1.003 4.393 1.003s2.673-.702 2.973-1.654.368-4.627-.217-5.229c-.9-.756-2.08-1.464-3.522-.543-1.44.921-.26 1.37-2.22-.354-1.961-1.725-3.757-2.504-3.757-2.504s-2.291 3.094-2.338 2.764c-.047-.331-.567-2.056-.827-.78 0 0-.756-.283-.685.378.07.661-1.016-.709-1.016-.709s.095 1.89-.378 2.126c0 0 1.985-.52 1.252.544-.732 1.063-1.56 1.134-2.835 1.205-1.275.07-2.102-.662-2.74-.85s-1.158-.757-2.327-.06z" fill="#dedede" fill-rule="evenodd"/></clipPath><clipPath id="A"><path d="M-14.611 203.49c4.3 1.606 4.37 4.311 5.303 4.311.934 0 .84.496 1.323-.165.485-.662 1.607-1.83 1.725-2.894.118-1.063 1.027-.579 1.016-.142-.012.437-.307 3.355-.201 3.58s.26.342.354-.438c.095-.78.118-1.984.32-2.138.2-.153 1.428-.897 1.665-1.748 0 0 .035-.425-.685-.673-.72-.248 1.712-2.292 1.712-2.292s3.485 1.607 4.37 2.528c0 0-.336 1.226.081 1.226s.602 1.086-.317.869-1.62-.618-2.188.017-.819 1.236-1.12 1.353-.701.317-.685-.535-.116.702-.367.668c-.25-.033-.15.401-1.687.451 0 0 .902.351.969.886.067.534.117.55.117.55s1.92.168 2.004-.383c.084-.552.551-1.303.752-1.554.2-.25 1.102-1.286 1.954-1.17 0 0-1.553.986-2.171 2.356-.618 1.37 4.393 1.003 4.393 1.003s2.673-.702 2.973-1.654.368-4.627-.217-5.229c-.9-.756-2.08-1.464-3.522-.543-1.44.921-.26 1.37-2.22-.354-1.961-1.725-3.757-2.504-3.757-2.504s-2.291 3.094-2.338 2.764c-.047-.331-.567-2.056-.827-.78 0 0-.756-.283-.685.378.07.661-1.016-.709-1.016-.709s.095 1.89-.378 2.126c0 0 1.985-.52 1.252.544-.732 1.063-1.56 1.134-2.835 1.205-1.275.07-2.102-.662-2.74-.85s-1.158-.757-2.327-.06z" fill="#dedede" fill-rule="evenodd"/></clipPath><clipPath id="C"><path d="M-14.611 203.49c4.3 1.606 4.37 4.311 5.303 4.311.934 0 .84.496 1.323-.165.485-.662 1.607-1.83 1.725-2.894.118-1.063 1.027-.579 1.016-.142-.012.437-.307 3.355-.201 3.58s.26.342.354-.438c.095-.78.118-1.984.32-2.138.2-.153 1.428-.897 1.665-1.748 0 0 .035-.425-.685-.673-.72-.248 1.712-2.292 1.712-2.292s3.485 1.607 4.37 2.528c0 0-.336 1.226.081 1.226s.602 1.086-.317.869-1.62-.618-2.188.017-.819 1.236-1.12 1.353-.701.317-.685-.535-.116.702-.367.668c-.25-.033-.15.401-1.687.451 0 0 .902.351.969.886.067.534.117.55.117.55s1.92.168 2.004-.383c.084-.552.551-1.303.752-1.554.2-.25 1.102-1.286 1.954-1.17 0 0-1.553.986-2.171 2.356-.618 1.37 4.393 1.003 4.393 1.003s2.673-.702 2.973-1.654.368-4.627-.217-5.229c-.9-.756-2.08-1.464-3.522-.543-1.44.921-.26 1.37-2.22-.354-1.961-1.725-3.757-2.504-3.757-2.504s-2.291 3.094-2.338 2.764c-.047-.331-.567-2.056-.827-.78 0 0-.756-.283-.685.378.07.661-1.016-.709-1.016-.709s.095 1.89-.378 2.126c0 0 1.985-.52 1.252.544-.732 1.063-1.56 1.134-2.835 1.205-1.275.07-2.102-.662-2.74-.85s-1.158-.757-2.327-.06z" fill="#dedede" fill-rule="evenodd"/></clipPath><clipPath id="E"><path d="M-14.611 203.49c4.3 1.606 4.37 4.311 5.303 4.311.934 0 .84.496 1.323-.165.485-.662 1.607-1.83 1.725-2.894.118-1.063 1.027-.579 1.016-.142-.012.437-.307 3.355-.201 3.58s.26.342.354-.438c.095-.78.118-1.984.32-2.138.2-.153 1.428-.897 1.665-1.748 0 0 .035-.425-.685-.673-.72-.248 1.712-2.292 1.712-2.292s3.485 1.607 4.37 2.528c0 0-.336 1.226.081 1.226s.602 1.086-.317.869-1.62-.618-2.188.017-.819 1.236-1.12 1.353-.701.317-.685-.535-.116.702-.367.668c-.25-.033-.15.401-1.687.451 0 0 .902.351.969.886.067.534.117.55.117.55s1.92.168 2.004-.383c.084-.552.551-1.303.752-1.554.2-.25 1.102-1.286 1.954-1.17 0 0-1.553.986-2.171 2.356-.618 1.37 4.393 1.003 4.393 1.003s2.673-.702 2.973-1.654.368-4.627-.217-5.229c-.9-.756-2.08-1.464-3.522-.543-1.44.921-.26 1.37-2.22-.354-1.961-1.725-3.757-2.504-3.757-2.504s-2.291 3.094-2.338 2.764c-.047-.331-.567-2.056-.827-.78 0 0-.756-.283-.685.378.07.661-1.016-.709-1.016-.709s.095 1.89-.378 2.126c0 0 1.985-.52 1.252.544-.732 1.063-1.56 1.134-2.835 1.205-1.275.07-2.102-.662-2.74-.85s-1.158-.757-2.327-.06z" fill="#dedede" fill-rule="evenodd"/></clipPath><clipPath id="G"><path d="M-14.611 203.49c4.3 1.606 4.37 4.311 5.303 4.311.934 0 .84.496 1.323-.165.485-.662 1.607-1.83 1.725-2.894.118-1.063 1.027-.579 1.016-.142-.012.437-.307 3.355-.201 3.58s.26.342.354-.438c.095-.78.118-1.984.32-2.138.2-.153 1.428-.897 1.665-1.748 0 0 .035-.425-.685-.673-.72-.248 1.712-2.292 1.712-2.292s3.485 1.607 4.37 2.528c0 0-.336 1.226.081 1.226s.602 1.086-.317.869-1.62-.618-2.188.017-.819 1.236-1.12 1.353-.701.317-.685-.535-.116.702-.367.668c-.25-.033-.15.401-1.687.451 0 0 .902.351.969.886.067.534.117.55.117.55s1.92.168 2.004-.383c.084-.552.551-1.303.752-1.554.2-.25 1.102-1.286 1.954-1.17 0 0-1.553.986-2.171 2.356-.618 1.37 4.393 1.003 4.393 1.003s2.673-.702 2.973-1.654.368-4.627-.217-5.229c-.9-.756-2.08-1.464-3.522-.543-1.44.921-.26 1.37-2.22-.354-1.961-1.725-3.757-2.504-3.757-2.504s-2.291 3.094-2.338 2.764c-.047-.331-.567-2.056-.827-.78 0 0-.756-.283-.685.378.07.661-1.016-.709-1.016-.709s.095 1.89-.378 2.126c0 0 1.985-.52 1.252.544-.732 1.063-1.56 1.134-2.835 1.205-1.275.07-2.102-.662-2.74-.85s-1.158-.757-2.327-.06z" fill="#dedede" fill-rule="evenodd"/></clipPath><clipPath id="I"><path d="M-55.223 402.47c16.25 6.071 16.518 16.295 20.045 16.295 3.527 0 3.17 1.875 5-.625s6.071-6.92 6.518-10.938c.446-4.018 3.884-2.187 3.84-.536-.045 1.652-1.161 12.68-.76 13.527s.982 1.295 1.34-1.651c.357-2.947.446-7.5 1.205-8.08.759-.581 5.402-3.394 6.295-6.608 0 0 .133-1.607-2.59-2.545-2.723-.937 6.473-8.66 6.473-8.66s13.17 6.071 16.518 9.553c0 0-1.274 4.635.305 4.635s2.273 4.103-1.2 3.283c-3.472-.821-6.124-2.336-8.27.063s-3.094 4.672-4.23 5.114-2.652 1.2-2.589-2.02c.063-3.22-.442 2.651-1.389 2.525-.947-.126-.568 1.515-6.376 1.704 0 0 3.409 1.326 3.661 3.347.253 2.02.442 2.083.442 2.083s7.26.631 7.576-1.452c.316-2.083 2.084-4.925 2.842-5.872.757-.947 4.166-4.861 7.386-4.419 0 0-5.871 3.725-8.207 8.902-2.336 5.177 16.604 3.788 16.604 3.788s10.102-2.651 11.238-6.25c1.136-3.599 1.389-17.488-.821-19.761-3.4-2.857-7.865-5.536-13.311-2.053-5.446 3.482-.982 5.178-8.393-1.34-7.41-6.518-14.196-9.464-14.196-9.464s-8.66 11.696-8.84 10.446c-.178-1.25-2.142-7.768-3.124-2.946 0 0-2.857-1.072-2.59 1.428.268 2.5-3.839-2.678-3.839-2.678s.357 7.142-1.428 8.035c0 0 7.5-1.964 4.732 2.054s-5.893 4.286-10.714 4.553c-4.822.268-7.947-2.5-10.357-3.214s-4.375-2.857-8.795-.223z" fill="#dedede" fill-rule="evenodd"/></clipPath><clipPath id="K"><path d="M-14.611 203.49c4.3 1.606 4.37 4.311 5.303 4.311.934 0 .84.496 1.323-.165.485-.662 1.607-1.83 1.725-2.894.118-1.063 1.027-.579 1.016-.142-.012.437-.307 3.355-.201 3.58s.26.342.354-.438c.095-.78.118-1.984.32-2.138.2-.153 1.428-.897 1.665-1.748 0 0 .035-.425-.685-.673-.72-.248 1.712-2.292 1.712-2.292s3.485 1.607 4.37 2.528c0 0-.336 1.226.081 1.226s.602 1.086-.317.869-1.62-.618-2.188.017-.819 1.236-1.12 1.353-.701.317-.685-.535-.116.702-.367.668c-.25-.033-.15.401-1.687.451 0 0 .902.351.969.886.067.534.117.55.117.55s1.92.168 2.004-.383c.084-.552.551-1.303.752-1.554.2-.25 1.102-1.286 1.954-1.17 0 0-1.553.986-2.171 2.356-.618 1.37 4.393 1.003 4.393 1.003s2.673-.702 2.973-1.654.368-4.627-.217-5.229c-.9-.756-2.08-1.464-3.522-.543-1.44.921-.26 1.37-2.22-.354-1.961-1.725-3.757-2.504-3.757-2.504s-2.291 3.094-2.338 2.764c-.047-.331-.567-2.056-.827-.78 0 0-.756-.283-.685.378.07.661-1.016-.709-1.016-.709s.095 1.89-.378 2.126c0 0 1.985-.52 1.252.544-.732 1.063-1.56 1.134-2.835 1.205-1.275.07-2.102-.662-2.74-.85s-1.158-.757-2.327-.06z" fill="#dedede" fill-rule="evenodd"/></clipPath><clipPath id="M"><path d="M-16.962 206.64c-1.17-.697-2.658-1.984-2.658-3.933 0-1.17.756-1.713.756-1.713-.059.614-.708 1.795.13 2.48.201.308.437.331 1.11.308.674-.024.532.177.532.177s.165-.744.33-.933c.166-.19.863-1.701.863-1.701s3.32-1.69 3.555-1.796c.237-.106 1.193-.248 1.193-.248s3.39 1.193 3.556 1.359c.165.165.378 1.263.378 1.263l-.426 1.642-3.082 1.158 1.57 3.378-3.354.225s-3.662-.296-4.453-1.666z" fill="#b0afad" fill-rule="evenodd"/></clipPath><clipPath id="Q"/><clipPath id="k"><path d="m45.102 268 3.776 30.736c0 2.843 5.376 5.147 12.01 5.147 6.633 0 12.01-2.304 12.01-5.147L76.64 268c0 2.177-7.06 3.942-15.769 3.942-8.708 0-15.768-1.765-15.769-3.942zm31.538 0z" color="#000" fill="#fff" opacity=".691"/></clipPath><clipPath id="m"><path d="m45.102 268 3.776 30.736c0 2.843 5.376 5.147 12.01 5.147 6.633 0 12.01-2.304 12.01-5.147L76.64 268c0 2.177-7.06 3.942-15.769 3.942-8.708 0-15.768-1.765-15.769-3.942zm31.538 0z" color="#000" fill="#fff" opacity=".691"/></clipPath><linearGradient id="d"><stop stop-color="#d9dadd" offset="0"/><stop stop-color="#e3e4e6" offset=".254"/><stop stop-color="#d8dbde" offset=".744"/><stop stop-color="#f7f7f8" offset="1"/></linearGradient><linearGradient id="f" x1="170.46" x2="289.66" y1="713.63" y2="713.63" gradientUnits="userSpaceOnUse" xlink:href="#d"/><linearGradient id="am" x1="-.685" x2="-3.354" y1="217.79" y2="211.6" gradientTransform="translate(82.118 -750.16) scale(3.7795)" gradientUnits="userSpaceOnUse" xlink:href="#e"/><linearGradient id="e"><stop stop-color="#fff" offset="0"/><stop stop-color="#fff" stop-opacity="0" offset="1"/></linearGradient><linearGradient id="Y" x1="-.685" x2="-3.354" y1="217.79" y2="211.6" gradientUnits="userSpaceOnUse" xlink:href="#e"/><linearGradient id="p" x1="170.46" x2="289.66" y1="704.73" y2="704.73" gradientTransform="translate(-150.32 -674.15) scale(1.0989)" gradientUnits="userSpaceOnUse"><stop stop-color="#dcdde0" offset="0"/><stop stop-color="#e3e4e6" offset=".254"/><stop stop-color="#d8dbde" offset=".744"/><stop stop-color="#e1e1e5" offset="1"/></linearGradient><linearGradient id="N" x1="170.46" x2="289.66" y1="713.63" y2="713.63" gradientTransform="translate(-150.32 -674.15) scale(1.0989)" gradientUnits="userSpaceOnUse" xlink:href="#d"/><linearGradient id="q" x1="-8.64" x2="-5.042" y1="207.18" y2="207.18" gradientTransform="translate(126.22 -812.53) scale(4.1648)" gradientUnits="userSpaceOnUse"><stop stop-color="#99662e" offset="0"/><stop stop-color="#b67937" offset="1"/></linearGradient><linearGradient id="u" x1="-7.684" x2="-4.151" y1="202.91" y2="205.26" gradientTransform="translate(126.22 -812.53) scale(4.1648)" gradientUnits="userSpaceOnUse"><stop stop-color="#77d743" offset="0"/><stop stop-color="#254a12" offset="1"/></linearGradient><linearGradient id="v" x1="-9.864" x2="-9.916" y1="203.74" y2="204.85" gradientTransform="translate(126.22 -812.53) scale(4.1648)" gradientUnits="userSpaceOnUse"><stop stop-color="#3cd0f2" offset="0"/><stop stop-color="#0eacd0" offset="1"/></linearGradient><linearGradient id="w" x1="-7.619" x2="-5.042" y1="205.46" y2="205.46" gradientTransform="translate(126.22 -812.53) scale(4.1648)" gradientUnits="userSpaceOnUse"><stop stop-color="#872c1f" offset="0"/><stop stop-color="#bf3f2d" offset="1"/></linearGradient><linearGradient id="x" x1="-3.579" x2="-2.238" y1="206.88" y2="205.53" gradientTransform="translate(126.22 -812.53) scale(4.1648)" gradientUnits="userSpaceOnUse"><stop stop-color="#3c4533" offset="0"/><stop stop-color="#3c4533" offset=".324"/><stop stop-color="#414a37" offset=".576"/><stop stop-color="#3c4533" offset=".805"/><stop stop-color="#3c4533" offset="1"/></linearGradient><pattern id="O" patternTransform="translate(37.008 140.23) scale(.26457)" xlink:href="#a"/><pattern id="P" patternTransform="translate(85.055 151.95) scale(.26457)" xlink:href="#b"/><pattern id="o" xlink:href="#c"/><pattern id="a" width="495.113" height="169.716" patternTransform="translate(40.717 233.84) scale(.25862)" patternUnits="userSpaceOnUse"><path transform="translate(-708.04 -4600.9) scale(15.699)" d="M46.505 302.14c7.684-6.014 8.753-2.806 14.767-2.205 6.014.601 15.903-4.276 15.903-4.276l-1.002 13.63s-28.531 2.072-29.667-7.149z" clip-path="url(#k)" fill="#fff" fill-rule="evenodd" filter="url(#l)" opacity=".729"/></pattern><pattern id="c" width="301.877" height="125.415" patternTransform="translate(87.684 245.3) scale(.25862)" patternUnits="userSpaceOnUse"><path transform="translate(-889.65 -4645.2) scale(15.699)" d="M60.737 305.42c6.749-6.348 8.152-7.484 10.758-1.67 2.606 5.813-10.758 1.67-10.758 1.67z" clip-path="url(#m)" fill="#a4a4a4" fill-rule="evenodd" filter="url(#n)" opacity=".483"/></pattern><pattern id="b" width="301.877" height="125.415" patternTransform="translate(87.684 245.3) scale(.25862)" patternUnits="userSpaceOnUse"><path fill="url(#o)" d="M0 0h301.88v125.41H0z"/></pattern><radialGradient id="Z" cx="1.401" cy="209.31" r="1.195" gradientTransform="matrix(1.5723 1.7816 -.76333 .67366 158.91 65.624)" gradientUnits="userSpaceOnUse" xlink:href="#e"/></defs><path d="M102.5 19.716c-36.172 0-65.497 7.332-65.497 16.374l.116.938v.002c1.951 8.605 30.472 15.432 65.38 15.432 34.914 0 63.44-6.83 65.382-15.437l.114-.936c0-9.043-29.324-16.374-65.497-16.374z" color="#000" fill="url(#p)" opacity=".542"/><g fill-rule="evenodd"><g stroke-width="59.494"><path d="m129.12 35.368 1.992-5.362 6.15 4.796 1.279 8.29-3.075 1.77-10.158 10.724-5.707-.369 6.543-11.462z" fill="#96999f"/><path d="M121.62 46.654c1.252-3.13.974-3.618 1.67-3.966.695-.347 1.182-1.739 1.982-2.017.8-.278.209-2.574.661-2.817.452-.244 2.087-.314 2.47-1.218.383-.904-.174-1.635-.174-1.635l-6.992.105-5.078 9.913s3.478 6.714 5.46 1.635z" fill="#5975b5"/><path d="M128.9 35.284c3.197-2.214 3.69-2.533 4.526-.541.836 1.992-1.697 6.444-1.697 6.444l-5.485-.418s-1.009-4.28-.025-4.723c.984-.442 2.681-.762 2.681-.762z" fill="#39497e"/><path d="M124.67 35.742c2.558.689 4.108.025 4.87-.566.763-.59 1.304-4.009 1.845-4.107.541-.099-2.509-.91-2.509-.91z" fill="#252921"/><path d="m110.88 29.329 5.67-.209s8.626 1.496 10.609 1.948c1.983.452 3.861-.452 3.861-.452l-14.053-8.94z" fill="#eae9e8"/><path d="M96.336 53.984c1.357 4.244 7.583 4.522 7.653 3.13.07-1.39.208-4 .208-4s1.218-7.235-.313-7.026c-1.53.209-7.548 7.896-7.548 7.896z" fill="#759d70"/><path d="M92.788 58.774c3.165.487 11.479-11.027 12.175-13.67.696-2.644.035-3.34-2.748-3.27-2.783.07-17.914 11.653-9.427 16.94z" fill="url(#q)"/><path d="M55.574 48.07c-4.87-2.902-11.068-8.264-11.068-16.381 0-4.87 3.148-7.133 3.148-7.133-.246 2.558-2.951 7.477.541 10.331.837 1.279 1.82 1.377 4.625 1.279 2.804-.098 2.213.738 2.213.738s.689-3.1 1.378-3.886c.688-.787 3.59-7.084 3.59-7.084s13.824-7.035 14.808-7.478c.984-.442 4.968-1.033 4.968-1.033s14.12 4.969 14.807 5.658c.689.688 1.575 5.263 1.575 5.263l-1.771 6.838-12.84 4.82 6.542 14.07-13.97.935s-15.25-1.23-18.547-6.937z" fill="#b0afad"/></g><path transform="translate(126.22 -812.53) scale(4.1648)" d="M-16.913 206.41c1.186-.367 1.027-.292 1.136-.71.618-1.712.927-2.205 1.244-2.255.318-.05 3.057.802 3.91 1.553.851.752 1.745 3.416 1.745 3.416l-5.504.468s-2.807-1.236-2.531-2.472z" clip-path="url(#r)" fill="#626262"/><path d="M65.794 42.281c1.704 1.53 4.174 3.896 4.835 3.374.661-.522 5.01-2.818 5.01-2.818s6.574 7.966 7.722 8.557c1.147.592 2.4.174 2.4.174l-6.053-11.792-6.192-1.182s-4.591-.278-6.609 1.878c-2.017 2.157-1.113 1.809-1.113 1.809z" fill="#411"/><path transform="translate(126.22 -812.53) scale(4.1648)" d="M-19.867 203.53c1.311.39 2.02.78 2.445 1.158s1.784 1.252 1.784 1.252l-.863 1.086-3.083-1.04z" clip-path="url(#s)" fill="#9f9f9f"/><path transform="translate(126.22 -812.53) scale(4.1648)" d="M-19.636 203.88c1.545 1.696 3.491 2.982 3.491 2.982l-.292.434s-3.166-.768-3.199-1.378c-.033-.61 0-2.038 0-2.038z" clip-path="url(#t)" fill="#606060"/><g stroke-width="59.494"><path d="M80.908 19.791c2.164.984 5.067 15.496 5.067 15.496l3.64-.885s-2.46-13.282-5.264-14.315c-2.804-1.034-3.443-.296-3.443-.296z" fill="#444342"/><path d="M82.311 33.244c3.37-1.427 8.683-2.804 10.896-1.845 0 0 2.015-1.42 3.755-1.664 1.739-.244 3.339 2.226 3.2 2.26-.14.034-3.861 6.575-5.253 6.401-1.391-.174-12.598-5.152-12.598-5.152z" fill="url(#u)"/><path d="M78.621 39.074c-2.681-3.05 1.033-5.854 4.673-6.297 3.64-.442 11.364 5.116 11.364 5.116s-11.044 4.723-16.037 1.18z" fill="url(#v)"/><path d="M94.492 49.819c3.165.487 10.122-6.818 10.818-9.461.696-2.644-.313-3.966-3.096-3.896-2.783.07-7.93 9.878-7.722 13.357z" fill="url(#w)"/><path d="M117.38 45.53c2.644-3.374 5.322-3.026 5.53-3.687.21-.661.07-1.565-.521-2.435-.591-.87.8-3.13 2.018-3.061 1.217.07 2.226-2.505 2.226-2.505l-4.766-2.087-7.826 2.748-1.183 5.01.105 5.46z" fill="#aa531f"/><path d="M119.85 47.654c3.27-2.678 6.33-2.192 6.33-2.192l-5.321 4.314z" fill="#c1c2c9"/><path d="M107.52 41.906c3.64.098 5.214-.492 7.674.492s2.312 1.77 3.1 2.558c.786.787 2.016-.147 2.705 4.772.688 4.919-13.48 2.164-13.48 2.164z" fill="url(#x)"/><path d="M108.02 42.114c-.098 5.46-.246 5.214 1.328 5.411 1.574.197-.246 2.263.148 3.247.393.984 1.279.935 1.279.935l.54 1.77-4.672-.393s-.542-.59-.738-1.033c-.197-.443.098-10.134.098-10.626 0-.492 2.017.689 2.017.689z" fill="#242f65"/><path d="M116.93 28.537c.07-1.357 3.026-2.748 4.452-1.983 1.427.765.696 2.052 2.4 2.783 1.705.73 6.68 1.948 6.123 2.748-.557.8-1.67 2.852-3.2 2.4-1.531-.452-1.496-1.809-3.514-1.809-2.017 0-3.583.174-3.583.174z" fill="#5975b5"/><path d="M116.48 34.743c.94 1.183 1.774 1.252 3.513.105 1.74-1.148 2.505-2.679 0-2.61-2.504.07-7.757-1.878-7.757-1.878s-1.774.557-1.739 1.566c.035 1.008 1.392 2.122 1.392 2.122z" fill="#252921"/><path d="M112.06 42.864c4.661-1.391 2.33-4.244 1.809-4.974-.522-.73.556-2.853 2.852-2.922 2.296-.07-1.252-.905-3.34-.974-2.086-.07-2.956-1.53-2.051-2.122.904-.591 2.122-.661 3.13.556 1.009 1.218 5.183 1.253 5.948.557.766-.696 2.087-1.287 2.087-1.287s-3.478-1.391-4.174-2.505c-.696-1.113-1.948-2.365-3.478-1.495-1.531.87-4.557 1.252-4.557 1.252l-3.722 6.192 2.052 8.07z" fill="#3d4b6f"/><path d="M107.13 42.531c-.64 3.542.148 9.691.492 9.642.344-.05 1.476.59 3.1-.443 5.607-.098 4.18 6.444 4.18 6.444l-11.461-1.279s.688-14.168 1.721-14.709c1.033-.541 1.968.345 1.968.345z" fill="#652424"/></g><g fill="#dedede" stroke-width="3.78"><path d="M65.368 34.965c17.907 6.69 18.202 17.956 22.088 17.956 3.886 0 3.493 2.066 5.51-.689s6.69-7.625 7.182-12.052c.492-4.428 4.28-2.41 4.23-.59-.049 1.82-1.279 13.97-.836 14.905s1.083 1.427 1.476-1.82c.394-3.247.492-8.265 1.328-8.904.837-.64 5.953-3.739 6.937-7.28 0 0 .147-1.771-2.853-2.805-3.001-1.033 7.133-9.543 7.133-9.543s14.512 6.69 18.201 10.527c0 0-1.404 5.107.335 5.107 1.74 0 2.505 4.522-1.321 3.618-3.827-.905-6.749-2.574-9.114.07s-3.41 5.147-4.661 5.634c-1.253.487-2.922 1.322-2.853-2.226.07-3.548-.487 2.922-1.53 2.783-1.044-.14-.627 1.67-7.027 1.878 0 0 3.757 1.461 4.035 3.687.278 2.227.487 2.296.487 2.296s8 .696 8.349-1.6c.347-2.296 2.295-5.426 3.13-6.47.835-1.043 4.592-5.357 8.14-4.87 0 0-6.47 4.105-9.044 9.81-2.574 5.705 18.296 4.174 18.296 4.174s11.132-2.922 12.384-6.887 1.53-19.271-.904-21.776c-3.747-3.148-8.667-6.1-14.668-2.263-6.002 3.837-1.083 5.707-9.249-1.475-8.166-7.183-15.643-10.43-15.643-10.43s-9.544 12.89-9.74 11.512-2.362-8.56-3.444-3.247c0 0-3.148-1.18-2.853 1.574.295 2.755-4.23-2.951-4.23-2.951s.393 7.87-1.575 8.855c0 0 8.265-2.165 5.214 2.262-3.05 4.428-6.493 4.723-11.806 5.018-5.313.296-8.756-2.755-11.413-3.542s-4.821-3.148-9.69-.246zM55.577 52.624s-1.083-6.199.442-8.117c0 0 1.23 2.509 6.445 3.788 5.214 1.28-3.837 6.1-3.837 6.1 10.527-2.853 13.478 6.199 4.82 3.739s-7.87-5.51-7.87-5.51zM60.408 45.752c-1.74-4.453-1.53-8.279 4.174-10.227 0 0 .07 1.6 1.252 1.948 1.183.348 2.018 3.479 3.757 3.479 0 0-3.27.556-3.617 4.73 0 0-2.853.557-5.566.07zM56.022 34.132c10.853-4.452 9.531-5.287 9.531-5.287s-8.278 1.044-3.895-1.809 12.105-4.035 13.705-8.835c0 0-5.287-2.157-23.445 7.861 0 0 1.322 6.192 4.104 8.07z"/><path d="M78.496 20.971c-.905 1.253-1.67 2.088-1.392-3.2.278-5.287 2.992-4.383 5.775-1.74 2.782 2.645 4.522.975 6.4 2.158 1.879 1.182 5.635 2.017 5.566 5.495 0 0-3.41 1.6-7.653-2.295-1.74-1.183-7.653-1.879-8.696-.418z"/></g><path transform="translate(126.22 -812.53) scale(4.1648)" d="M-11.008 206.81c1.62-2.506 1.77-2.405 2.339-2.188s-.15 2.756-.886 3.39c-.735.635-1.453-1.202-1.453-1.202z" clip-path="url(#y)" fill="#a3a3a3" filter="url(#z)" opacity=".424"/><g fill="#838383"><path d="M-9.304 208.22c2.439-4.343 3.023-6.147 3.257-5.997.234.15 1.336 1.687 1.036 2.155-.301.468-.819 1.086-.886 1.103-.066.016-1.37 3.858-1.37 3.858z" clip-path="url(#A)" filter="url(#B)" opacity=".479" transform="translate(126.22 -812.53) scale(4.1648)"/><path d="M-6.465 202.84c.602.969.936 1.637 1.337 1.387.4-.251.167-1.287-.351-1.604-.518-.317-.852-.368-.986.217z" clip-path="url(#C)" filter="url(#D)" opacity=".708" transform="translate(126.22 -812.53) scale(4.1648)"/><path d="M-4.181 209.25c-.036-2.327.33-3.142 2.327-4.489 1.996-1.346 1.287.674 1.582.863s1.016 1.216 1.37.85c.355-.366 1.146-.957 1.442-.85.295.106 2.787 2.776 2.787 2.776l-6.756.661-2.693.2z" clip-path="url(#E)" filter="url(#F)" opacity=".648" transform="translate(126.22 -812.53) scale(4.1648)"/></g><path transform="translate(126.22 -812.53) scale(4.1648)" d="M2.386 205.86c.496-.532.33-.614.921-.343s.91 1.335 1.323 1.382c.414.048 1.76-.33 1.985-.79.224-.462-.237-2.304-.142-2.458.094-.153 1.512-1.405 2.173-.484.662.921 1.831 6.461-.177 6.863-2.008.401-4.996-4.276-6.083-4.17z" clip-path="url(#G)" fill="#373737" filter="url(#H)" opacity=".758"/><path transform="translate(126.22 -408.55) scale(1.1019)" d="M20.09 393s-6.473 1.294-7.232 6.518c-.76 5.223.222 6.384.222 6.384.938 1.83 3.393 5 4.955 4.866 1.563-.134 4.375-.625 4.955-2.366.58-1.74.76-6.251-1.337-7.144-2.099-.893-3.037-1.384-.805-1.25 2.232.134 3.438.537 2.635-.668-.804-1.205-3.393-6.34-3.393-6.34zm-1.746 12.457c1.88-.064 2.131 2.096-.129 2.766-1.652-.358-2.5-2.321-.268-2.723a2.77 2.77 0 0 1 .397-.043z" clip-path="url(#I)" fill="#a8a8a8" filter="url(#J)" opacity=".585"/><path transform="translate(126.22 -812.53) scale(4.1648)" d="M5.303 203.86c-1.76-.2-1.771-1.028-1.157-1.382.614-.354 1.24-.555 1.713-.106.472.449.732.543.2.578-.531.036-.637.012-.626-.248.012-.26-.39-.413-.815-.106s-.413.662.248.697c.662.035 1.04.378.98.78s-.543-.213-.543-.213z" clip-path="url(#K)" fill="#676767" filter="url(#L)" opacity=".47"/><path transform="translate(126.22 -812.53) scale(4.1648)" d="M-19.26 204.73c-.207-3.13.739-3.793.739-3.793l-.437-.183s-2.824 3.185-.302 3.976z" clip-path="url(#M)" fill="#dedede"/><path d="m120.86 47.195 2.991-.278s7.375-3.896 8.766-4.348c1.391-.452 2.818-2.296 2.887-3.722.07-1.426-2.296-4.487-2.296-4.487s.21 3.896-.834 4.765c-1.044.87-2.018 2.191-5.6-1.774-3.584-3.966-5.914 9.844-5.914 9.844z" fill="#773520"/></g><g stroke-width="1.023"><path d="m37.008 36.094 15.682 127.66c0 11.807 22.333 21.38 49.884 21.38 27.55 0 49.886-9.572 49.886-21.38l15.541-127.66c-.003 9.042-29.326 16.372-65.497 16.372-36.17 0-65.492-7.33-65.497-16.372zm131 0z" color="#000" fill="url(#N)" opacity=".915"/><path fill="url(#O)" d="M37.008 140.23h131v44.902h-131z"/><path fill="url(#P)" d="M85.055 151.95h79.868v33.181H85.055z"/></g><path transform="translate(-136.19 -999.72) scale(4.1535)" d="M44.938 285.23c3.496-11.623-4.516-41.02-4.159-37.78z" clip-path="url(#Q)" fill="#9d9da9" fill-rule="evenodd" filter="url(#R)" opacity=".064"/><g transform="translate(133.96 -803.3) scale(4.1647)" fill-rule="evenodd" filter="url(#S)"><path d="M.567 212.66c.52-1.984 2.41-3.638 4.158-3.78s3.118 3.544.472 3.827c-2.646.284-3.921 1.654-4.63-.047z" fill="#f2a457" fill-opacity=".268" filter="url(#T)" opacity=".475"/><path d="M-18.497 207.77c-.472 4.016 2.008 4.205 2.008 4.205l.661-2.032s-1.677-2.764-2.669-2.173z" fill="#eae9e8" opacity=".572"/><path d="M-16.3 208.7c2.079 1.63 2.953 2.858 3.992 2.858 1.04 0 3.048-.307 2.93-.401-.118-.095-3.355-1.985-3.355-1.89s-.378-1.56-.378-1.56l-4.323-2.314z" fill="#eae9e8" fill-opacity=".268"/><path d="M-7.488 207.986s-.804 1.3-2.15 1.914l.141.637 1.98-.166c.681-1.18 1.19-1.77 1.454-2.034z" fill="#b58043" opacity=".356"/><path d="M-7.56 210.44c1.04-1.819 1.701-2.292 1.701-2.292l.898.095s.307 1.583-.685 2.126c-.992.543-1.56.473-1.913.071z" fill="#6c9781" opacity=".657"/><path d="M-3.024 208.98s-.803 1.3-2.15 1.914l.142.637 1.98-.166c.681-1.18 1.19-1.77 1.454-2.034z" fill="#b58043" opacity=".11"/><g fill-opacity=".268"><path d="M-17.67 218.57c.52-1.984 2.41-3.638 4.158-3.78s3.118 3.544.472 3.827c-2.646.284-3.921 1.654-4.63-.047z" fill="#f2a457" filter="url(#U)" opacity=".475"/><path d="M-18.007 217.09c-1.136-.802-2.439-3.508-1.002-3.875 1.436-.368 3.875 2.472 1.002 3.875z" fill="#57f26b" filter="url(#V)" opacity=".381"/><path transform="rotate(40.801 -5.4 219.15)" d="M-5.25 221.1c-1.137-.802-2.44-3.508-1.003-3.875 1.437-.368 3.875 2.472 1.002 3.875z" fill="#57f26b" filter="url(#W)" opacity=".144"/><path d="M.094 219.33c.52-1.984 2.41-3.638 4.158-3.78s3.118 3.544.473 3.827c-2.646.284-3.922 1.654-4.63-.047z" fill="#f2a457" filter="url(#X)" opacity=".475"/></g><path d="M-4.143 215.58c3.24-.869 5.279-2.572 5.713-3.742.435-1.17-.835-2.071-.835-2.071s-5.913 3.207-13.096 4.36c4.51 1.854 4.978 2.322 8.218 1.453z" fill="url(#Y)"/><path d="M1.72 209.79s-.4-.434.184-.451 1.403.651 1.988.451-2.071 1.62-1.988 1.37a7.646 7.646 0 0 0-.183-1.37z" fill="url(#Z)" filter="url(#aa)"/></g><g transform="translate(133.96 -803.3) scale(4.1647)" fill-opacity=".268" filter="url(#S)"><g fill-rule="evenodd"><path transform="matrix(.56862 .49084 -.49084 .56862 102.6 102.57)" d="M-5.25 221.1c-1.137-.802-2.44-3.508-1.003-3.875 1.437-.368 3.875 2.472 1.002 3.875z" fill="#10d52a" filter="url(#ab)" opacity=".572"/><path transform="rotate(52.102 -11.742 227.05)" d="M-14.797 228.53c.52-1.984 2.41-3.638 4.158-3.78 1.748-.142 3.118 3.544.472 3.827-2.646.284-3.921 1.654-4.63-.047z" fill="#f2a457" filter="url(#ac)" opacity=".475"/><path transform="matrix(.56862 .49084 -.49084 .56862 96.049 108.45)" d="M-5.25 221.1c-1.137-.802-2.44-3.508-1.003-3.875 1.437-.368 3.875 2.472 1.002 3.875z" fill="#10d52a" filter="url(#ad)" opacity=".572"/><path transform="matrix(.41309 .53069 -.53069 .41309 124.49 140.63)" d="M-14.797 228.53c.52-1.984 2.41-3.638 4.158-3.78 1.748-.142 3.118 3.544.472 3.827-2.646.284-3.921 1.654-4.63-.047z" fill="#f2a457" filter="url(#ae)" opacity=".475"/></g><path transform="translate(-1.344 45.676) scale(.79466)" color="#000" fill="#1c1c1c" filter="url(#af)" opacity=".436" d="M-10.961 221.07h8.835v2.74h-8.835z"/><path transform="translate(-.918 50.778) scale(.79466)" color="#000" fill="#fff" filter="url(#ag)" opacity=".983" d="M-10.961 221.07h8.835v2.74h-8.835z"/><path transform="translate(-.73 52.763) scale(.79466)" color="#000" fill="#1c1c1c" filter="url(#ah)" opacity=".436" d="M-10.961 221.07h8.835v2.74h-8.835z"/><path transform="matrix(.74345 .28067 -.28067 .74345 57.778 68.26)" color="#000" fill="#1c1c1c" filter="url(#ai)" opacity=".436" d="M-10.961 221.07h8.835v2.74h-8.835z"/><path d="M-15.025 232.84c1.37 2.788 3.921 5.103 7.323 4.866 3.402-.236-1.134-3.59-1.134-3.59s-3.543-3.544-6.189-1.276z" fill="#e8dd70" fill-rule="evenodd" filter="url(#aj)"/><path transform="scale(.79466) rotate(-22.027 177.42 238.187)" color="#000" fill="#1c1c1c" filter="url(#ak)" opacity=".436" d="M-10.961 221.07h8.835v2.74h-8.835z"/><path transform="scale(.79466) rotate(-76.81 35.766 245.93)" color="#000" fill="#1c1c1c" filter="url(#al)" opacity=".436" d="M-10.961 221.07h8.835v2.74h-8.835z"/></g><path transform="translate(40.763 20.678) scale(1.1019)" d="M66.461 64.64c12.248-3.283 19.951-9.723 21.592-14.142 1.641-4.42-3.157-7.829-3.157-7.829S62.546 54.791 35.4 59.147c17.046 7.008 18.814 8.776 31.062 5.493z" fill="url(#am)" fill-rule="evenodd" filter="url(#S)" opacity=".35"/><path fill="none" d="M44.506 13.881h111.8v38.578h-111.8z"/></svg>