<svg width="200mm" height="200mm" viewBox="0 0 200 200" xmlns="http://www.w3.org/2000/svg" xmlns:xlink="http://www.w3.org/1999/xlink"><defs><clipPath id="g"><path d="m45.102 268 3.776 30.736c0 2.843 5.376 5.147 12.01 5.147 6.633 0 12.01-2.304 12.01-5.147L76.64 268c0 2.177-7.06 3.942-15.769 3.942-8.708 0-15.768-1.765-15.769-3.942zm31.538 0z" color="#000" fill="#fff" opacity=".691"/></clipPath><clipPath id="i"><path d="m45.102 268 3.776 30.736c0 2.843 5.376 5.147 12.01 5.147 6.633 0 12.01-2.304 12.01-5.147L76.64 268c0 2.177-7.06 3.942-15.769 3.942-8.708 0-15.768-1.765-15.769-3.942zm31.538 0z" color="#000" fill="#fff" opacity=".691"/></clipPath><clipPath id="c"><path d="m45.102 268 3.776 30.736c0 2.843 5.376 5.147 12.01 5.147 6.633 0 12.01-2.304 12.01-5.147L76.64 268c0 2.177-7.06 3.942-15.769 3.942-8.708 0-15.768-1.765-15.769-3.942zm31.538 0z" color="#000" fill="#fff" opacity=".691"/></clipPath><clipPath id="e"><path d="m45.102 268 3.776 30.736c0 2.843 5.376 5.147 12.01 5.147 6.633 0 12.01-2.304 12.01-5.147L76.64 268c0 2.177-7.06 3.942-15.769 3.942-8.708 0-15.768-1.765-15.769-3.942zm31.538 0z" color="#000" fill="#fff" opacity=".691"/></clipPath><clipPath id="o"/><filter id="h" x="-.084" y="-.187" width="1.169" height="1.375" color-interpolation-filters="sRGB"><feGaussianBlur stdDeviation="1.079"/></filter><filter id="j" x="-.367" y="-.591" width="1.733" height="2.181" color-interpolation-filters="sRGB"><feGaussianBlur stdDeviation="1.695"/></filter><filter id="d" x="-.084" y="-.187" width="1.169" height="1.375" color-interpolation-filters="sRGB"><feGaussianBlur stdDeviation="1.079"/></filter><filter id="f" x="-.367" y="-.591" width="1.733" height="2.181" color-interpolation-filters="sRGB"><feGaussianBlur stdDeviation="1.695"/></filter><filter id="p" x="-.24" y="-.032" width="1.481" height="1.064" color-interpolation-filters="sRGB"><feGaussianBlur stdDeviation=".506"/></filter><linearGradient id="a"><stop stop-color="#d9dadd" offset="0"/><stop stop-color="#e3e4e6" offset=".254"/><stop stop-color="#d8dbde" offset=".744"/><stop stop-color="#f7f7f8" offset="1"/></linearGradient><linearGradient id="l" x1="170.46" x2="289.66" y1="713.63" y2="713.63" gradientTransform="translate(-152.89 -585.89) scale(1.1115)" gradientUnits="userSpaceOnUse" xlink:href="#a"/><linearGradient id="k" x1="170.46" x2="289.66" y1="704.73" y2="704.73" gradientTransform="translate(-152.89 -585.89) scale(1.1115)" gradientUnits="userSpaceOnUse"><stop stop-color="#fbfbfc" offset="0"/><stop stop-color="#ccced2" offset=".254"/><stop stop-color="#f3f4f5" offset=".744"/><stop stop-color="#d6d6db" offset="1"/></linearGradient><linearGradient id="b" x1="170.46" x2="289.66" y1="713.63" y2="713.63" gradientUnits="userSpaceOnUse" xlink:href="#a"/><pattern id="m" width="500.757" height="171.651" patternTransform="translate(36.58 237.81) scale(.26458)" patternUnits="userSpaceOnUse"><path transform="translate(-716.12 -4653.4) scale(15.878)" d="M46.505 302.14c7.684-6.014 8.753-2.806 14.767-2.205 6.014.601 15.903-4.276 15.903-4.276l-1.002 13.63s-28.531 2.072-29.667-7.149z" clip-path="url(#g)" fill="#fff" fill-rule="evenodd" filter="url(#h)" opacity=".729"/></pattern><pattern id="n" width="305.319" height="126.844" patternTransform="translate(85.177 249.67) scale(.26458)" patternUnits="userSpaceOnUse"><path transform="translate(-899.79 -4698.2) scale(15.878)" d="M60.737 305.42c6.749-6.348 8.152-7.484 10.758-1.67 2.606 5.813-10.758 1.67-10.758 1.67z" clip-path="url(#i)" fill="#a4a4a4" fill-rule="evenodd" filter="url(#j)" opacity=".483"/></pattern></defs><path d="M102.83 115.92c-36.586 0-66.246 7.415-66.246 16.562l.117.949v.002c1.974 8.703 30.821 15.609 66.13 15.609 35.313 0 64.165-6.908 66.13-15.613l.115-.947c0-9.146-29.66-16.562-66.246-16.562zM52.705 263.81zm.764 2.147c.504 1.056 1.188 2.083 2.036 3.076-.848-.993-1.532-2.02-2.036-3.076zm2.94 4.058zm92.98.002zm-89.64 2.794zm4.217 2.542zm5.008 2.251zm72.86-2.251zm-5.01 2.251z" color="#000" fill="url(#k)" opacity=".542" transform="translate(0 -97)"/><path d="M36.58 132.48 52.441 261.6c0 11.943 22.589 21.625 50.455 21.625s50.457-9.682 50.457-21.625l15.72-129.12c-.003 9.146-29.662 16.56-66.246 16.56-36.584 0-66.243-7.414-66.246-16.56zm132.49 0z" color="#000" fill="url(#l)" opacity=".915" transform="translate(0 -97)"/><path fill="url(#m)" d="M36.58 237.81h132.49v45.416H36.58z" transform="translate(0 -97)"/><path fill="url(#n)" d="M85.177 249.67h80.782v33.561H85.177z" transform="translate(0 -97)"/><path transform="translate(-138.6 -1012.19) scale(4.201)" d="M44.938 285.23c3.496-11.623-4.516-41.02-4.159-37.78z" clip-path="url(#o)" fill="#9d9da9" fill-rule="evenodd" filter="url(#p)" opacity=".064"/></svg>