<svg width="48" height="48" viewBox="0 0 12.7 12.7" xmlns="http://www.w3.org/2000/svg"><defs><linearGradient id="b" x1="6.35" x2="6.35" y1="284.83" y2="296.47" gradientUnits="userSpaceOnUse"><stop stop-color="#0e78d7" offset="0"/><stop stop-color="#29d6f9" offset="1"/></linearGradient><linearGradient id="d" x1="6.35" x2="6.35" y1="287.76" y2="293.54" gradientUnits="userSpaceOnUse"><stop stop-color="#c3efff" offset="0"/><stop stop-color="#fff" offset="1"/></linearGradient><filter id="c" x="-.034" y="-.038" width="1.069" height="1.075" color-interpolation-filters="sRGB"><feGaussianBlur stdDeviation=".091"/></filter><filter id="a" x="-.036" y="-.036" width="1.072" height="1.072" color-interpolation-filters="sRGB"><feGaussianBlur stdDeviation=".175"/></filter></defs><g transform="translate(0 -284.3)" fill-rule="evenodd"><circle cx="6.35" cy="290.65" r="5.821" filter="url(#a)" opacity=".25" style="paint-order:normal"/><circle cx="6.35" cy="290.65" r="5.821" fill="url(#b)" style="paint-order:normal"/><path d="M9.525 293.54c0-1.04-1.764-1.57-2.468-1.759 0 0 .029-.583.097-.797.068-.214.078-.456.107-.524.029-.068.373-.38.392-.671-.005-.174-.04-.215-.125-.215v-.904c0-.488-.711-.914-1.178-.914-.467 0-1.178.426-1.178.914v.904c-.086 0-.12.041-.125.215.02.292.363.602.392.67.03.069.04.311.107.525.068.214.097.797.097.797-.703.189-2.468.72-2.468 1.759z" filter="url(#c)" opacity=".25"/><path d="M9.525 293.54c0-1.04-1.764-1.57-2.468-1.759 0 0 .029-.583.097-.797.068-.214.078-.456.107-.524.029-.068.373-.38.392-.671-.005-.174-.04-.215-.125-.215v-.904c0-.488-.711-.914-1.178-.914-.467 0-1.178.426-1.178.914v.904c-.086 0-.12.041-.125.215.02.292.363.602.392.67.03.069.04.311.107.525.068.214.097.797.097.797-.703.189-2.468.72-2.468 1.759z" fill="url(#d)"/></g></svg>