<svg width="200" height="200" version="1.1" xmlns="http://www.w3.org/2000/svg">
 <defs>
  <linearGradient id="u" x1="-26.201" x2="-26.201" y1="1070.2" y2="1082.6" gradientUnits="userSpaceOnUse">
   <stop stop-color="#fdef78" offset="0"/>
   <stop stop-color="#fff17b" offset="1"/>
  </linearGradient>
  <linearGradient id="t" x1="-9.912" x2="-9.912" y1="1081.4" y2="1139.8" gradientUnits="userSpaceOnUse">
   <stop stop-color="#fde83b" offset="0"/>
   <stop stop-color="#fffc59" offset=".5"/>
   <stop stop-color="#f6f44d" offset="1"/>
  </linearGradient>
  <linearGradient id="a" x1="-9.617" x2="-9.617" y1="1138.4" y2="1140.2" gradientUnits="userSpaceOnUse">
   <stop stop-opacity=".046784" offset="0"/>
   <stop offset="1"/>
  </linearGradient>
 </defs>
 <g transform="translate(-.49008 -1.837)" color="#000000">
  <path transform="matrix(2.2139,0,0,2.2139,109.5,-2344.9)" d="m-44.762 1070.2h22.131c3.287 0 4.652 7.071 7.728 7.071h51.522a3.276 3.276 0 0 1 3.283 3.283v50.508c0 1.819-1.464-2.02-3.283-2.02h-81.38a3.276 3.276 0 0 1-3.283-3.283v-52.275a3.276 3.276 0 0 1 3.283-3.283z" fill="url(#u)"/>
  <path transform="matrix(2.2139,0,0,2.2139,109.5,-2344.9)" d="m-44.762 1081.3h81.38a3.276 3.276 0 0 1 3.283 3.283v52.275a3.276 3.276 0 0 1-3.283 3.283h-81.38a3.276 3.276 0 0 1-3.283-3.283v-52.275a3.276 3.276 0 0 1 3.283-3.283z" fill="url(#t)"/>
  <path d="m3.16 165.84v2.214h194.68v-2.214h-194.69zm0 4.87v1.176c0 0.359 0.019 0.694 0.068 1.038h194.55c0.05-0.344 0.069-0.679 0.069-1.038v-1.176h-194.69z" opacity=".08" style="text-indent:0;text-transform:none"/>
  <path transform="matrix(2.2139,0,0,2.2139,109.5,-2344.9)" d="m-47.75 1138.2a3.28 3.28 0 0 0 3 1.938h81.375c1.34 0 2.488-0.793 3-1.938z" fill="url(#a)" opacity=".25" style="text-indent:0;text-transform:none"/>
 </g>
 <path transform="translate(0 -852.36)" d="M72.501 925.45a2.7 2.7 0 0 0-2.7 2.7v73.217a2.7 2.7 0 0 0 2.7 2.7h54.323a2.7 2.7 0 0 0 2.7-2.7v-47.28l-28.639-28.638zm2.7 5.399h19.664c3.09.267 5.135 1.595 5.135 8.35v13.16h13.581c3.306 0 9.275-.123 10.544 3.542v42.767H75.201z" opacity=".1" style="isolation:auto;mix-blend-mode:normal;text-decoration-color:#000;text-decoration-line:none;text-decoration-style:solid;text-indent:0;text-transform:none;white-space:normal"/>
</svg>
