<?xml version="1.0" encoding="UTF-8"?>
<svg width="22" height="22" version="1.1" xmlns="http://www.w3.org/2000/svg" xmlns:cc="http://creativecommons.org/ns#" xmlns:dc="http://purl.org/dc/elements/1.1/" xmlns:rdf="http://www.w3.org/1999/02/22-rdf-syntax-ns#">
 <metadata>
  <rdf:RDF>
   <cc:Work rdf:about="">
    <dc:format>image/svg+xml</dc:format>
    <dc:type rdf:resource="http://purl.org/dc/dcmitype/StillImage"/>
    <dc:title/>
   </cc:Work>
  </rdf:RDF>
 </metadata>
 <defs>
  <style id="current-color-scheme" type="text/css">.ColorScheme-Text { color:#363636; } .ColorScheme-Highlight { color:#5294e2; }</style>
 </defs>
 <path d="m10.99 2a9 9 0 0 0-8.9902 9 9 9 0 0 0 9 9 9 9 0 0 0 5.0352-1.543 3 3 0 0 1-0.035156-0.45703 3 3 0 0 1 3-3 3 3 0 0 1 0.060547 0.001953 9 9 0 0 0 0.93945-4.002 9 9 0 0 0-9-9 9 9 0 0 0-0.009766 0zm-0.99023 4h2v2h-2v-2zm0 4h2v6h-2v-6z" fill="#363636" stroke-linecap="round" stroke-linejoin="round" stroke-width="2.4" style="paint-order:stroke fill markers"/>
 <circle cx="19" cy="18" r="2" fill="#419aff" stroke-linecap="round" stroke-linejoin="round" stroke-width="2.6667" style="paint-order:stroke fill markers"/>
</svg>
