<svg width="16" height="16" version="1.1" xmlns="http://www.w3.org/2000/svg">
 <title>Gnome Symbolic Icon Theme</title>
 <g transform="translate(-442,-176)" fill="#333" fill-rule="evenodd">
  <path transform="translate(442,176)" d="m1 4v8c0 0.554 0.446 1 1 1h2v-2h2v2h1v-2h2v2h1v-2h2v2h2c0.554 0 1-0.446 1-1v-8h-14z" opacity=".2" style="paint-order:fill markers stroke"/>
  <path transform="translate(442,176)" d="m4 10c-0.554 0-1 0.446-1 1v2c0 0.554 0.446 1 1 1h8c0.554 0 1-0.446 1-1v-2c0-0.554-0.446-1-1-1h-8zm0 1h2v2h-2v-2zm3 0h2v2h-2v-2zm3 0h2v2h-2v-2z" opacity=".5" style="paint-order:fill markers stroke"/>
  <path transform="translate(442,176)" d="m2 1c-1.108 0-2 0.892-2 2v9c0 1.108 0.892 2 2 2h12c1.108 0 2-0.892 2-2v-9c0-1.108-0.892-2-2-2h-12zm0 1h12c0.554 0 1 0.446 1 1v9c0 0.554-0.446 1-1 1h-12c-0.554 0-1-0.446-1-1v-9c0-0.554 0.446-1 1-1z" style="paint-order:fill markers stroke"/>
  <rect x="443" y="179" width="14" height="1" ry="0" style="paint-order:fill markers stroke"/>
 </g>
</svg>
