<svg id="Flamingo" width="64" height="64" enable-background="new 0 0 1024 1024" image-rendering="optimizeSpeed" version="1.1" viewBox="0 0 64 64" xmlns="http://www.w3.org/2000/svg" xmlns:xlink="http://www.w3.org/1999/xlink">
 <defs>
  <linearGradient id="c" x1="515.66" x2="513.83" y1="-5.4857" y2="1025.8" gradientUnits="userSpaceOnUse">
   <stop stop-color="#fff" offset="0"/>
   <stop stop-color="#ffc0c0" offset="1"/>
  </linearGradient>
  <linearGradient id="a" x1="540" x2="540" y1="4" y2="1024" gradientUnits="userSpaceOnUse">
   <stop stop-color="#ff4949" offset="0"/>
   <stop stop-color="#ff4c83" offset="1"/>
  </linearGradient>
  <filter id="d" x="-.036" y="-.036" width="1.072" height="1.072" color-interpolation-filters="sRGB">
   <feGaussianBlur stdDeviation="14.16"/>
  </filter>
  <filter id="e" x="-.030067" y="-.044851" width="1.0601" height="1.0897" color-interpolation-filters="sRGB">
   <feGaussianBlur stdDeviation="0.50111202"/>
  </filter>
  <linearGradient id="b" x1="32.779" x2="31.947" y1="45.883" y2="18.026" gradientUnits="userSpaceOnUse" xlink:href="#c"/>
 </defs>
 <g id="bgcircle" transform="matrix(.06356 0 0 .06356 -.54555 -.54555)" stroke-width="15.672">
  <g stroke-width="15.672">
   <path d="m966.1 378.45c-2.5-8.75-5.35-17.6-8.45-26.35-6.45-18.25-14.15-36.05-23.15-53.65-3.8-7.4-7.95-14.95-12.3-22.4-20.3-34.5-45.8-67.2-76.35-97.75-72.6-72.6-157.15-116.65-253.65-132.05-16.25-2.6-32.8-4.4-50.05-5.35-9.7-0.55-19.85-0.85-30.1-0.85-9.35 0-18.6 0.25-27.9 0.75-118.35 6.1-220.3 51.95-305.85 137.5q-138.25 138.25-138.25 333.75c0 130.35 46.1 241.65 138.25 333.8 85.55 85.5 187.5 131.35 305.85 137.5h0.4c8.5 0.45 16.6 0.7 24.5 0.7h8.45c8.55-0.1 16.8-0.4 24.65-0.8 2.5-0.15 4.75-0.3 6.95-0.45 20.2-1.45 39.9-4.05 58.7-7.7 7.95-1.55 15.8-3.3 23.4-5.15 80.8-20.3 152.15-61.6 214.65-124.1 48.6-48.6 84.4-102.5 107.35-161.8 16.6-42.9 26.55-88.65 29.75-137.45 0.35-5.2 0.6-10.6 0.8-16.05 0.2-6.05 0.3-12.25 0.3-18.5v-3c-0.2-40.65-4.95-79.5-14.3-117-1.1-4.35-2.35-9-3.65-13.6z" filter="url(#d)" opacity=".25"/>
   <path d="m966.1 378.45c-2.5-8.75-5.35-17.6-8.45-26.35-6.45-18.25-14.15-36.05-23.15-53.65-3.8-7.4-7.95-14.95-12.3-22.4-20.3-34.5-45.8-67.2-76.35-97.75-72.6-72.6-157.15-116.65-253.65-132.05-16.25-2.6-32.8-4.4-50.05-5.35-9.7-0.55-19.85-0.85-30.1-0.85-9.35 0-18.6 0.25-27.9 0.75-118.35 6.1-220.3 51.95-305.85 137.5q-138.25 138.25-138.25 333.75c0 130.35 46.1 241.65 138.25 333.8 85.55 85.5 187.5 131.35 305.85 137.5h0.4c8.5 0.45 16.6 0.7 24.5 0.7h8.45c8.55-0.1 16.8-0.4 24.65-0.8 2.5-0.15 4.75-0.3 6.95-0.45 20.2-1.45 39.9-4.05 58.7-7.7 7.95-1.55 15.8-3.3 23.4-5.15 80.8-20.3 152.15-61.6 214.65-124.1 48.6-48.6 84.4-102.5 107.35-161.8 16.6-42.9 26.55-88.65 29.75-137.45 0.35-5.2 0.6-10.6 0.8-16.05 0.2-6.05 0.3-12.25 0.3-18.5v-3c-0.2-40.65-4.95-79.5-14.3-117-1.1-4.35-2.35-9-3.65-13.6z" fill="url(#a)"/>
  </g>
 </g>
 <g filter="url(#e)" opacity=".25" aria-label="Aa">
  <path d="m18.758 34.229 1.294-4.0258c0.93457-2.9834 1.7972-5.8231 2.624-8.9144h0.14378c0.86268 3.0553 1.6894 5.9309 2.6599 8.9144l1.2581 4.0258zm11.323 10.712h3.5226l-8.9503-26.348h-3.7023l-8.9503 26.348h3.3788l2.5521-8.0517h9.6332z"/>
  <path d="m42.439 45.407c2.4083 0 4.601-1.2581 6.4701-2.8037h0.10784l0.28756 2.3364h2.6959v-12.006c0-4.8166-2.0129-8.0157-6.7577-8.0157-3.1272 0-5.895 1.4019-7.6922 2.5521l1.294 2.2645c1.5456-1.0424 3.5945-2.0848 5.859-2.0848 3.1991 0 4.0258 2.4083 4.0258 4.9245-8.3033 0.93457-12.006 3.0553-12.006 7.2968 0 3.5226 2.4443 5.5355 5.7152 5.5355zm0.93457-2.624c-1.941 0-3.4507-0.89862-3.4507-3.1272 0-2.5161 2.2286-4.1337 8.8065-4.9245v5.4636c-1.9051 1.6894-3.4507 2.588-5.3558 2.588z"/>
 </g>
 <path d="m18.758 34.229 1.294-4.0258c0.93457-2.9834 1.7972-5.8231 2.624-8.9144h0.14378c0.86268 3.0553 1.6894 5.9309 2.6599 8.9144l1.2581 4.0258zm11.323 10.712h3.5226l-8.9503-26.348h-3.7023l-8.9503 26.348h3.3788l2.5521-8.0517h9.6332z" fill="url(#b)"/>
 <path d="m42.439 45.407c2.4083 0 4.601-1.2581 6.4701-2.8037h0.10784l0.28756 2.3364h2.6959v-12.006c0-4.8166-2.0129-8.0157-6.7577-8.0157-3.1272 0-5.895 1.4019-7.6922 2.5521l1.294 2.2645c1.5456-1.0424 3.5945-2.0848 5.859-2.0848 3.1991 0 4.0258 2.4083 4.0258 4.9245-8.3033 0.93457-12.006 3.0553-12.006 7.2968 0 3.5226 2.4443 5.5355 5.7152 5.5355zm0.93457-2.624c-1.941 0-3.4507-0.89862-3.4507-3.1272 0-2.5161 2.2286-4.1337 8.8065-4.9245v5.4636c-1.9051 1.6894-3.4507 2.588-5.3558 2.588z" fill="url(#b)"/>
</svg>
