<svg width="64" height="64" version="1.1" xmlns="http://www.w3.org/2000/svg" xmlns:xlink="http://www.w3.org/1999/xlink">
 <defs>
  <linearGradient id="b" x1="399.57" x2="399.57" y1="545.8" y2="517.8" gradientTransform="matrix(2.1429 0 0 2.1429 -826.36 -1107.5)" gradientUnits="userSpaceOnUse">
   <stop stop-color="#3889e9" offset="0"/>
   <stop stop-color="#5ea5fb" offset="1"/>
  </linearGradient>
  <linearGradient id="a" x1="399.99" x2="399.99" y1="545.14" y2="518.14" gradientTransform="matrix(2.1429 0 0 2.1429 -826.36 -1107.5)" gradientUnits="userSpaceOnUse">
   <stop stop-color="#ff9243" offset="0"/>
   <stop stop-color="#fb3021" offset="1"/>
  </linearGradient>
  <filter id="c" x="-.036" y="-.036" width="1.072" height="1.072" color-interpolation-filters="sRGB">
   <feGaussianBlur stdDeviation="0.41999874"/>
  </filter>
  <linearGradient id="d" x1="31.121" x2="31.525" y1="18.007" y2="47.409" gradientUnits="userSpaceOnUse">
   <stop stop-color="#fff" offset="0"/>
   <stop stop-color="#fdeae1" offset="1"/>
  </linearGradient>
  <filter id="e" x="-.060001" y="-.059999" width="1.12" height="1.12" color-interpolation-filters="sRGB">
   <feGaussianBlur stdDeviation="0.70000967"/>
  </filter>
 </defs>
 <circle transform="matrix(2.1429 0 0 2.1429 -826.36 -1107.5)" cx="400.57" cy="531.8" r="14" filter="url(#c)" opacity=".25" stroke-width=".73333"/>
 <g stroke-width="1.5715">
  <circle cx="32.02" cy="32.044" r="30.001" fill="url(#a)"/>
  <circle cx="32.02" cy="32.044" r="30.001" fill-opacity="0"/>
  <circle cx="32.02" cy="32.044" r="0" fill="url(#b)"/>
 </g>
 <path d="m31.121 18.007c-1.0461 0.02035-2.0758 0.06105-2.7556 0.16281-3.0405 0.46401-5.4786 1.5304-7.0456 3.0853a6.2682 6.2682 0 0 0-1.7095 2.9306c-0.18316 0.70822-0.24422 2.3404-0.05291 2.9631 0.63903 2.1979 2.1572 3.883 5.0064 5.5762 1.2129 0.71636 2.1491 1.1885 4.8436 2.4055 3.2359 1.4531 4.2209 2.0392 4.6808 2.7678 0.17909 0.29306 0.24422 0.44773 0.2198 0.80184-0.04885 0.5617-0.32969 0.84254-0.98907 1.0827-0.43959 0.15467-0.59833 0.20351-1.4327 0.20351-1.5263-0.01628-2.8695-0.3012-4.7337-0.96465a17.225 17.225 0 0 1-3.6836-1.8072c-1.0827-0.70822-1.1682-0.73264-1.4897-0.5617-0.24014 0.13432-1.9985 1.7014-3.2969 2.9713-0.85068 0.82626-0.86289 0.99314-0.27678 1.563 0.57391 0.56984 2.1939 1.7706 3.0812 2.2834 0.96465 0.56984 1.6078 0.88325 2.6945 1.2862 1.8235 0.67566 3.3539 0.95651 6.2193 1.2007 0.65124 0.05291 2.9794 0.06105 3.7975 0 4.4854-0.35818 8.1446-1.8235 10.07-3.9685 0.69194-0.76114 1.1071-1.4164 1.4327-2.3282 0.31748-0.88732 0.39888-2.6294 0.16282-3.6877-0.38261-1.7136-1.4165-3.2643-3.0812-4.5709-1.6688-1.3106-3.362-2.1817-7.4282-3.8098-2.841-1.1315-3.9074-1.7339-4.1842-2.3648-0.1506-0.33783-0.06105-0.93616 0.16281-1.1641 0.44773-0.4518 1.3106-0.61461 2.4259-0.48029 2.0758 0.25643 4.7459 1.2089 7.0985 2.5236 0.45587 0.25236 0.89546 0.46401 0.99315 0.48436 0.37853 0.09769 0.61054-0.05291 2.145-1.8072 1.8845-2.1572 1.8642-2.0718 0.82626-2.8085-3.0934-2.2142-6.6752-3.5004-10.786-3.8871a28.744 28.744 0 0 0-2.9184-0.0814z" filter="url(#e)" opacity=".15" stroke-width="3.7796"/>
 <path d="m31.121 18.007c-1.0461 0.02035-2.0758 0.06105-2.7556 0.16281-3.0405 0.46401-5.4786 1.5304-7.0456 3.0853a6.2682 6.2682 0 0 0-1.7095 2.9306c-0.18316 0.70822-0.24422 2.3404-0.05291 2.9631 0.63903 2.1979 2.1572 3.883 5.0064 5.5762 1.2129 0.71636 2.1491 1.1885 4.8436 2.4055 3.2359 1.4531 4.2209 2.0392 4.6808 2.7678 0.17909 0.29306 0.24422 0.44773 0.2198 0.80184-0.04885 0.5617-0.32969 0.84254-0.98907 1.0827-0.43959 0.15467-0.59833 0.20351-1.4327 0.20351-1.5263-0.01628-2.8695-0.3012-4.7337-0.96465a17.225 17.225 0 0 1-3.6836-1.8072c-1.0827-0.70822-1.1682-0.73264-1.4897-0.5617-0.24014 0.13432-1.9985 1.7014-3.2969 2.9713-0.85068 0.82626-0.86289 0.99314-0.27678 1.563 0.57391 0.56984 2.1939 1.7706 3.0812 2.2834 0.96465 0.56984 1.6078 0.88325 2.6945 1.2862 1.8235 0.67566 3.3539 0.95651 6.2193 1.2007 0.65124 0.05291 2.9794 0.06105 3.7975 0 4.4854-0.35818 8.1446-1.8235 10.07-3.9685 0.69194-0.76114 1.1071-1.4164 1.4327-2.3282 0.31748-0.88732 0.39888-2.6294 0.16282-3.6877-0.38261-1.7136-1.4165-3.2643-3.0812-4.5709-1.6688-1.3106-3.362-2.1817-7.4282-3.8098-2.841-1.1315-3.9074-1.7339-4.1842-2.3648-0.1506-0.33783-0.06105-0.93616 0.16281-1.1641 0.44773-0.4518 1.3106-0.61461 2.4259-0.48029 2.0758 0.25643 4.7459 1.2089 7.0985 2.5236 0.45587 0.25236 0.89546 0.46401 0.99315 0.48436 0.37853 0.09769 0.61054-0.05291 2.145-1.8072 1.8845-2.1572 1.8642-2.0718 0.82626-2.8085-3.0934-2.2142-6.6752-3.5004-10.786-3.8871a28.744 28.744 0 0 0-2.9184-0.0814z" fill="url(#d)" stroke-width="3.7796"/>
</svg>
