<svg width="64" height="64" version="1.1" xmlns="http://www.w3.org/2000/svg">
 <defs>
  <linearGradient id="b" x1="399.57" x2="399.57" y1="545.8" y2="517.8" gradientTransform="matrix(2.1429 0 0 2.1429 -826.36 -1107.5)" gradientUnits="userSpaceOnUse">
   <stop stop-color="#3889e9" offset="0"/>
   <stop stop-color="#5ea5fb" offset="1"/>
  </linearGradient>
  <linearGradient id="a" x1="399.99" x2="399.99" y1="545.14" y2="518.14" gradientTransform="matrix(2.1429 0 0 2.1429 -826.36 -1107.5)" gradientUnits="userSpaceOnUse">
   <stop stop-color="#1a80ff" offset="0"/>
   <stop stop-color="#72e8ff" offset="1"/>
  </linearGradient>
  <filter id="c" x="-.036" y="-.036" width="1.072" height="1.072" color-interpolation-filters="sRGB">
   <feGaussianBlur stdDeviation="0.41999874"/>
  </filter>
  <filter id="d" x="-.066055" y="-.054962" width="1.1321" height="1.1099" color-interpolation-filters="sRGB">
   <feGaussianBlur stdDeviation="0.88073608"/>
  </filter>
 </defs>
 <circle transform="matrix(2.1429 0 0 2.1429 -826.36 -1107.5)" cx="400.57" cy="531.8" r="14" filter="url(#c)" opacity=".25" stroke-width=".73333"/>
 <g stroke-width="1.5715">
  <circle cx="32.02" cy="32.044" r="30.001" fill="url(#a)"/>
  <circle cx="32.02" cy="32.044" r="30.001" fill-opacity="0"/>
  <circle cx="32.02" cy="32.044" r="0" fill="url(#b)"/>
 </g>
 <g>
  <path d="m19.829 12.771c-2.1209 0-3.8288 1.7089-3.8288 3.8299v25.103c0 2.1209 1.7079 3.8278 3.8288 3.8278h15.441c2.1209 0 3.8278-1.7068 3.8278-3.8278v-25.103c0-2.1209-1.7068-3.8299-3.8278-3.8299h-1.7059c-1.1736 0.67461-2.0718 1.9671-2.0747 3.263l-0.022 10.003-0.0032 1.2501c-3.6e-4 0.16756 0.02554 0.33518 0.06706 0.49982h1.5487a0.65263 0.65263 0 1 1 0 1.3046h-0.74082c0.45594 0.4202 1.0351 0.70075 1.62 0.70205 1.2503 0.0029 2.5037-1.2446 2.5064-2.4949l0.0032-1.2501 0.01572-7.5025 0.0032-1.2501c0.0016-0.62517-0.62281-1.2518-1.248-1.2532-0.62516-0.0014-1.2508 0.62282-1.2522 1.248l-0.01991 8.7516-1.2501-0.0021 0.01889-8.7526c0.0027-1.2503 1.2561-2.4977 2.5064-2.4949 1.2503 0.0029 2.4977 1.2561 2.4949 2.5064l-0.0021 1.2501-0.01996 8.7526c-0.0043 1.8755-1.8831 3.746-3.7586 3.7418-1.2498-0.0028-2.4952-0.83985-3.1875-1.9521h-7.2605a0.65267 0.65267 0 0 1-0.04507-1.3046 0.65263 0.65263 0 0 1 0.04507 0h6.7533c-0.02838-0.16665-0.04856-0.33398-0.04818-0.50192l0.0021-1.2511 0.022-10.002c0.0027-1.1756 0.56184-2.347 1.4093-3.2609zm21.227 5.6992v24.836c0 2.1209-1.7068 3.8278-3.8278 3.8278h-12.326v0.2672c0 2.1209 1.7079 3.8288 3.8288 3.8288h15.441c2.1209 1e-6 3.8278-1.7079 3.8278-3.8288v-25.103c0-2.1209-1.7068-3.8278-3.8278-3.8278zm-21.463 6.4882a2.3492 2.3492 0 0 1 2.3493 2.3503 2.3492 2.3492 0 0 1-2.3493 2.3493 2.3492 2.3492 0 0 1-2.3493-2.3493 2.3492 2.3492 0 0 1 2.3493-2.3503zm3.133 6.0041a2.3492 2.3492 0 0 1 2.3493 2.3482 2.3492 2.3492 0 0 1-2.3493 2.3493 2.3492 2.3492 0 0 1-2.3493-2.3493 2.3492 2.3492 0 0 1 2.3493-2.3482zm3.9105 2.8271h4.7855a0.6528 0.6528 0 1 1 0 1.3056h-4.7855a0.6528 0.6528 0 0 1 0-1.3056zm6.9608 0h3.132a0.6528 0.6528 0 1 1 0 1.3056h-3.132a0.6528 0.6528 0 0 1 0-1.3056zm-7.7393 3.176a2.3492 2.3492 0 0 1 2.3493 2.3493 2.3492 2.3492 0 0 1-2.3493 2.3493 2.3492 2.3492 0 0 1-2.3493-2.3493 2.3492 2.3492 0 0 1 2.3493-2.3493zm4.0939 2.5672a0.6528 0.6528 0 0 1 0.02725 0h4.0897a0.6528 0.6528 0 1 1 0 1.3056h-4.0897a0.65295 0.65295 0 0 1-0.02725-1.3056z" filter="url(#d)" opacity=".15" stroke-width=".16218"/>
 </g>
 <path d="m19.829 12.771c-2.1209 0-3.8288 1.7089-3.8288 3.8299v25.103c0 2.1209 1.7079 3.8278 3.8288 3.8278h15.441c2.1209 0 3.8278-1.7068 3.8278-3.8278v-25.103c0-2.1209-1.7068-3.8299-3.8278-3.8299h-1.7059c-1.1736 0.67461-2.0718 1.9671-2.0747 3.263l-0.022 10.003-0.0032 1.2501c-3.6e-4 0.16756 0.02554 0.33518 0.06706 0.49982h1.5487a0.65263 0.65263 0 1 1 0 1.3046h-0.74082c0.45594 0.4202 1.0351 0.70075 1.62 0.70205 1.2503 0.0029 2.5037-1.2446 2.5064-2.4949l0.0032-1.2501 0.01572-7.5025 0.0032-1.2501c0.0016-0.62517-0.62281-1.2518-1.248-1.2532-0.62516-0.0014-1.2508 0.62282-1.2522 1.248l-0.01991 8.7516-1.2501-0.0021 0.01889-8.7526c0.0027-1.2503 1.2561-2.4977 2.5064-2.4949 1.2503 0.0029 2.4977 1.2561 2.4949 2.5064l-0.0021 1.2501-0.01996 8.7526c-0.0043 1.8755-1.8831 3.746-3.7586 3.7418-1.2498-0.0028-2.4952-0.83985-3.1875-1.9521h-7.2605a0.65267 0.65267 0 0 1-0.04507-1.3046 0.65263 0.65263 0 0 1 0.04507 0h6.7533c-0.02838-0.16665-0.04856-0.33398-0.04818-0.50192l0.0021-1.2511 0.022-10.002c0.0027-1.1756 0.56184-2.347 1.4093-3.2609zm21.227 5.6992v24.836c0 2.1209-1.7068 3.8278-3.8278 3.8278h-12.326v0.2672c0 2.1209 1.7079 3.8288 3.8288 3.8288h15.441c2.1209 1e-6 3.8278-1.7079 3.8278-3.8288v-25.103c0-2.1209-1.7068-3.8278-3.8278-3.8278zm-21.463 6.4882a2.3492 2.3492 0 0 1 2.3493 2.3503 2.3492 2.3492 0 0 1-2.3493 2.3493 2.3492 2.3492 0 0 1-2.3493-2.3493 2.3492 2.3492 0 0 1 2.3493-2.3503zm3.133 6.0041a2.3492 2.3492 0 0 1 2.3493 2.3482 2.3492 2.3492 0 0 1-2.3493 2.3493 2.3492 2.3492 0 0 1-2.3493-2.3493 2.3492 2.3492 0 0 1 2.3493-2.3482zm3.9105 2.8271h4.7855a0.6528 0.6528 0 1 1 0 1.3056h-4.7855a0.6528 0.6528 0 0 1 0-1.3056zm6.9608 0h3.132a0.6528 0.6528 0 1 1 0 1.3056h-3.132a0.6528 0.6528 0 0 1 0-1.3056zm-7.7393 3.176a2.3492 2.3492 0 0 1 2.3493 2.3493 2.3492 2.3492 0 0 1-2.3493 2.3493 2.3492 2.3492 0 0 1-2.3493-2.3493 2.3492 2.3492 0 0 1 2.3493-2.3493zm4.0939 2.5672a0.6528 0.6528 0 0 1 0.02725 0h4.0897a0.6528 0.6528 0 1 1 0 1.3056h-4.0897a0.65295 0.65295 0 0 1-0.02725-1.3056z" fill="#fff" stroke-width=".16218"/>
</svg>
