<svg id="Apps-Visual-Studio-Code" width="64" height="64" enable-background="new 0 0 1024 1024" image-rendering="optimizeSpeed" version="1.1" viewBox="0 0 64 64" xmlns="http://www.w3.org/2000/svg" xmlns:xlink="http://www.w3.org/1999/xlink">
 <defs>
  <filter id="c" x="-.036" y="-.036" width="1.072" height="1.072" color-interpolation-filters="sRGB">
   <feGaussianBlur stdDeviation="15.299715"/>
  </filter>
  <linearGradient id="b" x1="399.57" x2="399.57" y1="545.8" y2="517.8" gradientUnits="userSpaceOnUse" xlink:href="#e"/>
  <linearGradient id="e">
   <stop stop-color="#3889e9" offset="0"/>
   <stop stop-color="#5ea5fb" offset="1"/>
  </linearGradient>
  <linearGradient id="d" x1="400.56" x2="400.56" y1="546.93" y2="516.48" gradientUnits="userSpaceOnUse">
   <stop stop-color="#187ced" offset="0"/>
   <stop stop-color="#42d6fc" offset="1"/>
  </linearGradient>
  <linearGradient id="g" x1="16.038" x2="16.038" y1="29.505" y2="2.3196" gradientTransform="matrix(1.0874 0 0 1.0839 383.16 514.45)" gradientUnits="userSpaceOnUse">
   <stop stop-color="#0164c2" offset="0"/>
   <stop stop-color="#00a9f3" offset="1"/>
  </linearGradient>
  <linearGradient id="a" x1="-324.94" x2="-328.21" y1="649.74" y2="307.75" gradientUnits="userSpaceOnUse" xlink:href="#f"/>
  <linearGradient id="f">
   <stop stop-color="#016ed4" offset="0"/>
   <stop stop-color="#00b1ff" offset="1"/>
  </linearGradient>
  <filter id="i" x="-.06" y="-.06" width="1.12" height="1.12" color-interpolation-filters="sRGB">
   <feGaussianBlur stdDeviation="1.0499989"/>
  </filter>
  <linearGradient id="h" x1="29.21" x2="28.603" y1="10.288" y2="53.712" gradientUnits="userSpaceOnUse">
   <stop stop-color="#fff" offset="0"/>
   <stop stop-color="#cce5f6" offset="1"/>
  </linearGradient>
 </defs>
 <path transform="matrix(.058825 0 0 .058825 1.8818 1.8825)" d="m984.88 316.75q-9.2923-22.529-20.962-44.139c-4.376-8.1578-9.0222-16.261-13.938-24.203-21.124-34.252-46.894-66.614-77.311-97.029-99.568-99.568-219.83-149.38-360.67-149.38-140.85 0-261.05 49.811-360.61 149.38-99.569 99.572-149.38 219.78-149.38 360.61s49.811 261.11 149.38 360.67c99.568 99.568 219.78 149.32 360.61 149.32 140.84 0 261.11-49.758 360.67-149.32 54.836-54.89 94.598-116.04 119.23-183.42 20.043-54.943 30.092-113.99 30.092-177.25 0-48.515-5.8888-94.598-17.72-138.25-1.3507-4.9163-2.7553-9.8326-4.2139-14.695-4.4302-14.371-9.5085-28.471-15.181-42.302z" filter="url(#c)" opacity=".25" stroke-width="18.368"/>
 <g transform="matrix(1.94 0 0 1.9415 -745.24 -1000.7)" stroke-width=".79954">
  <circle cx="400.57" cy="531.8" r="0" fill="url(#b)"/>
  <g transform="matrix(1.0509 0 0 1.0509 -20.353 -26.94)" stroke-width=".79954">
   <circle cx="400.57" cy="531.8" r="14" fill="url(#d)" stroke="url(#d)" stroke-width="1.1413"/>
   <path d="m400.59 517.35c-1.8285 0-3.569 0.34769-5.1774 0.9582-0.11697 0.10716-0.26905 0.18943-0.38934 0.17923-0.017-2e-3 -0.0328-0.0114-0.0502-0.0183-0.79287 0.33064-1.545 0.73574-2.2581 1.1953 0.0926 0.14994 0.12019 0.31687-0.0703 0.39798-0.032 0.0129-0.43535 0.0543-0.57621 0.0514-2.028 1.4689-3.6548 3.4444-4.6947 5.7506 0.0168-3e-3 0.0312-0.0102 0.0488-0.0107 0.15782-3e-3 0.38493 0.0422 0.53651 0.0744 0.13988 0.0287 0.25271 0.12221 0.37378 0.13128 0.34356 0.0262 0.42617-0.24033 0.70644-0.38951 0.28965 0.0404 0.48181-0.0492 0.74332-0.0201 0.17826 0.0201 0.30705 0.2095 0.44596 0.22015 0.11685 0.0114 0.21967-0.10915 0.33273-0.0919 0.10985 0.0173 0.29926 0.25563 0.31714 0.38948 0.0232 0.16658-0.12295 0.31659-0.0749 0.49957 0.17509 0.17771 0.49318 0.21372 0.74328 0.31611 0.16292-0.13382 0.0219-0.38209 0-0.57576-3e-3 -0.0855 0.0114-0.16134 0-0.23992-0.0143-0.13339-0.072-0.25555-0.0729-0.36972-3e-3 -0.52724 0.42672-0.77401 0.7815-0.98217 0.15357-0.0907 0.27449-0.24973 0.40772-0.31615 0.18823-0.094 0.32838-0.11595 0.48419-0.20322 0.28162-0.15766 0.5231-0.28419 0.7433-0.46285 0.10161-0.23907 0.0102-0.55964 0.0189-0.79592 0.10171-0.0621 0.18932 0.0267 0.29729 0.0184 0.16989-0.035 0.18404-0.27428 0.28033-0.36968 0.0558-0.0549 0.20935-0.0937 0.27885-0.14822 0.16935-0.13237 0.22449-0.33238 0.37243-0.38945 0.0531-0.0217 0.1754-0.0147 0.25908-0.0376 0.11003-0.0292 0.26668-0.15882 0.44593-0.22008 0.11683-0.0404 0.38441-0.0488 0.42898-0.093 0.055-0.0558-7.7e-4 -0.21267 0.0189-0.29634 0.0901-0.41826 0.72215-0.5069 1.0958-0.64775 0.26188-0.0985 0.53055-0.28 0.81832-0.2244-0.0564 0.19879-0.32437 0.12835-0.27895 0.36975 0.0627 0.33498 0.51276-0.0956 0.6315-0.14535 0.22672-0.0951 0.61557-0.15346 0.91314-0.26108 0.26093-0.0951 0.72872-0.24019 0.48282-0.53765-0.20517-0.0114-0.30402 0.23991-0.48282 0.3161-0.1235 0.0202-0.0997-0.10302-0.20528-0.11284-0.0998-0.0114-0.15624 0.092-0.25914 0.0741-0.10223-0.0168-0.24589-0.17712-0.26188-0.29634-0.0405-0.30928 0.26223-0.43679 0.39078-0.66752-0.0853-0.27973-0.47327-0.0571-0.7079-0.16649 0.0231-0.16657 0.19551-0.28144 0.39073-0.31327 0.16003-0.0267 0.51915-0.0129 0.61446 0.0713 0.0552 0.0475 4e-3 0.16361 0.0933 0.2413 0.0947 0.0855 0.21125 0.0763 0.33418 0.0566 0.0437-0.21111-0.27545-0.15815-0.24069-0.29777 0.25109-0.16372 0.65958-0.0295 0.96701-0.0745 0.17693-0.0262 0.36269-0.15053 0.51954-0.23846 0.14916-0.0846 0.34292-0.23172 0.50118-0.0931 0.042 0.15129-0.13783 0.20135-0.22229 0.27659-0.28436 0.25219-0.57739 0.5411-0.79843 0.834 0.13557 0.13186 0.38206 0.0654 0.61161 0.093 0.0897 0.0114 0.20238 0.0379 0.29725 0.0553 0.11108 0.0202 0.22896 0.0138 0.31571 0.0366 0.1562 0.0378 0.19793 0.20463 0.35255 0.20463 0.25431-4.6e-4 0.25734-0.27466 0.11321-0.44595 0.0456-0.17487 0.11682-0.26559 0.0555-0.38809-0.11455-0.22836-0.53481-0.0114-0.55638-0.29634-0.0132-0.18475 0.15507-0.17649 0.22226-0.31467-0.0305-0.35696 0.29372-0.38282 0.25906-0.70278-0.0144-0.13385-0.12822-0.1357-0.22227-0.26108-0.0478-0.0612-0.0712-0.1798-0.12599-0.23285-0.43377-0.0377-0.87244-0.0619-1.3166-0.0619zm-7.4809 2.9155h2e-3c0.0867 0.0114 0.19109 0.10495 0.29587 0.11298 0.0988 3e-3 0.18103-0.0547 0.24212-0.0377 0.15543 0.0405 0.22096 0.27481 0.0742 0.38948-0.1215 0.0146-0.16887-0.0533-0.26046-0.0367-0.25246 0.0423-0.34932 0.53567-0.53802 0.51934-0.17792-0.0142-0.27422-0.44711-0.0932-0.57575 0.0114-0.11237-0.0826-0.13033-0.0763-0.24133 0.0537-0.0681 0.20609-0.14169 0.35394-0.1298zm-0.8367 0.0581c0.0517 2e-3 0.0904 0.0138 0.11042 0.0364-0.0248 0.19749-0.17971 0.18453-0.33272 0.27657-0.26431 0.15898-0.41708 0.40128-0.50117 0.74089-0.0245 0.0985-0.28479 0.36067-0.41057 0.33446-0.29478-0.0618 0.0819-0.60354 0.14865-0.68587 0.0747-0.0912 0.17426-0.17122 0.26192-0.27658 0.0849-0.10197 0.14035-0.23974 0.22227-0.29634 0.0897-0.0618 0.3459-0.13577 0.50118-0.12978zm2.2001 0.66607c0.0943 2e-3 0.1793 0.0172 0.21804 0.0553-0.0606 0.24468-0.58952 0.18008-0.7829 0.0915 0.0114-0.0922 0.15721-0.11776 0.27888-0.12979 0.0858-3e-3 0.19175-0.0202 0.28598-0.0171zm-1.2034 0.45161c0.0627-2e-3 0.12649 0.0114 0.19252 0.0295-0.17106 0.14263-0.35607 0.22342-0.64986 0.31608-0.14124 0.044-0.38518 0.0993-0.40913-0.0581-0.0293-0.19271 0.20656-0.14789 0.3355-0.16512 0.16242-0.0227 0.34069-0.11668 0.53097-0.12281zm18.462 1.0979c-0.0224 0.0532-0.0377 0.10446-0.0354 0.1552 0.0114 0.0894 0.10976 0.17544 0.13164 0.29638 0.0114 0.0643-0.0302 0.20259 0 0.26108 0.0896 0.17299 0.32373 0.0491 0.4913 0.0581-0.19035-0.26125-0.38044-0.52299-0.58756-0.77048zm0.94998 1.2743c-0.0267 0.12765-0.11369 0.29415-0.18405 0.40076-0.16203 0.24564-0.38212 0.2571-0.61445 0.38807-0.19374 0.1095-0.27717 0.29223-0.39075 0.48263-0.12312 0.2057-0.19936 0.32998-0.14863 0.62803-0.16613 0.3284-0.41764 0.52959-0.7617 0.68582-0.10161 0.0458-0.24077 0.0629-0.33414 0.12978-0.0741 0.0535-0.11656 0.19638-0.22227 0.31467-0.13032 0.14461-0.26701 0.20563-0.33553 0.31611-0.0531 0.0855-0.071 0.25519-0.13021 0.36973-0.0797 0.15563-0.24835 0.23185-0.3526 0.38951-0.0475 0.0727-0.0796 0.22064-0.13161 0.31613-0.11782 0.21328-0.31895 0.36695-0.29735 0.55457 0.0218 0.18134 0.22803 0.21307 0.24208 0.37114 3e-3 0.0894-0.0592 0.14399-0.0555 0.24132 3e-3 0.14219 0.0992 0.242 0.11042 0.3514 0.0278 0.27509-0.0937 0.38487-0.14581 0.57293-0.0248 0.0898-0.0138 0.19094-0.0378 0.26109-0.0463 0.13768-0.23825 0.26196-0.24212 0.42474-2e-3 0.11574 0.11917 0.20876 0.12891 0.37119 3e-3 0.11212-0.0554 0.23149-0.0351 0.33446 0.0393 0.20158 0.4006 0.43606 0.55785 0.59266 0.21026 0.20964 0.48556 0.37185 0.5762 0.59274 0.0761 0.18756 0.0754 0.43152 0.22228 0.57294 0.10841 0.10434 0.28869 0.16944 0.42756 0.27797 0.12957 0.1012 0.27069 0.18885 0.40916 0.29633 0.22623 0.17647 0.56832 0.52814 0.92873 0.50103 0.18824-0.0129 0.38113-0.16682 0.59467-0.20465 0.21962-0.039 0.50468-0.0596 0.72624-0.0364 0.16974 0.0168 0.34457 0.11815 0.52101 0.11004 0.1863-0.0114 0.39995-0.14913 0.61164-0.24127 0.17032-0.0737 0.37934-0.15582 0.60876-0.21595 0.10529-0.70484 0.16141-1.427 0.16141-2.162 0-2.9589-0.88764-5.7015-2.4068-7.9874zm-23.978 4.8559c-0.30881 0.0171-0.51109 0.0308-0.68665 0.11007-0.40219 0.18243-0.32452 0.72417-0.72635 0.85236-0.13887 0.0439-0.32971 0.0464-0.48266 0.0742-0.13213 0.0243-0.29298 0.0957-0.429 0.0929-0.0378-4.6e-4 -0.0913-0.0288-0.13878-0.0431-0.0354 0.25401-0.0651 0.51088-0.0881 0.76905 0.38231 0.0726 0.57961 0.57804 0.91749 0.74511 0.0926 0.046 0.21349 0.0488 0.33266 0.0747 0.0958 0.0217 0.16927 0.0618 0.26187 0.0932 0.19666 0.0663 0.43741 0.0585 0.59469 0.12849 0.2369 0.10482 0.41068 0.54868 0.61444 0.66749 0.0114 0.11973-0.0238 0.2805 0.0189 0.36969 0.0959 0.1302 0.23211 0.10131 0.39069 0.18628 0.18976 0.10199 0.24783 0.36545 0.42761 0.44594 0.0619 0.0276 0.21761 0.0239 0.31571 0.054 0.24638 0.074 0.3268 0.35846 0.53801 0.29637 0.1385-0.0404 0.12757-0.18273 0.15005-0.31472 0.0915-0.0984 0.19144-0.25545 0.33411-0.25824 0.23096-0.0114 0.25154 0.23789 0.33553 0.46145 0.0477 0.12639 0.17149 0.23646 0.20388 0.36974 0.0577 0.23023 0.029 0.91939-0.0202 1.057-0.0583 0.16883-0.28758 0.24041-0.42897 0.4276-0.0665 0.0879-0.0982 0.21632-0.14866 0.278-0.091 0.11055-0.22634 0.13939-0.29444 0.24132-0.0382 0.0575-0.0759 0.18062-0.11336 0.25823-0.11161 0.23579-0.26094 0.40283-0.16708 0.68586 0.0391 0.11647 0.22181 0.19454 0.2223 0.33162 5.3e-4 0.16133-0.34424 0.30577-0.3709 0.48262-0.0202 0.13161 0.10663 0.36646 0.1486 0.53768 0.0307 0.12941 0.27602 0.21029 0.35256 0.29635 0.13046 0.14601 0.23475 0.35287 0.35392 0.53627 0.23569 0.36072 0.42039 0.80063 0.64987 1.1501 0.12123 0.18306 0.29153 0.34764 0.37232 0.53765 0.041 0.0957 0.0354 0.21019 0.0732 0.29636 0.13278 0.29885 0.71942 0.61088 1.0222 0.75923 0.14168 0.0684 0.29894 0.0931 0.42899 0.16508 0.19699 0.10951 0.58719 0.40361 0.68666 0.57581 0.0888 0.15475 0.14378 0.53145 0.18684 0.77753 0.0578 0.32523 6.6e-4 0.57496 0.0189 0.92716 0.0114 0.1905 0.0724 0.382 0.0749 0.57297 7.4e-4 0.0667-0.0354 0.11658-0.038 0.18484-1.1e-4 0.0107 4e-3 0.0239 4e-3 0.035 1.8258 0.82355 3.8489 1.2926 5.9901 1.2926 0.38684 0 0.76914-0.0203 1.1482-0.05 0.0171-0.0285 0.0318-0.0582 0.0529-0.0847 0.0875-0.11421 0.1648-0.21419 0.22236-0.31473 0.055-0.33832-0.13539-0.57462-0.0555-0.87065 0.0889-0.33268 0.55016-0.53581 0.87361-0.68594 0.11114-0.0516 0.22508-0.1351 0.31564-0.16649 0.22385-0.0777 0.50331-0.0352 0.7079-0.11006 0.34829-0.12704 0.38466-0.49941 0.55638-0.8157 0.0814-0.1497 0.18803-0.29975 0.2039-0.40639 0.0137-0.0957-0.0352-0.18607-0.0202-0.29918 0.0167-0.11187 0.11749-0.20867 0.14864-0.33165 0.0405-0.16046 0.0583-0.39558 0.0583-0.57432 0-0.14675-0.0686-0.27547-0.0741-0.40787-0.0243-0.48056 0.17416-0.53432 0.35255-0.79588 0.0896-0.1299 0.123-0.27805 0.18545-0.37117 0.29951-0.44533 0.8191-0.66033 0.7815-1.3336-0.0114-0.22276-0.15268-0.72622-0.31711-0.7973-0.094-0.0405-0.30987-3e-3 -0.44599-0.0553-0.43933-0.16332-0.69716-0.70619-1.1524-0.74091-0.0969-0.0114-0.18644 0.0396-0.29586 0.0377-0.18018-0.0114-0.45183-0.12576-0.65126-0.14818-0.12679-0.0129-0.2963 0.0373-0.37241 0-0.11596-0.0563-0.12783-0.26947-0.22227-0.33305-0.0743-0.0519-0.22053-0.0686-0.33412-0.11282-0.18303-0.0695-0.32819-0.15184-0.53937-0.16649-0.065-3e-3 -0.14637 0.0308-0.22228 0.0202-0.11684-0.0202-0.20931-0.15757-0.3171-0.22299-0.13511-0.0823-0.25992-0.12164-0.31575-0.23848 0.12204-0.39906-0.21525-0.51029-0.29734-0.74088-0.0389-0.10806-0.0215-0.23807-0.0555-0.33444-0.0489-0.13809-0.1854-0.21786-0.33554-0.33303-0.26897-0.20636-0.50755-0.40011-0.89194-0.44737-0.169-0.0217-0.33664 0.0509-0.54084 0.0377-0.21634-0.0129-0.48799-0.20231-0.64979-0.38668-0.15737-0.18001-0.23388-0.34155-0.37096-0.42759-0.12983-0.0833-0.30215-0.0813-0.39076-0.1651-0.0394-0.0366-0.0324-0.0994-0.075-0.18632-0.0651-0.13473-0.17491-0.20967-0.0932-0.37111-0.14814-0.076-0.15222 0.14088-0.31429 0.11282-0.14454-0.20438-0.26656-0.30121-0.59466-0.2413-0.15022 0.0277-0.2341 0.21687-0.40914 0.2216-0.14357 0.0114-0.25637-0.15948-0.44595-0.18633-0.14314-0.0202-0.3059 0.0382-0.40777 0.0198-0.15864-0.0315-0.2076-0.16325-0.35253-0.25826-0.10628-0.0694-0.31274-0.18819-0.37234-0.18628-0.18683 0.0114-0.31997 0.39576-0.57762 0.2597-0.12523-0.15821 0.20395-0.24155 0.0555-0.38957-0.11258-0.11223-0.20723 0.0514-0.29728 0.11298-0.10324 0.0708-0.20025 0.14136-0.31433 0.18346-0.25534 0.0951-0.41491 0.0456-0.61444 0.14818-0.18476 0.0952-0.19264 0.25498-0.29731 0.44452-0.0858 0.15526-0.28054 0.38149-0.40918 0.39087-0.15576 0.0114-0.30466-0.21706-0.44594-0.27796-0.4257-0.18382-0.63191 0.16319-0.98534 0.1679-0.32805 0.0114-0.7966-0.528-0.78014-0.83542 3e-3 -0.18754 0.10823-0.47212 0.13022-0.70421 0.0203-0.18455 0.14655-0.29575 0.14871-0.46427 3e-3 -0.22503-0.29948-0.39804-0.44603-0.42476-0.34726-0.0636-0.82938 0.13929-1.2274-0.0202-0.0757-0.12555 0.0892-0.21234 0.13164-0.33445 0.0244-0.0692 0.0102-0.16211 0.0353-0.23851 0.0437-0.11801 0.16815-0.20946 0.22361-0.33444 0.0409-0.0952 0.0521-0.23304 0.0932-0.35139 0.0493-0.13475 0.13816-0.22158 0.14868-0.31609 0.0129-0.12481-0.0335-0.26913-0.13172-0.35139zm4.9694 3.9217c0.12601 0.0114 0.14176 0.27124 0.0127 0.29214-0.139 0.0218-0.20965-0.21729-0.0745-0.27947 0.023-0.0114 0.0444-0.0114 0.0621-0.0107v-2e-3z" fill="url(#g)"/>
   <g transform="matrix(.95161 0 0 .95161 -17.496 34.423)" stroke-width=".79954">
    <g transform="matrix(.090211 0 0 .090211 438.34 482.08)" stroke-width=".79954">
     <g transform="matrix(1.2041 0 0 1.2041 -35.719 -130.85)" stroke-width=".79954">
      <g transform="matrix(9.2063 0 0 9.2063 -4262.7 -3635.2)">
       <g transform="matrix(.090211 0 0 .090211 438.34 482.08)" stroke-width=".79954">
        <g transform="matrix(1.2041 0 0 1.2041 63.521 -89.411)" stroke-width=".79954">
         <g transform="matrix(15.075 0 0 15.075 -6218.9 -8263.6)" stroke-width=".79954">
          <circle cx="400.57" cy="531.8" r="0" fill="url(#b)"/>
         </g>
        </g>
       </g>
      </g>
      <g transform="translate(-14.074 -2.0105)">
       <g transform="matrix(.95946 0 0 .95946 -17.711 32.814)" stroke-width=".79954">
        <g transform="translate(107.07 39.919)" stroke-width=".79954">
         <g transform="translate(2.9511e-6 -.87876)" stroke-width=".79954">
          <g transform="matrix(1.0511 0 0 1.0511 16.46 -22.65)" stroke-width=".79954">
           <g transform="matrix(1.2632 0 0 1.2632 90.227 -154.96)" fill="url(#a)">
            <g transform="matrix(8.7971 0 0 8.7971 -3865.9 -4050.8)" fill="url(#a)">
             <g transform="matrix(1.6781 0 0 1.6781 -263.92 -368.65)" fill="url(#a)"></g>
            </g>
           </g>
          </g>
         </g>
        </g>
       </g>
      </g>
     </g>
    </g>
   </g>
  </g>
 </g>
 <path class="shp86" d="m43.174 14.54-0.87755 2.3442c-0.05714 0.15374 0.0014 0.35782 0.13061 0.45714l1.0327 0.79046c0.12653 0.0966 0.34286 0.10204 0.47619 0.0068l2.0354-1.453c0.13333-0.09523 0.33606-0.07892 0.4517 0.0381l0.85308 0.85308c0.11836 0.11836 0.13333 0.31837 0.0381 0.4517l-1.453 2.0341c-0.09524 0.13333-0.09116 0.34694 0.0081 0.47619l0.79184 1.0327c0.0966 0.12653 0.30476 0.18775 0.45714 0.13061l2.3415-0.87755c0.15374-0.05714 0.34422 0.01089 0.42585 0.15374l0.60271 1.0435c0.08435 0.14558 0.04625 0.3415-0.08027 0.44626l-1.9319 1.5905c-0.12653 0.10476-0.17823 0.31156-0.11565 0.46122l0.4966 1.2013c0.06122 0.14694 0.2449 0.25986 0.40816 0.2449l2.4912-0.24218c0.16326-0.01632 0.33061 0.09932 0.37279 0.2585l0.31156 1.1646c0.04354 0.16191-0.04354 0.3415-0.19319 0.40952l-2.2789 1.0367c-0.14966 0.06803-0.25306 0.25442-0.23129 0.41633l0.17006 1.2884c0.0204 0.15782 0.17006 0.31428 0.33197 0.3415l2.468 0.41088c0.16191 0.02721 0.29251 0.18231 0.29251 0.34558v1.2054c0 0.16735-0.13061 0.31973-0.29251 0.34558l-2.4653 0.41088c-0.16191 0.02721-0.3102 0.17959-0.33061 0.3415l-0.16871 1.2898c-0.02041 0.15782 0.08299 0.3483 0.23129 0.41632l2.2748 1.0354c0.1483 0.06803 0.23537 0.2517 0.19319 0.40952l-0.31156 1.1646c-0.04354 0.16191-0.20952 0.27483-0.37279 0.2585l-2.4884-0.24081c-0.16326-0.01633-0.34558 0.09388-0.40816 0.2449l-0.49932 1.2013c-0.06122 0.14694-0.01089 0.35782 0.11565 0.46122l1.9319 1.5905c0.12653 0.10476 0.16326 0.3034 0.08027 0.44626l-0.60271 1.0435c-0.08435 0.14558-0.27347 0.21088-0.42721 0.15374l-2.3442-0.87759c-0.15374-0.05714-0.35782 0.0014-0.45714 0.13061l-0.79046 1.0327c-0.0966 0.12653-0.10204 0.34286-0.0068 0.47619l1.453 2.0354c0.09524 0.13333 0.07892 0.33605-0.0381 0.4517l-0.85308 0.85308c-0.11836 0.11836-0.31837 0.13333-0.4517 0.0381l-2.034-1.453c-0.13333-0.09524-0.34694-0.09116-0.47619 0.0081l-1.0327 0.79184c-0.12653 0.0966-0.18775 0.30476-0.13061 0.45714l0.87755 2.3415c0.05714 0.15374-0.01089 0.34421-0.15374 0.42585l-1.0435 0.60271c-0.14558 0.08435-0.3415 0.04626-0.44626-0.08027l-1.5904-1.9319c-0.10479-0.12652-0.31159-0.17822-0.46125-0.11564l-1.2013 0.49659c-0.14694 0.06122-0.25986 0.2449-0.2449 0.40816l0.24218 2.4912c0.01633 0.16326-0.09932 0.33061-0.2585 0.37279l-1.1646 0.31156c-0.16191 0.04354-0.3415-0.04354-0.40952-0.19319l-1.0367-2.2789c-0.06803-0.14966-0.25442-0.25306-0.41632-0.23129l-1.2884 0.17006c-0.15782 0.0204-0.31429 0.17006-0.3415 0.33197l-0.41088 2.468c-0.02721 0.16191-0.18231 0.29251-0.34558 0.29251h-1.2054c-0.16735 0-0.31973-0.13061-0.34558-0.29251l-0.41088-2.4653c-0.02721-0.16191-0.17959-0.3102-0.3415-0.33061l-1.2898-0.16871c-0.15782-0.0204-0.3483 0.08299-0.41632 0.23129l-1.0354 2.2748c-0.06803 0.1483-0.2517 0.23537-0.40952 0.19319l-1.1646-0.31156c-0.16191-0.04354-0.27483-0.20952-0.2585-0.37279l0.24081-2.4884c0.01633-0.16326-0.09388-0.34558-0.2449-0.40816l-1.2013-0.49932c-0.14694-0.06122-0.35782-0.01089-0.46122 0.11565l-1.5905 1.9319c-0.10476 0.12653-0.3034 0.16326-0.44626 0.08027l-1.0435-0.60271c-0.14558-0.08435-0.21088-0.27347-0.15374-0.42721l0.87755-2.3442c0.05714-0.15374-0.0014-0.35782-0.13061-0.45714l-1.0327-0.79046c-0.12653-0.0966-0.34286-0.10204-0.47619-0.0068l-2.0354 1.453c-0.13333 0.09523-0.33606 0.07892-0.4517-0.0381l-0.85308-0.85308c-0.11836-0.11836-0.13333-0.31837-0.0381-0.4517l1.453-2.034c0.09524-0.13333 0.09116-0.34694-0.0081-0.47619l-0.79184-1.0327c-0.0966-0.12653-0.30476-0.18775-0.45714-0.13061l-2.3415 0.87755c-0.15374 0.05714-0.34422-0.01089-0.42585-0.15374l-0.60271-1.0435c-0.08435-0.14558-0.04625-0.3415 0.08027-0.44626l1.9319-1.5905c0.12653-0.10476 0.17823-0.31156 0.11565-0.46122l-0.49659-1.2013c-0.06122-0.14694-0.2449-0.25986-0.40816-0.2449l-2.4912 0.24218c-0.16326 0.01633-0.33061-0.09932-0.37279-0.2585l-0.31156-1.1646c-0.04354-0.16191 0.04354-0.3415 0.19319-0.40952l2.2789-1.0367c0.14966-0.06803 0.25306-0.25442 0.23129-0.41632l-0.17006-1.2884c-0.02041-0.15782-0.17006-0.31428-0.33197-0.3415l-2.468-0.41088c-0.16191-0.02721-0.29251-0.18231-0.29251-0.34558v-1.2054c0-0.16735 0.13061-0.31973 0.29251-0.34558l2.4653-0.41088c0.16191-0.02721 0.3102-0.17959 0.33061-0.3415l0.16871-1.2898c0.02041-0.15782-0.08299-0.3483-0.23129-0.41632l-2.2748-1.0354c-0.1483-0.06803-0.23537-0.2517-0.19319-0.40952l0.31156-1.1646c0.04354-0.16191 0.20952-0.27483 0.37279-0.2585l2.4884 0.24081c0.16326 0.01633 0.34558-0.09387 0.40816-0.2449l0.49932-1.2013c0.06122-0.14694 0.01089-0.35782-0.11565-0.46122l-1.9319-1.5905c-0.12653-0.10476-0.16326-0.3034-0.08027-0.44626l0.60271-1.0435c0.08436-0.14558 0.27347-0.21088 0.42721-0.15374l2.3442 0.87755c0.15374 0.05714 0.35782-0.0014 0.45714-0.13061l0.79046-1.0327c0.0966-0.12653 0.10204-0.34286 0.0068-0.47619l-1.453-2.0354c-0.09524-0.13333-0.07892-0.33605 0.0381-0.4517l0.85308-0.85308c0.11836-0.11836 0.31837-0.13333 0.4517-0.0381l2.034 1.453c0.13333 0.09524 0.34694 0.09116 0.47619-0.0081l1.0327-0.79184c0.12653-0.0966 0.18775-0.30476 0.13061-0.45714l-0.87755-2.3415c-0.05714-0.15374 0.01089-0.34422 0.15374-0.42585l1.0435-0.60271c0.14558-0.08436 0.3415-0.04626 0.44626 0.08027l1.5905 1.9319c0.10476 0.12653 0.31156 0.17823 0.46122 0.11565l1.2013-0.4966c0.14694-0.06122 0.25986-0.2449 0.2449-0.40816l-0.24214-2.4912c-0.01633-0.16326 0.09932-0.33061 0.2585-0.37279l1.1646-0.31156c0.16191-0.04354 0.3415 0.04354 0.40952 0.19319l1.0367 2.2789c0.06803 0.14966 0.25442 0.25306 0.41632 0.23129l1.2884-0.17006c0.15782-0.0204 0.31428-0.17006 0.3415-0.33197l0.41088-2.468c0.02721-0.16191 0.18231-0.29251 0.34558-0.29251h1.2054c0.16735 0 0.31973 0.13061 0.34558 0.29251l0.41088 2.4653c0.02721 0.16191 0.17959 0.3102 0.3415 0.33061l1.2898 0.16871c0.15782 0.02041 0.3483-0.08299 0.41632-0.23129l1.0354-2.2748c0.06803-0.1483 0.2517-0.23537 0.40952-0.19319l1.1646 0.31156c0.16191 0.04354 0.27483 0.20952 0.2585 0.37279l-0.24082 2.4884c-0.01633 0.16326 0.09388 0.34558 0.2449 0.40816l1.2013 0.49932c0.14694 0.06122 0.35782 0.01089 0.46122-0.11565l1.5905-1.9319c0.10476-0.12653 0.3034-0.16326 0.44626-0.08027l1.0435 0.60271c0.14558 0.08435 0.21088 0.27347 0.15374 0.42721zm-3.9945 4.9946c-3.3823-1.9537-7.2285-2.3782-10.737-1.4884-0.67619 0.17143-0.27891 0.07755-0.27891 0.07755-0.94149 0.32109-1.317 1.2911-0.84216 2.1565 0 0-0.27347-0.49932 0.02177 0.0381 1.4068 2.5673 4.2231 7.7047 4.2231 7.7047 0.63672 1.1619 2.2272 2.0816 3.5537 2.0544 0 0 6.2392-0.12925 9.3604-0.19456 0.57961-0.01225 0 0 0 0 0.96052-0.02041 1.585-0.82855 1.3755-1.7333-0.97413-3.5075-3.2721-6.6502-6.6747-8.6149zm-0.23537 25.057c3.4163-1.8939 5.7604-4.9714 6.8052-8.438 0.20136-0.66803 0.07755-0.27891 0.07755-0.27891 0.20952-0.9728-0.42857-1.7932-1.4149-1.8327 0 0 0.5687 0.02313-0.04354-0.0014-2.9251-0.11565-8.7781-0.3483-8.7781-0.3483-1.3238-0.05306-2.932 0.83671-3.5918 1.9877 0 0-3.102 5.4147-4.6544 8.1239-0.28843 0.5034 0 0 0 0-0.47755 0.83401-0.10476 1.785 0.77822 2.0721 0 0-0.55784-0.1551 0 0 3.5088 0.97143 7.3865 0.62041 10.822-1.2844zm-17.032-2.2925c0.6898 0.62178 1.7006 0.46802 2.1837-0.36326 0 0-0.29115 0.50068 0 0 1.5701-2.6979 4.7075-8.0922 4.7075-8.0922 0.66666-1.1469 0.63402-2.9837-0.07346-4.1048 0 0-3.1279-4.9537-4.6912-7.4283-0.32789-0.51837-0.02313-0.03674-0.02313-0.03674-0.52653-0.83401-1.5564-0.97688-2.2939-0.30884 0 0 0.27483-0.30204-0.20272 0.2068-2.4789 2.6381-3.9727 6.2066-3.9047 10.113 0.06803 3.9279 1.7034 7.461 4.2993 10.014z" filter="url(#i)" opacity=".15" stroke-width="2.6682"/>
 <path id="gear" class="shp86" d="m43.174 14.54-0.87755 2.3442c-0.05714 0.15374 0.0014 0.35782 0.13061 0.45714l1.0327 0.79046c0.12653 0.0966 0.34286 0.10204 0.47619 0.0068l2.0354-1.453c0.13333-0.09523 0.33606-0.07892 0.4517 0.0381l0.85308 0.85308c0.11836 0.11836 0.13333 0.31837 0.0381 0.4517l-1.453 2.0341c-0.09524 0.13333-0.09116 0.34694 0.0081 0.47619l0.79184 1.0327c0.0966 0.12653 0.30476 0.18775 0.45714 0.13061l2.3415-0.87755c0.15374-0.05714 0.34422 0.01089 0.42585 0.15374l0.60271 1.0435c0.08435 0.14558 0.04625 0.3415-0.08027 0.44626l-1.9319 1.5905c-0.12653 0.10476-0.17823 0.31156-0.11565 0.46122l0.4966 1.2013c0.06122 0.14694 0.2449 0.25986 0.40816 0.2449l2.4912-0.24218c0.16326-0.01632 0.33061 0.09932 0.37279 0.2585l0.31156 1.1646c0.04354 0.16191-0.04354 0.3415-0.19319 0.40952l-2.2789 1.0367c-0.14966 0.06803-0.25306 0.25442-0.23129 0.41633l0.17006 1.2884c0.0204 0.15782 0.17006 0.31428 0.33197 0.3415l2.468 0.41088c0.16191 0.02721 0.29251 0.18231 0.29251 0.34558v1.2054c0 0.16735-0.13061 0.31973-0.29251 0.34558l-2.4653 0.41088c-0.16191 0.02721-0.3102 0.17959-0.33061 0.3415l-0.16871 1.2898c-0.02041 0.15782 0.08299 0.3483 0.23129 0.41632l2.2748 1.0354c0.1483 0.06803 0.23537 0.2517 0.19319 0.40952l-0.31156 1.1646c-0.04354 0.16191-0.20952 0.27483-0.37279 0.2585l-2.4884-0.24081c-0.16326-0.01633-0.34558 0.09388-0.40816 0.2449l-0.49932 1.2013c-0.06122 0.14694-0.01089 0.35782 0.11565 0.46122l1.9319 1.5905c0.12653 0.10476 0.16326 0.3034 0.08027 0.44626l-0.60271 1.0435c-0.08435 0.14558-0.27347 0.21088-0.42721 0.15374l-2.3442-0.87759c-0.15374-0.05714-0.35782 0.0014-0.45714 0.13061l-0.79046 1.0327c-0.0966 0.12653-0.10204 0.34286-0.0068 0.47619l1.453 2.0354c0.09524 0.13333 0.07892 0.33605-0.0381 0.4517l-0.85308 0.85308c-0.11836 0.11836-0.31837 0.13333-0.4517 0.0381l-2.034-1.453c-0.13333-0.09524-0.34694-0.09116-0.47619 0.0081l-1.0327 0.79184c-0.12653 0.0966-0.18775 0.30476-0.13061 0.45714l0.87755 2.3415c0.05714 0.15374-0.01089 0.34421-0.15374 0.42585l-1.0435 0.60271c-0.14558 0.08435-0.3415 0.04626-0.44626-0.08027l-1.5904-1.9319c-0.10479-0.12652-0.31159-0.17822-0.46125-0.11564l-1.2013 0.49659c-0.14694 0.06122-0.25986 0.2449-0.2449 0.40816l0.24218 2.4912c0.01633 0.16326-0.09932 0.33061-0.2585 0.37279l-1.1646 0.31156c-0.16191 0.04354-0.3415-0.04354-0.40952-0.19319l-1.0367-2.2789c-0.06803-0.14966-0.25442-0.25306-0.41632-0.23129l-1.2884 0.17006c-0.15782 0.0204-0.31429 0.17006-0.3415 0.33197l-0.41088 2.468c-0.02721 0.16191-0.18231 0.29251-0.34558 0.29251h-1.2054c-0.16735 0-0.31973-0.13061-0.34558-0.29251l-0.41088-2.4653c-0.02721-0.16191-0.17959-0.3102-0.3415-0.33061l-1.2898-0.16871c-0.15782-0.0204-0.3483 0.08299-0.41632 0.23129l-1.0354 2.2748c-0.06803 0.1483-0.2517 0.23537-0.40952 0.19319l-1.1646-0.31156c-0.16191-0.04354-0.27483-0.20952-0.2585-0.37279l0.24081-2.4884c0.01633-0.16326-0.09388-0.34558-0.2449-0.40816l-1.2013-0.49932c-0.14694-0.06122-0.35782-0.01089-0.46122 0.11565l-1.5905 1.9319c-0.10476 0.12653-0.3034 0.16326-0.44626 0.08027l-1.0435-0.60271c-0.14558-0.08435-0.21088-0.27347-0.15374-0.42721l0.87755-2.3442c0.05714-0.15374-0.0014-0.35782-0.13061-0.45714l-1.0327-0.79046c-0.12653-0.0966-0.34286-0.10204-0.47619-0.0068l-2.0354 1.453c-0.13333 0.09523-0.33606 0.07892-0.4517-0.0381l-0.85308-0.85308c-0.11836-0.11836-0.13333-0.31837-0.0381-0.4517l1.453-2.034c0.09524-0.13333 0.09116-0.34694-0.0081-0.47619l-0.79184-1.0327c-0.0966-0.12653-0.30476-0.18775-0.45714-0.13061l-2.3415 0.87755c-0.15374 0.05714-0.34422-0.01089-0.42585-0.15374l-0.60271-1.0435c-0.08435-0.14558-0.04625-0.3415 0.08027-0.44626l1.9319-1.5905c0.12653-0.10476 0.17823-0.31156 0.11565-0.46122l-0.49659-1.2013c-0.06122-0.14694-0.2449-0.25986-0.40816-0.2449l-2.4912 0.24218c-0.16326 0.01633-0.33061-0.09932-0.37279-0.2585l-0.31156-1.1646c-0.04354-0.16191 0.04354-0.3415 0.19319-0.40952l2.2789-1.0367c0.14966-0.06803 0.25306-0.25442 0.23129-0.41632l-0.17006-1.2884c-0.02041-0.15782-0.17006-0.31428-0.33197-0.3415l-2.468-0.41088c-0.16191-0.02721-0.29251-0.18231-0.29251-0.34558v-1.2054c0-0.16735 0.13061-0.31973 0.29251-0.34558l2.4653-0.41088c0.16191-0.02721 0.3102-0.17959 0.33061-0.3415l0.16871-1.2898c0.02041-0.15782-0.08299-0.3483-0.23129-0.41632l-2.2748-1.0354c-0.1483-0.06803-0.23537-0.2517-0.19319-0.40952l0.31156-1.1646c0.04354-0.16191 0.20952-0.27483 0.37279-0.2585l2.4884 0.24081c0.16326 0.01633 0.34558-0.09387 0.40816-0.2449l0.49932-1.2013c0.06122-0.14694 0.01089-0.35782-0.11565-0.46122l-1.9319-1.5905c-0.12653-0.10476-0.16326-0.3034-0.08027-0.44626l0.60271-1.0435c0.08436-0.14558 0.27347-0.21088 0.42721-0.15374l2.3442 0.87755c0.15374 0.05714 0.35782-0.0014 0.45714-0.13061l0.79046-1.0327c0.0966-0.12653 0.10204-0.34286 0.0068-0.47619l-1.453-2.0354c-0.09524-0.13333-0.07892-0.33605 0.0381-0.4517l0.85308-0.85308c0.11836-0.11836 0.31837-0.13333 0.4517-0.0381l2.034 1.453c0.13333 0.09524 0.34694 0.09116 0.47619-0.0081l1.0327-0.79184c0.12653-0.0966 0.18775-0.30476 0.13061-0.45714l-0.87755-2.3415c-0.05714-0.15374 0.01089-0.34422 0.15374-0.42585l1.0435-0.60271c0.14558-0.08436 0.3415-0.04626 0.44626 0.08027l1.5905 1.9319c0.10476 0.12653 0.31156 0.17823 0.46122 0.11565l1.2013-0.4966c0.14694-0.06122 0.25986-0.2449 0.2449-0.40816l-0.24214-2.4912c-0.01633-0.16326 0.09932-0.33061 0.2585-0.37279l1.1646-0.31156c0.16191-0.04354 0.3415 0.04354 0.40952 0.19319l1.0367 2.2789c0.06803 0.14966 0.25442 0.25306 0.41632 0.23129l1.2884-0.17006c0.15782-0.0204 0.31428-0.17006 0.3415-0.33197l0.41088-2.468c0.02721-0.16191 0.18231-0.29251 0.34558-0.29251h1.2054c0.16735 0 0.31973 0.13061 0.34558 0.29251l0.41088 2.4653c0.02721 0.16191 0.17959 0.3102 0.3415 0.33061l1.2898 0.16871c0.15782 0.02041 0.3483-0.08299 0.41632-0.23129l1.0354-2.2748c0.06803-0.1483 0.2517-0.23537 0.40952-0.19319l1.1646 0.31156c0.16191 0.04354 0.27483 0.20952 0.2585 0.37279l-0.24082 2.4884c-0.01633 0.16326 0.09388 0.34558 0.2449 0.40816l1.2013 0.49932c0.14694 0.06122 0.35782 0.01089 0.46122-0.11565l1.5905-1.9319c0.10476-0.12653 0.3034-0.16326 0.44626-0.08027l1.0435 0.60271c0.14558 0.08435 0.21088 0.27347 0.15374 0.42721zm-3.9945 4.9946c-3.3823-1.9537-7.2285-2.3782-10.737-1.4884-0.67619 0.17143-0.27891 0.07755-0.27891 0.07755-0.94149 0.32109-1.317 1.2911-0.84216 2.1565 0 0-0.27347-0.49932 0.02177 0.0381 1.4068 2.5673 4.2231 7.7047 4.2231 7.7047 0.63672 1.1619 2.2272 2.0816 3.5537 2.0544 0 0 6.2392-0.12925 9.3604-0.19456 0.57961-0.01225 0 0 0 0 0.96052-0.02041 1.585-0.82855 1.3755-1.7333-0.97413-3.5075-3.2721-6.6502-6.6747-8.6149zm-0.23537 25.057c3.4163-1.8939 5.7604-4.9714 6.8052-8.438 0.20136-0.66803 0.07755-0.27891 0.07755-0.27891 0.20952-0.9728-0.42857-1.7932-1.4149-1.8327 0 0 0.5687 0.02313-0.04354-0.0014-2.9251-0.11565-8.7781-0.3483-8.7781-0.3483-1.3238-0.05306-2.932 0.83671-3.5918 1.9877 0 0-3.102 5.4147-4.6544 8.1239-0.28843 0.5034 0 0 0 0-0.47755 0.83401-0.10476 1.785 0.77822 2.0721 0 0-0.55784-0.1551 0 0 3.5088 0.97143 7.3865 0.62041 10.822-1.2844zm-17.032-2.2925c0.6898 0.62178 1.7006 0.46802 2.1837-0.36326 0 0-0.29115 0.50068 0 0 1.5701-2.6979 4.7075-8.0922 4.7075-8.0922 0.66666-1.1469 0.63402-2.9837-0.07346-4.1048 0 0-3.1279-4.9537-4.6912-7.4283-0.32789-0.51837-0.02313-0.03674-0.02313-0.03674-0.52653-0.83401-1.5564-0.97688-2.2939-0.30884 0 0 0.27483-0.30204-0.20272 0.2068-2.4789 2.6381-3.9727 6.2066-3.9047 10.113 0.06803 3.9279 1.7034 7.461 4.2993 10.014z" fill="url(#h)" stroke-width="2.6682"/>
</svg>
