<svg id="Apps-Opera" width="64" height="64" enable-background="new 0 0 1024 1024" image-rendering="optimizeSpeed" version="1.1" viewBox="0 0 64 64" xmlns="http://www.w3.org/2000/svg" xmlns:xlink="http://www.w3.org/1999/xlink">
 <defs>
  <linearGradient id="c" x1="500" x2="500" y1="4" y2="1024" gradientUnits="userSpaceOnUse">
   <stop stop-color="#d7d7d7" offset="0"/>
   <stop stop-color="#fff" offset="1"/>
  </linearGradient>
  <filter id="d" x="-.036" y="-.036" width="1.072" height="1.072" color-interpolation-filters="sRGB">
   <feGaussianBlur stdDeviation="9"/>
  </filter>
  <linearGradient id="b" x1="443.88" x2="443.88" y1="220.06" y2="820.06" gradientUnits="userSpaceOnUse">
   <stop stop-color="#6dc7f1" offset="0"/>
   <stop stop-color="#37a6e6" offset=".16667"/>
   <stop stop-color="#1a7fd4" offset=".5"/>
   <stop stop-color="#1463a5" offset="1"/>
  </linearGradient>
  <linearGradient id="a" x1="643.88" x2="643.88" y1="260.06" y2="780.06" gradientUnits="userSpaceOnUse">
   <stop stop-color="#1463a5" offset="0"/>
   <stop stop-color="#1a7fd4" offset=".26923"/>
   <stop stop-color="#6dc7f1" offset=".69231"/>
   <stop stop-color="#6dc7f1" offset="1"/>
  </linearGradient>
  <filter id="e" x="-.036" y="-.036" width="1.072" height="1.072" color-interpolation-filters="sRGB">
   <feGaussianBlur stdDeviation="14.16"/>
  </filter>
 </defs>
 <g transform="translate(-39 39)">
  <g id="background-circle-shadow" transform="matrix(.063513 0 0 .063513 38.513 -39.55)" stroke-width="15.683"></g>
  <g id="background-circle" transform="matrix(.063559 0 0 .063559 38.454 -39.546)" stroke-width="15.683">
   <g stroke-width="15.683">
    <path d="m966.1 378.45c-1-3.4-2-6.85-3.15-10.5-1.6-5.15-3.4-10.5-5.3-15.85-6.45-18.25-14.15-36.05-23.15-53.65-3.8-7.4-7.95-14.95-12.3-22.4-20.3-34.5-45.8-67.2-76.35-97.75-72.6-72.6-157.15-116.65-253.65-132.05-16.25-2.6-32.8-4.4-50.05-5.35-9.7-0.55-19.85-0.85-30.1-0.85-9.35 0-18.6 0.25-27.9 0.75-118.35 6.1-220.3 51.95-305.85 137.5q-138.25 138.25-138.25 333.75c0 130.35 46.1 241.65 138.25 333.8 56.7 56.65 120.55 95.9 191.1 117.55 36.75 11.25 74.8 17.85 114.75 19.95h0.4c8.5 0.45 16.6 0.7 24.5 0.7h3c10.3 0 20.5-0.3 30.1-0.8 2.5-0.15 4.75-0.3 6.95-0.45 20.2-1.45 39.9-4.05 58.7-7.7 7.95-1.55 15.8-3.3 23.4-5.15 80.8-20.3 152.15-61.6 214.65-124.1 48.6-48.6 84.4-102.5 107.35-161.8 18.45-47.65 28.65-98.8 30.55-153.5 0.2-6.05 0.3-12.25 0.3-18.5v-2-1c-0.2-40.65-4.95-79.5-14.3-117-1.1-4.35-2.35-9-3.65-13.6z" filter="url(#e)" opacity=".25"/>
    <path d="m966.1 378.45c-1-3.4-2-6.85-3.15-10.5-1.6-5.15-3.4-10.5-5.3-15.85-6.45-18.25-14.15-36.05-23.15-53.65-3.8-7.4-7.95-14.95-12.3-22.4-20.3-34.5-45.8-67.2-76.35-97.75-72.6-72.6-157.15-116.65-253.65-132.05-16.25-2.6-32.8-4.4-50.05-5.35-9.7-0.55-19.85-0.85-30.1-0.85-9.35 0-18.6 0.25-27.9 0.75-118.35 6.1-220.3 51.95-305.85 137.5q-138.25 138.25-138.25 333.75c0 130.35 46.1 241.65 138.25 333.8 56.7 56.65 120.55 95.9 191.1 117.55 36.75 11.25 74.8 17.85 114.75 19.95h0.4c8.5 0.45 16.6 0.7 24.5 0.7h3c10.3 0 20.5-0.3 30.1-0.8 2.5-0.15 4.75-0.3 6.95-0.45 20.2-1.45 39.9-4.05 58.7-7.7 7.95-1.55 15.8-3.3 23.4-5.15 80.8-20.3 152.15-61.6 214.65-124.1 48.6-48.6 84.4-102.5 107.35-161.8 18.45-47.65 28.65-98.8 30.55-153.5 0.2-6.05 0.3-12.25 0.3-18.5v-2-1c-0.2-40.65-4.95-79.5-14.3-117-1.1-4.35-2.35-9-3.65-13.6z" fill="url(#c)"/>
   </g>
  </g>
  <g transform="matrix(.063762 0 0 .063762 38.393 -38.978)" fill="#010101" filter="url(#d)" opacity=".2" stroke-width="93.632">
   <path d="m518.75 213.01c-165.67 0-300 134.33-300 300 0 160.9 126.69 292.18 285.73 299.64 4.7761 0.23881 9.4925 0.35821 14.269 0.35821 76.836 0 146.87-28.896 199.94-76.358-35.164 23.343-76.299 36.716-120.24 36.716-71.463 0-135.4-35.463-178.45-91.343-33.194-39.164-54.627-97.015-56.119-161.97v-14.149c1.4925-64.955 22.925-122.87 56.119-161.97 43.045-55.881 107.04-91.343 178.45-91.343 43.94 0 85.075 13.433 120.24 36.776-52.776-47.224-122.45-76.06-198.81-76.358h-1.1343z"/>
   <path d="m420 343.94c27.522-32.478 63.104-52.119 101.91-52.119 87.343 0 158.15 99.045 158.15 221.13 0 122.15-70.806 221.13-158.15 221.13-38.866 0-74.388-19.582-101.91-52.06 43.045 55.881 106.99 91.343 178.45 91.343 43.94 0 85.075-13.433 120.24-36.716 61.433-54.925 100.06-134.75 100.06-223.64 0-88.836-38.627-168.72-100.06-223.64-35.164-23.343-76.299-36.716-120.24-36.716-71.463 0-135.4 35.463-178.45 91.343"/>
  </g>
  <g transform="matrix(.063762 0 0 .063762 38.138 -39.427)" stroke-width="15.683">
   <g stroke-width="93.632">
    <path d="m518.87 214c-165.67 0-300 134.33-300 300 0 160.9 126.69 292.18 285.73 299.64 4.7761 0.23881 9.4925 0.35821 14.269 0.35821 76.836 0 146.87-28.896 199.94-76.358-35.164 23.343-76.299 36.716-120.24 36.716-71.463 0-135.4-35.463-178.45-91.343-33.194-39.164-54.627-97.015-56.119-161.97v-14.149c1.4925-64.955 22.925-122.87 56.119-161.97 43.045-55.881 107.04-91.343 178.45-91.343 43.94 0 85.075 13.433 120.24 36.776-52.776-47.224-122.45-76.06-198.81-76.358h-1.1343z" fill="url(#b)"/>
    <path d="m420.12 344.93c27.522-32.478 63.104-52.119 101.91-52.119 87.343 0 158.15 99.045 158.15 221.13 0 122.15-70.806 221.13-158.15 221.13-38.866 0-74.388-19.582-101.91-52.06 43.045 55.881 106.99 91.343 178.45 91.343 43.94 0 85.075-13.433 120.24-36.716 61.433-54.925 100.06-134.75 100.06-223.64 0-88.836-38.627-168.72-100.06-223.64-35.164-23.343-76.299-36.716-120.24-36.716-71.463 0-135.4 35.463-178.45 91.343" fill="url(#a)"/>
   </g>
  </g>
 </g>
</svg>
