<svg id="VirtualBox" width="64" height="64" enable-background="new 0 0 1024 1024" image-rendering="optimizeSpeed" version="1.1" viewBox="0 0 64 64" xmlns="http://www.w3.org/2000/svg">
 <defs>
  <linearGradient id="b" x1="540" x2="540" y1="4" y2="1024" gradientUnits="userSpaceOnUse">
   <stop stop-color="#383838" offset="0"/>
   <stop stop-color="#464646" offset="1"/>
  </linearGradient>
  <linearGradient id="a" x1="567.9" x2="567.9" y1="28.9" y2="1062.3" gradientTransform="matrix(1.3071,0,0,1.3071,-165.81,-170.27)" gradientUnits="userSpaceOnUse">
   <stop stop-color="#fff" offset="0"/>
   <stop stop-color="#d7d7d7" offset="1"/>
  </linearGradient>
  <filter id="c" x="-.035999" y="-.036001" width="1.072" height="1.072" color-interpolation-filters="sRGB">
   <feGaussianBlur stdDeviation="14.204168"/>
  </filter>
 </defs>
 <g id="ico-shadow" transform="matrix(.06336 0 0 .06336 -.6312 -.24954)" stroke-width="15.721">
  <g stroke-width="15.721">
   <path d="m727.2 91.75c-8.7-4.35-17.85-8.65-27.25-12.7-8.6-3.75-17.15-7.2-25.9-10.4-42.1-15.75-84.25-25.35-126.45-28.65-69.4-5.6-138.95 5.4-208.9 33-23.45 9.3-45.65 19.9-66.6 31.9-41.3 23.7-77.6 52.65-108.5 86.7q-51.6 56.6-84.55 132.55c-20.25 46.65-32.85 93.45-37.85 139.65-0.45 4.45-0.85 8.6-1.2 12.75-3.7 45.6-0.2 90.75 10.25 136 5.7 24.55 13.25 48.75 22.75 72.85 27.7 69.95 67.25 128.4 118.55 175.1 31.45 28.65 67.2 52.85 107.3 72.8 0.15 0.05 0.25 0.1 0.35 0.15 3.1 1.55 6.1 3 8.65 4.15 4.9 2.35 9.25 4.35 13.6 6.25 1.1 0.45 1.9 0.85 2.75 1.2 9.45 4.1 18.9 7.85 27.9 11.2 2.35 0.85 4.5 1.65 6.6 2.4 19.05 6.7 38.2 12.15 56.9 16.3 7.9 1.7 15.8 3.25 23.5 4.55 0.95 0.2 1.95 0.3 2.7 0.45 11.65 1.85 23.2 3.25 34.75 4.2 69.8 5.45 139.2-5.55 208.85-33.05 24.35-9.6 47.3-20.65 68.8-33.15 35.1-20.35 66.45-44.5 94.1-72.5 4.15-4.2 8.2-8.5 12.25-12.9 8.4-9.25 16.5-18.95 24.25-29.1 20.05-26.15 37.55-55.1 52.6-86.7 2.6-5.5 5.15-11.1 7.65-16.85 0.25-0.6 0.55-1.25 0.8-1.85 0.15-0.3 0.25-0.6 0.4-0.9 2.8-6.6 5.45-13.25 8.1-20 11.65-30.65 20.15-61.65 25.35-93.05 0.7-4.4 1.4-9.15 2.1-13.9 0.9-7.35 1.75-14.85 2.35-22.6 0.1-1.45 0.25-3.15 0.4-4.95 1.3-19.3 1.3-38.7 0.1-58.4-0.45-6.4-1-12.9-1.7-19.6-0.2-1.85-0.45-3.85-0.7-5.85-2-16.4-4.95-32.85-8.95-49.7-5.45-23.15-12.85-46.75-22.2-70.4-27.55-69.75-67-128.05-118.6-175.1-18.75-17.1-39.35-32.8-61.55-46.95-13.85-8.9-28.3-17.1-43.75-24.9z" filter="url(#c)" opacity=".25"/>
   <path d="m727.2 91.75c-8.7-4.35-17.85-8.65-27.25-12.7-8.6-3.75-17.15-7.2-25.9-10.4-42.1-15.75-84.25-25.35-126.45-28.65-69.4-5.6-138.95 5.4-208.9 33-23.45 9.3-45.65 19.9-66.6 31.9-41.3 23.7-77.6 52.65-108.5 86.7q-51.6 56.6-84.55 132.55c-20.25 46.65-32.85 93.45-37.85 139.65-0.45 4.45-0.85 8.6-1.2 12.75-3.7 45.6-0.2 90.75 10.25 136 5.7 24.55 13.25 48.75 22.75 72.85 27.7 69.95 67.25 128.4 118.55 175.1 31.45 28.65 67.2 52.85 107.3 72.8 0.15 0.05 0.25 0.1 0.35 0.15 3.1 1.55 6.1 3 8.65 4.15 4.9 2.35 9.25 4.35 13.6 6.25 1.1 0.45 1.9 0.85 2.75 1.2 9.45 4.1 18.9 7.85 27.9 11.2 2.35 0.85 4.5 1.65 6.6 2.4 19.05 6.7 38.2 12.15 56.9 16.3 7.9 1.7 15.8 3.25 23.5 4.55 0.95 0.2 1.95 0.3 2.7 0.45 11.65 1.85 23.2 3.25 34.75 4.2 69.8 5.45 139.2-5.55 208.85-33.05 24.35-9.6 47.3-20.65 68.8-33.15 35.1-20.35 66.45-44.5 94.1-72.5 4.15-4.2 8.2-8.5 12.25-12.9 8.4-9.25 16.5-18.95 24.25-29.1 20.05-26.15 37.55-55.1 52.6-86.7 2.6-5.5 5.15-11.1 7.65-16.85 0.25-0.6 0.55-1.25 0.8-1.85 0.15-0.3 0.25-0.6 0.4-0.9 2.8-6.6 5.45-13.25 8.1-20 11.65-30.65 20.15-61.65 25.35-93.05 0.7-4.4 1.4-9.15 2.1-13.9 0.9-7.35 1.75-14.85 2.35-22.6 0.1-1.45 0.25-3.15 0.4-4.95 1.3-19.3 1.3-38.7 0.1-58.4-0.45-6.4-1-12.9-1.7-19.6-0.2-1.85-0.45-3.85-0.7-5.85-2-16.4-4.95-32.85-8.95-49.7-5.45-23.15-12.85-46.75-22.2-70.4-27.55-69.75-67-128.05-118.6-175.1-18.75-17.1-39.35-32.8-61.55-46.95-13.85-8.9-28.3-17.1-43.75-24.9z" fill="url(#b)"/>
  </g>
 </g>
 <g transform="matrix(.047171 0 0 .047171 6.1445 6.3179)" stroke-width="17.164">
  <g transform="translate(11.812,7.4349)" fill="none" stroke-linecap="round" stroke-linejoin="round" stroke-width="42.399">
   <path d="m1045.1 537.01q0 24.443-1.9607 48.102c-10.326 120.12-59.277 223.91-147.05 311.68-99.34 99.34-219.27 149.01-359.78 149.01s-260.44-49.67-359.78-149.01c-87.642-87.642-136.66-191.3-146.98-311.68-1.3725-15.293-2.026-31.567-2.026-48.102 0-140.51 49.67-260.44 149.01-359.78s219.27-149.01 359.78-149.01 260.44 49.67 359.78 149.01 149.01 219.27 149.01 359.78z" stroke="#fff"/>
   <path d="m1043.1 585.11h-274.49l-113.72-377.75-96.726 498.53-115.03-498.53-139.86 661.4-83.655-283.64h-190.12c10.326 120.38 59.343 224.04 146.98 311.68 99.34 99.34 219.27 149.01 359.78 149.01s260.44-49.67 359.78-149.01c87.772-87.772 136.72-191.56 147.05-311.68z" stroke="url(#a)"/>
  </g>
 </g>
</svg>
