<svg id="Flamingo" width="64" height="64" enable-background="new 0 0 1024 1024" image-rendering="optimizeSpeed" version="1.1" viewBox="0 0 64 64" xmlns="http://www.w3.org/2000/svg">
 <defs>
  <linearGradient id="a" x1="540" x2="540" y1="4" y2="1024" gradientUnits="userSpaceOnUse">
   <stop stop-color="#202020" offset="0"/>
   <stop stop-color="#7c7c7c" offset="1"/>
  </linearGradient>
  <filter id="d" x="-.036" y="-.036" width="1.072" height="1.072" color-interpolation-filters="sRGB">
   <feGaussianBlur stdDeviation="14.16"/>
  </filter>
  <linearGradient id="c" x1="368.67" x2="368.3" y1="506.99" y2="546.94" gradientTransform="matrix(.96836 0 0 .96836 -333.51 -477.39)" gradientUnits="userSpaceOnUse">
   <stop stop-color="#9fea6d" offset="0"/>
   <stop stop-color="#3ae8ba" offset="1"/>
  </linearGradient>
  <linearGradient id="b" x1="373.45" x2="373.45" y1="546.8" y2="507.87" gradientTransform="matrix(-.48418 0 0 .5272 218.91 -235.69)" gradientUnits="userSpaceOnUse">
   <stop stop-color="#deffd8" offset="0"/>
   <stop stop-color="#fff" offset="1"/>
  </linearGradient>
  <filter id="f" x="-.058837" y="-.06121" width="1.1177" height="1.1224" color-interpolation-filters="sRGB">
   <feGaussianBlur stdDeviation="0.51482657"/>
  </filter>
  <filter id="e" x="-.056484" y="-.063983" width="1.113" height="1.128" color-interpolation-filters="sRGB">
   <feGaussianBlur stdDeviation="0.98847072"/>
  </filter>
 </defs>
 <g id="bgcircle" transform="matrix(.06356 0 0 .06356 -.54555 -.54555)" stroke-width="15.672">
  <g stroke-width="15.672">
   <path d="m966.1 378.45c-2.5-8.75-5.35-17.6-8.45-26.35-6.45-18.25-14.15-36.05-23.15-53.65-3.8-7.4-7.95-14.95-12.3-22.4-20.3-34.5-45.8-67.2-76.35-97.75-72.6-72.6-157.15-116.65-253.65-132.05-16.25-2.6-32.8-4.4-50.05-5.35-9.7-0.55-19.85-0.85-30.1-0.85-9.35 0-18.6 0.25-27.9 0.75-118.35 6.1-220.3 51.95-305.85 137.5q-138.25 138.25-138.25 333.75c0 130.35 46.1 241.65 138.25 333.8 85.55 85.5 187.5 131.35 305.85 137.5h0.4c8.5 0.45 16.6 0.7 24.5 0.7h8.45c8.55-0.1 16.8-0.4 24.65-0.8 2.5-0.15 4.75-0.3 6.95-0.45 20.2-1.45 39.9-4.05 58.7-7.7 7.95-1.55 15.8-3.3 23.4-5.15 80.8-20.3 152.15-61.6 214.65-124.1 48.6-48.6 84.4-102.5 107.35-161.8 16.6-42.9 26.55-88.65 29.75-137.45 0.35-5.2 0.6-10.6 0.8-16.05 0.2-6.05 0.3-12.25 0.3-18.5v-3c-0.2-40.65-4.95-79.5-14.3-117-1.1-4.35-2.35-9-3.65-13.6z" filter="url(#d)" opacity=".25"/>
   <path d="m966.1 378.45c-2.5-8.75-5.35-17.6-8.45-26.35-6.45-18.25-14.15-36.05-23.15-53.65-3.8-7.4-7.95-14.95-12.3-22.4-20.3-34.5-45.8-67.2-76.35-97.75-72.6-72.6-157.15-116.65-253.65-132.05-16.25-2.6-32.8-4.4-50.05-5.35-9.7-0.55-19.85-0.85-30.1-0.85-9.35 0-18.6 0.25-27.9 0.75-118.35 6.1-220.3 51.95-305.85 137.5q-138.25 138.25-138.25 333.75c0 130.35 46.1 241.65 138.25 333.8 85.55 85.5 187.5 131.35 305.85 137.5h0.4c8.5 0.45 16.6 0.7 24.5 0.7h8.45c8.55-0.1 16.8-0.4 24.65-0.8 2.5-0.15 4.75-0.3 6.95-0.45 20.2-1.45 39.9-4.05 58.7-7.7 7.95-1.55 15.8-3.3 23.4-5.15 80.8-20.3 152.15-61.6 214.65-124.1 48.6-48.6 84.4-102.5 107.35-161.8 16.6-42.9 26.55-88.65 29.75-137.45 0.35-5.2 0.6-10.6 0.8-16.05 0.2-6.05 0.3-12.25 0.3-18.5v-3c-0.2-40.65-4.95-79.5-14.3-117-1.1-4.35-2.35-9-3.65-13.6z" fill="url(#a)"/>
  </g>
 </g>
 <g transform="translate(4.0361 -1.1558)" stroke-width=".9746">
  <path d="m42.77 19.183c-3.9601-3.2228-9.2182-4.9976-14.806-4.9976-5.5876 0-10.846 1.7749-14.806 4.9976-3.9945 3.2508-6.1944 7.5833-6.1944 12.199 0 4.4058 2.0053 8.5525 5.6608 11.747-0.06592 0.14825-0.11823 0.30423-0.15162 0.4682l-1.2011 5.9083c-0.14282 0.70217 0.04912 1.1209 0.23508 1.3486 0.21502 0.26305 0.53372 0.40802 0.89747 0.40802 0.27465 0 0.56983-0.08102 0.87741-0.24092l6.9864-3.6295c2.4188 0.77856 5.0192 1.1868 7.6956 1.1868 5.5876 0 10.846-1.7749 14.806-4.9976 3.9944-3.2507 6.1943-7.5832 6.1943-12.199 0-4.6163-2.1998-8.9487-6.1942-12.2z" filter="url(#e)" opacity=".15"/>
  <path d="m42.77 19.183c-3.9601-3.2228-9.2182-4.9976-14.806-4.9976-5.5876 0-10.846 1.7749-14.806 4.9976-3.9945 3.2508-6.1944 7.5833-6.1944 12.199 0 4.4058 2.0053 8.5525 5.6608 11.747-0.06592 0.14825-0.11823 0.30423-0.15162 0.4682l-1.2011 5.9083c-0.14282 0.70217 0.04912 1.1209 0.23508 1.3486 0.21502 0.26305 0.53372 0.40802 0.89747 0.40802 0.27465 0 0.56983-0.08102 0.87741-0.24092l6.9864-3.6295c2.4188 0.77856 5.0192 1.1868 7.6956 1.1868 5.5876 0 10.846-1.7749 14.806-4.9976 3.9944-3.2507 6.1943-7.5832 6.1943-12.199 0-4.6163-2.1998-8.9487-6.1942-12.2z" fill="url(#c)"/>
  <path d="m30.77 34.66c1.98-1.7546 4.6091-2.7208 7.4029-2.7208s5.4229 0.9663 7.4029 2.7208c1.9972 1.7698 3.0972 4.1285 3.0972 6.6417 0 2.3987-1.0026 4.6562-2.8304 6.3957 0.03308 0.08076 0.05918 0.16563 0.07581 0.2549l0.60056 3.2166c0.07137 0.38229-0.02447 0.61024-0.11758 0.73424-0.10757 0.14321-0.26687 0.22214-0.44874 0.22214-0.13733 0-0.28491-0.04409-0.4387-0.13117l-3.4932-1.976c-1.2094 0.42386-2.5096 0.64611-3.8478 0.64611-2.7938 0-5.4228-0.96628-7.4028-2.7208-1.9972-1.7698-3.0971-4.1285-3.0971-6.6416 0-2.5132 1.0999-4.8719 3.0971-6.6418z" filter="url(#f)" opacity=".15"/>
  <path d="m30.77 34.66c1.98-1.7546 4.6091-2.7208 7.4029-2.7208s5.4229 0.9663 7.4029 2.7208c1.9972 1.7698 3.0972 4.1285 3.0972 6.6417 0 2.3987-1.0026 4.6562-2.8304 6.3957 0.03308 0.08076 0.05918 0.16563 0.07581 0.2549l0.60056 3.2166c0.07137 0.38229-0.02447 0.61024-0.11758 0.73424-0.10757 0.14321-0.26687 0.22214-0.44874 0.22214-0.13733 0-0.28491-0.04409-0.4387-0.13117l-3.4932-1.976c-1.2094 0.42386-2.5096 0.64611-3.8478 0.64611-2.7938 0-5.4228-0.96628-7.4028-2.7208-1.9972-1.7698-3.0971-4.1285-3.0971-6.6416 0-2.5132 1.0999-4.8719 3.0971-6.6418z" fill="url(#b)"/>
 </g>
</svg>
