<svg width="64" height="64" version="1.1" xmlns="http://www.w3.org/2000/svg">
 <defs>
  <linearGradient id="b" x1="399.57" x2="399.57" y1="545.8" y2="517.8" gradientTransform="matrix(2.1429 0 0 2.1429 -826.36 -1107.5)" gradientUnits="userSpaceOnUse">
   <stop stop-color="#3889e9" offset="0"/>
   <stop stop-color="#5ea5fb" offset="1"/>
  </linearGradient>
  <filter id="c" x="-.036" y="-.036" width="1.072" height="1.072" color-interpolation-filters="sRGB">
   <feGaussianBlur stdDeviation="0.41999874"/>
  </filter>
  <linearGradient id="e" x1="519.2" x2="519.2" y1="1024.8" y2="4.8" gradientTransform="matrix(.063586 0 0 .063583 -.55617 -.55285)" gradientUnits="userSpaceOnUse">
   <stop stop-color="#606060" offset="0"/>
   <stop stop-color="#414141" offset=".019551"/>
   <stop stop-color="#1e1e1e" offset="1"/>
  </linearGradient>
  <filter id="a" x="-.059412" y="-.060599" width="1.1188" height="1.1212" color-interpolation-filters="sRGB">
   <feGaussianBlur stdDeviation="0.207225"/>
  </filter>
 </defs>
 <circle transform="matrix(2.1429 0 0 2.1429 -826.36 -1107.5)" cx="400.57" cy="531.8" r="14" filter="url(#c)" opacity=".25" stroke-width=".73333"/>
 <circle cx="32.02" cy="32.044" r="30.001" fill-opacity="0" stroke-width="1.5715"/>
 <circle cx="32.02" cy="32.044" r="0" fill="url(#b)" stroke-width="1.5715"/>
 <path d="m50.249 8.1932q-3.8597-2.9725-8.444-4.5557-4.7372-1.6373-9.8021-1.6373c-16.57 0-30.003 13.432-30.003 30.001 0 15.158 11.245 27.684 25.845 29.709 0.71216 0.09855 1.4339 0.17485 2.1587 0.21936 0.66128 0.04133 1.3258 0.06994 1.9998 0.06994 16.567 0 29.997-13.432 29.997-29.999 0-1.3098-0.08266-2.6037-0.24481-3.8658-0.18758-1.4751-0.49279-2.909-0.88387-4.3046q-1.3289-4.6892-4.0822-8.7265-2.7215-3.9771-6.5401-6.9112z" fill="url(#e)" stroke-width=".99724"/>
 <g transform="matrix(3.7796 0 0 3.7796 5.3793 -1061.9)" stroke-width="1.612">
  <path d="m3.631 285.09-0.985 2.125c0.159-0.09 0.332-0.155 0.511-0.197l0.478 4.637 0.477-4.638c0.178 0.042 0.349 0.107 0.504 0.198zm5.261 6.237c0.09 0.159 0.155 0.332 0.197 0.511l-4.802 0.478 4.803 0.478a1.84 1.84 0 0 1-0.198 0.503l2.125-0.985z" filter="url(#a)" opacity=".75"/>
  <path d="m2.646 290.65h2.646v2.646h-2.646z" fill="#fff" opacity=".1"/>
  <path d="m3.631 285.09-0.985 2.125c0.159-0.09 0.332-0.155 0.511-0.197l0.478 4.637 0.477-4.638c0.178 0.042 0.349 0.107 0.504 0.198zm5.261 6.237c0.09 0.159 0.155 0.332 0.197 0.511l-4.802 0.478 4.803 0.478a1.84 1.84 0 0 1-0.198 0.503l2.125-0.985z" fill="#fff"/>
  <path d="m2.81 288.54h4.596v4.596h-4.596z" fill="none" opacity=".2" stroke="#fff" stroke-dasharray="0.85295759, 0.85295759" stroke-dashoffset="1" stroke-width=".52919"/>
 </g>
</svg>
