<svg width="64" height="64" version="1.1" viewBox="0 0 16.933 16.933" xmlns="http://www.w3.org/2000/svg" xmlns:xlink="http://www.w3.org/1999/xlink">
 <defs>
  <filter id="a" x="-.036" y="-.036" width="1.072" height="1.072" color-interpolation-filters="sRGB">
   <feGaussianBlur stdDeviation="0.23812032"/>
  </filter>
  <linearGradient id="b" x1="29.401" x2="42.101" y1="6.0872" y2="6.0872" gradientTransform="matrix(1.3239 0 0 1.3239 -38.865 .40757)" gradientUnits="userSpaceOnUse">
   <stop stop-color="#ac92ec" offset="0"/>
   <stop stop-color="#64a9ff" offset=".13668"/>
   <stop stop-color="#4cdbb7" offset=".26768"/>
   <stop stop-color="#aee672" offset=".49418"/>
   <stop stop-color="#ffce53" offset=".74118"/>
   <stop stop-color="#fb6e51" offset=".93032"/>
   <stop stop-color="#ed5565" offset="1"/>
  </linearGradient>
 </defs>
 <rect x=".52916" y=".53001" width="15.875" height="15.875" ry="7.9373" filter="url(#a)" opacity=".25" style="paint-order:stroke markers fill"/>
 <circle cx="8.4665" cy="8.4665" r="7.9373" fill="url(#b)"/>
 <path transform="scale(.26458)" d="m14.004 45.998c-0.55488 0-1.002 0.44707-1.002 1.002v2.9961c0 0.55488 0.44707 1.002 1.002 1.002h35.996c0.55488 0 1.002-0.44707 1.002-1.002v-2.9961c0-0.55488-0.44707-1.002-1.002-1.002h-2.9961v1.4785c0 0.2764-0.2236 0.49805-0.5 0.49805h-4.002c-0.2764 0-0.5-0.22165-0.5-0.49805v-1.4785h-3.332v1.4785c0 0.2764-0.2236 0.49805-0.5 0.49805h-4.002c-0.2764 0-0.5-0.22165-0.5-0.49805v-1.4785h-3.332v1.4785c0 0.2764-0.22361 0.49805-0.5 0.49805h-4.002c-0.27639 0-0.5-0.22165-0.5-0.49805v-1.4785h-3.332v1.4785c0 0.2764-0.2236 0.49805-0.5 0.49805h-4.002c-0.2764 0-0.5-0.22165-0.5-0.49805v-1.4785h-2.9961z" fill="#fff" opacity=".35" stroke-width="3.7796" style="paint-order:markers stroke fill"/>
 <path d="m4.6301 11.37c-0.073128 0-0.13229 0.05865-0.13229 0.13177v1.0593c0 0.07313 0.059161 0.13177 0.13229 0.13177h1.0588c0.073128 0 0.13229-0.05864 0.13229-0.13177v-1.0593c0-0.07313-0.059161-0.13177-0.13229-0.13177zm2.205 0c-0.073128 0-0.13229 0.05865-0.13229 0.13177v1.0593c0 0.07313 0.059161 0.13177 0.13229 0.13177h1.0588c0.073128 0 0.13229-0.05864 0.13229-0.13177v-1.0593c-2e-7 -0.07313-0.059161-0.13177-0.13229-0.13177zm2.205 0c-0.073128 0-0.13229 0.05865-0.13229 0.13177v1.0593c0 0.07313 0.059161 0.13177 0.13229 0.13177h1.0588c0.07313 0 0.13229-0.05864 0.13229-0.13177v-1.0593c0-0.07313-0.05916-0.13177-0.13229-0.13177zm2.205 0c-0.07313 0-0.13229 0.05865-0.13229 0.13177v1.0593c0 0.07313 0.05916 0.13177 0.13229 0.13177h1.0588c0.07313 0 0.13229-0.05864 0.13229-0.13177v-1.0593c0-0.07313-0.05916-0.13177-0.13229-0.13177z" fill="#fff" opacity=".75" style="paint-order:stroke markers fill"/>
 <rect x="7.12" y=".78999" width="2.646" height=".529" ry=".265" opacity=".35" style="paint-order:stroke markers fill"/>
 <path d="m8.4666 0.52916c-1.4483 0-2.8022 0.38613-3.9687 1.0583h7.9374c-1.1665-0.67219-2.5204-1.0583-3.9687-1.0583z" opacity=".35" style="paint-order:stroke markers fill"/>
</svg>
