<svg id="Spotify" width="64" height="64" enable-background="new 0 0 1024 1024" image-rendering="optimizeSpeed" version="1.1" viewBox="0 0 64 64" xmlns="http://www.w3.org/2000/svg" xmlns:xlink="http://www.w3.org/1999/xlink">
 <defs>
  <linearGradient id="b">
   <stop stop-color="#fff" offset="0"/>
   <stop stop-color="#e6e6e6" offset="1"/>
  </linearGradient>
  <linearGradient id="e" x1="540" x2="540" y1="-16" y2="1024" gradientUnits="userSpaceOnUse">
   <stop stop-color="#fff" offset="0"/>
   <stop stop-color="#d7d7d7" offset="1"/>
  </linearGradient>
  <linearGradient id="a" x1="515.89" x2="515.89" y1="400.29" y2="604.29" gradientUnits="userSpaceOnUse" xlink:href="#b"/>
  <linearGradient id="d" x1="515.89" x2="515.89" y1="400.29" y2="604.29" gradientTransform="translate(-9.7524)" gradientUnits="userSpaceOnUse" xlink:href="#b"/>
  <linearGradient id="c" x1="520" x2="520" y1="44" y2="984" gradientTransform="matrix(.99682 0 0 .99682 1.1271 2.1271)" gradientUnits="userSpaceOnUse">
   <stop stop-color="#73df1a" offset="0"/>
   <stop stop-color="#65d11f" offset=".53205"/>
   <stop stop-color="#4ab428" offset="1"/>
  </linearGradient>
  <linearGradient x1="540" x2="540" y1="-16" y2="1024" gradientUnits="userSpaceOnUse" xlink:href="#b"/>
  <filter id="g" x="-.034454" y="-.037691" width="1.0689" height="1.0754" color-interpolation-filters="sRGB">
   <feGaussianBlur stdDeviation="3.5841291"/>
  </filter>
  <filter id="f" x="-.036" y="-.036" width="1.072" height="1.072" color-interpolation-filters="sRGB">
   <feGaussianBlur stdDeviation="14.115"/>
  </filter>
 </defs>
 <g transform="matrix(.063762 0 0 .063762 -.61424 -.678)">
  <path d="m967.75 392.88c-1.0965-4.3362-2.3425-8.9714-3.6384-13.557-2.4921-8.7222-5.333-17.544-8.4232-26.266-6.4295-18.192-14.105-35.935-23.076-53.48-3.7879-7.3765-7.9247-14.902-12.261-22.329-20.235-34.39-45.654-66.986-76.107-97.439-72.369-72.369-156.65-116.28-252.84-131.63-16.198-2.5917-32.696-4.386-49.891-5.333-9.6692-0.54825-19.787-0.8473-30.004-0.8473-9.3203 0-18.541 0.2492-27.811 0.74762-117.97 6.0806-219.6 51.785-304.88 137.06q-137.81 137.81-137.81 332.69c0 129.94 45.953 240.88 137.81 332.74 85.278 85.228 186.9 130.93 304.88 137.06h0.39873c8.473 0.44858 16.547 0.69778 24.422 0.69778h2.9905c10.267 0 20.435-0.29905 30.004-0.79746 2.4921-0.14952 4.7349-0.29904 6.9279-0.44857 20.136-1.4454 39.773-4.0371 58.513-7.6755 7.9247-1.5451 15.75-3.2895 23.326-5.1336 80.543-20.235 151.67-61.404 213.97-123.71 48.446-48.446 84.132-102.17 107.01-161.29 18.391-47.499 28.559-98.486 30.453-153.01 0.19937-6.0308 0.29905-12.211 0.29905-18.441v-1.9936-0.99681c-0.19937-40.521-4.9343-79.247-14.255-116.63z" filter="url(#f)" opacity=".25" stroke-width="15.633"/>
  <g id="shadow" transform="matrix(.99609 0 0 .99609 2 2)" fill="url(#e)" stroke-width="15.683"></g>
  <path d="m967.75 392.88c-1.0965-4.3362-2.3425-8.9714-3.6384-13.557-2.4921-8.7222-5.333-17.544-8.4232-26.266-6.4295-18.192-14.105-35.935-23.076-53.48-3.7879-7.3765-7.9247-14.902-12.261-22.329-20.235-34.39-45.654-66.986-76.107-97.439-72.369-72.369-156.65-116.28-252.84-131.63-16.198-2.5917-32.696-4.386-49.891-5.333-9.6692-0.54825-19.787-0.8473-30.004-0.8473-9.3203 0-18.541 0.2492-27.811 0.74762-117.97 6.0806-219.6 51.785-304.88 137.06q-137.81 137.81-137.81 332.69c0 129.94 45.953 240.88 137.81 332.74 85.278 85.228 186.9 130.93 304.88 137.06h0.39873c8.473 0.44858 16.547 0.69778 24.422 0.69778h2.9905c10.267 0 20.435-0.29905 30.004-0.79746 2.4921-0.14952 4.7349-0.29904 6.9279-0.44857 20.136-1.4454 39.773-4.0371 58.513-7.6755 7.9247-1.5451 15.75-3.2895 23.326-5.1336 80.543-20.235 151.67-61.404 213.97-123.71 48.446-48.446 84.132-102.17 107.01-161.29 18.391-47.499 28.559-98.486 30.453-153.01 0.19937-6.0308 0.29905-12.211 0.29905-18.441v-1.9936-0.99681c-0.19937-40.521-4.9343-79.247-14.255-116.63z" fill="url(#c)" stroke-width="15.633"/>
  <g transform="matrix(2.0508 0 0 2.0508 -575.34 -471.26)" filter="url(#g)" opacity=".15" stroke-width="15.683">
   <g transform="matrix(1.1388 0 0 1.1388 -44.949 -84.382)" overflow="visible" stroke-width="15.683">
    <g stroke-width="15.683">
     <g stroke-width="15.683">
      <path d="m499.9 461.7c36.55 21.1 69.75 51 85.65 79.7 1.75 2.85 3.05 4.45 5.8 6 6.8 3.95 15.7 2.15 19.95-5.25 0.4-0.65 0.7-1.3 1-1.95 1.5-4.65 1.3-8.9-1.75-13.95-1.3-2.3-2.7-4.55-4.3-7.05-20.3-31.55-54-60.85-91.8-82.65-24.35-14.05-46.55-23.2-69-28.75-5.75-1.4-11.75 0.6-15.6 5.75-0.2 0.25-0.35 0.5-0.55 0.8-4.15 7.2-1.9 16 5.3 20.15 0.55 0.35 1.25 0.65 2.05 1 0.55 0.2 1.2 0.4 1.9 0.65 0.9 0.25 2.15 0.55 3.8 0.9 19.65 5.2 39.25 14.1 57.55 24.65zm-86.7 1.65c-3.35 5.85-1.4 13.3 4.4 16.65 0.55 0.35 1.2 0.65 1.85 0.9 0.5 0.15 1.05 0.35 1.65 0.5 0.8 0.2 2.1 0.5 3.95 0.85 14.05 3.8 30.2 9.9 47.25 19.75 33.25 19.2 58.55 45.35 72.95 71 1.3 2.35 2.5 4.55 5.4 6.25 5.85 3.4 13.2 1.35 16.55-4.45 0.25-0.4 0.45-0.75 0.65-1.1 1.85-5.2 1.25-7.8-1.05-12.05-16.35-29.5-44.9-59.05-82.25-80.65-3.45-2-6.85-3.85-10.4-5.65-15.9-8.1-31.7-13.85-46.35-17.4-5.9-1.55-10.7 0.3-13.7 4-0.3 0.5-0.6 0.9-0.9 1.4zm-5.4 39.75c-4-1.5-8.35-0.8-11.5 2.6-0.3 0.4-0.65 0.95-0.95 1.45-1.8 3.15-1.8 7-0.1 9.7 0.85 1.45 2.05 2.7 3.65 3.65 0.05 0 0.05 0 0.1 0.05 1.65 0.95 4.9 1.7 7.4 2.5 15.25 5.05 30.8 11.55 45.2 19.9 25.8 14.9 46.5 35.1 59.25 58.2 1.3 2.4 2.4 4.1 4.55 5.35 4.4 2.55 10.4 1.2 13.2-3.65 0.3-0.5 0.55-0.95 0.75-1.4 0.4-1.25 0.6-2.4 0.6-3.45 0-1.7-0.5-3.45-1.45-5.2-7.2-13.15-16.3-25.2-27.25-36.2-11.15-11.2-24.1-21.1-38.75-29.7-0.35-0.25-0.75-0.45-1.1-0.65-19.7-11.35-38.15-18.15-53.6-23.15z" stroke-width="15.683"/>
     </g>
    </g>
   </g>
  </g>
  <g id="ico" transform="matrix(2.0508 0 0 2.0508 -575.34 -491.26)" fill="url(#a)" stroke-width="15.683">
   <g transform="matrix(1.1388 0 0 1.1388 -44.949 -84.382)" fill="url(#a)" overflow="visible" stroke-width="15.683">
    <g fill="url(#a)" stroke-width="15.683">
     <g fill="url(#a)" stroke-width="15.683">
      <path d="m499.9 461.7c36.55 21.1 69.75 51 85.65 79.7 1.75 2.85 3.05 4.45 5.8 6 6.8 3.95 15.7 2.15 19.95-5.25 0.4-0.65 0.7-1.3 1-1.95 1.5-4.65 1.3-8.9-1.75-13.95-1.3-2.3-2.7-4.55-4.3-7.05-20.3-31.55-54-60.85-91.8-82.65-24.35-14.05-46.55-23.2-69-28.75-5.75-1.4-11.75 0.6-15.6 5.75-0.2 0.25-0.35 0.5-0.55 0.8-4.15 7.2-1.9 16 5.3 20.15 0.55 0.35 1.25 0.65 2.05 1 0.55 0.2 1.2 0.4 1.9 0.65 0.9 0.25 2.15 0.55 3.8 0.9 19.65 5.2 39.25 14.1 57.55 24.65zm-86.7 1.65c-3.35 5.85-1.4 13.3 4.4 16.65 0.55 0.35 1.2 0.65 1.85 0.9 0.5 0.15 1.05 0.35 1.65 0.5 0.8 0.2 2.1 0.5 3.95 0.85 14.05 3.8 30.2 9.9 47.25 19.75 33.25 19.2 58.55 45.35 72.95 71 1.3 2.35 2.5 4.55 5.4 6.25 5.85 3.4 13.2 1.35 16.55-4.45 0.25-0.4 0.45-0.75 0.65-1.1 1.85-5.2 1.25-7.8-1.05-12.05-16.35-29.5-44.9-59.05-82.25-80.65-3.45-2-6.85-3.85-10.4-5.65-15.9-8.1-31.7-13.85-46.35-17.4-5.9-1.55-10.7 0.3-13.7 4-0.3 0.5-0.6 0.9-0.9 1.4zm-5.4 39.75c-4-1.5-8.35-0.8-11.5 2.6-0.3 0.4-0.65 0.95-0.95 1.45-1.8 3.15-1.8 7-0.1 9.7 0.85 1.45 2.05 2.7 3.65 3.65 0.05 0 0.05 0 0.1 0.05 1.65 0.95 4.9 1.7 7.4 2.5 15.25 5.05 30.8 11.55 45.2 19.9 25.8 14.9 46.5 35.1 59.25 58.2 1.3 2.4 2.4 4.1 4.55 5.35 4.4 2.55 10.4 1.2 13.2-3.65 0.3-0.5 0.55-0.95 0.75-1.4 0.4-1.25 0.6-2.4 0.6-3.45 0-1.7-0.5-3.45-1.45-5.2-7.2-13.15-16.3-25.2-27.25-36.2-11.15-11.2-24.1-21.1-38.75-29.7-0.35-0.25-0.75-0.45-1.1-0.65-19.7-11.35-38.15-18.15-53.6-23.15z" fill="url(#d)" stroke-width="15.683"/>
     </g>
    </g>
   </g>
  </g>
 </g>
</svg>
