<svg width="64" height="64" version="1.1" xmlns="http://www.w3.org/2000/svg" xmlns:xlink="http://www.w3.org/1999/xlink">
 <defs>
  <linearGradient id="a" x1="99.036" x2="99.036" y1="-.50472" y2="199.84" gradientTransform="matrix(.3 0 0 .3 2 2.0015)" gradientUnits="userSpaceOnUse">
   <stop stop-color="#ff9931" offset="0"/>
   <stop stop-color="#ffc831" offset=".5"/>
   <stop stop-color="#fffa31" offset="1"/>
  </linearGradient>
  <filter id="c" x="-.036" y="-.036" width="1.072" height="1.072" color-interpolation-filters="sRGB">
   <feGaussianBlur stdDeviation="14.059863"/>
  </filter>
  <clipPath id="d">
   <g transform="translate(0 -1004.4)">
    <path transform="matrix(15.333 0 0 11.5 415 878.86)" d="m-24 13c0 1.105-0.672 2-1.5 2s-1.5-0.895-1.5-2 0.672-2 1.5-2 1.5 0.895 1.5 2z" fill="#1890d0"/>
   </g>
  </clipPath>
  <filter id="e" x="-.06995" y="-.052462" width="1.1399" height="1.1049" color-interpolation-filters="sRGB">
   <feGaussianBlur stdDeviation="0.52470471"/>
  </filter>
  <linearGradient id="b" x1="24.001" x2="24.14" y1="11.999" y2="36.645" gradientTransform="matrix(.063762 0 0 .063762 -1.0514 -1.8827)" gradientUnits="userSpaceOnUse">
   <stop stop-color="#fff" offset="0"/>
   <stop stop-color="#fffedf" offset="1"/>
  </linearGradient>
 </defs>
 <circle transform="matrix(.064012 0 0 .064012 -.74226 -2.62)" cx="511.5" cy="540.86" r="468.66" color="#000000" filter="url(#c)" opacity=".25" stroke-width="15.622"/>
 <circle cx="32" cy="32.002" r="30" color="#000000" fill="url(#a)"/>
 <g transform="matrix(1.3331 0 0 1.3194 .012175 .3324)" clip-path="url(#d)" filter="url(#e)" opacity=".15" stroke-width=".59201">
  <g stroke-width=".59201">
   <path d="m24.01 12c-2.898 4e-3 -5.734 1.297-7.48 3.691-2.715 3.738-1.73 8.801 2.145 11.441v7.871h1.328v1h8v-1h1.313v-7.871c0.832-0.57 1.566-1.258 2.145-2.059 2.77-3.828 1.691-9.04-2.43-11.633-1.543-0.969-3.289-1.441-5.03-1.441m-0.012 1.523c1.418 0 2.852 0.383 4.121 1.18 3.379 2.125 4.266 6.367 1.984 9.512-0.527 0.723-1.195 1.355-1.977 1.848l-0.133 1.941h-8l-0.117-1.941c-3.387-2.125-4.27-6.367-1.98-9.512 1.426-1.965 3.742-3.03 6.102-3.02m-4 15.477h8v1.996h-8m0 1h8v1.715h-8"/>
  </g>
 </g>
 <g transform="matrix(1.3331 0 0 1.3194 .012175 .3324)" clip-path="url(#d)" fill="url(#b)" stroke-width=".59201">
  <g fill="url(#b)" stroke-width=".59201">
   <path d="m24.01 12c-2.898 4e-3 -5.734 1.297-7.48 3.691-2.715 3.738-1.73 8.801 2.145 11.441v7.871h1.328v1h8v-1h1.313v-7.871c0.832-0.57 1.566-1.258 2.145-2.059 2.77-3.828 1.691-9.04-2.43-11.633-1.543-0.969-3.289-1.441-5.03-1.441m-0.012 1.523c1.418 0 2.852 0.383 4.121 1.18 3.379 2.125 4.266 6.367 1.984 9.512-0.527 0.723-1.195 1.355-1.977 1.848l-0.133 1.941h-8l-0.117-1.941c-3.387-2.125-4.27-6.367-1.98-9.512 1.426-1.965 3.742-3.03 6.102-3.02m-4 15.477h8v1.996h-8m0 1h8v1.715h-8" fill="url(#b)"/>
  </g>
 </g>
</svg>
