<svg width="48" height="48" xmlns="http://www.w3.org/2000/svg"><defs><linearGradient id="c" x1="91.308" x2="95.182" y1="98.192" y2="102.07" gradientTransform="matrix(.56521 0 0 -.60266 -19.183 70.781)" gradientUnits="userSpaceOnUse"><stop stop-color="#fcfcfc" offset="0"/><stop stop-color="#c1c1c1" offset="1"/></linearGradient><linearGradient id="a" x1="25.132" x2="25.132" y1=".985" y2="47.013" gradientTransform="matrix(1 0 0 .95617 0 -.518)" gradientUnits="userSpaceOnUse"><stop stop-color="#dadada" offset="0"/><stop stop-color="#fff" offset="1"/></linearGradient><radialGradient id="b" cx="26.53" cy="23.566" r="17.5" gradientTransform="matrix(-1.7302 .00408 -.00432 -1.8311 87.505 44.915)" gradientUnits="userSpaceOnUse"><stop stop-opacity=".659" offset="0"/><stop stop-color="#cecece" stop-opacity="0" offset="1"/></radialGradient></defs><path d="m6.5 1.872 21.021.002L41.5 16.226v29.651h-35V1.871z" fill="none" stroke="#000" stroke-opacity=".549"/><path d="m6.5 1.894 20.954.002L41.5 16.226V45.9h-35V1.893z" fill="url(#a)"/><path d="m24 25.781-7.334-7.334L24 11.113l2.445 2.445-4.89 4.889L24 20.89l7.334-7.333-6.389-6.389a1.336 1.336 0 0 0-1.89 0L12.722 17.502a1.337 1.337 0 0 0 0 1.89l10.333 10.333a1.336 1.336 0 0 0 1.89 0l10.333-10.333a1.337 1.337 0 0 0 0-1.89l-1.5-1.5L24 25.783z" fill="#84ba10"/><path fill="none" d="M19.632 1.872H41.5v24.125H19.632z"/><path d="m6.5 1.894 20.954.002L41.5 16.226V45.9h-35V1.893z" fill="url(#b)"/><path d="M29.349 14.212c-.045-3.443.093-9.233-1.843-12.276 0 0 12.641 12.709 13.994 14.29 0 0-2.348-1.878-12.152-2.014z" fill="url(#c)"/><g fill="#575757" aria-label="ePUB"><path d="M16.517 39.307v.44h-4.131q.059.927.557 1.415.503.484 1.396.484.518 0 1.001-.127.488-.127.967-.381v.85q-.483.205-.991.312t-1.03.108q-1.31 0-2.076-.762-.761-.762-.761-2.06 0-1.343.722-2.13.728-.79 1.958-.79 1.104 0 1.743.712.645.708.645 1.929zm-.899-.264q-.01-.737-.415-1.176-.4-.44-1.064-.44-.752 0-1.206.425-.45.425-.518 1.196zM19.017 35.786v2.74h1.24q.689 0 1.065-.357t.376-1.016q0-.654-.376-1.01-.376-.357-1.065-.357zm-.986-.81h2.226q1.226 0 1.85.556.63.552.63 1.621 0 1.08-.63 1.631-.624.552-1.85.552h-1.24v2.93h-.986zM23.949 34.976h.991v4.429q0 1.172.425 1.69.425.512 1.377.512.947 0 1.372-.513.425-.517.425-1.69v-4.428h.991v4.55q0 1.427-.708 2.154-.703.728-2.08.728-1.382 0-2.09-.728-.703-.727-.703-2.153zM32.367 38.784v2.67h1.582q.796 0 1.177-.326.385-.332.385-1.011 0-.684-.385-1.006-.381-.327-1.177-.327zm0-2.998v2.197h1.46q.723 0 1.074-.268.357-.274.357-.83 0-.552-.357-.826-.351-.273-1.074-.273zm-.986-.81h2.52q1.127 0 1.737.468.61.469.61 1.333 0 .67-.312 1.065t-.918.493q.728.156 1.128.654.405.493.405 1.236 0 .976-.664 1.508-.664.533-1.89.533h-2.616z"/></g></svg>