<svg width="48" height="48" xmlns="http://www.w3.org/2000/svg" xmlns:xlink="http://www.w3.org/1999/xlink"><defs><linearGradient id="b" x1="-23.889" x2="-23.889" y1="-87.833" y2="-45.407" gradientUnits="userSpaceOnUse" xlink:href="#a"/><linearGradient id="a"><stop stop-color="#2d2d2d" offset="0"/><stop stop-color="#5f5f5f" offset="1"/></linearGradient><linearGradient id="d" x1="23.888" x2="23.888" y1="-87.833" y2="-45.403" gradientTransform="translate(-63.259 4.543)" gradientUnits="userSpaceOnUse"><stop stop-color="#aaa" offset="0"/><stop stop-color="#b4b4b4" offset="1"/></linearGradient><linearGradient id="e" x1="23.888" x2="23.888" y1="-135.61" y2="-93.187" gradientTransform="translate(-63.259 4.543)" gradientUnits="userSpaceOnUse"><stop stop-color="#848484" offset="0"/><stop stop-color="#9e9e9e" offset="1"/></linearGradient><linearGradient id="f" x1="-23.889" x2="-23.889" y1="-135.61" y2="-93.192" gradientTransform="translate(-63.259 4.543)" gradientUnits="userSpaceOnUse"><stop stop-color="#545454" offset="0"/><stop stop-color="#7b7b7b" offset="1"/></linearGradient><linearGradient id="g" x1="-23.889" x2="-23.889" y1="-87.833" y2="-45.407" gradientTransform="translate(-63.259 4.543)" gradientUnits="userSpaceOnUse" xlink:href="#a"/><linearGradient id="c" x1="25.132" x2="25.132" y1=".985" y2="47.013" gradientTransform="matrix(1 0 0 .95617 0 -.518)" gradientUnits="userSpaceOnUse"><stop stop-color="#dadada" offset="0"/><stop stop-color="#fff" offset="1"/></linearGradient><linearGradient id="l" x1="91.308" x2="95.182" y1="98.192" y2="102.07" gradientTransform="matrix(.56521 0 0 -.60266 -19.183 70.781)" gradientUnits="userSpaceOnUse"><stop stop-color="#fcfcfc" offset="0"/><stop stop-color="#c1c1c1" offset="1"/></linearGradient><radialGradient id="i" cx="60.66" cy="13.828" r="24.109" gradientTransform="matrix(-1.239 -.54258 .55702 -1.272 124.86 59.938)" gradientUnits="userSpaceOnUse"><stop stop-color="#fff" offset="0"/><stop stop-color="#fff" stop-opacity=".08" offset="1"/></radialGradient><radialGradient id="k" cx="26.53" cy="23.566" r="17.5" gradientTransform="matrix(-1.7302 -.00339 .00346 -1.7689 87.322 43.647)" gradientUnits="userSpaceOnUse"><stop stop-opacity=".659" offset="0"/><stop stop-color="#cecece" stop-opacity="0" offset="1"/></radialGradient><clipPath id="j"><path transform="scale(-1) rotate(-45)" fill="url(#b)" d="M-45.102-87.835h42.426v42.426h-42.426z"/></clipPath><clipPath id="h"><path transform="scale(-1) rotate(-45)" fill="#bebebe" d="M2.675-87.835h42.426v42.426H2.675z"/><path transform="scale(-1) rotate(-45)" fill="#8d8d8d" d="M2.675-135.61h42.426v42.426H2.675z"/><path transform="scale(-1) rotate(-45)" fill="#787878" d="M-45.102-135.61h42.426v42.426h-42.426z"/><path transform="scale(-1) rotate(-45)" fill="#414141" d="M-45.102-87.835h42.426v42.426h-42.426z"/></clipPath></defs><path d="m6.5 1.872 21.021.002L41.5 16.226v29.651h-35V1.871z" fill="none" stroke="#000" stroke-opacity=".549"/><path d="m6.5 1.894 20.954.002L41.5 16.226V45.9h-35V1.893z" fill="url(#c)"/><g fill="none" stroke="#000"><path d="m96 6.781-5.5 5.469 5.5 5.5 5.5-5.5L96 6.781zm-6.188 6.188-5.468 5.469 5.469 5.5 5.5-5.5-5.5-5.47zm12.376 0-5.5 5.469 5.5 5.5 5.468-5.5-5.469-5.47zM96 19.125l-5.5 5.5 5.5 5.5 5.5-5.5-5.5-5.5z" opacity=".03" stroke-width="2" transform="matrix(.97528 0 0 .97287 -69.627 .844)"/><path d="m96 6.781-5.5 5.469 5.5 5.5 5.5-5.5L96 6.781zm-6.188 6.188-5.468 5.469 5.469 5.5 5.5-5.5-5.5-5.47zm12.376 0-5.5 5.469 5.5 5.5 5.468-5.5-5.469-5.47zM96 19.125l-5.5 5.5 5.5 5.5 5.5-5.5-5.5-5.5z" opacity=".03" stroke-width="1.5" transform="matrix(.97528 0 0 .97287 -69.627 .844)"/><path d="m96 6.781-5.5 5.469 5.5 5.5 5.5-5.5L96 6.781zm-6.188 6.188-5.468 5.469 5.469 5.5 5.5-5.5-5.5-5.47zm12.376 0-5.5 5.469 5.5 5.5 5.468-5.5-5.469-5.47zM96 19.125l-5.5 5.5 5.5 5.5 5.5-5.5-5.5-5.5z" opacity=".03" transform="matrix(.97528 0 0 .97287 -69.627 .844)"/><path d="m96 6.781-5.5 5.469 5.5 5.5 5.5-5.5L96 6.781zm-6.188 6.188-5.468 5.469 5.469 5.5 5.5-5.5-5.5-5.47zm12.376 0-5.5 5.469 5.5 5.5 5.468-5.5-5.469-5.47zM96 19.125l-5.5 5.5 5.5 5.5 5.5-5.5-5.5-5.5z" opacity=".03" stroke-width=".5" transform="matrix(.97528 0 0 .97287 -69.627 .844)"/></g><path transform="rotate(135 -.864 8.726) scale(.18295)" fill="url(#d)" d="M-60.584-83.292h42.426v42.426h-42.426z"/><path transform="rotate(135 -.864 8.726) scale(.18295)" fill="url(#e)" d="M-60.584-131.07h42.426v42.426h-42.426z"/><path transform="rotate(135 -.864 8.726) scale(.18295)" fill="url(#f)" d="M-108.36-131.07h42.426v42.426h-42.426z"/><path transform="rotate(135 -.864 8.726) scale(.18295)" fill="url(#g)" d="M-108.36-83.292h42.426v42.426h-42.426z"/><g opacity=".4"><path d="m17.82 12.957-5.489 5.489.091.091 5.397-5.397 5.398 5.397.091-.091-5.489-5.489zM24 19.137l-5.489 5.489.092.091L24 19.32l5.397 5.397.091-.091L24 19.137zM30.18 12.957l-5.489 5.489.092.091 5.397-5.397 5.397 5.397.091-.091-5.488-5.489zM24 6.777l-5.489 5.488.092.092L24 6.96l5.397 5.397.091-.092L24 6.777z"/></g><g transform="translate(12.29 6.737) scale(.18295)" clip-path="url(#h)" fill="#fff" opacity=".4"><path d="m30.219 35-30 30 .5.5 29.5-29.5 29.5 29.5.5-.5-30-30zM64 68.781l-30 30 .5.5 29.5-29.5 29.5 29.5.5-.5-30-30zM97.781 35l-30 30 .5.5 29.5-29.5 29.5 29.5.5-.5-30-30zM64 1.219l-30 30 .5.5L64 2.219l29.5 29.5.5-.5-30-30z"/></g><g fill="url(#i)" transform="translate(4.695 15.508) scale(.18295)"><path transform="translate(41.518 -47.943)" d="m64.001 2.216-30 30 9.781 9.782C53.695 31.022 67.088 23.27 82.22 20.436L64.001 2.216z" clip-path="url(#j)" opacity=".5"/><path transform="translate(7.735 -14.159)" d="m64.001 2.216-30 30 9.781 9.782C53.695 31.022 67.088 23.27 82.22 20.436L64.001 2.216z" clip-path="url(#j)" opacity=".5"/><path transform="translate(41.519 19.624)" d="m64.001 2.216-30 30 9.781 9.782C53.695 31.022 67.088 23.27 82.22 20.436L64.001 2.216z" clip-path="url(#j)" opacity=".5"/><path transform="translate(75.302 -14.16)" d="m64.001 2.216-30 30 9.781 9.782C53.695 31.022 67.088 23.27 82.22 20.436L64.001 2.216z" clip-path="url(#j)" opacity=".5"/></g><path d="m6.5 1.894 20.954.002L41.5 16.226V45.9h-35V1.893z" fill="url(#k)"/><path fill="none" d="M19.632 1.872H41.5v24.125H19.632z"/><path d="M29.349 14.212c-.045-3.443.093-9.233-1.843-12.276 0 0 12.641 12.709 13.994 14.29 0 0-2.348-1.878-12.152-2.014z" fill="url(#l)"/><g fill="#575757" aria-label="EXE"><path d="M16.075 34.976h4.61v.83H17.06v2.158h3.472v.83h-3.472v2.642h3.711v.83h-4.697zM22.042 34.976h1.06l1.811 2.71 1.821-2.71h1.06l-2.344 3.501 2.5 3.79h-1.06l-2.05-3.102-2.066 3.101H21.71l2.602-3.892zM29.244 34.976h4.61v.83H30.23v2.158h3.472v.83H30.23v2.642h3.711v.83h-4.697z"/></g></svg>