<?xml version="1.0" encoding="UTF-8"?>
<svg width="48" height="48" version="1.1" viewBox="0 0 12.7 12.7" xmlns="http://www.w3.org/2000/svg" xmlns:cc="http://creativecommons.org/ns#" xmlns:dc="http://purl.org/dc/elements/1.1/" xmlns:rdf="http://www.w3.org/1999/02/22-rdf-syntax-ns#" xmlns:xlink="http://www.w3.org/1999/xlink">
 <metadata>
  <rdf:RDF>
   <cc:Work rdf:about="">
    <dc:format>image/svg+xml</dc:format>
    <dc:type rdf:resource="http://purl.org/dc/dcmitype/StillImage"/>
    <dc:title/>
   </cc:Work>
  </rdf:RDF>
 </metadata>
 <defs>
  <linearGradient id="c" x1="25.132" x2="25.132" y1=".98521" y2="47.013" gradientTransform="matrix(.26458 0 0 .25299 3.6976e-6 -.13703)" gradientUnits="userSpaceOnUse">
   <stop stop-color="#dadada" offset="0"/>
   <stop stop-color="#fff" offset="1"/>
  </linearGradient>
  <radialGradient id="d" cx="26.53" cy="23.566" r="17.5" gradientTransform="matrix(-.45778 -.00089612 .00091615 -.46802 23.104 11.548)" gradientUnits="userSpaceOnUse">
   <stop stop-opacity=".65926" offset="0"/>
   <stop stop-color="#cecece" stop-opacity="0" offset="1"/>
  </radialGradient>
  <linearGradient id="b" x1="91.308" x2="95.182" y1="98.192" y2="102.07" gradientTransform="matrix(.14955 0 0 -.15945 -5.0755 18.727)" gradientUnits="userSpaceOnUse">
   <stop stop-color="#fcfcfc" offset="0"/>
   <stop stop-color="#c1c1c1" offset="1"/>
  </linearGradient>
  <linearGradient id="linearGradient882" x1="5.2967" x2="5.1943" y1="12.64" y2=".49535" gradientUnits="userSpaceOnUse">
   <stop stop-color="#808080" offset="0"/>
   <stop stop-color="#999" stop-opacity=".43043" offset="1"/>
  </linearGradient>
 </defs>
 <path d="m1.7198 0.49535c1.535 0 5.5618 6.0325e-4 5.5618 6.0325e-4l3.6986 3.7973 1e-5 7.8452h-9.2604v-11.643z" fill="none" stroke="#000" stroke-opacity=".54902" stroke-width=".26458"/>
 <path d="m1.7198 0.50117c1.535 0 5.5441 6.0325e-4 5.5441 6.0325e-4l3.7163 3.7915 1e-5 7.851h-9.2604v-11.643z" fill="url(#c)" stroke-width=".26458"/>
 <g stroke-width=".26458">
  <path d="m1.7198 0.50117c1.535 0 5.5441 6.0325e-4 5.5441 6.0325e-4l3.7163 3.7915 1e-5 7.851h-9.2604v-11.643z" fill="url(#d)"/>
  <path d="m5.3299 0.50178a4.1463 4.1463 0 0 1 0.043408 0.36018 4.1463 4.1463 0 0 1-3.6535 4.3646v1.1772c0.033244-0.12933 0.043266-0.31799 0.069246-0.58756 0.18255-0.024437 0.36354-0.059188 0.54209-0.10439 0.25842 0.53568 0.35218 0.72471 0.56586 0.63872 0.24539-0.098748 0.17813-0.31151 0.10749-0.86351 0.16592-0.068167 0.328-0.14524 0.48524-0.23151 0.40275 0.45088 0.54464 0.60824 0.7276 0.4656 0.20768-0.16193 0.086654-0.34776-0.13178-0.85369 0.14748-0.11324 0.28838-0.2353 0.42168-0.36484 0.48421 0.32382 0.66065 0.43712 0.79995 0.25632 0.15866-0.20593-3.44e-4 -0.35674-0.32918-0.77928 0.1072-0.13845 0.20629-0.28271 0.29766-0.43202 0.5774 0.16577 0.78134 0.22326 0.8599 0.0056859 0.087707-0.24298-0.10745-0.33913-0.54364-0.63665 0.072975-0.17373 0.13564-0.3517 0.18759-0.53278 0.59804 0.019436 0.80959 0.024627 0.83251-0.20516 0.025662-0.25747-0.1883-0.30265-0.68575-0.48524 0.023834-0.18841 0.036499-0.37803 0.037724-0.56792 0.56679-0.10921 0.77105-0.15369 0.74311-0.37931-0.018126-0.14628-0.10602-0.20569-0.26717-0.24443-0.20996-3.059e-5 -0.70795 5.487e-5 -1.11 0zm0.76636 3.7719-0.32349 0.042375c-0.014933 0.00196-0.027191 0.010163-0.035657 0.021188-0.00846 0.011023-0.011113 0.024731-0.010853 0.039791l0.00672 0.40359a2.3979 2.3979 0 0 0-0.66818 0.27957l-0.27544-0.28939c-0.00939-0.011787-0.022394-0.019368-0.036173-0.021188-0.01378-0.00183-0.027835 0.00167-0.039791 0.010853l-0.25942 0.19844c-0.011959 0.00917-0.018849 0.022394-0.020672 0.036173-0.00183 0.01378 0.00337 0.027232 0.010853 0.040308l0.19999 0.34933a2.3979 2.3979 0 0 0-0.43512 0.57464l-0.38034-0.11214c-0.014015-0.00551-0.028498-0.00529-0.041341 0-0.012843 0.00532-0.023686 0.015544-0.029456 0.029456l-0.12506 0.30127c-0.00577 0.013912-0.0053 0.029015 0 0.041858 0.00532 0.012843 0.016444 0.021873 0.029456 0.029456l0.34778 0.20257a2.3979 2.3979 0 0 0-0.093017 0.65216 2.3979 2.3979 0 0 0 0.00259 0.061495l-0.38758 0.09405c-0.014893 0.00225-0.028223 0.00965-0.03669 0.020672-0.00846 0.011023-0.012303 0.024858-0.010335 0.039791l0.042375 0.32349c0.00196 0.014933 0.00965 0.027706 0.020672 0.036174 0.011023 0.00846 0.025244 0.01079 0.040308 0.010853l0.40463 0.00156a2.3979 2.3979 0 0 0 0.27905 0.66301l-0.28887 0.27492c-0.011774 0.00939-0.018849 0.021878-0.020672 0.035657-0.00183 0.01378 0.00167 0.028354 0.010853 0.040308l0.19844 0.2589c0.00917 0.011959 0.022394 0.019368 0.036174 0.021188 0.01378 0.00183 0.026716-0.00337 0.039791-0.010853l0.34882-0.19947a2.3979 2.3979 0 0 0 0.57464 0.43563l-0.11111 0.37878c-0.00551 0.01402-0.00532 0.029018 0 0.041858s0.015026 0.023685 0.028939 0.029456l0.30127 0.12506c0.013912 0.0058 0.029013 0.0053 0.041858 0 0.012846-0.0053 0.021873-0.016952 0.029456-0.029972l0.20257-0.34727a2.3979 2.3979 0 0 0 0.65112 0.092501 2.3979 2.3979 0 0 0 0.063045-0.00206l0.093534 0.38757c0.00225 0.014891 0.00965 0.027714 0.020669 0.036173 0.011023 0.0085 0.025374 0.012811 0.040308 0.010853l0.32349-0.042375c0.014933-0.00201 0.027708-0.0096 0.036174-0.020672 0.00846-0.01102 0.01079-0.025765 0.010853-0.040824l0.00156-0.40463a2.3979 2.3979 0 0 0 0.64647-0.27027l0.29352 0.27854c0.076232 0.010075 0.022394 0.019368 0.036173 0.021188 0.01378 0.00183 0.028354-0.00167 0.040308-0.010853l0.2589-0.19844c0.011959-0.00917 0.018849-0.022394 0.020672-0.036173 0.00183-0.013779-0.0031-0.027397-0.010853-0.040308l-0.20619-0.34365a2.3979 2.3979 0 0 0 0.42943-0.56224l0.39377 0.094568c0.071057-0.029387 0.029015 0.00532 0.041858 0 0.012846-0.00532 0.023167-0.015544 0.028939-0.029456l0.12506-0.30127c0.00577-0.013912 0.00581-0.029015 5.292e-4 -0.041858-0.00532-0.012843-0.016801-0.021635-0.029972-0.028939l-0.35398-0.19689a2.3979 2.3979 0 0 0 0.093535-0.65577 2.3979 2.3979 0 0 0-0.00156-0.044958l0.38706-0.11472c0.04684-0.060981 0.027713-0.00965 0.036174-0.020672 0.0085-0.011023 0.012295-0.024858 0.010335-0.039791l-0.042375-0.32401c-0.00201-0.014933-0.0096-0.027191-0.020672-0.035657-0.011022-0.00846-0.025246-0.01111-0.040308-0.010853l-0.40308 0.00723a2.3979 2.3979 0 0 0-0.27131-0.65164l0.27957-0.29456c0.010075-0.076232 0.018849-0.022394 0.020672-0.036173 0.00183-0.01378-0.00167-0.028354-0.010853-0.040308l-0.19844-0.2589c-0.00917-0.011959-0.021878-0.019367-0.035657-0.021188-0.013777-0.00183-0.027394 0.0031-0.040308 0.010853l-0.3452 0.20722a2.3979 2.3979 0 0 0-0.56121-0.42891l0.094568-0.39481c-0.02939-0.071057 0.00532-0.029015 0-0.041858s-0.015026-0.023686-0.028939-0.029456l-0.30179-0.12506c-0.013912-0.00577-0.028496-0.00532-0.041341 0-0.012843 0.00532-0.022148 0.016285-0.029456 0.029456l-0.19689 0.35502a2.3979 2.3979 0 0 0-0.65681-0.094051 2.3979 2.3979 0 0 0-0.043408 0.00156l-0.11472-0.38706c-0.060981-0.046842-0.00965-0.027706-0.020672-0.036174-0.011023-0.00846-0.025373-0.012814-0.040307-0.010853zm0.21911 0.93844a1.8922 1.8922 0 0 1 1.8919 1.8919 1.8922 1.8922 0 0 1-1.8919 1.8924 1.8922 1.8922 0 0 1-1.8924-1.8924 1.8922 1.8922 0 0 1 1.8924-1.8919zm4.6648 2.2588c-0.21288 0.074421-0.18675 0.29813-0.19999 0.82217-0.17418 0.040233-0.34611 0.089996-0.5147 0.14934-0.31284-0.52388-0.42193-0.70626-0.62942-0.60048-0.23856 0.12164-0.14856 0.3284-0.026872 0.88728-0.15742 0.08224-0.31002 0.1732-0.45734 0.27233-0.45879-0.4136-0.61641-0.5573-0.78445-0.39429-0.18958 0.18393-0.048024 0.35595 0.22531 0.83871-0.13242 0.12243-0.25742 0.25208-0.37517 0.38861-0.54441-0.29109-0.73237-0.39289-0.85628-0.1943-0.14063 0.22537 0.040515 0.35746 0.42633 0.76584-0.094329 0.14839-0.18045 0.30158-0.25787 0.4594-0.54287-0.11595-0.74903-0.1994-0.86765 0.03669-0.1049 0.2088 0.078952 0.31574 0.60875 0.62787-0.05384 0.17095-0.097996 0.345-0.13229 0.5209-0.37804 0.01933-0.59767 0.01527-0.71675 0.09353h1.4221c0.053685-0.24746 0.12913-0.50617 0.23513-0.78031 0.083862-0.21686 0.18346-0.40355 0.29662-0.54984a4.1463 4.1463 0 0 1 2.0986-1.7136c0.11486-0.058319 0.27308-0.10312 0.44855-0.13798a4.1463 4.1463 0 0 1 0.05736-0.011886z" fill="url(#linearGradient882)"/>
  <rect x="5.1943" y=".49535" width="5.7859" height="6.3831" fill="none"/>
  <path d="m7.7653 3.7603c-0.01197-0.91091 0.024511-2.443-0.48755-3.248 0 0 3.3446 3.3626 3.7026 3.7809 0 0-0.62132-0.49678-3.2152-0.53295z" fill="url(#b)"/>
 </g>
</svg>
