<svg width="48" height="48" viewBox="0 0 12.7 12.7" xmlns="http://www.w3.org/2000/svg"><defs><linearGradient id="a" x1="25.132" x2="25.132" y1=".985" y2="47.013" gradientTransform="matrix(.26458 0 0 .25299 0 -.137)" gradientUnits="userSpaceOnUse"><stop stop-color="#dadada" offset="0"/><stop stop-color="#fff" offset="1"/></linearGradient><linearGradient id="c" x1="91.308" x2="95.182" y1="98.192" y2="102.07" gradientTransform="matrix(.14955 0 0 -.15945 -5.075 18.727)" gradientUnits="userSpaceOnUse"><stop stop-color="#fcfcfc" offset="0"/><stop stop-color="#c1c1c1" offset="1"/></linearGradient><radialGradient id="b" cx="26.53" cy="23.566" r="17.5" gradientTransform="matrix(-.45778 -.0009 .00092 -.46802 23.104 11.548)" gradientUnits="userSpaceOnUse"><stop stop-opacity=".659" offset="0"/><stop stop-color="#cecece" stop-opacity="0" offset="1"/></radialGradient><filter id="d" x="-.06" y="-.06" width="1.12" height="1.12" color-interpolation-filters="sRGB"><feGaussianBlur stdDeviation=".701"/></filter></defs><g stroke-width=".265"><path d="m1.72.495 5.562.001 3.698 3.797v7.845H1.72V.495z" fill="none" stroke="#000" stroke-opacity=".549"/><path d="M1.72.501h5.544l3.716 3.792v7.851H1.72V.501z" fill="url(#a)"/><path d="M1.72.501h5.544l3.716 3.792v7.851H1.72V.501z" fill="url(#b)"/><path fill="none" d="M5.194.495h5.786v6.383H5.194z"/><path d="M7.765 3.76c-.012-.91.025-2.443-.487-3.248 0 0 3.344 3.363 3.702 3.781 0 0-.621-.497-3.215-.533z" fill="url(#c)"/></g><path transform="scale(.26458)" d="M23.971 14.395c-.664.056-.66.617-.898 1.998a12.098 12.065 0 0 0-1.34.186c-.59-1.422-.793-1.92-1.35-1.731-.64.216-.492.768-.392 2.207a12.098 12.065 0 0 0-1.24.512c-.994-1.2-1.336-1.617-1.815-1.272-.54.39-.25.87.256 2.174a12.098 12.065 0 0 0-1.078.834c-1.253-.926-1.685-1.249-2.067-.799-.433.511-.028.908.785 2.069a12.098 12.065 0 0 0-.812 1.052c-1.312-.488-1.797-.772-2.18-.226-.338.482.081.818 1.29 1.79a12.098 12.065 0 0 0-.52 1.25c-1.38-.13-1.922-.275-2.149.348-.2.55.288.768 1.676 1.381a12.098 12.065 0 0 0-.172 1.325c-1.361.263-1.92.277-1.963.939-.036.575.488.652 1.948.844a12.098 12.065 0 0 0 .193 1.408c-1.25.548-1.788.687-1.684 1.338.094.58.627.53 2.157.388a12.098 12.065 0 0 0 .539 1.303c-1.067.827-1.548 1.097-1.29 1.7.234.54.739.36 2.2-.157a12.098 12.065 0 0 0 .79 1.02c-.803 1.18-1.205 1.58-.763 2.088.385.442.812.119 2.033-.809a12.098 12.065 0 0 0 1.082.834c-.49 1.363-.784 1.851-.226 2.234.488.336.819-.09 1.793-1.322l-.238-.143a12.098 12.065 0 0 0 1.421.608c-.094 1.4-.232 1.947.4 2.158.548.183.76-.303 1.321-1.672a12.098 12.065 0 0 0 1.37.182c.258 1.548.341 2.08.93 2.021.663-.065.655-.626.872-2.004a12.098 12.065 0 0 0 1.38-.181c.57 1.388.778 1.88 1.329 1.695.633-.211.495-.758.4-2.158a12.098 12.065 0 0 0 1.258-.51c.946 1.196 1.28 1.615 1.762 1.283.547-.376.27-.863-.203-2.17a12.098 12.065 0 0 0 1.115-.855c1.17.888 1.598 1.202 1.977.768.43-.495.05-.9-.713-2.014a12.098 12.065 0 0 0 .816-1.041c1.429.505 1.933.68 2.164.144.258-.598-.218-.87-1.271-1.685a12.098 12.065 0 0 0 .55-1.313c1.503.14 2.037.185 2.13-.39.103-.645-.43-.792-1.655-1.326a12.098 12.065 0 0 0 .182-1.424c1.443-.19 1.964-.27 1.927-.842-.041-.655-.595-.676-1.923-.932a12.098 12.065 0 0 0-.186-1.344c1.365-.602 1.849-.824 1.65-1.369-.225-.618-.761-.481-2.117-.351a12.098 12.065 0 0 0-.525-1.27c1.184-.953 1.599-1.289 1.264-1.767-.381-.544-.865-.264-2.165.22a12.098 12.065 0 0 0-.836-1.078c.879-1.24 1.184-1.678.73-2.047-.508-.414-.9-.021-1.99.782a12.098 12.065 0 0 0-1.103-.846c.581-1.419.785-1.914.258-2.172-.606-.297-.888.197-1.83 1.287a12.098 12.065 0 0 0-1.25-.513c.13-1.552.177-2.09-.406-2.178-.655-.1-.787.442-1.33 1.71a12.098 12.065 0 0 0-1.371-.17c-.232-1.519-.312-2.049-.897-2zm-.482 3.707c1.339-.022 2.928.217 3.445.441 2.248.686 4.329 1.945 6.1 4.877.33.546.567 1.077.673 1.56.106.51.065 1.103-.263 1.57-.282.37-.63.718-1.118.763-.698.065-1.5.079-2.322.078a1.313 1.313 0 0 0-.043-.482c-.154-.637-.281-.715-1.047-.649-.728.063-.99-.04-1.373-.535-.318-.411-.33-.696-.049-1.437.145-.38.2-.645.149-.739-.113-.209-1.004-.696-1.19-.65-.086.021-.284.2-.441.398-.434.546-.73.72-1.219.71-.573-.012-.821-.194-1.119-.817-.342-.716-.475-.826-.932-.768-.152.02-.282.043-.392.075a.813.813 0 0 0-.395.222c-.33-.569-.674-1.136-.984-1.707-.572-.995-.195-1.99.666-2.527.337-.262 1.05-.37 1.853-.383zm-5.97 3.068c.07-.002.14 0 .212.006.461.063.937.198 1.215.6.636.917 1.292 2.117 1.912 3.264-.008.001-.013.008-.02.01-.319.078-.517.035-1.281-.29-.348-.147-.518-.045-.863.516-.329.533-.29.738.218 1.152.21.172.44.414.51.537.174.306.171.946-.008 1.274-.146.268-.602.56-1.037.668-.413.101-.504.374-.344 1.025.125.507.16.57.362.643.123.044.453.059.732.03.28-.027.613-.012.74.034.27.097.676.582.758.908.039.152.009.381-.047.6a75.99 75.99 0 0 1-1.548 2.617c-.587.986-1.64 1.147-2.53.66-1.048-.44-2.458-3.75-2.55-4.646-.507-2.296-.428-4.726 1.257-7.707.314-.556.66-1.023 1.03-1.354.342-.299.795-.531 1.283-.547zm6.382 4.893a2.366 2.366 0 0 1 2.396 1.799 2.366 2.366 0 0 1-1.732 2.863 2.366 2.366 0 0 1-2.864-1.732 2.366 2.366 0 0 1 1.733-2.864 2.366 2.366 0 0 1 .467-.066zm5.601 3.46c.841.005 1.678.021 2.504.052 1.147.014 1.815.846 1.838 1.861.142 1.129-2.02 4.003-2.75 4.531-1.735 1.586-3.878 2.733-7.303 2.764-.637.006-1.214-.06-1.685-.215-.492-.168-.98-.503-1.215-1.023-.176-.432-.3-.91-.09-1.352.459-.972 1.134-2.088 1.793-3.16a.966.966 0 0 1 .246-.121c.344-.085.988.078 1.174.297.088.103.228.359.313.568.204.507.386.725.597.719.096-.003.25-.007.342-.008.093 0 .29-.051.438-.11.386-.152.527-.502.447-1.119-.074-.563-.044-.663.297-1.021.345-.363.652-.493 1.004-.424.291.057.412.093.912.274.366.132.554.048.836-.373.423-.635.38-.854-.25-1.305a1.38 1.38 0 0 1-.57-.824c.374-.005.748-.012 1.122-.01z" filter="url(#d)" opacity=".25"/><path d="M6.342 3.809c-.176.015-.174.163-.237.528a3.2 3.192 0 0 0-.355.05c-.156-.377-.21-.508-.357-.459-.17.058-.13.204-.104.584a3.2 3.192 0 0 0-.328.136c-.263-.318-.353-.428-.48-.337-.143.104-.066.23.068.576a3.2 3.192 0 0 0-.286.22c-.331-.245-.445-.33-.546-.211-.115.135-.008.24.207.547a3.2 3.192 0 0 0-.215.279c-.347-.13-.475-.205-.576-.06-.09.127.021.216.34.474a3.2 3.192 0 0 0-.137.33c-.365-.034-.508-.073-.568.092-.053.145.076.203.443.366a3.2 3.192 0 0 0-.045.35c-.36.07-.508.073-.52.249-.01.152.13.172.516.223a3.2 3.192 0 0 0 .05.372c-.33.145-.472.182-.445.354.025.154.166.14.57.103a3.2 3.192 0 0 0 .143.345c-.282.219-.41.29-.34.45.061.143.195.095.581-.042a3.2 3.192 0 0 0 .21.27c-.213.312-.32.418-.202.552.101.117.214.032.537-.214a3.2 3.192 0 0 0 .287.22c-.13.362-.208.49-.06.592.129.089.216-.024.474-.35l-.063-.037a3.2 3.192 0 0 0 .376.16c-.025.37-.061.515.106.571.145.049.201-.08.35-.442a3.2 3.192 0 0 0 .362.048c.068.41.09.55.246.535.175-.018.173-.166.23-.53a3.2 3.192 0 0 0 .366-.048c.15.367.206.497.352.448.167-.056.13-.2.105-.57a3.2 3.192 0 0 0 .333-.136c.25.317.339.427.466.34.145-.1.072-.229-.053-.574a3.2 3.192 0 0 0 .295-.227c.31.235.423.318.523.203.114-.13.013-.238-.189-.532a3.2 3.192 0 0 0 .216-.276c.378.134.512.18.573.038.068-.158-.058-.23-.337-.446a3.2 3.192 0 0 0 .146-.347c.398.037.539.049.563-.103.028-.17-.113-.21-.437-.351a3.2 3.192 0 0 0 .048-.377c.382-.05.52-.071.51-.222-.011-.174-.158-.18-.51-.247a3.2 3.192 0 0 0-.048-.356c.36-.159.489-.218.436-.362-.06-.163-.201-.127-.56-.093a3.2 3.192 0 0 0-.139-.336c.313-.252.423-.34.334-.467-.1-.144-.228-.07-.572.058a3.2 3.192 0 0 0-.221-.285c.232-.328.313-.444.193-.542-.135-.11-.238-.006-.527.207a3.2 3.192 0 0 0-.292-.224c.154-.375.208-.506.069-.574-.16-.079-.235.052-.485.34a3.2 3.192 0 0 0-.33-.136c.034-.41.047-.553-.108-.576-.173-.026-.208.117-.352.453a3.2 3.192 0 0 0-.363-.045c-.06-.402-.082-.543-.237-.53zm-.127.98c.354-.006.774.058.911.117.595.182 1.146.515 1.614 1.29.087.145.15.285.178.413a.534.534 0 0 1-.07.415c-.074.099-.166.19-.295.202-.185.018-.397.021-.615.021a.347.347 0 0 0-.01-.128c-.042-.168-.075-.189-.278-.171-.193.017-.262-.01-.363-.142-.084-.108-.087-.184-.013-.38.038-.1.053-.17.04-.195-.03-.056-.266-.185-.315-.172a.36.36 0 0 0-.117.105c-.115.144-.194.19-.323.188-.152-.004-.217-.051-.296-.216-.09-.19-.126-.219-.246-.203a.712.712 0 0 0-.104.02.215.215 0 0 0-.105.058c-.087-.15-.178-.3-.26-.452-.151-.263-.052-.526.176-.668.09-.07.278-.098.49-.102zm-1.58.812c.019 0 .037 0 .056.002.122.017.248.052.322.158.168.243.341.56.506.864l-.006.003c-.084.02-.136.009-.339-.077-.092-.039-.137-.012-.228.136-.087.141-.077.196.058.305.055.046.116.11.135.142.046.081.045.25-.002.337-.04.071-.16.149-.275.177-.11.027-.133.1-.09.271.032.135.041.151.095.17.033.012.12.016.194.009a.594.594 0 0 1 .196.008c.07.026.178.154.2.24.01.04.002.102-.012.16-.134.233-.27.467-.41.692-.155.26-.434.303-.67.175-.277-.117-.65-.993-.674-1.23-.134-.607-.113-1.25.333-2.039.083-.147.174-.27.272-.358.09-.08.21-.14.34-.145zm1.689 1.295a.626.626 0 0 1 .634.476.626.626 0 0 1-.459.757.626.626 0 0 1-.757-.458.626.626 0 0 1 .458-.758.626.626 0 0 1 .124-.017zm1.482.915c.222.002.444.006.662.014.304.004.48.224.486.492.038.299-.534 1.06-.727 1.2-.46.419-1.026.722-1.932.73a1.416 1.416 0 0 1-.446-.056.532.532 0 0 1-.322-.271c-.046-.114-.079-.24-.023-.358.12-.257.3-.552.474-.836a.256.256 0 0 1 .065-.032c.091-.022.261.02.31.079.024.027.061.095.083.15.055.134.103.192.158.19l.09-.002a.42.42 0 0 0 .117-.029c.102-.04.14-.133.118-.296-.02-.15-.011-.176.079-.27.091-.096.172-.13.265-.112.077.015.11.024.241.072.097.035.147.013.222-.099.112-.168.1-.226-.066-.345a.365.365 0 0 1-.151-.218l.297-.003z" fill="#666"/></svg>