<svg width="48" height="48" xmlns="http://www.w3.org/2000/svg" xmlns:xlink="http://www.w3.org/1999/xlink"><defs><linearGradient id="a"><stop stop-opacity="0" offset="0"/><stop stop-opacity=".643" offset=".25"/><stop stop-opacity=".706" offset=".5"/><stop stop-opacity=".643" offset=".75"/><stop stop-opacity="0" offset="1"/></linearGradient><linearGradient id="e" x1="24" x2="24" y1="6.182" y2="30.703" gradientTransform="translate(8.127 6.261) scale(.66139)" gradientUnits="userSpaceOnUse" xlink:href="#a"/><linearGradient id="g" x1="24" x2="24" y1="8.002" y2="28.851" gradientTransform="translate(.448 .353) scale(.98113)" gradientUnits="userSpaceOnUse" xlink:href="#a"/><linearGradient id="b"><stop stop-color="#bcc5d5" offset="0"/><stop stop-color="#94a5b9" offset=".284"/><stop stop-color="#69758a" offset=".515"/><stop stop-color="#282825" offset="1"/></linearGradient><linearGradient id="h" x1="301.06" x2="301.06" y1="92.4" y2="-52.842" gradientUnits="userSpaceOnUse"><stop stop-color="#0beafa" offset="0"/><stop stop-color="#798eff" stop-opacity="0" offset="1"/></linearGradient><linearGradient id="f" x1="305.99" x2="305.99" y1="9.011" y2="116.17" gradientTransform="translate(2.698 14.065) scale(.06932)" gradientUnits="userSpaceOnUse"><stop stop-color="#1b00bc" offset="0"/><stop stop-color="#109cd8" offset="1"/></linearGradient><linearGradient id="c" x1="25.132" x2="25.132" y1=".985" y2="47.013" gradientTransform="matrix(1 0 0 .95617 0 -.518)" gradientUnits="userSpaceOnUse"><stop stop-color="#dadada" offset="0"/><stop stop-color="#fff" offset="1"/></linearGradient><linearGradient id="m" x1="91.308" x2="95.182" y1="98.192" y2="102.07" gradientTransform="matrix(.56521 0 0 -.60266 -19.183 70.781)" gradientUnits="userSpaceOnUse"><stop stop-color="#fcfcfc" offset="0"/><stop stop-color="#c1c1c1" offset="1"/></linearGradient><radialGradient id="k" cx="46.617" cy="1023.5" r="25.322" gradientTransform="matrix(0 .35613 -.35877 0 390.9 -.853)" gradientUnits="userSpaceOnUse" xlink:href="#b"/><radialGradient id="j" cx="-498.85" cy="944.67" r="11.015" gradientTransform="matrix(0 .97035 -.8612 0 836.94 497.38)" gradientUnits="userSpaceOnUse"><stop stop-color="#bcc5d5" offset="0"/><stop stop-color="#6e78a9" offset=".515"/><stop stop-color="#232a30" offset="1"/></radialGradient><radialGradient id="d" cx="233.65" cy="90.547" r="54.818" gradientTransform="matrix(0 .16524 -.16499 0 38.593 -22.868)" gradientUnits="userSpaceOnUse" xlink:href="#b"/><radialGradient id="l" cx="26.53" cy="23.566" r="17.5" gradientTransform="matrix(-1.7302 -.00339 .00346 -1.7689 87.322 43.647)" gradientUnits="userSpaceOnUse"><stop stop-opacity=".659" offset="0"/><stop stop-color="#cecece" stop-opacity="0" offset="1"/></radialGradient><filter id="i"><feGaussianBlur stdDeviation="3.263"/></filter></defs><path d="m6.5 1.872 21.021.002L41.5 16.226v29.651h-35V1.871z" fill="none" stroke="#000" stroke-opacity=".549"/><path d="m6.5 1.894 20.954.002L41.5 16.226V45.9h-35V1.893z" fill="url(#c)"/><circle cx="23.68" cy="18.411" fill="url(#d)" r="5.961"/><path d="M24.001 8.26c-5.65 0-10.237 4.566-10.237 10.216 0 5.65 4.586 10.237 10.237 10.237 5.65 0 10.237-4.587 10.237-10.238 0-5.65-4.586-10.215-10.237-10.215zm0 2.103a8.109 8.109 0 0 1 8.113 8.113c0 4.484-3.63 8.134-8.113 8.134-4.484 0-8.113-3.65-8.113-8.134s3.63-8.113 8.113-8.113z" fill="url(#e)" opacity=".5"/><circle cx="23.705" cy="18.411" fill="url(#f)" r="3.8"/><path d="M27.061 3.614c-.988-.202-2.02-.282-3.067-.282-8.381 0-15.196 6.75-15.196 15.132 0 8.381 6.818 15.182 15.2 15.182 8.38 0 15.173-6.788 15.173-15.17 0-7.334-5.193-13.452-12.11-14.863zm-.5 2.342c5.826 1.188 10.23 6.34 10.23 12.518 0 7.06-5.731 12.793-12.791 12.793-7.06 0-12.794-5.732-12.794-12.792S16.93 5.712 23.99 5.712c.883 0 1.737.074 2.57.244z" fill="url(#g)" opacity=".5"/><circle transform="matrix(.06404 0 0 .06405 4.272 14.396)" cx="303.04" cy="62.699" r="54.818" fill="url(#h)" filter="url(#i)"/><path d="M23.681 17.204a1.21 1.21 0 0 0-1.208 1.208c-.009.279.086.551.277.767.014.015.026.033.041.048l.01.01c.022.022.043.044.066.065l5.116 5.12h1.707l-.013-1.718-5.065-5.062c-.012-.015-.028-.027-.041-.041l-.038-.045-.037-.034c-.015-.015-.033-.027-.048-.04a1.093 1.093 0 0 0-.767-.278z" fill="url(#j)"/><path d="M23.681 17.204a1.21 1.21 0 0 0-1.208 1.208c-.009.279.086.551.277.767.014.015.026.033.041.048l.01.01c.022.022.043.044.066.065l5.116 5.12h1.707l-.013-1.718-5.065-5.062c-.012-.015-.028-.027-.041-.041l-.038-.045-.037-.034c-.015-.015-.033-.027-.048-.04a1.093 1.093 0 0 0-.767-.278z" fill="url(#k)"/><path d="m6.5 1.894 20.954.002L41.5 16.226V45.9h-35V1.893z" fill="url(#l)"/><path fill="none" d="M19.632 1.872H41.5v24.125H19.632z"/><path d="M29.349 14.212c-.045-3.443.093-9.233-1.843-12.276 0 0 12.641 12.709 13.994 14.29 0 0-2.348-1.878-12.152-2.014z" fill="url(#m)"/><g fill="#575757" aria-label="SHN"><path d="M19.513 35.215v.962q-.562-.269-1.06-.4t-.962-.132q-.805 0-1.245.312-.434.313-.434.889 0 .483.288.732.293.244 1.103.396l.596.122q1.104.21 1.626.742.527.527.527 1.416 0 1.06-.712 1.606-.708.547-2.08.547-.518 0-1.104-.117-.581-.117-1.206-.347v-1.015q.6.337 1.177.508.576.17 1.132.17.845 0 1.304-.331.46-.332.46-.948 0-.537-.333-.84-.327-.302-1.079-.454l-.6-.117q-1.104-.22-1.597-.688t-.493-1.304q0-.967.678-1.523.684-.557 1.88-.557.513 0 1.045.093.532.092 1.089.278zM21.49 34.976h.986v2.988h3.584v-2.988h.987v7.29h-.987v-3.472h-3.584v3.472h-.986zM29.01 34.976h1.328l3.232 6.099v-6.099h.958v7.29h-1.329l-3.232-6.099v6.099h-.957z"/></g></svg>