<svg width="48" height="48" xmlns="http://www.w3.org/2000/svg"><defs><radialGradient id="d" cx="7.496" cy="8.45" r="20" gradientTransform="matrix(0 2.6366 -2.2187 0 42.748 -18.606)" gradientUnits="userSpaceOnUse"><stop stop-color="#ff7a35" offset="0"/><stop stop-color="#f0431a" offset="1"/></radialGradient><radialGradient id="b" cx="26.53" cy="23.566" r="17.5" gradientTransform="matrix(-1.7302 -.00339 .00346 -1.7689 87.322 43.647)" gradientUnits="userSpaceOnUse"><stop stop-opacity=".659" offset="0"/><stop stop-color="#cecece" stop-opacity="0" offset="1"/></radialGradient><linearGradient id="a" x1="25.132" x2="25.132" y1=".985" y2="47.013" gradientTransform="matrix(1 0 0 .95617 0 -.518)" gradientUnits="userSpaceOnUse"><stop stop-color="#dadada" offset="0"/><stop stop-color="#fff" offset="1"/></linearGradient><linearGradient id="c" x1="91.308" x2="95.182" y1="98.192" y2="102.07" gradientTransform="matrix(.56521 0 0 -.60266 -19.183 70.781)" gradientUnits="userSpaceOnUse"><stop stop-color="#fcfcfc" offset="0"/><stop stop-color="#c1c1c1" offset="1"/></linearGradient></defs><path d="m6.5 1.872 21.021.002L41.5 16.226v29.651h-35V1.871z" fill="none" stroke="#000" stroke-opacity=".549"/><path d="m6.5 1.894 20.954.002L41.5 16.226V45.9h-35V1.893z" fill="url(#a)"/><path d="m6.5 1.894 20.954.002L41.5 16.226V45.9h-35V1.893z" fill="url(#b)"/><path fill="none" d="M19.632 1.872H41.5v24.125H19.632z"/><path d="M29.349 14.212c-.045-3.443.093-9.233-1.843-12.276 0 0 12.641 12.709 13.994 14.29 0 0-2.348-1.878-12.152-2.014z" fill="url(#c)"/><path d="M11.095 38.336c0-.46.159-.847.477-1.16a1.586 1.586 0 0 1 1.167-.478c.449 0 .83.16 1.142.478.318.313.477.7.477 1.16 0 .45-.16.833-.477 1.152-.313.312-.693.469-1.142.469-.46 0-.849-.157-1.167-.47a1.553 1.553 0 0 1-.477-1.151M11 30.94v2.724c3.48 0 6.307 2.832 6.307 6.32h2.734c0-4.995-4.056-9.044-9.04-9.044zm.005-5.962v3.012c6.608 0 11.973 5.372 11.973 11.989H26c0-8.283-6.724-15.001-14.995-15.001z" color="#000" fill="url(#d)" style="isolation:auto;mix-blend-mode:normal"/></svg>