<svg width="48" height="48" viewBox="0 0 12.7 12.7" xmlns="http://www.w3.org/2000/svg"><defs><linearGradient id="a" x1="148.93" x2="155.51" y1="873.19" y2="886.31" gradientTransform="translate(238.52 -125.13) scale(.73261)" gradientUnits="userSpaceOnUse"><stop stop-color="#e6b793" offset="0"/><stop stop-color="#ea9f68" offset="1"/></linearGradient><linearGradient id="b" x1="58.184" x2="64.173" y1="992.95" y2="979.05" gradientTransform="translate(325.39 -203.62) scale(.73261)" gradientUnits="userSpaceOnUse"><stop stop-color="#da9e61" offset="0"/><stop stop-color="#ffc08d" offset="1"/></linearGradient><linearGradient id="c" x1="54.138" x2="57.452" y1="1022.3" y2="1020.6" gradientTransform="translate(325.39 -203.62) scale(.73261)" gradientUnits="userSpaceOnUse"><stop stop-color="#894e24" offset="0"/><stop stop-color="#75411b" offset="1"/></linearGradient><linearGradient id="d" x1="69.802" x2="65.326" y1="1014" y2="1001.7" gradientTransform="translate(325.39 -203.62) scale(.73261)" gradientUnits="userSpaceOnUse"><stop stop-color="#cd7b3c" offset="0"/><stop stop-color="#d99663" offset="1"/></linearGradient><linearGradient id="e" x1="38.672" x2="44.922" y1="1020.1" y2="1022.7" gradientTransform="translate(325.39 -203.62) scale(.73261)" gradientUnits="userSpaceOnUse"><stop stop-color="#552c0f" offset="0"/><stop stop-color="#783e16" offset="1"/></linearGradient><linearGradient id="f" x1="26.575" x2="35.322" y1="1014.5" y2="1002.5" gradientTransform="translate(325.39 -203.62) scale(.73261)" gradientUnits="userSpaceOnUse"><stop stop-color="#d38755" offset="0"/><stop stop-color="#dda375" offset="1"/></linearGradient><linearGradient id="h" x1="9.789" x2="9.789" y1="12.171" y2="7.937" gradientUnits="userSpaceOnUse"><stop stop-color="#da450d" offset="0"/><stop stop-color="#ff8e64" offset="1"/></linearGradient><filter id="g" x="-.036" y="-.036" width="1.072" height="1.072" color-interpolation-filters="sRGB"><feGaussianBlur stdDeviation=".063"/></filter></defs><g opacity=".03"><path d="M10.138 5.21v4.773L6.32 12.451l-.019-4.79z"/><path d="M2.467 5.21v4.773l3.853 2.471-.018-4.793z"/></g><g opacity=".03"><path d="M10.119 5.203v4.756l-3.804 2.459-.018-4.773zM2.475 5.203v4.756l3.84 2.462-.018-4.776z"/></g><g opacity=".03"><path d="M10.105 5.202v4.74l-3.79 2.45-.018-4.756zM2.488 5.202v4.74l3.826 2.454-.017-4.76z"/></g><g opacity=".03"><path d="M10.096 5.208v4.723L6.32 12.373 6.3 7.633zM2.506 5.208v4.723l3.813 2.445L6.3 7.633z"/></g><g opacity=".03"><path d="M10.078 5.2v4.708l-3.764 2.434-.018-4.724z"/><path d="M2.514 5.2v4.708l3.8 2.437-.018-4.727z"/></g><g opacity=".03"><path d="M10.066 5.2v4.693l-3.752 2.425-.018-4.708zM2.525 5.2v4.693l3.788 2.429-.017-4.712z"/></g><g opacity=".03"><path d="M10.06 5.207v4.678l-3.742 2.418L6.3 7.61z"/><path d="M2.541 5.207v4.678l3.776 2.422L6.3 7.609z"/></g><g opacity=".03"><path d="M10.048 5.207V9.87l-3.73 2.411-.018-4.68zM2.552 5.207V9.87l3.765 2.415L6.3 7.602z"/></g><g opacity=".03"><path d="M10.032 5.2V9.85l-3.72 2.404-.017-4.667zM2.557 5.2V9.85l3.755 2.408-.017-4.67z"/></g><g opacity=".03"><path d="M10.022 5.2v4.638l-3.71 2.398-.017-4.654z"/><path d="M2.567 5.2v4.638l3.745 2.402-.017-4.659z"/></g><g opacity=".03"><path d="M10.017 5.205v4.627l-3.7 2.391L6.3 7.581z"/><path d="M2.582 5.205v4.627l3.734 2.395L6.3 7.58z"/></g><g opacity=".03"><path d="M10.006 5.205v4.614l-3.69 2.385-.017-4.63zM2.591 5.205v4.614l3.725 2.388-.017-4.633z"/></g><g opacity=".03"><path d="M9.992 5.198v4.603l-3.68 2.379-.018-4.618zM2.596 5.198v4.603l3.715 2.382-.017-4.621z"/></g><g opacity=".03"><path d="M9.982 5.198v4.59l-3.67 2.372-.019-4.605z"/><path d="M2.605 5.198v4.59l3.705 2.376-.016-4.61z"/></g><g opacity=".03"><path d="M9.972 5.197v4.578L6.31 12.141l-.018-4.593z"/><path d="M2.615 5.197v4.578l3.695 2.37-.017-4.597z"/></g><g opacity=".03"><path d="M9.963 5.197v4.567l-3.652 2.36-.018-4.582z"/><path d="M2.624 5.197v4.567l3.686 2.364-.017-4.586z"/></g><g opacity=".03"><path d="M9.954 5.197v4.556L6.31 12.108l-.017-4.572z"/><path d="M2.632 5.197v4.556L6.31 12.11l-.017-4.575z"/></g><path d="m6.297 2.87 3.77 2.335-3.744 2.349-3.789-2.35z" fill="#925c36"/><path d="m337.71 520.17 13.566-8.397 9.213 7.585-13.563 8.418z" fill="url(#a)" transform="translate(-93.878 -141.47) scale(.27791)"/><path d="m360.47 519.37 13.595 8.415 9.283-7.551-13.633-8.453z" fill="url(#b)" transform="translate(-93.878 -141.47) scale(.27791)"/><path d="M6.297 2.87v4.006L2.553 9.225l-.019-4.02z" fill="#894e24"/><path d="M6.297 2.87v4.006l3.745 2.349.018-4.02z" fill="#783e16"/><path d="M374 527.77v16.353l-13.475 8.453-.065-16.408z" fill="url(#c)" transform="translate(-93.878 -141.47) scale(.27791)"/><path d="m360.56 536.18 13.566-8.397 9.283 7.55-13.633 8.453z" fill="url(#d)" transform="translate(-93.878 -141.47) scale(.27791)"/><path d="M346.92 527.77v16.353l13.602 8.464-.062-16.42z" fill="url(#e)" transform="translate(-93.878 -141.47) scale(.27791)"/><path d="m337.71 535.38 13.566 8.397 9.283-7.55-13.633-8.453z" fill="url(#f)" transform="translate(-93.878 -141.47) scale(.27791)"/><g fill="#fbdf45"><path d="m2.533 5.207 3.78 2.343 3.773-2.336L6.297 2.87z" opacity=".7"/><path d="m2.533 4.148 3.78 2.343 3.773-2.336-3.789-2.342z" opacity=".7"/><path d="m2.534 4.149.008 1.068 3.787 2.34 3.758-2.34.001-1.063L6.313 6.49z" opacity=".35"/></g><circle cx="9.789" cy="10.054" r="2.117" fill-rule="evenodd" filter="url(#g)" opacity=".25" style="paint-order:fill markers stroke"/><circle cx="9.789" cy="10.054" r="2.117" fill="url(#h)" fill-rule="evenodd" style="paint-order:fill markers stroke"/><path d="M9.723 8.996a1.846 1.846 0 0 0-.208.013c-.23.035-.414.115-.533.233a.474.474 0 0 0-.13.221.6.6 0 0 0-.003.225c.048.165.163.293.378.421.092.054.163.09.366.182.245.11.32.154.354.209.014.022.019.034.017.06-.004.043-.025.064-.075.082a.248.248 0 0 1-.108.016 1.042 1.042 0 0 1-.358-.073 1.302 1.302 0 0 1-.279-.137c-.081-.053-.088-.055-.112-.042-.018.01-.151.128-.25.224-.064.063-.064.075-.02.118.043.043.166.134.233.173.072.043.121.067.203.097.138.051.254.073.47.091.05.004.226.005.288 0 .339-.027.615-.138.76-.3a.484.484 0 0 0 .11-.176.62.62 0 0 0 .011-.279.612.612 0 0 0-.232-.345c-.127-.1-.255-.165-.562-.288-.215-.086-.295-.131-.316-.179-.012-.026-.005-.07.012-.088.034-.034.1-.046.183-.036.157.02.36.091.537.19.034.02.068.036.075.037.029.007.046-.004.162-.137.143-.163.141-.156.063-.212a1.633 1.633 0 0 0-.816-.294 2.173 2.173 0 0 0-.22-.006z" fill="#ffb27c"/></svg>