<svg width="48" height="48" version="1.1" xmlns="http://www.w3.org/2000/svg" xmlns:xlink="http://www.w3.org/1999/xlink">
 <defs>
  <linearGradient id="e">
   <stop stop-color="#f0f0f0" offset="0"/>
   <stop stop-color="#fffffd" offset="1"/>
  </linearGradient>
  <linearGradient id="az" x1="96.013" x2="92.982" y1="48.401" y2="46.034" gradientUnits="userSpaceOnUse">
   <stop stop-color="#0a0a00" offset="0"/>
   <stop stop-color="#0b0a05" offset="1"/>
  </linearGradient>
  <linearGradient id="ay" x1="203.07" x2="201.77" y1="964.84" y2="964.08" gradientTransform="matrix(1 0 0 -1 -152.56 1969.1)" gradientUnits="userSpaceOnUse" xlink:href="#a"/>
  <linearGradient id="a">
   <stop stop-color="#dadedd" offset="0"/>
   <stop stop-color="#f7f7f5" offset="1"/>
  </linearGradient>
  <linearGradient id="ax" x1="203.07" x2="201.77" y1="964.84" y2="964.08" gradientTransform="translate(-152.56)" gradientUnits="userSpaceOnUse" xlink:href="#a"/>
  <linearGradient id="aw" x1="198.7" x2="199.5" y1="965.89" y2="965.23" gradientTransform="translate(-152.56 .021027)" gradientUnits="userSpaceOnUse" xlink:href="#d"/>
  <linearGradient id="d">
   <stop stop-color="#b1b1b1" offset="0"/>
   <stop stop-color="#f7f7f7" offset="1"/>
  </linearGradient>
  <linearGradient id="av" x1="198.61" x2="199.43" y1="963.58" y2="962.76" gradientTransform="translate(-152.56)" gradientUnits="userSpaceOnUse" xlink:href="#d"/>
  <linearGradient id="au" x1="203.08" x2="201.12" y1="969.2" y2="968.47" gradientTransform="translate(-152.56 .033401)" gradientUnits="userSpaceOnUse" xlink:href="#a"/>
  <linearGradient id="at" x1="198.52" x2="199.36" y1="970.07" y2="969.39" gradientTransform="translate(-152.56 .052574)" gradientUnits="userSpaceOnUse" xlink:href="#d"/>
  <linearGradient id="as" x1="198.61" x2="199.85" y1="967.93" y2="967.09" gradientTransform="translate(-152.56 .031555)" gradientUnits="userSpaceOnUse" xlink:href="#d"/>
  <linearGradient id="ar" x1="202.41" x2="201.09" y1="966.86" y2="965.94" gradientTransform="translate(-152.56 .016701)" gradientUnits="userSpaceOnUse" xlink:href="#a"/>
  <linearGradient id="aq" x1="203.07" x2="201.77" y1="964.84" y2="964.08" gradientTransform="translate(-152.56 9.0722)" gradientUnits="userSpaceOnUse" xlink:href="#a"/>
  <linearGradient id="ap" x1="198.7" x2="199.5" y1="965.89" y2="965.23" gradientTransform="translate(-152.56 9.0895)" gradientUnits="userSpaceOnUse" xlink:href="#d"/>
  <linearGradient id="ao" x1="198.61" x2="199.43" y1="963.58" y2="962.76" gradientTransform="translate(-152.56 9.0685)" gradientUnits="userSpaceOnUse" xlink:href="#d"/>
  <linearGradient id="an" x1="203.08" x2="201.12" y1="969.2" y2="968.47" gradientTransform="translate(-152.56 9.1056)" gradientUnits="userSpaceOnUse" xlink:href="#a"/>
  <linearGradient id="am" x1="198.52" x2="199.36" y1="970.07" y2="969.39" gradientTransform="translate(-152.56 9.1211)" gradientUnits="userSpaceOnUse" xlink:href="#d"/>
  <linearGradient id="al" x1="198.61" x2="199.85" y1="967.93" y2="967.09" gradientTransform="translate(-152.56 9.1)" gradientUnits="userSpaceOnUse" xlink:href="#d"/>
  <linearGradient id="ak" x1="202.41" x2="201.09" y1="966.86" y2="965.94" gradientTransform="translate(-152.56 9.0889)" gradientUnits="userSpaceOnUse" xlink:href="#a"/>
  <linearGradient id="aj" x1="203.07" x2="201.77" y1="964.84" y2="964.08" gradientTransform="translate(-152.56 6.8041)" gradientUnits="userSpaceOnUse" xlink:href="#a"/>
  <linearGradient id="ai" x1="203.08" x2="201.12" y1="969.2" y2="968.47" gradientTransform="translate(-152.56 11.374)" gradientUnits="userSpaceOnUse" xlink:href="#a"/>
  <linearGradient id="ah" x1="203.07" x2="201.77" y1="964.84" y2="964.08" gradientTransform="translate(-152.56 18.144)" gradientUnits="userSpaceOnUse" xlink:href="#a"/>
  <linearGradient id="ag" x1="198.7" x2="199.5" y1="965.89" y2="965.23" gradientTransform="translate(-152.56 18.158)" gradientUnits="userSpaceOnUse" xlink:href="#d"/>
  <linearGradient id="af" x1="198.61" x2="199.43" y1="963.58" y2="962.76" gradientTransform="translate(-152.56 18.137)" gradientUnits="userSpaceOnUse" xlink:href="#d"/>
  <linearGradient id="ae" x1="203.08" x2="201.12" y1="969.2" y2="968.47" gradientTransform="translate(-152.56 18.178)" gradientUnits="userSpaceOnUse" xlink:href="#a"/>
  <linearGradient id="ad" x1="198.52" x2="199.36" y1="970.07" y2="969.39" gradientTransform="translate(-152.56 18.19)" gradientUnits="userSpaceOnUse" xlink:href="#d"/>
  <linearGradient id="ac" x1="198.61" x2="199.85" y1="967.93" y2="967.09" gradientTransform="translate(-152.56 18.168)" gradientUnits="userSpaceOnUse" xlink:href="#d"/>
  <linearGradient id="ab" x1="202.41" x2="201.09" y1="966.86" y2="965.94" gradientTransform="translate(-152.56 18.161)" gradientUnits="userSpaceOnUse" xlink:href="#a"/>
  <linearGradient id="aa" x1="203.07" x2="201.77" y1="964.84" y2="964.08" gradientTransform="translate(-152.56 27.217)" gradientUnits="userSpaceOnUse" xlink:href="#a"/>
  <linearGradient id="z" x1="198.7" x2="199.5" y1="965.89" y2="965.23" gradientTransform="translate(-152.56 27.226)" gradientUnits="userSpaceOnUse" xlink:href="#d"/>
  <linearGradient id="y" x1="198.61" x2="199.43" y1="963.58" y2="962.76" gradientTransform="translate(-152.56 27.205)" gradientUnits="userSpaceOnUse" xlink:href="#d"/>
  <linearGradient id="x" x1="203.08" x2="201.12" y1="969.2" y2="968.47" gradientTransform="translate(-152.56 27.25)" gradientUnits="userSpaceOnUse" xlink:href="#a"/>
  <linearGradient id="w" x1="198.52" x2="199.36" y1="970.07" y2="969.39" gradientTransform="translate(-152.56 27.258)" gradientUnits="userSpaceOnUse" xlink:href="#d"/>
  <linearGradient id="v" x1="198.61" x2="199.85" y1="967.93" y2="967.09" gradientTransform="translate(-152.56 27.237)" gradientUnits="userSpaceOnUse" xlink:href="#d"/>
  <linearGradient id="u" x1="202.41" x2="201.09" y1="966.86" y2="965.94" gradientTransform="translate(-152.56 27.233)" gradientUnits="userSpaceOnUse" xlink:href="#a"/>
  <linearGradient id="t" x1="203.07" x2="201.77" y1="964.84" y2="964.08" gradientTransform="translate(-152.56 24.948)" gradientUnits="userSpaceOnUse" xlink:href="#a"/>
  <linearGradient id="s" x1="203.08" x2="201.12" y1="969.2" y2="968.47" gradientTransform="translate(-152.56 29.518)" gradientUnits="userSpaceOnUse" xlink:href="#a"/>
  <linearGradient id="r" x1="203.07" x2="201.77" y1="964.84" y2="964.08" gradientTransform="translate(-152.56 36.288)" gradientUnits="userSpaceOnUse" xlink:href="#a"/>
  <linearGradient id="q" x1="198.7" x2="199.5" y1="965.89" y2="965.23" gradientTransform="translate(-152.56 36.294)" gradientUnits="userSpaceOnUse" xlink:href="#d"/>
  <linearGradient id="p" x1="198.61" x2="199.43" y1="963.58" y2="962.76" gradientTransform="translate(-152.56 36.274)" gradientUnits="userSpaceOnUse" xlink:href="#d"/>
  <linearGradient id="o" x1="198.61" x2="199.85" y1="967.93" y2="967.09" gradientTransform="translate(-152.56 36.304)" gradientUnits="userSpaceOnUse" xlink:href="#d"/>
  <linearGradient id="n" x1="202.41" x2="201.09" y1="966.86" y2="965.94" gradientTransform="translate(-152.56 36.304)" gradientUnits="userSpaceOnUse" xlink:href="#a"/>
  <linearGradient id="m" x1="48.304" x2="48.304" y1="1010.4" y2="1009.7" gradientTransform="matrix(.48489 0 0 .48489 .72528 -464.78)" gradientUnits="userSpaceOnUse" xlink:href="#e"/>
  <linearGradient id="l" x1="106.39" x2="105.79" y1="1006.2" y2="1016.1" gradientTransform="matrix(.48405 .028561 -.028561 .48405 .72528 -464.78)" gradientUnits="userSpaceOnUse">
   <stop stop-color="#959794" offset="0"/>
   <stop stop-opacity="0" offset="1"/>
  </linearGradient>
  <linearGradient id="k" x1="49.812" x2="49.812" y1="1005.8" y2="1008.6" gradientTransform="matrix(.48489 0 0 .48489 .72528 -464.78)" gradientUnits="userSpaceOnUse" xlink:href="#e"/>
  <linearGradient id="j" x1="49.875" x2="45.878" y1="60.562" y2="60.169" gradientTransform="matrix(.48489 0 0 .48489 .72528 -1.0489)" gradientUnits="userSpaceOnUse">
   <stop stop-color="#8b8d82" offset="0"/>
   <stop stop-color="#9aa692" stop-opacity="0" offset="1"/>
  </linearGradient>
  <linearGradient id="i" x1="50.429" x2="46.404" y1="1012.6" y2="1024" gradientTransform="matrix(.48489 0 0 .48489 .72528 -464.78)" gradientUnits="userSpaceOnUse">
   <stop stop-color="#b7b4b8" offset="0"/>
   <stop stop-color="#f5f5f5" offset=".30464"/>
   <stop stop-color="#f3f3f3" offset=".85247"/>
   <stop stop-color="#dcdcdc" offset="1"/>
  </linearGradient>
  <linearGradient id="h" x1="1042.3" x2="962.45" y1="-53.591" y2="-53.591" gradientTransform="matrix(0 .2677 -.18992 0 14.884 -255.77)" gradientUnits="userSpaceOnUse">
   <stop stop-color="#262a19" offset="0"/>
   <stop stop-color="#2f2c33" offset=".22096"/>
   <stop stop-color="#3a3a3a" offset=".48518"/>
   <stop stop-color="#3d3c37" offset=".76176"/>
   <stop stop-color="#2e3122" offset=".95758"/>
   <stop stop-color="#001200" offset="1"/>
  </linearGradient>
  <linearGradient id="g" x1="51.072" x2="51.072" y1="53.212" y2="6.0851" gradientTransform="matrix(.48489 0 0 .48489 .72528 -1.0489)" gradientUnits="userSpaceOnUse">
   <stop stop-color="#fff" stop-opacity=".3" offset="0"/>
   <stop stop-color="#fff" stop-opacity=".2" offset=".31785"/>
   <stop stop-color="#fff" stop-opacity=".2" offset=".79513"/>
   <stop stop-color="#fff" stop-opacity=".3" offset="1"/>
  </linearGradient>
  <linearGradient id="c" x1="91.308" x2="95.182" y1="98.192" y2="102.07" gradientTransform="matrix(.56521 0 0 -.60266 -19.183 70.781)" gradientUnits="userSpaceOnUse">
   <stop stop-color="#fcfcfc" offset="0"/>
   <stop stop-color="#c1c1c1" offset="1"/>
  </linearGradient>
  <radialGradient id="f" cx="26.53" cy="23.566" r="17.5" gradientTransform="matrix(-1.7302 -.0033869 .0034626 -1.7689 87.322 43.647)" gradientUnits="userSpaceOnUse">
   <stop stop-opacity=".65926" offset="0"/>
   <stop stop-color="#cecece" stop-opacity="0" offset="1"/>
  </radialGradient>
  <linearGradient id="b" x1="25.132" x2="25.132" y1=".98521" y2="47.013" gradientTransform="matrix(1 0 0 .95617 9.9862e-8 -.51792)" gradientUnits="userSpaceOnUse">
   <stop stop-color="#dadada" offset="0"/>
   <stop stop-color="#fff" offset="1"/>
  </linearGradient>
 </defs>
 <path d="m6.5 1.8722c5.8015 0 21.021 0.00228 21.021 0.00228l13.979 14.352 3.6e-5 29.651h-35v-44.006z" fill="none" stroke="#000" stroke-opacity=".54902"/>
 <path d="m6.5 1.8942c5.8015 0 20.954 0.00228 20.954 0.00228l14.046 14.33 3.6e-5 29.673h-35v-44.006z" fill="url(#b)"/>
 <rect x="19.632" y="1.8722" width="21.868" height="24.125" fill="none"/>
 <path d="m21.242 1.8605v21.123c0 1.0237 0.82495 1.8486 1.8486 1.8486h1.8183c1.0237 0 1.8486-0.82495 1.8486-1.8486v-21.123h-5.5156z" fill="url(#g)"/>
 <path d="m22.629 24.206-0.48195 6.6074-0.01659 0.18925c-0.0059 0.0577-0.01659 0.11429-0.01659 0.17349 0 0.98956 0.85168 1.7977 1.8946 1.7977 1.0429 0 1.878-0.80817 1.878-1.7977 0-0.0515-4e-5 -0.09484-5.3e-5 -0.12607l-0.49857-6.8282-2.7588-0.01552zm1.3794 6.1659c0.47155 0 0.84757 0.35683 0.84757 0.80429s-0.37603 0.82-0.84757 0.82-0.86419-0.37254-0.86419-0.82 0.39265-0.80429 0.86419-0.80429z" opacity=".05"/>
 <path d="m22.629 23.964-0.48195 6.6074-0.01659 0.18925c-0.0059 0.0577-0.01659 0.11429-0.01659 0.17349 0 0.98956 0.85168 1.7977 1.8946 1.7977 1.0429 0 1.878-0.80817 1.878-1.7977 0-0.0515-4e-5 -0.09484-5.3e-5 -0.12607l-0.49857-6.8282-2.7588-0.01552zm1.3794 6.1659c0.47155 0 0.84757 0.35683 0.84757 0.80429s-0.37603 0.82-0.84757 0.82-0.86419-0.37254-0.86419-0.82 0.39265-0.80429 0.86419-0.80429z" opacity=".1"/>
 <path d="m22.629 23.721-0.48195 6.6074-0.01659 0.18925c-0.0059 0.0577-0.01659 0.11429-0.01659 0.17349 0 0.98956 0.85168 1.7977 1.8946 1.7977 1.0429 0 1.878-0.80817 1.878-1.7977 0-0.05149-4e-5 -0.09484-5.3e-5 -0.12607l-0.49858-6.8282-2.7588-0.015516zm1.3794 6.1659c0.47155 0 0.84757 0.35683 0.84757 0.80429s-0.37603 0.82-0.84757 0.82-0.86419-0.37254-0.86419-0.82 0.39265-0.80429 0.86419-0.80429z" opacity=".05"/>
 <path d="m21.727 1.8605v21.032c0 0.80364 0.63587 1.4547 1.4395 1.4547h1.6668c0.80364 0 1.4395-0.65103 1.4395-1.4547v-21.032h-4.5458z" fill="url(#h)"/>
 <path d="m22.75 23.893-0.43943 6.349-0.01513 0.18183c-0.0054 0.05547-0.01513 0.10983-0.01513 0.1667 0 0.95087 0.77653 1.7274 1.7274 1.7274s1.7123-0.77655 1.7123-1.7274c0-0.04946-3.6e-5 -0.09111-4.8e-5 -0.12113l-0.45458-6.5612-2.5154-0.01503zm1.2577 5.9247c0.42994 0 0.77279 0.34287 0.77279 0.77282s-0.34285 0.78795-0.77279 0.78795-0.78795-0.35799-0.78795-0.78795 0.358-0.77282 0.78795-0.77282z" opacity=".2"/>
 <path d="m22.917 23.893-0.46974 6.5611v0.1364c0 0.86029 0.70042 1.5607 1.5607 1.5607 0.86032 0 1.5456-0.70042 1.5456-1.5607v-0.09092l-0.45458-6.6066h-2.182zm1.091 5.7732c0.51572 0 0.92432 0.40862 0.92432 0.92435s-0.4086 0.93947-0.92432 0.93947-0.93947-0.42374-0.93947-0.93947 0.42376-0.92435 0.93947-0.92435z" fill="url(#i)"/>
 <path d="m24.008 22.838c-1.828 0-2.0559 0.26984-1.1419 1.3114 0.0044 0.0053 0.01136 0.0078 0.0154 0.01309 0.0054 0.0073-5e-3 0.01891 0 0.02667 0.0158 0.19279 0.1901 0.34791 0.41665 0.34791h1.4043c0.22039 0 0.37704-0.14925 0.40122-0.33457 0.01254-0.02085 0.03121-0.03637 0.04627-0.05353 0.914-1.0415 0.68608-1.3113-1.1419-1.3113z" opacity=".1"/>
 <path d="m24.5 25.059c-0.04695 0.0028-0.08178 0.02895-0.07576 0.07576l0.66672 5.1368c0.0043 0.03828 0.0078 0.09353 0.01 0.11983 0.08373 0.54952-0.26292 1.0814-0.81308 1.2288-0.5901 0.15812-1.2056-0.19785-1.3638-0.78795-0.05025-0.18755-0.05025-0.3731 0-0.56065l-0.15153-0.04546c-0.05748 0.21453-0.05748 0.43704 0 0.65157 0.18086 0.67497 0.88577 1.0749 1.5607 0.89402 0.57217-0.15331 0.93807-0.66979 0.92699-1.235-3.92e-4 -0.07507 0.0037-0.14975-0.0027-0.2197l-0.66673-5.1823c-6e-3 -0.04676-0.04396-0.07853-0.09092-0.07576z" fill="url(#j)" opacity=".5"/>
 <path transform="matrix(.1603 -.053735 .042953 .20054 6.7504 21.304)" d="m96.782 48.532c-2.382 2.382-3.1954 2.164-4.0673-1.0898-0.87186-3.2538-0.27637-3.8493 2.9775-2.9775 3.2538 0.87186 3.4718 1.6853 1.0898 4.0673z" fill="#fff" opacity=".2"/>
 <path d="m24.008 22.726c-1.9967 0-2.2457 0.30553-1.2473 1.485 0.0048 0.0058 0.0124 0.0087 0.01683 0.01503 0.0059 0.0082-0.0054 0.02134 0 0.03006 0.01726 0.21835 0.20765 0.39397 0.45511 0.39397h1.5339c0.24073 0 0.41184-0.16898 0.43825-0.37884 0.0137-0.02376 0.03409-0.04122 0.05054-0.06061 0.99837-1.1794 0.7494-1.485-1.2473-1.485z" opacity=".1"/>
 <path d="m24.008 22.483c-1.795 0-2.0188 0.30553-1.1213 1.485 0.0044 0.0058 0.01115 0.0087 0.01513 0.01503 0.0053 0.0082-0.0049 0.02134 0 0.03006 0.01552 0.21835 0.18667 0.39397 0.40913 0.39397h1.3789c0.21641 0 0.37023-0.16898 0.39397-0.37884 0.01232-0.02376 0.03064-0.04121 0.04543-0.06061 0.8975-1.1794 0.67369-1.485-1.1213-1.485z" fill="url(#k)"/>
 <path d="m23.529 24.988c0.04695 0.0028 0.08562 0.04294 0.07975 0.08976l-0.66726 5.3136c-0.0057 0.04678-0.0428 0.08253-0.08975 0.07976-0.04695-0.0028-0.08563-0.04294-0.07976-0.08976l0.66726-5.3136c0.0057-0.04678 0.0428-0.08253 0.08976-0.07976z" fill="url(#l)"/>
 <path transform="matrix(.12278 -.040628 .032898 .15162 10.789 22.305)" d="m96.782 48.532c-2.382 2.382-3.1954 2.164-4.0673-1.0898-0.87186-3.2538-0.27637-3.8493 2.9775-2.9775 3.2538 0.87186 3.4718 1.6853 1.0898 4.0673z" fill="url(#az)"/>
 <g transform="matrix(.48489 0 0 .48489 .72528 -464.78)">
  <rect x="46.375" y="1008.5" width="3.25" height="2.719" rx=".53999" ry=".5914" opacity=".1"/>
  <rect x="46.629" y="1008.8" width="2.7418" height="2.2329" rx=".45555" ry=".48566" opacity=".1"/>
 </g>
 <rect x="23.454" y="24.499" width="1.091" height=".8334" rx=".18127" ry=".18127" fill="url(#m)"/>
 <rect x="22.795" y="23.256" width="2.4245" height=".24245" rx=".17988" ry=".12122" fill="#bec3bf"/>
 <g transform="matrix(.48489 0 0 .48489 .72528 -464.78)">
  <rect x="46.375" y="1003.9" width="3.25" height="6" rx=".94067" ry=".94067" opacity=".1"/>
  <rect x="46.618" y="1004.2" width="2.7639" height="5.5003" rx=".64528" ry=".64528" opacity=".2"/>
 </g>
 <rect x="23.454" y="22.256" width="1.091" height="2.4245" rx=".17473" ry=".17473" fill="#fff"/>
 <g transform="matrix(.48489 0 0 .48489 .72528 -464.7)">
  <path d="m48.816 1005.4c0-0.2076-0.18286-0.3164-0.33594-0.3164h-0.32031v0.062c0 0.1315-0.0873 0.25-0.21875 0.25h-0.1875c-0.1315 0-0.21875-0.1185-0.21875-0.25v-0.4687c0-0.1315 0.0873-0.25 0.21875-0.25h0.1875c0.1315 0 0.21875 0.1185 0.21875 0.25v0.062h0.33594c0.15056 0 0.32031-0.1382 0.32031-0.3086 0-0.1914 0.15261-0.3164 0.32813-0.3164h1.5781v1.5937h-1.6016c-0.15943 0-0.30469-0.1616-0.30469-0.3086z" fill="url(#ay)"/>
  <path d="m48.816 963.64c0 0.20757-0.18286 0.31641-0.33594 0.31641h-0.32031v-0.0625c0-0.1315-0.0873-0.25-0.21875-0.25h-0.1875c-0.1315 0-0.21875 0.1185-0.21875 0.25v0.46875c0 0.1315 0.0873 0.25 0.21875 0.25h0.1875c0.1315 0 0.21875-0.1185 0.21875-0.25v-0.0625h0.33594c0.15056 0 0.32031 0.13816 0.32031 0.30859 0 0.1914 0.15261 0.31641 0.32813 0.31641h1.5781v-1.5938h-1.6016c-0.15943 0-0.30469 0.16168-0.30469 0.30859z" fill="url(#ax)"/>
  <path d="m47.184 964.78c0 0.20757 0.18286 0.31641 0.33594 0.31641h0.32031v-0.0625c0-0.1315 0.0873-0.25 0.21875-0.25h0.1875c0.1315 0 0.21875 0.1185 0.21875 0.25v0.46875c0 0.1315-0.0873 0.25-0.21875 0.25h-0.1875c-0.1315 0-0.21875-0.1185-0.21875-0.25v-0.0625h-0.33594c-0.15056 0-0.32031 0.13816-0.32031 0.30859 0 0.19141-0.15261 0.31641-0.32813 0.31641h-1.5781v-1.5938h1.6016c0.15943 0 0.30469 0.16168 0.30469 0.30859z" fill="url(#aw)"/>
  <path d="m47.184 962.51c0 0.20757 0.18286 0.31641 0.33594 0.31641h0.32031v-0.0625c0-0.1315 0.0873-0.25 0.21875-0.25h0.1875c0.1315 0 0.21875 0.1185 0.21875 0.25v0.46875c0 0.1315-0.0873 0.25-0.21875 0.25h-0.1875c-0.1315 0-0.21875-0.1185-0.21875-0.25v-0.0625h-0.33594c-0.15056 0-0.32031 0.13816-0.32031 0.30859 0 0.19141-0.15261 0.31641-0.32813 0.31641h-1.5781v-1.5938h1.6016c0.15943 0 0.30469 0.16168 0.30469 0.30859z" fill="url(#av)"/>
  <path d="m48.816 968.17c0 0.20757-0.18286 0.31641-0.33594 0.31641h-0.32031v-0.0625c0-0.1315-0.0873-0.25-0.21875-0.25h-0.1875c-0.1315 0-0.21875 0.1185-0.21875 0.25v0.46875c0 0.1315 0.0873 0.25 0.21875 0.25h0.1875c0.1315 0 0.21875-0.1185 0.21875-0.25v-0.0625h0.33594c0.15056 0 0.32031 0.13816 0.32031 0.30859 0 0.1914 0.15261 0.31641 0.32813 0.31641h1.5781v-1.5938h-1.6016c-0.15943 0-0.30469 0.16168-0.30469 0.30859z" fill="url(#au)"/>
  <path d="m47.184 969.32c0 0.20758 0.18286 0.31642 0.33594 0.31642h0.32031v-0.0625c0-0.1315 0.0873-0.25 0.21875-0.25h0.1875c0.1315 0 0.21875 0.1185 0.21875 0.25v0.46875c0 0.13149-0.0873 0.25-0.21875 0.25h-0.1875c-0.1315 0-0.21875-0.11851-0.21875-0.25v-0.0625h-0.33594c-0.15056 0-0.32031 0.13815-0.32031 0.30858 0 0.19142-0.15261 0.31642-0.32813 0.31642h-1.5781v-1.5938h1.6016c0.15943 0 0.30469 0.16168 0.30469 0.30858z" fill="url(#at)"/>
  <path d="m47.184 967.05c0 0.20757 0.18286 0.31641 0.33594 0.31641h0.32031v-0.0625c0-0.1315 0.0873-0.25 0.21875-0.25h0.1875c0.1315 0 0.21875 0.1185 0.21875 0.25v0.46875c0 0.13149-0.0873 0.25-0.21875 0.25h-0.1875c-0.1315 0-0.21875-0.11851-0.21875-0.25v-0.0625h-0.33594c-0.15056 0-0.32031 0.13815-0.32031 0.30859 0 0.19141-0.15261 0.31641-0.32813 0.31641h-1.5781v-1.5938h1.6016c0.15943 0 0.30469 0.16168 0.30469 0.30859z" fill="url(#as)"/>
  <path d="m48.816 965.91c0 0.20757-0.18286 0.31641-0.33594 0.31641h-0.32031v-0.0625c0-0.1315-0.0873-0.25-0.21875-0.25h-0.1875c-0.1315 0-0.21875 0.1185-0.21875 0.25v0.46875c0 0.1315 0.0873 0.25 0.21875 0.25h0.1875c0.1315 0 0.21875-0.1185 0.21875-0.25v-0.0625h0.33594c0.15056 0 0.32031 0.13816 0.32031 0.30859 0 0.1914 0.15261 0.31641 0.32813 0.31641h1.5781v-1.5938h-1.6016c-0.15943 0-0.30469 0.16168-0.30469 0.30859z" fill="url(#ar)"/>
  <path d="m48.816 972.71c0 0.20757-0.18286 0.31641-0.33594 0.31641h-0.32031v-0.0625c0-0.1315-0.0873-0.25-0.21875-0.25h-0.1875c-0.1315 0-0.21875 0.1185-0.21875 0.25v0.46875c0 0.1315 0.0873 0.25 0.21875 0.25h0.1875c0.1315 0 0.21875-0.1185 0.21875-0.25v-0.0625h0.33594c0.15056 0 0.32031 0.13816 0.32031 0.30859 0 0.1914 0.15261 0.31641 0.32813 0.31641h1.5781v-1.5938h-1.6016c-0.15943 0-0.30469 0.16168-0.30469 0.30859z" fill="url(#aq)"/>
  <path d="m47.184 973.85c0 0.20757 0.18286 0.31641 0.33594 0.31641h0.32031v-0.0625c0-0.1315 0.0873-0.25 0.21875-0.25h0.1875c0.1315 0 0.21875 0.1185 0.21875 0.25v0.46875c0 0.1315-0.0873 0.25-0.21875 0.25h-0.1875c-0.1315 0-0.21875-0.1185-0.21875-0.25v-0.0625h-0.33594c-0.15056 0-0.32031 0.13816-0.32031 0.30859 0 0.19141-0.15261 0.31641-0.32813 0.31641h-1.5781v-1.5938h1.6016c0.15943 0 0.30469 0.16168 0.30469 0.30859z" fill="url(#ap)"/>
  <path d="m47.184 971.58c0 0.20757 0.18286 0.31641 0.33594 0.31641h0.32031v-0.0625c0-0.1315 0.0873-0.25 0.21875-0.25h0.1875c0.1315 0 0.21875 0.1185 0.21875 0.25v0.46875c0 0.1315-0.0873 0.25-0.21875 0.25h-0.1875c-0.1315 0-0.21875-0.1185-0.21875-0.25v-0.0625h-0.33594c-0.15056 0-0.32031 0.13816-0.32031 0.30859 0 0.19141-0.15261 0.31641-0.32813 0.31641h-1.5781v-1.5938h1.6016c0.15943 0 0.30469 0.16168 0.30469 0.30859z" fill="url(#ao)"/>
  <path d="m48.816 977.25c0 0.20757-0.18286 0.31641-0.33594 0.31641h-0.32031v-0.0625c0-0.1315-0.0873-0.25-0.21875-0.25h-0.1875c-0.1315 0-0.21875 0.1185-0.21875 0.25v0.46875c0 0.1315 0.0873 0.25 0.21875 0.25h0.1875c0.1315 0 0.21875-0.1185 0.21875-0.25v-0.0625h0.33594c0.15056 0 0.32031 0.13816 0.32031 0.30859 0 0.1914 0.15261 0.31641 0.32813 0.31641h1.5781v-1.5938h-1.6016c-0.15943 0-0.30469 0.16168-0.30469 0.30859z" fill="url(#an)"/>
  <path d="m47.184 978.38c0 0.20758 0.18286 0.31642 0.33594 0.31642h0.32031v-0.0625c0-0.1315 0.0873-0.25 0.21875-0.25h0.1875c0.1315 0 0.21875 0.1185 0.21875 0.25v0.46875c0 0.13149-0.0873 0.25-0.21875 0.25h-0.1875c-0.1315 0-0.21875-0.11851-0.21875-0.25v-0.0625h-0.33594c-0.15056 0-0.32031 0.13815-0.32031 0.30858 0 0.19142-0.15261 0.31642-0.32813 0.31642h-1.5781v-1.5938h1.6016c0.15943 0 0.30469 0.16168 0.30469 0.30858z" fill="url(#am)"/>
  <path d="m47.184 976.12c0 0.20757 0.18286 0.31641 0.33594 0.31641h0.32031v-0.0625c0-0.1315 0.0873-0.25 0.21875-0.25h0.1875c0.1315 0 0.21875 0.1185 0.21875 0.25v0.46875c0 0.13149-0.0873 0.25-0.21875 0.25h-0.1875c-0.1315 0-0.21875-0.11851-0.21875-0.25v-0.0625h-0.33594c-0.15056 0-0.32031 0.13815-0.32031 0.30859 0 0.19141-0.15261 0.31641-0.32813 0.31641h-1.5781v-1.5938h1.6016c0.15943 0 0.30469 0.16168 0.30469 0.30859z" fill="url(#al)"/>
  <path d="m48.816 974.98c0 0.20757-0.18286 0.31641-0.33594 0.31641h-0.32031v-0.0625c0-0.1315-0.0873-0.25-0.21875-0.25h-0.1875c-0.1315 0-0.21875 0.1185-0.21875 0.25v0.46875c0 0.1315 0.0873 0.25 0.21875 0.25h0.1875c0.1315 0 0.21875-0.1185 0.21875-0.25v-0.0625h0.33594c0.15056 0 0.32031 0.13816 0.32031 0.30859 0 0.1914 0.15261 0.31641 0.32813 0.31641h1.5781v-1.5938h-1.6016c-0.15943 0-0.30469 0.16168-0.30469 0.30859z" fill="url(#ak)"/>
  <path d="m48.816 970.44c0 0.20757-0.18286 0.31641-0.33594 0.31641h-0.32031v-0.0625c0-0.1315-0.0873-0.25-0.21875-0.25h-0.1875c-0.1315 0-0.21875 0.1185-0.21875 0.25v0.46875c0 0.1315 0.0873 0.25 0.21875 0.25h0.1875c0.1315 0 0.21875-0.1185 0.21875-0.25v-0.0625h0.33594c0.15056 0 0.32031 0.13816 0.32031 0.30859 0 0.1914 0.15261 0.31641 0.32813 0.31641h1.5781v-1.5938h-1.6016c-0.15943 0-0.30469 0.16168-0.30469 0.30859z" fill="url(#aj)"/>
  <path d="m48.816 979.51c0 0.20757-0.18286 0.31641-0.33594 0.31641h-0.32031v-0.0625c0-0.1315-0.0873-0.25-0.21875-0.25h-0.1875c-0.1315 0-0.21875 0.1185-0.21875 0.25v0.46875c0 0.1315 0.0873 0.25 0.21875 0.25h0.1875c0.1315 0 0.21875-0.1185 0.21875-0.25v-0.0625h0.33594c0.15056 0 0.32031 0.13816 0.32031 0.30859 0 0.1914 0.15261 0.31641 0.32813 0.31641h1.5781v-1.5938h-1.6016c-0.15943 0-0.30469 0.16168-0.30469 0.30859z" fill="url(#ai)"/>
  <path d="m48.816 981.78c0 0.20757-0.18286 0.31641-0.33594 0.31641h-0.32031v-0.0625c0-0.1315-0.0873-0.25-0.21875-0.25h-0.1875c-0.1315 0-0.21875 0.1185-0.21875 0.25v0.46875c0 0.1315 0.0873 0.25 0.21875 0.25h0.1875c0.1315 0 0.21875-0.1185 0.21875-0.25v-0.0625h0.33594c0.15056 0 0.32031 0.13816 0.32031 0.30859 0 0.1914 0.15261 0.31641 0.32813 0.31641h1.5781v-1.5938h-1.6016c-0.15943 0-0.30469 0.16168-0.30469 0.30859z" fill="url(#ah)"/>
  <path d="m47.184 982.92c0 0.20757 0.18286 0.31641 0.33594 0.31641h0.32031v-0.0625c0-0.1315 0.0873-0.25 0.21875-0.25h0.1875c0.1315 0 0.21875 0.1185 0.21875 0.25v0.46875c0 0.1315-0.0873 0.25-0.21875 0.25h-0.1875c-0.1315 0-0.21875-0.1185-0.21875-0.25v-0.0625h-0.33594c-0.15056 0-0.32031 0.13816-0.32031 0.30859 0 0.19141-0.15261 0.31641-0.32813 0.31641h-1.5781v-1.5938h1.6016c0.15943 0 0.30469 0.16168 0.30469 0.30859z" fill="url(#ag)"/>
  <path d="m47.184 980.65c0 0.20757 0.18286 0.31641 0.33594 0.31641h0.32031v-0.0625c0-0.1315 0.0873-0.25 0.21875-0.25h0.1875c0.1315 0 0.21875 0.1185 0.21875 0.25v0.46875c0 0.1315-0.0873 0.25-0.21875 0.25h-0.1875c-0.1315 0-0.21875-0.1185-0.21875-0.25v-0.0625h-0.33594c-0.15056 0-0.32031 0.13816-0.32031 0.30859 0 0.19141-0.15261 0.31641-0.32813 0.31641h-1.5781v-1.5938h1.6016c0.15943 0 0.30469 0.16168 0.30469 0.30859z" fill="url(#af)"/>
  <path d="m48.816 986.32c0 0.20757-0.18286 0.31641-0.33594 0.31641h-0.32031v-0.0625c0-0.1315-0.0873-0.25-0.21875-0.25h-0.1875c-0.1315 0-0.21875 0.1185-0.21875 0.25v0.46875c0 0.1315 0.0873 0.25 0.21875 0.25h0.1875c0.1315 0 0.21875-0.1185 0.21875-0.25v-0.0625h0.33594c0.15056 0 0.32031 0.13816 0.32031 0.30859 0 0.1914 0.15261 0.31641 0.32813 0.31641h1.5781v-1.5938h-1.6016c-0.15943 0-0.30469 0.16168-0.30469 0.30859z" fill="url(#ae)"/>
  <path d="m47.184 987.45c0 0.20758 0.18286 0.31642 0.33594 0.31642h0.32031v-0.0625c0-0.1315 0.0873-0.25 0.21875-0.25h0.1875c0.1315 0 0.21875 0.1185 0.21875 0.25v0.46875c0 0.13149-0.0873 0.25-0.21875 0.25h-0.1875c-0.1315 0-0.21875-0.11851-0.21875-0.25v-0.0625h-0.33594c-0.15056 0-0.32031 0.13815-0.32031 0.30858 0 0.19142-0.15261 0.31642-0.32813 0.31642h-1.5781v-1.5938h1.6016c0.15943 0 0.30469 0.16168 0.30469 0.30858z" fill="url(#ad)"/>
  <path d="m47.184 985.19c0 0.20757 0.18286 0.31641 0.33594 0.31641h0.32031v-0.0625c0-0.1315 0.0873-0.25 0.21875-0.25h0.1875c0.1315 0 0.21875 0.1185 0.21875 0.25v0.46875c0 0.13149-0.0873 0.25-0.21875 0.25h-0.1875c-0.1315 0-0.21875-0.11851-0.21875-0.25v-0.0625h-0.33594c-0.15056 0-0.32031 0.13815-0.32031 0.30859 0 0.19141-0.15261 0.31641-0.32813 0.31641h-1.5781v-1.5938h1.6016c0.15943 0 0.30469 0.16168 0.30469 0.30859z" fill="url(#ac)"/>
  <path d="m48.816 984.05c0 0.20757-0.18286 0.31641-0.33594 0.31641h-0.32031v-0.0625c0-0.1315-0.0873-0.25-0.21875-0.25h-0.1875c-0.1315 0-0.21875 0.1185-0.21875 0.25v0.46875c0 0.1315 0.0873 0.25 0.21875 0.25h0.1875c0.1315 0 0.21875-0.1185 0.21875-0.25v-0.0625h0.33594c0.15056 0 0.32031 0.13816 0.32031 0.30859 0 0.1914 0.15261 0.31641 0.32813 0.31641h1.5781v-1.5938h-1.6016c-0.15943 0-0.30469 0.16168-0.30469 0.30859z" fill="url(#ab)"/>
  <path d="m48.816 990.85c0 0.20757-0.18286 0.31641-0.33594 0.31641h-0.32031v-0.0625c0-0.1315-0.0873-0.25-0.21875-0.25h-0.1875c-0.1315 0-0.21875 0.1185-0.21875 0.25v0.46875c0 0.1315 0.0873 0.25 0.21875 0.25h0.1875c0.1315 0 0.21875-0.1185 0.21875-0.25v-0.0625h0.33594c0.15056 0 0.32031 0.13816 0.32031 0.30859 0 0.1914 0.15261 0.31641 0.32813 0.31641h1.5781v-1.5938h-1.6016c-0.15943 0-0.30469 0.16168-0.30469 0.30859z" fill="url(#aa)"/>
  <path d="m47.184 991.99c0 0.20757 0.18286 0.31641 0.33594 0.31641h0.32031v-0.0625c0-0.1315 0.0873-0.25 0.21875-0.25h0.1875c0.1315 0 0.21875 0.1185 0.21875 0.25v0.46875c0 0.1315-0.0873 0.25-0.21875 0.25h-0.1875c-0.1315 0-0.21875-0.1185-0.21875-0.25v-0.0625h-0.33594c-0.15056 0-0.32031 0.13816-0.32031 0.30859 0 0.19141-0.15261 0.31641-0.32813 0.31641h-1.5781v-1.5938h1.6016c0.15943 0 0.30469 0.16168 0.30469 0.30859z" fill="url(#z)"/>
  <path d="m47.184 989.72c0 0.20757 0.18286 0.31641 0.33594 0.31641h0.32031v-0.0625c0-0.1315 0.0873-0.25 0.21875-0.25h0.1875c0.1315 0 0.21875 0.1185 0.21875 0.25v0.46875c0 0.1315-0.0873 0.25-0.21875 0.25h-0.1875c-0.1315 0-0.21875-0.1185-0.21875-0.25v-0.0625h-0.33594c-0.15056 0-0.32031 0.13816-0.32031 0.30859 0 0.19141-0.15261 0.31641-0.32813 0.31641h-1.5781v-1.5938h1.6016c0.15943 0 0.30469 0.16168 0.30469 0.30859z" fill="url(#y)"/>
  <path d="m48.816 995.39c0 0.20757-0.18286 0.31641-0.33594 0.31641h-0.32031v-0.0625c0-0.1315-0.0873-0.25-0.21875-0.25h-0.1875c-0.1315 0-0.21875 0.1185-0.21875 0.25v0.46875c0 0.1315 0.0873 0.25 0.21875 0.25h0.1875c0.1315 0 0.21875-0.1185 0.21875-0.25v-0.0625h0.33594c0.15056 0 0.32031 0.13816 0.32031 0.30859 0 0.1914 0.15261 0.31641 0.32813 0.31641h1.5781v-1.5938h-1.6016c-0.15943 0-0.30469 0.16168-0.30469 0.30859z" fill="url(#x)"/>
  <path d="m47.184 996.52c0 0.20758 0.18286 0.31642 0.33594 0.31642h0.32031v-0.0625c0-0.1315 0.0873-0.25 0.21875-0.25h0.1875c0.1315 0 0.21875 0.1185 0.21875 0.25v0.46875c0 0.13149-0.0873 0.25-0.21875 0.25h-0.1875c-0.1315 0-0.21875-0.11851-0.21875-0.25v-0.0625h-0.33594c-0.15056 0-0.32031 0.13815-0.32031 0.30858 0 0.19142-0.15261 0.31642-0.32813 0.31642h-1.5781v-1.5938h1.6016c0.15943 0 0.30469 0.16168 0.30469 0.30858z" fill="url(#w)"/>
  <path d="m47.184 994.25c0 0.20757 0.18286 0.31641 0.33594 0.31641h0.32031v-0.0625c0-0.1315 0.0873-0.25 0.21875-0.25h0.1875c0.1315 0 0.21875 0.1185 0.21875 0.25v0.46875c0 0.13149-0.0873 0.25-0.21875 0.25h-0.1875c-0.1315 0-0.21875-0.11851-0.21875-0.25v-0.0625h-0.33594c-0.15056 0-0.32031 0.13815-0.32031 0.30859 0 0.19141-0.15261 0.31641-0.32813 0.31641h-1.5781v-1.5938h1.6016c0.15943 0 0.30469 0.16168 0.30469 0.30859z" fill="url(#v)"/>
  <path d="m48.816 993.12c0 0.20757-0.18286 0.31641-0.33594 0.31641h-0.32031v-0.0625c0-0.1315-0.0873-0.25-0.21875-0.25h-0.1875c-0.1315 0-0.21875 0.1185-0.21875 0.25v0.46875c0 0.1315 0.0873 0.25 0.21875 0.25h0.1875c0.1315 0 0.21875-0.1185 0.21875-0.25v-0.0625h0.33594c0.15056 0 0.32031 0.13816 0.32031 0.30859 0 0.1914 0.15261 0.31641 0.32813 0.31641h1.5781v-1.5938h-1.6016c-0.15943 0-0.30469 0.16168-0.30469 0.30859z" fill="url(#u)"/>
  <path d="m48.816 988.59c0 0.20757-0.18286 0.31641-0.33594 0.31641h-0.32031v-0.0625c0-0.1315-0.0873-0.25-0.21875-0.25h-0.1875c-0.1315 0-0.21875 0.1185-0.21875 0.25v0.46875c0 0.1315 0.0873 0.25 0.21875 0.25h0.1875c0.1315 0 0.21875-0.1185 0.21875-0.25v-0.0625h0.33594c0.15056 0 0.32031 0.13816 0.32031 0.30859 0 0.1914 0.15261 0.31641 0.32813 0.31641h1.5781v-1.5938h-1.6016c-0.15943 0-0.30469 0.16168-0.30469 0.30859z" fill="url(#t)"/>
  <path d="m48.816 997.66c0 0.20757-0.18286 0.31641-0.33594 0.31641h-0.32031v-0.0625c0-0.1315-0.0873-0.25-0.21875-0.25h-0.1875c-0.1315 0-0.21875 0.1185-0.21875 0.25v0.46875c0 0.1315 0.0873 0.25 0.21875 0.25h0.1875c0.1315 0 0.21875-0.1185 0.21875-0.25v-0.0625h0.33594c0.15056 0 0.32031 0.13816 0.32031 0.30859 0 0.1914 0.15261 0.31641 0.32813 0.31641h1.5781v-1.5938h-1.6016c-0.15943 0-0.30469 0.16168-0.30469 0.30859z" fill="url(#s)"/>
  <path d="m48.816 999.93c0 0.20765-0.18286 0.31645-0.33594 0.31645h-0.32031v-0.062c0-0.1315-0.0873-0.25004-0.21875-0.25004h-0.1875c-0.1315 0-0.21875 0.11854-0.21875 0.25004v0.4687c0 0.1315 0.0873 0.25 0.21875 0.25h0.1875c0.1315 0 0.21875-0.1185 0.21875-0.25v-0.062h0.33594c0.15056 0 0.32031 0.1382 0.32031 0.3086 0 0.1914 0.15261 0.3164 0.32813 0.3164h1.5781v-1.5937h-1.6016c-0.15943 0-0.30469 0.16168-0.30469 0.30859z" fill="url(#r)"/>
  <path d="m47.184 1001.1c0 0.2076 0.18286 0.3164 0.33594 0.3164h0.32031v-0.062c0-0.1315 0.0873-0.25 0.21875-0.25h0.1875c0.1315 0 0.21875 0.1185 0.21875 0.25v0.4688c0 0.1315-0.0873 0.25-0.21875 0.25h-0.1875c-0.1315 0-0.21875-0.1185-0.21875-0.25v-0.062h-0.33594c-0.15056 0-0.32031 0.1381-0.32031 0.3086 0 0.1914-0.15261 0.3164-0.32813 0.3164h-1.5781v-1.5938h1.6016c0.15943 0 0.30469 0.1617 0.30469 0.3086z" fill="url(#q)"/>
  <path d="m47.184 998.79c0 0.20757 0.18286 0.31641 0.33594 0.31641h0.32031v-0.0625c0-0.1315 0.0873-0.25 0.21875-0.25h0.1875c0.1315 0 0.21875 0.1185 0.21875 0.25v0.46875c0 0.1315-0.0873 0.25-0.21875 0.25h-0.1875c-0.1315 0-0.21875-0.1185-0.21875-0.25v-0.0625h-0.33594c-0.15056 0-0.32031 0.13816-0.32031 0.30859 0 0.19141-0.15261 0.31638-0.32813 0.31638h-1.5781v-1.5937h1.6016c0.15943 0 0.30469 0.16168 0.30469 0.30859z" fill="url(#p)"/>
  <path d="m47.184 1003.3c0 0.2076 0.18286 0.3164 0.33594 0.3164h0.32031v-0.062c0-0.1315 0.0873-0.25 0.21875-0.25h0.1875c0.1315 0 0.21875 0.1185 0.21875 0.25v0.4688c0 0.1315-0.0873 0.25-0.21875 0.25h-0.1875c-0.1315 0-0.21875-0.1185-0.21875-0.25v-0.062h-0.33594c-0.15056 0-0.32031 0.1381-0.32031 0.3086 0 0.1914-0.15261 0.3164-0.32813 0.3164h-1.5781v-1.5938h1.6016c0.15943 0 0.30469 0.1617 0.30469 0.3086z" fill="url(#o)"/>
  <path d="m48.816 1002.2c0 0.2076-0.18286 0.3164-0.33594 0.3164h-0.32031v-0.062c0-0.1315-0.0873-0.25-0.21875-0.25h-0.1875c-0.1315 0-0.21875 0.1185-0.21875 0.25v0.4688c0 0.1315 0.0873 0.25 0.21875 0.25h0.1875c0.1315 0 0.21875-0.1185 0.21875-0.25v-0.062h0.33594c0.15056 0 0.32031 0.1381 0.32031 0.3086 0 0.1914 0.15261 0.3164 0.32813 0.3164h1.5781v-1.5938h-1.6016c-0.15943 0-0.30469 0.1617-0.30469 0.3086z" fill="url(#n)"/>
 </g>
 <path d="m6.5 1.8942c5.8015 0 20.954 0.00228 20.954 0.00228l14.046 14.33 3.6e-5 29.673h-35v-44.006z" fill="url(#f)"/>
 <path d="m29.349 14.212c-0.04524-3.4428 0.09264-9.2334-1.8427-12.276 0 0 12.641 12.709 13.994 14.29 0 0-2.3483-1.8776-12.152-2.0143z" fill="url(#c)"/>
 <g fill="#575757" aria-label="TAR.XZ">
  <path d="m14.014 42.3h0.68111v-4.7971h1.6259v-0.57858h-3.9329v0.57858h1.6259z"/>
  <path d="m17.886 39.298c0.19042-0.60788 0.36619-1.1865 0.53464-1.8163h0.0293c0.17577 0.62252 0.34422 1.2084 0.54196 1.8163l0.25633 0.82027h-1.6259zm-1.6405 3.0028h0.68844l0.51999-1.6405h1.9628l0.51267 1.6405h0.71773l-1.8236-5.3757h-0.75435z"/>
  <path d="m21.404 42.3h0.68111v-2.2777h0.96674l1.3036 2.2777h0.769l-1.3769-2.3509c0.73238-0.17577 1.2158-0.67379 1.2158-1.5087 0-1.1205-0.78365-1.516-1.8749-1.516h-1.6845zm0.68111-2.827v-1.9921h0.90083c0.84224 0 1.3036 0.24901 1.3036 0.95942 0 0.69576-0.4614 1.0327-1.3036 1.0327z"/>
  <path d="m26.353 42.396c0.26366 0 0.48337-0.20507 0.48337-0.50534 0-0.3076-0.21971-0.51999-0.48337-0.51999s-0.48337 0.21239-0.48337 0.51999c0 0.30028 0.21971 0.50534 0.48337 0.50534z"/>
  <path d="m27.491 42.3h0.71041l0.77632-1.4501c0.13915-0.27098 0.2783-0.54196 0.4321-0.86421h0.0293c0.17577 0.32225 0.32225 0.59323 0.4614 0.86421l0.79097 1.4501h0.74703l-1.5673-2.7391 1.4648-2.6366h-0.71041l-0.71773 1.3769c-0.13183 0.24901-0.23436 0.47605-0.38084 0.78365h-0.0293c-0.17577-0.3076-0.28563-0.53464-0.42478-0.78365l-0.73238-1.3769h-0.74703l1.4648 2.5999z"/>
  <path d="m31.924 42.3h3.6985v-0.57858h-2.8636l2.8343-4.3943v-0.40281h-3.4129v0.57858h2.578l-2.8343 4.3943z"/>
 </g>
</svg>
