<svg width="48" height="48" version="1.1" viewBox="0 0 12.7 12.7" xmlns="http://www.w3.org/2000/svg" xmlns:xlink="http://www.w3.org/1999/xlink">
 <defs>
  <linearGradient id="b" x1="25.132" x2="25.132" y1=".98521" y2="47.013" gradientTransform="matrix(.26458 0 0 .25299 3.6976e-6 -.13703)" gradientUnits="userSpaceOnUse">
   <stop stop-color="#dadada" offset="0"/>
   <stop stop-color="#fff" offset="1"/>
  </linearGradient>
  <radialGradient id="c" cx="26.53" cy="23.566" r="17.5" gradientTransform="matrix(-.45778 -.00089612 .00091615 -.46802 23.104 11.548)" gradientUnits="userSpaceOnUse">
   <stop stop-opacity=".65926" offset="0"/>
   <stop stop-color="#cecece" stop-opacity="0" offset="1"/>
  </radialGradient>
  <linearGradient id="a" x1="91.308" x2="95.182" y1="98.192" y2="102.07" gradientTransform="matrix(.14955 0 0 -.15945 -5.0755 18.727)" gradientUnits="userSpaceOnUse">
   <stop stop-color="#fcfcfc" offset="0"/>
   <stop stop-color="#c1c1c1" offset="1"/>
  </linearGradient>
 </defs>
 <path d="m1.7198 0.49535c1.535 0 5.5618 6.0325e-4 5.5618 6.0325e-4l3.6986 3.7973 1e-5 7.8452h-9.2604v-11.643z" fill="none" stroke="#000" stroke-opacity=".54902" stroke-width=".26458"/>
 <path d="m1.7198 0.50117c1.535 0 5.5441 6.0325e-4 5.5441 6.0325e-4l3.7163 3.7915 1e-5 7.851h-9.2604v-11.643z" fill="url(#b)" stroke-width=".26458"/>
 <path d="m1.7198 0.50117c1.535 0 5.5441 6.0325e-4 5.5441 6.0325e-4l3.7163 3.7915 1e-5 7.851h-9.2604v-11.643z" fill="url(#c)" stroke-width=".26458"/>
 <rect x="5.1943" y=".49535" width="5.7859" height="6.3831" fill="none" stroke-width=".26458"/>
 <path d="m7.7653 3.7603c-0.01197-0.91091 0.024511-2.443-0.48755-3.248 0 0 3.3446 3.3626 3.7026 3.7809 0 0-0.62132-0.49678-3.2152-0.53295z" fill="url(#a)" stroke-width=".26458"/>
 <g transform="matrix(.77419 0 0 .77419 -.20516 -1.5341)" fill="#666" stroke-width="1.2917">
  <g transform="translate(-4.2406e-8,-280.07)" fill="#666" style="paint-order:stroke markers fill">
   <path d="m8.467 288.71a2.91 2.91 0 0 0-2.91 2.91 2.91 2.91 0 0 0 2.91 2.911 2.91 2.91 0 0 0 2.91-2.91 2.91 2.91 0 0 0-2.91-2.91zm0 1.323a1.587 1.587 0 0 1 1.587 1.588 1.587 1.587 0 0 1-1.587 1.587 1.587 1.587 0 0 1-1.588-1.587 1.587 1.587 0 0 1 1.588-1.588z"/>
   <path d="m7.938 287.52h1.058v1.852h-1.058zm0 6.35h1.058v1.852h-1.058zm4.63-2.778v1.058h-1.852v-1.058zm-6.35 0v1.058h-1.852v-1.058zm5.522 3.055-0.747 0.748-1.31-1.31 0.748-0.748zm-4.49-4.49-0.747 0.748-1.31-1.31 0.748-0.748zm-1.309 5.238-0.748-0.748 1.31-1.31 0.748 0.748zm4.49-4.49-0.748-0.748 1.31-1.31 0.748 0.748z"/>
  </g>
 </g>
</svg>
