<svg width="48" height="48" xmlns="http://www.w3.org/2000/svg"><defs><linearGradient id="a" x1="25.132" x2="25.132" y1=".985" y2="47.013" gradientTransform="matrix(1 0 0 .95617 0 -.518)" gradientUnits="userSpaceOnUse"><stop stop-color="#dadada" offset="0"/><stop stop-color="#fff" offset="1"/></linearGradient><linearGradient id="c" x1="91.308" x2="95.182" y1="98.192" y2="102.07" gradientTransform="matrix(.56521 0 0 -.60266 -19.183 70.781)" gradientUnits="userSpaceOnUse"><stop stop-color="#fcfcfc" offset="0"/><stop stop-color="#c1c1c1" offset="1"/></linearGradient><radialGradient id="b" cx="26.53" cy="23.566" r="17.5" gradientTransform="matrix(-1.7302 -.00339 .00346 -1.7689 87.322 43.647)" gradientUnits="userSpaceOnUse"><stop stop-opacity=".659" offset="0"/><stop stop-color="#cecece" stop-opacity="0" offset="1"/></radialGradient></defs><path d="m6.5 1.872 21.021.002L41.5 16.226v29.651h-35V1.871z" fill="none" stroke="#000" stroke-opacity=".549"/><path d="m6.5 1.894 20.954.002L41.5 16.226V45.9h-35V1.893z" fill="url(#a)"/><path d="M33.521 14.014c-3.742-.22-7.172 2.116-9.27 5.073-1.528 2.049-2.476 4.441-3.32 6.83-1.12 2.652-2.603 5.466-5.274 6.826-.718.435-1.562.393-2.345.444-.51.293-.224.973-.298 1.446.013 1.314-.026 2.633.018 3.944.221.612 1.043.358 1.53.423 3.54-.022 6.878-2.012 8.828-4.93.87-1.247 1.535-2.631 2.04-4.064 2.063-.014 4.131.028 6.191-.021.59-.215.31-.953.375-1.424-.014-1.408.028-2.822-.02-4.227-.215-.592-.952-.311-1.422-.376h-2.261c1.04-2.15 2.8-4.337 5.33-4.603.58-.223.3-.954.365-1.424-.025-1.195.049-2.403-.037-3.591a.522.522 0 0 0-.43-.326z" color="#000" fill="#cd3436"/><path d="m6.5 1.894 20.954.002L41.5 16.226V45.9h-35V1.893z" fill="url(#b)"/><path fill="none" d="M19.632 1.872H41.5v24.125H19.632z"/><path d="M29.349 14.212c-.045-3.443.093-9.233-1.843-12.276 0 0 12.641 12.709 13.994 14.29 0 0-2.348-1.878-12.152-2.014z" fill="url(#c)"/></svg>