<svg width="48" height="48" version="1.1" xmlns="http://www.w3.org/2000/svg">
 <defs>
  <linearGradient id="c" x1="91.308" x2="95.182" y1="98.192" y2="102.07" gradientTransform="matrix(.56521 0 0 -.60266 -19.183 70.781)" gradientUnits="userSpaceOnUse">
   <stop stop-color="#fcfcfc" offset="0"/>
   <stop stop-color="#c1c1c1" offset="1"/>
  </linearGradient>
  <linearGradient id="b" x1="25.132" x2="25.132" y1=".98521" y2="47.013" gradientTransform="matrix(1 0 0 .95617 1e-7 -.51792)" gradientUnits="userSpaceOnUse">
   <stop stop-color="#dadada" offset="0"/>
   <stop stop-color="#fff" offset="1"/>
  </linearGradient>
  <radialGradient id="a" cx="26.53" cy="23.566" r="17.5" gradientTransform="matrix(-1.7302 .0040774 -.0043151 -1.8311 87.505 44.915)" gradientUnits="userSpaceOnUse">
   <stop stop-opacity=".65926" offset="0"/>
   <stop stop-color="#cecece" stop-opacity="0" offset="1"/>
  </radialGradient>
 </defs>
 <path d="m6.5 1.8722c5.8015 0 21.021 0.00228 21.021 0.00228l13.979 14.352 3.6e-5 29.651h-35v-44.006z" fill="none" stroke="#000" stroke-opacity=".54902"/>
 <path d="m6.5 1.8942c5.8015 0 20.954 0.00228 20.954 0.00228l14.046 14.33 3.6e-5 29.673h-35v-44.006z" fill="url(#b)"/>
 <path d="m24 25.781-7.3338-7.3344 7.3338-7.3333 2.4448 2.4443-4.8896 4.889 2.4446 2.4448 7.3338-7.3333-6.3886-6.3886c-0.52168-0.52212-1.3678-0.52212-1.89-6e-6l-10.333 10.333c-0.52167 0.52167-0.52167 1.3678 1e-6 1.89l10.333 10.333c0.52212 0.52212 1.3683 0.52212 1.89-1e-6l10.333-10.333c0.52168-0.52212 0.52168-1.3683 0-1.89l-1.5-1.4996-9.7781 9.7783z" fill="#84ba10"/>
 <rect x="19.632" y="1.8722" width="21.868" height="24.125" fill="none"/>
 <path d="m6.5 1.8942c5.8015 0 20.954 0.00228 20.954 0.00228l14.046 14.33 3.6e-5 29.673h-35v-44.006z" fill="url(#a)"/>
 <path d="m29.349 14.212c-0.04524-3.4428 0.09264-9.2334-1.8427-12.276 0 0 12.641 12.709 13.994 14.29 0 0-2.3483-1.8776-12.152-2.0143z" fill="url(#c)"/>
 <g transform="translate(-1.1501)" fill="#575757" aria-label="ePUB">
  <path d="m17.667 39.307v0.43945h-4.1309q0.05859 0.92773 0.55664 1.416 0.50293 0.4834 1.3965 0.4834 0.51758 0 1.001-0.12695 0.48828-0.12695 0.9668-0.38086v0.84961q-0.4834 0.20508-0.99121 0.3125t-1.0303 0.10742q-1.3086 0-2.0752-0.76172-0.76172-0.76172-0.76172-2.0605 0-1.3428 0.72266-2.1289 0.72754-0.79102 1.958-0.79102 1.1035 0 1.7432 0.71289 0.64453 0.70801 0.64453 1.9287zm-0.89844-0.26367q-0.0098-0.7373-0.41504-1.1768-0.40039-0.43945-1.0645-0.43945-0.75195 0-1.2061 0.4248-0.44922 0.4248-0.51758 1.1963z"/>
  <path d="m20.167 35.786v2.7393h1.2402q0.68848 0 1.0645-0.35645 0.37598-0.35644 0.37598-1.0156 0-0.6543-0.37598-1.0107-0.37598-0.35644-1.0645-0.35644zm-0.98633-0.81055h2.2266q1.2256 0 1.8506 0.55664 0.62988 0.55176 0.62988 1.6211 0 1.0791-0.62988 1.6309-0.625 0.55176-1.8506 0.55176h-1.2402v2.9297h-0.98633z"/>
  <path d="m25.099 34.976h0.99121v4.4287q0 1.1719 0.4248 1.6895 0.4248 0.5127 1.377 0.5127 0.94726 0 1.3721-0.5127 0.4248-0.51758 0.4248-1.6895v-4.4287h0.99121v4.5508q0 1.4258-0.70801 2.1533-0.70312 0.72754-2.0801 0.72754-1.3818 0-2.0898-0.72754-0.70312-0.72754-0.70312-2.1533z"/>
  <path d="m33.517 38.784v2.6709h1.582q0.7959 0 1.1768-0.32715 0.38574-0.33203 0.38574-1.0107 0-0.68359-0.38574-1.0059-0.38086-0.32715-1.1768-0.32715zm0-2.998v2.1973h1.46q0.72266 0 1.0742-0.26855 0.35645-0.27344 0.35645-0.83008 0-0.55176-0.35645-0.8252-0.35156-0.27344-1.0742-0.27344zm-0.98633-0.81055h2.5195q1.1279 0 1.7383 0.46875 0.61035 0.46875 0.61035 1.333 0 0.66894-0.3125 1.0645t-0.91797 0.49316q0.72754 0.15625 1.1279 0.6543 0.40527 0.49316 0.40527 1.2354 0 0.97656-0.66406 1.5088-0.66406 0.53223-1.8896 0.53223h-2.6172z"/>
 </g>
</svg>
