<svg width="48" height="48" version="1.1" viewBox="0 0 12.7 12.7" xmlns="http://www.w3.org/2000/svg">
 <defs>
  <linearGradient id="b" x1="25.132" x2="25.132" y1=".98521" y2="47.013" gradientTransform="matrix(.26458 0 0 .25299 3.6976e-6 -.13703)" gradientUnits="userSpaceOnUse">
   <stop stop-color="#dadada" offset="0"/>
   <stop stop-color="#fff" offset="1"/>
  </linearGradient>
  <radialGradient id="c" cx="26.53" cy="23.566" r="17.5" gradientTransform="matrix(-.45778 -.00089612 .00091615 -.46802 23.104 11.548)" gradientUnits="userSpaceOnUse">
   <stop stop-opacity=".65926" offset="0"/>
   <stop stop-color="#cecece" stop-opacity="0" offset="1"/>
  </radialGradient>
  <linearGradient id="a" x1="91.308" x2="95.182" y1="98.192" y2="102.07" gradientTransform="matrix(.14955 0 0 -.15945 -5.0755 18.727)" gradientUnits="userSpaceOnUse">
   <stop stop-color="#fcfcfc" offset="0"/>
   <stop stop-color="#c1c1c1" offset="1"/>
  </linearGradient>
  <filter id="d" x="-.060073" y="-.059927" width="1.1201" height="1.1199" color-interpolation-filters="sRGB">
   <feGaussianBlur stdDeviation="0.70084498"/>
  </filter>
 </defs>
 <g stroke-width=".26458">
  <path d="m1.7198 0.49535c1.535 0 5.5618 6.0325e-4 5.5618 6.0325e-4l3.6986 3.7973 1e-5 7.8452h-9.2604v-11.643z" fill="none" stroke="#000" stroke-opacity=".54902"/>
  <path d="m1.7198 0.50117c1.535 0 5.5441 6.0325e-4 5.5441 6.0325e-4l3.7163 3.7915 1e-5 7.851h-9.2604v-11.643z" fill="url(#b)"/>
  <path d="m1.7198 0.50117c1.535 0 5.5441 6.0325e-4 5.5441 6.0325e-4l3.7163 3.7915 1e-5 7.851h-9.2604v-11.643z" fill="url(#c)"/>
  <rect x="5.1943" y=".49535" width="5.7859" height="6.3831" fill="none"/>
  <path d="m7.7653 3.7603c-0.01197-0.91091 0.024511-2.443-0.48755-3.248 0 0 3.3446 3.3626 3.7026 3.7809 0 0-0.62132-0.49678-3.2152-0.53295z" fill="url(#a)"/>
 </g>
 <path transform="scale(.26458)" d="m23.971 14.395c-0.6643 0.05621-0.66027 0.61706-0.89844 1.998a12.098 12.065 0 0 0-1.3398 0.18555c-0.58914-1.4219-0.79307-1.9186-1.3496-1.7305-0.63985 0.2163-0.49185 0.7678-0.39258 2.207a12.098 12.065 0 0 0-1.2402 0.51172c-0.99365-1.2-1.3355-1.6169-1.8145-1.2715-0.54039 0.38967-0.24969 0.86905 0.25586 2.1738a12.098 12.065 0 0 0-1.0781 0.83398c-1.2522-0.92563-1.6846-1.2491-2.0664-0.79883-0.4334 0.51098-0.028354 0.90808 0.78516 2.0684a12.098 12.065 0 0 0-0.8125 1.0527c-1.3124-0.48795-1.7974-0.77236-2.1797-0.22656-0.33819 0.48271 0.081082 0.81826 1.2891 1.791a12.098 12.065 0 0 0-0.51953 1.25c-1.3807-0.13082-1.9214-0.2759-2.1484 0.34766-0.19968 0.54871 0.28729 0.7677 1.6758 1.3809a12.098 12.065 0 0 0-0.17188 1.3242c-1.3613 0.26358-1.9209 0.27727-1.9629 0.93945-0.036441 0.57512 0.4873 0.65247 1.9473 0.84375a12.098 12.065 0 0 0 0.19336 1.4082c-1.2508 0.54809-1.7882 0.68727-1.6836 1.3379 0.093132 0.57946 0.62685 0.53059 2.1562 0.38867a12.098 12.065 0 0 0 0.53906 1.3027c-1.0664 0.82657-1.5482 1.0972-1.2891 1.6992 0.23292 0.5412 0.73798 0.35998 2.1992-0.15625a12.098 12.065 0 0 0 0.79102 1.0195c-0.80429 1.181-1.2054 1.5807-0.76367 2.0879 0.38523 0.44236 0.81161 0.11931 2.0332-0.80859a12.098 12.065 0 0 0 1.082 0.83398c-0.48956 1.3628-0.78409 1.8511-0.22656 2.2344 0.48829 0.33566 0.81902-0.090593 1.793-1.3223l-0.23828-0.14258a12.098 12.065 0 0 0 1.4219 0.60742c-0.094371 1.3994-0.23215 1.9468 0.40039 2.1582 0.54762 0.18304 0.75854-0.30345 1.3203-1.6719a12.098 12.065 0 0 0 1.3691 0.18164c0.25884 1.5482 0.34209 2.08 0.93164 2.0215 0.66192-0.065612 0.65436-0.62662 0.87109-2.0039a12.098 12.065 0 0 0 1.3809-0.18164c0.56963 1.3878 0.77714 1.8794 1.3281 1.6953 0.63275-0.2115 0.49476-0.75778 0.40039-2.1582a12.098 12.065 0 0 0 1.2578-0.50977c0.94586 1.1961 1.2796 1.6146 1.7617 1.2832 0.54738-0.37629 0.27029-0.86311-0.20312-2.1699a12.098 12.065 0 0 0 1.1152-0.85547c1.1701 0.88854 1.5985 1.2018 1.9766 0.76758 0.4306-0.49447 0.051169-0.90008-0.71289-2.0137a12.098 12.065 0 0 0 0.81641-1.041c1.4287 0.50471 1.9334 0.68046 2.1641 0.14453 0.25757-0.59849-0.21826-0.8705-1.2715-1.6855a12.098 12.065 0 0 0 0.55078-1.3125c1.5028 0.13938 2.0365 0.18444 2.1289-0.39062 0.10356-0.64435-0.42942-0.79123-1.6543-1.3262a12.098 12.065 0 0 0 0.18164-1.4238c1.4436-0.18922 1.9639-0.26952 1.9277-0.8418-0.041499-0.6549-0.59516-0.67637-1.9238-0.93164a12.098 12.065 0 0 0-0.18555-1.3438c1.3646-0.60274 1.8487-0.82453 1.6504-1.3691-0.22508-0.61847-0.7615-0.4815-2.1172-0.35156a12.098 12.065 0 0 0-0.52539-1.2695c1.1841-0.95356 1.599-1.289 1.2637-1.7676-0.38076-0.5435-0.86425-0.26344-2.1641 0.2207a12.098 12.065 0 0 0-0.83594-1.0781c0.87806-1.2409 1.1837-1.6783 0.73047-2.0469-0.50933-0.41412-0.90021-0.02188-1.9902 0.78125a12.098 12.065 0 0 0-1.1035-0.8457c0.58111-1.4185 0.78437-1.9139 0.25781-2.1719-0.60609-0.29702-0.88821 0.19719-1.8301 1.2871a12.098 12.065 0 0 0-1.25-0.51367c0.1302-1.552 0.1775-2.0892-0.40625-2.1777-0.65469-0.09931-0.78644 0.44214-1.3301 1.7109a12.098 12.065 0 0 0-1.3711-0.16992c-0.23162-1.5197-0.31146-2.0495-0.89648-2zm-0.48242 3.707c1.3392-0.022449 2.9286 0.21691 3.4453 0.44141 2.2485 0.68541 4.3289 1.945 6.0996 4.877 0.32975 0.54604 0.56714 1.0767 0.67383 1.5605 0.10591 0.50877 0.064958 1.1017-0.26367 1.5684-0.28162 0.37114-0.63056 0.71904-1.1172 0.76367-0.69837 0.065428-1.5003 0.079004-2.3223 0.078125 0.016185-0.12898 0.007057-0.27588-0.042968-0.48242-0.15406-0.63675-0.28163-0.71434-1.0469-0.64844-0.72814 0.062703-0.99009-0.040568-1.373-0.53516-0.31841-0.41127-0.33001-0.69611-0.048828-1.4375 0.1442-0.38016 0.19884-0.64462 0.14844-0.73828-0.11253-0.209-1.0034-0.69617-1.1895-0.65039-0.086165 0.021198-0.28413 0.20051-0.44141 0.39844-0.43376 0.54605-0.73054 0.71904-1.2188 0.70898-0.57367-0.011759-0.82162-0.19295-1.1191-0.81641-0.3417-0.71598-0.47508-0.82616-0.93164-0.76758-0.15215 0.019389-0.28248 0.042747-0.39258 0.074219-0.18107 0.051762-0.30547 0.1251-0.39453 0.22266-0.33038-0.56924-0.6748-1.1365-0.98438-1.707-0.57155-0.99492-0.1954-1.9906 0.66602-2.5273 0.33704-0.26145 1.05-0.36937 1.8535-0.38281zm-5.9688 3.0684c0.069751-0.0022 0.13995-0.001286 0.21094 0.005859 0.46157 0.063239 0.93712 0.19745 1.2148 0.59961 0.63614 0.91721 1.2922 2.1172 1.9121 3.2637-0.007171 0.001904-0.012313 0.00799-0.019531 0.009766-0.3187 0.07841-0.51694 0.035486-1.2812-0.28906-0.34788-0.14773-0.51789-0.045198-0.86328 0.51562-0.32812 0.5329-0.28982 0.73792 0.21875 1.1523 0.21019 0.17132 0.43942 0.41336 0.50977 0.53711 0.174 0.30591 0.17116 0.94565-0.007813 1.2734-0.14669 0.26868-0.60266 0.56108-1.0371 0.66797-0.41313 0.10164-0.5039 0.37445-0.34375 1.0254 0.12471 0.50688 0.15912 0.56999 0.36133 0.64258 0.12358 0.044413 0.45334 0.058973 0.73242 0.03125 0.27908-0.027704 0.61239-0.012681 0.74024 0.033203 0.2699 0.096922 0.6751 0.58192 0.75781 0.9082 0.038498 0.15142 0.00854 0.38106-0.046875 0.59961-0.50673 0.88425-1.0162 1.7689-1.5488 2.6172-0.58638 0.98626-1.6389 1.1473-2.5293 0.66016-1.0486-0.44097-2.4582-3.75-2.5508-4.6465-0.50626-2.2954-0.42779-4.7254 1.2578-7.707 0.31392-0.55529 0.66009-1.0231 1.0293-1.3535 0.34241-0.29923 0.79498-0.53158 1.2832-0.54688zm6.3809 4.8926a2.3664 2.3664 0 0 1 2.3965 1.7988 2.3664 2.3664 0 0 1-1.7324 2.8633 2.3664 2.3664 0 0 1-2.8633-1.7324 2.3664 2.3664 0 0 1 1.7324-2.8633 2.3664 2.3664 0 0 1 0.4668-0.066406zm5.6016 3.4609c0.84088 0.004383 1.6774 0.02011 2.5039 0.050781 1.1473 0.014664 1.8147 0.84667 1.8379 1.8613 0.14239 1.1286-2.0201 4.0028-2.75 4.5312-1.7348 1.5861-3.8777 2.7327-7.3027 2.7637-0.63787 0.005798-1.2148-0.060284-1.6855-0.21484-0.49183-0.16791-0.98049-0.50293-1.2148-1.0234-0.17602-0.43135-0.29924-0.90993-0.089844-1.3516 0.4584-0.97164 1.1341-2.0881 1.793-3.1602 0.099256-0.062514 0.18636-0.1064 0.24609-0.12109 0.34361-0.084537 0.98744 0.078021 1.1738 0.29688 0.087768 0.10308 0.22804 0.35938 0.3125 0.56836 0.20482 0.50686 0.38681 0.72533 0.59766 0.71875 0.095834-0.003084 0.24922-0.006376 0.3418-0.007812 0.092723-8.7e-4 0.28921-0.05097 0.4375-0.10938 0.38681-0.15214 0.52764-0.50283 0.44727-1.1191-0.073503-0.56354-0.043431-0.66391 0.29688-1.0215 0.34555-0.36312 0.6524-0.49263 1.0039-0.42383 0.29146 0.057063 0.41263 0.092904 0.91211 0.27344 0.36596 0.13231 0.55432 0.048919 0.83594-0.37305 0.42339-0.63453 0.38016-0.85389-0.25-1.3047-0.31194-0.2231-0.50082-0.51128-0.57031-0.82422 0.37448-0.004802 0.74885-0.0117 1.123-0.009765z" filter="url(#d)" opacity=".25" stroke-width=".31032"/>
 <path transform="scale(.26458)" d="m23.971 14.395c-0.6643 0.05621-0.66027 0.61706-0.89844 1.998a12.098 12.065 0 0 0-1.3398 0.18555c-0.58914-1.4219-0.79307-1.9186-1.3496-1.7305-0.63985 0.2163-0.49185 0.7678-0.39258 2.207a12.098 12.065 0 0 0-1.2402 0.51172c-0.99365-1.2-1.3355-1.6169-1.8145-1.2715-0.54039 0.38967-0.24969 0.86905 0.25586 2.1738a12.098 12.065 0 0 0-1.0781 0.83398c-1.2522-0.92563-1.6846-1.2491-2.0664-0.79883-0.4334 0.51098-0.028354 0.90808 0.78516 2.0684a12.098 12.065 0 0 0-0.8125 1.0527c-1.3124-0.48795-1.7974-0.77236-2.1797-0.22656-0.33819 0.48271 0.081082 0.81826 1.2891 1.791a12.098 12.065 0 0 0-0.51953 1.25c-1.3807-0.13082-1.9214-0.2759-2.1484 0.34766-0.19968 0.54871 0.28729 0.7677 1.6758 1.3809a12.098 12.065 0 0 0-0.17188 1.3242c-1.3613 0.26358-1.9209 0.27727-1.9629 0.93945-0.036441 0.57512 0.4873 0.65247 1.9473 0.84375a12.098 12.065 0 0 0 0.19336 1.4082c-1.2508 0.54809-1.7882 0.68727-1.6836 1.3379 0.093132 0.57946 0.62685 0.53059 2.1562 0.38867a12.098 12.065 0 0 0 0.53906 1.3027c-1.0664 0.82657-1.5482 1.0972-1.2891 1.6992 0.23292 0.5412 0.73798 0.35998 2.1992-0.15625a12.098 12.065 0 0 0 0.79102 1.0195c-0.80429 1.181-1.2054 1.5807-0.76367 2.0879 0.38523 0.44236 0.81161 0.11931 2.0332-0.80859a12.098 12.065 0 0 0 1.082 0.83398c-0.48956 1.3628-0.78409 1.8511-0.22656 2.2344 0.48829 0.33566 0.81902-0.090593 1.793-1.3223l-0.23828-0.14258a12.098 12.065 0 0 0 1.4219 0.60742c-0.094371 1.3994-0.23215 1.9468 0.40039 2.1582 0.54762 0.18304 0.75854-0.30345 1.3203-1.6719a12.098 12.065 0 0 0 1.3691 0.18164c0.25884 1.5482 0.34209 2.08 0.93164 2.0215 0.66192-0.065612 0.65436-0.62662 0.87109-2.0039a12.098 12.065 0 0 0 1.3809-0.18164c0.56963 1.3878 0.77714 1.8794 1.3281 1.6953 0.63275-0.2115 0.49476-0.75778 0.40039-2.1582a12.098 12.065 0 0 0 1.2578-0.50977c0.94586 1.1961 1.2796 1.6146 1.7617 1.2832 0.54738-0.37629 0.27029-0.86311-0.20312-2.1699a12.098 12.065 0 0 0 1.1152-0.85547c1.1701 0.88854 1.5985 1.2018 1.9766 0.76758 0.4306-0.49447 0.051169-0.90008-0.71289-2.0137a12.098 12.065 0 0 0 0.81641-1.041c1.4287 0.50471 1.9334 0.68046 2.1641 0.14453 0.25757-0.59849-0.21826-0.8705-1.2715-1.6855a12.098 12.065 0 0 0 0.55078-1.3125c1.5028 0.13938 2.0365 0.18444 2.1289-0.39062 0.10356-0.64435-0.42942-0.79123-1.6543-1.3262a12.098 12.065 0 0 0 0.18164-1.4238c1.4436-0.18922 1.9639-0.26952 1.9277-0.8418-0.041499-0.6549-0.59516-0.67637-1.9238-0.93164a12.098 12.065 0 0 0-0.18555-1.3438c1.3646-0.60274 1.8487-0.82453 1.6504-1.3691-0.22508-0.61847-0.7615-0.4815-2.1172-0.35156a12.098 12.065 0 0 0-0.52539-1.2695c1.1841-0.95356 1.599-1.289 1.2637-1.7676-0.38076-0.5435-0.86425-0.26344-2.1641 0.2207a12.098 12.065 0 0 0-0.83594-1.0781c0.87806-1.2409 1.1837-1.6783 0.73047-2.0469-0.50933-0.41412-0.90021-0.02188-1.9902 0.78125a12.098 12.065 0 0 0-1.1035-0.8457c0.58111-1.4185 0.78437-1.9139 0.25781-2.1719-0.60609-0.29702-0.88821 0.19719-1.8301 1.2871a12.098 12.065 0 0 0-1.25-0.51367c0.1302-1.552 0.1775-2.0892-0.40625-2.1777-0.65469-0.09931-0.78644 0.44214-1.3301 1.7109a12.098 12.065 0 0 0-1.3711-0.16992c-0.23162-1.5197-0.31146-2.0495-0.89648-2zm-0.48242 3.707c1.3392-0.022449 2.9286 0.21691 3.4453 0.44141 2.2485 0.68541 4.3289 1.945 6.0996 4.877 0.32975 0.54604 0.56714 1.0767 0.67383 1.5605 0.10591 0.50877 0.064958 1.1017-0.26367 1.5684-0.28162 0.37114-0.63056 0.71904-1.1172 0.76367-0.69837 0.065428-1.5003 0.079004-2.3223 0.078125 0.016185-0.12898 0.007057-0.27588-0.042968-0.48242-0.15406-0.63675-0.28163-0.71434-1.0469-0.64844-0.72814 0.062703-0.99009-0.040568-1.373-0.53516-0.31841-0.41127-0.33001-0.69611-0.048828-1.4375 0.1442-0.38016 0.19884-0.64462 0.14844-0.73828-0.11253-0.209-1.0034-0.69617-1.1895-0.65039-0.086165 0.021198-0.28413 0.20051-0.44141 0.39844-0.43376 0.54605-0.73054 0.71904-1.2188 0.70898-0.57367-0.011759-0.82162-0.19295-1.1191-0.81641-0.3417-0.71598-0.47508-0.82616-0.93164-0.76758-0.15215 0.019389-0.28248 0.042747-0.39258 0.074219-0.18107 0.051762-0.30547 0.1251-0.39453 0.22266-0.33038-0.56924-0.6748-1.1365-0.98438-1.707-0.57155-0.99492-0.1954-1.9906 0.66602-2.5273 0.33704-0.26145 1.05-0.36937 1.8535-0.38281zm-5.9688 3.0684c0.069751-0.0022 0.13995-0.001286 0.21094 0.005859 0.46157 0.063239 0.93712 0.19745 1.2148 0.59961 0.63614 0.91721 1.2922 2.1172 1.9121 3.2637-0.007171 0.001904-0.012313 0.00799-0.019531 0.009766-0.3187 0.07841-0.51694 0.035486-1.2812-0.28906-0.34788-0.14773-0.51789-0.045198-0.86328 0.51562-0.32812 0.5329-0.28982 0.73792 0.21875 1.1523 0.21019 0.17132 0.43942 0.41336 0.50977 0.53711 0.174 0.30591 0.17116 0.94565-0.007813 1.2734-0.14669 0.26868-0.60266 0.56108-1.0371 0.66797-0.41313 0.10164-0.5039 0.37445-0.34375 1.0254 0.12471 0.50688 0.15912 0.56999 0.36133 0.64258 0.12358 0.044413 0.45334 0.058973 0.73242 0.03125 0.27908-0.027704 0.61239-0.012681 0.74024 0.033203 0.2699 0.096922 0.6751 0.58192 0.75781 0.9082 0.038498 0.15142 0.00854 0.38106-0.046875 0.59961-0.50673 0.88425-1.0162 1.7689-1.5488 2.6172-0.58638 0.98626-1.6389 1.1473-2.5293 0.66016-1.0486-0.44097-2.4582-3.75-2.5508-4.6465-0.50626-2.2954-0.42779-4.7254 1.2578-7.707 0.31392-0.55529 0.66009-1.0231 1.0293-1.3535 0.34241-0.29923 0.79498-0.53158 1.2832-0.54688zm6.3809 4.8926a2.3664 2.3664 0 0 1 2.3965 1.7988 2.3664 2.3664 0 0 1-1.7324 2.8633 2.3664 2.3664 0 0 1-2.8633-1.7324 2.3664 2.3664 0 0 1 1.7324-2.8633 2.3664 2.3664 0 0 1 0.4668-0.066406zm5.6016 3.4609c0.84088 0.004383 1.6774 0.02011 2.5039 0.050781 1.1473 0.014664 1.8147 0.84667 1.8379 1.8613 0.14239 1.1286-2.0201 4.0028-2.75 4.5312-1.7348 1.5861-3.8777 2.7327-7.3027 2.7637-0.63787 0.005798-1.2148-0.060284-1.6855-0.21484-0.49183-0.16791-0.98049-0.50293-1.2148-1.0234-0.17602-0.43135-0.29924-0.90993-0.089844-1.3516 0.4584-0.97164 1.1341-2.0881 1.793-3.1602 0.099256-0.062514 0.18636-0.1064 0.24609-0.12109 0.34361-0.084537 0.98744 0.078021 1.1738 0.29688 0.087768 0.10308 0.22804 0.35938 0.3125 0.56836 0.20482 0.50686 0.38681 0.72533 0.59766 0.71875 0.095834-0.003084 0.24922-0.006376 0.3418-0.007812 0.092723-8.7e-4 0.28921-0.05097 0.4375-0.10938 0.38681-0.15214 0.52764-0.50283 0.44727-1.1191-0.073503-0.56354-0.043431-0.66391 0.29688-1.0215 0.34555-0.36312 0.6524-0.49263 1.0039-0.42383 0.29146 0.057063 0.41263 0.092904 0.91211 0.27344 0.36596 0.13231 0.55432 0.048919 0.83594-0.37305 0.42339-0.63453 0.38016-0.85389-0.25-1.3047-0.31194-0.2231-0.50082-0.51128-0.57031-0.82422 0.37448-0.004802 0.74885-0.0117 1.123-0.009765z" fill="#666" stroke-width=".31032"/>
</svg>
