<svg xmlns="http://www.w3.org/2000/svg" xmlns:xlink="http://www.w3.org/1999/xlink" width="48" height="48"><defs><linearGradient id="d"><stop style="stop-color:#fff;stop-opacity:1" offset="0"/><stop style="stop-color:#fff;stop-opacity:.23529412" offset=".021"/><stop style="stop-color:#fff;stop-opacity:.15686275" offset=".977"/><stop style="stop-color:#fff;stop-opacity:.39215687" offset="1"/></linearGradient><linearGradient id="a"><stop style="stop-color:#181818;stop-opacity:1" offset="0"/><stop style="stop-color:#181818;stop-opacity:0" offset="1"/></linearGradient><linearGradient id="b"><stop style="stop-color:#181818;stop-opacity:1" offset="0"/><stop style="stop-color:#181818;stop-opacity:0" offset="1"/></linearGradient><linearGradient id="c"><stop style="stop-color:#181818;stop-opacity:0" offset="0"/><stop style="stop-color:#181818;stop-opacity:1" offset=".5"/><stop style="stop-color:#181818;stop-opacity:0" offset="1"/></linearGradient><linearGradient x1="25.058" y1="47.028" x2="25.058" y2="39.999" id="k" xlink:href="#c" gradientUnits="userSpaceOnUse"/><linearGradient x1="24" y1="6.111" x2="24" y2="41.891" id="o" xlink:href="#d" gradientUnits="userSpaceOnUse" gradientTransform="translate(0 1)"/><linearGradient id="e"><stop style="stop-color:#00ff27;stop-opacity:1" offset="0"/><stop style="stop-color:#458b50;stop-opacity:1" offset=".262"/><stop style="stop-color:#176121;stop-opacity:1" offset=".705"/><stop style="stop-color:#2b5131;stop-opacity:1" offset="1"/></linearGradient><linearGradient id="h"><stop style="stop-color:#35a445;stop-opacity:1" offset="0"/><stop style="stop-color:#3bda52;stop-opacity:1" offset="1"/></linearGradient><linearGradient id="f"><stop style="stop-color:#505050;stop-opacity:1" offset="0"/><stop style="stop-color:#2b2b2b;stop-opacity:1" offset=".262"/><stop style="stop-color:#0a0a0a;stop-opacity:1" offset=".705"/><stop style="stop-color:#000;stop-opacity:1" offset="1"/></linearGradient><linearGradient x1="24" y1="6.733" x2="24" y2="61" id="r" xlink:href="#g" gradientUnits="userSpaceOnUse" gradientTransform="matrix(.2973 0 0 .4054 16.865 11.27)"/><linearGradient id="g"><stop style="stop-color:#fff;stop-opacity:1" offset="0"/><stop style="stop-color:#fff;stop-opacity:.235" offset=".004"/><stop style="stop-color:#fff;stop-opacity:.15686275" offset=".995"/><stop style="stop-color:#fff;stop-opacity:.39215687" offset="1"/></linearGradient><linearGradient gradientUnits="userSpaceOnUse" y2="6" x2="26" y1="44" x1="26" id="m" xlink:href="#h"/><linearGradient gradientTransform="translate(1)" y2="6" x2="26" y1="44" x1="26" gradientUnits="userSpaceOnUse" id="n" xlink:href="#h"/><radialGradient cx="4.993" cy="43.5" r="2.5" fx="4.993" fy="43.5" id="i" xlink:href="#a" gradientUnits="userSpaceOnUse" gradientTransform="matrix(2.00378 0 0 1.4 27.988 -17.4)"/><radialGradient cx="4.993" cy="43.5" r="2.5" fx="4.993" fy="43.5" id="j" xlink:href="#b" gradientUnits="userSpaceOnUse" gradientTransform="matrix(2.00378 0 0 1.4 -20.012 -104.4)"/><radialGradient cx="6.73" cy="9.957" r="12.672" fx="6.2" fy="9.957" id="l" xlink:href="#e" gradientUnits="userSpaceOnUse" gradientTransform="matrix(0 9.49755 -11.65996 0 140.93 -79.161)"/><radialGradient cx="7.496" cy="8.45" r="20" fx="7.496" fy="8.45" id="q" xlink:href="#f" gradientUnits="userSpaceOnUse" gradientTransform="matrix(0 2.05833 -2.95084 0 48.934 -2.675)"/></defs><g style="opacity:.4"><path style="fill:url(#i);fill-opacity:1;stroke:none" d="M38 40h5v7h-5z" transform="matrix(1.1579 0 0 .57143 -3.79 19.143)"/><path transform="matrix(-1.1579 0 0 -.57143 -3.79 19.143)" style="fill:url(#j);fill-opacity:1;stroke:none" d="M-10-47h5v7h-5z"/><path style="fill:url(#k);fill-opacity:1;stroke:none" d="M10 40h28v7H10z" transform="matrix(1.1579 0 0 .57143 -3.79 19.143)"/></g><rect width="39" height="39" rx="2" ry="2" x="4.5" y="5.5" style="color:#000;fill:url(#l);fill-opacity:1;fill-rule:nonzero;stroke:none;stroke-width:.99999994;marker:none;visibility:visible;display:inline;overflow:visible;enable-background:accumulate"/><g style="stroke:url(#m);stroke-opacity:1"><path d="m15 16.995 3.5-3.5v-6l1.5-1.5" style="fill:none;fill-rule:evenodd;stroke:url(#m);stroke-width:1px;stroke-linecap:round;stroke-linejoin:round;stroke-opacity:1"/><path style="opacity:1;fill:none;fill-opacity:1;stroke:url(#m);stroke-width:1;stroke-linecap:square;stroke-linejoin:miter;stroke-miterlimit:4;stroke-dasharray:none;stroke-opacity:1" d="M23.5 9.495a1 1 0 1 1-2 0 1 1 0 0 1 2 0z"/><path d="M23.507 9.495H32.5" style="fill:none;fill-rule:evenodd;stroke:url(#m);stroke-width:1px;stroke-linecap:square;stroke-linejoin:miter;stroke-opacity:1"/><path style="opacity:1;fill:none;fill-opacity:1;stroke:url(#m);stroke-width:1;stroke-linecap:square;stroke-linejoin:miter;stroke-miterlimit:4;stroke-dasharray:none;stroke-opacity:1" d="M34.5 9.495a1 1 0 1 1-2 0 1 1 0 0 1 2 0zM40.5 8.495a1 1 0 1 1-2 0 1 1 0 0 1 2 0zM40.505 30.5a1 1 0 1 1-2 0 1 1 0 0 1 2 0zM9.5 20.506a1 1 0 1 1-2 0 1 1 0 0 1 2 0zM15.5 10.506a1 1 0 1 1-2 0 1 1 0 0 1 2 0z"/><path style="fill:none;fill-rule:evenodd;stroke:url(#m);stroke-width:1px;stroke-linecap:square;stroke-linejoin:miter;stroke-opacity:1" d="M14.5 6.006v3.5M39.5 9.488v8"/><path style="fill:none;fill-rule:evenodd;stroke:url(#m);stroke-width:1px;stroke-linecap:round;stroke-linejoin:round;stroke-opacity:1" d="m38 22.995 3.5-3.5v-8l1.5-1.5"/><path d="m37.005 43.995 3.5-3.5v-6l-1.5-1.5" style="fill:none;fill-rule:evenodd;stroke:url(#n);stroke-width:1px;stroke-linecap:round;stroke-linejoin:round;stroke-opacity:1"/><path style="fill:none;fill-rule:evenodd;stroke:url(#m);stroke-width:1px;stroke-linecap:square;stroke-linejoin:miter;stroke-opacity:1" d="M38.505 30.5h-6"/><path d="m14 19.006-3.5-3.5v-6L7 6.006" style="fill:none;fill-rule:evenodd;stroke:url(#m);stroke-width:1px;stroke-linecap:round;stroke-linejoin:round;stroke-opacity:1"/><path style="fill:none;fill-rule:evenodd;stroke:url(#m);stroke-width:1px;stroke-linecap:butt;stroke-linejoin:round;stroke-opacity:1" d="m14 22-5.5-5.494v-3l-1-1H5"/><path style="fill:none;fill-rule:evenodd;stroke:url(#m);stroke-width:1px;stroke-linecap:round;stroke-linejoin:round;stroke-opacity:1" d="m34.005 32.995 3.5 3.5v2l-2 2h-2l-3.5 3.5"/><path style="opacity:1;fill:none;fill-opacity:1;stroke:url(#m);stroke-width:1;stroke-linecap:square;stroke-linejoin:miter;stroke-miterlimit:4;stroke-dasharray:none;stroke-opacity:1" d="M22.507 41.5a1 1 0 1 0 2 0 1 1 0 0 0-2 0z"/><path style="fill:none;fill-rule:evenodd;stroke:url(#m);stroke-width:1px;stroke-linecap:square;stroke-linejoin:miter;stroke-opacity:1" d="M22.5 41.5h-7.993l-3.007-3v-7l2-2"/><path d="M11.5 44v-2l-3-3v-6" style="fill:none;fill-rule:evenodd;stroke:url(#m);stroke-width:1px;stroke-linecap:butt;stroke-linejoin:miter;stroke-opacity:1"/><path d="m8.5 29-2 2v9l3 3v1" style="fill:none;fill-rule:evenodd;stroke:url(#m);stroke-width:1px;stroke-linecap:butt;stroke-linejoin:miter;stroke-opacity:1"/><path d="M37.5 11.495v3l-3 3" style="fill:none;fill-rule:evenodd;stroke:url(#m);stroke-width:1px;stroke-linecap:square;stroke-linejoin:miter;stroke-opacity:1"/><path d="M7.5 20.506H5" style="fill:none;fill-rule:evenodd;stroke:url(#m);stroke-width:1px;stroke-linecap:butt;stroke-linejoin:round;stroke-opacity:1"/><path d="M9.5 25.506a1 1 0 1 1-2 0 1 1 0 0 1 2 0z" style="opacity:1;fill:none;fill-opacity:1;stroke:url(#m);stroke-width:1;stroke-linecap:square;stroke-linejoin:miter;stroke-miterlimit:4;stroke-dasharray:none;stroke-opacity:1"/><path style="fill:none;fill-rule:evenodd;stroke:url(#m);stroke-width:1px;stroke-linecap:butt;stroke-linejoin:round;stroke-opacity:1" d="M7.5 25.506H5"/><path d="M18.5 38.495a1 1 0 1 1-2 0 1 1 0 0 1 2 0z" style="opacity:1;fill:none;fill-opacity:1;stroke:url(#m);stroke-width:1;stroke-linecap:square;stroke-linejoin:miter;stroke-miterlimit:4;stroke-dasharray:none;stroke-opacity:1"/><path style="fill:none;fill-rule:evenodd;stroke:url(#m);stroke-width:1px;stroke-linecap:square;stroke-linejoin:miter;stroke-opacity:1" d="M18.507 38.495H27.5"/><path d="M29.5 38.495a1 1 0 1 1-2 0 1 1 0 0 1 2 0zM36.505 25.5a1 1 0 1 0 2 0 1 1 0 0 0-2 0z" style="opacity:1;fill:none;fill-opacity:1;stroke:url(#m);stroke-width:1;stroke-linecap:square;stroke-linejoin:miter;stroke-miterlimit:4;stroke-dasharray:none;stroke-opacity:1"/><path d="M38.505 25.5h4" style="fill:none;fill-rule:evenodd;stroke:url(#m);stroke-width:1px;stroke-linecap:square;stroke-linejoin:miter;stroke-opacity:1"/></g><rect width="37" height="37" rx="1" ry="1" x="5.5" y="6.5" style="opacity:.3;fill:none;stroke:url(#o);stroke-width:1;stroke-linecap:round;stroke-linejoin:round;stroke-miterlimit:4;stroke-opacity:1;stroke-dasharray:none;stroke-dashoffset:0"/><rect width="39" height="39" rx="2" ry="2" x="4.5" y="5.5" style="opacity:.5;color:#000;fill:none;stroke:#153719;stroke-width:1;stroke-linecap:round;stroke-linejoin:round;stroke-miterlimit:4;stroke-opacity:1;stroke-dasharray:none;stroke-dashoffset:0;marker:none;visibility:visible;display:inline;overflow:visible;enable-background:accumulate"/><use xlink:href="#p" transform="translate(-.008 6)" width="100%" height="100%"/><use height="100%" width="100%" transform="translate(-.008 12)" xlink:href="#p"/><use height="100%" width="100%" transform="translate(-.008 3)" xlink:href="#p"/><use xlink:href="#p" transform="translate(-.008 9)" width="100%" height="100%"/><use xlink:href="#p" transform="translate(-.008 18)" width="100%" height="100%"/><path d="M14 13.5h20c.277 0 .5.223.5.5v24c0 .277-.223.5-.5.5H14a.499.499 0 0 1-.5-.5V14c0-.277.223-.5.5-.5z" style="color:#000;display:inline;overflow:visible;visibility:visible;opacity:.15;fill:#000;fill-opacity:1;fill-rule:nonzero;stroke:#000;stroke-width:1;stroke-linecap:round;stroke-linejoin:round;stroke-miterlimit:4;stroke-dasharray:none;stroke-dashoffset:0;stroke-opacity:1;marker:none;enable-background:accumulate"/><use height="100%" width="100%" transform="translate(-.008 15)" xlink:href="#p"/><path d="M14 13.5h20c.277 0 .5.223.5.5v24c0 .277-.223.5-.5.5H14a.499.499 0 0 1-.5-.5V14c0-.277.223-.5.5-.5z" style="color:#000;display:inline;overflow:visible;visibility:visible;opacity:.05;fill:#000;fill-opacity:1;fill-rule:nonzero;stroke:#000;stroke-width:3;stroke-linecap:round;stroke-linejoin:round;stroke-miterlimit:4;stroke-dasharray:none;stroke-dashoffset:0;stroke-opacity:1;marker:none;enable-background:accumulate"/><g id="p"><path d="M12 16v1h24v-1z" style="opacity:.5;fill:#000;fill-opacity:1;stroke:none;stroke-width:1;stroke-linejoin:miter;stroke-miterlimit:4;stroke-dasharray:none;stroke-opacity:1" transform="translate(.008)"/><path d="M11 16v2h26v-2z" style="opacity:.15;fill:#000;fill-opacity:1;stroke:none;stroke-width:1;stroke-linejoin:miter;stroke-miterlimit:4;stroke-dasharray:none;stroke-opacity:1" transform="translate(.008)"/><path style="opacity:.05;fill:#000;fill-opacity:1;stroke:#000;stroke-width:2;stroke-linejoin:round;stroke-miterlimit:4;stroke-dasharray:none;stroke-opacity:1" d="M11 16v2h26v-2z" transform="translate(.008)"/><path style="opacity:.5;fill:#000;fill-opacity:1;stroke:none;stroke-width:3;stroke-linecap:butt;stroke-linejoin:miter;stroke-miterlimit:4;stroke-dasharray:none;stroke-opacity:.39024389" d="M11 16h1v2h-1z" transform="translate(.008)"/><path style="opacity:1;fill:#979797;fill-opacity:1;stroke:none;stroke-width:1;stroke-linejoin:miter;stroke-miterlimit:4;stroke-dasharray:none;stroke-opacity:1" d="M12 15v1h24v-1z" transform="translate(.008)"/><path style="opacity:.5;fill:#000;fill-opacity:1;stroke:none;stroke-width:3;stroke-linecap:butt;stroke-linejoin:miter;stroke-miterlimit:4;stroke-dasharray:none;stroke-opacity:.39024389" d="M36 16h1v2h-1z" transform="translate(.008)"/><path d="M12 15v1h24v-1H12zm24 1v1h1v-1h-1zm-24 0h-1v1h1v-1z" style="opacity:.6;fill:#fff;fill-opacity:1;stroke:none;stroke-width:1;stroke-linejoin:miter;stroke-miterlimit:4;stroke-dasharray:none;stroke-opacity:1" transform="translate(.008)"/></g><path d="M14 12.5h20c.277 0 .5.223.5.5v24c0 .277-.223.5-.5.5H14a.499.499 0 0 1-.5-.5V13c0-.277.223-.5.5-.5z" style="color:#000;display:inline;overflow:visible;visibility:visible;fill:url(#q);fill-opacity:1;fill-rule:nonzero;stroke:#000;stroke-width:1;stroke-linecap:round;stroke-linejoin:round;stroke-miterlimit:4;stroke-dasharray:none;stroke-dashoffset:0;stroke-opacity:.49803922;marker:none;enable-background:accumulate"/><path d="M14.5 13.5h19v23h-19z" style="opacity:.4;fill:none;stroke:url(#r);stroke-width:1;stroke-linecap:round;stroke-linejoin:miter;stroke-miterlimit:4;stroke-dasharray:none;stroke-dashoffset:0;stroke-opacity:1"/><path style="font-style:normal;font-variant:normal;font-weight:700;font-stretch:normal;font-size:5px;line-height:125%;font-family:'Open Sans';-inkscape-font-specification:'Open Sans Bold';letter-spacing:0;word-spacing:0;opacity:.2;fill:#fff;fill-opacity:1;stroke:none;stroke-width:1px;stroke-linecap:butt;stroke-linejoin:miter;stroke-opacity:1" d="M23.695 18.03c-.464 0-.839.107-1.127.322a1.006 1.006 0 0 0-.435.845c0 .238.062.459.184.658.122.2.322.387.6.563-.327.164-.566.355-.715.57-.146.216-.218.46-.218.738 0 .416.151.736.456.963.304.226.722.34 1.255.34.51 0 .924-.12 1.237-.362.313-.244.469-.567.469-.967 0-.253-.08-.485-.24-.696-.158-.213-.417-.417-.781-.613.306-.153.529-.326.666-.52.138-.195.206-.417.206-.666 0-.36-.143-.644-.43-.855-.284-.214-.66-.32-1.127-.32zm-5.629.064v4.87h1.031V21.23h.443c.604 0 1.07-.138 1.396-.416.33-.278.494-.678.494-1.202 0-.504-.153-.885-.462-1.138-.306-.256-.757-.381-1.348-.381zm8.182 0-.184 2.481.41.219c.09-.027.205-.05.347-.072.142-.025.272-.038.39-.038.65 0 .975.245.975.736 0 .515-.315.773-.944.773-.208 0-.427-.028-.66-.085a2.78 2.78 0 0 1-.614-.23v.888c.334.175.77.264 1.312.264.624 0 1.104-.147 1.439-.44.335-.293.504-.711.504-1.255 0-.46-.139-.823-.419-1.088-.277-.264-.654-.394-1.124-.394-.2 0-.366.014-.502.045l-.117.024.09-.957h1.739v-.871zm-2.558.687c.173 0 .315.045.426.134.111.088.165.209.165.362 0 .14-.044.264-.13.37-.087.107-.238.213-.456.315-.224-.111-.38-.218-.466-.322a.57.57 0 0 1-.126-.363c0-.151.054-.268.16-.357a.643.643 0 0 1 .427-.139zm-4.593.158h.47c.282 0 .49.057.62.173.134.115.2.293.2.536 0 .24-.08.425-.237.551-.157.125-.394.187-.711.187h-.342zm4.547 1.903c.282.146.486.284.61.415.127.13.19.267.19.416 0 .18-.063.326-.19.437-.126.11-.317.163-.572.163-.231 0-.413-.053-.547-.16a.537.537 0 0 1-.2-.445c0-.333.236-.609.71-.826z"/><path d="M17.985 25.53h3.094zm3.406 0h5.063zm-3.406 2.015h3.656zm4.062 0h1.75zm2.063 0h.875z" style="opacity:.2;fill:none;stroke:#fff;stroke-width:1px;stroke-linecap:butt;stroke-linejoin:miter;stroke-opacity:1"/></svg>