<svg width="48" height="48" viewBox="0 0 12.7 12.7" xmlns="http://www.w3.org/2000/svg"><defs><linearGradient id="a" x1="25.132" x2="25.132" y1=".985" y2="47.013" gradientTransform="matrix(.26458 0 0 .25299 0 -.137)" gradientUnits="userSpaceOnUse"><stop stop-color="#dadada" offset="0"/><stop stop-color="#fff" offset="1"/></linearGradient><linearGradient id="c" x1="91.308" x2="95.182" y1="98.192" y2="102.07" gradientTransform="matrix(.14955 0 0 -.15945 -5.075 18.727)" gradientUnits="userSpaceOnUse"><stop stop-color="#fcfcfc" offset="0"/><stop stop-color="#c1c1c1" offset="1"/></linearGradient><radialGradient id="b" cx="26.53" cy="23.566" r="17.5" gradientTransform="matrix(-.45778 -.0009 .00092 -.46802 23.104 11.548)" gradientUnits="userSpaceOnUse"><stop stop-opacity=".659" offset="0"/><stop stop-color="#cecece" stop-opacity="0" offset="1"/></radialGradient></defs><path d="m1.72.495 5.562.001 3.698 3.797v7.845H1.72V.495z" fill="none" stroke="#000" stroke-opacity=".549" stroke-width=".265"/><path d="M1.72.501h5.544l3.716 3.792v7.851H1.72V.501z" fill="url(#a)"/><path d="M3.77 5.888v.304a.793.793 0 0 1 .397.687.793.793 0 0 1-.398.687v.306h5.16v-.307a.793.793 0 0 1-.396-.686.793.793 0 0 1 .396-.686v-.305zm2.58.197a.793.793 0 0 1 .793.794.793.793 0 0 1-.793.794.793.793 0 0 1-.795-.794.793.793 0 0 1 .794-.793z" fill="#f2f2f2" stroke="#575757" stroke-linecap="round" stroke-linejoin="round" stroke-width=".265" style="paint-order:stroke markers fill"/><path d="M1.72.501h5.544l3.716 3.792v7.851H1.72V.501z" fill="url(#b)"/><path d="M3.77 5.888v.304a.793.793 0 0 1 .397.687.793.793 0 0 1-.398.687v.306h5.16v-.307a.793.793 0 0 1-.396-.686.793.793 0 0 1 .396-.686v-.305zm2.58.197a.793.793 0 0 1 .793.794.793.793 0 0 1-.793.794.793.793 0 0 1-.795-.794.793.793 0 0 1 .794-.793z" fill="#f2f2f2" style="paint-order:stroke markers fill"/><path fill="none" d="M5.194.495h5.786v6.383H5.194z"/><path d="M7.765 3.76c-.012-.91.025-2.443-.487-3.248 0 0 3.344 3.363 3.702 3.781 0 0-.621-.497-3.215-.533z" fill="url(#c)"/></svg>