<svg width="48" height="48" version="1.1" xmlns="http://www.w3.org/2000/svg" xmlns:xlink="http://www.w3.org/1999/xlink">
 <defs>
  <linearGradient id="e" x1="56.059" x2=".032827" y1="4.8347" y2="59.899" gradientTransform="matrix(1.1242 -.64903 -.77202 -1.3372 57.672 121.87)" gradientUnits="userSpaceOnUse">
   <stop stop-color="#9aa1ad" offset="0"/>
   <stop stop-color="#e6e9ea" offset="1"/>
  </linearGradient>
  <radialGradient id="c" cx="35.749" cy="1.3343" r="17.498" gradientTransform="matrix(2.6039 -1.5034 -2.3902 -4.1399 -78.431 101.02)" gradientUnits="userSpaceOnUse">
   <stop stop-color="#dadcde" offset="0"/>
   <stop stop-color="#9aa1ad" offset="1"/>
  </radialGradient>
  <linearGradient id="f" x1="24.627" x2="24.627" y1="2.9978" y2="3.5926" gradientTransform="matrix(1.6354 -.94422 -1.6086 -2.7861 52.123 130.72)" gradientUnits="userSpaceOnUse">
   <stop stop-color="#fff" offset="0"/>
   <stop stop-color="#afafaf" offset="1"/>
  </linearGradient>
  <linearGradient id="g" x1=".94633" x2="56.379" y1="4.9966" y2="4.8347" gradientTransform="matrix(1.1242 -.64903 -.77202 -1.3372 59.672 125.34)" gradientUnits="userSpaceOnUse" xlink:href="#b"/>
  <linearGradient id="h" x1="30.41" x2="105.73" y1="68.099" y2="68.099" gradientTransform="matrix(.86603 -.5 .5 .86603 -27.115 38.463)" gradientUnits="userSpaceOnUse" xlink:href="#b"/>
  <linearGradient id="i" x1="31.397" x2="31.415" y1="110.03" y2="105.99" gradientTransform="translate(-42.713 21.752)" gradientUnits="userSpaceOnUse">
   <stop stop-color="#7f8893" offset="0"/>
   <stop stop-color="#bdc3c8" offset="1"/>
  </linearGradient>
  <linearGradient id="j" x1=".58029" x2="54.853" y1="4.8347" y2="4.8347" gradientTransform="matrix(1.1242 -.64903 -.77202 -1.3372 60.672 127.07)" gradientUnits="userSpaceOnUse" xlink:href="#a"/>
  <linearGradient id="k" x1="30.41" x2="105.73" y1="68.099" y2="68.099" gradientTransform="matrix(.86603 -.5 .5 .86603 -26.115 40.195)" gradientUnits="userSpaceOnUse" xlink:href="#a"/>
  <linearGradient id="b">
   <stop stop-color="#37404d" offset="0"/>
   <stop stop-color="#363e49" offset="1"/>
  </linearGradient>
  <linearGradient id="a">
   <stop stop-color="#7f8893" offset="0"/>
   <stop stop-color="#5f6c77" offset="1"/>
  </linearGradient>
  <linearGradient id="l" x1="91.308" x2="95.182" y1="98.192" y2="102.07" gradientTransform="matrix(.56521 0 0 -.60266 -19.183 70.781)" gradientUnits="userSpaceOnUse">
   <stop stop-color="#fcfcfc" offset="0"/>
   <stop stop-color="#c1c1c1" offset="1"/>
  </linearGradient>
  <radialGradient id="d" cx="26.53" cy="23.566" r="17.5" gradientTransform="matrix(-1.7302 -.0033869 .0034626 -1.7689 87.322 43.647)" gradientUnits="userSpaceOnUse">
   <stop stop-opacity=".65926" offset="0"/>
   <stop stop-color="#cecece" stop-opacity="0" offset="1"/>
  </radialGradient>
  <linearGradient id="m" x1="25.132" x2="25.132" y1=".98521" y2="47.013" gradientTransform="matrix(1 0 0 .95617 9.9862e-8 -.51792)" gradientUnits="userSpaceOnUse">
   <stop stop-color="#dadada" offset="0"/>
   <stop stop-color="#fff" offset="1"/>
  </linearGradient>
 </defs>
 <path d="m6.5 1.8722c5.8015 0 21.021 0.00228 21.021 0.00228l13.979 14.352 3.6e-5 29.651h-35v-44.006z" fill="none" stroke="#000" stroke-opacity=".54902"/>
 <path d="m6.5 1.8942c5.8015 0 20.954 0.00228 20.954 0.00228l14.046 14.33 3.6e-5 29.673h-35v-44.006z" fill="url(#m)"/>
 <g transform="matrix(.19976 0 0 .19976 11.216 5.6777)">
  <g transform="matrix(1 0 0 .98392 0 2.0262)" fill="none" stroke="#000" stroke-miterlimit="6" stroke-width="2.007">
   <g transform="matrix(1.0755 0 0 1.0755 -133.89 -4.8164)" opacity=".02">
    <path d="m182.45 117.25 51.751-29.879c3.2454-1.8737 4.1504-6.3353 2.0338-10.006l-35.239-61.113c-2.1169-3.6707-6.437-5.1155-9.6824-3.2418l-42.794 24.707-5.9017 3.4146 3.8341 6.611 17.636 30.547 8.6795 35.718 3.8372 6.6214z"/>
    <path d="m179.44 112.06 51.793-29.903c3.2454-1.8737 4.1524-6.3364 2.0338-10.006l-35.272-61.094c-2.1187-3.6697-6.437-5.1155-9.6824-3.2418l-51.793 29.903-5.9017 3.4146 3.868 6.5914 35.272 61.094 3.8372 6.6215z"/>
   </g>
   <g transform="matrix(1.0691 0 0 1.0691 -132.71 -4.407)" opacity=".02">
    <path d="m182.45 117.25 51.751-29.879c3.2454-1.8737 4.1504-6.3353 2.0338-10.006l-35.239-61.113c-2.1169-3.6707-6.437-5.1155-9.6824-3.2418l-42.794 24.707-5.9017 3.4146 3.8341 6.611 17.636 30.547 8.6795 35.718 3.8372 6.6214z"/>
    <path d="m179.44 112.06 51.793-29.903c3.2454-1.8737 4.1524-6.3364 2.0338-10.006l-35.272-61.094c-2.1187-3.6697-6.437-5.1155-9.6824-3.2418l-51.793 29.903-5.9017 3.4146 3.868 6.5914 35.272 61.094 3.8372 6.6215z"/>
   </g>
   <g transform="matrix(1.0627 0 0 1.0627 -131.53 -4.0002)" opacity=".02">
    <path d="m182.45 117.25 51.751-29.879c3.2454-1.8737 4.1504-6.3353 2.0338-10.006l-35.239-61.113c-2.1169-3.6707-6.437-5.1155-9.6824-3.2418l-42.794 24.707-5.9017 3.4146 3.8341 6.611 17.636 30.547 8.6795 35.718 3.8372 6.6214z"/>
    <path d="m179.44 112.06 51.793-29.903c3.2454-1.8737 4.1524-6.3364 2.0338-10.006l-35.272-61.094c-2.1187-3.6697-6.437-5.1155-9.6824-3.2418l-51.793 29.903-5.9017 3.4146 3.868 6.5914 35.272 61.094 3.8372 6.6215z"/>
   </g>
   <g transform="matrix(1.0563 0 0 1.0563 -130.37 -3.5957)" opacity=".02">
    <path d="m182.45 117.25 51.751-29.879c3.2454-1.8737 4.1504-6.3353 2.0338-10.006l-35.239-61.113c-2.1169-3.6707-6.437-5.1155-9.6824-3.2418l-42.794 24.707-5.9017 3.4146 3.8341 6.611 17.636 30.547 8.6795 35.718 3.8372 6.6214z"/>
    <path d="m179.44 112.06 51.793-29.903c3.2454-1.8737 4.1524-6.3364 2.0338-10.006l-35.272-61.094c-2.1187-3.6697-6.437-5.1155-9.6824-3.2418l-51.793 29.903-5.9017 3.4146 3.868 6.5914 35.272 61.094 3.8372 6.6215z"/>
   </g>
   <g transform="matrix(1.05 0 0 1.05 -129.21 -3.1936)" opacity=".02">
    <path d="m182.45 117.25 51.751-29.879c3.2454-1.8737 4.1504-6.3353 2.0338-10.006l-35.239-61.113c-2.1169-3.6707-6.437-5.1155-9.6824-3.2418l-42.794 24.707-5.9017 3.4146 3.8341 6.611 17.636 30.547 8.6795 35.718 3.8372 6.6214z"/>
    <path d="m179.44 112.06 51.793-29.903c3.2454-1.8737 4.1524-6.3364 2.0338-10.006l-35.272-61.094c-2.1187-3.6697-6.437-5.1155-9.6824-3.2418l-51.793 29.903-5.9017 3.4146 3.868 6.5914 35.272 61.094 3.8372 6.6215z"/>
   </g>
   <g transform="matrix(1.0438 0 0 1.0438 -128.06 -2.794)" opacity=".02">
    <path d="m182.45 117.25 51.751-29.879c3.2454-1.8737 4.1504-6.3353 2.0338-10.006l-35.239-61.113c-2.1169-3.6707-6.437-5.1155-9.6824-3.2418l-42.794 24.707-5.9017 3.4146 3.8341 6.611 17.636 30.547 8.6795 35.718 3.8372 6.6214z"/>
    <path d="m179.44 112.06 51.793-29.903c3.2454-1.8737 4.1524-6.3364 2.0338-10.006l-35.272-61.094c-2.1187-3.6697-6.437-5.1155-9.6824-3.2418l-51.793 29.903-5.9017 3.4146 3.868 6.5914 35.272 61.094 3.8372 6.6215z"/>
   </g>
   <g transform="matrix(1.0376 0 0 1.0376 -126.91 -2.3967)" opacity=".02">
    <path d="m182.45 117.25 51.751-29.879c3.2454-1.8737 4.1504-6.3353 2.0338-10.006l-35.239-61.113c-2.1169-3.6707-6.437-5.1155-9.6824-3.2418l-42.794 24.707-5.9017 3.4146 3.8341 6.611 17.636 30.547 8.6795 35.718 3.8372 6.6214z"/>
    <path d="m179.44 112.06 51.793-29.903c3.2454-1.8737 4.1524-6.3364 2.0338-10.006l-35.272-61.094c-2.1187-3.6697-6.437-5.1155-9.6824-3.2418l-51.793 29.903-5.9017 3.4146 3.868 6.5914 35.272 61.094 3.8372 6.6215z"/>
   </g>
   <g transform="matrix(1.0314 0 0 1.0314 -125.77 -2.0018)" opacity=".02">
    <path d="m182.45 117.25 51.751-29.879c3.2454-1.8737 4.1504-6.3353 2.0338-10.006l-35.239-61.113c-2.1169-3.6707-6.437-5.1155-9.6824-3.2418l-42.794 24.707-5.9017 3.4146 3.8341 6.611 17.636 30.547 8.6795 35.718 3.8372 6.6214z"/>
    <path d="m179.44 112.06 51.793-29.903c3.2454-1.8737 4.1524-6.3364 2.0338-10.006l-35.272-61.094c-2.1187-3.6697-6.437-5.1155-9.6824-3.2418l-51.793 29.903-5.9017 3.4146 3.868 6.5914 35.272 61.094 3.8372 6.6215z"/>
   </g>
   <g transform="matrix(1.0252 0 0 1.0252 -124.64 -1.6092)" opacity=".02">
    <path d="m182.45 117.25 51.751-29.879c3.2454-1.8737 4.1504-6.3353 2.0338-10.006l-35.239-61.113c-2.1169-3.6707-6.437-5.1155-9.6824-3.2418l-42.794 24.707-5.9017 3.4146 3.8341 6.611 17.636 30.547 8.6795 35.718 3.8372 6.6214z"/>
    <path d="m179.44 112.06 51.793-29.903c3.2454-1.8737 4.1524-6.3364 2.0338-10.006l-35.272-61.094c-2.1187-3.6697-6.437-5.1155-9.6824-3.2418l-51.793 29.903-5.9017 3.4146 3.868 6.5914 35.272 61.094 3.8372 6.6215z"/>
   </g>
   <g transform="matrix(1.0191 0 0 1.0191 -123.51 -1.219)" opacity=".02">
    <path d="m182.45 117.25 51.751-29.879c3.2454-1.8737 4.1504-6.3353 2.0338-10.006l-35.239-61.113c-2.1169-3.6707-6.437-5.1155-9.6824-3.2418l-42.794 24.707-5.9017 3.4146 3.8341 6.611 17.636 30.547 8.6795 35.718 3.8372 6.6214z"/>
    <path d="m179.44 112.06 51.793-29.903c3.2454-1.8737 4.1524-6.3364 2.0338-10.006l-35.272-61.094c-2.1187-3.6697-6.437-5.1155-9.6824-3.2418l-51.793 29.903-5.9017 3.4146 3.868 6.5914 35.272 61.094 3.8372 6.6215z"/>
   </g>
   <g transform="matrix(1.013 0 0 1.013 -122.39 -.82776)" opacity=".02">
    <path d="m182.45 117.25 51.751-29.879c3.2454-1.8737 4.1504-6.3353 2.0338-10.006l-35.239-61.113c-2.1169-3.6707-6.437-5.1155-9.6824-3.2418l-42.794 24.707-5.9017 3.4146 3.8341 6.611 17.636 30.547 8.6795 35.718 3.8372 6.6214z"/>
    <path d="m179.44 112.06 51.793-29.903c3.2454-1.8737 4.1524-6.3364 2.0338-10.006l-35.272-61.094c-2.1187-3.6697-6.437-5.1155-9.6824-3.2418l-51.793 29.903-5.9017 3.4146 3.868 6.5914 35.272 61.094 3.8372 6.6215z"/>
   </g>
   <g transform="matrix(1.0065 0 0 1.0065 -121.19 -.41388)" opacity=".02">
    <path d="m182.45 117.25 51.751-29.879c3.2454-1.8737 4.1504-6.3353 2.0338-10.006l-35.239-61.113c-2.1169-3.6707-6.437-5.1155-9.6824-3.2418l-42.794 24.707-5.9017 3.4146 3.8341 6.611 17.636 30.547 8.6795 35.718 3.8372 6.6214z"/>
    <path d="m179.44 112.06 51.793-29.903c3.2454-1.8737 4.1524-6.3364 2.0338-10.006l-35.272-61.094c-2.1187-3.6697-6.437-5.1155-9.6824-3.2418l-51.793 29.903-5.9017 3.4146 3.868 6.5914 35.272 61.094 3.8372 6.6215z"/>
   </g>
  </g>
  <path d="m62.451 117.25 51.751-29.879c3.2454-1.8737 4.1504-6.3353 2.0338-10.006l-35.239-61.113c-2.1169-3.6707-6.437-5.1155-9.6824-3.2418l-42.794 24.707-5.9017 3.4146 3.8341 6.611 17.636 30.547 8.6795 35.718 3.8372 6.6214z" fill="url(#k)" stroke="url(#j)" stroke-miterlimit="6" stroke-width="2.007"/>
  <rect transform="matrix(.86603 -.5 .5 .86603 0 0)" x="-12.3" y="127.59" width="2.0031" height="6.1833" fill="url(#i)"/>
  <path d="m63.182 114.52 50.02-28.879c3.2454-1.8737 4.1504-6.3353 2.0338-10.006l-35.239-61.113c-2.1169-3.6707-6.437-5.1155-9.6824-3.2418l-42.794 24.707-5.9017 3.4146 3.8341 6.611 17.636 30.547 10.41 34.719 3.8372 6.6214z" fill="url(#h)" stroke="url(#g)" stroke-miterlimit="6" stroke-width="2.007"/>
  <path d="m108.44 76.823 4.4767 7.8308-55.223 31.883-4.795-8.3022" fill="url(#f)"/>
  <path d="m59.443 112.06 51.793-29.903c3.2454-1.8737 4.1524-6.3364 2.0338-10.006l-35.272-61.094c-2.1187-3.6697-6.437-5.1155-9.6824-3.2418l-51.793 29.903-5.9017 3.4146 3.868 6.5914 35.272 61.094 3.8372 6.6215z" fill="url(#c)" stroke="url(#e)" stroke-miterlimit="6" stroke-width="2.007"/>
  <g transform="matrix(.86603 -.5 .5 .86603 -484.04 -792.17)" fill="#fff" opacity=".65">
   <path d="m43.54 991.29v18.738h8.6836c1.9922 0 3.4453-0.4336 4.3594-1.3008 0.93747-0.8906 1.5586-2.6367 1.8633-5.2383h1.3008v16.137h-1.3008c-0.02347-1.8515-0.26956-3.2109-0.73828-4.0781-0.44534-0.8672-1.0782-1.5117-1.8984-1.9336-0.7969-0.4453-1.9922-0.668-3.5859-0.668h-8.6836v14.977c-1.5e-5 2.4141 0.15233 4.0078 0.45703 4.7812 0.23436 0.586 0.72655 1.0899 1.4766 1.5118 1.0312 0.5625 2.1094 0.8437 3.2344 0.8437h1.7227v1.3008h-20.461v-1.3008h1.6875c1.9687 0 3.3984-0.5742 4.2891-1.7227 0.56249-0.75 0.84374-2.5546 0.84375-5.414v-30.797c-8e-6 -2.414-0.15235-4.0078-0.45703-4.7812-0.23438-0.5859-0.71485-1.0898-1.4414-1.5117-1.0078-0.56246-2.0859-0.8437-3.2344-0.84375h-1.6875v-1.3008h35.473l0.45703 10.477h-1.2305c-0.60941-2.2265-1.3243-3.8554-2.1445-4.8867-0.79691-1.0546-1.793-1.8164-2.9883-2.2852-1.1719-0.46871-3-0.70308-5.4844-0.70313h-10.512" fill="#fff"/>
  </g>
  <g transform="matrix(.86603 -.5 .5 .86603 -484.04 -793.17)" opacity=".4">
   <path d="m43.54 991.29v18.738h8.6836c1.9922 0 3.4453-0.4336 4.3594-1.3008 0.93747-0.8906 1.5586-2.6367 1.8633-5.2383h1.3008v16.137h-1.3008c-0.02347-1.8515-0.26956-3.2109-0.73828-4.0781-0.44534-0.8672-1.0782-1.5117-1.8984-1.9336-0.7969-0.4453-1.9922-0.668-3.5859-0.668h-8.6836v14.977c-1.5e-5 2.4141 0.15233 4.0078 0.45703 4.7812 0.23436 0.586 0.72655 1.0899 1.4766 1.5118 1.0312 0.5625 2.1094 0.8437 3.2344 0.8437h1.7227v1.3008h-20.461v-1.3008h1.6875c1.9687 0 3.3984-0.5742 4.2891-1.7227 0.56249-0.75 0.84374-2.5546 0.84375-5.414v-30.797c-8e-6 -2.414-0.15235-4.0078-0.45703-4.7812-0.23438-0.5859-0.71485-1.0898-1.4414-1.5117-1.0078-0.56246-2.0859-0.8437-3.2344-0.84375h-1.6875v-1.3008h35.473l0.45703 10.477h-1.2305c-0.60941-2.2265-1.3243-3.8554-2.1445-4.8867-0.79691-1.0546-1.793-1.8164-2.9883-2.2852-1.1719-0.46871-3-0.70308-5.4844-0.70313h-10.512"/>
  </g>
 </g>
 <path d="m6.5 1.8942c5.8015 0 20.954 0.00228 20.954 0.00228l14.046 14.33 3.6e-5 29.673h-35v-44.006z" fill="url(#d)"/>
 <rect x="19.632" y="1.8722" width="21.868" height="24.125" fill="none"/>
 <path d="m29.349 14.212c-0.04524-3.4428 0.09264-9.2334-1.8427-12.276 0 0 12.641 12.709 13.994 14.29 0 0-2.3483-1.8776-12.152-2.0143z" fill="url(#l)"/>
 <g transform="translate(-1.1668)" fill="#575757" aria-label="WOFF">
  <path d="m10.992 34.976h0.99609l1.5332 6.1621 1.5283-6.1621h1.1084l1.5332 6.1621 1.5283-6.1621h1.001l-1.8311 7.29h-1.2402l-1.5381-6.3281-1.5527 6.3281h-1.2402z"/>
  <path d="m24.488 35.645q-1.0742 0-1.709 0.80078-0.62988 0.80078-0.62988 2.1826 0 1.377 0.62988 2.1777 0.63476 0.80078 1.709 0.80078t1.6992-0.80078q0.62988-0.80078 0.62988-2.1777 0-1.3818-0.62988-2.1826-0.625-0.80078-1.6992-0.80078zm0-0.80078q1.5332 0 2.4512 1.0303 0.91797 1.0254 0.91797 2.7539 0 1.7236-0.91797 2.7539-0.91797 1.0254-2.4512 1.0254-1.5381 0-2.4609-1.0254-0.91797-1.0254-0.91797-2.7539t0.91797-2.7539q0.92285-1.0303 2.4609-1.0303z"/>
  <path d="m29.4 34.976h4.1895v0.83008h-3.2031v2.1484h2.8906v0.83008h-2.8906v3.4814h-0.98633z"/>
  <path d="m35.152 34.976h4.1895v0.83008h-3.2031v2.1484h2.8906v0.83008h-2.8906v3.4814h-0.98633z"/>
 </g>
</svg>
