<svg width="48" height="48" version="1.1" xmlns="http://www.w3.org/2000/svg" xmlns:xlink="http://www.w3.org/1999/xlink">
 <defs>
  <radialGradient id="d" cx="7.8061" cy="9.9571" r="12.672" fx="7.2758" gradientTransform="matrix(-1.6167e-7 6.6019 -8.0922 -1.9817e-7 104.56 -54.89)" gradientUnits="userSpaceOnUse">
   <stop stop-color="#ffcd7d" offset="0"/>
   <stop stop-color="#fc8f36" offset=".26238"/>
   <stop stop-color="#e23a0e" offset=".70495"/>
   <stop stop-color="#ac441f" offset="1"/>
  </radialGradient>
  <linearGradient id="b" x1="25.132" x2="25.132" y1=".98521" y2="47.013" gradientTransform="matrix(1 0 0 .95617 9.9862e-8 -.51792)" gradientUnits="userSpaceOnUse">
   <stop stop-color="#dadada" offset="0"/>
   <stop stop-color="#fff" offset="1"/>
  </linearGradient>
  <radialGradient id="a" cx="26.53" cy="23.566" r="17.5" gradientTransform="matrix(-1.7302 -.0033869 .0034626 -1.7689 87.322 43.647)" gradientUnits="userSpaceOnUse">
   <stop stop-opacity=".65926" offset="0"/>
   <stop stop-color="#cecece" stop-opacity="0" offset="1"/>
  </radialGradient>
  <linearGradient id="c" x1="91.308" x2="95.182" y1="98.192" y2="102.07" gradientTransform="matrix(.56521 0 0 -.60266 -19.183 70.781)" gradientUnits="userSpaceOnUse">
   <stop stop-color="#fcfcfc" offset="0"/>
   <stop stop-color="#c1c1c1" offset="1"/>
  </linearGradient>
 </defs>
 <path d="m6.5 1.8722c5.8015 0 21.021 0.00228 21.021 0.00228l13.979 14.352 3.6e-5 29.651h-35v-44.006z" fill="none" stroke="#000" stroke-opacity=".54902"/>
 <path d="m6.5 1.8942c5.8015 0 20.954 0.00228 20.954 0.00228l14.046 14.33 3.6e-5 29.673h-35v-44.006z" fill="url(#b)"/>
 <path d="m6.5 1.8942c5.8015 0 20.954 0.00228 20.954 0.00228l14.046 14.33 3.6e-5 29.673h-35v-44.006z" fill="url(#a)"/>
 <rect x="19.632" y="1.8722" width="21.868" height="24.125" fill="none"/>
 <path d="m29.349 14.212c-0.04524-3.4428 0.09264-9.2334-1.8427-12.276 0 0 12.641 12.709 13.994 14.29 0 0-2.3483-1.8776-12.152-2.0143z" fill="url(#c)"/>
 <path d="m30.332 20.758c-2e-6 -0.33592 0.05078-0.61326 0.15234-0.83203 0.10156-0.22654 0.23828-0.40623 0.41016-0.53906 0.17968-0.14061 0.38672-0.23826 0.62109-0.29297 0.24218-0.05467 0.49609-0.08201 0.76172-0.08203 0.26562 1.8e-5 0.51562 0.02736 0.75 0.08203 0.23437 0.05471 0.4375 0.15236 0.60938 0.29297 0.17968 0.13283 0.32031 0.31252 0.42188 0.53906 0.10937 0.21877 0.16406 0.49611 0.16406 0.83203-5e-6 0.32814-0.05469 0.60548-0.16406 0.83203-0.10157 0.22658-0.24219 0.41017-0.42188 0.55078-0.17188 0.13283-0.375 0.23048-0.60938 0.29297-0.23438 0.0547-0.48438 0.08205-0.75 0.08203-0.26563 1.5e-5 -0.51954-0.02733-0.76172-0.08203-0.23438-0.06248-0.44141-0.16014-0.62109-0.29297-0.17188-0.14061-0.3086-0.3242-0.41016-0.55078-0.10156-0.22655-0.15235-0.50389-0.15234-0.83203m3.7266 16.488h-3.5742v-13.102h3.5742v13.102m-9.1289 0-1.1719-4.0781h-5.9062l-1.1836 4.0781h-3.668l5.5664-17.203h4.4414l5.5898 17.203h-3.668m-2.0156-7.125-1.1016-3.75c-0.04688-0.14061-0.1172-0.37108-0.21094-0.69141-0.09376-0.3203-0.19532-0.67186-0.30469-1.0547-0.10157-0.39061-0.19923-0.78124-0.29297-1.1719-0.09376-0.39061-0.16016-0.72264-0.19922-0.99609-0.03126 0.17189-0.07423 0.37501-0.12891 0.60938-0.04688 0.23439-0.10548 0.48439-0.17578 0.75-0.06251 0.25782-0.12891 0.51954-0.19922 0.78516-0.07032 0.26564-0.13673 0.51564-0.19922 0.75-0.06251 0.23439-0.1211 0.44142-0.17578 0.62109-0.04688 0.1797-0.08204 0.31251-0.10547 0.39844l-1.0898 3.75h4.1836" color="#000000" color-rendering="auto" fill="url(#d)" image-rendering="auto" shape-rendering="auto" solid-color="#000000" style="isolation:auto;mix-blend-mode:normal"/>
</svg>
