<svg width="48" height="48" version="1.1" xmlns="http://www.w3.org/2000/svg">
 <defs>
  <radialGradient id="a" cx="394.57" cy="536.46" r="14" gradientTransform="matrix(.74571 1.2916 -.96777 .55874 622.31 -283.72)" gradientUnits="userSpaceOnUse">
   <stop stop-color="#7fbc51" offset="0"/>
   <stop stop-color="#64ac31" offset="1"/>
  </radialGradient>
  <clipPath id="b">
   <circle transform="matrix(4.2857 0 0 4.2857 -1268.2 -1795.4)" cx="400.57" cy="531.8" r="14" d="m 414.5714,531.79797 c 0,7.73197 -6.268,13.99996 -13.99996,13.99996 -7.73196,0 -13.99996,-6.26799 -13.99996,-13.99996 0,-7.73196 6.268,-13.99995 13.99996,-13.99995 7.73196,0 13.99996,6.26799 13.99996,13.99995 z" fill="url(#a)"/>
  </clipPath>
  <linearGradient id="e" x1="484.41" x2="432.74" y1="542.39" y2="456.41" gradientTransform="matrix(.87968 .25229 -.25229 .87968 178.75 -57.225)" gradientUnits="userSpaceOnUse">
   <stop stop-color="#e6e6e6" offset="0"/>
   <stop stop-color="#fff" offset="1"/>
  </linearGradient>
  <linearGradient id="d" x1="25.132" x2="25.132" y1=".98521" y2="47.013" gradientTransform="matrix(1 0 0 .95617 9.9862e-8 -.51792)" gradientUnits="userSpaceOnUse">
   <stop stop-color="#dadada" offset="0"/>
   <stop stop-color="#fff" offset="1"/>
  </linearGradient>
  <radialGradient id="f" cx="26.53" cy="23.566" r="17.5" gradientTransform="matrix(-1.7302 -.0033869 .0034626 -1.7689 87.322 43.647)" gradientUnits="userSpaceOnUse">
   <stop stop-opacity=".65926" offset="0"/>
   <stop stop-color="#cecece" stop-opacity="0" offset="1"/>
  </radialGradient>
  <linearGradient id="c" x1="91.308" x2="95.182" y1="98.192" y2="102.07" gradientTransform="matrix(.56521 0 0 -.60266 -19.183 70.781)" gradientUnits="userSpaceOnUse">
   <stop stop-color="#fcfcfc" offset="0"/>
   <stop stop-color="#c1c1c1" offset="1"/>
  </linearGradient>
 </defs>
 <path d="m6.5 1.8722c5.8015 0 21.021 0.00228 21.021 0.00228l13.979 14.352 3.6e-5 29.651h-35v-44.006z" fill="none" stroke="#000" stroke-opacity=".54902"/>
 <path d="m6.5 1.8942c5.8015 0 20.954 0.00228 20.954 0.00228l14.046 14.33 3.6e-5 29.673h-35v-44.006z" fill="url(#d)"/>
 <g transform="matrix(.19433 0 0 .19433 38.59 4.9071)">
  <g transform="matrix(.98623 0 0 .98795 -517.46 -400.2)">
   <circle transform="matrix(4.4644 0 0 4.4644 -1339.7 -1890.4)" cx="400.57" cy="531.8" r="14" d="m 414.5714,531.79797 c 0,7.73197 -6.268,13.99996 -13.99996,13.99996 -7.73196,0 -13.99996,-6.26799 -13.99996,-13.99996 0,-7.73196 6.268,-13.99995 13.99996,-13.99995 7.73196,0 13.99996,6.26799 13.99996,13.99995 z" opacity=".04"/>
   <circle transform="matrix(4.4365 0 0 4.4365 -1328.6 -1875.6)" cx="400.57" cy="531.8" r="14" d="m 414.5714,531.79797 c 0,7.73197 -6.268,13.99996 -13.99996,13.99996 -7.73196,0 -13.99996,-6.26799 -13.99996,-13.99996 0,-7.73196 6.268,-13.99995 13.99996,-13.99995 7.73196,0 13.99996,6.26799 13.99996,13.99995 z" opacity=".04"/>
   <circle transform="matrix(4.4067 0 0 4.4067 -1316.6 -1859.8)" cx="400.57" cy="531.8" r="14" d="m 414.5714,531.79797 c 0,7.73197 -6.268,13.99996 -13.99996,13.99996 -7.73196,0 -13.99996,-6.26799 -13.99996,-13.99996 0,-7.73196 6.268,-13.99995 13.99996,-13.99995 7.73196,0 13.99996,6.26799 13.99996,13.99995 z" opacity=".04"/>
   <circle transform="matrix(4.3769 0 0 4.3769 -1304.7 -1843.9)" cx="400.57" cy="531.8" r="14" d="m 414.5714,531.79797 c 0,7.73197 -6.268,13.99996 -13.99996,13.99996 -7.73196,0 -13.99996,-6.26799 -13.99996,-13.99996 0,-7.73196 6.268,-13.99995 13.99996,-13.99995 7.73196,0 13.99996,6.26799 13.99996,13.99995 z" opacity=".04"/>
   <circle transform="matrix(4.3464 0 0 4.3464 -1292.5 -1827.7)" cx="400.57" cy="531.8" r="14" d="m 414.5714,531.79797 c 0,7.73197 -6.268,13.99996 -13.99996,13.99996 -7.73196,0 -13.99996,-6.26799 -13.99996,-13.99996 0,-7.73196 6.268,-13.99995 13.99996,-13.99995 7.73196,0 13.99996,6.26799 13.99996,13.99995 z" opacity=".04"/>
   <circle transform="matrix(4.3165 0 0 4.3165 -1280.5 -1811.8)" cx="400.57" cy="531.8" r="14" d="m 414.5714,531.79797 c 0,7.73197 -6.268,13.99996 -13.99996,13.99996 -7.73196,0 -13.99996,-6.26799 -13.99996,-13.99996 0,-7.73196 6.268,-13.99995 13.99996,-13.99995 7.73196,0 13.99996,6.26799 13.99996,13.99995 z" opacity=".04"/>
  </g>
  <circle transform="matrix(4.2857 0 0 4.2857 -1791.8 -2202.2)" cx="400.57" cy="531.8" r="14" d="m 414.5714,531.79797 c 0,7.73197 -6.268,13.99996 -13.99996,13.99996 -7.73196,0 -13.99996,-6.26799 -13.99996,-13.99996 0,-7.73196 6.268,-13.99995 13.99996,-13.99995 7.73196,0 13.99996,6.26799 13.99996,13.99995 z" fill="url(#a)"/>
  <path transform="translate(-523.64 -406.78)" d="m476.46 450.87c-2.5352-0.47263-4.0167 1.9719-4.0167 1.9719l-23.244 39.864s-4.1396 6.1293 2.2385 4.5394l16.955-4.2412 1.4125 5.552 9.5816 38.479c0.40093 1.6084 0.37461 1.6169 2.5798 1.0671l26.467-6.6003c2.3245-0.57942 2.3066-0.59696 1.7979-2.638l-9.4056-37.744-1.479-5.8389 16.275-4.0494c5.2359-1.3052 0.53865-4.3677 0.53865-4.3677s-34.07-23.385-38.562-25.608c-0.40438-0.20196-0.77664-0.31859-1.1388-0.3861zm-45.626 11.161c-0.36684-0.0254-0.916 0.103-1.7877 0.32032l-26.44 6.6082c-2.2052 0.54969-2.1826 0.55824-1.7817 2.1666l9.5895 38.452 1.3771 5.5717-16.982 4.2333c-6.3781 1.5899 0.1678 5.0166 0.1678 5.0166l39.258 24.32s3.1708 1.8977 5.2689-1.0475c2.9228-4.0708 22.024-40.69 22.024-40.69s2.7019-4.9178-2.534-3.6126l-16.247 4.0573-1.4515-5.831-9.4056-37.744c-0.31798-1.2756-0.44348-1.7777-1.0549-1.8198z" clip-path="url(#b)" fill="none" opacity=".25" stroke="#000" stroke-width="1.5"/>
  <path transform="translate(-523.64 -406.78)" d="m476.46 450.87c-2.5352-0.47263-4.0167 1.9719-4.0167 1.9719l-23.244 39.864s-4.1396 6.1293 2.2385 4.5394l16.955-4.2412 1.4125 5.552 9.5816 38.479c0.40093 1.6084 0.37461 1.6169 2.5798 1.0671l26.467-6.6003c2.3245-0.57942 2.3066-0.59696 1.7979-2.638l-9.4056-37.744-1.479-5.8389 16.275-4.0494c5.2359-1.3052 0.53865-4.3677 0.53865-4.3677s-34.07-23.385-38.562-25.608c-0.40438-0.20196-0.77664-0.31859-1.1388-0.3861zm-45.626 11.161c-0.36684-0.0254-0.916 0.103-1.7877 0.32032l-26.44 6.6082c-2.2052 0.54969-2.1826 0.55824-1.7817 2.1666l9.5895 38.452 1.3771 5.5717-16.982 4.2333c-6.3781 1.5899 0.1678 5.0166 0.1678 5.0166l39.258 24.32s3.1708 1.8977 5.2689-1.0475c2.9228-4.0708 22.024-40.69 22.024-40.69s2.7019-4.9178-2.534-3.6126l-16.247 4.0573-1.4515-5.831-9.4056-37.744c-0.31798-1.2756-0.44348-1.7777-1.0549-1.8198z" clip-path="url(#b)" fill="url(#e)"/>
  <path d="m-114.56 31.537c-12.038 10.973-19.594 26.772-19.594 44.344 0 33.137 26.863 60 60 60 17.572 0 33.37-7.5559 44.344-19.594-10.655 9.6844-24.811 15.594-40.344 15.594-33.137 0-60-26.863-60-60 0-15.533 5.9094-29.689 15.594-40.344z" opacity=".02"/>
  <path d="m-115.49 32.568c-12.038 10.973-19.594 26.772-19.594 44.344 0 33.137 26.863 60 60 60 17.572 0 33.37-7.5559 44.344-19.594-10.655 9.6844-24.811 15.594-40.344 15.594-33.137 0-60-26.863-60-60 0-15.533 5.9094-29.689 15.594-40.344z" opacity=".04"/>
  <path d="m-116.49 33.506c-11.452 10.927-18.594 26.328-18.594 43.406 0 33.137 26.863 60 60 60 17.078 0 32.48-7.1416 43.406-18.594-10.768 10.274-25.348 16.594-41.406 16.594-33.137 0-60-26.863-60-60 0-16.059 6.3194-30.638 16.594-41.406z" opacity=".12"/>
  <path d="m-115.56 32.474c-11.452 10.927-18.594 26.328-18.594 43.406 0 33.137 26.863 60 60 60 17.078 0 32.48-7.1416 43.406-18.594-10.768 10.274-25.348 16.594-41.406 16.594-33.137 0-60-26.863-60-60 0-16.059 6.3194-30.638 16.594-41.406z" opacity=".04"/>
  <path d="m-118.95 36.006c-9.9957 10.718-16.125 25.094-16.125 40.906 0 33.137 26.863 60 60 60 17.825 0 33.823-7.7833 44.812-20.125-10.952 11.744-26.55 19.094-43.875 19.094-33.137 0-60-26.863-60-60 0-15.312 5.7478-29.274 15.188-39.875z" opacity=".2"/>
 </g>
 <path d="m6.5 1.8942c5.8015 0 20.954 0.00228 20.954 0.00228l14.046 14.33 3.6e-5 29.673h-35v-44.006z" fill="url(#f)"/>
 <rect x="19.632" y="1.8722" width="21.868" height="24.125" fill="none"/>
 <path d="m29.349 14.212c-0.04524-3.4428 0.09264-9.2334-1.8427-12.276 0 0 12.641 12.709 13.994 14.29 0 0-2.3483-1.8776-12.152-2.0143z" fill="url(#c)"/>
 <text x="8.4346991" y="42.323753" fill="#575757" font-family="'Lucida Grande'" letter-spacing="0px" word-spacing="0px" style="line-height:0%" xml:space="preserve"><tspan x="8.4346991" y="42.323753" font-size="6.7825px" style="line-height:1.25">TORRENT</tspan></text>
</svg>
