<svg width="48" height="48" version="1.1" xmlns="http://www.w3.org/2000/svg">
 <defs>
  <linearGradient id="b" x1="25.132" x2="25.132" y1=".98521" y2="47.013" gradientTransform="matrix(1 0 0 .95617 9.9862e-8 -.51792)" gradientUnits="userSpaceOnUse">
   <stop stop-color="#dadada" offset="0"/>
   <stop stop-color="#fff" offset="1"/>
  </linearGradient>
  <radialGradient id="a" cx="26.53" cy="23.566" r="17.5" gradientTransform="matrix(-1.7302 -.0033869 .0034626 -1.7689 87.322 43.647)" gradientUnits="userSpaceOnUse">
   <stop stop-opacity=".65926" offset="0"/>
   <stop stop-color="#cecece" stop-opacity="0" offset="1"/>
  </radialGradient>
  <linearGradient id="c" x1="91.308" x2="95.182" y1="98.192" y2="102.07" gradientTransform="matrix(.56521 0 0 -.60266 -19.183 70.781)" gradientUnits="userSpaceOnUse">
   <stop stop-color="#fcfcfc" offset="0"/>
   <stop stop-color="#c1c1c1" offset="1"/>
  </linearGradient>
 </defs>
 <path d="m6.5 1.8722c5.8015 0 21.021 0.00228 21.021 0.00228l13.979 14.352 3.6e-5 29.651h-35v-44.006z" fill="none" stroke="#000" stroke-opacity=".54902"/>
 <path d="m6.5 1.8942c5.8015 0 20.954 0.00228 20.954 0.00228l14.046 14.33 3.6e-5 29.673h-35v-44.006z" fill="url(#b)"/>
 <path d="m6.5 1.8942c5.8015 0 20.954 0.00228 20.954 0.00228l14.046 14.33 3.6e-5 29.673h-35v-44.006z" fill="url(#a)"/>
 <rect x="19.632" y="1.8722" width="21.868" height="24.125" fill="none"/>
 <path d="m29.349 14.212c-0.04524-3.4428 0.09264-9.2334-1.8427-12.276 0 0 12.641 12.709 13.994 14.29 0 0-2.3483-1.8776-12.152-2.0143z" fill="url(#c)"/>
 <g fill="#575757" aria-label="RUBY">
  <path d="m15.409 38.848q0.31738 0.10742 0.61524 0.45898 0.30273 0.35156 0.60547 0.9668l1.001 1.9922h-1.0596l-0.93262-1.8701q-0.36133-0.73242-0.70312-0.97168-0.33691-0.23926-0.92285-0.23926h-1.0742v3.0811h-0.98633v-7.29h2.2266q1.25 0 1.8652 0.52246t0.61523 1.5771q0 0.68848-0.32226 1.1426-0.31738 0.4541-0.92774 0.62988zm-2.4707-3.0615v2.5879h1.2402q0.71289 0 1.0742-0.32715 0.36621-0.33203 0.36621-0.97168 0-0.63965-0.36621-0.96191-0.36133-0.32715-1.0742-0.32715z"/>
  <path d="m18.788 34.976h0.99121v4.4287q0 1.1719 0.4248 1.6895 0.4248 0.5127 1.377 0.5127 0.94727 0 1.3721-0.5127 0.4248-0.51758 0.4248-1.6895v-4.4287h0.99121v4.5508q0 1.4258-0.70801 2.1533-0.70312 0.72754-2.0801 0.72754-1.3818 0-2.0898-0.72754-0.70312-0.72754-0.70312-2.1533z"/>
  <path d="m27.206 38.784v2.6709h1.582q0.7959 0 1.1768-0.32715 0.38574-0.33203 0.38574-1.0107 0-0.68359-0.38574-1.0059-0.38086-0.32715-1.1768-0.32715zm0-2.998v2.1973h1.46q0.72266 0 1.0742-0.26855 0.35644-0.27344 0.35644-0.83008 0-0.55176-0.35644-0.8252-0.35156-0.27344-1.0742-0.27344zm-0.98633-0.81055h2.5195q1.1279 0 1.7383 0.46875 0.61035 0.46875 0.61035 1.333 0 0.66894-0.3125 1.0645t-0.91797 0.49316q0.72754 0.15625 1.1279 0.6543 0.40527 0.49316 0.40527 1.2354 0 0.97656-0.66406 1.5088-0.66406 0.53223-1.8896 0.53223h-2.6172z"/>
  <path d="m31.532 34.976h1.0596l2.0215 2.998 2.0068-2.998h1.0596l-2.5781 3.8184v3.4717h-0.99121v-3.4717z"/>
 </g>
</svg>
