<svg width="48" height="48" xmlns="http://www.w3.org/2000/svg"><defs><linearGradient id="a" x1="25.132" x2="25.132" y1=".985" y2="47.013" gradientTransform="matrix(1 0 0 .95617 0 -.518)" gradientUnits="userSpaceOnUse"><stop stop-color="#dadada" offset="0"/><stop stop-color="#fff" offset="1"/></linearGradient><linearGradient id="c" x1="91.308" x2="95.182" y1="98.192" y2="102.07" gradientTransform="matrix(.56521 0 0 -.60266 -19.183 70.781)" gradientUnits="userSpaceOnUse"><stop stop-color="#fcfcfc" offset="0"/><stop stop-color="#c1c1c1" offset="1"/></linearGradient><radialGradient id="b" cx="26.53" cy="23.566" r="17.5" gradientTransform="matrix(-1.7302 -.00339 .00346 -1.7689 87.322 43.647)" gradientUnits="userSpaceOnUse"><stop stop-opacity=".659" offset="0"/><stop stop-color="#cecece" stop-opacity="0" offset="1"/></radialGradient></defs><path d="m6.5 1.872 21.021.002L41.5 16.226v29.651h-35V1.871z" fill="none" stroke="#000" stroke-opacity=".549"/><path d="m6.5 1.894 20.954.002L41.5 16.226V45.9h-35V1.893z" fill="url(#a)"/><path d="M24 14.994c-4.432 0-8 3.568-8 8v3.997h-1v6.096l.406-.53c.582-.782 2.131-1.897 3.344-2.376.64-.252 2.173-.53 3.906-.719 2.611-.293 7.544-.47 9.344-2.47v-3.998c0-4.432-3.568-8-8-8zm.656.969c.38.022.751.066 1.125.156 1.345.323 1.496.634.188.375-2.06-.408-4.794.509-6.469 2.188-.5.502-1.133 1.333-1.406 1.843-.564 1.052-.475.374.125-.906 1.097-2.341 3.783-3.811 6.437-3.656zM24 18.994c2.216 0 4 1.784 4 4v3.997h-8v-3.997c0-2.216 1.784-4 4-4zm9 10.162-1.063.875c-.577.491-1.48 1.164-2.03 1.5-1.126.688-3.795 1.656-4.595 1.656-.3 0-.477.073-.406.188.133.216 1.731.118 3.406-.22.55-.11 1.827-.609 2.844-1.124L33 31.093v-.968zm0 2.156-.563.781c-1.865 2.572-4.903 3.997-9.124 4.25-2.82.17-1.788.49 1.593.5 2.29.004 2.807-.066 4.188-.53.864-.291 1.581-.514 1.625-.47.157.158-1.533 1.557-2.469 2.032-1.793.91-3.014 1.165-6.25 1.312-2.299.105-3.243.223-3.688.469-.566.312-.192.334 7.032.344H33z" color="#000" fill="#0093dd"/><path d="m6.5 1.894 20.954.002L41.5 16.226V45.9h-35V1.893z" fill="url(#b)"/><path fill="none" d="M19.632 1.872H41.5v24.125H19.632z"/><path d="M29.349 14.212c-.045-3.443.093-9.233-1.843-12.276 0 0 12.641 12.709 13.994 14.29 0 0-2.348-1.878-12.152-2.014z" fill="url(#c)"/></svg>