<svg width="48" height="48" version="1.1" xmlns="http://www.w3.org/2000/svg" xmlns:xlink="http://www.w3.org/1999/xlink">
 <defs>
  <linearGradient id="e" x1="25.132" x2="25.132" y1=".98521" y2="47.013" gradientTransform="matrix(1 0 0 .95617 9.5917e-5 -.54063)" gradientUnits="userSpaceOnUse">
   <stop stop-color="#f4f4f4" offset="0"/>
   <stop stop-color="#dbdbdb" offset="1"/>
  </linearGradient>
  <radialGradient id="d" cx="8.2761" cy="9.9941" r="12.672" gradientTransform="matrix(0 7.6916 -9.5048 0 119.05 -73.538)" gradientUnits="userSpaceOnUse">
   <stop stop-color="#f89b7e" offset="0"/>
   <stop stop-color="#e35d4f" offset=".26238"/>
   <stop stop-color="#c6262e" offset=".66094"/>
   <stop stop-color="#690b2c" offset="1"/>
  </radialGradient>
  <linearGradient id="b" x1="25.132" x2="25.132" y1=".98521" y2="47.013" gradientTransform="matrix(1 0 0 .95617 9.9862e-8 -.51792)" gradientUnits="userSpaceOnUse">
   <stop stop-color="#dadada" offset="0"/>
   <stop stop-color="#fff" offset="1"/>
  </linearGradient>
  <linearGradient id="c" x1="91.308" x2="95.182" y1="98.192" y2="102.07" gradientTransform="matrix(.56521 0 0 -.60266 -19.183 70.781)" gradientUnits="userSpaceOnUse">
   <stop stop-color="#fcfcfc" offset="0"/>
   <stop stop-color="#c1c1c1" offset="1"/>
  </linearGradient>
  <radialGradient id="a" cx="26.53" cy="23.566" r="17.5" gradientTransform="matrix(-1.7302 -.0033869 .0034626 -1.7689 87.322 43.647)" gradientUnits="userSpaceOnUse">
   <stop stop-opacity=".65926" offset="0"/>
   <stop stop-color="#414141" stop-opacity="0" offset="1"/>
  </radialGradient>
 </defs>
 <path d="m6.5 1.8722c5.8015 0 21.021 0.00228 21.021 0.00228l13.979 14.352 3.6e-5 29.651h-35v-44.006z" fill="none" stroke="#000" stroke-opacity=".54902"/>
 <path d="m6.5 1.8942c5.8015 0 20.954 0.00228 20.954 0.00228l14.046 14.33 3.6e-5 29.673h-35v-44.006z" fill="url(#b)"/>
 <path d="m6.5 1.8945v43.982h35v-29.65l-14.047-14.33s-15.152-0.0019532-20.953-0.0019532z" fill="url(#e)"/>
 <g shape-rendering="auto">
  <path d="m27.908 2.3613c-9.9177 8.3765-16.986 11.935-21.408 13.416v4.6445c2.4952-0.73439 5.579-1.9407 8.7891-3.9414 5.5543-3.4617 11.905-9.2437 14.756-11.939l-2.1367-2.1797zm2.8633 2.9199c-1.792 6.5567-2.3473 21.524-2.3887 40.596h13.117v-16.699c-0.57535-2.5484-1.0882-5.1283-1.5469-7.6055-0.34037-2.5701-0.42938-5.0264-0.38672-7.3184l-8.7949-8.9727zm-24.271 20.795v4.4707c5.7073 2.3607 12.315 8.3991 15.932 15.33h3.9043c-1.7148-6.3584-12.809-15.939-19.836-19.801z" color="#000000" color-rendering="auto" fill="url(#d)" image-rendering="auto" solid-color="#000000" style="isolation:auto;mix-blend-mode:normal"/>
  <path d="m31.957 6.4922c-7.0467 4.3371-17.164 9.3019-25.457 8.3867v9.9707c0.556 0.10011 24.799 4.4085 35-3.8027v-4.8203l-9.543-9.7344zm9.543 19.148c-4.4429 5.6545-8.8718 12.799-11.904 20.182h3.8125c2.3452-4.8421 5.3279-10.093 8.0918-13.814v-6.3672z" color="#000000" color-rendering="auto" fill="#8c0000" fill-rule="evenodd" image-rendering="auto" opacity=".1" solid-color="#000000" style="isolation:auto;mix-blend-mode:normal"/>
 </g>
 <path d="m6.5 1.8942c5.8015 0 20.954 0.00228 20.954 0.00228l14.046 14.33 3.6e-5 29.673h-35v-44.006z" fill="url(#a)"/>
 <rect x="19.632" y="1.8722" width="21.868" height="24.125" fill="none"/>
 <path d="m29.349 14.212c-0.04524-3.4428 0.09264-9.2334-1.8427-12.276 0 0 12.641 12.709 13.994 14.29 0 0-2.3483-1.8776-12.152-2.0143z" fill="url(#c)"/>
</svg>
