<svg width="48" height="48" xmlns="http://www.w3.org/2000/svg"><defs><radialGradient id="d" cx="7.806" cy="9.957" r="12.672" fx="7.276" gradientTransform="matrix(0 6.6019 -8.0922 0 104.56 -54.89)" gradientUnits="userSpaceOnUse"><stop stop-color="#ffcd7d" offset="0"/><stop stop-color="#fc8f36" offset=".262"/><stop stop-color="#e23a0e" offset=".705"/><stop stop-color="#ac441f" offset="1"/></radialGradient><radialGradient id="b" cx="26.53" cy="23.566" r="17.5" gradientTransform="matrix(-1.7302 -.00339 .00346 -1.7689 87.322 43.647)" gradientUnits="userSpaceOnUse"><stop stop-opacity=".659" offset="0"/><stop stop-color="#cecece" stop-opacity="0" offset="1"/></radialGradient><linearGradient id="a" x1="25.132" x2="25.132" y1=".985" y2="47.013" gradientTransform="matrix(1 0 0 .95617 0 -.518)" gradientUnits="userSpaceOnUse"><stop stop-color="#dadada" offset="0"/><stop stop-color="#fff" offset="1"/></linearGradient><linearGradient id="c" x1="91.308" x2="95.182" y1="98.192" y2="102.07" gradientTransform="matrix(.56521 0 0 -.60266 -19.183 70.781)" gradientUnits="userSpaceOnUse"><stop stop-color="#fcfcfc" offset="0"/><stop stop-color="#c1c1c1" offset="1"/></linearGradient></defs><path d="m6.5 1.872 21.021.002L41.5 16.226v29.651h-35V1.871z" fill="none" stroke="#000" stroke-opacity=".549"/><path d="m6.5 1.894 20.954.002L41.5 16.226V45.9h-35V1.893z" fill="url(#a)"/><path d="m6.5 1.894 20.954.002L41.5 16.226V45.9h-35V1.893z" fill="url(#b)"/><path fill="none" d="M19.632 1.872H41.5v24.125H19.632z"/><path d="M29.349 14.212c-.045-3.443.093-9.233-1.843-12.276 0 0 12.641 12.709 13.994 14.29 0 0-2.348-1.878-12.152-2.014z" fill="url(#c)"/><path d="M30.332 20.758c0-.336.05-.613.152-.832.102-.227.239-.406.41-.54.18-.14.387-.237.622-.292.242-.055.496-.082.761-.082.266 0 .516.027.75.082.235.055.438.152.61.293.18.133.32.312.422.539.109.219.164.496.164.832 0 .328-.055.605-.164.832-.102.227-.243.41-.422.55a1.7 1.7 0 0 1-.61.294 3.292 3.292 0 0 1-.75.082c-.265 0-.52-.028-.761-.082a1.823 1.823 0 0 1-.621-.293 1.478 1.478 0 0 1-.41-.551c-.102-.227-.153-.504-.153-.832m3.727 16.488h-3.575V24.144h3.575v13.102m-9.13 0-1.171-4.078h-5.906l-1.184 4.078H13l5.566-17.203h4.442l5.59 17.203H24.93m-2.016-7.125-1.102-3.75c-.046-.14-.117-.371-.21-.691-.094-.32-.196-.672-.305-1.055-.102-.39-.2-.781-.293-1.172-.094-.39-.16-.723-.2-.996-.03.172-.074.375-.128.61-.047.234-.106.484-.176.75-.063.257-.129.519-.2.784l-.199.75c-.062.235-.12.442-.175.622-.047.18-.082.312-.106.398l-1.09 3.75h4.184" color="#000" fill="url(#d)" style="isolation:auto;mix-blend-mode:normal"/></svg>