<svg width="48" height="48" version="1.1" xmlns="http://www.w3.org/2000/svg" xmlns:xlink="http://www.w3.org/1999/xlink">
 <defs>
  <radialGradient id="d" cx="7.4957" cy="8.4498" r="20" gradientTransform="matrix(1.7436e-8 2.6366 -2.2187 -4.8576e-8 42.748 -18.606)" gradientUnits="userSpaceOnUse">
   <stop stop-color="#ff7a35" offset="0"/>
   <stop stop-color="#f0431a" offset="1"/>
  </radialGradient>
  <linearGradient id="b" x1="25.132" x2="25.132" y1=".98521" y2="47.013" gradientTransform="matrix(1 0 0 .95617 9.9862e-8 -.51792)" gradientUnits="userSpaceOnUse">
   <stop stop-color="#dadada" offset="0"/>
   <stop stop-color="#fff" offset="1"/>
  </linearGradient>
  <radialGradient id="a" cx="26.53" cy="23.566" r="17.5" gradientTransform="matrix(-1.7302 -.0033869 .0034626 -1.7689 87.322 43.647)" gradientUnits="userSpaceOnUse">
   <stop stop-opacity=".65926" offset="0"/>
   <stop stop-color="#cecece" stop-opacity="0" offset="1"/>
  </radialGradient>
  <linearGradient id="c" x1="91.308" x2="95.182" y1="98.192" y2="102.07" gradientTransform="matrix(.56521 0 0 -.60266 -19.183 70.781)" gradientUnits="userSpaceOnUse">
   <stop stop-color="#fcfcfc" offset="0"/>
   <stop stop-color="#c1c1c1" offset="1"/>
  </linearGradient>
 </defs>
 <path d="m6.5 1.8722c5.8015 0 21.021 0.00228 21.021 0.00228l13.979 14.352 3.6e-5 29.651h-35v-44.006z" fill="none" stroke="#000" stroke-opacity=".54902"/>
 <path d="m6.5 1.8942c5.8015 0 20.954 0.00228 20.954 0.00228l14.046 14.33 3.6e-5 29.673h-35v-44.006z" fill="url(#b)"/>
 <path d="m6.5 1.8942c5.8015 0 20.954 0.00228 20.954 0.00228l14.046 14.33 3.6e-5 29.673h-35v-44.006z" fill="url(#a)"/>
 <rect x="19.632" y="1.8722" width="21.868" height="24.125" fill="none"/>
 <path d="m29.349 14.212c-0.04524-3.4428 0.09264-9.2334-1.8427-12.276 0 0 12.641 12.709 13.994 14.29 0 0-2.3483-1.8776-12.152-2.0143z" fill="url(#c)"/>
 <path d="m11.095 38.336c0-0.46061 0.15903-0.84731 0.47705-1.1601 0.31804-0.31844 0.70707-0.47768 1.1671-0.47769 0.44865 1.2e-5 0.82916 0.15924 1.1415 0.47769 0.31803 0.31278 0.47705 0.69948 0.47705 1.1601 0 0.44927-0.15902 0.83312-0.47705 1.1516-0.31236 0.31278-0.69286 0.46917-1.1415 0.46916-0.46001 1e-5 -0.84904-0.15638-1.1671-0.46916-0.31802-0.31276-0.47705-0.69662-0.47705-1.1516m-0.09493-7.3963v2.7246c3.4803 0 6.307 2.8322 6.307 6.3193h2.7335c0-4.995-4.0553-9.0439-9.0405-9.0439zm0.0047-5.9617v3.0117c6.6079 0 11.973 5.3724 11.973 11.989h3.0221c2.2e-5 -8.2828-6.7235-15.001-14.995-15.001z" color="#000000" color-rendering="auto" fill="url(#d)" image-rendering="auto" shape-rendering="auto" solid-color="#000000" style="isolation:auto;mix-blend-mode:normal"/>
</svg>
