<svg width="48" height="48" viewBox="0 0 12.7 12.7" xmlns="http://www.w3.org/2000/svg"><defs><linearGradient id="a" x1="25.132" x2="25.132" y1=".985" y2="47.013" gradientTransform="matrix(.26458 0 0 .25299 0 -.137)" gradientUnits="userSpaceOnUse"><stop stop-color="#dadada" offset="0"/><stop stop-color="#fff" offset="1"/></linearGradient><linearGradient id="d" x1="91.308" x2="95.182" y1="98.192" y2="102.07" gradientTransform="matrix(.14955 0 0 -.15945 -5.075 18.727)" gradientUnits="userSpaceOnUse"><stop stop-color="#fcfcfc" offset="0"/><stop stop-color="#c1c1c1" offset="1"/></linearGradient><linearGradient id="c" x1="5.297" x2="5.194" y1="12.64" y2=".495" gradientUnits="userSpaceOnUse"><stop stop-color="gray" offset="0"/><stop stop-color="#999" stop-opacity=".43" offset="1"/></linearGradient><radialGradient id="b" cx="26.53" cy="23.566" r="17.5" gradientTransform="matrix(-.45778 -.0009 .00092 -.46802 23.104 11.548)" gradientUnits="userSpaceOnUse"><stop stop-opacity=".659" offset="0"/><stop stop-color="#cecece" stop-opacity="0" offset="1"/></radialGradient></defs><path d="m1.72.495 5.562.001 3.698 3.797v7.845H1.72V.495z" fill="none" stroke="#000" stroke-opacity=".549" stroke-width=".265"/><path d="M1.72.501h5.544l3.716 3.792v7.851H1.72V.501z" fill="url(#a)"/><g stroke-width=".265"><path d="M1.72.501h5.544l3.716 3.792v7.851H1.72V.501z" fill="url(#b)"/><path d="M5.33.502a4.146 4.146 0 0 1 .043.36A4.146 4.146 0 0 1 1.72 5.227v1.177c.033-.13.043-.318.07-.588.182-.024.363-.059.541-.104.259.535.352.725.566.639.245-.1.178-.312.107-.864.166-.068.328-.145.486-.231.402.45.544.608.727.465.208-.162.087-.348-.131-.854.147-.113.288-.235.421-.364.484.323.66.437.8.256.159-.206 0-.357-.329-.78.107-.138.206-.282.298-.431.577.165.781.223.86.005.087-.243-.108-.339-.544-.636.073-.174.136-.352.188-.533.598.02.81.024.832-.205.026-.258-.188-.303-.686-.486a4.77 4.77 0 0 0 .038-.567c.567-.11.771-.154.743-.38C6.69.6 6.601.541 6.44.502H5.33zm.766 3.772-.323.042a.054.054 0 0 0-.036.021.062.062 0 0 0-.01.04l.006.404a2.398 2.398 0 0 0-.668.28l-.276-.29a.056.056 0 0 0-.036-.021.053.053 0 0 0-.04.01l-.259.199a.054.054 0 0 0-.02.036.065.065 0 0 0 .01.04l.2.35a2.398 2.398 0 0 0-.435.574l-.38-.112a.054.054 0 0 0-.07.03l-.126.3a.055.055 0 0 0 0 .043.065.065 0 0 0 .03.03l.347.202a2.398 2.398 0 0 0-.093.652 2.398 2.398 0 0 0 .003.061l-.388.095a.053.053 0 0 0-.047.06l.042.323c.002.015.01.028.021.037.011.008.025.01.04.01l.405.002a2.398 2.398 0 0 0 .28.663l-.29.275a.054.054 0 0 0-.01.076l.199.259c.009.012.022.02.036.021.014.002.027-.003.04-.01l.349-.2a2.398 2.398 0 0 0 .574.435l-.11.38c-.006.013-.006.028 0 .041s.014.024.028.03l.301.125a.055.055 0 0 0 .042 0 .066.066 0 0 0 .03-.03l.202-.348a2.398 2.398 0 0 0 .651.093 2.398 2.398 0 0 0 .063-.002l.094.387c.002.015.01.028.02.036a.054.054 0 0 0 .04.011l.324-.042a.054.054 0 0 0 .037-.02.067.067 0 0 0 .01-.042l.002-.404a2.398 2.398 0 0 0 .646-.27l.294.278c.076.01.022.02.036.021a.054.054 0 0 0 .04-.01l.26-.199a.054.054 0 0 0 .02-.036.063.063 0 0 0-.01-.04l-.207-.344a2.398 2.398 0 0 0 .43-.562l.393.094c.071-.03.03.005.042 0a.053.053 0 0 0 .029-.03l.125-.3a.055.055 0 0 0 0-.042c-.005-.013-.016-.022-.03-.03L8.62 7.76a2.398 2.398 0 0 0 .093-.656 2.398 2.398 0 0 0-.001-.045l.387-.115c.046-.06.027-.01.036-.02a.053.053 0 0 0 .01-.04l-.042-.324a.053.053 0 0 0-.02-.036.063.063 0 0 0-.041-.01l-.403.007a2.398 2.398 0 0 0-.272-.652l.28-.295c.01-.076.019-.022.02-.036a.054.054 0 0 0-.01-.04l-.199-.259a.054.054 0 0 0-.035-.021.063.063 0 0 0-.04.01l-.346.208a2.398 2.398 0 0 0-.561-.429l.095-.395c-.03-.07.005-.029 0-.042s-.015-.023-.03-.03l-.301-.124a.053.053 0 0 0-.042 0 .063.063 0 0 0-.029.03l-.197.354a2.398 2.398 0 0 0-.657-.094 2.398 2.398 0 0 0-.043.002l-.115-.387c-.06-.047-.01-.028-.02-.036a.054.054 0 0 0-.04-.011zm.22.938a1.892 1.892 0 0 1 1.891 1.892 1.892 1.892 0 0 1-1.892 1.892 1.892 1.892 0 0 1-1.892-1.892 1.892 1.892 0 0 1 1.892-1.892zm4.664 2.259c-.213.074-.187.298-.2.822-.174.04-.346.09-.515.15-.312-.524-.421-.707-.629-.601-.238.122-.148.328-.027.887-.157.082-.31.173-.457.273-.459-.414-.617-.558-.785-.395-.19.184-.048.356.226.839a4.784 4.784 0 0 0-.375.389c-.545-.292-.733-.393-.857-.195-.14.226.04.358.427.766-.095.149-.18.302-.258.46-.543-.116-.75-.2-.868.036-.105.209.079.316.609.628-.054.171-.098.345-.132.521-.379.02-.598.015-.717.094h1.422c.054-.248.129-.507.235-.78.084-.218.183-.404.297-.55A4.146 4.146 0 0 1 10.474 9.1a1.82 1.82 0 0 1 .449-.138 4.146 4.146 0 0 1 .057-.012z" fill="url(#c)"/><path fill="none" d="M5.194.495h5.786v6.383H5.194z"/><path d="M7.765 3.76c-.012-.91.025-2.443-.487-3.248 0 0 3.344 3.363 3.702 3.781 0 0-.621-.497-3.215-.533z" fill="url(#d)"/></g></svg>