<svg width="48" height="48" version="1.1" xmlns="http://www.w3.org/2000/svg">
 <defs>
  <linearGradient id="b" x1="25.132" x2="25.132" y1=".98521" y2="47.013" gradientTransform="matrix(1 0 0 .95617 9.9862e-8 -.51792)" gradientUnits="userSpaceOnUse">
   <stop stop-color="#dadada" offset="0"/>
   <stop stop-color="#fff" offset="1"/>
  </linearGradient>
  <radialGradient id="a" cx="26.53" cy="23.566" r="17.5" gradientTransform="matrix(-1.7302 -.0033869 .0034626 -1.7689 87.322 43.647)" gradientUnits="userSpaceOnUse">
   <stop stop-opacity=".65926" offset="0"/>
   <stop stop-color="#cecece" stop-opacity="0" offset="1"/>
  </radialGradient>
  <linearGradient id="c" x1="91.308" x2="95.182" y1="98.192" y2="102.07" gradientTransform="matrix(.56521 0 0 -.60266 -19.183 70.781)" gradientUnits="userSpaceOnUse">
   <stop stop-color="#fcfcfc" offset="0"/>
   <stop stop-color="#c1c1c1" offset="1"/>
  </linearGradient>
 </defs>
 <path d="m6.5 1.8722c5.8015 0 21.021 0.00228 21.021 0.00228l13.979 14.352 3.6e-5 29.651h-35v-44.006z" fill="none" stroke="#000" stroke-opacity=".54902"/>
 <path d="m6.5 1.8942c5.8015 0 20.954 0.00228 20.954 0.00228l14.046 14.33 3.6e-5 29.673h-35v-44.006z" fill="url(#b)"/>
 <path d="m6.5 1.8942c5.8015 0 20.954 0.00228 20.954 0.00228l14.046 14.33 3.6e-5 29.673h-35v-44.006z" fill="url(#a)"/>
 <rect x="19.632" y="1.8722" width="21.868" height="24.125" fill="none"/>
 <path d="m29.349 14.212c-0.04524-3.4428 0.09264-9.2334-1.8427-12.276 0 0 12.641 12.709 13.994 14.29 0 0-2.3483-1.8776-12.152-2.0143z" fill="url(#c)"/>
 <g fill="#575757" aria-label="PERL">
  <path d="m14.254 35.786v2.7393h1.2402q0.68848 0 1.0645-0.35645 0.37598-0.35644 0.37598-1.0156 0-0.6543-0.37598-1.0107-0.37598-0.35644-1.0645-0.35644zm-0.98633-0.81055h2.2266q1.2256 0 1.8506 0.55664 0.62988 0.55176 0.62988 1.6211 0 1.0791-0.62988 1.6309-0.625 0.55176-1.8506 0.55176h-1.2402v2.9297h-0.98633z"/>
  <path d="m19.298 34.976h4.6094v0.83008h-3.623v2.1582h3.4717v0.83008h-3.4717v2.6416h3.7109v0.83008h-4.6973z"/>
  <path d="m29.073 38.848q0.31738 0.10742 0.61524 0.45898 0.30273 0.35156 0.60547 0.9668l1.001 1.9922h-1.0596l-0.93262-1.8701q-0.36133-0.73242-0.70312-0.97168-0.33691-0.23926-0.92285-0.23926h-1.0742v3.0811h-0.98633v-7.29h2.2266q1.25 0 1.8652 0.52246 0.61523 0.52246 0.61523 1.5771 0 0.68848-0.32226 1.1426-0.31738 0.4541-0.92774 0.62988zm-2.4707-3.0615v2.5879h1.2402q0.71289 0 1.0742-0.32715 0.36621-0.33203 0.36621-0.97168 0-0.63965-0.36621-0.96191-0.36133-0.32715-1.0742-0.32715z"/>
  <path d="m32.564 34.976h0.98633v6.46h3.5498v0.83008h-4.5361z"/>
 </g>
</svg>
