<?xml version="1.0" encoding="UTF-8"?>
<svg width="48" height="48" version="1.1" xmlns="http://www.w3.org/2000/svg" xmlns:cc="http://creativecommons.org/ns#" xmlns:dc="http://purl.org/dc/elements/1.1/" xmlns:rdf="http://www.w3.org/1999/02/22-rdf-syntax-ns#">
 <metadata>
  <rdf:RDF>
   <cc:Work rdf:about="">
    <dc:format>image/svg+xml</dc:format>
    <dc:type rdf:resource="http://purl.org/dc/dcmitype/StillImage"/>
    <dc:title/>
   </cc:Work>
  </rdf:RDF>
 </metadata>
 <defs>
  <linearGradient id="b" x1="25.132" x2="25.132" y1=".98521" y2="47.013" gradientTransform="matrix(1 0 0 .95617 9.9862e-8 -.51792)" gradientUnits="userSpaceOnUse">
   <stop stop-color="#dadada" offset="0"/>
   <stop stop-color="#fff" offset="1"/>
  </linearGradient>
  <radialGradient id="a" cx="26.53" cy="23.566" r="17.5" gradientTransform="matrix(-1.7302 -.0033869 .0034626 -1.7689 87.322 43.647)" gradientUnits="userSpaceOnUse">
   <stop stop-opacity=".65926" offset="0"/>
   <stop stop-color="#cecece" stop-opacity="0" offset="1"/>
  </radialGradient>
  <linearGradient id="c" x1="91.308" x2="95.182" y1="98.192" y2="102.07" gradientTransform="matrix(.56521 0 0 -.60266 -19.183 70.781)" gradientUnits="userSpaceOnUse">
   <stop stop-color="#fcfcfc" offset="0"/>
   <stop stop-color="#c1c1c1" offset="1"/>
  </linearGradient>
  <filter id="filter914" x="-.060074" y="-.059926" width="1.1201" height="1.1199" color-interpolation-filters="sRGB">
   <feGaussianBlur stdDeviation="0.70086342"/>
  </filter>
 </defs>
 <path d="m6.5 1.8722c5.8015 0 21.021 0.00228 21.021 0.00228l13.979 14.352 3.6e-5 29.651h-35v-44.006z" fill="none" stroke="#000" stroke-opacity=".54902"/>
 <path d="m6.5 1.8942c5.8015 0 20.954 0.00228 20.954 0.00228l14.046 14.33 3.6e-5 29.673h-35v-44.006z" fill="url(#b)"/>
 <path d="m23.971 10.942c-0.6643 0.05621-0.6612 0.61851-0.89937 1.9995a12.098 12.065 0 0 0-1.3386 0.18509c-0.58914-1.4219-0.79386-1.9178-1.3504-1.7297-0.63985 0.2163-0.4916 0.76617-0.39233 2.2054a12.098 12.065 0 0 0-1.2409 0.51225c-0.99365-1.2-1.3341-1.6176-1.8131-1.2722-0.54039 0.38967-0.25008 0.87062 0.25547 2.1754a12.098 12.065 0 0 0-1.0792 0.83289c-1.2522-0.92563-1.6841-1.248-2.0659-0.7977-0.4334 0.51098-0.02884 0.90692 0.78467 2.0672a12.098 12.065 0 0 0-0.81204 1.0532c-1.3124-0.48795-1.797-0.7726-2.1793-0.2268-0.33819 0.48271 0.08112 0.81815 1.2891 1.7909a12.098 12.065 0 0 0-0.52007 1.2513c-1.3807-0.13082-1.9211-0.27685-2.1481 0.34671-0.19968 0.54871 0.28771 0.76714 1.6762 1.3803a12.098 12.065 0 0 0-0.17205 1.3243c-1.3613 0.26358-1.921 0.2776-1.963 0.93978-0.036441 0.57512 0.48733 0.65334 1.9473 0.84462a12.098 12.065 0 0 0 0.19291 1.4077c-1.2508 0.54809-1.7886 0.68798-1.684 1.3386 0.09313 0.57946 0.6278 0.53034 2.1572 0.38842a12.098 12.065 0 0 0 0.53962 1.3021c-1.0664 0.82657-1.5495 1.0964-1.2904 1.6984 0.23292 0.5412 0.73896 0.35982 2.2002-0.15641a12.098 12.065 0 0 0 0.79119 1.0206c-0.80429 1.181-1.2068 1.5809-0.76512 2.0881 0.38523 0.44236 0.81311 0.11847 2.0347-0.80943a12.098 12.065 0 0 0 1.0819 0.8342c-0.48956 1.3628-0.78433 1.8508-0.2268 2.2341 0.48829 0.33567 0.81825-0.09004 1.7922-1.3217l-0.23723-0.14207a12.098 12.065 0 0 0 1.4207 0.6074c-0.09437 1.3994-0.23108 1.9458 0.40146 2.1572 0.54762 0.18306 0.75733-0.30389 1.3191-1.6723a12.098 12.065 0 0 0 1.3699 0.18248c0.25884 1.5482 0.34241 2.0801 0.93196 2.0216 0.66192-0.06561 0.65397-0.62611 0.8707-2.0034a12.098 12.065 0 0 0 1.3803-0.18118c0.56963 1.3878 0.77722 1.8786 1.3282 1.6945 0.63275-0.21151 0.49583-0.75807 0.40146-2.1585a12.098 12.065 0 0 0 1.2565-0.50964c0.94586 1.1961 1.2801 1.614 1.7622 1.2826 0.54738-0.3763 0.27008-0.86339-0.20334-2.1702a12.098 12.065 0 0 0 1.1157-0.85375c1.1701 0.88854 1.5979 1.2006 1.976 0.76642 0.4306-0.49447 0.05238-0.89891-0.71168-2.0125a12.098 12.065 0 0 0 0.81595-1.0427c1.4287 0.50471 1.933 0.68061 2.1637 0.14468 0.25757-0.59849-0.21897-0.87025-1.2722-1.6853a12.098 12.065 0 0 0 0.55266-1.3126c1.5028 0.13938 2.0348 0.18404 2.1272-0.39103 0.10356-0.64435-0.42792-0.78936-1.6528-1.3243a12.098 12.065 0 0 0 0.18118-1.4247c1.4436-0.18922 1.964-0.26974 1.9278-0.84202-0.0415-0.6549-0.59523-0.67669-1.9239-0.93196a12.098 12.065 0 0 0-0.18509-1.3438c1.3646-0.60274 1.8484-0.82399 1.6501-1.3686-0.22508-0.61847-0.76241-0.48056-2.1181-0.35062a12.098 12.065 0 0 0-0.52528-1.2695c1.1841-0.95356 1.5996-1.2902 1.2643-1.7688-0.38076-0.5435-0.86519-0.26256-2.165 0.22158a12.098 12.065 0 0 0-0.8355-1.0792c0.87806-1.2409 1.1845-1.6778 0.73123-2.0464-0.50933-0.41412-0.90028-0.02237-1.9903 0.78076a12.098 12.065 0 0 0-1.104-0.84463c0.58111-1.4185 0.78464-1.9148 0.25808-2.1728-0.60609-0.29702-0.88813 0.19658-1.83 1.2865a12.098 12.065 0 0 0-1.25-0.51355c0.1302-1.552 0.17708-2.0882-0.40667-2.1767-0.65469-0.09931-0.78716 0.4426-1.3308 1.7114a12.098 12.065 0 0 0-1.3699-0.17075c-0.23162-1.5197-0.31174-2.0503-0.89676-2.0008zm-0.48227 3.7083c1.3392-0.02243 2.9283 0.21736 3.445 0.44186 2.2485 0.68541 4.3281 1.9442 6.0988 4.8762 0.32975 0.54604 0.56719 1.0764 0.67388 1.5602 0.10591 0.50877 0.06534 1.1013-0.26329 1.568-0.28162 0.37114-0.63037 0.72049-1.117 0.76512-1.5146 0.1419-3.5682 0.06185-5.189 0.04432-0.27271-3e-3 -0.53289-0.11334-0.61131-0.19942-0.48016-0.30261-0.80317-0.96145-1.3386-1.147-0.85487-0.39606-1.2006-0.06386-1.6827-0.65693-0.8882-1.4249-1.7476-2.8879-2.5365-4.3417-0.57155-0.99492-0.19536-1.9907 0.66606-2.5274 0.33704-0.26145 1.0513-0.36977 1.8548-0.38321zm-5.9697 3.0683c0.06975-0.0022 0.14017-6.44e-4 0.21116 0.0065 0.46157 0.06324 0.93837 0.19612 1.2161 0.59828 0.86695 1.25 1.8047 3.0789 2.5847 4.4995 0.13126 0.23906 0.16297 0.52029 0.12643 0.63086-0.02803 0.56686-0.44391 1.1707-0.3428 1.7284 0.07446 0.93922 0.53428 1.0785 0.25417 1.7896-0.80563 1.4732-1.6595 2.9397-2.5391 4.3404-0.58638 0.98626-1.6396 1.1467-2.53 0.65954-1.0486-0.44097-2.4569-3.7502-2.5495-4.6467-0.50626-2.2954-0.4291-4.7243 1.2565-7.7059 0.31392-0.55529 0.66049-1.0226 1.0297-1.353 0.34241-0.29923 0.79438-0.53214 1.2826-0.54744zm6.4807 6.323a0.93258 0.93258 0 0 1 0.93196 0.93196 0.93258 0.93258 0 0 1-0.93196 0.93326 0.93258 0.93258 0 0 1-0.93326-0.93326 0.93258 0.93258 0 0 1 0.93326-0.93196zm5.5018 2.0294c0.84088 0.0044 1.6787 0.02145 2.5052 0.05214 1.1473 0.01468 1.8133 0.84534 1.8365 1.86 0.14239 1.1286-2.019 4.0036-2.7489 4.532-1.7348 1.5861-3.8781 2.7336-7.3031 2.7646-0.63787 0.0058-1.2146-0.06051-1.6853-0.21507-0.49183-0.16791-0.98175-0.50269-1.2161-1.0232-0.17602-0.43135-0.29934-0.91007-0.08994-1.3517 0.64907-1.3758 1.764-3.1019 2.6043-4.4877 0.1414-0.23321 0.36956-0.4013 0.48357-0.42492 0.50492-0.25917 1.236-0.20325 1.6684-0.5696 0.77615-0.5341 0.6661-1.0001 1.422-1.1131 0.8393-0.01945 1.6826-0.02782 2.5234-0.02346z" filter="url(#filter914)" opacity=".15" stroke-width=".31032"/>
 <path d="m23.971 10.942c-0.6643 0.05621-0.6612 0.61851-0.89937 1.9995a12.098 12.065 0 0 0-1.3386 0.18509c-0.58914-1.4219-0.79386-1.9178-1.3504-1.7297-0.63985 0.2163-0.4916 0.76617-0.39233 2.2054a12.098 12.065 0 0 0-1.2409 0.51225c-0.99365-1.2-1.3341-1.6176-1.8131-1.2722-0.54039 0.38967-0.25008 0.87062 0.25547 2.1754a12.098 12.065 0 0 0-1.0792 0.83289c-1.2522-0.92563-1.6841-1.248-2.0659-0.7977-0.4334 0.51098-0.02884 0.90692 0.78467 2.0672a12.098 12.065 0 0 0-0.81204 1.0532c-1.3124-0.48795-1.797-0.7726-2.1793-0.2268-0.33819 0.48271 0.08112 0.81815 1.2891 1.7909a12.098 12.065 0 0 0-0.52007 1.2513c-1.3807-0.13082-1.9211-0.27685-2.1481 0.34671-0.19968 0.54871 0.28771 0.76714 1.6762 1.3803a12.098 12.065 0 0 0-0.17205 1.3243c-1.3613 0.26358-1.921 0.2776-1.963 0.93978-0.036441 0.57512 0.48733 0.65334 1.9473 0.84462a12.098 12.065 0 0 0 0.19291 1.4077c-1.2508 0.54809-1.7886 0.68798-1.684 1.3386 0.09313 0.57946 0.6278 0.53034 2.1572 0.38842a12.098 12.065 0 0 0 0.53962 1.3021c-1.0664 0.82657-1.5495 1.0964-1.2904 1.6984 0.23292 0.5412 0.73896 0.35982 2.2002-0.15641a12.098 12.065 0 0 0 0.79119 1.0206c-0.80429 1.181-1.2068 1.5809-0.76512 2.0881 0.38523 0.44236 0.81311 0.11847 2.0347-0.80943a12.098 12.065 0 0 0 1.0819 0.8342c-0.48956 1.3628-0.78433 1.8508-0.2268 2.2341 0.48829 0.33567 0.81825-0.09004 1.7922-1.3217l-0.23723-0.14207a12.098 12.065 0 0 0 1.4207 0.6074c-0.09437 1.3994-0.23108 1.9458 0.40146 2.1572 0.54762 0.18306 0.75733-0.30389 1.3191-1.6723a12.098 12.065 0 0 0 1.3699 0.18248c0.25884 1.5482 0.34241 2.0801 0.93196 2.0216 0.66192-0.06561 0.65397-0.62611 0.8707-2.0034a12.098 12.065 0 0 0 1.3803-0.18118c0.56963 1.3878 0.77722 1.8786 1.3282 1.6945 0.63275-0.21151 0.49583-0.75807 0.40146-2.1585a12.098 12.065 0 0 0 1.2565-0.50964c0.94586 1.1961 1.2801 1.614 1.7622 1.2826 0.54738-0.3763 0.27008-0.86339-0.20334-2.1702a12.098 12.065 0 0 0 1.1157-0.85375c1.1701 0.88854 1.5979 1.2006 1.976 0.76642 0.4306-0.49447 0.05238-0.89891-0.71168-2.0125a12.098 12.065 0 0 0 0.81595-1.0427c1.4287 0.50471 1.933 0.68061 2.1637 0.14468 0.25757-0.59849-0.21897-0.87025-1.2722-1.6853a12.098 12.065 0 0 0 0.55266-1.3126c1.5028 0.13938 2.0348 0.18404 2.1272-0.39103 0.10356-0.64435-0.42792-0.78936-1.6528-1.3243a12.098 12.065 0 0 0 0.18118-1.4247c1.4436-0.18922 1.964-0.26974 1.9278-0.84202-0.0415-0.6549-0.59523-0.67669-1.9239-0.93196a12.098 12.065 0 0 0-0.18509-1.3438c1.3646-0.60274 1.8484-0.82399 1.6501-1.3686-0.22508-0.61847-0.76241-0.48056-2.1181-0.35062a12.098 12.065 0 0 0-0.52528-1.2695c1.1841-0.95356 1.5996-1.2902 1.2643-1.7688-0.38076-0.5435-0.86519-0.26256-2.165 0.22158a12.098 12.065 0 0 0-0.8355-1.0792c0.87806-1.2409 1.1845-1.6778 0.73123-2.0464-0.50933-0.41412-0.90028-0.02237-1.9903 0.78076a12.098 12.065 0 0 0-1.104-0.84463c0.58111-1.4185 0.78464-1.9148 0.25808-2.1728-0.60609-0.29702-0.88813 0.19658-1.83 1.2865a12.098 12.065 0 0 0-1.25-0.51355c0.1302-1.552 0.17708-2.0882-0.40667-2.1767-0.65469-0.09931-0.78716 0.4426-1.3308 1.7114a12.098 12.065 0 0 0-1.3699-0.17075c-0.23162-1.5197-0.31174-2.0503-0.89676-2.0008zm-0.48227 3.7083c1.3392-0.02243 2.9283 0.21736 3.445 0.44186 2.2485 0.68541 4.3281 1.9442 6.0988 4.8762 0.32975 0.54604 0.56719 1.0764 0.67388 1.5602 0.10591 0.50877 0.06534 1.1013-0.26329 1.568-0.28162 0.37114-0.63037 0.72049-1.117 0.76512-1.5146 0.1419-3.5682 0.06185-5.189 0.04432-0.27271-3e-3 -0.53289-0.11334-0.61131-0.19942-0.48016-0.30261-0.80317-0.96145-1.3386-1.147-0.85487-0.39606-1.2006-0.06386-1.6827-0.65693-0.8882-1.4249-1.7476-2.8879-2.5365-4.3417-0.57155-0.99492-0.19536-1.9907 0.66606-2.5274 0.33704-0.26145 1.0513-0.36977 1.8548-0.38321zm-5.9697 3.0683c0.06975-0.0022 0.14017-6.44e-4 0.21116 0.0065 0.46157 0.06324 0.93837 0.19612 1.2161 0.59828 0.86695 1.25 1.8047 3.0789 2.5847 4.4995 0.13126 0.23906 0.16297 0.52029 0.12643 0.63086-0.02803 0.56686-0.44391 1.1707-0.3428 1.7284 0.07446 0.93922 0.53428 1.0785 0.25417 1.7896-0.80563 1.4732-1.6595 2.9397-2.5391 4.3404-0.58638 0.98626-1.6396 1.1467-2.53 0.65954-1.0486-0.44097-2.4569-3.7502-2.5495-4.6467-0.50626-2.2954-0.4291-4.7243 1.2565-7.7059 0.31392-0.55529 0.66049-1.0226 1.0297-1.353 0.34241-0.29923 0.79438-0.53214 1.2826-0.54744zm6.4807 6.323a0.93258 0.93258 0 0 1 0.93196 0.93196 0.93258 0.93258 0 0 1-0.93196 0.93326 0.93258 0.93258 0 0 1-0.93326-0.93326 0.93258 0.93258 0 0 1 0.93326-0.93196zm5.5018 2.0294c0.84088 0.0044 1.6787 0.02145 2.5052 0.05214 1.1473 0.01468 1.8133 0.84534 1.8365 1.86 0.14239 1.1286-2.019 4.0036-2.7489 4.532-1.7348 1.5861-3.8781 2.7336-7.3031 2.7646-0.63787 0.0058-1.2146-0.06051-1.6853-0.21507-0.49183-0.16791-0.98175-0.50269-1.2161-1.0232-0.17602-0.43135-0.29934-0.91007-0.08994-1.3517 0.64907-1.3758 1.764-3.1019 2.6043-4.4877 0.1414-0.23321 0.36956-0.4013 0.48357-0.42492 0.50492-0.25917 1.236-0.20325 1.6684-0.5696 0.77615-0.5341 0.6661-1.0001 1.422-1.1131 0.8393-0.01945 1.6826-0.02782 2.5234-0.02346z" fill="#666" stroke-width=".31032"/>
 <path d="m6.5 1.8942c5.8015 0 20.954 0.00228 20.954 0.00228l14.046 14.33 3.6e-5 29.673h-35v-44.006z" fill="url(#a)"/>
 <rect x="19.632" y="1.8722" width="21.868" height="24.125" fill="none"/>
 <path d="m29.349 14.212c-0.04524-3.4428 0.09264-9.2334-1.8427-12.276 0 0 12.641 12.709 13.994 14.29 0 0-2.3483-1.8776-12.152-2.0143z" fill="url(#c)"/>
</svg>
