<svg width="48" height="48" xmlns="http://www.w3.org/2000/svg" xmlns:xlink="http://www.w3.org/1999/xlink"><defs><linearGradient id="b"><stop stop-color="#f44f76" offset="0"/><stop stop-color="#a77bc8" offset=".5"/><stop stop-color="#5cd5fa" offset="1"/></linearGradient><linearGradient id="a" x1="8.983" x2="87.017" y1="912.36" y2="912.36" gradientTransform="translate(864.35 -960.36)" gradientUnits="userSpaceOnUse"><stop stop-color="#fff" offset="0"/><stop stop-color="#4e4e4e" offset=".5"/><stop offset="1"/></linearGradient><linearGradient id="d" x1="6" x2="90" y1="1004.4" y2="1004.4" gradientUnits="userSpaceOnUse" xlink:href="#b"/><linearGradient id="g" x1="26.383" x2="67.323" y1="1003.1" y2="1003.1" gradientUnits="userSpaceOnUse" xlink:href="#b"/><linearGradient id="c" x1="25.132" x2="25.132" y1=".985" y2="47.013" gradientTransform="matrix(1 0 0 .95617 0 -.518)" gradientUnits="userSpaceOnUse"><stop stop-color="#dadada" offset="0"/><stop stop-color="#fff" offset="1"/></linearGradient><linearGradient id="i" x1="91.308" x2="95.182" y1="98.192" y2="102.07" gradientTransform="matrix(.56521 0 0 -.60266 -19.183 70.781)" gradientUnits="userSpaceOnUse"><stop stop-color="#fcfcfc" offset="0"/><stop stop-color="#c1c1c1" offset="1"/></linearGradient><radialGradient id="e" cx="46.286" cy="1004.5" r="38" gradientTransform="matrix(1.0152 0 0 1.3574 1.655 -355.69)" gradientUnits="userSpaceOnUse"><stop stop-color="#fff" offset="0"/><stop stop-color="#fff" offset=".616"/><stop stop-color="#fff" offset=".653"/><stop stop-color="#fff" offset="1"/></radialGradient><radialGradient id="h" cx="26.53" cy="23.566" r="17.5" gradientTransform="matrix(-1.7302 -.00339 .00346 -1.7689 87.322 43.647)" gradientUnits="userSpaceOnUse"><stop stop-opacity=".659" offset="0"/><stop stop-color="#cecece" stop-opacity="0" offset="1"/></radialGradient><mask id="f" maskUnits="userSpaceOnUse"><rect transform="rotate(90)" x="873.33" y="-87.017" width="78.035" height="78.035" rx="39.017" ry="39.017" fill="url(#a)"/></mask></defs><path d="m6.5 1.872 21.021.002L41.5 16.226v29.651h-35V1.871z" fill="none" stroke="#000" stroke-opacity=".549"/><path d="m6.5 1.894 20.954.002L41.5 16.226V45.9h-35V1.893z" fill="url(#c)"/><g transform="matrix(.27841 0 0 .27799 10.636 -260.76)"><g transform="matrix(.94271 0 0 .94435 2.75 57.29)" fill="none" stroke="#000"><rect x="6" y="962.36" width="84" height="84" rx="42" ry="42" opacity=".03" stroke-width="12"/><rect x="6" y="962.36" width="84" height="84" rx="42" ry="42" opacity=".03" stroke-width="11"/><rect x="6" y="962.36" width="84" height="84" rx="42" ry="42" opacity=".03" stroke-width="10"/><rect x="6" y="962.36" width="84" height="84" rx="42" ry="42" opacity=".03" stroke-width="9"/><rect x="6" y="962.36" width="84" height="84" rx="42" ry="42" opacity=".03" stroke-width="8"/><rect x="6" y="962.36" width="84" height="84" rx="42" ry="42" opacity=".03" stroke-width="7"/><rect x="6" y="962.36" width="84" height="84" rx="42" ry="42" opacity=".03" stroke-width="6"/><rect x="6" y="962.36" width="84" height="84" rx="42" ry="42" opacity=".03" stroke-width="5"/><rect x="6" y="962.36" width="84" height="84" rx="42" ry="42" opacity=".03" stroke-width="4"/><rect x="6" y="962.36" width="84" height="84" rx="42" ry="42" opacity=".03" stroke-width="3"/><rect x="6" y="962.36" width="84" height="84" rx="42" ry="42" opacity=".03" stroke-width="2"/><rect x="6" y="962.36" width="84" height="84" rx="42" ry="42" opacity=".03"/></g><rect x="6" y="962.36" width="84" height="84" rx="42" ry="42" fill="url(#d)"/><rect x="8.983" y="965.34" width="78.035" height="78.035" rx="39.017" ry="39.017" fill="url(#e)"/><rect transform="translate(0 92)" x="8.983" y="873.34" width="78.035" height="78.035" rx="39.017" ry="39.017" fill="#f9f9f9" mask="url(#f)" opacity=".507"/><path d="m65.353 977.87-23.233 6.015c-1.745.468-3.152 2.331-3.152 4.14v28.696c-1.77-.928-4.044-1.304-6.4-.69-4.253 1.106-6.918 4.684-6.006 7.987.911 3.304 5.103 5.15 9.355 4.042 3.393-.882 5.732-3.38 6.105-6.015l.098-27.116 22.051-5.916v21.397c-1.77-.928-4.04-1.304-6.397-.69-4.253 1.106-6.918 4.684-6.006 7.987.911 3.304 5.1 5.15 9.352 4.043 3.393-.883 5.732-3.382 6.105-6.016l.098-35.299c0-1.357-.838-2.374-1.97-2.565z" color="#bebebe" fill="url(#g)"/></g><path d="m6.5 1.894 20.954.002L41.5 16.226V45.9h-35V1.893z" fill="url(#h)"/><path fill="none" d="M19.632 1.872H41.5v24.125H19.632z"/><path d="M29.349 14.212c-.045-3.443.093-9.233-1.843-12.276 0 0 12.641 12.709 13.994 14.29 0 0-2.348-1.878-12.152-2.014z" fill="url(#i)"/><g fill="#575757" aria-label="APE"><path d="m18.161 35.947-1.338 3.628h2.68zm-.557-.972h1.119l2.778 7.29h-1.026l-.664-1.87h-3.286l-.664 1.87h-1.04zM23.552 35.786v2.74h1.24q.689 0 1.065-.357t.376-1.016q0-.654-.376-1.01-.376-.357-1.065-.357zm-.986-.81h2.226q1.226 0 1.85.556.63.552.63 1.621 0 1.08-.63 1.631-.624.552-1.85.552h-1.24v2.93h-.986zM28.595 34.976h4.61v.83H29.58v2.158h3.472v.83h-3.472v2.642h3.711v.83h-4.697z"/></g></svg>