<svg width="48" height="48" version="1.1" xmlns="http://www.w3.org/2000/svg" xmlns:xlink="http://www.w3.org/1999/xlink">
 <defs>
  <linearGradient id="d">
   <stop stop-opacity="0" offset="0"/>
   <stop stop-opacity=".64314" offset=".25"/>
   <stop stop-opacity=".70588" offset=".5"/>
   <stop stop-opacity=".64314" offset=".75"/>
   <stop stop-opacity="0" offset="1"/>
  </linearGradient>
  <linearGradient id="k" x1="24" x2="24" y1="6.1816" y2="30.703" gradientTransform="matrix(.66139 0 0 .66139 8.1274 6.261)" gradientUnits="userSpaceOnUse" xlink:href="#d"/>
  <linearGradient id="j" x1="24" x2="24" y1="8.0025" y2="28.851" gradientTransform="matrix(.98113 0 0 .98113 .44837 .35333)" gradientUnits="userSpaceOnUse" xlink:href="#d"/>
  <radialGradient id="g" cx="46.617" cy="1023.5" r="25.322" gradientTransform="matrix(-3.1794e-7 .35613 -.35877 -3.1477e-7 390.9 -.85284)" gradientUnits="userSpaceOnUse" xlink:href="#e"/>
  <linearGradient id="e">
   <stop stop-color="#bcc5d5" offset="0"/>
   <stop stop-color="#94a5b9" offset=".28398"/>
   <stop stop-color="#69758a" offset=".51511"/>
   <stop stop-color="#282825" offset="1"/>
  </linearGradient>
  <radialGradient id="h" cx="-498.85" cy="944.67" r="11.015" gradientTransform="matrix(8.4404e-7 .97035 -.8612 0 836.94 497.38)" gradientUnits="userSpaceOnUse">
   <stop stop-color="#bcc5d5" offset="0"/>
   <stop stop-color="#6e78a9" offset=".51511"/>
   <stop stop-color="#232a30" offset="1"/>
  </radialGradient>
  <linearGradient id="i" x1="301.06" x2="301.06" y1="92.4" y2="-52.842" gradientUnits="userSpaceOnUse">
   <stop stop-color="#0beafa" offset="0"/>
   <stop stop-color="#798eff" stop-opacity="0" offset="1"/>
  </linearGradient>
  <filter id="m">
   <feGaussianBlur stdDeviation="3.2629835"/>
  </filter>
  <linearGradient id="l" x1="305.99" x2="305.99" y1="9.0115" y2="116.17" gradientTransform="matrix(.06932 0 0 .06932 2.6981 14.065)" gradientUnits="userSpaceOnUse">
   <stop stop-color="#1b00bc" offset="0"/>
   <stop stop-color="#109cd8" offset="1"/>
  </linearGradient>
  <radialGradient id="f" cx="233.65" cy="90.547" r="54.818" gradientTransform="matrix(0 .16524 -.16499 0 38.593 -22.868)" gradientUnits="userSpaceOnUse" xlink:href="#e"/>
  <linearGradient id="b" x1="25.132" x2="25.132" y1=".98521" y2="47.013" gradientTransform="matrix(1 0 0 .95617 9.9862e-8 -.51792)" gradientUnits="userSpaceOnUse">
   <stop stop-color="#dadada" offset="0"/>
   <stop stop-color="#fff" offset="1"/>
  </linearGradient>
  <radialGradient id="a" cx="26.53" cy="23.566" r="17.5" gradientTransform="matrix(-1.7302 -.0033869 .0034626 -1.7689 87.322 43.647)" gradientUnits="userSpaceOnUse">
   <stop stop-opacity=".65926" offset="0"/>
   <stop stop-color="#cecece" stop-opacity="0" offset="1"/>
  </radialGradient>
  <linearGradient id="c" x1="91.308" x2="95.182" y1="98.192" y2="102.07" gradientTransform="matrix(.56521 0 0 -.60266 -19.183 70.781)" gradientUnits="userSpaceOnUse">
   <stop stop-color="#fcfcfc" offset="0"/>
   <stop stop-color="#c1c1c1" offset="1"/>
  </linearGradient>
 </defs>
 <path d="m6.5 1.8722c5.8015 0 21.021 0.00228 21.021 0.00228l13.979 14.352 3.6e-5 29.651h-35v-44.006z" fill="none" stroke="#000" stroke-opacity=".54902"/>
 <path d="m6.5 1.8942c5.8015 0 20.954 0.00228 20.954 0.00228l14.046 14.33 3.6e-5 29.673h-35v-44.006z" fill="url(#b)"/>
 <ellipse cx="23.68" cy="18.411" rx="5.961" ry="5.9612" fill="url(#f)"/>
 <path d="m24.001 8.2605c-5.6502 0-10.237 4.5651-10.237 10.215 0 5.6502 4.5864 10.237 10.237 10.237 5.6502 0 10.237-4.5864 10.237-10.237 1e-6 -5.6502-4.5864-10.215-10.237-10.215zm0 2.1025c4.4838 0 8.1128 3.6289 8.1128 8.1128 0 4.4838-3.6289 8.134-8.1128 8.134-4.4838-2e-6 -8.1128-3.6502-8.1128-8.134s3.6289-8.1128 8.1128-8.1128z" fill="url(#k)" opacity=".5"/>
 <ellipse cx="23.705" cy="18.411" rx="3.8" ry="3.8" fill="url(#l)"/>
 <path d="m27.061 3.6139c-0.98818-0.20154-2.0191-0.28215-3.0668-0.28215-8.3816 1e-7 -15.196 6.7504-15.196 15.132 9e-7 8.3816 6.8176 15.182 15.199 15.182 8.3816 0 15.174-6.788 15.174-15.17-2e-6 -7.3339-5.1934-13.452-12.111-14.863zm-0.5005 2.3418c5.8263 1.1883 10.231 6.3407 10.231 12.518 0 7.0597-5.7319 12.793-12.792 12.793-7.0597-1e-6 -12.793-5.7319-12.793-12.792-1e-6 -7.0597 5.7239-12.763 12.784-12.763 0.88247 8e-7 1.7369 0.074269 2.5692 0.24403z" fill="url(#j)" opacity=".5"/>
 <circle transform="matrix(.064044 0 0 .064046 4.2721 14.396)" cx="303.04" cy="62.699" r="54.818" fill="url(#i)" filter="url(#m)"/>
 <path d="m23.681 17.204c-0.66619 0-1.208 0.54186-1.208 1.2081-9e-3 0.27845 0.0855 0.55115 0.2772 0.7666 0.01394 0.01568 0.02605 0.03289 0.04107 0.04792l0.01026 0.01027c0.02111 0.02243 0.04226 0.04425 0.06502 0.06502l5.1162 5.1197h1.7077l-0.01368-1.718-5.0648-5.0616c-0.01227-0.01487-0.02811-0.02681-0.04106-0.04106l-0.03765-0.0445c-0.01219-0.01212-0.02495-0.02256-0.03765-0.03422-0.01502-0.01501-0.03224-0.02712-0.04791-0.04107-0.21543-0.1917-0.48814-0.28621-0.76657-0.2772z" fill="url(#h)"/>
 <path d="m23.681 17.204c-0.66619 0-1.208 0.54186-1.208 1.2081-9e-3 0.27845 0.0855 0.55115 0.2772 0.7666 0.01394 0.01568 0.02605 0.03289 0.04107 0.04792l0.01026 0.01027c0.02111 0.02243 0.04226 0.04425 0.06502 0.06502l5.1162 5.1197h1.7077l-0.01368-1.718-5.0648-5.0616c-0.01227-0.01487-0.02811-0.02681-0.04106-0.04106l-0.03765-0.0445c-0.01219-0.01212-0.02495-0.02256-0.03765-0.03422-0.01502-0.01501-0.03224-0.02712-0.04791-0.04107-0.21543-0.1917-0.48814-0.28621-0.76657-0.2772z" fill="url(#g)"/>
 <path d="m6.5 1.8942c5.8015 0 20.954 0.00228 20.954 0.00228l14.046 14.33 3.6e-5 29.673h-35v-44.006z" fill="url(#a)"/>
 <rect x="19.632" y="1.8722" width="21.868" height="24.125" fill="none"/>
 <path d="m29.349 14.212c-0.04524-3.4428 0.09264-9.2334-1.8427-12.276 0 0 12.641 12.709 13.994 14.29 0 0-2.3483-1.8776-12.152-2.0143z" fill="url(#c)"/>
 <g fill="#575757" aria-label="GSM">
  <path d="m19.547 41.226v-1.958h-1.6113v-0.81055h2.5879v3.1299q-0.57129 0.40527-1.2598 0.61523-0.68848 0.20508-1.4697 0.20508-1.709 0-2.6758-0.99609-0.96191-1.001-0.96191-2.7832 0-1.7871 0.96191-2.7832 0.9668-1.001 2.6758-1.001 0.71289 0 1.3525 0.17578 0.64453 0.17578 1.1865 0.51758v1.0498q-0.54688-0.46387-1.1621-0.69824-0.61523-0.23438-1.2939-0.23438-1.3379 0-2.0117 0.74707-0.66894 0.74707-0.66894 2.2266 0 1.4746 0.66894 2.2217 0.67383 0.74707 2.0117 0.74707 0.52246 0 0.93262-0.08789 0.41016-0.09277 0.7373-0.2832z"/>
  <path d="m26.695 35.215v0.96191q-0.56152-0.26856-1.0596-0.40039t-0.96191-0.13184q-0.80566 0-1.2451 0.3125-0.43457 0.3125-0.43457 0.88867 0 0.4834 0.28809 0.73242 0.29297 0.24414 1.1035 0.39551l0.5957 0.12207q1.1035 0.20996 1.626 0.74219 0.52734 0.52734 0.52734 1.416 0 1.0596-0.71289 1.6064-0.70801 0.54688-2.0801 0.54688-0.51758 0-1.1035-0.11719-0.58105-0.11719-1.2061-0.34668v-1.0156q0.60058 0.33691 1.1768 0.50781 0.57617 0.1709 1.1328 0.1709 0.84473 0 1.3037-0.33203 0.45898-0.33203 0.45898-0.94727 0-0.53711-0.33203-0.83984-0.32715-0.30274-1.0791-0.4541l-0.60059-0.11719q-1.1035-0.21973-1.5967-0.68848t-0.49316-1.3037q0-0.9668 0.67871-1.5234 0.68359-0.55664 1.8799-0.55664 0.5127 0 1.0449 0.09277 0.53223 0.09277 1.0889 0.27832z"/>
  <path d="m28.673 34.976h1.4697l1.8604 4.9609 1.8701-4.9609h1.4697v7.29h-0.96191v-6.4014l-1.8799 5h-0.99121l-1.8799-5v6.4014h-0.95703z"/>
 </g>
</svg>
