<svg xmlns="http://www.w3.org/2000/svg" xmlns:xlink="http://www.w3.org/1999/xlink" version="1.0" width="48" height="48"><defs><linearGradient id="a"><stop style="stop-color:#000;stop-opacity:0" offset="0"/><stop style="stop-color:#000;stop-opacity:1" offset=".5"/><stop style="stop-color:#000;stop-opacity:0" offset="1"/></linearGradient><linearGradient id="b"><stop style="stop-color:#000;stop-opacity:1" offset="0"/><stop style="stop-color:#000;stop-opacity:0" offset="1"/></linearGradient><linearGradient id="c"><stop style="stop-color:#646464;stop-opacity:1" offset="0"/><stop style="stop-color:#9b9b9b;stop-opacity:1" offset="1"/></linearGradient><linearGradient id="d"><stop style="stop-color:#fff;stop-opacity:1" offset="0"/><stop style="stop-color:#c8c8c8;stop-opacity:1" offset="1"/></linearGradient><linearGradient id="e"><stop style="stop-color:#fff;stop-opacity:1" offset="0"/><stop style="stop-color:#fff;stop-opacity:0" offset="1"/></linearGradient><linearGradient x1="25.058" y1="47.028" x2="25.058" y2="39.999" id="h" xlink:href="#a" gradientUnits="userSpaceOnUse"/><linearGradient x1="25.058" y1="47.028" x2="25.058" y2="39.999" id="k" xlink:href="#a" gradientUnits="userSpaceOnUse"/><radialGradient cx="4.993" cy="43.5" r="2.5" fx="4.993" fy="43.5" id="f" xlink:href="#b" gradientUnits="userSpaceOnUse" gradientTransform="matrix(2.00378 0 0 1.4 27.988 -17.4)"/><radialGradient cx="4.993" cy="43.5" r="2.5" fx="4.993" fy="43.5" id="g" xlink:href="#b" gradientUnits="userSpaceOnUse" gradientTransform="matrix(2.00378 0 0 1.4 -20.012 -104.4)"/><radialGradient cx="4.993" cy="43.5" r="2.5" fx="4.993" fy="43.5" id="i" xlink:href="#b" gradientUnits="userSpaceOnUse" gradientTransform="matrix(2.00378 0 0 1.4 27.988 -17.4)"/><radialGradient cx="4.993" cy="43.5" r="2.5" fx="4.993" fy="43.5" id="j" xlink:href="#b" gradientUnits="userSpaceOnUse" gradientTransform="matrix(2.00378 0 0 1.4 -20.012 -104.4)"/><radialGradient cx="7.44" cy="15.377" r="20" fx="7.44" fy="15.377" id="l" xlink:href="#d" gradientUnits="userSpaceOnUse" gradientTransform="matrix(0 2.02454 -2.92042 0 58.192 -1.457)"/></defs><g style="opacity:.3"><path style="fill:url(#f);fill-opacity:1;stroke:none" d="M38 40h5v7h-5z" transform="matrix(.42105 0 0 .57143 18.895 19.143)"/><path transform="matrix(-.42105 0 0 -.57143 18.895 19.143)" style="fill:url(#g);fill-opacity:1;stroke:none" d="M-10-47h5v7h-5z"/><path style="fill:url(#h);fill-opacity:1;stroke:none" d="M10 40h28v7H10z" transform="matrix(.42105 0 0 .57143 18.895 19.143)"/></g><g style="opacity:.3"><path style="fill:url(#i);fill-opacity:1;stroke:none" d="M38 40h5v7h-5z" transform="matrix(.42105 0 0 .57143 1.895 19.143)"/><path transform="matrix(-.42105 0 0 -.57143 1.895 19.143)" style="fill:url(#j);fill-opacity:1;stroke:none" d="M-10-47h5v7h-5z"/><path style="fill:url(#k);fill-opacity:1;stroke:none" d="M10 40h28v7H10z" transform="matrix(.42105 0 0 .57143 1.895 19.143)"/></g><path d="M21 6.5a4.502 4.502 0 0 0-4.5 4.5c0 1.552.803 2.91 2 3.719v.781h-10c-1.108 0-2 .892-2 2v9.719C7.325 26.184 8.575 25.5 10 25.5c2.484 0 4.5 2.016 4.5 4.5s-2.016 4.5-4.5 4.5c-1.425 0-2.675-.684-3.5-1.719V42.5c0 1.108.892 2 2 2h9.719c-1.035-.825-1.719-2.075-1.719-3.5 0-2.484 2.016-4.5 4.5-4.5s4.5 2.016 4.5 4.5c0 1.425-.684 2.675-1.719 3.5H33.5c1.108 0 2-.892 2-2v-10h.781c.81 1.197 2.167 2 3.719 2 2.484 0 4.5-2.016 4.5-4.5s-2.016-4.5-4.5-4.5c-1.552 0-2.91.803-3.719 2H35.5v-10c0-1.108-.892-2-2-2h-10v-.781c1.197-.81 2-2.166 2-3.719 0-2.484-2.016-4.5-4.5-4.5z" style="fill:url(#l);fill-opacity:1;stroke:url(#linearGradient2494);stroke-width:1.00000012;stroke-linecap:round;stroke-linejoin:round;stroke-miterlimit:4;stroke-opacity:1;stroke-dasharray:none;stroke-dashoffset:0"/></svg>