<svg width="48" height="48" xmlns="http://www.w3.org/2000/svg" xmlns:xlink="http://www.w3.org/1999/xlink"><defs><linearGradient id="k" x1="56.059" x2=".033" y1="4.835" y2="59.899" gradientTransform="matrix(1.1242 -.64903 -.77202 -1.3372 57.672 121.87)" gradientUnits="userSpaceOnUse"><stop stop-color="#9aa1ad" offset="0"/><stop stop-color="#e6e9ea" offset="1"/></linearGradient><linearGradient id="i" x1="24.627" x2="24.627" y1="2.998" y2="3.593" gradientTransform="matrix(1.6354 -.94422 -1.6086 -2.7861 52.123 130.72)" gradientUnits="userSpaceOnUse"><stop stop-color="#fff" offset="0"/><stop stop-color="#afafaf" offset="1"/></linearGradient><linearGradient id="h" x1=".946" x2="56.379" y1="4.997" y2="4.835" gradientTransform="matrix(1.1242 -.64903 -.77202 -1.3372 59.672 125.34)" gradientUnits="userSpaceOnUse" xlink:href="#a"/><linearGradient id="g" x1="30.41" x2="105.73" y1="68.099" y2="68.099" gradientTransform="rotate(-30 58.216 69.829)" gradientUnits="userSpaceOnUse" xlink:href="#a"/><linearGradient id="f" x1="31.397" x2="31.415" y1="110.03" y2="105.99" gradientTransform="translate(-42.713 21.752)" gradientUnits="userSpaceOnUse"><stop stop-color="#7f8893" offset="0"/><stop stop-color="#bdc3c8" offset="1"/></linearGradient><linearGradient id="e" x1=".58" x2="54.853" y1="4.835" y2="4.835" gradientTransform="matrix(1.1242 -.64903 -.77202 -1.3372 60.672 127.07)" gradientUnits="userSpaceOnUse" xlink:href="#b"/><linearGradient id="d" x1="30.41" x2="105.73" y1="68.099" y2="68.099" gradientTransform="rotate(-30 61.947 68.829)" gradientUnits="userSpaceOnUse" xlink:href="#b"/><linearGradient id="a"><stop stop-color="#37404d" offset="0"/><stop stop-color="#363e49" offset="1"/></linearGradient><linearGradient id="b"><stop stop-color="#7f8893" offset="0"/><stop stop-color="#5f6c77" offset="1"/></linearGradient><linearGradient id="c" x1="25.132" x2="25.132" y1=".985" y2="47.013" gradientTransform="matrix(1 0 0 .95617 0 -.518)" gradientUnits="userSpaceOnUse"><stop stop-color="#dadada" offset="0"/><stop stop-color="#fff" offset="1"/></linearGradient><linearGradient id="m" x1="91.308" x2="95.182" y1="98.192" y2="102.07" gradientTransform="matrix(.56521 0 0 -.60266 -19.183 70.781)" gradientUnits="userSpaceOnUse"><stop stop-color="#fcfcfc" offset="0"/><stop stop-color="#c1c1c1" offset="1"/></linearGradient><radialGradient id="j" cx="35.749" cy="1.334" r="17.498" gradientTransform="matrix(2.6039 -1.5034 -2.3902 -4.1399 -78.431 101.02)" gradientUnits="userSpaceOnUse"><stop stop-color="#dadcde" offset="0"/><stop stop-color="#9aa1ad" offset="1"/></radialGradient><radialGradient id="l" cx="26.53" cy="23.566" r="17.5" gradientTransform="matrix(-1.7302 -.00339 .00346 -1.7689 87.322 43.647)" gradientUnits="userSpaceOnUse"><stop stop-opacity=".659" offset="0"/><stop stop-color="#cecece" stop-opacity="0" offset="1"/></radialGradient></defs><path d="m6.5 1.872 21.021.002L41.5 16.226v29.651h-35V1.871z" fill="none" stroke="#000" stroke-opacity=".549"/><path d="m6.5 1.894 20.954.002L41.5 16.226V45.9h-35V1.893z" fill="url(#c)"/><g fill="none" stroke="#000" stroke-miterlimit="6" stroke-width="2.007"><g opacity=".02"><path d="m182.45 117.25 51.751-29.879c3.245-1.874 4.15-6.335 2.034-10.006l-35.24-61.113c-2.116-3.67-6.436-5.116-9.682-3.242L148.52 37.717l-5.901 3.415 3.834 6.61 17.636 30.548 8.68 35.718 3.837 6.621z" transform="matrix(.21484 0 0 .21139 -15.53 10.511)"/><path d="m179.44 112.06 51.793-29.903c3.245-1.874 4.152-6.336 2.034-10.006l-35.272-61.094c-2.119-3.67-6.437-5.115-9.683-3.242L136.52 37.718l-5.901 3.415 3.868 6.591 35.272 61.094 3.837 6.622z" transform="matrix(.21484 0 0 .21139 -15.53 10.511)"/></g><g opacity=".02"><path d="m182.45 117.25 51.751-29.879c3.245-1.874 4.15-6.335 2.034-10.006l-35.24-61.113c-2.116-3.67-6.436-5.116-9.682-3.242L148.52 37.717l-5.901 3.415 3.834 6.61 17.636 30.548 8.68 35.718 3.837 6.621z" transform="matrix(.21356 0 0 .21013 -15.294 10.592)"/><path d="m179.44 112.06 51.793-29.903c3.245-1.874 4.152-6.336 2.034-10.006l-35.272-61.094c-2.119-3.67-6.437-5.115-9.683-3.242L136.52 37.718l-5.901 3.415 3.868 6.591 35.272 61.094 3.837 6.622z" transform="matrix(.21356 0 0 .21013 -15.294 10.592)"/></g><g opacity=".02"><path d="m182.45 117.25 51.751-29.879c3.245-1.874 4.15-6.335 2.034-10.006l-35.24-61.113c-2.116-3.67-6.436-5.116-9.682-3.242L148.52 37.717l-5.901 3.415 3.834 6.61 17.636 30.548 8.68 35.718 3.837 6.621z" transform="matrix(.21228 0 0 .20887 -15.058 10.672)"/><path d="m179.44 112.06 51.793-29.903c3.245-1.874 4.152-6.336 2.034-10.006l-35.272-61.094c-2.119-3.67-6.437-5.115-9.683-3.242L136.52 37.718l-5.901 3.415 3.868 6.591 35.272 61.094 3.837 6.622z" transform="matrix(.21228 0 0 .20887 -15.058 10.672)"/></g><g opacity=".02"><path d="m182.45 117.25 51.751-29.879c3.245-1.874 4.15-6.335 2.034-10.006l-35.24-61.113c-2.116-3.67-6.436-5.116-9.682-3.242L148.52 37.717l-5.901 3.415 3.834 6.61 17.636 30.548 8.68 35.718 3.837 6.621z" transform="matrix(.211 0 0 .20761 -14.827 10.751)"/><path d="m179.44 112.06 51.793-29.903c3.245-1.874 4.152-6.336 2.034-10.006l-35.272-61.094c-2.119-3.67-6.437-5.115-9.683-3.242L136.52 37.718l-5.901 3.415 3.868 6.591 35.272 61.094 3.837 6.622z" transform="matrix(.211 0 0 .20761 -14.827 10.751)"/></g><g opacity=".02"><path d="m182.45 117.25 51.751-29.879c3.245-1.874 4.15-6.335 2.034-10.006l-35.24-61.113c-2.116-3.67-6.436-5.116-9.682-3.242L148.52 37.717l-5.901 3.415 3.834 6.61 17.636 30.548 8.68 35.718 3.837 6.621z" transform="matrix(.20975 0 0 .20638 -14.595 10.83)"/><path d="m179.44 112.06 51.793-29.903c3.245-1.874 4.152-6.336 2.034-10.006l-35.272-61.094c-2.119-3.67-6.437-5.115-9.683-3.242L136.52 37.718l-5.901 3.415 3.868 6.591 35.272 61.094 3.837 6.622z" transform="matrix(.20975 0 0 .20638 -14.595 10.83)"/></g><g opacity=".02"><path d="m182.45 117.25 51.751-29.879c3.245-1.874 4.15-6.335 2.034-10.006l-35.24-61.113c-2.116-3.67-6.436-5.116-9.682-3.242L148.52 37.717l-5.901 3.415 3.834 6.61 17.636 30.548 8.68 35.718 3.837 6.621z" transform="matrix(.2085 0 0 .20516 -14.365 10.909)"/><path d="m179.44 112.06 51.793-29.903c3.245-1.874 4.152-6.336 2.034-10.006l-35.272-61.094c-2.119-3.67-6.437-5.115-9.683-3.242L136.52 37.718l-5.901 3.415 3.868 6.591 35.272 61.094 3.837 6.622z" transform="matrix(.2085 0 0 .20516 -14.365 10.909)"/></g><g opacity=".02"><path d="m182.45 117.25 51.751-29.879c3.245-1.874 4.15-6.335 2.034-10.006l-35.24-61.113c-2.116-3.67-6.436-5.116-9.682-3.242L148.52 37.717l-5.901 3.415 3.834 6.61 17.636 30.548 8.68 35.718 3.837 6.621z" transform="matrix(.20727 0 0 .20394 -14.136 10.987)"/><path d="m179.44 112.06 51.793-29.903c3.245-1.874 4.152-6.336 2.034-10.006l-35.272-61.094c-2.119-3.67-6.437-5.115-9.683-3.242L136.52 37.718l-5.901 3.415 3.868 6.591 35.272 61.094 3.837 6.622z" transform="matrix(.20727 0 0 .20394 -14.136 10.987)"/></g><g opacity=".02"><path d="m182.45 117.25 51.751-29.879c3.245-1.874 4.15-6.335 2.034-10.006l-35.24-61.113c-2.116-3.67-6.436-5.116-9.682-3.242L148.52 37.717l-5.901 3.415 3.834 6.61 17.636 30.548 8.68 35.718 3.837 6.621z" transform="matrix(.20603 0 0 .20272 -13.908 11.064)"/><path d="m179.44 112.06 51.793-29.903c3.245-1.874 4.152-6.336 2.034-10.006l-35.272-61.094c-2.119-3.67-6.437-5.115-9.683-3.242L136.52 37.718l-5.901 3.415 3.868 6.591 35.272 61.094 3.837 6.622z" transform="matrix(.20603 0 0 .20272 -13.908 11.064)"/></g><g opacity=".02"><path d="m182.45 117.25 51.751-29.879c3.245-1.874 4.15-6.335 2.034-10.006l-35.24-61.113c-2.116-3.67-6.436-5.116-9.682-3.242L148.52 37.717l-5.901 3.415 3.834 6.61 17.636 30.548 8.68 35.718 3.837 6.621z" transform="matrix(.2048 0 0 .2015 -13.682 11.141)"/><path d="m179.44 112.06 51.793-29.903c3.245-1.874 4.152-6.336 2.034-10.006l-35.272-61.094c-2.119-3.67-6.437-5.115-9.683-3.242L136.52 37.718l-5.901 3.415 3.868 6.591 35.272 61.094 3.837 6.622z" transform="matrix(.2048 0 0 .2015 -13.682 11.141)"/></g><g opacity=".02"><path d="m182.45 117.25 51.751-29.879c3.245-1.874 4.15-6.335 2.034-10.006l-35.24-61.113c-2.116-3.67-6.436-5.116-9.682-3.242L148.52 37.717l-5.901 3.415 3.834 6.61 17.636 30.548 8.68 35.718 3.837 6.621z" transform="matrix(.20358 0 0 .2003 -13.456 11.218)"/><path d="m179.44 112.06 51.793-29.903c3.245-1.874 4.152-6.336 2.034-10.006l-35.272-61.094c-2.119-3.67-6.437-5.115-9.683-3.242L136.52 37.718l-5.901 3.415 3.868 6.591 35.272 61.094 3.837 6.622z" transform="matrix(.20358 0 0 .2003 -13.456 11.218)"/></g><g opacity=".02"><path d="m182.45 117.25 51.751-29.879c3.245-1.874 4.15-6.335 2.034-10.006l-35.24-61.113c-2.116-3.67-6.436-5.116-9.682-3.242L148.52 37.717l-5.901 3.415 3.834 6.61 17.636 30.548 8.68 35.718 3.837 6.621z" transform="matrix(.20236 0 0 .1991 -13.233 11.295)"/><path d="m179.44 112.06 51.793-29.903c3.245-1.874 4.152-6.336 2.034-10.006l-35.272-61.094c-2.119-3.67-6.437-5.115-9.683-3.242L136.52 37.718l-5.901 3.415 3.868 6.591 35.272 61.094 3.837 6.622z" transform="matrix(.20236 0 0 .1991 -13.233 11.295)"/></g><g opacity=".02"><path d="m182.45 117.25 51.751-29.879c3.245-1.874 4.15-6.335 2.034-10.006l-35.24-61.113c-2.116-3.67-6.436-5.116-9.682-3.242L148.52 37.717l-5.901 3.415 3.834 6.61 17.636 30.548 8.68 35.718 3.837 6.621z" transform="matrix(.20106 0 0 .19783 -12.993 11.376)"/><path d="m179.44 112.06 51.793-29.903c3.245-1.874 4.152-6.336 2.034-10.006l-35.272-61.094c-2.119-3.67-6.437-5.115-9.683-3.242L136.52 37.718l-5.901 3.415 3.868 6.591 35.272 61.094 3.837 6.622z" transform="matrix(.20106 0 0 .19783 -12.993 11.376)"/></g></g><path d="m62.451 117.25 51.751-29.879c3.245-1.874 4.15-6.335 2.034-10.006l-35.24-61.113c-2.116-3.67-6.436-5.116-9.682-3.242L28.52 37.717l-5.901 3.415 3.834 6.61L44.089 78.29l8.68 35.718 3.837 6.621z" fill="url(#d)" stroke="url(#e)" stroke-miterlimit="6" stroke-width="2.007" transform="translate(11.216 11.053) scale(.19976)"/><path transform="rotate(-29.999 26.233 -15.403) scale(.19976)" fill="url(#f)" d="M-12.3 127.59h2.003v6.183H-12.3z"/><path d="m63.182 114.52 50.02-28.879c3.245-1.874 4.15-6.335 2.034-10.006l-35.24-61.113c-2.116-3.67-6.436-5.116-9.682-3.242L27.52 35.987l-5.901 3.415 3.834 6.61L43.089 76.56l10.41 34.719 3.837 6.621z" fill="url(#g)" stroke="url(#h)" stroke-miterlimit="6" stroke-width="2.007" transform="translate(11.216 11.053) scale(.19976)"/><path d="m108.44 76.823 4.477 7.83-55.223 31.884-4.795-8.302" fill="url(#i)" transform="translate(11.216 11.053) scale(.19976)"/><path d="m59.443 112.06 51.793-29.903c3.245-1.874 4.152-6.336 2.034-10.006L77.998 11.057c-2.119-3.67-6.437-5.115-9.683-3.242L16.522 37.718l-5.901 3.415 3.868 6.591 35.272 61.094 3.837 6.622z" fill="url(#j)" stroke="url(#k)" stroke-miterlimit="6" stroke-width="2.007" transform="translate(11.216 11.053) scale(.19976)"/><path d="m21.067 19.952 1.871 3.241 1.502-.867c.345-.199.553-.42.625-.66.073-.248.006-.612-.201-1.093l.225-.13 1.612 2.792-.225.13c-.19-.318-.368-.529-.536-.632a.865.865 0 0 0-.521-.145c-.182.003-.411.084-.687.243l-1.502.867 1.495 2.591c.242.418.427.678.557.782.1.078.235.116.407.114.234-.006.449-.065.643-.177l.298-.172.13.225-3.54 2.043-.13-.225.293-.168c.34-.197.53-.44.57-.727.022-.186-.11-.526-.395-1.02l-3.076-5.328c-.241-.418-.427-.679-.557-.782a.633.633 0 0 0-.4-.118c-.23.004-.445.063-.644.178l-.292.168-.13-.225 6.137-3.543 1.125 1.767-.212.123c-.328-.325-.615-.535-.86-.631a1.359 1.359 0 0 0-.745-.097c-.25.036-.589.178-1.019.426l-1.818 1.05" fill="#fff" opacity=".65"/><path d="m21.067 19.752 1.871 3.242 1.502-.868c.345-.199.553-.419.625-.66.073-.248.006-.612-.201-1.093l.225-.13 1.612 2.792-.225.13c-.19-.318-.368-.528-.536-.632a.865.865 0 0 0-.521-.145c-.182.003-.411.084-.687.243l-1.502.867 1.495 2.591c.242.418.427.679.557.782.1.078.235.116.407.114.234-.006.449-.065.643-.177l.298-.172.13.225-3.54 2.043-.13-.225.293-.168c.34-.197.53-.439.57-.727.022-.185-.11-.526-.395-1.02l-3.076-5.328c-.241-.418-.427-.678-.557-.782a.633.633 0 0 0-.4-.117c-.23.003-.445.062-.644.177l-.292.168-.13-.225 6.137-3.543 1.125 1.767-.212.123c-.328-.324-.615-.535-.86-.631a1.359 1.359 0 0 0-.745-.097c-.25.036-.589.178-1.019.426l-1.818 1.05" opacity=".4"/><path d="m6.5 1.894 20.954.002L41.5 16.226V45.9h-35V1.893z" fill="url(#l)"/><path fill="none" d="M19.632 1.872H41.5v24.125H19.632z"/><path d="M29.349 14.212c-.045-3.443.093-9.233-1.843-12.276 0 0 12.641 12.709 13.994 14.29 0 0-2.348-1.878-12.152-2.014z" fill="url(#m)"/></svg>