<svg width="48" height="48" version="1.1" xmlns="http://www.w3.org/2000/svg" xmlns:xlink="http://www.w3.org/1999/xlink">
 <defs>
  <linearGradient id="b" x1="25.132" x2="25.132" y1=".98521" y2="47.013" gradientTransform="matrix(1 0 0 .95617 9.9862e-8 -.51792)" gradientUnits="userSpaceOnUse">
   <stop stop-color="#dadada" offset="0"/>
   <stop stop-color="#fff" offset="1"/>
  </linearGradient>
  <radialGradient id="c" cx="26.53" cy="23.566" r="17.5" gradientTransform="matrix(-1.7302 -.0033869 .0034626 -1.7689 87.322 43.647)" gradientUnits="userSpaceOnUse">
   <stop stop-opacity=".65926" offset="0"/>
   <stop stop-color="#cecece" stop-opacity="0" offset="1"/>
  </radialGradient>
  <linearGradient id="a" x1="91.308" x2="95.182" y1="98.192" y2="102.07" gradientTransform="matrix(.56521 0 0 -.60266 -19.183 70.781)" gradientUnits="userSpaceOnUse">
   <stop stop-color="#fcfcfc" offset="0"/>
   <stop stop-color="#c1c1c1" offset="1"/>
  </linearGradient>
 </defs>
 <path d="m6.5 1.8722c5.8015 0 21.021 0.00228 21.021 0.00228l13.979 14.352 3.6e-5 29.651h-35v-44.006z" fill="none" stroke="#000" stroke-opacity=".54902"/>
 <path d="m6.5 1.8942c5.8015 0 20.954 0.00228 20.954 0.00228l14.046 14.33 3.6e-5 29.673h-35v-44.006z" fill="url(#b)"/>
 <g transform="matrix(.33136 0 0 .33136 1.3016 7.3062)" fill="#45a3e9" opacity=".8" stroke-width="1px">
  <path d="m60.726 61.144v11.164c-1.3859 0.61594-3.6187 1.2319-6.6984 1.2319-12.011 0-17.785-8.3923-17.785-17.939 0-11.549 6.6214-18.093 18.016-18.093 4.8506 0 9.8551 1.2319 13.474 3.1567 0.30797 0.15399 0.61594 0 0.61594-0.46196v-7.0064c0-0.46196-0.07699-0.76993-0.46196-0.92392-2.8487-1.6169-8.1613-2.7718-13.859-2.7718-16.015 0-27.333 10.163-27.333 26.332 0 13.705 8.0843 25.485 26.255 25.485 5.9285 0 11.703-1.2319 16.554-3.3877 0.46196-0.23098 0.53895-0.38497 0.53895-0.84692v-22.79c0-0.38497-0.07699-0.61594-0.61594-0.61594h-17.323c-0.30797 0-0.53895 0.15399-0.53895 0.46196v6.0825c0 0.46196 0.15399 0.61594 0.61594 0.69294z"/>
  <path d="m91.672 42.358c-6.4674 0-12.858 2.1558-16.323 3.3107-0.23098 0.07699-0.30797 0.30797-0.30797 0.46196 0.15399 1.0009 0.30797 3.5417 0.30797 4.4656v46.427c0 0.30797 0.07699 0.53895 0.53895 0.46196l8.1613-0.76993c0.46196-0.07699 0.53895-0.30797 0.53895-0.61594v-15.091c0.84692 0.15399 1.9248 0.30797 3.3877 0.30797 11.01-0.07699 22.328-7.1604 22.328-20.788 0-10.009-6.0055-18.17-18.632-18.17zm-1.0009 7.4683c5.7745 0 10.086 3.6187 10.086 11.164 0 8.8542-5.7745 13.166-12.473 13.166-1.3089 0-2.6948-0.15399-3.6957-0.46196v-23.021c1.7708-0.46196 3.4647-0.84692 6.0825-0.84692z"/>
 </g>
 <path d="m6.5 1.8942c5.8015 0 20.954 0.00228 20.954 0.00228l14.046 14.33 3.6e-5 29.673h-35v-44.006z" fill="url(#c)"/>
 <rect x="19.632" y="1.8722" width="21.868" height="24.125" fill="none"/>
 <path d="m29.349 14.212c-0.04524-3.4428 0.09264-9.2334-1.8427-12.276 0 0 12.641 12.709 13.994 14.29 0 0-2.3483-1.8776-12.152-2.0143z" fill="url(#a)"/>
</svg>
