<svg width="48" height="48" version="1.1" xmlns="http://www.w3.org/2000/svg" xmlns:xlink="http://www.w3.org/1999/xlink">
 <defs>
  <radialGradient id="b" cx="5.6491" cy="9.9571" r="12.672" fx="5.1189" gradientTransform="matrix(-1.5325e-7 6.491 -7.6705 -1.9484e-7 99.954 -56.436)" gradientUnits="userSpaceOnUse">
   <stop stop-color="#90dbec" offset="0"/>
   <stop stop-color="#55c1ec" offset=".26238"/>
   <stop stop-color="#3689e6" offset=".70495"/>
   <stop stop-color="#2b63a0" offset="1"/>
  </radialGradient>
  <linearGradient id="c" x1="25.132" x2="25.132" y1=".98521" y2="47.013" gradientTransform="matrix(1 0 0 .95617 9.9862e-8 -.51792)" gradientUnits="userSpaceOnUse">
   <stop stop-color="#dadada" offset="0"/>
   <stop stop-color="#fff" offset="1"/>
  </linearGradient>
  <radialGradient id="d" cx="26.53" cy="23.566" r="17.5" gradientTransform="matrix(-1.7302 -.0033869 .0034626 -1.7689 87.322 43.647)" gradientUnits="userSpaceOnUse">
   <stop stop-opacity=".65926" offset="0"/>
   <stop stop-color="#cecece" stop-opacity="0" offset="1"/>
  </radialGradient>
  <linearGradient id="a" x1="91.308" x2="95.182" y1="98.192" y2="102.07" gradientTransform="matrix(.56521 0 0 -.60266 -19.183 70.781)" gradientUnits="userSpaceOnUse">
   <stop stop-color="#fcfcfc" offset="0"/>
   <stop stop-color="#c1c1c1" offset="1"/>
  </linearGradient>
 </defs>
 <path d="m6.5 1.8722c5.8015 0 21.021 0.00228 21.021 0.00228l13.979 14.352 3.6e-5 29.651h-35v-44.006z" fill="none" stroke="#000" stroke-opacity=".54902"/>
 <path d="m6.5 1.8942c5.8015 0 20.954 0.00228 20.954 0.00228l14.046 14.33 3.6e-5 29.673h-35v-44.006z" fill="url(#c)"/>
 <path d="m17.75 17c-1.3171 0.01066-2.9753 0.10388-4.75 0.40625v16.844h4v-6.0938s7.8816 0.73129 8.0312-5.0312c0 0 1.0396-6.1924-7.2812-6.125zm0.40625 3c2.427 0.0091 3.0622 0.86975 3.125 2.4688 0 3.3528-4.2812 2.5312-4.2812 2.5312v-4.9375c0.42366-0.03251 0.80954-0.06379 1.1562-0.0625zm12.25 1.4688c-0.97137 0.04397-1.9291 0.26971-2.7812 0.75-1.5788 0.9309-1.776 3.2026-0.90625 4.6875 1.0868 1.6043 3.1774 1.8349 4.6562 2.9375 0.75071 0.49843 0.36417 1.7631-0.5 1.8438-1.5923 0.26056-3.1935-0.31522-4.625-0.96875v2.2812c-0.19853 0.6759 0.63168 0.6927 1.0938 0.875 1.7194 0.4171 3.5816 0.47986 5.2812-0.0625 1.5013-0.44197 2.581-1.9383 2.5-3.5-5.23e-4 -0.41822-0.07999-0.8222-0.21875-1.2188-0.59155-1.6399-2.4279-2.1746-3.8438-2.875-0.89969-0.23044-2.2242-1.3558-1.0312-2.125 1.3407-0.4207 2.7268 0.20624 3.9375 0.75l0.875-2.0938c0.29269-0.65814-1.1263-0.64826-1.5625-0.9375-0.91963-0.25917-1.9036-0.38772-2.875-0.34375z" color="#000000" color-rendering="auto" fill="url(#b)" image-rendering="auto" shape-rendering="auto" solid-color="#000000" style="isolation:auto;mix-blend-mode:normal"/>
 <path d="m6.5 1.8942c5.8015 0 20.954 0.00228 20.954 0.00228l14.046 14.33 3.6e-5 29.673h-35v-44.006z" fill="url(#d)"/>
 <rect x="19.632" y="1.8722" width="21.868" height="24.125" fill="none"/>
 <path d="m29.349 14.212c-0.04524-3.4428 0.09264-9.2334-1.8427-12.276 0 0 12.641 12.709 13.994 14.29 0 0-2.3483-1.8776-12.152-2.0143z" fill="url(#a)"/>
</svg>
