<svg width="48" height="48" viewBox="0 0 12.7 12.7" xmlns="http://www.w3.org/2000/svg"><defs><linearGradient id="a" x1="25.132" x2="25.132" y1=".985" y2="47.013" gradientTransform="matrix(.26458 0 0 .25298 0 -.137)" gradientUnits="userSpaceOnUse"><stop stop-color="#dadada" offset="0"/><stop stop-color="#fff" offset="1"/></linearGradient><linearGradient id="c" x1="91.308" x2="95.182" y1="98.192" y2="102.07" gradientTransform="matrix(.14954 0 0 -.15945 -5.075 18.727)" gradientUnits="userSpaceOnUse"><stop stop-color="#fcfcfc" offset="0"/><stop stop-color="#c1c1c1" offset="1"/></linearGradient><radialGradient id="b" cx="26.53" cy="23.566" r="17.5" gradientTransform="matrix(-.45777 -.0009 .00092 -.46801 23.103 11.548)" gradientUnits="userSpaceOnUse"><stop stop-opacity=".659" offset="0"/><stop stop-color="#cecece" stop-opacity="0" offset="1"/></radialGradient></defs><path d="M1.72.495h5.562l3.698 3.798v7.845H1.72V.495z" fill="none" stroke="#000" stroke-opacity=".549" stroke-width=".265"/><path d="M1.72.501h5.544l3.716 3.792v7.851H1.72V.501z" fill="url(#a)"/><path d="M3.175 2.315v.199h.633v-.2zm.716 0v.199h.6v-.2zm.682 0v.199h.525v-.2zm.609 0v.199h.233v-.2zm.316 0v.199h.516v-.2zm.608 0v.199h1.332v-.2zm-2.931.596v.198h1.008V2.91zm1.107 0v.198h.483V2.91zm.575 0v.198h.225V2.91zm.325 0v.198h.433V2.91zm.532 0v.198h.434V2.91zm.525 0v.198h.708V2.91zm.808 0v.198h.925V2.91zm-3.872.595v.198H4.29v-.197zm1.2 0v.198h1.197v-.197zm-1.2.595v.198h.616v-.198zm.7 0v.198h.574v-.198zm.657 0v.198h.508v-.198zm1.041 2.977v.198h.625v-.2zm.708 0v.198h.583v-.2zm.666 0v.198h.491v-.2zm-1.374.595v.199h.5v-.199zm.583 0v.199h1.282v-.199zm1.366 0v.199h.982v-.199zm-1.949.596v.197h.65V8.27zm.741 0v.197h1.14V8.27zm1.224 0v.197h.783V8.27zm-1.965.594v.199h.5v-.199zm.583 0v.199h.508v-.199zm.592 0v.199h.724v-.199zm.807 0v.199h.15v-.199zm.233 0v.199h.941v-.199zm-2.23 1.787v.198h.649v-.198zm.732 0v.198h.6v-.198zm.69 0v.198h.518v-.198zm.6 0v.198h.825v-.198zm.917 0v.198h1.34v-.198zM3.175 4.696v.199h.816v-.199zm0 .596v.198H4v-.198zm.908-.596v.199h1.49v-.199zm.007.596v.198h1.358v-.198zm.318 4.167v.198h1.224V9.46zm1.315 0v.198h.483V9.46zm.575 0v.198h1.149V9.46zm1.24 0v.198h.791V9.46zm.875 0v.198h.308V9.46zm.4 0v.198h.182V9.46zm.266 0v.198h.49V9.46zm-4.272.595v.199h.216v-.199zm.275 0v.199h.433v-.199zm.5 0v.199h.432v-.199zm.566 0v.199h.691v-.199zm.774 0v.199h.9v-.199zm1.024 0v.199h.608v-.199zm.683 0v.199h.142v-.199zm-5.454.596h.81v.198h-.81zm.732-4.763v.198h.6v-.198zm-.732.595v.199h.267v-.199zm.841.595v.2h.491v-.2zm.033.596v.199h.725v-.199zm-.091.595v.198h.55v-.198zm-.1.595v.199h.566v-.199zm-.683.596v.198h1.14V9.46zm0 .595v.199h.983v-.199zm1.058 0v.199h.474v-.199zm-.167.596v.198h.891v-.198zm-.891-4.763v.198h.624v-.198zm0 1.19v.2h.732v-.2zm0 .596v.199h.783v-.2zm0 .595v.198h.675v-.198zm0 .595v.199h.591v-.199z" fill="#b4bfd8"/><path d="m4.525 4.098-.561.561 1.824 1.825-1.824 1.824.561.561 1.824-1.824 1.824 1.824.561-.561L6.91 6.484l1.824-1.825-.56-.56-1.825 1.823z" fill="#f46062" fill-rule="evenodd" stroke="#e2373a" stroke-linecap="round" stroke-linejoin="round" stroke-width=".265" style="paint-order:fill markers stroke"/><g stroke-width=".265"><path d="M1.72.501h5.544l3.716 3.792v7.851H1.72V.501z" fill="url(#b)"/><path fill="none" d="M5.194.495h5.786v6.383H5.194z"/><path d="M7.765 3.76c-.012-.91.025-2.443-.487-3.248 0 0 3.344 3.363 3.702 3.781 0 0-.621-.497-3.215-.533z" fill="url(#c)"/></g></svg>