<svg width="48" height="48" xmlns="http://www.w3.org/2000/svg"><defs><linearGradient id="d" x1="24" x2="24" y1="14.916" y2="32.596" gradientTransform="matrix(.89189 0 0 1.0541 .595 -1.297)" gradientUnits="userSpaceOnUse"><stop stop-color="#fff" offset="0"/><stop stop-color="#fff" stop-opacity=".235" offset=".123"/><stop stop-color="#fff" stop-opacity=".157" offset=".937"/><stop stop-color="#fff" stop-opacity=".392" offset="1"/></linearGradient><linearGradient id="c" x1="24" x2="24" y1="44" y2="3.899" gradientTransform="matrix(1 0 0 1.0513 0 -1.23)" gradientUnits="userSpaceOnUse"><stop stop-color="#272727" offset="0"/><stop stop-color="#454545" offset="1"/></linearGradient><linearGradient id="a" x1="25.132" x2="25.132" y1=".985" y2="47.013" gradientTransform="matrix(1 0 0 .95617 0 -.518)" gradientUnits="userSpaceOnUse"><stop stop-color="#dadada" offset="0"/><stop stop-color="#fff" offset="1"/></linearGradient><linearGradient id="f" x1="91.308" x2="95.182" y1="98.192" y2="102.07" gradientTransform="matrix(.56521 0 0 -.60266 -19.183 70.781)" gradientUnits="userSpaceOnUse"><stop stop-color="#fcfcfc" offset="0"/><stop stop-color="#c1c1c1" offset="1"/></linearGradient><radialGradient id="b" cx="10.904" cy="8.45" r="20" gradientTransform="matrix(0 1.4782 -1.2642 0 34.682 -3.632)" gradientUnits="userSpaceOnUse"><stop stop-color="#5f5f5f" offset="0"/><stop stop-color="#4f4f4f" offset=".262"/><stop stop-color="#3b3b3b" offset=".705"/><stop stop-color="#2b2b2b" offset="1"/></radialGradient><radialGradient id="e" cx="26.53" cy="23.566" r="17.5" gradientTransform="matrix(-1.7302 -.00339 .00346 -1.7689 87.322 43.647)" gradientUnits="userSpaceOnUse"><stop stop-opacity=".659" offset="0"/><stop stop-color="#cecece" stop-opacity="0" offset="1"/></radialGradient></defs><path d="m6.5 1.872 21.021.002L41.5 16.226v29.651h-35V1.871z" fill="none" stroke="#000" stroke-opacity=".549"/><path d="m6.5 1.894 20.954.002L41.5 16.226V45.9h-35V1.893z" fill="url(#a)"/><path d="M23.914 16.531c-.648-.004-1.217.12-1.604.378-.5.332-.72.374-.86.145-.133-.219-.254-.194-.372.116-.1.263-.307.383-.544.29-.226-.087-.319-.059-.23.088.087.14.045.261-.085.261s-.546.445-.917.988c-.591.865-.688 1.26-.688 3.079 0 1.14.113 2.251-.229 2.323-.2.042-.181.835-.086 1.656.125 1.073.312 1.598.831 2.091.809.768 1.547 2.096 1.547 2.817 0 .989-2.275 2.718-5.677 4.298v2.47h18l.002-2.728c-2.826-1.302-5.164-3.105-5.164-4.04 0-.72.71-2.05 1.519-2.817.519-.493.734-1.018.86-2.091.095-.82.107-1.59-.087-1.656-.268-.09-.258-1.192-.258-2.323 0-1.622-.101-2.226-.515-2.905-.824-1.35-3.5-2.428-5.443-2.44z" fill="#fff" fill-rule="evenodd" opacity=".4"/><path d="M23.906 13.625c-.953-.223-2.095.463-2.095.463l-1.025.513s-1.111.97-1.123 1.3c-.626 1.11-.34 2.453-.404 3.665.061 1.041-.662 1.813-.3 2.869-.052 1.019.786 1.617 1.325 2.354.607.932 1.43 2.15.782 3.265-1.2 1.741-3.194 2.664-5.014 3.613-.619.063-.386.658-.427 1.082-.001.337-.112.784.382.626h16.368v-1.75c-1.762-.894-3.602-1.852-4.837-3.441-.743-1.065.001-2.344.587-3.29.456-.79 1.41-1.293 1.423-2.299.35-1.02-.179-1.864-.277-2.837-.13-1.29.22-2.7-.395-3.9-.834-1.229-2.362-1.766-3.748-2.096a6.432 6.432 0 0 0-1.222-.137z" color="#000" fill="url(#b)" stroke="url(#c)" stroke-linecap="round" stroke-linejoin="round" transform="translate(0 2.531)"/><path d="M23.812 14.531c-.19-.018-.483.061-.906.25-.314.14-.777.26-1.25.344l.031.031c-.006.003-.326.18-.531.313-.04.025-.06.009-.094.03-.01.014-.026.026-.031.032-.136.146-.4.451-.594.781-.203.345-.295.718-.281.813a.932.932 0 0 1 .031.218c-.09.955.209 2.246-.25 3.688a.932.932 0 0 1-.063.188c-.174.295-.043 1.288.25 2.03.96 1.01 2.125 2.356 2.094 4.188a.932.932 0 0 1-.031.219c-.507 1.739-2.071 2.576-3.062 3.281a.932.932 0 0 1-.032.031c-.931.617-1.925 1.017-2.906 1.5h15.97c-1.823-.856-3.627-1.867-5.063-3.437L27.062 29c-.67-.696-.804-1.65-.656-2.407.146-.743.488-1.365.813-1.875.01-.017.02-.045.03-.062.328-.589.73-.99 1-1.313.282-.335.399-.518.407-.78a.932.932 0 0 1 .063-.25c.1-.304.058-.546-.032-.938-.087-.385-.262-.9-.312-1.532v-.03c-.083-.82.015-1.556 0-2.188-.015-.629-.132-1.087-.406-1.47-.004-.003.003-.026 0-.03-.975-1.01-2.577-1.528-4.094-1.594a.932.932 0 0 1-.063 0z" color="#000" fill="none" opacity=".5" stroke="url(#d)" stroke-linecap="round" stroke-linejoin="round" transform="translate(0 2.531)"/><path d="m6.5 1.894 20.954.002L41.5 16.226V45.9h-35V1.893z" fill="url(#e)"/><path fill="none" d="M19.632 1.872H41.5v24.125H19.632z"/><path d="M29.349 14.212c-.045-3.443.093-9.233-1.843-12.276 0 0 12.641 12.709 13.994 14.29 0 0-2.348-1.878-12.152-2.014z" fill="url(#f)"/></svg>