<svg width="48" height="48" version="1.1" xmlns="http://www.w3.org/2000/svg">
 <defs>
  <radialGradient id="d" cx="7.8061" cy="9.9571" r="12.672" fx="7.2758" gradientTransform="matrix(-1.2781e-7 5.2189 -6.3971 -1.5666e-7 88.062 -38.213)" gradientUnits="userSpaceOnUse">
   <stop stop-color="#90dbec" offset="0"/>
   <stop stop-color="#55c1ec" offset=".26238"/>
   <stop stop-color="#3689e6" offset=".70495"/>
   <stop stop-color="#2b63a0" offset="1"/>
  </radialGradient>
  <linearGradient id="e" x1="25" x2="25" y1="47.935" y2=".91791" gradientTransform="matrix(.79053 0 0 .79053 5.4018 9.2762)" gradientUnits="userSpaceOnUse">
   <stop stop-color="#185f9a" offset="0"/>
   <stop stop-color="#599ec9" offset="1"/>
  </linearGradient>
  <linearGradient id="b" x1="25.132" x2="25.132" y1=".98521" y2="47.013" gradientTransform="matrix(1 0 0 .95617 9.9862e-8 -.51792)" gradientUnits="userSpaceOnUse">
   <stop stop-color="#dadada" offset="0"/>
   <stop stop-color="#fff" offset="1"/>
  </linearGradient>
  <radialGradient id="a" cx="26.53" cy="23.566" r="17.5" gradientTransform="matrix(-1.7302 -.0033869 .0034626 -1.7689 87.322 43.647)" gradientUnits="userSpaceOnUse">
   <stop stop-opacity=".65926" offset="0"/>
   <stop stop-color="#cecece" stop-opacity="0" offset="1"/>
  </radialGradient>
  <linearGradient id="c" x1="91.308" x2="95.182" y1="98.192" y2="102.07" gradientTransform="matrix(.56521 0 0 -.60266 -19.183 70.781)" gradientUnits="userSpaceOnUse">
   <stop stop-color="#fcfcfc" offset="0"/>
   <stop stop-color="#c1c1c1" offset="1"/>
  </linearGradient>
 </defs>
 <path d="m6.5 1.8722c5.8015 0 21.021 0.00228 21.021 0.00228l13.979 14.352 3.6e-5 29.651h-35v-44.006z" fill="none" stroke="#000" stroke-opacity=".54902"/>
 <path d="m6.5 1.8942c5.8015 0 20.954 0.00228 20.954 0.00228l14.046 14.33 3.6e-5 29.673h-35v-44.006z" fill="url(#b)"/>
 <path d="m24.374 17.577c-5.4546 0-9.8816 4.4269-9.8816 9.8816 0 5.4546 4.4269 9.8816 9.8816 9.8816 4.0518 0 7.9053-2.7668 9.1333-6.3242h-4.3764c-1.0525 1.3839-2.9992 2.3716-4.757 2.3716-3.2728 0-5.9289-2.6562-5.9289-5.9289-2e-6 -3.2728 2.6562-5.9289 5.9289-5.9289 2.1087 0 4.0977 1.5023 5.1489 3.1621h3.9124c-0.36552-3.5574-4.7119-7.1147-9.0613-7.1147z" fill="url(#d)" stroke="url(#e)" stroke-linecap="square" stroke-linejoin="round" stroke-width=".79053"/>
 <path d="m6.5 1.8942c5.8015 0 20.954 0.00228 20.954 0.00228l14.046 14.33 3.6e-5 29.673h-35v-44.006z" fill="url(#a)"/>
 <rect x="19.632" y="1.8722" width="21.868" height="24.125" fill="none"/>
 <path d="m29.349 14.212c-0.04524-3.4428 0.09264-9.2334-1.8427-12.276 0 0 12.641 12.709 13.994 14.29 0 0-2.3483-1.8776-12.152-2.0143z" fill="url(#c)"/>
</svg>
