<svg width="48" height="48" version="1.1" xmlns="http://www.w3.org/2000/svg" xmlns:xlink="http://www.w3.org/1999/xlink">
 <defs>
  <radialGradient id="d" cx="11.228" cy="10.191" r="12.672" fx="10.697" gradientTransform="matrix(0 3.678 -3.8474 0 63.645 -27.193)" gradientUnits="userSpaceOnUse">
   <stop stop-color="#fc93dc" offset="0"/>
   <stop stop-color="#da72d3" offset=".26238"/>
   <stop stop-color="#a33fab" offset=".70495"/>
   <stop stop-color="#502b58" offset="1"/>
  </radialGradient>
  <linearGradient id="e" x1="25" x2="25" y1="73.142" y2="12.115" gradientTransform="matrix(1 0 0 1.0068 2.1239 .67705)" gradientUnits="userSpaceOnUse">
   <stop stop-color="#542f57" offset="0"/>
   <stop stop-color="#bb5ca4" offset="1"/>
  </linearGradient>
  <linearGradient id="b" x1="25.132" x2="25.132" y1=".98521" y2="47.013" gradientTransform="matrix(1 0 0 .95617 9.9862e-8 -.51792)" gradientUnits="userSpaceOnUse">
   <stop stop-color="#dadada" offset="0"/>
   <stop stop-color="#fff" offset="1"/>
  </linearGradient>
  <radialGradient id="a" cx="26.53" cy="23.566" r="17.5" gradientTransform="matrix(-1.7302 -.0033869 .0034626 -1.7689 87.322 43.647)" gradientUnits="userSpaceOnUse">
   <stop stop-opacity=".65926" offset="0"/>
   <stop stop-color="#cecece" stop-opacity="0" offset="1"/>
  </radialGradient>
  <linearGradient id="c" x1="91.308" x2="95.182" y1="98.192" y2="102.07" gradientTransform="matrix(.56521 0 0 -.60266 -19.183 70.781)" gradientUnits="userSpaceOnUse">
   <stop stop-color="#fcfcfc" offset="0"/>
   <stop stop-color="#c1c1c1" offset="1"/>
  </linearGradient>
 </defs>
 <path d="m6.5 1.8722c5.8015 0 21.021 0.00228 21.021 0.00228l13.979 14.352 3.6e-5 29.651h-35v-44.006z" fill="none" stroke="#000" stroke-opacity=".54902"/>
 <path d="m6.5 1.8942c5.8015 0 20.954 0.00228 20.954 0.00228l14.046 14.33 3.6e-5 29.673h-35v-44.006z" fill="url(#b)"/>
 <path d="m11 24v1h2.3438v-1zm0 4v1h2.75v-1zm0 2v1h2.9375v-1zm0 2v1h2.5312v-1zm0 2.1562v0.96875h2.2188v-0.96875zm2.75-10.156v1h2.25v-1zm-2.75 2v1h1v-1zm3.1562 2v1h1.8438v-1zm0.125 2v1h2.7188v-1zm-0.34375 2v1h2.0625v-1zm-0.375 2.1562v0.96875h2.125v-0.96875zm-2.5625 2.8438v1h4.2812v-1zm0 2v1h3.6875v-1zm3.9688 0v1h1.7812v-1zm-0.625 2v1h3.3438v-1zm-3.3438 0h3.0367v1h-3.0367zm3.4062-22v1h5.5938v-1zm0.03125 2v1h5.0938v-1zm1.1875 16v1h4.5938v-1zm4.9375 0v1h1.8125v-1zm2.1562 0v1h4.3125v-1zm4.6562 0v1h2.9688v-1zm3.2812 0v1h1.1562v-1zm1.5 0v1h0.6875v-1zm1 0v1h1.8438v-1zm-16.031 2v1h0.8125v-1zm1.0312 0v1h1.625v-1zm1.875 0v1h1.625v-1zm2.125 0v1h2.5938v-1zm2.9062 0v1h3.375v-1zm3.8438 0v1h2.2812v-1zm2.5625 0v1h0.53125v-1zm-20.469-20v1h3.0625v-1zm0 2v1h3.0938v-1zm0-11v1h2.375v-1zm2.6875 0v1h2.25v-1zm2.5625 0v1h1.9688v-1zm2.2812 0v1h0.875v-1zm1.1875 0v1h1.9375v-1zm2.2812 0v1h5v-1zm-11 2v1h3.7812v-1zm4.1562 0v1h1.8125v-1zm2.1562 0v1h0.84375v-1zm1.2188 0v1h1.625v-1zm2 0v1h1.625v-1zm1.9688 0v1h2.6562v-1zm3.0312 0v1h3.4688v-1zm-14.531 2v1h4.1875v-1zm4.5 0v1h4.5v-1zm-4.5 2v1h2.3125v-1zm2.625 0v1h2.1562v-1zm2.4688 0v1h1.9062v-1zm3.8125 5v1h1.9062v-1zm2.2188 0v1h1.9062v-1zm2.2188 0v1h2.75v-1zm3.0938 0v1h0.5625v-1zm-7.4375 7v1h2.3438v-1zm2.6562 0v1h2.1875v-1zm2.5 0v1h1.8438v-1zm-5.1562 2v1h1.875v-1zm2.1875 0v1h4.8125v-1zm5.125 0v1h3.6875v-1zm-7.3125 2v1h2.4375v-1zm2.7812 0v1h4.2812v-1zm4.5938 0v1h2.9375v-1zm-7.375 2.125v0.96875h1.875v-0.96875zm2.1875 0v0.96875h1.9062v-0.96875zm2.2188 0v0.96875h2.7188v-0.96875zm3.0312 0v0.96875h0.5625v-0.96875zm0.875 0v0.96875h3.5312v-0.96875zm-8.375 6.875v1h2.4375v-1zm2.75 0v1h2.25v-1zm2.5938 0v1h1.9375v-1zm2.25 0v1h3.0938v-1zm3.4375 0v1h5.0312v-1z" fill="#575757"/>
 <path d="m28.867 13.5h4.8906l-7.125 23h-5.2812l-7.1094-23h4.8906l3.875 13.844c0.05207 0.1783 0.11978 0.47721 0.20312 0.89672 0.09374 0.41952 0.18749 0.88099 0.28125 1.3844 0.10416 0.50343 0.20312 1.0068 0.29688 1.5103 0.09374 0.50342 0.16666 0.92818 0.21875 1.2743 0.05207-0.3461 0.12499-0.77086 0.21875-1.2743 0.09374-0.50341 0.1927-1.0016 0.29688-1.4945 0.10416-0.50341 0.20311-0.96488 0.29688-1.3844 0.10416-0.41951 0.18228-0.72366 0.23438-0.91245l3.8125-13.844" color="#000000" fill="url(#d)" stroke="url(#e)" stroke-linejoin="round"/>
 <path d="m6.5 1.8942c5.8015 0 20.954 0.00228 20.954 0.00228l14.046 14.33 3.6e-5 29.673h-35v-44.006z" fill="url(#a)"/>
 <rect x="19.632" y="1.8722" width="21.868" height="24.125" fill="none"/>
 <path d="m29.349 14.212c-0.04524-3.4428 0.09264-9.2334-1.8427-12.276 0 0 12.641 12.709 13.994 14.29 0 0-2.3483-1.8776-12.152-2.0143z" fill="url(#c)"/>
</svg>
