<svg width="48" height="48" xmlns="http://www.w3.org/2000/svg"><defs><linearGradient id="a" x1="25.132" x2="25.132" y1=".985" y2="47.013" gradientTransform="matrix(1 0 0 .95617 0 -.518)" gradientUnits="userSpaceOnUse"><stop stop-color="#dadada" offset="0"/><stop stop-color="#fff" offset="1"/></linearGradient><linearGradient id="c" x1="91.308" x2="95.182" y1="98.192" y2="102.07" gradientTransform="matrix(.56521 0 0 -.60266 -19.183 70.781)" gradientUnits="userSpaceOnUse"><stop stop-color="#fcfcfc" offset="0"/><stop stop-color="#c1c1c1" offset="1"/></linearGradient><radialGradient id="b" cx="26.53" cy="23.566" r="17.5" gradientTransform="matrix(-1.7302 -.00339 .00346 -1.7689 87.322 43.647)" gradientUnits="userSpaceOnUse"><stop stop-opacity=".659" offset="0"/><stop stop-color="#cecece" stop-opacity="0" offset="1"/></radialGradient></defs><path d="m6.5 1.872 21.021.002L41.5 16.226v29.651h-35V1.871z" fill="none" stroke="#000" stroke-opacity=".549"/><path d="m6.5 1.894 20.954.002L41.5 16.226V45.9h-35V1.893z" fill="url(#a)"/><path d="M13.5 21.557h12c.831 0 1.5.669 1.5 1.5v12c0 .831-.669 1.5-1.5 1.5h-12c-.831 0-1.5-.669-1.5-1.5v-12c0-.831.669-1.5 1.5-1.5z" fill="#e6e6e6" stroke="#000" stroke-linejoin="round" stroke-opacity=".294"/><path d="M13.5 21.557h12c.831 0 1.5.669 1.5 1.5v12c0 .831-.669 1.5-1.5 1.5h-12c-.831 0-1.5-.669-1.5-1.5v-12c0-.831.669-1.5 1.5-1.5z" fill="#e6e6e6"/><path d="M17.826 23.78a.236.238 0 0 0-.228.219l-.036.339c-.035.289-.063.535-.083.74a.236.238 0 0 0 0 .001l-.036.381a.236.238 0 0 0 0 .001l-.006.06c-.38.023-.768.039-1.18.039-.317 0-.64-.01-.965-.034a.236.238 0 0 0-.252.257l.077.851a.236.238 0 0 0 .22.216c.135.009.308.014.525.014.47 0 .97-.027 1.478-.062a31.484 31.484 0 0 0-.086 1.496c-.339.19-.64.37-.857.529a.236.238 0 0 0-.003.001c-1.257.953-1.924 2.066-1.924 3.298 0 .457.097.835.327 1.106.23.27.582.4.987.4.56 0 1.137-.229 1.726-.59.029.175.066.408.079.477a.236.238 0 0 0 .315.181l.877-.327a.236.238 0 0 0 .144-.285 6.909 6.909 0 0 1-.182-.993c.957-.932 1.729-2.097 2.333-3.47.411.065.767.177 1.051.352a.236.238 0 0 0 .002.001c.646.391.938.904.938 1.636 0 .709-.317 1.247-1.026 1.692-.554.35-1.316.586-2.291.69a.236.238 0 0 0-.173.367l.52.81a.236.238 0 0 0 .232.105c1.167-.167 2.104-.501 2.802-1.021.888-.663 1.357-1.564 1.357-2.631 0-.97-.391-1.793-1.143-2.395a.236.238 0 0 0-.003-.001c-.474-.37-1.107-.594-1.844-.722.044-.133.099-.29.119-.38a.236.238 0 0 0-.178-.282l-.894-.209a.236.238 0 0 0-.283.174c-.064.255-.12.452-.176.638a8.199 8.199 0 0 0-1.463.288c.016-.366.036-.72.068-1.045a25.482 25.482 0 0 0 3.469-.604.236.238 0 0 0 .177-.257l-.094-.84a.236.238 0 0 0-.298-.202 21.33 21.33 0 0 1-3.126.609c.042-.398.088-.807.148-1.29a.236.238 0 0 0-.22-.267l-.9-.06a.236.238 0 0 0-.022-.001zm1.727 4.944a9.121 9.121 0 0 1-.95 1.568c-.015-.39-.03-.77-.032-1.302.313-.12.648-.193.982-.266zm-2.297 1.039c.015.703.038 1.36.081 1.858-.52.459-.988.684-1.393.684-.072 0-.08-.012-.085-.018-.006-.007-.027-.042-.027-.137 0-.052-.01-.101-.02-.15.006-.039.02-.08.02-.118l-.002.018c.042-.54.345-1.12.953-1.738a.236.238 0 0 0 .002-.003c.166-.177.315-.272.471-.396z" fill="#999" font-size="16" font-weight="700" letter-spacing="0" word-spacing="0"/><path d="M22.5 12.557c-.831 0-1.5.669-1.5 1.5v12c0 .831.669 1.5 1.5 1.5h12c.831 0 1.5-.669 1.5-1.5v-12c0-.831-.669-1.5-1.5-1.5z" color="#000" fill="#44a5f3" opacity=".75" stroke="#0b5fa1" stroke-linejoin="round"/><path d="M22.5 12.557c-.831 0-1.5.669-1.5 1.5v12c0 .831.669 1.5 1.5 1.5h12c.831 0 1.5-.669 1.5-1.5v-12c0-.831-.669-1.5-1.5-1.5z" color="#000" fill="#44a5f3"/><path d="m27.704 15.557-3.353 9h1.543l.93-2.7h3.326l.943 2.7h1.56l-3.354-9zm.796 1.485 1.343 3.915h-2.71z" color="#000" fill="#fff"/><path d="m6.5 1.894 20.954.002L41.5 16.226V45.9h-35V1.893z" fill="url(#b)"/><path fill="none" d="M19.632 1.872H41.5v24.125H19.632z"/><path d="M29.349 14.212c-.045-3.443.093-9.233-1.843-12.276 0 0 12.641 12.709 13.994 14.29 0 0-2.348-1.878-12.152-2.014z" fill="url(#c)"/></svg>