<svg width="48" height="48" version="1.1" xmlns="http://www.w3.org/2000/svg" xmlns:xlink="http://www.w3.org/1999/xlink">
 <defs>
  <linearGradient id="k" x1="-22.607" x2="-22.57" y1="14.214" y2="18.246" gradientTransform="matrix(1.0224 0 0 .99211 45.495 -1.1018)" gradientUnits="userSpaceOnUse">
   <stop stop-color="#d4d4d4" offset="0"/>
   <stop stop-color="#939393" offset="1"/>
  </linearGradient>
  <linearGradient id="j" x1="-14.177" x2="-14.177" y1="18.246" y2="14.214" gradientTransform="matrix(1.0224 0 0 .99211 45.495 -1.1018)" gradientUnits="userSpaceOnUse">
   <stop stop-color="#6f6f6f" offset="0"/>
   <stop stop-color="#818181" offset="1"/>
  </linearGradient>
  <linearGradient id="o" x1="-22.607" x2="-22.57" y1="14.214" y2="18.246" gradientTransform="matrix(1.0224 0 0 .99211 45.495 16.898)" gradientUnits="userSpaceOnUse">
   <stop stop-color="#d4d4d4" offset="0"/>
   <stop stop-color="#939393" offset="1"/>
  </linearGradient>
  <linearGradient id="n" x1="-14.177" x2="-14.177" y1="18.246" y2="14.214" gradientTransform="matrix(1.0224 0 0 .99211 45.495 16.898)" gradientUnits="userSpaceOnUse">
   <stop stop-color="#6f6f6f" offset="0"/>
   <stop stop-color="#818181" offset="1"/>
  </linearGradient>
  <linearGradient id="m" x1="-22.607" x2="-22.57" y1="14.214" y2="18.246" gradientTransform="matrix(1.0224 0 0 .99211 45.495 -1.1018)" gradientUnits="userSpaceOnUse">
   <stop stop-color="#cdcdcd" offset="0"/>
   <stop stop-color="#7c7c7c" offset="1"/>
  </linearGradient>
  <linearGradient id="l" x1="-14.177" x2="-14.177" y1="18.246" y2="14.214" gradientTransform="matrix(1.0224 0 0 .99211 45.495 -1.1018)" gradientUnits="userSpaceOnUse">
   <stop stop-color="#4b4b4b" offset="0"/>
   <stop stop-color="#909090" offset="1"/>
  </linearGradient>
  <linearGradient id="q" x1="-22.607" x2="-22.57" y1="14.214" y2="18.246" gradientTransform="matrix(1.0224 0 0 .99211 45.495 16.898)" gradientUnits="userSpaceOnUse">
   <stop stop-color="#cdcdcd" offset="0"/>
   <stop stop-color="#7c7c7c" offset="1"/>
  </linearGradient>
  <linearGradient id="p" x1="-14.177" x2="-14.177" y1="18.246" y2="14.214" gradientTransform="matrix(1.0224 0 0 .99211 45.495 16.898)" gradientUnits="userSpaceOnUse">
   <stop stop-color="#4b4b4b" offset="0"/>
   <stop stop-color="#909090" offset="1"/>
  </linearGradient>
  <linearGradient id="i" x1="-22.607" x2="-22.57" y1="14.214" y2="18.246" gradientTransform="matrix(1.0224 0 0 .99211 47.495 10.898)" gradientUnits="userSpaceOnUse">
   <stop stop-color="#f8cd70" offset="0"/>
   <stop stop-color="#d99a11" offset="1"/>
  </linearGradient>
  <linearGradient id="h" x1="-14.177" x2="-14.177" y1="18.246" y2="14.214" gradientTransform="matrix(1.0224 0 0 .99211 47.495 10.898)" gradientUnits="userSpaceOnUse">
   <stop stop-color="#bb5e12" offset="0"/>
   <stop stop-color="#cd8033" offset="1"/>
  </linearGradient>
  <linearGradient id="g" x1="-22.607" x2="-22.57" y1="14.214" y2="18.246" gradientTransform="matrix(1.0224 0 0 .99211 47.495 10.898)" gradientUnits="userSpaceOnUse">
   <stop stop-color="#d7e866" offset="0"/>
   <stop stop-color="#8cab2a" offset="1"/>
  </linearGradient>
  <linearGradient id="f" x1="-14.177" x2="-14.177" y1="18.246" y2="14.214" gradientTransform="matrix(1.0224 0 0 .99211 47.495 10.898)" gradientUnits="userSpaceOnUse">
   <stop stop-color="#5d8430" offset="0"/>
   <stop stop-color="#6d9a38" offset="1"/>
  </linearGradient>
  <linearGradient id="e" x1="-22.607" x2="-22.57" y1="14.214" y2="18.246" gradientTransform="matrix(1.0224 0 0 .99211 47.495 4.8982)" gradientUnits="userSpaceOnUse">
   <stop stop-color="#d7e866" offset="0"/>
   <stop stop-color="#8cab2a" offset="1"/>
  </linearGradient>
  <linearGradient id="d" x1="-14.177" x2="-14.177" y1="18.246" y2="14.214" gradientTransform="matrix(1.0224 0 0 .99211 47.495 4.8982)" gradientUnits="userSpaceOnUse">
   <stop stop-color="#5d8430" offset="0"/>
   <stop stop-color="#6d9a38" offset="1"/>
  </linearGradient>
  <linearGradient id="b" x1="25.132" x2="25.132" y1=".98521" y2="47.013" gradientTransform="matrix(1 0 0 .95617 9.9862e-8 -.51792)" gradientUnits="userSpaceOnUse">
   <stop stop-color="#dadada" offset="0"/>
   <stop stop-color="#fff" offset="1"/>
  </linearGradient>
  <radialGradient id="a" cx="26.53" cy="23.566" r="17.5" gradientTransform="matrix(-1.7302 -.0033869 .0034626 -1.7689 87.322 43.647)" gradientUnits="userSpaceOnUse">
   <stop stop-opacity=".65926" offset="0"/>
   <stop stop-color="#cecece" stop-opacity="0" offset="1"/>
  </radialGradient>
  <linearGradient id="c" x1="91.308" x2="95.182" y1="98.192" y2="102.07" gradientTransform="matrix(.56521 0 0 -.60266 -19.183 70.781)" gradientUnits="userSpaceOnUse">
   <stop stop-color="#fcfcfc" offset="0"/>
   <stop stop-color="#c1c1c1" offset="1"/>
  </linearGradient>
 </defs>
 <path d="m6.5 1.8722c5.8015 0 21.021 0.00228 21.021 0.00228l13.979 14.352 3.6e-5 29.651h-35v-44.006z" fill="none" stroke="#000" stroke-opacity=".54902"/>
 <path d="m6.5 1.8942c5.8015 0 20.954 0.00228 20.954 0.00228l14.046 14.33 3.6e-5 29.673h-35v-44.006z" fill="url(#b)"/>
 <g transform="translate(0 4.9995)">
  <path d="m16.921 13.5c-0.22895 0.01557-0.42426 0.19346-0.42122 0.38367v2.2322c-0.0025 0.20143 0.22008 0.38567 0.46334 0.38367h17.073c0.24325 2e-3 0.46575-0.18224 0.46334-0.38367v-2.2322c0.0025-0.20143-0.22008-0.38567-0.46334-0.38367h-17.073c-0.01403-5.34e-4 -0.02809-5.34e-4 -0.04212 0z" color="#000000" fill="url(#k)" stroke="url(#j)" stroke-linecap="square"/>
  <path d="m16.445 14.001c-0.24167 0.02075-0.44783 0.25795-0.44462 0.51156v2.9763c-0.0026 0.26857 0.23231 0.51422 0.48908 0.51156h18.022c0.25677 0.0026 0.49163-0.24299 0.48908-0.51156v-2.9763c0.0026-0.26857-0.23231-0.51422-0.48908-0.51156h-18.022c-0.01481-7.12e-4 -0.02965-7.12e-4 -0.04446 0zm-4.9795 0c-0.25281 0.02075-0.46846 0.25795-0.46511 0.51156v2.9763c-0.0027 0.26857 0.24302 0.51422 0.51162 0.51156h2.9767c0.2686 0.0026 0.51429-0.24299 0.51162-0.51156v-2.9763c0.0027-0.26857-0.24302-0.51422-0.51162-0.51156h-2.9767c-0.01549-7.12e-4 -0.03101-7.12e-4 -0.04651 0z" opacity=".15"/>
  <path d="m17 14.5h17" fill="none" opacity=".4" stroke="#fff" stroke-width="1px"/>
  <path d="m12 13.5h2c0.277 0 0.5 0.223 0.5 0.5v2c0 0.277-0.223 0.5-0.5 0.5h-2c-0.277 0-0.5-0.223-0.5-0.5v-2c0-0.277 0.223-0.5 0.5-0.5zm4.9213 4.01e-4c-0.22895 0.01557-0.42426 0.19346-0.42122 0.38367v2.2322c-0.0025 0.20143 0.22008 0.38567 0.46334 0.38367h17.073c0.24325 2e-3 0.46575-0.18224 0.46334-0.38367v-2.2322c0.0025-0.20143-0.22008-0.38567-0.46334-0.38367h-17.073c-0.01403-5.34e-4 -0.02809-5.34e-4 -0.04212 0z" color="#000000" fill="url(#m)" stroke="url(#l)" stroke-linecap="square"/>
  <path d="m12 14.5h1.9995m3.0005 0h17" fill="none" opacity=".4" stroke="#fff" stroke-width="1px"/>
  <path d="m18.921 19.5c-0.22895 0.01557-0.42426 0.19346-0.42122 0.38367v2.2322c-0.0025 0.20143 0.22008 0.38567 0.46334 0.38367h17.073c0.24325 2e-3 0.46575-0.18224 0.46334-0.38367v-2.2322c0.0025-0.20143-0.22008-0.38567-0.46334-0.38367h-17.073c-0.01403-5.34e-4 -0.02809-5.34e-4 -0.04212 0z" color="#000000" fill="url(#e)" stroke="url(#d)" stroke-linecap="square"/>
  <path d="m18.445 20.001c-0.24167 0.02075-0.44783 0.25795-0.44462 0.51156v2.9763c-0.0026 0.26857 0.23231 0.51422 0.48908 0.51156h18.022c0.25677 0.0026 0.49163-0.24299 0.48908-0.51156v-2.9763c0.0026-0.26857-0.23231-0.51422-0.48908-0.51156h-18.022c-0.01481-7.12e-4 -0.02965-7.12e-4 -0.04446 0zm-4.9795 0c-0.25281 0.02075-0.46846 0.25795-0.46511 0.51156v2.9763c-0.0027 0.26857 0.24302 0.51422 0.51162 0.51156h2.9767c0.2686 0.0026 0.51429-0.24299 0.51162-0.51156v-2.9763c0.0027-0.26857-0.24302-0.51422-0.51162-0.51156h-2.9767c-0.01549-7.12e-4 -0.03101-7.12e-4 -0.04651 0z" opacity=".15"/>
  <path d="m19 20.5h17" fill="none" opacity=".4" stroke="#fff" stroke-width="1px"/>
  <path d="m14 19.5h2c0.277 0 0.5 0.223 0.5 0.5v2c0 0.277-0.223 0.5-0.5 0.5h-2c-0.277 0-0.5-0.223-0.5-0.5v-2c0-0.277 0.223-0.5 0.5-0.5zm4.9213 4.01e-4c-0.22895 0.01557-0.42426 0.19346-0.42122 0.38367v2.2322c-0.0025 0.20143 0.22008 0.38567 0.46334 0.38367h17.073c0.24325 2e-3 0.46575-0.18224 0.46334-0.38367v-2.2322c0.0025-0.20143-0.22008-0.38567-0.46334-0.38367h-17.073c-0.01403-5.34e-4 -0.02809-5.34e-4 -0.04212 0z" color="#000000" fill="url(#e)" stroke="url(#d)" stroke-linecap="square"/>
  <path d="m14 20.5h1.9995m3.0005 0h17" fill="none" opacity=".4" stroke="#fff" stroke-width="1px"/>
  <path d="m18.921 25.5c-0.22895 0.01557-0.42426 0.19346-0.42122 0.38367v2.2322c-0.0025 0.20143 0.22008 0.38567 0.46334 0.38367h17.073c0.24325 2e-3 0.46575-0.18224 0.46334-0.38367v-2.2322c0.0025-0.20143-0.22008-0.38567-0.46334-0.38367h-17.073c-0.01403-5.34e-4 -0.02809-5.34e-4 -0.04212 0z" color="#000000" fill="url(#g)" stroke="url(#f)" stroke-linecap="square"/>
  <path d="m18.445 26.001c-0.24167 0.02075-0.44783 0.25795-0.44462 0.51156v2.9763c-0.0026 0.26857 0.23231 0.51422 0.48908 0.51156h18.022c0.25677 0.0026 0.49163-0.24299 0.48908-0.51156v-2.9763c0.0026-0.26857-0.23231-0.51422-0.48908-0.51156h-18.022c-0.01481-7.12e-4 -0.02965-7.12e-4 -0.04446 0zm-4.9795 0c-0.25281 0.02075-0.46846 0.25795-0.46511 0.51156v2.9763c-0.0027 0.26857 0.24302 0.51422 0.51162 0.51156h2.9767c0.2686 0.0026 0.51429-0.24299 0.51162-0.51156v-2.9763c0.0027-0.26857-0.24302-0.51422-0.51162-0.51156h-2.9767c-0.01549-7.12e-4 -0.03101-7.12e-4 -0.04651 0z" opacity=".15"/>
  <path d="m19 26.5h17" fill="none" opacity=".4" stroke="#fff" stroke-width="1px"/>
  <path d="m14 25.5h2c0.277 0 0.5 0.223 0.5 0.5v2c0 0.277-0.223 0.5-0.5 0.5h-2c-0.277 0-0.5-0.223-0.5-0.5v-2c0-0.277 0.223-0.5 0.5-0.5zm4.9213 4.01e-4c-0.22895 0.01557-0.42426 0.19346-0.42122 0.38367v2.2322c-0.0025 0.20143 0.22008 0.38567 0.46334 0.38367h17.073c0.24325 2e-3 0.46575-0.18224 0.46334-0.38367v-2.2322c0.0025-0.20143-0.22008-0.38567-0.46334-0.38367h-17.073c-0.01403-5.34e-4 -0.02809-5.34e-4 -0.04212 0z" color="#000000" fill="url(#i)" stroke="url(#h)" stroke-linecap="square"/>
  <path d="m14 26.5h1.9995m3.0005 0h17" fill="none" opacity=".4" stroke="#fff" stroke-width="1px"/>
  <path d="m16.921 31.5c-0.22895 0.01557-0.42426 0.19346-0.42122 0.38367v2.2322c-0.0025 0.20143 0.22008 0.38567 0.46334 0.38367h17.073c0.24325 2e-3 0.46575-0.18224 0.46334-0.38367v-2.2322c0.0025-0.20143-0.22008-0.38567-0.46334-0.38367h-17.073c-0.01403-5.34e-4 -0.02809-5.34e-4 -0.04212 0z" color="#000000" fill="url(#o)" stroke="url(#n)" stroke-linecap="square"/>
  <path d="m16.445 32.001c-0.24167 0.02075-0.44783 0.25795-0.44462 0.51156v2.9763c-0.0026 0.26857 0.23231 0.51422 0.48908 0.51156h18.022c0.25677 0.0026 0.49163-0.24299 0.48908-0.51156v-2.9763c0.0026-0.26857-0.23231-0.51422-0.48908-0.51156h-18.022c-0.01481-7.12e-4 -0.02965-7.12e-4 -0.04446 0zm-4.9795 0c-0.25281 0.02075-0.46846 0.25795-0.46511 0.51156v2.9763c-0.0027 0.26857 0.24302 0.51422 0.51162 0.51156h2.9767c0.2686 0.0026 0.51429-0.24299 0.51162-0.51156v-2.9763c0.0027-0.26857-0.24302-0.51422-0.51162-0.51156h-2.9767c-0.01549-7.12e-4 -0.03101-7.12e-4 -0.04651 0z" opacity=".15"/>
  <path d="m17 32.5h17" fill="none" opacity=".4" stroke="#fff" stroke-width="1px"/>
  <path d="m12 31.5h2c0.277 0 0.5 0.223 0.5 0.5v2c0 0.277-0.223 0.5-0.5 0.5h-2c-0.277 0-0.5-0.223-0.5-0.5v-2c0-0.277 0.223-0.5 0.5-0.5zm4.9213 4e-4c-0.22895 0.01557-0.42426 0.19346-0.42122 0.38367v2.2322c-0.0025 0.20143 0.22008 0.38567 0.46334 0.38367h17.073c0.24325 2e-3 0.46575-0.18224 0.46334-0.38367v-2.2322c0.0025-0.20143-0.22008-0.38567-0.46334-0.38367h-17.073c-0.01403-5.33e-4 -0.02809-5.33e-4 -0.04212 0z" color="#000000" fill="url(#q)" stroke="url(#p)" stroke-linecap="square"/>
  <path d="m12 32.5h1.9995m3.0005 0h17" fill="none" opacity=".4" stroke="#fff" stroke-width="1px"/>
 </g>
 <path d="m6.5 1.8942c5.8015 0 20.954 0.00228 20.954 0.00228l14.046 14.33 3.6e-5 29.673h-35v-44.006z" fill="url(#a)"/>
 <rect x="19.632" y="1.8722" width="21.868" height="24.125" fill="none"/>
 <path d="m29.349 14.212c-0.04524-3.4428 0.09264-9.2334-1.8427-12.276 0 0 12.641 12.709 13.994 14.29 0 0-2.3483-1.8776-12.152-2.0143z" fill="url(#c)"/>
</svg>
