<svg width="48" height="48" version="1.1" viewBox="0 0 12.7 12.7" xmlns="http://www.w3.org/2000/svg">
 <defs>
  <linearGradient id="b" x1="25.132" x2="25.132" y1=".98521" y2="47.013" gradientTransform="matrix(.26458 0 0 .25298 4.0601e-6 -.13703)" gradientUnits="userSpaceOnUse">
   <stop stop-color="#dadada" offset="0"/>
   <stop stop-color="#fff" offset="1"/>
  </linearGradient>
  <radialGradient id="a" cx="26.53" cy="23.566" r="17.5" gradientTransform="matrix(-.45777 -.0008961 .00091613 -.46801 23.103 11.548)" gradientUnits="userSpaceOnUse">
   <stop stop-opacity=".65926" offset="0"/>
   <stop stop-color="#cecece" stop-opacity="0" offset="1"/>
  </radialGradient>
  <linearGradient id="c" x1="91.308" x2="95.182" y1="98.192" y2="102.07" gradientTransform="matrix(.14954 0 0 -.15945 -5.0754 18.727)" gradientUnits="userSpaceOnUse">
   <stop stop-color="#fcfcfc" offset="0"/>
   <stop stop-color="#c1c1c1" offset="1"/>
  </linearGradient>
 </defs>
 <path d="m1.7198 0.49534c1.535 0 5.5617 6.0324e-4 5.5617 6.0324e-4l3.6985 3.7972 1e-5 7.845h-9.2602v-11.643z" fill="none" stroke="#000" stroke-opacity=".54902" stroke-width=".26458"/>
 <path d="m1.7198 0.50116c1.535 0 5.544 6.0324e-4 5.544 6.0324e-4l3.7163 3.7914 1e-5 7.8508h-9.2602v-11.643z" fill="url(#b)" stroke-width=".26458"/>
 <rect x="3.7695" y="2.4679" width="5.1592" height=".79144" rx=".23475" ry=".18028" fill="#808080" opacity=".35" stroke-width="1.3333"/>
 <path d="m4.3649 2.8644h0.46499v0.19823h-0.46499zm0.79349 0h0.38699v0.19823h-0.38699zm0.79349 0h0.38024v0.19823h-0.38024z" fill="#808080" stroke-width="1.3333"/>
 <rect x="6.8452" y="4.7495" width="1.9845" height="1.5836" rx="0" ry="0" fill="none" stroke="#808080" stroke-width=".265"/>
 <path d="m9.5249 3.1786v8.2016m-6.879-9.2601h5.5561m-5.6234 8.3692h7.5411m-7.0447-9.4022v10.293" fill="none" stroke="#808080" stroke-width=".265"/>
 <path d="m6.7462 2.8644h0.3795v0.19823h-0.3795z" fill="#808080" stroke-width="1.3333"/>
 <path d="m3.7695 3.8518h0.42074v0.19823h-0.42074zm0.58799 0h0.41999v0.19823h-0.41999zm0.58199 0h0.2475v0.19823h-0.2475zm0.42599 0h0.41999v0.19823h-0.41999zm0.58199 0h0.82574v0.19823h-0.82499zm1.0087 0h0.80699v0.19823h-0.80699zm-3.1867 2.3751h0.63299v0.19823h-0.63299zm0.78674 0h0.43199v0.19823h-0.43199zm0.59474 0h0.23925v0.19823h-0.24zm0.41249 0h0.57749v0.19823h-0.57749zm-1.794-0.79144h0.81899v0.19749h-0.81899zm0.99899 0h0.61724v0.19749h-0.61724zm0.77774 0h0.59099v0.19749h-0.59099zm-1.7767 0.39497h1.0087v0.19823h-1.0087zm1.155 0h0.65324v0.19823h-0.65249zm0.82949 0h0.2145v0.19823h-0.2145zm-1.9845 1.5836h0.83174v0.19823h-0.83249zm0.98549 0h0.21375v0.19823h-0.21375zm0.37574 0h0.45749v0.19823h-0.45749zm0.61499 0h0.82949v0.19823h-0.82949zm0.98999 0h0.63299v0.19823h-0.63299zm0.78674 0h0.25425v0.19823h-0.25425zm-3.753-0.39572h0.62774v0.19823h-0.62774zm0.79124 0h0.83024v0.19823h-0.83024zm0.99374 0h0.42749v0.19823h-0.42749zm1.7842 0h0.22875v0.19823h-0.22875zm0.39224 0h0.44249v0.19823h-0.44249zm-1.5847 0h1.029v0.19823h-1.029zm-2.3767 0.79144h0.80774v0.19823h-0.80774zm0.95774 0h0.65099v0.19823h-0.65099zm0.81374 0h0.43574v0.19823h-0.43574zm0.59849 0h0.198v0.19823h-0.198zm0.40049 0h0.42599v0.19823h-0.42599zm0.58874 0h0.43124v0.19823h-0.43124zm0.59324 0h0.63524v0.19823h-0.63524zm-3.9524-1.1872h0.83024v0.19749h-0.83024zm0.99599 0h0.81299v0.19749h-0.81299zm0.99824 0h0.38699v0.19749h-0.38699zm-1.9942-1.9793h0.61499v0.19823h-0.61499zm0.78674 0h0.43199v0.19823h-0.43199zm0.61424 0h0.41774v0.19823h-0.41774zm0.59174 0h0.1995v0.19823h-0.1995zm-1.9927-0.39572h0.82499v0.19823h-0.82499zm0.99599 0h0.81299v0.19823h-0.81299zm0.99824 0h0.38699v0.19823h-0.38699zm-1.9942 0.79144h0.83024v0.19823h-0.83024zm0.99599 0h0.79274v0.19823h-0.79274zm0.97799 0h0.40349v0.19823h-0.40349zm2.6032 1.9793h0.61199v0.19823h-0.61199zm-0.42299-3.1665h1.0125v0.19823h-1.0125zm0.01575 3.5622h0.81149v0.19823h-0.81149zm0.58124 0.39572h0.41699v0.19823h-0.41699zm-4.7512 0.79218h0.83174v0.19823h-0.83249zm0.98549 0h0.21375v0.19823h-0.21375zm0.37574 0h0.45749v0.19823h-0.45749zm0.61499 0h0.82949v0.19823h-0.82949zm0.98999 0h0.63299v0.19823h-0.63299zm-2.9662-0.39572h0.62774v0.19749h-0.62774zm0.79124 0h0.83024v0.19749h-0.83024zm0.99374 0h0.42749v0.19749h-0.42749zm0.59174 0h1.029v0.19749h-1.029zm-2.3767 0.79144h0.80774v0.19749h-0.80774zm0.95774 0h0.65099v0.19749h-0.65099zm0.81374 0h0.43574v0.19749h-0.43574zm0.59849 0h0.198v0.19749h-0.198zm0.40049 0h0.42599v0.19749h-0.42599zm0.58874 0h0.43124v0.19749h-0.43124zm0.59324 0h0.63524v0.19749h-0.63524zm0.79874 0h0.41699v0.19749h-0.41699zm-4.7557 0.79144h0.83249v0.19823h-0.83249zm0.98549 0h0.21375v0.19823h-0.21375zm0.37574 0h0.45749v0.19823h-0.45749zm0.61499 0h0.82949v0.19823h-0.82949zm0.98999 0h0.63299v0.19823h-0.63299zm-2.9662-0.39572h0.62774v0.19823h-0.62774zm0.79124 0h0.83024v0.19823h-0.83024zm0.99374 0h0.42749v0.19823h-0.42749zm0.59099 0h1.0297v0.19823h-1.0297z" fill="#808080" stroke-width="1.3333"/>
 <g stroke-width=".26458">
  <path d="m1.7198 0.50116c1.535 0 5.544 6.0324e-4 5.544 6.0324e-4l3.7163 3.7914 1e-5 7.8508h-9.2602v-11.643z" fill="url(#a)"/>
  <rect x="5.1942" y=".49534" width="5.7858" height="6.3829" fill="none"/>
  <path d="m7.7651 3.7602c-0.01197-0.91089 0.02451-2.443-0.48754-3.248 0 0 3.3445 3.3625 3.7025 3.7808 0 0-0.62131-0.49677-3.2152-0.53294z" fill="url(#c)"/>
 </g>
</svg>
