<svg width="48" height="48" version="1.1" viewBox="0 0 12.7 12.7" xmlns="http://www.w3.org/2000/svg">
 <defs>
  <linearGradient id="c" x1="91.308" x2="95.182" y1="98.192" y2="102.07" gradientTransform="matrix(.14954 0 0 -.15945 -5.0754 18.727)" gradientUnits="userSpaceOnUse">
   <stop stop-color="#fcfcfc" offset="0"/>
   <stop stop-color="#c1c1c1" offset="1"/>
  </linearGradient>
  <radialGradient id="b" cx="26.53" cy="23.566" r="17.5" gradientTransform="matrix(-.45777 -.0008961 .00091613 -.46801 23.103 11.548)" gradientUnits="userSpaceOnUse">
   <stop stop-opacity=".65926" offset="0"/>
   <stop stop-color="#cecece" stop-opacity="0" offset="1"/>
  </radialGradient>
  <linearGradient id="a" x1="25.132" x2="25.132" y1=".98521" y2="47.013" gradientTransform="matrix(.26458 0 0 .25298 4.0601e-6 -.13703)" gradientUnits="userSpaceOnUse">
   <stop stop-color="#dadada" offset="0"/>
   <stop stop-color="#fff" offset="1"/>
  </linearGradient>
 </defs>
 <g stroke-width=".26458">
  <path d="m1.7198 0.49534c1.535 0 5.5617 6.0324e-4 5.5617 6.0324e-4l3.6985 3.7972 1e-5 7.845h-9.2602v-11.643z" fill="none" stroke="#000" stroke-opacity=".54902"/>
  <path d="m1.7198 0.50116c1.535 0 5.544 6.0324e-4 5.544 6.0324e-4l3.7163 3.7914 1e-5 7.8508h-9.2602v-11.643z" fill="url(#a)"/>
  <path d="m1.7198 0.50116c1.535 0 5.544 6.0324e-4 5.544 6.0324e-4l3.7163 3.7914 1e-5 7.8508h-9.2602v-11.643z" fill="url(#b)"/>
 </g>
 <path d="m4.83 7.6725c-0.243 0.24975-0.44475 0.399-0.72749 0.399-0.543 0-0.98324-0.453-0.98324-1.0005 0-0.23775 0.090749-0.492 0.2415-0.66675 0.1785-0.21 0.43275-0.321 0.73049-0.321 0.34125 0 0.5715 0.14025 0.77024 0.39825h0.6075c-0.1155-0.2535-0.219-0.39225-0.417-0.555-0.27-0.21825-0.615-0.3675-0.97274-0.3675-0.82949 0-1.5075 0.67875-1.5075 1.5075a1.53 1.53 0 0 0 1.5427 1.5285c0.603 0 1.1227-0.387 1.353-0.92249zm1.725-0.79349h-0.79274v0.39675h0.79424v0.79349h0.39675v-0.79349h0.79349v-0.3975h-0.79424v-0.79274h-0.3975zm2.382 0h-0.79424v0.39675h0.79424v0.79349h0.39675v-0.79349h0.79349v-0.3975h-0.79349v-0.79274h-0.3975z" fill="#8fca35" font-size="20" font-weight="600" letter-spacing="0" word-spacing="0"/>
 <rect x="5.1942" y=".49534" width="5.7858" height="6.3829" fill="none" stroke-width=".26458"/>
 <path d="m7.7651 3.7602c-0.01197-0.91089 0.02451-2.443-0.48754-3.248 0 0 3.3445 3.3625 3.7025 3.7808 0 0-0.62131-0.49677-3.2152-0.53294z" fill="url(#c)" stroke-width=".26458"/>
</svg>
