<svg width="48" height="48" xmlns="http://www.w3.org/2000/svg"><defs><linearGradient id="a" x1="25.132" x2="25.132" y1=".985" y2="47.013" gradientTransform="matrix(1 0 0 .95617 0 -.518)" gradientUnits="userSpaceOnUse"><stop stop-color="#dadada" offset="0"/><stop stop-color="#fff" offset="1"/></linearGradient><linearGradient id="c" x1="91.308" x2="95.182" y1="98.192" y2="102.07" gradientTransform="matrix(.56521 0 0 -.60266 -19.183 70.781)" gradientUnits="userSpaceOnUse"><stop stop-color="#fcfcfc" offset="0"/><stop stop-color="#c1c1c1" offset="1"/></linearGradient><radialGradient id="b" cx="26.53" cy="23.566" r="17.5" gradientTransform="matrix(-1.7302 -.00339 .00346 -1.7689 87.322 43.647)" gradientUnits="userSpaceOnUse"><stop stop-opacity=".659" offset="0"/><stop stop-color="#cecece" stop-opacity="0" offset="1"/></radialGradient></defs><path d="m6.5 1.872 21.021.002L41.5 16.226v29.651h-35V1.871z" fill="none" stroke="#000" stroke-opacity=".549"/><path d="m6.5 1.894 20.954.002L41.5 16.226V45.9h-35V1.893z" fill="url(#a)"/><path d="M27.232 20.859v.495h.33c.878 0 1.181.113 1.485.56l2.935 4.453-2.639 3.86c-.223.32-.696 1.056-2.309 1.056v.495l1.781-.067c.591 0 1.47.018 2.045.066v-.495c-.735-.015-1.022-.471-1.022-.758 0-.144.053-.187.165-.363l2.276-3.365 2.507 3.827c.032.063.099.117.099.165 0 .19-.369.478-1.056.495v.495c.56-.048 1.735-.067 2.342-.067l2.078.066v-.495h-.297c-.83 0-1.182-.098-1.517-.593l-3.364-5.08 2.177-3.2c.35-.511.92-1.04 2.341-1.056v-.495l-1.78.066a29.542 29.542 0 0 1-2.045-.065v.495c.638.015.989.358.989.725 0 .16-.02.22-.132.396l-1.847 2.672-2.045-3.068c-.032-.048-.1-.167-.1-.23 0-.193.337-.48 1.024-.496v-.495c-.56.048-1.736.066-2.343.066l-2.077-.065zm-17.186.098-.297 3.596h.396c.224-2.571.458-3.1 2.87-3.1.287 0 .697 0 .857.032.336.064.363.227.363.594v8.411c0 .543-.006.792-1.682.792h-.66v.495c.655-.048 2.3-.066 3.035-.066.735 0 2.38.018 3.034.066v-.495h-.66c-1.676 0-1.648-.249-1.648-.792v-8.41c0-.32-.024-.531.264-.595.175-.031.62-.033.923-.033 2.411 0 2.646.53 2.87 3.1h.396l-.297-3.595zm8.642 4.19v.495h.396c1.23 0 1.253.15 1.253.725v8.38c0 .574-.024.758-1.253.758h-.396V36h9.203l.693-4.123h-.429c-.4 2.46-.75 3.628-3.496 3.628h-2.111c-.75 0-.792-.133-.792-.66V30.59h1.418c1.55 0 1.748.523 1.748 1.88h.396v-4.256h-.396c0 1.373-.199 1.88-1.747 1.88h-1.42v-3.826c0-.527.042-.626.793-.626h2.045c2.443 0 2.878.847 3.133 3.067h.396l-.462-3.562z" fill="#666" font-size="15.128" font-weight="400" letter-spacing="0" word-spacing="0"/><path d="m6.5 1.894 20.954.002L41.5 16.226V45.9h-35V1.893z" fill="url(#b)"/><path fill="none" d="M19.632 1.872H41.5v24.125H19.632z"/><path d="M29.349 14.212c-.045-3.443.093-9.233-1.843-12.276 0 0 12.641 12.709 13.994 14.29 0 0-2.348-1.878-12.152-2.014z" fill="url(#c)"/></svg>