<svg xmlns="http://www.w3.org/2000/svg" viewBox="0 0 12.7 12.7" height="48" width="48"><defs><linearGradient gradientUnits="userSpaceOnUse" gradientTransform="matrix(.26458 0 0 .25298 0 -.137)" y2="47.013" y1=".985" x2="25.132" x1="25.132" id="a"><stop offset="0" stop-color="#dadada"/><stop offset="1" stop-color="#fff"/></linearGradient><linearGradient gradientUnits="userSpaceOnUse" gradientTransform="matrix(.14954 0 0 -.15945 -5.075 18.727)" y2="102.07" y1="98.192" x2="95.182" x1="91.308" id="c"><stop offset="0" stop-color="#fcfcfc"/><stop offset="1" stop-color="#c1c1c1"/></linearGradient><radialGradient gradientUnits="userSpaceOnUse" gradientTransform="matrix(-.45777 -.0009 .00092 -.46801 23.103 11.548)" r="17.5" cy="23.566" cx="26.53" id="b"><stop offset="0" stop-opacity=".659"/><stop offset="1" stop-opacity="0" stop-color="#cecece"/></radialGradient></defs><g style="stroke-width:.26458001"><path style="fill:none;stroke:#000;stroke-opacity:.54901997" d="M1.72.495h5.562l3.698 3.798v7.845H1.72V.495Z"/><path style="fill:url(#a)" d="M1.72.501h5.544l3.716 3.792v7.851H1.72V.501Z"/><path d="M6.346 3.108a4.069 2.735 0 0 0-4.069 2.735 4.069 2.735 0 0 0 4.069 2.734 4.069 2.735 0 0 0 4.068-2.734 4.069 2.735 0 0 0-4.068-2.735Zm.568 1.108a3 1.862 0 0 1 .3.01 3 1.862 0 0 1 .296.027 3 1.862 0 0 1 .29.046 3 1.862 0 0 1 .282.064 3 1.862 0 0 1 .27.081 3 1.862 0 0 1 .256.097 3 1.862 0 0 1 .239.113 3 1.862 0 0 1 .219.127 3 1.862 0 0 1 .198.14 3 1.862 0 0 1 .174.151 3 1.862 0 0 1 .15.162 3 1.862 0 0 1 .122.17 3 1.862 0 0 1 .095.176 3 1.862 0 0 1 .065.182 3 1.862 0 0 1 .036.184 3 1.862 0 0 1 .008.132 3 1.862 0 0 1-.015.186 3 1.862 0 0 1-.045.184 3 1.862 0 0 1-.074.18 3 1.862 0 0 1-.103.175 3 1.862 0 0 1-.13.168 3 1.862 0 0 1-.157.158 3 1.862 0 0 1-.182.149 3 1.862 0 0 1-.204.136 3 1.862 0 0 1-.225.123 3 1.862 0 0 1-.244.108 3 1.862 0 0 1-.26.092A3 1.862 0 0 1 8 7.813a3 1.862 0 0 1-.284.06 3 1.862 0 0 1-.293.04 3 1.862 0 0 1-.297.022 3 1.862 0 0 1-.213.005 3 1.862 0 0 1-.3-.01 3 1.862 0 0 1-.295-.027 3 1.862 0 0 1-.291-.046 3 1.862 0 0 1-.282-.064 3 1.862 0 0 1-.27-.08 3 1.862 0 0 1-.255-.098 3 1.862 0 0 1-.239-.113 3 1.862 0 0 1-.22-.127 3 1.862 0 0 1-.197-.14 3 1.862 0 0 1-.175-.15 3 1.862 0 0 1-.149-.162 3 1.862 0 0 1-.122-.17 3 1.862 0 0 1-.095-.177 3 1.862 0 0 1-.065-.181 3 1.862 0 0 1-.037-.185 3 1.862 0 0 1-.007-.132 3 1.862 0 0 1 .015-.186 3 1.862 0 0 1 .045-.184 3 1.862 0 0 1 .074-.18 3 1.862 0 0 1 .103-.175 3 1.862 0 0 1 .13-.167 3 1.862 0 0 1 .157-.16 3 1.862 0 0 1 .181-.147 3 1.862 0 0 1 .205-.136 3 1.862 0 0 1 .225-.123 3 1.862 0 0 1 .244-.109 3 1.862 0 0 1 .26-.092 3 1.862 0 0 1 .274-.076 3 1.862 0 0 1 .284-.059 3 1.862 0 0 1 .293-.04 3 1.862 0 0 1 .297-.023 3 1.862 0 0 1 .212-.005Z" style="opacity:1;fill:#c5c6ca;fill-opacity:1;stroke:none;stroke-width:.07365815;stroke-linecap:square;stroke-linejoin:round;stroke-miterlimit:10;stroke-dasharray:none;stroke-opacity:1;paint-order:markers stroke fill"/><path style="fill:url(#b)" d="M1.72.501h5.544l3.716 3.792v7.851H1.72V.501Z"/><path style="fill:none" d="M5.194.495h5.786v6.383H5.194z"/><path style="fill:url(#c)" d="M7.765 3.76c-.012-.91.025-2.443-.487-3.248 0 0 3.344 3.363 3.702 3.781 0 0-.621-.497-3.215-.533z"/></g><path d="M7.651 4.779c-.945-.006-2.025.016-2.025.016v4.572h1.38V7.555c.112-.005.316-.027.452.032.113.05.192.159.267.258.35.464.817 1.54.817 1.54h1.564l-.929-1.563c-.145-.245-.266-.37-.708-.479 2.022-.524 1.172-2.502.037-2.548-.24-.01-.54-.014-.855-.016Zm.257 1.01a.45.45 0 0 1 .15.057.37.37 0 0 1 .163.222.44.44 0 0 1-.009.266.361.361 0 0 1-.065.112.301.301 0 0 1-.24.106h-.883v-.754Z" style="fill:#7c9cc1;fill-opacity:1;stroke:none;stroke-width:.03198356px;stroke-linecap:butt;stroke-linejoin:miter;stroke-opacity:1"/></svg>