<svg width="48" height="48" xmlns="http://www.w3.org/2000/svg"><defs><linearGradient id="a" x1="25.132" x2="25.132" y1=".985" y2="47.013" gradientTransform="matrix(1 0 0 .95617 0 -.518)" gradientUnits="userSpaceOnUse"><stop stop-color="#dadada" offset="0"/><stop stop-color="#fff" offset="1"/></linearGradient><linearGradient id="c" x1="91.308" x2="95.182" y1="98.192" y2="102.07" gradientTransform="matrix(.56521 0 0 -.60266 -19.183 70.781)" gradientUnits="userSpaceOnUse"><stop stop-color="#fcfcfc" offset="0"/><stop stop-color="#c1c1c1" offset="1"/></linearGradient><radialGradient id="b" cx="26.53" cy="23.566" r="17.5" gradientTransform="matrix(-1.7302 -.00339 .00346 -1.7689 87.322 43.647)" gradientUnits="userSpaceOnUse"><stop stop-opacity=".659" offset="0"/><stop stop-color="#cecece" stop-opacity="0" offset="1"/></radialGradient></defs><path d="m6.5 1.872 21.021.002L41.5 16.226v29.651h-35V1.871z" fill="none" stroke="#000" stroke-opacity=".549"/><path d="m6.5 1.894 20.954.002L41.5 16.226V45.9h-35V1.893z" fill="url(#a)"/><path d="m6.5 1.894 20.954.002L41.5 16.226V45.9h-35V1.893z" fill="url(#b)"/><path fill="none" d="M19.632 1.872H41.5v24.125H19.632z"/><path d="M29.349 14.212c-.045-3.443.093-9.233-1.843-12.276 0 0 12.641 12.709 13.994 14.29 0 0-2.348-1.878-12.152-2.014z" fill="url(#c)"/><g fill="#575757" aria-label="INSTALL"><path d="M8.57 36.442h.794v5.86H8.57zM10.941 36.442h1.067l2.599 4.902v-4.902h.769v5.86h-1.068L11.71 37.4V42.3h-.769zM20.466 36.634v.773q-.451-.216-.852-.322-.4-.106-.773-.106-.647 0-1 .252-.35.25-.35.714 0 .388.232.588.235.197.887.318l.479.098q.886.17 1.306.597.424.424.424 1.138 0 .852-.573 1.291-.569.44-1.672.44-.416 0-.887-.095-.467-.094-.969-.278v-.816q.483.27.946.408.463.137.91.137.68 0 1.048-.267.37-.267.37-.761 0-.432-.268-.675-.263-.243-.867-.365l-.483-.094q-.887-.177-1.283-.554-.396-.376-.396-1.047 0-.778.545-1.225.55-.447 1.511-.447.412 0 .84.074.428.075.875.224zM21.243 36.442H26.2v.667h-2.08v5.192h-.797V37.11h-2.08zM28.299 37.223l-1.075 2.916h2.154zm-.447-.781h.898l2.233 5.86h-.824l-.534-1.504h-2.64l-.534 1.503h-.836zM31.839 36.442h.793v5.192h2.853v.667h-3.646zM36.317 36.442h.793v5.192h2.853v.667h-3.646z"/></g></svg>