<svg xmlns="http://www.w3.org/2000/svg" xmlns:xlink="http://www.w3.org/1999/xlink" width="48" height="48"><defs><linearGradient id="b"><stop offset="0" style="stop-color:#e7e7e7;stop-opacity:1"/><stop offset="1" style="stop-color:#dbdbdb;stop-opacity:1"/></linearGradient><linearGradient id="a"><stop style="stop-color:#f6f6f6;stop-opacity:1" offset="0"/><stop style="stop-color:#d5d3cf;stop-opacity:1" offset="1"/></linearGradient><linearGradient id="j"><stop offset="0" style="stop-color:#bbd6f6;stop-opacity:1"/><stop offset=".375" style="stop-color:#6ebff6;stop-opacity:1"/><stop style="stop-color:#50b7f6;stop-opacity:1" offset=".5"/><stop offset="1" style="stop-color:#a8d9f7;stop-opacity:1"/></linearGradient><linearGradient id="d"><stop offset="0" style="stop-color:#fff;stop-opacity:1"/><stop offset="1" style="stop-color:#dbdbdb;stop-opacity:1"/></linearGradient><linearGradient id="l"><stop offset="0" style="stop-color:#fff"/><stop offset="1" style="stop-color:#fff;stop-opacity:0"/></linearGradient><linearGradient id="m"><stop offset="0" style="stop-color:#612d15"/><stop offset="1" style="stop-color:#8a3f1e;stop-opacity:0"/></linearGradient><linearGradient id="n"><stop offset="0" style="stop-color:#ef7545"/><stop offset="1" style="stop-color:#eb5114"/></linearGradient><linearGradient id="o"><stop offset="0" style="stop-color:#f07e51"/><stop offset="1" style="stop-color:#ec5d24"/></linearGradient><linearGradient id="f"><stop offset="0" style="stop-color:#520"/><stop offset="1" style="stop-color:#520;stop-opacity:0"/></linearGradient><linearGradient id="p"><stop offset="0" style="stop-color:#e89c59"/><stop offset="1" style="stop-color:#e89c59;stop-opacity:0"/></linearGradient><linearGradient id="i"><stop offset="0" style="stop-color:#d64912"/><stop offset="1" style="stop-color:#d64912;stop-opacity:0"/></linearGradient><linearGradient id="q"><stop offset="0" style="stop-color:#ed9666"/><stop offset="1" style="stop-color:#ed9666;stop-opacity:0"/></linearGradient><linearGradient id="r"><stop offset="0" style="stop-color:#e55016"/><stop offset="1" style="stop-color:#c44c1c"/></linearGradient><linearGradient id="g"><stop offset="0" style="stop-color:#ed5012"/><stop offset="1" style="stop-color:#bc3f0e"/></linearGradient><linearGradient id="h"><stop offset="0"/><stop offset="1" style="stop-opacity:0"/></linearGradient><linearGradient id="c"><stop style="stop-color:#bbd6f6;stop-opacity:1" offset="0"/><stop style="stop-color:#6ebff6;stop-opacity:1" offset=".5"/><stop offset=".5" style="stop-color:#50b7f6;stop-opacity:1"/><stop style="stop-color:#a8d9f7;stop-opacity:1" offset="1"/></linearGradient><linearGradient id="e"><stop offset="0" style="stop-color:#fff;stop-opacity:1"/><stop offset="1" style="stop-color:#dbdbdb;stop-opacity:1"/></linearGradient><linearGradient xlink:href="#e" id="v" gradientUnits="userSpaceOnUse" gradientTransform="rotate(13.6 229.297 84.655) scale(1.43916)" x1="31.403" y1="62.075" x2="86.812" y2="101.454"/><linearGradient xlink:href="#d" id="w" gradientUnits="userSpaceOnUse" gradientTransform="translate(-784.68 -3511.637) scale(3.8378)" x1="230.88" y1="930.364" x2="230.88" y2="934.106"/><linearGradient xlink:href="#c" id="x" gradientUnits="userSpaceOnUse" gradientTransform="matrix(1.43918 0 0 1.43918 -22.416 -90.774)" x1="82" y1="106" x2="82" y2="112"/><linearGradient xlink:href="#b" id="t" gradientUnits="userSpaceOnUse" x1="5.198" y1="50.596" x2="45.822" y2="119.009" gradientTransform="matrix(.38696 0 0 .38696 .034 .009)"/><radialGradient r="145.95" gradientTransform="translate(338.17 67.963) scale(.5424)" cx="-514.13" cy="9.81" gradientUnits="userSpaceOnUse" id="k"><stop offset="0" style="stop-color:#ed8347"/><stop offset="1" style="stop-color:#e85913"/></radialGradient><radialGradient r="145.95" gradientTransform="translate(338.17 67.963) scale(.5424)" cx="-514.13" cy="9.81" gradientUnits="userSpaceOnUse" id="s"><stop offset="0" style="stop-color:#ed8246"/><stop offset=".683" style="stop-color:#ee6d2e"/><stop offset=".701" style="stop-color:#ef783d"/><stop offset="1" style="stop-color:#f07f48"/></radialGradient><radialGradient xlink:href="#a" id="u" gradientUnits="userSpaceOnUse" gradientTransform="matrix(.70564 .18908 -.14697 .54851 2.556 -13.045)" cx="19.063" cy="58.496" fx="19.063" fy="58.496" r="51.498"/></defs><g style="stroke:#000;stroke-linejoin:round;stroke-opacity:1"><path style="opacity:.02999998;fill:none;stroke:#000;stroke-width:7;stroke-linejoin:round;stroke-miterlimit:4;stroke-opacity:1;stroke-dasharray:none" d="m1.972 49.296 60.904-35.453 48.75 68.059-66.525 40.096z" transform="matrix(.37782 0 0 .37782 .577 .576)"/><path d="m1.972 49.296 60.904-35.453 48.75 68.059-66.525 40.096z" style="opacity:.02999998;fill:none;stroke:#000;stroke-width:6;stroke-linejoin:round;stroke-miterlimit:4;stroke-opacity:1;stroke-dasharray:none" transform="matrix(.37782 0 0 .37782 .577 .576)"/><path style="opacity:.02999998;fill:none;stroke:#000;stroke-width:5;stroke-linejoin:round;stroke-miterlimit:4;stroke-opacity:1;stroke-dasharray:none" d="m1.972 49.296 60.904-35.453 48.75 68.059-66.525 40.096z" transform="matrix(.37782 0 0 .37782 .577 .576)"/><path d="m1.972 49.296 60.904-35.453 48.75 68.059-66.525 40.096z" style="opacity:.02999998;fill:none;stroke:#000;stroke-width:4;stroke-linejoin:round;stroke-miterlimit:4;stroke-opacity:1;stroke-dasharray:none" transform="matrix(.37782 0 0 .37782 .577 .576)"/><path style="opacity:.02999998;fill:none;stroke:#000;stroke-width:3;stroke-linejoin:round;stroke-miterlimit:4;stroke-opacity:1;stroke-dasharray:none" d="m1.972 49.296 60.904-35.453 48.75 68.059-66.525 40.096z" transform="matrix(.37782 0 0 .37782 .577 .576)"/><path d="m1.972 49.296 60.904-35.453 48.75 68.059-66.525 40.096z" style="opacity:.02999998;fill:none;stroke:#000;stroke-width:2;stroke-linejoin:round;stroke-miterlimit:4;stroke-opacity:1;stroke-dasharray:none" transform="matrix(.37782 0 0 .37782 .577 .576)"/></g><path style="opacity:.07999998;fill:none;stroke:#000;stroke-width:.38696361;stroke-opacity:1" d="m.797 19.085 23.567-13.72L43.23 31.703 17.486 47.218z"/><path d="m.797 19.085 23.567-13.72L43.23 31.703 17.486 47.218z" style="fill:#fff;fill-opacity:1;stroke:none"/><path style="fill:url(#t);fill-opacity:1;stroke:none" d="m2.045 19.509 22.18-12.912 17.756 24.787-24.228 14.603z"/><g style="stroke:#000;stroke-linejoin:round;stroke-opacity:1"><path d="M8 18 88.996 1.996l28 94-88.996 19z" style="opacity:.02999998;fill:none;stroke:#000;stroke-width:7;stroke-linejoin:round;stroke-miterlimit:4;stroke-opacity:1;stroke-dasharray:none" transform="matrix(.37782 0 0 .37782 .577 .576)"/><path style="opacity:.02999998;fill:none;stroke:#000;stroke-width:6;stroke-linejoin:round;stroke-miterlimit:4;stroke-opacity:1;stroke-dasharray:none" d="M8 18 88.996 1.996l28 94-88.996 19z" transform="matrix(.37782 0 0 .37782 .577 .576)"/><path d="M8 18 88.996 1.996l28 94-88.996 19z" style="opacity:.02999998;fill:none;stroke:#000;stroke-width:5;stroke-linejoin:round;stroke-miterlimit:4;stroke-opacity:1;stroke-dasharray:none" transform="matrix(.37782 0 0 .37782 .577 .576)"/><path style="opacity:.02999998;fill:none;stroke:#000;stroke-width:4;stroke-linejoin:round;stroke-miterlimit:4;stroke-opacity:1;stroke-dasharray:none" d="M8 18 88.996 1.996l28 94-88.996 19z" transform="matrix(.37782 0 0 .37782 .577 .576)"/><path d="M8 18 88.996 1.996l28 94-88.996 19z" style="opacity:.02999998;fill:none;stroke:#000;stroke-width:3;stroke-linejoin:round;stroke-miterlimit:4;stroke-opacity:1;stroke-dasharray:none" transform="matrix(.37782 0 0 .37782 .577 .576)"/><path style="opacity:.02999998;fill:none;stroke:#000;stroke-width:2;stroke-linejoin:round;stroke-miterlimit:4;stroke-opacity:1;stroke-dasharray:none" d="M8 18 88.996 1.996l28 94-88.996 19z" transform="matrix(.37782 0 0 .37782 .577 .576)"/></g><path d="M3.13 6.974 34.471.781l10.835 36.375-34.438 7.352z" style="opacity:.07999998;fill:none;stroke:#000;stroke-width:.38696361;stroke-opacity:1"/><path style="fill:#fff;fill-opacity:1;stroke:none" d="M3.13 6.974 34.471.781l10.835 36.375-34.438 7.352z"/><path d="m4.29 7.837 29.617-5.852 10.239 34.372-32.543 6.948z" style="fill:url(#u);fill-opacity:1;stroke:none"/><path style="fill:#000;fill-opacity:1;stroke:none;opacity:.1" d="m28.921 15.688-.105 2.628c.323 1.91-.695 3.276-2.585 3.596l-5.513 1.31c-1.554.262-2.62 1.763-2.363 3.283l.897 5.307c.254 1.504 1.737 2.147 3.311 2.325 1.885.212 3.627.013 5.675-.96 1.361-.646 2.634-1.683 2.363-3.283l-.48-2.838 2.838-.48c1.65-.278 2.075-1.498 2.363-3.283.3-1.838-.009-3.508-.953-5.641-.68-1.536-1.66-2.604-3.312-2.325zm-1.254 13.706c.589-.1 1.15.305 1.249.888.099.584-.305 1.115-.893 1.215-.587.1-1.145-.27-1.243-.854a1.09 1.09 0 0 1 .887-1.249z"/><g style="opacity:.7;stroke:#000;stroke-linejoin:round;stroke-opacity:1"><path style="opacity:.02999998;fill:none;stroke:#000;stroke-width:6;stroke-linejoin:round;stroke-miterlimit:4;stroke-opacity:1;stroke-dasharray:none" d="M90.563 44c-8.049 9.884-15.799 20.47-22.438 30.125l14.219 3.438S90.51 66.537 94 60.936l2.188 19.97 14.75 3.562a552.29 552.29 0 0 0-6.126-37L90.563 44zM60.124 75.469c-3.064.193-5.738 2.352-6.5 5.5-.937 3.874 1.407 7.75 5.281 8.687l53.157 12.875a7.188 7.188 0 0 0 8.687-5.312c.937-3.875-1.407-7.75-5.281-8.688L62.313 75.656a7.413 7.413 0 0 0-2.188-.187zM56.281 91.75a1335.943 1335.943 0 0 0-8.406 13l15.5 3.75c1.265-2.156 2.639-4.34 4.063-6.594a345.507 345.507 0 0 0 4.03-6.25L58.25 92.47a10.234 10.234 0 0 1-1.969-.719zM97.656 102c.22 2.466.468 4.91.688 7.375.3 2.67.516 5.255.656 7.75L115 121c-.515-5.45-1.011-10.517-1.531-15.406-.015 0-.048-.03-.063-.032a9.57 9.57 0 0 1-2.031-.25L97.656 102z" transform="matrix(.38696 0 0 .38696 .034 .009)"/><path d="M90.563 44c-8.049 9.884-15.799 20.47-22.438 30.125l14.219 3.438S90.51 66.537 94 60.936l2.188 19.97 14.75 3.562a552.29 552.29 0 0 0-6.126-37L90.563 44zM60.124 75.469c-3.064.193-5.738 2.352-6.5 5.5-.937 3.874 1.407 7.75 5.281 8.687l53.157 12.875a7.188 7.188 0 0 0 8.687-5.312c.937-3.875-1.407-7.75-5.281-8.688L62.313 75.656a7.413 7.413 0 0 0-2.188-.187zM56.281 91.75a1335.943 1335.943 0 0 0-8.406 13l15.5 3.75c1.265-2.156 2.639-4.34 4.063-6.594a345.507 345.507 0 0 0 4.03-6.25L58.25 92.47a10.234 10.234 0 0 1-1.969-.719zM97.656 102c.22 2.466.468 4.91.688 7.375.3 2.67.516 5.255.656 7.75L115 121c-.515-5.45-1.011-10.517-1.531-15.406-.015 0-.048-.03-.063-.032a9.57 9.57 0 0 1-2.031-.25L97.656 102z" style="opacity:.02999998;fill:none;stroke:#000;stroke-width:5;stroke-linejoin:round;stroke-miterlimit:4;stroke-opacity:1;stroke-dasharray:none" transform="matrix(.38696 0 0 .38696 .034 .009)"/><path style="opacity:.02999998;fill:none;stroke:#000;stroke-width:4;stroke-linejoin:round;stroke-miterlimit:4;stroke-opacity:1;stroke-dasharray:none" d="M90.563 44c-8.049 9.884-15.799 20.47-22.438 30.125l14.219 3.438S90.51 66.537 94 60.936l2.188 19.97 14.75 3.562a552.29 552.29 0 0 0-6.126-37L90.563 44zM60.124 75.469c-3.064.193-5.738 2.352-6.5 5.5-.937 3.874 1.407 7.75 5.281 8.687l53.157 12.875a7.188 7.188 0 0 0 8.687-5.312c.937-3.875-1.407-7.75-5.281-8.688L62.313 75.656a7.413 7.413 0 0 0-2.188-.187zM56.281 91.75a1335.943 1335.943 0 0 0-8.406 13l15.5 3.75c1.265-2.156 2.639-4.34 4.063-6.594a345.507 345.507 0 0 0 4.03-6.25L58.25 92.47a10.234 10.234 0 0 1-1.969-.719zM97.656 102c.22 2.466.468 4.91.688 7.375.3 2.67.516 5.255.656 7.75L115 121c-.515-5.45-1.011-10.517-1.531-15.406-.015 0-.048-.03-.063-.032a9.57 9.57 0 0 1-2.031-.25L97.656 102z" transform="matrix(.38696 0 0 .38696 .034 .009)"/><path d="M90.563 44c-8.049 9.884-15.799 20.47-22.438 30.125l14.219 3.438S90.51 66.537 94 60.936l2.188 19.97 14.75 3.562a552.29 552.29 0 0 0-6.126-37L90.563 44zM60.124 75.469c-3.064.193-5.738 2.352-6.5 5.5-.937 3.874 1.407 7.75 5.281 8.687l53.157 12.875a7.188 7.188 0 0 0 8.687-5.312c.937-3.875-1.407-7.75-5.281-8.688L62.313 75.656a7.413 7.413 0 0 0-2.188-.187zM56.281 91.75a1335.943 1335.943 0 0 0-8.406 13l15.5 3.75c1.265-2.156 2.639-4.34 4.063-6.594a345.507 345.507 0 0 0 4.03-6.25L58.25 92.47a10.234 10.234 0 0 1-1.969-.719zM97.656 102c.22 2.466.468 4.91.688 7.375.3 2.67.516 5.255.656 7.75L115 121c-.515-5.45-1.011-10.517-1.531-15.406-.015 0-.048-.03-.063-.032a9.57 9.57 0 0 1-2.031-.25L97.656 102z" style="opacity:.02999998;fill:none;stroke:#000;stroke-width:3;stroke-linejoin:round;stroke-miterlimit:4;stroke-opacity:1;stroke-dasharray:none" transform="matrix(.38696 0 0 .38696 .034 .009)"/><path style="opacity:.02999998;fill:none;stroke:#000;stroke-width:2;stroke-linejoin:round;stroke-miterlimit:4;stroke-opacity:1;stroke-dasharray:none" d="M90.563 44c-8.049 9.884-15.799 20.47-22.438 30.125l14.219 3.438S90.51 66.537 94 60.936l2.188 19.97 14.75 3.562a552.29 552.29 0 0 0-6.126-37L90.563 44zM60.124 75.469c-3.064.193-5.738 2.352-6.5 5.5-.937 3.874 1.407 7.75 5.281 8.687l53.157 12.875a7.188 7.188 0 0 0 8.687-5.312c.937-3.875-1.407-7.75-5.281-8.688L62.313 75.656a7.413 7.413 0 0 0-2.188-.187zM56.281 91.75a1335.943 1335.943 0 0 0-8.406 13l15.5 3.75c1.265-2.156 2.639-4.34 4.063-6.594a345.507 345.507 0 0 0 4.03-6.25L58.25 92.47a10.234 10.234 0 0 1-1.969-.719zM97.656 102c.22 2.466.468 4.91.688 7.375.3 2.67.516 5.255.656 7.75L115 121c-.515-5.45-1.011-10.517-1.531-15.406-.015 0-.048-.03-.063-.032a9.57 9.57 0 0 1-2.031-.25L97.656 102z" transform="matrix(.38696 0 0 .38696 .034 .009)"/><path d="M90.563 44c-8.049 9.884-15.799 20.47-22.438 30.125l14.219 3.438S90.51 66.537 94 60.936l2.188 19.97 14.75 3.562a552.29 552.29 0 0 0-6.126-37L90.563 44zM60.124 75.469c-3.064.193-5.738 2.352-6.5 5.5-.937 3.874 1.407 7.75 5.281 8.687l53.157 12.875a7.188 7.188 0 0 0 8.687-5.312c.937-3.875-1.407-7.75-5.281-8.688L62.313 75.656a7.413 7.413 0 0 0-2.188-.187zM56.281 91.75a1335.943 1335.943 0 0 0-8.406 13l15.5 3.75c1.265-2.156 2.639-4.34 4.063-6.594a345.507 345.507 0 0 0 4.03-6.25L58.25 92.47a10.234 10.234 0 0 1-1.969-.719zM97.656 102c.22 2.466.468 4.91.688 7.375.3 2.67.516 5.255.656 7.75L115 121c-.515-5.45-1.011-10.517-1.531-15.406-.015 0-.048-.03-.063-.032a9.57 9.57 0 0 1-2.031-.25L97.656 102z" style="opacity:.02999998;fill:none;stroke:#000;stroke-linejoin:round;stroke-opacity:1" transform="matrix(.38696 0 0 .38696 .034 .009)"/></g><g transform="matrix(.38696 0 0 .38696 .034 .009)"><path style="fill:url(#v);fill-opacity:1;stroke:none" d="M90.55 44.008c-8.049 9.884-15.777 20.46-22.416 30.114l14.206 3.437s8.164-11.015 11.654-16.615l2.204 19.967 14.73 3.564a552.858 552.858 0 0 0-6.13-37.02l-14.25-3.447zM56.28 91.747a1331.31 1331.31 0 0 0-8.42 13.007l15.518 3.754a238.093 238.093 0 0 1 4.052-6.609 346.113 346.113 0 0 0 4.054-6.237l-13.246-3.205a10.098 10.098 0 0 1-1.958-.705zm57.134 13.822a9.534 9.534 0 0 1-2.026-.253l-13.726-3.321c.22 2.466.447 4.914.667 7.38.3 2.67.53 5.255.67 7.75L115 120.997c-.515-5.451-1.026-10.523-1.546-15.412-.015 0-.03-.01-.044-.01z"/><rect transform="rotate(13.6)" x="71.15" y="58.901" width="69.08" height="14.392" ry="7.196" style="fill:url(#w)"/><rect transform="rotate(13.6)" x="74.028" y="61.779" width="43.175" height="8.635" ry="4.318" style="color:#000;fill:url(#x)"/></g><path d="M20.85 10.186c-.97.169-1.873.412-2.665.69-2.333.822-2.617 1.784-2.347 3.385l.474 2.804-2.136.36c-1.65.28-2.924 1.483-3.064 3.403-.164 2.2.036 3.527.953 5.641.682 1.574 1.834 2.609 3.484 2.33l1.97-.333-.245-2.26c-.31-1.83 1.427-3.811 3.352-4.137l5.09-1.17c1.579-.266 2.625-1.734 2.364-3.283l-.892-5.274c-.254-1.503-1.745-2.434-3.328-2.424-1.003.006-2.04.1-3.01.268zm-2.495 2.104c.57-.096 1.11.272 1.204.827.094.552-.296 1.08-.865 1.176-.571.097-1.111-.274-1.204-.826-.094-.555.294-1.08.865-1.177z" style="fill:#000;fill-opacity:1;stroke:none;opacity:.2"/></svg>