<svg width="48" height="48" xmlns="http://www.w3.org/2000/svg" xmlns:xlink="http://www.w3.org/1999/xlink"><defs><linearGradient id="a"><stop stop-color="#f8b17e" offset="0"/><stop stop-color="#e35d4f" offset=".262"/><stop stop-color="#c6262e" offset=".661"/><stop stop-color="#690b54" offset="1"/></linearGradient><linearGradient id="b"><stop stop-color="#791235" offset="0"/><stop stop-color="#dd3b27" offset="1"/></linearGradient><linearGradient id="h" x1="25" x2="25" y1="49.945" y2="4.945" gradientTransform="matrix(.98529 0 0 1.0091 -3.03 .334)" gradientUnits="userSpaceOnUse" xlink:href="#b"/><linearGradient id="f" x1="25" x2="25" y1="49.945" y2="4.945" gradientTransform="matrix(.98529 0 0 1.0091 -3.03 .733)" gradientUnits="userSpaceOnUse" xlink:href="#b"/><linearGradient id="c" x1="25.132" x2="25.132" y1=".985" y2="47.013" gradientTransform="matrix(1 0 0 .95617 0 -.518)" gradientUnits="userSpaceOnUse"><stop stop-color="#dadada" offset="0"/><stop stop-color="#fff" offset="1"/></linearGradient><linearGradient id="i" x1="91.308" x2="95.182" y1="98.192" y2="102.07" gradientTransform="matrix(.56521 0 0 -.60266 -19.183 70.781)" gradientUnits="userSpaceOnUse"><stop stop-color="#fcfcfc" offset="0"/><stop stop-color="#c1c1c1" offset="1"/></linearGradient><radialGradient id="g" cx="9.837" cy="10.244" r="12.672" fx="9.306" gradientTransform="matrix(0 7.1404 -7.3431 0 93.723 -64.567)" gradientUnits="userSpaceOnUse" xlink:href="#a"/><radialGradient id="e" cx="9.837" cy="10.244" r="12.672" fx="9.306" gradientTransform="matrix(0 7.1404 -7.3431 0 93.723 -64.168)" gradientUnits="userSpaceOnUse" xlink:href="#a"/><radialGradient id="d" cx="26.53" cy="23.566" r="17.5" gradientTransform="matrix(-1.7302 -.00339 .00346 -1.7689 87.322 43.647)" gradientUnits="userSpaceOnUse"><stop stop-opacity=".659" offset="0"/><stop stop-color="#cecece" stop-opacity="0" offset="1"/></radialGradient></defs><path d="m6.5 1.872 21.021.002L41.5 16.226v29.651h-35V1.871z" fill="none" stroke="#000" stroke-opacity=".549"/><path d="m6.5 1.894 20.954.002L41.5 16.226V45.9h-35V1.893z" fill="url(#c)"/><path d="M11 24v1h2.344v-1zm0 4v1h2.75v-1zm0 2v1h2.938v-1zm0 2v1h2.531v-1zm0 2.156v.969h2.219v-.969zM13.75 24v1H16v-1zM11 26v1h1v-1zm3.156 2v1H16v-1zm.125 2v1H17v-1zm-.344 2v1H16v-1zm-.375 2.156v.97h2.125v-.97zM11 37v1h4.281v-1zm0 2v1h3.687v-1zm3.969 0v1h1.781v-1zm-.625 2v1h3.344v-1zM11 41h3.037v1H11zm3.406-22v1H20v-1zm.031 2v1h5.094v-1zm1.188 16v1h4.594v-1zm4.937 0v1h1.813v-1zm2.157 0v1h4.312v-1zm4.656 0v1h2.969v-1zm3.281 0v1h1.156v-1zm1.5 0v1h.688v-1zm1 0v1H35v-1zm-16.031 2v1h.813v-1zm1.031 0v1h1.625v-1zm1.875 0v1h1.625v-1zm2.125 0v1h2.594v-1zm2.906 0v1h3.375v-1zm3.844 0v1h2.281v-1zm2.563 0v1h.53v-1zm-20.47-20v1h3.063v-1zm0 2v1h3.094v-1zm0-11v1h2.376v-1zm2.688 0v1h2.25v-1zm2.563 0v1h1.968v-1zm2.28 0v1h.876v-1zm1.188 0v1h1.938v-1zM22 10v1h5v-1zm-11 2v1h3.78v-1zm4.156 0v1h1.812v-1zm2.156 0v1h.844v-1zm1.219 0v1h1.625v-1zm2 0v1h1.625v-1zm1.969 0v1h2.656v-1zm3.03 0v1H29v-1zM11 14v1h4.187v-1zm4.5 0v1H20v-1zM11 16v1h2.312v-1zm2.625 0v1h2.156v-1zm2.469 0v1H18v-1zm3.812 5v1h1.906v-1zm2.219 0v1h1.906v-1zm2.219 0v1h2.75v-1zm3.093 0v1H28v-1zM20 28v1h2.344v-1zm2.656 0v1h2.188v-1zm2.5 0v1H27v-1zM20 30v1h1.875v-1zm2.188 0v1H27v-1zm5.125 0v1H31v-1zM20 32v1h2.438v-1zm2.781 0v1h4.281v-1zm4.594 0v1h2.938v-1zM20 34.125v.969h1.875v-.969zm2.188 0v.969h1.906v-.969zm2.218 0v.969h2.72v-.969zm3.032 0v.969H28v-.969zm.875 0v.969h3.53v-.969zM19.938 41v1h2.437v-1zm2.75 0v1h2.25v-1zm2.593 0v1h1.938v-1zm2.25 0v1h3.094v-1zm3.438 0v1H36v-1z" fill="#575757"/><path d="m6.5 1.894 20.954.002L41.5 16.226V45.9h-35V1.893z" fill="url(#d)"/><path d="M34.549 36.5h-4.402v-9.652c0-1.193-.183-2.084-.549-2.676-.356-.6-.909-.901-1.66-.901-.567 0-1.043.118-1.428.354-.385.237-.693.587-.924 1.05-.23.463-.394 1.035-.49 1.715-.097.68-.145 1.458-.145 2.335V36.5h-4.402v-23h4.402l.029 8.588c.471-.857 1.073-1.473 1.804-1.848.731-.384 1.559-.576 2.482-.576.8 0 1.52.118 2.165.355a4.095 4.095 0 0 1 1.675 1.079c.461.492.817 1.123 1.068 1.892.25.759.375 1.67.375 2.734V36.5z" color="#000" fill="url(#e)" stroke="url(#f)" stroke-linejoin="round"/><path fill="none" d="M19.632 1.872H41.5v24.125H19.632z"/><path d="M11.5 33.987c0-.463.063-.852.188-1.168.134-.325.317-.586.548-.783.231-.197.5-.34.808-.429.308-.088.64-.133.996-.133.337 0 .655.045.953.133.308.089.577.232.808.429.231.197.414.458.548.783.135.316.203.705.203 1.168 0 .443-.068.823-.203 1.138a2.187 2.187 0 0 1-.548.784c-.23.207-.5.354-.808.443a3.018 3.018 0 0 1-.953.148 3.25 3.25 0 0 1-.996-.148 2.04 2.04 0 0 1-.808-.443 2.187 2.187 0 0 1-.548-.784c-.125-.315-.188-.695-.188-1.138" color="#000" fill="url(#g)" stroke="url(#h)" stroke-linejoin="round"/><path d="M29.349 14.212c-.045-3.443.093-9.233-1.843-12.276 0 0 12.641 12.709 13.994 14.29 0 0-2.348-1.878-12.152-2.014z" fill="url(#i)"/></svg>