<svg width="48" height="48" viewBox="0 0 12.7 12.7" xmlns="http://www.w3.org/2000/svg"><defs><linearGradient id="a" x1="25.132" x2="25.132" y1=".985" y2="47.013" gradientTransform="matrix(.26458 0 0 .25298 0 -.137)" gradientUnits="userSpaceOnUse"><stop stop-color="#dadada" offset="0"/><stop stop-color="#fff" offset="1"/></linearGradient><linearGradient id="c" x1="91.308" x2="95.182" y1="98.192" y2="102.07" gradientTransform="matrix(.14954 0 0 -.15945 -5.075 18.727)" gradientUnits="userSpaceOnUse"><stop stop-color="#fcfcfc" offset="0"/><stop stop-color="#c1c1c1" offset="1"/></linearGradient><radialGradient id="b" cx="26.53" cy="23.566" r="17.5" gradientTransform="matrix(-.45777 -.0009 .00092 -.46801 23.103 11.548)" gradientUnits="userSpaceOnUse"><stop stop-opacity=".659" offset="0"/><stop stop-color="#cecece" stop-opacity="0" offset="1"/></radialGradient></defs><path d="M1.72.495h5.562l3.698 3.798v7.845H1.72V.495z" fill="none" stroke="#000" stroke-opacity=".549" stroke-width=".265"/><path d="M1.72.501h5.544l3.716 3.792v7.851H1.72V.501z" fill="url(#a)"/><path d="M3.373 7.606h1.19l1.192 1.19 1.19-1.19h1.19v4.763h-1.19V9.194l-1.19 1.19-1.191-1.19v3.175h-1.19z" fill="#fcfcfc" opacity=".75" stroke="#4d4d4d" stroke-linecap="round" stroke-linejoin="round" stroke-width=".529" style="paint-order:stroke markers fill" transform="translate(0 -3.108)"/><path d="M9.326 11.178h.398v.596h.396l-.595.595-.596-.596h.398z" fill="#666" style="paint-order:stroke fill markers" transform="translate(0 -3.108)"/><path d="M3.373 7.606h1.19l1.192 1.19 1.19-1.19h1.19v4.763h-1.19V9.194l-1.19 1.19-1.191-1.19v3.175h-1.19z" fill="#fff" style="paint-order:stroke markers fill" transform="translate(0 -3.108)"/><g stroke-width=".265"><path d="M1.72.501h5.544l3.716 3.792v7.851H1.72V.501z" fill="url(#b)"/><path fill="none" d="M5.194.495h5.786v6.383H5.194z"/><path d="M7.765 3.76c-.012-.91.025-2.443-.487-3.248 0 0 3.344 3.363 3.702 3.781 0 0-.621-.497-3.215-.533z" fill="url(#c)"/></g></svg>