<svg width="48" height="48" version="1.1" xmlns="http://www.w3.org/2000/svg">
 <defs>
  <linearGradient id="b" x1="25.132" x2="25.132" y1=".98521" y2="47.013" gradientTransform="matrix(1 0 0 .95617 9.9862e-8 -.51792)" gradientUnits="userSpaceOnUse">
   <stop stop-color="#dadada" offset="0"/>
   <stop stop-color="#fff" offset="1"/>
  </linearGradient>
  <radialGradient id="a" cx="26.53" cy="23.566" r="17.5" gradientTransform="matrix(-1.7302 -.0033869 .0034626 -1.7689 87.322 43.647)" gradientUnits="userSpaceOnUse">
   <stop stop-opacity=".65926" offset="0"/>
   <stop stop-color="#cecece" stop-opacity="0" offset="1"/>
  </radialGradient>
  <linearGradient id="c" x1="91.308" x2="95.182" y1="98.192" y2="102.07" gradientTransform="matrix(.56521 0 0 -.60266 -19.183 70.781)" gradientUnits="userSpaceOnUse">
   <stop stop-color="#fcfcfc" offset="0"/>
   <stop stop-color="#c1c1c1" offset="1"/>
  </linearGradient>
 </defs>
 <path d="m6.5 1.8722c5.8015 0 21.021 0.00228 21.021 0.00228l13.979 14.352 3.6e-5 29.651h-35v-44.006z" fill="none" stroke="#000" stroke-opacity=".54902"/>
 <path d="m6.5 1.8942c5.8015 0 20.954 0.00228 20.954 0.00228l14.046 14.33 3.6e-5 29.673h-35v-44.006z" fill="url(#b)"/>
 <path d="m6.5 1.8942c5.8015 0 20.954 0.00228 20.954 0.00228l14.046 14.33 3.6e-5 29.673h-35v-44.006z" fill="url(#a)"/>
 <rect x="19.632" y="1.8722" width="21.868" height="24.125" fill="none"/>
 <path d="m29.349 14.212c-0.04524-3.4428 0.09264-9.2334-1.8427-12.276 0 0 12.641 12.709 13.994 14.29 0 0-2.3483-1.8776-12.152-2.0143z" fill="url(#c)"/>
 <g fill="#575757" stroke-width=".9417" aria-label="README">
  <path d="m11.198 39.708q0.23748 0.08038 0.46034 0.34343 0.22652 0.26305 0.45304 0.7234l0.74897 1.4906h-0.79281l-0.69782-1.3993q-0.27036-0.54803-0.5261-0.72705-0.25209-0.17902-0.69051-0.17902h-0.80377v2.3054h-0.73801v-5.4547h1.666q0.9353 0 1.3956 0.39092 0.46034 0.39093 0.46034 1.1801 0 0.51514-0.24113 0.85492-0.23748 0.33978-0.69417 0.4713zm-1.8487-2.2908v1.9364h0.92799q0.53341 0 0.80377-0.24478 0.27401-0.24844 0.27401-0.72705t-0.27401-0.71974q-0.27036-0.24479-0.80377-0.24479z"/>
  <path d="m13.81 36.811h3.4489v0.6211h-2.7109v1.6149h2.5976v0.6211h-2.5976v1.9765h2.7767v0.6211h-3.5147z"/>
  <path d="m20.361 37.538-1.0011 2.7146h2.0058zm-0.4165-0.72705h0.83665l2.0788 5.4547h-0.76724l-0.49688-1.3993h-2.4588l-0.49688 1.3993h-0.7782z"/>
  <path d="m24.395 37.417v4.2417h0.89146q1.1289 0 1.6514-0.51149 0.52611-0.51149 0.52611-1.6149 0-1.0961-0.52611-1.6039-0.52245-0.51149-1.6514-0.51149zm-0.73801-0.60648h1.5162q1.5856 0 2.3273 0.66128 0.74166 0.65763 0.74166 2.0606 0 1.4103-0.74532 2.0715t-2.3236 0.66128h-1.5162z"/>
  <path d="m29.418 36.811h1.0997l1.392 3.712 1.3993-3.712h1.0997v5.4547h-0.71974v-4.7898l-1.4066 3.7412h-0.74166l-1.4066-3.7412v4.7898h-0.71609z"/>
  <path d="m35.874 36.811h3.4489v0.6211h-2.7109v1.6149h2.5976v0.6211h-2.5976v1.9765h2.7767v0.6211h-3.5147z"/>
 </g>
</svg>
