<svg width="48" height="48" viewBox="0 0 12.7 12.7" xmlns="http://www.w3.org/2000/svg"><defs><linearGradient id="a" x1="25.132" x2="25.132" y1=".985" y2="47.013" gradientTransform="matrix(.26458 0 0 .25298 0 -.137)" gradientUnits="userSpaceOnUse"><stop stop-color="#dadada" offset="0"/><stop stop-color="#fff" offset="1"/></linearGradient><linearGradient id="c" x1="91.308" x2="95.182" y1="98.192" y2="102.07" gradientTransform="matrix(.14954 0 0 -.15945 -5.075 18.727)" gradientUnits="userSpaceOnUse"><stop stop-color="#fcfcfc" offset="0"/><stop stop-color="#c1c1c1" offset="1"/></linearGradient><radialGradient id="b" cx="26.53" cy="23.566" r="17.5" gradientTransform="matrix(-.45777 -.0009 .00092 -.46801 23.103 11.548)" gradientUnits="userSpaceOnUse"><stop stop-opacity=".659" offset="0"/><stop stop-color="#cecece" stop-opacity="0" offset="1"/></radialGradient></defs><path d="M1.72.495h5.562l3.698 3.798v7.845H1.72V.495z" fill="none" stroke="#000" stroke-opacity=".549" stroke-width=".265"/><path d="M1.72.501h5.544l3.716 3.792v7.851H1.72V.501z" fill="url(#a)"/><rect x="3.769" y="2.468" width="5.159" height=".791" rx=".235" ry=".18" fill="gray" opacity=".35"/><path d="M4.365 2.864h.465v.199h-.465zm.793 0h.387v.199h-.387zm.794 0h.38v.199h-.38z" fill="gray"/><rect x="6.845" y="4.75" width="1.984" height="1.584" rx="0" ry="0" fill="none" stroke="gray" stroke-width=".265"/><path d="M9.525 3.179v8.201m-6.88-9.26h5.557m-5.623 8.37h7.54M3.076 1.086V11.38" fill="none" stroke="gray" stroke-width=".265"/><path d="M6.746 2.864h.38v.199h-.38zM3.77 3.852h.42v.198h-.42zm.587 0h.42v.198h-.42zm.582 0h.248v.198h-.248zm.426 0h.42v.198h-.42zm.582 0h.826v.198h-.825zm1.01 0h.806v.198h-.807zM3.768 6.227h.633v.198H3.77zm.787 0h.432v.198h-.432zm.595 0h.24v.198h-.24zm.412 0h.578v.198h-.578zM3.77 5.435h.82v.198h-.82zm1 0h.617v.198h-.618zm.777 0h.591v.198h-.59zM3.77 5.83h1.01v.199h-1.01zm1.155 0h.654v.199h-.653zm.83 0h.214v.199h-.214zM3.769 7.414h.832v.198H3.77zm.986 0h.214v.198h-.214zm.376 0h.457v.198h-.457zm.615 0h.83v.198h-.83zm.99 0h.633v.198h-.633zm.786 0h.255v.198h-.255zM3.77 7.018h.628v.199H3.77zm.792 0h.83v.199h-.83zm.993 0h.428v.199h-.428zm1.785 0h.228v.199H7.34zm.392 0h.442v.199h-.442zm-1.585 0h1.03v.199h-1.03zM3.77 7.81h.808v.198H3.77zm.958 0h.651v.198h-.65zm.814 0h.436v.198H5.54zm.598 0h.198v.198H6.14zm.4 0h.427v.198H6.54zm.59 0h.43v.198h-.43zm.593 0h.635v.198h-.635zM3.769 6.623h.83v.197h-.83zm.996 0h.813v.197h-.813zm.999 0h.387v.197h-.387zm-1.995-1.98h.615v.198H3.77zm.787 0h.432v.198h-.432zm.614 0h.418v.198H5.17zm.592 0h.2v.198h-.2zM3.77 4.248h.825v.198H3.77zm.996 0h.812v.198h-.812zm.998 0h.387v.198h-.387zm-1.994.791h.83v.198h-.83zm.996 0h.792v.198h-.792zm.978 0h.403v.198h-.403zm2.603 1.98h.612v.198h-.612zm-.423-3.167h1.012v.198H7.924zm.015 3.562h.812v.198h-.812zm.582.396h.417v.198H8.52zm-4.751.792H4.6V8.8H3.77zm.985 0h.214V8.8h-.214zm.376 0h.457V8.8h-.457zm.615 0h.83V8.8h-.83zm.99 0h.633V8.8h-.633zM3.77 8.206h.627v.198H3.77zm.79 0h.831v.198h-.83zm.995 0h.427v.198h-.427zm.591 0h1.03v.198h-1.03zm-2.376.792h.807v.197H3.77zm.957 0h.651v.197h-.65zm.814 0h.436v.197H5.54zm.599 0h.198v.197H6.14zm.4 0h.426v.197H6.54zm.589 0h.431v.197h-.431zm.593 0h.635v.197h-.635zm.799 0h.417v.197H8.52zm-4.756.791h.833v.198h-.833zm.986 0h.213v.198h-.213zm.375 0h.458v.198h-.458zm.615 0h.83v.198h-.83zm.99 0h.633v.198h-.633zm-2.966-.396h.628v.199h-.628zm.791 0h.83v.199h-.83zm.994 0h.428v.199H5.55zm.591 0h1.03v.199H6.14z" fill="gray"/><g stroke-width=".265"><path d="M1.72.501h5.544l3.716 3.792v7.851H1.72V.501z" fill="url(#b)"/><path fill="none" d="M5.194.495h5.786v6.383H5.194z"/><path d="M7.765 3.76c-.012-.91.025-2.443-.487-3.248 0 0 3.344 3.363 3.702 3.781 0 0-.621-.497-3.215-.533z" fill="url(#c)"/></g></svg>