<svg width="48" height="48" viewBox="0 0 12.7 12.7" xmlns="http://www.w3.org/2000/svg"><defs><linearGradient id="a" x1="25.132" x2="25.132" y1=".985" y2="47.013" gradientTransform="matrix(.26458 0 0 .25298 0 -.137)" gradientUnits="userSpaceOnUse"><stop stop-color="#dadada" offset="0"/><stop stop-color="#fff" offset="1"/></linearGradient><linearGradient id="c" x1="91.308" x2="95.182" y1="98.192" y2="102.07" gradientTransform="matrix(.14954 0 0 -.15945 -5.075 18.727)" gradientUnits="userSpaceOnUse"><stop stop-color="#fcfcfc" offset="0"/><stop stop-color="#c1c1c1" offset="1"/></linearGradient><radialGradient id="b" cx="26.53" cy="23.566" r="17.5" gradientTransform="matrix(-.45777 -.0009 .00092 -.46801 23.103 11.548)" gradientUnits="userSpaceOnUse"><stop stop-opacity=".659" offset="0"/><stop stop-color="#cecece" stop-opacity="0" offset="1"/></radialGradient></defs><path d="M1.72.495h5.562l3.698 3.798v7.845H1.72V.495z" fill="none" stroke="#000" stroke-opacity=".549" stroke-width=".265"/><path d="M1.72.501h5.544l3.716 3.792v7.851H1.72V.501z" fill="url(#a)"/><path d="M8.944 7.427c0 .182-.033.341-.1.478a.921.921 0 0 1-.281.34c-.122.09-.27.16-.444.205a2.289 2.289 0 0 1-.582.068c-.114 0-.22-.004-.317-.012a2.192 2.192 0 0 1-.772-.189v-.781c.087.043.178.082.273.117a3.002 3.002 0 0 0 .564.153c.091.014.175.02.252.02.084 0 .157-.007.217-.02A.456.456 0 0 0 7.9 7.74a.251.251 0 0 0 .084-.1.286.286 0 0 0 .028-.123.258.258 0 0 0-.112-.224 1.196 1.196 0 0 0-.21-.13 5.85 5.85 0 0 0-.37-.18 4.043 4.043 0 0 1-.394-.201 1.206 1.206 0 0 1-.272-.227.842.842 0 0 1-.158-.282 1.232 1.232 0 0 1-.053-.38.9.9 0 0 1 .093-.422.831.831 0 0 1 .264-.305c.113-.08.25-.14.41-.18a2.16 2.16 0 0 1 .535-.061c.207 0 .403.024.59.071s.376.119.573.214l-.285.67a4.212 4.212 0 0 0-.45-.183 1.345 1.345 0 0 0-.428-.072c-.128 0-.22.023-.279.069a.227.227 0 0 0-.084.186c0 .04.008.078.022.112.015.03.044.064.087.098.044.033.104.07.183.113.078.039.18.087.307.145.147.064.279.128.397.192a1.35 1.35 0 0 1 .303.214c.085.081.15.175.195.282a.998.998 0 0 1 .07.39M4.076 9.79a2.576 2.576 0 0 1-.61-.067v-.8c.076.016.157.03.24.043.083.012.175.019.274.019.095 0 .183-.01.264-.032a.513.513 0 0 0 .356-.31.837.837 0 0 0 .053-.319v-4.4h1.01v4.37c0 .26-.038.484-.115.672a1.219 1.219 0 0 1-.8.738 2.118 2.118 0 0 1-.623.087z" color="#000" fill="#f6a651" font-size="32" font-weight="700" letter-spacing="0" stroke="#f38d20" stroke-linejoin="round" stroke-width=".265" word-spacing="0"/><g stroke-width=".265"><path d="M1.72.501h5.544l3.716 3.792v7.851H1.72V.501z" fill="url(#b)"/><path fill="none" d="M5.194.495h5.786v6.383H5.194z"/><path d="M7.765 3.76c-.012-.91.025-2.443-.487-3.248 0 0 3.344 3.363 3.702 3.781 0 0-.621-.497-3.215-.533z" fill="url(#c)"/></g></svg>