<svg width="48" height="48" xmlns="http://www.w3.org/2000/svg" xmlns:xlink="http://www.w3.org/1999/xlink"><defs><linearGradient id="b" x1="25.132" x2="25.132" y1=".985" y2="47.013" gradientTransform="matrix(1 0 0 .95617 0 -.518)" gradientUnits="userSpaceOnUse"><stop stop-color="#dadada" offset="0"/><stop stop-color="#fff" offset="1"/></linearGradient><linearGradient id="c" x1="23.586" x2="23.55" y1="9.883" y2="8.073" gradientUnits="userSpaceOnUse"><stop stop-color="#b88f00" offset="0"/><stop stop-color="#947300" offset="1"/></linearGradient><linearGradient id="d" x1="6.522" x2="7.915" y1="1.671" y2="9.811" gradientUnits="userSpaceOnUse"><stop stop-color="#ffce23" offset="0"/><stop stop-color="#dead00" offset="1"/></linearGradient><linearGradient id="e" x1="35.776" x2="108.44" y1="56.633" y2="65.105" gradientTransform="matrix(.05312 0 0 .04836 6.552 2.442)" gradientUnits="userSpaceOnUse"><stop stop-color="#fff" stop-opacity=".275" offset="0"/><stop stop-color="#fff" stop-opacity=".275" offset=".5"/><stop stop-color="#fff" stop-opacity=".471" offset="1"/></linearGradient><linearGradient id="f" x1="52.278" x2="23.595" y1="90.006" y2="90.006" gradientTransform="matrix(.05312 0 0 .04836 6.552 2.442)" gradientUnits="userSpaceOnUse" xlink:href="#a"/><linearGradient id="a"><stop stop-color="#fff" stop-opacity=".824" offset="0"/><stop stop-color="#fff" stop-opacity=".471" offset="1"/></linearGradient><linearGradient id="g" x1="53.15" x2="53.799" y1="4.69" y2="28.858" gradientTransform="matrix(.0531 .0013 -.00143 .04835 6.552 2.442)" gradientUnits="userSpaceOnUse" xlink:href="#a"/><linearGradient id="h" x1="1180.2" x2="1180.2" y1="688.53" y2="658.13" gradientUnits="userSpaceOnUse"><stop stop-color="#f09e6f" offset="0"/><stop stop-color="#f9cfb5" offset="1"/></linearGradient><linearGradient id="i" x1="1057" x2="1057" y1="-1073.6" y2="-1121.7" gradientTransform="translate(650.25 1242.2) scale(.34375)" gradientUnits="userSpaceOnUse"><stop stop-color="#c99c00" offset="0"/><stop stop-color="#876900" offset="1"/></linearGradient><linearGradient id="j" x1="1162.6" x2="1162.6" y1="901.16" y2="887.43" gradientTransform="matrix(.99041 0 0 .93163 -143.86 -1696.7)" gradientUnits="userSpaceOnUse"><stop stop-color="#f5ce53" offset="0"/><stop stop-color="#fde9a9" offset="1"/></linearGradient><linearGradient id="l" x1="91.308" x2="95.182" y1="98.192" y2="102.07" gradientTransform="matrix(.56521 0 0 -.60266 -19.183 70.781)" gradientUnits="userSpaceOnUse"><stop stop-color="#fcfcfc" offset="0"/><stop stop-color="#c1c1c1" offset="1"/></linearGradient><linearGradient id="m" x1="12.915" x2="12.915" y1="35.4" y2="42.827" gradientUnits="userSpaceOnUse"><stop stop-color="#fff" offset="0"/><stop stop-color="#f8f4e4" offset=".829"/><stop stop-color="#fcfbf8" offset="1"/></linearGradient><linearGradient id="n" x1="12.855" x2="12.855" y1="36.554" y2="41.511" gradientTransform="translate(2.277 .081)" gradientUnits="userSpaceOnUse"><stop stop-color="#dcab00" offset="0"/><stop stop-color="#bc9200" offset="1"/></linearGradient><linearGradient id="o" x1="12.855" x2="12.855" y1="36.563" y2="41.501" gradientTransform="translate(2.277 .081)" gradientUnits="userSpaceOnUse"><stop stop-color="#bc9200" offset="0"/><stop stop-color="#b08900" offset="1"/></linearGradient><radialGradient id="k" cx="26.53" cy="23.566" r="17.5" gradientTransform="matrix(-1.7302 -.00339 .00346 -1.7689 87.322 43.647)" gradientUnits="userSpaceOnUse"><stop stop-opacity=".659" offset="0"/><stop stop-color="#cecece" stop-opacity="0" offset="1"/></radialGradient></defs><path d="m6.5 1.872 21.021.002L41.5 16.226v29.651h-35V1.871z" fill="none" stroke="#000" stroke-opacity=".549"/><path d="m6.5 1.894 20.954.002L41.5 16.226V45.9h-35V1.893z" fill="url(#b)"/><path d="M6.5 2.738v3.616l.467 3.585c6.278-1.131 3.653-.702 10.207-.459 6.258.434 12.837.612 19.826 2.135L28.379 2.82l-21.88-.082z" fill="url(#c)"/><path d="M6.5 1.873v8.541C13.527 9.2 20.626 8.667 26.553 8.287c2.578-.177 4.782-.25 6.91-.281l-6.01-6.131L6.5 1.873z" fill="url(#d)"/><path d="M10.781 2.875c.218.096.367.26.375.5.012.372-.354.567-.781.563h-.188c.448.006.906.31.907.718v1.875c0 .408-.459.65-.907.657h-.812l.031.468c.018.382-.254.669-.594.75l1.406-.062c1.155-.045 2.094-.795 2.094-1.875v-1.75c0-.892-.657-1.613-1.53-1.844z" fill="url(#e)"/><path d="m8.372 5.194.236-.01c.37-.014.684.298.703.7l.085 1.76c.02.402-.266.689-.633.752 0 0-.107.022-.295.003-.496-.113-.61-.308-.64-.852l-.089-1.6c-.022-.403.263-.738.633-.753z" fill="url(#f)"/><path d="m8.343 2.687 2.04.083c.426.017.766.226.778.595v.01c.012.372-.363.561-.79.556l-2.052-.024c-.4-.004-.734-.284-.738-.547l-.002-.134c-.005-.343.338-.556.764-.539z" fill="url(#g)"/><path d="M8.344 2.688c-.427-.018-.755.188-.75.53v.157c.004.263.32.527.719.531l1.875.031c.448.007.906.312.906.72V6.53c0 .408-.458.65-.906.657h-.813l-.062-1.313c-.02-.402-.35-.702-.72-.688h-.218c-.37.015-.647.348-.625.75l.063 1.625c.03.544.16.731.656.844.188.02.281 0 .281 0 .018-.003.045.005.063 0l1.406-.062c1.154-.045 2.094-.795 2.094-1.875v-1.75c0-.834-.587-1.507-1.375-1.781-.042-.03-.106-.04-.157-.063a1.13 1.13 0 0 0-.406-.094z" fill="none" opacity=".4" stroke="#000" stroke-width=".3"/><g color="#000"><path transform="matrix(.4964 0 0 .4964 -569.263 -311.355)" d="M1201 675.5a16.5 16.5 0 1 1-33 0 16.5 16.5 0 1 1 33 0z" fill="url(#h)" stroke="#a33e03" stroke-width="2.021"/><g stroke-width=".858"><path transform="matrix(1.1701 0 0 -1.1701 -1157.8 1042.1)" fill="url(#i)" stroke="#876900" stroke-linecap="round" stroke-linejoin="round" d="M1010.5 862.14h11v11h-11z"/><path d="M1015.5-857.14h-16l8-13z" fill="url(#j)" stroke="#c99c00" stroke-linecap="round" stroke-linejoin="round" transform="translate(-1157.8 1042.1) scale(1.1701)"/><g fill="#92e285" stroke="#18a303"><path opacity=".75" d="M10.545 37.99h2.34v2.34h-2.34zM29.266 37.99h2.34v2.34h-2.34zM19.906 22.78h2.34v2.34h-2.34z" stroke-width="1.0039457999999999"/></g></g><path d="M26.81 33.31h10.612V20.439H24.551l.082 9.36 2.176 3.511z" fill="none" stroke="#876900" stroke-linecap="round" stroke-linejoin="round" stroke-width="1.1701"/></g><path d="m6.5 1.894 20.954.002L41.5 16.226V45.9h-35V1.893z" fill="url(#k)"/><path fill="none" d="M19.632 1.872H41.5v24.125H19.632z"/><path d="M29.349 14.212c-.045-3.443.093-9.233-1.843-12.276 0 0 12.641 12.709 13.994 14.29 0 0-2.348-1.878-12.152-2.014z" fill="url(#l)"/><g transform="matrix(1 0 0 .98093 0 1.121)"><rect x="-.02" y="34.198" width="25.869" height="9.831" rx="4.432" ry="4.877" opacity=".03"/><rect x=".119" y="34.319" width="25.593" height="9.589" rx="4.384" ry="4.758" opacity=".03"/><rect x=".257" y="34.439" width="25.317" height="9.348" rx="4.337" ry="4.638" opacity=".03"/><rect x=".395" y="34.543" width="25.041" height="9.141" rx="4.29" ry="4.535" opacity=".03"/><rect x=".533" y="34.647" width="24.764" height="8.933" rx="4.242" ry="4.432" opacity=".03"/><rect x=".671" y="34.733" width="24.488" height="8.761" rx="4.195" ry="4.346" opacity=".03"/><rect x=".792" y="34.802" width="24.246" height="8.623" rx="4.154" ry="4.278" opacity=".03"/><rect x=".904" y="34.903" width="24.023" height="8.421" rx="4.115" ry="4.178" opacity=".03"/><rect x="1.001" y="35.013" width="23.827" height="8.2" rx="4.082" ry="4.068" opacity=".03"/><rect x="1.139" y="35.1" width="23.551" height="8.027" rx="4.035" ry="3.982" opacity=".03"/><rect x="1.243" y="35.203" width="23.344" height="7.82" rx="3.999" ry="3.88" opacity=".03"/><rect x="1.347" y="35.29" width="23.137" height="7.647" rx="3.963" ry="3.794" opacity=".03"/></g><rect x="1.465" y="35.402" width="22.9" height="7.422" rx="3.923" ry="3.682" fill="url(#m)" opacity=".9"/><g font-family="'Lucida Grande'" letter-spacing="0" stroke-width=".2" word-spacing="0"><g fill="none" stroke="#fff" aria-label="OTG"><path d="M8.38 37.4q-.684 0-1.087.51-.4.509-.4 1.387 0 .876.4 1.385.403.51 1.087.51t1.08-.51q.4-.509.4-1.385 0-.878-.4-1.388-.397-.509-1.08-.509zm0-.51q.975 0 1.558.656.584.652.584 1.751 0 1.097-.584 1.752-.583.652-1.558.652-.979 0-1.566-.652-.583-.652-.583-1.752t.584-1.751q.586-.655 1.565-.655zM10.861 36.975h3.922v.528h-1.646v4.108h-.63v-4.108H10.86zM18.55 40.95v-1.245h-1.025v-.516h1.646v1.99q-.363.258-.801.392-.438.13-.935.13-1.087 0-1.702-.633-.611-.637-.611-1.77 0-1.137.611-1.77.615-.637 1.702-.637.453 0 .86.112.41.112.755.33V38q-.348-.295-.74-.444-.39-.15-.822-.15-.851 0-1.28.476-.425.475-.425 1.416 0 .938.425 1.413.429.475 1.28.475.332 0 .593-.056.26-.06.469-.18z"/></g><g fill="url(#n)" stroke="url(#o)" aria-label="OTG"><path d="M8.38 37.2q-.684 0-1.087.51-.4.509-.4 1.387 0 .876.4 1.385.403.51 1.087.51t1.08-.51q.4-.509.4-1.385 0-.878-.4-1.388-.397-.509-1.08-.509zm0-.51q.975 0 1.558.656.584.652.584 1.751 0 1.097-.584 1.752-.583.652-1.558.652-.979 0-1.566-.652-.583-.652-.583-1.752 0-1.099.584-1.751.586-.655 1.565-.655zM10.861 36.775h3.922v.528h-1.646v4.108h-.63v-4.108H10.86zM18.55 40.75v-1.245h-1.025v-.516h1.646v1.99q-.363.258-.801.392-.438.13-.935.13-1.087 0-1.702-.633-.611-.637-.611-1.77 0-1.137.611-1.77.615-.637 1.702-.637.453 0 .86.112.41.112.755.33v.667q-.348-.295-.74-.444-.39-.15-.822-.15-.851 0-1.28.476-.425.475-.425 1.416 0 .938.425 1.413.429.475 1.28.475.332 0 .593-.056.26-.06.469-.18z"/></g></g></svg>