<svg width="48" height="48" xmlns="http://www.w3.org/2000/svg" xmlns:xlink="http://www.w3.org/1999/xlink"><defs><linearGradient id="n" x1="42.784" x2="38.972" y1="32.537" y2="18.124" gradientTransform="matrix(1.3333 0 0 -1.3333 -16.167 70.167)" gradientUnits="userSpaceOnUse"><stop stop-color="#fcfcfc" offset="0"/><stop stop-color="#cbcdd9" offset="1"/></linearGradient><linearGradient id="o" x1="40.106" x2="33.811" y1="31.657" y2="18.354" gradientTransform="matrix(1.33 0 0 -1.33 -16.065 70.028)" gradientUnits="userSpaceOnUse"><stop stop-color="#fff" offset="0"/><stop stop-color="#fff" stop-opacity="0" offset="1"/></linearGradient><linearGradient id="b" x1="25.132" x2="25.132" y1=".985" y2="47.013" gradientTransform="matrix(1 0 0 .95617 0 -.518)" gradientUnits="userSpaceOnUse"><stop stop-color="#dadada" offset="0"/><stop stop-color="#fff" offset="1"/></linearGradient><linearGradient id="c" x1="23.586" x2="23.55" y1="9.883" y2="8.073" gradientUnits="userSpaceOnUse"><stop stop-color="#007db8" offset="0"/><stop stop-color="#006a99" offset="1"/></linearGradient><linearGradient id="d" x1="6.522" x2="7.915" y1="1.671" y2="9.811" gradientUnits="userSpaceOnUse"><stop stop-color="#45c6ef" offset="0"/><stop stop-color="#1faae5" offset="1"/></linearGradient><linearGradient id="e" x1="64.564" x2="64.274" y1="-20.655" y2="-15.841" gradientUnits="userSpaceOnUse"><stop stop-color="#fff" stop-opacity=".588" offset="0"/><stop stop-color="#fff" stop-opacity=".392" offset="1"/></linearGradient><linearGradient id="f" x1="63.315" x2="63.293" y1="18.149" y2="24.089" gradientUnits="userSpaceOnUse" xlink:href="#a"/><linearGradient id="a"><stop stop-color="#fff" stop-opacity=".824" offset="0"/><stop stop-color="#fff" stop-opacity=".471" offset="1"/></linearGradient><linearGradient id="g" x1="-61.904" x2="-61.173" y1="30.496" y2="35.136" gradientUnits="userSpaceOnUse"><stop stop-color="#fff" offset="0"/><stop stop-color="#fff" stop-opacity=".471" offset="1"/></linearGradient><linearGradient id="h" x1="-70.45" x2="-70.472" y1="-14.369" y2="-8.428" gradientUnits="userSpaceOnUse" xlink:href="#a"/><linearGradient id="i" x1="24" x2="24" y1="16.865" y2="39.135" gradientUnits="userSpaceOnUse"><stop stop-color="#b7dced" offset="0"/><stop stop-color="#99d2ed" offset="1"/></linearGradient><linearGradient id="j" x1="14.604" x2="24" y1="28" y2="39.125" gradientUnits="userSpaceOnUse"><stop stop-color="#759fc0" offset="0"/><stop stop-color="#5a90ba" offset="1"/></linearGradient><linearGradient id="l" x1="91.308" x2="95.182" y1="98.192" y2="102.07" gradientTransform="matrix(.56521 0 0 -.60266 -19.183 70.781)" gradientUnits="userSpaceOnUse"><stop stop-color="#fcfcfc" offset="0"/><stop stop-color="#c1c1c1" offset="1"/></linearGradient><radialGradient id="m" cx="605.71" cy="486.65" r="117.14" gradientTransform="matrix(.02304 0 0 .0147 26.361 36.963)" gradientUnits="userSpaceOnUse"><stop offset="0"/><stop stop-opacity="0" offset="1"/></radialGradient><radialGradient id="k" cx="26.53" cy="23.566" r="17.5" gradientTransform="matrix(-1.7302 -.00339 .00346 -1.7689 87.322 43.647)" gradientUnits="userSpaceOnUse"><stop stop-opacity=".659" offset="0"/><stop stop-color="#cecece" stop-opacity="0" offset="1"/></radialGradient></defs><path d="m6.5 1.872 21.021.002L41.5 16.226v29.651h-35V1.871z" fill="none" stroke="#000" stroke-opacity=".549"/><path d="m6.5 1.894 20.954.002L41.5 16.226V45.9h-35V1.893z" fill="url(#b)"/><path d="M6.5 2.738v3.616l.467 3.585c6.278-1.131 3.653-.702 10.207-.459 6.258.434 12.837.612 19.826 2.135L28.379 2.82l-21.88-.082z" fill="url(#c)"/><path d="M6.5 1.873v8.541C13.527 9.2 20.626 8.667 26.553 8.287c2.578-.177 4.782-.25 6.91-.281l-6.01-6.131L6.5 1.873z" fill="url(#d)"/><g transform="translate(-58.336)"><rect transform="matrix(.93705 .34919 -.44773 .89417 0 0)" x="63.717" y="-20.688" width="1.404" height="4.88" rx=".702" ry=".693" fill="url(#e)"/><rect transform="matrix(.9721 -.23457 .26246 .96494 0 0)" x="62.553" y="18.152" width="1.502" height="5.934" rx=".751" ry=".842" fill="url(#f)"/><rect transform="matrix(-.92215 .38683 .40641 .91369 0 0)" x="-62.233" y="30.453" width="1.267" height="4.776" rx=".634" ry=".678" fill="url(#g)"/><rect transform="matrix(-.9721 -.23457 -.26246 .96494 0 0)" x="-71.211" y="-14.363" width="1.501" height="5.93" rx=".75" ry=".842" fill="url(#h)"/></g><path d="M7.963 2.66c-.405.098-.623.55-.5 1l1.093 4.095a.945.945 0 0 0 .313.468c.041.035.079.069.125.094.033.02.055.048.094.063.02.007.042-.006.062 0 .022.006.04.026.063.03.051.01.104.002.156 0 .05 0 .106.013.156 0 .039-.008.059-.046.094-.062.008-.003.023.004.031 0a.716.716 0 0 0 .406-.343l1-1.97.813 1.813a.68.68 0 0 0 .375.47c.014.007.016.024.031.03.03.012.062.024.094.032.019.005.043-.004.062 0 .107.016.212.031.313 0 .01-.004.021.004.031 0 .029-.01.035-.05.063-.063.025-.015.07-.012.093-.031a.945.945 0 0 0 .375-.531l1.125-4.094c.123-.45-.096-.903-.5-1s-.846.206-.968.656l-.657 2.438-.593-1.375a.72.72 0 0 0-.157-.22c-.02-.02-.04-.044-.062-.062-.062-.048-.146-.07-.219-.093-.07-.024-.145-.065-.219-.063a.81.81 0 0 0-.75.438l-.718 1.437-.688-2.5c-.122-.45-.533-.754-.937-.656z" fill="none" opacity=".4" stroke="#000" stroke-width=".3"/><path d="M10.156 13.125v1h27.688v-1zm0 4v1h27.562v-1zm0 3.938v1h27.625v-1zm0 4v1h27.656v-1zm0 4v1h27.625v-1zm0 4v1h27.656v-1zm0 4.062v1h27.688v-1zm0 4v1h27.562v-1z" fill="#bdc7cd"/><g font-family="'Times New Roman'" font-weight="500" letter-spacing="0" stroke-width=".5" word-spacing="0"><text x="12.955" y="38.935" fill="none" stroke="#fff" style="line-height:0%" xml:space="preserve"><tspan x="12.955" y="38.935" font-size="46.259" style="line-height:1.25">a</tspan></text><text x="12.955" y="38.435" fill="url(#i)" opacity=".9" stroke="url(#j)" style="line-height:0%" xml:space="preserve"><tspan x="12.955" y="38.435" font-size="46.259" style="line-height:1.25">a</tspan></text></g><path d="m6.5 1.894 20.954.002L41.5 16.226V45.9h-35V1.893z" fill="url(#k)"/><path fill="none" d="M19.632 1.872H41.5v24.125H19.632z"/><path d="M29.349 14.212c-.045-3.443.093-9.233-1.843-12.276 0 0 12.641 12.709 13.994 14.29 0 0-2.348-1.878-12.152-2.014z" fill="url(#l)"/><path d="M40.246 42.353v3.57c1.187.007 2.868-.8 2.868-1.785 0-.986-1.324-1.785-2.868-1.785z" fill="url(#m)" opacity=".3" transform="translate(-2)"/><path d="m24.5 45.5 20-20v20zm9.333-4H40.5v-6.667z" fill="url(#n)" fill-rule="evenodd" opacity=".8" stroke="#83899a" transform="translate(-2)"/><path d="m27.451 44.218 15.794-15.794v15.794z" fill="none" opacity=".4" stroke="url(#o)" transform="translate(-2)"/><path d="M27.5 44.346V45.5M32.5 44.346V45.5M37.5 44.346V45.5M42.5 35.423h-1M42.5 40.423h-1M42.5 30.423h-1" fill="none" opacity=".6" stroke="#83899a" stroke-linecap="square"/></svg>