<svg width="48" height="48" xmlns="http://www.w3.org/2000/svg" xmlns:xlink="http://www.w3.org/1999/xlink"><defs><linearGradient id="a"><stop stop-color="#fff" stop-opacity=".824" offset="0"/><stop stop-color="#fff" stop-opacity=".471" offset="1"/></linearGradient><linearGradient id="o" x1="12.915" x2="12.915" y1="35.4" y2="42.827" gradientUnits="userSpaceOnUse"><stop stop-color="#fff" offset="0"/><stop stop-color="#e9f4f9" offset=".829"/><stop stop-color="#f4fafd" offset="1"/></linearGradient><linearGradient id="b" x1="12.855" x2="12.855" y1="36.554" y2="41.511" gradientTransform="translate(.06 .081)" gradientUnits="userSpaceOnUse"><stop stop-color="#3193bb" offset="0"/><stop stop-color="#3083a5" offset="1"/></linearGradient><linearGradient id="c" x1="12.855" x2="12.855" y1="36.563" y2="41.501" gradientTransform="translate(.06 .081)" gradientUnits="userSpaceOnUse"><stop stop-color="#1179a8" offset="0"/><stop stop-color="#0d698f" offset="1"/></linearGradient><linearGradient id="f" x1="6.522" x2="7.915" y1="1.671" y2="9.811" gradientUnits="userSpaceOnUse"><stop stop-color="#45c6ef" offset="0"/><stop stop-color="#1faae5" offset="1"/></linearGradient><linearGradient id="e" x1="23.586" x2="23.55" y1="9.883" y2="8.073" gradientUnits="userSpaceOnUse"><stop stop-color="#007db8" offset="0"/><stop stop-color="#006a99" offset="1"/></linearGradient><linearGradient id="k" x1="24" x2="24" y1="16.865" y2="39.135" gradientUnits="userSpaceOnUse"><stop stop-color="#b7dced" offset="0"/><stop stop-color="#99d2ed" offset="1"/></linearGradient><linearGradient id="l" x1="14.604" x2="24" y1="28" y2="39.125" gradientUnits="userSpaceOnUse"><stop stop-color="#759fc0" offset="0"/><stop stop-color="#5a90ba" offset="1"/></linearGradient><linearGradient id="g" x1="64.564" x2="64.274" y1="-20.655" y2="-15.841" gradientUnits="userSpaceOnUse"><stop stop-color="#fff" stop-opacity=".588" offset="0"/><stop stop-color="#fff" stop-opacity=".392" offset="1"/></linearGradient><linearGradient id="h" x1="63.315" x2="63.293" y1="18.149" y2="24.089" gradientUnits="userSpaceOnUse" xlink:href="#a"/><linearGradient id="i" x1="-61.904" x2="-61.173" y1="30.496" y2="35.136" gradientUnits="userSpaceOnUse"><stop stop-color="#fff" offset="0"/><stop stop-color="#fff" stop-opacity=".471" offset="1"/></linearGradient><linearGradient id="j" x1="-70.45" x2="-70.472" y1="-14.369" y2="-8.428" gradientUnits="userSpaceOnUse" xlink:href="#a"/><linearGradient id="d" x1="25.132" x2="25.132" y1=".985" y2="47.013" gradientTransform="matrix(1 0 0 .95617 0 -.518)" gradientUnits="userSpaceOnUse"><stop stop-color="#dadada" offset="0"/><stop stop-color="#fff" offset="1"/></linearGradient><linearGradient id="n" x1="91.308" x2="95.182" y1="98.192" y2="102.07" gradientTransform="matrix(.56521 0 0 -.60266 -19.183 70.781)" gradientUnits="userSpaceOnUse"><stop stop-color="#fcfcfc" offset="0"/><stop stop-color="#c1c1c1" offset="1"/></linearGradient><linearGradient id="p" x1="12.855" x2="12.855" y1="36.554" y2="41.511" gradientTransform="translate(.06 .081)" gradientUnits="userSpaceOnUse" xlink:href="#b"/><linearGradient id="q" x1="12.855" x2="12.855" y1="36.563" y2="41.501" gradientTransform="translate(.06 .081)" gradientUnits="userSpaceOnUse" xlink:href="#c"/><radialGradient id="m" cx="26.53" cy="23.566" r="17.5" gradientTransform="matrix(-1.7302 -.00339 .00346 -1.7689 87.322 43.647)" gradientUnits="userSpaceOnUse"><stop stop-opacity=".659" offset="0"/><stop stop-color="#cecece" stop-opacity="0" offset="1"/></radialGradient></defs><path d="m6.5 1.872 21.021.002L41.5 16.226v29.651h-35V1.871z" fill="none" stroke="#000" stroke-opacity=".549"/><path d="m6.5 1.894 20.954.002L41.5 16.226V45.9h-35V1.893z" fill="url(#d)"/><path d="M6.5 2.738v3.616l.467 3.585c6.278-1.131 3.653-.702 10.207-.459 6.258.434 12.837.612 19.826 2.135L28.379 2.82l-21.88-.082z" fill="url(#e)"/><path d="M6.5 1.873v8.541C13.527 9.2 20.626 8.667 26.553 8.287c2.578-.177 4.782-.25 6.91-.281l-6.01-6.131L6.5 1.873z" fill="url(#f)"/><g transform="translate(-58.336)"><rect transform="matrix(.93705 .34919 -.44773 .89417 0 0)" x="63.717" y="-20.688" width="1.404" height="4.88" rx=".702" ry=".693" fill="url(#g)"/><rect transform="matrix(.9721 -.23457 .26246 .96494 0 0)" x="62.553" y="18.152" width="1.502" height="5.934" rx=".751" ry=".842" fill="url(#h)"/><rect transform="matrix(-.92215 .38683 .40641 .91369 0 0)" x="-62.233" y="30.453" width="1.267" height="4.776" rx=".634" ry=".678" fill="url(#i)"/><rect transform="matrix(-.9721 -.23457 -.26246 .96494 0 0)" x="-71.211" y="-14.363" width="1.501" height="5.93" rx=".75" ry=".842" fill="url(#j)"/></g><path d="M7.963 2.66c-.405.098-.623.55-.5 1l1.093 4.095a.945.945 0 0 0 .313.468c.041.035.079.069.125.094.033.02.055.048.094.063.02.007.042-.006.062 0 .022.006.04.026.063.03.051.01.104.002.156 0 .05 0 .106.013.156 0 .039-.008.059-.046.094-.062.008-.003.023.004.031 0a.716.716 0 0 0 .406-.343l1-1.97.813 1.813a.68.68 0 0 0 .375.47c.014.007.016.024.031.03.03.012.062.024.094.032.019.005.043-.004.062 0 .107.016.212.031.313 0 .01-.004.021.004.031 0 .029-.01.035-.05.063-.063.025-.015.07-.012.093-.031a.945.945 0 0 0 .375-.531l1.125-4.094c.123-.45-.096-.903-.5-1s-.846.206-.968.656l-.657 2.438-.593-1.375a.72.72 0 0 0-.157-.22c-.02-.02-.04-.044-.062-.062-.062-.048-.146-.07-.219-.093-.07-.024-.145-.065-.219-.063a.81.81 0 0 0-.75.438l-.718 1.437-.688-2.5c-.122-.45-.533-.754-.937-.656z" fill="none" opacity=".4" stroke="#000" stroke-width=".3"/><path d="M10.156 13.125v1h27.688v-1zm0 4v1h27.562v-1zm0 3.938v1h27.625v-1zm0 4v1h27.656v-1zm0 4v1h27.625v-1zm0 4v1h27.656v-1zm0 4.062v1h27.688v-1zm0 4v1h27.562v-1z" fill="#bdc7cd"/><g font-family="'Times New Roman'" font-weight="500" letter-spacing="0" stroke-width=".5" word-spacing="0"><text x="12.955" y="38.935" fill="none" stroke="#fff" style="line-height:0%" xml:space="preserve"><tspan x="12.955" y="38.935" font-size="46.259" style="line-height:1.25">a</tspan></text><text x="12.955" y="38.435" fill="url(#k)" opacity=".9" stroke="url(#l)" style="line-height:0%" xml:space="preserve"><tspan x="12.955" y="38.435" font-size="46.259" style="line-height:1.25">a</tspan></text></g><path d="m6.5 1.894 20.954.002L41.5 16.226V45.9h-35V1.893z" fill="url(#m)"/><path fill="none" d="M19.632 1.872H41.5v24.125H19.632z"/><path d="M29.349 14.212c-.045-3.443.093-9.233-1.843-12.276 0 0 12.641 12.709 13.994 14.29 0 0-2.348-1.878-12.152-2.014z" fill="url(#n)"/><g transform="matrix(1 0 0 .98093 0 1.121)"><rect x="-.02" y="34.198" width="25.869" height="9.831" rx="4.432" ry="4.877" opacity=".03"/><rect x=".119" y="34.319" width="25.593" height="9.589" rx="4.384" ry="4.758" opacity=".03"/><rect x=".257" y="34.439" width="25.317" height="9.348" rx="4.337" ry="4.638" opacity=".03"/><rect x=".395" y="34.543" width="25.041" height="9.141" rx="4.29" ry="4.535" opacity=".03"/><rect x=".533" y="34.647" width="24.764" height="8.933" rx="4.242" ry="4.432" opacity=".03"/><rect x=".671" y="34.733" width="24.488" height="8.761" rx="4.195" ry="4.346" opacity=".03"/><rect x=".792" y="34.802" width="24.246" height="8.623" rx="4.154" ry="4.278" opacity=".03"/><rect x=".904" y="34.903" width="24.023" height="8.421" rx="4.115" ry="4.178" opacity=".03"/><rect x="1.001" y="35.013" width="23.827" height="8.2" rx="4.082" ry="4.068" opacity=".03"/><rect x="1.139" y="35.1" width="23.551" height="8.027" rx="4.035" ry="3.982" opacity=".03"/><rect x="1.243" y="35.203" width="23.344" height="7.82" rx="3.999" ry="3.88" opacity=".03"/><rect x="1.347" y="35.29" width="23.137" height="7.647" rx="3.963" ry="3.794" opacity=".03"/></g><rect x="1.465" y="35.402" width="22.9" height="7.422" rx="3.923" ry="3.682" fill="url(#o)" opacity=".9"/><g fill="none" stroke="#fff" stroke-width=".2"><path d="M4.908 37.49v3.605h.758q.96 0 1.403-.434.447-.435.447-1.373 0-.932-.447-1.363-.444-.435-1.403-.435zm-.627-.515h1.288q1.348 0 1.978.562.63.559.63 1.751 0 1.199-.633 1.76-.633.563-1.975.563H4.281zM11.06 37.4q-.683 0-1.087.51-.4.509-.4 1.387 0 .876.4 1.385.404.51 1.087.51t1.08-.51q.401-.509.401-1.385 0-.878-.4-1.388-.398-.509-1.081-.509zm0-.51q.975 0 1.559.656.584.652.584 1.751 0 1.097-.584 1.752-.584.652-1.559.652-.978 0-1.565-.652-.584-.652-.584-1.752t.584-1.751q.587-.655 1.565-.655zM17.655 37.332v.661q-.317-.295-.677-.44-.357-.146-.76-.146-.796 0-1.218.487-.422.485-.422 1.404 0 .916.422 1.403.422.485 1.217.485.404 0 .761-.146.36-.146.677-.441v.655q-.33.224-.699.335-.366.112-.776.112-1.053 0-1.658-.643-.606-.646-.606-1.76 0-1.118.606-1.761.605-.646 1.658-.646.416 0 .783.112.369.109.692.329zM18.401 36.975h.674l1.152 1.724 1.158-1.724h.674l-1.49 2.227 1.59 2.41h-.674l-1.305-1.973-1.313 1.972h-.677l1.655-2.475z"/></g><g fill="url(#p)" stroke="url(#q)" stroke-width=".2"><path d="M4.908 37.29v3.605h.758q.96 0 1.403-.434.447-.435.447-1.373 0-.932-.447-1.363-.444-.435-1.403-.435zm-.627-.515h1.288q1.348 0 1.978.562.63.559.63 1.751 0 1.199-.633 1.76-.633.563-1.975.563H4.281zM11.06 37.2q-.683 0-1.087.51-.4.509-.4 1.387 0 .876.4 1.385.404.51 1.087.51t1.08-.51q.401-.509.401-1.385 0-.878-.4-1.388-.398-.509-1.081-.509zm0-.51q.975 0 1.559.656.584.652.584 1.751 0 1.097-.584 1.752-.584.652-1.559.652-.978 0-1.565-.652-.584-.652-.584-1.752 0-1.099.584-1.751.587-.655 1.565-.655zM17.655 37.132v.661q-.317-.295-.677-.44-.357-.146-.76-.146-.796 0-1.218.487-.422.485-.422 1.404 0 .916.422 1.403.422.485 1.217.485.404 0 .761-.146.36-.146.677-.441v.655q-.33.224-.699.335-.366.112-.776.112-1.053 0-1.658-.643-.606-.646-.606-1.76 0-1.118.606-1.761.605-.646 1.658-.646.416 0 .783.112.369.109.692.329zM18.401 36.775h.674l1.152 1.724 1.158-1.724h.674l-1.49 2.227 1.59 2.41h-.674l-1.305-1.973-1.313 1.972h-.677l1.655-2.475z"/></g></svg>