<svg width="48" height="48" xmlns="http://www.w3.org/2000/svg" xmlns:xlink="http://www.w3.org/1999/xlink"><defs><linearGradient id="i" x1="91.308" x2="95.182" y1="98.192" y2="102.07" gradientTransform="matrix(0 -.56521 .60266 0 -22.844 67.169)" gradientUnits="userSpaceOnUse"><stop stop-color="#fcfcfc" offset="0"/><stop stop-color="#c1c1c1" offset="1"/></linearGradient><linearGradient id="b" x1="41.542" x2="8.722" y1="23.999" y2="23.999" gradientTransform="matrix(0 -1 -.95617 0 48.415 47.933)" gradientUnits="userSpaceOnUse"><stop stop-color="#dadada" offset="0"/><stop stop-color="#fff" offset="1"/></linearGradient><linearGradient id="j" x1="12.915" x2="12.915" y1="35.4" y2="42.827" gradientTransform="translate(2.011 -4.405)" gradientUnits="userSpaceOnUse"><stop stop-color="#fff" offset="0"/><stop stop-color="#fff2e6" offset=".829"/><stop stop-color="#fff9f3" offset="1"/></linearGradient><linearGradient id="g" x1="6.522" x2="7.915" y1="1.671" y2="9.811" gradientTransform="translate(-4.503 4.628)" gradientUnits="userSpaceOnUse"><stop stop-color="#fb9459" offset="0"/><stop stop-color="#fa8144" offset="1"/></linearGradient><linearGradient id="f" x1="23.586" x2="23.55" y1="9.883" y2="8.073" gradientTransform="translate(-4.503 4.628)" gradientUnits="userSpaceOnUse"><stop stop-color="#c04727" offset="0"/><stop stop-color="#a23a1d" offset="1"/></linearGradient><linearGradient id="m" x1="-66.444" x2="-69.706" y1="114.35" y2="82.255" gradientTransform="matrix(.03616 -.0031 .00295 .03618 20.474 3.91)" gradientUnits="userSpaceOnUse"><stop stop-color="#fff" stop-opacity=".588" offset="0"/><stop stop-color="#fff" stop-opacity=".392" offset="1"/></linearGradient><linearGradient id="n" x1="2.8" x2="2.8" y1="2.569" y2="8.314" gradientTransform="translate(14.469)" gradientUnits="userSpaceOnUse" xlink:href="#a"/><linearGradient id="a"><stop stop-color="#fff" stop-opacity=".824" offset="0"/><stop stop-color="#fff" stop-opacity=".471" offset="1"/></linearGradient><linearGradient id="o" x1="59.5" x2="59.5" y1="7.809" y2="133.89" gradientUnits="userSpaceOnUse" xlink:href="#a"/><linearGradient id="c" x1="20.681" x2="37.254" y1="77.831" y2="77.831" gradientTransform="translate(0 -48.144)" gradientUnits="userSpaceOnUse"><stop stop-color="#fff" offset="0"/><stop stop-color="#f1f1f1" offset="1"/></linearGradient><linearGradient id="d" x1="28.943" x2="28.943" y1="73.654" y2="82.014" gradientTransform="translate(0 -48.144)" gradientUnits="userSpaceOnUse"><stop stop-color="#3793db" offset="0"/><stop stop-color="#83e1f5" offset="1"/></linearGradient><linearGradient id="e" x1="28.955" x2="28.955" y1="57.972" y2="65.696" gradientTransform="translate(0 -32.144)" gradientUnits="userSpaceOnUse"><stop stop-color="#fff" offset="0"/><stop stop-color="#fff" stop-opacity=".809" offset=".082"/><stop stop-color="#fff" stop-opacity=".66" offset=".487"/><stop stop-color="#fff" stop-opacity=".531" offset=".528"/><stop stop-color="#fff" stop-opacity=".725" offset="1"/></linearGradient><linearGradient id="k" x1="12.855" x2="12.855" y1="36.554" y2="41.511" gradientTransform="translate(3.995 -4.323)" gradientUnits="userSpaceOnUse"><stop stop-color="#ff7b44" offset="0"/><stop stop-color="#c76238" offset="1"/></linearGradient><linearGradient id="l" x1="12.855" x2="12.855" y1="36.563" y2="41.501" gradientTransform="translate(3.995 -4.323)" gradientUnits="userSpaceOnUse"><stop stop-color="#cb643a" offset="0"/><stop stop-color="#b15a35" offset="1"/></linearGradient><radialGradient id="h" cx="26.53" cy="23.566" r="17.5" gradientTransform="matrix(-1.7302 -.00339 .00346 -1.7689 91.516 48.25)" gradientUnits="userSpaceOnUse"><stop stop-opacity=".659" offset="0"/><stop stop-color="#cecece" stop-opacity="0" offset="1"/></radialGradient></defs><path d="m46.003 41.5-.002-21.021L31.649 6.5H1.998v35h44.006z" fill="none" stroke="#000" stroke-opacity=".549"/><path d="m46.003 41.433-.002-20.954L31.67 6.433H1.998v35h44.006z" fill="url(#b)"/><g transform="translate(.031 .294)"><g transform="translate(-10 -4)"><path d="M21.395 21.875a1.15 1.15 0 0 0-1.153 1.149v13.365c0 .636.515 1.15 1.153 1.15h15.148a1.15 1.15 0 0 0 1.153-1.15V23.024a1.15 1.15 0 0 0-1.153-1.15H21.395zm1.02 3.415h13.042c.381 0 .691.31.691.69v7.454c0 .38-.31.69-.691.69H22.416a.691.691 0 0 1-.692-.69v-7.455c0-.38.31-.69.692-.69z" opacity=".03"/><path d="M21.448 21.93c-.633 0-1.145.51-1.145 1.14v13.272c0 .632.512 1.142 1.145 1.142H36.49c.633 0 1.145-.51 1.145-1.142V23.071c0-.632-.512-1.142-1.145-1.142H21.448zm1.014 3.39H35.41c.378 0 .686.308.686.685v7.402a.686.686 0 0 1-.686.685H22.46a.686.686 0 0 1-.686-.685v-7.402c0-.377.308-.684.687-.684z" opacity=".03"/><path d="M21.501 21.984c-.629 0-1.136.506-1.136 1.133v13.177c0 .628.507 1.134 1.136 1.134h14.935c.629 0 1.136-.506 1.136-1.134V23.117c0-.627-.507-1.133-1.136-1.133H21.501zm1.006 3.367h12.857c.376 0 .682.305.682.68v7.35c0 .375-.306.68-.681.68H22.506a.682.682 0 0 1-.681-.68v-7.35c0-.375.306-.68.682-.68z" opacity=".03"/><path d="M21.554 22.04c-.624 0-1.128.503-1.128 1.125v13.083c0 .623.504 1.126 1.128 1.126h14.829c.624 0 1.128-.503 1.128-1.126V23.165c0-.622-.504-1.125-1.128-1.125H21.554zm1 3.343h12.764c.374 0 .677.303.677.675v7.297a.677.677 0 0 1-.677.675H22.553a.677.677 0 0 1-.677-.675v-7.297c0-.372.304-.675.677-.675z" opacity=".03"/><path d="M21.608 22.095c-.62 0-1.12.499-1.12 1.117v12.99c0 .618.5 1.116 1.12 1.116H36.33c.62 0 1.12-.498 1.12-1.117V23.212c0-.618-.5-1.117-1.12-1.117H21.608zm.992 3.32h12.674c.37 0 .672.3.672.67v7.244c0 .37-.301.67-.672.67H22.6c-.37 0-.672-.3-.672-.67v-7.245c0-.37.302-.67.672-.67z" opacity=".03"/><path d="M21.66 22.15c-.616 0-1.112.495-1.112 1.109v12.895c0 .614.497 1.11 1.112 1.11h14.617c.616 0 1.112-.496 1.112-1.11V23.26c0-.614-.497-1.11-1.112-1.11H21.66zm.985 3.295h12.583c.368 0 .667.299.667.666v7.192c0 .367-.299.666-.667.666H22.645a.667.667 0 0 1-.667-.666v-7.192c0-.367.3-.666.667-.666z" opacity=".03"/><path d="M21.717 22.208a1.1 1.1 0 0 0-1.103 1.1v12.796a1.1 1.1 0 0 0 1.103 1.1h14.504a1.1 1.1 0 0 0 1.103-1.1V23.308a1.1 1.1 0 0 0-1.103-1.1H21.717zm.977 3.27H35.18c.366 0 .663.296.663.66v7.137c0 .364-.297.66-.663.66H22.694a.662.662 0 0 1-.662-.66v-7.137c0-.364.297-.66.662-.66z" opacity=".03"/><path d="M21.781 22.231c-.605 0-1.094.488-1.094 1.094v12.719c0 .605.489 1.094 1.094 1.094h14.375c.605 0 1.094-.489 1.094-1.094v-12.72c0-.605-.489-1.093-1.094-1.093H21.781zm.969 3.25h12.375c.362 0 .656.294.656.656v7.094a.657.657 0 0 1-.656.656H22.75a.657.657 0 0 1-.657-.656v-7.094c0-.362.295-.656.657-.656z" fill="url(#c)"/><rect x="22.095" y="25.491" width="13.696" height="8.398" rx=".653" ry=".653" fill="url(#d)" opacity=".8"/><rect x="22.461" y="25.857" width="12.988" height="7.666" rx=".409" ry=".409" fill="url(#e)"/></g><path d="M21.395 21.875a1.15 1.15 0 0 0-1.153 1.149v13.365c0 .636.515 1.15 1.153 1.15h15.148a1.15 1.15 0 0 0 1.153-1.15V23.024a1.15 1.15 0 0 0-1.153-1.15H21.395zm1.02 3.415h13.042c.381 0 .691.31.691.69v7.454c0 .38-.31.69-.691.69H22.416a.691.691 0 0 1-.692-.69v-7.455c0-.38.31-.69.692-.69z" opacity=".03"/><path d="M21.448 21.93c-.633 0-1.145.51-1.145 1.14v13.272c0 .632.512 1.142 1.145 1.142H36.49c.633 0 1.145-.51 1.145-1.142V23.071c0-.632-.512-1.142-1.145-1.142H21.448zm1.014 3.39H35.41c.378 0 .686.308.686.685v7.402a.686.686 0 0 1-.686.685H22.46a.686.686 0 0 1-.686-.685v-7.402c0-.377.308-.684.687-.684z" opacity=".03"/><path d="M21.501 21.984c-.629 0-1.136.506-1.136 1.133v13.177c0 .628.507 1.134 1.136 1.134h14.935c.629 0 1.136-.506 1.136-1.134V23.117c0-.627-.507-1.133-1.136-1.133H21.501zm1.006 3.367h12.857c.376 0 .682.305.682.68v7.35c0 .375-.306.68-.681.68H22.506a.682.682 0 0 1-.681-.68v-7.35c0-.375.306-.68.682-.68z" opacity=".03"/><path d="M21.554 22.04c-.624 0-1.128.503-1.128 1.125v13.083c0 .623.504 1.126 1.128 1.126h14.829c.624 0 1.128-.503 1.128-1.126V23.165c0-.622-.504-1.125-1.128-1.125H21.554zm1 3.343h12.764c.374 0 .677.303.677.675v7.297a.677.677 0 0 1-.677.675H22.553a.677.677 0 0 1-.677-.675v-7.297c0-.372.304-.675.677-.675z" opacity=".03"/><path d="M21.608 22.095c-.62 0-1.12.499-1.12 1.117v12.99c0 .618.5 1.116 1.12 1.116H36.33c.62 0 1.12-.498 1.12-1.117V23.212c0-.618-.5-1.117-1.12-1.117H21.608zm.992 3.32h12.674c.37 0 .672.3.672.67v7.244c0 .37-.301.67-.672.67H22.6c-.37 0-.672-.3-.672-.67v-7.245c0-.37.302-.67.672-.67z" opacity=".03"/><path d="M21.66 22.15c-.616 0-1.112.495-1.112 1.109v12.895c0 .614.497 1.11 1.112 1.11h14.617c.616 0 1.112-.496 1.112-1.11V23.26c0-.614-.497-1.11-1.112-1.11H21.66zm.985 3.295h12.583c.368 0 .667.299.667.666v7.192c0 .367-.299.666-.667.666H22.645a.667.667 0 0 1-.667-.666v-7.192c0-.367.3-.666.667-.666z" opacity=".03"/><path d="M21.717 22.208a1.1 1.1 0 0 0-1.103 1.1v12.796a1.1 1.1 0 0 0 1.103 1.1h14.504a1.1 1.1 0 0 0 1.103-1.1V23.308a1.1 1.1 0 0 0-1.103-1.1H21.717zm.977 3.27H35.18c.366 0 .663.296.663.66v7.137c0 .364-.297.66-.663.66H22.694a.662.662 0 0 1-.662-.66v-7.137c0-.364.297-.66.662-.66z" opacity=".03"/><path d="M21.781 22.231c-.605 0-1.094.488-1.094 1.094v12.719c0 .605.489 1.094 1.094 1.094h14.375c.605 0 1.094-.489 1.094-1.094v-12.72c0-.605-.489-1.093-1.094-1.093H21.781zm.969 3.25h12.375c.362 0 .656.294.656.656v7.094a.657.657 0 0 1-.656.656H22.75a.657.657 0 0 1-.657-.656v-7.094c0-.362.295-.656.657-.656z" fill="url(#c)"/><rect x="22.095" y="25.491" width="13.696" height="8.398" rx=".653" ry=".653" fill="url(#d)" opacity=".8"/><rect x="22.461" y="25.857" width="12.988" height="7.666" rx=".409" ry=".409" fill="url(#e)"/></g><path d="M1.998 7.365v3.615l.467 3.586c6.278-1.132 5.862-1.391 12.416-1.148 8.623 0 17.277.141 24.975 1.105L32.67 7.48 1.998 7.365z" fill="url(#f)"/><path d="M1.998 6.5v8.496a716.57 716.57 0 0 1 20.053-2.082c6.005-.411 10.38-.617 15.488-.66L31.669 6.5H1.999z" fill="url(#g)"/><path d="M10.694 6.498c5.801 0 21.016-.013 21.016-.013L46 20.479l.002 21.02-44.006-.067v-35z" fill="url(#h)"/><path d="M33.034 18.222c3.443.045 9.924.322 12.966 2.257 0 0-12.709-12.641-14.29-13.994 0 0 1.187 1.934 1.324 11.737z" fill="url(#i)"/><g transform="matrix(1 0 0 .98093 2.011 -3.284)"><rect x="-.02" y="34.198" width="25.869" height="9.831" rx="4.432" ry="4.877" opacity=".03"/><rect x=".119" y="34.319" width="25.593" height="9.589" rx="4.384" ry="4.758" opacity=".03"/><rect x=".257" y="34.439" width="25.317" height="9.348" rx="4.337" ry="4.638" opacity=".03"/><rect x=".395" y="34.543" width="25.041" height="9.141" rx="4.29" ry="4.535" opacity=".03"/><rect x=".533" y="34.647" width="24.764" height="8.933" rx="4.242" ry="4.432" opacity=".03"/><rect x=".671" y="34.733" width="24.488" height="8.761" rx="4.195" ry="4.346" opacity=".03"/><rect x=".792" y="34.802" width="24.246" height="8.623" rx="4.154" ry="4.278" opacity=".03"/><rect x=".904" y="34.903" width="24.023" height="8.421" rx="4.115" ry="4.178" opacity=".03"/><rect x="1.001" y="35.013" width="23.827" height="8.2" rx="4.082" ry="4.068" opacity=".03"/><rect x="1.139" y="35.1" width="23.551" height="8.027" rx="4.035" ry="3.982" opacity=".03"/><rect x="1.243" y="35.203" width="23.344" height="7.82" rx="3.999" ry="3.88" opacity=".03"/><rect x="1.347" y="35.29" width="23.137" height="7.647" rx="3.963" ry="3.794" opacity=".03"/></g><rect x="3.476" y="30.998" width="22.9" height="7.422" rx="3.923" ry="3.682" fill="url(#j)" opacity=".9"/><g font-family="'Lucida Grande'" letter-spacing="0" stroke-width=".2" word-spacing="0"><text x="7.591" y="37.207" fill="none" stroke="#fff" style="line-height:0%" xml:space="preserve" transform="translate(-1.11)"><tspan x="7.591" y="37.207" font-size="6.36" style="line-height:1.25">POTX</tspan></text><g fill="url(#k)" stroke="url(#l)" aria-label="POTX" transform="translate(-1.11)"><path d="M8.843 32.886v1.742h.788q.438 0 .677-.227.24-.226.24-.646 0-.416-.24-.642-.239-.227-.677-.227zm-.628-.515h1.416q.78 0 1.177.354.4.35.4 1.03 0 .687-.4 1.038-.397.35-1.177.35h-.788v1.864h-.628zM13.932 32.796q-.683 0-1.087.51-.4.509-.4 1.387 0 .876.4 1.385.404.51 1.087.51.683 0 1.08-.51.401-.509.401-1.385 0-.878-.4-1.388-.398-.509-1.081-.509zm0-.51q.975 0 1.559.656.584.652.584 1.751 0 1.097-.584 1.752-.584.652-1.559.652-.978 0-1.565-.652-.584-.652-.584-1.752 0-1.099.584-1.751.587-.655 1.565-.655zM16.414 32.37h3.922v.528H18.69v4.108h-.63v-4.108h-1.646zM20.718 32.37h.674l1.152 1.724 1.158-1.724h.674l-1.49 2.227 1.59 2.41h-.674l-1.305-1.973-1.313 1.972h-.677l1.655-2.475z"/></g></g><path d="m17.484 7.15.834-.071c.35-.03.653.196.679.507l.003.045c.026.31-.236.587-.587.615l-.833.067c-.35.028-.654-.191-.68-.502l-.003-.045c-.025-.31.236-.585.587-.615z" fill="url(#m)" transform="translate(-13.542 4.698)"/><path d="M17.159 4.105h.013c.358-.018.66.233.676.564l.146 3.251c.022.486-.612.394-.678.378l-.034-.008c-.197-.046-.566-.253-.594-.788l-.145-2.768c-.017-.33.258-.61.616-.629z" fill="url(#n)" transform="translate(-13.542 4.698)"/><path transform="matrix(.0456 0 0 .0456 .862 6.918)" d="M73.75 21.5c0 7.87-6.38 14.25-14.25 14.25S45.25 29.37 45.25 21.5 51.63 7.25 59.5 7.25s14.25 6.38 14.25 14.25z" fill="url(#o)"/><path d="M3.583 7.26c-.358 0-.656.267-.656.626s.298.656.656.656.657-.298.657-.656-.298-.625-.657-.625zm.032 1.532c-.358.018-.643.294-.625.625l.156 2.78c.028.536.397.736.594.782l.03.031c.028.007.15.013.282 0l.813-.062c.35-.028.619-.314.593-.625v-.031c-.025-.311-.337-.53-.687-.5l-.344.03-.125-2.468c-.015-.33-.33-.58-.687-.562z" fill="none" opacity=".4" stroke="#000" stroke-width=".3"/></svg>