<svg width="16" height="16" version="1.1" xmlns="http://www.w3.org/2000/svg">
 <defs>
  <style id="current-color-scheme" type="text/css">.ColorScheme-Text { color:#565656; }</style>
 </defs>
 <g fill="currentColor" class="ColorScheme-Text">
  <path d="m8 1-8 6.1289 0.0019531 0.0019532-0.0019531 0.0019531 0.076172 0.097656 1.125 1.498 0.79883-0.61133v7.8828h12v-7.8828l0.79883 0.61133 1.2012-1.5996-8-6.1289zm0 2.5195 5 3.8301v7.6504h-4v-4h-2v4h-4v-7.6504z" opacity=".8"/>
  <path d="m12.156 2c-0.08659 0-0.15634 0.069665-0.15634 0.15615v0.55087l1.9903 1.5436v-2.0945c0-0.086487-0.06975-0.15615-0.15633-0.15615z" opacity=".8"/>
  <path d="m8 3.5195-5 3.8301v7.6504h4v-4h2v4h4v-7.6504zm-1 3.4805h2v2h-2z" opacity=".1"/>
  <path d="m6 6v3.9988h4v-3.9988zm1 1h2v2h-2z" opacity=".55"/>
 </g>
</svg>
