<svg version="1.1" viewBox="0 0 16 16" xmlns="http://www.w3.org/2000/svg" xmlns:xlink="http://www.w3.org/1999/xlink">
 <path d="m8 2a5.9995 5.9995 0 0 0-6 6 5.9995 5.9995 0 0 0 6 6 5.9995 5.9995 0 0 0 6-6 5.9995 5.9995 0 0 0-6-6zm2.0597 3.746c0.10115 0 0.18782 0.036281 0.25861 0.10712l0.51568 0.51568c0.07079 0.070835 0.10716 0.15592 0.10712 0.25708 0 0.1012-0.03633 0.18777-0.10712 0.25861l-3.2624 3.2624c-0.070835 0.07079-0.15745 0.10712-0.25861 0.10712-0.1012 0-0.18629-0.03628-0.25708-0.10712l-0.51722-0.51568-1.3726-1.3726c-0.070835-0.07079-0.10712-0.15746-0.10712-0.25861 0-0.1012 0.036281-0.18777 0.10712-0.25861l0.51568-0.51569c0.070835-0.070835 0.15741-0.10559 0.25861-0.10559 0.10115 0 0.18624 0.034751 0.25708 0.10559l1.1155 1.1201 2.4897-2.4927c0.070788-0.070835 0.15588-0.10712 0.25708-0.10712z" fill="#363636" fill-rule="evenodd"/>
</svg>
