<svg width="16" height="16" version="1.1" xmlns="http://www.w3.org/2000/svg">
 <path d="m8 1.0039a4 4 0 0 0-3.9844 3.6641l0.98438 0.98438v-0.64844a3 3 0 0 1 3-3 3 3 0 0 1 3 3v2h-1v-2a2 2 0 0 0-2-2 2 2 0 0 0-2 2v1.6484l1.3516 1.3516h4.6484v1.75 1.25 1.25c0 0.11603-0.031477 0.22244-0.078125 0.32031l0.79883 0.79883c0.17451-0.24519 0.2793-0.54395 0.2793-0.86914v-1.5-2.498-1.502h-1v-2a4 4 0 0 0-4-4zm0 3a1 1 0 0 1 1 1v2h-2v-2a1 1 0 0 1 1-1zm-4 2.4121v0.58789h-1v1.502 2.498 1.5c0 0.831 0.669 1.5 1.5 1.5h7c0.027461 0 0.05299-0.006369 0.080078-0.007812l-0.99219-0.99219h-5.8379c-0.4155 0-0.75-0.3345-0.75-0.75v-1.25-1.25-1.75h1.5879l-1.5879-1.5879z" fill="#363636"/>
 <g transform="translate(-593 271)" color="#bebebe" fill="#c6262e">
  <path class="error" d="m594.44-270.44-0.883 0.882 14 14 0.883-0.882z" fill="#c6262e" overflow="visible" style="isolation:auto;mix-blend-mode:normal"/>
 </g>
</svg>
