<svg version="1.1" viewBox="0 0 16 16" xmlns="http://www.w3.org/2000/svg">
 <path class="success" d="m8 1.0039a4 4 0 0 0-4 4v2h-1v1.502 2.498 1.5c0 0.831 0.669 1.5 1.5 1.5h7c0.831 0 1.5-0.669 1.5-1.5v-1.5-2.498-1.502h-1v-2a4 4 0 0 0-4-4zm0 1a3 3 0 0 1 3 3v2h-1v-2a2 2 0 0 0-2-2 2 2 0 0 0-2 2v2h-1v-2a3 3 0 0 1 3-3zm0 2a1 1 0 0 1 1 1v2h-2v-2a1 1 0 0 1 1-1zm-4 4h8v1.75 1.25 1.25c0 0.4155-0.3345 0.75-0.75 0.75h-6.5c-0.4155 0-0.75-0.3345-0.75-0.75v-1.25-1.25-1.75z" fill="#68b723"/>
 <path class="success" d="m4 8.0039v1.75 1.25 1.25c0 0.4155 0.3345 0.75 0.75 0.75h6.5c0.4155 0 0.75-0.3345 0.75-0.75v-1.25-1.25-1.75h-8z" fill="#68b723" opacity=".5" style="font-variant-east_asian:normal"/>
</svg>
