<svg width="64" height="64" version="1.1" viewBox="0 0 64 64" xmlns="http://www.w3.org/2000/svg" xmlns:osb="http://www.openswatchbook.org/uri/2009/osb" xmlns:xlink="http://www.w3.org/1999/xlink">
 <defs>
  <linearGradient id="a">
   <stop stop-color="#4d4d4d" offset="0"/>
   <stop stop-color="#1a1a1a" offset="1"/>
  </linearGradient>
  <linearGradient id="c" x1="58.177" x2="60.816" y1="192.12" y2="192.12" gradientTransform="matrix(16.148 0 0 3.8777 -1128.3 -1389.3)" gradientUnits="userSpaceOnUse" xlink:href="#a"/>
  <filter id="g" x="-.036" y="-.036" width="1.072" height="1.072" color-interpolation-filters="sRGB">
   <feGaussianBlur stdDeviation="0.238125"/>
  </filter>
  <linearGradient id="b" x1="32" x2="32" y1="14" y2="50" gradientTransform="matrix(1.019 0 0 1 -.60956 0)" gradientUnits="userSpaceOnUse" xlink:href="#a"/>
  <linearGradient id="d" x1="32.001" x2="32.001" y1="1.9749" y2="61.976" gradientUnits="userSpaceOnUse">
   <stop stop-color="#e0e0e0" offset="0"/>
   <stop stop-color="#fff" offset="1"/>
  </linearGradient>
  <filter id="e" x="-.079091" y="-.048333" width="1.1582" height="1.0967" color-interpolation-filters="sRGB">
   <feGaussianBlur stdDeviation="0.72499973"/>
  </filter>
 </defs>
 <circle cx="-167.52" cy="-644.29" r="0" fill="url(#c)"/>
 <circle transform="matrix(3.7796 0 0 3.7796 0 -1058.6)" cx="8.4667" cy="288.53" r="7.9375" fill-rule="evenodd" filter="url(#g)" opacity=".25" style="paint-order:stroke fill markers"/>
 <circle cx="32.001" cy="31.975" r="30.001" fill="url(#d)" fill-rule="evenodd" stroke-width="3.7796" style="paint-order:stroke fill markers"/>
 <path d="m32.004 14c-3.4881 0-6.298 2.7554-6.298 6.1783v13.179c0 3.4229 2.81 6.1783 6.298 6.1783 3.4881 0 6.296-2.7554 6.296-6.1783v-13.179c0-3.4229-2.8079-6.1783-6.296-6.1783zm9.8491 14.791a1.1352 1.1139 0 0 0-1.1246 1.1352v3.8426c0 2.9039-1.0633 4.8597-2.6502 6.1664-1.5869 1.3067-3.7643 1.9486-5.9796 1.8907-2.2153-0.05791-4.4369-0.81829-6.0703-2.1755-1.6334-1.3572-2.7172-3.2745-2.757-5.8975v-3.8268a1.1352 1.1139 0 0 0-1.1508-1.1293 1.1352 1.1139 0 0 0-1.1205 1.1293v3.8566c0.04906 3.2307 1.4829 5.8346 3.5652 7.5647 1.7795 1.4786 4.0081 2.3447 6.3 2.6106v3.6152h-4.4761c-0.68512 0-1.2374 0.54199-1.2374 1.2143 0 0.67231 0.55231 1.2123 1.2374 1.2123h11.228c0.68512 0 1.2374-0.54001 1.2374-1.2123 0-0.67231-0.55231-1.2143-1.2374-1.2143h-4.4822v-3.548c2.3249-0.1362 4.6055-0.90373 6.4068-2.3871 2.0843-1.7164 3.4584-4.406 3.4584-7.8692v-3.8426a1.1352 1.1139 0 0 0-1.1467-1.1352z" filter="url(#e)" opacity=".25" style="paint-order:fill markers stroke"/>
 <path d="m32.004 14c-3.4881 0-6.298 2.7554-6.298 6.1783v13.179c0 3.4229 2.81 6.1783 6.298 6.1783 3.4881 0 6.296-2.7554 6.296-6.1783v-13.179c0-3.4229-2.8079-6.1783-6.296-6.1783zm9.8491 14.791a1.1352 1.1139 0 0 0-1.1246 1.1352v3.8426c0 2.9039-1.0633 4.8597-2.6502 6.1664-1.5869 1.3067-3.7643 1.9486-5.9796 1.8907-2.2153-0.05791-4.4369-0.81829-6.0703-2.1755-1.6334-1.3572-2.7172-3.2745-2.757-5.8975v-3.8268a1.1352 1.1139 0 0 0-1.1508-1.1293 1.1352 1.1139 0 0 0-1.1205 1.1293v3.8566c0.04906 3.2307 1.4829 5.8346 3.5652 7.5647 1.7795 1.4786 4.0081 2.3447 6.3 2.6106v3.6152h-4.4761c-0.68512 0-1.2374 0.54199-1.2374 1.2143 0 0.67231 0.55231 1.2123 1.2374 1.2123h11.228c0.68512 0 1.2374-0.54001 1.2374-1.2123 0-0.67231-0.55231-1.2143-1.2374-1.2143h-4.4822v-3.548c2.3249-0.1362 4.6055-0.90373 6.4068-2.3871 2.0843-1.7164 3.4584-4.406 3.4584-7.8692v-3.8426a1.1352 1.1139 0 0 0-1.1467-1.1352z" fill="url(#b)" style="paint-order:fill markers stroke"/>
</svg>
