<svg width="64" height="64" viewBox="0 0 16.933 16.933" xmlns="http://www.w3.org/2000/svg" xmlns:xlink="http://www.w3.org/1999/xlink"><defs><linearGradient id="o" x1="-42" x2="-6" y1="-24" y2="-24" gradientTransform="translate(-282.67 -2.67) scale(.24423)" gradientUnits="userSpaceOnUse"><stop stop-color="#d0d0d0" offset="0"/><stop stop-color="#f1eeee" offset="1"/></linearGradient><linearGradient id="b" x1="45.448" x2="45.448" y1="92.54" y2="7.016" gradientTransform="scale(1.0059 .99417)" gradientUnits="userSpaceOnUse"><stop offset="0"/><stop stop-opacity=".588" offset="1"/></linearGradient><linearGradient id="e" x1="56" x2="88" y1="72" y2="72" gradientTransform="translate(-140.5 3.5) scale(.9375)" gradientUnits="userSpaceOnUse"><stop stop-color="#499119" offset="0"/><stop stop-color="#8fd625" offset="1"/></linearGradient><linearGradient id="f" x1="70" x2="70" y1="54" y2="75.095" gradientTransform="translate(0 4)" gradientUnits="userSpaceOnUse" xlink:href="#a"/><linearGradient id="a"><stop stop-color="#fff" offset="0"/><stop stop-color="#fff" stop-opacity="0" offset="1"/></linearGradient><linearGradient id="h" x1="65.263" x2="65.263" y1="64.205" y2="50.069" gradientTransform="matrix(.625 0 0 .625 78.5 32.25)" gradientUnits="userSpaceOnUse"><stop offset="0"/><stop stop-opacity="0" offset="1"/></linearGradient><linearGradient id="j" x1="65.263" x2="65.263" y1="64.205" y2="50.069" gradientTransform="matrix(.625 0 0 .625 28.5 31.25)" gradientUnits="userSpaceOnUse" xlink:href="#a"/><linearGradient id="k" x1="58.177" x2="60.816" y1="192.12" y2="192.12" gradientTransform="matrix(4.2725 0 0 1.026 -298.53 -87.519)" gradientUnits="userSpaceOnUse"><stop stop-color="#4d4d4d" offset="0"/><stop stop-color="#1a1a1a" offset="1"/></linearGradient><linearGradient id="m" x1="8.467" x2="8.467" y1="280.59" y2="296.46" gradientUnits="userSpaceOnUse"><stop stop-color="#69a7cc" offset="0"/><stop stop-color="#325695" offset="1"/></linearGradient><filter id="c" color-interpolation-filters="sRGB"><feGaussianBlur stdDeviation="1.71"/></filter><filter id="d" color-interpolation-filters="sRGB"><feGaussianBlur stdDeviation="1.2"/></filter><filter id="i" color-interpolation-filters="sRGB"><feGaussianBlur stdDeviation=".637"/></filter><filter id="l" x="-.036" y="-.036" width="1.072" height="1.072" color-interpolation-filters="sRGB"><feGaussianBlur stdDeviation=".238"/></filter><filter id="n" x="-.06" y="-.06" width="1.12" height="1.12" color-interpolation-filters="sRGB"><feGaussianBlur stdDeviation=".22"/></filter><clipPath id="g"><path d="M108.81 58a2.803 2.803 0 0 0-2.81 2.812v24.375A2.803 2.803 0 0 0 108.81 88h24.375c1.57 0 2.82-1.254 2.82-2.812V60.813a2.803 2.803 0 0 0-2.81-2.813H108.82zm7.188 4.5h10v8.75h5l-10 13.75-10-13.75h5z" fill="#fff"/></clipPath></defs><g transform="translate(0 -280.07)"><g font-family="'Bitstream Vera Sans'" font-size="3.001" stroke-width=".489"><text x="229.104" y="286.294" opacity=".8" style="line-height:0%" xml:space="preserve"/><text x="234.78" y="276.641" opacity=".8" style="line-height:0%" xml:space="preserve"/><text x="-113.626" y="269.515" opacity=".8" style="line-height:0%" xml:space="preserve"/><text x="-545.696" y="446.152" opacity=".8" style="line-height:0%" xml:space="preserve"/><text x="-86.501" y="178.224" opacity=".8" style="line-height:0%" xml:space="preserve"/><text x="104.837" y="80.264" opacity=".8" style="line-height:0%" xml:space="preserve"/><text x="110.514" y="70.612" opacity=".8" style="line-height:0%" xml:space="preserve"/><text x="-242.845" y="68.903" opacity=".8" style="line-height:0%" xml:space="preserve"/><text x="103.188" y="4.168" opacity=".8" style="line-height:0%" xml:space="preserve"/><text x="455.283" y="152.645" opacity=".8" style="line-height:0%" xml:space="preserve"/><text x="460.96" y="142.992" opacity=".8" style="line-height:0%" xml:space="preserve"/><text x="107.6" y="141.284" opacity=".8" style="line-height:0%" xml:space="preserve"/><text x="453.634" y="76.549" opacity=".8" style="line-height:0%" xml:space="preserve"/><text x="-114.588" y="129.89" opacity=".8" style="line-height:0%" xml:space="preserve"/><text x="-546.659" y="306.528" opacity=".8" style="line-height:0%" xml:space="preserve"/><text x="-140.396" y="328.531" opacity=".8" style="line-height:0%" xml:space="preserve"/><text x="122.355" y="286.079" opacity=".8" style="line-height:0%" xml:space="preserve"/><text x="128.032" y="276.427" opacity=".8" style="line-height:0%" xml:space="preserve"/><text x="-225.327" y="274.718" opacity=".8" style="line-height:0%" xml:space="preserve"/><text x="120.706" y="209.983" opacity=".8" style="line-height:0%" xml:space="preserve"/><text x="-122.786" y="274.075" opacity=".8" style="line-height:0%" xml:space="preserve"/><text x="-554.856" y="450.713" opacity=".8" style="line-height:0%" xml:space="preserve"/><text x="-86.989" y="69.96" opacity=".8" style="line-height:0%" xml:space="preserve"/><text x="104.349" y="-28" opacity=".8" style="line-height:0%" xml:space="preserve"/><text x="110.026" y="-37.652" opacity=".8" style="line-height:0%" xml:space="preserve"/><text x="-243.333" y="-39.36" opacity=".8" style="line-height:0%" xml:space="preserve"/><text x="102.701" y="-104.095" opacity=".8" style="line-height:0%" xml:space="preserve"/><text x="454.795" y="44.381" opacity=".8" style="line-height:0%" xml:space="preserve"/><text x="460.472" y="34.729" opacity=".8" style="line-height:0%" xml:space="preserve"/><text x="107.112" y="33.02" opacity=".8" style="line-height:0%" xml:space="preserve"/><text x="453.146" y="-31.715" opacity=".8" style="line-height:0%" xml:space="preserve"/><text x="-115.076" y="21.627" opacity=".8" style="line-height:0%" xml:space="preserve"/><text x="-547.147" y="198.264" opacity=".8" style="line-height:0%" xml:space="preserve"/><text x="-140.884" y="220.268" opacity=".8" style="line-height:0%" xml:space="preserve"/><text x="58.133" y="277.345" opacity=".8" style="line-height:0%" xml:space="preserve"/><text x="63.81" y="267.693" opacity=".8" style="line-height:0%" xml:space="preserve"/><text x="-237.037" y="221.723" opacity=".8" style="line-height:0%" xml:space="preserve"/><text x="-45.699" y="123.763" opacity=".8" style="line-height:0%" xml:space="preserve"/><text x="-40.022" y="114.111" opacity=".8" style="line-height:0%" xml:space="preserve"/><text x="-393.381" y="112.402" opacity=".8" style="line-height:0%" xml:space="preserve"/><text x="-47.347" y="47.667" opacity=".8" style="line-height:0%" xml:space="preserve"/><text x="304.747" y="196.144" opacity=".8" style="line-height:0%" xml:space="preserve"/><text x="310.424" y="186.491" opacity=".8" style="line-height:0%" xml:space="preserve"/><text x="-42.936" y="184.783" opacity=".8" style="line-height:0%" xml:space="preserve"/><text x="303.098" y="120.048" opacity=".8" style="line-height:0%" xml:space="preserve"/><text x="-265.124" y="173.389" opacity=".8" style="line-height:0%" xml:space="preserve"/><text x="-697.195" y="350.027" opacity=".8" style="line-height:0%" xml:space="preserve"/></g><text x="-664.274" y="1159.415" font-family="'Bitstream Vera Sans'" font-size="14" opacity=".8" style="line-height:0%" xml:space="preserve" transform="translate(-148.54 123.5) scale(.21435)" stroke-width="2.066"/><g font-family="'Bitstream Vera Sans'" font-size="3.001" stroke-width=".489"><text x="229.104" y="288.008" opacity=".8" style="line-height:0%" xml:space="preserve"/><text x="234.78" y="278.356" opacity=".8" style="line-height:0%" xml:space="preserve"/><text x="-113.626" y="271.23" opacity=".8" style="line-height:0%" xml:space="preserve"/><text x="-545.696" y="447.867" opacity=".8" style="line-height:0%" xml:space="preserve"/><text x="-86.501" y="179.939" opacity=".8" style="line-height:0%" xml:space="preserve"/><text x="104.837" y="81.979" opacity=".8" style="line-height:0%" xml:space="preserve"/><text x="110.514" y="72.326" opacity=".8" style="line-height:0%" xml:space="preserve"/><text x="-242.845" y="70.618" opacity=".8" style="line-height:0%" xml:space="preserve"/><text x="103.188" y="5.883" opacity=".8" style="line-height:0%" xml:space="preserve"/><text x="455.283" y="154.36" opacity=".8" style="line-height:0%" xml:space="preserve"/><text x="460.96" y="144.707" opacity=".8" style="line-height:0%" xml:space="preserve"/><text x="107.6" y="142.999" opacity=".8" style="line-height:0%" xml:space="preserve"/><text x="453.634" y="78.264" opacity=".8" style="line-height:0%" xml:space="preserve"/><text x="-114.588" y="131.605" opacity=".8" style="line-height:0%" xml:space="preserve"/><text x="-546.659" y="308.243" opacity=".8" style="line-height:0%" xml:space="preserve"/><text x="-140.396" y="330.246" opacity=".8" style="line-height:0%" xml:space="preserve"/><text x="122.355" y="287.794" opacity=".8" style="line-height:0%" xml:space="preserve"/><text x="128.032" y="278.141" opacity=".8" style="line-height:0%" xml:space="preserve"/><text x="-225.327" y="276.433" opacity=".8" style="line-height:0%" xml:space="preserve"/><text x="120.706" y="211.698" opacity=".8" style="line-height:0%" xml:space="preserve"/><text x="-122.786" y="275.79" opacity=".8" style="line-height:0%" xml:space="preserve"/><text x="-554.856" y="452.428" opacity=".8" style="line-height:0%" xml:space="preserve"/><text x="-86.989" y="71.675" opacity=".8" style="line-height:0%" xml:space="preserve"/><text x="104.349" y="-26.285" opacity=".8" style="line-height:0%" xml:space="preserve"/><text x="110.026" y="-35.937" opacity=".8" style="line-height:0%" xml:space="preserve"/><text x="-243.333" y="-37.646" opacity=".8" style="line-height:0%" xml:space="preserve"/><text x="102.701" y="-102.381" opacity=".8" style="line-height:0%" xml:space="preserve"/><text x="454.795" y="46.096" opacity=".8" style="line-height:0%" xml:space="preserve"/><text x="460.472" y="36.443" opacity=".8" style="line-height:0%" xml:space="preserve"/><text x="107.112" y="34.735" opacity=".8" style="line-height:0%" xml:space="preserve"/><text x="453.146" y="-30" opacity=".8" style="line-height:0%" xml:space="preserve"/><text x="-115.076" y="23.341" opacity=".8" style="line-height:0%" xml:space="preserve"/><text x="-547.147" y="199.979" opacity=".8" style="line-height:0%" xml:space="preserve"/><text x="-140.884" y="221.982" opacity=".8" style="line-height:0%" xml:space="preserve"/><text x="58.133" y="279.06" opacity=".8" style="line-height:0%" xml:space="preserve"/><text x="63.81" y="269.408" opacity=".8" style="line-height:0%" xml:space="preserve"/><text x="-237.037" y="223.438" opacity=".8" style="line-height:0%" xml:space="preserve"/><text x="-45.699" y="125.478" opacity=".8" style="line-height:0%" xml:space="preserve"/><text x="-40.022" y="115.826" opacity=".8" style="line-height:0%" xml:space="preserve"/><text x="-393.381" y="114.117" opacity=".8" style="line-height:0%" xml:space="preserve"/><text x="-47.347" y="49.382" opacity=".8" style="line-height:0%" xml:space="preserve"/><text x="304.747" y="197.859" opacity=".8" style="line-height:0%" xml:space="preserve"/><text x="310.424" y="188.206" opacity=".8" style="line-height:0%" xml:space="preserve"/><text x="-42.936" y="186.498" opacity=".8" style="line-height:0%" xml:space="preserve"/><text x="303.098" y="121.763" opacity=".8" style="line-height:0%" xml:space="preserve"/><text x="-265.124" y="175.104" opacity=".8" style="line-height:0%" xml:space="preserve"/><text x="-697.195" y="351.742" opacity=".8" style="line-height:0%" xml:space="preserve"/></g><text x="-664.274" y="1159.415" font-family="'Bitstream Vera Sans'" font-size="14" opacity=".8" style="line-height:0%" xml:space="preserve" transform="translate(-148.54 125.22) scale(.21435)" stroke-width="2.066"/><g font-size="3.001" stroke-width=".489"><text x="124.545" y="198.15" font-family="'Droid Sans'" style="line-height:0%" xml:space="preserve"/><g font-family="'Bitstream Vera Sans'"><text x="234.757" y="83.943" opacity=".8" style="line-height:0%" xml:space="preserve"/><text x="-197.313" y="260.581" opacity=".8" style="line-height:0%" xml:space="preserve"/><text x="407.018" y="16.421" opacity=".8" style="line-height:0%" xml:space="preserve"/><text x="412.694" y="6.769" opacity=".8" style="line-height:0%" xml:space="preserve"/><text x="59.335" y="5.061" opacity=".8" style="line-height:0%" xml:space="preserve"/><text x="405.369" y="-59.674" opacity=".8" style="line-height:0%" xml:space="preserve"/></g></g><circle transform="translate(0 -.021)" cx="8.467" cy="288.53" r="7.938" fill-rule="evenodd" filter="url(#l)" opacity=".25" style="paint-order:stroke fill markers"/><circle cx="8.467" cy="288.53" r="7.938" fill="url(#m)" fill-rule="evenodd" style="paint-order:stroke fill markers"/><g fill="#325694" stroke-width="2.066"><g transform="matrix(.15218 0 0 .14966 4.814 284.938)"><rect transform="matrix(0 -6.4342 -6.3278 0 -29.982 -1832.5)" x="-292.93" y="-12.927" width="8.792" height="8.792" rx=".44" ry=".55" fill="#000" filter="url(#n)" opacity=".25"/><rect transform="matrix(0 -6.4342 -6.3278 0 -29.982 -1832.5)" x="-292.93" y="-12.927" width="8.792" height="8.792" rx=".44" ry=".55" fill="url(#o)"/><path d="M40.851 19.248c-1.601-7.633-16.702-8.117-26.435-2.301v.642c9.72-4.908 23.514-4.876 24.77 2.155.423 2.33-.91 4.752-3.298 6.146v1.824c2.876-1.032 5.815-4.372 4.963-8.466m-17.7 13.365c-6.718.608-13.717-.349-14.697-5.504-.487-2.538.698-5.232 2.261-6.904v-.895c-2.818 2.426-4.348 5.495-3.464 9.118 1.127 4.65 7.133 7.28 16.304 6.404 3.63-.342 8.382-1.49 11.68-3.27v-2.53c-2.997 1.756-7.954 3.206-12.084 3.58z"/></g><path d="M10.427 287.597h-.294v1.235c0 .145.074.271.294.291M6.928 288.049h-.293v.806c0 .145.073.271.293.291M6.634 287.635h.294v.263h-.294zM8.688 289.133c-.238 0-.338-.156-.338-.31v-1.07h.29v.296h.22v.222h-.22v.535c0 .063.032.098.102.098h.118v.23h-.172M9.46 288.257c-.099 0-.176.049-.208.114a.28.28 0 0 0-.028.118h.45c-.007-.118-.064-.232-.213-.232m-.237.42c0 .14.094.243.258.243a.34.34 0 0 0 .268-.103l.18.163a.594.594 0 0 1-.45.172c-.279 0-.546-.144-.546-.562 0-.358.233-.56.54-.56.31 0 .489.237.489.547v.1h-.74M7.72 288.27c.085 0 .12.04.12.105v.76h.292v-.761c0-.155-.088-.325-.343-.325h-.601v1.085h.29v-.863"/></g><g fill="#fff" fill-opacity=".776" stroke-width="2.979"><path d="M427.57 543.8v1h-1v-1zm-1 1v1h-1v-1zm-1 0h-1v-1h1zm-1 0v1h-1v-1zm-1 0h-1v-1h1zm-1 0v1h-1v-1zm-1 0h-1v-1h1zm-1 0v1h-1v-1zm-1 0h-1v-1h1zm-1 0v1h-1v-1zm-1 0h-1v-1h1zm-1 0v1h-1v-1zm-1 0h-1v-1h1zm-1 0v1h-1v-1zm-1 0h-1v-1h1zm-1 0v1h-1v-1z" color="#000" style="text-decoration-line:none;text-indent:0;text-transform:none" transform="translate(-77.906 178.185) scale(.21167)"/><path d="m13.444 293.292-.423.423h.423z" fill-rule="evenodd"/><g color="#000"><path d="M387.57 543.8v1h1v-1zm1 1v1h1v-1zm1 0h1v-1h-1zm1 0v1h1v-1zm1 0h1v-1h-1zm1 0v1h1v-1zm1 0h1v-1h-1zm1 0v1h1v-1zm1 0h1v-1h-1zm1 0v1h1v-1zm1 0h1v-1h-1zm1 0v1h1v-1zm1 0h1v-1h-1zm1 0v1h1v-1zm1 0h1v-1h-1zm1 0v1h1v-1zM432.57 521.8h-1v-1h1zm-1-1h-1v-1h1zm0-1v-1h1v1zm0-1h-1v-1h1zm0-1v-1h1v1zm0-1h-1v-1h1zm0-1v-1h1v1zm0-1h-1v-1h1zm0-1v-1h1v1zm0-1h-1v-1h1zm0-1v-1h1v1zm0-1h-1v-1h1zm0-1v-1h1v1zm0-1h-1v-1h1zm0-1v-1h1v1zm0-1h-1v-1h1z" style="text-decoration-line:none;text-indent:0;text-transform:none" transform="translate(-77.906 178.185) scale(.21167)"/><path transform="translate(1.803 282.285) scale(.21167)" d="M54 40v1h1v-1zm1 1v1h1v-1zm0 1h-1v1h1zm0 1v1h1v-1zm0 1h-1v1h1zm0 1v1h1v-1zm0 1h-1v1h1zm0 1v1h1v-1zm0 1h-1v1h1z" style="text-decoration-line:none;text-indent:0;text-transform:none"/></g></g></g></svg>