<svg width="64" height="64" xmlns="http://www.w3.org/2000/svg"><defs><linearGradient id="b" x1="408.25" x2="407.94" y1="547.6" y2="498.89" gradientTransform="translate(-510.64 -663.52) scale(1.3276)" gradientUnits="userSpaceOnUse"><stop stop-color="#fff" offset="0"/><stop stop-color="#e6e6e6" offset="1"/></linearGradient><linearGradient id="d" x1="506.61" x2="516.39" y1="-2.309" y2="518.6" gradientUnits="userSpaceOnUse"><stop stop-color="#0012ff" offset="0"/><stop stop-color="#00bcff" offset="1"/></linearGradient><filter id="a" x="-.036" y="-.036" width="1.072" height="1.072" color-interpolation-filters="sRGB"><feGaussianBlur stdDeviation=".89"/></filter><filter id="c" x="-.051" y="-.072" width="1.103" height="1.144" color-interpolation-filters="sRGB"><feGaussianBlur stdDeviation="13.102"/></filter></defs><rect transform="translate(-389.32 -489.92) scale(1.0115)" x="386.85" y="486.31" width="59.315" height="59.315" ry="29.657" filter="url(#a)" opacity=".25"/><rect x="1.983" y="1.978" width="59.997" height="59.997" ry="29.998" fill="url(#b)"/><g transform="matrix(.05883 0 0 .05883 1.623 14.322)" filter="url(#c)" opacity=".25" stroke-width=".417"><path d="M516.39 323.73c-49.553 0-96.331 21.852-128.34 59.948-9.93 11.811-8.402 29.434 3.428 39.363a27.832 27.832 0 0 0 17.958 6.557c7.973 0 15.891-3.39 21.405-9.966 21.368-25.429 52.552-40.016 85.544-40.016s64.177 14.587 85.544 40.016c5.533 6.595 13.45 9.966 21.405 9.966 6.353 0 12.724-2.142 17.958-6.557 11.83-9.93 13.357-27.553 3.428-39.363-32.005-38.096-78.783-59.948-128.34-59.948z"/><path d="M516.38 200.81c-82.545 0-160.49 36.419-213.88 99.926-9.929 11.811-8.402 29.434 3.428 39.363a27.833 27.833 0 0 0 17.958 6.558c7.973 0 15.891-3.391 21.405-9.967 42.716-50.838 105.09-79.993 171.09-79.993s128.37 29.155 171.11 79.993c5.533 6.595 13.45 9.967 21.404 9.967 6.353 0 12.724-2.143 17.959-6.558 11.829-9.929 13.356-27.57 3.428-39.363-53.41-63.506-131.35-99.926-213.9-99.926z"/><path d="M815.83 222.37C741.091 133.435 631.94 82.45 516.39 82.45S291.7 133.438 216.95 222.37c-9.93 11.811-8.402 29.434 3.428 39.363 5.234 4.396 11.587 6.558 17.939 6.558 7.973 0 15.891-3.391 21.423-9.967 64.084-76.248 157.64-119.99 256.65-119.99s192.57 43.741 256.65 119.97c5.533 6.576 13.45 9.967 21.424 9.967 6.353 0 12.724-2.143 17.958-6.558 11.811-9.912 13.34-27.553 3.41-39.345zM470.36 472.58c0 25.406 20.62 46.025 46.025 46.025 25.405 0 46.025-20.619 46.025-46.025-7.776-65.326-90.569-48.667-92.049 0z"/></g><g transform="matrix(.05883 0 0 .05883 1.623 14.322)" fill="url(#d)" stroke-width=".417"><path d="M516.39 323.73c-49.553 0-96.331 21.852-128.34 59.948-9.93 11.811-8.402 29.434 3.428 39.363a27.832 27.832 0 0 0 17.958 6.557c7.973 0 15.891-3.39 21.405-9.966 21.368-25.429 52.552-40.016 85.544-40.016s64.177 14.587 85.544 40.016c5.533 6.595 13.45 9.966 21.405 9.966 6.353 0 12.724-2.142 17.958-6.557 11.83-9.93 13.357-27.553 3.428-39.363-32.005-38.096-78.783-59.948-128.34-59.948z"/><path d="M516.38 200.81c-82.545 0-160.49 36.419-213.88 99.926-9.929 11.811-8.402 29.434 3.428 39.363a27.833 27.833 0 0 0 17.958 6.558c7.973 0 15.891-3.391 21.405-9.967 42.716-50.838 105.09-79.993 171.09-79.993s128.37 29.155 171.11 79.993c5.533 6.595 13.45 9.967 21.404 9.967 6.353 0 12.724-2.143 17.959-6.558 11.829-9.929 13.356-27.57 3.428-39.363-53.41-63.506-131.35-99.926-213.9-99.926z"/><path d="M815.83 222.37C741.091 133.435 631.94 82.45 516.39 82.45S291.7 133.438 216.95 222.37c-9.93 11.811-8.402 29.434 3.428 39.363 5.234 4.396 11.587 6.558 17.939 6.558 7.973 0 15.891-3.391 21.423-9.967 64.084-76.248 157.64-119.99 256.65-119.99s192.57 43.741 256.65 119.97c5.533 6.576 13.45 9.967 21.424 9.967 6.353 0 12.724-2.143 17.958-6.558 11.811-9.912 13.34-27.553 3.41-39.345zM470.36 472.58c0 25.406 20.62 46.025 46.025 46.025 25.405 0 46.025-20.619 46.025-46.025-7.776-65.326-90.569-48.667-92.049 0z"/></g></svg>