<svg width="64" height="64" version="1.1" viewBox="0 0 16.933 16.933" xmlns="http://www.w3.org/2000/svg" xmlns:osb="http://www.openswatchbook.org/uri/2009/osb" xmlns:xlink="http://www.w3.org/1999/xlink">
 <defs>
  <radialGradient id="a" cx="20.91" cy="273.03" r="16.669" gradientTransform="matrix(.29669 .60747 -.54927 .26826 154.12 199.24)" gradientUnits="userSpaceOnUse">
   <stop stop-color="#bec9ec" offset="0"/>
   <stop stop-color="#69759a" offset=".41037"/>
   <stop stop-color="#55576e" offset=".72843"/>
   <stop stop-color="#23263a" offset="1"/>
  </radialGradient>
  <filter id="d" x="-.036" y="-.036" width="1.072" height="1.072" color-interpolation-filters="sRGB">
   <feGaussianBlur stdDeviation="0.238125"/>
  </filter>
  <filter id="c" x="-.10019" y="-.092146" width="1.2004" height="1.1843" color-interpolation-filters="sRGB">
   <feGaussianBlur stdDeviation="4.4797192"/>
  </filter>
  <filter id="b" x="-.025048" y="-.023036" width="1.0501" height="1.0461" color-interpolation-filters="sRGB">
   <feGaussianBlur stdDeviation="1.1199298"/>
  </filter>
 </defs>
 <g transform="translate(0 -280.07)">
  <circle cx="8.4667" cy="288.53" r="7.9375" fill-rule="evenodd" filter="url(#d)" opacity=".25" style="paint-order:stroke fill markers"/>
  <circle cx="8.4667" cy="288.53" r="7.9375" fill="#fff" fill-rule="evenodd" style="paint-order:stroke fill markers"/>
  <ellipse cx="8.4577" cy="288.54" rx="7.8872" ry="7.9291" fill="#fff"/>
  <path d="m8.4666 280.6a7.9375 7.9375 0 0 0-3.4587 0.80668c-0.36606 0.84515-0.75745 2.0362-0.85551 3.4833-0.020902 0.30801-0.027829 0.62579-0.019398 0.95076 0.59698-1.2845 1.4122-2.3482 2.2551-3.169 1.054-1.0266 2.1197-1.651 2.9145-2.0177a7.9375 7.9375 0 0 0-0.83605-0.0541zm1.1129 0.0808c-0.042551 0.0211-0.085877 0.0429-0.13042 0.0656-0.77392 0.39467-1.8362 1.0457-2.8853 2.1027-0.92079 0.92817-1.8082 2.1527-2.3936 3.6401 1.32e-5 1.1e-4 5.18e-5 2.4e-4 6.39e-5 4.8e-4 0.26213 0.076 0.53774 0.14029 0.8267 0.18855 0.89326 0.14951 1.881 0.13824 2.8864-0.0934 0.6109-0.14073 1.182-0.35241 1.7017-0.61737-0.033964-0.7088 0.019481-1.3852 0.12992-2.0007 0.22277-1.2435 0.66598-2.2027 1.0387-2.8326 0.03137-0.053 0.06194-0.10283 0.09206-0.1512a7.9375 7.9375 0 0 0-1.2662-0.3022zm1.4023 0.34287c-0.03134 0.0587-0.06301 0.1183-0.09624 0.18319-0.32819 0.64096-0.72488 1.5897-0.91646 2.8028-0.088307 0.56021-0.13062 1.1698-0.10366 1.8066 0.023496-0.0134 0.047098-0.0265 0.070355-0.0401 1.2651-0.73611 2.1016-1.7415 2.6224-2.5902-0.30777-0.54545-0.63015-1.0324-0.94465-1.4567-0.18376-0.24792-0.36148-0.47227-0.52974-0.67501a7.9375 7.9375 0 0 0-0.10198-0.0306zm0.46007 0.1729c0.10937 0.12739 0.2214 0.26267 0.33557 0.40718 0.30802 0.38989 0.62271 0.83677 0.925 1.3375 0.02844-0.0503 0.05633-0.10029 0.08246-0.14901 0.13422-0.25028 0.24114-0.47753 0.32752-0.677a7.9375 7.9375 0 0 0-1.6705-0.9187zm-6.6644 0.3216a7.9375 7.9375 0 0 0-3.4004 3.4786c0.082182 0.0675 0.17034 0.13765 0.26546 0.2102 0.53138 0.40523 1.2894 0.87541 2.2466 1.195-0.035851-0.52863-0.030588-1.0422 0.010173-1.5311 0.11527-1.3812 0.49764-2.5218 0.87809-3.3527zm8.4469 0.67656c-0.0706 0.20054-0.16216 0.42778-0.28143 0.67757-0.03976 0.0833-0.08302 0.16915-0.12943 0.25685 0.24625 0.42341 0.48231 0.88337 0.6979 1.3778 0.50019-0.28479 0.96161-0.49645 1.3538-0.65168a7.9375 7.9375 0 0 0-1.6409-1.6605zm-0.5545 1.1929c-0.50622 0.86939-1.332 1.8794-2.5916 2.6305-0.06367 0.0379-0.12849 0.0748-0.19392 0.11108 0.034346 0.44194 0.10292 0.89495 0.21344 1.352 0.80032-1.0383 1.7124-1.8509 2.585-2.4537 0.20072-0.13866 0.39814-0.26536 0.59074-0.38142-0.18756-0.44721-0.39127-0.86721-0.60365-1.2584zm2.291 0.59342c-0.39207 0.17742-0.85868 0.41257-1.3654 0.72328 0.38019 0.91175 0.68832 1.9359 0.86063 3.0635 0.06502 0.4255 0.10752 0.84692 0.1288 1.2622 0.0168 0.32912 0.02012 0.65081 0.01254 0.96505 0.69973-0.19803 1.2921-0.42326 1.7606-0.62343a7.9375 7.9375 0 0 0 0.04597-0.83418 7.9375 7.9375 0 0 0-1.4431-4.5564zm-1.6023 0.87254c-0.17591 0.11356-0.35569 0.23569-0.53834 0.36813-0.88992 0.64526-1.8226 1.5101-2.6286 2.6129 0.01911 0.0661 0.03885 0.13227 0.05982 0.19848 0.0056 0.0177 0.01124 0.0354 0.01696 0.0531 0.29748 0.91959 0.73957 1.7311 1.2439 2.423 0.83553-0.0453 1.6162-0.16261 2.3218-0.3206 0.16415-0.0368 0.32314-0.0757 0.4779-0.11608 0.0077-0.33389 0.0032-0.6764-0.01615-1.0271-0.02232-0.40576-0.06461-0.8175-0.12818-1.2335-0.16559-1.0836-0.45441-2.0723-0.80911-2.9583zm-12.047 0.28299a7.9375 7.9375 0 0 0-0.45695 1.1678c0.32084 0.32081 0.76035 0.73179 1.3249 1.182 0.34382 0.27419 0.73194 0.55699 1.1624 0.83474 0.06318-0.33844 0.14369-0.67986 0.24351-1.0227 0.038549-0.13241 0.079508-0.26341 0.12281-0.39302 0.030056-0.0899 0.061318-0.17875 0.09356-0.26683-0.98091-0.35103-1.7434-0.86078-2.264-1.3017-0.081166-0.0688-0.15602-0.13545-0.22629-0.20028zm8.2936 1.1396c-0.50884 0.25383-1.0643 0.45688-1.6566 0.59336-1.0454 0.2409-2.0725 0.24488-2.9987 0.0769-0.26175-0.0476-0.51209-0.10819-0.75123-0.17857 0.08901 0.76819 0.26732 1.5627 0.55681 2.3557 0.96115 0.47492 2.0658 0.88405 3.3057 1.1366 0.096277 0.0196 0.19314 0.0382 0.29054 0.0558 0.048845 9e-3 0.097531 0.0171 0.1462 0.0254 0.13958-0.36821 0.30202-0.73919 0.49113-1.1104 0.041772-0.0819 0.084747-0.16361 0.12886-0.245 0.23129-0.42671 0.48386-0.82552 0.75123-1.1977-0.1381-0.51133-0.2228-1.0184-0.26396-1.5121zm-8.7861 0.16723a7.9375 7.9375 0 0 0-0.29029 2.0941 7.9375 7.9375 0 0 0 3.9438 6.847c-0.42959-0.77417-0.87482-1.8121-1.1207-3.0804-0.2179-1.1246-0.26882-2.3977-0.055011-3.7236-0.46749-0.31049-0.88384-0.62873-1.2467-0.9371-0.53045-0.45076-0.93543-0.86488-1.2311-1.2001zm3.1382 0.64045c-0.031712 0.098-0.062491 0.19664-0.091504 0.29627-0.10821 0.37167-0.19381 0.74169-0.25916 1.108 0.24554 0.15097 0.50374 0.29956 0.77443 0.44354-0.20431-0.62155-0.3422-1.2418-0.42376-1.8478zm6.016 1.0596c-0.21103 0.30965-0.41185 0.63654-0.59878 0.98157-0.042952 0.0793-0.08477 0.15883-0.1255 0.23858-0.17476 0.34198-0.32727 0.68392-0.46013 1.0236 0.82717 0.12116 1.6269 0.15909 2.3851 0.13635-0.48247-0.67398-0.90226-1.4588-1.1896-2.3455-0.00377-0.0115-0.00741-0.023-0.011107-0.0346zm-6.4103 0.6092c-0.19004 1.2447-0.14858 2.4405 0.040731 3.5048 0.24475 1.3767 0.72344 2.491 1.1543 3.2909a7.9375 7.9375 0 0 0 3.1864 0.90828c-0.058046-0.30834-0.1096-0.66098-0.14452-1.0568-0.043092-0.48834-0.05731-1.0339-0.025136-1.6195-1.0997-0.86901-2.1383-2.0579-2.8723-3.5635-0.015574-0.032-0.031015-0.0641-0.04628-0.0962-0.1295-0.27301-0.24463-0.54742-0.34661-0.82208-0.33433-0.17512-0.64967-0.35844-0.94652-0.54577zm1.3358 0.74181c0.068601 0.16733 0.14218 0.33441 0.22118 0.50092 0.014832 0.0313 0.029789 0.0624 0.044911 0.0934 0.68008 1.3963 1.6248 2.5202 2.6322 3.3683 0.073144-0.88347 0.25399-1.8472 0.59953-2.837-0.032266-6e-3 -0.064457-0.0109-0.096802-0.0167-0.099596-0.0179-0.19864-0.0371-0.29709-0.0572-1.1553-0.23661-2.1924-0.61116-3.1039-1.0517zm11.432 0.0584c-0.46501 0.22169-1.0496 0.46286-1.7408 0.67433-0.01136 0.26884-0.0308 0.53178-0.05739 0.78827 0.54143-0.18151 1.0719-0.28598 1.5664-0.33226a7.9375 7.9375 0 0 0 0.23184-1.1303zm-2.0261 0.75797c-0.13508 0.038-0.27344 0.0748-0.41584 0.10996-0.66319 0.16353-1.395 0.28903-2.178 0.35048 0.21412 0.27259 0.43696 0.52477 0.6629 0.75528 0.13046 0.13301 0.2612 0.25752 0.39152 0.37568 0.48688-0.33756 0.98692-0.59421 1.4815-0.78423 0.02686-0.26243 0.04653-0.53167 0.05788-0.80717zm-5.6202 0.3559c-0.37666 1.0431-0.57141 2.0589-0.65242 2.9821 0.17123 0.13574 0.34376 0.26394 0.5167 0.38397 0.60294 0.41851 1.2003 0.73602 1.7573 0.9797 0.30402-0.76793 0.79824-1.6195 1.5766-2.3822 0.20854-0.20415 0.43464-0.39809 0.677-0.57964-0.12284-0.10741-0.24599-0.22062-0.36887-0.34093-0.27978-0.27379-0.55492-0.57972-0.81553-0.91627-0.84848 0.0455-1.7522 0.014-2.6908-0.12674zm7.329 0.27463c-0.48201 0.0671-0.99513 0.18893-1.5165 0.38316-0.07447 0.58204-0.18473 1.1282-0.31636 1.6343 0.21524 0.13084 0.4178 0.24255 0.60103 0.33657 0.0013 4.8e-4 0.0021 9.7e-4 0.0033 2e-3a7.9375 7.9375 0 0 0 1.2285-2.3557zm-1.8037 0.49737c-0.40706 0.17211-0.81648 0.39062-1.2178 0.66272 0.33466 0.28408 0.66282 0.52205 0.9696 0.72034 0.10093-0.4338 0.18647-0.8959 0.24818-1.3831zm-1.4208 0.80518c-0.2533 0.1852-0.48889 0.38363-0.70563 0.59273-0.75105 0.72387-1.2437 1.5335-1.5633 2.2667 0.55675 0.22926 1.0667 0.38498 1.4902 0.49194 0.01091 3e-3 0.02107 5e-3 0.03187 8e-3a7.9375 7.9375 0 0 0 1.3166-0.84104c2e-3 -5e-3 4e-3 -0.01 6e-3 -0.0152 0.19564-0.50059 0.38811-1.0792 0.54826-1.724-0.35311-0.20491-0.73461-0.46119-1.1241-0.77905zm1.3418 0.90123c-0.13412 0.48624-0.28714 0.93331-0.4466 1.3351a7.9375 7.9375 0 0 0 1.0021-1.0616c-0.17123-0.076-0.35769-0.16652-0.5555-0.27351zm-6.1218 0.81435c-0.031811 0.51138-0.02963 0.99069-0.00562 1.4257 0.022165 0.40155 0.059485 0.76194 0.10223 1.0771a7.9375 7.9375 0 0 0 0.36114 0.0128 7.9375 7.9375 0 0 0 1.465-0.14284c0.018677-0.10662 0.041167-0.21913 0.068235-0.33744 0.05552-0.24262 0.13134-0.50751 0.23197-0.78584-0.57675-0.23396-1.1972-0.54678-1.8251-0.96792-0.13297-0.0892-0.26567-0.18322-0.39782-0.28155zm2.4323 1.3318c-0.10711 0.26512-0.19192 0.51808-0.25823 0.75047-0.02525 0.0885-0.04751 0.173-0.0683 0.25518a7.9375 7.9375 0 0 0 1.717-0.58919c-0.40478-0.0891-0.87754-0.22156-1.3905-0.41646z" fill="url(#a)"/>
  <g transform="matrix(.1101 0 0 .1101 -20.606 262.96)" fill="#fff" filter="url(#c)" stroke-width="2.0672">
   <path d="m229.86 212.76a5.7606 5.7606 0 0 1-5.7606 5.7606 5.7606 5.7606 0 0 1-5.7606-5.7606 5.7606 5.7606 0 0 1 5.7606-5.7606 5.7606 5.7606 0 0 1 5.7606 5.7606z"/>
   <path d="m233 238.34a3.25 3.25 0 0 1-3.25 3.25 3.25 3.25 0 0 1-3.25-3.25 3.25 3.25 0 0 1 3.25-3.25 3.25 3.25 0 0 1 3.25 3.25z"/>
   <path d="m221.04 231.44a3.25 3.25 0 0 1-3.25 3.25 3.25 3.25 0 0 1-3.25-3.25 3.25 3.25 0 0 1 3.25-3.25 3.25 3.25 0 0 1 3.25 3.25z"/>
   <path d="m263.34 278.84a4.5925 4.5925 0 0 1-4.5925 4.5925 4.5925 4.5925 0 0 1-4.5926-4.5925 4.5925 4.5925 0 0 1 4.5926-4.5925 4.5925 4.5925 0 0 1 4.5925 4.5925z"/>
   <path d="m271.28 249.74a6.0178 6.0178 0 0 1-6.0178 6.0178 6.0178 6.0178 0 0 1-6.0178-6.0178 6.0178 6.0178 0 0 1 6.0178-6.0178 6.0178 6.0178 0 0 1 6.0178 6.0178z"/>
   <path d="m284.82 225.31a6.6728 6.6728 0 0 1-6.6728 6.6728 6.6728 6.6728 0 0 1-6.6728-6.6728 6.6728 6.6728 0 0 1 6.6728-6.6728 6.6728 6.6728 0 0 1 6.6728 6.6728z"/>
   <path d="m278.58 209.48a3.2465 3.2465 0 0 1-3.2465 3.2465 3.2465 3.2465 0 0 1-3.2464-3.2465 3.2465 3.2465 0 0 1 3.2464-3.2464 3.2465 3.2465 0 0 1 3.2465 3.2464z"/>
   <path d="m306.27 183.02a4.3354 4.3354 0 0 1-4.3354 4.3354 4.3354 4.3354 0 0 1-4.3354-4.3354 4.3354 4.3354 0 0 1 4.3354-4.3354 4.3354 4.3354 0 0 1 4.3354 4.3354z"/>
   <path d="m313.34 197.07a3.8766 3.8766 0 0 1-3.8766 3.8766 3.8766 3.8766 0 0 1-3.8766-3.8766 3.8766 3.8766 0 0 1 3.8766-3.8766 3.8766 3.8766 0 0 1 3.8766 3.8766z"/>
   <path d="m284.35 292.05a3.3114 3.3114 0 0 1-3.3114 3.3114 3.3114 3.3114 0 0 1-3.3114-3.3114 3.3114 3.3114 0 0 1 3.3114-3.3114 3.3114 3.3114 0 0 1 3.3114 3.3114z"/>
   <path d="m306.46 264.14a3 3 0 0 1-3 3 3 3 0 0 1-3-3 3 3 0 0 1 3-3 3 3 0 0 1 3 3z"/>
   <path d="m321.04 256.25a3 3 0 0 1-3 3 3 3 0 0 1-3-3 3 3 0 0 1 3-3 3 3 0 0 1 3 3z"/>
   <path d="m317.89 272.16a3 3 0 0 1-3 3 3 3 0 0 1-3-3 3 3 0 0 1 3-3 3 3 0 0 1 3 3z"/>
   <path d="m321.84 246.7a3.331 3.331 0 0 1-3.331 3.331 3.331 3.331 0 0 1-3.331-3.331 3.331 3.331 0 0 1 3.331-3.331 3.331 3.331 0 0 1 3.331 3.331z"/>
  </g>
  <g transform="matrix(.1101 0 0 .1101 -20.606 262.96)" fill="#fff" filter="url(#b)" stroke-width="2.0672">
   <path d="m229.86 212.76a5.7606 5.7606 0 0 1-5.7606 5.7606 5.7606 5.7606 0 0 1-5.7606-5.7606 5.7606 5.7606 0 0 1 5.7606-5.7606 5.7606 5.7606 0 0 1 5.7606 5.7606z"/>
   <path d="m233 238.34a3.25 3.25 0 0 1-3.25 3.25 3.25 3.25 0 0 1-3.25-3.25 3.25 3.25 0 0 1 3.25-3.25 3.25 3.25 0 0 1 3.25 3.25z"/>
   <path d="m221.04 231.44a3.25 3.25 0 0 1-3.25 3.25 3.25 3.25 0 0 1-3.25-3.25 3.25 3.25 0 0 1 3.25-3.25 3.25 3.25 0 0 1 3.25 3.25z"/>
   <path d="m263.34 278.84a4.5925 4.5925 0 0 1-4.5925 4.5925 4.5925 4.5925 0 0 1-4.5926-4.5925 4.5925 4.5925 0 0 1 4.5926-4.5925 4.5925 4.5925 0 0 1 4.5925 4.5925z"/>
   <path d="m271.28 249.74a6.0178 6.0178 0 0 1-6.0178 6.0178 6.0178 6.0178 0 0 1-6.0178-6.0178 6.0178 6.0178 0 0 1 6.0178-6.0178 6.0178 6.0178 0 0 1 6.0178 6.0178z"/>
   <path d="m284.82 225.31a6.6728 6.6728 0 0 1-6.6728 6.6728 6.6728 6.6728 0 0 1-6.6728-6.6728 6.6728 6.6728 0 0 1 6.6728-6.6728 6.6728 6.6728 0 0 1 6.6728 6.6728z"/>
   <path d="m278.58 209.48a3.2465 3.2465 0 0 1-3.2465 3.2465 3.2465 3.2465 0 0 1-3.2464-3.2465 3.2465 3.2465 0 0 1 3.2464-3.2464 3.2465 3.2465 0 0 1 3.2465 3.2464z"/>
   <path d="m306.27 183.02a4.3354 4.3354 0 0 1-4.3354 4.3354 4.3354 4.3354 0 0 1-4.3354-4.3354 4.3354 4.3354 0 0 1 4.3354-4.3354 4.3354 4.3354 0 0 1 4.3354 4.3354z"/>
   <path d="m313.34 197.07a3.8766 3.8766 0 0 1-3.8766 3.8766 3.8766 3.8766 0 0 1-3.8766-3.8766 3.8766 3.8766 0 0 1 3.8766-3.8766 3.8766 3.8766 0 0 1 3.8766 3.8766z"/>
   <path d="m284.35 292.05a3.3114 3.3114 0 0 1-3.3114 3.3114 3.3114 3.3114 0 0 1-3.3114-3.3114 3.3114 3.3114 0 0 1 3.3114-3.3114 3.3114 3.3114 0 0 1 3.3114 3.3114z"/>
   <path d="m306.46 264.14a3 3 0 0 1-3 3 3 3 0 0 1-3-3 3 3 0 0 1 3-3 3 3 0 0 1 3 3z"/>
   <path d="m321.04 256.25a3 3 0 0 1-3 3 3 3 0 0 1-3-3 3 3 0 0 1 3-3 3 3 0 0 1 3 3z"/>
   <path d="m317.89 272.16a3 3 0 0 1-3 3 3 3 0 0 1-3-3 3 3 0 0 1 3-3 3 3 0 0 1 3 3z"/>
   <path d="m321.84 246.7a3.331 3.331 0 0 1-3.331 3.331 3.331 3.331 0 0 1-3.331-3.331 3.331 3.331 0 0 1 3.331-3.331 3.331 3.331 0 0 1 3.331 3.331z"/>
  </g>
 </g>
</svg>
