<svg version="1.1" viewBox="0 0 16 16" xmlns="http://www.w3.org/2000/svg">
 <defs>
  <style id="current-color-scheme" type="text/css">.ColorScheme-Text {
        color:#565656;
      }</style>
 </defs>
 <path class="ColorScheme-Text" d="m8 1a7 7 0 0 0-7 7 7 7 0 0 0 7 7 7 7 0 0 0 7-7 7 7 0 0 0-7-7zm-2.1647 3.3838c0.15196 0.010724 0.29794 0.079493 0.40104 0.2028l1.0368 1.2419c0.20617 0.24693 0.1651 0.62199-0.091146 0.83626l-0.20508 0.17318-0.41927 0.34863c0.016973 0.036984 0.032303 0.075881 0.05013 0.11621 0.16907 0.38075 0.4004 0.90391 0.87728 1.4743 0.47543 0.56913 0.94743 0.88784 1.292 1.1211 0.03749 0.025677 0.072614 0.049688 0.1071 0.072917l0.62663-0.52181c0.25585-0.21397 0.63178-0.18708 0.83854 0.059245l1.0368 1.2396c0.20603 0.24728 0.16689 0.62427-0.08887 0.83854l-0.35319 0.28939-0.0068-0.0068c-0.14691 0.09518-0.31459 0.16999-0.48991 0.22103-0.16316 0.04715-0.32172 0.07259-0.48535 0.07747-0.07504 0.0012-1.8125 0.0095-3.7598-2.3197-1.4087-1.6851-1.8752-2.8768-1.6133-4.1107 0.031469-0.15397 0.083247-0.30541 0.15951-0.46257 0.082229-0.16491 0.18538-0.31656 0.30534-0.44434l-0.006836-0.0091146 0.34863-0.29395c0.12812-0.10714 0.28782-0.15428 0.43978-0.14355z" color="#565656" fill="currentColor"/>
</svg>
