<svg width="64" height="64" version="1.1" xmlns="http://www.w3.org/2000/svg">
 <defs>
  <filter id="c" x="-.108" y="-.108" width="1.216" height="1.216" color-interpolation-filters="sRGB">
   <feGaussianBlur stdDeviation="1.35"/>
  </filter>
  <filter id="a" x="-.03072" y="-.03072" width="1.0614" height="1.0614" color-interpolation-filters="sRGB">
   <feGaussianBlur stdDeviation=".768"/>
  </filter>
  <linearGradient id="b" x1="7.937" x2="7.937" y1="15.081" y2="1.852" gradientTransform="translate(-2.286 -2.252)scale(4.0494)" gradientUnits="userSpaceOnUse">
   <stop stop-color="#9b6f27" offset="0"/>
   <stop stop-color="#d0ab6a" offset="1"/>
  </linearGradient>
  <filter id="e" x="-.013864" y="-.013864" width="1.0277" height="1.0277" color-interpolation-filters="sRGB">
   <feGaussianBlur stdDeviation=".298"/>
  </filter>
  <filter id="f" x="-.029686" y="-.029686" width="1.0594" height="1.0594" color-interpolation-filters="sRGB">
   <feGaussianBlur stdDeviation=".298"/>
  </filter>
 </defs>
 <rect x="2" y="2" width="60" height="60" rx="30" ry="30" filter="url(#a)" opacity=".15"/>
 <rect width="64" height="64" rx="0" ry="0" fill="none" style="paint-order:stroke fill markers"/>
 <rect x="2" y="2" width="60" height="60" rx="30" ry="30" fill="url(#b)"/>
 <circle cx="32.02" cy="32.044" r="30.001" fill="none"/>
 <path transform="translate(-83.876 -6.522)scale(1.3043)" d="m88.839 15.866c-8.285 0-15 6.715-15 15s6.715 15 15 15 15-6.715 15-15-6.715-15-15-15" filter="url(#c)" opacity=".15"/>
 <path d="M31.997 12.434c-10.806 0-19.565 8.759-19.565 19.565s8.759 19.564 19.565 19.564S51.56 42.805 51.56 32s-8.758-19.565-19.564-19.565z" fill="#825d21"/>
 <path d="M30.692 16.409a15.65 15.65 0 0 0-14.28 14.286h14.28zm2.609.005v14.28h14.286a15.65 15.65 0 0 0-14.286-14.28m-16.895 16.89a15.65 15.65 0 0 0 14.286 14.28v-14.28zm16.895 0v14.285a15.65 15.65 0 0 0 14.28-14.286z" fill="#d6b987"/>
 <path d="m10.787 10.787a29.934 29.934 0 0 0 0 42.426c0.119 0.119 0.242 0.23 0.362 0.345-11.4-11.775-11.288-30.43 0.345-42.065s30.29-11.743 42.066-0.345c-0.116-0.12-0.227-0.243-0.345-0.362a29.934 29.934 0 0 0-42.426 0z" fill="#ffffff" filter="url(#e)" opacity=".45"/>
 <path d="m37.435 61.526c5.772-1.063 11.297-3.831 15.779-8.313s7.25-10.007 8.313-15.779c-1.592 5.434-4.606 10.657-9.02 15.072s-9.639 7.428-15.072 9.02" fill="#ffffff" filter="url(#f)" opacity=".35"/>
</svg>
