<svg xmlns="http://www.w3.org/2000/svg" width="64" height="64"><defs><filter id="c" width="1.216" height="1.216" x="-.108" y="-.108" color-interpolation-filters="sRGB"><feGaussianBlur stdDeviation="1.35"/></filter><filter id="a" width="1.061" height="1.061" x="-.031" y="-.031" color-interpolation-filters="sRGB"><feGaussianBlur stdDeviation=".768"/></filter><linearGradient id="b" x1="7.937" x2="7.937" y1="15.081" y2="1.852" gradientTransform="translate(-2.286 -2.252) scale(4.0494)" gradientUnits="userSpaceOnUse"><stop offset="0" stop-color="#9b6f27"/><stop offset="1" stop-color="#d0ab6a"/></linearGradient></defs><rect width="60" height="60" x="2" y="2" filter="url(#a)" opacity=".15" rx="30" ry="30"/><rect width="64" height="64" fill="none" rx="0" ry="0" style="paint-order:stroke fill markers"/><rect width="60" height="60" x="2" y="2" fill="url(#b)" rx="30" ry="30"/><circle cx="32.02" cy="32.044" r="30.001" fill="none"/><path d="M88.839 15.866c-8.285 0-15 6.715-15 15s6.715 15 15 15 15-6.715 15-15-6.715-15-15-15z" filter="url(#c)" opacity=".15" transform="translate(-83.876 -6.522) scale(1.3043)"/><path fill="#825d21" d="M31.997 12.434c-10.806 0-19.565 8.759-19.565 19.565s8.759 19.564 19.565 19.564S51.56 42.805 51.56 32s-8.758-19.565-19.564-19.565z"/><path fill="#d6b987" d="M30.692 16.409a15.652 15.652 0 0 0-14.28 14.286h14.28zm2.609.005v14.28h14.286a15.652 15.652 0 0 0-14.286-14.28zm-16.895 16.89a15.652 15.652 0 0 0 14.286 14.28v-14.28zm16.895 0v14.285a15.652 15.652 0 0 0 14.28-14.286z"/></svg>