<svg width="64" height="64" xmlns="http://www.w3.org/2000/svg"><defs><filter id="a" x="-.036" y="-.036" width="1.072" height="1.072" color-interpolation-filters="sRGB"><feGaussianBlur stdDeviation=".89"/></filter><filter id="c" x="-.125" y="-.125" width="1.249" height="1.249" color-interpolation-filters="sRGB"><feGaussianBlur stdDeviation="1.349"/></filter><filter id="e" x="-.125" y="-.125" width="1.249" height="1.249" color-interpolation-filters="sRGB"><feGaussianBlur stdDeviation="1.349"/></filter><filter id="g" x="-.125" y="-.125" width="1.249" height="1.249" color-interpolation-filters="sRGB"><feGaussianBlur stdDeviation="1.349"/></filter><filter id="i" x="-.249" y="-.186" width="1.499" height="1.373" color-interpolation-filters="sRGB"><feGaussianBlur stdDeviation=".776"/></filter><filter id="j" x="-.24" y="-.186" width="1.479" height="1.373" color-interpolation-filters="sRGB"><feGaussianBlur stdDeviation=".776"/></filter><filter id="k" x="-.223" y="-.186" width="1.447" height="1.373" color-interpolation-filters="sRGB"><feGaussianBlur stdDeviation=".776"/></filter><linearGradient id="b" x1="408.25" x2="407.94" y1="547.6" y2="498.89" gradientTransform="translate(-510.64 -663.52) scale(1.3276)" gradientUnits="userSpaceOnUse"><stop stop-color="#fff" offset="0"/><stop stop-color="#e6e6e6" offset="1"/></linearGradient><linearGradient id="d" x1="25.093" x2="25.034" y1="59.233" y2="2.826" gradientUnits="userSpaceOnUse"><stop stop-color="#ff5400" offset="0"/><stop stop-color="#fb0" offset="1"/></linearGradient><linearGradient id="h" x1="26.502" x2="26.59" y1="59.602" y2="18.949" gradientUnits="userSpaceOnUse"><stop stop-color="#35e872" offset="0"/><stop stop-color="#34e9d8" offset="1"/></linearGradient><linearGradient id="f" x1="43.067" x2="42.579" y1="59.41" y2="28.346" gradientUnits="userSpaceOnUse"><stop stop-color="#3553e4" offset="0"/><stop stop-color="#56cef3" offset="1"/></linearGradient></defs><rect transform="translate(-389.32 -489.92) scale(1.0115)" x="386.85" y="486.31" width="59.315" height="59.315" ry="29.657" filter="url(#a)" opacity=".25"/><rect x="1.983" y="1.978" width="59.997" height="59.997" ry="29.998" fill="url(#b)"/><g stroke-width=".531"><path d="M31 5.025A26.925 26.925 0 0 0 5.025 31H31z" enable-background="new" filter="url(#c)" opacity=".15"/><path d="M31 5.025A26.925 26.925 0 0 0 5.025 31H31z" enable-background="new" fill="url(#d)"/><path d="M33 33v25.975A26.925 26.925 0 0 0 58.975 33z" enable-background="new" filter="url(#e)" opacity=".15"/><path d="M33 33v25.975A26.925 26.925 0 0 0 58.975 33z" enable-background="new" fill="url(#f)"/><path d="M5.025 33A26.925 26.925 0 0 0 31 58.975V33z" enable-background="new" filter="url(#g)" opacity=".15"/><path d="M5.025 33A26.925 26.925 0 0 0 31 58.975V33z" enable-background="new" fill="url(#h)"/></g><path d="M21.69 23.869c1.932-1.378 3.04-2.969 3.04-4.702 0-1.988-1.42-3.167-3.807-3.167a7.123 7.123 0 0 0-3.395.852l.554 1.86c.937-.425 1.648-.61 2.33-.61 1.122 0 1.761.497 1.761 1.392 0 1.136-.994 2.4-4.276 4.957V26H25v-2.131z" enable-background="new" filter="url(#i)" opacity=".15" style="font-feature-settings:normal;font-variant-caps:normal;font-variant-ligatures:normal;font-variant-numeric:normal"/><path d="M21.69 23.869c1.932-1.378 3.04-2.969 3.04-4.702 0-1.988-1.42-3.167-3.807-3.167a7.123 7.123 0 0 0-3.395.852l.554 1.86c.937-.425 1.648-.61 2.33-.61 1.122 0 1.761.497 1.761 1.392 0 1.136-.994 2.4-4.276 4.957V26H25v-2.131z" enable-background="new" fill="#fff" style="font-feature-settings:normal;font-variant-caps:normal;font-variant-ligatures:normal;font-variant-numeric:normal"/><path d="M44.938 42.608c.98-.504 1.513-1.26 1.513-2.157 0-1.47-1.415-2.45-3.502-2.45-2.213 0-3.683 1.19-3.683 2.968 0 1.079.546 1.723 1.288 2.171-.994.42-1.554 1.177-1.554 2.13C39 46.907 40.54 48 42.85 48c2.353 0 3.922-1.204 3.922-3.025 0-1.274-.84-1.933-1.835-2.367zm-2.073-2.535c.658 0 1.093.322 1.093.826 0 .505-.364.91-.925 1.05-.728-.265-1.274-.545-1.274-1.064 0-.49.434-.812 1.106-.812zm.112 5.854c-.896 0-1.484-.434-1.484-1.078 0-.462.294-.826.798-.994 1.05.336 1.989.588 1.989 1.246 0 .49-.532.826-1.303.826z" enable-background="new" filter="url(#j)" opacity=".15" style="font-feature-settings:normal;font-variant-caps:normal;font-variant-ligatures:normal;font-variant-numeric:normal"/><path d="M44.938 42.608c.98-.504 1.513-1.26 1.513-2.157 0-1.47-1.415-2.45-3.502-2.45-2.213 0-3.683 1.19-3.683 2.968 0 1.079.546 1.723 1.288 2.171-.994.42-1.554 1.177-1.554 2.13C39 46.907 40.54 48 42.85 48c2.353 0 3.922-1.204 3.922-3.025 0-1.274-.84-1.933-1.835-2.367zm-2.073-2.535c.658 0 1.093.322 1.093.826 0 .505-.364.91-.925 1.05-.728-.265-1.274-.545-1.274-1.064 0-.49.434-.812 1.106-.812zm.112 5.854c-.896 0-1.484-.434-1.484-1.078 0-.462.294-.826.798-.994 1.05.336 1.989.588 1.989 1.246 0 .49-.532.826-1.303.826z" enable-background="new" fill="#fff" style="font-feature-settings:normal;font-variant-caps:normal;font-variant-ligatures:normal;font-variant-numeric:normal"/><path d="M25 43.908h-1.345V38H21.28l-4.62 5.908v2.146h4.506v1.945h2.49v-1.945H25zm-6.08-.029 2.246-2.932v2.947z" enable-background="new" filter="url(#k)" opacity=".15" style="font-feature-settings:normal;font-variant-caps:normal;font-variant-ligatures:normal;font-variant-numeric:normal"/><path d="M25 43.908h-1.345V38H21.28l-4.62 5.908v2.146h4.506v1.945h2.49v-1.945H25zm-6.08-.029 2.246-2.932v2.947z" enable-background="new" fill="#fff" style="font-feature-settings:normal;font-variant-caps:normal;font-variant-ligatures:normal;font-variant-numeric:normal"/></svg>