<svg width="64" height="64" version="1.1" xmlns="http://www.w3.org/2000/svg">
 <defs>
  <filter id="c" x="-.038055" y="-.03405" width="1.0761" height="1.0681" color-interpolation-filters="sRGB">
   <feGaussianBlur stdDeviation=".227"/>
  </filter>
  <filter id="d" x="-.013864" y="-.013864" width="1.0277" height="1.0277" color-interpolation-filters="sRGB">
   <feGaussianBlur stdDeviation=".298"/>
  </filter>
  <filter id="e" x="-.029686" y="-.029686" width="1.0594" height="1.0594" color-interpolation-filters="sRGB">
   <feGaussianBlur stdDeviation=".298"/>
  </filter>
  <linearGradient id="b" x1="399.99" x2="399.99" y1="545.14" y2="518.14" gradientTransform="matrix(2.1428,0,0,2.1428,-826.35,-1107.5)" gradientUnits="userSpaceOnUse">
   <stop stop-color="#197ff1" offset="0"/>
   <stop stop-color="#21c6fb" offset="1"/>
  </linearGradient>
  <filter id="filter10" x="-.027" y="-.027" width="1.054" height="1.054" color-interpolation-filters="sRGB">
   <feGaussianBlur stdDeviation="0.675"/>
  </filter>
 </defs>
 <circle cx="31.999" cy="33" r="30" filter="url(#filter10)" opacity=".15"/>
 <circle cx="31.999" cy="32" r="30" fill="url(#b)" stroke-width="1.571"/>
 <circle cx="32.02" cy="32.044" r="30.001" fill="none" stroke-width="1.571"/>
 <path transform="translate(-84.517 18.867)scale(2.1428)" d="M56.312.457a1.84 1.84 0 0 1-1.85 1.832A1.84 1.84 0 0 1 52.614.457c0-1.011.828-1.832 1.849-1.832s1.849.82 1.849 1.832m4.615 1.948a.55.55 0 0 0-.235.098l-6.317.976-6.282-.99a.58.58 0 0 0-.573-.065.56.56 0 0 0-.303.488c-.002.195.124.364.303.455l4.923 1.547-.033 3.552-1.737 5.32a.494.494 0 0 0 .134.715c.251.161.607.112.774-.13l2.804-5.742 2.75 5.732c.149.251.48.338.74.195a.514.514 0 0 0 .203-.715l-1.705-5.343-.068-3.344 4.993-1.806a.52.52 0 0 0 .202-.618.545.545 0 0 0-.573-.325" enable-background="new" fill-opacity=".852" filter="url(#c)" opacity=".25"/>
 <g fill="#fff">
  <path d="M36.149 19.846c0 2.167-1.775 3.926-3.962 3.926s-3.963-1.759-3.963-3.926 1.775-3.926 3.963-3.926c2.187 0 3.962 1.759 3.962 3.926m9.89 4.174c-.184.03-.357.101-.505.21l-13.535 2.09-13.462-2.12c-.348-.25-.837-.325-1.226-.139-.39.186-.644.626-.65 1.045-.004.418.266.78.65.974l10.549 3.316-.072 7.612-3.723 11.4c-.358.519-.249 1.185.289 1.531s1.3.241 1.659-.278l6.007-12.305 5.893 12.283c.32.538 1.03.725 1.587.418.558-.308.752-.994.433-1.532l-3.653-11.45-.144-7.165 10.697-3.871c.432-.293.62-.847.432-1.323-.187-.477-.701-.754-1.226-.696" enable-background="new" fill-opacity=".852"/>
  <path d="M10.787 10.787a29.934 29.934 0 0 0 0 42.426c.119.119.242.23.362.345-11.4-11.775-11.288-30.43.345-42.065S41.784-.25 53.56 11.148c-.116-.12-.227-.243-.345-.362a29.934 29.934 0 0 0-42.426 0z" filter="url(#d)" opacity=".35"/>
  <path d="m37.435 61.526c5.772-1.063 11.297-3.831 15.779-8.313s7.25-10.007 8.313-15.779c-1.592 5.434-4.606 10.657-9.02 15.072s-9.639 7.428-15.072 9.02" filter="url(#e)" opacity=".35"/>
 </g>
</svg>
