<svg xmlns="http://www.w3.org/2000/svg" width="64" height="64"><defs><filter id="a" width="1.072" height="1.072" x="-.036" y="-.036" color-interpolation-filters="sRGB"><feGaussianBlur stdDeviation=".42"/></filter><filter id="c" width="1.076" height="1.068" x="-.038" y="-.034" color-interpolation-filters="sRGB"><feGaussianBlur stdDeviation=".227"/></filter><linearGradient id="b" x1="399.99" x2="399.99" y1="545.14" y2="518.14" gradientTransform="translate(-826.36 -1107.5) scale(2.1429)" gradientUnits="userSpaceOnUse"><stop offset="0" stop-color="#197ff1"/><stop offset="1" stop-color="#21c6fb"/></linearGradient></defs><circle cx="400.57" cy="531.8" r="14" filter="url(#a)" opacity=".25" transform="translate(-826.36 -1107.5) scale(2.1429)"/><g stroke-width="1.571"><circle cx="32.02" cy="32.044" r="30.001" fill="url(#b)"/><circle cx="32.02" cy="32.044" r="30.001" fill="none"/></g><path fill-opacity=".852" d="M56.312.457a1.841 1.841 0 0 1-1.85 1.832A1.84 1.84 0 0 1 52.614.457c0-1.011.828-1.832 1.849-1.832 1.02 0 1.849.82 1.849 1.832zm4.615 1.948a.549.549 0 0 0-.235.098l-6.317.976-6.282-.99a.58.58 0 0 0-.573-.065.563.563 0 0 0-.303.488c-.002.195.124.364.303.455l4.923 1.547-.033 3.552-1.737 5.32a.494.494 0 0 0 .134.715c.251.161.607.112.774-.13l2.804-5.742 2.75 5.732c.149.251.48.338.74.195a.514.514 0 0 0 .203-.715l-1.705-5.343-.068-3.344 4.993-1.806a.523.523 0 0 0 .202-.618.545.545 0 0 0-.573-.325z" enable-background="new" filter="url(#c)" opacity=".25" transform="translate(-84.517 18.867) scale(2.1428)"/><path fill="#fff" fill-opacity=".852" d="M36.149 19.846c0 2.167-1.775 3.926-3.962 3.926-2.188 0-3.963-1.759-3.963-3.926 0-2.167 1.775-3.926 3.963-3.926 2.187 0 3.962 1.759 3.962 3.926zm9.89 4.174c-.184.03-.357.101-.505.21l-13.535 2.09-13.462-2.12c-.348-.25-.837-.325-1.226-.139-.39.186-.644.626-.65 1.045-.004.418.266.78.65.974l10.549 3.316-.072 7.612-3.723 11.4c-.358.519-.249 1.185.289 1.531.538.346 1.3.241 1.659-.278l6.007-12.305 5.893 12.283c.32.538 1.03.725 1.587.418.558-.308.752-.994.433-1.532l-3.653-11.45-.144-7.165 10.697-3.871c.432-.293.62-.847.432-1.323-.187-.477-.701-.754-1.226-.696z" enable-background="new"/></svg>