<svg width="64" height="64" version="1.1" viewBox="0 0 16.933 16.933" xmlns="http://www.w3.org/2000/svg" xmlns:xlink="http://www.w3.org/1999/xlink">
 <defs>
  <linearGradient id="a" x1="8.467" x2="8.467" y1="281.65" y2="295.41" gradientUnits="userSpaceOnUse">
   <stop stop-color="#f1f3f9" offset="0"/>
   <stop stop-color="#fbfeff" offset="1"/>
  </linearGradient>
  <filter id="d" x="-.036" y="-.036" width="1.072" height="1.072" color-interpolation-filters="sRGB">
   <feGaussianBlur stdDeviation="0.20637001"/>
  </filter>
  <filter id="c" x="-.04464" y="-.044631" width="1.0893" height="1.0893" color-interpolation-filters="sRGB">
   <feGaussianBlur stdDeviation="0.13482703"/>
  </filter>
  <filter id="b" x="-.044637" y="-.04464" width="1.0893" height="1.0893" color-interpolation-filters="sRGB">
   <feGaussianBlur stdDeviation="0.13482703"/>
  </filter>
  <filter id="f" x="-.06" y="-.06" width="1.12" height="1.12" color-interpolation-filters="sRGB">
   <feGaussianBlur stdDeviation="0.64998245"/>
  </filter>
  <linearGradient id="e" x1="13.229" x2="13.229" y1="9.7895" y2="16.668" gradientUnits="userSpaceOnUse">
   <stop stop-color="#8b63c3" offset="0"/>
   <stop stop-color="#6164c5" offset="1"/>
  </linearGradient>
  <linearGradient id="g" x1="100" x2="100" y1="852.36" y2="1052.4" gradientTransform="matrix(.033613 0 0 .033613 10.146 -18.639)" gradientUnits="userSpaceOnUse">
   <stop stop-color="#fff" offset="0"/>
   <stop stop-color="#d7d7d7" offset="1"/>
  </linearGradient>
 </defs>
 <g transform="matrix(1.1539 0 0 1.1539 -1.3032 -324.46)" stroke-width=".7511" style="paint-order:stroke markers fill">
  <circle cx="8.467" cy="288.53" r="6.879" filter="url(#d)" opacity=".25"/>
  <circle cx="8.467" cy="288.53" r="6.879" fill="url(#a)"/>
  <path d="m8.318 284.04a4.498 4.498 0 0 0-3.032 1.313 4.498 4.498 0 0 0-0.367 5.935l0.945-0.945a3.175 3.175 0 0 1 0.358-4.054 3.175 3.175 0 0 1 3.303-0.744v1.136l1.697-1.697a4.498 4.498 0 0 0-2.904-0.944z" filter="url(#c)" opacity=".15"/>
  <path d="m8.318 284.04a4.498 4.498 0 0 0-3.032 1.313 4.498 4.498 0 0 0-0.367 5.935l0.945-0.945a3.175 3.175 0 0 1 0.358-4.054 3.175 3.175 0 0 1 3.303-0.744v1.136l1.697-1.697a4.498 4.498 0 0 0-2.904-0.944z" fill="#4c8fd8"/>
  <path d="m12.015 285.78-0.945 0.945a3.175 3.175 0 0 1-0.359 4.054 3.175 3.175 0 0 1-3.303 0.744v-1.137l-1.122 1.123-0.575 0.574a4.498 4.498 0 0 0 5.936-0.368 4.498 4.498 0 0 0 0.368-5.935z" filter="url(#b)" opacity=".15"/>
  <path d="m12.015 285.78-0.945 0.945a3.175 3.175 0 0 1-0.359 4.054 3.175 3.175 0 0 1-3.303 0.744v-1.137l-1.122 1.123-0.575 0.574a4.498 4.498 0 0 0 5.936-0.368 4.498 4.498 0 0 0 0.368-5.935z" fill="#6ddce7"/>
 </g>
 <circle transform="matrix(.26458 0 0 .26458 9.3766 9.3766)" cx="14.56" cy="14.56" r="13" filter="url(#f)" opacity=".25" stroke-width="3.7796" style="paint-order:stroke markers fill"/>
 <circle cx="13.229" cy="13.229" r="3.4395" fill="url(#e)" style="paint-order:stroke fill markers"/>
 <path d="m12.583 13.513c0 0.60887 0.01149 0.8214-0.37911 0.8214-0.39059 0-0.70078 0.12637-0.70078 0.4825 0 0.35613 0.36762 0.52845 0.59738 0.52845s0.68355-0.16083 0.68355-0.64333v-2.1827l1.953-0.45377v1.6716s0.02298 0.20105-0.2355 0.20105c-0.25848 0-0.82714-0.07468-0.82714 0.47102 0 0.54568 0.55143 0.51122 0.63759 0.51122 0.08616 0 0.64334-0.09191 0.64334-0.74099v-3.0673l-2.3837 0.45952z" fill="url(#g)" stroke-width=".13349"/>
</svg>
