<svg xmlns="http://www.w3.org/2000/svg" width="64" height="64"><defs><linearGradient id="d" x1="29.964" x2="29.964" y1="2.691" y2="61.999" gradientTransform="matrix(-4.7351 0 0 4.741 93.611 -4904.5)" gradientUnits="userSpaceOnUse"><stop offset="0" stop-color="#c61423"/><stop offset="1" stop-color="#dc2b41"/></linearGradient><linearGradient id="b" x1="32" x2="32" y1="2" y2="62" gradientTransform="translate(7.716 9.219)" gradientUnits="userSpaceOnUse"><stop offset="0" stop-color="#fff"/><stop offset="1" stop-color="#fbe5e5"/></linearGradient><linearGradient id="f" x1="19.289" x2="19.289" y1="2.799" y2="27.441" gradientTransform="matrix(1.5 0 0 1.5 -575.57 -753.76)" gradientUnits="userSpaceOnUse"><stop offset="0" stop-color="#197cf1"/><stop offset="1" stop-color="#20bcfa"/></linearGradient><filter id="a" width="1.072" height="1.072" x="-.036" y="-.036" color-interpolation-filters="sRGB"><feGaussianBlur stdDeviation="14.344"/></filter><filter id="c" width="1.074" height="1.07" x="-.037" y="-.035" color-interpolation-filters="sRGB"><feGaussianBlur stdDeviation=".864"/></filter><filter id="e" width="1.11" height="1.054" x="-.055" y="-.027" color-interpolation-filters="sRGB"><feGaussianBlur stdDeviation=".275"/></filter></defs><circle cx="512" cy="512" r="478.12" filter="url(#a)" opacity=".25" style="paint-order:stroke markers fill" transform="translate(-.125 -.125)scale(.06274)"/><circle cx="32" cy="32" r="30" fill="url(#b)" style="paint-order:stroke markers fill"/><path d="M38.588 2.691c-18.233 14.96-30.116 19-35.139 19.85a29.3 29.3 0 0 0-1.291 6.22c3.02-.418 10.267-1.807 18-6.458 10.068-6.055 22.105-17.55 22.105-17.55-3.283 6.182-4.307 28.584-4.38 56.712.066-.012.136-.02.202-.033a33 33 0 0 0 1.487-.328c5.135-1.29 9.67-3.916 13.643-7.889q2.796-2.8 4.7-5.969c-1.763-5.857-3.153-12.275-4.304-18.273-.92-6.706-.55-12.886.102-17.656-.168-.175-.323-.356-.497-.529-4.234-4.234-9.115-6.922-14.629-8.096zM2.014 32.595c.04 2.343.31 4.59.826 6.737 8.466.567 21.157 9.511 27.197 22.607.064.003.126.012.19.015h.025c.54.029 1.055.045 1.557.045H32c.655 0 1.302-.019 1.912-.05l.442-.03c.412-.03.815-.078 1.22-.123-4.713-13.74-27.114-29.18-33.56-29.2z" color="#000" filter="url(#c)" opacity=".25"/><path fill="url(#d)" d="M38.588 2.691c-18.233 14.96-30.116 19-35.139 19.85a29.3 29.3 0 0 0-1.291 6.22c3.02-.418 10.267-1.807 18-6.458 10.068-6.055 22.105-17.55 22.105-17.55-3.283 6.182-4.307 28.584-4.38 56.712.066-.012.136-.02.202-.033a33 33 0 0 0 1.487-.328c5.135-1.29 9.67-3.916 13.643-7.889q2.796-2.8 4.7-5.969c-1.763-5.857-3.153-12.275-4.304-18.273-.92-6.706-.55-12.886.102-17.656-.168-.175-.323-.356-.497-.529-4.234-4.234-9.115-6.922-14.629-8.096zM2.014 32.595c.04 2.343.31 4.59.826 6.737 8.466.567 21.157 9.511 27.197 22.607.064.003.126.012.19.015h.025c.54.029 1.055.045 1.557.045H32c.655 0 1.302-.019 1.912-.05l.442-.03c.412-.03.815-.078 1.22-.123-4.713-13.74-27.114-29.18-33.56-29.2z" color="#000"/><path d="M25.289 2.799a30 30 0 0 0-12 5.756v18.887l6-3.465 6 3.465z" filter="url(#e)" opacity=".25"/><path fill="url(#f)" d="M25.289 2.799a30 30 0 0 0-12 5.756v18.887l6-3.465 6 3.465z"/></svg>