<svg width="64" height="64" enable-background="new 0 0 1024 1024" image-rendering="optimizeSpeed" version="1.1" xmlns="http://www.w3.org/2000/svg">
 <defs>
  <linearGradient id="b" x1="520.32" x2="520" y1="-118.42" y2="1024" gradientTransform="translate(-1.405 .497) scale(.06363)" gradientUnits="userSpaceOnUse">
   <stop stop-color="#ac7c3e" offset="0"/>
   <stop stop-color="#bc8b3c" offset="1"/>
  </linearGradient>
  <filter id="a" x="-.036001" y="-.036001" width="1.072" height="1.072" color-interpolation-filters="sRGB">
   <feGaussianBlur stdDeviation=".9"/>
  </filter>
  <filter id="filter26" x="-.013853" y="-.013853" width="1.0277" height="1.0277" color-interpolation-filters="sRGB">
   <feGaussianBlur stdDeviation="0.29776566"/>
  </filter>
  <filter id="filter25" x="-.029663" y="-.029663" width="1.0593" height="1.0593" color-interpolation-filters="sRGB">
   <feGaussianBlur stdDeviation="0.29776566"/>
  </filter>
 </defs>
 <path d="m62 32.16c0-0.506-0.013-1.009-0.032-1.499q-0.509-11.464-8.753-19.717c-5.857-5.854-12.93-8.784-21.215-8.784-8.282 0-15.358 2.93-21.212 8.784-5.857 5.855-8.787 12.93-8.787 21.215 0 8.282 2.93 15.358 8.787 21.212 5.482 5.492 12.05 8.41 19.672 8.756 0.51 0.02 1.018 0.032 1.54 0.032 8.285 0 15.358-2.933 21.215-8.788 5.855-5.854 8.785-12.93 8.785-21.212z" filter="url(#a)" opacity=".25"/>
 <path transform="translate(.838 -1.036)" d="M61.162 33.036c0-.506-.013-1.009-.032-1.499q-.509-11.464-8.753-19.717c-5.857-5.854-12.93-8.784-21.215-8.784-8.282 0-15.358 2.93-21.212 8.784-5.857 5.855-8.787 12.93-8.787 21.215 0 8.282 2.93 15.358 8.787 21.212 5.482 5.492 12.05 8.41 19.672 8.756.51.02 1.018.032 1.54.032 8.285 0 15.358-2.933 21.215-8.788 5.855-5.854 8.785-12.93 8.785-21.212z" fill="url(#b)"/>
 <path transform="translate(.838 -1.036)" d="M28.444 16.506C19.032 17.904 12.5 26.618 13.886 35.951c1.387 9.334 10.17 15.773 19.582 14.375 9.412-1.398 15.943-10.113 14.557-19.446-1.386-9.334-10.168-15.772-19.581-14.374zm.255 1.716c8.494-1.262 16.363 4.516 17.61 12.913a15.201 15.201 0 0 1-1.946 9.98c-.182-.094-5.5-2.816-8.934-2.306 0 0-1.3-1.105-1.276-3.489 0 0 1.15-1.36 1.088-4.326 0 0 .157-1.864-.24-1.994 0 0-.073-.664-.038-1.887.034-1.222-.453-5.234-5.902-4.425-5.448.81-4.749 4.79-4.36 5.95.388 1.16.513 1.816.513 1.816-.343.24.348 1.978.348 1.978.803 2.856 2.299 3.823 2.299 3.823.716 2.274-.206 3.709-.206 3.709-3.084.458-6.697 3.693-7.542 4.48a15.199 15.199 0 0 1-4.51-8.748c-1.248-8.397 4.602-16.213 13.096-17.475z" enable-background="accumulate" fill="#8a5411" image-rendering="auto" opacity=".75" style="isolation:auto;mix-blend-mode:normal;text-decoration-color:#000;text-decoration-line:none;text-decoration-style:solid;text-indent:0;text-transform:none;white-space:normal"/>
 <path d="m10.787 10.787c-11.752 11.752-11.752 30.674 0 42.426 0.11855 0.11855 0.24184 0.22911 0.36184 0.34527-11.399-11.775-11.288-30.431 0.34527-42.065 11.634-11.634 30.289-11.744 42.065-0.34527-0.11616-0.12-0.22671-0.24329-0.34527-0.36184-11.752-11.752-30.674-11.752-42.426 0z" fill="#ffffff" filter="url(#filter26)" opacity=".3"/>
 <path d="m37.435 61.526c5.7718-1.0635 11.297-3.831 15.779-8.3126s7.2491-10.007 8.3126-15.779c-1.5917 5.4332-4.6056 10.657-9.0198 15.072s-9.6384 7.428-15.072 9.0198z" fill="#ffffff" filter="url(#filter25)" opacity=".25"/>
</svg>
