<svg id="Calculator" width="64" height="64" enable-background="new 0 0 1024 1024" image-rendering="optimizeSpeed" version="1.1" viewBox="0 0 64 64" xmlns="http://www.w3.org/2000/svg" xmlns:xlink="http://www.w3.org/1999/xlink">
 <defs>
  <linearGradient id="a" x1="520.32" x2="520" y1="-118.42" y2="1024" gradientTransform="matrix(.063633 0 0 .063633 -1.4052 .49731)" gradientUnits="userSpaceOnUse">
   <stop stop-color="#ac7c3e" offset="0"/>
   <stop stop-color="#bc8b3c" offset="1"/>
  </linearGradient>
  <filter id="b" x="-.036" y="-.036" width="1.072" height="1.072" color-interpolation-filters="sRGB">
   <feGaussianBlur stdDeviation="0.90000001"/>
  </filter>
 </defs>
 <g transform="translate(.83757 -1.0363)">
  <path d="m61.162 33.036c0-0.50589-0.0127-1.0086-0.03181-1.4986q-0.50907-11.464-8.7528-19.717c-5.8575-5.8543-12.93-8.7846-21.215-8.7846-8.2819 0-15.358 2.9303-21.212 8.7846-5.8575 5.8543-8.7878 12.93-8.7878 21.215 0 8.2819 2.9303 15.358 8.7878 21.212 5.482 5.4916 12.049 8.4092 19.672 8.756 0.50907 0.01909 1.0181 0.03182 1.5399 0.03182 8.2851 0 15.358-2.9335 21.215-8.7878 5.8543-5.8543 8.7846-12.93 8.7846-21.212z" filter="url(#b)" opacity=".25" stroke-width=".99798"/>
  <g id="shadow" transform="matrix(.0625 0 0 .0625 -.83757 1.0363)" stroke-width="15.938"></g>
  <path d="m61.162 33.036c0-0.50589-0.0127-1.0086-0.03181-1.4986q-0.50907-11.464-8.7528-19.717c-5.8575-5.8543-12.93-8.7846-21.215-8.7846-8.2819 0-15.358 2.9303-21.212 8.7846-5.8575 5.8543-8.7878 12.93-8.7878 21.215 0 8.2819 2.9303 15.358 8.7878 21.212 5.482 5.4916 12.049 8.4092 19.672 8.756 0.50907 0.01909 1.0181 0.03182 1.5399 0.03182 8.2851 0 15.358-2.9335 21.215-8.7878 5.8543-5.8543 8.7846-12.93 8.7846-21.212z" fill="url(#a)" stroke-width=".99798"/>
  <path d="m28.444 16.506c-9.4122 1.3982-15.944 10.112-14.558 19.445 1.3865 9.3336 10.17 15.773 19.582 14.375 9.4122-1.3982 15.943-10.113 14.557-19.446-1.3865-9.3337-10.168-15.772-19.581-14.374zm0.25487 1.7157c8.4938-1.2618 16.363 4.5162 17.61 12.913 0.53315 3.589-0.2337 7.0695-1.9458 9.98-0.18168-0.0936-5.4998-2.8158-8.9337-2.3057 0 0-1.3006-1.1047-1.2761-3.4886 1e-5 0 1.1502-1.3603 1.0882-4.3264 0 0 0.1568-1.8637-0.24122-1.9939 0 0-0.0724-0.66436-0.0376-1.8867 0.0348-1.2223-0.45275-5.2343-5.9014-4.4249-5.4487 0.80941-4.749 4.7898-4.3604 5.9492 0.38862 1.1595 0.51362 1.816 0.51362 1.816-0.34298 0.24028 0.34764 1.9781 0.34764 1.9781 0.80294 2.856 2.2988 3.8232 2.2988 3.8232 0.71645 2.2738-0.20574 3.7088-0.20574 3.7088-3.084 0.4581-6.6968 3.6931-7.5419 4.4806-2.3503-2.2631-3.9954-5.2816-4.5104-8.7484-1.2474-8.397 4.602-16.213 13.096-17.475z" color="#000000" color-rendering="auto" enable-background="accumulate" fill="#8a5411" image-rendering="auto" opacity=".75" shape-rendering="auto" solid-color="#000000" style="isolation:auto;mix-blend-mode:normal;text-decoration-color:#000000;text-decoration-line:none;text-decoration-style:solid;text-indent:0;text-transform:none;white-space:normal"/>
 </g>
</svg>
