<svg xmlns="http://www.w3.org/2000/svg" width="64" height="64" enable-background="new 0 0 1024 1024" image-rendering="optimizeSpeed"><defs><filter id="a" width="1.072" height="1.072" x="-.036" y="-.036" color-interpolation-filters="sRGB"><feGaussianBlur stdDeviation=".9"/></filter><filter id="c" width="1.028" height="1.028" x="-.014" y="-.014" color-interpolation-filters="sRGB"><feGaussianBlur stdDeviation=".298"/></filter><filter id="d" width="1.059" height="1.059" x="-.03" y="-.03" color-interpolation-filters="sRGB"><feGaussianBlur stdDeviation=".298"/></filter><linearGradient id="b" x1="520.32" x2="520" y1="-118.42" y2="1024" gradientTransform="translate(-1.405 .497)scale(.06363)" gradientUnits="userSpaceOnUse"><stop offset="0" stop-color="#ac7c3e"/><stop offset="1" stop-color="#bc8b3c"/></linearGradient></defs><path d="M62 32.16c0-.506-.013-1.009-.032-1.499q-.509-11.464-8.753-19.717Q44.429 2.162 32 2.16c-8.282 0-15.358 2.93-21.212 8.784-5.857 5.855-8.787 12.93-8.787 21.215 0 8.282 2.93 15.358 8.787 21.212 5.482 5.492 12.05 8.41 19.672 8.756.51.02 1.018.032 1.54.032 8.285 0 15.358-2.933 21.215-8.788C59.07 47.517 62 40.441 62 32.159z" filter="url(#a)" opacity=".25"/><path fill="url(#b)" d="M61.162 33.036c0-.506-.013-1.009-.032-1.499q-.509-11.464-8.753-19.717-8.787-8.782-21.215-8.784c-8.282 0-15.358 2.93-21.212 8.784-5.857 5.855-8.787 12.93-8.787 21.215 0 8.282 2.93 15.358 8.787 21.212 5.482 5.492 12.05 8.41 19.672 8.756.51.02 1.018.032 1.54.032 8.285 0 15.358-2.933 21.215-8.788 5.855-5.854 8.785-12.93 8.785-21.212z" transform="translate(.838 -1.036)"/><path fill="#8a5411" d="M28.444 16.506C19.032 17.904 12.5 26.618 13.886 35.951s10.17 15.773 19.582 14.375S49.411 40.213 48.025 30.88 37.857 15.108 28.444 16.506m.255 1.716c8.494-1.262 16.363 4.516 17.61 12.913a15.2 15.2 0 0 1-1.946 9.98c-.182-.094-5.5-2.816-8.934-2.306 0 0-1.3-1.105-1.276-3.489 0 0 1.15-1.36 1.088-4.326 0 0 .157-1.864-.24-1.994 0 0-.073-.664-.038-1.887s-.453-5.234-5.902-4.425-4.749 4.79-4.36 5.95.513 1.816.513 1.816c-.343.24.348 1.978.348 1.978.803 2.856 2.299 3.823 2.299 3.823.716 2.274-.206 3.709-.206 3.709-3.084.458-6.697 3.693-7.542 4.48a15.2 15.2 0 0 1-4.51-8.748c-1.248-8.397 4.602-16.213 13.096-17.475z" enable-background="accumulate" image-rendering="auto" opacity=".75" style="isolation:auto;mix-blend-mode:normal;text-decoration-color:#000;text-decoration-line:none;text-decoration-style:solid;text-indent:0;text-transform:none;white-space:normal" transform="translate(.838 -1.036)"/><path fill="#fff" d="M10.787 10.787a29.934 29.934 0 0 0 0 42.426c.119.119.242.23.362.345-11.4-11.775-11.288-30.43.345-42.065S41.784-.25 53.56 11.148c-.116-.12-.227-.243-.345-.362a29.934 29.934 0 0 0-42.426 0z" filter="url(#c)" opacity=".3"/><path fill="#fff" d="M37.435 61.526c5.772-1.063 11.297-3.831 15.779-8.313s7.25-10.007 8.313-15.779c-1.592 5.434-4.606 10.657-9.02 15.072s-9.639 7.428-15.072 9.02" filter="url(#d)" opacity=".25"/></svg>