<svg xmlns="http://www.w3.org/2000/svg" xmlns:xlink="http://www.w3.org/1999/xlink" width="64" height="64" enable-background="new 0 0 1024 1024" image-rendering="optimizeSpeed"><defs><linearGradient id="a"><stop offset="0"/><stop offset="1" stop-opacity=".502"/></linearGradient><linearGradient id="c" x1="32" x2="32" y1="62" y2="2" gradientTransform="translate(65.088 .876)" gradientUnits="userSpaceOnUse"><stop offset="0" stop-color="#ff364e"/><stop offset="1" stop-color="#ff5d1d"/></linearGradient><linearGradient xlink:href="#a" id="e" x1="39.157" x2="39.157" y1="62" y2="5.303" gradientUnits="userSpaceOnUse"/><linearGradient xlink:href="#a" id="d" x1="25.071" x2="25.071" y1="62" y2="5.063" gradientUnits="userSpaceOnUse"/><linearGradient xlink:href="#a" id="f" x1="31.99" x2="31.99" y1="62" y2="21.338" gradientUnits="userSpaceOnUse"/><linearGradient id="h" x1="32" x2="32" y1="45" y2="19" gradientUnits="userSpaceOnUse"><stop offset="0" stop-color="#fff"/><stop offset="1" stop-color="#f9dfdf"/></linearGradient><linearGradient id="i" x1="32" x2="32" y1="43" y2="21" gradientUnits="userSpaceOnUse"><stop offset="0" stop-color="#196ce8"/><stop offset="1" stop-color="#34c6ef"/></linearGradient><filter id="b" width="1.072" height="1.072" x="-.036" y="-.036" color-interpolation-filters="sRGB"><feGaussianBlur stdDeviation="14.17"/></filter><filter id="g" width="1.095" height="1.161" x="-.048" y="-.081" color-interpolation-filters="sRGB"><feGaussianBlur stdDeviation=".875"/></filter></defs><path d="M970.43 391.52a515 515 0 0 0-3.653-13.61c-1-3.403-2.001-6.855-3.152-10.508a422 422 0 0 0-5.304-15.862c-6.455-18.263-14.16-36.076-23.167-53.689a475 475 0 0 0-12.309-22.416c-20.315-34.525-45.833-67.249-76.406-97.821-72.653-72.653-157.26-116.74-253.84-132.15a484 484 0 0 0-50.087-5.354c-9.707-.55-19.865-.85-30.122-.85-9.357 0-18.614.25-27.92.75-118.44 6.105-220.46 51.988-306.07 137.6Q40.05 315.96 40.05 511.6c0 130.45 46.134 241.83 138.35 334.04 56.741 56.691 120.64 95.97 191.24 117.64 36.777 11.258 74.855 17.863 114.83 19.965h.4c8.507.45 16.612.7 24.518.7h3.003a583 583 0 0 0 30.122-.8c2.501-.15 4.753-.3 6.955-.45 20.215-1.451 39.929-4.053 58.743-7.706a520 520 0 0 0 23.417-5.154c80.859-20.315 152.26-61.645 214.81-124.19 48.636-48.636 84.462-102.57 107.43-161.92 18.463-47.685 28.67-98.872 30.572-153.61.2-6.054.3-12.259.3-18.514V508.6c-.2-40.68-4.954-79.558-14.31-117.09z" filter="url(#b)" opacity=".25" transform="translate(-.544 -.493)scale(.06351)"/><g stroke-width="1.227"><path fill="url(#c)" d="M32 2A30 30 0 0 0 2 32a30 30 0 0 0 30 30 30 30 0 0 0 30-30A30 30 0 0 0 32 2"/><path fill="url(#d)" d="M18.844 5.063A30 30 0 0 0 2 32a30 30 0 0 0 30 30 30 30 0 0 0 16.143-4.717z" opacity=".1"/><path fill="url(#e)" d="M45.617 5.303 16.314 57.53A30 30 0 0 0 32 62a30 30 0 0 0 30-30A30 30 0 0 0 45.617 5.303" opacity=".1"/><path fill="url(#f)" d="M2.043 33.227A30 30 0 0 0 32 62a30 30 0 0 0 29.938-28.773z" opacity=".1"/></g><path d="M32 19c-12.375 0-22 10.111-22 13.237C10 36.333 19.625 45 32 45s22-10.111 22-12.763C54 29.111 44.375 19 32 19" filter="url(#g)" opacity=".15"/><path fill="url(#h)" d="M32 19c-12.375 0-22 10.111-22 13.237C10 36.333 19.625 45 32 45s22-10.111 22-12.763C54 29.111 44.375 19 32 19"/><circle cx="32" cy="32" r="11" fill="url(#i)"/><circle cx="32" cy="32" r="6" fill="#3f3f3f"/></svg>