<svg xmlns="http://www.w3.org/2000/svg" width="64" height="64" enable-background="new 0 0 1024 1024" image-rendering="optimizeSpeed"><defs><filter id="a" width="1.072" height="1.072" x="-.036" y="-.036" color-interpolation-filters="sRGB"><feGaussianBlur stdDeviation=".9"/></filter><filter id="c" width="1.12" height="1.12" x="-.06" y="-.06" color-interpolation-filters="sRGB"><feGaussianBlur stdDeviation=".7"/></filter><linearGradient id="b" x1="533.34" x2="524.91" y1="1010.1" y2="2002.6" gradientTransform="translate(-2.738 -64.909) scale(.06383)" gradientUnits="userSpaceOnUse"><stop offset="0" stop-color="#8a26af"/><stop offset="1" stop-color="#3bcbd9"/></linearGradient></defs><circle cx="32" cy="32" r="30" fill-rule="evenodd" filter="url(#a)" opacity=".25" style="paint-order:fill markers stroke"/><circle cx="32" cy="32" r="30" fill="url(#b)" fill-rule="evenodd" style="paint-order:fill markers stroke"/><path d="M31.997 18.001A13.968 13.968 0 0 0 18 31.474c2 5.258 7.085 8.971 13.063 8.971 4.228 0 7.988-1.855 10.544-4.802A13.914 13.914 0 0 1 32.194 46 13.952 13.952 0 0 0 46 32.003a13.957 13.957 0 0 0-13.997-13.997" filter="url(#c)" opacity=".25"/><path fill="#ecedf1" d="M31.997 18.001A13.968 13.968 0 0 0 18 31.474c2 5.258 7.085 8.971 13.063 8.971 4.228 0 7.988-1.855 10.544-4.802A13.914 13.914 0 0 1 32.194 46 13.952 13.952 0 0 0 46 32.003a13.957 13.957 0 0 0-13.997-13.997"/></svg>