<svg id="Iterm" width="64" height="64" enable-background="new 0 0 1024 1024" image-rendering="optimizeSpeed" version="1.1" viewBox="0 0 64 64" xmlns="http://www.w3.org/2000/svg" xmlns:xlink="http://www.w3.org/1999/xlink">
 <defs>
  <linearGradient id="b" x1="-506.45" x2="-506.45" y1="-19.101" y2="1013.6" gradientTransform="matrix(.058824 0 0 .058824 61.791 3.1236)" gradientUnits="userSpaceOnUse">
   <stop stop-color="#333" offset="0"/>
   <stop stop-color="#333" offset=".50769"/>
   <stop stop-color="#4a4a4a" offset="1"/>
  </linearGradient>
  <filter id="d" x="-.036" y="-.036" width="1.072" height="1.072" color-interpolation-filters="sRGB">
   <feGaussianBlur stdDeviation="0.90000006"/>
  </filter>
  <linearGradient id="c" x1="21.19" x2="27.603" y1="28.362" y2="28.362" gradientUnits="userSpaceOnUse" xlink:href="#b"/>
  <linearGradient id="a" x1="20.5" x2="45.5" y1="40" y2="40" gradientTransform="matrix(1.0833,0,0,1,-3.75,-1.4e-6)" gradientUnits="userSpaceOnUse" xlink:href="#b"/>
  <filter id="f" x="-.20606" y="-.12207" width="1.4121" height="1.2441" color-interpolation-filters="sRGB">
   <feGaussianBlur stdDeviation="0.55063812"/>
  </filter>
  <filter id="e" x="-.050828" y="-.66077" width="1.1017" height="2.3215" color-interpolation-filters="sRGB">
   <feGaussianBlur stdDeviation="0.55063812"/>
  </filter>
  <linearGradient id="h" x1="408.25" x2="407.94" y1="547.6" y2="498.89" gradientTransform="matrix(1.3276 0 0 1.3276 -510.62 -663.5)" gradientUnits="userSpaceOnUse">
   <stop stop-color="#fff" offset="0"/>
   <stop stop-color="#e6e6e6" offset="1"/>
  </linearGradient>
 </defs>
 <mask>
  <g id="g">
   <path d="m969.75 392.05c-1.1-4.35-2.35-9-3.65-13.6-1-3.4-2-6.85-3.15-10.5-1.6-5.15-3.4-10.5-5.3-15.85-6.45-18.25-14.15-36.05-23.15-53.65-3.8-7.4-7.95-14.95-12.3-22.4-20.3-34.5-45.8-67.2-76.35-97.75-72.6-72.6-157.15-116.65-253.65-132.05-16.25-2.6-32.8-4.4-50.05-5.35-9.7-0.55-19.85-0.85-30.1-0.85-9.35 0-18.6 0.25-27.9 0.75-118.35 6.1-220.3 51.95-305.85 137.5q-138.25 138.25-138.25 333.75c0 130.35 46.1 241.65 138.25 333.8 56.7 56.65 120.55 95.9 191.1 117.55 36.75 11.25 74.8 17.85 114.75 19.95h0.4c8.5 0.45 16.6 0.7 24.5 0.7h3c10.3 0 20.5-0.3 30.1-0.8 2.5-0.15 4.75-0.3 6.95-0.45 20.2-1.45 39.9-4.05 58.7-7.7 7.95-1.55 15.8-3.3 23.4-5.15 80.8-20.3 152.15-61.6 214.65-124.1 48.6-48.6 84.4-102.5 107.35-161.8 18.45-47.65 28.65-98.8 30.55-153.5 0.2-6.05 0.3-12.25 0.3-18.5v-3c-0.2-40.65-4.95-79.5-14.3-117z" fill="#fff"/>
  </g>
 </mask>
 <circle cx="32" cy="32" r="30" fill-rule="evenodd" filter="url(#d)" opacity=".25" style="paint-order:fill markers stroke"/>
 <rect x="2.0015" y="2.0015" width="59.997" height="59.997" ry="29.998" fill="url(#h)" stroke-width="1.0115"/>
 <path d="m22.329 22.949c-0.31277 0-0.58082 0.1117-0.80426 0.3351-0.22021 0.22021-0.33199 0.48835-0.33199 0.80113s0.11178 0.5809 0.33199 0.80113l3.4755 3.4755-3.4723 3.4723c-0.2234 0.2234-0.33503 0.49146-0.33822 0.80425 0.0032 0.31277 0.11489 0.5809 0.33511 0.80113 0.2234 0.22021 0.49141 0.33191 0.801 0.33511 0.31596 0 0.58407-0.11171 0.80745-0.33511l3.8617-3.865c0.81064-0.80745 0.81064-1.6182 0-2.4288l-3.865-3.8648c-0.22128-0.22127-0.48822-0.33199-0.801-0.33199z" filter="url(#f)" opacity=".35" style="paint-order:stroke markers fill"/>
 <path d="m22.329 22.949c-0.31277 0-0.58082 0.1117-0.80426 0.3351-0.22021 0.22021-0.33199 0.48835-0.33199 0.80113s0.11178 0.5809 0.33199 0.80113l3.4755 3.4755-3.4723 3.4723c-0.2234 0.2234-0.33503 0.49146-0.33822 0.80425 0.0032 0.31277 0.11489 0.5809 0.33511 0.80113 0.2234 0.22021 0.49141 0.33191 0.801 0.33511 0.31596 0 0.58407-0.11171 0.80745-0.33511l3.8617-3.865c0.81064-0.80745 0.81064-1.6182 0-2.4288l-3.865-3.8648c-0.22128-0.22127-0.48822-0.33199-0.801-0.33199z" fill="url(#c)" style="paint-order:stroke markers fill"/>
 <rect x="19" y="39" width="26" height="2" rx="1" filter="url(#e)" opacity=".35" style="paint-order:stroke markers fill"/>
 <rect x="19" y="39" width="26" height="2" rx="1" fill="url(#a)" style="paint-order:stroke markers fill"/>
</svg>
