<svg xmlns="http://www.w3.org/2000/svg" xmlns:xlink="http://www.w3.org/1999/xlink" width="64" height="64" enable-background="new 0 0 1024 1024" image-rendering="optimizeSpeed"><defs><linearGradient id="a" x1="-506.45" x2="-506.45" y1="-19.101" y2="1013.6" gradientTransform="translate(61.791 3.124) scale(.05882)" gradientUnits="userSpaceOnUse"><stop offset="0" stop-color="#333"/><stop offset=".508" stop-color="#333"/><stop offset="1" stop-color="#4a4a4a"/></linearGradient><linearGradient xlink:href="#a" id="e" x1="21.19" x2="27.603" y1="28.362" y2="28.362" gradientUnits="userSpaceOnUse"/><linearGradient xlink:href="#a" id="g" x1="20.5" x2="45.5" y1="40" y2="40" gradientTransform="matrix(1.0833 0 0 1 -3.75 0)" gradientUnits="userSpaceOnUse"/><linearGradient id="c" x1="408.25" x2="407.94" y1="547.6" y2="498.89" gradientTransform="translate(-510.62 -663.5) scale(1.3276)" gradientUnits="userSpaceOnUse"><stop offset="0" stop-color="#fff"/><stop offset="1" stop-color="#e6e6e6"/></linearGradient><filter id="b" width="1.072" height="1.072" x="-.036" y="-.036" color-interpolation-filters="sRGB"><feGaussianBlur stdDeviation=".9"/></filter><filter id="d" width="1.412" height="1.244" x="-.206" y="-.122" color-interpolation-filters="sRGB"><feGaussianBlur stdDeviation=".551"/></filter><filter id="f" width="1.102" height="2.321" x="-.051" y="-.661" color-interpolation-filters="sRGB"><feGaussianBlur stdDeviation=".551"/></filter></defs><circle cx="32" cy="32" r="30" fill-rule="evenodd" filter="url(#b)" opacity=".25" style="paint-order:fill markers stroke"/><rect width="59.997" height="59.997" x="2.002" y="2.002" fill="url(#c)" ry="29.998"/><path d="M22.329 22.949c-.313 0-.58.112-.804.335-.22.22-.332.488-.332.801s.112.581.332.801L25 28.362l-3.472 3.472a1.112 1.112 0 0 0-.338.804c.003.313.115.581.335.802.223.22.491.331.8.335a1.1 1.1 0 0 0 .808-.335l3.862-3.865c.81-.808.81-1.619 0-2.43l-3.865-3.864a1.092 1.092 0 0 0-.801-.332z" filter="url(#d)" opacity=".35" style="paint-order:stroke markers fill"/><path fill="url(#e)" d="M22.329 22.949c-.313 0-.58.112-.804.335-.22.22-.332.488-.332.801s.112.581.332.801L25 28.362l-3.472 3.472a1.112 1.112 0 0 0-.338.804c.003.313.115.581.335.802.223.22.491.331.8.335a1.1 1.1 0 0 0 .808-.335l3.862-3.865c.81-.808.81-1.619 0-2.43l-3.865-3.864a1.092 1.092 0 0 0-.801-.332z" style="paint-order:stroke markers fill"/><rect width="26" height="2" x="19" y="39" filter="url(#f)" opacity=".35" rx="1" style="paint-order:stroke markers fill"/><rect width="26" height="2" x="19" y="39" fill="url(#g)" rx="1" style="paint-order:stroke markers fill"/></svg>