<svg xmlns="http://www.w3.org/2000/svg" width="64" height="64"><defs><filter id="a" width="1.072" height="1.072" x="-.036" y="-.036" color-interpolation-filters="sRGB"><feGaussianBlur stdDeviation="14.344"/></filter><filter id="c" width="1.12" height="1.12" x="-.06" y="-.06" color-interpolation-filters="sRGB"><feGaussianBlur stdDeviation=".8"/></filter><linearGradient id="b" x1="-17.857" x2="-18.241" y1="-2.986" y2="57.398" gradientTransform="translate(75.051 4.817)" gradientUnits="userSpaceOnUse"><stop offset="0" stop-color="#ffd258"/><stop offset="1" stop-color="#f77647"/></linearGradient></defs><circle cx="512" cy="512" r="478.12" filter="url(#a)" opacity=".25" style="paint-order:stroke markers fill" transform="translate(-.125 -.125)scale(.06274)"/><circle cx="32" cy="32" r="30" fill="url(#b)" style="paint-order:stroke markers fill"/><path d="M21.333 16v5.333c11.783 0 21.333 9.551 21.333 21.333h5.333C48 27.933 36.06 16 21.332 16m0 10.667V32C27.223 32 32 36.776 32 42.667h5.334c0-8.836-7.164-16-16-16m0 10.667a5.334 5.334 0 1 0 0 10.667 5.334 5.334 0 0 0 0-10.667" filter="url(#c)" opacity=".15"/><path fill="#fff" d="M21.333 16v5.333c11.783 0 21.333 9.551 21.333 21.333h5.333C48 27.933 36.06 16 21.332 16m0 10.667V32C27.223 32 32 36.776 32 42.667h5.334c0-8.836-7.164-16-16-16m0 10.667a5.334 5.334 0 1 0 0 10.667 5.334 5.334 0 0 0 0-10.667"/></svg>