<svg xmlns="http://www.w3.org/2000/svg" xmlns:xlink="http://www.w3.org/1999/xlink" width="64" height="64"><defs><linearGradient id="a"><stop offset="0" stop-color="#f5f5f5"/><stop offset="1" stop-color="#f5f5f5" stop-opacity="0"/></linearGradient><linearGradient id="k" x1="122.15" x2="143.37" y1="269.03" y2="275.62" gradientTransform="matrix(.11531 0 0 .11457 2.851 9.238)" gradientUnits="userSpaceOnUse"><stop offset="0" stop-color="#3f2513"/><stop offset=".769" stop-color="#95602f"/><stop offset=".847" stop-color="#8a582b"/><stop offset=".93" stop-color="#835327"/><stop offset="1" stop-color="#784b22"/></linearGradient><linearGradient id="f" x1="-243.09" x2="-142.77" y1="169.1" y2="329.44" gradientTransform="matrix(.11531 0 0 .11457 56.525 7.729)" gradientUnits="userSpaceOnUse"><stop offset="0" stop-color="#1c1a1a"/><stop offset="1" stop-color="#161616"/></linearGradient><linearGradient id="i" x1="469.31" x2="783.11" y1="221.35" y2="221.35" gradientTransform="translate(-809.9 -323.66)" gradientUnits="userSpaceOnUse"><stop offset="0" stop-color="#2c0043"/><stop offset=".327" stop-color="#511c74"/><stop offset=".418" stop-color="#5c2582"/><stop offset=".475" stop-color="#642c8e"/><stop offset=".52" stop-color="#632b8c"/><stop offset=".719" stop-color="#4f1870"/><stop offset="1" stop-color="#380054"/></linearGradient><linearGradient id="l" x1="148.26" x2="172.83" y1="179.26" y2="185.6" gradientTransform="matrix(.11531 0 0 .11457 2.61 9.516)" gradientUnits="userSpaceOnUse"><stop offset="0" stop-color="#5a5a5d"/><stop offset=".5" stop-color="#bbbdc0"/><stop offset=".73" stop-color="#e0e0e1"/><stop offset=".812" stop-color="#e9e9ea"/><stop offset="1" stop-color="#b9babb"/></linearGradient><linearGradient id="m" x1="141.36" x2="167.9" y1="194.37" y2="203.04" gradientTransform="matrix(.11531 0 0 .11457 2.851 9.238)" gradientUnits="userSpaceOnUse"><stop offset="0" stop-color="#5a5b5d"/><stop offset=".4" stop-color="#9d9fa2"/><stop offset=".528" stop-color="#babdbf"/><stop offset=".651" stop-color="#d7d7d9"/><stop offset=".855" stop-color="#eaeaeb"/><stop offset="1" stop-color="#858688"/></linearGradient><linearGradient id="q" x1="326.27" x2="277.42" y1="11.746" y2="152.32" gradientUnits="userSpaceOnUse"><stop offset="0" stop-color="#a9abae"/><stop offset="1" stop-color="#cccdcf"/></linearGradient><linearGradient id="o" x1="277.8" x2="287.12" y1="41.203" y2="142.25" gradientTransform="translate(-3.355 -2.237)" gradientUnits="userSpaceOnUse"><stop offset="0" stop-color="#d5d6d7"/><stop offset=".142" stop-color="#b6b7ba"/><stop offset=".212" stop-color="#cfd0d2"/><stop offset=".32" stop-color="#e0e1e2"/><stop offset=".503" stop-color="#848587"/><stop offset=".729" stop-color="#a9abae"/><stop offset=".839" stop-color="#a2a4a7"/><stop offset="1" stop-color="#808184"/></linearGradient><linearGradient id="p" x1="312.75" x2="313.38" y1="149.48" y2="20.282" gradientUnits="userSpaceOnUse"><stop offset="0" stop-color="#979799"/><stop offset=".196" stop-color="#b2b3b5"/><stop offset=".481" stop-color="#b0b0b2"/><stop offset=".73" stop-color="#d4d5d6"/><stop offset="1" stop-color="#bfbfc0"/></linearGradient><linearGradient id="n" x1="379.28" x2="380.7" y1="13.331" y2="159.4" gradientUnits="userSpaceOnUse"><stop offset="0" stop-color="#a9abae"/><stop offset=".122" stop-color="#d8d9da"/><stop offset=".306" stop-color="#b4b6b9"/><stop offset=".47" stop-color="#e0e1e2"/><stop offset=".521" stop-color="#d4d5d6"/><stop offset=".58" stop-color="#b8b9bb"/><stop offset=".615" stop-color="#969799"/><stop offset=".636" stop-color="#6d6e71"/><stop offset=".663" stop-color="#797a7d"/><stop offset=".781" stop-color="#a5a7aa"/><stop offset=".89" stop-color="#78797c"/><stop offset="1" stop-color="#7e7f81"/></linearGradient><linearGradient xlink:href="#a" id="s" x1="82.276" x2="109.67" y1="95.738" y2="95.738" gradientTransform="translate(189.31 .527)" gradientUnits="userSpaceOnUse"/><linearGradient xlink:href="#a" id="t" x1="82.276" x2="109.67" y1="95.738" y2="95.738" gradientTransform="rotate(25.811 317.6 502.73)" gradientUnits="userSpaceOnUse"/><linearGradient id="j" x1="737.74" x2="793.11" y1="222.01" y2="231.5" gradientTransform="matrix(.11531 0 0 .11457 -66.788 10.805)" gradientUnits="userSpaceOnUse"><stop offset="0"/><stop offset="1" stop-opacity="0"/></linearGradient><linearGradient id="c" x1="408.25" x2="407.94" y1="547.6" y2="498.89" gradientTransform="translate(-510.64 -663.52)scale(1.3276)" gradientUnits="userSpaceOnUse"><stop offset="0" stop-color="#fff"/><stop offset="1" stop-color="#e6e6e6"/></linearGradient><filter id="b" width="1.072" height="1.072" x="-.036" y="-.036" color-interpolation-filters="sRGB"><feGaussianBlur stdDeviation=".89"/></filter><filter id="g" width="1.045" height="1.181" x="-.023" y="-.09" color-interpolation-filters="sRGB"><feGaussianBlur stdDeviation="3.908"/></filter><filter id="e" width="1.085" height="1.204" x="-.043" y="-.102" color-interpolation-filters="sRGB"><feGaussianBlur stdDeviation="7.39"/></filter><filter id="d" width="1.282" height="1.295" x="-.141" y="-.147" color-interpolation-filters="sRGB"><feGaussianBlur stdDeviation=".855"/></filter><radialGradient id="h" cx="595.34" cy="157.46" r="158.46" gradientTransform="matrix(1.2984 -.0242 .0158 .84707 -957.55 -289.28)" gradientUnits="userSpaceOnUse"><stop offset="0" stop-color="#3a3b3b"/><stop offset="1" stop-color="#161616"/></radialGradient><radialGradient id="r" cx="312.85" cy="85.576" r="72.339" gradientTransform="matrix(1 0 0 1.0902 0 -7.72)" gradientUnits="userSpaceOnUse"><stop offset="0" stop-color="#fff" stop-opacity="0"/><stop offset="1" stop-color="#f5f5f5" stop-opacity=".221"/></radialGradient></defs><rect width="59.315" height="59.315" x="386.85" y="486.31" filter="url(#b)" opacity=".25" ry="29.657" transform="translate(-389.32 -489.92)scale(1.0115)"/><rect width="59.997" height="59.997" x="1.983" y="1.978" fill="url(#c)" ry="29.998"/><path d="M14.708 48.425c-.733.65 1.093 2.58 1.776 1.984L29.11 38.831l-1.897-2.245z" filter="url(#d)" opacity=".35"/><path d="m-358.71 173.18 293.83-.746c102.14 47.878 86.752 159.26-140.95 173.76-98.749 6.289-323.62-69.12-152.88-173.02z" filter="url(#e)" opacity=".35" transform="matrix(.11531 0 0 .11457 56.525 7.729)"/><path fill="url(#f)" d="m15.163 26.27 33.881-.085c11.777 5.485 10.003 18.247-16.253 19.908-11.387.72-37.316-7.92-17.628-19.823"/><path fill="#7b797d" d="M-4.606 231.46c-1.875 44.747-61.67 90.025-201.22 98.912-72.166 4.596-211.68-34.443-214.93-96.344-3.457 64.486 141.04 105.52 214.93 100.82 144.21-9.183 203.26-57.226 201.22-103.39z" filter="url(#g)" transform="matrix(.11531 0 0 .11457 56.525 7.729)"/><g stroke-width="2.595"><path fill="url(#h)" d="M-188.7-304.41c-77.491.032-140.6 40.86-141.75 91.699l-11.18 118.97c65.929 72.67 227.44 80.599 316.93 0l-24.056-132.58c-11.191-45.009-70.438-78.069-139.94-78.088z" transform="matrix(.11531 0 0 .11457 53.605 47.004)"/><path fill="url(#i)" d="m-336.37-149.66-4.219 44.891c99.12 60.343 202.7 72.362 313.8-.488l-7.656-42.201c-99.334 64.723-200.13 58.723-301.93-2.201z" transform="matrix(.11531 0 0 .11457 53.605 47.004)"/></g><path fill="url(#j)" d="m21.502 28.417 5.108-.362-3.466 17.037c-2.443-.553-3.845-1.003-5.533-1.48z"/><path fill="url(#k)" d="M14.708 48.425c-.286.937 2.277 1.631 2.55.768l4.74-16.461-2.79-.928z"/><path fill="url(#l)" d="m19.404 31.444.791-2.96 2.795.428-.85 3.287-1.6.194z"/><path fill="#5a5b5d" fill-opacity=".122" d="m19.485 31.141-.08.303 1.135.949 1.6-.194.077-.297c-1.001.102-1.877-.267-2.72-.756z"/><path fill="#392412" d="m19.208 31.804-.07.258c.825.657 1.793.833 2.805.86l.055-.19z"/><path fill="url(#m)" d="M19.46 31.327c-.317-.167-.596.373-.304.59.854.698 1.864.87 2.919.89.302.032.378-.72.121-.725-1.008.107-1.888-.263-2.736-.755"/><g stroke-width="2.595"><path fill="url(#n)" d="M327.09 6.71a67 67 0 0 0-7.127.382c36.614 3.895 65.227 37.545 65.227 78.484s-28.613 74.589-65.227 78.484c2.345.25 4.722.38 7.127.38 39.952 0 72.338-35.31 72.338-78.864S367.042 6.711 327.09 6.711z" transform="matrix(.11531 0 0 .11457 -12.86 10.256)"/><path fill="url(#o)" d="M312.85 6.71c-39.952 0-72.34 35.31-72.34 78.866s32.388 78.866 72.34 78.865c3.288 0 6.524-.244 9.695-.707-35.367-5.165-62.645-38.187-62.645-78.158s27.276-72.99 62.643-78.156a67 67 0 0 0-9.693-.71" transform="matrix(.11531 0 0 .11457 -12.86 10.256)"/><path fill="url(#p)" d="M326.03 157.73c-36.554 0-66.187-32.305-66.188-72.156 0-39.851 29.634-72.157 66.188-72.156l-11.862-5.654c-34.309 6.17-60.478 38.658-60.478 77.81 0 39.576 26.738 72.343 61.595 78.001" transform="matrix(.11531 0 0 .11457 -12.86 10.256)"/><path fill="url(#q)" d="M312.85 6.71a72.339 78.864 0 0 0-72.34 78.866 72.339 78.864 0 0 0 72.34 78.865 72.339 78.864 0 0 0 72.338-78.865A72.339 78.864 0 0 0 312.85 6.71m0 6.71a66.186 72.157 0 0 1 66.186 72.156 66.186 72.157 0 0 1-66.186 72.156 66.186 72.157 0 0 1-66.188-72.156A66.186 72.157 0 0 1 312.85 13.42" transform="matrix(.11531 0 0 .11457 -12.86 10.256)"/><path fill="url(#r)" d="M312.85 6.71a72.339 78.864 0 0 1 5.043.196 67 67 0 0 0-5.043-.195zm0 0c-15.134 0-29.177 5.075-40.791 13.737A72.339 78.864 0 0 1 312.85 6.71m5.152.202a72.339 78.864 0 0 1 7.006.93 67 67 0 0 0-7.006-.93m7.313.988a72.339 78.864 0 0 1 6.86 1.68 67 67 0 0 0-6.86-1.68m6.916 1.698a72.339 78.864 0 0 1 6.806 2.463 68 68 0 0 0-6.806-2.463m6.861 2.486a72.339 78.864 0 0 1 6.46 3.152 69 69 0 0 0-6.46-3.152M312.85 13.42a66.186 72.157 0 0 0-66.188 72.156 66.186 72.157 0 0 0 66.188 72.156 66.186 72.157 0 0 0 66.186-72.156A66.186 72.157 0 0 0 312.85 13.42m32.93 1.943a72.339 78.864 0 0 1 5.94 3.715 71 71 0 0 0-5.94-3.715m6.35 4.002a72.339 78.864 0 0 1 5.369 4.186 73 73 0 0 0-5.37-4.186zm-80.234 1.21a74 74 0 0 0-5.5 4.56 72.339 78.864 0 0 1 5.5-4.56m86.166 3.458a72.339 78.864 0 0 1 4.86 4.655 75 75 0 0 0-4.86-4.655m-92.055 1.469a76 76 0 0 0-4.828 4.904 72.339 78.864 0 0 1 4.828-4.904m97.447 3.74a72.339 78.864 0 0 1 4.486 5.248 77 77 0 0 0-4.486-5.248m-102.79 1.746a78 78 0 0 0-4.266 5.291 72.339 78.864 0 0 1 4.266-5.29zm107.63 3.953a72.339 78.864 0 0 1 4.187 6.008 79 79 0 0 0-4.187-6.008m-112.34 1.96a79 79 0 0 0-3.838 5.851 72.339 78.864 0 0 1 3.838-5.852zm116.62 4.19a72.339 78.864 0 0 1 12.607 44.485c0-16.505-4.657-31.82-12.607-44.484zm12.607 44.485a72.339 78.864 0 0 1-.166 5.092c.098-1.686.166-3.38.166-5.092M251.85 43.193a81 81 0 0 0-3.43 6.52 72.339 78.864 0 0 1 3.43-6.52m-3.512 6.695a82 82 0 0 0-2.904 7.07 72.339 78.864 0 0 1 2.904-7.07m-2.93 7.143a83 83 0 0 0-2.256 7.4 72.339 78.864 0 0 1 2.256-7.4m-2.277 7.486a84 84 0 0 0-1.527 7.412 72.339 78.864 0 0 1 1.527-7.412m-1.598 7.846a86 86 0 0 0-.8 7.195 72.339 78.864 0 0 1 .8-7.195m-.865 8.123a87 87 0 0 0-.166 5.09 72.339 78.864 0 0 1 .166-5.09m-.166 5.09c0 16.498 4.654 31.806 12.598 44.467a72.339 78.864 0 0 1-12.598-44.467m144.45 6.013a72.339 78.864 0 0 1-.803 7.215q.55-3.557.803-7.215m-.867 7.606a72.339 78.864 0 0 1-1.524 7.408 84 84 0 0 0 1.524-7.408m-1.563 7.56a72.339 78.864 0 0 1-2.252 7.383 83 83 0 0 0 2.252-7.383m-2.261 7.412a72.339 78.864 0 0 1-2.907 7.078 82 82 0 0 0 2.907-7.078m-3.004 7.287a72.339 78.864 0 0 1-3.412 6.487 81 81 0 0 0 3.412-6.487m-3.688 6.956a72.339 78.864 0 0 1-3.847 5.863 79 79 0 0 0 3.847-5.863m-120.34 1.822a79 79 0 0 0 4.168 5.976 72.339 78.864 0 0 1-4.168-5.976m116.08 4.611a72.339 78.864 0 0 1-4.293 5.328 78 78 0 0 0 4.293-5.328m-111.55 1.82a77 77 0 0 0 4.479 5.243 72.339 78.864 0 0 1-4.479-5.243m106.76 4.079a72.339 78.864 0 0 1-4.82 4.896 76 76 0 0 0 4.82-4.896m-101.73 1.732a75 75 0 0 0 4.856 4.652 72.339 78.864 0 0 1-4.856-4.652m96.506 3.549a72.339 78.864 0 0 1-5.527 4.582 74 74 0 0 0 5.527-4.582m-91.098 1.576a73 73 0 0 0 5.362 4.18 72.339 78.864 0 0 1-5.362-4.18m85.463 3.09a72.339 78.864 0 0 1-40.81 13.752c15.142 0 29.192-5.08 40.81-13.752m-40.81 13.752a72.339 78.864 0 0 1-5.04-.194 67 67 0 0 0 5.04.194m-38.862-12.361a71 71 0 0 0 5.928 3.707 72.339 78.864 0 0 1-5.928-3.707m6.162 3.838a69 69 0 0 0 6.442 3.142 72.339 78.864 0 0 1-6.442-3.142m6.522 3.177a68 68 0 0 0 6.799 2.461 72.339 78.864 0 0 1-6.8-2.46zm6.85 2.477a67 67 0 0 0 6.85 1.676 72.339 78.864 0 0 1-6.85-1.676m7.177 1.74c2.299.424 4.627.744 6.994.926a72.339 78.864 0 0 1-6.994-.926" transform="matrix(.11531 0 0 .11457 -12.86 10.256)"/><path fill="url(#s)" d="m297.42 118.39-17.929 5.8c-12.027-23.54-6.434-39.07-3.691-55.896l22.675 3.164z" opacity=".252" transform="matrix(.11531 0 0 .11457 -12.86 10.256)"/><path fill="url(#t)" d="m296.58 65.043-18.666-2.585c-.577-26.428 11.22-37.974 21.015-51.928l19.035 12.721z" opacity=".252" transform="matrix(.11531 0 0 .11457 -12.86 10.256)"/></g></svg>