<svg width="64" height="64" xmlns="http://www.w3.org/2000/svg" xmlns:xlink="http://www.w3.org/1999/xlink"><defs><linearGradient id="a"><stop stop-color="#f5f5f5" offset="0"/><stop stop-color="#f5f5f5" stop-opacity="0" offset="1"/></linearGradient><linearGradient id="k" x1="122.15" x2="143.37" y1="269.03" y2="275.62" gradientTransform="matrix(.11531 0 0 .11457 2.851 9.238)" gradientUnits="userSpaceOnUse"><stop stop-color="#3f2513" offset="0"/><stop stop-color="#95602f" offset=".769"/><stop stop-color="#8a582b" offset=".847"/><stop stop-color="#835327" offset=".93"/><stop stop-color="#784b22" offset="1"/></linearGradient><linearGradient id="f" x1="-243.09" x2="-142.77" y1="169.1" y2="329.44" gradientTransform="matrix(.11531 0 0 .11457 56.525 7.729)" gradientUnits="userSpaceOnUse"><stop stop-color="#1c1a1a" offset="0"/><stop stop-color="#161616" offset="1"/></linearGradient><linearGradient id="i" x1="469.31" x2="783.11" y1="221.35" y2="221.35" gradientTransform="translate(-809.9 -323.66)" gradientUnits="userSpaceOnUse"><stop stop-color="#2c0043" offset="0"/><stop stop-color="#511c74" offset=".327"/><stop stop-color="#5c2582" offset=".418"/><stop stop-color="#642c8e" offset=".475"/><stop stop-color="#632b8c" offset=".52"/><stop stop-color="#4f1870" offset=".719"/><stop stop-color="#380054" offset="1"/></linearGradient><linearGradient id="l" x1="148.26" x2="172.83" y1="179.26" y2="185.6" gradientTransform="matrix(.11531 0 0 .11457 2.61 9.516)" gradientUnits="userSpaceOnUse"><stop stop-color="#5a5a5d" offset="0"/><stop stop-color="#bbbdc0" offset=".5"/><stop stop-color="#e0e0e1" offset=".73"/><stop stop-color="#e9e9ea" offset=".812"/><stop stop-color="#b9babb" offset="1"/></linearGradient><linearGradient id="m" x1="141.36" x2="167.9" y1="194.37" y2="203.04" gradientTransform="matrix(.11531 0 0 .11457 2.851 9.238)" gradientUnits="userSpaceOnUse"><stop stop-color="#5a5b5d" offset="0"/><stop stop-color="#9d9fa2" offset=".4"/><stop stop-color="#babdbf" offset=".528"/><stop stop-color="#d7d7d9" offset=".651"/><stop stop-color="#eaeaeb" offset=".855"/><stop stop-color="#858688" offset="1"/></linearGradient><linearGradient id="q" x1="326.27" x2="277.42" y1="11.746" y2="152.32" gradientUnits="userSpaceOnUse"><stop stop-color="#a9abae" offset="0"/><stop stop-color="#cccdcf" offset="1"/></linearGradient><linearGradient id="o" x1="277.8" x2="287.12" y1="41.203" y2="142.25" gradientTransform="translate(-3.355 -2.237)" gradientUnits="userSpaceOnUse"><stop stop-color="#d5d6d7" offset="0"/><stop stop-color="#b6b7ba" offset=".142"/><stop stop-color="#cfd0d2" offset=".212"/><stop stop-color="#e0e1e2" offset=".32"/><stop stop-color="#848587" offset=".503"/><stop stop-color="#a9abae" offset=".729"/><stop stop-color="#a2a4a7" offset=".839"/><stop stop-color="#808184" offset="1"/></linearGradient><linearGradient id="p" x1="312.75" x2="313.38" y1="149.48" y2="20.282" gradientUnits="userSpaceOnUse"><stop stop-color="#979799" offset="0"/><stop stop-color="#b2b3b5" offset=".196"/><stop stop-color="#b0b0b2" offset=".481"/><stop stop-color="#d4d5d6" offset=".73"/><stop stop-color="#bfbfc0" offset="1"/></linearGradient><linearGradient id="n" x1="379.28" x2="380.7" y1="13.331" y2="159.4" gradientUnits="userSpaceOnUse"><stop stop-color="#a9abae" offset="0"/><stop stop-color="#d8d9da" offset=".122"/><stop stop-color="#b4b6b9" offset=".306"/><stop stop-color="#e0e1e2" offset=".47"/><stop stop-color="#d4d5d6" offset=".521"/><stop stop-color="#b8b9bb" offset=".58"/><stop stop-color="#969799" offset=".615"/><stop stop-color="#6d6e71" offset=".636"/><stop stop-color="#797a7d" offset=".663"/><stop stop-color="#a5a7aa" offset=".781"/><stop stop-color="#78797c" offset=".89"/><stop stop-color="#7e7f81" offset="1"/></linearGradient><linearGradient id="s" x1="82.276" x2="109.67" y1="95.738" y2="95.738" gradientTransform="translate(189.31 .527)" gradientUnits="userSpaceOnUse" xlink:href="#a"/><linearGradient id="t" x1="82.276" x2="109.67" y1="95.738" y2="95.738" gradientTransform="rotate(25.811 317.6 502.73)" gradientUnits="userSpaceOnUse" xlink:href="#a"/><linearGradient id="j" x1="737.74" x2="793.11" y1="222.01" y2="231.5" gradientTransform="matrix(.11531 0 0 .11457 -66.788 10.805)" gradientUnits="userSpaceOnUse"><stop offset="0"/><stop stop-opacity="0" offset="1"/></linearGradient><linearGradient id="c" x1="408.25" x2="407.94" y1="547.6" y2="498.89" gradientTransform="translate(-510.64 -663.52) scale(1.3276)" gradientUnits="userSpaceOnUse"><stop stop-color="#fff" offset="0"/><stop stop-color="#e6e6e6" offset="1"/></linearGradient><filter id="b" x="-.036" y="-.036" width="1.072" height="1.072" color-interpolation-filters="sRGB"><feGaussianBlur stdDeviation=".89"/></filter><filter id="g" x="-.023" y="-.09" width="1.045" height="1.181" color-interpolation-filters="sRGB"><feGaussianBlur stdDeviation="3.908"/></filter><filter id="e" x="-.043" y="-.102" width="1.085" height="1.204" color-interpolation-filters="sRGB"><feGaussianBlur stdDeviation="7.39"/></filter><filter id="d" x="-.141" y="-.147" width="1.282" height="1.295" color-interpolation-filters="sRGB"><feGaussianBlur stdDeviation=".855"/></filter><radialGradient id="h" cx="595.34" cy="157.46" r="158.46" gradientTransform="matrix(1.2984 -.0242 .0158 .84707 -957.55 -289.28)" gradientUnits="userSpaceOnUse"><stop stop-color="#3a3b3b" offset="0"/><stop stop-color="#161616" offset="1"/></radialGradient><radialGradient id="r" cx="312.85" cy="85.576" r="72.339" gradientTransform="matrix(1 0 0 1.0902 0 -7.72)" gradientUnits="userSpaceOnUse"><stop stop-color="#fff" stop-opacity="0" offset="0"/><stop stop-color="#f5f5f5" stop-opacity=".221" offset="1"/></radialGradient></defs><rect transform="translate(-389.32 -489.92) scale(1.0115)" x="386.85" y="486.31" width="59.315" height="59.315" ry="29.657" filter="url(#b)" opacity=".25"/><rect x="1.983" y="1.978" width="59.997" height="59.997" ry="29.998" fill="url(#c)"/><path d="M14.708 48.425c-.733.65 1.093 2.58 1.776 1.984L29.11 38.831l-1.897-2.245z" filter="url(#d)" opacity=".35"/><path transform="matrix(.11531 0 0 .11457 56.525 7.729)" d="m-358.71 173.18 293.83-.746c102.14 47.878 86.752 159.26-140.95 173.76-98.749 6.289-323.62-69.12-152.88-173.02z" filter="url(#e)" opacity=".35"/><path d="m15.163 26.27 33.881-.085c11.777 5.485 10.003 18.247-16.253 19.908-11.387.72-37.316-7.92-17.628-19.823z" fill="url(#f)"/><path transform="matrix(.11531 0 0 .11457 56.525 7.729)" d="M-4.606 231.46c-1.875 44.747-61.67 90.025-201.22 98.912-72.166 4.596-211.68-34.443-214.93-96.344-3.457 64.486 141.04 105.52 214.93 100.82 144.21-9.183 203.26-57.226 201.22-103.39z" fill="#7b797d" filter="url(#g)"/><g stroke-width="2.595"><path d="M-188.7-304.41c-77.491.032-140.6 40.86-141.75 91.699l-11.18 118.97c65.929 72.67 227.44 80.599 316.93 0l-24.056-132.58c-11.191-45.009-70.438-78.069-139.94-78.088z" fill="url(#h)" transform="matrix(.11531 0 0 .11457 53.605 47.004)"/><path d="m-336.37-149.66-4.219 44.891c99.12 60.343 202.7 72.362 313.8-.488l-7.656-42.201c-99.334 64.723-200.13 58.723-301.93-2.201z" fill="url(#i)" transform="matrix(.11531 0 0 .11457 53.605 47.004)"/></g><path d="m21.502 28.417 5.108-.362-3.466 17.037c-2.443-.553-3.845-1.003-5.533-1.48z" fill="url(#j)"/><path d="M14.708 48.425c-.286.937 2.277 1.631 2.55.768l4.74-16.461-2.79-.928z" fill="url(#k)"/><path d="m19.404 31.444.791-2.96 2.795.428-.85 3.287-1.6.194z" fill="url(#l)"/><path d="m19.485 31.141-.08.303 1.135.949 1.6-.194.077-.297c-1.001.102-1.877-.267-2.72-.756l-.012-.005z" fill="#5a5b5d" fill-opacity=".122"/><path d="m19.208 31.804-.07.258c.825.657 1.793.833 2.805.86l.055-.19z" fill="#392412"/><path d="M19.46 31.327c-.317-.167-.596.373-.304.59.854.698 1.864.87 2.919.89.302.032.378-.72.121-.725-1.008.107-1.888-.263-2.736-.755z" fill="url(#m)"/><g stroke-width="2.595"><path d="M327.09 6.71c-2.405 0-4.782.132-7.127.382 36.614 3.895 65.227 37.545 65.227 78.484 0 40.939-28.613 74.589-65.227 78.484 2.345.25 4.722.38 7.127.38 39.952 0 72.338-35.31 72.338-78.864 0-43.555-32.386-78.865-72.338-78.865z" fill="url(#n)" transform="matrix(.11531 0 0 .11457 -12.86 10.256)"/><path d="M312.85 6.71c-39.952 0-72.34 35.31-72.34 78.866s32.388 78.866 72.34 78.865c3.288 0 6.524-.244 9.695-.707-35.367-5.165-62.645-38.187-62.645-78.158 0-39.971 27.276-72.99 62.643-78.156a67.036 67.036 0 0 0-9.693-.71z" fill="url(#o)" transform="matrix(.11531 0 0 .11457 -12.86 10.256)"/><path d="M326.03 157.73c-36.554 0-66.187-32.305-66.188-72.156 0-39.851 29.634-72.157 66.188-72.156l-11.862-5.654c-34.309 6.17-60.478 38.658-60.478 77.81 0 39.576 26.738 72.343 61.595 78.001" fill="url(#p)" transform="matrix(.11531 0 0 .11457 -12.86 10.256)"/><path d="M312.85 6.71a72.339 78.864 0 0 0-72.34 78.866 72.339 78.864 0 0 0 72.34 78.865 72.339 78.864 0 0 0 72.338-78.865A72.339 78.864 0 0 0 312.85 6.71zm0 6.71a66.186 72.157 0 0 1 66.186 72.156 66.186 72.157 0 0 1-66.186 72.156 66.186 72.157 0 0 1-66.188-72.156A66.186 72.157 0 0 1 312.85 13.42z" fill="url(#q)" transform="matrix(.11531 0 0 .11457 -12.86 10.256)"/><path d="M312.85 6.71a72.339 78.864 0 0 1 5.043.196 67.32 67.32 0 0 0-5.043-.195zm0 0c-15.134 0-29.177 5.075-40.791 13.737A72.339 78.864 0 0 1 312.85 6.71zm5.152.202a72.339 78.864 0 0 1 7.006.93 66.65 66.65 0 0 0-7.006-.93zm7.313.988a72.339 78.864 0 0 1 6.86 1.68 66.815 66.815 0 0 0-6.86-1.68zm6.916 1.698a72.339 78.864 0 0 1 6.806 2.463 67.703 67.703 0 0 0-6.806-2.463zm6.861 2.486a72.339 78.864 0 0 1 6.46 3.152 69.1 69.1 0 0 0-6.46-3.152zM312.85 13.42a66.186 72.157 0 0 0-66.188 72.156 66.186 72.157 0 0 0 66.188 72.156 66.186 72.157 0 0 0 66.186-72.156A66.186 72.157 0 0 0 312.85 13.42zm32.93 1.943a72.339 78.864 0 0 1 5.94 3.715 70.91 70.91 0 0 0-5.94-3.715zm6.35 4.002a72.339 78.864 0 0 1 5.369 4.186 72.995 72.995 0 0 0-5.37-4.186zm-80.234 1.21a73.64 73.64 0 0 0-5.5 4.56 72.339 78.864 0 0 1 5.5-4.56zm86.166 3.458a72.339 78.864 0 0 1 4.86 4.655 75.079 75.079 0 0 0-4.86-4.655zm-92.055 1.469a75.691 75.691 0 0 0-4.828 4.904 72.339 78.864 0 0 1 4.828-4.904zm97.447 3.74a72.339 78.864 0 0 1 4.486 5.248 77.08 77.08 0 0 0-4.486-5.248zm-102.79 1.746a77.61 77.61 0 0 0-4.266 5.291 72.339 78.864 0 0 1 4.266-5.29zm107.63 3.953a72.339 78.864 0 0 1 4.187 6.008 78.929 78.929 0 0 0-4.187-6.008zm-112.34 1.96a79.339 79.339 0 0 0-3.838 5.851 72.339 78.864 0 0 1 3.838-5.852zm116.62 4.19a72.339 78.864 0 0 1 12.607 44.485c0-16.505-4.657-31.82-12.607-44.484zm12.607 44.485a72.339 78.864 0 0 1-.166 5.092c.098-1.686.166-3.38.166-5.092zM251.85 43.193a80.847 80.847 0 0 0-3.43 6.52 72.339 78.864 0 0 1 3.43-6.52zm-3.512 6.695a82.105 82.105 0 0 0-2.904 7.07 72.339 78.864 0 0 1 2.904-7.07zm-2.93 7.143a83.272 83.272 0 0 0-2.256 7.4 72.339 78.864 0 0 1 2.256-7.4zm-2.277 7.486a84.405 84.405 0 0 0-1.527 7.412 72.339 78.864 0 0 1 1.527-7.412zm-1.598 7.846a85.775 85.775 0 0 0-.8 7.195 72.339 78.864 0 0 1 .8-7.195zm-.865 8.123a87.036 87.036 0 0 0-.166 5.09 72.339 78.864 0 0 1 .166-5.09zm-.166 5.09c0 16.498 4.654 31.806 12.598 44.467a72.339 78.864 0 0 1-12.598-44.467zm144.45 6.013a72.339 78.864 0 0 1-.803 7.215c.368-2.37.634-4.777.803-7.215zm-.867 7.606a72.339 78.864 0 0 1-1.524 7.408 84.419 84.419 0 0 0 1.524-7.408zm-1.563 7.56a72.339 78.864 0 0 1-2.252 7.383 83.275 83.275 0 0 0 2.252-7.383zm-2.261 7.412a72.339 78.864 0 0 1-2.907 7.078 82.091 82.091 0 0 0 2.907-7.078zm-3.004 7.287a72.339 78.864 0 0 1-3.412 6.487 80.818 80.818 0 0 0 3.412-6.487zm-3.688 6.956a72.339 78.864 0 0 1-3.847 5.863 79.381 79.381 0 0 0 3.847-5.863zm-120.34 1.822a78.892 78.892 0 0 0 4.168 5.976 72.339 78.864 0 0 1-4.168-5.976zm116.08 4.611a72.339 78.864 0 0 1-4.293 5.328 77.625 77.625 0 0 0 4.293-5.328zm-111.55 1.82a77.054 77.054 0 0 0 4.479 5.243 72.339 78.864 0 0 1-4.479-5.243zm106.76 4.079a72.339 78.864 0 0 1-4.82 4.896 75.68 75.68 0 0 0 4.82-4.896zm-101.73 1.732a75.066 75.066 0 0 0 4.856 4.652 72.339 78.864 0 0 1-4.856-4.652zm96.506 3.549a72.339 78.864 0 0 1-5.527 4.582 73.65 73.65 0 0 0 5.527-4.582zm-91.098 1.576a73.013 73.013 0 0 0 5.362 4.18 72.339 78.864 0 0 1-5.362-4.18zm85.463 3.09a72.339 78.864 0 0 1-40.81 13.752c15.142 0 29.192-5.08 40.81-13.752zm-40.81 13.752a72.339 78.864 0 0 1-5.04-.194c1.665.125 3.345.194 5.04.194zm-38.862-12.361a70.966 70.966 0 0 0 5.928 3.707 72.339 78.864 0 0 1-5.928-3.707zm6.162 3.838a69.11 69.11 0 0 0 6.442 3.142 72.339 78.864 0 0 1-6.442-3.142zm6.522 3.177a67.682 67.682 0 0 0 6.799 2.461 72.339 78.864 0 0 1-6.8-2.46zm6.85 2.477a66.84 66.84 0 0 0 6.85 1.676 72.339 78.864 0 0 1-6.85-1.676zm7.177 1.74c2.299.424 4.627.744 6.994.926a72.339 78.864 0 0 1-6.994-.926z" fill="url(#r)" transform="matrix(.11531 0 0 .11457 -12.86 10.256)"/><path d="m297.42 118.39-17.929 5.8c-12.027-23.54-6.434-39.07-3.691-55.896l22.675 3.164z" fill="url(#s)" opacity=".252" transform="matrix(.11531 0 0 .11457 -12.86 10.256)"/><path d="m296.58 65.043-18.666-2.585c-.577-26.428 11.22-37.974 21.015-51.928l19.035 12.721z" fill="url(#t)" opacity=".252" transform="matrix(.11531 0 0 .11457 -12.86 10.256)"/></g></svg>