<svg width="64" height="64" xmlns="http://www.w3.org/2000/svg" xmlns:xlink="http://www.w3.org/1999/xlink"><defs><linearGradient id="c" x1="32" x2="32" y1="2" y2="62" gradientUnits="userSpaceOnUse"><stop stop-color="#1d2123" offset="0"/><stop stop-color="#33393e" offset="1"/></linearGradient><linearGradient id="e" x1="24.705" x2="25.061" y1="43.939" y2="4.405" gradientTransform="translate(8.503 9.223)" gradientUnits="userSpaceOnUse"><stop stop-color="#279646" offset="0"/><stop stop-color="#76ff68" offset="1"/></linearGradient><linearGradient id="f" x1="31" x2="31" y1="34" y2="24" gradientTransform="translate(8.503 9.223)" gradientUnits="userSpaceOnUse" xlink:href="#a"/><linearGradient id="a"><stop stop-color="#272b2d" offset="0"/><stop stop-color="#33393e" offset="1"/></linearGradient><linearGradient id="g" x1="18" x2="18" y1="34" y2="24" gradientTransform="translate(8.503 9.223)" gradientUnits="userSpaceOnUse" xlink:href="#a"/><filter id="b" x="-.036" y="-.036" width="1.072" height="1.072" color-interpolation-filters="sRGB"><feGaussianBlur stdDeviation="14.344"/></filter><filter id="d" x="-.068" y="-.054" width="1.135" height="1.108" color-interpolation-filters="sRGB"><feGaussianBlur stdDeviation=".9"/></filter></defs><circle transform="matrix(.06274 0 0 .06274 -.125 -.125)" cx="512" cy="512" r="478.12" filter="url(#b)" opacity=".25" style="paint-order:stroke markers fill"/><circle cx="32" cy="32" r="30" fill="url(#c)" style="paint-order:stroke markers fill"/><g transform="translate(-.503 -1.223)" filter="url(#d)" opacity=".5"><path d="M16.503 28.701c0 10.29 8.496 24.521 16 24.521 7.064 0 16-14.232 16-24.521 0-10.29-7.163-15.479-16-15.479s-16 5.189-16 15.479z"/><path d="M36.885 35.605a8.127 8.127 0 0 1 7.441-2.205 8.127 8.127 0 0 1-2.205 7.44 8.127 8.127 0 0 1-7.441 2.206 8.127 8.127 0 0 1 2.205-7.441zM20.679 33.536c2.602-.542 5.42.182 7.441 2.175a7.94 7.94 0 0 1 2.206 7.338c-2.602.542-5.421-.182-7.442-2.175a7.941 7.941 0 0 1-2.205-7.338z"/></g><path d="M16.503 28.701c0 10.29 8.496 24.521 16 24.521 7.064 0 16-14.232 16-24.521 0-10.29-7.163-15.479-16-15.479s-16 5.189-16 15.479z" fill="url(#e)" transform="translate(-.503 -1.223)"/><path d="M36.885 35.605a8.127 8.127 0 0 1 7.441-2.205 8.127 8.127 0 0 1-2.205 7.44 8.127 8.127 0 0 1-7.441 2.206 8.127 8.127 0 0 1 2.205-7.441z" fill="url(#f)" transform="translate(-.503 -1.223)"/><path d="M20.679 33.536c2.602-.542 5.42.182 7.441 2.175a7.94 7.94 0 0 1 2.206 7.338c-2.602.542-5.421-.182-7.442-2.175a7.941 7.941 0 0 1-2.205-7.338z" fill="url(#g)" transform="translate(-.503 -1.223)"/></svg>