<svg xmlns="http://www.w3.org/2000/svg" xmlns:xlink="http://www.w3.org/1999/xlink" width="64" height="64" enable-background="new 0 0 1024 1024" image-rendering="optimizeSpeed"><defs><linearGradient id="a"><stop offset="0" stop-color="#dda641"/><stop offset="1" stop-color="#ffdf5e"/></linearGradient><linearGradient xlink:href="#a" id="c" x1="7.937" x2="7.937" y1="15.849" y2=".556" gradientTransform="translate(-2.286 -2.252)scale(4.0494)" gradientUnits="userSpaceOnUse"><stop offset="0" stop-color="#f6cd8f"/><stop offset="1" stop-color="#ffefd6"/></linearGradient><linearGradient xlink:href="#a" id="e" x1="26.176" x2="42.176" y1="32.806" y2="32.806" gradientUnits="userSpaceOnUse"/><filter id="d" width="1.276" height="1.177" x="-.138" y="-.089" color-interpolation-filters="sRGB"><feGaussianBlur stdDeviation="1.035"/></filter><filter id="b" width="1.061" height="1.061" x="-.031" y="-.031" color-interpolation-filters="sRGB"><feGaussianBlur stdDeviation=".768"/></filter></defs><rect width="60" height="60" x="2" y="2" filter="url(#b)" opacity=".15" rx="30" ry="30"/><rect width="60" height="60" x="2" y="2" fill="url(#c)" rx="30" ry="30" style="fill:url(#c)"/><path d="M44.176 38.807c0 6-4 9-9 9s-9-3-9-9c0-7 4.828-19 9-19s9 12 9 19" filter="url(#d)" opacity=".1" style="paint-order:normal" transform="translate(-18.22 -16.238)scale(1.4483)"/><path fill="#c4762f" d="M43.176 37.807c0 6-4 9-9 9s-9-3-9-9c0-7 4.828-19 9-19s9 12 9 19" style="paint-order:normal" transform="translate(-18.22 -16.238)scale(1.4483)"/><path fill="url(#e)" d="M34.176 19.806c-3.531 0-8 11-8 18 0 5 3.172 8 8 8 1.614 0 3.037-.341 4.225-.975 1.57-2.384 2.775-5.084 2.775-8.025.574 1.303.298 3.514-.309 5.799.843-1.271 1.309-2.888 1.309-4.799 0-7-4.469-18-8-18m-1.5 2s-.5 3.433-.5 5c0 2.028 1 5 1 6 0 1.484-1.5 4-1.5 4s.5-1.766.5-4c0-1-1-3.61-1-6 0-1.7 1.5-5 1.5-5m3.5 0s3 4.285 3 9c0 2-.358 3.593-1 5v-5c0-3.625-1-6-2-9m-7 6v3c0 2-.293 3.777-1 6v-4c0-1.7 1-5 1-5" style="paint-order:normal" transform="translate(-18.22 -16.238)scale(1.4483)"/><path fill="#403b3c" d="M29.676 38.806c-.828 0-1.5.895-1.5 2 .544-1 1.085-1 1.5-1s.926 0 1.5 1c0-1.105-.672-2-1.5-2m8 0c-.828 0-1.5.895-1.5 2 .544-1 1.085-1 1.5-1s.926 0 1.5 1c0-1.105-.672-2-1.5-2m-5 3a.5.5 0 0 0-.5.5c0 .831.669 1.5 1.5 1.5s1.5-.669 1.5-1.5a.5.5 0 0 0-.5-.5.5.5 0 0 0-.5.5.499.499 0 1 1-1 0 .5.5 0 0 0-.5-.5" style="paint-order:normal" transform="translate(-18.22 -16.238)scale(1.4483)"/></svg>