<svg xmlns="http://www.w3.org/2000/svg" xmlns:xlink="http://www.w3.org/1999/xlink" width="64" height="64"><defs><linearGradient id="c" x1="32" x2="32" y1="2" y2="62" gradientTransform="translate(.253 .814)" gradientUnits="userSpaceOnUse"><stop offset="0" stop-color="#faf8f8"/><stop offset="1" stop-color="#bfd2d2"/></linearGradient><linearGradient id="a" x1="31.537" x2="35.973" y1="27.6" y2="31" gradientUnits="userSpaceOnUse"><stop offset="0"/><stop offset="1" stop-opacity="0"/></linearGradient><linearGradient id="f" x1="25.869" x2="24.539" y1="39.24" y2="10.624" gradientTransform="translate(-2.503 2.227)scale(1.3028)" gradientUnits="userSpaceOnUse"><stop offset="0" stop-color="#2980b9"/><stop offset="1" stop-color="#1d99f3"/></linearGradient><linearGradient id="g" x1="27.04" x2="24.839" y1="16.621" y2="17.991" gradientUnits="userSpaceOnUse"><stop offset="0" stop-color="#fcfcfc"/><stop offset="1" stop-color="#c7c7c7"/></linearGradient><linearGradient id="h" x1="3.783" x2="19.574" y1="23.644" y2="22.495" gradientUnits="userSpaceOnUse"><stop offset="0" stop-color="#2980b9"/><stop offset="1" stop-color="#34495e"/></linearGradient><linearGradient xlink:href="#a" id="d" x1="29.507" x2="35.895" y1="28.849" y2="32.639" gradientUnits="userSpaceOnUse"/><linearGradient xlink:href="#a" id="i" x1="22.14" x2="28.818" y1="20.882" y2="26.073" gradientTransform="translate(-14.385 10.144)scale(1.243)" gradientUnits="userSpaceOnUse"/><filter id="b" width="1.072" height="1.072" x="-.036" y="-.036" color-interpolation-filters="sRGB"><feGaussianBlur stdDeviation="14.344"/></filter><filter id="e" width="1.047" height="1.049" x="-.023" y="-.025" color-interpolation-filters="sRGB"><feGaussianBlur stdDeviation=".292"/></filter><filter id="j" width="1.109" height="1.133" x="-.055" y="-.067" color-interpolation-filters="sRGB"><feGaussianBlur stdDeviation=".622"/></filter></defs><circle cx="512" cy="512" r="478.12" filter="url(#b)" opacity=".25" style="paint-order:stroke markers fill" transform="translate(-.125 -.125)scale(.06274)"/><circle cx="32" cy="32" r="30" fill="url(#c)" style="paint-order:stroke markers fill"/><path fill="url(#d)" d="M40.01 13.424 13.143 38.076A18.5 18.5 0 0 0 24.5 42 18.5 18.5 0 0 0 43 23.5a18.5 18.5 0 0 0-2.99-10.076" color="#000" filter="url(#e)" opacity=".2" transform="translate(-2.503 2.227)scale(1.3028)"/><g fill-rule="evenodd"><path fill="url(#f)" d="M49.184 16.885q-.192-.002-.402.03c-2.246.345-7.354 2.245-8.967 2.648-1.612.402-2.367.764-4.951.52-2.947-.28-4.272-.298-5.047-.276-1.161-.103-1.746-.358-1.746-.358l.101 1.143c-.771.589-2.325 1.446-5.515 2.313-2.073.23-3.8-.404-4.836.171s-4.318 2.016-5.989 2.418c-1.67.403-2.906 1.158-3.908 1.487-1.59.518 3.153 8.12 5.211 9.119 0 0-.712.74-1.303 1.36-1.431.978-2.56 1.042-2.56 1.042l.072.785c-1.662.884-3.309 1.295-3.857 1.373-.082.012-1.034.292-1.973.63A30 30 0 0 0 32 62a30 30 0 0 0 2.795-.156c.495-2.736 1.298-7.045 1.441-8.533.566-.831 1.327-.842 1.327-.842s-.978-2.77-.881-6.103c.12-.791.327-1.536.588-2.245h.984s-.125-1.36.432-2.742c1.83-2.783 4.33-4.643 5.396-5.46 1.006-.773 5.64-1.958 6.62-2.188s1.899-1.787 1.956-2.248-.287-1.324-.287-1.324l-2.59-.575-3.134-.353s4.303-6.375 5.078-7.113c.822-.783 1.222-1.747 1.222-2.668s-.677-2.16-.677-2.16-.779-.395-2.05-.346c-.212.007-.43-.022-.665-.041h-.004a4 4 0 0 0-.367-.018"/><g stroke-width=".768"><path fill="#2c3e50" d="M52.54 17.86s-.407-.365-.854-.407c-.449-.04-1.385.122-1.67.082s-1.262-.611-1.262-.611 1.303-.733 1.751-.814c.448-.082 1.222-.203 1.222-.203s.326.407.571.977.245.977.245.977"/><path fill="#fcfcfc" d="M50.895 29.886c-.88.117-1.049.02-1.049.02s.203-.922.424-1 .862.92.625.98"/><path fill="#2c3e50" d="M52.092 21.729s-2.89 1.385-4.274 3.542c-1.385 2.157-2.362 4.357-2.362 4.357s.977.203 1.873.529 2.525.407 3.217.285.896-.448.203-.734c-.692-.285-1.71-.488-1.751-1.1s1.262-4.153 1.628-4.722c.367-.57 1.466-2.157 1.466-2.157"/><path fill="#34495e" d="M26.73 28.772s3.58-.54 4.945-1.355c4.447-2.658 4.296-4.142 4.296-4.142s-4.704-1.882-7.957 1.999c-1.362 1.624-1.285 3.498-1.285 3.498"/><path fill="url(#g)" d="M23.467 19.14s2.74-.552 3.757-1.304c1.016-.751 1.436-1.149 1.304-1.414-.133-.265-1.127-.663-2.364-.354s-2.121 1.193-2.364 1.746-.486 1.149-.331 1.326" transform="translate(-2.503 2.227)scale(1.3028)"/><path fill="#fcfcfc" d="M48.249 30.467c1.316.15 1.563.024 1.563.024s-.302-1.185-.63-1.286-1.286 1.186-.933 1.262"/><path fill="url(#h)" d="M12.298 24.795c1.01.774 3.56 1.23 4.811 1.048 2.951-.431 3.103-.21 2.391-2.093C18.986 22.391 16 21 14 23l-1-1c.593-.854-.5-2.844-1-3s-2.859.486-3.078.705 2.369 4.317 3.376 5.091" transform="translate(-2.503 2.227)scale(1.3028)"/></g></g><path fill="url(#i)" d="M12.961 36.247s-.68.706-1.243 1.296c-1.366.934-2.442.996-2.442.996l.068.748a14 14 0 0 1-2.646 1.062l-1.054.25-1.384.893c3.217 9.87 12.33 17.035 23.418 17.125l3.933-11.182-9.944-9.943s-1.627.533-4.513.034c-2.885-.498-4.188-1.277-4.188-1.277" filter="url(#j)" opacity=".1"/></svg>