<svg xmlns="http://www.w3.org/2000/svg" xmlns:xlink="http://www.w3.org/1999/xlink" width="64" height="64"><defs><linearGradient id="a"><stop offset="0" stop-color="#232323"/><stop offset="1" stop-color="#5f5f5f"/></linearGradient><linearGradient id="c" x1="408.25" x2="407.94" y1="547.6" y2="498.89" gradientTransform="translate(-510.64 -663.52) scale(1.3276)" gradientUnits="userSpaceOnUse"><stop offset="0" stop-color="#fff"/><stop offset="1" stop-color="#e6e6e6"/></linearGradient><linearGradient id="f" x1="27.355" x2="27.355" y1="30.203" y2="8" gradientUnits="userSpaceOnUse"><stop offset="0" stop-color="#78502d"/><stop offset="1" stop-color="#c2752f"/></linearGradient><linearGradient id="g" x1="32.928" x2="32.928" y1="42.679" y2="25.535" gradientUnits="userSpaceOnUse"><stop offset="0" stop-color="#b76e2c"/><stop offset="1" stop-color="#cd7e35"/></linearGradient><linearGradient id="h" x1="32.952" x2="32.952" y1="54.202" y2="39.883" gradientUnits="userSpaceOnUse"><stop offset="0" stop-color="#707070"/><stop offset="1" stop-color="#8e8e8e" stop-opacity=".878"/></linearGradient><linearGradient id="i" x1="32.297" x2="32.297" y1="54.23" y2="39.887" gradientUnits="userSpaceOnUse"><stop offset="0" stop-color="#c6c6c6"/><stop offset="1" stop-color="#e4e4e4" stop-opacity=".994"/></linearGradient><linearGradient xlink:href="#a" id="j" x1="34.865" x2="34.865" y1="35.1" y2="37.492" gradientUnits="userSpaceOnUse"/><linearGradient xlink:href="#a" id="k" x1="28.489" x2="28.489" y1="35.1" y2="37.492" gradientUnits="userSpaceOnUse"/><linearGradient id="e" x1="39.304" x2="39.304" y1="55.823" y2="49.448" gradientUnits="userSpaceOnUse"><stop offset="0" stop-color="#ff4e4e"/><stop offset="1" stop-color="#d00" stop-opacity=".976"/></linearGradient><filter id="b" width="1.072" height="1.072" x="-.036" y="-.036" color-interpolation-filters="sRGB"><feGaussianBlur stdDeviation=".89"/></filter><filter id="d" width="1.16" height="1.096" x="-.08" y="-.048" color-interpolation-filters="sRGB"><feGaussianBlur stdDeviation=".958"/></filter></defs><rect width="59.315" height="59.315" x="386.85" y="486.31" filter="url(#b)" opacity=".25" ry="29.657" transform="translate(-389.32 -489.92) scale(1.0115)"/><rect width="59.997" height="59.997" x="1.983" y="1.978" fill="url(#c)" ry="29.998"/><g stroke-width=".893"><g filter="url(#d)" opacity=".15" transform="translate(-1.824 -3.938) scale(1.071)"><circle cx="39.304" cy="52.635" r="3.188"/><path d="M39 8c-.471-.006-1.241 1.017-1.853 1.933-1.395 2.088-2.855 4.372-4.282 7.249-1.418 2.86-1.548 2.726-1.38 8.724 1.06.059 3.306.617 4.296 1.112.144-.249.286-.658.419-.926 2.094-4.202 2.544-10.6 3.141-15.677.21-1.783.026-2.41-.34-2.415zm-23.306 7.945c-1.557.1 1.724 5.971 2.69 7.464.875 1.354 3.05 3.662 4.789 5.53.373.4.705.746 1.02 1.074 0 0 .204.28.337.16.75-.678 3.188-3.313 4.119-3.671l-.124-.194c-2.552-3.795-6.737-7.112-11.847-10.021-.44-.251-.761-.356-.984-.341z"/><path d="M30.945 25.535c-3.513.327-5.835 2.193-7.21 4.841a7.127 7.127 0 0 0-.329 2.199c0 2.777.868 4.923.62 7.745-.337 3.824-3.207 6.133-1.932 9.59.026.084.034.161.065.247.263.731.786 1.488 1.522 2.333.12.137.26.256.406.373.578.477 1.34.807 2.22 1.021a12.82 12.82 0 0 0 1.925.3c.23.02.46.034.694.045l.198-.026c2.36.093 4.834-.172 6.28-.25a9.973 9.973 0 0 0 1.038-.112 10.972 10.972 0 0 0 3.095-.991h.006c.047-.024.089-.056.135-.08.37-.19.734-.39 1.073-.619 1.088-.729 1.997-1.645 2.59-2.69.508-.891.781-1.876.742-2.916-.012-1.078-.343-2.215-1.094-3.374-2.448-3.774-5.103-8.407-5.24-13.453a3.85 3.85 0 0 0-.738-1.922c-1.381-1.694-4.14-2.252-6.066-2.261z"/><path d="M36.047 39.888c1.27 0 2.444-.027 3.32.279.947.33 1.547 1.047 1.547 2.603 0 1.424-2.214 3.511-2.873 5.463.222 1.676.76 3.336 1.503 4.616.42-.207.824-.44 1.206-.697 1.087-.729 1.996-1.646 2.59-2.69 1-1.762 1.103-3.888-.354-6.09-3.53-6.879-17.462-1.957-20.11.951-.137.925-1.754 2.93-.709 5.836.263.73.786 1.487 1.522 2.331.594.683 1.526 1.113 2.624 1.375a13.07 13.07 0 0 0 1.924.292c.229.02.46.034.693.046-.002-1.075.076-2.145.053-3.167a15.44 15.44 0 0 0-.009-.265c-.23-2.346-4.544-2.797-4.544-6.094 0-.684.226-1.273.62-1.78 1.955-2.518 8.038-3.009 10.997-3.009z"/><path d="M36.047 39.888c-2.96 0-9.042.49-10.997 3.01 1.315 1.694 2.35 3.256 3.283 5.06.444.858.6 1.81.642 2.812.008.086.011.175.008.266.023 1.022-.054 2.092-.053 3.166 2.418.117 4.99-.168 6.475-.248a9.96 9.96 0 0 0 1.038-.111 10.973 10.973 0 0 0 3.1-.994c-.741-1.28-1.28-2.94-1.502-4.616a12.622 12.622 0 0 1-.111-1.65c0-1.698.636-4.682 1.438-6.416-.877-.306-2.051-.279-3.321-.279z"/><path d="M28.333 47.958c-.934-1.804-1.968-3.366-3.283-5.06a2.835 2.835 0 0 0-.62 1.779c0 3.296 4.314 3.747 4.545 6.093-.042-1.003-.198-1.954-.642-2.812zm11.035-7.792c-.801 1.734-1.438 4.718-1.438 6.417 0 .543.038 1.097.111 1.649.659-1.952 2.873-4.04 2.873-5.463 0-1.556-.6-2.273-1.546-2.603zm-4.726-8.184c-.676.19-1.768 3.131-1.77 4.093-.001 1.257.396 1.739 1.156 2.31.76.571 4.414 1.27 4.423-.068.009-1.318-.04-2.437-.217-3.178-.177-.741-.537-2.145-1.264-2.75-.456-.38-1.652-.598-2.328-.407z"/><circle cx="34.865" cy="36.296" r="1.196"/><path d="M30.432 35.486c-.132-.985-1.424-2.65-2.24-3.179-2.064-1.334-3.448.984-3.275 2.911.128 1.433.895 5.383 2.654 4.55 1.76-.832 3.2-1.755 2.861-4.282z"/><circle cx="28.489" cy="36.296" r="1.196"/></g><g transform="translate(-1.824 -3.938) scale(1.071)"><circle cx="39.304" cy="52.635" r="3.188" fill="url(#e)"/><path fill="url(#f)" d="M39 8c-.471-.006-1.241 1.017-1.853 1.933-1.395 2.088-2.855 4.372-4.282 7.249-1.418 2.86-1.548 2.726-1.38 8.724 1.06.059 3.306.617 4.296 1.112.144-.249.286-.658.419-.926 2.094-4.202 2.544-10.6 3.141-15.677.21-1.783.026-2.41-.34-2.415zm-23.306 7.945c-1.557.1 1.724 5.971 2.69 7.464.875 1.354 3.05 3.662 4.789 5.53.373.4.705.746 1.02 1.074 0 0 .204.28.337.16.75-.678 3.188-3.313 4.119-3.671l-.124-.194c-2.552-3.795-6.737-7.112-11.847-10.021-.44-.251-.761-.356-.984-.341z"/><path fill="url(#g)" d="M30.945 25.535c-3.513.327-5.835 2.193-7.21 4.841a7.127 7.127 0 0 0-.329 2.199c0 2.777.868 4.923.62 7.745-.337 3.824-3.207 6.133-1.932 9.59.026.084.034.161.065.247.263.731.786 1.488 1.522 2.333.12.137.26.256.406.373.578.477 1.34.807 2.22 1.021a12.82 12.82 0 0 0 1.925.3c.23.02.46.034.694.045l.198-.026c2.36.093 4.834-.172 6.28-.25a9.973 9.973 0 0 0 1.038-.112 10.972 10.972 0 0 0 3.095-.991h.006c.047-.024.089-.056.135-.08.37-.19.734-.39 1.073-.619 1.088-.729 1.997-1.645 2.59-2.69.508-.891.781-1.876.742-2.916-.012-1.078-.343-2.215-1.094-3.374-2.448-3.774-5.103-8.407-5.24-13.453a3.85 3.85 0 0 0-.738-1.922c-1.381-1.694-4.14-2.252-6.066-2.261z"/><path fill="url(#h)" d="M36.047 39.888c1.27 0 2.444-.027 3.32.279.947.33 1.547 1.047 1.547 2.603 0 1.424-2.214 3.511-2.873 5.463.222 1.676.76 3.336 1.503 4.616.42-.207.824-.44 1.206-.697 1.087-.729 1.996-1.646 2.59-2.69 1-1.762 1.103-3.888-.354-6.09-3.53-6.879-17.462-1.957-20.11.951-.137.925-1.754 2.93-.709 5.836.263.73.786 1.487 1.522 2.331.594.683 1.526 1.113 2.624 1.375a13.07 13.07 0 0 0 1.924.292c.229.02.46.034.693.046-.002-1.075.076-2.145.053-3.167a15.44 15.44 0 0 0-.009-.265c-.23-2.346-4.544-2.797-4.544-6.094 0-.684.226-1.273.62-1.78 1.955-2.518 8.038-3.009 10.997-3.009z"/><path fill="url(#i)" d="M36.047 39.888c-2.96 0-9.042.49-10.997 3.01 1.315 1.694 2.35 3.256 3.283 5.06.444.858.6 1.81.642 2.812.008.086.011.175.008.266.023 1.022-.054 2.092-.053 3.166 2.418.117 4.99-.168 6.475-.248a9.96 9.96 0 0 0 1.038-.111 10.973 10.973 0 0 0 3.1-.994c-.741-1.28-1.28-2.94-1.502-4.616a12.622 12.622 0 0 1-.111-1.65c0-1.698.636-4.682 1.438-6.416-.877-.306-2.051-.279-3.321-.279z"/><path fill="#3f3f3f" d="M28.333 47.958c-.934-1.804-1.968-3.366-3.283-5.06a2.835 2.835 0 0 0-.62 1.779c0 3.296 4.314 3.747 4.545 6.093-.042-1.003-.198-1.954-.642-2.812zm11.035-7.792c-.801 1.734-1.438 4.718-1.438 6.417 0 .543.038 1.097.111 1.649.659-1.952 2.873-4.04 2.873-5.463 0-1.556-.6-2.273-1.546-2.603z"/><path fill="#fff" d="M34.642 31.982c-.676.19-1.768 3.131-1.77 4.093-.001 1.257.396 1.739 1.156 2.31.76.571 4.414 1.27 4.423-.068.009-1.318-.04-2.437-.217-3.178-.177-.741-.537-2.145-1.264-2.75-.456-.38-1.652-.598-2.328-.407z"/><circle cx="34.865" cy="36.296" r="1.196" fill="url(#j)"/><path fill="#fff" d="M30.432 35.486c-.132-.985-1.424-2.65-2.24-3.179-2.064-1.334-3.448.984-3.275 2.911.128 1.433.895 5.383 2.654 4.55 1.76-.832 3.2-1.755 2.861-4.282z"/><circle cx="28.489" cy="36.296" r="1.196" fill="url(#k)"/></g></g></svg>