<?xml version="1.0" encoding="UTF-8"?>
<svg width="64" height="64" version="1.1" xmlns="http://www.w3.org/2000/svg" xmlns:cc="http://creativecommons.org/ns#" xmlns:dc="http://purl.org/dc/elements/1.1/" xmlns:rdf="http://www.w3.org/1999/02/22-rdf-syntax-ns#" xmlns:xlink="http://www.w3.org/1999/xlink">
 <metadata>
  <rdf:RDF>
   <cc:Work rdf:about="">
    <dc:format>image/svg+xml</dc:format>
    <dc:type rdf:resource="http://purl.org/dc/dcmitype/StillImage"/>
    <dc:title/>
   </cc:Work>
  </rdf:RDF>
 </metadata>
 <defs>
  <linearGradient id="linearGradient944">
   <stop stop-color="#232323" offset="0"/>
   <stop stop-color="#5f5f5f" offset="1"/>
  </linearGradient>
  <linearGradient id="b" x1="408.25" x2="407.94" y1="547.6" y2="498.89" gradientTransform="matrix(1.3276 0 0 1.3276 -510.64 -663.52)" gradientUnits="userSpaceOnUse">
   <stop stop-color="#fff" offset="0"/>
   <stop stop-color="#e6e6e6" offset="1"/>
  </linearGradient>
  <filter id="c" x="-.036" y="-.036" width="1.072" height="1.072" color-interpolation-filters="sRGB">
   <feGaussianBlur stdDeviation="0.88972449"/>
  </filter>
  <linearGradient id="linearGradient904" x1="27.355" x2="27.355" y1="30.203" y2="8" gradientUnits="userSpaceOnUse">
   <stop stop-color="#78502d" offset="0"/>
   <stop stop-color="#c2752f" offset="1"/>
  </linearGradient>
  <linearGradient id="linearGradient912" x1="32.928" x2="32.928" y1="42.679" y2="25.535" gradientUnits="userSpaceOnUse">
   <stop stop-color="#b76e2c" offset="0"/>
   <stop stop-color="#cd7e35" offset="1"/>
  </linearGradient>
  <linearGradient id="linearGradient920" x1="32.952" x2="32.952" y1="54.202" y2="39.883" gradientUnits="userSpaceOnUse">
   <stop stop-color="#707070" offset="0"/>
   <stop stop-color="#8e8e8e" stop-opacity=".87778" offset="1"/>
  </linearGradient>
  <linearGradient id="linearGradient928" x1="32.297" x2="32.297" y1="54.23" y2="39.887" gradientUnits="userSpaceOnUse">
   <stop stop-color="#c6c6c6" offset="0"/>
   <stop stop-color="#e4e4e4" stop-opacity=".99444" offset="1"/>
  </linearGradient>
  <linearGradient id="linearGradient936" x1="34.865" x2="34.865" y1="35.1" y2="37.492" gradientUnits="userSpaceOnUse" xlink:href="#linearGradient944"/>
  <linearGradient id="linearGradient938" x1="28.489" x2="28.489" y1="35.1" y2="37.492" gradientUnits="userSpaceOnUse" xlink:href="#linearGradient944"/>
  <linearGradient id="linearGradient952" x1="39.304" x2="39.304" y1="55.823" y2="49.448" gradientUnits="userSpaceOnUse">
   <stop stop-color="#ff4e4e" offset="0"/>
   <stop stop-color="#d00" stop-opacity=".97647" offset="1"/>
  </linearGradient>
  <filter id="filter1010" x="-.079807" y="-.04807" width="1.1596" height="1.0961" color-interpolation-filters="sRGB">
   <feGaussianBlur stdDeviation="0.95786011"/>
  </filter>
 </defs>
 <rect transform="matrix(1.0115 0 0 1.0115 -389.32 -489.92)" x="386.85" y="486.31" width="59.315" height="59.315" ry="29.657" filter="url(#c)" opacity=".25"/>
 <rect x="1.9826" y="1.9784" width="59.997" height="59.997" ry="29.998" fill="url(#b)" stroke-width="1.0115"/>
 <g transform="matrix(1.067 0 0 1.067 -2.0079 -1.0133)" stroke-width=".89321">
  <g transform="matrix(1.0037 0 0 1.0037 .17233 -2.7414)" filter="url(#filter1010)" opacity=".15">
   <circle cx="39.304" cy="52.635" r="3.1879"/>
   <path d="m39 8c-0.47123-0.00617-1.241 1.0174-1.8529 1.9333-1.395 2.0879-2.8553 4.3721-4.2818 7.2487-1.4187 2.8607-1.5486 2.726-1.3794 8.7241 1.06 0.05877 3.3053 0.61675 4.2948 1.1122 0.14436-0.2489 0.28586-0.65817 0.41924-0.92581 2.0936-4.2022 2.5436-10.601 3.1412-15.677 0.21001-1.7838 0.02547-2.4107-0.34104-2.4155zm-23.306 7.9451c-1.5566 0.0995 1.7236 5.971 2.6892 7.4638 0.87582 1.3539 3.0504 3.6619 4.7898 5.5293 0.37273 0.40013 0.70548 0.74723 1.0209 1.0753 0 0 0.20306 0.27996 0.33573 0.15994 0.75013-0.67862 3.1886-3.3131 4.119-3.6715l-0.1233-0.19425c-2.5526-3.7948-6.737-7.1112-11.847-10.021-0.44064-0.25094-0.76165-0.35526-0.98402-0.34104z"/>
   <path d="m30.945 25.535c-3.5126 0.32692-5.8355 2.1929-7.2093 4.8413-0.21367 0.66148-0.32928 1.3957-0.32928 2.1986 0 2.7774 0.86794 4.923 0.61931 7.7448-0.33693 3.8243-3.2064 6.1332-1.9321 9.5899 0.02644 0.08453 0.03442 0.16176 0.06542 0.24788 0.2631 0.73076 0.78643 1.4878 1.5221 2.3323 0.11912 0.13673 0.26074 0.25574 0.4056 0.3729 0.57808 0.47734 1.341 0.80782 2.2199 1.0217 0.60108 0.14627 1.2529 0.24224 1.9255 0.29962 0.22901 0.0195 0.46052 0.03382 0.69345 0.04525l0.19844-0.02589c2.3606 0.0922 4.834-0.17219 6.2803-0.25004 0.34547-0.01859 0.69225-0.05679 1.038-0.11208 1.068-0.17087 2.1227-0.51284 3.0944-0.99154h0.0065c0.04702-0.02369 0.08859-0.05532 0.1352-0.07975 0.37021-0.18939 0.7332-0.39077 1.0729-0.61863 1.0872-0.72918 1.997-1.6455 2.5906-2.6901 0.50662-0.89137 0.78038-1.8761 0.74143-2.9164-0.01287-1.0774-0.34353-2.2149-1.0947-3.3734-2.4473-3.7741-5.1023-8.4074-5.2402-13.453-0.07412-0.73502-0.33483-1.3758-0.73707-1.9227-1.3816-1.694-4.1397-2.2521-6.0666-2.2611z"/>
   <path d="m36.047 39.888c1.2699 0 2.4439-0.02683 3.3208 0.27885 0.94638 0.32984 1.5463 1.0471 1.5463 2.6035 0 1.4234-2.2145 3.5109-2.873 5.4625 0.22157 1.6765 0.76063 3.3366 1.5025 4.6166 0.42022-0.20749 0.8245-0.44074 1.2067-0.69729 1.0866-0.72918 1.9955-1.6459 2.5888-2.6905 1.0009-1.762 1.1039-3.8877-0.35296-6.0899-3.531-6.8788-17.462-1.957-20.11 0.95159-0.13666 0.92431-1.7541 2.9306-0.70868 5.8357 0.26296 0.73075 0.78598 1.4865 1.5213 2.331 0.5943 0.68248 1.5262 1.113 2.6247 1.375 0.60075 0.14331 1.2512 0.23619 1.9235 0.2924 0.22888 0.0191 0.46021 0.03398 0.69302 0.04518-0.0015-1.0742 0.07589-2.1445 0.05272-3.1666-2e-3 -0.08885-0.0049-0.17737-0.0084-0.26547-0.23106-2.3458-4.5444-2.7965-4.5444-6.0934 0-0.68366 0.22627-1.2727 0.61965-1.7795 1.9551-2.5189 8.0381-3.0095 10.997-3.0095z"/>
   <path d="m36.047 39.888c-2.9591 0-9.0421 0.49064-10.997 3.0095 1.3155 1.6949 2.3491 3.2564 3.2832 5.0609 0.44401 0.85775 0.59979 1.8093 0.64152 2.812 0.0084 0.08591 0.01125 0.17425 0.0084 0.26547 0.02317 1.0221-0.05429 2.0924-0.0527 3.1666 2.4179 0.11614 4.9889-0.16828 6.4748-0.2483 0.34528-0.01859 0.69197-0.05613 1.0375-0.11142 1.0697-0.17125 2.1281-0.51319 3.1009-0.99347-0.7419-1.28-1.281-2.94-1.5025-4.6166-0.07301-0.55223-0.11154-1.1061-0.11154-1.6489 0-1.6987 0.6369-4.6826 1.4382-6.417-0.87686-0.3056-2.0509-0.27876-3.3208-0.27876z"/>
   <path d="m28.333 47.958c-0.93418-1.8045-1.9678-3.366-3.2832-5.0609-0.39338 0.50688-0.61965 1.0959-0.61965 1.7795 0 3.2969 4.3134 3.7475 4.5444 6.0934-0.04173-1.0026-0.19752-1.9542-0.64152-2.812z"/>
   <path d="m39.368 40.166c-0.80132 1.7344-1.4382 4.7184-1.4382 6.417 0 0.5428 0.03851 1.0967 0.11154 1.6489 0.65851-1.9515 2.873-4.0391 2.873-5.4625 0-1.5564-0.59996-2.2736-1.5463-2.6035z"/>
   <path d="m34.642 31.982c-0.676 0.19066-1.7684 3.1314-1.7696 4.0932-0.0016 1.2566 0.39592 1.7385 1.1554 2.3097 0.75944 0.57121 4.4142 1.2701 4.4231-0.06819 0.0088-1.3179-0.03963-2.4371-0.21663-3.178-0.17701-0.74092-0.53742-2.1448-1.2638-2.7494-0.45645-0.37986-1.6524-0.598-2.3284-0.40734z"/>
   <circle cx="34.865" cy="36.296" r="1.196"/>
   <path d="m30.432 35.486c-0.13169-0.98465-1.4238-2.6503-2.2406-3.1787-2.063-1.3344-3.4471 0.98338-3.2748 2.911 0.12802 1.4326 0.89495 5.3832 2.6543 4.5505 1.7593-0.83268 3.1993-1.7558 2.8611-4.2828z"/>
   <circle cx="28.489" cy="36.296" r="1.196"/>
  </g>
  <g transform="matrix(1.0037 0 0 1.0037 .17233 -2.7414)">
   <circle cx="39.304" cy="52.635" r="3.1879" fill="url(#linearGradient952)"/>
   <path d="m39 8c-0.47123-0.00617-1.241 1.0174-1.8529 1.9333-1.395 2.0879-2.8553 4.3721-4.2818 7.2487-1.4187 2.8607-1.5486 2.726-1.3794 8.7241 1.06 0.05877 3.3053 0.61675 4.2948 1.1122 0.14436-0.2489 0.28586-0.65817 0.41924-0.92581 2.0936-4.2022 2.5436-10.601 3.1412-15.677 0.21001-1.7838 0.02547-2.4107-0.34104-2.4155zm-23.306 7.9451c-1.5566 0.0995 1.7236 5.971 2.6892 7.4638 0.87582 1.3539 3.0504 3.6619 4.7898 5.5293 0.37273 0.40013 0.70548 0.74723 1.0209 1.0753 0 0 0.20306 0.27996 0.33573 0.15994 0.75013-0.67862 3.1886-3.3131 4.119-3.6715l-0.1233-0.19425c-2.5526-3.7948-6.737-7.1112-11.847-10.021-0.44064-0.25094-0.76165-0.35526-0.98402-0.34104z" fill="url(#linearGradient904)"/>
   <path d="m30.945 25.535c-3.5126 0.32692-5.8355 2.1929-7.2093 4.8413-0.21367 0.66148-0.32928 1.3957-0.32928 2.1986 0 2.7774 0.86794 4.923 0.61931 7.7448-0.33693 3.8243-3.2064 6.1332-1.9321 9.5899 0.02644 0.08453 0.03442 0.16176 0.06542 0.24788 0.2631 0.73076 0.78643 1.4878 1.5221 2.3323 0.11912 0.13673 0.26074 0.25574 0.4056 0.3729 0.57808 0.47734 1.341 0.80782 2.2199 1.0217 0.60108 0.14627 1.2529 0.24224 1.9255 0.29962 0.22901 0.0195 0.46052 0.03382 0.69345 0.04525l0.19844-0.02589c2.3606 0.0922 4.834-0.17219 6.2803-0.25004 0.34547-0.01859 0.69225-0.05679 1.038-0.11208 1.068-0.17087 2.1227-0.51284 3.0944-0.99154h0.0065c0.04702-0.02369 0.08859-0.05532 0.1352-0.07975 0.37021-0.18939 0.7332-0.39077 1.0729-0.61863 1.0872-0.72918 1.997-1.6455 2.5906-2.6901 0.50662-0.89137 0.78038-1.8761 0.74143-2.9164-0.01287-1.0774-0.34353-2.2149-1.0947-3.3734-2.4473-3.7741-5.1023-8.4074-5.2402-13.453-0.07412-0.73502-0.33483-1.3758-0.73707-1.9227-1.3816-1.694-4.1397-2.2521-6.0666-2.2611z" fill="url(#linearGradient912)"/>
   <path d="m36.047 39.888c1.2699 0 2.4439-0.02683 3.3208 0.27885 0.94638 0.32984 1.5463 1.0471 1.5463 2.6035 0 1.4234-2.2145 3.5109-2.873 5.4625 0.22157 1.6765 0.76063 3.3366 1.5025 4.6166 0.42022-0.20749 0.8245-0.44074 1.2067-0.69729 1.0866-0.72918 1.9955-1.6459 2.5888-2.6905 1.0009-1.762 1.1039-3.8877-0.35296-6.0899-3.531-6.8788-17.462-1.957-20.11 0.95159-0.13666 0.92431-1.7541 2.9306-0.70868 5.8357 0.26296 0.73075 0.78598 1.4865 1.5213 2.331 0.5943 0.68248 1.5262 1.113 2.6247 1.375 0.60075 0.14331 1.2512 0.23619 1.9235 0.2924 0.22888 0.0191 0.46021 0.03398 0.69302 0.04518-0.0015-1.0742 0.07589-2.1445 0.05272-3.1666-2e-3 -0.08885-0.0049-0.17737-0.0084-0.26547-0.23106-2.3458-4.5444-2.7965-4.5444-6.0934 0-0.68366 0.22627-1.2727 0.61965-1.7795 1.9551-2.5189 8.0381-3.0095 10.997-3.0095z" fill="url(#linearGradient920)"/>
   <path d="m36.047 39.888c-2.9591 0-9.0421 0.49064-10.997 3.0095 1.3155 1.6949 2.3491 3.2564 3.2832 5.0609 0.44401 0.85775 0.59979 1.8093 0.64152 2.812 0.0084 0.08591 0.01125 0.17425 0.0084 0.26547 0.02317 1.0221-0.05429 2.0924-0.0527 3.1666 2.4179 0.11614 4.9889-0.16828 6.4748-0.2483 0.34528-0.01859 0.69197-0.05613 1.0375-0.11142 1.0697-0.17125 2.1281-0.51319 3.1009-0.99347-0.7419-1.28-1.281-2.94-1.5025-4.6166-0.07301-0.55223-0.11154-1.1061-0.11154-1.6489 0-1.6987 0.6369-4.6826 1.4382-6.417-0.87686-0.3056-2.0509-0.27876-3.3208-0.27876z" fill="url(#linearGradient928)"/>
   <path d="m28.333 47.958c-0.93418-1.8045-1.9678-3.366-3.2832-5.0609-0.39338 0.50688-0.61965 1.0959-0.61965 1.7795 0 3.2969 4.3134 3.7475 4.5444 6.0934-0.04173-1.0026-0.19752-1.9542-0.64152-2.812z" fill="#3f3f3f"/>
   <path d="m39.368 40.166c-0.80132 1.7344-1.4382 4.7184-1.4382 6.417 0 0.5428 0.03851 1.0967 0.11154 1.6489 0.65851-1.9515 2.873-4.0391 2.873-5.4625 0-1.5564-0.59996-2.2736-1.5463-2.6035z" fill="#3f3f3f"/>
   <path d="m34.642 31.982c-0.676 0.19066-1.7684 3.1314-1.7696 4.0932-0.0016 1.2566 0.39592 1.7385 1.1554 2.3097 0.75944 0.57121 4.4142 1.2701 4.4231-0.06819 0.0088-1.3179-0.03963-2.4371-0.21663-3.178-0.17701-0.74092-0.53742-2.1448-1.2638-2.7494-0.45645-0.37986-1.6524-0.598-2.3284-0.40734z" fill="#fff"/>
   <circle cx="34.865" cy="36.296" r="1.196" fill="url(#linearGradient936)"/>
   <path d="m30.432 35.486c-0.13169-0.98465-1.4238-2.6503-2.2406-3.1787-2.063-1.3344-3.4471 0.98338-3.2748 2.911 0.12802 1.4326 0.89495 5.3832 2.6543 4.5505 1.7593-0.83268 3.1993-1.7558 2.8611-4.2828z" fill="#fff"/>
   <circle cx="28.489" cy="36.296" r="1.196" fill="url(#linearGradient938)"/>
  </g>
 </g>
</svg>
