<svg xmlns="http://www.w3.org/2000/svg" width="64" height="64"><defs><linearGradient id="b" x1="32" x2="32" y1="2" y2="62" gradientUnits="userSpaceOnUse"><stop offset="0" stop-color="#3b962d"/><stop offset="1" stop-color="#93d169"/></linearGradient><linearGradient id="f" x1="24" x2="24" y1="1032.4" y2="1018.4" gradientTransform="translate(71.984 -1601.6) scale(1.5789)" gradientUnits="userSpaceOnUse"><stop offset="0" stop-color="#272b2d"/><stop offset="1" stop-color="#3e4447"/></linearGradient><linearGradient id="e" x1="32" x2="32" y1="21.117" y2="63.324" gradientUnits="userSpaceOnUse"><stop offset="0" stop-color="#b0b0b0"/><stop offset="1" stop-color="#dbdbdb"/></linearGradient><linearGradient id="d" x1="117.54" x2="117.54" y1="11.506" y2="53.712" gradientUnits="userSpaceOnUse"><stop offset="0" stop-color="#dcdcdc"/><stop offset="1" stop-color="#ececec"/></linearGradient><filter id="a" width="1.072" height="1.072" x="-.036" y="-.036" color-interpolation-filters="sRGB"><feGaussianBlur stdDeviation="14.344"/></filter><filter id="c" width="1.127" height="1.114" x="-.063" y="-.057" color-interpolation-filters="sRGB"><feGaussianBlur stdDeviation="1.126"/></filter><radialGradient id="g" cx="24" cy="1025.4" r="2" gradientTransform="matrix(1.5789 0 0 1.5787 71.984 -1601.4)" gradientUnits="userSpaceOnUse"><stop offset="0" stop-color="#acacac"/><stop offset="1" stop-color="#cbcbcb"/></radialGradient></defs><circle cx="512" cy="512" r="478.12" filter="url(#a)" opacity=".25" style="paint-order:stroke markers fill" transform="translate(-.125 -.125) scale(.06274)"/><circle cx="32" cy="32" r="30" fill="url(#b)" style="paint-order:stroke markers fill"/><g filter="url(#c)" opacity=".25" transform="translate(-78.689 9.612)"><path d="m108.77 11.506-4.102 2.368 21.316 36.92 4.42 2.918-.318-5.286z" opacity="1"/><path d="M110.986 11.505 89.67 48.425l-.318 5.287 4.42-2.918 7.79-13.496c2.782 1.427 5.94 2.203 9.282 2.203 3.6 0 7.785-.89 10.717-2.537a20.08 20.08 0 0 0 4.267-3.19c3.806-3.702 6.2-9.052 6.2-14.786-1.624-.016-3.342 0-4.782-.016-.002 6.32-1.88 7.821-4.168 10.494-1.183 1.363-2.571 2.52-4.166 3.395-2.16 1.208-5.445 1.877-8.093 1.877-2.466 0-4.794-.607-6.827-1.645l11.096-19.219-4.101-2.369z"/><path d="M114.8 11.081h-1.759V6.344h-6.315v4.737h-1.785c-1.617 0-2.952 1.337-2.952 2.936v7.73h.025c-.025.253.129.533.463.862l5.93 5.231a2.1 2.1 0 0 0 1.464.61v-.026l.025.025a2.01 2.01 0 0 0 1.464-.609l5.93-5.23c.334-.33.462-.635.462-.864h.026v-7.704c-.026-1.624-1.335-2.961-2.978-2.961z"/><path d="M109.89 20.554h-.02a3.15 3.15 0 0 1-3.148-3.137 3.15 3.15 0 0 1 3.147-3.137v-.041l.021.041c1.728.02 3.148 1.406 3.148 3.137s-1.42 3.117-3.148 3.137z"/></g><path fill="url(#d)" d="m108.77 11.506-4.102 2.368 21.316 36.92 4.42 2.918-.318-5.286z" transform="translate(-78.689 9.612)"/><path fill="url(#e)" d="m32.297 21.117-21.316 36.92-.318 5.287 4.42-2.918 7.79-13.496c2.782 1.426 5.94 2.203 9.282 2.203 3.6 0 7.785-.891 10.717-2.537a20.08 20.08 0 0 0 4.267-3.19c3.806-3.703 6.2-9.052 6.2-14.786-1.624-.016-3.342 0-4.782-.016-.002 6.32-1.88 7.821-4.168 10.494-1.183 1.363-2.571 2.52-4.166 3.394-2.16 1.21-5.445 1.877-8.093 1.877-2.466 0-4.794-.607-6.827-1.644L36.4 23.486l-4.101-2.37z"/><path fill="url(#f)" d="M114.8 11.081h-1.759V6.344h-6.315v4.737h-1.785c-1.617 0-2.952 1.337-2.952 2.936v7.73h.025c-.025.253.129.533.463.862l5.93 5.231a2.1 2.1 0 0 0 1.464.61v-.026l.025.025a2.01 2.01 0 0 0 1.464-.609l5.93-5.23c.334-.33.462-.635.462-.864h.026v-7.704c-.026-1.624-1.335-2.961-2.978-2.961z" transform="translate(-78.689 9.612)"/><path fill="url(#g)" d="M109.89 20.554h-.02a3.15 3.15 0 0 1-3.148-3.137 3.15 3.15 0 0 1 3.147-3.137v-.041l.021.041c1.728.02 3.148 1.406 3.148 3.137s-1.42 3.117-3.148 3.137z" transform="translate(-78.689 9.612)"/></svg>