<svg id="App-Store" width="64" height="64" enable-background="new 0 0 1024 1024" image-rendering="optimizeSpeed" version="1.1" viewBox="0 0 64 64" xmlns="http://www.w3.org/2000/svg" xmlns:xlink="http://www.w3.org/1999/xlink">
 <defs>
  <filter id="g" x="-.036" y="-.036" width="1.072" height="1.072" color-interpolation-filters="sRGB">
   <feGaussianBlur stdDeviation="14.16"/>
  </filter>
  <linearGradient id="b" x1="520" x2="520.03" y1="44" y2="985.85" gradientTransform="matrix(.06356 0 0 .06356 -.54237 -.54237)" gradientUnits="userSpaceOnUse">
   <stop stop-color="#353535" offset="0"/>
   <stop stop-color="#6d6d6d" offset="1"/>
  </linearGradient>
  <linearGradient id="a" x1="32" x2="32" y1="16" y2="48" gradientUnits="userSpaceOnUse">
   <stop stop-color="#0088d1" offset="0"/>
   <stop stop-color="#1cdaff" offset="1"/>
  </linearGradient>
  <filter id="c" x="-.06" y="-.06" width="1.12" height="1.12" color-interpolation-filters="sRGB">
   <feGaussianBlur stdDeviation="0.80000442"/>
  </filter>
 </defs>
 <path transform="matrix(.06356 0 0 .06356 -.54237 -.54237)" d="m969.7 392c-1.1-4.35-2.35-9-3.65-13.6-2.5-8.75-5.35-17.6-8.45-26.35-6.45-18.25-14.15-36.05-23.15-53.65-3.8-7.4-7.95-14.95-12.3-22.4h-0.025q-30.601-52.01-76.325-97.75c-92.15-92.15-203.45-138.25-333.8-138.25s-241.6 46.1-333.75 138.25-138.25 203.4-138.25 333.75 46.1 241.65 138.25 333.8c68.05 68.05 146.5 110.95 234.9 128.65 31.95 6.4 64.75 9.55 98.85 9.55 130.35 0 241.65-46.05 333.8-138.2 48.6-48.6 84.4-102.5 107.35-161.8 17-43.95 27-90.8 29.95-140.75 0.6-10.2 0.9-20.65 0.9-31.25 0-41.75-4.7-81.6-14.3-120z" filter="url(#g)" opacity=".25" stroke-width="15.672"/>
 <path d="m61.091 24.373c-0.069916-0.27648-0.14936-0.57204-0.23199-0.86441-0.1589-0.55615-0.34004-1.1186-0.53708-1.6748-0.40996-1.16-0.89937-2.2913-1.4714-3.41-0.24153-0.47034-0.5053-0.95022-0.78178-1.4237h-0.0016q-1.945-3.3057-4.8512-6.2129c-5.857-5.857-12.931-8.7871-21.216-8.7871s-15.356 2.9301-21.213 8.7871-8.7871 12.928-8.7871 21.213 2.9301 15.359 8.7871 21.216c4.3252 4.3252 9.3115 7.0519 14.93 8.1769 2.0307 0.40678 4.1155 0.60699 6.2829 0.60699 8.285 0 15.359-2.9269 21.216-8.7839 3.089-3.089 5.3644-6.5148 6.8231-10.284 1.0805-2.7934 1.7161-5.7712 1.9036-8.946 0.03814-0.64831 0.0572-1.3125 0.0572-1.9862 0-2.6536-0.29873-5.1865-0.9089-7.6271z" fill="url(#b)" stroke-width=".9961"/>
 <path d="m28.706 16.103a3.378 3.2896 0 0 0-2.4772 2.5432l-1.4367 7.0206-6.7508 2.8284a3.378 3.2896 0 0 0-0.31622 5.8902l6.41 3.4992 0.67422 7.127a3.378 3.2896 0 0 0 5.6552 2.116l5.4004-4.8572 7.168 1.5775a3.378 3.2896 0 0 0 3.8112-4.5862l-3.0752-6.5004 3.7572-6.1524a3.378 3.2896 0 0 0-3.298-4.9472l-7.302 0.838-4.847-5.3812a3.378 3.2896 0 0 0-3.3748-1.0163z" filter="url(#c)" opacity=".15" stroke-width="2"/>
 <path d="m28.706 16.103a3.378 3.2896 0 0 0-2.4772 2.5432l-1.4367 7.0206-6.7508 2.8284a3.378 3.2896 0 0 0-0.31622 5.8902l6.41 3.4992 0.67422 7.127a3.378 3.2896 0 0 0 5.6552 2.116l5.4004-4.8572 7.168 1.5775a3.378 3.2896 0 0 0 3.8112-4.5862l-3.0752-6.5004 3.7572-6.1524a3.378 3.2896 0 0 0-3.298-4.9472l-7.302 0.838-4.847-5.3812a3.378 3.2896 0 0 0-3.3748-1.0163z" fill="url(#a)" stroke-width="2"/>
</svg>
