<svg xmlns="http://www.w3.org/2000/svg" width="64" height="64" viewBox="0 0 16.933 16.933"><defs><linearGradient id="c" x1="6.576" x2="6.576" y1="1.58" y2="15.33" gradientUnits="userSpaceOnUse"><stop offset="0" stop-color="#f10166"/><stop offset="1" stop-color="#fc3d4a"/></linearGradient><linearGradient id="b" x1="8.466" x2="8.466" y1="1.674" y2="15.346" gradientTransform="matrix(4.3609 0 0 4.3586 -4.92 -4.886)" gradientUnits="userSpaceOnUse"><stop offset="0" stop-color="#f5c80b"/><stop offset="1" stop-color="#dded36"/></linearGradient><filter id="a" width="1.072" height="1.072" x="-.036" y="-.036" color-interpolation-filters="sRGB"><feGaussianBlur stdDeviation=".238"/></filter></defs><circle cx="8.466" cy="8.466" r="7.937" fill-rule="evenodd" filter="url(#a)" opacity=".25" style="paint-order:fill markers stroke"/><g stroke-width=".751"><path fill="url(#b)" d="M27.4 2.41A30.003 29.987 0 0 0 2.427 27.213c.282-.301 1.37-1.393 2.045-2.08.787-.801 1.234-1.268 2.414-2.453 6.08-6.106 15.824-15.755 19.268-19.059.325-.312 1.051-1.03 1.246-1.21zm13.434.955.088.032a30.003 29.987 0 0 0-.088-.032zm-11.408.598c-.015-.015-.074.004-.158.049-.013.006-.032.021-.045.03-.076.043-.16.095-.254.165-.342.253-2.053 1.74-3.924 3.398-1.87 1.659-3.904 3.488-4.898 4.42a143.654 143.654 0 0 1-3.098 2.817c-.672.58-2.17 1.9-3.33 2.933a317.343 317.343 0 0 1-2.67 2.344c-.632.523-2.782 2.428-3.69 3.27-.327.3-.814.718-1.076.927-.261.21-.9.765-1.414 1.23-.484.439-.958.844-1.388 1.202-.433.362-.815.673-1.123.924A30.003 29.987 0 0 0 2 32.02a30.003 29.987 0 0 0 2.21 11.238c.217-.356.584-.916.898-1.403.237-.37.4-.639.681-1.072l3.309-5.12 2.205-3.417 5.494-8.51A7692.6 7688.6 0 0 1 27.738 6.787c1.027-1.582 1.5-2.343 1.645-2.652.047-.101.057-.15.042-.168v-.004zM45.184 5.12l-.002.004c-.088.156-.195.32-.318.522l-.002.003a8.09 8.09 0 0 0-.412.758 166.13 166.13 0 0 0-1.514 3.25C36.046 24.895 31.554 40.93 30.33 54.662c-.087.981-.157 1.95-.211 2.906a387.43 387.43 0 0 1-.236 3.819l-.016.506a30.003 29.987 0 0 0 2.137.11 30.003 29.987 0 0 0 29.998-29.989A30.003 29.987 0 0 0 45.185 5.121zM6.532 47.822l.258.412a30.016 30 0 0 1-.03-.05 30.003 29.987 0 0 1-.224-.362h-.004zm5.93 6.926a30.003 29.987 0 0 0 .261.24l-.261-.24zm2.298 1.787a30.068 30.053 0 0 0 .22.147 30.003 29.987 0 0 1-.216-.147h-.003zm2.561 1.613a30.003 29.987 0 0 0 .393.227c-.131-.07-.262-.153-.393-.227z" style="paint-order:markers stroke fill" transform="scale(.26458)"/><path fill="url(#c)" d="M8.467 1.58a6.92 6.92 0 0 0-1.047.086c-.678.63-5.198 5.122-5.746 5.71a6.73 6.73 0 0 0-.015.102c.141-.115.36-.291.586-.496.118-.107.264-.234.324-.282s.172-.144.247-.213c.208-.193.701-.63.846-.75.07-.06.346-.302.612-.538.266-.237.61-.54.764-.673.154-.134.473-.424.71-.646.456-.428 1.866-1.678 2.022-1.794.051-.037.099-.063.106-.056.015.015-.073.164-.387.648A1764 1764 0 0 0 4.98 6.567L3.72 8.519l-1.264 1.96c-.15.231-.277.427-.365.571a6.883 6.883 0 0 0 5.885 4.28l.005-.125c.011-.16.036-.555.054-.876.197-3.51 1.392-7.777 3.286-11.738.07-.147.131-.227.172-.301a6.889 6.889 0 0 0-3.026-.71z" transform="matrix(1.1538 0 0 1.1532 -1.302 -1.293)"/><path fill="#d8d342" d="M7.975.567a7.938 7.933 0 0 0-.508.043 7.938 7.933 0 0 1 .508-.043zM.642 7.21l-.002.003a7.938 7.933 0 0 0-.019.116 7.938 7.933 0 0 1 .021-.12z"/></g></svg>