<svg xmlns="http://www.w3.org/2000/svg" width="64" height="64"><defs><filter id="a" width="1.072" height="1.072" x="-.036" y="-.036" color-interpolation-filters="sRGB"><feGaussianBlur stdDeviation="14.344"/></filter><filter id="c" width="1.12" height="1.12" x="-.06" y="-.06" color-interpolation-filters="sRGB"><feGaussianBlur stdDeviation=".975"/></filter><linearGradient id="b" x1="32" x2="32" y1="2" y2="62" gradientUnits="userSpaceOnUse"><stop offset="0" stop-color="#e05f07"/><stop offset="1" stop-color="#f6b649"/></linearGradient></defs><circle cx="512" cy="512" r="478.12" filter="url(#a)" opacity=".25" style="paint-order:stroke markers fill" transform="translate(-.125 -.125) scale(.06274)"/><circle cx="32" cy="32" r="30" fill="url(#b)" style="paint-order:stroke markers fill"/><path d="M31.41 12.5c-1.088.04-1.685.405-2.074 1.19-.25.503-.453 1.34-.453 1.863-.001 1.914-1.935 3.662-4.055 3.662-1.04 0-1.612-.286-3.719-1.863-.959-.718-1.565-.533-3.053.931-1.413 1.392-1.446 2.057-.195 3.717.517.686 1.04 1.603 1.162 2.037.304 1.073-.193 3.039-.992 3.912-.655.716-2.28 1.274-3.697 1.274-1.349 0-1.834.766-1.834 2.89 0 1.655.061 1.88.629 2.256.346.23 1.35.523 2.23.649.88.126 1.893.424 2.252.662.757.502 1.637 2.302 1.645 3.369.006.774-.591 2.143-1.205 2.765-.67.679-1.161 1.912-.985 2.475.226.721 1.756 2.265 2.549 2.57.454.175.785.125 1.225-.187 1.288-.914 3.492-1.908 4.236-1.908 1.121 0 2.983.99 3.39 1.804.193.384.432 1.278.534 1.985.246 1.715.637 2.524 1.29 2.664.298.063.775.168 1.061.234.286.068.93.068 1.43 0 1.305-.175 2.001-1.15 2.22-3.107.201-1.79.368-2.077 1.686-2.92 1.338-.856 2.386-1.023 3.416-.545.854.396 1.197.601 2.598 1.535 1.026.684 1.665.57 2.851-.515 1.784-1.633 1.821-2.341.223-4.206-1.521-1.774-1.54-3.96-.045-5.636.573-.642 1.087-.864 2.783-1.203 2.562-.512 2.98-.931 2.987-3.01.008-2.076-.324-2.415-2.729-2.791-2.288-.359-3.022-.874-3.826-2.686-.669-1.506-.483-2.392.943-4.46.732-1.061 1.096-1.836 1.012-2.163-.188-.728-2.557-2.9-3.164-2.9-.281 0-1.03.404-1.664.894-1.749 1.353-2.792 1.657-4.287 1.256-1.757-.47-2.38-1.211-2.825-3.355-.509-2.462-.837-2.905-2.287-3.07a8.494 8.494 0 0 0-1.263-.067V12.5zm.59 12a7.5 7.5 0 0 1 7.5 7.5 7.5 7.5 0 0 1-7.5 7.5 7.5 7.5 0 0 1-7.5-7.5 7.5 7.5 0 0 1 7.5-7.5z" filter="url(#c)" opacity=".25"/><path fill="#fff" d="M31.41 12.5c-1.088.04-1.685.405-2.074 1.19-.25.503-.453 1.34-.453 1.863-.001 1.914-1.935 3.662-4.055 3.662-1.04 0-1.612-.286-3.719-1.863-.959-.718-1.565-.533-3.053.931-1.413 1.392-1.446 2.057-.195 3.717.517.686 1.04 1.603 1.162 2.037.304 1.073-.193 3.039-.992 3.912-.655.716-2.28 1.274-3.697 1.274-1.349 0-1.834.766-1.834 2.89 0 1.655.061 1.88.629 2.256.346.23 1.35.523 2.23.649.88.126 1.893.424 2.252.662.757.502 1.637 2.302 1.645 3.369.006.774-.591 2.143-1.205 2.765-.67.679-1.161 1.912-.985 2.475.226.721 1.756 2.265 2.549 2.57.454.175.785.125 1.225-.187 1.288-.914 3.492-1.908 4.236-1.908 1.121 0 2.983.99 3.39 1.804.193.384.432 1.278.534 1.985.246 1.715.637 2.524 1.29 2.664.298.063.775.168 1.061.234.286.068.93.068 1.43 0 1.305-.175 2.001-1.15 2.22-3.107.201-1.79.368-2.077 1.686-2.92 1.338-.856 2.386-1.023 3.416-.545.854.396 1.197.601 2.598 1.535 1.026.684 1.665.57 2.851-.515 1.784-1.633 1.821-2.341.223-4.206-1.521-1.774-1.54-3.96-.045-5.636.573-.642 1.087-.864 2.783-1.203 2.562-.512 2.98-.931 2.987-3.01.008-2.076-.324-2.415-2.729-2.791-2.288-.359-3.022-.874-3.826-2.686-.669-1.506-.483-2.392.943-4.46.732-1.061 1.096-1.836 1.012-2.163-.188-.728-2.557-2.9-3.164-2.9-.281 0-1.03.404-1.664.894-1.749 1.353-2.792 1.657-4.287 1.256-1.757-.47-2.38-1.211-2.825-3.355-.509-2.462-.837-2.905-2.287-3.07a8.494 8.494 0 0 0-1.263-.067V12.5zm.59 12a7.5 7.5 0 0 1 7.5 7.5 7.5 7.5 0 0 1-7.5 7.5 7.5 7.5 0 0 1-7.5-7.5 7.5 7.5 0 0 1 7.5-7.5z"/></svg>