<svg width="64" height="64" version="1.1" xmlns="http://www.w3.org/2000/svg" xmlns:xlink="http://www.w3.org/1999/xlink">
 <defs>
  <filter id="c" x="-.036" y="-.036" width="1.072" height="1.072" color-interpolation-filters="sRGB">
   <feGaussianBlur stdDeviation="14.343749"/>
  </filter>
  <linearGradient id="a" x1="32" x2="32" y1="2" y2="62" gradientUnits="userSpaceOnUse">
   <stop stop-color="#e05f07" offset="0"/>
   <stop stop-color="#f6b649" offset="1"/>
  </linearGradient>
  <filter id="b" x="-.060003" y="-.059997" width="1.12" height="1.12" color-interpolation-filters="sRGB">
   <feGaussianBlur stdDeviation="0.97504535"/>
  </filter>
 </defs>
 <circle transform="matrix(.062745 0 0 .062745 -.12549 -.12549)" cx="512" cy="512" r="478.12" filter="url(#c)" opacity=".25" stroke-width="15.938" style="paint-order:stroke markers fill"/>
 <circle cx="32" cy="32" r="30" fill="url(#a)" style="paint-order:stroke markers fill"/>
 <path d="m31.41 12.5c-1.0879 0.0405-1.6845 0.40495-2.0742 1.1895-0.25005 0.5034-0.4529 1.3414-0.45313 1.8633-8.1e-4 1.9145-1.9346 3.6621-4.0547 3.6621-1.0402 0-1.6123-0.28573-3.7188-1.8633-0.95877-0.71805-1.5651-0.53281-3.0527 0.93164-1.4133 1.3916-1.4467 2.0563-0.19531 3.7168 0.51714 0.6864 1.0393 1.603 1.1621 2.0371 0.30388 1.0732-0.19321 3.0388-0.99219 3.9121-0.65487 0.7158-2.2793 1.2734-3.6973 1.2734-1.3484 0-1.834 0.76602-1.834 2.8906 0 1.6544 0.061576 1.8794 0.62891 2.2559 0.34668 0.23025 1.3506 0.52244 2.2305 0.64844 0.87988 0.126 1.8933 0.42406 2.252 0.66211 0.75724 0.50265 1.637 2.3023 1.6445 3.3691 6e-3 0.77445-0.59069 2.1433-1.2051 2.7656-0.66963 0.6783-1.1608 1.9117-0.98438 2.4746 0.22598 0.7212 1.7561 2.2651 2.5488 2.5703 0.45404 0.1749 0.78498 0.1245 1.2246-0.1875 1.2886-0.91425 3.4925-1.9082 4.2363-1.9082 1.1215 0 2.9827 0.99004 3.3906 1.8047 0.19206 0.3837 0.4315 1.2773 0.5332 1.9844 0.24656 1.715 0.63714 2.5247 1.291 2.6641 0.29726 0.063 0.77451 0.16868 1.0605 0.23438 0.28603 0.0675 0.92911 0.0675 1.4297 0 1.3056-0.17535 2.0014-1.1498 2.2207-3.1074 0.20051-1.79 0.36748-2.0771 1.6855-2.9199 1.3384-0.8559 2.3863-1.0228 3.416-0.54492 0.85378 0.3963 1.1972 0.60141 2.5977 1.5352 1.0261 0.6843 1.6654 0.56978 2.8516-0.51562 1.7835-1.6322 1.8207-2.3406 0.22266-4.2051-1.5212-1.7745-1.5405-3.9597-0.044922-5.6367 0.57273-0.64215 1.0868-0.86412 2.7832-1.2031 2.5613-0.5118 2.9788-0.93092 2.9863-3.0098 8e-3 -2.0763-0.32351-2.4144-2.7285-2.791-2.2884-0.35835-3.0221-0.8734-3.8262-2.6855-0.66853-1.5068-0.48335-2.3921 0.94336-4.4609 0.73162-1.0608 1.0959-1.8357 1.0117-2.1621-0.18806-0.7284-2.5568-2.9004-3.1641-2.9004-0.28122 0-1.0302 0.40448-1.6641 0.89453-1.7484 1.3521-2.7922 1.6565-4.2871 1.2559-1.7566-0.47055-2.3806-1.2115-2.8242-3.3555-0.50951-2.4622-0.83763-2.9049-2.2871-3.0703-0.48295-0.0555-0.90103-0.079906-1.2637-0.066406v-0.001953zm0.58984 12a7.5 7.5 0 0 1 7.5 7.5 7.5 7.5 0 0 1-7.5 7.5 7.5 7.5 0 0 1-7.5-7.5 7.5 7.5 0 0 1 7.5-7.5z" filter="url(#b)" opacity=".25"/>
 <path d="m31.41 12.5c-1.0879 0.0405-1.6845 0.40495-2.0742 1.1895-0.25005 0.5034-0.4529 1.3414-0.45313 1.8633-8.1e-4 1.9145-1.9346 3.6621-4.0547 3.6621-1.0402 0-1.6123-0.28573-3.7188-1.8633-0.95877-0.71805-1.5651-0.53281-3.0527 0.93164-1.4133 1.3916-1.4467 2.0563-0.19531 3.7168 0.51714 0.6864 1.0393 1.603 1.1621 2.0371 0.30388 1.0732-0.19321 3.0388-0.99219 3.9121-0.65487 0.7158-2.2793 1.2734-3.6973 1.2734-1.3484 0-1.834 0.76602-1.834 2.8906 0 1.6544 0.061576 1.8794 0.62891 2.2559 0.34668 0.23025 1.3506 0.52244 2.2305 0.64844 0.87988 0.126 1.8933 0.42406 2.252 0.66211 0.75724 0.50265 1.637 2.3023 1.6445 3.3691 6e-3 0.77445-0.59069 2.1433-1.2051 2.7656-0.66963 0.6783-1.1608 1.9117-0.98438 2.4746 0.22598 0.7212 1.7561 2.2651 2.5488 2.5703 0.45404 0.1749 0.78498 0.1245 1.2246-0.1875 1.2886-0.91425 3.4925-1.9082 4.2363-1.9082 1.1215 0 2.9827 0.99004 3.3906 1.8047 0.19206 0.3837 0.4315 1.2773 0.5332 1.9844 0.24656 1.715 0.63714 2.5247 1.291 2.6641 0.29726 0.063 0.77451 0.16868 1.0605 0.23438 0.28603 0.0675 0.92911 0.0675 1.4297 0 1.3056-0.17535 2.0014-1.1498 2.2207-3.1074 0.20051-1.79 0.36748-2.0771 1.6855-2.9199 1.3384-0.8559 2.3863-1.0228 3.416-0.54492 0.85378 0.3963 1.1972 0.60141 2.5977 1.5352 1.0261 0.6843 1.6654 0.56978 2.8516-0.51562 1.7835-1.6322 1.8207-2.3406 0.22266-4.2051-1.5212-1.7745-1.5405-3.9597-0.044922-5.6367 0.57273-0.64215 1.0868-0.86412 2.7832-1.2031 2.5613-0.5118 2.9788-0.93092 2.9863-3.0098 8e-3 -2.0763-0.32351-2.4144-2.7285-2.791-2.2884-0.35835-3.0221-0.8734-3.8262-2.6855-0.66853-1.5068-0.48335-2.3921 0.94336-4.4609 0.73162-1.0608 1.0959-1.8357 1.0117-2.1621-0.18806-0.7284-2.5568-2.9004-3.1641-2.9004-0.28122 0-1.0302 0.40448-1.6641 0.89453-1.7484 1.3521-2.7922 1.6565-4.2871 1.2559-1.7566-0.47055-2.3806-1.2115-2.8242-3.3555-0.50951-2.4622-0.83763-2.9049-2.2871-3.0703-0.48295-0.0555-0.90103-0.079906-1.2637-0.066406v-0.001953zm0.58984 12a7.5 7.5 0 0 1 7.5 7.5 7.5 7.5 0 0 1-7.5 7.5 7.5 7.5 0 0 1-7.5-7.5 7.5 7.5 0 0 1 7.5-7.5z" fill="#fff"/>
</svg>
