<svg xmlns="http://www.w3.org/2000/svg" width="64" height="64"><defs><linearGradient id="b" x1="32.001" x2="32.001" y1="5" y2="59" gradientTransform="translate(-3.557 -3.556) scale(1.1111)" gradientUnits="userSpaceOnUse"><stop offset="0" stop-color="#ffa355"/><stop offset="1" stop-color="#f55"/></linearGradient><linearGradient id="c" x1="13.527" x2="49.767" y1="19.881" y2="19.881" gradientUnits="userSpaceOnUse"><stop offset="0" stop-color="#3f3f3f"/><stop offset="1" stop-color="#6b6b6b"/></linearGradient><linearGradient id="f" x1="12.233" x2="43.296" y1="32.824" y2="32.824" gradientUnits="userSpaceOnUse"><stop offset="0" stop-color="#f5ad3b"/><stop offset="1" stop-color="#fff300"/></linearGradient><filter id="a" width="1.054" height="1.054" x="-.027" y="-.027" color-interpolation-filters="sRGB"><feGaussianBlur stdDeviation=".608"/></filter><filter id="e" width="1.059" height="1.067" x="-.03" y="-.034" color-interpolation-filters="sRGB"><feGaussianBlur stdDeviation=".382"/></filter><filter id="d" width="1.051" height="1.746" x="-.025" y="-.373" color-interpolation-filters="sRGB"><feGaussianBlur stdDeviation=".382"/></filter></defs><circle cx="32.001" cy="32" r="27" filter="url(#a)" opacity=".15" style="paint-order:stroke markers fill" transform="translate(-3.557 -2.396) scale(1.1111)"/><circle cx="31.999" cy="31.999" r="30" fill="url(#b)" style="paint-order:stroke markers fill"/><path fill="#fff" d="M47.955 48.354a1.809 1.809 0 0 0 1.813-1.813V23.764h-36.24v22.779c0 1.003.808 1.812 1.811 1.812h32.616z"/><path fill="url(#c)" d="M47.955 15.998c1.004 0 1.812.808 1.812 1.812v5.954h-36.24V17.81c0-1.004.808-1.812 1.812-1.812z"/><path fill="#fff" d="M15.34 15.998a1.809 1.809 0 0 0-1.813 1.812v.647c0-1.004.81-1.812 1.813-1.812h32.615a1.81 1.81 0 0 1 1.813 1.812v-.647a1.81 1.81 0 0 0-1.813-1.812z" opacity=".1"/><path d="M13.527 46.543v.647a1.81 1.81 0 0 0 1.813 1.812h32.614a1.81 1.81 0 0 0 1.813-1.812v-.647a1.81 1.81 0 0 1-1.813 1.812H15.34a1.81 1.81 0 0 1-1.813-1.812z" filter="url(#d)" opacity=".2"/><circle cx="19.5" cy="39.5" r="1.5" fill-rule="evenodd" opacity=".15"/><path d="M12.233 19.881v24.915c0 2.265 2.219 2.265 2.219 2.265h28.844zm5.177 12.296 11.648 9.06H17.41z" filter="url(#e)" opacity=".2"/><rect width="22" height="3" x="23" y="30" fill-rule="evenodd" opacity=".15" rx="1.5" ry="1.5"/><rect width="22" height="3" x="23" y="38" fill-rule="evenodd" opacity=".15" rx="1.5" ry="1.5"/><circle cx="19.5" cy="31.5" r="1.5" fill-rule="evenodd" opacity=".15"/><path fill="url(#f)" d="M12.233 19.234v24.915c0 2.265 2.219 2.265 2.219 2.265h28.844zM17.41 31.53l11.648 9.06H17.41z"/><circle cx="45.5" cy="20.5" r="1.5" fill-rule="evenodd" opacity=".5"/><circle cx="40.5" cy="20.5" r="1.5" fill-rule="evenodd" opacity=".5"/><circle cx="35.5" cy="20.5" r="1.5" fill-rule="evenodd" opacity=".5"/></svg>