<svg xmlns="http://www.w3.org/2000/svg" width="64" height="64"><defs><filter id="c" width="1.15" height="1.15" x="-.075" y="-.075" color-interpolation-filters="sRGB"><feGaussianBlur stdDeviation="1.348"/></filter><filter id="a" width="1.078" height="1.078" x="-.039" y="-.039" color-interpolation-filters="sRGB"><feGaussianBlur stdDeviation=".972"/></filter><linearGradient id="b" x1="7.937" x2="7.937" y1="15.081" y2="1.852" gradientTransform="translate(-2.286 -2.252) scale(4.0494)" gradientUnits="userSpaceOnUse"><stop offset="0" stop-color="#b81e31"/><stop offset="1" stop-color="#ff5c5c"/></linearGradient></defs><rect width="60" height="60" x="2" y="2" filter="url(#a)" opacity=".35" rx="30" ry="30"/><rect width="60" height="60" x="2" y="2" fill="url(#b)" rx="30" ry="30"/><rect width="64" height="64" fill="none" rx="0" ry="0" style="paint-order:stroke fill markers"/><circle cx="32.02" cy="32.044" r="30.001" fill="none"/><path d="M24.948 13.465c-1.433 0-2.64 2.738.169 2.136 1.095-.358.962-2.136-.169-2.136m16.518 1.798c-.836 0-1.629.969-1.237 1.517.106.147.66.302 1.18.338.715.049.898-.169.898-.899 0-.674-.232-.955-.843-.955M13.711 31.17c-2.324-.716-4.86 2.128-.169 2.078 2.963-.35 3.287.343.73 1.686-1.735.906-2.288 1.271-2.303 2.303-.014 1.012.457 1.334 1.742 1.853 2.837 1.005 4.038 1.385 4.383 4.944 0 1.075-.169 2.922.843 3.54.984.604 1.23 1.032 1.068 1.742-.273 1.25.575 1.609 2.247 1.017 1.875-.667 2.136-.188.675 1.124-.8.71-1.18 1.532-1.18 2.36.022 1.847 5.64 3.14 4.72-.787-.421-1.783-1.32-3.11.625-3.596 1.285-.478 2.486 1.455 3.595 1.798 2.586.793 4.51-.35 6.068-1.692.94-.814 1.93-.695 2.52-.562 2.177.45 10.625 1.186 7.416-4.1-1.32-1.924-1.054-2.304 1.629-2.248 2.205.041 2.387-.041 2.527-.899.085-.512-.126-1.327-.45-1.853-.485-.788-.463-1.012.057-1.293.49-.266.125-1.686-.45-3.04-1.186-3.827 2.59-10.513-1.18-11.734-2.275-.822.752-5.287-2.696-4.221-.998.288-1.699-.225-2.865-1.012m9.43 11.523c-.28.063-.533.26-.843.498-.85.66-.899.715-.169 1.404 1.054 1.005 2.185.744 2.36-.563.141-1.025-.504-1.558-1.348-1.348M32.131 52.619c-.302.063-.372.4-.28.954.084.486.464.9.843.9.408 0 .703.427.788 1.067.084.597.357 1.068.562 1.068.21 0 .478-.47.626-1.068.196-.85.07-1.551-.899-2.247-.78-.556-1.327-.737-1.629-.674m4.263.563c-.28-.036-.563.106-.563.449s.33.618.73.618c.394 0 .66-.183.563-.45-.14-.357-.45-.582-.73-.617m-6.91.674c-.254 0-.634.365-.62.954.03.955.274 1.145.62.45.533-1.068.533-1.404 0-1.404" filter="url(#c)" opacity=".1"/><path fill="#a90a0a" d="M23.15 11.667c-1.433 0-2.64 2.738.169 2.136 1.095-.358.962-2.136-.169-2.136m16.518 1.798c-.836 0-1.629.969-1.237 1.517.106.147.66.302 1.18.338.715.049.898-.169.898-.899 0-.674-.232-.954-.843-.954m-12.304.562c-1.672-.126-3.56 1.341-3.876 3.04-.203 1.068-.041 1.706-.954 1.462-.563-.155-1.854-1.356-2.641-1.462-1.237.184-2.69 1.61-1.798 3.596.885 1.032 1.187 1.783 0 1.797-2.668.703-3.651 1.3-2.752 4.319.176.512.113 1.164-.619 1.916-1.082 1.13-1.16 1.186-2.81.674-2.324-.715-4.859 2.129-.168 2.078 2.962-.35 3.286.344.73 1.687-1.735.906-2.29 1.27-2.304 2.303-.014 1.012.457 1.333 1.742 1.853 2.837 1.005 4.038 1.384 4.383 4.944 0 1.075-.169 2.921.844 3.54.983.604 1.23 1.031 1.067 1.742-.273 1.249.576 1.609 2.248 1.017 1.875-.667 2.135-.189.674 1.124-.8.71-1.18 1.531-1.18 2.36.022 1.846 5.64 3.139 4.72-.787-.421-1.784-1.32-3.11.625-3.596 1.286-.478 2.486 1.455 3.596 1.798 2.585.793 4.508-.35 6.067-1.692.94-.814 1.93-.696 2.52-.563 2.178.45 10.626 1.187 7.416-4.1-1.32-1.924-1.053-2.303 1.629-2.247 2.206.041 2.387-.042 2.528-.9.084-.512-.126-1.326-.45-1.853-.485-.787-.464-1.012.056-1.292.49-.266.126-1.687-.45-3.04-1.186-3.828 2.59-10.513-1.179-11.734-2.276-.822.752-5.287-2.697-4.221-.997.287-1.698-.225-2.865-1.013-1.672-.843-2.184-.877-4.27-.787-1.776.07-2.612-2.276-4.719-.73-1.769 1.854-1.34.94-3.595-.505-.45-.45-.955-.689-1.518-.73m23.532 14.276c-.28.063-.534.26-.843.498-.85.66-.899.716-.169 1.404 1.054 1.005 2.184.744 2.36-.563.14-1.024-.505-1.558-1.348-1.348M30.332 50.821c-.302.063-.372.401-.28.955.084.485.464.899.843.899.408 0 .703.427.787 1.067.085.597.358 1.068.563 1.068.21 0 .478-.47.626-1.068.196-.85.07-1.55-.9-2.247-.78-.555-1.326-.737-1.628-.674m4.263.563c-.28-.036-.563.106-.563.45 0 .343.33.618.73.618.393 0 .66-.184.562-.45-.14-.357-.449-.582-.73-.618m-6.91.674c-.253 0-.633.365-.618.955.028.954.273 1.145.618.449.534-1.068.534-1.404 0-1.404"/><g stroke-width="1.798"><path fill="#f9f9f9" d="M31.998 17.142 19 24.57l13 22.285L44.997 24.57"/><path fill="#e5e5e5" d="M31.998 46.855V32L19 24.57v14.856"/><path fill="#c1c1c1" d="m44.998 24.57-13 7.429v14.856l13-7.428"/></g></svg>