<svg width="64" height="64" version="1.1" viewBox="0 0 16.933 16.933" xmlns="http://www.w3.org/2000/svg">
 <defs>
  <filter id="a" x="-.035983" y="-.035983" width="1.072" height="1.072" color-interpolation-filters="sRGB">
   <feGaussianBlur stdDeviation=".238"/>
  </filter>
  <filter id="c" x="-.059569" y="-.060094" width="1.1191" height="1.1202" color-interpolation-filters="sRGB">
   <feGaussianBlur stdDeviation=".159"/>
  </filter>
  <linearGradient id="b" x1="9.26" x2="9.26" y1="-.262" y2="15.612" gradientUnits="userSpaceOnUse">
   <stop stop-color="#3c3c3c" offset="0"/>
   <stop stop-color="#505050" stop-opacity=".988" offset="1"/>
  </linearGradient>
  <clipPath id="d">
   <circle cx="8.467" cy="288.53" r="6.879" fill="#d86eb0" stroke-opacity=".039" stroke-width=".491" style="paint-order:stroke markers fill"/>
  </clipPath>
  <filter id="e" x="-.013864" y="-.013864" width="1.0277" height="1.0277" color-interpolation-filters="sRGB">
   <feGaussianBlur stdDeviation=".298"/>
  </filter>
  <filter id="f" x="-.029686" y="-.029686" width="1.0594" height="1.0594" color-interpolation-filters="sRGB">
   <feGaussianBlur stdDeviation=".298"/>
  </filter>
 </defs>
 <g transform="translate(-.794 .792)">
  <circle cx="9.26" cy="7.675" r="7.937" filter="url(#a)" opacity=".25" style="paint-order:stroke markers fill"/>
  <circle cx="9.26" cy="7.675" r="7.937" fill="url(#b)" style="paint-order:stroke markers fill"/>
  <circle cx="9.26" cy="7.675" r="4.997" opacity=".15" style="paint-order:stroke markers fill"/>
  <g font-size="11.082" font-weight="400" letter-spacing="0" stroke-width=".24" word-spacing="0">
   <path transform="translate(-.51 -325.24)scale(1.1538)" d="M11.67 285.5h-.82v1.075c-.61-.842-1.342-1.219-2.394-1.219-1.818 0-3.192 1.375-3.192 3.192s1.385 3.158 3.258 3.158c1.03 0 1.673-.332 2.327-1.208v1.064h.82zm-3.192.61c1.34 0 2.371 1.042 2.371 2.394 0 1.385-1.02 2.449-2.327 2.449-1.374 0-2.427-1.075-2.427-2.46a2.38 2.38 0 0 1 2.383-2.383" filter="url(#c)" opacity=".25" aria-label="a"/>
   <path d="M12.955 4.17h-.946v1.24c-.703-.971-1.548-1.406-2.762-1.406-2.097 0-3.683 1.586-3.683 3.683s1.598 3.643 3.76 3.643c1.188 0 1.93-.383 2.684-1.393v1.227h.946zm-3.682.704c1.546 0 2.735 1.202 2.735 2.762 0 1.598-1.177 2.826-2.685 2.826-1.585 0-2.8-1.24-2.8-2.839a2.745 2.745 0 0 1 2.75-2.75z" fill="#fff" aria-label="a"/>
  </g>
  <g transform="translate(-.51 -325.39)scale(1.1538)" clip-path="url(#d)" fill="none" stroke="#fff" stroke-opacity=".937" stroke-width=".103">
   <path d="M1.485 287.74c.72.155 1.391.625 1.983 1.98.674 1.545 1.623 2.23 2.772 2.284 1.48.07 2.673-1.226 3.459-2.385 1.602-2.362 4.519-2.136 5.816-1.251" opacity=".35"/>
   <path d="M1.493 288.13c.894-.35 2.083-.424 2.872.827.722 1.143 1.576 2.867 4.049 2.709 1.478-.095 2.956-.71 3.718-2.15.53-.933 1.26-1.872 2.293-2.104.382-.081.655-.07.976.057" opacity=".35"/>
   <path d="M1.775 290.25c.947-.444 2.745-.953 4.197-.53 1.297.38 2.937 1.847 6.056 1.504.824-.09 1.522-.563 2.183-1.464.478-.652.75-1.02 1.306-1.167" opacity=".35"/>
  </g>
 </g>
 <path transform="scale(.26458)" d="m10.787 10.787a29.934 29.934 0 0 0 0 42.426c0.119 0.119 0.242 0.23 0.362 0.345-11.4-11.775-11.288-30.43 0.345-42.065s30.29-11.743 42.066-0.345c-0.116-0.12-0.227-0.243-0.345-0.362a29.934 29.934 0 0 0-42.426 0z" fill="#ffffff" filter="url(#e)" opacity=".25"/>
 <path transform="scale(.26458)" d="m37.435 61.526c5.772-1.063 11.297-3.831 15.779-8.313s7.25-10.007 8.313-15.779c-1.592 5.434-4.606 10.657-9.02 15.072s-9.639 7.428-15.072 9.02" fill="#ffffff" filter="url(#f)" opacity=".25"/>
</svg>
