<svg width="64" height="64" enable-background="new 0 0 1024 1024" image-rendering="optimizeSpeed" version="1.1" xmlns="http://www.w3.org/2000/svg">
 <defs>
  <linearGradient id="b" x1="520" x2="520" y1="4" y2="1024" gradientTransform="translate(-3.527 -3.596) scale(.06946)" gradientUnits="userSpaceOnUse">
   <stop stop-color="#141414" offset="0"/>
   <stop stop-color="#565656" offset="1"/>
  </linearGradient>
  <linearGradient id="d" x1="98.123" x2="510.56" y1="1517.5" y2="828.58" gradientTransform="matrix(.04955 0 0 .04759 27.933 -18.339)" gradientUnits="userSpaceOnUse">
   <stop stop-color="#7ccbea" offset="0"/>
   <stop stop-color="#00b9ff" offset="1"/>
  </linearGradient>
  <linearGradient id="e" x1="-323.88" x2="75.682" y1="1270.6" y2="1061.4" gradientTransform="matrix(.04955 0 0 .04759 27.933 -18.339)" gradientUnits="userSpaceOnUse">
   <stop stop-color="#00b2ed" offset="0"/>
   <stop stop-color="#009bdb" offset="1"/>
  </linearGradient>
  <linearGradient id="f" x1="73.727" x2="90.762" y1="1076.4" y2="571" gradientTransform="matrix(.04955 0 0 .04759 27.933 -18.339)" gradientUnits="userSpaceOnUse">
   <stop stop-color="#01a8ec" offset="0"/>
   <stop stop-color="#74d8ff" offset="1"/>
  </linearGradient>
  <filter id="a" x="-.036001" y="-.036001" width="1.072" height="1.072" color-interpolation-filters="sRGB">
   <feGaussianBlur stdDeviation="14.344"/>
  </filter>
  <filter id="c" x="-.037667" y="-.034509" width="1.0753" height="1.069" color-interpolation-filters="sRGB">
   <feGaussianBlur stdDeviation=".565"/>
  </filter>
  <filter id="filter26" x="-.013853" y="-.013853" width="1.0277" height="1.0277" color-interpolation-filters="sRGB">
   <feGaussianBlur stdDeviation="0.29776566"/>
  </filter>
  <filter id="filter25" x="-.029663" y="-.029663" width="1.0593" height="1.0593" color-interpolation-filters="sRGB">
   <feGaussianBlur stdDeviation="0.29776566"/>
  </filter>
 </defs>
 <circle transform="translate(-.125 -.125) scale(.06274)" cx="512" cy="512" r="478.12" filter="url(#a)" opacity=".25" style="paint-order:stroke markers fill"/>
 <circle cx="32" cy="32" r="30" fill="url(#b)" style="paint-order:stroke markers fill"/>
 <g fill-rule="evenodd">
  <path transform="scale(.99997)" d="m32.088 12.354-17.945 9.99-.02-.01v.022l-.052.03.052.029L14 41.474l18.002 10.174v-.043L50 41.433l-.123-19.008.067-.036-.067-.037v-.058l-.052.029-17.736-9.969z" filter="url(#c)" opacity=".75"/>
  <g stroke-width=".057">
   <path transform="translate(4.665 4.666) scale(.85424)" d="m31.997 54.95 21.074-11.91-.143-22.405-20.93 11.469z" fill="url(#d)"/>
   <path transform="translate(4.665 4.666) scale(.85424)" d="m32.002 54.997-21.074-11.91.143-22.405 20.93 11.469z" fill="url(#e)"/>
   <path transform="translate(4.665 4.666) scale(.85424)" d="M11.011 20.743 32.102 9l20.904 11.748-21.017 11.515z" fill="url(#f)"/>
  </g>
 </g>
 <path d="m10.787 10.787c-11.752 11.752-11.752 30.674 0 42.426 0.11855 0.11855 0.24184 0.22911 0.36184 0.34527-11.399-11.775-11.288-30.431 0.34527-42.065 11.634-11.634 30.289-11.744 42.065-0.34527-0.11616-0.12-0.22671-0.24329-0.34527-0.36184-11.752-11.752-30.674-11.752-42.426 0z" fill="#ffffff" filter="url(#filter26)" opacity=".15"/>
 <path d="m37.435 61.526c5.7718-1.0635 11.297-3.831 15.779-8.3126s7.2491-10.007 8.3126-15.779c-1.5917 5.4332-4.6056 10.657-9.0198 15.072s-9.6384 7.428-15.072 9.0198z" fill="#ffffff" filter="url(#filter25)" opacity=".2"/>
</svg>
