<svg width="64" height="64" style="isolation:isolate" version="1.1" viewBox="0 0 64 64" xmlns="http://www.w3.org/2000/svg" xmlns:xlink="http://www.w3.org/1999/xlink">
 <defs>
  <linearGradient id="linearGradient216">
   <stop stop-color="#2c5d7e" offset="0"/>
   <stop stop-color="#1e4057" offset="1"/>
  </linearGradient>
  <clipPath id="_clipPath_JaO1dLV3RoIdGyILgnYV8XhL8v0rxnyb">
   <rect width="64" height="64"/>
  </clipPath>
  <clipPath id="clipPath208">
   <path d="m17.002 3.969h29.996c7.176 0 13.002 5.826 13.002 13.002v29.996c0 7.176-5.826 13.002-13.002 13.002h-29.996c-7.176 0-13.002-5.826-13.002-13.002v-29.996c0-7.176 5.826-13.002 13.002-13.002z" fill="#fa5344" style="isolation:isolate"/>
  </clipPath>
  <linearGradient id="linearGradient1043" x1="32.786" x2="33.02" y1="5.061" y2="58.875" gradientTransform="translate(-66.645)" gradientUnits="userSpaceOnUse" xlink:href="#linearGradient216"/>
  <filter id="filter114" color-interpolation-filters="sRGB">
   <feFlood flood-color="rgb(0,0,0)" flood-opacity=".49804" result="flood"/>
   <feComposite in="flood" in2="SourceGraphic" operator="in" result="composite1"/>
   <feGaussianBlur in="composite1" result="blur" stdDeviation="2"/>
   <feOffset dx="0" dy="0" result="offset"/>
   <feComposite in="SourceGraphic" in2="offset" result="composite2"/>
  </filter>
  <filter id="filter930" x="-.03888" y="-.03888" width="1.0778" height="1.0778" color-interpolation-filters="sRGB">
   <feGaussianBlur stdDeviation="0.972"/>
  </filter>
  <linearGradient id="linearGradient899" x1="-68.543" x2="-8.5432" y1="31.58" y2="31.58" gradientTransform="translate(70.543 .41975)" gradientUnits="userSpaceOnUse" xlink:href="#linearGradient216"/>
 </defs>
 <g clip-path="url(#_clipPath_JaO1dLV3RoIdGyILgnYV8XhL8v0rxnyb)">
  <defs>
   <mask id="_mask_ukFAog28Obl1oQTV6xxaqxQLLLXadNYC">
    <path d="m0.625 3.743h62.749v60.254h-62.749z" fill="#ffffff" stroke="#000000" stroke-miterlimit="10"/>
   </mask>
  </defs>
  <circle cx="32" cy="32" r="30" fill="#000000" filter="url(#filter930)" opacity=".15" stroke-linecap="square" stroke-width="2.2881" style="isolation:isolate;paint-order:stroke fill markers"/>
  <circle cx="32" cy="32" r="30" fill="url(#linearGradient899)" stroke-linecap="square" stroke-width="2.2881" style="isolation:isolate;paint-order:stroke fill markers"/>
  <g clip-path="url(#clipPath208)">
   <path d="m-49.643 3.97h29.996c7.176 0 13.002 5.826 13.002 13.002v29.996c0 7.176-5.826 13.002-13.002 13.002h-29.996c-7.176 0-13.002-5.826-13.002-13.002v-29.996c0-7.176 5.826-13.002 13.002-13.002z" fill="url(#linearGradient1043)"/>
  </g>
  <g filter="url(#filter114)" stroke-width=".40752">
   <path class="st2" d="m32.897 36.137v13.018l15.635-7.0671-0.26476-18.128-12.599 7.2465c-2.2821 1.6301-2.7712 3.1379-2.7712 4.931m-0.9373-3.8715c0.61128-0.97806 1.5078-1.8339 2.8119-2.6489l13.143-7.6003-16.214-8.6256-15.695 8.6256 13.143 7.5596c1.3041 0.8558 2.2006 1.7116 2.8119 2.6897m-3.7492-1.0596-12.439-7.1843-0.010423 17.879 15.262 7.2273-1e-6 -12.991c-0.04075-1.7931-0.52978-3.3009-2.8119-4.931" fill="#a5de37"/>
   <path class="st1" d="m50.828 22.485-4.0345 2.3229c0.12226 0.44828 0.20376 0.89655 0.20376 1.3856v11.696c0 1.7116-0.9373 3.3417-2.4044 4.1975l-10.229 5.8276c-0.44828 0.24451-0.97806 0.44828-1.4671 0.52978v4.6458c0.73354-0.12226 1.4263-0.32602 2.0376-0.69279l13.245-7.6207c1.8339-1.0596 2.9749-3.0157 2.9749-5.1756v-15.201c0-0.61128-0.12226-1.3041-0.32602-1.9154m-31.42-0.48903 10.147-5.8683c1.5078-0.8558 3.3417-0.8558 4.8088 0l10.188 5.8683c0.52978 0.28527 0.97806 0.69279 1.3448 1.1818l4.0345-2.3229c-0.48903-0.65204-1.0596-1.1818-1.7524-1.5893l-13.245-7.6207c-1.8339-1.0596-4.116-1.0596-5.9499 0l-13.204 7.6207c-0.69279 0.40752-1.3041 0.9373-1.7931 1.5893l4.0345 2.3229c0.40752-0.44828 0.8558-0.8558 1.3856-1.1818m10.147 25.919-10.147-5.8683c-1.5078-0.8558-2.4044-2.4451-2.4044-4.1567v-11.696c0-0.44828 0.0815-0.89655 0.20376-1.3448l-4.0345-2.3229c-0.20376 0.61128-0.32602 1.2633-0.32602 1.9154v15.201c0 2.1191 1.1411 4.116 2.9749 5.1756l13.163 7.5799c0.61128 0.36677 1.3041 0.57054 2.0376 0.69279v-4.6458c-0.52978-0.0815-1.0188-0.28527-1.4671-0.52978" fill="#c8f178"/>
  </g>
 </g>
</svg>
