<svg xmlns="http://www.w3.org/2000/svg" width="64" height="64"><defs><filter id="c" width="1.199" height="1.236" x="-.1" y="-.118" color-interpolation-filters="sRGB"><feGaussianBlur stdDeviation="1.68"/></filter><filter id="e" width="1.219" height="1.213" x="-.11" y="-.106" color-interpolation-filters="sRGB"><feGaussianBlur stdDeviation=".402"/></filter><filter id="d" width="1.195" height="1.242" x="-.098" y="-.121" color-interpolation-filters="sRGB"><feGaussianBlur stdDeviation=".416"/></filter><filter id="a" width="1.061" height="1.061" x="-.031" y="-.031" color-interpolation-filters="sRGB"><feGaussianBlur stdDeviation=".768"/></filter><linearGradient id="b" x1="7.937" x2="7.937" y1="15.081" y2="1.852" gradientTransform="translate(-2.286 -2.252)scale(4.0494)" gradientUnits="userSpaceOnUse"><stop offset="0" stop-color="#f1efeb"/><stop offset="1" stop-color="#fdfcfc"/></linearGradient></defs><rect width="60" height="60" x="2" y="2" filter="url(#a)" opacity=".15" rx="30" ry="30"/><rect width="60" height="60" x="2" y="2" fill="url(#b)" rx="30" ry="30"/><g stroke-width="1.556"><path d="M17.868 16.353a3.11 3.11 0 0 0-3.111 3.111 3.11 3.11 0 0 0 3.111 3.111 3.11 3.11 0 0 0 3.111-3.11 3.11 3.11 0 0 0-3.111-3.112m14 0a4.667 4.667 0 0 0-4.667 4.667 4.667 4.667 0 0 0 4.667 4.666 4.667 4.667 0 0 0 4.667-4.666 4.667 4.667 0 0 0-4.667-4.667m-14 1.556a1.556 1.556 0 0 1 1.556 1.555 1.556 1.556 0 0 1-1.556 1.556 1.556 1.556 0 0 1-1.556-1.556 1.556 1.556 0 0 1 1.556-1.555m14 0a3.11 3.11 0 0 1 3.111 3.11 3.11 3.11 0 0 1-3.111 3.112 3.11 3.11 0 0 1-3.111-3.111 3.11 3.11 0 0 1 3.111-3.111m5.408 0c.531.933.812 2.037.814 3.11a6.2 6.2 0 0 1-.878 3.173c1.892.256 3.821 1.217 5.49 2.476-3.137 2.86-5.405 6.8-5.924 10.458a7.8 7.8 0 0 1 2.868-.55 7.8 7.8 0 0 1 3.433.808c.156-2.064 1.794-4.319 3.755-6.006.373.751.59 1.467.59 2.087a3.111 3.111 0 1 0 6.222 0c0-1.595-.41-3.185-1.094-4.712a3.104 3.104 0 0 0-.462-6.177c-1.213 0-2.41.225-3.573.602-3.271-3.137-7.565-5.269-11.24-5.269zm-5.408 1.555a1.556 1.556 0 0 0-1.556 1.556 1.556 1.556 0 0 0 1.556 1.555 1.556 1.556 0 0 0 1.556-1.555 1.556 1.556 0 0 0-1.556-1.556m-10.786 3.379a4.67 4.67 0 0 1-3.214 1.288 4.67 4.67 0 0 1-2.984-1.079c.471 5.62 2.893 10.73 6.608 14.094-1.28.637-2.546.985-3.625.985a3.111 3.111 0 1 0 0 6.222c3.45 0 6.992-1.335 9.953-3.682a15 15 0 0 0 4.047.57 3.11 3.11 0 0 0 .677-6.143 19.2 19.2 0 0 0 2.398-8.68 6.2 6.2 0 0 1-3.075.824 6.2 6.2 0 0 1-3.147-.863c-.144 2.582-1.08 4.818-2.394 6.632-2.75-2.126-4.794-5.78-5.244-10.169zM39.646 38.13a6.22 6.22 0 0 0-6.222 6.222 6.22 6.22 0 0 0 6.222 6.222 6.22 6.22 0 0 0 6.222-6.222 6.22 6.22 0 0 0-6.222-6.222m0 1.555a4.667 4.667 0 0 1 4.667 4.667 4.667 4.667 0 0 1-4.667 4.667 4.667 4.667 0 0 1-4.667-4.667 4.667 4.667 0 0 1 4.667-4.667m0 1.556a3.11 3.11 0 0 0-3.111 3.111 3.11 3.11 0 0 0 3.111 3.111 3.11 3.11 0 0 0 3.111-3.111 3.11 3.11 0 0 0-3.111-3.111m0 1.555a1.556 1.556 0 0 1 1.556 1.556 1.556 1.556 0 0 1-1.556 1.556 1.556 1.556 0 0 1-1.556-1.556 1.556 1.556 0 0 1 1.556-1.556" filter="url(#c)" opacity=".1" transform="translate(-.987 1.313)"/><path fill="#97c33d" d="M26.178 26.136c-.4 7.192-6.89 11.752-10.852 11.752a3.111 3.111 0 1 0 0 6.223c8.082 0 16.691-7.267 17.075-17.934a6.2 6.2 0 0 1-3.075.823 6.2 6.2 0 0 1-3.147-.863z"/><path d="M24.731 31.514c-1.338 1.826-3.06 3.21-4.767 4.065 1.532 1.772 3.353 3.216 5.414 4.199a18.6 18.6 0 0 0 4.819-4.943c-2.03-.423-3.927-1.593-5.466-3.321" filter="url(#d)" opacity=".1" transform="translate(-.987 1.313)"/><path fill="#3f96b9" d="M18.54 22.601a4.67 4.67 0 0 1-3.215 1.289 4.67 4.67 0 0 1-2.984-1.079C13.17 32.681 19.991 41 29.325 41a3.111 3.111 0 1 0 0-6.222c-5.258 0-10.064-5.146-10.786-12.177z"/><path fill="#196260" d="M16.312 14.798a3.11 3.11 0 0 0-3.111 3.111 3.11 3.11 0 0 0 3.111 3.111 3.11 3.11 0 0 0 3.111-3.11 3.11 3.11 0 0 0-3.111-3.112m0 1.556a1.556 1.556 0 0 1 1.556 1.555 1.556 1.556 0 0 1-1.556 1.556 1.556 1.556 0 0 1-1.556-1.556 1.556 1.556 0 0 1 1.556-1.555" style="paint-order:normal" transform="translate(-.987 1.313)"/><path fill="#3f96b9" d="M30.312 14.798a4.667 4.667 0 0 0-4.667 4.667 4.667 4.667 0 0 0 4.667 4.666 4.667 4.667 0 0 0 4.667-4.666 4.667 4.667 0 0 0-4.667-4.667m0 1.556a3.11 3.11 0 0 1 3.111 3.11 3.11 3.11 0 0 1-3.111 3.112 3.11 3.11 0 0 1-3.111-3.111 3.11 3.11 0 0 1 3.111-3.111m0 1.555a1.556 1.556 0 0 0-1.556 1.556 1.556 1.556 0 0 0 1.556 1.555 1.556 1.556 0 0 0 1.556-1.555 1.556 1.556 0 0 0-1.556-1.556" style="paint-order:normal" transform="translate(-.987 1.313)"/><path fill="#5d7dbd" d="M34.734 17.666c.531.934.812 2.038.814 3.112a6.2 6.2 0 0 1-.878 3.171c4.962.674 10.211 6.162 10.211 9.273a3.111 3.111 0 1 0 6.223 0c0-7.778-9.334-15.556-16.37-15.556"/><path d="M48.444 23.201c-2.038.674-3.956 1.856-5.633 3.36 1.82 1.8 3.056 3.847 3.056 5.347 0 .121.024.236.037.353 1.769-1.808 4.004-3.196 5.712-3.421-.593-1.999-1.72-3.92-3.172-5.639" filter="url(#e)" opacity=".1" transform="translate(-.987 1.313)"/><path fill="#196260" d="M49.547 22.333c-7.427 0-14.35 7.778-15.313 14.55a7.8 7.8 0 0 1 2.868-.55 7.8 7.8 0 0 1 3.433.809c.297-3.92 5.9-8.586 9.012-8.586a3.111 3.111 0 1 0 0-6.222z"/><path fill="#5d7dbd" d="M37.103 37.888a6.22 6.22 0 0 0-6.222 6.223 6.22 6.22 0 0 0 6.222 6.222 6.22 6.22 0 0 0 6.222-6.222 6.22 6.22 0 0 0-6.222-6.223m0 1.556a4.667 4.667 0 0 1 4.667 4.667 4.667 4.667 0 0 1-4.667 4.666 4.667 4.667 0 0 1-4.667-4.666 4.667 4.667 0 0 1 4.667-4.667m0 1.556a3.11 3.11 0 0 0-3.111 3.11 3.11 3.11 0 0 0 3.111 3.112 3.11 3.11 0 0 0 3.111-3.111A3.11 3.11 0 0 0 37.104 41zm0 1.555a1.556 1.556 0 0 1 1.556 1.556 1.556 1.556 0 0 1-1.556 1.555 1.556 1.556 0 0 1-1.555-1.555 1.556 1.556 0 0 1 1.555-1.556"/></g></svg>