<svg xmlns="http://www.w3.org/2000/svg" width="64" height="64" enable-background="new 0 0 1024 1024" image-rendering="optimizeSpeed"><defs><linearGradient id="b" x1="520" x2="520" y1="4" y2="1024" gradientTransform="translate(-3.527 -3.596) scale(.06946)" gradientUnits="userSpaceOnUse"><stop offset="0" stop-color="#141414"/><stop offset="1" stop-color="#565656"/></linearGradient><linearGradient id="e" x1="12.261" x2="30.444" y1="41.641" y2="33.253" gradientUnits="userSpaceOnUse"><stop offset="0" stop-color="#b06330"/><stop offset="1" stop-color="#e9912d"/></linearGradient><linearGradient id="d" x1="34.004" x2="49.942" y1="52.481" y2="24.676" gradientUnits="userSpaceOnUse"><stop offset="0" stop-color="#c87137"/><stop offset="1" stop-color="#e69d49"/></linearGradient><linearGradient id="f" x1="32.041" x2="32.186" y1="33.383" y2="12.661" gradientUnits="userSpaceOnUse"><stop offset="0" stop-color="#dd8447"/><stop offset="1" stop-color="#f0b572"/></linearGradient><filter id="a" width="1.072" height="1.072" x="-.036" y="-.036" color-interpolation-filters="sRGB"><feGaussianBlur stdDeviation="14.344"/></filter><filter id="c" width="1.075" height="1.069" x="-.038" y="-.034" color-interpolation-filters="sRGB"><feGaussianBlur stdDeviation=".565"/></filter></defs><circle cx="512" cy="512" r="478.12" filter="url(#a)" opacity=".25" style="paint-order:stroke markers fill" transform="translate(-.125 -.125) scale(.06274)"/><circle cx="32" cy="32" r="30" fill="url(#b)" style="paint-order:stroke markers fill"/><g fill-rule="evenodd"><path d="m32.088 12.354-17.945 9.99-.02-.01v.022l-.052.03.052.029L14 41.474l18.002 10.174v-.043L50 41.433l-.123-19.008.067-.036-.067-.037v-.058l-.052.029-17.736-9.969z" filter="url(#c)" opacity=".75" transform="scale(.99997)"/><g stroke-width=".057"><path fill="url(#d)" d="m31.997 54.95 21.074-11.91-.143-22.405-20.93 11.469z" transform="translate(4.665 4.666) scale(.85424)"/><path fill="url(#e)" d="m32.002 54.997-21.074-11.91.143-22.405 20.93 11.469z" transform="translate(4.665 4.666) scale(.85424)"/><path fill="url(#f)" d="M11.011 20.743 32.102 9l20.904 11.748-21.017 11.515z" transform="translate(4.665 4.666) scale(.85424)"/></g></g></svg>