<svg xmlns="http://www.w3.org/2000/svg" xmlns:xlink="http://www.w3.org/1999/xlink" width="64" height="64"><defs><linearGradient id="a"><stop offset="0" style="stop-color:#d98b00;stop-opacity:1"/><stop offset="1" style="stop-color:#ffa510;stop-opacity:1"/></linearGradient><linearGradient id="b" x1="7.937" x2="7.937" y1="15.081" y2="1.852" gradientTransform="scale(3.7796)" gradientUnits="userSpaceOnUse"><stop offset="0" stop-color="#f1efeb" style="stop-color:#f7c56f;stop-opacity:1"/><stop offset="1" stop-color="#fdfcfc" style="stop-color:#fff4e4;stop-opacity:1"/></linearGradient><linearGradient xlink:href="#a" id="c" x1="7" x2="504" y1="316.116" y2="316.116" gradientUnits="userSpaceOnUse"/></defs><rect width="60" height="60" x="2" y="2" fill="url(#b)" rx="30" ry="30" style="display:inline"/><g transform="translate(3.658 -2.204)scale(.88722)"><rect width="35.079" height="15.861" x="16.32" y="30.363" rx="0" ry="15.861" style="fill:#fa9e00;fill-opacity:1;stroke-width:3.3455;stroke-linecap:round;stroke-linejoin:round"/><g transform="translate(4.001 3.978)scale(.10937)"><rect width="23.131" height="4.693" x="24.317" y="52.251" rx="0" ry="4.693" style="fill:#fff;fill-opacity:1;stroke-width:1.47764;stroke-linecap:round;stroke-linejoin:round" transform="translate(-36.587 -36.376)scale(9.14334)"/><path d="M102.5 510.545c-40.375-6.347-74.124-31.725-91.5-68.803l-4-8.537v-41.551c0-43.702.668-53.46 5.14-75.078 3.65-17.65 12.976-44.026 21.542-60.933l2.46-4.858 2.208 2.074c2.574 2.418 9.752 5.143 13.526 5.135 7.152-.015 10.501-2.272 47.704-32.151 21.462-17.237 38.25-31.449 39.458-33.404 2.632-4.259 3.61-12.944 2.006-17.805-.663-2.009-3.869-6.911-7.123-10.893s-5.92-7.555-5.92-7.939c-.002-1.03 15.895-9.511 26.906-14.355 68.634-30.187 147.048-27.944 213.755 6.116C435.538 181.71 484.024 245.29 499.019 318.5c4.163 20.323 4.981 32.84 4.981 76.196v41.208l-4.997 9.798c-15.037 29.487-42.796 52.781-73.003 61.261-18.137 5.092-16.05 5.032-171 4.932-110.77-.071-146.367-.386-152.5-1.35m190.011-50.556c1.919-1.86 3.489-3.968 3.489-4.685 0-2.271 1.464-1.412 2.822 1.655 2.991 6.758 13.578 9.249 20.28 4.771 4.626-3.09 6.895-7.99 6.896-14.894l.002-5.664 16.25-.35c15.377-.33 16.527-.494 21.4-3.051 11.776-6.18 17.085-19.388 12.823-31.899-2.09-6.13-6.247-10.877-12.617-14.406-5.326-2.95-5.46-2.968-24.356-3.322l-19-.357-2.02-3.143-2.019-3.144-19.372-.272c-21.016-.295-24.09.349-24.087 5.045v2.227l-17.085-.296c-19.991-.347-25.094.688-31.83 6.453-12.11 10.366-12.118 29.313-.017 39.671 6.298 5.39 11.766 6.672 28.475 6.672h14.181l.506 6.295c.952 11.865 6.013 17.054 16.03 16.433 4.945-.307 6.254-.836 9.25-3.739zm-89.747-89.163c7.708-4.738 12.9-17.361 11.925-28.992-1.696-20.235-16.374-31.493-29.886-22.924-3.568 2.263-5.31 4.375-7.829 9.491-11.976 24.326 6.306 54.4 25.79 42.425m167.311.618c1.416-.723 4.172-3.082 6.125-5.243 9.633-10.663 9.715-31.93.166-43.087-4.528-5.29-8.084-7.114-13.866-7.114s-9.338 1.824-13.866 7.114c-8.064 9.421-9.652 26.108-3.606 37.886 5.416 10.55 16.107 15.009 25.047 10.444m-162.973-71.73c6.87-4.624 7.272-14.697.803-20.14-2.915-2.453-3.624-2.574-15.082-2.574H180.8l-3.321 3.321c-6.081 6.081-5.27 15.397 1.71 19.653 2.77 1.689 5.044 2.02 13.913 2.022 9.391.003 10.99-.257 14-2.283m168.283.198c3.253-2.559 5.615-6.94 5.615-10.412s-2.362-7.853-5.615-10.412c-2.324-1.828-4.015-2.088-13.57-2.088-7.8 0-11.751.433-13.848 1.517-7.8 4.033-7.927 17.727-.204 21.918 1.938 1.052 5.98 1.497 13.852 1.525 9.794.035 11.431-.208 13.77-2.048" style="fill:url(#c)"/><path d="M291.5 414.102c-11.56-2.958-18.436-11.811-18.478-23.795-.033-9.234.152-9.307 23.628-9.307h19.205l2.179 2.75c3.957 4.994 1.536 16.655-4.898 23.592-5.137 5.538-14.716 8.53-21.636 6.76m-98.75-40.764c.688-.278 1.813-.278 2.5 0 .688.277.125.504-1.25.504s-1.937-.227-1.25-.504m169.063-.021c.721-.289 1.584-.253 1.916.079s-.258.568-1.312.525c-1.165-.048-1.402-.285-.604-.604m-180.889-6.067-2.424-2.75 2.75 2.424c2.57 2.266 3.209 3.076 2.424 3.076-.179 0-1.416-1.237-2.75-2.75m24.576.75c.995-1.1 2.035-2 2.31-2s-.315.9-1.31 2-2.035 2-2.31 2 .315-.9 1.31-2m5.064-7.293c.376-.986.935-1.541 1.243-1.233s0 1.114-.683 1.793c-.988.98-1.102.865-.56-.56M173.328 344.5c.004-3.85.185-5.302.402-3.228.216 2.075.213 5.225-.008 7s-.398.078-.394-3.772m40.992.5c0-3.575.182-5.037.403-3.25.222 1.788.222 4.713 0 6.5-.221 1.788-.403.325-.403-3.25m126.966-.5c.008-2.75.202-3.756.432-2.236s.223 3.77-.014 5-.425-.014-.418-2.764m41.986.5c0-2.475.195-3.487.434-2.25.238 1.238.238 3.263 0 4.5-.239 1.238-.434.225-.434-2.25M180 322.622c0-.207.788-.995 1.75-1.75 1.586-1.243 1.621-1.208.378.378-1.307 1.666-2.128 2.195-2.128 1.372m-.81-22.648c-6.982-4.256-7.792-13.572-1.711-19.653L180.8 277h12.023c11.458 0 12.167.121 15.082 2.574 6.469 5.443 6.067 15.516-.803 20.14-3.01 2.025-4.609 2.286-14 2.282-8.87-.003-11.143-.333-13.912-2.022m168.573.46c-7.723-4.19-7.595-17.884.204-21.917 2.097-1.084 6.048-1.517 13.848-1.517 12.015 0 14.596 1.026 17.705 7.039 2.809 5.431 1.177 11.694-4.135 15.873-2.339 1.84-3.976 2.083-13.77 2.048-7.872-.028-11.914-.473-13.852-1.525m-303.5-44.092c-8.023-2.84-20.59-19.377-25.338-33.342-3.034-8.924-3.725-24.938-1.487-34.472 8.139-34.674 42.756-56.416 78.062-49.029 8.595 1.799 21.257 7.96 28.165 13.705 6.8 5.656 15.859 16.823 17.376 21.42 1.608 4.871.631 13.552-2.003 17.815-3.117 5.043-75.782 63.118-80.675 64.477-5.083 1.412-8.934 1.255-14.1-.574m422.272-19.063c-18.583-30.17-48.76-60.481-78.47-78.82-3.336-2.059-6.065-4.067-6.065-4.462 0-1.316 11.4-6.785 19-9.114 8.859-2.715 24.188-3.171 33-.982 13.282 3.299 27.624 12.108 35.617 21.876 11.053 13.507 16.767 32.596 14.602 48.78-.597 4.462-1.997 10.706-3.11 13.875-2.299 6.538-7.29 15.795-8.785 16.293-.549.183-3.154-3.168-5.79-7.446" style="fill:#be580e"/><path d="M187.436 371.587c-1.685-.733-4.665-3.205-6.623-5.492-10.035-11.724-8.862-36.145 2.183-45.438 9.48-7.977 20.659-4.93 27.55 7.51 2.77 5 2.954 6.02 2.954 16.333 0 9.985-.245 11.461-2.657 16-5.771 10.862-14.466 14.981-23.407 11.087zm167.296-.664c-17.197-9.078-16.785-44.426.616-52.85 5.419-2.622 8.898-2.616 14.356.026 7.768 3.76 13.296 14.676 13.296 26.254 0 20.403-14.367 33.907-28.268 26.57z" style="fill:#5c1a00;stroke:#340f00;stroke-width:2.82529;stroke-dasharray:none;stroke-opacity:1"/></g></g></svg>