<svg width="64" height="64" fill="none" version="1.1" xmlns="http://www.w3.org/2000/svg">
 <rect x="2" y="3" width="60" height="60" rx="30" ry="30" fill="#000000" filter="url(#filter1512)" opacity=".15"/>
 <rect x="2" y="2" width="60" height="60" rx="30" ry="30" fill="url(#b)"/>
 <path transform="matrix(.069124 0 0 .069124 -3.3917 -3.9447)" d="m410.12 383.04c-8.652 7.21-17.303 15.14-24.513 23.792v-114.63l24.513-14.419zm38.931-22.352c7.088-3.221 14.751-5.291 21.96-7.239l0.01-2e-3c0.855-0.231 1.703-0.46 2.543-0.689v-103.82c-8.652 2.163-16.582 4.326-24.513 7.931z" fill="#000000" fill-opacity=".8"/>
 <path d="m20.672 4.2031c-2.2237 0.90258-4.3106 2.0648-6.2285 3.4473v27.391c0 4.0367 2.1413 7.8239 5.6797 9.8672l6.1797 3.5879c1.7442 0.99677 3.7381 1.5449 5.6816 1.5449s3.9374-0.49838 5.6816-1.5449l6.1797-3.5879c3.5383-2.0432 5.6816-5.7807 5.6816-9.8672v-7.127c0.049838-4.0865-2.1444-7.8239-5.6328-9.8672l-6.1797-3.5879c-1.7442-0.9967-3.7361-1.5449-5.6797-1.5449v7.127c1.9436 0 3.9355 0.49838 5.6797 1.5449 3.5383 2.0432 5.6816 5.7807 5.6816 9.8672 0 4.0367-2.1433 7.8239-5.6816 9.8672-1.7442 0.99671-3.7361 1.5449-5.6797 1.5449-1.9436 0-3.9374-0.49838-5.6816-1.5449-3.5383-2.0432-5.6816-5.7806-5.6816-9.8672v-27.25z" fill="#000000" fill-opacity=".8" stroke-width=".069124"/>
 <defs>
  <linearGradient id="b" x1="512" x2="512" y1="100" y2="924" gradientTransform="matrix(.072816 0 0 .072816 -5.2816 -5.2816)" gradientUnits="userSpaceOnUse">
   <stop stop-color="#FAD83B" offset="0"/>
   <stop stop-color="#C8AE35" offset="1"/>
  </linearGradient>
  <filter id="filter1512" x="-.048" y="-.048" width="1.096" height="1.096" color-interpolation-filters="sRGB">
   <feGaussianBlur stdDeviation="1.2"/>
  </filter>
 </defs>
</svg>
