<svg xmlns="http://www.w3.org/2000/svg" width="64" height="64"><defs><linearGradient id="b" x1="7.937" x2="7.937" y1="15.081" y2="1.852" gradientTransform="translate(-2.286 -2.252) scale(4.0494)" gradientUnits="userSpaceOnUse"><stop offset="0" stop-color="#f1efeb"/><stop offset="1" stop-color="#fdfcfc"/></linearGradient><filter id="a" width="1.054" height="1.054" x="-.027" y="-.027" color-interpolation-filters="sRGB"><feGaussianBlur stdDeviation=".675"/></filter></defs><rect width="60" height="60" x="2" y="3" filter="url(#a)" opacity=".15" rx="30" ry="30"/><rect width="60" height="60" x="2" y="2" fill="url(#b)" rx="30" ry="30"/><path fill="#565656" d="M36.377 16c-.13.085-.256.174-.377.271V19h3v-3h-2.623zM40 16v3h1.049L43 17.049v-.27c-.32-.3-.669-.56-1.04-.779H40zm-5 1.377A4.88 4.88 0 0 0 34.326 19H35v-1.623zM34.207 20c-.002.105-.008.21-.004.316.036.927.318 1.835.797 2.645V20h-.793zM36 20v3h1.047L39 21.047V20h-3zm4 0v.049l.049-.049H40zm-4 4v.047l.047-.047H36zm-13 .836c-.744.058-1.505.364-2.195.894-.188.145-.467.537-.805 1.088V27h3v-2.164zm1 .08V27h2.412c-.222-.293-.447-.587-.635-.844-.489-.669-1.107-1.072-1.777-1.24zM20 28v3h3v-3h-3zm4 0v3h3v-3h-3zm-5 .604A93.001 93.001 0 0 0 17.781 31H19v-2.396zm9 .431V31h.54l.552-.596c-.244-.3-.682-.853-1.092-1.369zM17.299 32c-.425.878-.854 1.782-1.299 2.734V35h3v-3H17.3zM20 32v3h3v-3h-3zm4 0v3h.828L27 32.658V32h-3zm-8 4v3h3v-3h-3zm4 0v3h1.117L23 36.97V36h-3zm-5 .89c-.324.709-.64 1.41-.955 2.11H15v-2.11zM13.596 40c-.497 1.11-.888 2.012-1.32 3H15v-3h-1.404zM16 40v3h1.406L19 41.281V40h-3zm4 0v.203l.19-.203H20zm-8 4v3h1.696L15 45.594V44h-3zm4 0v.516L16.48 44H16z"/><path fill="#1A81C4" fill-rule="evenodd" d="M44.844 20.732c-.055-1.411-.668-2.786-1.705-3.823l-7.23 7.23c1.036 1.037 2.411 1.65 3.822 1.706 1.411.055 2.743-.453 3.701-1.412.96-.959 1.467-2.29 1.412-3.701zM30 31.5l5.686 7.822c.9 1.032 1.434 1.064 2.421 0l4.035-4.25c.685-.794 1.038-.782 1.614 0l7.666 10.625c1.132 1.658.894 2.136-1.21 2.125h-37.12L30 31.5z" clip-rule="evenodd"/><path fill="#333" d="m49.887 7.885-42.002 42c.6.808 1.236 1.587 1.912 2.33L52.215 9.797a29.995 29.995 0 0 0-2.328-1.912z"/></svg>