<svg xmlns="http://www.w3.org/2000/svg" width="64" height="64" viewBox="0 0 16.933 16.933"><defs><linearGradient id="b" x1="1.058" x2="15.875" y1="8.459" y2="8.459" gradientTransform="translate(-17.537 -.596)scale(1.0714)" gradientUnits="userSpaceOnUse"><stop offset="0" stop-color="#070707"/><stop offset="1" stop-color="#886a6a"/></linearGradient><linearGradient id="d" x1="2.646" x2="14.287" y1="7.144" y2="8.466" gradientUnits="userSpaceOnUse"><stop offset="0" stop-color="#423636"/><stop offset="1" stop-color="#8c6e6f"/></linearGradient><linearGradient id="f" x1="7.937" x2="7.937" y1="3.969" y2="13.466" gradientUnits="userSpaceOnUse"><stop offset="0" stop-color="#292929"/><stop offset="1" stop-color="#050505"/></linearGradient><linearGradient id="g" x1="6.614" x2="6.614" y1="4.233" y2="13.229" gradientUnits="userSpaceOnUse"><stop offset="0" stop-color="#fc4a3b"/><stop offset="1" stop-color="#5c1b15"/></linearGradient><linearGradient id="i" x1="7.673" x2="9.26" y1="8.466" y2="8.466" gradientUnits="userSpaceOnUse"><stop offset="0" stop-color="#ced0d1"/><stop offset=".454" stop-color="#525657"/><stop offset="1" stop-color="#868d90"/></linearGradient><linearGradient id="j" x1="7.673" x2="9.26" y1="8.466" y2="8.466" gradientUnits="userSpaceOnUse"><stop offset="0" stop-color="#a9abab"/><stop offset="1" stop-color="#292b2c"/></linearGradient><linearGradient id="h" x1="4.762" x2="11.906" y1="11.112" y2="5.292" gradientUnits="userSpaceOnUse"><stop offset="0" stop-color="#d2dccf"/><stop offset="1" stop-color="#a4df82"/></linearGradient><linearGradient id="k" x1="7.622" x2="12.834" y1="8.127" y2="8.127" gradientUnits="userSpaceOnUse"><stop offset="0" stop-color="#a3c40f"/><stop offset="1" stop-color="#caf02e"/></linearGradient><linearGradient id="l" x1="4.243" x2="5.393" y1="8.599" y2="11.353" gradientTransform="matrix(-1 0 0 1 16.934 0)" gradientUnits="userSpaceOnUse"><stop offset="0" stop-color="#da5b29"/><stop offset="1" stop-color="#be1e1d"/></linearGradient><filter id="c" width="1.294" height="1.294" x="-.147" y="-.147" color-interpolation-filters="sRGB"><feGaussianBlur stdDeviation=".745"/></filter><filter id="a" width="1.054" height="1.054" x="-.027" y="-.027" color-interpolation-filters="sRGB"><feGaussianBlur stdDeviation=".675"/></filter><radialGradient id="e" cx="8.466" cy="8.466" r="5.556" gradientUnits="userSpaceOnUse"><stop offset="0" stop-color="#df4236"/><stop offset=".8" stop-color="#5e322d"/><stop offset="1" stop-color="#190d0c"/></radialGradient></defs><rect width="60" height="60" x="2" y="3" filter="url(#a)" opacity=".15" rx="30" ry="30" transform="scale(.26458)"/><rect width="15.875" height="15.875" x="-16.404" y=".529" fill="url(#b)" rx="7.937" ry="7.937" transform="rotate(-90)"/><g fill-rule="evenodd"><circle cx="8.466" cy="8.731" r="6.085" filter="url(#c)" opacity=".5" style="paint-order:stroke fill markers"/><circle cx="8.466" cy="8.466" r="6.085" style="paint-order:stroke fill markers"/><circle cx="8.466" cy="8.466" r="5.821" fill="url(#d)" style="paint-order:stroke fill markers"/><circle cx="8.466" cy="8.466" r="5.556" fill="url(#e)" style="paint-order:stroke fill markers"/><circle cx="8.466" cy="8.466" r="5.027" fill="url(#f)" stroke="url(#g)" stroke-linecap="round" stroke-linejoin="round" stroke-width=".159" style="paint-order:stroke fill markers"/><path fill="url(#h)" d="m8.466 3.969-.019.001a4.5 4.5 0 0 0-3.115 1.286q-.026.01-.046.03c-.02.02-.023.03-.03.046A4.5 4.5 0 0 0 3.97 8.447a.1.1 0 0 0 0 .038 4.5 4.5 0 0 0 1.283 3.108.132.132 0 0 0 .22.054l.561-.561a.132.132 0 1 0-.187-.187l-.454.454A4.23 4.23 0 0 1 4.243 8.6h.652a.132.132 0 1 0 0-.265h-.652a4.23 4.23 0 0 1 1.144-2.76l.46.46a.132.132 0 1 0 .187-.187l-.46-.46a4.23 4.23 0 0 1 2.76-1.144v.652a.132.132 0 1 0 .265 0v-.652a4.23 4.23 0 0 1 2.758 1.146l-.458.458a.132.132 0 1 0 .187.187l.453-.453a4.23 4.23 0 0 1 1.026 1.864l.254-.076a4.5 4.5 0 0 0-1.147-2.047.13.13 0 0 0-.073-.067A4.5 4.5 0 0 0 8.485 3.97z" style="paint-order:stroke fill markers"/><path fill="url(#i)" stroke="url(#j)" stroke-linecap="round" stroke-linejoin="round" stroke-width=".106" d="M8.466 7.673a.794.794 0 0 0-.793.794.794.794 0 0 0 .793.793.794.794 0 0 0 .794-.793.794.794 0 0 0-.793-.794zm0 .264a.53.53 0 0 1 .53.53.53.53 0 0 1-.53.529.53.53 0 0 1-.529-.53.53.53 0 0 1 .53-.529z" style="paint-order:stroke fill markers"/></g><path fill="url(#k)" d="m7.698 8.885-.076-.292 5.197-1.224.015.073z"/><path fill="url(#l)" fill-rule="evenodd" d="M12.039 8.334a.132.132 0 1 0 0 .265h.652a4.2 4.2 0 0 1-.11.818l-.376-.1a.13.13 0 0 0-.161.093.13.13 0 0 0 .093.162l.376.101q-.123.405-.322.776l-.337-.195a.132.132 0 1 0-.132.23l.337.195q-.224.361-.518.674l-.454-.454a.132.132 0 1 0-.187.187l.56.561a.132.132 0 0 0 .22-.054 4.5 4.5 0 0 0 1.126-1.965l.004-.013.003-.013v-.001a4.5 4.5 0 0 0 .15-1.154l-.008-.113z" style="paint-order:stroke fill markers"/><path fill="#202020" d="m7.979 8.509-.357.084.076.292.346-.097z"/><g fill-rule="evenodd"><text xml:space="preserve" x="6.701" y="6.501" fill="#d4c097" stroke-linecap="round" stroke-linejoin="round" stroke-width=".026" font-family="'Noto Sans Thai'" font-size=".511" letter-spacing=".079" style="paint-order:stroke fill markers"><tspan x="6.701" y="6.501" dx="0">SPEED TEST</tspan></text><path fill="#d4c097" stroke="#2e2e2e" stroke-linecap="round" stroke-linejoin="round" stroke-width=".265" d="M6.736 10.788h3.725c.047 0 .098.04.085.084l-.265.902c-.013.045-.037.085-.084.085H6.472c-.047 0-.098-.04-.085-.085l.265-.902c.013-.045.037-.084.084-.084" style="paint-order:stroke fill markers"/><path fill="#292829" d="M6.731 10.842q-.005 0-.01.006a.1.1 0 0 0-.018.039l-.265.903.005.005a.05.05 0 0 0 .028.012h.93l.275-.964h-.94v-.001zm.18.1h.255c.176 0 .255.063.224.181a.26.26 0 0 1-.118.15c.079.031.112.1.086.197-.039.146-.18.237-.365.237h-.287l.206-.766zm.111.114-.053.198h.179c.05-.024.076-.054.087-.094.018-.066-.02-.104-.111-.104zm-.083.31-.06.226h.163q.137.001.164-.104c.02-.073-.018-.122-.101-.122z" style="-inkscape-stroke:none;paint-order:stroke fill markers"/><path fill="#252626" d="M7.567 11.706h.143l.076-.286h.13l.086.286h.171l-.107-.316a.35.35 0 0 0 .204-.227c.038-.141-.043-.223-.212-.223h-.285zm.252-.406.063-.236h.124c.09 0 .13.045.11.121-.019.072-.075.115-.154.115zm.413.406h.151l.115-.192h.293l.01.192h.158l-.06-.766h-.182zm.34-.319.193-.324.02.324zm.66.319h.15l.322-.578.025.578h.148l.428-.766h-.144l-.304.577-.018-.572h-.156l-.323.584.013-.589H9.21z" aria-label="BRAW" style="paint-order:stroke fill markers"/></g></svg>