<svg xmlns="http://www.w3.org/2000/svg" width="64" height="64" viewBox="0 0 16.933 16.933"><defs><linearGradient id="d" x1="3.922" x2="13.011" y1="8.458" y2="8.459" gradientUnits="userSpaceOnUse"><stop offset="0" stop-color="#e4932c"/><stop offset="1" stop-color="#d27b0d"/></linearGradient><linearGradient id="b" x1="520" x2="520.03" y1="44" y2="985.85" gradientTransform="translate(-.143 -.143)scale(.01682)" gradientUnits="userSpaceOnUse"><stop offset="0" stop-color="#353535"/><stop offset="1" stop-color="#6d6d6d"/></linearGradient><filter id="c" width="1.164" height="1.142" x="-.082" y="-.071" color-interpolation-filters="sRGB"><feGaussianBlur stdDeviation=".31"/></filter><filter id="a" width="1.061" height="1.061" x="-.031" y="-.031" color-interpolation-filters="sRGB"><feGaussianBlur stdDeviation=".203"/></filter></defs><path d="M16.163 6.713a7.5 7.5 0 0 0-.593-1.574 8 8 0 0 0-.207-.377q-.515-.874-1.284-1.643Q11.756.794 8.466.794q-3.288 0-5.612 2.325T.529 8.73c0 3.286.775 4.064 2.325 5.613q1.718 1.717 3.95 2.164.804.161 1.662.16 3.289 0 5.613-2.324 1.227-1.225 1.806-2.72a7.8 7.8 0 0 0 .503-2.367 9 9 0 0 0 .015-.526q0-1.051-.24-2.018z" filter="url(#a)" opacity=".15"/><path fill="url(#b)" d="M16.163 6.449a7.5 7.5 0 0 0-.593-1.575 8 8 0 0 0-.207-.376q-.515-.875-1.284-1.644Q11.756.53 8.466.53q-3.288 0-5.612 2.325Q.529 5.178.529 8.467t2.325 5.613q1.718 1.717 3.95 2.163a8.4 8.4 0 0 0 1.662.161q3.289 0 5.613-2.324 1.227-1.226 1.806-2.721a7.8 7.8 0 0 0 .503-2.367 9 9 0 0 0 .015-.525q0-1.053-.24-2.018"/><path d="m5.844 4.337.885.517V4.81a.477.477 0 0 0-.476-.474z"/><path fill="#5e5e5e" d="m6.729 12.063-.885.518h.41a.48.48 0 0 0 .394-.21.5.5 0 0 0 .08-.266z"/><rect width="2.109" height="2.125" x="4.626" y="7.404" fill="#292929" ry=".475"/><rect width="2.109" height="2.125" x="4.626" y="4.334" fill="#292929" ry=".475"/><rect width="2.109" height="2.125" x="4.626" y="1.265" fill="#292929" ry=".475"/><rect width="2.109" height="2.125" x="4.626" y="10.474" fill="#292929" ry=".475"/><rect width="2.109" height="2.125" x="4.626" y="13.543" fill="#292929" ry=".475"/><path d="m3.922 3.211.032 5.248-.032 5.247 1.922-1.125h-.749a.48.48 0 0 1-.394-.21.5.5 0 0 1-.081-.266v-1.158a.48.48 0 0 1 .21-.394.47.47 0 0 1 .265-.081h1.158a.48.48 0 0 1 .395.21.47.47 0 0 1 .08.265v1.116l1.722-1.008 4.56-2.596-4.56-2.597-1.72-1.008V5.97a.48.48 0 0 1-.21.394.47.47 0 0 1-.266.081H5.095a.48.48 0 0 1-.394-.21.47.47 0 0 1-.081-.265V4.81a.477.477 0 0 1 .475-.474h.75Zm1.173 4.193h1.158a.48.48 0 0 1 .395.21.47.47 0 0 1 .08.265v1.159a.48.48 0 0 1-.209.394.47.47 0 0 1-.266.08H5.095a.48.48 0 0 1-.394-.208.47.47 0 0 1-.081-.266V7.879a.48.48 0 0 1 .21-.394.47.47 0 0 1 .265-.08z" filter="url(#c)" opacity=".509"/><path fill="url(#d)" d="m3.922 3.211.032 5.248-.032 5.247 1.922-1.125h-.749a.48.48 0 0 1-.394-.21.5.5 0 0 1-.081-.266v-1.158a.48.48 0 0 1 .21-.394.47.47 0 0 1 .265-.081h1.158a.48.48 0 0 1 .395.21.47.47 0 0 1 .08.265v1.116l1.722-1.008 4.56-2.596-4.56-2.597-1.72-1.008V5.97a.48.48 0 0 1-.21.394.47.47 0 0 1-.266.081H5.095a.48.48 0 0 1-.394-.21.47.47 0 0 1-.081-.265V4.81a.477.477 0 0 1 .475-.474h.75Zm1.173 4.193h1.158a.48.48 0 0 1 .395.21.47.47 0 0 1 .08.265v1.159a.48.48 0 0 1-.209.394.47.47 0 0 1-.266.08H5.095a.48.48 0 0 1-.394-.208.47.47 0 0 1-.081-.266V7.879a.48.48 0 0 1 .21-.394.47.47 0 0 1 .265-.08z"/></svg>