<svg width="64" height="64" xmlns="http://www.w3.org/2000/svg" xmlns:xlink="http://www.w3.org/1999/xlink"><defs><linearGradient id="c" x1="101.81" x2="101.81" y1="-16.578" y2="242.72" gradientTransform="translate(33.875 62.237) scale(4.7812)" gradientUnits="userSpaceOnUse"><stop stop-color="#fbb521" offset="0"/><stop stop-color="#f15f19" offset="1"/></linearGradient><linearGradient id="f" x1="520" x2="520" y1="32.362" y2="1052.4" gradientTransform="translate(5.437)" gradientUnits="userSpaceOnUse" xlink:href="#a"/><linearGradient id="g" x1="520" x2="520" y1="252.36" y2="712.36" gradientTransform="translate(-75.993 -122.99)" gradientUnits="userSpaceOnUse"><stop stop-color="#197cf1" offset="0"/><stop stop-color="#21c9fb" offset="1"/></linearGradient><linearGradient id="e" x1="67.024" x2="102.91" y1="283.91" y2="581.76" gradientTransform="translate(44.641 2.68)" gradientUnits="userSpaceOnUse" xlink:href="#a"/><linearGradient id="a"><stop stop-color="#e8ebec" offset="0"/><stop stop-color="#fdfeff" offset="1"/></linearGradient><filter id="d" x="-.036" y="-.036" width="1.073" height="1.071" color-interpolation-filters="sRGB"><feGaussianBlur stdDeviation="11.624"/></filter><filter id="b" x="-.036" y="-.036" width="1.072" height="1.072" color-interpolation-filters="sRGB"><feGaussianBlur stdDeviation="14.344"/></filter></defs><g transform="matrix(.06274 0 0 .06274 -.125 -1.9)" stroke-width="15.938"><circle cx="512" cy="540.36" r="478.12" color="#000" filter="url(#b)" opacity=".25"/><circle cx="512" cy="540.36" r="478.12" color="#000" fill="url(#c)"/><g transform="translate(0 10)" fill="#141414" filter="url(#d)" opacity=".2" stroke-width="254"><ellipse transform="rotate(-30)" cx="168.58" cy="460.25" rx="183.31" ry="160.19" opacity="1" style="paint-order:stroke markers fill"/><circle cx="512.01" cy="545.85" r="384" opacity="1" style="paint-order:stroke markers fill"/><circle cx="401.32" cy="346.75" r="128" opacity="1" stroke="#f0f0f0" stroke-linecap="square" stroke-width="17.675" style="paint-order:stroke markers fill"/></g><ellipse transform="rotate(-30)" cx="168.58" cy="460.25" rx="183.31" ry="160.19" fill="url(#e)" style="paint-order:stroke markers fill"/><circle cx="512.01" cy="545.85" r="384" fill="url(#f)" style="paint-order:stroke markers fill"/><circle cx="441.32" cy="426.75" r="128" fill="url(#g)" stroke="#f0f0f0" stroke-linecap="square" stroke-width="17.675" style="paint-order:stroke markers fill"/></g></svg>