<svg xmlns="http://www.w3.org/2000/svg" width="64" height="64" enable-background="new 0 0 1024 1024" image-rendering="optimizeSpeed"><defs><linearGradient id="b" x1="520" x2="520.03" y1="44" y2="985.85" gradientTransform="translate(-.542 -.542) scale(.06356)" gradientUnits="userSpaceOnUse"><stop offset="0" stop-color="#353535"/><stop offset="1" stop-color="#6d6d6d"/></linearGradient><linearGradient id="d" x1="29.565" x2="29.728" y1="11.048" y2="53.559" gradientUnits="userSpaceOnUse"><stop offset="0" stop-color="#e7e7e7"/><stop offset="1" stop-color="#fff"/></linearGradient><filter id="a" width="1.072" height="1.072" x="-.036" y="-.036" color-interpolation-filters="sRGB"><feGaussianBlur stdDeviation="14.16"/></filter><filter id="c" width="1.159" height="1.096" x="-.08" y="-.048" color-interpolation-filters="sRGB"><feGaussianBlur stdDeviation=".797"/></filter></defs><path d="M969.7 392c-1.1-4.35-2.35-9-3.65-13.6-2.5-8.75-5.35-17.6-8.45-26.35-6.45-18.25-14.15-36.05-23.15-53.65-3.8-7.4-7.95-14.95-12.3-22.4h-.025q-30.601-52.01-76.325-97.75C753.65 86.1 642.35 40 512 40S270.4 86.1 178.25 178.25 40 381.65 40 512s46.1 241.65 138.25 333.8c68.05 68.05 146.5 110.95 234.9 128.65C445.1 980.85 477.9 984 512 984c130.35 0 241.65-46.05 333.8-138.2 48.6-48.6 84.4-102.5 107.35-161.8 17-43.95 27-90.8 29.95-140.75.6-10.2.9-20.65.9-31.25 0-41.75-4.7-81.6-14.3-120z" filter="url(#a)" opacity=".25" transform="translate(-.542 -.542) scale(.06356)"/><path fill="url(#b)" d="M61.091 24.373a28.41 28.41 0 0 0-2.24-5.95A31 31 0 0 0 58.069 17h-.002q-1.945-3.306-4.851-6.213C47.359 4.93 40.285 2 32 2s-15.356 2.93-21.213 8.787S2 23.715 2 32s2.93 15.36 8.787 21.216c4.325 4.325 9.311 7.052 14.93 8.177C27.747 61.8 29.832 62 32 62c8.285 0 15.359-2.927 21.216-8.784 3.089-3.089 5.364-6.515 6.823-10.284 1.08-2.793 1.716-5.771 1.904-8.946.038-.648.057-1.312.057-1.986 0-2.654-.299-5.187-.91-7.627z"/><path d="M30.675 12.148a1.862 1.862 0 0 0-2.072 1.85v13.37l-5.572-4.503a1.861 1.861 0 1 0-2.339 2.897l7.722 6.242-7.722 6.241a1.861 1.861 0 1 0 2.34 2.894l5.57-4.503v13.367a1.862 1.862 0 0 0 3.027 1.452l11.674-9.36a1.86 1.86 0 0 0 0-2.904l-8.969-7.19 8.969-7.19a1.861 1.861 0 0 0 0-2.908l-11.674-9.357a1.867 1.867 0 0 0-.954-.398zm1.649 5.729 6.84 5.482-6.84 5.479zm0 17.285 6.84 5.482-6.84 5.479z" filter="url(#c)" opacity=".35"/><path fill="url(#d)" d="M30.675 12.148a1.862 1.862 0 0 0-2.072 1.85v13.37l-5.572-4.503a1.861 1.861 0 1 0-2.339 2.897l7.722 6.242-7.722 6.241a1.861 1.861 0 1 0 2.34 2.894l5.57-4.503v13.367a1.862 1.862 0 0 0 3.027 1.452l11.674-9.36a1.86 1.86 0 0 0 0-2.904l-8.969-7.19 8.969-7.19a1.861 1.861 0 0 0 0-2.908l-11.674-9.357a1.867 1.867 0 0 0-.954-.398zm1.649 5.729 6.84 5.482-6.84 5.479zm0 17.285 6.84 5.482-6.84 5.479z"/></svg>