<svg width="64" height="64" version="1.1" xmlns="http://www.w3.org/2000/svg" xmlns:xlink="http://www.w3.org/1999/xlink">
 <defs>
  <linearGradient id="b" x1="408.25" x2="407.94" y1="547.6" y2="498.89" gradientTransform="matrix(1.3276 0 0 1.3276 -510.64 -663.52)" gradientUnits="userSpaceOnUse">
   <stop stop-color="#fff" offset="0"/>
   <stop stop-color="#e6e6e6" offset="1"/>
  </linearGradient>
  <linearGradient id="a" x1="28.285" x2="28.774" y1="13.142" y2="52.167" gradientUnits="userSpaceOnUse">
   <stop stop-color="#ff6c1c" offset="0"/>
   <stop stop-color="#ff2579" offset="1"/>
  </linearGradient>
  <filter id="d" x="-.058883" y="-.061161" width="1.1178" height="1.1223" color-interpolation-filters="sRGB">
   <feGaussianBlur stdDeviation="10.562379"/>
  </filter>
  <filter id="c" x="-.036" y="-.036" width="1.072" height="1.072" color-interpolation-filters="sRGB">
   <feGaussianBlur stdDeviation="0.88972449"/>
  </filter>
  <linearGradient id="linearGradient857" x1="273" x2="273" y1="-210.61" y2="-195.39" gradientUnits="userSpaceOnUse" xlink:href="#a"/>
  <filter id="filter893" x="-.058532" y="-.061544" width="1.1171" height="1.1231" color-interpolation-filters="sRGB">
   <feGaussianBlur stdDeviation="0.3901875"/>
  </filter>
 </defs>
 <rect transform="matrix(1.0115 0 0 1.0115 -389.32 -489.92)" x="386.85" y="486.31" width="59.315" height="59.315" ry="29.657" filter="url(#c)" opacity=".25"/>
 <rect x="1.9826" y="1.9784" width="59.997" height="59.997" ry="29.998" fill="url(#b)" stroke-width="1.0115"/>
 <g transform="matrix(2.2501 0 0 2.2501 -582.29 486.87)" enable-background="new" stroke-width=".44442">
  <path d="m273-210.61-2.119 5.494-5.881 0.316 4.572 3.715-1.516 5.691 1.633-1.059 3.311-2.143 4.943 3.201-1.516-5.691 4.572-3.715-5.881-0.316z" color="#000000" fill="#000000" filter="url(#filter893)" opacity=".25"/>
  <path d="m273-210.61-2.119 5.494-5.881 0.316 4.572 3.715-1.516 5.691 1.633-1.059 3.311-2.143 4.943 3.201-1.516-5.691 4.572-3.715-5.881-0.316z" color="#000000" fill="url(#linearGradient857)"/>
 </g>
</svg>
