<svg xmlns="http://www.w3.org/2000/svg" xmlns:xlink="http://www.w3.org/1999/xlink" width="64" height="64"><defs><linearGradient id="c" x1="408.25" x2="407.94" y1="547.6" y2="498.89" gradientTransform="translate(-510.64 -663.52) scale(1.3276)" gradientUnits="userSpaceOnUse"><stop offset="0" stop-color="#fff"/><stop offset="1" stop-color="#e6e6e6"/></linearGradient><linearGradient id="a" x1="28.285" x2="28.774" y1="13.142" y2="52.167" gradientUnits="userSpaceOnUse"><stop offset="0" stop-color="#ff6c1c"/><stop offset="1" stop-color="#ff2579"/></linearGradient><linearGradient xlink:href="#a" id="e" x1="273" x2="273" y1="-210.61" y2="-195.39" gradientUnits="userSpaceOnUse"/><filter id="b" width="1.072" height="1.072" x="-.036" y="-.036" color-interpolation-filters="sRGB"><feGaussianBlur stdDeviation=".89"/></filter><filter id="d" width="1.117" height="1.123" x="-.059" y="-.062" color-interpolation-filters="sRGB"><feGaussianBlur stdDeviation=".39"/></filter></defs><rect width="59.315" height="59.315" x="386.85" y="486.31" filter="url(#b)" opacity=".25" ry="29.657" transform="translate(-389.32 -489.92) scale(1.0115)"/><rect width="59.997" height="59.997" x="1.983" y="1.978" fill="url(#c)" ry="29.998"/><g stroke-width=".444" color="#000"><path d="m273-210.61-2.119 5.494-5.881.316 4.572 3.715-1.516 5.691 1.633-1.059 3.311-2.143 4.943 3.201-1.516-5.691 4.572-3.715-5.881-.316z" filter="url(#d)" opacity=".25" transform="translate(-582.29 486.87) scale(2.2501)"/><path fill="url(#e)" d="m273-210.61-2.119 5.494-5.881.316 4.572 3.715-1.516 5.691 1.633-1.059 3.311-2.143 4.943 3.201-1.516-5.691 4.572-3.715-5.881-.316z" transform="translate(-582.29 486.87) scale(2.2501)"/></g></svg>