<svg width="64" height="64" version="1.1" xmlns="http://www.w3.org/2000/svg" xmlns:xlink="http://www.w3.org/1999/xlink">
 <defs>
  <linearGradient id="b" x1="399.57" x2="399.57" y1="545.8" y2="517.8" gradientTransform="matrix(2.1429 0 0 2.1429 -826.36 -1107.5)" gradientUnits="userSpaceOnUse">
   <stop stop-color="#3889e9" offset="0"/>
   <stop stop-color="#5ea5fb" offset="1"/>
  </linearGradient>
  <filter id="c" x="-.036" y="-.036" width="1.072" height="1.072" color-interpolation-filters="sRGB">
   <feGaussianBlur stdDeviation="0.41999874"/>
  </filter>
  <linearGradient id="d" x1="408.57" x2="408.57" y1="535.2" y2="512.4" gradientTransform="matrix(1.228 0 0 1.228 -469.71 -611.2)" gradientUnits="userSpaceOnUse">
   <stop stop-color="#2e3436" offset="0"/>
   <stop stop-color="#555753" offset="1"/>
  </linearGradient>
  <linearGradient id="a" x1="32.02" x2="32.02" y1="2.043" y2="62.045" gradientUnits="userSpaceOnUse">
   <stop stop-color="#1064d3" offset="0"/>
   <stop stop-color="#14c6fd" offset="1"/>
  </linearGradient>
  <filter id="f" x="-.06" y="-.06" width="1.12" height="1.12" color-interpolation-filters="sRGB">
   <feGaussianBlur stdDeviation="1.2"/>
  </filter>
  <filter id="e" x="-.06" y="-.06" width="1.12" height="1.12" color-interpolation-filters="sRGB">
   <feGaussianBlur stdDeviation="0.7"/>
  </filter>
 </defs>
 <circle transform="matrix(2.1429 0 0 2.1429 -826.36 -1107.5)" cx="400.57" cy="531.8" r="14" filter="url(#c)" opacity=".25" stroke-width=".73333"/>
 <g stroke-width="1.5715">
  <circle cx="32.02" cy="32.044" r="30.001" fill="url(#a)"/>
  <circle cx="32" cy="32" r="24" filter="url(#f)" opacity=".15" stroke-width="1.5715"/>
  <circle cx="32.02" cy="32.044" r="30.001" fill-opacity="0"/>
  <circle cx="32.02" cy="32.044" r="0" fill="url(#b)"/>
  <circle cx="32" cy="32" r="24" fill="#fff" stroke-width="1.5715"/>
 </g>
 <path d="m18 18v28h12.727v-6.3636h-6.3636v-15.273h6.3636v-6.3636h-6.505zm15.273 0v6.3636h6.3636v15.273h-6.3636v6.3636h12.727v-28h-12.727z" filter="url(#e)" opacity=".25"/>
 <path d="m18 18v28h12.727v-6.3636h-6.3636v-15.273h6.3636v-6.3636h-6.505zm15.273 0v6.3636h6.3636v15.273h-6.3636v6.3636h12.727v-28h-12.727z" fill="url(#d)"/>
</svg>
