<svg width="64" height="64" xmlns="http://www.w3.org/2000/svg"><defs><linearGradient id="b" x1="-29.473" x2="-29.676" y1="63.186" y2="1.085" gradientTransform="matrix(1.5 0 0 1.5 -644.87 -753.7)" gradientUnits="userSpaceOnUse"><stop stop-color="#1f2322" offset="0"/><stop stop-color="#5b6462" offset="1"/></linearGradient><linearGradient id="d" x1="22.676" x2="23.373" y1="47.124" y2="5.518" gradientUnits="userSpaceOnUse"><stop stop-color="#ff9913" offset="0"/><stop stop-color="#faee18" offset="1"/></linearGradient><linearGradient id="e" x1="24.677" x2="24.989" y1="45.614" y2="25.619" gradientUnits="userSpaceOnUse"><stop stop-color="#fade17" offset="0"/><stop stop-color="#fade17" stop-opacity="0" offset="1"/></linearGradient><filter id="a" x="-.036" y="-.036" width="1.072" height="1.072" color-interpolation-filters="sRGB"><feGaussianBlur stdDeviation=".6"/></filter><filter id="c" x="-.062" y="-.058" width="1.125" height="1.115" color-interpolation-filters="sRGB"><feGaussianBlur stdDeviation=".974"/></filter></defs><rect transform="matrix(-1.5 0 0 1.5 -580.84 -753.7)" x="-428.57" y="503.8" width="40" height="40" rx="20" filter="url(#a)" opacity=".25"/><rect transform="scale(-1 1)" x="-62.015" y="2" width="60" height="60" rx="30" fill="url(#b)"/><g transform="translate(87.12 -.597) scale(1.3043)"><path d="m21.779 6.494.002.006c4.339 7.07.479 8.239-.387 13.711A6 6 0 0 1 24.999 19a6 6 0 0 1 6 6 6 6 0 0 1-6 6 6 6 0 0 1-6-6 6 6 0 0 1 .936-3.205c-.56-.8-1.306-1.436-2.936-1.795 4 7-4.77 6.218-3.938 12.313-1.078-.297-2.066-2.305-1.25-4.781-2.816 3.477-1.814 6.471.188 9.471-2-2-5.27-1.994-6.27-4.807-.566 3.28.668 6.391 2.988 8.988A22.907 22.907 0 0 0 23.998 47c7.589 0 14.317-3.677 18.506-9.344a8.926 8.926 0 0 0 .541-2.711c-.93 1.379-5.05 4.051-6.893 4.051 4.848-4 5.852-10 1.531-15.75.32 3.75-1.699 5.755-3.469 7.03 2.77-5.281 2.77-11.297-2.656-16.594.434 1.297.766 2.313.469 3.5.301-1.453-4.03-8.185-10.25-10.689zM25 22a3 3 0 0 0-3 3 3 3 0 0 0 3 3 3 3 0 0 0 3-3 3 3 0 0 0-3-3z" filter="url(#c)" opacity=".25" transform="translate(-66.262 .992)"/><path d="m20.779 5.494.002.006c4.339 7.07.479 8.239-.387 13.711A6 6 0 0 1 23.999 18a6 6 0 0 1 6 6 6 6 0 0 1-6 6 6 6 0 0 1-6-6 6 6 0 0 1 .936-3.205c-.56-.8-1.306-1.436-2.936-1.795 4 7-4.77 6.218-3.938 12.313-1.078-.297-2.066-2.305-1.25-4.781-2.816 3.477-1.813 6.471.188 9.471-2-2-5.27-1.994-6.27-4.807-.627 3.632.958 7.06 3.779 9.805 4.087 3.727 9.523 6 15.49 6 3.16 0 6.171-.638 8.912-1.791 4.745-2.342 8.96-6.503 9.135-11.264-.93 1.379-5.05 4.051-6.893 4.051 4.848-4 5.852-10 1.531-15.75.32 3.75-1.699 5.755-3.469 7.03 2.77-5.281 2.77-11.297-2.656-16.594.434 1.297.766 2.313.469 3.5.301-1.453-4.03-8.185-10.25-10.689z" fill="url(#d)" transform="translate(-66.262 .992)"/><path transform="translate(-66.262 .992)" d="M29.01 27.998c-2 1-3 3-2 5-1.054-.791-1.312-1.943-1.279-3.258a6 6 0 0 1-1.727.26 6 6 0 0 1-4.03-1.563c-2.086 2.167-3.971 4.483-3.971 7.563 0 5 3.387 9 8.188 9h.189c5.742-.195 9.102-6.703 4.438-12.188-.801-.82-.813-2.814.191-4.814z" fill="url(#e)"/><circle cx="-42.262" cy="24.992" r="3" fill="#fff" opacity=".5"/></g></svg>