<svg width="64" height="64" version="1.1" xmlns="http://www.w3.org/2000/svg">
 <defs>
  <filter id="a" x="-.036001" y="-.036001" width="1.072" height="1.072" color-interpolation-filters="sRGB">
   <feGaussianBlur stdDeviation="14.06"/>
  </filter>
  <filter id="c" x="-.0625" y="-.057692" width="1.125" height="1.1154" color-interpolation-filters="sRGB">
   <feGaussianBlur stdDeviation=".625"/>
  </filter>
  <filter id="e" x="-.057467" y="-.062661" width="1.1149" height="1.1253" color-interpolation-filters="sRGB">
   <feGaussianBlur stdDeviation=".431"/>
  </filter>
  <linearGradient id="b" x1="99.036" x2="99.036" y1="-.505" y2="199.84" gradientTransform="matrix(.3 0 0 .3 2 2.002)" gradientUnits="userSpaceOnUse">
   <stop stop-color="#ffc731" offset="0"/>
   <stop stop-color="#ffc831" offset=".5"/>
   <stop stop-color="#efff2e" offset="1"/>
  </linearGradient>
  <linearGradient id="d" x2="0" y1="33" y2="7" gradientTransform="translate(45 13.279)" gradientUnits="userSpaceOnUse">
   <stop stop-color="#fb9614" offset="0"/>
   <stop stop-color="#fe3838" offset="1"/>
  </linearGradient>
  <filter id="filter26" x="-.013853" y="-.013853" width="1.0277" height="1.0277" color-interpolation-filters="sRGB">
   <feGaussianBlur stdDeviation="0.29776566"/>
  </filter>
  <filter id="filter25" x="-.029663" y="-.029663" width="1.0593" height="1.0593" color-interpolation-filters="sRGB">
   <feGaussianBlur stdDeviation="0.29776566"/>
  </filter>
 </defs>
 <circle transform="translate(-.742 -2.62) scale(.06401)" cx="511.5" cy="540.86" r="468.66" filter="url(#a)" opacity=".25"/>
 <circle cx="32" cy="32.002" r="30" fill="url(#b)"/>
 <g stroke-width=".571">
  <path transform="matrix(1.75 0 0 1.75 -24 -26.238)" d="M28 20.279c-.5 0-2.25 2-2.5 2h-1.25c-.5 0-2.25 1.75-2.25 2.25v1.5c0 .25-1.989 2-2 2.5s3.5 12.25 4 12.75 6 5 7.5 5h1c1.5 0 7-4.5 7.5-5s4.01-12.25 4-12.75c-.011-.497-2-2.25-2-2.5v-1.5c0-.5-1.75-2.25-2.25-2.25H38.5c-.25 0-2-2-2.5-2h-8z" filter="url(#c)" opacity=".15"/>
  <path transform="matrix(1.75 0 0 1.75 -24 -26.238)" d="M28 20.279c-.5 0-2.25 2-2.5 2h-1.25c-.5 0-2.25 1.75-2.25 2.25v1.5c0 .25-1.989 2-2 2.5s3.5 12.25 4 12.75 6 5 7.5 5h1c1.5 0 7-4.5 7.5-5s4.01-12.25 4-12.75c-.011-.497-2-2.25-2-2.5v-1.5c0-.5-1.75-2.25-2.25-2.25H38.5c-.25 0-2-2-2.5-2h-8z" fill="url(#d)"/>
  <path transform="matrix(1.75 0 0 1.75 -24 -26.238)" d="M32 23.771c-.498 0-.994.171-1.5.508-1.5 1-3.5-.5-4-.5s-3.5 3.643-3.5 5c0 1 3.75 3.3 3.75 4 0 .5-.75.74-.75 1.801 0 .699 1 1.949 2 1.949s3.502-1.963 3.5-2.449v-.301c0-.6-2.25-1.356-2.25-2.5 0-1 .75-1.37.75-2.5 0-.972-2-1.25-3.5-1.5-.5 0 1.5-1.645 4.25.133.696.45-.75 2.229-.5 3.867.375.35 1.063.525 1.75.525.688 0 1.375-.175 1.75-.525.25-1.638-1.196-3.417-.5-3.867 2.75-1.778 4.75-.133 4.25-.133-1.5.25-3.5.528-3.5 1.5 0 1.13.75 1.5.75 2.5 0 1.144-2.25 1.9-2.25 2.5v.301c-.002.486 2.5 2.449 3.5 2.449s2-1.25 2-1.949c0-1.06-.75-1.301-.75-1.801 0-.7 3.75-3 3.75-4 0-1.357-3-5-3.5-5s-2.5 1.5-4 .5c-.506-.337-1-.508-1.5-.508zm0 11.908c-1 0-3.25 1.55-3.25 1.85s2.25 2.75 3.25 2.75 3.25-2.45 3.25-2.75-2.25-1.85-3.25-1.85z" filter="url(#e)" opacity=".25"/>
  <path d="M32 15.361c-.871 0-1.74.3-2.625.89-2.625 1.75-6.125-.876-7-.876s-6.125 6.375-6.125 8.75c0 1.75 6.563 5.775 6.563 7 0 .875-1.313 1.295-1.313 3.152 0 1.223 1.75 3.41 3.5 3.41s6.128-3.434 6.125-4.285v-.527c0-1.05-3.938-2.373-3.938-4.375 0-1.75 1.313-2.397 1.313-4.375 0-1.7-3.5-2.187-6.125-2.625-.875 0 2.625-2.878 7.438.233 1.218.787-1.313 3.9-.875 6.767.656.613 1.86.919 3.062.919 1.204 0 2.406-.306 3.063-.919.437-2.866-2.094-5.98-.876-6.767C39 18.622 42.5 21.5 41.626 21.5c-2.625.438-6.125.924-6.125 2.625 0 1.978 1.313 2.625 1.313 4.375 0 2.002-3.938 3.325-3.938 4.375v.527c-.004.85 4.375 4.286 6.125 4.286s3.5-2.188 3.5-3.411c0-1.855-1.313-2.277-1.313-3.152 0-1.225 6.563-5.25 6.563-7 0-2.374-5.25-8.75-6.125-8.75s-4.375 2.625-7 .875c-.885-.59-1.75-.889-2.625-.889zm0 20.84c-1.75 0-5.688 2.712-5.688 3.237S30.25 44.25 32 44.25s5.688-4.287 5.688-4.812S33.75 36.2 32 36.2z" fill="#f9f9f9"/>
 </g>
 <path d="m10.787 10.787c-11.752 11.752-11.752 30.674 0 42.426 0.11855 0.11855 0.24184 0.22911 0.36184 0.34527-11.399-11.775-11.288-30.431 0.34527-42.065 11.634-11.634 30.289-11.744 42.065-0.34527-0.11616-0.12-0.22671-0.24329-0.34527-0.36184-11.752-11.752-30.674-11.752-42.426 0z" fill="#ffffff" filter="url(#filter26)" opacity=".5"/>
 <path d="m37.435 61.526c5.7718-1.0635 11.297-3.831 15.779-8.3126s7.2491-10.007 8.3126-15.779c-1.5917 5.4332-4.6056 10.657-9.0198 15.072s-9.6384 7.428-15.072 9.0198z" fill="#ffffff" filter="url(#filter25)" opacity=".5"/>
</svg>
