<svg width="64" height="64" viewBox="0 0 16.933 16.933" xmlns="http://www.w3.org/2000/svg"><defs><linearGradient id="b" x1="520.32" x2="520.32" y1="1.823" y2="1023.9" gradientUnits="userSpaceOnUse"><stop stop-color="#46a926" offset="0"/><stop stop-color="#ffda64" offset="1"/></linearGradient><linearGradient id="c" x1="500.28" x2="500.28" y1="-18.217" y2="1023.9" gradientUnits="userSpaceOnUse"><stop stop-color="#a6d74f" offset="0"/><stop stop-color="#46a926" offset="1"/></linearGradient><linearGradient id="d" x1="500.28" x2="500.28" y1="-18.217" y2="1023.9" gradientUnits="userSpaceOnUse"><stop stop-color="#e1415c" offset="0"/><stop stop-color="#e141a9" offset="1"/></linearGradient><filter id="a" x="-.036" y="-.036" width="1.072" height="1.072" color-interpolation-filters="sRGB"><feGaussianBlur stdDeviation="14.143"/></filter><filter id="e" x="-.059" y="-.061" width="1.118" height="1.122" color-interpolation-filters="sRGB"><feGaussianBlur stdDeviation=".945"/></filter></defs><path transform="matrix(.01684 0 0 .01684 -.15 -.143)" d="M983.25 511.35c0-7.95-.2-15.85-.5-23.55q-8-180.15-137.55-309.85C753.15 85.95 642 39.9 511.8 39.9c-130.15 0-241.35 46.05-333.35 138.05-92.05 92-138.1 203.2-138.1 333.4 0 130.15 46.05 241.35 138.1 333.35C264.6 931 367.8 976.85 487.6 982.3c8 .3 16 .5 24.2.5 130.2 0 241.35-46.1 333.4-138.1 92-92 138.05-203.2 138.05-333.35z" filter="url(#a)" opacity=".5"/><path d="M983.25 511.35c0-7.95-.2-15.85-.5-23.55q-8-180.15-137.55-309.85C753.15 85.95 642 39.9 511.8 39.9c-130.15 0-241.35 46.05-333.35 138.05-92.05 92-138.1 203.2-138.1 333.4 0 130.15 46.05 241.35 138.1 333.35C264.6 931 367.8 976.85 487.6 982.3c8 .3 16 .5 24.2.5 130.2 0 241.35-46.1 333.4-138.1 92-92 138.05-203.2 138.05-333.35z" fill="url(#d)" transform="matrix(.01684 0 0 .01684 -.15 -.143)" stroke-width="15.683"/><g transform="translate(3.268 .489) scale(.24107)" filter="url(#e)" opacity=".15"><g transform="translate(2.791 12.923) scale(.71829)"><rect x=".524" y="14.445" width="16.695" height="12.328" ry="2.636"/><rect x="19.651" y="14.445" width="16.695" height="12.328" ry="2.636"/><rect x=".305" y="29.384" width="16.695" height="12.328" ry="2.636"/><rect x="19.432" y="29.384" width="16.695" height="12.328" ry="2.636"/></g><path d="M22.644 14.434a18.658 18.658 0 0 0-12.471 4.846h6.038a15.27 15.27 0 0 1 6.436-1.459 15.27 15.27 0 0 1 15.284 15.253v.018a15.27 15.27 0 0 1-15.266 15.27 15.27 15.27 0 0 1-6.472-1.46H10.15a18.658 18.658 0 0 0 12.516 4.847 18.658 18.658 0 0 0 18.653-18.657v-.021a18.658 18.658 0 0 0-18.674-18.637z"/></g><g fill="#f9f9f9"><g transform="matrix(.17316 0 0 .17316 3.941 3.604)"><rect x=".524" y="14.445" width="16.695" height="12.328" ry="2.636"/><rect x="19.651" y="14.445" width="16.695" height="12.328" ry="2.636"/><rect x=".305" y="29.384" width="16.695" height="12.328" ry="2.636"/><rect x="19.432" y="29.384" width="16.695" height="12.328" ry="2.636"/></g><path d="M8.727 3.969a4.498 4.498 0 0 0-3.006 1.168h1.455a3.681 3.681 0 0 1 1.552-.352 3.681 3.681 0 0 1 3.684 3.677v.004a3.681 3.681 0 0 1-3.68 3.682 3.681 3.681 0 0 1-1.56-.352H5.715a4.498 4.498 0 0 0 3.017 1.168 4.498 4.498 0 0 0 4.497-4.497V8.46A4.498 4.498 0 0 0 8.727 3.97z"/></g></svg>