<svg width="64" height="64" enable-background="new 0 0 1024 1024" image-rendering="optimizeSpeed" version="1.1" xmlns="http://www.w3.org/2000/svg" xmlns:xlink="http://www.w3.org/1999/xlink">
 <defs>
  <linearGradient id="c" x1="520" x2="520" y1="4" y2="1024" gradientTransform="matrix(.0637 0 0 .0637 -.61209 -.61129)" gradientUnits="userSpaceOnUse">
   <stop stop-color="#d7d7d7" offset="0"/>
   <stop stop-color="#fff" offset="1"/>
  </linearGradient>
  <filter id="b" x="-.036001" y="-.036001" width="1.072" height="1.072" color-interpolation-filters="sRGB">
   <feGaussianBlur stdDeviation="14.075"/>
  </filter>
  <linearGradient id="linearGradient8" x1="1233.6" x2="1186.3" y1="170.47" y2="-93.536" gradientTransform="matrix(.062688 .011307 -.011249 .062364 -41.418 -5.5803)" gradientUnits="userSpaceOnUse">
   <stop stop-color="#e35e5e" offset="0"/>
   <stop stop-color="#fa9381" offset="1"/>
  </linearGradient>
  <filter id="filter26" x="-.013853" y="-.013853" width="1.0277" height="1.0277" color-interpolation-filters="sRGB">
   <feGaussianBlur stdDeviation="0.29776566"/>
  </filter>
  <filter id="filter25" x="-.029663" y="-.029663" width="1.0593" height="1.0593" color-interpolation-filters="sRGB">
   <feGaussianBlur stdDeviation="0.29776566"/>
  </filter>
 </defs>
 <circle transform="matrix(.063948 0 0 .063617 -.74 -.54425)" cx="512" cy="514" r="469.16" filter="url(#b)" opacity=".25" stroke-width="15.679" style="paint-order:stroke markers fill"/>
 <ellipse cx="32.002" cy="32.002" rx="30.003" ry="30.001" fill="url(#c)" stroke-width=".99616" style="paint-order:stroke markers fill"/>
 <path d="m45.974 31.039 2.5539-2.9563-0.0073-1.8749-14.621 0.02628 0.0073 1.8749 12.58-0.02328c-1.5815 1.7924-2.918 3.4964-4.0284 5.1306-1.3531 2.1732-2.2713 3.8249-2.7731 4.9191a25.51 25.51 0 0 0-1.709 4.9875c-0.42654 2.3273-0.68197 4.1335-0.76334 5.4192l2.1981-0.0045c0.12879-2.6226 0.53834-5.0367 1.2286-7.2259 0.46568-1.4421 1.2785-3.389 2.4383-5.8395 0.93549-1.7207 1.9059-3.1985 2.8961-4.4343zm-15.699 1.0884c-0.0037-1.0596-0.18151-1.9968-0.55118-2.7936-0.36955-0.7815-0.86102-1.4581-1.4912-1.9952-0.64671-0.51998-1.3983-0.91751-2.2549-1.1763-0.8566-0.25881-1.7813-0.39625-2.7754-0.39427-1.2222 0.0021-2.2846 0.19561-3.2086 0.59691-0.92402 0.4013-1.6883 0.95742-2.2964 1.6707-0.60808 0.71332-1.0408 1.5478-1.3343 2.5373s-0.42839 2.05-0.38876 3.2143l2.0412-4e-3c-0.02023-0.85101 0.04644-1.6507 0.23534-2.3975 0.17164-0.74705 0.46616-1.4074 0.88185-1.9988a4.443 4.443 0 0 1 1.6005-1.3917c0.66217-0.33132 1.4635-0.50667 2.3882-0.50769a6.573 6.573 0 0 1 1.9552 0.29109 4.95 4.95 0 0 1 1.6267 0.90016c0.47255 0.39803 0.84068 0.88398 1.1046 1.4569 0.28136 0.57216 0.42307 1.2143 0.42559 1.9611 0.0034 0.88547-0.15045 1.6675-0.46223 2.3276-0.32806 0.66006-0.79746 1.3032-1.4053 1.9301a15.184 15.184 0 0 1-2.1227 1.758l-4.6979 3.2735a14.236 14.236 0 0 0-2.0516 1.8968 8.667 8.667 0 0 0-1.4399 2.3287c-0.36304 0.86922-0.56801 1.8593-0.58136 2.9707l14.97-0.02773-0.0073-1.8749-12.632 0.0235c0.11985-0.7478 0.4494-1.4422 0.96979-2.0858 0.52112-0.62613 1.112-1.2175 1.7907-1.7574l6.1775-4.2312a11.729 11.729 0 0 0 1.8075-1.7919c0.53864-0.64313 0.95531-1.3565 1.2659-2.138 0.3106-0.78152 0.4657-1.6336 0.46202-2.571z" fill="#333333"/>
 <path d="m31.98 2a30.003 30.001 0 0 0-26.996 17h54.031a30.003 30.001 0 0 0-27.035-17z" fill="url(#linearGradient8)"/>
 <path d="m39.339 7.7459 2.4875-0.00531-0.0022-0.57602-5.6354 0.012448 0.0032 0.5762 2.4712-0.00527 0.02656 6.5096 0.67566-0.0021zm-4.2025 1.5784 0.68156-9.541e-4a2.432 2.432 0 0 0-0.34211-0.98676 2.562 2.562 0 0 0-0.66238-0.71247 2.761 2.761 0 0 0-0.87621-0.44187c-0.32704-0.10122-0.65408-0.14752-0.99181-0.14699-0.56368 0.0014247-1.0504 0.10354-1.4736 0.30182a3.195 3.195 0 0 0-0.57807 0.36487 2.912 2.912 0 0 0-0.4695 0.45413c-0.27693 0.34231-0.48427 0.73717-0.62226 1.1805-0.13799 0.44329-0.20566 0.90773-0.20293 1.3984 0.0017 0.48541 0.07339 0.9553 0.21431 1.4024 0.1417 0.4432 0.35236 0.82695 0.63197 1.1624 0.1404 0.17549 0.29592 0.32428 0.47456 0.45803 0.17864 0.13375 0.37075 0.24965 0.57972 0.35139 0.42457 0.20063 0.91342 0.30129 1.4761 0.29969 0.27871-3.22e-4 0.65887-0.06516 1.1353-0.19969 0.34308-0.13379 0.64224-0.32147 0.89311-0.56691a2.87 2.87 0 0 0 0.61285-0.89337c0.15989-0.35279 0.26034-0.74709 0.30583-1.1851l-0.68058 0.0012c-0.03097 0.31564-0.10455 0.61423-0.22107 0.88657-0.12271 0.27831-0.27696 0.51825-0.4642 0.72766a2.226 2.226 0 0 1-0.68899 0.48062c-0.26693 0.12348-0.56774 0.18271-0.89448 0.18426a2.813 2.813 0 0 1-0.6596-0.0682 2.136 2.136 0 0 1-0.56376-0.19589 2.516 2.516 0 0 1-0.83511-0.70783 3.054 3.054 0 0 1-0.4806-1.0022 4.278 4.278 0 0 1-0.0094-2.2788 3.04 3.04 0 0 1 0.47274-0.99355 2.44 2.44 0 0 1 0.36801-0.40579c0.1398-0.11243 0.29497-0.21998 0.46037-0.3114 0.1713-0.090328 0.35827-0.15538 0.56242-0.19793 0.19818-0.048741 0.41774-0.070134 0.65898-0.071243a2.44 2.44 0 0 1 0.74024 0.11059c0.2365 0.079375 0.45072 0.19124 0.65008 0.33391 0.19936 0.14267 0.36595 0.32504 0.50042 0.53808 0.13545 0.21322 0.23842 0.45907 0.29802 0.73045zm-6.4709 0.01542a3.524 3.524 0 0 0-0.63219-1.1777 3.183 3.183 0 0 0-1.0493-0.81459c-0.42432-0.19652-0.91236-0.29601-1.4708-0.29565-0.55661 0.00172-1.0445 0.10463-1.4667 0.3031a3.198 3.198 0 0 0-0.57789 0.36389 2.912 2.912 0 0 0-0.47049 0.45395c-0.27693 0.34231-0.48445 0.73815-0.62146 1.1816-0.13701 0.44347-0.20566 0.90773-0.20392 1.3982 0.0017 0.48541 0.0745 0.95451 0.21529 1.4026 0.1417 0.4432 0.35156 0.82579 0.63215 1.1615 0.14022 0.17647 0.29574 0.32526 0.47456 0.45803 0.17667 0.13339 0.37075 0.24965 0.57972 0.35139 0.42457 0.20063 0.91243 0.30111 1.4698 0.30056 0.55759-0.0015 1.0455-0.10445 1.4686-0.30783 0.41708-0.1984 0.76463-0.4717 1.0416-0.81401 0.27781-0.33605 0.48529-0.72071 0.6223-1.1642 0.13792-0.44839 0.20551-0.91793 0.20384-1.4033a4.624 4.624 0 0 0-0.21522-1.3975zm-1.4734-1.1382c0.13414 0.12144 0.25786 0.2552 0.3716 0.40439 0.21525 0.29308 0.37788 0.62319 0.48064 0.99104 0.10276 0.36785 0.15887 0.75147 0.16094 1.1414 1e-3 0.38461-0.05082 0.7635-0.15156 1.1374a3.04 3.04 0 0 1-0.4726 1.0037c-0.2182 0.2942-0.49157 0.52937-0.82827 0.71112-0.33696 0.17763-0.73832 0.2691-1.2104 0.2702a2.799 2.799 0 0 1-0.65451-0.06827 2.006 2.006 0 0 1-0.56376-0.19589 2.515 2.515 0 0 1-0.83413-0.70765c-0.22035-0.293-0.37777-0.62928-0.4806-1.0022-0.10283-0.37295-0.15887-0.75147-0.16087-1.1363-0.0011-0.38971 0.05068-0.7737 0.15033-1.1417 0.09965-0.36801 0.25473-0.70033 0.47373-0.99337 0.10611-0.15019 0.22934-0.28298 0.36819-0.40678 0.13882-0.11261 0.29497-0.21998 0.46019-0.31042a2 2 0 0 1 0.56162-0.1991c0.198-0.047757 0.41774-0.070134 0.6537-0.070187 0.47208-0.00108 0.87447 0.088653 1.2124 0.26307 0.16724 0.09096 0.32351 0.19718 0.4634 0.30952z" fill="#ffffff" stroke-width="15.679"/>
 <path d="m10.787 10.787c-11.752 11.752-11.752 30.674 0 42.426 0.11855 0.11855 0.24184 0.22911 0.36184 0.34527-11.399-11.775-11.288-30.431 0.34527-42.065 11.634-11.634 30.289-11.744 42.065-0.34527-0.11616-0.12-0.22671-0.24329-0.34527-0.36184-11.752-11.752-30.674-11.752-42.426 0z" fill="#ffffff" filter="url(#filter26)" opacity=".35"/>
 <path d="m37.435 61.526c5.7718-1.0635 11.297-3.831 15.779-8.3126s7.2491-10.007 8.3126-15.779c-1.5917 5.4332-4.6056 10.657-9.0198 15.072s-9.6384 7.428-15.072 9.0198z" fill="#ffffff" filter="url(#filter25)"/>
</svg>
