<svg xmlns="http://www.w3.org/2000/svg" xmlns:xlink="http://www.w3.org/1999/xlink" width="64" height="64" enable-background="new 0 0 1024 1024" image-rendering="optimizeSpeed"><defs><linearGradient id="a"><stop offset="0" stop-color="#e35e5e"/><stop offset="1" stop-color="#fa9381"/></linearGradient><linearGradient xlink:href="#a" id="d" x1="280" x2="280" y1="4" y2="1024" gradientTransform="translate(5.702 -.235)" gradientUnits="userSpaceOnUse"/><linearGradient xlink:href="#a" id="e" x1="422" x2="884.67" y1="166.12" y2="166.12" gradientTransform="translate(.403 1.182)" gradientUnits="userSpaceOnUse"/><linearGradient id="c" x1="520" x2="520" y1="4" y2="1024" gradientTransform="matrix(1 0 0 1.0052 2.008 -3.066)" gradientUnits="userSpaceOnUse"><stop offset="0" stop-color="#d7d7d7"/><stop offset="1" stop-color="#fff"/></linearGradient><filter id="b" width="1.072" height="1.072" x="-.036" y="-.036" color-interpolation-filters="sRGB"><feGaussianBlur stdDeviation="14.075"/></filter></defs><g stroke-width="15.679"><g transform="matrix(.0637 0 0 .06337 -.74 -.417)"><circle cx="512" cy="514" r="469.16" filter="url(#b)" opacity=".25" style="paint-order:stroke markers fill" transform="translate(0 -2.008) scale(1.0039)"/><ellipse cx="514.01" cy="511.58" fill="url(#c)" rx="471" ry="473.43" style="paint-order:stroke markers fill"/><path fill="url(#d)" d="M429.7 44.904c-27.952 5.568-56.235 13.948-84.628 25.03-43.831 17.146-83.195 38.923-118.31 65.607-61.969 46.973-109.88 109.05-143.45 185.85-7.553 17.091-14.058 34.237-19.461 51.383l413.19-76.909z"/><path fill="url(#e)" d="M779.88 121.74c-24.148-16.264-50.556-30.709-79.004-43.169a540.399 540.399 0 0 0-52.927-19.903c-74.594-23.431-149.63-27.566-225-12.46-.165.056-.386.056-.551.111l47.331 250.96.441-.083 414.9-77.24v.027c-28.945-37.82-64.174-70.789-105.19-98.245z"/></g><path fill="#333" d="m45.034 28.463 1.952-3.384-.36-1.84-14.355 2.777.36 1.84 12.351-2.39c-1.216 2.058-2.208 3.983-2.991 5.797-.92 2.389-1.511 4.184-1.798 5.353a25.51 25.51 0 0 0-.74 5.22c.019 2.366.108 4.188.27 5.466l2.158-.418c-.367-2.6-.419-5.048-.153-7.328.186-1.504.618-3.569 1.296-6.194.595-1.866 1.27-3.5 2.01-4.9zM29.82 32.486c-.203-1.04-.554-1.927-1.067-2.64-.51-.698-1.12-1.27-1.84-1.679-.733-.389-1.546-.638-2.436-.731s-1.824-.054-2.8.135c-1.2.232-2.207.622-3.039 1.19s-1.478 1.258-1.941 2.073c-.463.815-.731 1.716-.833 2.743s-.035 2.094.223 3.23l2.004-.388c-.18-.832-.265-1.63-.22-2.399.028-.766.193-1.47.49-2.129a4.443 4.443 0 0 1 1.31-1.668c.588-.45 1.342-.773 2.25-.948a6.573 6.573 0 0 1 1.975-.082 4.95 4.95 0 0 1 1.767.578c.539.302.992.71 1.359 1.223.384.509.644 1.113.787 1.846.17.869.166 1.666-.016 2.373-.198.71-.538 1.43-1.017 2.16a15.184 15.184 0 0 1-1.754 2.126l-3.998 4.099a14.236 14.236 0 0 0-1.658 2.249 8.667 8.667 0 0 0-.976 2.558c-.193.922-.208 1.933-.012 3.027l14.697-2.844-.36-1.84-12.402 2.4c-.023-.757.17-1.501.56-2.231.394-.713.863-1.405 1.428-2.063l5.271-5.318a11.729 11.729 0 0 0 1.438-2.1c.408-.733.683-1.512.841-2.338s.15-1.692-.03-2.612z"/><path fill="#fff" d="m34.335 6.843 2.445-.458-.107-.566-5.539 1.038.108.566 2.429-.455 1.211 6.396.664-.125zM30.49 9.16l.67-.125a2.432 2.432 0 0 0-.516-.908 2.562 2.562 0 0 0-.781-.58 2.761 2.761 0 0 0-.942-.275c-.34-.04-.67-.026-1.002.036-.554.104-1.014.293-1.394.565a3.195 3.195 0 0 0-.502.464 2.912 2.912 0 0 0-.379.532c-.21.387-.342.813-.397 1.274s-.037.93.055 1.412c.09.477.246.926.466 1.34.22.41.497.749.833 1.028.17.147.35.265.55.364s.41.178.634.24c.454.12.953.13 1.506.026.274-.051.636-.184 1.08-.403.313-.194.573-.433.775-.72a2.87 2.87 0 0 0 .44-.99c.093-.376.12-.782.085-1.221l-.669.125c.027.316.009.623-.056.912-.07.296-.178.56-.324.8a2.226 2.226 0 0 1-.59.598c-.24.17-.525.283-.846.344a2.813 2.813 0 0 1-.661.053 2.136 2.136 0 0 1-.59-.09 2.516 2.516 0 0 1-.95-.544 3.054 3.054 0 0 1-.655-.898 4.278 4.278 0 0 1-.424-2.239 3.04 3.04 0 0 1 .284-1.063 2.44 2.44 0 0 1 .288-.466c.117-.136.25-.27.396-.39.152-.12.324-.218.517-.297.186-.084.398-.145.635-.19a2.44 2.44 0 0 1 .748-.026c.247.035.478.106.7.21s.419.253.59.438c.172.185.318.408.426.664zm-6.36 1.193a3.524 3.524 0 0 0-.836-1.043 3.183 3.183 0 0 0-1.18-.61c-.453-.116-.951-.125-1.5-.023-.547.103-1.008.293-1.387.565a3.198 3.198 0 0 0-.502.463 2.912 2.912 0 0 0-.38.532c-.21.387-.342.814-.396 1.275s-.037.93.054 1.412c.09.477.247.925.467 1.34.22.41.496.748.833 1.027.17.148.35.266.55.364.198.099.41.178.634.24.454.12.952.13 1.5.028.548-.103 1.009-.293 1.388-.57.374-.271.666-.603.876-.99.212-.381.346-.797.4-1.258.054-.466.035-.94-.055-1.417a4.624 4.624 0 0 0-.466-1.335zm-1.656-.851c.154.095.3.204.439.33.265.249.485.544.653.887s.293.71.366 1.093c.071.378.089.76.058 1.146a3.04 3.04 0 0 1-.282 1.073c-.161.329-.387.61-.685.85-.299.236-.677.399-1.141.486a2.799 2.799 0 0 1-.656.052 2.006 2.006 0 0 1-.59-.09 2.515 2.515 0 0 1-.949-.544c-.27-.248-.486-.55-.655-.898s-.293-.71-.365-1.088c-.072-.383-.091-.77-.06-1.15s.123-.735.285-1.063c.077-.167.174-.32.288-.467.116-.136.25-.27.396-.389a2 2 0 0 1 .516-.298c.186-.083.398-.145.63-.188.464-.087.876-.072 1.24.038.181.059.354.135.512.22z"/></g></svg>