<svg xmlns="http://www.w3.org/2000/svg" width="64" height="64"><defs><linearGradient id="b" x1="32" x2="32" y1="4.493" y2="62" gradientUnits="userSpaceOnUse"><stop offset="0" stop-color="#00a192"/><stop offset="1" stop-color="#00b27a"/></linearGradient><linearGradient id="d" x1="32" x2="32" y1="13" y2="51" gradientUnits="userSpaceOnUse"><stop offset="0" stop-color="#fff"/><stop offset="1" stop-color="#e4e4e4"/></linearGradient><filter id="a" width="1.072" height="1.072" x="-.036" y="-.036" color-interpolation-filters="sRGB"><feGaussianBlur stdDeviation="14.344"/></filter><filter id="c" width="1.12" height="1.12" x="-.06" y="-.06" color-interpolation-filters="sRGB"><feGaussianBlur stdDeviation=".95"/></filter></defs><circle cx="512" cy="512" r="478.12" filter="url(#a)" opacity=".25" style="paint-order:stroke markers fill" transform="translate(-.125 -.125) scale(.06274)"/><circle cx="32" cy="32" r="30" fill="url(#b)" style="paint-order:stroke markers fill"/><path d="m42.11 16.203-.794 2.12a.384.384 0 0 0 .118.414l.935.716c.114.087.31.092.43.006l1.842-1.315a.327.327 0 0 1 .409.035l.771.771a.328.328 0 0 1 .035.41L44.54 21.2a.384.384 0 0 0 .008.43l.716.935c.088.114.276.17.414.118l2.118-.794c.14-.052.312.01.386.139l.545.944a.325.325 0 0 1-.073.404l-1.748 1.439a.384.384 0 0 0-.104.417l.449 1.087a.39.39 0 0 0 .37.222l2.253-.22c.148-.014.3.09.337.234l.282 1.054a.324.324 0 0 1-.174.37l-2.062.939a.383.383 0 0 0-.21.376l.154 1.166a.388.388 0 0 0 .3.309l2.234.372a.328.328 0 0 1 .264.312v1.09c0 .152-.118.29-.264.314l-2.23.371a.382.382 0 0 0-.3.31l-.153 1.166a.39.39 0 0 0 .21.377l2.058.937a.33.33 0 0 1 .175.37l-.282 1.054a.325.325 0 0 1-.338.234l-2.251-.218a.383.383 0 0 0-.37.221l-.451 1.087a.387.387 0 0 0 .105.418l1.747 1.439a.327.327 0 0 1 .073.403l-.545.945a.327.327 0 0 1-.387.139l-2.12-.794a.384.384 0 0 0-.414.118l-.716.934a.389.389 0 0 0-.006.431l1.315 1.842a.327.327 0 0 1-.035.408l-.771.772a.326.326 0 0 1-.409.034l-1.84-1.314a.384.384 0 0 0-.431.007l-.934.717a.388.388 0 0 0-.119.413l.794 2.119a.327.327 0 0 1-.139.385l-.944.545a.325.325 0 0 1-.404-.072l-1.439-1.748a.384.384 0 0 0-.417-.105l-1.087.45a.39.39 0 0 0-.221.369l.219 2.254a.327.327 0 0 1-.234.337l-1.054.282a.324.324 0 0 1-.37-.175l-.938-2.062a.383.383 0 0 0-.377-.21l-1.166.155a.388.388 0 0 0-.309.3l-.372 2.233a.328.328 0 0 1-.312.265h-1.09a.324.324 0 0 1-.313-.265l-.372-2.23a.382.382 0 0 0-.31-.3l-1.166-.152a.39.39 0 0 0-.377.21l-.937 2.057a.33.33 0 0 1-.37.175l-1.054-.282a.325.325 0 0 1-.234-.337l.218-2.251a.383.383 0 0 0-.221-.37l-1.087-.452a.387.387 0 0 0-.418.105l-1.439 1.748a.327.327 0 0 1-.403.073l-.945-.546a.327.327 0 0 1-.139-.386l.794-2.121a.384.384 0 0 0-.118-.414l-.934-.715a.389.389 0 0 0-.431-.006l-1.842 1.315a.327.327 0 0 1-.408-.035l-.772-.772a.326.326 0 0 1-.034-.408l1.314-1.84a.384.384 0 0 0-.007-.432l-.717-.934a.388.388 0 0 0-.413-.118l-2.119.794a.327.327 0 0 1-.385-.14l-.545-.943a.325.325 0 0 1 .072-.404l1.748-1.439a.384.384 0 0 0 .105-.417l-.45-1.087a.39.39 0 0 0-.369-.222l-2.254.22a.327.327 0 0 1-.337-.235l-.282-1.053a.324.324 0 0 1 .175-.37l2.062-.939a.383.383 0 0 0 .209-.377l-.154-1.165a.388.388 0 0 0-.3-.31l-2.233-.371a.328.328 0 0 1-.265-.313v-1.09c0-.152.118-.29.265-.313l2.23-.372a.382.382 0 0 0 .3-.309l.152-1.167a.39.39 0 0 0-.21-.376l-2.057-.937a.33.33 0 0 1-.175-.37l.282-1.054a.325.325 0 0 1 .337-.234l2.251.218a.383.383 0 0 0 .37-.222l.451-1.087a.387.387 0 0 0-.104-.417l-1.748-1.439a.327.327 0 0 1-.073-.404l.546-.944a.327.327 0 0 1 .386-.139l2.121.794a.384.384 0 0 0 .414-.118l.715-.935a.389.389 0 0 0 .006-.43l-1.315-1.842a.327.327 0 0 1 .035-.409l.772-.771a.326.326 0 0 1 .408-.035l1.84 1.315a.385.385 0 0 0 .431-.008l.935-.716a.388.388 0 0 0 .118-.414l-.794-2.118a.327.327 0 0 1 .14-.385l.943-.546a.325.325 0 0 1 .404.073l1.439 1.748a.384.384 0 0 0 .417.104l1.087-.449a.39.39 0 0 0 .222-.37l-.22-2.253a.327.327 0 0 1 .235-.337l1.053-.282c.147-.04.31.04.37.175l.939 2.061c.061.136.23.23.376.21l1.166-.154a.388.388 0 0 0 .31-.3l.37-2.234a.328.328 0 0 1 .314-.264h1.09c.152 0 .29.118.313.264l.372 2.23a.38.38 0 0 0 .309.3l1.167.153a.39.39 0 0 0 .376-.21l.937-2.058a.33.33 0 0 1 .37-.175l1.054.282c.147.04.249.19.234.338l-.218 2.251a.383.383 0 0 0 .222.37l1.087.451c.133.055.323.01.417-.105l1.439-1.747a.327.327 0 0 1 .404-.073l.944.545c.132.077.19.248.139.387zm-3.614 4.519a12.982 12.982 0 0 0-9.715-1.347c-.611.155-.252.07-.252.07-.852.29-1.192 1.169-.762 1.951 0 0-.247-.451.02.035l3.82 6.97c.577 1.052 2.016 1.884 3.216 1.86l8.469-.176c.524-.011 0 0 0 0 .869-.019 1.434-.75 1.244-1.569a12.986 12.986 0 0 0-6.039-7.794zm-.213 22.67a12.985 12.985 0 0 0 6.157-7.634c.182-.605.07-.253.07-.253.19-.88-.388-1.622-1.28-1.658 0 0 .515.021-.04-.001l-7.941-.315c-1.198-.048-2.653.757-3.25 1.798l-4.211 7.35c-.261.456 0 0 0 0-.432.755-.095 1.615.704 1.875 0 0-.505-.14 0 0 3.175.879 6.683.561 9.791-1.162zm-15.41-2.074c.624.562 1.539.423 1.976-.329 0 0-.264.453 0 0l4.259-7.321c.603-1.038.573-2.7-.067-3.714l-4.244-6.721c-.297-.47-.021-.033-.021-.033-.476-.755-1.408-.884-2.075-.28 0 0 .248-.273-.184.187a12.988 12.988 0 0 0-3.533 9.15 12.982 12.982 0 0 0 3.89 9.06z" class="shp86" filter="url(#c)" opacity=".15"/><path fill="url(#d)" d="m42.11 16.203-.794 2.12a.384.384 0 0 0 .118.414l.935.716c.114.087.31.092.43.006l1.842-1.315a.327.327 0 0 1 .409.035l.771.771a.328.328 0 0 1 .035.41L44.54 21.2a.384.384 0 0 0 .008.43l.716.935c.088.114.276.17.414.118l2.118-.794c.14-.052.312.01.386.139l.545.944a.325.325 0 0 1-.073.404l-1.748 1.439a.384.384 0 0 0-.104.417l.449 1.087a.39.39 0 0 0 .37.222l2.253-.22c.148-.014.3.09.337.234l.282 1.054a.324.324 0 0 1-.174.37l-2.062.939a.383.383 0 0 0-.21.376l.154 1.166a.388.388 0 0 0 .3.309l2.234.372a.328.328 0 0 1 .264.312v1.09c0 .152-.118.29-.264.314l-2.23.371a.382.382 0 0 0-.3.31l-.153 1.166a.39.39 0 0 0 .21.377l2.058.937a.33.33 0 0 1 .175.37l-.282 1.054a.325.325 0 0 1-.338.234l-2.251-.218a.383.383 0 0 0-.37.221l-.451 1.087a.387.387 0 0 0 .105.418l1.747 1.439a.327.327 0 0 1 .073.403l-.545.945a.327.327 0 0 1-.387.139l-2.12-.794a.384.384 0 0 0-.414.118l-.716.934a.389.389 0 0 0-.006.431l1.315 1.842a.327.327 0 0 1-.035.408l-.771.772a.326.326 0 0 1-.409.034l-1.84-1.314a.384.384 0 0 0-.431.007l-.934.717a.388.388 0 0 0-.119.413l.794 2.119a.327.327 0 0 1-.139.385l-.944.545a.325.325 0 0 1-.404-.072l-1.439-1.748a.384.384 0 0 0-.417-.105l-1.087.45a.39.39 0 0 0-.221.369l.219 2.254a.327.327 0 0 1-.234.337l-1.054.282a.324.324 0 0 1-.37-.175l-.938-2.062a.383.383 0 0 0-.377-.21l-1.166.155a.388.388 0 0 0-.309.3l-.372 2.233a.328.328 0 0 1-.312.265h-1.09a.324.324 0 0 1-.313-.265l-.372-2.23a.382.382 0 0 0-.31-.3l-1.166-.152a.39.39 0 0 0-.377.21l-.937 2.057a.33.33 0 0 1-.37.175l-1.054-.282a.325.325 0 0 1-.234-.337l.218-2.251a.383.383 0 0 0-.221-.37l-1.087-.452a.387.387 0 0 0-.418.105l-1.439 1.748a.327.327 0 0 1-.403.073l-.945-.546a.327.327 0 0 1-.139-.386l.794-2.121a.384.384 0 0 0-.118-.414l-.934-.715a.389.389 0 0 0-.431-.006l-1.842 1.315a.327.327 0 0 1-.408-.035l-.772-.772a.326.326 0 0 1-.034-.408l1.314-1.84a.384.384 0 0 0-.007-.432l-.717-.934a.388.388 0 0 0-.413-.118l-2.119.794a.327.327 0 0 1-.385-.14l-.545-.943a.325.325 0 0 1 .072-.404l1.748-1.439a.384.384 0 0 0 .105-.417l-.45-1.087a.39.39 0 0 0-.369-.222l-2.254.22a.327.327 0 0 1-.337-.235l-.282-1.053a.324.324 0 0 1 .175-.37l2.062-.939a.383.383 0 0 0 .209-.377l-.154-1.165a.388.388 0 0 0-.3-.31l-2.233-.371a.328.328 0 0 1-.265-.313v-1.09c0-.152.118-.29.265-.313l2.23-.372a.382.382 0 0 0 .3-.309l.152-1.167a.39.39 0 0 0-.21-.376l-2.057-.937a.33.33 0 0 1-.175-.37l.282-1.054a.325.325 0 0 1 .337-.234l2.251.218a.383.383 0 0 0 .37-.222l.451-1.087a.387.387 0 0 0-.104-.417l-1.748-1.439a.327.327 0 0 1-.073-.404l.546-.944a.327.327 0 0 1 .386-.139l2.121.794a.384.384 0 0 0 .414-.118l.715-.935a.389.389 0 0 0 .006-.43l-1.315-1.842a.327.327 0 0 1 .035-.409l.772-.771a.326.326 0 0 1 .408-.035l1.84 1.315a.385.385 0 0 0 .431-.008l.935-.716a.388.388 0 0 0 .118-.414l-.794-2.118a.327.327 0 0 1 .14-.385l.943-.546a.325.325 0 0 1 .404.073l1.439 1.748a.384.384 0 0 0 .417.104l1.087-.449a.39.39 0 0 0 .222-.37l-.22-2.253a.327.327 0 0 1 .235-.337l1.053-.282c.147-.04.31.04.37.175l.939 2.061c.061.136.23.23.376.21l1.166-.154a.388.388 0 0 0 .31-.3l.37-2.234a.328.328 0 0 1 .314-.264h1.09c.152 0 .29.118.313.264l.372 2.23a.38.38 0 0 0 .309.3l1.167.153a.39.39 0 0 0 .376-.21l.937-2.058a.33.33 0 0 1 .37-.175l1.054.282c.147.04.249.19.234.338l-.218 2.251a.383.383 0 0 0 .222.37l1.087.451c.133.055.323.01.417-.105l1.439-1.747a.327.327 0 0 1 .404-.073l.944.545c.132.077.19.248.139.387zm-3.614 4.519a12.982 12.982 0 0 0-9.715-1.347c-.611.155-.252.07-.252.07-.852.29-1.192 1.169-.762 1.951 0 0-.247-.451.02.035l3.82 6.97c.577 1.052 2.016 1.884 3.216 1.86l8.469-.176c.524-.011 0 0 0 0 .869-.019 1.434-.75 1.244-1.569a12.986 12.986 0 0 0-6.039-7.794zm-.213 22.67a12.985 12.985 0 0 0 6.157-7.634c.182-.605.07-.253.07-.253.19-.88-.388-1.622-1.28-1.658 0 0 .515.021-.04-.001l-7.941-.315c-1.198-.048-2.653.757-3.25 1.798l-4.211 7.35c-.261.456 0 0 0 0-.432.755-.095 1.615.704 1.875 0 0-.505-.14 0 0 3.175.879 6.683.561 9.791-1.162zm-15.41-2.074c.624.562 1.539.423 1.976-.329 0 0-.264.453 0 0l4.259-7.321c.603-1.038.573-2.7-.067-3.714l-4.244-6.721c-.297-.47-.021-.033-.021-.033-.476-.755-1.408-.884-2.075-.28 0 0 .248-.273-.184.187a12.988 12.988 0 0 0-3.533 9.15 12.982 12.982 0 0 0 3.89 9.06z" class="shp86"/></svg>