<svg width="64" height="64" version="1.1" xmlns="http://www.w3.org/2000/svg" xmlns:xlink="http://www.w3.org/1999/xlink">
 <defs>
  <linearGradient id="c" x1="408.25" x2="407.94" y1="547.6" y2="498.89" gradientTransform="translate(-510.64 -663.52)scale(1.3276)" gradientUnits="userSpaceOnUse">
   <stop stop-color="#fff" offset="0"/>
   <stop stop-color="#e6e6e6" offset="1"/>
  </linearGradient>
  <linearGradient id="G" x1="116.06" x2="122.28" y1="1028.8" y2="1029.8" gradientTransform="matrix(.41301 0 0 .41326 -92.909 -355.36)" gradientUnits="userSpaceOnUse">
   <stop stop-color="#f6fcfe" offset="0"/>
   <stop stop-color="#bbe4fd" offset="1"/>
  </linearGradient>
  <linearGradient id="F" x1="115.58" x2="118.57" y1="1040" y2="1041.1" gradientTransform="matrix(.41301 0 0 .41326 -92.909 -355.36)" gradientUnits="userSpaceOnUse">
   <stop stop-color="#ebf8fe" offset="0"/>
   <stop stop-color="#d0ecfd" offset=".295"/>
   <stop stop-color="#c6e0f0" offset=".601"/>
   <stop stop-color="#959295" offset=".782"/>
   <stop stop-color="#a29a9a" offset="1"/>
  </linearGradient>
  <linearGradient id="D" x1="145.37" x2="163.05" y1="917.37" y2="866.28" gradientTransform="matrix(.41301 0 0 .41326 -92.909 -355.36)" gradientUnits="userSpaceOnUse">
   <stop stop-color="#abd7f8" offset="0"/>
   <stop stop-color="#d7ecff" offset="1"/>
  </linearGradient>
  <linearGradient id="C" x1="146.25" x2="165.3" y1="918.91" y2="867.79" gradientTransform="matrix(.41301 0 0 .41326 -92.909 -355.36)" gradientUnits="userSpaceOnUse">
   <stop stop-color="#bba598" offset="0"/>
   <stop stop-color="#8a8684" offset="1"/>
  </linearGradient>
  <linearGradient id="B" x1="120.96" x2="137.13" y1="1000.2" y2="1005.5" gradientTransform="matrix(.41301 0 0 .41326 -92.909 -355.36)" gradientUnits="userSpaceOnUse">
   <stop stop-color="#414140" offset="0"/>
   <stop stop-color="#575756" offset=".104"/>
   <stop stop-color="#777776" offset=".202"/>
   <stop stop-color="#666665" offset=".365"/>
   <stop stop-color="#3c3c3b" offset=".641"/>
   <stop stop-color="#1b1b1a" offset="1"/>
  </linearGradient>
  <linearGradient id="A" x1="133.66" x2="150.29" y1="957.17" y2="962.3" gradientTransform="matrix(.41301 0 0 .41326 -92.909 -355.36)" gradientUnits="userSpaceOnUse" xlink:href="#a"/>
  <linearGradient id="a">
   <stop stop-color="#d1831c" offset="0"/>
   <stop stop-color="#eda223" offset=".105"/>
   <stop stop-color="#fdc752" offset=".16"/>
   <stop stop-color="#feec90" offset=".257"/>
   <stop stop-color="#ffb942" offset=".489"/>
   <stop stop-color="#f7921d" offset=".708"/>
   <stop stop-color="#df761a" offset=".803"/>
   <stop stop-color="#dc7e29" offset=".82"/>
   <stop stop-color="#bc641b" offset=".925"/>
   <stop stop-color="#a1714e" offset="1"/>
  </linearGradient>
  <linearGradient id="z" x1="116.8" x2="178.61" y1="987.22" y2="938.4" gradientTransform="matrix(.41301 0 0 .41326 -85.426 -380.2)" gradientUnits="userSpaceOnUse" xlink:href="#a"/>
  <filter id="b" x="-.036011" y="-.036011" width="1.072" height="1.072" color-interpolation-filters="sRGB">
   <feGaussianBlur stdDeviation=".89"/>
  </filter>
  <radialGradient id="c-2" cx="77.813" cy="951.01" r="33.438" gradientTransform="matrix(.35967 -.00402 .00485 .44233 -9.894 -385.77)" gradientUnits="userSpaceOnUse">
   <stop stop-color="#1ac9fd" offset="0"/>
   <stop stop-color="#1c7cf4" offset="1"/>
  </radialGradient>
  <radialGradient id="d-9" cx="81.462" cy="922.53" r="2.921" gradientTransform="matrix(.43351 .05204 -.0463 .38549 33.43 -335.68)" gradientUnits="userSpaceOnUse">
   <stop stop-color="#e46810" offset="0"/>
   <stop stop-color="#fdbb1c" offset="1"/>
  </radialGradient>
  <clipPath id="e-0">
   <path d="m60.187 83.594 2.688-0.156 2.124 0.968 9.438 10.72-0.969 0.374-0.812-0.187-2.094-1.031-1.875-1.781-2-2.97-1.25-1.468-3.219-2.688z" fill="#ffe239" fill-rule="evenodd"/>
  </clipPath>
  <filter id="f-2" x="-.048907" y="-.14647" width="1.0978" height="1.2929" color-interpolation-filters="sRGB">
   <feGaussianBlur stdDeviation=".205"/>
  </filter>
  <clipPath id="g-1">
   <path d="m79.55 948.37c-0.044-1.105-0.398-0.751 0.354-1.237 0.75-0.487 2.032-1.636 2.607-2.564s0.796-1.68 0.796-1.68l0.044-4.64s0.088-2.695 1.193-3.137c0 0 0.928-2.696 2.696-4.331 0 0 1.06-2.696 1.9-3.801s1.9-2.121 1.945-3.315c0.044-1.193 0-1.546-1.017-1.812-1.016-0.265-2.254-0.442-2.696-1.325-2.696 0.088-2.784-0.708-5.524 0.928-0.796 0.53-0.619-0.442-1.591-0.398s-2.166-0.177-2.608 0.133c-0.441 0.309-0.707 0.309-0.972-0.089s-2.475-0.132-3.447 0.442-1.458 0.663-1.458 1.06c-3.05 1.106-7.425 3.139-7.425 3.139l11.004 22.804z" fill="#ff8616" fill-rule="evenodd"/>
  </clipPath>
  <filter id="h-7" x="-.092566" y="-.094717" width="1.1851" height="1.1894" color-interpolation-filters="sRGB">
   <feGaussianBlur stdDeviation="1.35"/>
  </filter>
  <clipPath id="i-2">
   <path d="m79.55 96.011c-0.044-1.105-0.398-0.751 0.354-1.237 0.75-0.487 2.032-1.636 2.607-2.564s0.796-1.68 0.796-1.68l0.044-4.64s0.088-2.695 1.193-3.137c0 0 0.928-2.696 2.696-4.331 0 0 1.06-2.696 1.9-3.801s1.9-2.121 1.945-3.315c0.044-1.193 0-1.546-1.017-1.812-1.016-0.265-2.254-0.442-2.696-1.325-2.696 0.088-2.784-0.707-5.524 0.928-0.796 0.53-0.619-0.442-1.591-0.398s-2.166-0.177-2.608 0.133c-0.441 0.309-0.707 0.309-0.972-0.089s-2.475-0.132-3.447 0.442-1.458 0.663-1.458 1.06c-3.05 1.106-7.425 3.139-7.425 3.139l11.004 22.804z" fill="#ff8616" fill-rule="evenodd"/>
  </clipPath>
  <filter id="j-2" x="-.05578" y="-.022792" width="1.1116" height="1.0456" color-interpolation-filters="sRGB">
   <feGaussianBlur stdDeviation=".264"/>
  </filter>
  <linearGradient id="k-7" x1="57.541" x2="62.633" y1="937.89" y2="936.89" gradientTransform="matrix(.40795 .06448 -.06452 .40819 52.113 -357.32)" gradientUnits="userSpaceOnUse">
   <stop stop-color="#fcca46" offset="0"/>
   <stop stop-color="#fda324" offset=".63"/>
   <stop stop-color="#ef8418" offset="1"/>
  </linearGradient>
  <clipPath id="l-2">
   <path d="m76.544 948.33s-1.193-2.077-2.21-3.447-4.95-7.16-5.878-9.37-2.253-6.363-1.9-7.115 0.928-1.104 0.928-1.104-0.707-0.929-0.353-1.105c0.353-0.177 1.016-0.31 1.016-0.575s-0.398-0.751 0-1.016 2.43-1.547 2.43-1.547-2.518-2.342-3.535-2.74-1.502-0.53-2.651 0.044-1.635-0.133-2.564 0.177c-0.928 0.31-1.988 0.972-2.165 1.281-3.05 1.459-2.828 1.857-2.828 2.166 0 0-2.652 0.619 0.176 3.182s5.348 6.231 6.232 7.778 3.756 5.834 4.42 6.762c0.662 0.928 2.12 3.624 6.54 6.364s2.342 0.265 2.342 0.265" fill="#fe7612" fill-rule="evenodd"/>
  </clipPath>
  <filter id="m-9" x="-.038045" y="-.028271" width="1.0761" height="1.0565" color-interpolation-filters="sRGB">
   <feGaussianBlur stdDeviation=".392"/>
  </filter>
  <linearGradient id="n-3" x1="77.128" x2="78.123" y1="953.29" y2="953.18" gradientTransform="matrix(.40795 .06448 -.06452 .40819 52.113 -357.32)" gradientUnits="userSpaceOnUse">
   <stop stop-color="#3e640d" offset="0"/>
   <stop stop-color="#23560f" offset="1"/>
  </linearGradient>
  <linearGradient id="o-2" x1="76.69" x2="77.545" y1="948.9" y2="952.62" gradientUnits="userSpaceOnUse">
   <stop stop-color="#c68c06" offset="0"/>
   <stop stop-color="#c68c06" stop-opacity="0" offset="1"/>
  </linearGradient>
  <clipPath id="p-1">
   <path d="m75.437 949.78c-2.203 0.266-1.906-0.063-1.969-0.266-0.062-0.203 0.094-0.922 0.75-1.234s2.406-0.781 3.297-0.875c0.89-0.094 1.031-0.094 2.063 0.594 1.03 0.687 0.671 0.968 0.093 0.984s-1.64 0.422-1.765 0.875-0.282 1.031-0.063 2.188 1.516 5.859 1.516 5.859l-1.61 0.344s-0.453-4.813-1.078-6.39c-0.625-1.579-1.234-2.079-1.234-2.079" fill="url(#linearGradient5819)" fill-rule="evenodd"/>
  </clipPath>
  <filter id="q-4" x="-.050331" y="-.090634" width="1.1007" height="1.1813" color-interpolation-filters="sRGB">
   <feGaussianBlur stdDeviation=".212"/>
  </filter>
  <clipPath id="s-0">
   <path d="m141.32 79.757c-1.684-1.875-0.925-2.783-0.242-4.687 0.305-0.85 21.799-64.477 22.057-65.38 0.258-0.901 2.168-1.675 3.737-1.868 1.745-0.214 3.768-0.16 6.925 0.999 3.221 1.482 5.798 4.09 5.476 5.54-0.774 3.482-18.033 66.637-19.772 69.664-1.74 3.028-18.181-4.269-18.181-4.269z" fill="url(#linearGradient5611)" fill-rule="evenodd"/>
  </clipPath>
  <filter id="t-1" x="-.020651" y="-.011058" width="1.0413" height="1.0221" color-interpolation-filters="sRGB">
   <feGaussianBlur stdDeviation=".359"/>
  </filter>
  <filter id="u-0" x="-.033271" y="-.013473" width="1.0665" height="1.0269" color-interpolation-filters="sRGB">
   <feGaussianBlur stdDeviation=".297"/>
  </filter>
  <radialGradient id="D-1" cx="117.11" cy="1040.7" r="1.249" gradientTransform="matrix(-.4293 -.09775 .11661 -.51275 -115.68 619.89)" gradientUnits="userSpaceOnUse">
   <stop stop-color="#666665" offset="0"/>
   <stop stop-color="#3c3c3b" offset=".641"/>
   <stop stop-color="#1b1b1a" offset="1"/>
  </radialGradient>
  <clipPath id="v-6">
   <path d="m115.75 1038.9s-0.36 1.845-0.144 1.884 1.663-0.31 2.536 0.751l1.37-1.64s-1.9-2.1-3.762-0.995" fill="url(#linearGradient4751)" fill-rule="evenodd"/>
  </clipPath>
  <filter id="w-8" x="-.034019" y="-.10486" width="1.068" height="1.2097" color-interpolation-filters="sRGB">
   <feGaussianBlur stdDeviation=".062"/>
  </filter>
 </defs>
 <rect transform="translate(-389.32 -489.92)scale(1.0115)" x="386.85" y="486.31" width="59.315" height="59.315" ry="29.657" filter="url(#b)" opacity=".25"/>
 <rect x="1.983" y="1.978" width="59.997" height="59.997" ry="29.998" fill="url(#c)"/>
 <path d="m31.98 1.9785c-11.564 0-21.554 6.481-26.564 16.021h53.131c-5.0104-9.5405-15-16.021-26.564-16.021h-0.001953z" fill="#ff9d1e" stroke-linecap="round" stroke-linejoin="round" stroke-width="54" style="paint-order:stroke fill markers"/>
 <path d="m18.86 8.0335 0.68209 0.00166 0.94851 4.4884 1.1473-4.4833 0.75863 0.00186 0.94851 4.4884 1.145-4.4833 0.68659 0.00168-1.3728 5.3043-0.84868-2e-3 -0.95028-4.6106-1.1658 4.6054-0.84868-2e-3zm9.5113 2.8255q0.21434 0.07957 0.41345 0.33633 0.20142 0.25438 0.39848 0.70275l0.65182 1.453-0.72486-0.0018-0.60659-1.3619q-0.23566-0.5347-0.46586-0.71011-0.2257-0.1754-0.6264-0.17638l-0.73612-0.0018-0.05029 2.2441-0.67534-0.0017 0.11893-5.3073 1.524 0.00372q0.85543 0.00209 1.2679 0.38392 0.41243 0.38183 0.3952 1.1506-0.01117 0.50056-0.23923 0.83053-0.22352 0.32998-0.64507 0.4559zm-1.6407-2.2315-0.04218 1.8825 0.84868 2e-3q0.4885 0.0012 0.73924-0.23771 0.25749-0.23889 0.26796-0.70591 0.01043-0.46703-0.23646-0.69996-0.24226-0.24011-0.7285-0.24129zm4.0964-0.56483 0.67534 0.00165-0.11893 5.3073-0.67534-0.0017zm1.3282 0.00324 4.2209 0.010309-0.01352 0.60354-1.7716-0.00433-0.10541 4.7038-0.67759-0.0017 0.1054-4.7038-1.7716-0.00433zm4.8737 0.011904 3.1538 0.0077-0.01352 0.60354-2.4785-0.00605-0.0352 1.5711 2.3749 0.0058-0.01355 0.60594-2.3749-0.0058-0.0431 1.9232 2.5393 0.0062-0.01352 0.60354-3.2146-0.0079zm6.6343 2.8185q0.21434 0.07957 0.41345 0.33633 0.20142 0.25438 0.39848 0.70275l0.65182 1.453-0.72486-0.0018-0.60659-1.3619q-0.23566-0.53466-0.46586-0.71007-0.2257-0.1754-0.6264-0.17638l-0.73612-0.0018-0.05029 2.2441-0.67534-0.0017 0.11893-5.3073 1.524 0.00372q0.85543 0.00207 1.2679 0.3839 0.41243 0.38183 0.3952 1.1506-0.01117 0.50056-0.23923 0.83053-0.22351 0.32998-0.64507 0.45589zm-1.6407-2.2315-0.04218 1.8825 0.84868 2e-3q0.4885 0.0012 0.73924-0.23771 0.25749-0.23884 0.26796-0.70587 0.01043-0.46703-0.23646-0.69996-0.24226-0.24007-0.7285-0.24126z" fill="#ffffff" stroke="#ffffff" stroke-width=".081" aria-label="WRITER"/>
 <g fill-rule="evenodd">
  <path transform="translate(0,1)" d="m9 21h25v17h-25z" fill="url(#c-2)"/>
  <path d="m23.953 35.046c1.236-0.877 1.027-0.728 1.355-1.169l0.323-0.435s2.26-4.22 2.268-4.597-2.211-0.56-2.211-0.56-2.346 6.246-1.735 6.76z" fill="#d3510a"/>
  <path transform="translate(0,1)" d="m24.479 24.1c1.16-1.334 2.614-1.615 2.822-0.128 0.155 1.101-2.282 0.805-2.822 0.128" fill="url(#d-9)" opacity=".99"/>
  <path d="m23.378 35.928c0.053-0.454-0.114-0.332 0.224-0.482s0.935-0.537 1.23-0.879c0.293-0.341 0.432-0.634 0.432-0.634l0.317-1.891s0.21-1.095 0.69-1.204c0 0 0.552-1.04 1.379-1.594 0 0 0.607-1.032 1.02-1.429s0.913-0.743 1.007-1.227c0.096-0.485 0.1-0.632-0.297-0.806-0.398-0.173-0.891-0.325-1.014-0.715-1.106-0.137-1.09-0.468-2.314 0.023-0.359 0.165-0.224-0.22-0.623-0.265-0.4-0.044-0.872-0.212-1.073-0.114s-0.308 0.08-0.39-0.099c-0.083-0.18-1.002-0.213-1.435-0.042-0.434 0.172-0.638 0.177-0.664 0.34-1.315 0.254-3.23 0.801-3.23 0.801l3.017 10.018z" fill="#ff8616"/>
  <path d="m16.28 29.611 1.107 0.11 0.804 0.532 3.158 4.984-0.419 0.09-0.32-0.129-0.787-0.556-0.65-0.848-0.624-1.34-0.415-0.68-1.14-1.305z" fill="#ffe239"/>
  <path transform="matrix(.40795 .06448 -.06452 .40819 -2.88 -8.393)" d="m63.206 81.847-4.94 0.176c0.117 0.077 2.267 1.727 2.61 1.813 1.746 0.022 3.072 0.31 1.614 0.62-1.459 0.309-0.309 0.75-0.309 0.75l3.028-0.33 3.117-0.954-1.05-1.371z" clip-path="url(#e-0)" fill="#feffbf" filter="url(#f-2)"/>
  <path transform="matrix(.40795 .06448 -.06452 .40819 52.113 -356.32)" d="m67.131 922.87 4.508 8.662 3.403 2.828-2.475-3.27-0.884-9.06 1.149 1.9 0.31-3.8 3.623 2.298 3.226-0.928 1.017 2.873 2.386-3.36 1.503-3.932 3.403 5.391 2.43-4.066 9.9 7.38-13.126 19.049-12.816-0.619 0.752 3.624 16.838 2.74 9.855-25.633-13.081-8.574-13.965 0.53z" clip-path="url(#g-1)" fill="#fdc91c" filter="url(#h-7)"/>
  <path transform="matrix(.40795 .06448 -.06452 .40819 -2.88 -8.393)" d="m71.594 68.654 0.398 3.89 0.575-0.663zm11.359 0.752-1.193 6.32 0.84-0.177zm-4.773 21.17v1.06l-0.664 0.221-0.707-0.752 0.619 3.006-2.297-1.018-0.178 3.36 4.994-0.178 0.928-1.943 1.148-2.475-1.414 1.457-0.795 0.133-0.22-1.326-0.532 2.431-1.28-0.619-0.134-1.988 0.532-0.178 0.087 0.973 0.354-0.176v-1.68z" clip-path="url(#i-2)" fill="#d1520b" filter="url(#j-2)"/>
  <path d="m21.728 35.26c0.413-1.562 1.2-4.322 0.925-4.92s-0.966-0.782-1.386-1.514-1.976-3.049-1.976-3.049l-1.186 1.421s3.135 7.522 3.623 8.062" fill="#f3620e"/>
  <path transform="translate(0,1)" d="m21.536 34.541-0.807-0.35s-0.615-0.41-0.69-0.514c-0.075-0.103-0.632-0.545-0.636-0.689-3e-3 -0.144-0.47-1.408-0.736-1.79s-1.494-1.87-1.724-2.155-0.926-0.918-1.245-0.968c-0.244-0.027-0.248 0.248-0.427 0.22l-0.191-0.03s-0.27-0.031-0.164 0.13c0.105 0.161 0.151 0.364 0.387 0.362 0.235-2e-3 0.377-0.07 0.757 0.25 0.38 0.322 1.127 0.807 1.477 1.32 0.35 0.512 0.701 0.607 1.316 2.09s2.903 2.8 2.683 2.124" fill="url(#k-7)"/>
  <path d="m22.154 35.715s-0.353-0.925-0.679-1.55c-0.326-0.624-1.557-3.241-1.793-4.203s-0.51-2.743-0.316-3.027c0.192-0.284 0.45-0.391 0.45-0.391s-0.23-0.425-0.073-0.474c0.155-0.05 0.434-0.06 0.451-0.169 0.017-0.108-0.114-0.332 0.066-0.415s1.091-0.474 1.091-0.474-0.876-1.119-1.265-1.347c-0.39-0.228-0.579-0.313-1.085-0.153s-0.658-0.16-1.057-0.093-0.874 0.27-0.966 0.384c-1.338 0.399-1.274 0.575-1.294 0.702 0 0-1.121 0.081-0.133 1.31 0.989 1.229 1.78 2.888 2.04 3.577 0.261 0.688 1.156 2.623 1.367 3.045 0.21 0.421 0.632 1.616 2.258 3.02s0.938 0.258 0.938 0.258" fill="#fe7612"/>
  <path transform="matrix(.40795 .06448 -.06452 .40819 52.113 -356.32)" d="m56.127 921.28 3.756 5.392-2.695-5.304 3.668 1.459-0.751-3.492 3.535 3.669-2.298-5.922 5.17 8.573 0.089-8.22 6.63 2.254s2.916 20.594 1.148 22.097-1.37 2.873-0.795 3.58l0.574 0.707-0.088 0.751 3.093 1.945 2.21-29.654-12.153-3.624s-6.364 0.22-10.562 1.547c-4.198 1.325-0.53 4.242-0.53 4.242z" clip-path="url(#l-2)" fill="#fdbb1c" filter="url(#m-9)"/>
  <path transform="translate(0,1)" d="m22.838 34.421a2 2 0 0 0-0.228-0.017c-0.37-0.02-1.114 0.059-1.402 0.144-0.288 0.086-0.398 0.369-0.385 0.456 0.012 0.087-0.13 0.201 0.786 0.235 0 0 0.216 0.244 0.37 0.928 0.11 0.493 0.042 1.219 0.014 1.836l0.593-3e-3a28 28 0 0 1-0.142-1.68c-0.015-0.487 0.086-0.713 0.167-0.89 0.08-0.176 0.54-0.274 0.776-0.243 0.237 0.03 0.402-0.06 0.026-0.408-0.283-0.26-0.386-0.33-0.575-0.357z" fill="url(#n-3)"/>
  <path transform="matrix(.40795 .06448 -.06452 .40819 52.113 -356.32)" d="m71.969 950.08 1.922-2.547 6.047-0.5 2.14 2.422s-2.526-0.531-7.14 3.094c-0.875 0.687-2.969-2.47-2.969-2.47z" clip-path="url(#p-1)" fill="url(#o-2)" filter="url(#q-4)" opacity=".556"/>
  <path d="m22.838 35.421a2 2 0 0 0-0.228-0.017c-0.37-0.02-1.114 0.059-1.402 0.144-0.288 0.086-0.398 0.369-0.385 0.456q2e-3 0.011-1e-3 0.025c0.447-0.242 0.575-0.267 0.889-0.231 0.43 0.049 0.647-0.166 0.845-0.18 0.198-0.015 0.402 0.226 0.598 0.186l0.225-0.054c-0.253-0.231-0.36-0.303-0.541-0.328z" fill="#8a3d2d"/>
 </g>
 <rect x="37" y="22" width="15" height="1" rx="0" ry="0" opacity=".15"/>
 <rect x="37" y="25" width="15" height="1" rx="0" ry="0" opacity=".15"/>
 <rect x="37" y="28" width="15" height="1" rx="0" ry="0" opacity=".15"/>
 <rect x="37" y="31" width="15" height="1" rx="0" ry="0" opacity=".15"/>
 <rect x="37" y="34" width="15" height="1" rx="0" ry="0" opacity=".15"/>
 <rect x="37" y="37" width="9" height="1" rx="0" ry="0" opacity=".15"/>
 <rect x="12" y="41" width="40" height="1" rx="0" ry="0" opacity=".15"/>
 <rect x="10" y="44" width="42" height="1" rx="0" ry="0" opacity=".15"/>
 <rect x="10" y="47" width="42" height="1" rx="0" ry="0" opacity=".15"/>
 <rect x="10" y="50" width="35" height="1" rx="0" ry="0" opacity=".15"/>
 <g fill-rule="evenodd" stroke-width="1.76">
  <path transform="matrix(.5486 .14823 -.14823 .5486 68.963 24.103)" d="m-34.319 29.446c-0.675-0.752-0.37-1.116-0.097-1.88 0.122-0.34 8.734-25.85 8.838-26.211 0.103-0.362 0.868-0.672 1.497-0.75 0.7-0.085 1.51-0.064 2.775 0.401 1.29 0.594 2.323 1.64 2.194 2.221-0.31 1.396-7.225 26.716-7.922 27.93s-7.285-1.711-7.285-1.711" fill="url(#z)"/>
  <path transform="matrix(.21981 .0594 -.05943 .21994 19.446 9.234)" d="m141.77 79.75c-1.634-1.82-0.81-3.674-0.148-5.521 0.296-0.824 21.148-62.551 21.398-63.426l0.26-2.852c-0.27 0.946-22.798 67.638-23.117 68.527-0.716 1.996-2.751 1.798-0.986 3.763zm17.702 6.116c1.823-3.174 19.914-69.37 20.725-73.02l-1.52 2.488c-0.75 3.378-17.493 64.646-19.181 67.584z" clip-path="url(#s-0)" fill="#501a00" fill-opacity=".996" filter="url(#t-1)" opacity=".732"/>
  <path d="m45.818 35.312c-0.197-0.344-0.19-0.525-0.126-0.604 0.064-0.08 0.612-0.04 1.45 0.24 0.871 0.293 2.024 1.215 2.383 1.956 0.358 0.742-1.218 0.252-1.218 0.252z" fill="#713e07"/>
  <path transform="matrix(.5486 .14823 -.14823 .5486 68.963 24.103)" d="m-40.999 53.791c-0.31-1.756-0.206-1.627-0.206-1.989s6.814-22.264 6.917-22.626c0.104-0.361 0.336-0.568 0.775-0.594s2.271-0.077 4.543 1.06c0.955 0.542 1.73 0.722 1.316 2.091s-6.66 22.135-7.356 23.35c-0.697 1.212-5.99-1.293-5.99-1.293z" fill="url(#A)"/>
  <path transform="matrix(.5486 .14823 -.14823 .5486 68.963 24.103)" d="m-41.162 51.849c-1.265 2.712-4.433 14.444-4.123 14.78s5.163 2.505 5.576 2.221 0.568-0.62 0.748-1.085 4.286-12.629 4.467-13.79c-0.723-1.524-3.984-2.59-6.668-2.126" fill="url(#B)"/>
  <path transform="matrix(.22658 .06122 -.06126 .22671 70.668 -184.62)" d="m144.94 918.83 1.438 0.969h2.03s0.97 0.156 1.595-1.531 14.36-43.792 16.173-49.25c0.596-1.724-0.376-2.078-0.818-2.122s-4.265 3.094-4.265 3.094z" fill="#5b472c" filter="url(#u-0)" opacity=".615"/>
  <path transform="matrix(.5486 .14823 -.14823 .5486 68.963 24.103)" d="m-33.178 24.179 0.594 0.4h0.839s0.4 0.065 0.658-0.632 5.931-18.098 6.68-20.353c0.246-0.713-0.156-0.859-0.338-0.877s-1.762 1.278-1.762 1.278z" fill="url(#C)"/>
  <path d="m47.227 32.041c-0.154 0.262-0.204 0.363-0.02 0.44 0.185 0.076 0.55 0.186 0.642 0.21s0.235 0.03 0.386-0.218l0.15-0.248s6.358-9.712 6.506-9.94c0.148-0.23 0.269-0.428-0.04-0.511l-0.515-0.14c-0.15-0.04-0.29-0.12-0.506 0.25-0.215 0.372-6.603 10.157-6.603 10.157" fill="#f7fafc"/>
  <path transform="matrix(.5486 .14823 -.14823 .5486 68.963 24.103)" d="m-26.186 2.52c-0.202 0.014-0.393 0.11-0.54 0.658-0.195 0.73-6.555 20.284-6.555 20.284a6 6 0 0 0-0.06 0.237c0.021 0.095 0.055 0.13 0.111 0.13 0.116 0 1.072 0.04 1.162 0.04s0.206 0 0.323-0.362c0.116-0.362 6.416-19.421 6.553-19.75 0.137-0.328 0.328-1.04 0.018-1.123-0.082-0.02-0.252-0.066-0.433-0.114h-0.375c-0.068 0-0.136-4e-3 -0.204 0" fill="url(#D)"/>
  <path transform="matrix(.5486 .14823 -.14823 .5486 68.963 24.103)" d="m-45.06 74.746c-0.141 0.336 0.064 0.648 0.29 0.705 0.226 0.058 0.518-0.1 0.677-0.397s-0.791-0.4-0.967-0.308" fill="url(#D-1)"/>
  <path transform="matrix(.5486 .14823 -.14823 .5486 68.963 24.103)" d="m-45.104 73.995s-0.148 0.762-0.06 0.778c0.09 0.017 0.687-0.127 1.048 0.311l0.566-0.678s-0.785-0.868-1.554-0.411" fill="url(#F)"/>
  <path transform="matrix(.22658 .06122 -.06126 .22671 70.668 -184.62)" d="m115.35 1039.2s0.508-0.098 0.738-0.11 0.825 0.022 1.15 0.11c0.326 0.087 1.221 0.47 1.514 0.635s0.972 0.375 0.972 0.375l-0.215-1.347-4.06-0.072z" clip-path="url(#v-6)" fill="#301503" filter="url(#w-8)"/>
  <path d="m33.15 58.024s0.12 9e-3 0.173 0.02 0.186 0.056 0.254 0.096c0.069 0.04 0.248 0.181 0.304 0.236 0.056 0.056 0.198 0.145 0.198 0.145l0.033-0.319-0.915-0.264z" fill="#301503"/>
  <path d="m37.118 55.214-0.404 0.354-2.799 2.79c0.053 0.05 0.107 0.1 0.163 0.164 0 0 3.117-2.587 3.22-2.688 0.083-0.083-0.028-0.405-0.18-0.62" fill="#b3b2b0"/>
  <path d="m36.874 55.504c-0.192-0.088-0.772 0.53-0.772 0.53s-1.982 1.757-2.208 2.302c0.034 0.03 0.07 0.07 0.104 0.105 0.118-0.097 1.814-1.503 2.105-1.791 0.301-0.3 0.896-0.7 0.826-1.062q-0.013-0.067-0.055-0.084" fill="#eeeeee"/>
  <path d="m36.929 55.015c-0.044 0.042-2.755 2.711-3.036 3.32 0.025 0.023 0.052 0.053 0.079 0.08l3.182-3.15a1 1 0 0 0-0.139-0.174c-0.02-0.02-0.059-0.051-0.086-0.076" fill="#4d5051"/>
  <path d="m36.723 54.84-2.938 3.408q0.084 0.065 0.177 0.157l3.042-3.324a8 8 0 0 0-0.28-0.241z" fill="#834d4f"/>
  <path d="m36.594 54.736c-0.127 0.127-2.863 2.859-2.895 3.445 0.04 0.027 0.086 0.064 0.13 0.101l3.008-3.348a8 8 0 0 0-0.243-0.199z" fill="#676d6e"/>
  <path d="m36.537 54.689-2.59 2.435-0.141 1.14 0.021 0.017 2.834-3.492c-0.042-0.034-0.078-0.065-0.124-0.1" fill="#a19c9f"/>
  <path transform="matrix(.5486 .14823 -.14823 .5486 68.963 24.103)" d="m-44.162 66.142a7 7 0 0 0-0.512 0.012l-0.558 7.894c0.072-0.039 0.401-0.177 1.047 0.064l0.134 0.06 3.087-7.292a10 10 0 0 0-1.678-0.56 8 8 0 0 0-1.52-0.178" fill="url(#G)"/>
  <path d="m34.692 53.783a4 4 0 0 0-0.319-0.061q-0.057 0.034-0.113 0.072l-1.105 4.21 3e-3 0.019a0.2 0.2 0 0 1 0.055-8e-3z" fill="#c6e0f0"/>
  <path d="m34.511 53.744a4 4 0 0 0-0.227-0.037l-1.134 4.317 0.03-4e-3z" fill="#a5a7a8"/>
 </g>
</svg>
