<svg xmlns="http://www.w3.org/2000/svg" xmlns:xlink="http://www.w3.org/1999/xlink" width="64" height="64"><defs><linearGradient id="c" x2="0" y1="42.827" y2="4.113" gradientTransform="matrix(1.5 0 0 1.5 -4 -4)" gradientUnits="userSpaceOnUse"><stop offset="0" stop-color="#c6cdd1"/><stop offset="1" stop-color="#e0e5e7"/></linearGradient><linearGradient id="d" x2="0" y1="45" y2="13" gradientUnits="userSpaceOnUse"><stop offset="0" stop-color="#663579"/><stop offset="1" stop-color="#16a085"/></linearGradient><linearGradient id="e" x1="8.213" x2="40.551" gradientUnits="userSpaceOnUse"><stop offset="0" stop-color="#1d1e1e"/><stop offset="1" stop-color="#2c2f32"/></linearGradient><linearGradient id="a" x1="7" x2="11" gradientTransform="translate(-21 -3)" gradientUnits="userSpaceOnUse"><stop offset="0" stop-color="#1d1e1e"/><stop offset="1" stop-color="#44484c"/></linearGradient><linearGradient xlink:href="#a" id="g" x1="19" x2="25" gradientTransform="matrix(1.5 0 0 1.5 -74 -16)" gradientUnits="userSpaceOnUse"/><linearGradient xlink:href="#a" id="h" x1="23" x2="28" gradientTransform="matrix(1.5 0 0 1.5 -63.5 5)" gradientUnits="userSpaceOnUse"/><linearGradient xlink:href="#a" id="i" x1="34" x2="42" gradientTransform="matrix(1.5 0 0 1.5 -105.5 .5)" gradientUnits="userSpaceOnUse"/><linearGradient xlink:href="#a" id="f" x1="7" x2="11" gradientTransform="matrix(1.5 0 0 1.5 -27.5 -8.5)" gradientUnits="userSpaceOnUse"/><filter id="b" width="1.072" height="1.072" x="-.036" y="-.036" color-interpolation-filters="sRGB"><feGaussianBlur stdDeviation=".89"/></filter></defs><rect width="59.315" height="59.315" x="386.85" y="486.31" filter="url(#b)" opacity=".25" ry="29.657" transform="translate(-389.32 -489.92) scale(1.0115)"/><path fill="url(#c)" d="M32 2A30 30 0 0 0 8.354 13.596c6.228.075 24.795 1.137 26.715 10.736 1.534 7.668-9.202 9.201-6.135 16.869 2.835 7.09 24.512 7.59 27.893 7.63A30 30 0 0 0 62.001 32a30 30 0 0 0-30-30zM8.309 13.654a30 30 0 0 0-1.85 2.682 29.99 29.99 0 0 1 1.85-2.682zm-2.117 3.115a30 30 0 0 0-.924 1.686c.29-.57.597-1.133.924-1.686zm-1.475 2.826a30 30 0 0 0-.558 1.303c.175-.438.362-.873.558-1.303zm-1.176 2.99a30 30 0 0 0-.31.981c.097-.329.202-.655.31-.98zm-.859 3.124a30 30 0 0 0-.143.72c.046-.24.091-.481.143-.72zm-.496 3.062a30 30 0 0 0-.045.422l.045-.422zm-.12 5.14a30 30 0 0 0 .032.4c-.01-.134-.023-.266-.031-.4zm.36 3.108a30 30 0 0 0 .031.178l-.03-.178zM6.72 48.142a30 30 0 0 0 .08.125l-.08-.125zm50.094.711c-.08.117-.167.228-.248.344a30 30 0 0 0 .248-.344zm-48.37 1.715a30 30 0 0 0 .11.14c-.038-.046-.073-.094-.11-.14zm46.75.431c-.14.172-.28.346-.424.514a30 30 0 0 0 .424-.514zm-44.81 1.791a30 30 0 0 0 .17.18c-.059-.059-.114-.12-.17-.18zm42.685.55c-.151.149-.307.293-.46.439a30 30 0 0 0 .46-.44zM12.61 54.883a30 30 0 0 0 .106.092l-.106-.092zm38.2.475c-.071.056-.137.118-.208.174a30 30 0 0 0 .207-.174zm-2.315 1.681c-.17.112-.339.224-.51.332a30 30 0 0 0 .51-.332zm-2.711 1.594c-.167.086-.336.165-.504.248a30 30 0 0 0 .504-.248zm-2.717 1.239c-.087.034-.17.075-.258.109a30 30 0 0 0 .258-.11zm-2.736.931c-.186.054-.372.108-.559.158a30 30 0 0 0 .559-.158zm-3.07.725c-.163.029-.328.05-.49.076a30 30 0 0 0 .49-.076zm-2.827.36c-.156.012-.31.032-.467.042a30 30 0 0 0 .467-.043z"/><g fill-rule="evenodd" stroke-width=".667"><path fill="url(#d)" d="M8.235 11.732A19.998 19.998 0 0 0 4 24c0 11.05 8.954 20 20 20a20.001 20.001 0 0 0 16.552-8.778c-2.251-.027-16.706-.361-18.596-5.088-2.045-5.112 5.112-6.134 4.089-11.246-1.28-6.4-13.659-7.107-17.81-7.157" transform="matrix(1.5 0 0 1.5 -4 -4)"/><path fill="url(#e)" d="M8.234 11.732a.729.729 0 0 1-.021.029c4.798.144 15.634 1.137 16.832 7.127 1.022 5.112-6.179 6.09-4.134 11.202 1.891 4.726 16.838 6.883 19.09 6.909l.551-1.777c-2.251-.027-16.705-.361-18.596-5.088-2.045-5.112 5.112-6.134 4.09-11.246-1.28-6.4-13.66-7.107-17.811-7.156" transform="matrix(1.5 0 0 1.5 -4 -4)"/></g><g stroke-linecap="round" stroke-linejoin="bevel" stroke-width="2"><circle cx="-14" cy="9.5" r="3" fill="url(#f)" transform="rotate(-90)"/><circle cx="9.5" cy="14" r="1.5" fill="#fff"/><circle cx="-41" cy="29" r="4.5" fill="url(#g)" transform="rotate(-90)"/><circle cx="-25.25" cy="34.25" r="3.75" fill="url(#h)" transform="rotate(-90)"/><circle cx="-48.5" cy="53" r="6" fill="url(#i)" transform="rotate(-90)"/></g><g fill="#fff" stroke-linecap="round" stroke-linejoin="bevel" stroke-width="2"><circle cx="34.25" cy="25.25" r="2.25"/><circle cx="29" cy="41" r="3"/><circle cx="53" cy="48.5" r="4.5"/></g></svg>