<svg xmlns="http://www.w3.org/2000/svg" xmlns:xlink="http://www.w3.org/1999/xlink" width="64" height="64"><defs><linearGradient id="c" x1="408.25" x2="407.94" y1="547.6" y2="498.89" gradientTransform="translate(-510.64 -663.52) scale(1.3276)" gradientUnits="userSpaceOnUse"><stop offset="0" stop-color="#fff"/><stop offset="1" stop-color="#e6e6e6"/></linearGradient><linearGradient id="G" x1="116.06" x2="122.28" y1="1028.8" y2="1029.8" gradientTransform="matrix(.41301 0 0 .41326 -92.909 -355.36)" gradientUnits="userSpaceOnUse"><stop offset="0" stop-color="#f6fcfe"/><stop offset="1" stop-color="#bbe4fd"/></linearGradient><linearGradient id="F" x1="115.58" x2="118.57" y1="1040" y2="1041.1" gradientTransform="matrix(.41301 0 0 .41326 -92.909 -355.36)" gradientUnits="userSpaceOnUse"><stop offset="0" stop-color="#ebf8fe"/><stop offset=".295" stop-color="#d0ecfd"/><stop offset=".601" stop-color="#c6e0f0"/><stop offset=".782" stop-color="#959295"/><stop offset="1" stop-color="#a29a9a"/></linearGradient><linearGradient id="D" x1="145.37" x2="163.05" y1="917.37" y2="866.28" gradientTransform="matrix(.41301 0 0 .41326 -92.909 -355.36)" gradientUnits="userSpaceOnUse"><stop offset="0" stop-color="#abd7f8"/><stop offset="1" stop-color="#d7ecff"/></linearGradient><linearGradient id="C" x1="146.25" x2="165.3" y1="918.91" y2="867.79" gradientTransform="matrix(.41301 0 0 .41326 -92.909 -355.36)" gradientUnits="userSpaceOnUse"><stop offset="0" stop-color="#bba598"/><stop offset="1" stop-color="#8a8684"/></linearGradient><linearGradient id="B" x1="120.96" x2="137.13" y1="1000.2" y2="1005.5" gradientTransform="matrix(.41301 0 0 .41326 -92.909 -355.36)" gradientUnits="userSpaceOnUse"><stop offset="0" stop-color="#414140"/><stop offset=".104" stop-color="#575756"/><stop offset=".202" stop-color="#777776"/><stop offset=".365" stop-color="#666665"/><stop offset=".641" stop-color="#3c3c3b"/><stop offset="1" stop-color="#1b1b1a"/></linearGradient><linearGradient xlink:href="#a" id="A" x1="133.66" x2="150.29" y1="957.17" y2="962.3" gradientTransform="matrix(.41301 0 0 .41326 -92.909 -355.36)" gradientUnits="userSpaceOnUse"/><linearGradient id="a"><stop offset="0" stop-color="#d1831c"/><stop offset=".105" stop-color="#eda223"/><stop offset=".16" stop-color="#fdc752"/><stop offset=".257" stop-color="#feec90"/><stop offset=".489" stop-color="#ffb942"/><stop offset=".708" stop-color="#f7921d"/><stop offset=".803" stop-color="#df761a"/><stop offset=".82" stop-color="#dc7e29"/><stop offset=".925" stop-color="#bc641b"/><stop offset="1" stop-color="#a1714e"/></linearGradient><linearGradient xlink:href="#a" id="z" x1="116.8" x2="178.61" y1="987.22" y2="938.4" gradientTransform="matrix(.41301 0 0 .41326 -85.426 -380.2)" gradientUnits="userSpaceOnUse"/><linearGradient id="r" x1="76.69" x2="77.545" y1="948.9" y2="952.62" gradientUnits="userSpaceOnUse"><stop offset="0" stop-color="#c68c06"/><stop offset="1" stop-color="#c68c06" stop-opacity="0"/></linearGradient><linearGradient id="p" x1="77.128" x2="78.123" y1="953.29" y2="953.18" gradientTransform="matrix(.41301 0 0 .41326 -8.028 -356.17)" gradientUnits="userSpaceOnUse"><stop offset="0" stop-color="#3e640d"/><stop offset="1" stop-color="#23560f"/></linearGradient><linearGradient id="m" x1="57.541" x2="62.633" y1="937.89" y2="936.89" gradientTransform="matrix(.41301 0 0 .41326 -8.028 -356.17)" gradientUnits="userSpaceOnUse"><stop offset="0" stop-color="#fcca46"/><stop offset=".63" stop-color="#fda324"/><stop offset="1" stop-color="#ef8418"/></linearGradient><linearGradient id="f" x1="14.66" x2="27.25" y1="879.49" y2="908.74" gradientTransform="matrix(.41301 0 0 .41326 -8.028 -356.17)" gradientUnits="userSpaceOnUse"><stop offset="0" stop-color="#ffa824"/><stop offset="1" stop-color="#ff9c1d"/></linearGradient><filter id="b" width="1.072" height="1.072" x="-.036" y="-.036" color-interpolation-filters="sRGB"><feGaussianBlur stdDeviation=".89"/></filter><filter id="y" width="1.068" height="1.211" x="-.034" y="-.105" color-interpolation-filters="sRGB"><feGaussianBlur stdDeviation=".062"/></filter><filter id="w" width="1.067" height="1.027" x="-.033" y="-.013" color-interpolation-filters="sRGB"><feGaussianBlur stdDeviation=".297"/></filter><filter id="v" width="1.041" height="1.022" x="-.021" y="-.011" color-interpolation-filters="sRGB"><feGaussianBlur stdDeviation=".359"/></filter><filter id="s" width="1.101" height="1.181" x="-.05" y="-.091" color-interpolation-filters="sRGB"><feGaussianBlur stdDeviation=".212"/></filter><filter id="o" width="1.076" height="1.056" x="-.038" y="-.028" color-interpolation-filters="sRGB"><feGaussianBlur stdDeviation=".392"/></filter><filter id="l" width="1.112" height="1.046" x="-.056" y="-.023" color-interpolation-filters="sRGB"><feGaussianBlur stdDeviation=".264"/></filter><filter id="j" width="1.185" height="1.189" x="-.093" y="-.095" color-interpolation-filters="sRGB"><feGaussianBlur stdDeviation="1.35"/></filter><filter id="h" width="1.098" height="1.292" x="-.049" y="-.146" color-interpolation-filters="sRGB"><feGaussianBlur stdDeviation=".205"/></filter><filter id="t" width="1.151" height="1.1" x="-.075" y="-.05" color-interpolation-filters="sRGB"><feGaussianBlur stdDeviation="1.395"/></filter><clipPath id="x"><path fill="url(#linearGradient4751)" fill-rule="evenodd" d="M115.75 1038.9s-.36 1.845-.144 1.884c.216.039 1.663-.31 2.536.751l1.37-1.64s-1.9-2.1-3.762-.995z"/></clipPath><clipPath id="u"><path fill="url(#linearGradient5611)" fill-rule="evenodd" d="M141.32 79.757c-1.684-1.875-.925-2.783-.242-4.687.305-.85 21.799-64.477 22.057-65.38.258-.901 2.168-1.675 3.737-1.868 1.745-.214 3.768-.16 6.925.999 3.221 1.482 5.798 4.09 5.476 5.54-.774 3.482-18.033 66.637-19.772 69.664-1.74 3.028-18.181-4.269-18.181-4.269z"/></clipPath><clipPath id="q"><path fill="url(#linearGradient5819)" fill-rule="evenodd" d="M75.437 949.78c-2.203.266-1.906-.063-1.969-.266-.062-.203.094-.922.75-1.234s2.406-.781 3.297-.875c.89-.094 1.031-.094 2.063.594 1.03.687.671.968.093.984-.578.016-1.64.422-1.765.875s-.282 1.031-.063 2.188 1.516 5.859 1.516 5.859l-1.61.344s-.453-4.813-1.078-6.39c-.625-1.579-1.234-2.079-1.234-2.079z"/></clipPath><clipPath id="n"><path fill="#fe7612" fill-rule="evenodd" d="M76.544 948.33s-1.193-2.077-2.21-3.447-4.95-7.16-5.878-9.37c-.928-2.21-2.253-6.363-1.9-7.115.354-.751.928-1.104.928-1.104s-.707-.929-.353-1.105c.353-.177 1.016-.31 1.016-.575 0-.265-.398-.751 0-1.016s2.43-1.547 2.43-1.547-2.518-2.342-3.535-2.74-1.502-.53-2.651.044c-1.15.575-1.635-.133-2.564.177-.928.31-1.988.972-2.165 1.281-3.05 1.459-2.828 1.857-2.828 2.166 0 0-2.652.619.176 3.182s5.348 6.231 6.232 7.778c.884 1.547 3.756 5.834 4.42 6.762.662.928 2.12 3.624 6.54 6.364s2.342.265 2.342.265z"/></clipPath><clipPath id="k"><path fill="#ff8616" fill-rule="evenodd" d="M79.55 96.011c-.044-1.105-.398-.751.354-1.237.75-.487 2.032-1.636 2.607-2.564.575-.928.796-1.68.796-1.68l.044-4.64s.088-2.695 1.193-3.137c0 0 .928-2.696 2.696-4.331 0 0 1.06-2.696 1.9-3.801.84-1.105 1.9-2.121 1.945-3.315.044-1.193 0-1.546-1.017-1.812-1.016-.265-2.254-.442-2.696-1.325-2.696.088-2.784-.707-5.524.928-.796.53-.619-.442-1.591-.398-.972.044-2.166-.177-2.608.133-.441.309-.707.309-.972-.089s-2.475-.132-3.447.442c-.972.575-1.458.663-1.458 1.06-3.05 1.106-7.425 3.139-7.425 3.139l11.004 22.804z"/></clipPath><clipPath id="i"><path fill="#ff8616" fill-rule="evenodd" d="M79.55 948.37c-.044-1.105-.398-.751.354-1.237.75-.487 2.032-1.636 2.607-2.564.575-.928.796-1.68.796-1.68l.044-4.64s.088-2.695 1.193-3.137c0 0 .928-2.696 2.696-4.331 0 0 1.06-2.696 1.9-3.801.84-1.105 1.9-2.121 1.945-3.315.044-1.193 0-1.546-1.017-1.812-1.016-.265-2.254-.442-2.696-1.325-2.696.088-2.784-.708-5.524.928-.796.53-.619-.442-1.591-.398-.972.044-2.166-.177-2.608.133-.441.309-.707.309-.972-.089s-2.475-.132-3.447.442c-.972.575-1.458.663-1.458 1.06-3.05 1.106-7.425 3.139-7.425 3.139l11.004 22.804z"/></clipPath><clipPath id="g"><path fill="#ffe239" fill-rule="evenodd" d="m60.187 83.594 2.688-.156 2.124.968 9.438 10.72-.969.374-.812-.187-2.094-1.031-1.875-1.781-2-2.97-1.25-1.468-3.219-2.688z"/></clipPath><radialGradient id="E" cx="117.11" cy="1040.7" r="1.249" gradientTransform="matrix(-.4293 -.09775 .11661 -.51275 -115.68 619.89)" gradientUnits="userSpaceOnUse"><stop offset="0" stop-color="#666665"/><stop offset=".641" stop-color="#3c3c3b"/><stop offset="1" stop-color="#1b1b1a"/></radialGradient><radialGradient id="e" cx="81.462" cy="922.53" r="2.921" gradientTransform="matrix(.43632 -.01627 .01445 .38799 -23.104 -331.88)" gradientUnits="userSpaceOnUse"><stop offset="0" stop-color="#e46810"/><stop offset="1" stop-color="#fdbb1c"/></radialGradient><radialGradient id="d" cx="77.813" cy="951.01" r="33.438" gradientTransform="matrix(.35463 -.06012 .07385 .43615 -73.716 -374.59)" gradientUnits="userSpaceOnUse"><stop offset="0" stop-color="#1ac9fd"/><stop offset="1" stop-color="#1c7cf4"/></radialGradient></defs><rect width="59.315" height="59.315" x="386.85" y="486.31" filter="url(#b)" opacity=".25" ry="29.657" transform="translate(-389.32 -489.92) scale(1.0115)"/><rect width="59.997" height="59.997" x="1.983" y="1.978" fill="url(#c)" ry="29.998"/><g fill-rule="evenodd"><path fill="url(#d)" d="m8.957 22.991 24.677-3.926 2.943 18.132-24.832 4.03z"/><path fill="#d3510a" d="M25.258 34.794c1.084-1.059.901-.88 1.155-1.366l.252-.48s1.574-4.52 1.523-4.895c-.052-.375-2.272-.207-2.272-.207s-1.342 6.535-.658 6.948z"/><path fill="url(#e)" d="M24.224 24.888c.937-1.498 2.33-2.003 2.768-.567.324 1.064-2.13 1.151-2.768.567z" opacity=".99"/><path fill="#ff8616" d="M24.827 35.755c-.018-.457-.164-.31.146-.511s.84-.676 1.077-1.06c.237-.383.328-.694.328-.694l.019-1.917s.036-1.114.493-1.297c0 0 .383-1.114 1.113-1.79 0 0 .438-1.114.785-1.57.347-.457.785-.877.803-1.37.018-.494 0-.64-.42-.75-.42-.109-.93-.182-1.113-.547-1.114.036-1.15-.292-2.282.383-.328.22-.255-.182-.657-.164-.402.019-.894-.073-1.077.055-.182.128-.292.128-.401-.037-.11-.164-1.023-.054-1.424.183-.402.237-.602.274-.602.438-1.26.457-3.067 1.297-3.067 1.297l4.545 9.424z"/><path fill="url(#f)" d="M31.98 1.978c-12.132 0-22.531 7.134-27.266 17.45l49.305-7.836a29.898 29.898 0 0 0-22.037-9.614h-.002z"/><path fill="#ffe239" d="m16.83 30.623 1.11-.065.878.4 3.897 4.43-.4.155-.335-.077-.865-.426-.774-.737-.826-1.226-.517-.607-1.33-1.111z"/><path fill="#feffbf" d="m63.206 81.847-4.94.176c.117.077 2.267 1.727 2.61 1.813 1.746.022 3.072.31 1.614.62-1.459.309-.309.75-.309.75l3.028-.33 3.117-.954-1.05-1.371z" clip-path="url(#g)" filter="url(#h)" transform="matrix(.41301 0 0 .41326 -8.028 -3.923)"/><path fill="#fdc91c" d="m67.131 922.87 4.508 8.662 3.403 2.828-2.475-3.27-.884-9.06 1.149 1.9.31-3.8 3.623 2.298 3.226-.928 1.017 2.873 2.386-3.36 1.503-3.932 3.403 5.391 2.43-4.066 9.9 7.38-13.126 19.049-12.816-.619.752 3.624 16.838 2.74 9.855-25.633-13.081-8.574-13.965.53z" clip-path="url(#i)" filter="url(#j)" transform="matrix(.41301 0 0 .41326 -8.028 -356.17)"/><path fill="#d1520b" d="m71.594 68.654.398 3.89.575-.663zm11.359.752-1.193 6.32.84-.177zm-4.773 21.17v1.06l-.664.221-.707-.752.619 3.006-2.297-1.018-.178 3.36 4.994-.178.928-1.943 1.148-2.475-1.414 1.457-.795.133-.22-1.326-.532 2.431-1.28-.619-.134-1.988.532-.178.087.973.354-.176v-1.68z" clip-path="url(#k)" filter="url(#l)" transform="matrix(.41301 0 0 .41326 -8.028 -3.923)"/><path fill="#f3620e" d="M23.093 35.353c.164-1.607.511-4.456.146-5.004-.365-.548-1.077-.621-1.606-1.279-.53-.657-2.428-2.703-2.428-2.703l-.949 1.59s4.271 6.94 4.837 7.396z"/><path fill="url(#m)" d="m22.948 35.66-.852-.22s-.671-.31-.761-.4c-.09-.09-.71-.439-.736-.581-.026-.142-.684-1.317-1.007-1.653s-1.768-1.614-2.039-1.86c-.27-.245-1.058-.762-1.38-.762-.246.012-.207.285-.388.285h-.194s-.27.011-.142.154c.13.143.207.336.44.297.232-.038.36-.129.787.13.425.258 1.239.62 1.664 1.071.426.452.788.491 1.627 1.86.839 1.37 3.304 2.312 2.981 1.68z"/><path fill="#fe7612" d="M23.585 35.736s-.493-.858-.913-1.425c-.42-.566-2.044-2.958-2.427-3.872-.384-.913-.931-2.63-.785-2.94.146-.31.383-.457.383-.457s-.292-.383-.146-.456c.146-.073.42-.128.42-.238 0-.11-.164-.31 0-.42.164-.11 1.004-.639 1.004-.639s-1.04-.968-1.46-1.132c-.42-.165-.62-.22-1.095.018s-.676-.054-1.06.074c-.382.127-.82.401-.893.53-1.26.602-1.169.766-1.169.894 0 0-1.095.256.073 1.315 1.169 1.06 2.209 2.575 2.574 3.214.365.64 1.551 2.411 1.825 2.795.274.383.876 1.497 2.702 2.63 1.825 1.132.967.11.967.11z"/><path fill="#fdbb1c" d="m56.127 921.28 3.756 5.392-2.695-5.304 3.668 1.459-.751-3.492 3.535 3.669-2.298-5.922 5.17 8.573.089-8.22 6.63 2.254s2.916 20.594 1.148 22.097-1.37 2.873-.795 3.58l.574.707-.088.751 3.093 1.945 2.21-29.654-12.153-3.624s-6.364.22-10.562 1.547c-4.198 1.325-.53 4.242-.53 4.242z" clip-path="url(#n)" filter="url(#o)" transform="matrix(.41301 0 0 .41326 -8.028 -356.17)"/><path fill="url(#p)" d="M24.215 35.338a2.096 2.096 0 0 0-.228.019c-.368.038-1.09.232-1.362.361-.27.13-.335.426-.31.51.026.084-.096.22.813.11 0 0 .252.207.51.859.186.47.306 1.425.375 2.039l.585-.095c-.159-.584-.41-1.517-.476-1.866-.09-.478-.025-.717.026-.904.052-.188.49-.356.73-.362.238-.007.386-.123-.04-.407-.319-.213-.432-.266-.623-.263z"/><path fill="url(#r)" d="m71.969 950.08 1.922-2.547 6.047-.5 2.14 2.422s-2.526-.531-7.14 3.094c-.875.687-2.969-2.47-2.969-2.47z" clip-path="url(#q)" filter="url(#s)" opacity=".556" transform="matrix(.41301 0 0 .41326 -8.028 -356.17)"/><path fill="#8a3d2d" d="M24.215 35.338a2.096 2.096 0 0 0-.228.019c-.368.038-1.09.232-1.362.361-.27.13-.335.426-.31.51a.069.069 0 0 1 .003.025c.404-.308.527-.353.843-.367.432-.018.613-.265.806-.31.194-.045.433.162.62.09l.214-.087c-.286-.19-.404-.243-.586-.24z"/></g><g fill="#858585" stroke-width="2.421"><path d="m35.666 18.967.196-.033.099.592.709-.12-.1-.59.196-.034.242 1.444-.195.033-.116-.688-.709.12.115.687-.195.032zm2.55.456.015.087-.817.137q.042.182.157.262.115.08.292.05.103-.017.194-.059.092-.041.179-.107l.028.168q-.089.057-.186.095t-.2.055q-.26.044-.436-.082-.176-.125-.22-.382-.044-.266.073-.446.118-.18.361-.222.219-.036.369.084.151.119.191.36zm-.186-.022q-.026-.146-.121-.22-.094-.073-.225-.051-.15.025-.225.124-.075.1-.063.254l.634-.107zm.977-.068q-.215.036-.29.099-.075.063-.055.182.016.095.087.14.072.045.18.027.147-.025.218-.144.073-.12.043-.294l-.006-.04-.177.03zm.342-.133.104.617-.178.03-.028-.164q-.044.109-.127.171-.083.062-.214.084-.166.028-.28-.048-.114-.078-.14-.234-.03-.183.075-.296.108-.114.35-.154l.25-.042-.003-.018q-.021-.122-.113-.176-.092-.054-.238-.03-.093.016-.177.053-.084.037-.158.095l-.027-.164q.091-.054.18-.088.088-.035.175-.05.235-.039.372.064t.177.35zm1.029-.483-.098-.586.178-.03.252 1.505-.178.03-.027-.163q-.04.106-.118.168-.078.06-.197.08-.197.034-.346-.102-.15-.136-.192-.391-.043-.256.054-.433t.293-.21q.12-.02.213.013.094.032.166.12zm-.543.48q.033.196.132.295.1.097.241.074.141-.024.204-.149.062-.125.03-.322t-.133-.294q-.1-.098-.241-.075-.141.024-.204.15-.061.125-.029.32zm2.661-.563.11.654-.178.03-.109-.648q-.025-.154-.098-.22-.073-.066-.193-.046-.144.024-.211.13-.068.105-.042.264l.103.612-.179.03-.181-1.083.179-.03.028.168q.047-.108.125-.17.079-.064.192-.083.186-.031.302.069.115.099.152.323zm.724-.435q-.142.023-.206.15-.065.125-.032.32t.133.292q.102.097.246.073.142-.024.206-.15t.032-.32q-.032-.192-.134-.29-.102-.1-.244-.075zm-.024-.151q.231-.04.39.09t.201.395q.045.266-.062.44-.107.173-.339.212-.233.039-.39-.09-.157-.13-.202-.396-.045-.266.062-.44.107-.172.34-.211zm1.449-.046q-.033-.013-.07-.015-.036-.002-.078.005-.151.025-.216.137-.064.111-.033.295l.096.57-.18.03-.18-1.082.178-.03.028.168q.04-.108.122-.17.082-.064.21-.086.018-.003.041-.004l.05-.001.032.183zm.285-.534.052.307.366-.061.023.138-.366.061.098.588q.022.133.065.164.043.032.154.013l.182-.03.025.149-.182.03q-.206.035-.297-.028-.091-.065-.125-.268l-.099-.588-.13.022-.024-.138.13-.022-.05-.307.178-.03zm1.624.486.11.653-.178.03-.109-.648q-.025-.153-.098-.22-.073-.066-.192-.046-.144.024-.212.13-.068.106-.041.264l.102.612-.179.03-.252-1.504.18-.03.098.59q.047-.109.125-.171.08-.063.192-.082.187-.032.302.068.115.1.152.324zm1.356-.542q-.144.024-.208.15-.065.125-.032.32t.133.293q.102.097.246.073.142-.024.207-.15.064-.126.031-.32-.032-.192-.134-.29-.102-.1-.244-.076zm-.026-.15q.232-.04.39.09.157.128.202.395.044.266-.063.44-.107.173-.339.211-.232.04-.39-.09-.157-.129-.201-.395-.045-.267.061-.44.107-.173.34-.212zm1.766.173.11.653-.178.03-.108-.648q-.026-.154-.099-.22-.073-.066-.192-.046-.144.024-.212.13-.068.106-.041.264l.102.612-.178.03-.182-1.083.179-.03.028.168q.048-.108.125-.17.08-.064.192-.083.187-.03.302.07.115.098.152.322zm-13.29 4.399.051.307.366-.061.024.138-.367.062.099.588q.022.132.064.164.043.031.154.013l.183-.031.025.149-.183.03q-.206.035-.297-.028-.09-.064-.125-.267l-.098-.588-.13.022-.024-.139.13-.022-.051-.307.179-.03zm1.624.486.11.654-.178.03-.109-.648q-.026-.154-.098-.22-.073-.067-.193-.047-.144.024-.212.13-.067.106-.04.265l.102.612-.179.03-.252-1.505.179-.03.099.59q.047-.108.125-.171.079-.063.192-.082.186-.031.301.069.115.099.153.323zm1.293-.15.015.087-.818.137q.043.182.157.262.116.08.293.05.102-.018.194-.059.092-.041.178-.107l.028.168q-.088.057-.185.095t-.2.055q-.26.044-.437-.082-.176-.125-.219-.382-.044-.266.073-.446.117-.18.361-.222.218-.036.369.084.15.118.191.36zm-.186-.022q-.027-.146-.122-.22-.093-.073-.225-.051-.149.025-.224.124-.075.1-.063.254l.634-.107zm1.72-.713.028.169q-.082-.027-.166-.032-.084-.006-.171.009-.133.022-.193.074-.059.051-.045.132.01.062.064.09.053.027.201.035l.063.003q.197.01.288.07.093.06.115.193.025.15-.08.259-.104.108-.313.143-.087.014-.184.013-.097-.001-.207-.017l-.03-.184q.107.035.207.045.1.009.193-.007.126-.021.186-.075.06-.055.048-.133-.012-.073-.068-.103-.055-.03-.226-.039l-.065-.004q-.17-.007-.256-.066-.086-.06-.107-.186-.025-.153.07-.254.093-.101.292-.135.099-.016.188-.016t.168.016zm1.123-.175.028.166q-.082-.03-.162-.037-.08-.008-.156.005-.173.029-.25.155-.078.125-.045.323t.148.293q.114.093.287.064.077-.013.149-.046.073-.034.141-.088l.028.164q-.069.048-.146.078-.077.031-.166.046-.245.041-.415-.088-.17-.13-.213-.391-.045-.265.075-.441t.374-.219q.082-.014.163-.01t.16.026zm1.313.245.014.087-.817.137q.042.181.157.262.115.079.292.049.103-.017.194-.058.092-.042.179-.108l.028.168q-.089.057-.186.095t-.2.056q-.26.043-.436-.082-.176-.126-.22-.383-.044-.266.073-.446.118-.18.361-.221.219-.037.369.083.151.119.192.36zm-.187-.023q-.026-.146-.121-.22-.094-.073-.225-.05-.15.024-.225.123-.075.1-.063.254l.634-.107zm1.367-.242.11.653-.178.03-.109-.648q-.026-.154-.098-.22-.073-.066-.193-.046-.144.024-.211.13-.068.106-.042.264l.103.612-.179.03-.181-1.083.179-.03.028.168q.047-.108.125-.17.079-.064.192-.083.186-.03.302.07.114.098.152.322zm.285-.492.177-.03.182 1.083-.178.03zm-.071-.422.178-.03.037.226-.177.03zm1.405.244.028.166q-.082-.029-.162-.036-.079-.009-.156.004-.173.029-.25.155-.077.126-.044.324t.147.292q.114.093.287.064.077-.013.15-.045.072-.035.14-.089l.028.165q-.069.047-.146.078-.076.03-.166.045-.245.041-.414-.088-.17-.13-.214-.39-.044-.266.075-.442.12-.176.374-.218.082-.014.163-.01.081.003.16.025zm1.981-.634.034.206q-.114-.075-.233-.102-.12-.027-.245-.006-.247.042-.353.216-.106.172-.058.459.047.285.204.415.157.128.404.087.126-.021.23-.085.104-.064.187-.173l.034.204q-.09.087-.2.141-.108.054-.235.075-.328.055-.55-.113-.222-.17-.28-.517-.059-.348.096-.58.155-.232.483-.287.13-.022.249-.006.12.014.233.066zm.799-.05-.144.763.53-.09zm-.142-.174.22-.037.793 1.351-.203.034-.194-.348-.65.109-.07.392-.205.035zm-12.011 5.015.195-.033.1.592.709-.119-.1-.591.196-.033.241 1.443-.195.033-.115-.687-.71.119.116.687-.195.033zm1.54.111.178-.03.182 1.083-.178.03zm-.07-.422.178-.03.037.226-.178.03zm1.42.74q-.032-.193-.13-.286-.097-.093-.241-.07-.143.025-.206.145-.061.12-.029.313.033.192.13.285.098.093.24.069.145-.024.206-.144.062-.12.03-.312zm.248.39q.047.276-.054.431-.1.156-.353.199-.094.015-.18.015-.084 0-.168-.016l-.029-.173q.086.03.166.037.08.008.159-.006.174-.029.246-.135.072-.106.04-.29l-.014-.088q-.039.105-.117.166t-.198.082q-.199.034-.346-.098-.147-.131-.19-.382-.041-.251.055-.423t.295-.206q.12-.02.214.013t.165.12l-.027-.165.177-.03.16.949zm1.179-.73.11.654-.178.03-.108-.648q-.026-.154-.099-.22-.073-.067-.192-.047-.144.025-.212.13-.068.106-.041.265l.102.612-.178.03-.252-1.505.178-.03.1.59q.046-.108.124-.171.08-.063.192-.082.187-.031.302.069.115.099.152.323zm.181-.474.178-.03.364.808.08-.883.21-.035.363.808.08-.882.178-.03-.102 1.13-.21.036-.381-.849-.085.927-.21.035zm2.306.17q-.216.036-.29.1-.075.063-.055.182.015.095.087.14.072.045.179.027.148-.025.22-.144.071-.12.042-.295l-.006-.04-.177.03zm.342-.133.104.618-.178.03-.028-.164q-.044.108-.127.171-.083.062-.214.084-.167.028-.28-.049-.114-.077-.14-.234-.03-.183.075-.296.108-.113.35-.154l.25-.042-.004-.017q-.02-.123-.112-.176-.092-.054-.238-.03-.093.016-.177.053t-.158.095l-.027-.164q.09-.054.18-.088.088-.035.175-.05.235-.039.371.063.137.103.178.35zm.938.581q-.043.206-.105.277-.061.07-.181.09l-.142.025-.025-.15.104-.017q.074-.012.109-.054.034-.041.062-.18l.018-.086-.616-.992.188-.032.48.79.197-.903.188-.032-.277 1.264zm1.365-.502.32-.053-.185-1.101-.335.127-.03-.178.333-.127.195-.033.215 1.28.318-.054.028.164-.831.14zm1.802-1.563.051.307.367-.061.023.138-.367.062.099.587q.022.133.064.165.043.031.154.013l.183-.031.025.149-.183.03q-.206.035-.297-.028-.09-.065-.125-.268l-.098-.587-.13.021-.024-.138.13-.022-.05-.307.178-.03zm1.093.261q-.143.024-.208.15-.064.125-.032.32t.134.292q.102.097.245.073.143-.024.207-.15t.032-.32q-.032-.192-.134-.29-.102-.099-.244-.075zm-.026-.151q.232-.039.39.09t.202.395q.045.266-.062.44-.107.173-.34.212-.232.04-.39-.09-.157-.13-.201-.395-.045-.267.061-.44.107-.173.34-.212zM37.29 27.44l.05.307.367-.061.023.138-.366.062.098.587q.022.133.064.165.043.031.155.012l.182-.03.025.149-.182.03q-.206.035-.297-.028-.092-.065-.126-.268l-.098-.588-.13.022-.024-.138.13-.022-.05-.307.178-.03zm1.623.482.109.653-.178.03-.108-.648q-.026-.153-.099-.22-.072-.066-.192-.046-.144.024-.212.13-.068.106-.041.264l.102.612-.178.03-.252-1.504.178-.03.1.59q.047-.109.125-.171.078-.063.191-.082.187-.032.302.068.115.1.153.324zm1.293-.146.015.087-.817.137q.042.182.157.262.115.08.292.05.102-.018.194-.059.092-.041.179-.107l.028.168q-.09.056-.186.095-.097.038-.2.055-.26.043-.436-.082t-.22-.383q-.044-.266.073-.445.118-.181.361-.222.219-.036.369.083.151.12.191.361zm-.186-.022q-.026-.146-.121-.22-.094-.073-.226-.051-.148.025-.224.124-.075.099-.063.254l.634-.107zm.773-.956 1.22-.205.028.164-.513.086.215 1.28-.196.032-.215-1.279-.512.086z"/><path d="M42.36 27.034q-.144.024-.208.15-.064.125-.032.32.033.194.134.292.101.097.245.073.142-.024.207-.15.064-.126.032-.32-.033-.192-.135-.29-.102-.1-.244-.075zm-.026-.151q.232-.04.39.09.157.128.202.395.045.266-.062.44-.108.173-.34.212-.232.039-.39-.09-.157-.13-.201-.395-.045-.267.061-.44.107-.173.34-.212zm1.672-.042q.047-.13.13-.203.083-.073.209-.094.169-.028.28.075.112.103.149.321l.11.654-.18.03-.108-.648q-.026-.156-.094-.222t-.18-.047q-.139.023-.204.128-.065.106-.038.264l.103.612-.18.03-.108-.648q-.026-.156-.094-.221-.067-.067-.182-.047-.136.023-.201.129-.065.105-.039.263l.103.612-.179.03-.181-1.083.179-.03.028.168q.044-.11.121-.171t.194-.082q.118-.02.21.027.093.046.152.153zm1.634.066q-.216.036-.291.1-.075.062-.055.181.016.095.087.14.072.045.18.027.147-.024.219-.144.072-.12.043-.294l-.007-.04-.177.03zm.342-.133.103.618-.178.03-.027-.165q-.045.109-.127.172-.084.061-.215.083-.166.028-.28-.048-.114-.078-.14-.234-.03-.183.076-.296.107-.114.35-.154l.249-.042-.003-.017q-.02-.123-.113-.176-.092-.055-.237-.03-.093.015-.177.052t-.158.096l-.028-.165q.091-.054.18-.088.089-.034.176-.049.234-.04.37.063.137.102.179.35zm.218-.946.178-.03.252 1.505-.177.03zm1.629.67.014.087-.817.137q.042.182.157.262.116.079.292.05.103-.018.194-.06.093-.04.179-.107l.028.168q-.089.057-.186.095t-.2.056q-.259.043-.436-.082-.176-.126-.219-.383-.045-.266.072-.446.118-.18.362-.221.218-.037.368.083.151.119.192.36zm-.187-.023q-.026-.145-.12-.219-.095-.074-.226-.052-.149.025-.225.125-.075.099-.062.254l.633-.108zm1.091-.607.028.169q-.082-.026-.166-.032-.085-.006-.172.009-.132.022-.192.074-.059.051-.045.133.01.062.063.09.054.026.202.034l.063.003q.196.01.288.07.092.06.115.193.025.15-.08.259-.104.108-.313.143-.087.014-.185.013-.096 0-.206-.017l-.03-.184q.106.035.206.045.1.009.194-.007.126-.02.186-.075.06-.055.047-.133-.012-.072-.068-.103-.054-.03-.226-.038l-.064-.005q-.171-.007-.256-.066-.086-.06-.107-.186-.026-.153.069-.254.094-.101.293-.135.099-.016.188-.016.09 0 .168.016zm-10.96 4.672.09.541.246-.04q.137-.024.2-.107.062-.083.04-.213t-.108-.188q-.086-.058-.223-.035zm-.222-.129.44-.074q.243-.04.385.05.143.088.179.3.035.213-.07.343-.106.13-.349.17l-.245.042.097.58-.195.033zm1.617.225q-.143.024-.207.15-.065.125-.032.32t.133.292q.102.098.246.073.142-.023.207-.15.064-.126.031-.319-.032-.192-.134-.29-.102-.1-.244-.076zm-.025-.15q.232-.04.39.089.157.129.202.395.044.266-.063.44-.107.173-.339.212-.232.04-.39-.09-.157-.129-.201-.395-.045-.267.061-.44.107-.173.34-.212zm.795-.105.178-.03.181 1.083-.178.03zm-.07-.421.177-.03.038.225-.178.03zm1.59.606.11.654-.178.03-.109-.648q-.025-.154-.098-.22-.073-.066-.193-.046-.144.024-.211.13-.068.105-.041.264l.102.612-.179.03-.181-1.083.179-.03.028.168q.047-.108.125-.17.079-.064.192-.083.187-.031.302.069.115.099.152.323zm.409-.826.052.307.366-.062.023.139-.366.061.099.588q.022.132.064.164.043.032.154.013l.183-.03.024.148-.182.03q-.206.035-.297-.028-.091-.064-.125-.267l-.099-.588-.13.022-.023-.138.13-.022-.051-.308.178-.03zm1.03-.228 1.22-.205.028.165-.512.086.214 1.279-.196.033-.214-1.28-.512.086z"/><path d="m44.15 30.35-.11-.656.178-.03.109.649q.026.154.098.221.073.066.193.046.144-.024.212-.13.068-.106.042-.264l-.103-.614.178-.03.181 1.083-.178.03-.028-.167q-.048.11-.126.173-.077.061-.19.08-.186.032-.302-.068t-.154-.323zm1.094-1.294.178-.03.252 1.504-.178.03zm1.629.674.014.087-.817.137q.042.181.157.262.115.079.292.049.103-.017.194-.058.093-.042.179-.108l.028.168q-.089.057-.186.095t-.2.056q-.26.043-.436-.082-.176-.126-.22-.383-.044-.266.073-.446.118-.18.361-.221.219-.037.37.083.15.119.19.36zm-.187-.023q-.026-.146-.121-.22-.094-.073-.225-.05-.15.024-.225.123-.075.1-.063.254l.634-.107zm.972-.993.912-.153.028.164-.717.12.071.428.687-.116.028.165-.687.115.088.523.734-.123.027.164-.93.156zm1.234-.27.178-.03.252 1.504-.178.03zm.542-.091.18-.03.148.889.452-.556.227-.039-.489.603.695.476-.232.04-.638-.437.088.528-.179.03zM38.16 33.328l.091.542.245-.041q.137-.023.2-.106.062-.083.04-.214-.022-.13-.108-.187-.086-.058-.222-.035zm-.222-.128.44-.074q.243-.04.385.049.143.088.179.3.036.214-.07.344-.106.13-.349.17l-.245.042.097.58-.195.033zm1.867.229q-.033-.012-.07-.014-.036-.003-.078.004-.151.025-.216.138-.064.11-.033.294l.096.57-.18.03-.18-1.082.178-.03.028.168q.04-.108.122-.17.082-.064.21-.085.019-.003.041-.004.023-.002.05-.002l.032.183zm1.127.151.015.086-.818.137q.043.182.157.262.116.08.293.05.102-.017.194-.059.092-.04.178-.107l.029.168q-.09.057-.186.095-.097.038-.2.055-.26.044-.436-.082-.176-.125-.22-.382-.044-.266.073-.446.118-.18.361-.221.218-.037.369.083.15.119.191.36zm-.186-.023q-.027-.146-.121-.22-.094-.073-.226-.051-.149.025-.224.124-.075.1-.063.254l.634-.107zm1.09-.607.028.168q-.082-.026-.166-.031-.084-.006-.171.008-.133.023-.193.074-.059.052-.045.133.01.062.064.09.053.027.201.035l.063.003q.197.009.288.07.093.06.115.193.025.15-.08.259-.104.107-.313.142-.087.015-.184.014-.097-.001-.207-.018l-.03-.183q.107.034.207.045.1.009.193-.007.126-.021.186-.075.06-.055.048-.133-.012-.073-.068-.103-.055-.03-.226-.039l-.064-.004q-.172-.007-.257-.066-.086-.06-.107-.186-.025-.153.07-.254.093-.102.292-.135.099-.016.188-.017t.168.017zm1.346.252.014.087-.817.137q.042.182.157.262.116.08.293.05.102-.018.193-.059.093-.041.18-.107l.027.168q-.089.057-.185.095-.097.038-.2.055-.26.044-.437-.082-.176-.125-.219-.383-.044-.265.073-.445.117-.18.36-.222.22-.036.37.084.15.118.19.36zm-.187-.022q-.026-.146-.12-.22-.095-.073-.226-.051-.149.025-.225.124-.074.099-.062.254l.633-.107zm1.051-.462q-.033-.013-.07-.014-.037-.003-.08.004-.15.025-.215.138-.063.11-.033.294l.096.57-.179.03-.181-1.082.179-.03.028.168q.04-.108.121-.17.082-.064.21-.085.019-.003.042-.004.022-.002.05-.002l.032.183zm.032-.178.189-.031.49.852.186-.965.189-.032-.225 1.15-.242.041zm2.308.125.015.087-.818.137q.042.182.157.262.116.079.293.05.102-.018.193-.06.093-.04.18-.107l.027.169q-.089.056-.185.094-.097.038-.2.056-.26.043-.437-.082-.176-.126-.219-.383-.044-.266.073-.445.117-.181.36-.222.22-.037.37.083.15.119.191.36zm-.187-.023q-.026-.145-.12-.219-.095-.074-.226-.052-.149.025-.225.125-.074.099-.062.254l.633-.107zm1.15-.968.051.307.366-.061.023.138-.366.061.099.588q.022.133.064.164.043.032.154.013l.183-.03.025.149-.183.03q-.206.035-.297-.029t-.125-.267l-.099-.588-.13.022-.023-.138.13-.022-.051-.307.179-.03zm1.308.271q-.033-.013-.07-.015-.037-.002-.08.005-.15.025-.215.137-.063.111-.033.295l.096.57-.179.03-.181-1.082.179-.03.028.168q.04-.108.121-.17.082-.064.21-.086.019-.003.042-.004l.05-.001.032.183zm.742.256q-.216.037-.29.1-.075.063-.055.182.016.095.087.14.072.045.18.027.147-.025.218-.144.073-.12.043-.295l-.006-.04-.177.03zm.342-.133.104.618-.178.03-.028-.164q-.044.109-.127.171-.083.062-.214.084-.167.028-.28-.049-.114-.077-.14-.234-.03-.182.075-.296.108-.113.35-.154l.25-.041-.003-.018q-.021-.123-.113-.176-.092-.054-.238-.03-.093.016-.177.053t-.158.095l-.027-.164q.091-.054.18-.088.088-.035.175-.05.235-.039.371.064.137.102.178.35zm-10.237 4.718.11.653-.178.03-.108-.648q-.026-.154-.099-.22-.073-.066-.192-.046-.144.024-.212.13-.068.106-.041.264l.102.612-.179.03-.252-1.504.18-.03.098.59q.047-.109.125-.172.08-.063.192-.081.187-.032.302.068.115.1.152.324zm1.294-.15.014.087-.817.137q.042.182.157.262.115.079.292.05.103-.018.194-.06.093-.04.179-.107l.028.168q-.089.057-.186.095t-.2.056q-.26.043-.436-.082-.176-.126-.22-.383-.044-.266.073-.446.118-.18.361-.221.219-.037.37.083.15.119.19.36zm-.187-.023q-.026-.145-.121-.219-.094-.074-.225-.052-.15.025-.225.125-.075.099-.063.254l.634-.108zm.977-.068q-.215.036-.29.1-.075.063-.055.182.016.094.087.14.072.045.18.027.147-.025.219-.144.072-.12.043-.295l-.007-.04-.177.03zm.342-.133.104.618-.178.03-.027-.165q-.045.11-.128.172-.083.061-.214.084-.166.027-.28-.049-.114-.077-.14-.234-.03-.183.076-.296.107-.113.35-.154l.249-.042-.003-.017q-.02-.123-.113-.176-.092-.054-.238-.03-.092.016-.177.053-.084.037-.158.095l-.027-.165q.091-.054.18-.087.088-.035.175-.05.235-.04.372.063.136.103.177.35zm1.03-.478-.098-.586.177-.03.252 1.504-.177.03-.028-.162q-.04.106-.117.168-.078.06-.198.08-.196.033-.346-.103-.149-.136-.191-.39-.043-.256.053-.433.098-.178.294-.21.12-.02.213.012.094.032.166.12zm-.543.48q.033.196.132.294.1.098.241.074.141-.023.204-.148.062-.126.03-.322-.034-.197-.134-.294-.1-.099-.24-.075-.142.024-.204.15-.062.124-.029.32zm1.225.096.204-.033.04.245-.203.034zm1.556-1.295-.145.763.531-.09zm-.142-.174.22-.037.792 1.351-.203.034-.193-.348-.65.109-.07.392-.205.035zm1.728.113.028.168q-.082-.026-.166-.031-.084-.006-.171.008-.133.023-.193.074-.059.052-.045.133.01.062.064.09.053.027.201.035l.063.003q.197.009.288.07.093.06.115.193.025.15-.08.258-.104.108-.313.143-.087.015-.184.013-.097 0-.207-.017l-.03-.183q.107.034.207.044.1.01.193-.006.126-.021.186-.075.06-.055.048-.133-.012-.073-.068-.103-.055-.03-.226-.039l-.064-.004q-.172-.007-.257-.066-.086-.06-.107-.186-.025-.153.07-.254.093-.102.292-.135.099-.016.188-.017.09 0 .168.017zm1.616.915q-.043.206-.105.277-.062.07-.181.091l-.142.024-.025-.15.104-.017q.073-.012.108-.053.035-.042.063-.18l.018-.086-.616-.993.188-.031.48.79.196-.904.189-.031-.277 1.263zm-35.603 7.904q-.203.032-.275.092t-.054.177q.013.092.08.138.066.045.168.029.139-.022.208-.137.07-.116.045-.286l-.006-.039-.166.026zm.323-.124.088.603-.168.026-.023-.16q-.043.105-.122.165-.08.059-.203.078-.157.025-.263-.051-.105-.078-.127-.23-.026-.179.076-.287.102-.11.33-.145l.236-.037-.003-.017q-.017-.12-.103-.173-.085-.054-.223-.032-.087.013-.167.048-.08.035-.15.09l-.023-.16q.087-.052.17-.083.084-.033.166-.045.221-.035.348.067.126.102.161.343zm.221-.919.168-.025.212 1.468-.167.026zm.989.39q-.135.021-.197.143-.063.121-.035.31t.12.288q.095.096.23.075.134-.021.197-.143.062-.122.035-.31-.028-.188-.122-.286-.094-.098-.228-.077zm-.021-.147q.218-.034.364.094.146.127.184.388.038.26-.065.427-.104.167-.322.201-.22.034-.366-.093-.145-.13-.183-.389-.037-.26.065-.427.103-.167.323-.2zm1.657.197.093.638-.168.026-.092-.632q-.021-.15-.089-.216-.067-.065-.18-.048-.135.022-.2.124t-.044.256l.087.598-.168.026-.154-1.057.169-.026.024.164q.046-.105.12-.165.075-.06.182-.077.175-.027.282.072.106.098.138.317zm1.021-.062q-.028-.189-.118-.28-.09-.093-.226-.071-.135.02-.195.136t-.032.305q.027.187.117.28.09.092.225.07.136-.02.195-.136.06-.116.034-.304zm.226.384q.04.27-.057.419-.096.15-.335.187-.088.014-.169.012-.08 0-.158-.017l-.024-.17q.08.03.154.04.075.008.15-.004.165-.026.234-.128.069-.102.042-.282l-.012-.086q-.038.102-.113.16t-.187.077q-.187.03-.324-.1-.136-.13-.171-.375-.036-.246.057-.412.094-.166.281-.195.113-.018.2.016t.154.118l-.023-.16.167-.026.134.926zm.927-1.398.044.3.345-.054.02.135-.346.054.083.573q.02.13.058.161.04.032.145.015l.172-.027.02.146-.171.027q-.194.03-.279-.033-.084-.064-.113-.262l-.083-.574-.123.02-.02-.136.123-.019-.043-.3.168-.026zm1.518.498.092.638-.167.026-.092-.632q-.022-.15-.089-.216t-.18-.048q-.136.021-.2.123t-.044.257l.087.597-.168.026-.213-1.468.168-.026.084.575q.046-.105.12-.164.075-.06.182-.077.175-.028.282.071.106.099.138.318zm1.218-.123.012.085-.77.12q.037.178.143.258.108.079.274.053.097-.016.183-.054.088-.039.17-.102l.024.164q-.085.054-.176.09-.092.035-.19.05-.243.039-.408-.086-.163-.125-.2-.376-.037-.26.076-.433.113-.174.342-.21.206-.032.345.087.14.118.175.354zm-.175-.025q-.023-.142-.11-.215-.088-.073-.211-.054-.14.022-.213.117-.072.096-.063.247l.597-.095zm.875-.583.168-.026.329.792.089-.857.197-.031.33.792.088-.858.167-.026-.113 1.099-.198.03-.345-.831-.094.9-.198.032zm1.624-.254.167-.026.153 1.057-.167.026zm-.06-.412.167-.026.032.22-.167.026zm1.485.618.092.638-.167.027-.092-.633q-.022-.15-.089-.216t-.18-.048q-.136.022-.2.124t-.044.256l.087.598-.168.026-.154-1.057.169-.026.023.164q.047-.105.12-.165.076-.06.183-.076.175-.028.282.071.106.098.138.317zm.969-.415-.083-.572.168-.027.213 1.469-.168.026-.023-.158q-.039.102-.113.161-.074.058-.187.076-.184.029-.323-.106-.138-.135-.174-.384t.057-.42q.095-.171.28-.2.112-.018.2.016.087.033.153.119zm-.517.458q.028.192.12.29.091.096.224.075t.194-.141q.06-.122.033-.313-.028-.192-.12-.288-.093-.098-.226-.077t-.193.142q-.06.12-.032.312zm1.598.389q-.043.2-.102.268-.06.068-.172.086l-.134.02-.021-.145.098-.015q.07-.01.103-.05.033-.04.06-.175l.02-.084-.564-.975.178-.028.438.777.199-.877.178-.027-.28 1.225zm1.227-1.681.044.3.345-.054.02.135-.346.054.084.574q.018.129.057.16.04.032.145.015l.172-.027.021.146-.172.027q-.194.03-.278-.033-.085-.064-.114-.262l-.083-.574-.123.02-.02-.136.123-.019-.043-.3.168-.026zm1.224.28q-.03-.012-.065-.015-.034-.003-.074.003-.142.022-.205.13-.061.108-.035.287l.08.557-.168.026-.153-1.057.168-.026.024.164q.039-.104.117-.164.078-.06.199-.08.017-.002.038-.002.021-.002.048-.001l.026.178zm.694.262q-.203.031-.275.092t-.054.176q.013.093.08.138.066.045.167.029.14-.022.209-.137.07-.116.045-.286l-.006-.039-.166.027zm.323-.125.088.604-.168.026-.023-.16q-.043.105-.122.164-.08.059-.203.078-.157.025-.263-.051-.105-.077-.127-.23-.026-.179.076-.287.102-.109.33-.145l.236-.036-.003-.017q-.017-.12-.103-.173-.085-.055-.223-.033-.087.014-.167.048-.08.035-.15.09l-.023-.16q.087-.051.17-.083.084-.032.166-.045.221-.035.348.067.126.102.161.343zm.281-.506.167-.026.153 1.057-.167.026zm-.06-.412.167-.026.032.22-.167.026zm.517-.081.168-.026.213 1.468-.168.027zm.739 1.144.191-.03.024.162-.106.325-.117.019.03-.314zm1.454.07q-.045.205-.105.274-.06.07-.175.088l-.136.021-.022-.148.1-.016q.07-.011.105-.052.034-.04.062-.177l.02-.086-.575-.997.181-.029.447.794.203-.896.18-.028-.285 1.252zm.942-1.226q-.137.022-.2.146-.064.124-.036.318.028.194.123.293.096.098.234.077.136-.022.2-.146.064-.125.036-.318-.028-.191-.124-.29-.096-.101-.233-.08zm-.021-.15q.222-.035.371.095t.188.397q.038.265-.067.437-.106.17-.328.205-.224.035-.373-.095-.148-.132-.186-.397-.039-.266.066-.437.105-.17.329-.205zm.839.563-.094-.654.17-.027.094.647q.022.154.09.222.07.067.184.049.138-.022.205-.126.067-.104.045-.263l-.089-.612.17-.027.157 1.08-.17.027-.025-.166q-.048.109-.123.17-.075.06-.184.077-.179.028-.288-.073t-.142-.324zm1.238-1.234.078.535-.158.025-.078-.535zm.353-.115.171-.027.217 1.5-.17.027zm.528-.084.17-.026.217 1.5-.17.028zm1.952.661q-.028-.193-.12-.287-.092-.094-.23-.072-.137.021-.2.14-.06.118-.032.31.028.192.12.287.092.094.229.072.138-.022.199-.14.062-.118.034-.31zm.231.392q.04.276-.059.428-.098.154-.34.192-.09.014-.173.012-.082 0-.16-.018l-.026-.172q.081.03.158.039.076.009.152-.003.168-.027.238-.131.07-.104.044-.289l-.013-.087q-.039.104-.115.164-.075.06-.19.078-.191.03-.33-.103-.14-.133-.175-.383-.036-.25.059-.42.095-.17.286-.2.115-.018.204.016.09.034.156.121l-.024-.164.171-.026.137.946zm1.176-.643.013.087-.785.123q.037.182.146.263.11.08.28.054.097-.015.186-.055t.172-.104l.025.168q-.086.055-.18.091-.093.037-.192.052-.249.04-.416-.088-.167-.128-.204-.385-.038-.265.076-.442.116-.178.35-.215.21-.032.351.09.143.12.178.361zm-.178-.025q-.023-.146-.113-.22-.088-.075-.215-.055-.142.022-.217.12-.073.097-.064.251l.609-.096zm.51-.849.045.306.351-.055.02.138-.351.055.085.587q.019.132.058.164.041.032.148.015l.175-.027.022.148-.176.028q-.197.031-.283-.033-.087-.066-.116-.268l-.085-.587-.125.02-.02-.138.125-.02-.044-.306.171-.027zm1.981.046.024.166q-.078-.03-.155-.039-.075-.01-.15.002-.165.026-.241.15-.076.124-.048.322.029.197.137.293.107.095.273.068.074-.011.144-.043.07-.033.136-.085l.024.164q-.066.046-.14.075-.074.03-.16.043-.235.037-.396-.095-.16-.132-.198-.392-.038-.264.08-.438.117-.173.36-.211.08-.013.157-.007.078.005.153.027zm.232-.509.17-.027.217 1.501-.17.027zm1.008.399q-.137.022-.2.146-.064.124-.036.318.028.194.123.293.096.099.234.077.136-.022.2-.146.063-.124.036-.317-.028-.192-.124-.292-.096-.1-.233-.079zm-.021-.15q.222-.035.371.095.149.131.187.397.039.265-.066.437-.106.17-.328.205-.224.035-.373-.095-.148-.132-.186-.397-.039-.266.066-.436.105-.17.329-.206zm1.429-.169.024.168q-.078-.027-.159-.034-.08-.007-.164.006-.127.02-.185.07-.057.051-.046.132.01.062.06.09.05.028.192.038l.06.004q.188.012.275.075.088.06.107.193.022.15-.08.256-.102.106-.303.138-.083.013-.176.01-.093-.003-.198-.02l-.026-.184q.102.036.197.048.096.01.186-.004.12-.019.18-.071.058-.054.046-.132-.01-.072-.063-.103-.052-.032-.216-.042l-.061-.006q-.164-.01-.245-.07-.08-.061-.099-.186-.022-.153.07-.252.092-.1.283-.13.095-.014.18-.013.086.001.16.02zm1.284.276.013.086-.785.124q.038.181.146.263.11.08.28.054.098-.016.186-.055.09-.04.173-.104l.024.167q-.086.055-.18.092-.093.036-.192.052-.249.039-.416-.089-.167-.128-.204-.384-.038-.265.077-.442.115-.178.35-.215.209-.033.35.089.143.12.178.362zm-.178-.026q-.023-.145-.112-.22-.089-.075-.215-.055-.143.023-.217.12-.073.097-.064.252l.608-.097zm.367-.043.5-.078.023.158-.5.079zm-33.393 7.956q-.135.021-.197.143-.063.121-.035.311t.12.288q.095.096.231.075.134-.021.197-.143.062-.122.035-.311-.028-.188-.122-.286-.094-.098-.229-.077zm-.02-.148q.218-.034.364.094.147.128.185.389.037.26-.066.428-.104.167-.323.201-.22.035-.366-.093-.145-.13-.183-.39-.038-.26.065-.427.103-.167.323-.202zm1.207-.582.02.144-.16.025q-.09.015-.12.058-.03.043-.015.142l.014.093.276-.043.02.135-.277.043.134.924-.169.026-.134-.923-.16.025-.02-.135.16-.025-.01-.074q-.026-.177.042-.27.068-.094.24-.12l.159-.025zm.916-.033.043.3.346-.054.02.135-.346.055.083.574q.02.13.058.161.04.032.145.015l.173-.027.02.146-.172.027q-.194.03-.279-.033-.085-.064-.113-.262l-.084-.575-.123.02-.02-.136.124-.02-.044-.3.169-.026zm1.522.501.092.64-.167.026-.092-.634q-.022-.15-.09-.216-.067-.066-.18-.048-.136.021-.201.124-.066.102-.043.257l.087.598-.17.027-.213-1.471.17-.027.083.577q.046-.105.12-.165.076-.06.182-.077.176-.028.283.072.107.098.139.317zm1.22-.123.012.085-.771.121q.037.178.143.258.108.079.275.053.097-.015.183-.054.088-.039.17-.102l.024.164q-.084.054-.176.09-.092.036-.19.05-.244.04-.409-.086-.164-.125-.2-.377-.038-.26.075-.433.114-.174.344-.21.206-.033.345.087.14.118.175.354zm-.175-.024q-.023-.143-.11-.216-.088-.074-.212-.054-.14.022-.213.117-.072.096-.063.247l.598-.094zm1.919-.249.012.085-.771.121q.037.178.143.258.108.079.275.053.097-.015.183-.054.088-.04.17-.102l.024.164q-.084.054-.176.09-.092.035-.19.05-.244.039-.409-.086-.163-.125-.2-.377-.038-.26.075-.433.114-.174.344-.21.206-.033.346.087.14.118.174.354zm-.175-.025q-.023-.142-.11-.215-.088-.074-.212-.054-.14.022-.213.117-.072.096-.063.247l.598-.095zm.321-.916.167-.027.214 1.471-.168.027zm.512-.08.168-.027.126.869.435-.535.214-.034-.47.58.646.475-.219.035-.594-.436.075.517-.168.027zm2.654.434.093.64-.168.026-.092-.634q-.022-.15-.09-.216-.067-.066-.18-.048-.136.021-.201.123-.065.103-.043.258l.087.598-.169.026-.213-1.47.168-.027.084.577q.046-.105.12-.165.076-.06.183-.077.176-.028.283.072.106.098.138.317zm1.22-.123.013.085-.772.121q.037.178.144.258.107.079.274.053.097-.015.184-.054t.17-.102l.023.164q-.084.054-.176.09-.092.035-.19.05-.244.04-.408-.086-.164-.125-.2-.377-.038-.26.075-.433.113-.174.343-.21.206-.033.346.087.14.118.174.354zm-.175-.025q-.022-.142-.11-.215-.088-.074-.212-.054-.14.022-.213.117-.072.096-.063.247l.598-.094zm.996-.435q-.03-.013-.066-.015-.034-.003-.074.003-.142.022-.205.13-.062.108-.036.288l.081.557-.168.027-.154-1.059.169-.026.024.164q.038-.105.117-.164.078-.06.199-.08.017-.003.039-.003.02-.001.047 0l.027.178zm.817-.132-.083-.573.168-.027.213 1.471-.168.027-.023-.16q-.04.104-.114.163-.073.058-.186.075-.186.03-.325-.105-.138-.135-.174-.385t.058-.42q.094-.172.28-.201.112-.018.2.016.087.032.154.119zm-.519.459q.028.192.12.29.092.096.226.075.133-.02.194-.141.06-.122.032-.314t-.12-.288q-.092-.098-.226-.077-.133.02-.193.142-.06.121-.033.313zm1.665-.771.024.165q-.077-.027-.156-.034-.08-.007-.162.006-.125.02-.182.07-.056.049-.044.128.008.06.058.089.05.027.19.037l.059.004q.184.012.27.073.086.06.105.19.02.147-.08.25-.1.104-.296.135-.083.013-.174.01-.091-.003-.195-.02l-.026-.18q.1.036.195.047.094.01.182-.003.119-.019.176-.07.058-.053.047-.13-.01-.07-.062-.101-.051-.03-.212-.041l-.06-.005q-.162-.01-.241-.069-.08-.06-.098-.183-.021-.15.069-.247.09-.097.278-.126.093-.015.177-.014t.158.02zm.461.736.193-.03.034.24-.192.03zm1.389-.753.077.54.301-.048q.152-.024.215-.102.064-.08.044-.217-.02-.138-.102-.192-.082-.054-.233-.03zm-.086-.607.063.445.278-.045q.138-.022.197-.087.06-.067.044-.18-.015-.111-.091-.155-.075-.045-.213-.023zm-.21-.134.48-.077q.214-.035.344.041t.154.252q.02.135-.029.225-.048.09-.16.128.142.009.233.098.091.087.112.237.028.198-.083.326t-.344.165l-.499.08zm2.312.524.013.09-.787.126q.038.186.147.27.11.082.28.054.098-.015.186-.056.09-.04.173-.107l.025.172q-.086.057-.18.094t-.193.053q-.25.04-.417-.09-.167-.131-.204-.394-.039-.272.077-.453.115-.183.35-.22.21-.034.352.09.143.124.178.371zm-.179-.025q-.023-.15-.112-.226-.09-.077-.216-.056-.143.023-.217.123-.073.1-.064.258l.61-.1zm1.415-.561q-.137.022-.2.15-.064.126-.036.325t.123.3q.096.101.235.079.136-.022.2-.15.064-.127.036-.325-.028-.196-.124-.298-.096-.103-.233-.081zm-.02-.154q.222-.036.371.098t.188.406q.039.272-.067.448-.105.174-.329.21-.224.036-.373-.098-.148-.134-.187-.406-.038-.273.066-.448.106-.174.33-.21zm1.691.204.095.669-.172.027-.093-.662q-.022-.157-.091-.226-.069-.07-.184-.05-.139.022-.205.128t-.044.27l.088.625-.172.028-.156-1.107.172-.028.024.172q.047-.11.123-.173.077-.062.186-.08.18-.029.288.075.109.103.141.332zm1.012-.934.044.315.353-.057.02.142-.353.056.085.601q.02.136.06.169.04.033.147.015l.176-.028.021.152-.175.029q-.198.031-.285-.035-.086-.066-.116-.274l-.085-.601-.125.02-.02-.141.125-.02-.044-.315.172-.027zm1.551.523.094.668-.17.027-.095-.662q-.022-.157-.09-.226-.07-.069-.184-.05-.139.022-.206.129t-.043.269l.088.625-.172.028-.217-1.538.172-.028.085.603q.047-.11.123-.172.077-.063.185-.08.18-.03.289.074.108.103.14.333zm1.243-.131.013.089-.787.126q.038.186.147.27.11.082.28.055.098-.016.186-.057.09-.04.173-.106l.025.172q-.086.056-.18.093-.094.038-.193.054-.25.04-.417-.091-.167-.131-.204-.394-.039-.272.077-.453.115-.182.35-.22.21-.034.352.091.143.124.178.37zm-.179-.026q-.023-.15-.112-.226-.09-.076-.216-.056-.143.023-.217.123-.073.1-.064.258l.61-.1zm.934-1.052.171-.027.218 1.538-.172.027zm1.01.406q-.138.022-.201.15-.064.126-.036.325t.123.3q.096.102.235.08.136-.023.2-.15.064-.128.036-.325-.028-.197-.124-.299-.096-.103-.233-.08zm-.022-.154q.223-.036.373.098.149.134.187.407.039.271-.067.447-.105.175-.328.21-.224.037-.374-.097-.148-.135-.186-.407-.04-.273.066-.447.105-.175.33-.21zm1.186-.033q-.138.022-.201.15-.064.126-.036.325t.123.3q.096.102.235.08.137-.023.2-.15.064-.128.036-.325-.028-.197-.124-.299-.096-.103-.233-.08zm-.022-.154q.223-.036.373.098.149.134.187.407.039.271-.067.447-.105.175-.328.21-.224.037-.374-.097-.148-.135-.186-.407-.039-.273.066-.447.105-.175.33-.21zm.697-.523.172-.028.129.909.443-.56.218-.035-.479.607.66.497-.224.035-.606-.455.077.54-.172.028zm2.2.215q-.138.022-.201.15-.064.126-.036.325t.123.3q.096.102.235.08.136-.023.2-.15.064-.128.036-.325-.028-.197-.124-.299-.096-.103-.233-.08zm-.022-.154q.223-.036.373.098.149.134.187.407.039.271-.067.447-.105.175-.328.21-.224.037-.374-.097-.148-.135-.187-.407-.038-.273.067-.447.105-.175.33-.21zm.841.578-.094-.67.171-.027.094.663q.022.157.09.227.07.069.185.05.138-.022.205-.129.068-.107.045-.269l-.09-.627.172-.028.157 1.107-.171.028-.025-.17q-.048.11-.123.173-.075.062-.184.08-.18.028-.29-.076-.109-.103-.141-.332zm1.257-1.21.044.315.353-.057.02.141-.353.057.085.601q.02.135.06.169.04.032.147.015l.176-.028.021.152-.175.028q-.199.032-.285-.034-.086-.067-.116-.274l-.085-.601-.125.02-.02-.141.125-.02-.044-.315.172-.028zM13.39 49.202l.174-.027.341.818.092-.886.205-.032.342.818.092-.885.174-.027-.118 1.134-.205.032-.358-.859-.098.93-.205.033zm1.684-.262.174-.028.16 1.092-.175.027zm-.062-.425.174-.027.033.227-.174.027zm.537-.086.173-.028.221 1.517-.173.027zm1.319.401-.086-.591.174-.027.221 1.516-.174.027-.024-.163q-.04.106-.117.167-.077.06-.194.078-.192.03-.336-.11-.143-.139-.18-.396-.038-.257.06-.434.097-.177.29-.207.116-.018.206.017.091.034.16.123zm-.537.473q.03.198.124.299.096.1.234.078.138-.022.2-.146.064-.126.035-.323t-.125-.298q-.096-.1-.233-.08-.138.022-.201.148-.062.124-.034.322zm.983-1.15.174-.027.221 1.517-.174.027zm.599.344.174-.027.159 1.091-.174.028zm-.062-.425.174-.027.033.227-.174.027zm1.072-.17.022.15-.167.026q-.093.014-.124.059-.03.044-.016.146l.014.096.287-.044.02.139-.286.045.138.952-.174.027-.14-.952-.165.026-.02-.14.166-.025-.012-.077q-.026-.182.044-.277.07-.097.249-.125l.164-.026zm1.185.762.013.088-.8.124q.039.184.15.266.11.081.283.054.1-.015.19-.055.091-.04.176-.105l.025.17q-.087.055-.183.092-.095.036-.196.052-.253.04-.424-.09-.17-.128-.207-.388-.039-.268.078-.446.118-.18.356-.217.213-.034.358.09.145.121.18.365zm-.182-.026q-.023-.146-.114-.222-.09-.076-.22-.056-.145.023-.22.122-.075.098-.065.254l.62-.097zm.542.322.2-.031.035.247-.2.032zm1.615.003-.75-1.371.199-.031.625 1.155.27-1.295.198-.03-.325 1.538zm1.07-1.156q-.14.022-.205.148-.065.125-.036.32t.125.297q.098.1.238.077.14-.021.204-.147.065-.126.036-.32-.028-.195-.126-.295-.097-.101-.236-.08zm-.022-.152q.226-.035.378.097t.19.4q.04.269-.067.442-.108.172-.334.207-.228.036-.38-.096-.15-.133-.19-.4-.039-.27.068-.442.107-.172.335-.208zm.714-.52.174-.027.221 1.516-.174.028zm.677 1.006-.096-.66.174-.028.095.654q.023.155.093.224.07.068.187.05.14-.022.208-.128.069-.105.046-.265l-.09-.619.173-.027.16 1.092-.174.027-.025-.168q-.049.11-.126.171-.076.061-.186.078-.183.029-.294-.073-.112-.103-.145-.328zm2.093-.559.096.658-.173.027-.096-.653q-.022-.154-.092-.222t-.187-.05q-.14.022-.209.127-.067.106-.044.265l.09.617-.175.028-.16-1.092.176-.027.024.17q.048-.109.125-.17.078-.063.189-.08.182-.028.293.074.11.101.143.328zm.413-.824.045.31.358-.056.02.14-.358.055.086.593q.02.133.06.166.042.032.15.015l.18-.028.021.15-.179.028q-.2.032-.289-.033-.087-.067-.117-.271l-.087-.593-.127.02-.02-.14.127-.02-.045-.309.175-.027zm1.611.576.012.088-.799.124q.038.184.149.266.111.081.284.055.1-.016.19-.056.091-.04.176-.105l.025.17q-.087.055-.183.092-.095.036-.196.052-.253.04-.424-.09-.17-.128-.207-.388-.04-.268.078-.446.118-.18.356-.217.213-.034.358.09.145.121.18.365zm-.182-.026q-.023-.146-.114-.222-.09-.076-.22-.056-.145.023-.22.122-.075.098-.066.254l.62-.097zm1.373-.16.012.088-.8.125q.04.183.15.266.111.08.284.054.1-.016.19-.056t.176-.105l.025.17q-.088.055-.183.092t-.196.053q-.253.039-.424-.09-.17-.129-.207-.388-.04-.268.078-.447.117-.18.355-.217.214-.033.359.09.145.122.18.365zm-.182-.025q-.024-.147-.115-.223-.09-.075-.219-.055-.145.023-.22.121-.075.098-.066.254l.62-.097zm1.032-.447q-.032-.013-.068-.015-.036-.003-.077.003-.148.023-.213.135-.064.11-.037.296l.084.575-.175.027-.159-1.092.175-.027.025.17q.04-.108.121-.17.08-.062.207-.082.017-.003.04-.003h.049l.028.183zm.838-.27.025.17q-.08-.028-.161-.035-.083-.008-.168.006-.13.02-.188.07-.059.052-.047.134.01.062.06.091.052.028.197.038l.061.005q.192.012.28.075.09.061.109.195.022.152-.082.259-.104.107-.308.139-.085.013-.18.01-.094-.003-.201-.02l-.027-.186q.104.037.201.048.097.011.19-.003.122-.02.182-.072.06-.055.048-.134-.01-.073-.064-.104-.053-.032-.22-.043l-.063-.005q-.167-.01-.249-.07-.082-.062-.1-.19-.023-.153.07-.253.094-.1.289-.131.096-.015.183-.014.087.002.163.02zm1.506.287q-.21.033-.284.095-.074.062-.057.182.014.096.083.143.07.046.174.03.145-.023.216-.142.073-.12.047-.295l-.006-.04-.173.027zm.336-.128.091.622-.174.027-.024-.165q-.045.108-.127.17-.082.06-.21.08-.163.026-.273-.053-.109-.08-.132-.237-.027-.184.079-.296.106-.113.343-.15l.244-.038-.003-.017q-.018-.124-.107-.179-.088-.056-.23-.034-.092.015-.174.05-.083.036-.156.093l-.024-.165q.09-.053.177-.086.087-.033.172-.046.23-.036.36.069.132.105.168.354zm.23-.949.173-.027.221 1.516-.173.027zm1.026.404q-.14.022-.204.148-.065.124-.037.32t.126.297q.097.1.238.077.14-.021.204-.147.065-.126.036-.32-.028-.195-.126-.295-.098-.102-.237-.08zm-.022-.152q.227-.035.379.097.151.131.19.4.04.268-.068.442-.107.172-.334.207-.227.036-.379-.096-.15-.133-.19-.401-.04-.27.067-.441.108-.172.335-.208zm1.72.202.096.658-.174.027-.095-.653q-.023-.155-.092-.222-.07-.068-.187-.05-.141.022-.209.127-.068.105-.044.265l.09.617-.175.027-.16-1.091.175-.027.025.17q.048-.109.125-.17.078-.063.189-.08.182-.028.293.074.11.101.143.327zm1.06-.064q-.029-.195-.123-.29-.093-.095-.234-.073-.14.022-.202.141-.062.12-.034.314.028.194.121.29.095.095.234.073.141-.022.203-.141.063-.12.035-.314zm.235.396q.04.279-.06.433-.1.155-.347.194-.092.014-.175.012-.084-.001-.164-.018l-.026-.175q.083.031.16.04.078.009.156-.003.17-.027.242-.133.072-.105.045-.29l-.013-.09q-.04.105-.117.166-.077.061-.194.08-.195.03-.336-.105-.142-.134-.178-.387-.037-.253.06-.424.096-.172.29-.202.118-.019.209.016t.159.123l-.024-.166.174-.027.14.956zm.941-1.462.045.31.359-.056.02.14-.358.055.086.593q.02.133.06.166.042.032.15.016l.179-.028.022.15-.179.028q-.201.031-.289-.034-.088-.066-.118-.27l-.086-.593-.128.02-.02-.14.128-.02-.046-.31.175-.027zm1.576.514.096.659-.174.027-.095-.653q-.023-.155-.092-.223-.07-.068-.187-.05-.141.022-.209.128-.068.105-.044.265l.09.617-.175.027-.221-1.516.174-.028.087.595q.048-.108.125-.17.078-.062.189-.08.182-.028.293.075.11.1.143.327zm1.264-.129.012.088-.8.124q.04.184.15.266.111.081.284.054.1-.015.19-.055t.176-.105l.025.17q-.088.055-.183.092-.095.036-.196.052-.253.04-.424-.09-.17-.128-.207-.388-.04-.268.078-.446.117-.18.356-.217.213-.034.358.09.145.121.18.365zm-.182-.026q-.023-.147-.115-.222-.09-.076-.218-.056-.146.023-.221.122-.075.098-.066.254l.62-.097zm.909-.597.174-.027.342.818.092-.885.205-.032.341.817.093-.885.174-.027-.118 1.135-.205.031-.358-.859-.099.93-.205.033zm2.245.202q-.211.033-.285.095-.074.063-.057.182.014.096.083.143.07.046.174.03.145-.023.217-.142.072-.12.046-.295l-.005-.04-.173.027zm.336-.128.09.623-.173.027-.025-.166q-.045.109-.126.17-.082.06-.211.081-.163.025-.273-.053-.109-.08-.132-.238-.027-.184.079-.296.106-.112.343-.15l.244-.037-.002-.018q-.018-.124-.108-.179-.088-.056-.23-.033-.091.014-.174.05-.083.035-.156.093l-.024-.166q.09-.053.177-.085.087-.034.172-.047.23-.036.361.07.131.104.168.354zm.905.601q-.045.206-.107.276-.06.07-.178.089l-.139.022-.022-.15.102-.016q.072-.012.107-.053.034-.041.063-.18l.02-.086-.585-1.007.184-.029.456.802.206-.905.184-.029-.291 1.266z"/></g><path fill="#fff" stroke="#fff" stroke-width=".081" d="M-34.977 257.52h.303l.466 1.873.465-1.873h.337l.466 1.873.464-1.873h.305l-.557 2.216h-.377l-.468-1.924-.472 1.924h-.377zm4.253 1.17q.096.033.187.14.092.106.184.293l.304.606h-.322l-.283-.568q-.11-.223-.214-.296-.102-.073-.28-.073h-.327v.937h-.3v-2.216h.677q.38 0 .567.159.187.159.187.48 0 .209-.098.347-.096.138-.282.191zm-.751-.93v.786h.377q.217 0 .326-.1.112-.1.112-.295t-.112-.292q-.11-.1-.326-.1zm1.814-.24h.3v2.216h-.3zm.59 0h1.875v.252h-.787v1.964h-.301v-1.964h-.787zm2.165 0h1.401v.252h-1.101v.656h1.055v.253h-1.055v.803h1.128v.252h-1.428zm2.975 1.17q.096.033.187.14.092.106.184.293l.304.606h-.322l-.283-.568q-.11-.223-.214-.296-.102-.073-.28-.073h-.327v.937h-.3v-2.216h.677q.38 0 .567.159.187.159.187.48 0 .209-.098.347-.096.138-.282.191zm-.751-.93v.786h.377q.217 0 .326-.1.112-.1.112-.295t-.112-.292q-.11-.1-.326-.1z" aria-label="WRITER" transform="matrix(2.2204 -.37074 .34729 2.3703 3.582 -613.4)"/><g fill-rule="evenodd" stroke-width="1.76" filter="url(#t)" opacity=".25" transform="matrix(.5486 .14823 -.14823 .5486 68.963 24.103)"><path d="M-34.319 29.446c-.675-.752-.37-1.116-.097-1.88.122-.34 8.734-25.85 8.838-26.211.103-.362.868-.672 1.497-.75.7-.085 1.51-.064 2.775.401 1.29.594 2.323 1.64 2.194 2.221-.31 1.396-7.225 26.716-7.922 27.93-.697 1.214-7.285-1.711-7.285-1.711z"/><path fill-opacity=".996" d="M141.77 79.75c-1.634-1.82-.81-3.674-.148-5.521.296-.824 21.148-62.551 21.398-63.426l.26-2.852c-.27.946-22.798 67.638-23.117 68.527-.716 1.996-2.751 1.798-.986 3.763zm17.702 6.116c1.823-3.174 19.914-69.37 20.725-73.02l-1.52 2.488c-.75 3.378-17.493 64.646-19.181 67.584z" clip-path="url(#u)" filter="url(#v)" opacity=".732" transform="matrix(.40068 0 0 .40092 -90.945 -2.53)"/><path d="M-34.173 29.665c-.493-.493-.566-.804-.493-.968.073-.164 1.022-.347 2.574-.256 1.615.096 3.997 1.133 4.946 2.229.95 1.095-1.953.986-1.953.986z"/><path d="M-40.999 53.791c-.31-1.756-.206-1.627-.206-1.989 0-.361 6.814-22.264 6.917-22.626.104-.361.336-.568.775-.594.439-.026 2.271-.077 4.543 1.06.955.542 1.73.722 1.316 2.091-.413 1.37-6.66 22.135-7.356 23.35-.697 1.212-5.99-1.293-5.99-1.293z"/><path d="M-41.162 51.849c-1.265 2.712-4.433 14.444-4.123 14.78.31.336 5.163 2.505 5.576 2.221.413-.284.568-.62.748-1.085.181-.464 4.286-12.629 4.467-13.79-.723-1.524-3.984-2.59-6.668-2.126z"/><path d="m144.94 918.83 1.438.969h2.03s.97.156 1.595-1.531 14.36-43.792 16.173-49.25c.596-1.724-.376-2.078-.818-2.122-.442-.044-4.265 3.094-4.265 3.094z" filter="url(#w)" opacity=".615" transform="matrix(.41301 0 0 .41326 -92.909 -355.36)"/><path d="m-33.178 24.179.594.4h.839s.4.065.658-.632c.258-.698 5.931-18.098 6.68-20.353.246-.713-.156-.859-.338-.877-.183-.019-1.762 1.278-1.762 1.278z"/><path d="M-33.281 23.462c-.142.517-.18.71.168.755.348.046 1.02.065 1.187.065.168 0 .413-.058.555-.549l.142-.49s6.343-19.417 6.489-19.874c.145-.456.26-.849-.302-.849h-.94c-.273 0-.548-.072-.743.658-.196.73-6.556 20.284-6.556 20.284z"/><path d="M-26.186 2.52c-.202.014-.393.11-.54.658-.195.73-6.555 20.284-6.555 20.284a5.988 5.988 0 0 0-.06.237c.021.095.055.13.111.13.116 0 1.072.04 1.162.04.09 0 .206 0 .323-.362.116-.362 6.416-19.421 6.553-19.75.137-.328.328-1.04.018-1.123-.082-.02-.252-.066-.433-.114h-.375c-.068 0-.136-.004-.204 0zM-45.06 74.746c-.141.336.064.648.29.705.226.058.518-.1.677-.397.16-.297-.791-.4-.967-.308z"/><path d="M-45.104 73.995s-.148.762-.06.778c.09.017.687-.127 1.048.311l.566-.678s-.785-.868-1.554-.411z"/><path d="M115.35 1039.2s.508-.098.738-.11c.23-.011.825.022 1.15.11.326.087 1.221.47 1.514.635.293.165.972.375.972.375l-.215-1.347-4.06-.072z" clip-path="url(#x)" filter="url(#y)" transform="matrix(.41301 0 0 .41326 -92.909 -355.36)"/><path d="M-45.27 74.064s.21-.04.305-.045c.095-.005.34.01.475.045.134.036.504.194.625.263.121.068.402.155.402.155l-.09-.557-1.676-.03z"/><path d="m-39.817 67.469-.524.787-3.475 6.024c.112.059.227.121.353.204 0 0 4.106-5.826 4.234-6.045.105-.18-.232-.675-.588-.97z"/><path d="M-40.1 68.073c-.366-.06-1.067 1.254-1.067 1.254s-2.562 3.895-2.694 4.925c.07.037.149.086.225.131.155-.22 2.391-3.386 2.753-4.01.374-.645 1.2-1.601.916-2.182-.035-.073-.08-.11-.133-.118z"/><path d="M-40.231 67.217c-.054.092-3.436 5.87-3.633 7.034.053.027.114.066.17.099l3.96-6.81a1.535 1.535 0 0 0-.316-.233c-.044-.023-.123-.06-.181-.09z"/><path d="m-40.66 67.014-3.428 7.138c.115.048.24.11.373.185l3.643-7.042c-.135-.07-.346-.17-.588-.281z"/><path d="M-40.927 66.896c-.159.275-3.553 6.171-3.337 7.182.082.028.175.07.267.112l3.573-7.069c-.145-.07-.317-.145-.503-.225z"/><path d="m-41.046 66.843-3.283 5.326.284 2.001.044.019 3.21-7.233c-.085-.038-.161-.074-.255-.113z"/><path d="M-44.162 66.142a7.23 7.23 0 0 0-.512.012l-.558 7.894c.072-.039.401-.177 1.047.064l.134.06 3.087-7.292a9.757 9.757 0 0 0-1.678-.56 7.823 7.823 0 0 0-1.52-.178z"/><path d="M-44.596 66.151c-.212.007-.401.02-.57.042-.054.058-.109.115-.158.174l.054 7.66.014.031a.415.415 0 0 1 .09-.04z"/><path d="M-44.921 66.167a6.155 6.155 0 0 0-.403.043l.054 7.853.049-.02z"/></g><g fill-rule="evenodd" stroke-width="1.76"><path fill="url(#z)" d="M-34.319 29.446c-.675-.752-.37-1.116-.097-1.88.122-.34 8.734-25.85 8.838-26.211.103-.362.868-.672 1.497-.75.7-.085 1.51-.064 2.775.401 1.29.594 2.323 1.64 2.194 2.221-.31 1.396-7.225 26.716-7.922 27.93-.697 1.214-7.285-1.711-7.285-1.711z" transform="matrix(.5486 .14823 -.14823 .5486 68.963 24.103)"/><path fill="#501a00" fill-opacity=".996" d="M141.77 79.75c-1.634-1.82-.81-3.674-.148-5.521.296-.824 21.148-62.551 21.398-63.426l.26-2.852c-.27.946-22.798 67.638-23.117 68.527-.716 1.996-2.751 1.798-.986 3.763zm17.702 6.116c1.823-3.174 19.914-69.37 20.725-73.02l-1.52 2.488c-.75 3.378-17.493 64.646-19.181 67.584z" clip-path="url(#u)" filter="url(#v)" opacity=".732" transform="matrix(.21981 .0594 -.05943 .21994 19.446 9.234)"/><path fill="#713e07" d="M45.818 35.312c-.197-.344-.19-.525-.126-.604.064-.08.612-.04 1.45.24.871.293 2.024 1.215 2.383 1.956.358.742-1.218.252-1.218.252z"/><path fill="url(#A)" d="M-40.999 53.791c-.31-1.756-.206-1.627-.206-1.989 0-.361 6.814-22.264 6.917-22.626.104-.361.336-.568.775-.594.439-.026 2.271-.077 4.543 1.06.955.542 1.73.722 1.316 2.091-.413 1.37-6.66 22.135-7.356 23.35-.697 1.212-5.99-1.293-5.99-1.293z" transform="matrix(.5486 .14823 -.14823 .5486 68.963 24.103)"/><path fill="url(#B)" d="M-41.162 51.849c-1.265 2.712-4.433 14.444-4.123 14.78.31.336 5.163 2.505 5.576 2.221.413-.284.568-.62.748-1.085.181-.464 4.286-12.629 4.467-13.79-.723-1.524-3.984-2.59-6.668-2.126z" transform="matrix(.5486 .14823 -.14823 .5486 68.963 24.103)"/><path fill="#5b472c" d="m144.94 918.83 1.438.969h2.03s.97.156 1.595-1.531 14.36-43.792 16.173-49.25c.596-1.724-.376-2.078-.818-2.122-.442-.044-4.265 3.094-4.265 3.094z" filter="url(#w)" opacity=".615" transform="matrix(.22658 .06122 -.06126 .22671 70.668 -184.62)"/><path fill="url(#C)" d="m-33.178 24.179.594.4h.839s.4.065.658-.632c.258-.698 5.931-18.098 6.68-20.353.246-.713-.156-.859-.338-.877-.183-.019-1.762 1.278-1.762 1.278z" transform="matrix(.5486 .14823 -.14823 .5486 68.963 24.103)"/><path fill="#f7fafc" d="M47.227 32.041c-.154.262-.204.363-.02.44.185.076.55.186.642.21.092.026.235.03.386-.218l.15-.248s6.358-9.712 6.506-9.94c.148-.23.269-.428-.04-.511l-.515-.14c-.15-.04-.29-.12-.506.25-.215.372-6.603 10.157-6.603 10.157z"/><path fill="url(#D)" d="M-26.186 2.52c-.202.014-.393.11-.54.658-.195.73-6.555 20.284-6.555 20.284a5.988 5.988 0 0 0-.06.237c.021.095.055.13.111.13.116 0 1.072.04 1.162.04.09 0 .206 0 .323-.362.116-.362 6.416-19.421 6.553-19.75.137-.328.328-1.04.018-1.123-.082-.02-.252-.066-.433-.114h-.375c-.068 0-.136-.004-.204 0z" transform="matrix(.5486 .14823 -.14823 .5486 68.963 24.103)"/><path fill="url(#E)" d="M-45.06 74.746c-.141.336.064.648.29.705.226.058.518-.1.677-.397.16-.297-.791-.4-.967-.308z" transform="matrix(.5486 .14823 -.14823 .5486 68.963 24.103)"/><path fill="url(#F)" d="M-45.104 73.995s-.148.762-.06.778c.09.017.687-.127 1.048.311l.566-.678s-.785-.868-1.554-.411z" transform="matrix(.5486 .14823 -.14823 .5486 68.963 24.103)"/><path fill="#301503" d="M115.35 1039.2s.508-.098.738-.11c.23-.011.825.022 1.15.11.326.087 1.221.47 1.514.635.293.165.972.375.972.375l-.215-1.347-4.06-.072z" clip-path="url(#x)" filter="url(#y)" transform="matrix(.22658 .06122 -.06126 .22671 70.668 -184.62)"/><path fill="#301503" d="M33.15 58.024s.12.009.173.02c.053.012.186.056.254.096.069.04.248.181.304.236.056.056.198.145.198.145l.033-.319-.915-.264z"/><path fill="#b3b2b0" d="m37.118 55.214-.404.354-2.799 2.79c.053.05.107.1.163.164 0 0 3.117-2.587 3.22-2.688.083-.083-.028-.405-.18-.62z"/><path fill="#eee" d="M36.874 55.504c-.192-.088-.772.53-.772.53s-1.982 1.757-2.208 2.302c.034.03.07.07.104.105.118-.097 1.814-1.503 2.105-1.791.301-.3.896-.7.826-1.062-.008-.045-.028-.072-.055-.084z"/><path fill="#4d5051" d="M36.929 55.015c-.044.042-2.755 2.711-3.036 3.32.025.023.052.053.079.08l3.182-3.15a.872.872 0 0 0-.139-.174c-.02-.02-.059-.051-.086-.076z"/><path fill="#834d4f" d="m36.723 54.84-2.938 3.408c.056.043.115.096.177.157l3.042-3.324a7.906 7.906 0 0 0-.28-.241z"/><path fill="#676d6e" d="M36.594 54.736c-.127.127-2.863 2.859-2.895 3.445.04.027.086.064.13.101l3.008-3.348a7.942 7.942 0 0 0-.243-.199z"/><path fill="#a19c9f" d="m36.537 54.689-2.59 2.435-.141 1.14c.007.006.014.01.021.017l2.834-3.492c-.042-.034-.078-.065-.124-.1z"/><path fill="url(#G)" d="M-44.162 66.142a7.23 7.23 0 0 0-.512.012l-.558 7.894c.072-.039.401-.177 1.047.064l.134.06 3.087-7.292a9.757 9.757 0 0 0-1.678-.56 7.823 7.823 0 0 0-1.52-.178z" transform="matrix(.5486 .14823 -.14823 .5486 68.963 24.103)"/><path fill="#c6e0f0" d="M34.692 53.783a3.543 3.543 0 0 0-.319-.061c-.038.023-.076.046-.113.072l-1.105 4.21.003.019a.165.165 0 0 1 .055-.008z"/><path fill="#a5a7a8" d="M34.511 53.744a3.498 3.498 0 0 0-.227-.037l-1.134 4.317.03-.004z"/></g></svg>