<svg xmlns="http://www.w3.org/2000/svg" xmlns:xlink="http://www.w3.org/1999/xlink" width="64" height="64"><defs><linearGradient id="a" x1="57.631" x2="133.23" y1="903.79" y2="1001.9" gradientTransform="translate(120.62 -3195) scale(3.9491)" gradientUnits="userSpaceOnUse"><stop offset="0" stop-color="#64b7ff"/><stop offset=".36" stop-color="#5c4cda"/><stop offset=".528" stop-color="#604df2"/><stop offset=".697" stop-color="#686efe"/><stop offset="1" stop-color="#2ec1fc"/></linearGradient><linearGradient id="c" x1="99.036" x2="99.036" y1="-.505" y2="199.84" gradientTransform="matrix(.3 0 0 .3 2 2.006)" gradientUnits="userSpaceOnUse"><stop offset="0" stop-color="#f9f9f9"/><stop offset="1" stop-color="#e8edf0"/></linearGradient><linearGradient xlink:href="#a" id="d" x1="57.631" x2="133.23" y1="903.79" y2="1001.9" gradientTransform="translate(120.62 -3195) scale(3.9491)" gradientUnits="userSpaceOnUse"/><linearGradient xlink:href="#a" id="f" x1="57.631" x2="133.23" y1="903.79" y2="1001.9" gradientTransform="translate(6.602 -206.4) scale(.2518)" gradientUnits="userSpaceOnUse"/><filter id="b" width="1.072" height="1.072" x="-.036" y="-.036" color-interpolation-filters="sRGB"><feGaussianBlur stdDeviation="14.115"/></filter><filter id="e" width="1.187" height="1.153" x="-.094" y="-.076" color-interpolation-filters="sRGB"><feGaussianBlur stdDeviation="15.802"/></filter></defs><circle cx="511.5" cy="540.86" r="470.5" color="#000" filter="url(#b)" opacity=".25" transform="translate(-.614 -2.48) scale(.06376)"/><circle cx="32" cy="32.006" r="30" fill="url(#c)" color="#000"/><path fill="url(#d)" d="M406.93 582.43c0 71.534 1.35 96.504-44.54 96.504s-82.332 14.847-82.332 56.688 43.191 62.086 70.185 62.086 80.308-18.896 80.308-75.583v-256.44l229.45-53.313v196.38s2.7 23.62-27.669 23.62c-30.368 0-97.179-8.773-97.179 55.338s64.786 60.062 74.909 60.062 75.584-10.798 75.584-87.056v-360.37l-280.06 53.988z" filter="url(#e)" opacity=".75" transform="translate(-.614 -2.48) scale(.06376)"/><path fill="url(#f)" d="M24.858 34.454c0 4.561.086 6.153-2.84 6.153-2.926 0-5.25.947-5.25 3.615s2.754 3.959 4.475 3.959 5.121-1.205 5.121-4.82v-16.35l14.63-3.4v12.522s.172 1.506-1.764 1.506-6.196-.56-6.196 3.529c0 4.087 4.13 3.83 4.776 3.83.645 0 4.82-.69 4.82-5.552V16.468l-17.858 3.443z"/></svg>