<svg id="Flamingo" width="64" height="64" enable-background="new 0 0 1024 1024" image-rendering="optimizeSpeed" version="1.1" viewBox="0 0 64 64" xmlns="http://www.w3.org/2000/svg" xmlns:xlink="http://www.w3.org/1999/xlink">
 <defs>
  <linearGradient id="b">
   <stop stop-color="#3af63a" offset="0"/>
   <stop stop-color="#3af68b" offset="1"/>
  </linearGradient>
  <linearGradient id="a">
   <stop stop-color="#a2a2a2" offset="0"/>
   <stop stop-color="#d0d0d0" offset="1"/>
  </linearGradient>
  <filter id="d" x="-.036" y="-.036" width="1.072" height="1.072" color-interpolation-filters="sRGB">
   <feGaussianBlur stdDeviation="14.16"/>
  </filter>
  <linearGradient id="g" x1="32" x2="32" y1="16" y2="48" gradientUnits="userSpaceOnUse">
   <stop stop-color="#333" offset="0"/>
   <stop stop-color="#484848" offset="1"/>
  </linearGradient>
  <linearGradient id="f" x1="32" x2="32" y1="40" y2="45.333" gradientTransform="matrix(1.125 0 0 1.125 -78 -25.592)" gradientUnits="userSpaceOnUse" xlink:href="#a"/>
  <linearGradient id="e" x1="32" x2="32" y1="40" y2="45.333" gradientTransform="matrix(1.125 0 0 1.125 -78 -15.999)" gradientUnits="userSpaceOnUse" xlink:href="#a"/>
  <linearGradient id="c" x1="32" x2="32" y1="40" y2="45.333" gradientTransform="matrix(1.125 0 0 1.125 -78 -6.9994)" gradientUnits="userSpaceOnUse" xlink:href="#a"/>
  <filter id="m" x="-.06" y="-.06" width="1.12" height="1.12" color-interpolation-filters="sRGB">
   <feGaussianBlur stdDeviation="0.8"/>
  </filter>
  <filter id="l" x="-.06" y="-.06" width="1.12" height="1.12" color-interpolation-filters="sRGB">
   <feGaussianBlur stdDeviation="0.14999813"/>
  </filter>
  <filter id="o" x="-.06" y="-.06" width="1.12" height="1.12" color-interpolation-filters="sRGB">
   <feGaussianBlur stdDeviation="0.14999813"/>
  </filter>
  <filter id="n" x="-.06" y="-.06" width="1.12" height="1.12" color-interpolation-filters="sRGB">
   <feGaussianBlur stdDeviation="0.14999813"/>
  </filter>
  <linearGradient id="k" x1="23.5" x2="23.5" y1="20" y2="36" gradientUnits="userSpaceOnUse" xlink:href="#b"/>
  <linearGradient id="j" x1="32" x2="32" y1="30" y2="36" gradientUnits="userSpaceOnUse" xlink:href="#b"/>
  <linearGradient id="i" x1="40.5" x2="40.5" y1="26" y2="36" gradientUnits="userSpaceOnUse">
   <stop stop-color="#0ef1c9" offset="0"/>
   <stop stop-color="#0e95f1" offset="1"/>
  </linearGradient>
  <linearGradient id="h" x1="32" x2="32" y1="2" y2="62" gradientUnits="userSpaceOnUse">
   <stop stop-color="#999" offset="0"/>
   <stop stop-color="#bebebe" offset="1"/>
  </linearGradient>
 </defs>
 <path transform="matrix(.06356 0 0 .06356 -.54555 -.54555)" d="m966.1 378.45c-2.5-8.75-5.35-17.6-8.45-26.35-6.45-18.25-14.15-36.05-23.15-53.65-3.8-7.4-7.95-14.95-12.3-22.4-20.3-34.5-45.8-67.2-76.35-97.75-72.6-72.6-157.15-116.65-253.65-132.05-16.25-2.6-32.8-4.4-50.05-5.35-9.7-0.55-19.85-0.85-30.1-0.85-9.35 0-18.6 0.25-27.9 0.75-118.35 6.1-220.3 51.95-305.85 137.5q-138.25 138.25-138.25 333.75c0 130.35 46.1 241.65 138.25 333.8 85.55 85.5 187.5 131.35 305.85 137.5h0.4c8.5 0.45 16.6 0.7 24.5 0.7h8.45c8.55-0.1 16.8-0.4 24.65-0.8 2.5-0.15 4.75-0.3 6.95-0.45 20.2-1.45 39.9-4.05 58.7-7.7 7.95-1.55 15.8-3.3 23.4-5.15 80.8-20.3 152.15-61.6 214.65-124.1 48.6-48.6 84.4-102.5 107.35-161.8 16.6-42.9 26.55-88.65 29.75-137.45 0.35-5.2 0.6-10.6 0.8-16.05 0.2-6.05 0.3-12.25 0.3-18.5v-3c-0.2-40.65-4.95-79.5-14.3-117-1.1-4.35-2.35-9-3.65-13.6z" filter="url(#d)" opacity=".25" stroke-width="15.672"/>
 <g>
  <circle cx="32" cy="32" r="30" fill="url(#h)" style="paint-order:stroke markers fill"/>
  <rect x="16" y="16" width="32" height="32" rx="2.6667" filter="url(#m)" opacity=".15" stroke-width="1.3333" style="paint-order:normal"/>
  <rect x="16" y="16" width="32" height="32" rx="2.6667" fill="url(#g)" stroke-width="1.3333" style="paint-order:normal"/>
 </g>
 <g stroke-width="1.5">
  <circle transform="rotate(-90)" cx="-42" cy="41" r="3" filter="url(#n)" opacity=".15" style="paint-order:normal"/>
  <circle transform="rotate(-90)" cx="-42" cy="32" r="3" filter="url(#o)" opacity=".15" style="paint-order:normal"/>
  <circle transform="rotate(-90)" cx="-42" cy="22.407" r="3" filter="url(#l)" opacity=".15" style="paint-order:normal"/>
 </g>
 <rect x="19" y="19" width="26" height="18" ry="1" fill="#202020" stroke-width="1.2928" style="paint-order:normal"/>
 <ellipse cx="22.667" cy="42.667" r="2.6667" fill="#b0b0b0" stroke-width="1.3333" style="paint-order:normal"/>
 <rect x="21" y="20" width="5" height="16" fill="url(#k)" stroke-width="1.291" style="paint-order:normal"/>
 <rect x="29" y="30" width="6" height="6" fill="url(#j)" stroke-width="1.5" style="paint-order:normal"/>
 <rect x="38" y="26" width="5" height="10" fill="url(#i)" stroke-width="1.3363" style="paint-order:normal"/>
 <g stroke-width="1.5">
  <circle transform="rotate(-90)" cx="-42" cy="32" r="3" fill="url(#e)" style="paint-order:normal"/>
  <path d="m35 42a3 3 0 0 0-0.40722-1.5h-2.5927a1.5 1.5 0 0 0-1.5 1.5 1.5 1.5 0 0 0 1.5 1.5h2.5957a3 3 0 0 0 0.40429-1.5z" opacity=".25" style="paint-order:normal"/>
  <circle transform="rotate(-90)" cx="-42" cy="22.407" r="3" fill="url(#f)" style="paint-order:normal"/>
  <path d="m22.407 39a3 3 0 0 0-1.5 0.40722v2.5927a1.5 1.5 0 0 0 1.5 1.5 1.5 1.5 0 0 0 1.5-1.5v-2.5957a3 3 0 0 0-1.5-0.40429z" opacity=".25" style="paint-order:normal"/>
  <circle transform="rotate(-90)" cx="-42" cy="41" r="3" fill="url(#c)" style="paint-order:normal"/>
  <path d="m41 45a3 3 0 0 0 1.5-0.40722v-2.5927a1.5 1.5 0 0 0-1.5-1.5 1.5 1.5 0 0 0-1.5 1.5v2.5957a3 3 0 0 0 1.5 0.40429z" opacity=".25" style="paint-order:normal"/>
 </g>
</svg>
