<svg xmlns="http://www.w3.org/2000/svg" width="64" height="64"><defs><linearGradient id="b" x1="399.99" x2="399.99" y1="545.14" y2="518.14" gradientTransform="translate(-826.36 -1107.5) scale(2.1429)" gradientUnits="userSpaceOnUse"><stop offset="0" stop-color="#197ff1"/><stop offset="1" stop-color="#21c6fb"/></linearGradient><linearGradient id="d" x1="32" x2="32" y1="15.043" y2="48.957" gradientUnits="userSpaceOnUse"><stop offset="0" stop-color="#e4f9ff"/><stop offset="1" stop-color="#acd9fb"/></linearGradient><filter id="a" width="1.072" height="1.072" x="-.036" y="-.036" color-interpolation-filters="sRGB"><feGaussianBlur stdDeviation=".42"/></filter><filter id="c" width="1.117" height="1.123" x="-.059" y="-.061" color-interpolation-filters="sRGB"><feGaussianBlur stdDeviation=".868"/></filter></defs><circle cx="400.57" cy="531.8" r="14" filter="url(#a)" opacity=".25" transform="translate(-826.36 -1107.5) scale(2.1429)"/><g stroke-width="1.571"><circle cx="32.02" cy="32.044" r="30.001" fill="url(#b)"/><circle cx="32.02" cy="32.044" r="30.001" fill="none"/></g><path d="M49.779 28.185c0-.527-.399-.855-1.197-.983l-10.727-1.56-4.808-9.723c-.27-.584-.62-.876-1.047-.876-.427 0-.777.292-1.047.876l-4.808 9.723-10.727 1.56c-.798.128-1.197.456-1.197.983 0 .3.178.641.534 1.026l7.779 7.565-1.838 10.684a3.46 3.46 0 0 0-.043.428c0 .3.075.552.224.759.15.207.374.31.674.31.256 0 .54-.085.854-.257L32 43.657l9.595 5.043c.3.171.584.257.855.257.285 0 .502-.103.652-.31.149-.207.224-.46.224-.759 0-.185-.007-.328-.022-.427l-1.838-10.685 7.757-7.565c.371-.37.556-.713.556-1.026z" filter="url(#c)" opacity=".15"/><path fill="url(#d)" d="M49.779 28.185c0-.527-.399-.855-1.197-.983l-10.727-1.56-4.808-9.723c-.27-.584-.62-.876-1.047-.876-.427 0-.777.292-1.047.876l-4.808 9.723-10.727 1.56c-.798.128-1.197.456-1.197.983 0 .3.178.641.534 1.026l7.779 7.565-1.838 10.684a3.46 3.46 0 0 0-.043.428c0 .3.075.552.224.759.15.207.374.31.674.31.256 0 .54-.085.854-.257L32 43.657l9.595 5.043c.3.171.584.257.855.257.285 0 .502-.103.652-.31.149-.207.224-.46.224-.759 0-.185-.007-.328-.022-.427l-1.838-10.685 7.757-7.565c.371-.37.556-.713.556-1.026z"/></svg>