<svg xmlns="http://www.w3.org/2000/svg" xmlns:xlink="http://www.w3.org/1999/xlink" width="64" height="64"><defs><linearGradient id="a"><stop offset="0" stop-color="#8c59d9"/><stop offset="1" stop-color="#8f76e4"/></linearGradient><linearGradient id="c" x1="99.036" x2="99.036" y1="-.505" y2="199.84" gradientTransform="translate(33.875 62.237) scale(4.7813)" gradientUnits="userSpaceOnUse"><stop offset="0" stop-color="#3b3b3b"/><stop offset="1" stop-color="#666"/></linearGradient><linearGradient id="d" x1="522.44" x2="510.59" y1="24.766" y2="1052.4" gradientTransform="translate(2 2.11) scale(.99609)" gradientUnits="userSpaceOnUse"><stop offset="0" stop-color="#111"/><stop offset="1" stop-color="#3b3b3b"/></linearGradient><linearGradient xlink:href="#a" id="f" x1="23.487" x2="23.487" y1="15.18" y2="32.913" gradientUnits="userSpaceOnUse"/><linearGradient id="e" x1="520" x2="520" y1="272.36" y2="792.36" gradientTransform="translate(2 2.11) scale(.99609)" gradientUnits="userSpaceOnUse"><stop offset="0" stop-color="#7839b7"/><stop offset="1" stop-color="#2f5fdd"/></linearGradient><filter id="b" width="1.072" height="1.072" x="-.036" y="-.036" color-interpolation-filters="sRGB"><feGaussianBlur stdDeviation="14.344"/></filter></defs><g stroke-width="15.938" transform="translate(-.125 -1.9) scale(.06274)"><circle cx="512" cy="540.36" r="478.12" color="#000" filter="url(#b)" opacity=".25"/><circle cx="512" cy="540.36" r="478.12" fill="url(#c)" color="#000"/><circle cx="511" cy="541.36" r="448.24" fill="url(#d)"/><circle cx="24" cy="24" r="18" fill="#4d4d4d" transform="translate(-1.273 29.081) scale(21.345)"/><circle cx="24" cy="24" r="15" fill="#333" transform="translate(-1.273 29.081) scale(21.345)"/><circle cx="511" cy="541.36" r="256.14" fill="url(#e)"/><circle cx="24" cy="24" r="9" fill="url(#f)" transform="translate(-1.273 29.081) scale(21.345)"/><circle cx="596.38" cy="438.71" r="106.72" fill="#fff" opacity=".5"/><circle cx="361.36" cy="669.43" r="53.362" fill="#fff" opacity=".5"/></g></svg>