<?xml version="1.0" encoding="UTF-8"?>
<svg width="64" height="64" version="1.1" viewBox="0 0 16.933 16.933" xmlns="http://www.w3.org/2000/svg">
 <defs>
  <linearGradient id="a" x1="7.937" x2="7.937" y1="15.081" y2="1.852" gradientTransform="matrix(1.0714 0 0 1.0714 -.60437 -.5958)" gradientUnits="userSpaceOnUse">
   <stop stop-color="#2858e4" offset="0"/>
   <stop stop-color="#5ab9f4" offset="1"/>
  </linearGradient>
  <filter id="b" x="-.15782" y="-.15784" width="1.3156" height="1.3157" color-interpolation-filters="sRGB">
   <feGaussianBlur stdDeviation=".696"/>
  </filter>
  <filter id="filter943" x="-.03888" y="-.03888" width="1.0778" height="1.0778" color-interpolation-filters="sRGB">
   <feGaussianBlur stdDeviation="0.972"/>
  </filter>
 </defs>
 <rect transform="scale(.26458)" x="2" y="2" width="60" height="60" rx="30" ry="30" filter="url(#filter943)" opacity=".5" stroke-width="1.0714"/>
 <rect x=".52916" y=".52916" width="15.875" height="15.875" rx="7.9373" ry="7.9373" fill="url(#a)" stroke-width="1.0714"/>
 <g transform="translate(0 .53)" fill="#2a5be5" opacity=".15">
  <rect x="3.44" y="10.583" width="2.646" height="2.646" rx=".529" ry=".529"/>
  <rect x="7.144" y="10.583" width="2.646" height="2.646" rx=".529" ry=".529"/>
  <rect x="10.848" y="10.583" width="2.646" height="2.646" rx=".529" ry=".529"/>
 </g>
 <path d="M8.402 3.142a.53.53 0 0 0-.05.003A5.298 5.298 0 0 0 3.11 8.434a5.3 5.3 0 0 0 5.292 5.291 5.298 5.298 0 0 0 5.288-5.239.53.53 0 0 0 .004-.052.53.53 0 0 0-.53-.53.53.53 0 0 0-.529.53 4.225 4.225 0 0 1-4.233 4.233 4.225 4.225 0 0 1-4.233-4.233A4.225 4.225 0 0 1 8.402 4.2a.53.53 0 0 0 .53-.529.53.53 0 0 0-.53-.529Zm0 2.117a.53.53 0 0 0-.05.002 3.182 3.182 0 0 0-3.125 3.173 3.183 3.183 0 0 0 3.175 3.174 3.181 3.181 0 0 0 3.172-3.122.53.53 0 0 0 .003-.052.53.53 0 0 0-.53-.53.53.53 0 0 0-.528.53 2.109 2.109 0 0 1-2.117 2.116 2.109 2.109 0 0 1-2.117-2.116c0-1.176.942-2.117 2.117-2.117a.53.53 0 0 0 .53-.53.53.53 0 0 0-.53-.528Zm0 2.116a1.058 1.058 0 0 0-1.058 1.059 1.058 1.058 0 0 0 1.058 1.058A1.058 1.058 0 0 0 9.46 8.434a1.058 1.058 0 0 0-1.058-1.059z" filter="url(#b)" opacity=".34974" stroke-width=".26458"/>
 <path d="M8.402 3.142a.53.53 0 0 0-.05.003A5.298 5.298 0 0 0 3.11 8.434a5.3 5.3 0 0 0 5.292 5.291 5.298 5.298 0 0 0 5.288-5.239.53.53 0 0 0 .004-.052.53.53 0 0 0-.53-.53.53.53 0 0 0-.529.53 4.225 4.225 0 0 1-4.233 4.233 4.225 4.225 0 0 1-4.233-4.233A4.225 4.225 0 0 1 8.402 4.2a.53.53 0 0 0 .53-.529.53.53 0 0 0-.53-.529Zm0 2.117a.53.53 0 0 0-.05.002 3.182 3.182 0 0 0-3.125 3.173 3.183 3.183 0 0 0 3.175 3.174 3.181 3.181 0 0 0 3.172-3.122.53.53 0 0 0 .003-.052.53.53 0 0 0-.53-.53.53.53 0 0 0-.528.53 2.109 2.109 0 0 1-2.117 2.116 2.109 2.109 0 0 1-2.117-2.116c0-1.176.942-2.117 2.117-2.117a.53.53 0 0 0 .53-.53.53.53 0 0 0-.53-.528Zm0 2.116a1.058 1.058 0 0 0-1.058 1.059 1.058 1.058 0 0 0 1.058 1.058A1.058 1.058 0 0 0 9.46 8.434a1.058 1.058 0 0 0-1.058-1.059z" fill="#fff" stroke-width=".26458"/>
</svg>
