<svg xmlns="http://www.w3.org/2000/svg" width="64" height="64" viewBox="0 0 16.933 16.933"><defs><filter id="c" width="1.316" height="1.316" x="-.158" y="-.158" color-interpolation-filters="sRGB"><feGaussianBlur stdDeviation=".696"/></filter><filter id="a" width="1.078" height="1.078" x="-.039" y="-.039" color-interpolation-filters="sRGB"><feGaussianBlur stdDeviation=".972"/></filter><linearGradient id="b" x1="7.937" x2="7.937" y1="15.081" y2="1.852" gradientTransform="translate(-.604 -.596) scale(1.0714)" gradientUnits="userSpaceOnUse"><stop offset="0" stop-color="#2858e4"/><stop offset="1" stop-color="#5ab9f4"/></linearGradient></defs><rect width="60" height="60" x="2" y="2" filter="url(#a)" opacity=".5" rx="30" ry="30" transform="scale(.26458)"/><rect width="15.875" height="15.875" x=".529" y=".529" fill="url(#b)" rx="7.937" ry="7.937"/><g fill="#2a5be5" opacity=".15" transform="translate(0 .53)"><rect width="2.646" height="2.646" x="3.44" y="10.583" rx=".529" ry=".529"/><rect width="2.646" height="2.646" x="7.144" y="10.583" rx=".529" ry=".529"/><rect width="2.646" height="2.646" x="10.848" y="10.583" rx=".529" ry=".529"/></g><path d="M8.402 3.142a.53.53 0 0 0-.05.003A5.298 5.298 0 0 0 3.11 8.434a5.3 5.3 0 0 0 5.292 5.291 5.298 5.298 0 0 0 5.288-5.239.53.53 0 0 0 .004-.052.53.53 0 0 0-.53-.53.53.53 0 0 0-.529.53 4.225 4.225 0 0 1-4.233 4.233 4.225 4.225 0 0 1-4.233-4.233A4.225 4.225 0 0 1 8.402 4.2a.53.53 0 0 0 .53-.529.53.53 0 0 0-.53-.529Zm0 2.117a.53.53 0 0 0-.05.002 3.182 3.182 0 0 0-3.125 3.173 3.183 3.183 0 0 0 3.175 3.174 3.181 3.181 0 0 0 3.172-3.122.53.53 0 0 0 .003-.052.53.53 0 0 0-.53-.53.53.53 0 0 0-.528.53 2.109 2.109 0 0 1-2.117 2.116 2.109 2.109 0 0 1-2.117-2.116c0-1.176.942-2.117 2.117-2.117a.53.53 0 0 0 .53-.53.53.53 0 0 0-.53-.528Zm0 2.116a1.058 1.058 0 0 0-1.058 1.059 1.058 1.058 0 0 0 1.058 1.058A1.058 1.058 0 0 0 9.46 8.434a1.058 1.058 0 0 0-1.058-1.059z" filter="url(#c)" opacity=".35"/><path fill="#fff" d="M8.402 3.142a.53.53 0 0 0-.05.003A5.298 5.298 0 0 0 3.11 8.434a5.3 5.3 0 0 0 5.292 5.291 5.298 5.298 0 0 0 5.288-5.239.53.53 0 0 0 .004-.052.53.53 0 0 0-.53-.53.53.53 0 0 0-.529.53 4.225 4.225 0 0 1-4.233 4.233 4.225 4.225 0 0 1-4.233-4.233A4.225 4.225 0 0 1 8.402 4.2a.53.53 0 0 0 .53-.529.53.53 0 0 0-.53-.529Zm0 2.117a.53.53 0 0 0-.05.002 3.182 3.182 0 0 0-3.125 3.173 3.183 3.183 0 0 0 3.175 3.174 3.181 3.181 0 0 0 3.172-3.122.53.53 0 0 0 .003-.052.53.53 0 0 0-.53-.53.53.53 0 0 0-.528.53 2.109 2.109 0 0 1-2.117 2.116 2.109 2.109 0 0 1-2.117-2.116c0-1.176.942-2.117 2.117-2.117a.53.53 0 0 0 .53-.53.53.53 0 0 0-.53-.528Zm0 2.116a1.058 1.058 0 0 0-1.058 1.059 1.058 1.058 0 0 0 1.058 1.058A1.058 1.058 0 0 0 9.46 8.434a1.058 1.058 0 0 0-1.058-1.059z"/></svg>