<svg xmlns="http://www.w3.org/2000/svg" width="64" height="64"><defs><linearGradient id="g" x1="95.97" x2="95.97" y1="2.292" y2="198.44" gradientTransform="translate(340.09 368.45)scale(1.7191)" gradientUnits="userSpaceOnUse"><stop offset="0" stop-color="#8db6ff"/><stop offset="1" stop-color="#59f"/></linearGradient><linearGradient id="c" x1="114.75" x2="114.75" y1="56.681" y2="188.93" gradientTransform="matrix(5.1 0 0 5.1 2 2)" gradientUnits="userSpaceOnUse"><stop offset="0" stop-color="#76a7f6"/><stop offset="1" stop-color="#a2c2f8"/></linearGradient><linearGradient id="f" x1="103.67" x2="103.67" y1="-4.662" y2="206.5" gradientTransform="translate(295.01 323.37)scale(2.1699)" gradientUnits="userSpaceOnUse"><stop offset="0" stop-color="#fff"/><stop offset="1" stop-color="#d7d7d7"/></linearGradient><linearGradient id="b" x1="41" x2="982" y1="540.86" y2="540.86" gradientUnits="userSpaceOnUse"><stop offset="0" stop-color="#649af5"/><stop offset="1" stop-color="#4b8af5"/></linearGradient><linearGradient id="d" x1="117.05" x2="926.95" y1="326.33" y2="326.33" gradientUnits="userSpaceOnUse"><stop offset="0" stop-color="#3b6bd4"/><stop offset="1" stop-color="#668bde"/></linearGradient><filter id="e" width="1.072" height="1.072" x="-.036" y="-.036" color-interpolation-filters="sRGB"><feGaussianBlur stdDeviation="6.51"/></filter><filter id="a" width="1.072" height="1.072" x="-.036" y="-.036" color-interpolation-filters="sRGB"><feGaussianBlur stdDeviation="14.115"/></filter></defs><g stroke-width="15.683" transform="translate(-.614 -2.48)scale(.06376)"><circle cx="511.5" cy="540.86" r="470.5" color="#000" filter="url(#a)" opacity=".25"/><circle cx="511.5" cy="540.86" r="470.5" fill="url(#b)" color="#000"/><path fill="url(#c)" d="M813.41 151.74c-96.726 23.032-554.17 136.45-300.14 163.91 283.05 30.6 175.31 317.47 175.31 317.47L481.32 981.49a471 471 0 0 0 30.168 1.51 470.5 470.5 0 0 0 470.5-470.5 470.5 470.5 0 0 0-168.59-360.76z" transform="translate(0 28.362)"/><path fill="url(#d)" d="M511.5 42a470.5 470.5 0 0 0-394.45 214.82L327.4 610.66s-5.634-170.45 8.453-187.36c14.087-16.904 83.113-81.703 83.113-81.703l94.381-28.174-5.105-18.312 418.71-2.754a470.5 470.5 0 0 0-415.46-250.36z" color="#000" transform="translate(0 28.362)"/><circle cx="512" cy="550.36" r="216.99" fill="#111" color="#000" filter="url(#e)" opacity=".2"/><circle cx="512" cy="540.36" r="216.99" fill="url(#f)" color="#000"/><circle cx="512" cy="540.36" r="171.91" fill="url(#g)" color="#000"/></g></svg>