<svg width="64" height="64" version="1.1" xmlns="http://www.w3.org/2000/svg">
 <defs>
  <linearGradient id="linearGradient927" x1="7.9373" x2="7.9373" y1="15.081" y2="1.852" gradientTransform="matrix(4.0494 0 0 4.0494 -2.2856 -2.2519)" gradientUnits="userSpaceOnUse">
   <stop stop-color="#9082ff" offset="0"/>
   <stop stop-color="#fd80b6" offset="1"/>
  </linearGradient>
  <filter id="filter3" x="-.15106" y="-.16025" width="1.3021" height="1.3205" color-interpolation-filters="sRGB">
   <feGaussianBlur stdDeviation="2.0902547"/>
  </filter>
  <filter id="d" x="-.013864" y="-.013864" width="1.0277" height="1.0277" color-interpolation-filters="sRGB">
   <feGaussianBlur stdDeviation=".298"/>
  </filter>
  <filter id="e" x="-.029686" y="-.029686" width="1.0594" height="1.0594" color-interpolation-filters="sRGB">
   <feGaussianBlur stdDeviation=".298"/>
  </filter>
  <filter id="filter4" x="-.027" y="-.027" width="1.054" height="1.054" color-interpolation-filters="sRGB">
   <feGaussianBlur stdDeviation="0.675"/>
  </filter>
 </defs>
 <rect x="2" y="3" width="60" height="60" rx="30" ry="30" fill="#000000" filter="url(#filter4)" opacity=".15" stroke-width="4.0494"/>
 <rect x="2" y="2" width="60" height="60" rx="30" ry="30" fill="url(#linearGradient927)" stroke-width="4.0494"/>
 <path d="m18.572 17.836c0.91166-0.31415 1.8815 0.48921 2.5536 0.99695 1.8599 1.4051 3.2259 3.4179 5.1579 4.7225 1.427 0.96354 3.1166 0.11932 4.689 0.011 1.7896-0.12324 3.9382 0.82829 5.6268 0.44393 1.5671-0.3567 2.9003-2.205 3.9856-3.2774 0.94324-0.93202 3.5495-3.9134 5.0597-2.6719 2.1527 1.7697 1.2705 7.9398 1.2705 10.408 0 1.2813-0.24965 2.8392 0.0563 4.0851 0.4323 1.7607 1.683 3.3966 1.5322 5.2928-0.37207 4.6817-6.5389 8.7108-10.498 10.153-6.46 2.3531-13.436 0.71408-18.522-3.8626-1.7097-1.5388-3.588-3.4868-4.0951-5.8213-0.49144-2.2626 1.3853-4.1852 1.5597-6.3302 0.28496-3.5033-0.21673-7.0366 0.1791-10.55 0.12218-1.0845 0.18992-3.1674 1.4438-3.5994m4.2085 17.606c-1.3112 0.54173-0.99176 2.1698-0.32961 3.1045 0.93823 1.3244 2.9481 2.1135 4.5256 1.4707 3.3864-1.3798-1.7394-5.5902-4.196-4.5752m16.398-0.0637c-3.3831 0.59653-5.3838 5.4708-0.70334 4.763 2.9846-0.45138 4.7408-5.4749 0.70334-4.763m-4.9234 7.1574c-0.62622-0.26424-1.1906-0.42677-1.8756-0.45949-5.7918-0.27667 0.28999 5.0243 1.8756 0.45949z" fill="#800080" filter="url(#filter3)" opacity=".15"/>
 <path d="m18.572 16.432c0.91166-0.31415 1.8815 0.48921 2.5536 0.99695 1.8599 1.4051 3.2259 3.4179 5.1579 4.7225 1.427 0.96354 3.1166 0.11932 4.689 0.011 1.7896-0.12324 3.9382 0.82829 5.6268 0.44393 1.5671-0.3567 2.9003-2.205 3.9856-3.2774 0.94324-0.93202 3.5495-3.9134 5.0597-2.6719 2.1527 1.7697 1.2705 7.9398 1.2705 10.408 0 1.2813-0.24965 2.8392 0.0563 4.0851 0.4323 1.7607 1.683 3.3966 1.5322 5.2928-0.37207 4.6817-6.5389 8.7108-10.498 10.153-6.46 2.3531-13.436 0.71408-18.522-3.8626-1.7097-1.5388-3.588-3.4868-4.0951-5.8213-0.49144-2.2626 1.3853-4.1852 1.5597-6.3302 0.28496-3.5033-0.21673-7.0366 0.1791-10.55 0.12218-1.0845 0.18992-3.1674 1.4438-3.5994m4.2085 17.606c-1.3112 0.54173-0.99176 2.1698-0.32961 3.1045 0.93823 1.3244 2.9481 2.1135 4.5256 1.4707 3.3864-1.3798-1.7394-5.5902-4.196-4.5752m16.398-0.0637c-3.3831 0.59653-5.3838 5.4708-0.70334 4.763 2.9846-0.45138 4.7408-5.4749 0.70334-4.763m-4.9234 7.1574c-0.62622-0.26424-1.1906-0.42677-1.8756-0.45949-5.7918-0.27667 0.28999 5.0243 1.8756 0.45949z" fill="#ffffff"/>
 <path d="m10.787 10.787a29.934 29.934 0 0 0 0 42.426c0.119 0.119 0.242 0.23 0.362 0.345-11.4-11.775-11.288-30.43 0.345-42.065s30.29-11.743 42.066-0.345c-0.116-0.12-0.227-0.243-0.345-0.362a29.934 29.934 0 0 0-42.426 0z" fill="#ffffff" filter="url(#d)" opacity=".35"/>
 <path d="m37.435 61.526c5.772-1.063 11.297-3.831 15.779-8.313s7.25-10.007 8.313-15.779c-1.592 5.434-4.606 10.657-9.02 15.072s-9.639 7.428-15.072 9.02" fill="#ffffff" filter="url(#e)" opacity=".35"/>
</svg>
