<svg width="64" height="64" xmlns="http://www.w3.org/2000/svg"><defs><linearGradient id="b" x1="408.25" x2="407.94" y1="547.6" y2="498.89" gradientTransform="translate(-510.64 -663.52) scale(1.3276)" gradientUnits="userSpaceOnUse"><stop stop-color="#fff" offset="0"/><stop stop-color="#f5f5f5" offset="1"/></linearGradient><linearGradient id="d" x1="31.174" x2="58.826" y1="21.203" y2="21.203" gradientTransform="translate(-15 3)" gradientUnits="userSpaceOnUse"><stop stop-color="#ff0ae7" offset="0"/><stop stop-color="#ffb814" offset="1"/></linearGradient><linearGradient id="e" x1="15.938" x2="44.062" y1="44.845" y2="44.845" gradientTransform="rotate(2.377 118.86 41.374)" gradientUnits="userSpaceOnUse"><stop stop-color="#8638fd" offset="0"/><stop stop-color="#4ec2fa" offset="1"/></linearGradient><filter id="a" x="-.036" y="-.036" width="1.072" height="1.072" color-interpolation-filters="sRGB"><feGaussianBlur stdDeviation=".89"/></filter><filter id="c" x="-.063" y="-.057" width="1.126" height="1.114" color-interpolation-filters="sRGB"><feGaussianBlur stdDeviation=".739"/></filter></defs><rect transform="translate(-389.32 -489.92) scale(1.0115)" x="386.85" y="486.31" width="59.315" height="59.315" ry="29.657" filter="url(#a)" opacity=".25"/><rect x="1.983" y="1.978" width="59.997" height="59.997" ry="29.998" fill="url(#b)"/><g transform="translate(-2.839 -4.58) scale(1.1613)" filter="url(#c)" opacity=".25"><path d="M30 16 16.174 27.549l4.223 4.857L30 24.385l9.604 8.021 4.222-4.857zM39.539 35.706a11 11 0 0 1-9.86 5.285 11 11 0 0 1-8.941-5.285l-4.803 3.616a17 17 0 0 0 13.495 7.664 17 17 0 0 0 14.635-7.245z" opacity="1" style="paint-order:stroke markers fill"/></g><path d="M30 16 16.174 27.549l4.223 4.857L30 24.385l9.604 8.021 4.222-4.857z" fill="url(#d)" style="paint-order:stroke markers fill" transform="translate(-2.839 -4.58) scale(1.1613)"/><path d="M39.539 35.706a11 11 0 0 1-9.86 5.285 11 11 0 0 1-8.941-5.285l-4.803 3.616a17 17 0 0 0 13.495 7.664 17 17 0 0 0 14.635-7.245z" fill="url(#e)" style="paint-order:stroke markers fill" transform="translate(-2.839 -4.58) scale(1.1613)"/></svg>