<svg xmlns="http://www.w3.org/2000/svg" width="64" height="64"><defs><radialGradient id="c" cx="32" cy="1096.5" r="11" gradientTransform="translate(3.354 -963.98) scale(.90909)" gradientUnits="userSpaceOnUse"><stop offset="0"/><stop offset="1" stop-opacity="0"/></radialGradient><linearGradient id="b" x1="7.937" x2="7.937" y1="15.081" y2="1.852" gradientTransform="translate(-2.284 -2.286) scale(4.0494)" gradientUnits="userSpaceOnUse"><stop offset="0" stop-color="#000051"/><stop offset="1" stop-color="#191985"/></linearGradient><filter id="a" width="1.078" height="1.078" x="-.039" y="-.039" color-interpolation-filters="sRGB"><feGaussianBlur stdDeviation=".972"/></filter></defs><rect width="60" height="60" x="2" y="2" filter="url(#a)" opacity=".5" rx="30" ry="30"/><rect width="60" height="60" x="2" y="2" fill="url(#b)" rx="30" ry="30"/><circle cx="32" cy="32" r="27" fill="#3f3fc1" opacity=".3"/><circle cx="32" cy="32" r="21.949" fill="#8080ff" opacity=".3"/><circle cx="32" cy="32" r="16.734" fill="#aaf" opacity=".3"/><circle cx="32" cy="32" r="11.873" fill="#d7d7f4" opacity=".3"/><circle cx="32.445" cy="32.9" r="10" fill="url(#c)"/><circle cx="32" cy="32" r="9" fill="#6746c3"/><path fill="#fff" fill-rule="evenodd" d="M29.433 27c-.548.01-.988.452-.988 1v7.999a1 1 0 0 0 1.554.831l7-3.999a1 1 0 0 0 0-1.664l-7-3.999a1 1 0 0 0-.566-.168z" color="#000" style="isolation:auto;mix-blend-mode:normal;text-decoration-color:#000;text-decoration-line:none;text-decoration-style:solid;text-indent:0;text-transform:none;white-space:normal"/><rect width="51.133" height="5.193" x="6.497" y="44.4" fill="#000051" opacity=".4" rx="2.596" ry="2.596"/><path fill="#6746c3" d="M9.123 45c-1.106 0-1.996.89-1.996 1.996 0 1.106.89 1.996 1.996 1.996h29.939V45H9.123z" opacity=".9"/><path fill="#6746c3" d="M39.062 45v3.992h15.941c1.106 0 1.996-.89 1.996-1.996C57 45.89 56.11 45 55.003 45H39.062z" opacity=".5"/></svg>