<svg xmlns="http://www.w3.org/2000/svg" width="64" height="64"><defs><linearGradient id="c" x1="403.42" x2="391.89" y1="544.09" y2="525.72" gradientTransform="matrix(1.5 0 0 1.5 -580.86 -753.7)" gradientUnits="userSpaceOnUse"><stop offset="0" stop-color="#d21e1e"/><stop offset="1" stop-color="#e05e4c"/></linearGradient><linearGradient id="e" x1="401.3" x2="391.15" y1="523.2" y2="505.32" gradientTransform="matrix(1.5 0 0 1.5 -580.86 -753.7)" gradientUnits="userSpaceOnUse"><stop offset="0" stop-color="#ffa92d"/><stop offset="1" stop-color="#ffc169"/></linearGradient><linearGradient id="d" x1="424.6" x2="413.78" y1="523.8" y2="503.8" gradientTransform="matrix(1.5 0 0 1.5 -580.86 -753.7)" gradientUnits="userSpaceOnUse"><stop offset="0" stop-color="#377d50"/><stop offset="1" stop-color="#54d883"/></linearGradient><linearGradient id="b" x1="420.88" x2="412.12" y1="543.49" y2="525.75" gradientTransform="matrix(1.5 0 0 1.5 -580.86 -753.7)" gradientUnits="userSpaceOnUse"><stop offset="0" stop-color="#375a7d"/><stop offset="1" stop-color="#54a3d8"/></linearGradient><filter id="a" width="1.072" height="1.072" x="-.036" y="-.036" color-interpolation-filters="sRGB"><feGaussianBlur stdDeviation=".42"/></filter></defs><circle cx="400.57" cy="531.8" r="14" filter="url(#a)" opacity=".25" transform="translate(-826.35 -1107.5)scale(2.1429)"/><path fill="url(#b)" fill-rule="evenodd" d="M32 32v30h1.94A30 30 0 0 0 62 32.768V32z"/><path fill="url(#c)" fill-rule="evenodd" d="m2.037 32-.004.066A30 30 0 0 0 30.674 62H32V32z"/><path fill="url(#d)" fill-rule="evenodd" d="M32.035 2.066 32 2.068V32h30v-.937A30 30 0 0 0 32.035 2.067z"/><path fill="url(#e)" fill-rule="evenodd" d="M32 2.068A30 30 0 0 0 2.037 32H32z"/><circle cx="32.035" cy="32.067" r="30.001" fill="none"/></svg>