<svg width="64" height="64" viewBox="0 0 16.933 16.933" xmlns="http://www.w3.org/2000/svg" xmlns:xlink="http://www.w3.org/1999/xlink"><defs><linearGradient id="a"><stop stop-color="#2765c4" offset="0"/><stop stop-color="#4ec4dc" offset="1"/></linearGradient><linearGradient id="d" x1="29.778" x2="29.778" y1="2" y2="62" gradientUnits="userSpaceOnUse" xlink:href="#a"/><linearGradient id="e" x1="46.444" x2="46.444" y1="2" y2="62" gradientUnits="userSpaceOnUse" xlink:href="#a"/><linearGradient id="c" x1="10.889" x2="10.889" y1="2" y2="62" gradientUnits="userSpaceOnUse" xlink:href="#a"/><linearGradient id="g" x1="7.878" x2="7.878" y1=".529" y2="16.404" gradientUnits="userSpaceOnUse" xlink:href="#a"/><linearGradient id="f" x1="10.889" x2="10.889" y1="2" y2="62" gradientUnits="userSpaceOnUse" xlink:href="#a"/><filter id="b" x="-.036" y="-.036" width="1.072" height="1.072" color-interpolation-filters="sRGB"><feGaussianBlur stdDeviation=".238"/></filter></defs><circle cx="8.466" cy="8.466" r="7.937" fill-rule="evenodd" filter="url(#b)" opacity=".24" style="paint-order:fill markers stroke"/><circle cx="8.466" cy="8.466" r="7.937" fill="#3a81cc" fill-rule="evenodd" style="paint-order:fill markers stroke"/><g color="#000"><path transform="matrix(.26458 0 0 .26458 0 0)" d="M21.334 3.97A30 30 0 0 0 3.998 21.335h17.336z" display="block" fill="url(#c)" style="isolation:auto;mix-blend-mode:normal;paint-order:fill markers stroke"/><g stroke-width="3.78"><path transform="matrix(.26458 0 0 .26458 0 0)" d="M32 2a30 30 0 0 0-10.666 1.97v17.364h21.332V3.998A30 30 0 0 0 32 2z" display="block" fill="url(#d)" style="isolation:auto;mix-blend-mode:normal;paint-order:fill markers stroke"/><path transform="matrix(.26458 0 0 .26458 0 0)" d="M42.666 3.998v17.336h17.363A30 30 0 0 0 42.666 3.998z" display="block" fill="url(#e)" style="isolation:auto;mix-blend-mode:normal;paint-order:fill markers stroke"/><path transform="matrix(.26458 0 0 .26458 0 0)" d="M3.998 21.334A30 30 0 0 0 2 32a30 30 0 0 0 1.97 10.666h17.364V21.334Z" display="block" fill="url(#f)" style="isolation:auto;mix-blend-mode:normal;paint-order:fill markers stroke"/><g fill="#fff"><path transform="matrix(.26458 0 0 .26458 0 0)" d="M32 2a30 30 0 0 0-10.666 1.97v17.364h21.332V3.998A30 30 0 0 0 32 2zM3.998 21.334A30 30 0 0 0 2 32a30 30 0 0 0 1.97 10.666h17.364V21.334Z" display="block" opacity=".05" style="isolation:auto;mix-blend-mode:normal;paint-order:fill markers stroke"/><path transform="matrix(.26458 0 0 .26458 0 0)" d="M42.666 3.998v17.336h17.363A30 30 0 0 0 42.666 3.998z" display="block" opacity=".1" style="isolation:auto;mix-blend-mode:normal;paint-order:fill markers stroke"/></g></g><path d="M5.644 5.644h5.645v5.645H5.644z" display="block" fill="url(#g)" overflow="visible" style="isolation:auto;mix-blend-mode:normal;paint-order:fill markers stroke" transform="scale(.99999)"/><g stroke-width="3.78"><path transform="matrix(.26458 0 0 .26458 0 0)" d="M42.666 21.334v21.332h17.336A30 30 0 0 0 62 32a30 30 0 0 0-1.97-10.666z" display="block" fill="url(#e)" style="isolation:auto;mix-blend-mode:normal;paint-order:fill markers stroke"/><path transform="matrix(.26458 0 0 .26458 0 0)" d="M3.97 42.666a30 30 0 0 0 17.364 17.336V42.666z" display="block" fill="url(#f)" style="isolation:auto;mix-blend-mode:normal;paint-order:fill markers stroke"/><path transform="matrix(.26458 0 0 .26458 0 0)" d="M21.334 42.666v17.336A30 30 0 0 0 32 62a30 30 0 0 0 10.666-1.97V42.665z" display="block" fill="url(#d)" style="isolation:auto;mix-blend-mode:normal;paint-order:fill markers stroke"/><path transform="matrix(.26458 0 0 .26458 0 0)" d="M42.666 42.666v17.363a30 30 0 0 0 17.336-17.363z" display="block" fill="#8abae8" style="isolation:auto;mix-blend-mode:normal;paint-order:fill markers stroke"/><g fill="#fff"><path transform="matrix(.26458 0 0 .26458 0 0)" d="M3.97 42.666a30 30 0 0 0 17.364 17.336V42.666z" display="block" opacity=".1" style="isolation:auto;mix-blend-mode:normal;paint-order:fill markers stroke"/><path d="M11.289 5.644v5.644h4.587a7.937 7.937 0 0 0 .528-2.822 7.937 7.937 0 0 0-.521-2.822z" display="block" opacity=".15" style="isolation:auto;mix-blend-mode:normal;paint-order:fill markers stroke" transform="scale(.99999)"/><path transform="matrix(.26458 0 0 .26458 0 0)" d="M21.334 42.666v17.336A30 30 0 0 0 32 62a30 30 0 0 0 10.666-1.97V42.665z" display="block" opacity=".15" style="isolation:auto;mix-blend-mode:normal;paint-order:fill markers stroke"/></g></g><path d="M5.644 5.644h5.645v5.645H5.644z" display="block" fill="#fff" opacity=".1" overflow="visible" style="isolation:auto;mix-blend-mode:normal;paint-order:fill markers stroke" transform="scale(.99999)"/></g><g color="#000" style="paint-order:fill markers stroke"><path d="M10.737 6.128a4.609 4.609 0 0 0-.15.005c-.01-.001-.017-.005-.026-.005H6.317a.184.184 0 0 0-.184.184v4.317a4.609 4.609 0 0 0-.005.108 4.609 4.609 0 0 0 4.609 4.609 4.609 4.609 0 0 0 4.609-4.61 4.609 4.609 0 0 0-4.61-4.608z" fill-opacity=".152" overflow="visible" style="isolation:auto;mix-blend-mode:normal" transform="translate(1.35 1.345)"/><path d="M10.737 6.328a4.41 4.41 0 0 0-.144.005c-.008-.001-.015-.005-.024-.005H6.507a.176.176 0 0 0-.176.175v4.13a4.41 4.41 0 0 0-.005.104 4.41 4.41 0 0 0 4.41 4.41 4.41 4.41 0 0 0 4.41-4.41 4.41 4.41 0 0 0-4.41-4.41z" fill="#fff" overflow="visible" style="isolation:auto;mix-blend-mode:normal" transform="translate(1.35 1.345)"/><path d="M13.004 10.737a2.267 2.267 0 0 1-2.268 2.268 2.267 2.267 0 0 1-2.267-2.268 2.267 2.267 0 0 1 2.268-2.267 2.267 2.267 0 0 1 2.267 2.267z" fill="#5299dc" overflow="visible" style="isolation:auto;mix-blend-mode:normal" transform="translate(1.35 1.345)"/><path d="M10.648 9.855v.794h-.794v.265h.794l.017.793h.248v-.793h.793l.017-.265h-.81v-.794z" fill="#fff" overflow="visible" style="isolation:auto;mix-blend-mode:normal" transform="translate(1.35 1.345)"/></g></svg>