<?xml version="1.0" encoding="UTF-8"?>
<svg width="64" height="64" version="1.1" xmlns="http://www.w3.org/2000/svg">
 <defs>
  <filter id="b" x="-.080514" y="-.096617" width="1.161" height="1.1932" color-interpolation-filters="sRGB">
   <feGaussianBlur stdDeviation="1.409"/>
  </filter>
  <filter id="c" x="-.04" y="-.043636" width="1.08" height="1.0873" color-interpolation-filters="sRGB">
   <feGaussianBlur stdDeviation=".6"/>
  </filter>
  <filter id="filter943" x="-.03888" y="-.03888" width="1.0778" height="1.0778" color-interpolation-filters="sRGB">
   <feGaussianBlur stdDeviation="0.972"/>
  </filter>
  <linearGradient id="a-3" x1="7.937" x2="7.937" y1="15.081" y2="1.852" gradientTransform="matrix(4.0494,0,0,4.0494,-2.2856,-2.2523)" gradientUnits="userSpaceOnUse">
   <stop stop-color="#f1efeb" offset="0"/>
   <stop stop-color="#fdfcfc" offset="1"/>
  </linearGradient>
 </defs>
 <rect x="2" y="2" width="60" height="60" rx="30" ry="30" filter="url(#filter943)" opacity=".35" stroke-width="1.0714"/>
 <rect x="2" y="2" width="60" height="60" rx="30" ry="30" fill="url(#a-3)" stroke-width="1.0714"/>
 <path d="M51.505 17.79h-40c-.6 0-1 .4-1 1v30c0 .6.4 1 1 1h14.3c1 0 1.9.4 2.4 1.2.7 1.1 1.9 1.8 3.3 1.8s2.6-.7 3.3-1.8c.5-.8 1.5-1.2 2.4-1.2h14.3c.6 0 1-.4 1-1v-30c0-.6-.4-1-1-1z" fill="#424c72"/>
 <g transform="translate(-.667 2.507)" fill="#0d50d1" filter="url(#b)" opacity=".237" style="mix-blend-mode:normal">
  <path d="M52 17H12c-.6 0-1 .4-1 1v30c0 .6.4 1 1 1h14.3c1 0 1.9.4 2.4 1.2.7 1.1 1.9 1.8 3.3 1.8s2.6-.7 3.3-1.8c.5-.8 1.5-1.2 2.4-1.2H52c.6 0 1-.4 1-1V18c0-.6-.4-1-1-1z"/>
 </g>
 <path d="M13.505 28.79v18h16c1.1 0 2 .9 2 2 0-1.1.9-2 2-2h16v-18z" fill="#e4e7ef"/>
 <g transform="translate(-.495 .79)" fill="#a9a9a9" filter="url(#c)" opacity=".624">
  <path d="M35 13c-1.7 0-3 1.3-3 3 0-1.7-1.3-3-3-3H14v31h16c1.1 0 2 .9 2 2 0-1.1.9-2 2-2h16V13z"/>
 </g>
 <path d="M34.505 13.79c-1.7 0-3 1.3-3 3 0-1.7-1.3-3-3-3h-15v31h16c1.1 0 2 .9 2 2 0-1.1.9-2 2-2h16v-31z" fill="#fff"/>
 <path d="m17.505 16.79h4v7h-4z" fill="#57d1f7"/>
 <path d="M28.505 27.29h-11c-.3 0-.5-.2-.5-.5s.2-.5.5-.5h11c.3 0 .5.2.5.5s-.2.5-.5.5zm0-3h-4.4c-.3 0-.5-.2-.5-.5s.2-.5.5-.5h4.4c.3 0 .5.2.5.5s-.2.5-.5.5zm0-3h-4.4c-.3 0-.5-.2-.5-.5s.2-.5.5-.5h4.4c.3 0 .5.2.5.5s-.2.5-.5.5zm0-3h-4.4c-.3 0-.5-.2-.5-.5s.2-.5.5-.5h4.4c.3 0 .5.2.5.5s-.2.5-.5.5zm0 12h-11c-.3 0-.5-.2-.5-.5s.2-.5.5-.5h11c.3 0 .5.2.5.5s-.2.5-.5.5zm0 3h-11c-.3 0-.5-.2-.5-.5s.2-.5.5-.5h11c.3 0 .5.2.5.5s-.2.5-.5.5zm0 3h-11c-.3 0-.5-.2-.5-.5s.2-.5.5-.5h11c.3 0 .5.2.5.5s-.2.5-.5.5zm0 3h-11c-.3 0-.5-.2-.5-.5s.2-.5.5-.5h11c.3 0 .5.2.5.5s-.2.5-.5.5zm0 3h-11c-.3 0-.5-.2-.5-.5s.2-.5.5-.5h11c.3 0 .5.2.5.5s-.2.5-.5.5zm17-15h-11c-.3 0-.5-.2-.5-.5s.2-.5.5-.5h11c.3 0 .5.2.5.5s-.2.5-.5.5zm0 3h-11c-.3 0-.5-.2-.5-.5s.2-.5.5-.5h11c.3 0 .5.2.5.5s-.2.5-.5.5zm0-9h-11c-.3 0-.5-.2-.5-.5s.2-.5.5-.5h11c.3 0 .5.2.5.5s-.2.5-.5.5zm0-3h-11c-.3 0-.5-.2-.5-.5s.2-.5.5-.5h11c.3 0 .5.2.5.5s-.2.5-.5.5zm0 6h-11c-.3 0-.5-.2-.5-.5s.2-.5.5-.5h11c.3 0 .5.2.5.5s-.2.5-.5.5zm0 9h-11c-.3 0-.5-.2-.5-.5s.2-.5.5-.5h11c.3 0 .5.2.5.5s-.2.5-.5.5zm0 3h-11c-.3 0-.5-.2-.5-.5s.2-.5.5-.5h11c.3 0 .5.2.5.5s-.2.5-.5.5zm0 3h-11c-.3 0-.5-.2-.5-.5s.2-.5.5-.5h11c.3 0 .5.2.5.5s-.2.5-.5.5zm0 3h-11c-.3 0-.5-.2-.5-.5s.2-.5.5-.5h11c.3 0 .5.2.5.5s-.2.5-.5.5z" fill="#e4e7ef"/>
</svg>
