<svg xmlns="http://www.w3.org/2000/svg" width="64" height="64"><defs><linearGradient id="b" x1="7.937" x2="7.937" y1="15.081" y2="1.852" gradientTransform="translate(-2.286 -2.252)scale(4.0494)" gradientUnits="userSpaceOnUse"><stop offset="0" stop-color="#f1efeb"/><stop offset="1" stop-color="#fdfcfc"/></linearGradient><filter id="a" width="1.054" height="1.054" x="-.027" y="-.027" color-interpolation-filters="sRGB"><feGaussianBlur stdDeviation=".675"/></filter></defs><rect width="60" height="60" x="2" y="3" filter="url(#a)" opacity=".15" rx="30" ry="30"/><rect width="60" height="60" x="2" y="2" fill="url(#b)" rx="30" ry="30"/><path fill="#8bc0ff" d="m10 11.572-.008.01q-.473.511-.924 1.045l-.123.14q-.465.559-.904 1.14L8 13.96V37H2.418l.004.024A30 30 0 0 0 2.824 39H8v11.04l.041.051q.438.583.904 1.141l.123.14q.45.534.924 1.046l.008.01v-13.43h51.176q.236-.987.406-2H10V11.571z"/><path fill="#414141" d="M5.168 18.545Q4.523 19.835 4 21.192v.769c.34 1.42.7 3.03 1.04 4.78.8 4.16 1.61 8.96 2.43 12.92.81 3.97 1.62 6.238 2.48 8.288.43 1.02.85 1.802 1.46 2.362.31.28.7.508 1.16.558.47.05.94-.11 1.3-.36.65-.47 1.07-1.138 1.51-1.958.43-.81.85-1.77 1.26-2.8.82-2.05 1.63-3.58 2.41-5.34.79-1.78 1.58-3.64 2.29-4.5.35-.43.68-.71.91-.83s.32-.13.47-.08c.36.1 1.15.77 1.92 1.72.78.95 1.59 2.298 2.47 3.228.83.87 1.68 1.672 2.61 2.262.92.59 1.96.98 3.07.86 2.14-.23 3.761-1.83 5.171-2.51 1.55-.75 3.02-1.04 4.37-.98.521-.008.816.127 2.189.427a1 1 0 0 0 1.191-.75.997.997 0 0 0-.75-1.19c-1.264-.347-1.836-.454-2.54-.478-1.87-.07-3.631.37-5.311 1.18-1.82.88-3.43 2.21-4.52 2.33-.51.06-1.08-.12-1.78-.56-.69-.44-1.46-1.14-2.24-1.96-.73-.76-1.53-2.08-2.37-3.11s-1.67-2.02-2.92-2.38c-.66-.19-1.38-.06-1.96.25s-1.06.77-1.51 1.34c-.91 1.13-1.73 3.09-2.56 4.95-.83 1.88-1.64 3.419-2.44 5.409-.4.99-.79 1.902-1.16 2.602-.36.67-.71 1.088-.87 1.218-.24-.19-.62-.77-1-1.67-.75-1.79-1.57-4.02-2.37-7.92-.8-3.91-1.61-8.71-2.42-12.9-.607-3.15-1.158-5.887-1.822-7.824"/><path fill="#ff881e" d="m44.492 34.626 3.921 2.208 12.321-19.5-3.921-2.208z"/><path fill="#e66100" d="m47.427 36.298 1.479.825 12.321-19.5-1.479-.826z"/><path fill="#ffb367" d="m45.477 35.204-1.478-.846 12.321-19.48 1.478.826z"/><path fill="#dc5051" d="M59.116 13.001c-.964 0-1.903.474-2.432 1.314l-1.17 1.849 4.912 2.757 1.169-1.849c.808-1.279.363-2.93-.994-3.692a3.04 3.04 0 0 0-1.485-.379"/><path fill="#e8ddc7" d="m44.406 39.001 4.521-1.899-4.907-2.765z"/><path fill="#3d3846" d="m44.406 39.001 1.971-.826-2.142-1.196z"/><path fill="#b7b7b7" d="m54.927 17.086 4.907 2.765 1.179-1.857-4.907-2.765z"/></svg>