<svg xmlns="http://www.w3.org/2000/svg" xmlns:xlink="http://www.w3.org/1999/xlink" width="64" height="64"><defs><linearGradient id="c" gradientUnits="userSpaceOnUse"><stop offset="0" stop-color="#b1b0b6" style="stop-color:#b3b3b3;stop-opacity:1"/><stop offset=".5" stop-color="#d8d7d6" style="stop-color:#d7d7d7;stop-opacity:1"/><stop offset="1" stop-color="#6f667f" style="stop-color:#737373;stop-opacity:1"/></linearGradient><linearGradient id="d" gradientUnits="userSpaceOnUse"><stop offset="0" stop-color="#b1b0b6" style="stop-color:#b3b3b3;stop-opacity:1"/><stop offset=".272" stop-color="#c0c0be" style="stop-color:#bfbfbf;stop-opacity:1"/><stop offset="1" stop-color="#6f667f" style="stop-color:#737373;stop-opacity:1"/></linearGradient><linearGradient id="j"><stop offset="0" style="stop-color:#747474;stop-opacity:1"/><stop offset="1" style="stop-color:#cecece;stop-opacity:1"/></linearGradient><linearGradient id="i"><stop offset="0" style="stop-color:#4d4d4d;stop-opacity:1"/><stop offset="1" style="stop-color:#bfbfbf;stop-opacity:1"/></linearGradient><linearGradient id="h" x1="7.937" x2="7.937" y1="15.081" y2="1.852" gradientTransform="scale(3.7796)" gradientUnits="userSpaceOnUse" spreadMethod="pad"><stop offset="0" stop-color="#ffc30d" style="stop-color:#666;stop-opacity:1"/><stop offset=".204" stop-color="#ffc30d" style="stop-color:#8c8c8c;stop-opacity:1"/><stop offset=".804" stop-color="#ffc30d" style="stop-color:#8c8c8c;stop-opacity:1"/><stop offset="1" stop-color="#fff63f" style="stop-color:#666;stop-opacity:1"/></linearGradient><linearGradient xlink:href="#a" id="k" x1="7.937" x2="7.937" y1="15.081" y2="10.116" gradientTransform="scale(3.7796)" gradientUnits="userSpaceOnUse"/><linearGradient xlink:href="#b" id="a" x1="7.937" x2="7.937" y1="15.081" y2="1.852" gradientTransform="scale(3.7796)" gradientUnits="userSpaceOnUse"><stop offset="0" stop-color="#ffc30d" style="stop-color:#bfbfbf;stop-opacity:1"/><stop offset="1" stop-color="#fff63f" style="stop-color:#696969;stop-opacity:1"/></linearGradient><linearGradient id="b" x1="7.937" x2="7.937" y1="15.081" y2="1.852" gradientTransform="scale(3.7796)" gradientUnits="userSpaceOnUse" spreadMethod="pad"><stop offset="0" stop-color="#ffc30d" style="stop-color:#d9a300;stop-opacity:1"/><stop offset="1" stop-color="#fff63f"/></linearGradient><linearGradient id="m" x1="30" x2="104" y1="94" y2="108" gradientTransform="translate(-131.871 -33.496)" gradientUnits="userSpaceOnUse"><stop offset="0" stop-color="#f6f5f4"/><stop offset="1" stop-color="#deddda"/></linearGradient><linearGradient xlink:href="#c" id="q" x1="49.325" x2="53.605" y1="222.747" y2="230.159" gradientTransform="scale(-1 1)rotate(67.81 9.946 118.092)"/><linearGradient id="g" gradientUnits="userSpaceOnUse"><stop offset="0" stop-color="#b1b0b6" style="stop-color:#b3b3b3;stop-opacity:1"/><stop offset=".5" stop-color="#d8d7d6" style="stop-color:#d7d7d7;stop-opacity:1"/><stop offset="1" stop-color="#6f667f" style="stop-color:#737373;stop-opacity:1"/></linearGradient><linearGradient id="r" x1="58" x2="70" y1="-211" y2="-211" gradientTransform="matrix(3.0015 0 0 -3.0015 -128.105 -573.326)" gradientUnits="userSpaceOnUse"><stop offset="0" stop-color="#77767b" style="stop-color:#797979;stop-opacity:1"/><stop offset=".5" stop-color="#9a9996" style="stop-color:#989898;stop-opacity:1"/><stop offset="1" stop-color="#77767b" style="stop-color:#797979;stop-opacity:1"/></linearGradient><linearGradient id="t" x1="56.855" x2="71.127" y1="46.093" y2="46.093" gradientUnits="userSpaceOnUse"><stop offset="0" stop-color="#5e5c64" style="stop-color:#606060;stop-opacity:1"/><stop offset=".5" stop-color="#c0bfbc" style="stop-color:#bebebe;stop-opacity:1"/><stop offset="1" stop-color="#3d3846" style="stop-color:#3f3f3f;stop-opacity:1"/></linearGradient><linearGradient xlink:href="#d" id="u" x1="61" x2="67" y1="220" y2="220" gradientTransform="scale(-1 1)rotate(51.875 13.743 81.732)"/><linearGradient id="f" gradientUnits="userSpaceOnUse"><stop offset="0" stop-color="#b1b0b6" style="stop-color:#b3b3b3;stop-opacity:1"/><stop offset=".272" stop-color="#c0c0be" style="stop-color:#bfbfbf;stop-opacity:1"/><stop offset="1" stop-color="#6f667f" style="stop-color:#737373;stop-opacity:1"/></linearGradient><linearGradient id="z" x1="58" x2="70" y1="-211" y2="-211" gradientTransform="matrix(2.37866 0 0 -2.37866 -88.244 -469.48)" gradientUnits="userSpaceOnUse"><stop offset="0" stop-color="#77767b"/><stop offset=".5" stop-color="#c0bfbc"/><stop offset="1" stop-color="#77767b"/></linearGradient><linearGradient xlink:href="#f" id="C" x1="61" x2="67" y1="220" y2="220" gradientTransform="scale(-1 1)rotate(51.875 15.076 81.083)"/><linearGradient xlink:href="#g" id="D" x1="49.325" x2="53.605" y1="222.747" y2="230.159" gradientTransform="scale(-1 1)rotate(67.81 10.503 117.717)"/><linearGradient xlink:href="#h" id="p" x1="1.058" x2="15.875" y1="12.427" y2="12.427" gradientTransform="translate(0 -8.89)scale(3.7796)" gradientUnits="userSpaceOnUse"/><linearGradient xlink:href="#h" id="l" x1="1.058" x2="15.875" y1="12.427" y2="12.427" gradientTransform="scale(3.7796)" gradientUnits="userSpaceOnUse"/><linearGradient xlink:href="#i" id="o" x1="36.988" x2="36.988" y1="3.938" y2="46.927" gradientUnits="userSpaceOnUse"/><linearGradient xlink:href="#j" id="B" x1="63.992" x2="63.992" y1="11.008" y2="36.352" gradientUnits="userSpaceOnUse"/><radialGradient id="n" cx="105.224" cy="148.63" r="160" gradientTransform="matrix(-.34149 -.18581 -.02812 .28036 -28.234 62.479)" gradientUnits="userSpaceOnUse"><stop offset="0" stop-color="#e0371b"/><stop offset="1" stop-color="#f6d32d"/></radialGradient><radialGradient id="A" cx="-203.367" cy="-63.488" r="12" gradientTransform="matrix(0 -1.18935 -1.18935 0 -12.128 -205.452)" gradientUnits="userSpaceOnUse"><stop offset="0" stop-color="#f0f0f0" style="stop-color:#f0f0f0;stop-opacity:1"/><stop offset="1" stop-color="#9a999a"/></radialGradient><radialGradient id="E" cx="96.054" cy="219.449" r="2.415" gradientTransform="matrix(-2.48287 0 0 2.7121 268.232 -538.415)" gradientUnits="userSpaceOnUse"><stop offset="0" stop-color="#cfcecd" style="stop-color:#cecece;stop-opacity:1"/><stop offset="1" stop-color="#827b8f" style="stop-color:#858585;stop-opacity:1"/></radialGradient><radialGradient id="F" cx="96.741" cy="219.745" r="2.415" gradientTransform="matrix(2.35544 0 0 2.5729 -127.997 -507.96)" gradientUnits="userSpaceOnUse"><stop offset="0" stop-color="#92918f" style="stop-color:#919191;stop-opacity:1"/><stop offset="1" stop-color="#524d5b" style="stop-color:#545454;stop-opacity:1"/></radialGradient></defs><rect width="60" height="60" x="2" y="2" fill="url(#a)" rx="30" ry="30" style="display:inline;fill:url(#k)"/><path d="M4 42.855v4.114A12.973 12.973 0 0 0 17.002 59.97H47a12.973 12.973 0 0 0 13.002-13.002v-4.114A12.973 12.973 0 0 1 47 55.857H17.002A12.973 12.973 0 0 1 4 42.855" style="display:inline;fill:url(#l)"/><g style="display:inline"><path fill="url(#m)" d="M-111.871 30.504h88v46h-88zm0 0" style="fill:url(#m)" transform="matrix(.57373 0 0 .5919 70.487 10.008)"/><path fill-opacity=".137" d="m-23.871 72.504-.137 4h-87.742l-.121-4zm0 0" style="display:inline" transform="matrix(.57373 0 0 .5919 70.487 10.008)"/><path fill="#f6f5f4" fill-opacity=".598" d="M-24.18 73.473h-71.76L-24.7 74.5s.52-.773.52-1.027m0 0" style="display:inline" transform="matrix(.57373 0 0 .5919 70.487 10.008)"/><path fill-opacity=".171" d="M-25.098 74.992h-72.605l71.266 1.024c.554-.29 1.132-.63 1.34-1.024m0 0" style="display:inline" transform="matrix(.57373 0 0 .5919 70.487 10.008)"/><path fill="#f6f5f4" d="m-102.094 33.973 52.239-42.254c2.41-1.953 5.898-1.614 7.812.758l21.664 26.777-3.348 29.25-40.265 32.57c-2.414 1.953-5.899 1.613-7.817-.754l-31.18-38.547c-1.913-2.37-1.519-5.847.895-7.8m0 0" style="display:inline" transform="matrix(.57373 0 0 .5919 70.487 10.008)"/><path fill="url(#n)" d="m-98.602 38.289 31.149 38.508 40.266-32.57-6-7.422c-1.918-2.371-1.52-5.852.89-7.801l7.617-6.16L-46.363-3.97zm0 0" style="display:inline;fill:url(#n)" transform="matrix(.57373 0 0 .5919 70.487 10.008)"/><path fill-opacity=".225" d="m-81.281 68.59 1.98 2.789h27.285l3.414-2.887zm0 0" style="display:inline" transform="matrix(.57373 0 0 .5919 70.487 10.008)"/></g><rect width="56.002" height="43" x="2" y="2" fill="url(#a)" rx="30" ry="30" style="display:inline;fill:url(#o);fill-opacity:1"/><path d="M4 33.967v4.113a12.973 12.973 0 0 0 13.002 13.002H47A12.973 12.973 0 0 0 60.002 38.08v-4.113A12.973 12.973 0 0 1 47 46.969H17.002A12.973 12.973 0 0 1 4 33.967" style="display:inline;fill:url(#p)"/><g style="display:inline"><path fill="#77767b" stroke="url(#q)" stroke-linecap="round" stroke-width="6.726" d="m57.66 210.34 34.78-25.779" style="fill:#797979;fill-opacity:1;stroke:url(#q)" transform="translate(-2.55 -95.763)scale(.53278)"/><path d="M69.938 43.121s-1.61 4.348-5.84 4.777c-4.235.426-6.055-2.398-6.055-2.398l-1.188 2.379s2.489 3.309 7.243 3.031c4.75-.277 6.882-5.363 7.027-5.41zm0 0" style="display:inline" transform="translate(2.882 .471)scale(.44796)"/><path d="M69.938 47.879s-1.715 4.348-5.946 4.777c-4.234.426-5.949-2.398-5.949-2.398l-1.188 2.379s2.383 3.308 7.137 3.031c4.75-.277 6.988-5.367 7.133-5.41zm0-9.516s-1.61 4.348-5.84 4.778c-4.235.425-6.055-2.399-6.055-2.399l-1.188 2.38s2.489 3.308 7.243 3.03c4.75-.273 6.882-5.363 7.027-5.41zm0 0" style="display:inline" transform="translate(2.882 .471)scale(.44796)"/><path fill="url(#r)" d="M63.992 36.352c-9.949 0-18.012 8.066-18.012 18.011v5.63C45.98 69.936 54.043 78 63.992 78 73.938 78 82 69.938 82 59.992v-5.629c0-9.945-8.062-18.011-18.008-18.011m0 0" style="fill:url(#r)" transform="translate(2.882 .471)scale(.44796)"/><path fill="#deddda" d="M31.548 16.88a7.704 7.704 0 1 0 0 15.407 7.704 7.704 0 0 0 0-15.408m0 0"/><path fill="url(#t)" d="m58.043 31.227-1.188 2.378 1.188 2.38-1.188 2.378 1.188 2.38-1.188 2.378 1.188 2.379-1.188 2.379 1.188 2.379-1.188 2.379v1.187a7.133 7.133 0 0 0 10.704 6.18 7.13 7.13 0 0 0 3.566-6.18v-3.566l-1.187-2.38 1.187-2.378-1.187-2.379 1.187-2.379-1.187-2.379 1.187-2.379-1.187-2.379 1.187-2.378-1.187-2.38Zm0 0" style="fill:url(#t)" transform="translate(2.882 .471)scale(.44796)"/><path fill="#fff" fill-opacity=".382" d="M34.212 15.525s-.721 1.947-2.616 2.14c-1.897.192-2.713-1.075-2.713-1.075l-.532 1.066s1.115 1.482 3.245 1.36c2.127-.124 3.083-2.405 3.147-2.426zm0 0"/><path fill="#241f31" fill-opacity=".339" d="M71.125 35.984c-.145.047-2.277 5.137-7.027 5.414-4.754.274-7.243-3.035-7.243-3.035l1.188 2.38s1.82 2.823 6.055 2.398c4.23-.43 5.84-4.778 5.84-4.778l.05.102zm0 0" style="display:inline" transform="translate(2.882 .471)scale(.44796)"/><path fill="#241f31" fill-opacity=".339" d="M34.743 20.853c-.064.021-1.02 2.301-3.147 2.424-2.13.124-3.245-1.358-3.245-1.358l.532 1.065s.816 1.266 2.713 1.073c1.895-.19 2.616-2.138 2.616-2.138l.022.045zm0 0"/><path fill="#241f31" fill-opacity=".339" d="M34.743 18.722c-.064.02-1.02 2.3-3.147 2.423-2.13.125-3.245-1.358-3.245-1.358l.532 1.066s.816 1.265 2.713 1.073c1.895-.191 2.616-2.139 2.616-2.139l.022.046zm0 0"/><path fill="#77767b" stroke="url(#u)" stroke-linecap="round" stroke-width="6.726" d="M69.003 210.133 35.68 184.407" style="display:inline;fill:#797979;fill-opacity:1;stroke:url(#u)" transform="translate(-2.55 -95.763)scale(.53278)"/><path fill="url(#z)" d="M78.262 32.418c0-7.883-6.39-14.273-14.27-14.273-7.883 0-14.273 6.39-14.273 14.273s6.39 14.27 14.273 14.27c7.88 0 14.27-6.387 14.27-14.27m0 0" style="fill:url(#z)" transform="translate(2.882 .471)scale(.44796)"/><path fill="url(#A)" d="M63.992 11.008c-7.883 0-14.273 6.39-14.273 14.273s6.39 14.274 14.273 14.274c7.88 0 14.27-6.39 14.27-14.274s-6.39-14.273-14.27-14.273m0 0" style="fill:url(#A)" transform="translate(2.882 .471)scale(.44796)"/><path fill="#77767b" d="M25.165 14.676q-.008.157-.01.317a6.393 6.393 0 0 0 6.393 6.392 6.39 6.39 0 0 0 6.392-6.392 4 4 0 0 0-.01-.217 6.39 6.39 0 0 1-6.382 6.077 6.396 6.396 0 0 1-6.383-6.177m0 0"/><path fill="#c0bfbc" d="M63.992 11.008c-6.812 0-12.336 5.523-12.336 12.336 0 6.812 5.524 12.336 12.336 12.336s12.332-5.524 12.332-12.336-5.52-12.336-12.332-12.336m0 0" style="fill:url(#B)" transform="translate(2.882 .471)scale(.44796)"/><path fill="#77767b" stroke="url(#C)" stroke-linecap="round" stroke-width="6.726" d="m92.32 227.56-17.792-13.962" style="fill:#797979;fill-opacity:1;stroke:url(#C)" transform="translate(-2.55 -95.763)scale(.53278)"/><path fill="#77767b" stroke="url(#D)" stroke-linecap="round" stroke-width="6.726" d="m35.559 227.95 17.867-13.862" style="fill:#797979;fill-opacity:1;stroke:url(#D)" transform="translate(-2.55 -95.763)scale(.53278)"/><path fill="url(#E)" d="M26.164 56.594a3.69 3.69 0 0 0 3.695 3.691c1.164 0 2.254-1.484 2.254-2.8a3.7 3.7 0 0 0-3.695-3.696c-1.125 0-2.254 1.172-2.254 2.805m0 0" style="fill:url(#E)" transform="translate(2.882 .471)scale(.44796)"/><path fill="#9c98a2" d="M48.417 25.543c0 1-.812 1.81-1.811 1.81-.573 0-1.106-.725-1.106-1.373 0-1 .812-1.811 1.81-1.811.552 0 1.107.574 1.107 1.374m0 0"/><path fill="url(#F)" d="M101.648 56.508a3.503 3.503 0 0 1-3.503 3.504c-1.106 0-2.141-1.407-2.141-2.657a3.504 3.504 0 0 1 3.508-3.503c1.066 0 2.136 1.109 2.136 2.656m0 0" style="fill:url(#F)" transform="translate(2.882 .471)scale(.44796)"/></g></svg>