<?xml version="1.0" encoding="UTF-8"?>
<svg width="64" height="64" version="1.1" xmlns="http://www.w3.org/2000/svg">
 <defs>
  <linearGradient id="linearGradient862-3-2" x1="7.9373" x2="7.9373" y1="15.081" y2="1.852" gradientTransform="matrix(4.0494,0,0,4.0494,-2.2856,-2.2519)" gradientUnits="userSpaceOnUse">
   <stop stop-color="#f1efeb" offset="0"/>
   <stop stop-color="#fdfcfc" offset="1"/>
  </linearGradient>
  <filter id="filter7" x="-.027" y="-.027" width="1.054" height="1.054" color-interpolation-filters="sRGB">
   <feGaussianBlur stdDeviation="0.675"/>
  </filter>
 </defs>
 <rect x="2" y="3" width="60" height="60" rx="30" ry="30" filter="url(#filter7)" opacity=".15"/>
 <rect x="2" y="2" width="60" height="60" rx="30" ry="30" fill="url(#linearGradient862-3-2)" stroke-width="4.0494"/>
 <path d="m10 11.572c-0.002833 0.003051-0.0049807 0.006713-0.0078125 0.009765-0.31621 0.34081-0.62313 0.69007-0.92383 1.0449-0.040202 0.047587-0.083138 0.092783-0.12305 0.14062-0.31119 0.3719-0.6117 0.75318-0.9043 1.1406-0.013121 0.017375-0.027934 0.033375-0.041016 0.050781v23.041h-5.582c0.0013079 0.007855 0.0025914 0.015585 0.0039062 0.023438 0.11168 0.66701 0.24775 1.3255 0.40234 1.9766h5.1758v11.041c0.013082 0.017406 0.027894 0.033406 0.041016 0.050781 0.2926 0.38745 0.59311 0.76873 0.9043 1.1406 0.039909 0.047842 0.082845 0.093038 0.12305 0.14062 0.3007 0.35485 0.60762 0.70411 0.92383 1.0449 0.0028246 0.003044 0.0049867 0.006722 0.0078125 0.009765v-13.428h51.176c0.15641-0.65875 0.29384-1.3249 0.40625-2h-51.582v-25.428z" fill="#8bc0ff"/>
 <path d="m5.168 18.545c-0.43002 0.85936-0.8204 1.742-1.168 2.6465v0.76953c0.34 1.42 0.69906 3.0293 1.0391 4.7793 0.8 4.16 1.6116 8.9599 2.4316 12.92 0.81 3.97 1.6185 6.2391 2.4785 8.2891 0.43 1.02 0.85094 1.8013 1.4609 2.3613 0.31 0.28 0.70016 0.50859 1.1602 0.55859 0.47 0.05 0.93883-0.10938 1.2988-0.35938 0.65-0.47 1.0717-1.139 1.5117-1.959 0.43-0.81 0.84977-1.7708 1.2598-2.8008 0.82-2.05 1.6302-3.5798 2.4102-5.3398 0.79-1.78 1.5791-3.64 2.2891-4.5 0.35-0.43 0.68016-0.71008 0.91016-0.83008s0.3207-0.13008 0.4707-0.080078c0.36 0.1 1.1499 0.7707 1.9199 1.7207 0.78 0.95 1.5888 2.2985 2.4688 3.2285 0.83 0.87 1.6813 1.6717 2.6113 2.2617 0.92 0.59 1.9584 0.97937 3.0684 0.85937 2.14-0.23 3.7619-1.8298 5.1719-2.5098 1.55-0.75 3.0191-1.0405 4.3691-0.98047 0.5218-0.0072 0.81726 0.12784 2.1895 0.42773 0.54042 0.11811 1.0714-0.22 1.1914-0.75 0.12-0.54-0.22-1.0695-0.75-1.1895-1.264-0.34761-1.836-0.45466-2.541-0.47852-1.87-0.07-3.6305 0.36969-5.3105 1.1797-1.82 0.88-3.4295 2.2101-4.5195 2.3301-0.51 0.06-1.0793-0.12055-1.7793-0.56055-0.69-0.44-1.4602-1.139-2.2402-1.959-0.73-0.76-1.5311-2.0794-2.3711-3.1094s-1.6699-2.0209-2.9199-2.3809c-0.66-0.19-1.379-0.06-1.959 0.25-0.58 0.31-1.0598 0.76984-1.5098 1.3398-0.91 1.13-1.7305 3.0912-2.5605 4.9512-0.83 1.88-1.6395 3.4182-2.4395 5.4082-0.4 0.99-0.79016 1.9016-1.1602 2.6016-0.36 0.67-0.71109 1.0888-0.87109 1.2188-0.24-0.19-0.62-0.76992-1-1.6699-0.75-1.79-1.5691-4.0199-2.3691-7.9199-0.8-3.91-1.6099-8.7104-2.4199-12.9-0.6075-3.15-1.1585-5.8878-1.8223-7.8242z" fill="#414141"/>
 <path d="m44.492 34.626 3.921 2.208 12.321-19.5-3.921-2.208z" fill="#ff881e"/>
 <path d="m47.427 36.298 1.479 0.825 12.321-19.5-1.479-0.826z" fill="#e66100"/>
 <path d="m45.477 35.204-1.478-0.846 12.321-19.48 1.478 0.826z" fill="#ffb367"/>
 <path d="m59.116 13.001c-0.964 0-1.903 0.474-2.432 1.314l-1.17 1.849 4.912 2.757 1.169-1.849c0.808-1.279 0.363-2.93-0.994-3.692-0.467-0.262-0.994-0.381-1.485-0.379z" fill="#dc5051"/>
 <path d="m44.406 39.001 4.521-1.899-4.907-2.765z" fill="#e8ddc7"/>
 <path d="m44.406 39.001 1.971-0.826-2.142-1.196z" fill="#3d3846"/>
 <path d="m54.927 17.086 4.907 2.765 1.179-1.857-4.907-2.765z" fill="#b7b7b7"/>
</svg>
