<svg xmlns="http://www.w3.org/2000/svg" width="64" height="64" fill="none"><defs><linearGradient id="b" x1="7.937" x2="7.937" y1="15.081" y2="1.852" gradientTransform="translate(-2.286 -2.252) scale(4.0494)" gradientUnits="userSpaceOnUse"><stop offset="0" stop-color="#23192d"/><stop offset="1" stop-color="#3b274f"/></linearGradient><filter id="a" width="1.078" height="1.078" x="-.039" y="-.039" color-interpolation-filters="sRGB"><feGaussianBlur stdDeviation=".972"/></filter></defs><rect width="60" height="60" x="2" y="2" fill="#000" filter="url(#a)" opacity=".35" rx="30" ry="30"/><rect width="60" height="60" x="2" y="2" fill="url(#b)" rx="30" ry="30"/><path d="M8.2 5A4.19 4.19 0 0 0 4 9.2V56.8a4.19 4.19 0 0 0 4.2 4.2H55.8a4.19 4.19 0 0 0 4.2-4.2V9.2A4.19 4.19 0 0 0 55.8 5h-23.8z" opacity=".2"/><path fill="#5491df" d="M18 46v-4h-7V21h7v-7h7v7h-7v14h7v14h-7v-3z"/><path fill="#df605d" d="M39 46v-4h7v-7h-7V14h7v7h7v21h-7v7h-7v-3z"/><path fill="#37955a" d="M25 46v-4h14v7H25v-2.8zm0-28.5V14h14v7H25v-3.5z"/><g fill="#f7e4d7"><path d="M18 21h7v7h-7zM25 21h7v7h-7zM18 28h7v7h-7zM39 35h7v7h-7z"/></g></svg>