<svg xmlns="http://www.w3.org/2000/svg" xmlns:xlink="http://www.w3.org/1999/xlink" xml:space="preserve" width="64" height="64"><defs><linearGradient id="b"><stop offset="0" style="stop-color:#584513;stop-opacity:1"/><stop offset=".151" style="stop-color:#8e6a1f;stop-opacity:1"/><stop offset=".884" style="stop-color:#cd972a;stop-opacity:1"/><stop offset="1" style="stop-color:#e5c283;stop-opacity:1"/></linearGradient><linearGradient id="a"><stop offset="0" style="stop-color:#cdab8f;stop-opacity:1"/><stop offset="1" style="stop-color:#513924;stop-opacity:1"/></linearGradient><linearGradient id="e" x1="7.937" x2="7.937" y1="15.081" y2="1.852" gradientTransform="scale(3.7796)" gradientUnits="userSpaceOnUse"><stop offset="0" stop-color="#363636"/><stop offset="1" stop-color="#6c6c6c"/></linearGradient><linearGradient xlink:href="#a" id="f" x1="46.825" x2="46.825" y1="3.932" y2="59.364" gradientUnits="userSpaceOnUse"/><linearGradient xlink:href="#b" id="c" x1="15.667" x2="21.796" y1="3.35" y2="3.35" gradientTransform="translate(-1.198 -.635)" gradientUnits="userSpaceOnUse"/><linearGradient xlink:href="#b" id="d" x1="15.667" x2="21.796" y1="3.35" y2="3.35" gradientTransform="translate(27.737 1.552)" gradientUnits="userSpaceOnUse"/><linearGradient xlink:href="#b" id="l" x1="68" x2="120" y1="72" y2="72" gradientUnits="userSpaceOnUse"/><linearGradient xlink:href="#b" id="k" x1="8" x2="60" y1="72" y2="72" gradientUnits="userSpaceOnUse"/><filter id="j" width="1.463" height="1.463" x="-.231" y="-.231" style="color-interpolation-filters:sRGB"><feGaussianBlur stdDeviation="2.339"/></filter><filter id="i" width="1.463" height="1.463" x="-.231" y="-.231" style="color-interpolation-filters:sRGB"><feGaussianBlur stdDeviation="2.339"/></filter></defs><rect width="6.129" height="7.403" x="14.469" y=".527" ry="1.713" style="opacity:1;fill:url(#c);stroke-width:2;stroke-linecap:round;stroke-linejoin:bevel"/><rect width="6.129" height="4.375" x="43.404" y="2.714" ry="1.713" style="fill:url(#d);fill-opacity:1;stroke-width:2;stroke-linecap:round;stroke-linejoin:bevel"/><rect width="60" height="60" x="2" y="2" fill="url(#e)" rx="30" ry="30" style="fill:url(#f);fill-opacity:1"/><path fill="url(#h)" d="M45.834 43.92c-6.701 0-12.134-5.433-12.134-12.135 0-6.7 5.433-12.133 12.134-12.133s12.134 5.432 12.134 12.133c0 6.702-5.433 12.134-12.134 12.134m0 0" style="fill:#000;fill-opacity:1;stroke-width:.466683;filter:url(#i);opacity:.25"/><path fill="url(#h)" d="M18.168 44.103c-6.701 0-12.134-5.432-12.134-12.133 0-6.702 5.433-12.134 12.134-12.134s12.134 5.432 12.134 12.134c0 6.7-5.433 12.133-12.134 12.133m0 0" style="fill:#000;fill-opacity:1;stroke-width:.466683;filter:url(#j);opacity:.25"/><path fill="url(#g)" d="M34 98C19.64 98 8 86.36 8 72s11.64-26 26-26 26 11.64 26 26-11.64 26-26 26m0 0" style="display:inline;fill:url(#k);fill-opacity:1" transform="translate(2.133 -1.632)scale(.46668)"/><path fill="#f6f5f4" d="M29.2 31.97c0 6.185-5.014 11.2-11.2 11.2S6.8 38.155 6.8 31.97c0-6.186 5.015-11.2 11.2-11.2 6.186 0 11.2 5.014 11.2 11.2m0 0"/><path fill="#3d3846" d="M28.268 32.436H26.4v-.933h1.867zm0 0"/><path fill="#77767b" d="m26.658 37.508-1.615-.934.466-.809 1.616.933zm-3.928 3.586-.934-1.616.81-.466.933 1.615zm0 0"/><path fill="#3d3846" d="M17.534 42.237V40.37h.933v1.867zm0 0"/><path fill="#77767b" d="m12.462 40.627.934-1.615.81.466-.934 1.616zm-3.586-3.929 1.616-.933.466.81-1.615.933zm0 0"/><path fill="#3d3846" d="M7.733 31.503H9.6v.933H7.733zm0 0"/><path fill="#77767b" d="m9.343 26.431 1.615.934-.466.81-1.616-.934zm3.929-3.585.933 1.615-.81.466-.933-1.615zm0 0"/><path fill="#3d3846" d="M18.467 21.703v1.866h-.933v-1.866zm0 0"/><path fill="#77767b" d="m23.539 23.312-.934 1.615-.81-.466.934-1.615zm3.586 3.928-1.616.934-.466-.81 1.615-.933zm0 0"/><path fill="#e01b24" d="M14.267 22.636h.933v3.733h-.933zm0 0"/><path fill="#e01b24" d="M15.667 22.636a.933.933 0 1 1-1.866.001.933.933 0 0 1 1.866-.001m0 0"/><g fill="#241f31" style="display:inline"><path d="M19.867 31.97a1.866 1.866 0 1 1-3.733 0 1.866 1.866 0 1 1 3.733 0m0 0"/><path d="m18.01 36.73-.925-4.576 1.83-.369.925 4.574zm0 0"/><path d="m10.75 28.717 7.416 2.817-.331.873-7.416-2.818Zm0 0"/></g><path fill="url(#h)" d="M94 98c-14.36 0-26-11.64-26-26s11.64-26 26-26 26 11.64 26 26-11.64 26-26 26m0 0" style="fill:url(#l);fill-opacity:1" transform="translate(2.133 -1.632)scale(.46668)"/><path fill="#f6f5f4" d="M57.202 31.97c0 6.185-5.015 11.2-11.2 11.2-6.186 0-11.2-5.015-11.2-11.2 0-6.186 5.014-11.2 11.2-11.2s11.2 5.014 11.2 11.2m0 0"/><path fill="#3d3846" d="M56.269 32.436h-1.867v-.933h1.867zm0 0"/><path fill="#77767b" d="m54.659 37.508-1.615-.934.466-.809 1.616.933zm-3.929 3.586-.933-1.616.81-.466.933 1.615zm0 0"/><path fill="#3d3846" d="M45.535 42.237V40.37h.933v1.867zm0 0"/><path fill="#77767b" d="m40.463 40.627.934-1.615.81.466-.934 1.616zm-3.586-3.929 1.616-.933.466.81-1.615.933zm0 0"/><path fill="#3d3846" d="M35.734 31.503h1.867v.933h-1.867zm0 0"/><path fill="#77767b" d="m37.344 26.431 1.615.934-.466.81-1.616-.934zm3.929-3.585.933 1.615-.81.466-.933-1.615zm0 0"/><path fill="#3d3846" d="M46.468 21.703v1.866h-.933v-1.866zm0 0"/><path fill="#77767b" d="m51.54 23.312-.934 1.615-.81-.466.934-1.615zm3.586 3.928-1.616.934-.466-.81 1.615-.933zm0 0"/><path fill="#e01b24" d="M42.268 22.636h.933v3.733h-.933zm0 0"/><path fill="#e01b24" d="M43.668 22.636a.933.933 0 1 1-1.866.001.933.933 0 0 1 1.866-.001m0 0"/><path fill="#241f31" d="M47.868 31.97a1.866 1.866 0 1 1-3.733 0 1.866 1.866 0 1 1 3.733 0m0 0"/><path fill="#241f31" d="m46.01 36.73-.924-4.576 1.83-.369.925 4.574zm0 0"/><path fill="#241f31" d="m38.752 28.717 7.415 2.817-.331.873-7.416-2.818Zm0 0"/></svg>