<svg xmlns="http://www.w3.org/2000/svg" width="64" height="64" fill="none"><defs><filter id="c" width="1.078" height="1.078" x="-.039" y="-.039" color-interpolation-filters="sRGB"><feGaussianBlur stdDeviation=".972"/></filter><filter id="a" width="1.078" height="1.078" x="-.039" y="-.039" color-interpolation-filters="sRGB"><feGaussianBlur stdDeviation=".972"/></filter><linearGradient id="b" x1="7.937" x2="7.937" y1="15.081" y2="1.852" gradientTransform="translate(-2.286 -2.252) scale(4.0494)" gradientUnits="userSpaceOnUse"><stop offset="0" stop-color="#f1efeb"/><stop offset="1" stop-color="#fdfcfc"/></linearGradient></defs><g stroke-width="1.071"><rect width="60" height="60" x="2" y="2" fill="#000" filter="url(#a)" opacity=".35" rx="30" ry="30"/><rect width="60" height="60" x="2" y="2" fill="url(#b)" rx="30" ry="30"/><rect width="60" height="60" x="2" y="2" filter="url(#c)" opacity=".35" rx="30" ry="30"/></g><g stroke-width="2"><path fill="#e647ff" d="M31.99 11a20.957 20.957 0 0 0-14.843 6.168l7.423 7.424A10.5 10.5 0 0 1 31.99 21.5z"/><path fill="#ff3636" d="M31.99 11v10.5a10.5 10.5 0 0 1 .01 0 10.5 10.5 0 0 1 7.419 3.082l7.413-7.414A20.954 20.954 0 0 0 31.99 11z"/><path fill="#5964ff" d="M17.168 17.162A20.955 20.955 0 0 0 11 32.005h10.5a10.5 10.5 0 0 1 0-.005 10.5 10.5 0 0 1 3.081-7.424z"/><path fill="#53bdff" d="M11 32.005a20.958 20.958 0 0 0 6.168 14.844l7.419-7.42a10.5 10.5 0 0 1-3.087-7.423z"/><path fill="#ff7221" d="m46.833 17.162-7.414 7.414A10.5 10.5 0 0 1 42.501 32a10.5 10.5 0 0 1 0 .005H53a20.953 20.953 0 0 0-6.168-14.843z"/><path fill="#ffac29" d="M42.5 32.005a10.5 10.5 0 0 1-3.086 7.424l7.418 7.419A20.952 20.952 0 0 0 53 32.005z"/><path fill="#80ffe5" d="m24.571 39.41-7.423 7.423a20.952 20.952 0 0 0 14.843 6.168V42.5a10.5 10.5 0 0 1-7.419-3.092z"/><path fill="#73ff44" d="M39.418 39.418A10.5 10.5 0 0 1 32 42.5a10.5 10.5 0 0 1-.01 0V53a20.952 20.952 0 0 0 14.843-6.168z"/></g></svg>