<svg xmlns="http://www.w3.org/2000/svg" xmlns:xlink="http://www.w3.org/1999/xlink" width="64" height="64"><defs><linearGradient xlink:href="#a" id="h" x1="-48" x2="-24" y1="248" y2="248" gradientTransform="matrix(.83333 0 0 .95455 -278.5 -124.98)" gradientUnits="userSpaceOnUse"/><linearGradient id="a"><stop offset="0" stop-color="#e01b24"/><stop offset="1" stop-color="#f66151"/></linearGradient><linearGradient xlink:href="#a" id="i" x1="-42" x2="-30" y1="194" y2="194" gradientTransform="rotate(-90 69.125 203.38)" gradientUnits="userSpaceOnUse"/><linearGradient id="e" x1="408.25" x2="407.94" y1="547.6" y2="498.89" gradientTransform="translate(-510.64 -663.52)scale(1.3276)" gradientUnits="userSpaceOnUse"><stop offset="0" stop-color="#fff"/><stop offset="1" stop-color="#e6e6e6"/></linearGradient><linearGradient id="c" x1="31.981" x2="31.981" y1="1.978" y2="61.975" gradientTransform="translate(-510.64 -663.52)scale(1.3276)" gradientUnits="userSpaceOnUse"><stop offset="0" stop-color="#ebe8e8"/><stop offset="1" stop-color="#e6e6e6"/></linearGradient><filter id="b" width="1.072" height="1.072" x="-.036" y="-.036" color-interpolation-filters="sRGB"><feGaussianBlur stdDeviation=".89"/></filter><filter id="g" width="1.12" height="1.12" x="-.06" y="-.06" color-interpolation-filters="sRGB"><feGaussianBlur stdDeviation="2.08"/></filter><filter id="d" width="1.072" height="1.072" x="-.036" y="-.036" color-interpolation-filters="sRGB"><feGaussianBlur stdDeviation=".372"/></filter><filter id="j" width="1.12" height="1.12" x="-.06" y="-.06" color-interpolation-filters="sRGB"><feGaussianBlur stdDeviation=".62"/></filter><clipPath id="f"><rect width="112" height="82" x="-120" y="-282" fill="#f6f5f4" rx="8" ry="8" style="paint-order:normal" transform="scale(-1)"/></clipPath></defs><rect width="59.315" height="59.315" x="386.85" y="486.31" filter="url(#b)" opacity=".25" ry="29.657" transform="translate(-389.32 -489.92)scale(1.0115)"/><rect width="59.997" height="59.997" x="1.983" y="1.978" fill="url(#c)" ry="29.998"/><path d="m37.064 61.793 24.801-24.801c-12.749 2.04-22.761 12.052-24.801 24.801" filter="url(#d)" opacity=".15"/><path fill="url(#e)" d="M31.98 1.978A29.93 29.93 0 0 0 1.982 31.977 29.93 29.93 0 0 0 31.98 61.975h.002a30.4 30.4 0 0 0 4.81-.385l24.801-24.801a30.5 30.5 0 0 0 .387-4.813A29.93 29.93 0 0 0 31.982 1.978z"/><path fill-opacity=".292" d="m117.29 187.67-63.398 63.396 1.414 1.414-7.07 15.557 2.828 2.828 15.557-7.07 1.414 1.414 63.396-63.398z" clip-path="url(#f)" enable-background="new" filter="url(#g)" transform="translate(-2.961 -88.951)scale(.5024)"/><path fill="none" stroke="#e01b24" stroke-linecap="round" stroke-width="2.01" d="M9.047 26.852c6.724 2.282-2.808 8.89 6.993 9.518 5.76.368 5.716 8.316 5.716 8.316"/><path fill="url(#h)" d="M-318.5 69.75h20v84h-20z" enable-background="new" transform="rotate(-135 -62.796 -.694)scale(.5024)"/><path fill="#3d3846" d="m55.375 18.623-7.105-7.105 1.42-1.421 7.106 7.105zM35.48 38.517l-7.104-7.105 1.42-1.421 7.106 7.105z" enable-background="new"/><path fill="url(#i)" d="M69.75 316.5v-16l-16 6v4z" enable-background="new" transform="rotate(-45 -108.384 106.014)scale(.5024)"/><path fill-opacity=".259" d="m31.928 42.07-7.105-7.106-.71.71 7.105 7.106z" enable-background="new"/><path fill="#3d3846" d="M35.48 24.307a5.024 2.512-45 0 0 5.33-1.776 5.024 2.512-45 0 0 1.776-5.33z" enable-background="new"/><path d="m36.115 61.454 24.801-24.801c-12.749 2.04-22.761 12.052-24.801 24.801" filter="url(#j)" opacity=".05"/><path fill="#fff" d="m36.793 61.59 24.801-24.801c-12.749 2.04-22.761 12.052-24.801 24.801"/></svg>