<?xml version="1.0" encoding="UTF-8"?>
<svg width="64" height="64" version="1.1" viewBox="0 0 64 64" xmlns="http://www.w3.org/2000/svg">
 <defs>
  <linearGradient id="linearGradient862-3-9" x1="7.9373" x2="7.9373" y1="15.081" y2="1.852" gradientTransform="matrix(4.0494,0,0,4.0494,-2.2856,-2.2519)" gradientUnits="userSpaceOnUse">
   <stop stop-color="#f1efeb" offset="0"/>
   <stop stop-color="#fdfcfc" offset="1"/>
  </linearGradient>
  <filter id="filter7" x="-.027" y="-.027" width="1.054" height="1.054" color-interpolation-filters="sRGB">
   <feGaussianBlur stdDeviation="0.675"/>
  </filter>
 </defs>
 <rect x="2" y="3" width="60" height="60" rx="30" ry="30" filter="url(#filter7)" opacity=".15"/>
 <rect x="2" y="2" width="60" height="60" rx="30" ry="30" fill="url(#linearGradient862-3-9)" stroke-width="4.0494"/>
 <g transform="matrix(.074278 0 0 .074278 12.985 12.985)">
  <path d="m303.86 78.753-266.8 239.4c-9.082 8.147-14.803 19.979-14.803 33.146 0 5.211 0.9 10.209 2.544 14.855 11.925 4.484 48.656 16.728 123.23 38.989 86.817 0 161.96-3.325 162.5-3.339l57.878-201.46z" fill="#84d993"/>
  <path d="m325.01 144.7-21.148 18.504v226.36c19.061-0.513 33.542-5.299 52.989-11.13 115.08-34.504 92.82-222.61 92.82-222.61l17.809-17.391v-66.783h-44.522c-26.714-9.322-50.087-20.452-74.512-32.903l-44.584 40.004v51.055z" fill="#50bf94"/>
  <g fill="#fdf3d3">
   <path d="m422.96 251.13-37.843 90.574 56.058-0.899c16.638-25.945 26.307-56.735 26.307-89.675v-112.7h-44.522z"/>
   <path d="m300.52 373.56h-100.17c0 19.339 34.504 44.479 103.51 44.479 0.038-1e-3 0.076-1e-3 0.112-2e-3 18.503-0.38 36.29-3.809 52.88-9.803l38.279-30.918-38.281-17.507c-15.944 8.297-33.929 13.192-52.989 13.705-1.11 0.028-2.223 0.046-3.339 0.046z"/>
  </g>
  <path d="m478.61 451.48h-14.959l-22.48-110.67-18.214-89.675c-3.373-16.6-18.844-28.267-36.058-26.537-17.213 1.731-30.053 16.246-30.052 33.184l4e-3 102.04 2e-3 48.426 1e-3 43.238s29.372 13.774 78.926 33.391h76.221c0-18.439-14.949-33.39-33.391-33.39z" fill="#b9f291"/>
  <path d="m402.39 451.48h-190.91c5.565 11.548 14.122 21.914 25.6 33.391h198.7c0-18.44-14.951-33.391-33.391-33.391z" fill="#50bf94"/>
  <path d="m303.86 418.09c-0.012-17.134-6.448-32.717-17.017-44.522-12.228-13.659-29.989-22.261-49.765-22.261h-170.3c-15.902 0-30.502 5.573-41.977 14.855-1.829 1.478-3.586 3.042-5.248 4.704-12.081 12.091-19.558 28.786-19.558 47.224l146.92 50.504z" fill="#b9f291"/>
  <path d="m294.9 451.48c5.685-9.825 8.956-21.222 8.956-33.391h-303.86c0 36.886 29.897 66.783 66.783 66.783h170.3c24.715 0 46.278-13.435 57.826-33.392z" fill="#84d993"/>
  <g fill="#b9f291">
   <rect x="303.86" y="129.8" width="33.391" height="33.391"/>
   <rect x="161.25" y="239.99" width="33.391" height="33.391"/>
   <rect x="205.77" y="284.52" width="33.391" height="33.391"/>
  </g>
  <path d="m378.44 116.17c24.587 0 44.522-19.935 44.522-44.522s-19.935-44.522-44.522-44.522l-28.939 48.557z" fill="#aa3e51"/>
  <path d="m333.91 71.652c0 24.587 19.935 44.522 44.522 44.522v-89.044c-11.421 0-21.835 4.305-29.716 11.376-0.039 0.036-0.08 0.069-0.119 0.105-0.051 0.046-0.103 0.091-0.155 0.139-8.929 8.143-14.532 19.867-14.532 32.902z" fill="#f72349"/>
 </g>
</svg>
