<svg width="64" height="64" version="1.1" xmlns="http://www.w3.org/2000/svg">
 <defs>
  <linearGradient id="c" x1="30.317" x2="30.317" y1="17.654" y2="45.602" gradientUnits="userSpaceOnUse">
   <stop stop-color="#55dfb8" offset="0"/>
   <stop stop-color="#3bce82" offset="1"/>
  </linearGradient>
  <filter id="b" x="-.048" y="-.048" width="1.096" height="1.096" color-interpolation-filters="sRGB">
   <feGaussianBlur stdDeviation=".64"/>
  </filter>
  <filter id="d" x="-.14701" y="-.14698" width="1.294" height="1.294" color-interpolation-filters="sRGB">
   <feGaussianBlur stdDeviation=".28"/>
  </filter>
  <linearGradient id="b-2" x1="520" x2="520.03" y1="44" y2="985.85" gradientTransform="matrix(.06356 0 0 .06356 -.542 -.542)" gradientUnits="userSpaceOnUse">
   <stop stop-color="#353535" offset="0"/>
   <stop stop-color="#6d6d6d" offset="1"/>
  </linearGradient>
  <filter id="a-2" x="-.036" y="-.036" width="1.072" height="1.072" color-interpolation-filters="sRGB">
   <feGaussianBlur stdDeviation="14.16"/>
  </filter>
 </defs>
 <path transform="matrix(.06356 0 0 .06356 -.542 -.542)" d="m969.7 392c-1.1-4.35-2.35-9-3.65-13.6-2.5-8.75-5.35-17.6-8.45-26.35-6.45-18.25-14.15-36.05-23.15-53.65-3.8-7.4-7.95-14.95-12.3-22.4h-0.025q-30.601-52.01-76.325-97.75c-92.15-92.15-203.45-138.25-333.8-138.25s-241.6 46.1-333.75 138.25-138.25 203.4-138.25 333.75 46.1 241.65 138.25 333.8c68.05 68.05 146.5 110.95 234.9 128.65 31.95 6.4 64.75 9.55 98.85 9.55 130.35 0 241.65-46.05 333.8-138.2 48.6-48.6 84.4-102.5 107.35-161.8 17-43.95 27-90.8 29.95-140.75 0.6-10.2 0.9-20.65 0.9-31.25 0-41.75-4.7-81.6-14.3-120z" filter="url(#a-2)" opacity=".25"/>
 <path d="m61.091 24.373a28.41 28.41 0 0 0-2.24-5.95c-0.242-0.47-0.506-0.95-0.782-1.423h-2e-3q-1.945-3.306-4.851-6.213c-5.857-5.857-12.931-8.787-21.216-8.787s-15.356 2.93-21.213 8.787-8.787 12.928-8.787 21.213 2.93 15.36 8.787 21.216c4.325 4.325 9.311 7.052 14.93 8.177 2.03 0.407 4.115 0.607 6.283 0.607 8.285 0 15.359-2.927 21.216-8.784 3.089-3.089 5.364-6.515 6.823-10.284 1.08-2.793 1.716-5.771 1.904-8.946 0.038-0.648 0.057-1.312 0.057-1.986 0-2.654-0.299-5.187-0.91-7.627z" fill="url(#b-2)"/>
 <g transform="translate(-6.001 -5.964) scale(1.1875)" stroke-width=".571">
  <circle cx="32.001" cy="32.541" r="16" filter="url(#b)" opacity=".2"/>
  <circle cx="32.001" cy="31.97" r="16" fill="url(#c)"/>
  <path d="M33.144 18.255v.837c6.201.855 10.879 5.533 11.734 11.734h.837a14.604 14.604 0 0 0-12.571-12.57zm0 3.429v.83c4.2.77 7.535 4.003 8.313 8.312h.83c-.794-4.733-4.532-8.355-9.143-9.142zM18.287 33.113a14.604 14.604 0 0 0 12.571 12.57v-.836c-6.201-.855-10.879-5.534-11.734-11.734zm3.429 0c.793 4.734 4.531 8.355 9.142 9.143v-.83c-4.2-.772-7.535-4.004-8.312-8.313z" fill="#48ad79"/>
  <path d="M32.621 38.799c3.77-.34 6.55-3.662 6.209-7.42l-.005-.05c-.34-3.757-3.673-6.528-7.444-6.188-3.77.34-6.55 3.662-6.209 7.42l.005.05c.34 3.757 3.674 6.528 7.444 6.188z" fill="#48ad79"/>
  <path d="M32.208 30.265a2.28 2.28 0 0 1 2.07 2.473l-.002.017a2.283 2.283 0 0 1-2.481 2.063 2.28 2.28 0 0 1-2.07-2.474l.002-.016a2.283 2.283 0 0 1 2.481-2.063z" filter="url(#d)" opacity=".2"/>
  <path d="M32.208 29.693a2.28 2.28 0 0 1 2.07 2.473l-.002.017a2.283 2.283 0 0 1-2.481 2.063 2.28 2.28 0 0 1-2.07-2.474l.002-.016a2.283 2.283 0 0 1 2.481-2.063z" fill="#fff"/>
 </g>
</svg>
