<svg width="64" height="64" xmlns="http://www.w3.org/2000/svg"><defs><linearGradient id="g" x1="46" x2="46" y1="60" y2="30" gradientTransform="translate(-.002)" gradientUnits="userSpaceOnUse"><stop stop-color="#1e1e1e" offset="0"/><stop stop-color="#3c3c3c" offset="1"/></linearGradient><linearGradient id="d" x1="48.192" x2="48.192" y1="13.361" y2="-4.371" gradientTransform="matrix(2.3195 0 0 2.3122 -79.781 22.106)" gradientUnits="userSpaceOnUse"><stop stop-color="#9ca0a1" offset="0"/><stop stop-color="#e5e6e6" offset="1"/></linearGradient><linearGradient id="e" x1="49.178" x2="48.877" y1="4.35" y2="8.059" gradientTransform="matrix(2.3195 0 0 1.9157 -79.782 27.339)" gradientUnits="userSpaceOnUse"><stop stop-color="#f4d984" offset="0"/><stop stop-color="#f8db80" offset="1"/></linearGradient><linearGradient id="b" x1="-39.605" x2="-39.605" y1="58.247" y2="6.988" gradientTransform="translate(70.543 .42)" gradientUnits="userSpaceOnUse"><stop stop-color="#666" offset="0"/><stop stop-color="#b3b3b3" offset="1"/></linearGradient><filter id="c" x="-.127" y="-.094" width="1.253" height="1.188" color-interpolation-filters="sRGB"><feGaussianBlur stdDeviation="1.688"/></filter><filter id="h" x="-.068" y="-.27" width="1.135" height="1.54" color-interpolation-filters="sRGB"><feGaussianBlur stdDeviation=".675"/></filter><filter id="a" x="-.039" y="-.039" width="1.078" height="1.078" color-interpolation-filters="sRGB"><feGaussianBlur stdDeviation=".972"/></filter><radialGradient id="f" cx="12.171" cy="12.171" r="4.762" gradientTransform="scale(3.7796)" gradientUnits="userSpaceOnUse"><stop offset="0"/><stop offset=".473"/><stop stop-opacity="0" offset="1"/></radialGradient></defs><circle cx="32" cy="32" r="30" filter="url(#a)" opacity=".15" style="isolation:isolate;paint-order:stroke fill markers"/><circle cx="32" cy="32" r="30" fill="url(#b)" style="isolation:isolate;paint-order:stroke fill markers"/><path d="M32 11c-6.094 0-11 4.906-11 11v6h-3c-1.108 0-2 .892-2 2v22c0 1.108.892 2 2 2h28c1.108 0 2-.892 2-2V30c0-1.108-.892-2-2-2h-3v-6c0-6.094-4.906-11-11-11zm0 4c3.878 0 7 3.122 7 7v6H25v-6c0-3.878 3.122-7 7-7z" filter="url(#c)" opacity=".15"/><path d="M32 10c-6.094 0-11 4.906-11 11v6h-3c-1.108 0-2 .892-2 2v22c0 1.108.892 2 2 2h28c1.108 0 2-.892 2-2V29c0-1.108-.892-2-2-2h-3v-6c0-6.094-4.906-11-11-11zm0 4c3.878 0 7 3.122 7 7v6H25v-6c0-3.878 3.122-7 7-7z" fill="url(#d)"/><path d="M16 35v8h32v-8z" fill="url(#e)" opacity=".809"/><path d="M21.708 35 16 43h4.018l5.71-8zm7.25 0-5.707 8h4.019l5.708-8zm7.252 0-5.709 8h4.02l5.707-8zm7.25 0-5.707 8h4.018l5.708-8z" fill="#222"/><circle cx="46.002" cy="46.002" r="18" fill="url(#f)" opacity=".65"/><circle cx="46" cy="45" r="16" fill="url(#g)"/><path d="M36.949 43a3 3 0 0 0-2.95 3 3 3 0 0 0 3 3 3 3 0 0 0 3-3 3 3 0 0 0-3-3 3 3 0 0 0-.05 0zm9 0a3 3 0 0 0-2.95 3 3 3 0 0 0 3 3 3 3 0 0 0 3-3 3 3 0 0 0-3-3 3 3 0 0 0-.05 0zm9 0a3 3 0 0 0-2.95 3 3 3 0 0 0 3 3 3 3 0 0 0 3-3 3 3 0 0 0-3-3 3 3 0 0 0-.05 0z" filter="url(#h)" opacity=".35"/><g fill="#ececec"><circle cx="37" cy="45" r="3"/><circle cx="46" cy="45" r="3"/><circle cx="55" cy="45" r="3"/></g></svg>