<svg width="64" height="64" version="1.1" viewBox="0 0 64 64" xmlns="http://www.w3.org/2000/svg">
 <defs>
  <filter id="filter844" x="-.036" y="-.036" width="1.072" height="1.072" color-interpolation-filters="sRGB">
   <feGaussianBlur stdDeviation="0.9"/>
  </filter>
  <linearGradient id="linearGradient854" x1="31.914" x2="31.894" y1="5.3457" y2="59.613" gradientUnits="userSpaceOnUse">
   <stop stop-color="#0a1f28" offset="0"/>
   <stop stop-color="#292749" offset="1"/>
  </linearGradient>
  <filter id="filter912" x="-.06" y="-.06" width="1.12" height="1.12" color-interpolation-filters="sRGB">
   <feGaussianBlur stdDeviation="1.2778044"/>
  </filter>
  <linearGradient id="linearGradient922" x1="31.948" x2="31.861" y1="9.7561" y2="54.627" gradientTransform="matrix(.97824 0 0 .97824 .6962 .6962)" gradientUnits="userSpaceOnUse">
   <stop stop-color="#00a3eb" offset="0"/>
   <stop stop-color="#4f4cbd" offset="1"/>
  </linearGradient>
 </defs>
 <g stroke-width="1.1111">
  <circle cx="32" cy="32" r="30" filter="url(#filter844)" opacity=".25"/>
  <circle cx="32" cy="32" r="30" fill="url(#linearGradient854)"/>
  <circle transform="matrix(.99571 0 0 .99571 .1372 .1372)" cx="32" cy="32" r="25.556" filter="url(#filter912)" opacity=".25"/>
 </g>
 <circle cx="32" cy="32" r="25" fill="url(#linearGradient922)" stroke-width="1.0869"/>
 <path d="m2 32a30 30 0 0 0 29.998 30v-60a30 30 0 0 0-29.998 30z" opacity=".15" stroke-width="5.3994" style="paint-order:stroke markers fill"/>
 <path d="m44.75 24c-0.13807 0-0.25 0.11193-0.25 0.25v1.5c0 0.139 0.112 0.25 0.25 0.25h0.5c0.13807 0 0.25-0.11193 0.25-0.25v-1.5c0-0.13807-0.11193-0.25-0.25-0.25zm-4.699 1.947c-0.0667-3.8e-4 -0.13078 0.0259-0.178 0.073l-0.353 0.353c-0.0979 0.0977-0.0979 0.25632 0 0.354l1.06 1.06c0.0977 0.0979 0.25632 0.0979 0.354 0l0.353-0.353c0.0979-0.0977 0.0979-0.25632 0-0.354l-1.06-1.06c-0.0465-0.047-0.10991-0.0733-0.176-0.073zm9.898 0c-0.0657-3e-5 -0.12877 0.0263-0.175 0.073l-1.06 1.06c-0.0979 0.0977-0.0979 0.25632 0 0.354l0.353 0.353c0.0976 0.0973 0.25543 0.0973 0.353 0l1.06-1.06c0.0979-0.0977 0.0979-0.25632 0-0.354l-0.353-0.353c-0.0472-0.0471-0.1113-0.0734-0.178-0.073zm-4.949 2.053c-1.933 0-3.5 1.567-3.5 3.5s1.567 3.5 3.5 3.5 3.5-1.567 3.5-3.5-1.567-3.5-3.5-3.5zm-7.25 3c-0.13807 0-0.25 0.11193-0.25 0.25v0.5c0 0.139 0.112 0.25 0.25 0.25h1.5c0.13807 0 0.25-0.11193 0.25-0.25v-0.5c0-0.13807-0.11193-0.25-0.25-0.25zm13 0c-0.13807 0-0.25 0.11193-0.25 0.25v0.5c0 0.139 0.112 0.25 0.25 0.25h1.5c0.13807 0 0.25-0.11193 0.25-0.25v-0.5c0-0.13807-0.11193-0.25-0.25-0.25zm-9.992 4.139c-0.0668 1.01e-4 -0.13082 0.0267-0.178 0.074l-1.06 1.06c-0.0979 0.0977-0.0979 0.25632 0 0.354l0.353 0.353c0.0977 0.0979 0.25632 0.0979 0.354 0l1.06-1.06c0.0979-0.0977 0.0979-0.25632 0-0.354l-0.353-0.353c-0.0464-0.0472-0.10981-0.0738-0.176-0.074zm8.484 0c-0.0658 4.61e-4 -0.1288 0.0271-0.175 0.074l-0.354 0.353c-0.0979 0.0977-0.0979 0.25632 0 0.354l1.06 1.06c0.0977 0.0979 0.25632 0.0979 0.354 0l0.354-0.353c0.0979-0.0977 0.0979-0.25632 0-0.354l-1.06-1.06c-0.0474-0.0475-0.11186-0.0742-0.179-0.074zm-4.492 1.861c-0.13807 0-0.25 0.11193-0.25 0.25v1.5c0 0.139 0.112 0.25 0.25 0.25h0.5c0.13807 0 0.25-0.11193 0.25-0.25v-1.5c0-0.13807-0.11193-0.25-0.25-0.25z" color="#000000" fill="#fff" overflow="visible" style="isolation:auto;mix-blend-mode:normal"/>
 <path d="m21.463 24a7.5 7.5 0 0 0-7.4629 7.5 7.5 7.5 0 0 0 7.5 7.5 7.5 7.5 0 0 0 3.834-1.0547 6.5 6.5 0 0 1-0.83398 0.05469 6.5 6.5 0 0 1-6.5-6.5 6.5 6.5 0 0 1 6.5-6.5 6.5 6.5 0 0 1 0.83203 0.05469 7.5 7.5 0 0 0-3.832-1.0547 7.5 7.5 0 0 0-0.03711 0z" fill="#fff" stroke-width=".75"/>
</svg>
