<?xml version="1.0" encoding="UTF-8"?>
<svg width="64" height="64" version="1.1" viewBox="0 0 16.933 16.933" xmlns="http://www.w3.org/2000/svg">
 <defs>
  <linearGradient id="d" x1="2.646" x2="14.189" y1="3.257" y2="14.287" gradientTransform="matrix(1.0714 0 0 1.0714 -.60437 -.5958)" gradientUnits="userSpaceOnUse">
   <stop stop-color="#42a5f5" offset="0"/>
   <stop stop-color="#1e88e5" offset="1"/>
  </linearGradient>
  <filter id="filter943" x="-.03888" y="-.03888" width="1.0778" height="1.0778" color-interpolation-filters="sRGB">
   <feGaussianBlur stdDeviation="0.972"/>
  </filter>
 </defs>
 <rect transform="scale(.26458)" x="2" y="2" width="60" height="60" rx="30" ry="30" filter="url(#filter943)" opacity=".35" stroke-width="1.0714"/>
 <rect x=".52916" y=".52916" width="15.875" height="15.875" rx="7.9373" ry="7.9373" fill="url(#d)" stroke-width="1.0714"/>
 <path d="M8.467 3.704a4.762 4.762 0 0 0-4.763 4.763 4.762 4.762 0 0 0 2.284 4.061 4.762 4.762 0 0 0 .021.012 4.762 4.762 0 0 0 .388.212 4.762 4.762 0 0 0 .06.026 4.762 4.762 0 0 0 .374.157 4.762 4.762 0 0 0 .09.03 4.762 4.762 0 0 0 .351.109 4.762 4.762 0 0 0 .145.032 4.762 4.762 0 0 0 .314.063 4.762 4.762 0 0 0 .177.021 4.762 4.762 0 0 0 .304.03 4.762 4.762 0 0 0 .255.01 4.762 4.762 0 0 0 3.52-1.564 4.762 4.762 0 0 0 .045-.048l-.001-.002a4.762 4.762 0 0 0 1.198-3.15 4.762 4.762 0 0 0-4.762-4.762zm0 .53A4.233 4.233 0 0 1 12.7 8.466a4.233 4.233 0 0 1-.99 2.718c-.728-.856-1.834-1.396-3.244-1.396-1.407 0-2.513.538-3.242 1.393a4.233 4.233 0 0 1-.99-2.716 4.233 4.233 0 0 1 4.232-4.233zm0 1.322a1.587 1.72 0 0 0-1.588 1.72 1.587 1.72 0 0 0 1.588 1.72 1.587 1.72 0 0 0 1.587-1.72 1.587 1.72 0 0 0-1.587-1.72z" fill="#fff"/>
</svg>
