<svg width="64" height="64" version="1.1" viewBox="0 0 16.933 16.933" xmlns="http://www.w3.org/2000/svg">
 <defs>
  <linearGradient id="b" x1="2.646" x2="14.189" y1="3.257" y2="14.287" gradientTransform="translate(-.604 -.596)scale(1.0714)" gradientUnits="userSpaceOnUse">
   <stop stop-color="#42a5f5" offset="0"/>
   <stop stop-color="#1e88e5" offset="1"/>
  </linearGradient>
  <filter id="a" x="-.03888" y="-.03888" width="1.0778" height="1.0778" color-interpolation-filters="sRGB">
   <feGaussianBlur stdDeviation=".972"/>
  </filter>
  <filter id="e" x="-.013864" y="-.013864" width="1.0277" height="1.0277" color-interpolation-filters="sRGB">
   <feGaussianBlur stdDeviation=".298"/>
  </filter>
  <filter id="f" x="-.029686" y="-.029686" width="1.0594" height="1.0594" color-interpolation-filters="sRGB">
   <feGaussianBlur stdDeviation=".298"/>
  </filter>
 </defs>
 <rect transform="scale(.26458)" x="2" y="2" width="60" height="60" rx="30" ry="30" filter="url(#a)" opacity=".35"/>
 <rect x=".529" y=".529" width="15.875" height="15.875" rx="7.937" ry="7.937" fill="url(#b)"/>
 <path d="M8.467 3.704a4.76 4.76 0 0 0-4.763 4.763 4.76 4.76 0 0 0 2.284 4.061l.021.012a5 5 0 0 0 .388.212l.06.026a5 5 0 0 0 .374.157l.09.03a5 5 0 0 0 .351.109l.145.032a5 5 0 0 0 .314.063l.177.021a5 5 0 0 0 .304.03 5 5 0 0 0 .255.01 4.76 4.76 0 0 0 3.52-1.564l.045-.048-.001-.002a4.76 4.76 0 0 0 1.198-3.15 4.76 4.76 0 0 0-4.762-4.762m0 .53A4.233 4.233 0 0 1 12.7 8.466a4.23 4.23 0 0 1-.99 2.718c-.728-.856-1.834-1.396-3.244-1.396-1.407 0-2.513.538-3.242 1.393a4.23 4.23 0 0 1-.99-2.716 4.233 4.233 0 0 1 4.232-4.233zm0 1.322a1.587 1.72 0 0 0-1.588 1.72 1.587 1.72 0 0 0 1.588 1.72 1.587 1.72 0 0 0 1.587-1.72 1.587 1.72 0 0 0-1.587-1.72" fill="#fff"/>
 <path transform="scale(.26458)" d="m10.787 10.787a29.934 29.934 0 0 0 0 42.426c0.119 0.119 0.242 0.23 0.362 0.345-11.4-11.775-11.288-30.43 0.345-42.065s30.29-11.743 42.066-0.345c-0.116-0.12-0.227-0.243-0.345-0.362a29.934 29.934 0 0 0-42.426 0z" fill="#ffffff" filter="url(#e)" opacity=".45"/>
 <path transform="scale(.26458)" d="m37.435 61.526c5.772-1.063 11.297-3.831 15.779-8.313s7.25-10.007 8.313-15.779c-1.592 5.434-4.606 10.657-9.02 15.072s-9.639 7.428-15.072 9.02" fill="#ffffff" filter="url(#f)" opacity=".35"/>
</svg>
