<svg width="64" height="64" version="1.1" viewBox="0 0 16.933 16.933" xmlns="http://www.w3.org/2000/svg" xmlns:xlink="http://www.w3.org/1999/xlink">
 <defs>
  <linearGradient id="c" x1="8.467" x2="8.467" y1="1.05" y2="15.867" gradientTransform="matrix(1.0714 0 0 1.0714 -.60437 -.5958)" gradientUnits="userSpaceOnUse">
   <stop stop-color="#f6f95c" offset="0"/>
   <stop stop-color="#fff" offset=".475"/>
   <stop stop-color="#3e7ef5" offset="1"/>
  </linearGradient>
  <filter id="d" x="-.17169" y="-.12837" width="1.3434" height="1.2567" color-interpolation-filters="sRGB">
   <feGaussianBlur stdDeviation=".637"/>
  </filter>
  <filter id="filter6" x="-.027" y="-.027" width="1.054" height="1.054" color-interpolation-filters="sRGB">
   <feGaussianBlur stdDeviation="0.17859023"/>
  </filter>
 </defs>
 <rect x=".52916" y=".79373" width="15.875" height="15.875" rx="7.9373" ry="7.9373" filter="url(#filter6)" opacity=".15"/>
 <rect x=".52916" y=".52916" width="15.875" height="15.875" rx="7.9373" ry="7.9373" fill="url(#c)" stroke-width="1.0714"/>
 <path d="M5.103 14.511c-.133-.054-.125-.39.025-.976.069-.267.105-.547.08-.623-.05-.162.255-1.103.54-1.657.228-.445.377-1.435.312-2.08-.027-.267-.008-.458.054-.533.068-.081.08-.273.04-.64-.049-.46-.037-.54.093-.638.142-.107.14-.113-.04-.115-.187-.003-.19-.012-.142-.58.027-.317.05-.6.05-.63.002-.03.097-.066.212-.08.2-.024.21-.049.226-.542.03-.868.519-1.529 1.035-1.4.17.043.181.023.176-.342-.007-.467.161-.758.546-.941.263-.126.291-.124.634.043.374.181.514.401.514.806a.4.4 0 0 1-.172.338c-.101.067-.149.154-.115.209.088.142.348.112.52-.06.12-.12.162-.129.195-.043.032.085.325.115 1.315.133l1.273.024.026-.199c.023-.17.042-.15.136.14l.109.337h.584c.466 0 .584.024.584.12 0 .133.051.129-1.41.124-1.045-.003-1.053-.002-1.258.215-.169.179-.198.27-.161.507.032.214.013.302-.075.336-.066.025-.119.14-.119.255 0 .233-.409.671-.625.67-.072 0-.322-.09-.556-.2-.234-.108-.458-.197-.497-.197-.115 0-.083.21.047.318.081.067.12.247.12.555 0 .595-.122.94-.344.972-.24.034-.198.31.101.685.13.161.313.473.408.691.095.219.243.555.329.747.14.311.15.45.1 1.273a26 26 0 0 1-.115 1.346c-.048.357-.032.455.103.626.088.112.282.254.43.316.183.077.262.157.244.25-.027.14-.409.164-1.336.086l-.358-.03.02-.319c.047-.801.037-1.392-.03-1.869-.045-.317-.045-.615 0-.772.088-.303-.033-.5-.306-.5-.13 0-.215-.087-.324-.327-.081-.18-.239-.385-.35-.456a1 1 0 0 1-.271-.238c-.054-.086-.091-.069-.174.078-.2.352-.365.744-.413.98-.026.129-.167.39-.313.582-.147.193-.265.442-.265.56 0 .27-.327 1.076-.525 1.295-.12.133-.15.286-.148.736.002.312-.034.594-.08.626-.091.065-.505.07-.659.008m5.31-9.296a.15.15 0 0 1 .093-.134c.094-.031.025-.223-.078-.218-.03.001-.118.088-.194.193-.163.224-.109.5.069.353.06-.05.11-.137.11-.194" filter="url(#d)" opacity=".25" stroke-width="1.2025"/>
 <path d="M5.103 14.511c-.133-.054-.125-.39.025-.976.069-.267.105-.547.08-.623-.05-.162.255-1.103.54-1.657.228-.445.377-1.435.312-2.08-.027-.267-.008-.458.054-.533.068-.081.08-.273.04-.64-.049-.46-.037-.54.093-.638.142-.107.14-.113-.04-.115-.187-.003-.19-.012-.142-.58.027-.317.05-.6.05-.63.002-.03.097-.066.212-.08.2-.024.21-.049.226-.542.03-.868.519-1.529 1.035-1.4.17.043.181.023.176-.342-.007-.467.161-.758.546-.941.263-.126.291-.124.634.043.374.181.514.401.514.806a.4.4 0 0 1-.172.338c-.101.067-.149.154-.115.209.088.142.348.112.52-.06.12-.12.162-.129.195-.043.032.085.325.115 1.315.133l1.273.024.026-.199c.023-.17.042-.15.136.14l.109.337h.584c.466 0 .584.024.584.12 0 .133.051.129-1.41.124-1.045-.003-1.053-.002-1.258.215-.169.179-.198.27-.161.507.032.214.013.302-.075.336-.066.025-.119.14-.119.255 0 .233-.409.671-.625.67-.072 0-.322-.09-.556-.2-.234-.108-.458-.197-.497-.197-.115 0-.083.21.047.318.081.067.12.247.12.555 0 .595-.122.94-.344.972-.24.034-.198.31.101.685.13.161.313.473.408.691.095.219.243.555.329.747.14.311.15.45.1 1.273a26 26 0 0 1-.115 1.346c-.048.357-.032.455.103.626.088.112.282.254.43.316.183.077.262.157.244.25-.027.14-.409.164-1.336.086l-.358-.03.02-.319c.047-.801.037-1.392-.03-1.869-.045-.317-.045-.615 0-.772.088-.303-.033-.5-.306-.5-.13 0-.215-.087-.324-.327-.081-.18-.239-.385-.35-.456a1 1 0 0 1-.271-.238c-.054-.086-.091-.069-.174.078-.2.352-.365.744-.413.98-.026.129-.167.39-.313.582-.147.193-.265.442-.265.56 0 .27-.327 1.076-.525 1.295-.12.133-.15.286-.148.736.002.312-.034.594-.08.626-.091.065-.505.07-.659.008m5.31-9.296a.15.15 0 0 1 .093-.134c.094-.031.025-.223-.078-.218-.03.001-.118.088-.194.193-.163.224-.109.5.069.353.06-.05.11-.137.11-.194" stroke-width="1.2025"/>
</svg>
