<svg xmlns="http://www.w3.org/2000/svg" width="64" height="64"><defs><linearGradient id="b" x1="408.25" x2="407.94" y1="547.6" y2="498.89" gradientTransform="translate(-510.64 -663.52) scale(1.3276)" gradientUnits="userSpaceOnUse"><stop offset="0" stop-color="#fff"/><stop offset="1" stop-color="#e6e6e6"/></linearGradient><linearGradient id="d" x1="32.069" x2="32.069" y1="49.493" y2="22.285" gradientUnits="userSpaceOnUse"><stop offset="0" stop-color="#ffd611"/><stop offset="1" stop-color="#ff7811"/></linearGradient><linearGradient id="e" x1="33.569" x2="33.569" y1="55.274" y2="28.058" gradientUnits="userSpaceOnUse"><stop offset="0" stop-color="#00d9dd"/><stop offset="1" stop-color="#0072dd"/></linearGradient><filter id="a" width="1.072" height="1.072" x="-.036" y="-.036" color-interpolation-filters="sRGB"><feGaussianBlur stdDeviation=".89"/></filter><filter id="c" width="1.133" height="1.109" x="-.066" y="-.055" color-interpolation-filters="sRGB"><feGaussianBlur stdDeviation=".751"/></filter></defs><rect width="59.315" height="59.315" x="386.85" y="486.31" filter="url(#a)" opacity=".25" ry="29.657" transform="translate(-389.32 -489.92) scale(1.0115)"/><rect width="59.997" height="59.997" x="1.983" y="1.978" fill="url(#b)" ry="29.998"/><g filter="url(#c)" opacity=".15" transform="translate(-9.777 -17.372) scale(1.2732)"><path d="M34.255 22.285c18.09 21.992 13.09 30.652-15 25.98 18.859-.66 23.859-9.32 15-25.98"/><path d="M33.007 28.058c-13.352.223-15.766 6.75-7.313 19.563a32.656 32.656 0 0 0 2.273-.469C24.74 35.793 30.869 29.82 46.373 29.293c-5.27-.875-9.727-1.277-13.375-1.219m-6.219 21.17a99.167 99.167 0 0 0 4.59 6.03c-1.105-2.082-2.01-4.04-2.684-5.875-.617-.035-1.254-.098-1.906-.156"/></g><path fill="url(#d)" d="M34.255 22.285c18.09 21.992 13.09 30.652-15 25.98 18.859-.66 23.859-9.32 15-25.98" transform="translate(-9.777 -17.372) scale(1.2732)"/><path fill="url(#e)" d="M33.007 28.058c-13.352.223-15.766 6.75-7.313 19.563a32.656 32.656 0 0 0 2.273-.469C24.74 35.793 30.869 29.82 46.373 29.293c-5.27-.875-9.727-1.277-13.375-1.219m-6.219 21.17a99.167 99.167 0 0 0 4.59 6.03c-1.105-2.082-2.01-4.04-2.684-5.875-.617-.035-1.254-.098-1.906-.156" transform="translate(-9.777 -17.372) scale(1.2732)"/></svg>