<svg xmlns="http://www.w3.org/2000/svg" xmlns:xlink="http://www.w3.org/1999/xlink" width="64" height="64" enable-background="new 0 0 1024 1024" image-rendering="optimizeSpeed"><defs><linearGradient id="a"><stop offset="0" stop-color="#ecebec"/><stop offset="1" stop-color="#54595d"/></linearGradient><linearGradient id="e" x1="67" x2="67" y1="18" y2="46" gradientTransform="matrix(1.5 0 0 1.5 -68.5 -16)" gradientUnits="userSpaceOnUse"><stop offset="0" stop-color="#cfdcdf"/><stop offset="1" stop-color="#767574"/></linearGradient><linearGradient xlink:href="#a" id="f" x1="8" x2="8" y1="30" y2="32" gradientUnits="userSpaceOnUse"/><linearGradient xlink:href="#a" id="g" x1="8" x2="8" y1="30" y2="32" gradientTransform="translate(48)" gradientUnits="userSpaceOnUse"/><linearGradient xlink:href="#a" id="h" x1="8" x2="8" y1="30" y2="32" gradientTransform="translate(24 -23)" gradientUnits="userSpaceOnUse"/><linearGradient xlink:href="#a" id="i" x1="8" x2="8" y1="30" y2="32" gradientTransform="translate(24 25)" gradientUnits="userSpaceOnUse"/><linearGradient id="c" x1="499.95" x2="499.95" y1="2.008" y2="1026" gradientTransform="translate(2 2)scale(.99609)" gradientUnits="userSpaceOnUse"><stop offset="0" stop-color="#e8f1f4"/><stop offset="1" stop-color="#5d5c5b"/></linearGradient><linearGradient id="k" x1=".01" x2=".01" y1=".938" y2="-.158" gradientTransform="matrix(106.25 0 0 105.65 -17.266 -18.827)" gradientUnits="userSpaceOnUse"><stop offset="0" stop-color="#c6c8c8"/><stop offset="1" stop-color="#fff"/></linearGradient><filter id="b" width="1.072" height="1.072" x="-.036" y="-.036" color-interpolation-filters="sRGB"><feGaussianBlur stdDeviation="15.3"/></filter><filter id="j" width="1.12" height="1.12" x="-.06" y="-.06" color-interpolation-filters="sRGB"><feGaussianBlur stdDeviation="2.724"/></filter><radialGradient id="d" cx="512.01" cy="512.01" r="470.16" gradientTransform="translate(12.152 12.141)scale(.97625)" gradientUnits="userSpaceOnUse"><stop offset="0" stop-opacity="0"/><stop offset="1" stop-opacity=".526"/></radialGradient></defs><g transform="translate(1.882 1.883)scale(.05883)"><path d="M984.88 316.75q-9.292-22.529-20.962-44.139a452 452 0 0 0-13.938-24.203c-21.124-34.252-46.894-66.614-77.311-97.029-99.568-99.568-219.83-149.38-360.67-149.38-140.85 0-261.05 49.811-360.61 149.38-99.569 99.572-149.38 219.78-149.38 360.61s49.811 261.11 149.38 360.67c99.568 99.568 219.78 149.32 360.61 149.32 140.84 0 261.11-49.758 360.67-149.32 54.836-54.89 94.598-116.04 119.23-183.42 20.043-54.943 30.092-113.99 30.092-177.25 0-48.515-5.889-94.598-17.72-138.25a657 657 0 0 0-4.214-14.695 498 498 0 0 0-15.18-42.302z" filter="url(#b)" opacity=".25"/><path fill="url(#c)" d="M984.88 316.75q-9.292-22.529-20.962-44.139a452 452 0 0 0-13.938-24.203c-21.124-34.252-46.894-66.614-77.311-97.029-99.568-99.568-219.83-149.38-360.67-149.38-140.85 0-261.05 49.811-360.61 149.38-99.569 99.572-149.38 219.78-149.38 360.61s49.811 261.11 149.38 360.67c99.568 99.568 219.78 149.32 360.61 149.32 140.84 0 261.11-49.758 360.67-149.32 54.836-54.89 94.598-116.04 119.23-183.42 20.043-54.943 30.092-113.99 30.092-177.25 0-48.515-5.889-94.598-17.72-138.25a657 657 0 0 0-4.214-14.695 498 498 0 0 0-15.18-42.302z"/><circle cx="512" cy="511.99" r="458.99" fill="#666" color="#000" enable-background="accumulate"/><circle cx="512" cy="511.99" r="458.99" fill="url(#d)" color="#000" enable-background="accumulate"/></g><circle cx="32" cy="32" r="21" fill="url(#e)" fill-rule="evenodd" style="paint-order:normal"/><g fill-rule="evenodd"><circle cx="8" cy="31" r="1" fill="url(#f)" opacity=".9" style="paint-order:normal"/><circle cx="56" cy="31" r="1" fill="url(#g)" opacity=".9" style="paint-order:normal"/><circle cx="32" cy="8" r="1" fill="url(#h)" opacity=".9" style="paint-order:normal"/><circle cx="32" cy="56" r="1" fill="url(#i)" opacity=".9" style="paint-order:normal"/></g><g stroke-width="5.313"><path d="M73.424-20.337H-1.704c-9.432 0-17.08 7.648-17.08 17.078v74.518c0 9.433 7.648 17.078 17.08 17.078h75.128c9.432 0 17.078-7.645 17.078-17.078V-3.259c0-9.43-7.646-17.078-17.078-17.078" filter="url(#j)" opacity=".25" style="isolation:isolate" transform="translate(25.25 25.6)scale(.18824)"/><path fill="url(#k)" d="M72.38-18.827H-.661c-9.17 0-16.605 7.435-16.605 16.603v72.448c0 9.17 7.435 16.603 16.605 16.603H72.38c9.17 0 16.603-7.433 16.603-16.603V-2.224c0-9.168-7.433-16.603-16.603-16.603" style="isolation:isolate" transform="translate(25.25 25.6)scale(.18824)"/><path d="M-9.078-28.426v.053H8.414v-8.298H4.45a1.34 1.34 0 0 1-1.341-1.341V-51h-6.887v12.988c0 .74-.601 1.341-1.34 1.341h-3.96zm40.653.053h.968v-8.298h-3.956c-.74 0-1.34-.6-1.34-1.341V-51h-6.888v12.988c0 .74-.6 1.341-1.34 1.341h-3.97v8.298zm7.602-.053v.053h17.492v-8.298h-3.965a1.34 1.34 0 0 1-1.34-1.341V-51h-6.886v12.988c0 .74-.601 1.341-1.341 1.341h-3.96zm40.652.053h.967v-8.298h-3.972a1.34 1.34 0 0 1-1.341-1.341V-51h-6.868v12.988c0 .74-.6 1.341-1.34 1.341h-3.97v8.298zM64.27 96.367h-.967v8.3h3.966c.739 0 1.339.599 1.339 1.339v12.99h6.887v-12.989c0-.741.6-1.34 1.34-1.34h3.96v-8.299zm-24.128 0h-.966v8.3h3.954a1.34 1.34 0 0 1 1.34 1.339v12.99h6.888v-12.989c0-.741.6-1.34 1.34-1.34h3.97v-8.299zm-24.127 0h-.967v8.3h3.965c.74 0 1.339.599 1.339 1.339v12.99h6.889v-12.989c0-.741.599-1.34 1.339-1.34h3.96v-8.299H16.017zm-24.126 0h-.968v8.3h3.972a1.34 1.34 0 0 1 1.342 1.339v12.99h6.867v-12.989c0-.741.6-1.34 1.34-1.34h3.97v-8.299H-8.11zm128-102.01h-12.021a1.34 1.34 0 0 1-1.341-1.34v-3.958H98.23V6.553h8.298V2.585c0-.74.6-1.339 1.34-1.339h12.989v-6.889zm-12.021 24.139a1.34 1.34 0 0 1-1.341-1.342v-3.968H98.23v17.492h8.298v-3.954c0-.741.6-1.341 1.34-1.341h12.989v-6.888h-12.988zm0 24.118a1.34 1.34 0 0 1-1.341-1.341v-3.961H98.23v17.494h8.298v-3.965c0-.74.6-1.341 1.34-1.341h12.933l.003.002V49.5h.053v-6.885h-12.988zm0 24.137a1.34 1.34 0 0 1-1.341-1.339V61.44H98.23v17.492h8.298V74.96c0-.74.6-1.341 1.34-1.341h12.989v-6.867h-12.988zm-141.71-5.311h-.968v3.965c0 .74-.6 1.341-1.341 1.341h-12.988v6.887h12.988c.74 0 1.34.6 1.34 1.341v3.957h8.3V61.44zm0-24.128h-.968v3.956c0 .74-.6 1.34-1.341 1.34h-12.988v6.888h12.988a1.34 1.34 0 0 1 1.34 1.34v3.97h8.3V37.312zm0-24.127h-.968v3.965c0 .741-.6 1.34-1.341 1.34h-12.988v6.887h12.988a1.34 1.34 0 0 1 1.34 1.34v3.96h8.3V13.185zm0-24.126h-.968v3.972c0 .741-.6 1.34-1.341 1.34h-12.988V1.24h12.988a1.34 1.34 0 0 1 1.34 1.34v3.972h8.3v-17.494z" opacity=".5" style="isolation:isolate" transform="translate(25.25 25.6)scale(.18824)"/><path fill="#4d4d4d" fill-rule="evenodd" d="M12.505 49.769q-3.547 0-6.041-2.085T2.86 42.501t-1.111-6.839q0-3.546 1.15-6.683t3.663-5.28 5.943-2.144q3.156 0 5.085 1.481t3.332 4.014l-4.092 2.338q-1.832-3.429-4.325-3.429-2.066 0-3.449 1.578T7.127 31.2t-.546 4.462q0 4.014 1.52 6.858 1.52 2.845 4.404 2.845 2.104 0 3.214-1.403 1.111-1.403 1.111-3.663v-.584h-4.754V35.35h9.508v3.78q0 5.027-2.533 7.833t-6.546 2.806m19.172-.468H27.04V22.023h9.625q4.715 0 6.917 2.455t2.202 6.001q0 3.351-2.299 5.904t-6.82 2.552h-4.988zm0-22.914v8.184h5.222q2.104 0 3.137-1.208t1.033-2.884q0-1.598-.994-2.845t-3.176-1.247zm28.408 23.382q-4.052 0-6.624-2.592t-2.572-8.281V22.023h4.598v16.873q0 3.547 1.208 5.008t3.39 1.461q4.599 0 4.599-6.469V22.023h4.637v16.873q0 5.612-2.572 8.242t-6.664 2.631" style="isolation:isolate" transform="translate(25.25 25.6)scale(.18824)"/></g></svg>