<svg width="64" height="64" version="1.1" xmlns="http://www.w3.org/2000/svg">
 <defs>
  <filter id="h" x="-.029686" y="-.029686" width="1.0594" height="1.0594" color-interpolation-filters="sRGB">
   <feGaussianBlur stdDeviation=".298"/>
  </filter>
  <filter id="g" x="-.013864" y="-.013864" width="1.0277" height="1.0277" color-interpolation-filters="sRGB">
   <feGaussianBlur stdDeviation=".298"/>
  </filter>
  <linearGradient id="b" x1="520" x2="520" y1="4" y2="1024" gradientTransform="matrix(.06946 0 0 .06946 -3.527 -3.596)" gradientUnits="userSpaceOnUse">
   <stop stop-color="#141414" offset="0"/>
   <stop stop-color="#565656" offset="1"/>
  </linearGradient>
  <filter id="a-9" x="-.036001" y="-.036001" width="1.072" height="1.072" color-interpolation-filters="sRGB">
   <feGaussianBlur stdDeviation="14.344"/>
  </filter>
 </defs>
 <circle transform="matrix(.06274 0 0 .06274 -.125 -.125)" cx="512" cy="512" r="478.12" filter="url(#a-9)" opacity=".25" style="paint-order:stroke markers fill"/>
 <circle cx="32" cy="32" r="30" fill="url(#b)" style="paint-order:stroke markers fill"/>
 <path d="m10.787 10.787a29.934 29.934 0 0 0 0 42.426c0.119 0.119 0.242 0.23 0.362 0.345-11.4-11.775-11.288-30.43 0.345-42.065s30.29-11.743 42.066-0.345c-0.116-0.12-0.227-0.243-0.345-0.362a29.934 29.934 0 0 0-42.426 0z" fill="#ffffff" filter="url(#g)" opacity=".15"/>
 <path d="m37.435 61.526c5.772-1.063 11.297-3.831 15.779-8.313s7.25-10.007 8.313-15.779c-1.592 5.434-4.606 10.657-9.02 15.072s-9.639 7.428-15.072 9.02" fill="#ffffff" filter="url(#h)" opacity=".2"/>
 <path d="m31.464 16a0.53335 0.53335 0 0 0-0.53125 0.53517v3.1992c0 0.29654 0.23684 0.53127 0.53125 0.53125h1.0703a0.53335 0.53335 0 0 0 0.53125-0.53125v-3.1992a0.53335 0.53335 0 0 0-0.53125-0.53517zm-10.024 4.1525a0.53335 0.53335 0 0 0-0.37891 0.15626l-0.75391 0.75391a0.53335 0.53335 0 0 0 0 0.75391l2.2618 2.2618a0.53335 0.53335 0 0 0 0.75391 0l0.75391-0.75391a0.53335 0.53335 0 0 0 0-0.75391l-2.2618-2.2618a0.53335 0.53335 0 0 0-0.375-0.15626zm21.118 0a0.53335 0.53335 0 0 0-0.375 0.15626l-2.2618 2.2618a0.53335 0.53335 0 0 0 0 0.75391l0.75391 0.75391a0.53335 0.53335 0 0 0 0.75391 0l2.2618-2.2618a0.53335 0.53335 0 0 0 0-0.75391l-0.75391-0.75391a0.53335 0.53335 0 0 0-0.37891-0.15626zm-10.567 4.3751a7.4667 7.4667 0 0 0-1.3946 0.14844 7.4667 7.4667 0 0 0-0.10546 0.0196 7.4667 7.4667 0 0 0-2.5782 1.0664 7.4667 7.4667 0 0 0-0.11718 0.07812 7.4667 7.4667 0 0 0-1.9571 1.9571 7.4667 7.4667 0 0 0-0.07812 0.11718 7.4667 7.4667 0 0 0-1.0664 2.5782 7.4667 7.4667 0 0 0-0.0196 0.10546 7.4667 7.4667 0 0 0-0.14844 1.3946 7.4667 7.4667 0 0 0 0.14454 1.3867 7.4667 7.4667 0 0 0 0.03124 0.15234 7.4667 7.4667 0 0 0 1.0274 2.496 7.4667 7.4667 0 0 0 0.14844 0.22656 7.4667 7.4667 0 0 0 0.84377 1.0235 7.4667 7.4667 0 0 0 1 0.82423 7.4667 7.4667 0 0 0 0.27734 0.1836 7.4667 7.4667 0 0 0 1.1367 0.60547 7.4667 7.4667 0 0 0 0.03906 0.0156 7.4667 7.4667 0 0 0 1.1914 0.35938 7.4667 7.4667 0 0 0 0.375 0.07422 7.4667 7.4667 0 0 0 1.1485 0.11328 7.4667 7.4667 0 0 0 0.10938 0.0118 7.4667 7.4667 0 0 0 0.07812-0.0078 7.4667 7.4667 0 0 0 0.9805-0.08204v-0.0156a7.4667 7.4667 0 0 0 6.4063-7.3595 7.4667 7.4667 0 0 0-6.4063-7.3595v-0.02734a7.4667 7.4667 0 0 0-1.0664-0.08594zm1.0664 2.2578a5.3335 5.3335 0 0 1 4.2735 5.2149 5.3335 5.3335 0 0 1-4.2735 5.2149zm-16.524 4.1485a0.53335 0.53335 0 0 0-0.53517 0.53125v1.0703c0 0.29654 0.24076 0.53125 0.53517 0.53125h3.1992a0.53335 0.53335 0 0 0 0.53125-0.53125v-1.0703a0.53335 0.53335 0 0 0-0.53125-0.53125zm27.73 0a0.53335 0.53335 0 0 0-0.53125 0.53125v1.0703c0 0.29654 0.23684 0.53125 0.53125 0.53125h3.1992a0.53335 0.53335 0 0 0 0.53517-0.53125v-1.0703a0.53335 0.53335 0 0 0-0.53517-0.53125zm-21.316 8.8283a0.53335 0.53335 0 0 0-0.3789 0.16016l-2.2618 2.2618a0.53335 0.53335 0 0 0 0 0.75391l0.75391 0.75391a0.53335 0.53335 0 0 0 0.75391 0l2.2618-2.2618a0.53335 0.53335 0 0 0 0-0.75391l-0.75391-0.75391a0.53335 0.53335 0 0 0-0.37501-0.16016zm18.102 0a0.53335 0.53335 0 0 0-0.37501 0.16016l-0.75391 0.75391a0.53335 0.53335 0 0 0 0 0.75391l2.2618 2.2618a0.53335 0.53335 0 0 0 0.75391 0l0.75391-0.75391a0.53335 0.53335 0 0 0 0-0.75391l-2.2618-2.2618a0.53335 0.53335 0 0 0-0.3789-0.16016zm-9.5861 3.9727a0.53335 0.53335 0 0 0-0.53125 0.53125v3.1992c0 0.29654 0.23684 0.53517 0.53125 0.53517h1.0703a0.53335 0.53335 0 0 0 0.53125-0.53517v-3.1992a0.53335 0.53335 0 0 0-0.53125-0.53125z" fill="#ffffff" stroke-width="2"/>
</svg>
