<svg xmlns="http://www.w3.org/2000/svg" xmlns:xlink="http://www.w3.org/1999/xlink" width="64" height="64"><defs><linearGradient id="a"><stop offset="0" stop-color="#fff"/><stop offset="1" stop-color="#d8f5fe"/></linearGradient><linearGradient id="c" x1="399.99" x2="399.99" y1="545.14" y2="518.14" gradientTransform="translate(-826.36 -1107.5)scale(2.1429)" gradientUnits="userSpaceOnUse"><stop offset="0" stop-color="#197ff1"/><stop offset="1" stop-color="#21c6fb"/></linearGradient><linearGradient xlink:href="#a" id="f" x1="-366.02" x2="-366.02" y1="1088.5" y2="1141.5" gradientTransform="translate(246.31 -631.09)scale(.59321)" gradientUnits="userSpaceOnUse"/><linearGradient xlink:href="#a" id="g" x1="-366.02" x2="-366.02" y1="1088.5" y2="1141.5" gradientTransform="translate(213.76 -501.47)scale(.47964)" gradientUnits="userSpaceOnUse"/><filter id="b" width="1.072" height="1.072" x="-.036" y="-.036" color-interpolation-filters="sRGB"><feGaussianBlur stdDeviation=".42"/></filter><filter id="e" width="1.069" height="1.075" x="-.034" y="-.038" color-interpolation-filters="sRGB"><feGaussianBlur stdDeviation=".491"/></filter><filter id="d" width="1.069" height="1.075" x="-.034" y="-.038" color-interpolation-filters="sRGB"><feGaussianBlur stdDeviation=".397"/></filter></defs><circle cx="400.57" cy="531.8" r="14" filter="url(#b)" opacity=".25" transform="translate(-826.36 -1107.5)scale(2.1429)"/><g stroke-width="1.571"><circle cx="32.02" cy="32.044" r="30.001" fill="url(#c)"/><circle cx="32.02" cy="32.044" r="30.001" fill="none"/></g><g fill-rule="evenodd" stroke-width=".975"><path d="M52.005 45.934c0-4.536-7.698-6.85-10.768-7.673 0 0 .127-2.544.424-3.477s.34-1.992.466-2.29c.127-.296 1.626-1.653 1.711-2.924-.02-.76-.17-.94-.545-.94v-3.94c0-2.129-3.103-3.987-5.14-3.987s-5.139 1.858-5.139 3.987v3.942c-.374 0-.524.18-.545.939.085 1.271 1.584 2.628 1.711 2.925s.17 1.356.467 2.29c.296.932.424 3.476.424 3.476-3.07.822-10.768 3.137-10.768 7.673z" filter="url(#d)" opacity=".15" transform="translate(-.811 .898)scale(1.0254)"/><path d="M46.252 45.934c0-5.61-9.52-8.473-13.318-9.49 0 0 .157-3.146.524-4.3s.42-2.464.577-2.831 2.011-2.045 2.116-3.618c-.025-.939-.21-1.161-.674-1.161v-4.876c0-2.632-3.837-4.93-6.356-4.93-2.52 0-6.357 2.298-6.357 4.93v4.876c-.463 0-.648.222-.673 1.16.104 1.574 1.958 3.252 2.115 3.619s.21 1.678.577 2.831.525 4.3.525 4.3c-3.798 1.017-13.318 3.88-13.318 9.49z" filter="url(#e)" opacity=".25" transform="translate(-.811 .898)scale(1.0254)"/><path fill="url(#f)" d="M46.252 45.934c0-5.61-9.52-8.473-13.318-9.49 0 0 .157-3.146.524-4.3s.42-2.464.577-2.831 2.011-2.045 2.116-3.618c-.025-.939-.21-1.161-.674-1.161v-4.876c0-2.632-3.837-4.93-6.356-4.93-2.52 0-6.357 2.298-6.357 4.93v4.876c-.463 0-.648.222-.673 1.16.104 1.574 1.958 3.252 2.115 3.619s.21 1.678.577 2.831.525 4.3.525 4.3c-3.798 1.017-13.318 3.88-13.318 9.49z" transform="translate(-.811 .898)scale(1.0254)"/><path fill="url(#g)" d="M52.005 45.934c0-4.536-7.698-6.85-10.768-7.673 0 0 .127-2.544.424-3.477s.34-1.992.466-2.29c.127-.296 1.626-1.653 1.711-2.924-.02-.76-.17-.94-.545-.94v-3.94c0-2.129-3.103-3.987-5.14-3.987s-5.139 1.858-5.139 3.987v3.942c-.374 0-.524.18-.545.939.085 1.271 1.584 2.628 1.711 2.925s.17 1.356.467 2.29c.296.932.424 3.476.424 3.476-3.07.822-10.768 3.137-10.768 7.673z" opacity=".5" transform="translate(-.811 .898)scale(1.0254)"/></g></svg>