<svg width="64" height="64" version="1.1" xmlns="http://www.w3.org/2000/svg" xmlns:xlink="http://www.w3.org/1999/xlink">
 <defs>
  <linearGradient id="d">
   <stop stop-color="#fff" offset="0"/>
   <stop stop-color="#d8f5fe" offset="1"/>
  </linearGradient>
  <linearGradient id="b" x1="399.57" x2="399.57" y1="545.8" y2="517.8" gradientTransform="matrix(2.1429 0 0 2.1429 -826.36 -1107.5)" gradientUnits="userSpaceOnUse">
   <stop stop-color="#3889e9" offset="0"/>
   <stop stop-color="#5ea5fb" offset="1"/>
  </linearGradient>
  <linearGradient id="a" x1="399.99" x2="399.99" y1="545.14" y2="518.14" gradientTransform="matrix(2.1429 0 0 2.1429 -826.36 -1107.5)" gradientUnits="userSpaceOnUse">
   <stop stop-color="#197ff1" offset="0"/>
   <stop stop-color="#21c6fb" offset="1"/>
  </linearGradient>
  <filter id="c" x="-.036" y="-.036" width="1.072" height="1.072" color-interpolation-filters="sRGB">
   <feGaussianBlur stdDeviation="0.41999874"/>
  </filter>
  <linearGradient id="f" x1="-366.02" x2="-366.02" y1="1088.5" y2="1141.5" gradientTransform="matrix(.59321 0 0 .59321 246.31 -631.09)" gradientUnits="userSpaceOnUse" xlink:href="#d"/>
  <linearGradient id="e" x1="-366.02" x2="-366.02" y1="1088.5" y2="1141.5" gradientTransform="matrix(.47964 0 0 .47964 213.76 -501.47)" gradientUnits="userSpaceOnUse" xlink:href="#d"/>
  <filter id="h" x="-.034395" y="-.037763" width="1.0688" height="1.0755" color-interpolation-filters="sRGB">
   <feGaussianBlur stdDeviation="0.49101909"/>
  </filter>
  <filter id="g" x="-.034395" y="-.037763" width="1.0688" height="1.0755" color-interpolation-filters="sRGB">
   <feGaussianBlur stdDeviation="0.39701343"/>
  </filter>
 </defs>
 <circle transform="matrix(2.1429 0 0 2.1429 -826.36 -1107.5)" cx="400.57" cy="531.8" r="14" filter="url(#c)" opacity=".25" stroke-width=".73333"/>
 <g stroke-width="1.5715">
  <circle cx="32.02" cy="32.044" r="30.001" fill="url(#a)"/>
  <circle cx="32.02" cy="32.044" r="30.001" fill-opacity="0"/>
  <circle cx="32.02" cy="32.044" r="0" fill="url(#b)"/>
 </g>
 <g transform="matrix(1.0254 0 0 1.0254 -.81097 .89817)" fill-rule="evenodd" stroke-width=".97521">
  <path d="m52.005 45.934c0-4.5363-7.6978-6.8507-10.768-7.6735 0 0 0.12719-2.5437 0.42395-3.4764 0.29676-0.93267 0.33916-1.9925 0.46634-2.2893 0.12718-0.2968 1.626-1.6534 1.7108-2.9252-0.02028-0.75884-0.17019-0.93871-0.54491-0.93871v-3.942c0-2.1284-3.1027-3.987-5.1394-3.987-2.0367 0-5.1394 1.8586-5.1394 3.987v3.942c-0.37472 0-0.52462 0.17987-0.5449 0.93871 0.08479 1.2718 1.5836 2.6284 1.7108 2.9252 0.12719 0.29676 0.16958 1.3566 0.46634 2.2893 0.29676 0.93271 0.42395 3.4764 0.42395 3.4764-3.0705 0.82273-10.768 3.1372-10.768 7.6735z" filter="url(#g)" opacity=".15"/>
  <path d="m46.252 45.934c0-5.6104-9.5204-8.4729-13.318-9.4904 0 0 0.1573-3.146 0.52433-4.2996 0.36703-1.1535 0.41946-2.4643 0.57676-2.8313 0.1573-0.36708 2.011-2.0449 2.1159-3.6179-0.02509-0.93852-0.21048-1.161-0.67393-1.161v-4.8754c0-2.6324-3.8373-4.9311-6.3563-4.9311-2.5189 0-6.3563 2.2987-6.3563 4.9311v4.8754c-0.46345 0-0.64884 0.22246-0.67393 1.161 0.10486 1.573 1.9586 3.2508 2.1159 3.6179 0.1573 0.36702 0.20973 1.6778 0.57676 2.8313 0.36703 1.1536 0.52434 4.2996 0.52434 4.2996-3.7976 1.0175-13.318 3.88-13.318 9.4904z" filter="url(#h)" opacity=".25"/>
  <path d="m46.252 45.934c0-5.6104-9.5204-8.4729-13.318-9.4904 0 0 0.1573-3.146 0.52433-4.2996 0.36703-1.1535 0.41946-2.4643 0.57676-2.8313 0.1573-0.36708 2.011-2.0449 2.1159-3.6179-0.02509-0.93852-0.21048-1.161-0.67393-1.161v-4.8754c0-2.6324-3.8373-4.9311-6.3563-4.9311-2.5189 0-6.3563 2.2987-6.3563 4.9311v4.8754c-0.46345 0-0.64884 0.22246-0.67393 1.161 0.10486 1.573 1.9586 3.2508 2.1159 3.6179 0.1573 0.36702 0.20973 1.6778 0.57676 2.8313 0.36703 1.1536 0.52434 4.2996 0.52434 4.2996-3.7976 1.0175-13.318 3.88-13.318 9.4904z" fill="url(#f)"/>
  <path d="m52.005 45.934c0-4.5363-7.6978-6.8507-10.768-7.6735 0 0 0.12719-2.5437 0.42395-3.4764 0.29676-0.93267 0.33916-1.9925 0.46634-2.2893 0.12718-0.2968 1.626-1.6534 1.7108-2.9252-0.02028-0.75884-0.17019-0.93871-0.54491-0.93871v-3.942c0-2.1284-3.1027-3.987-5.1394-3.987-2.0367 0-5.1394 1.8586-5.1394 3.987v3.942c-0.37472 0-0.52462 0.17987-0.5449 0.93871 0.08479 1.2718 1.5836 2.6284 1.7108 2.9252 0.12719 0.29676 0.16958 1.3566 0.46634 2.2893 0.29676 0.93271 0.42395 3.4764 0.42395 3.4764-3.0705 0.82273-10.768 3.1372-10.768 7.6735z" fill="url(#e)" opacity=".5"/>
 </g>
</svg>
