<svg xmlns="http://www.w3.org/2000/svg" width="64" height="64" fill="none"><rect width="60" height="60" x="2" y="2" fill="#000" filter="url(#a)" opacity=".35" rx="30" ry="30"/><rect width="60" height="60" x="2" y="2" fill="url(#b)" rx="30" ry="30"/><path fill="#fff" d="M36.517 47q-4.135 0-7.392-1.1-3.256-1.145-5.5-3.168a13.9 13.9 0 0 1-3.432-4.884q-1.188-2.816-1.188-6.248 0-3.431 1.188-6.248a13.5 13.5 0 0 1 3.432-4.84q2.289-2.068 5.5-3.168 3.256-1.144 7.392-1.144h4.664v7.436h-4.356q-2.023 0-3.564.616t-2.552 1.716a7.1 7.1 0 0 0-1.54 2.508 9.8 9.8 0 0 0-.484 3.124 9.8 9.8 0 0 0 .484 3.124 7.5 7.5 0 0 0 1.54 2.552q1.013 1.056 2.552 1.672t3.564.616h4.356V47z"/><defs><linearGradient id="b" x1="7.937" x2="7.937" y1="15.081" y2="1.852" gradientTransform="translate(-2.286 -2.252)scale(4.0494)" gradientUnits="userSpaceOnUse"><stop offset="0" stop-color="#0e73de"/><stop offset="1" stop-color="#25c9ff"/></linearGradient><filter id="a" width="1.078" height="1.078" x="-.039" y="-.039" color-interpolation-filters="sRGB"><feGaussianBlur stdDeviation=".972"/></filter></defs></svg>