<svg xmlns="http://www.w3.org/2000/svg" width="64" height="64" viewBox="0 0 16.933 16.933"><defs><linearGradient id="b" x1="500.28" x2="500.28" y1="-18.217" y2="1023.9" gradientUnits="userSpaceOnUse"><stop offset="0" stop-color="#2adb83"/><stop offset="1" stop-color="#b7df4b"/></linearGradient><linearGradient id="d" x1="32" x2="32" y1="15" y2="49" gradientTransform="scale(.26458)" gradientUnits="userSpaceOnUse"><stop offset="0" stop-color="#303030"/><stop offset="1" stop-color="#424242"/></linearGradient><filter id="a" width="1.072" height="1.072" x="-.036" y="-.036" color-interpolation-filters="sRGB"><feGaussianBlur stdDeviation="14.143"/></filter><filter id="c" width="1.12" height="1.12" x="-.06" y="-.06" color-interpolation-filters="sRGB"><feGaussianBlur stdDeviation=".85"/></filter></defs><path d="M983.25 511.35c0-7.95-.2-15.85-.5-23.55q-8-180.15-137.55-309.85C753.15 85.95 642 39.9 511.8 39.9c-130.15 0-241.35 46.05-333.35 138.05-92.05 92-138.1 203.2-138.1 333.4 0 130.15 46.05 241.35 138.1 333.35C264.6 931 367.8 976.85 487.6 982.3c8 .3 16 .5 24.2.5 130.2 0 241.35-46.1 333.4-138.1 92-92 138.05-203.2 138.05-333.35" filter="url(#a)" opacity=".5" transform="translate(-.15 -.143)scale(.01684)"/><path fill="url(#b)" d="M983.25 511.35c0-7.95-.2-15.85-.5-23.55q-8-180.15-137.55-309.85C753.15 85.95 642 39.9 511.8 39.9c-130.15 0-241.35 46.05-333.35 138.05-92.05 92-138.1 203.2-138.1 333.4 0 130.15 46.05 241.35 138.1 333.35C264.6 931 367.8 976.85 487.6 982.3c8 .3 16 .5 24.2.5 130.2 0 241.35-46.1 333.4-138.1 92-92 138.05-203.2 138.05-333.35" transform="translate(-.15 -.143)scale(.01684)"/><rect width="34" height="34" x="15.16" y="15.16" fill="#303030" fill-rule="evenodd" filter="url(#c)" opacity=".5" ry="5" style="paint-order:stroke fill markers" transform="translate(-.042 -.042)scale(.26458)"/><rect width="8.996" height="8.996" x="3.969" y="3.969" fill="url(#d)" fill-rule="evenodd" ry="1.323" style="paint-order:stroke fill markers"/><path fill="#f9f9f9" d="M5.338 5.36h1.343c.804 0 1.452.627 1.452 1.7v.016c0 1.085-.78 1.688-1.38 1.695l-.484.006h-.931zM6.58 8.156c.374 0 .932-.306.932-1.08v-.015c0-.764-.558-1.08-.932-1.08h-.62v2.175zm3.572-2.796c-.493 0-.932.163-1.239.47s-.47.746-.47 1.239c0 .492.163.931.47 1.238s.746.47 1.239.47c.45 0 .79-.141 1.008-.289.219-.148.338-.322.338-.322l.051-.078V6.913H9.996v.621h.932v.336c-.02.024-.025.042-.115.103-.13.088-.336.183-.661.183-.362 0-.621-.11-.8-.288-.178-.178-.287-.438-.287-.8 0-.36.109-.62.287-.799.179-.178.438-.287.8-.287.36 0 .621.109.8.287l.438-.44c-.306-.306-.745-.469-1.238-.469m-5.125 5.591h3.106v.621H5.027z"/></svg>