<svg width="64" height="64" version="1.1" viewBox="0 0 16.933 16.933" xmlns="http://www.w3.org/2000/svg">
 <defs>
  <linearGradient id="b" x1="500.28" x2="500.28" y1="-18.217" y2="1023.9" gradientUnits="userSpaceOnUse">
   <stop stop-color="#2adb83" offset="0"/>
   <stop stop-color="#b7df4b" offset="1"/>
  </linearGradient>
  <linearGradient id="d" x1="32" x2="32" y1="15" y2="49" gradientTransform="scale(.26458)" gradientUnits="userSpaceOnUse">
   <stop stop-color="#303030" offset="0"/>
   <stop stop-color="#424242" offset="1"/>
  </linearGradient>
  <filter id="a" x="-.035999" y="-.035999" width="1.072" height="1.072" color-interpolation-filters="sRGB">
   <feGaussianBlur stdDeviation="14.143"/>
  </filter>
  <filter id="c" x="-.06" y="-.06" width="1.12" height="1.12" color-interpolation-filters="sRGB">
   <feGaussianBlur stdDeviation=".85"/>
  </filter>
  <filter id="e" x="-.013864" y="-.013864" width="1.0277" height="1.0277" color-interpolation-filters="sRGB">
   <feGaussianBlur stdDeviation=".298"/>
  </filter>
  <filter id="f" x="-.029686" y="-.029686" width="1.0594" height="1.0594" color-interpolation-filters="sRGB">
   <feGaussianBlur stdDeviation=".298"/>
  </filter>
 </defs>
 <path transform="translate(-.15 -.143)scale(.01684)" d="M983.25 511.35c0-7.95-.2-15.85-.5-23.55q-8-180.15-137.55-309.85C753.15 85.95 642 39.9 511.8 39.9c-130.15 0-241.35 46.05-333.35 138.05-92.05 92-138.1 203.2-138.1 333.4 0 130.15 46.05 241.35 138.1 333.35C264.6 931 367.8 976.85 487.6 982.3c8 .3 16 .5 24.2.5 130.2 0 241.35-46.1 333.4-138.1 92-92 138.05-203.2 138.05-333.35" filter="url(#a)" opacity=".5"/>
 <path transform="translate(-.15 -.143)scale(.01684)" d="M983.25 511.35c0-7.95-.2-15.85-.5-23.55q-8-180.15-137.55-309.85C753.15 85.95 642 39.9 511.8 39.9c-130.15 0-241.35 46.05-333.35 138.05-92.05 92-138.1 203.2-138.1 333.4 0 130.15 46.05 241.35 138.1 333.35C264.6 931 367.8 976.85 487.6 982.3c8 .3 16 .5 24.2.5 130.2 0 241.35-46.1 333.4-138.1 92-92 138.05-203.2 138.05-333.35" fill="url(#b)"/>
 <rect transform="translate(-.042 -.042)scale(.26458)" x="15.16" y="15.16" width="34" height="34" ry="5" fill="#303030" fill-rule="evenodd" filter="url(#c)" opacity=".5" style="paint-order:stroke fill markers"/>
 <rect x="3.969" y="3.969" width="8.996" height="8.996" ry="1.323" fill="url(#d)" fill-rule="evenodd" style="paint-order:stroke fill markers"/>
 <path d="M5.338 5.36h1.343c.804 0 1.452.627 1.452 1.7v.016c0 1.085-.78 1.688-1.38 1.695l-.484.006h-.931zM6.58 8.156c.374 0 .932-.306.932-1.08v-.015c0-.764-.558-1.08-.932-1.08h-.62v2.175zm3.572-2.796c-.493 0-.932.163-1.239.47s-.47.746-.47 1.239c0 .492.163.931.47 1.238s.746.47 1.239.47c.45 0 .79-.141 1.008-.289.219-.148.338-.322.338-.322l.051-.078V6.913H9.996v.621h.932v.336c-.02.024-.025.042-.115.103-.13.088-.336.183-.661.183-.362 0-.621-.11-.8-.288-.178-.178-.287-.438-.287-.8 0-.36.109-.62.287-.799.179-.178.438-.287.8-.287.36 0 .621.109.8.287l.438-.44c-.306-.306-.745-.469-1.238-.469m-5.125 5.591h3.106v.621H5.027z" fill="#f9f9f9"/>
 <path transform="scale(.26458)" d="m10.787 10.787a29.934 29.934 0 0 0 0 42.426c0.119 0.119 0.242 0.23 0.362 0.345-11.4-11.775-11.288-30.43 0.345-42.065s30.29-11.743 42.066-0.345c-0.116-0.12-0.227-0.243-0.345-0.362a29.934 29.934 0 0 0-42.426 0z" fill="#ffffff" filter="url(#e)" opacity=".45"/>
 <path transform="scale(.26458)" d="m37.435 61.526c5.772-1.063 11.297-3.831 15.779-8.313s7.25-10.007 8.313-15.779c-1.592 5.434-4.606 10.657-9.02 15.072s-9.639 7.428-15.072 9.02" fill="#ffffff" filter="url(#f)" opacity=".35"/>
</svg>
