<svg xmlns="http://www.w3.org/2000/svg" width="64" height="64"><defs><linearGradient id="e" x1="78.639" x2="78.639" y1="143.06" y2="-25.269" gradientUnits="userSpaceOnUse"><stop offset="0" stop-color="#291d1a"/><stop offset="1" stop-color="#513c34"/></linearGradient><linearGradient id="d" x1="69.129" x2="69.129" y1="139.33" y2="-18.862" gradientUnits="userSpaceOnUse"><stop offset="0" stop-color="#6c523c"/><stop offset="1" stop-color="#ae7952" stop-opacity=".965"/></linearGradient><linearGradient id="b" x1="-39.605" x2="-39.605" y1="58.247" y2="6.988" gradientTransform="translate(70.543 .42)" gradientUnits="userSpaceOnUse"><stop offset="0" stop-color="#f1efeb"/><stop offset="1" stop-color="#fdfcfc"/></linearGradient><filter id="c" width="1.06" height="1.049" x="-.03" y="-.025" color-interpolation-filters="sRGB"><feGaussianBlur stdDeviation="2.056"/></filter><filter id="a" width="1.078" height="1.078" x="-.039" y="-.039" color-interpolation-filters="sRGB"><feGaussianBlur stdDeviation=".972"/></filter></defs><circle cx="32" cy="32" r="30" filter="url(#a)" opacity=".15" style="isolation:isolate;paint-order:stroke fill markers"/><circle cx="32" cy="32" r="30" fill="url(#b)" style="isolation:isolate;paint-order:stroke fill markers"/><path d="M64.221 154.2c-22.613-5.656-43.031-26.75-62.585-64.658-23.117-44.814-29.967-85.525-18.247-108.45 4.753-9.296 16.113-15.222 26.655-13.905 5.829.728 16.098 5.214 18.735 8.183 2.837 3.195 6.78 12.777 8.448 20.536.893 4.151 1.86 15.35 2.228 25.828l.652 18.5 3.107-6.607c1.709-3.634 4.925-9.72 7.147-13.524 5.566-9.532 5.99-12.587 2.796-20.176-3.188-7.573-3.424-14.35-.598-17.175 1.616-1.616 2.807-1.87 6.436-1.373l4.453.61 7.814-7.918c8.388-8.5 16.736-14.516 23.41-16.87 7.876-2.778 19.804-1.443 23.49 2.63l1.886 2.084-3.986-.84c-8.3-1.748-16.59-.87-23.667 2.508-14.874 7.099-31.432 31.008-32.58 47.043-.306 4.28-.04 7.612.72 9.031 1.37 2.561.602 4.039-1.176 2.261-.65-.65-1.572-1.183-2.048-1.183-2.56 0-13.977 30.755-17.152 46.208-2.228 10.843-2.07 27.569.348 37.026 1.917 7.493 6.381 17.423 9.562 21.266l1.655 2-.533-2c-.293-1.1-1.733-5.825-3.2-10.5-3.85-12.271-4.506-33.118-1.502-47.694 2.47-11.985 6.3-23.572 11.616-35.145 3.782-8.233 3.87-8.33 6.9-7.685 7.377 1.57 9.57 1.742 9.57.753 0-.568-1.316-1.492-2.925-2.053-9.722-3.39-6.765-13.223 9.304-30.94l6.588-7.265-.614-5.88c-.564-5.395-.43-5.98 1.639-7.086 2.713-1.452 7.667-.624 10.25 1.713 2.734 2.475 13.412 2.924 20.726.871 7.515-2.108 16.374-2.38 18.555-.57 1.103.915 1.5 2.376 1.2 4.417-.246 1.678.394 5.497 1.423 8.487S142.87-4.274 143.21.165c.751 9.822-.978 17.474-6.248 27.66-4.464 8.624-4.638 12.302-1.007 21.276 3.093 7.645 5.002 15.956 6.57 28.609 1.633 13.163 1.25 22.496-1.456 35.504-3.105 14.92-3.245 22.295-.492 25.795 4.156 5.284 1.648 11.06-5.9 13.589-4.778 1.6-15.064 1.415-20.1-.362-5.967-2.105-10.909-1.867-15 .723-3.084 1.952-5.048 2.245-16.5 2.46-8.836.167-14.877-.224-18.856-1.22zm35.143-2.963c5.682-3.025 7.813-3.079 16.212-.407 10.186 3.24 22.632 1.003 25.149-4.52.994-2.182.788-3.057-1.498-6.356-3.408-4.917-3.436-9.617-.15-24.815 4.406-20.382 2.532-47.498-4.496-65.05-1.652-4.127-3.005-9.129-3.005-11.115 0-2.198 1.799-7.458 4.597-13.445 3.434-7.346 4.715-11.409 5.066-16.063.506-6.73-.049-6.69-3.914.279-2.327 4.197-4.266 3.42-3.955-1.583.265-4.272-1.28-8.126-2.162-5.397-.262.81-1.258 3.94-2.213 6.957s-3.04 6.79-4.634 8.384c-2.693 2.693-3.306 2.86-8.654 2.376-5.917-.537-13.127-3.613-20.811-8.88-6.568-4.503-7.338-4.002-4.82 3.134 2.693 7.633 2.001 13.042-2.92 22.84-6.815 13.57-7.934 18.49-7.303 32.11.484 10.446.98 12.816 5.189 24.817 6.946 19.806 5.554 24.95-5.07 18.724-6.195-3.63-17.975-14.917-21.055-20.174-1.392-2.374-3.163-4.318-3.935-4.318s-1.405.252-1.405.559-.49 3.708-1.086 7.558c-1.255 8.083-.02 20.153 3.08 30.113 1.048 3.368 1.652 6.533 1.343 7.034-.95 1.536-7.294-5.41-11.047-12.097-1.956-3.483-4.71-9.783-6.122-14-2.279-6.81-2.568-9.288-2.584-22.167-.016-12.487.359-16.002 2.697-25.321 3.879-15.463 14.324-41.679 16.605-41.679.464 0 1.064-3.07 1.333-6.82C58.64.107 67.199-16.67 78.038-27.768c6.158-6.305 11.54-9.788 19.205-12.424 4.706-1.619 5.254-2.011 2.833-2.03-4.426-.035-12.053 3.9-20.25 10.449-3.987 3.185-7.268 6.065-7.29 6.4s-1.386 2.182-3.03 4.107c-2.745 3.215-3.538 3.541-9.71 4l-6.72.5-.3 5.744c-.22 4.214.271 7.01 1.842 10.5 3.003 6.673 2.71 12.006-.992 18.022-1.665 2.705-5.082 9.377-7.595 14.827-5.76 12.496-5.986 12.908-7.064 12.908-.49 0-1.175-10.125-1.522-22.5-.947-33.721-4.433-44.45-16.405-50.491-5.148-2.598-7.057-3.009-13.963-3.009-6.943 0-8.624.367-12.716 2.772-5.828 3.426-9.137 7.664-11.966 15.323-3 8.12-3.245 32.62-.455 45.405 8.213 37.635 33.82 85.602 56.137 105.15 13.66 10.932 24.2 15.342 43.296 15.756 12.355.083 13.628-.087 17.992-2.41zm17.577-113.56c-1.7-1.08-2.975-5.756-2.975-9.637 0-3.523 1.693-4.727 6.054-4.727 2.627 0 9.416-2.845 10.456-4.527.344-.558 1.926-1.056 2.79-1.056 2.036 0 1.348 4.717-1.733 11.88-1.859 4.32-2.928 5.457-6.711 7.13-5.03 2.225-4.806 3.349-6.474 2.288zm7.135-2.947c.289-7.006 1.22-6.898 2.311-1.25.338 1.75 6.19-9.383 6.19-11.685 0-1.377.277-1.45-5.42 1.44-2.706 1.372-6.193 2.495-7.75 2.495-2.578 0-2.83.318-2.83 3.566 0 6.926 3.713 9.617 7.5 5.434zM131.2-8.035c3.052-1.996 6.11-8.7 6.11-12.855 0-3.901-.168-4.154-2.64-4.777-1.53-.385-5.987.134-10.351 1.035-12.783 2.639-14.668 6.316-9.749 11.028 5.665 5.424 13.652 7.185 16.63 5.57zM100.225-21.27c2.37 0 1.458-1.771-2.017-3.918-3.98-2.46-7.888-2.683-9.658-.55-1.002 1.207-1.022 2.362-.095 5.457l1.176 3.926 4.622-2.458c2.542-1.351 5.23-2.457 5.972-2.457" filter="url(#c)" opacity=".25" transform="translate(19.773 21.186)scale(.20166)"/><path fill="url(#d)" d="M64.221 152.11c-22.613-5.656-43.031-26.75-62.585-64.658-23.117-44.814-29.967-85.525-18.247-108.45 4.753-9.296 16.113-15.222 26.655-13.905 5.829.728 16.098 5.214 18.735 8.183 2.837 3.195 6.78 12.777 8.448 20.536.893 4.151 1.86 15.35 2.228 25.828l.652 18.5 3.107-6.607c1.709-3.634 4.925-9.72 7.147-13.524 5.566-9.532 5.99-12.587 2.796-20.176-3.188-7.573-3.424-14.35-.598-17.175 1.616-1.616 2.807-1.87 6.436-1.373l4.453.61 7.814-7.918c8.388-8.5 16.736-14.516 23.41-16.87 7.876-2.778 19.804-1.443 23.49 2.63l1.886 2.084-3.986-.84c-8.3-1.748-16.59-.87-23.667 2.508C77.52-31.408 60.963-7.499 59.815 8.536c-.306 4.28-.04 7.612.72 9.031 1.37 2.561.602 4.039-1.176 2.261-.65-.65-1.572-1.183-2.048-1.183-2.56 0-13.977 30.755-17.152 46.208-2.228 10.843-2.07 27.569.348 37.026 1.917 7.493 6.381 17.423 9.562 21.266l1.655 2-.533-2c-.293-1.1-1.733-5.825-3.2-10.5-3.85-12.271-4.506-33.118-1.502-47.694 2.47-11.985 6.3-23.572 11.616-35.145 3.782-8.233 3.87-8.33 6.9-7.685 7.377 1.57 9.57 1.742 9.57.753 0-.568-1.316-1.492-2.925-2.053-9.722-3.39-6.765-13.223 9.304-30.94l6.588-7.265-.614-5.88c-.564-5.395-.43-5.98 1.639-7.086 2.713-1.452 7.667-.624 10.25 1.713 2.734 2.475 13.412 2.924 20.726.871 7.515-2.108 16.374-2.38 18.555-.57 1.103.915 1.5 2.376 1.2 4.417-.246 1.678.394 5.497 1.423 8.487s2.148 9.068 2.488 13.507c.751 9.822-.978 17.474-6.248 27.66-4.464 8.624-4.638 12.302-1.007 21.276 3.093 7.645 5.002 15.956 6.57 28.609 1.633 13.163 1.25 22.496-1.456 35.504-3.105 14.92-3.245 22.295-.492 25.795 4.156 5.284 1.648 11.06-5.9 13.589-4.778 1.6-15.064 1.415-20.1-.362-5.967-2.105-10.909-1.866-15 .723-3.084 1.952-5.048 2.245-16.5 2.46-8.836.167-14.877-.224-18.856-1.22zm35.143-2.963c5.682-3.025 7.813-3.079 16.212-.407 10.186 3.24 22.632 1.003 25.149-4.52.994-2.182.788-3.057-1.498-6.356-3.408-4.917-3.436-9.617-.15-24.815 4.406-20.382 2.532-47.498-4.496-65.05-1.652-4.127-3.005-9.129-3.005-11.115 0-2.198 1.799-7.458 4.597-13.445 3.434-7.346 4.715-11.409 5.066-16.063.506-6.73-.049-6.69-3.914.279-2.327 4.197-4.266 3.42-3.955-1.583.265-4.272-1.28-8.126-2.162-5.397-.262.81-1.258 3.94-2.213 6.957s-3.04 6.79-4.634 8.384c-2.693 2.693-3.306 2.86-8.654 2.376-5.917-.537-13.127-3.613-20.811-8.88-6.568-4.503-7.338-4.002-4.82 3.134 2.693 7.633 2.001 13.042-2.92 22.84-6.815 13.57-7.934 18.49-7.303 32.11.484 10.446.98 12.816 5.189 24.817 6.946 19.806 5.554 24.95-5.07 18.724-6.195-3.63-17.975-14.917-21.055-20.174-1.392-2.374-3.163-4.318-3.935-4.318s-1.405.252-1.405.559-.49 3.708-1.086 7.558c-1.255 8.083-.02 20.153 3.08 30.113 1.048 3.368 1.652 6.533 1.343 7.034-.95 1.536-7.294-5.41-11.047-12.097-1.956-3.483-4.71-9.783-6.122-14-2.279-6.81-2.568-9.288-2.584-22.167-.016-12.487.359-16.002 2.697-25.321 3.879-15.463 14.324-41.679 16.605-41.679.464 0 1.064-3.07 1.333-6.82.845-11.807 9.403-28.585 20.242-39.682 6.158-6.305 11.54-9.788 19.205-12.424 4.706-1.619 5.254-2.011 2.833-2.03-4.426-.035-12.053 3.9-20.25 10.449-3.987 3.185-7.268 6.065-7.29 6.4s-1.386 2.182-3.03 4.107c-2.745 3.215-3.538 3.541-9.71 4l-6.72.5-.3 5.744c-.22 4.214.271 7.01 1.842 10.5 3.003 6.673 2.71 12.006-.992 18.022-1.665 2.705-5.082 9.377-7.595 14.827-5.76 12.496-5.986 12.908-7.064 12.908-.49 0-1.175-10.125-1.522-22.5-.947-33.721-4.433-44.45-16.405-50.491-5.148-2.598-7.057-3.009-13.963-3.009-6.943 0-8.624.367-12.716 2.772-5.828 3.426-9.137 7.664-11.966 15.323-3 8.12-3.245 32.62-.455 45.405 8.213 37.635 33.82 85.602 56.137 105.15 13.66 10.932 24.2 15.342 43.296 15.756 12.355.083 13.628-.087 17.992-2.41zm17.577-113.56c-1.7-1.08-2.975-5.756-2.975-9.637 0-3.523 1.693-4.727 6.054-4.727 2.627 0 9.416-2.845 10.456-4.527.344-.558 1.926-1.056 2.79-1.056 2.036 0 1.348 4.717-1.733 11.88-1.859 4.32-2.928 5.457-6.711 7.13-5.03 2.225-4.806 3.349-6.474 2.288zm7.135-2.947c.289-7.005 1.22-6.897 2.311-1.25.338 1.75 6.19-9.383 6.19-11.685 0-1.377.277-1.45-5.42 1.44-2.706 1.372-6.193 2.495-7.75 2.495-2.578 0-2.83.318-2.83 3.566 0 6.926 3.713 9.618 7.5 5.434zm7.123-42.765c3.052-1.996 6.11-8.7 6.11-12.855 0-3.901-.168-4.154-2.64-4.777-1.53-.385-5.987.134-10.351 1.035-12.783 2.639-14.668 6.317-9.749 11.028 5.665 5.425 13.652 7.185 16.63 5.57zM100.225-23.36c2.37 0 1.458-1.771-2.017-3.918-3.98-2.46-7.888-2.683-9.658-.55-1.002 1.207-1.022 2.362-.095 5.457l1.176 3.926 4.622-2.458c2.542-1.351 5.23-2.457 5.972-2.457" transform="translate(19.773 21.186)scale(.20166)"/><path fill="url(#e)" d="M63.576 150.2c-9.37-2.638-16.979-6.935-25.5-14.4C15.759 116.247-9.848 68.281-18.061 30.65c-2.79-12.785-2.545-37.286.454-45.405 2.83-7.66 6.14-11.897 11.966-15.323C-1.548-32.484.133-32.85 7.075-32.85c6.907 0 8.815.411 13.963 3.009 11.973 6.041 15.458 16.77 16.405 50.49.348 12.376 1.033 22.5 1.523 22.5 1.078 0 1.304-.412 7.064-12.907 2.512-5.45 5.93-12.121 7.595-14.827 3.702-6.017 3.995-11.35.992-18.022-1.571-3.49-2.061-6.286-1.841-10.5l.3-5.744 6.72-.5c6.171-.459 6.964-.785 9.709-4 1.644-1.925 3.007-3.773 3.03-4.108s3.303-3.214 7.29-6.4c8.198-6.549 15.823-10.484 20.25-10.449 2.42.02 1.873.412-2.833 2.03-7.665 2.637-13.047 6.12-19.205 12.425C67.199-18.755 58.64-1.977 57.795 9.827c-.269 3.752-.869 6.822-1.334 6.822-2.28 0-12.726 26.216-16.605 41.679-2.338 9.318-2.712 12.833-2.696 25.32.016 12.88.305 15.358 2.584 22.168 1.412 4.216 4.166 10.517 6.122 14 3.753 6.685 10.098 13.633 11.047 12.097.31-.501-.295-3.666-1.343-7.034-3.1-9.96-4.335-22.03-3.08-30.113.597-3.85 1.085-7.251 1.085-7.558 0-.308.633-.559 1.405-.559s2.544 1.943 3.936 4.318c3.08 5.257 14.86 16.543 21.055 20.174 10.623 6.226 12.016 1.082 5.07-18.724-4.21-12-4.705-14.37-5.189-24.818-.631-13.62.488-18.54 7.303-32.109 4.921-9.798 5.613-15.208 2.92-22.84-2.518-7.137-1.749-7.637 4.82-3.134 7.683 5.267 14.893 8.343 20.81 8.88 5.349.485 5.962.316 8.655-2.377 1.594-1.594 3.68-5.366 4.634-8.383s1.95-6.148 2.213-6.958c.882-2.729 2.427 1.126 2.162 5.397-.31 5.004 1.628 5.78 3.955 1.583 3.865-6.97 4.42-7.009 3.913-.278-.35 4.654-1.631 8.717-5.065 16.063-2.798 5.986-4.597 11.246-4.597 13.445 0 1.986 1.352 6.988 3.005 11.115 7.028 17.552 8.902 44.668 4.495 65.05-3.285 15.197-3.257 19.897.151 24.815 2.286 3.3 2.492 4.173 1.498 6.356-2.516 5.522-14.963 7.76-25.15 4.52-8.399-2.672-10.53-2.618-16.211.407-4.364 2.323-5.637 2.493-17.992 2.41-7.402-.05-15.291-.65-17.796-1.356zm61.246-115.54c3.783-1.673 4.852-2.81 6.711-7.13 3.08-7.162 3.77-11.88 1.733-11.88-.864 0-1.854.457-2.198 1.014-1.04 1.682-8.243 4.986-10.87 4.986-4.361 0-5.622 1.019-5.622 4.542 0 5.359 2.462 10.377 5.123 10.443.342.008 2.648-.88 5.123-1.975m-4.018-45.759c-4.677-2.525-9.228-7.117-9.228-9.312 0-1.04 1.084-2.602 2.408-3.47 3.315-2.171 17.471-4.972 20.842-4.123 2.472.623 2.75 1.133 2.75 5.035 0 4.156-3.325 10.859-6.377 12.855-1.983 1.297-7.06.816-10.396-.985zM88.454-22.36c-.926-3.095-.906-4.25.096-5.457 1.77-2.133 5.677-1.91 9.658.55 3.475 2.147 4.386 3.918 2.017 3.918-.743 0-3.43 1.106-5.972 2.457l-4.622 2.458-1.176-3.926z" transform="translate(19.773 21.186)scale(.20166)"/></svg>