<svg xmlns="http://www.w3.org/2000/svg" width="64" height="64"><defs><linearGradient id="b" x1="97.556" x2="97.556" y1="-80.34" y2="242.72" gradientTransform="translate(33.875 62.237) scale(4.7812)" gradientUnits="userSpaceOnUse"><stop offset="0" stop-color="#bc1938"/><stop offset=".078" stop-color="#f22c42"/><stop offset="1" stop-color="#fda463"/></linearGradient><linearGradient id="d" x1="520" x2="520" y1="32.362" y2="1052.4" gradientUnits="userSpaceOnUse"><stop offset="0" stop-color="#fff"/><stop offset="1" stop-color="#d7d7d7"/></linearGradient><filter id="c" width="1.048" height="1.048" x="-.024" y="-.024" color-interpolation-filters="sRGB"><feGaussianBlur stdDeviation="1.28"/></filter><filter id="a" width="1.072" height="1.072" x="-.036" y="-.036" color-interpolation-filters="sRGB"><feGaussianBlur stdDeviation="14.344"/></filter></defs><g stroke-width="15.938" transform="translate(-.125 -1.9) scale(.06274)"><circle cx="512" cy="540.36" r="478.12" color="#000" filter="url(#a)" opacity=".25"/><circle cx="512" cy="540.36" r="478.12" fill="url(#b)" color="#000"/><path fill="#0b0b0b" d="M64 2.5c-35.344 0-64 28.656-64 64s28.656 64 64 64 64-28.656 64-64-28.656-64-64-64zm0 120c-30.875 0-56-25.125-56-56s25.125-56 56-56 56 25.125 56 56-25.125 56-56 56zm19.797-78.625L55.516 72.156 44.203 60.844c-3.125-3.125-8.195-3.125-11.313 0-3.125 3.125-3.125 8.195 0 11.313l16.969 16.969c3.117 3.125 8.188 3.125 11.313 0L95.11 55.188c3.125-3.125 3.125-8.195 0-11.313-3.118-3.125-8.188-3.125-11.313 0z" filter="url(#c)" opacity=".2" transform="matrix(4 0 0 4 252.81 286.86)"/><path fill="url(#d)" d="M508.81 286.86c-141.38 0-256 114.62-256 256s114.62 256 256 256 256-114.62 256-256-114.62-256-256-256zm0 480c-123.5 0-224-100.5-224-224s100.5-224 224-224 224 100.5 224 224-100.5 224-224 224zm79.188-314.5-113.12 113.12-45.252-45.248c-12.5-12.5-32.78-12.5-45.252 0-12.5 12.5-12.5 32.78 0 45.252l67.876 67.876c12.468 12.5 32.752 12.5 45.252 0l135.75-135.75c12.5-12.5 12.5-32.78 0-45.252-12.472-12.5-32.752-12.5-45.252 0z"/></g></svg>