<svg xmlns="http://www.w3.org/2000/svg" width="64" height="64"><defs><linearGradient id="b" x1="408.25" x2="407.94" y1="547.6" y2="498.89" gradientTransform="translate(-510.64 -663.52) scale(1.3276)" gradientUnits="userSpaceOnUse"><stop offset="0" stop-color="#fff"/><stop offset="1" stop-color="#e6e6e6"/></linearGradient><linearGradient id="d" x1="30.644" x2="30.644" y1="55.754" y2="14.754" gradientUnits="userSpaceOnUse"><stop offset="0" stop-color="#389bff"/><stop offset="1" stop-color="#38deff"/></linearGradient><filter id="a" width="1.072" height="1.072" x="-.036" y="-.036" color-interpolation-filters="sRGB"><feGaussianBlur stdDeviation=".89"/></filter><filter id="c" width="1.132" height="1.11" x="-.066" y="-.055" color-interpolation-filters="sRGB"><feGaussianBlur stdDeviation=".938"/></filter></defs><rect width="59.315" height="59.315" x="386.85" y="486.31" filter="url(#a)" opacity=".25" ry="29.657" transform="translate(-389.32 -489.92) scale(1.0115)"/><rect width="59.997" height="59.997" x="1.983" y="1.978" fill="url(#b)" ry="29.998"/><path d="M41.644 47.754h1.002a4.992 4.992 0 0 0 4.998-4.994V19.748a5 5 0 0 0-4.998-4.994H18.641a4.992 4.992 0 0 0-4.998 4.994V42.76a5 5 0 0 0 4.998 4.994h13.12l9.882 8z" filter="url(#c)" opacity=".15" transform="translate(1.356 -1.754)"/><path fill="url(#d)" d="M41.644 47.754h1.002a4.992 4.992 0 0 0 4.998-4.994V19.748a5 5 0 0 0-4.998-4.994H18.641a4.992 4.992 0 0 0-4.998 4.994V42.76a5 5 0 0 0 4.998 4.994h13.12l9.882 8z" transform="translate(1.356 -1.754)"/><path fill="#fffeff" d="m42.009 37.056-3.285 3.286L32 33.618l-6.724 6.724-3.285-3.286 5.818-5.818L20 26.73l2.323-4.024 7.412 4.279V18h4.647v8.918l7.295-4.212L44 26.73l-7.809 4.508z"/></svg>