<svg xmlns="http://www.w3.org/2000/svg" xmlns:xlink="http://www.w3.org/1999/xlink" width="64" height="64"><defs><linearGradient id="a"><stop offset="0" stop-color="#fff"/><stop offset="1" stop-color="#d7d7d7"/></linearGradient><linearGradient id="c" x1="99.036" x2="99.036" y1="-.505" y2="199.84" gradientTransform="translate(33.875 62.237)scale(4.7812)" gradientUnits="userSpaceOnUse"><stop offset="0" stop-color="#0f7773"/><stop offset="1" stop-color="#021e23"/></linearGradient><linearGradient xlink:href="#a" id="f" x1="115.64" x2="115.49" y1="925.32" y2="1003.6" gradientUnits="userSpaceOnUse"/><linearGradient xlink:href="#a" id="e" x1="88.199" x2="88.199" y1="926.24" y2="1003.6" gradientUnits="userSpaceOnUse"/><linearGradient xlink:href="#a" id="d" x1="118.52" x2="118.52" y1="926.24" y2="1003.6" gradientUnits="userSpaceOnUse"/><filter id="b" width="1.072" height="1.072" x="-.036" y="-.036" color-interpolation-filters="sRGB"><feGaussianBlur stdDeviation="14.344"/></filter></defs><g stroke-width="15.938" transform="translate(-.125 -1.9)scale(.06274)"><circle cx="512" cy="540.36" r="478.12" color="#000" filter="url(#b)" opacity=".25"/><circle cx="512" cy="540.36" r="478.12" fill="url(#c)" color="#000"/><path fill="url(#d)" d="M115.14 966.2c.456-6.25.838-18.75 1.367-18.75.58 0 .912 12.24 1.367 18.359 2.995 3.288 9.338 9.51 8.985 9.863-.34.34-7.813-6.315-11.72-9.472z" transform="translate(-559.41 -8291.7)scale(9.1571)"/><path fill="url(#e)" d="M87.007 962.45H99.92l-6.407 11.097z" transform="translate(-559.41 -8291.7)scale(9.1571)"/><path fill="url(#f)" d="M116.8 938.4c-14.408 0-26.156 11.799-26.156 26.312 0 .423.011.863.031 1.281l4.969-1.281c0-11.801 9.44-21.281 21.156-21.281s21.156 9.48 21.156 21.281-9.44 21.344-21.156 21.344c-5.898 0-11.195-2.439-15.031-6.344 0 0-.679-.694-1.091-1.088-.755-.72-1.362-.463-1.878-.047-.605.484-1.132.895-1.718 1.448-.484.397-.763 1.057-.313 1.594 4.805 5.771 11.998 9.468 20.031 9.468 14.408 0 26.125-11.862 26.125-26.375S131.208 938.4 116.8 938.4" color="#000" style="text-decoration-line:none;text-indent:0;text-transform:none" transform="translate(-559.41 -8291.7)scale(9.1571)"/></g></svg>