<svg xmlns="http://www.w3.org/2000/svg" width="64" height="64" viewBox="0 0 16.933 16.933"><defs><clipPath id="e"><path d="M0 0h192v152H0z"/></clipPath><clipPath id="g"><path d="M0 0h192v152H0z"/></clipPath><clipPath id="i"><path d="M0 0h192v152H0z"/></clipPath><clipPath id="k"><path d="M0 0h192v152H0z"/></clipPath><clipPath id="m"><path d="M0 0h192v152H0z"/></clipPath><clipPath id="o"><path d="M0 0h192v152H0z"/></clipPath><mask id="f"><g filter="url(#a)"><path fill-opacity=".528" d="M0 0h128v128H0z"/></g></mask><mask id="h"><g filter="url(#a)"><path fill-opacity=".528" d="M0 0h128v128H0z"/></g></mask><mask id="j"><g filter="url(#a)"><path fill-opacity=".528" d="M0 0h128v128H0z"/></g></mask><mask id="l"><g filter="url(#a)"><path fill-opacity=".528" d="M0 0h128v128H0z"/></g></mask><mask id="n"><g filter="url(#a)"><path fill-opacity=".528" d="M0 0h128v128H0z"/></g></mask><mask id="p"><g filter="url(#a)"><path fill-opacity=".528" d="M0 0h128v128H0z"/></g></mask><filter id="a" width="1" height="1" x="0" y="0"><feColorMatrix in="SourceGraphic" values="0 0 0 0 1 0 0 0 0 1 0 0 0 0 1 0 0 0 1 0"/></filter><filter id="d" width="1.117" height="1.196" x="-.059" y="-.098" color-interpolation-filters="sRGB"><feGaussianBlur stdDeviation=".407"/></filter><filter id="b" width="1.061" height="1.061" x="-.031" y="-.031" color-interpolation-filters="sRGB"><feGaussianBlur stdDeviation=".203"/></filter><radialGradient id="q" cx="140.51" cy="332.56" r="60" gradientTransform="matrix(.2915 0 0 .16484 -24.168 -41.37)" gradientUnits="userSpaceOnUse"><stop offset="0" stop-color="#5e5c64" stop-opacity=".596"/><stop offset="1" stop-color="#fff" stop-opacity="0"/></radialGradient><radialGradient id="r" cx="44.28" cy="234.82" r="60" gradientTransform="matrix(.18 0 0 .16083 -3.463 -31.388)" gradientUnits="userSpaceOnUse"><stop offset="0" stop-color="#fff" stop-opacity=".58"/><stop offset=".592" stop-color="#d2d2d2" stop-opacity=".286"/><stop offset="1" stop-color="#fff" stop-opacity="0"/></radialGradient><linearGradient id="c" x1="1.058" x2="15.875" y1="8.459" y2="8.459" gradientTransform="translate(-17.537 -.596)scale(1.0714)" gradientUnits="userSpaceOnUse"><stop offset="0" stop-color="#203e5e"/><stop offset="1" stop-color="#9ebbdf"/></linearGradient></defs><rect width="15.875" height="15.875" x="-16.668" y=".529" filter="url(#b)" opacity=".15" rx="7.937" ry="7.937" transform="rotate(-90)"/><rect width="15.875" height="15.875" x="-16.404" y=".529" fill="url(#c)" rx="7.937" ry="7.937" transform="rotate(-90)"/><path d="M8.466.53q-.141 0-.282.006v3.877H4.935v-3.06a8 8 0 0 0-.565.308v2.752H1.636a8 8 0 0 0-.3.555H4.37V8.16H.537q-.007.153-.008.307.001.14.007.28H4.37v3.591H1.532q.167.302.36.588H4.37v2.346q.276.165.565.309v-2.655h3.25v3.47q.14.007.282.008.141-.001.282-.007v-3.471h3.252v2.653q.29-.144.565-.308v-2.345h2.475q.194-.286.36-.588h-2.835v-3.59h3.83q.007-.14.008-.281-.001-.154-.008-.307h-3.83V4.968h3.031a8 8 0 0 0-.3-.555h-2.73v-2.75a8 8 0 0 0-.566-.31v3.06H8.749V.536Q8.609.531 8.467.53zM4.935 4.967h3.25V8.16h-3.25V4.968zm3.814 0h3.252V8.16H8.749V4.968zm-3.814 3.78h3.25v3.59h-3.25zm3.814 0h3.252v3.59H8.749z" opacity=".15"/><g stroke-width=".139" filter="url(#d)" opacity=".501" transform="translate(.733 .732)scale(.9134)"><path d="M.18 11.783q-.028.277-.037.555v1.11h3.33v-1.11h9.988v1.11h3.33v-1.11a8 8 0 0 0-.037-.555zm8.287-4.994a4.99 4.99 0 0 0-4.696 3.33h.595a4.44 4.44 0 0 1 4.101-2.775 4.44 4.44 0 0 1 4.114 2.774h.594a4.99 4.99 0 0 0-4.708-3.33Zm0 0"/><path d="M8.467 3.46a8.324 8.324 0 0 0-8.324 8.323v1.11h3.33v-1.11h9.988v1.11h3.33v-1.11a8.324 8.324 0 0 0-8.324-8.324zm0 3.329a4.99 4.99 0 0 1 4.708 3.33H3.768a4.995 4.995 0 0 1 4.699-3.33"/></g><path fill="#77767b" d="M.897 11.495a8 8 0 0 0-.033.507v1.013h3.041v-1.013h9.123v1.013h3.042v-1.013a8 8 0 0 0-.034-.507zm7.57-4.562a4.56 4.56 0 0 0-4.29 3.042h.544A4.055 4.055 0 0 1 8.467 7.44a4.055 4.055 0 0 1 3.757 2.534h.543a4.56 4.56 0 0 0-4.3-3.042Zm0 0"/><path fill="#c0bfbc" d="M8.467 3.892a7.603 7.603 0 0 0-7.603 7.603v1.013h3.041v-1.013h9.123v1.013h3.042v-1.013A7.603 7.603 0 0 0 8.467 3.89zm0 3.041a4.56 4.56 0 0 1 4.3 3.042H4.175a4.56 4.56 0 0 1 4.292-3.042"/><g clip-path="url(#e)" mask="url(#f)" transform="translate(-.656 -1.684)scale(.12671)"><path fill="#3d3846" d="m54.54 46.563 3.862-1.036 2.59 9.66-3.863 1.036z"/></g><g clip-path="url(#g)" mask="url(#h)" transform="translate(-.656 -1.684)scale(.12671)"><path fill="#3d3846" d="m85.598 45.527 3.863 1.035-2.59 9.66-3.863-1.035z"/></g><g clip-path="url(#i)" mask="url(#j)" transform="translate(-.656 -1.684)scale(.12671)"><path fill="#3d3846" d="m113.01 60.16 2.828 2.828-7.07 7.07-2.829-2.828z"/></g><g clip-path="url(#k)" mask="url(#l)" transform="translate(-.656 -1.684)scale(.12671)"><path fill="#3d3846" d="m28.16 62.988 2.828-2.828 7.07 7.07-2.828 2.829z"/></g><g clip-path="url(#m)" mask="url(#n)" transform="translate(-.656 -1.684)scale(.12671)"><path fill="#3d3846" d="m13.527 90.402 1.036-3.863 9.66 2.59-1.035 3.863z"/></g><g clip-path="url(#o)" mask="url(#p)" transform="translate(-.656 -1.684)scale(.12671)"><path fill="#3d3846" d="m129.44 86.54 1.035 3.862-9.66 2.59-1.036-3.863z"/></g><path fill="url(#q)" d="M8.467 3.46a8.324 8.324 0 0 0-8.324 8.323v1.665h3.33v-1.665h9.988v1.665h3.33v-1.665a8.324 8.324 0 0 0-8.324-8.324zm0 3.884a4.44 4.44 0 0 1 4.114 2.774H4.366a4.44 4.44 0 0 1 4.101-2.774" transform="translate(.733 .732)scale(.9134)"/><path fill="url(#r)" d="M8.467 3.46a8.324 8.324 0 0 0-8.324 8.323v1.665h3.33v-1.665h9.988v1.665h3.33v-1.665a8.324 8.324 0 0 0-8.324-8.324zm0 3.884a4.44 4.44 0 0 1 4.114 2.774H4.366a4.44 4.44 0 0 1 4.101-2.774" transform="translate(.733 .732)scale(.9134)"/></svg>