<svg xmlns="http://www.w3.org/2000/svg" width="64" height="64" enable-background="new 0 0 1024 1024" image-rendering="optimizeSpeed"><defs><filter id="a" width="1.072" height="1.072" x="-.036" y="-.036" color-interpolation-filters="sRGB"><feGaussianBlur stdDeviation="14.16"/></filter><filter id="c" width="1.17" height="1.295" x="-.085" y="-.148" color-interpolation-filters="sRGB"><feGaussianBlur stdDeviation="1.637"/></filter><linearGradient id="b" x1="520" x2="520.03" y1="44" y2="985.85" gradientTransform="translate(-.542 -.542)scale(.06356)" gradientUnits="userSpaceOnUse"><stop offset="0" stop-color="#15affc"/><stop offset="1" stop-color="#285da4"/></linearGradient></defs><path d="M969.7 392c-1.1-4.35-2.35-9-3.65-13.6-2.5-8.75-5.35-17.6-8.45-26.35-6.45-18.25-14.15-36.05-23.15-53.65-3.8-7.4-7.95-14.95-12.3-22.4h-.025q-30.601-52.01-76.325-97.75C753.65 86.1 642.35 40 512 40S270.4 86.1 178.25 178.25 40 381.65 40 512s46.1 241.65 138.25 333.8c68.05 68.05 146.5 110.95 234.9 128.65C445.1 980.85 477.9 984 512 984c130.35 0 241.65-46.05 333.8-138.2 48.6-48.6 84.4-102.5 107.35-161.8 17-43.95 27-90.8 29.95-140.75.6-10.2.9-20.65.9-31.25 0-41.75-4.7-81.6-14.3-120" filter="url(#a)" opacity=".25" transform="translate(-.542 -.542)scale(.06356)"/><path fill="url(#b)" d="M61.091 24.373a28.4 28.4 0 0 0-2.24-5.95A31 31 0 0 0 58.069 17h-.002q-1.945-3.306-4.851-6.213Q44.429 2.001 32 2c-12.429-.001-15.356 2.93-21.213 8.787S2 23.715 2 32s2.93 15.36 8.787 21.216c4.325 4.325 9.311 7.052 14.93 8.177C27.747 61.8 29.832 62 32 62q12.429 0 21.216-8.784 4.634-4.632 6.823-10.284c1.08-2.793 1.716-5.771 1.904-8.946Q62 33.012 62 32c0-2.654-.299-5.187-.91-7.627z"/><path d="M39.369 19.485c-.345-.03-.632.098-.717.098-1.654.259-1.044 2.79-.344 5.172.054.608-.576.338-.949-.303-1.272-3.412-1.806-3.351-2.156-3.453-.34-.076-1.536.652-1.516 2.03.006.394.475 2.27.475 2.847-.78.684-.82 2.237-1.639 2.802-2.386.496-8.12-1.18-8.836-1.256-2.478-.463-3.562 1.397-3.96.95-3.217-3.686-8.134-6.422-10.262-6.897-.792-.17-3.351-1.298-4.446-1.937-.102.204-.206.407-.302.613 1.845.992 5.533 2.867 7.47 4.082 2.683 1.643 6.31 4.996 6.596 5.56-2.79 4.86-1.526 9.16-1.856 9.618-.237.382-2.428 2.792-1.722 3.148.7.35 1.814-.201 1.982-.309.35-.215.712-.527.56.092-.296 1.267-1.643 4.311.216 3.664.226-.13 3.216-3.428 3.578-3.54 5.95 1.551 12.604.84 13.836.263.641.043 2.457 1.186 3.492 1.73 1.034.54 3.852 1.89 3.017-.566-.259-.777-2.11-2.759-1.81-2.889.662-.263 2.301.686 2.932.864 1.885.528 2.14-.206.949-1.817-1.176-1.61-1.352-1.362-1.725-2.105-.29-.599 0-1.263.215-1.424.382-.291 6.014-3.415 7.334-4.611 1.956-1.778 0-3.998-.48-4.31-4.058-2.921-8.224-2.297-8.278-2.76-.027-.529-.015-2.054-.086-2.583-.252-2.236-.993-2.722-1.568-2.773m9.201 2.938c-.776.834-.642 3.953-.48 3.927.792-.161.717-4.179.48-3.928zm2.207.462c-.298.11-2.071 2.693-1.732 3.682.161.458 2.046-2.867 1.771-3.67q-.008-.023-.039-.012m-10.525 4.887q.023.017.047.043c.237.786.5 1.536 2.063 1.725.183.022-.867.636-1.588.26-.658-.4-.718-1.848-.567-2.026q.022-.019.045-.002m4.014 3.961c.141-.02.245-.016.346 0 .382.097-2.774 1.742-3.02 1.516-.15-.145 1.682-1.333 2.674-1.516m.82 1.041c.329.028-1.827 2.257-2.07 2.025-.178-.161 1.397-2.079 2.07-2.025" filter="url(#c)" opacity=".15"/><path fill="#f9f9f9" d="M39.369 18.65c-.345-.03-.632.098-.717.098-1.654.259-1.044 2.79-.344 5.172.054.608-.576.338-.949-.303-1.272-3.412-1.806-3.351-2.156-3.453-.34-.076-1.536.652-1.516 2.03.006.394.475 2.27.475 2.847-.78.684-.82 2.237-1.639 2.802-2.386.496-8.12-1.18-8.836-1.256-2.478-.463-3.562 1.397-3.96.95-3.217-3.686-8.134-6.422-10.262-6.897-.792-.17-3.351-1.298-4.446-1.937-.102.204-.206.407-.302.613 1.845.992 5.533 2.867 7.47 4.082 2.683 1.643 6.31 4.996 6.596 5.56-2.79 4.86-1.526 9.16-1.856 9.618-.237.382-2.428 2.792-1.722 3.148.7.35 1.814-.201 1.982-.309.35-.215.712-.527.56.092-.296 1.267-1.643 4.311.216 3.664.226-.13 3.216-3.428 3.578-3.54 5.95 1.551 12.604.84 13.836.263.641.043 2.457 1.186 3.492 1.73 1.034.54 3.852 1.89 3.017-.566-.259-.777-2.11-2.759-1.81-2.889.662-.263 2.301.686 2.932.864 1.885.528 2.14-.206.949-1.817-1.176-1.61-1.352-1.362-1.725-2.105-.29-.599 0-1.263.215-1.424.382-.291 6.014-3.415 7.334-4.611 1.956-1.778 0-3.998-.48-4.31-4.058-2.921-8.224-2.297-8.278-2.76-.027-.529-.015-2.054-.086-2.583-.252-2.236-.993-2.722-1.568-2.773m9.201 2.938c-.776.834-.642 3.953-.48 3.927.792-.161.717-4.179.48-3.928zm2.207.462c-.298.11-2.071 2.693-1.732 3.682.161.458 2.046-2.867 1.771-3.67q-.008-.023-.039-.012m-10.525 4.887c.016.01.031.027.047.043.237.786.5 1.536 2.063 1.725.183.022-.867.636-1.588.26-.658-.4-.718-1.848-.567-2.026.014-.014.03-.012.045-.002m4.014 3.961c.141-.02.245-.016.346 0 .382.097-2.774 1.742-3.02 1.516-.15-.145 1.682-1.333 2.674-1.516m.82 1.041c.329.028-1.827 2.257-2.07 2.025-.178-.161 1.397-2.079 2.07-2.025"/></svg>