<svg xmlns="http://www.w3.org/2000/svg" width="64" height="64" viewBox="0 0 16.933 16.933"><defs><linearGradient id="b" x1="99.036" x2="99.036" y1="-.505" y2="199.84" gradientTransform="translate(42.84 72.198) scale(4.6866)" gradientUnits="userSpaceOnUse"><stop offset="0" stop-color="#00b6ff"/><stop offset="1" stop-color="#0194cf"/></linearGradient><linearGradient id="d" x1="8.437" x2="8.326" y1="4.263" y2="12.756" gradientTransform="matrix(5.12 0 0 5.12 263.72 -127.64)" gradientUnits="userSpaceOnUse"><stop offset="0" stop-color="#fff"/><stop offset="1" stop-color="#e0e0e0"/></linearGradient><filter id="a" width="1.072" height="1.072" x="-.036" y="-.036" color-interpolation-filters="sRGB"><feGaussianBlur stdDeviation="14.06"/></filter><filter id="c" width="1.072" height="1.072" x="-.036" y="-.036" color-interpolation-filters="sRGB"><feGaussianBlur stdDeviation=".127"/></filter></defs><g stroke-width="15.622" color="#000" transform="translate(-.196 -.693) scale(.01694)"><circle cx="511.5" cy="540.86" r="468.66" filter="url(#a)" opacity=".25"/><circle cx="511.5" cy="540.86" r="468.66" fill="url(#b)"/></g><path fill-rule="evenodd" d="m9.141 4.232-1.471.105v5.86l1.471-.179V7.46c.638.963 1.15 1.859 2.005 2.79l1.524-.438a19.904 19.904 0 0 1-1.981-2.685c.578-.853 1.303-1.71 2.011-2.476l-1.579-.388a25.18 25.18 0 0 0-1.98 2.552m-3.352-1.38a.12.12 0 0 0-.065.034c-.173.164-.337.328-.51.492-.075.073.002.16.035.22l.35.484.262.353c.037.05.048.056.029.092a2.283 2.283 0 0 0-.065.105c-.34.572-.102.616-.83.801l-.559.093c-.082.027-.19.025-.196.14 0 .23-.007.46-.007.69-.004.107.115.117.185.135l.594.103.445.081c.06.008.074-.006.088.04.182.767.42.59.023 1.262l-.32.445c-.042.077-.12.153-.04.231.168.167.329.335.498.502.075.073.171-.002.232-.035l.492-.342.368-.247c.05-.042.057-.052.095-.03.737.451.763.126.978.884l.106.543c.028.08.03.185.143.19h.717c.107 0 .117-.123.13-.19l.1-.578.072-.427c.005-.041.003-.062.011-.076.864-.178.65-.428 1.352-.029l.456.312c.084.041.164.113.244.036.169-.16.337-.321.507-.48.076-.077.001-.165-.035-.224h-.007l-.332-.456-.219.074c-.056.037-.13.023-.197-.063l-.48-.618a2.472 2.472 0 0 1-1.993.994c-1.351 0-2.455-1.074-2.455-2.39 0-.936.557-1.746 1.364-2.138v-.55c-.027.014-.06.021-.082.03-.316.127-.336.185-.853-.104l-.456-.317c-.064-.028-.12-.08-.178-.066M7.352 6.67A2.203 2.203 0 0 0 6.2 8.593c0 1.213 1.017 2.206 2.268 2.206a2.27 2.27 0 0 0 1.86-.962l-.022-.047c-.48.518-1.021.854-1.845.872-1.026.018-2.065-.872-2.07-2.045-.009-.756.35-1.264.96-1.627v-.318" filter="url(#c)" opacity=".25"/><path fill="url(#d)" fill-rule="evenodd" d="m9.141 4.232-1.471.105v5.86l1.471-.179V7.46c.638.963 1.15 1.859 2.005 2.79l1.524-.438a19.904 19.904 0 0 1-1.981-2.685c.578-.853 1.303-1.71 2.011-2.476l-1.579-.388a25.18 25.18 0 0 0-1.98 2.552m-3.352-1.38a.12.12 0 0 0-.065.034c-.173.164-.337.328-.51.492-.075.073.002.16.035.22l.35.484.262.353c.037.05.048.056.029.092a2.283 2.283 0 0 0-.065.105c-.34.572-.102.616-.83.801l-.559.093c-.082.027-.19.025-.196.14 0 .23-.007.46-.007.69-.004.107.115.117.185.135l.594.103.445.081c.06.008.074-.006.088.04.182.767.42.59.023 1.262l-.32.445c-.042.077-.12.153-.04.231.168.167.329.335.498.502.075.073.171-.002.232-.035l.492-.342.368-.247c.05-.042.057-.052.095-.03.737.451.763.126.978.884l.106.543c.028.08.03.185.143.19h.717c.107 0 .117-.123.13-.19l.1-.578.072-.427c.005-.041.003-.062.011-.076.864-.178.65-.428 1.352-.029l.456.312c.084.041.164.113.244.036.169-.16.337-.321.507-.48.076-.077.001-.165-.035-.224h-.007l-.332-.456-.219.074c-.056.037-.13.023-.197-.063l-.48-.618a2.472 2.472 0 0 1-1.993.994c-1.351 0-2.455-1.074-2.455-2.39 0-.936.557-1.746 1.364-2.138v-.55c-.027.014-.06.021-.082.03-.316.127-.336.185-.853-.104l-.456-.317c-.064-.028-.12-.08-.178-.066M7.352 6.67A2.203 2.203 0 0 0 6.2 8.593c0 1.213 1.017 2.206 2.268 2.206a2.27 2.27 0 0 0 1.86-.962l-.022-.047c-.48.518-1.021.854-1.845.872-1.026.018-2.065-.872-2.07-2.045-.009-.756.35-1.264.96-1.627v-.318" style="fill:#fff"/></svg>