<svg width="64" height="64" xmlns="http://www.w3.org/2000/svg"><defs><linearGradient id="b" x1="399.57" x2="399.57" y1="545.8" y2="517.8" gradientTransform="translate(-826.36 -1107.5) scale(2.1429)" gradientUnits="userSpaceOnUse"><stop stop-color="#3889e9" offset="0"/><stop stop-color="#5ea5fb" offset="1"/></linearGradient><linearGradient id="e" x1="409.57" x2="409.94" y1="542.8" y2="504.19" gradientTransform="matrix(1.0523 0 0 1.0276 -72.568 -8.693)" gradientUnits="userSpaceOnUse"><stop stop-color="#86d0fb" offset="0"/><stop stop-color="#2794f5" offset="1"/></linearGradient><linearGradient id="c" x1="519.2" x2="519.2" y1="1024.8" y2="4.8" gradientTransform="matrix(.06359 0 0 .06358 -.556 -.553)" gradientUnits="userSpaceOnUse"><stop stop-color="#606060" offset="0"/><stop stop-color="#414141" offset=".02"/><stop stop-color="#1e1e1e" offset="1"/></linearGradient><filter id="a" x="-.036" y="-.036" width="1.072" height="1.072" color-interpolation-filters="sRGB"><feGaussianBlur stdDeviation=".42"/></filter><filter id="d" x="-.032" y="-.042" width="1.063" height="1.084" color-interpolation-filters="sRGB"><feGaussianBlur stdDeviation=".611"/></filter></defs><circle transform="translate(-826.36 -1107.5) scale(2.1429)" cx="400.57" cy="531.8" r="14" filter="url(#a)" opacity=".25"/><circle cx="32.02" cy="32.044" r="30.001" fill="none"/><path d="M50.249 8.193q-3.86-2.972-8.444-4.556Q37.068 2 32.003 2C15.433 2 2 15.432 2 32.001c0 15.158 11.245 27.684 25.845 29.71a31.977 31.977 0 0 0 4.158.29C48.57 61.999 62 48.567 62 32c0-1.31-.082-2.604-.244-3.866a29.932 29.932 0 0 0-.884-4.305q-1.33-4.69-4.082-8.726-2.722-3.977-6.54-6.912z" fill="url(#c)"/><g transform="matrix(.46586 -.05557 .05726 .45209 -209.41 -153.63)"><rect transform="matrix(1.735 .21325 -.21325 1.735 -46.117 -529.76)" x="334.23" y="513.13" width="46.303" height="34.939" ry="1.644" filter="url(#d)" opacity=".75"/><rect transform="matrix(1.735 .21325 -.21325 1.735 -46.117 -529.76)" x="334.23" y="513.13" width="46.303" height="34.939" ry="1.644" fill="url(#e)"/><g fill="#d5ffff" transform="rotate(7.007)"><ellipse cx="498.35" cy="384.49" rx="3.196" ry="3.293"/><ellipse cx="489.83" cy="384.49" rx="3.196" ry="3.293"/><ellipse cx="481.31" cy="384.49" rx="3.196" ry="3.293"/></g></g><rect x="17.004" y="39" width="29.996" height="5" ry="1.002" fill="#fff" opacity=".35" style="paint-order:markers stroke fill"/><g fill="#e8f6fc" stroke-width="3.78"><rect x="19" y="36" width="5" height="5" ry=".499" style="paint-order:stroke markers fill"/><rect x="26" y="36" width="5" height="5" ry=".499" style="paint-order:stroke markers fill"/><rect x="33" y="36" width="5" height="5" ry=".499" style="paint-order:stroke markers fill"/><rect x="40" y="36" width="5" height="5" ry=".499" style="paint-order:stroke markers fill"/></g></svg>