<svg xmlns="http://www.w3.org/2000/svg" width="64" height="64" viewBox="0 0 16.933 16.933"><defs><filter id="a" width="1.072" height="1.072" x="-.036" y="-.036" color-interpolation-filters="sRGB"><feGaussianBlur stdDeviation="14.06"/></filter><filter id="c" width="1.072" height="1.072" x="-.036" y="-.036" color-interpolation-filters="sRGB"><feGaussianBlur stdDeviation=".127"/></filter><filter id="d" width="1.028" height="1.028" x="-.014" y="-.014" color-interpolation-filters="sRGB"><feGaussianBlur stdDeviation=".298"/></filter><filter id="e" width="1.059" height="1.059" x="-.03" y="-.03" color-interpolation-filters="sRGB"><feGaussianBlur stdDeviation=".298"/></filter><linearGradient id="b" x1="99.036" x2="99.036" y1="-.505" y2="199.84" gradientTransform="translate(42.84 72.198)scale(4.6866)" gradientUnits="userSpaceOnUse"><stop offset="0" stop-color="#00b6ff"/><stop offset="1" stop-color="#0194cf"/></linearGradient></defs><g stroke-width="15.622" transform="translate(-.196 -.693)scale(.01694)"><circle cx="511.5" cy="540.86" r="468.66" filter="url(#a)" opacity=".25"/><circle cx="511.5" cy="540.86" r="468.66" fill="url(#b)"/></g><path fill-rule="evenodd" d="m9.141 4.232-1.471.105v5.86l1.471-.179V7.46c.638.963 1.15 1.859 2.005 2.79l1.524-.438a20 20 0 0 1-1.981-2.685c.578-.853 1.303-1.71 2.011-2.476l-1.579-.388a25 25 0 0 0-1.98 2.552m-3.352-1.38a.12.12 0 0 0-.065.034c-.173.164-.337.328-.51.492-.075.073.002.16.035.22l.35.484.262.353c.037.05.048.056.029.092l-.065.105c-.34.572-.102.616-.83.801l-.559.093c-.082.027-.19.025-.196.14 0 .23-.007.46-.007.69-.004.107.115.117.185.135l.594.103.445.081c.06.008.074-.006.088.04.182.767.42.59.023 1.262l-.32.445c-.042.077-.12.153-.04.231.168.167.329.335.498.502.075.073.171-.002.232-.035l.492-.342.368-.247c.05-.042.057-.052.095-.03.737.451.763.126.978.884l.106.543c.028.08.03.185.143.19h.717c.107 0 .117-.123.13-.19l.1-.578.072-.427c.005-.041.003-.062.011-.076.864-.178.65-.428 1.352-.029l.456.312c.084.041.164.113.244.036l.507-.48c.076-.077.001-.165-.035-.224h-.007l-.332-.456-.219.074c-.056.037-.13.023-.197-.063l-.48-.618a2.47 2.47 0 0 1-1.993.994c-1.351 0-2.455-1.074-2.455-2.39 0-.936.557-1.746 1.364-2.138v-.55c-.027.014-.06.021-.082.03-.316.127-.336.185-.853-.104l-.456-.317c-.064-.028-.12-.08-.178-.066M7.352 6.67A2.2 2.2 0 0 0 6.2 8.593c0 1.213 1.017 2.206 2.268 2.206a2.27 2.27 0 0 0 1.86-.962l-.022-.047c-.48.518-1.021.854-1.845.872-1.026.018-2.065-.872-2.07-2.045-.009-.756.35-1.264.96-1.627v-.318" filter="url(#c)" opacity=".25"/><path fill="#fff" fill-rule="evenodd" d="m9.141 4.232-1.471.105v5.86l1.471-.179V7.46c.638.963 1.15 1.859 2.005 2.79l1.524-.438a20 20 0 0 1-1.981-2.685c.578-.853 1.303-1.71 2.011-2.476l-1.579-.388a25 25 0 0 0-1.98 2.552m-3.352-1.38a.12.12 0 0 0-.065.034c-.173.164-.337.328-.51.492-.075.073.002.16.035.22l.35.484.262.353c.037.05.048.056.029.092l-.065.105c-.34.572-.102.616-.83.801l-.559.093c-.082.027-.19.025-.196.14 0 .23-.007.46-.007.69-.004.107.115.117.185.135l.594.103.445.081c.06.008.074-.006.088.04.182.767.42.59.023 1.262l-.32.445c-.042.077-.12.153-.04.231.168.167.329.335.498.502.075.073.171-.002.232-.035l.492-.342.368-.247c.05-.042.057-.052.095-.03.737.451.763.126.978.884l.106.543c.028.08.03.185.143.19h.717c.107 0 .117-.123.13-.19l.1-.578.072-.427c.005-.041.003-.062.011-.076.864-.178.65-.428 1.352-.029l.456.312c.084.041.164.113.244.036l.507-.48c.076-.077.001-.165-.035-.224h-.007l-.332-.456-.219.074c-.056.037-.13.023-.197-.063l-.48-.618a2.47 2.47 0 0 1-1.993.994c-1.351 0-2.455-1.074-2.455-2.39 0-.936.557-1.746 1.364-2.138v-.55c-.027.014-.06.021-.082.03-.316.127-.336.185-.853-.104l-.456-.317c-.064-.028-.12-.08-.178-.066M7.352 6.67A2.2 2.2 0 0 0 6.2 8.593c0 1.213 1.017 2.206 2.268 2.206a2.27 2.27 0 0 0 1.86-.962l-.022-.047c-.48.518-1.021.854-1.845.872-1.026.018-2.065-.872-2.07-2.045-.009-.756.35-1.264.96-1.627v-.318"/><path fill="#fff" d="M10.787 10.787a29.934 29.934 0 0 0 0 42.426c.119.119.242.23.362.345-11.4-11.775-11.288-30.43.345-42.065S41.784-.25 53.56 11.148c-.116-.12-.227-.243-.345-.362a29.934 29.934 0 0 0-42.426 0z" filter="url(#d)" opacity=".35" transform="scale(.26458)"/><path fill="#fff" d="M37.435 61.526c5.772-1.063 11.297-3.831 15.779-8.313s7.25-10.007 8.313-15.779c-1.592 5.434-4.606 10.657-9.02 15.072s-9.639 7.428-15.072 9.02" filter="url(#e)" opacity=".35" transform="scale(.26458)"/></svg>