<svg width="64" height="64" version="1.1" viewBox="0 0 16.933 16.933" xmlns="http://www.w3.org/2000/svg">
 <defs>
  <linearGradient id="b" x1="8.31" x2="8.4131" y1="280.75" y2="296.39" gradientUnits="userSpaceOnUse">
   <stop stop-color="#7de953" offset="0"/>
   <stop stop-color="#29f3a8" stop-opacity=".95294" offset="1"/>
  </linearGradient>
  <linearGradient id="a" x1="7.9509" x2="8.0212" y1="283.43" y2="293.65" gradientUnits="userSpaceOnUse">
   <stop stop-color="#fff" offset="0"/>
   <stop stop-color="#e4f0e9" offset="1"/>
  </linearGradient>
  <filter id="d" x="-.0675" y="-.054" width="1.135" height="1.108" color-interpolation-filters="sRGB">
   <feGaussianBlur stdDeviation="0.20835609"/>
  </filter>
  <filter id="c" x="-.036" y="-.036" width="1.072" height="1.072" color-interpolation-filters="sRGB">
   <feGaussianBlur stdDeviation="0.22929255"/>
  </filter>
 </defs>
 <g transform="translate(0 -280.07)">
  <g transform="matrix(1.0385 0 0 1.0385 -.32619 -11.098)" stroke-width=".92729">
   <circle cx="8.4667" cy="288.53" r="7.6431" filter="url(#c)" opacity=".25" style="paint-order:markers stroke fill"/>
   <circle cx="8.4667" cy="288.53" r="7.6431" fill="url(#b)" style="paint-order:markers stroke fill"/>
  </g>
  <path d="m11.417 283.91c-1.8287 0-2.171 2.778-1.1429 2.778s2.9716-2.778 1.1429-2.778zm-2.9027 0.31498c-1.0456 0.14765-0.67809 2.1174-0.12031 2.1546 0.5556 0.0361 1.167-2.3011 0.12031-2.1546zm-1.8921 0.61247a0.6409 0.6409 0 0 0-0.17171 0.0437c-0.97886 0.37185-0.14874 1.9052 0.40029 1.8024 0.51404-0.0973 0.5731-1.9238-0.22749-1.8451zm-1.2862 1.2337a0.5195 0.5195 0 0 0-0.28327 0.0809c-0.80496 0.47466 0.27124 1.6208 0.74371 1.4437 0.4156-0.1564 0.15093-1.5071-0.46044-1.5257zm3.7536 0.92636c-1.4404-0.0263-3.3412 0.73059-3.665 2.2486-0.35108 1.6438 1.4448 3.9242 3.3194 3.9242 0.92198 0 1.9851-0.87168 2.1841-1.9752 0.15202-0.84105-1.9118-0.5031-1.8418 0.0525 0.056872 0.45498-0.18155 0.69122-0.50966 0.69997-0.44841-0.0547-0.66715-0.31389-0.72731-0.70543-0.07984-1.0259 3.1542-1.7587 2.8983-3.35-0.09406-0.58294-0.79293-0.87933-1.658-0.89464z" filter="url(#d)" opacity=".15"/>
  <path d="m11.417 283.91c-1.8287 0-2.171 2.778-1.1429 2.778s2.9716-2.778 1.1429-2.778zm-2.9027 0.31498c-1.0456 0.14765-0.67809 2.1174-0.12031 2.1546 0.5556 0.0361 1.167-2.3011 0.12031-2.1546zm-1.8921 0.61247a0.6409 0.6409 0 0 0-0.17171 0.0437c-0.97886 0.37185-0.14874 1.9052 0.40029 1.8024 0.51404-0.0973 0.5731-1.9238-0.22749-1.8451zm-1.2862 1.2337a0.5195 0.5195 0 0 0-0.28327 0.0809c-0.80496 0.47466 0.27124 1.6208 0.74371 1.4437 0.4156-0.1564 0.15093-1.5071-0.46044-1.5257zm3.7536 0.92636c-1.4404-0.0263-3.3412 0.73059-3.665 2.2486-0.35108 1.6438 1.4448 3.9242 3.3194 3.9242 0.92198 0 1.9851-0.87168 2.1841-1.9752 0.15202-0.84105-1.9118-0.5031-1.8418 0.0525 0.056872 0.45498-0.18155 0.69122-0.50966 0.69997-0.44841-0.0547-0.66715-0.31389-0.72731-0.70543-0.07984-1.0259 3.1542-1.7587 2.8983-3.35-0.09406-0.58294-0.79293-0.87933-1.658-0.89464z" fill="url(#a)"/>
 </g>
</svg>
