<svg xmlns="http://www.w3.org/2000/svg" width="64" height="64"><defs><filter id="c" width="1.24" height="1.197" x="-.12" y="-.098" color-interpolation-filters="sRGB"><feGaussianBlur stdDeviation="1.147"/></filter><filter id="a" width="1.061" height="1.061" x="-.031" y="-.031" color-interpolation-filters="sRGB"><feGaussianBlur stdDeviation=".768"/></filter><linearGradient id="b" x1="30.055" x2="30.055" y1="57.863" y2="6.624" gradientTransform="translate(60.201)" gradientUnits="userSpaceOnUse"><stop offset="0" stop-color="#1f1f1f"/><stop offset="1" stop-color="#525252"/></linearGradient></defs><circle cx="32" cy="32" r="30" filter="url(#a)" opacity=".15" style="paint-order:stroke fill markers"/><circle cx="32" cy="32" r="30" fill="url(#b)" style="paint-order:stroke fill markers"/><path d="M23.52 16.347h2.61v2.604h-2.61" opacity=".1"/><path d="M15 11v3h1v1h-2v3h2v14h-2v3h2v.877h-1L17 39l2-3.123h-1V35h9c5.54 0 10-4.46 10-10s-4.46-10-10-10h-9v-1h1v-3zm3 7h9c3.878 0 7 3.122 7 7s-3.122 7-7 7h-9zm7 2-5 9h10zm0 3.6 1.801 3.4h-3.602" filter="url(#c)" opacity=".5" transform="translate(2 .696)scale(1.3043)"/><path fill="#ff9409" d="m33.303 25.477-6.521 11.74h13.043m-4.174-2.61h-4.696l2.348-4.434"/><path fill="#f9f9f9" d="M20.261 13.739v3.913h1.304v1.304h-2.608v3.913h2.608V41.13h-2.608v3.913h2.608v1.144h-1.304l2.609 4.074 2.608-4.074h-1.304v-1.144h11.74c7.225 0 13.042-5.817 13.042-13.043S43.14 18.957 35.913 18.957H24.174v-1.304h1.304V13.74zm3.913 9.13h11.739c5.058 0 9.13 4.073 9.13 9.13s-4.072 9.131-9.13 9.131H24.174z"/></svg>