<svg width="64" height="64" xmlns="http://www.w3.org/2000/svg" xmlns:xlink="http://www.w3.org/1999/xlink"><defs><linearGradient id="e" x1="-408.63" x2="-408.42" y1="-507.54" y2="-540.41" gradientTransform="matrix(1.5 0 0 1.5 580.86 753.7)" gradientUnits="userSpaceOnUse"><stop stop-color="#18222a" offset="0"/><stop stop-color="#566069" offset="1"/></linearGradient><linearGradient id="b" x1="-398.07" x2="-417.2" y1="-514" y2="-533.13" gradientUnits="userSpaceOnUse"><stop stop-color="#2e5d89" offset="0"/><stop stop-color="#1b92f4" offset="1"/></linearGradient><linearGradient id="a" x1="421.64" x2="396.59" y1="536.87" y2="511.82" gradientTransform="rotate(180 408.57 523.8)" gradientUnits="userSpaceOnUse"><stop stop-color="#197cf1" offset="0"/><stop stop-color="#20bcfa" offset="1"/></linearGradient><linearGradient id="j" x1="417" x2="393.5" y1="532.23" y2="508.73" gradientTransform="matrix(-1.5 0 0 -1.5 644.85 817.7)" gradientUnits="userSpaceOnUse" xlink:href="#a"/><linearGradient id="k" x1="414.4" x2="391.69" y1="529.62" y2="506.91" gradientTransform="matrix(-1.5 0 0 -1.5 644.85 817.7)" gradientUnits="userSpaceOnUse" xlink:href="#a"/><linearGradient id="h" x1="-401.07" x2="-425.57" y1="-516.8" y2="-541.3" gradientTransform="matrix(1.5 0 0 1.5 580.86 753.7)" gradientUnits="userSpaceOnUse" xlink:href="#b"/><linearGradient id="g" x1="-398.07" x2="-417.2" y1="-514" y2="-533.13" gradientTransform="matrix(1.5 0 0 1.5 580.86 753.7)" gradientUnits="userSpaceOnUse" xlink:href="#b"/><linearGradient id="i" x1="421.64" x2="396.59" y1="536.87" y2="511.82" gradientTransform="matrix(-1.5 0 0 -1.5 644.85 817.7)" gradientUnits="userSpaceOnUse" xlink:href="#a"/><linearGradient id="d" x1="408.57" x2="408.57" y1="503.8" y2="543.8" gradientTransform="matrix(1.5 0 0 1.5 -580.86 -753.7)" gradientUnits="userSpaceOnUse"><stop stop-color="#2f3943" offset="0"/><stop stop-color="#808c9b" offset="1"/></linearGradient><filter id="f" x="-.06" y="-.06" width="1.12" height="1.12" color-interpolation-filters="sRGB"><feGaussianBlur stdDeviation="1.05"/></filter><filter id="c" x="-.036" y="-.036" width="1.072" height="1.072" color-interpolation-filters="sRGB"><feGaussianBlur stdDeviation=".9"/></filter></defs><rect x="2" y="2" width="60" height="60" rx="30" filter="url(#c)" opacity=".25"/><rect x="2" y="2" width="60" height="60" rx="30" fill="url(#d)"/><rect transform="scale(-1)" x="-59" y="-59" width="54" height="54" rx="27" fill="url(#e)"/><rect transform="matrix(0 -1 -1 0 0 0)" x="-54.5" y="-54.5" width="45" height="45" rx="22.5" opacity=".35"/><path d="M32 11c-11.634 0-21 9.366-21 21s9.366 21 21 21 21-9.366 21-21-9.366-21-21-21m0 1.5c10.803 0 19.5 8.697 19.5 19.5S42.803 51.5 32 51.5 12.5 42.803 12.5 32 21.197 12.5 32 12.5" filter="url(#f)"/><rect transform="scale(-1)" x="-53" y="-53" width="42" height="42" rx="21" fill="url(#g)"/><rect transform="scale(-1)" x="-47" y="-47" width="30" height="30" rx="15" fill="url(#h)"/><path d="M32 11c-11.634 0-21 9.366-21 21s9.366 21 21 21 21-9.366 21-21-9.366-21-21-21m0 1.5c10.803 0 19.5 8.697 19.5 19.5S42.803 51.5 32 51.5 12.5 42.803 12.5 32 21.197 12.5 32 12.5" fill="url(#i)"/><path d="M32 14c-9.972 0-18 8.028-18 18s8.028 18 18 18 18-8.028 18-18-8.028-18-18-18m0 4.5c7.479 0 13.5 6.015 13.5 13.5 0 7.479-6.015 13.5-13.5 13.5-7.479 0-13.5-6.015-13.5-13.5 0-7.479 6.015-13.5 13.5-13.5" fill="url(#j)"/><path d="M32 20c-1.731 0-3.37.37-4.854 1.026l2.795 6.99 1.878-.498 3.067-7.157a12.033 12.033 0 0 0-2.886-.36m4.324.812-2.965 6.916 1.688.972 7.227-2.892a11.957 11.957 0 0 0-5.951-4.998m-10.515.914a11.957 11.957 0 0 0-4.998 5.95l6.917 2.966.971-1.688zm17.164 5.42-6.99 2.794.498 1.878 7.157 3.067c.227-.925.36-1.888.36-2.886 0-1.73-.371-3.37-1.027-4.854m-22.62 1.968c-.228.926-.36 1.889-.36 2.886 0 1.731.371 3.371 1.026 4.854l6.99-2.794-.498-1.878zm15.91 4.245-.972 1.688 2.892 7.227a11.957 11.957 0 0 0 4.998-5.95zm-7.318 1.94-7.227 2.892a11.957 11.957 0 0 0 5.95 4.998l2.966-6.917zm5.106.685-1.878.498-3.068 7.157c.926.228 1.889.36 2.886.36 1.731 0 3.371-.37 4.854-1.026z" fill="url(#k)"/><circle transform="rotate(37.5)" cx="44.868" cy="5.897" r="3" color="#000" fill="#2c3e50"/><path d="M21.502 16.997a4.5 4.5 0 0 0-4.5 4.5 4.5 4.5 0 0 0 4.5 4.5 4.5 4.5 0 0 0 4.5-4.5 4.5 4.5 0 0 0-4.5-4.5M27.502 25.247a2.25 2.25 0 0 0-2.25 2.25 2.25 2.25 0 0 0 2.25 2.25 2.25 2.25 0 0 0 2.25-2.25 2.25 2.25 0 0 0-2.25-2.25" fill="#fff" opacity=".35"/></svg>