<svg xmlns="http://www.w3.org/2000/svg" width="64" height="64" enable-background="new 0 0 1024 1024" image-rendering="optimizeSpeed"><defs><filter id="a" width="1.072" height="1.072" x="-.036" y="-.036" color-interpolation-filters="sRGB"><feGaussianBlur stdDeviation="14.16"/></filter><filter id="c" width="1.243" height="1.194" x="-.122" y="-.097" color-interpolation-filters="sRGB"><feGaussianBlur stdDeviation="1.537"/></filter><linearGradient id="b" x1="520" x2="520.03" y1="44" y2="985.85" gradientTransform="translate(-.542 -.542)scale(.06356)" gradientUnits="userSpaceOnUse"><stop offset="0" stop-color="#15c4fc"/><stop offset="1" stop-color="#1863ee"/></linearGradient></defs><path d="M969.7 392c-1.1-4.35-2.35-9-3.65-13.6-2.5-8.75-5.35-17.6-8.45-26.35-6.45-18.25-14.15-36.05-23.15-53.65-3.8-7.4-7.95-14.95-12.3-22.4h-.025q-30.601-52.01-76.325-97.75C753.65 86.1 642.35 40 512 40S270.4 86.1 178.25 178.25 40 381.65 40 512s46.1 241.65 138.25 333.8c68.05 68.05 146.5 110.95 234.9 128.65C445.1 980.85 477.9 984 512 984c130.35 0 241.65-46.05 333.8-138.2 48.6-48.6 84.4-102.5 107.35-161.8 17-43.95 27-90.8 29.95-140.75.6-10.2.9-20.65.9-31.25 0-41.75-4.7-81.6-14.3-120" filter="url(#a)" opacity=".25" transform="translate(-.542 -.542)scale(.06356)"/><path fill="url(#b)" d="M61.091 24.373a28.4 28.4 0 0 0-2.24-5.95A31 31 0 0 0 58.069 17h-.002q-1.945-3.306-4.851-6.213Q44.429 2.001 32 2c-12.429-.001-15.356 2.93-21.213 8.787S2 23.715 2 32s2.93 15.36 8.787 21.216c4.325 4.325 9.311 7.052 14.93 8.177C27.747 61.8 29.832 62 32 62q12.429 0 21.216-8.784 4.634-4.632 6.823-10.284c1.08-2.793 1.716-5.771 1.904-8.946Q62 33.012 62 32c0-2.654-.299-5.187-.91-7.627z"/><path d="M16.843 16c0 2.747.375 6.646 2.35 8.773 1.06 1.141 2.807 1.451 4.21 1.956 3.065 1.104 6.458 2.783 9.726 3.069l-4.298-.631-9.726-1.857c.02.98.219 1.805.59 2.714 2.43 5.974 8.3 4.75 13.66 4.75-2.02.614-4.245.687-6.333.968-.696.094-2.037.118-2.472.774-.733 1.104 1.34 2.622 2.02 3.175 2.967 2.411 5.932 1.95 9.273.511l-1.13 5.655h3.618L36.521 54l4.243-5.428 4.805-6.56h-4.75c1.558-2.928 3.476-5.659 5.026-8.595.68-1.286 1.625-2.777 1.21-4.298-.648-2.369-4.876-3.41-6.914-4.11-5.601-1.92-11.023-4.17-16.512-6.373-2.143-.86-4.453-2.515-6.786-2.636" filter="url(#c)" opacity=".15"/><path fill="#fafefe" d="M16.843 14.608c0 2.747.375 6.646 2.35 8.773 1.06 1.141 2.807 1.451 4.21 1.956 3.065 1.104 6.458 2.783 9.726 3.069l-4.298-.631-9.726-1.857c.02.98.219 1.805.59 2.714 2.43 5.974 8.3 4.75 13.66 4.75-2.02.614-4.245.687-6.333.968-.696.094-2.037.118-2.472.774-.733 1.104 1.34 2.622 2.02 3.175 2.967 2.411 5.932 1.95 9.273.511l-1.13 5.655h3.618l-1.81 8.143 4.243-5.428 4.805-6.56h-4.75c1.558-2.928 3.476-5.659 5.026-8.595.68-1.286 1.625-2.777 1.21-4.298-.648-2.369-4.876-3.41-6.914-4.11-5.601-1.92-11.023-4.17-16.512-6.373-2.143-.86-4.453-2.515-6.786-2.636"/></svg>