<svg width="64" height="64" version="1.1" viewBox="0 0 64 64" xmlns="http://www.w3.org/2000/svg" xmlns:xlink="http://www.w3.org/1999/xlink">
 <defs>
  <linearGradient id="a" x1="69.325" x2="67.338" y1="24.413" y2="125.94" gradientTransform="matrix(.93526 0 0 .93526 .9115 -64.585)" gradientUnits="userSpaceOnUse">
   <stop stop-color="#0cbbff" offset="0"/>
   <stop stop-color="#2452e6" offset="1"/>
  </linearGradient>
  <filter id="c" x="-.036" y="-.036" width="1.072" height="1.072" color-interpolation-filters="sRGB">
   <feGaussianBlur stdDeviation="1.7963028"/>
  </filter>
  <linearGradient id="linearGradient3451" x1="29.549" x2="29.549" y1="46.097" y2="18.118" gradientTransform="matrix(.50103 0 0 .50103 -.37362 31.914)" gradientUnits="userSpaceOnUse">
   <stop stop-color="#bfc8f0" offset="0"/>
   <stop stop-color="#fff" offset="1"/>
  </linearGradient>
  <filter id="filter2913" x="-.095801" y="-.12376" width="1.1916" height="1.2475" color-interpolation-filters="sRGB">
   <feGaussianBlur stdDeviation="1.5168533"/>
  </filter>
 </defs>
 <g transform="matrix(.50103 0 0 .50103 -.37362 31.914)" stroke-width="1.9959">
  <circle cx="64.614" cy=".17158" r="59.877" filter="url(#c)" opacity=".25"/>
  <circle cx="64.614" cy=".17158" r="59.877" fill="url(#a)"/>
 </g>
 <path d="m45.19 20.337c-2.4598-1.1509-5.0899-1.9873-7.8397-2.4636-0.3377 0.61055-0.73223 1.4318-1.0042 2.085-2.923-0.43959-5.8192-0.43959-8.6885 0-0.27196-0.65326-0.67546-1.4745-1.0162-2.085-2.7527 0.47626-5.3859 1.3157-7.8457 2.4697-4.9615 7.4974-6.3064 14.809-5.6339 22.016 3.2907 2.4574 6.4798 3.9502 9.615 4.9271 0.77411-1.0654 1.4645-2.198 2.0593-3.3915-1.1328-0.43042-2.2177-0.96159-3.2428-1.5782 0.27196-0.20148 0.53799-0.41214 0.795-0.62889 6.2526 2.9245 13.046 2.9245 19.224 0 0.26003 0.21675 0.52601 0.4274 0.795 0.62889-1.0282 0.61967-2.1161 1.1508-3.2488 1.5813 0.59477 1.1905 1.2822 2.3261 2.0593 3.3915 3.1383-0.97685 6.3303-2.4696 9.621-4.9301 0.78906-8.3552-1.3479-15.599-5.6489-22.022zm-19.502 17.59c-1.877 0-3.4162-1.7523-3.4162-3.8861s1.5064-3.8891 3.4162-3.8891c1.9099 0 3.4491 1.7522 3.4162 3.8891 3e-3 2.1338-1.5063 3.8861-3.4162 3.8861zm12.625 0c-1.877 0-3.4162-1.7523-3.4162-3.8861s1.5063-3.8891 3.4162-3.8891c1.9098 0 3.4491 1.7522 3.4162 3.8891 0 2.1338-1.5064 3.8861-3.4162 3.8861z" fill="#000000" filter="url(#filter2913)" opacity=".15" stroke-width=".5209"/>
 <path d="m45.19 19.756c-2.4598-1.1509-5.0899-1.9873-7.8397-2.4636-0.3377 0.61055-0.73223 1.4318-1.0042 2.085-2.923-0.43959-5.8192-0.43959-8.6885 0-0.27196-0.65326-0.67546-1.4745-1.0162-2.085-2.7527 0.47626-5.3859 1.3157-7.8457 2.4697-4.9615 7.4974-6.3064 14.809-5.6339 22.016 3.2907 2.4574 6.4798 3.9502 9.615 4.9271 0.77411-1.0654 1.4645-2.198 2.0593-3.3915-1.1328-0.43042-2.2177-0.96159-3.2428-1.5782 0.27196-0.20148 0.53799-0.41214 0.795-0.62889 6.2526 2.9245 13.046 2.9245 19.224 0 0.26003 0.21675 0.52601 0.4274 0.795 0.62889-1.0282 0.61967-2.1161 1.1508-3.2488 1.5813 0.59477 1.1905 1.2822 2.3261 2.0593 3.3915 3.1383-0.97685 6.3303-2.4696 9.621-4.9301 0.78906-8.3552-1.3479-15.599-5.6489-22.022zm-19.502 17.59c-1.877 0-3.4162-1.7523-3.4162-3.8861s1.5064-3.8891 3.4162-3.8891c1.9099 0 3.4491 1.7522 3.4162 3.8891 3e-3 2.1338-1.5063 3.8861-3.4162 3.8861zm12.625 0c-1.877 0-3.4162-1.7523-3.4162-3.8861s1.5063-3.8891 3.4162-3.8891c1.9098 0 3.4491 1.7522 3.4162 3.8891 0 2.1338-1.5064 3.8861-3.4162 3.8861z" fill="url(#linearGradient3451)" stroke-width=".5209"/>
</svg>
