<svg width="64" height="64" version="1.1" viewBox="0 0 64 64" xmlns="http://www.w3.org/2000/svg" xmlns:xlink="http://www.w3.org/1999/xlink">
 <defs>
  <linearGradient id="a" x1="69.325" x2="67.338" y1="24.413" y2="125.94" gradientTransform="matrix(.93526 0 0 .93526 .9115 -64.585)" gradientUnits="userSpaceOnUse">
   <stop stop-color="#0cbbff" offset="0"/>
   <stop stop-color="#2452e6" offset="1"/>
  </linearGradient>
  <filter id="c" x="-.036" y="-.036" width="1.072" height="1.072" color-interpolation-filters="sRGB">
   <feGaussianBlur stdDeviation="1.7963028"/>
  </filter>
  <filter id="b" x="-.051553" y="-.071757" width="1.1031" height="1.1435" color-interpolation-filters="sRGB">
   <feGaussianBlur stdDeviation="1.6646322"/>
  </filter>
 </defs>
 <g transform="matrix(.50103 0 0 .50103 -.37362 31.914)" stroke-width="1.9959">
  <circle cx="64.614" cy=".17158" r="59.877" filter="url(#c)" opacity=".25"/>
  <circle cx="64.614" cy=".17158" r="59.877" fill="url(#a)"/>
  <path d="m78.806 22.76c4.7156-1.4804 8.7849-3.7761 11.947-7.8644-17.309 10.003-34.432 9.6968-51.709 0.0693 1.4096 2.0112 3.107 3.5392 5.0882 4.6861 1.9753 1.1436 4.0719 2.0779 6.1861 3.14-0.91166 1.1384-1.9936 2.3287-2.8847 3.6476-0.84824 1.2566-1.81 1.6968-3.3603 1.5166-5.8415-0.67887-11.093-2.6229-15.447-6.689-0.1262-0.11822-0.24488-0.2444-0.37295-0.35984-1.7777-1.6011-2.5199-3.3881-2.3669-5.9731 0.72329-12.236 3.7763-23.814 9.1214-34.811 0.26201-0.53905 0.70946-1.0579 1.1991-1.4053 4.2697-3.0307 8.9524-5.1242 14.132-6.0291 0.98874-0.17284 1.9919-0.30227 2.9931-0.34669 0.40699-0.01798 0.82663 0.24388 1.2314 0.53681-6.155 2.0575-12.004 4.5364-17.148 8.6784 17.676-8.4202 35.25-8.8369 52.872-0.21343-4.7108-3.8069-10.157-6.166-15.854-8.0303 0.42534-0.87503 1.019-1.0434 1.9288-0.95868 6.1655 0.57293 11.671 2.8392 16.697 6.3646 0.47166 0.3308 0.91202 0.81697 1.1659 1.3303 3.8995 7.8947 6.5279 16.201 8.0179 24.878 0.69201 4.0328 1.0484 8.0936 1.1191 12.178 9e-3 0.57414-0.23407 1.2584-0.58763 1.7172-3.2837 4.2606-7.6608 6.8921-12.815 8.2083-1.9908 0.5083-4.0669 0.68925-6.1111 0.97044-0.31663 0.0435-0.79569-0.0695-0.98547-0.29261-1.3615-1.5957-2.6671-3.2383-4.0572-4.9479zm-27.303-10.911c2.2596-0.0055 3.5993-0.48409 4.7751-1.4608 1.9219-1.5976 2.6389-3.7023 2.7869-6.1456 0.16518-2.7323-0.8956-4.7645-3.1656-6.151-2.342-1.4302-4.7892-1.5484-7.1596-0.06083-3.8047 2.3876-4.5193 8.067-1.492 11.49 1.3247 1.4974 2.9702 2.3128 4.2552 2.3287zm24.94 0.10542c0.77674-0.1782 1.5899-0.2629 2.3244-0.54994 4.5333-1.7687 5.9768-7.8556 2.8422-11.868-2.4426-3.1261-6.9939-3.4078-9.7769-0.57638-1.8408 1.8726-2.415 4.1636-2.1013 6.7274 0.41564 3.398 3.3899 6.1463 6.7116 6.2666z" filter="url(#b)" opacity=".15" stroke-width=".34495"/>
  <path d="m78.806 22.76c4.7156-1.4804 8.7849-3.7761 11.947-7.8644-17.309 10.003-34.432 9.6968-51.709 0.0693 1.4096 2.0112 3.107 3.5392 5.0882 4.6861 1.9753 1.1436 4.0719 2.0779 6.1861 3.14-0.91166 1.1384-1.9936 2.3287-2.8847 3.6476-0.84824 1.2566-1.81 1.6968-3.3603 1.5166-5.8415-0.67887-11.093-2.6229-15.447-6.689-0.1262-0.11822-0.24488-0.2444-0.37295-0.35984-1.7777-1.6011-2.5199-3.3881-2.3669-5.9731 0.72329-12.236 3.7763-23.814 9.1214-34.811 0.26201-0.53905 0.70946-1.0579 1.1991-1.4053 4.2697-3.0307 8.9524-5.1242 14.132-6.0291 0.98874-0.17284 1.9919-0.30227 2.9931-0.34669 0.40699-0.01798 0.82663 0.24388 1.2314 0.53681-6.155 2.0575-12.004 4.5364-17.148 8.6784 17.676-8.4202 35.25-8.8369 52.872-0.21343-4.7108-3.8069-10.157-6.166-15.854-8.0303 0.42534-0.87503 1.019-1.0434 1.9288-0.95868 6.1655 0.57293 11.671 2.8392 16.697 6.3646 0.47166 0.3308 0.91202 0.81697 1.1659 1.3303 3.8995 7.8947 6.5279 16.201 8.0179 24.878 0.69201 4.0328 1.0484 8.0936 1.1191 12.178 9e-3 0.57414-0.23407 1.2584-0.58763 1.7172-3.2837 4.2606-7.6608 6.8921-12.815 8.2083-1.9908 0.5083-4.0669 0.68925-6.1111 0.97044-0.31663 0.0435-0.79569-0.0695-0.98547-0.29261-1.3615-1.5957-2.6671-3.2383-4.0572-4.9479zm-27.303-10.911c2.2596-0.0055 3.5993-0.48409 4.7751-1.4608 1.9219-1.5976 2.6389-3.7023 2.7869-6.1456 0.16518-2.7323-0.8956-4.7645-3.1656-6.151-2.342-1.4302-4.7892-1.5484-7.1596-0.06083-3.8047 2.3876-4.5193 8.067-1.492 11.49 1.3247 1.4974 2.9702 2.3128 4.2552 2.3287zm24.94 0.10542c0.77674-0.1782 1.5899-0.2629 2.3244-0.54994 4.5333-1.7687 5.9768-7.8556 2.8422-11.868-2.4426-3.1261-6.9939-3.4078-9.7769-0.57638-1.8408 1.8726-2.415 4.1636-2.1013 6.7274 0.41564 3.398 3.3899 6.1463 6.7116 6.2666z" fill="#fff" stroke-width=".34495"/>
 </g>
</svg>
