<svg width="64" height="64" version="1.1" xmlns="http://www.w3.org/2000/svg">
 <defs>
  <linearGradient id="b" x1="69.325" x2="67.338" y1="24.413" y2="125.94" gradientTransform="translate(.911 -64.585)scale(.93526)" gradientUnits="userSpaceOnUse">
   <stop stop-color="#7e3fff" offset="0"/>
   <stop stop-color="#5561eb" offset="1"/>
  </linearGradient>
  <linearGradient id="d" x1="29.549" x2="29.549" y1="46.097" y2="18.118" gradientTransform="translate(-.374 31.914)scale(.50103)" gradientUnits="userSpaceOnUse">
   <stop stop-color="#bfc8f0" offset="0"/>
   <stop stop-color="#fff" offset="1"/>
  </linearGradient>
  <filter id="a" x="-.035994" y="-.035994" width="1.072" height="1.072" color-interpolation-filters="sRGB">
   <feGaussianBlur stdDeviation="1.796"/>
  </filter>
  <filter id="c" x="-.095812" y="-.12377" width="1.1916" height="1.2475" color-interpolation-filters="sRGB">
   <feGaussianBlur stdDeviation="1.517"/>
  </filter>
  <filter id="e" x="-.013864" y="-.013864" width="1.0277" height="1.0277" color-interpolation-filters="sRGB">
   <feGaussianBlur stdDeviation=".298"/>
  </filter>
  <filter id="f" x="-.029686" y="-.029686" width="1.0594" height="1.0594" color-interpolation-filters="sRGB">
   <feGaussianBlur stdDeviation=".298"/>
  </filter>
 </defs>
 <g transform="translate(-.374 31.914)scale(.50103)" stroke-width="1.996">
  <circle cx="64.614" cy=".172" r="59.877" filter="url(#a)" opacity=".25"/>
  <circle cx="64.614" cy=".172" r="59.877" fill="url(#b)"/>
 </g>
 <path d="M45.19 20.337a31 31 0 0 0-7.84-2.464c-.337.61-.732 1.432-1.004 2.085q-4.385-.66-8.688 0a22 22 0 0 0-1.017-2.085 30.8 30.8 0 0 0-7.845 2.47c-4.962 7.497-6.307 14.81-5.634 22.016 3.29 2.457 6.48 3.95 9.615 4.927a24 24 0 0 0 2.06-3.391 20.3 20.3 0 0 1-3.244-1.579q.409-.303.795-.628c6.253 2.924 13.046 2.924 19.224 0q.39.325.795.628a20 20 0 0 1-3.248 1.582 24 24 0 0 0 2.059 3.391c3.138-.977 6.33-2.47 9.62-4.93.79-8.355-1.347-15.599-5.648-22.022m-19.502 17.59c-1.877 0-3.416-1.752-3.416-3.886s1.506-3.89 3.416-3.89 3.45 1.753 3.416 3.89c.003 2.134-1.506 3.886-3.416 3.886m12.625 0c-1.877 0-3.416-1.752-3.416-3.886s1.506-3.89 3.416-3.89 3.45 1.753 3.416 3.89c0 2.134-1.506 3.886-3.416 3.886" filter="url(#c)" opacity=".15"/>
 <path d="M45.19 19.756a31 31 0 0 0-7.84-2.464c-.337.61-.732 1.432-1.004 2.085q-4.385-.66-8.688 0a22 22 0 0 0-1.017-2.085 30.8 30.8 0 0 0-7.845 2.47c-4.962 7.497-6.307 14.81-5.634 22.016 3.29 2.457 6.48 3.95 9.615 4.927a24 24 0 0 0 2.06-3.391 20.3 20.3 0 0 1-3.244-1.579q.409-.303.795-.628c6.253 2.924 13.046 2.924 19.224 0q.39.325.795.628a20 20 0 0 1-3.248 1.582 24 24 0 0 0 2.059 3.391c3.138-.977 6.33-2.47 9.62-4.93.79-8.355-1.347-15.599-5.648-22.022m-19.502 17.59c-1.877 0-3.416-1.752-3.416-3.886s1.506-3.89 3.416-3.89 3.45 1.753 3.416 3.89c.003 2.134-1.506 3.886-3.416 3.886m12.625 0c-1.877 0-3.416-1.752-3.416-3.886s1.506-3.89 3.416-3.89 3.45 1.753 3.416 3.89c0 2.134-1.506 3.886-3.416 3.886" fill="url(#d)"/>
 <path d="m10.787 10.787a29.934 29.934 0 0 0 0 42.426c0.119 0.119 0.242 0.23 0.362 0.345-11.4-11.775-11.288-30.43 0.345-42.065s30.29-11.743 42.066-0.345c-0.116-0.12-0.227-0.243-0.345-0.362a29.934 29.934 0 0 0-42.426 0z" fill="#ffffff" filter="url(#e)" opacity=".45"/>
 <path d="m37.435 61.526c5.772-1.063 11.297-3.831 15.779-8.313s7.25-10.007 8.313-15.779c-1.592 5.434-4.606 10.657-9.02 15.072s-9.639 7.428-15.072 9.02" fill="#ffffff" filter="url(#f)" opacity=".35"/>
</svg>
