<svg width="64" height="64" version="1.1" xmlns="http://www.w3.org/2000/svg">
 <defs>
  <filter id="a" x="-.036001" y="-.036001" width="1.072" height="1.072" color-interpolation-filters="sRGB">
   <feGaussianBlur stdDeviation="14.344"/>
  </filter>
  <filter id="c" x="-.15272" y="-.11999" width="1.3054" height="1.24" color-interpolation-filters="sRGB">
   <feGaussianBlur stdDeviation=".913"/>
  </filter>
  <filter id="d" x="-.12922" y="-.12923" width="1.2584" height="1.2585" color-interpolation-filters="sRGB">
   <feGaussianBlur stdDeviation=".913"/>
  </filter>
  <filter id="e" x="-.12" y="-.14" width="1.24" height="1.28" color-interpolation-filters="sRGB">
   <feGaussianBlur stdDeviation=".913"/>
  </filter>
  <linearGradient id="b" x1="1" x2="47" gradientTransform="rotate(-90 32 31.304)scale(1.3043)" gradientUnits="userSpaceOnUse">
   <stop stop-color="#373c47" offset="0"/>
   <stop stop-color="#697185" offset="1"/>
  </linearGradient>
  <filter id="e-3" x="-.013864" y="-.013864" width="1.0277" height="1.0277" color-interpolation-filters="sRGB">
   <feGaussianBlur stdDeviation=".298"/>
  </filter>
  <filter id="f" x="-.029686" y="-.029686" width="1.0594" height="1.0594" color-interpolation-filters="sRGB">
   <feGaussianBlur stdDeviation=".298"/>
  </filter>
 </defs>
 <circle transform="translate(-.125 -.125)scale(.06274)" cx="512" cy="512" r="478.12" filter="url(#a)" opacity=".25" style="paint-order:stroke markers fill"/>
 <g stroke-width="1.304">
  <path d="M32 2c16.569 0 30 13.431 30 30S48.569 62 32 62 2 48.569 2 32 15.431 2 32 2" fill="url(#b)"/>
  <path d="M26.783 33.957c0 3.26-2.609 5.87-7.174 5.87S12.435 35.242 12.435 32c0-6.522 5.218-10.435 9.13-10.435 1.621 0 3.409.473 3.914 1.304-1.305 0-2.61.748-2.61 2.609 0 3.362 3.914 4.565 3.914 8.478z" filter="url(#c)" opacity=".25"/>
  <path d="M26.783 33.957c0 3.26-2.609 5.87-7.174 5.87S12.435 35.242 12.435 32c0-6.522 5.218-10.435 9.13-10.435 1.621 0 3.409.473 3.914 1.304-1.305 0-2.61.748-2.61 2.609 0 3.362 3.914 4.565 3.914 8.478z" fill="#f9f9f9"/>
  <path d="M33.447 26.265c-2.804-1.637-3.752-5.214-1.486-9.183 2.267-3.97 7.504-3.936 10.29-2.309 5.608 3.274 6.383 9.774 4.44 13.175-.804 1.41-2.1 2.725-3.064 2.747.647-1.134.652-2.643-.948-3.577-2.89-1.688-5.868 1.11-9.232-.854z" filter="url(#d)" opacity=".25"/>
  <path d="M33.447 26.265c-2.804-1.637-3.752-5.214-1.486-9.183 2.267-3.97 7.504-3.936 10.29-2.309 5.608 3.274 6.383 9.774 4.44 13.175-.804 1.41-2.1 2.725-3.064 2.747.647-1.134.652-2.643-.948-3.577-2.89-1.688-5.868 1.11-9.232-.854z" fill="#f9f9f9"/>
  <path d="M35.717 36.671c2.763-1.629 6.25-.675 8.483 3.275 2.234 3.949-.375 8.496-3.122 10.115-5.526 3.257-11.394.698-13.308-2.687-.793-1.403-1.265-3.185-.809-4.037.638 1.128 1.91 1.883 3.487.954 2.849-1.68 1.954-5.666 5.27-7.62z" filter="url(#e)" opacity=".25"/>
  <path d="M35.717 36.671c2.763-1.629 6.25-.675 8.483 3.275 2.234 3.949-.375 8.496-3.122 10.115-5.526 3.257-11.394.698-13.308-2.687-.793-1.403-1.265-3.185-.809-4.037.638 1.128 1.91 1.883 3.487.954 2.849-1.68 1.954-5.666 5.27-7.62z" fill="#f9f9f9"/>
 </g>
 <path d="m10.787 10.787a29.934 29.934 0 0 0 0 42.426c0.119 0.119 0.242 0.23 0.362 0.345-11.4-11.775-11.288-30.43 0.345-42.065s30.29-11.743 42.066-0.345c-0.116-0.12-0.227-0.243-0.345-0.362a29.934 29.934 0 0 0-42.426 0z" fill="#ffffff" filter="url(#e-3)" opacity=".45"/>
 <path d="m37.435 61.526c5.772-1.063 11.297-3.831 15.779-8.313s7.25-10.007 8.313-15.779c-1.592 5.434-4.606 10.657-9.02 15.072s-9.639 7.428-15.072 9.02" fill="#ffffff" filter="url(#f)" opacity=".35"/>
</svg>
