<svg width="64" height="64" version="1.1" xmlns="http://www.w3.org/2000/svg">
 <defs>
  <filter id="c" x="-.147" y="-.147" width="1.294" height="1.294" color-interpolation-filters="sRGB">
   <feGaussianBlur stdDeviation="11.192"/>
  </filter>
  <filter id="a" x="-.03072" y="-.03072" width="1.0614" height="1.0614" color-interpolation-filters="sRGB">
   <feGaussianBlur stdDeviation=".768"/>
  </filter>
  <linearGradient id="b" x1="7.937" x2="7.937" y1="15.081" y2="1.852" gradientTransform="translate(-2.286 -2.252)scale(4.0494)" gradientUnits="userSpaceOnUse">
   <stop stop-color="#3c6fb5" offset="0"/>
   <stop stop-color="#50a1d9" offset="1"/>
  </linearGradient>
  <filter id="e" x="-.013864" y="-.013864" width="1.0277" height="1.0277" color-interpolation-filters="sRGB">
   <feGaussianBlur stdDeviation=".298"/>
  </filter>
  <filter id="f" x="-.029686" y="-.029686" width="1.0594" height="1.0594" color-interpolation-filters="sRGB">
   <feGaussianBlur stdDeviation=".298"/>
  </filter>
 </defs>
 <rect x="2" y="3" width="60" height="60" rx="30" ry="30" filter="url(#a)" opacity=".15"/>
 <rect x="2" y="2" width="60" height="60" rx="30" ry="30" fill="url(#b)"/>
 <g transform="translate(-74.589 -66.015)scale(.21945)" filter="url(#c)" opacity=".15">
  <path d="M485.715 355.281c-50.437 0-91.326 40.87-91.365 91.301v70.705c.029 11.447 9.313 20.722 20.771 20.722l.098-.003v.003h70.527c50.442-.024 91.332-40.916 91.332-91.363 0-50.459-40.905-91.364-91.364-91.364zm18.52 37.592c15.344 0 29.833 11.766 29.833 27.969 0 1.503-.018 2.997-.256 4.707-.425 4.31-4.361 7.398-8.65 6.79-4.292-.615-7.207-4.68-6.409-8.94.068-.48.098-1.246.098-2.557 0-9.185-7.503-12.736-14.616-12.736-7.109 0-13.516 5.962-13.54 12.719v23.39l13.188-.097c10.296-.216 10.401 15.306.106 15.233l-13.294.072-.096 21.82c-1.591 17.125-16.172 30.822-33.688 30.822-18.565 0-33.88-15.187-33.88-33.798.559-19.145 15.857-34.2 35.076-34.02l10.705-.072v15.21l-10.794.095c-10.565.312-19.598 7.477-19.771 18.789 0 10.313 8.335 18.566 18.67 18.566 10.325 0 18.567-7.51 18.567-18.544v-57.532c.005-1.066.056-1.92.178-3.098 1.735-14.077 14.321-24.804 28.571-24.804z"/>
 </g>
 <path d="M32.001 11.951c-11.068 0-20.041 8.97-20.05 20.036v15.517a4.56 4.56 0 0 0 4.558 4.547h15.499c11.07-.005 20.043-8.979 20.043-20.05 0-11.073-8.977-20.05-20.05-20.05m4.064 8.25c3.368 0 6.547 2.582 6.547 6.138 0 .33-.004.657-.056 1.033a1.672 1.672 0 1 1-3.305-.472c.015-.105.022-.274.022-.561 0-2.016-1.647-2.795-3.208-2.795-1.56 0-2.966 1.308-2.971 2.791v5.133l2.894-.021c2.26-.048 2.283 3.359.023 3.343l-2.917.015-.021 4.789c-.35 3.758-3.549 6.764-7.393 6.764-4.074 0-7.435-3.333-7.435-7.417.123-4.202 3.48-7.505 7.698-7.466l2.349-.016v3.338l-2.369.02c-2.318.07-4.3 1.642-4.339 4.124a4.074 4.074 0 0 0 4.097 4.074c2.266 0 4.075-1.648 4.075-4.069V26.321a6 6 0 0 1 .039-.68c.38-3.09 3.143-5.444 6.27-5.444z" fill="#fff"/>
 <path d="m10.787 10.787a29.934 29.934 0 0 0 0 42.426c0.119 0.119 0.242 0.23 0.362 0.345-11.4-11.775-11.288-30.43 0.345-42.065s30.29-11.743 42.066-0.345c-0.116-0.12-0.227-0.243-0.345-0.362a29.934 29.934 0 0 0-42.426 0z" fill="#ffffff" filter="url(#e)" opacity=".45"/>
 <path d="m37.435 61.526c5.772-1.063 11.297-3.831 15.779-8.313s7.25-10.007 8.313-15.779c-1.592 5.434-4.606 10.657-9.02 15.072s-9.639 7.428-15.072 9.02" fill="#ffffff" filter="url(#f)" opacity=".35"/>
</svg>
