<?xml version="1.0" encoding="UTF-8"?>
<svg width="64" height="64" version="1.1" viewBox="0 0 64 64" xmlns="http://www.w3.org/2000/svg">
 <defs>
  <linearGradient id="linearGradient862-3-0" x1="7.9373" x2="7.9373" y1="15.081" y2="1.852" gradientTransform="matrix(4.0494,0,0,4.0494,-2.2856,-2.2519)" gradientUnits="userSpaceOnUse">
   <stop stop-color="#f1efeb" offset="0"/>
   <stop stop-color="#fdfcfc" offset="1"/>
  </linearGradient>
  <filter id="filter7" x="-.027" y="-.027" width="1.054" height="1.054" color-interpolation-filters="sRGB">
   <feGaussianBlur stdDeviation="0.675"/>
  </filter>
 </defs>
 <rect x="2" y="3" width="60" height="60" rx="30" ry="30" filter="url(#filter7)" opacity=".15"/>
 <rect x="2" y="2" width="60" height="60" rx="30" ry="30" fill="url(#linearGradient862-3-0)" stroke-width="4.0494"/>
 <g transform="matrix(1.4545 0 0 1.4545 -2.9091 -2.9091)">
  <path d="m24 11-11 6.5c0.582 2.761 2.792 2.517 5 3l6-3.5 6 3.5c2.81 1.045 4.181-0.064 5-3z" fill="#7dadff"/>
  <path d="m30 20.5v7l-6 3.5c-2.061 2-1.226 4 0 6l11-6.5v-13z" fill="#2764c9"/>
  <path d="m13 17.5v13l11 6.5v-6l-6-3.5v-7z" fill="#418bff"/>
  <path d="m28 30 7 4v2l-2 1h-2l-7-4z" fill="#2764c9"/>
 </g>
</svg>
