<svg xmlns="http://www.w3.org/2000/svg" width="64" height="64" viewBox="0 0 16.933 16.933"><defs><linearGradient id="b" x1="7.937" x2="7.937" y1="15.081" y2="1.852" gradientTransform="translate(-.605 -.596)scale(1.0714)" gradientUnits="userSpaceOnUse"><stop offset="0" stop-color="#3d424e"/><stop offset="1" stop-color="#646c80"/></linearGradient><filter id="a" width="1.054" height="1.054" x="-.027" y="-.027" color-interpolation-filters="sRGB"><feGaussianBlur stdDeviation=".675"/></filter></defs><rect width="60" height="60" x="2" y="3" filter="url(#a)" opacity=".15" rx="30" ry="30" transform="scale(.26458)"/><rect width="15.875" height="15.875" x=".529" y=".529" fill="url(#b)" rx="7.937" ry="7.937"/><circle cx="8.472" cy="8.478" r="7.938" fill="none"/><path fill="#fff" d="M10.041 4.786c-.507-.018-1.089.065-1.43.225-1.404.586-2.112 3.052-3.597 2.91-.516-.062-.918-.333-1.223-.826-.483.155-.415 1.337-.117 1.953 1.203 2.472 3.436 3.54 5.959 2.936 1.95-.583 3.25-2.061 3.42-3.922.013-.103.02-.178.027-.259.03-.104.095-.145.233-.23.245-.152.248-.21-.04-.31-.172-.058-.251-.11-.372-.527-.663-1.334-1.794-1.906-2.86-1.95m.735 1.351a.433.433 0 1 1 0 .866.433.433 0 0 1 0-.867zm.147.172a.145.145 0 1 0 0 .289.145.145 0 0 0 0-.289M7.8 7.946a1 1 0 0 1 .141.016c.302.057.621.402.658.713.036.301-.17.693-.451.85-.198.112-.669.173-1.043.139-.327-.032-1.08-.188-1.294-.268l-.185-.072.515-.251c.43-.21.563-.313.805-.627.28-.365.535-.517.854-.5"/></svg>