<svg xmlns="http://www.w3.org/2000/svg" width="64" height="64"><defs><linearGradient id="b" x1="7.937" x2="7.937" y1="15.081" y2="1.852" gradientTransform="translate(-2.286 -2.252)scale(4.0494)" gradientUnits="userSpaceOnUse"><stop offset="0" stop-color="#f1efeb"/><stop offset="1" stop-color="#fdfcfc"/></linearGradient><filter id="a" width="1.054" height="1.054" x="-.027" y="-.027" color-interpolation-filters="sRGB"><feGaussianBlur stdDeviation=".675"/></filter></defs><rect width="60" height="60" x="2" y="3" filter="url(#a)" opacity=".15" rx="30" ry="30"/><rect width="60" height="60" x="2" y="2" fill="url(#b)" rx="30" ry="30"/><path fill="#7dadff" d="m31.999 13.09-16 9.455c.847 4.016 4.061 3.66 7.273 4.363l8.727-5.09 8.727 5.09c4.087 1.52 6.081-.093 7.272-4.363z"/><path fill="#2764c9" d="M40.726 26.908V37.09l-8.727 5.09c-2.998 2.91-1.783 5.818 0 8.727l16-9.454V22.545z"/><path fill="#418bff" d="M16 22.545v18.908l15.999 9.454V42.18l-8.727-5.09V26.908z"/><path fill="#2764c9" d="m37.817 40.726 10.181 5.818v2.909l-2.909 1.454H42.18L32 45.09z"/></svg>