<?xml version="1.0" encoding="UTF-8"?>
<svg width="64" height="64" version="1.1" viewBox="0 0 16.933 16.933" xmlns="http://www.w3.org/2000/svg">
 <defs>
  <linearGradient id="linearGradient1040" x1="7.9373" x2="7.9373" y1="15.081" y2="1.852" gradientTransform="matrix(1.0714 0 0 1.0714 -.60469 -.5958)" gradientUnits="userSpaceOnUse">
   <stop stop-color="#3d424e" offset="0"/>
   <stop stop-color="#646c80" offset="1"/>
  </linearGradient>
  <filter id="filter7" x="-.027" y="-.027" width="1.054" height="1.054" color-interpolation-filters="sRGB">
   <feGaussianBlur stdDeviation="0.675"/>
  </filter>
 </defs>
 <rect transform="scale(.26458)" x="2" y="3" width="60" height="60" rx="30" ry="30" filter="url(#filter7)" opacity=".15"/>
 <rect x=".52916" y=".52916" width="15.875" height="15.875" rx="7.9373" ry="7.9373" fill="url(#linearGradient1040)" stroke-width="1.0714"/>
 <circle cx="8.4718" cy="8.4781" r="7.9376" fill="none" stroke-width=".26458"/>
 <path d="m10.041 4.7857c-0.50706-0.017812-1.0889 0.065312-1.4309 0.22562-1.4036 0.58543-2.1114 3.0518-3.5957 2.9093-0.51656-0.061749-0.91793-0.3325-1.2231-0.8253-0.48331 0.15437-0.41562 1.3371-0.11756 1.9522 1.2029 2.4724 3.4366 3.5411 5.9588 2.9367 1.9499-0.58306 3.2513-2.0615 3.42-3.9223 0.01306-0.10331 0.02019-0.17812 0.02731-0.25887 0.03087-0.1045 0.095-0.14487 0.23275-0.23037 0.24581-0.152 0.24819-0.21019-0.039185-0.30875-0.17219-0.059374-0.25175-0.11044-0.37287-0.52843-0.66262-1.3336-1.7931-1.9059-2.8595-1.9499zm0.73506 1.3514a0.43343 0.43343 0 1 1 0 0.86568 0.43343 0.43343 0 0 1 0-0.86687zm0.14725 0.17219a0.14487 0.14487 0 1 0 0 0.28856 0.14487 0.14487 0 0 0 0-0.28856zm-3.1243 1.6364a0.8918 0.8918 0 0 1 0.14131 0.016625c0.30162 0.056999 0.62106 0.40137 0.65787 0.71249 0.035625 0.30162-0.171 0.69349-0.45125 0.85024-0.19831 0.11162-0.66856 0.17337-1.0426 0.13894-0.32775-0.032062-1.0806-0.18762-1.2944-0.26837l-0.18525-0.071249 0.51537-0.25175c0.42987-0.209 0.56287-0.31231 0.80512-0.62699 0.28025-0.36456 0.53437-0.51656 0.8538-0.49993z" fill="#fff" stroke-width="1.1875"/>
</svg>
