<svg xmlns="http://www.w3.org/2000/svg" width="64" height="64" viewBox="0 0 16.933 16.933"><defs><filter id="a" width="1.072" height="1.072" x="-.036" y="-.036" color-interpolation-filters="sRGB"><feGaussianBlur stdDeviation=".238"/></filter><filter id="c" width="1.028" height="1.028" x="-.014" y="-.014" color-interpolation-filters="sRGB"><feGaussianBlur stdDeviation=".298"/></filter><filter id="d" width="1.059" height="1.059" x="-.03" y="-.03" color-interpolation-filters="sRGB"><feGaussianBlur stdDeviation=".298"/></filter><linearGradient id="b" x1="13.229" x2="2.117" y1="297" y2="280.07" gradientTransform="matrix(1.0714 0 0 1.3043 -.604 -87.816)" gradientUnits="userSpaceOnUse"><stop offset="0" stop-color="#66bcff"/><stop offset="1" stop-color="#b29aff"/></linearGradient></defs><g transform="translate(0 -280.07)"><rect width="15.875" height="15.875" x=".529" y="280.6" filter="url(#a)" opacity=".25" ry="7.937" style="paint-order:stroke markers fill"/><rect width="15.875" height="15.875" x=".529" y="280.6" fill="url(#b)" ry="7.937" style="paint-order:stroke markers fill"/><rect width="10.054" height="1.323" x="3.44" y="292.24" fill="#fff" opacity=".35" ry=".265" style="paint-order:markers stroke fill"/><g fill="#ccdfff"><rect width="1.323" height="1.323" x="4.498" y="291.44" ry=".132" style="paint-order:stroke markers fill"/><rect width="1.323" height="1.323" x="6.703" y="291.44" ry=".132" style="paint-order:stroke markers fill"/><rect width="1.323" height="1.323" x="8.908" y="291.44" ry=".132" style="paint-order:stroke markers fill"/><rect width="1.323" height="1.323" x="11.113" y="291.44" ry=".132" style="paint-order:stroke markers fill"/></g><rect width="2.646" height=".529" x="7.12" y="280.86" opacity=".35" ry=".265" style="paint-order:stroke markers fill"/><path d="M32 2a29.94 29.94 0 0 0-15 4h30c-4.409-2.54-9.526-4-15-4" opacity=".35" style="paint-order:stroke markers fill" transform="translate(0 280.07)scale(.26458)"/></g><path fill="#fff" d="M10.787 10.787a29.934 29.934 0 0 0 0 42.426c.119.119.242.23.362.345-11.4-11.775-11.288-30.43.345-42.065S41.784-.25 53.56 11.148c-.116-.12-.227-.243-.345-.362a29.934 29.934 0 0 0-42.426 0z" filter="url(#c)" opacity=".5" transform="scale(.26458)"/><path fill="#fff" d="M37.435 61.526c5.772-1.063 11.297-3.831 15.779-8.313s7.25-10.007 8.313-15.779c-1.592 5.434-4.606 10.657-9.02 15.072s-9.639 7.428-15.072 9.02" filter="url(#d)" opacity=".5" transform="scale(.26458)"/></svg>