<svg xmlns="http://www.w3.org/2000/svg" xmlns:xlink="http://www.w3.org/1999/xlink" width="64" height="64" viewBox="0 0 16.933 16.933"><defs><linearGradient id="g" x1="9.26" x2="9.26" y1="-.262" y2="15.612" gradientTransform="translate(-.794 .792)" gradientUnits="userSpaceOnUse"><stop offset="0" stop-color="#2e323e"/><stop offset="1" stop-color="#505664"/></linearGradient><linearGradient xlink:href="#a" id="i" x1="416.83" x2="416.57" y1="514.1" y2="503.8" gradientUnits="userSpaceOnUse"/><linearGradient id="a" x1="41" x2="25" gradientTransform="translate(383.57 500.8)" gradientUnits="userSpaceOnUse" spreadMethod="reflect"><stop offset="0" stop-color="#197cf1"/><stop offset="1" stop-color="#21c9fb"/></linearGradient><linearGradient xlink:href="#a" id="j" x1="410.71" x2="392.13" y1="513.03" y2="524.07" gradientUnits="userSpaceOnUse"/><linearGradient id="e" x1="406.82" x2="411.76" y1="518.74" y2="523.67" gradientUnits="userSpaceOnUse"><stop offset="0" stop-color="#18222a"/><stop offset="1" stop-color="#566069"/></linearGradient><linearGradient xlink:href="#b" id="l" x2="0" y1="528.8" y2="502.8" gradientTransform="translate(-384.57 -499.8)" gradientUnits="userSpaceOnUse"/><linearGradient id="b" x1="425.57" x2="409.57" gradientTransform="translate(-1 1)" gradientUnits="userSpaceOnUse" spreadMethod="reflect"><stop offset="0" stop-color="#2f3943"/><stop offset="1" stop-color="#808c9b"/></linearGradient><linearGradient xlink:href="#c" id="m" x1="23" x2="27" y1="9" y2="15" gradientUnits="userSpaceOnUse"/><linearGradient id="c" x1="19" x2="25" y1="31" y2="37" gradientTransform="translate(384.57 499.8)" gradientUnits="userSpaceOnUse"><stop offset="0"/><stop offset="1" stop-opacity="0"/></linearGradient><linearGradient xlink:href="#b" id="q" x2="0" y1="528.8" y2="502.8" gradientUnits="userSpaceOnUse"/><linearGradient id="d" x1="421.57" x2="414.57" y1="506.8" y2="516.8" gradientUnits="userSpaceOnUse"><stop offset="0" stop-color="#18222a"/><stop offset="1" stop-color="#18222a" stop-opacity="0"/></linearGradient><linearGradient xlink:href="#d" id="s" x1="420.95" x2="424.85" y1="509.61" y2="513.52" gradientUnits="userSpaceOnUse"/><linearGradient xlink:href="#a" id="t" x1="423.57" x2="411.57" y1="527.8" y2="519.3" gradientUnits="userSpaceOnUse"/><linearGradient xlink:href="#b" id="u" x2="0" y1="512.8" y2="501.8" gradientUnits="userSpaceOnUse"/><linearGradient xlink:href="#e" id="v" x1="400.07" x2="405.23" y1="519.3" y2="524.45" gradientUnits="userSpaceOnUse"/><linearGradient xlink:href="#e" id="k" x1="406.82" x2="411.76" y1="518.74" y2="523.67" gradientUnits="userSpaceOnUse"/><linearGradient xlink:href="#c" id="n" x1="19" x2="25" y1="31" y2="37" gradientTransform="translate(384.57 499.8)" gradientUnits="userSpaceOnUse"/><linearGradient xlink:href="#b" id="o" x1="425.57" x2="409.57" gradientTransform="translate(-1 1)" gradientUnits="userSpaceOnUse" spreadMethod="reflect"/><linearGradient xlink:href="#a" id="p" x1="41" x2="25" gradientTransform="translate(383.57 500.8)" gradientUnits="userSpaceOnUse" spreadMethod="reflect"/><linearGradient xlink:href="#d" id="r" x1="421.57" x2="414.57" y1="506.8" y2="516.8" gradientUnits="userSpaceOnUse"/><filter id="f" width="1.072" height="1.072" x="-.036" y="-.036" color-interpolation-filters="sRGB"><feGaussianBlur stdDeviation=".238"/></filter><filter id="h" width="1.126" height="1.114" x="-.063" y="-.057" color-interpolation-filters="sRGB"><feGaussianBlur stdDeviation=".953"/></filter></defs><circle cx="8.466" cy="8.466" r="7.937" filter="url(#f)" opacity=".25" style="paint-order:stroke markers fill"/><circle cx="8.466" cy="8.466" r="7.937" fill="url(#g)" style="paint-order:stroke markers fill"/><g filter="url(#h)" opacity=".35" transform="translate(-107.99 -141.38) scale(.28507)"><g fill-rule="evenodd"><path d="M403.57 506.8c2-3 6-3 6-3s.208.426 0 1c1.738-.781 4 0 4 0s-.317.667-1 1c1.723.629 3 2 3 2s-.317.605-1 1c1.707.161 3 2 3 2s-.453.777-1 1c1.422.613 2 .821 2 2s-3 3-3 3-1.75-4.502-3-6-2.463-2.313-4-3-5-1-5-1"/><path d="M409.57 508.8s0 6-3 8-9 3-13 5-5 5-5 5 4-2 6-2 5 1 5 1 2-2 5-2 6 1 6 1l1-11z"/><path d="M410.57 511.8s.188 3.5-2.813 5.5c-3 2-10.721 3.239-14.5 5.313-2.766 1.517-4.688 4.188-4.688 4.188s4-2 6-2 5 1 5 1 2-2 5-2 6 1 6 1l1-11z"/><path d="M407.57 505.425c-1 .125-1 1.375-1 1.375l3 6c2 4 1 13-6 17 0 0 .477.234 1.236.525-3.079 2.523-7.654 5.475-12.236 5.475h17.734c1.264-1.318 2.348-2.795 3.295-4.258.057-.404.252-1.305.971-2.742 1-2 2-6 2-6s1 0 2 1c.835.835-3.036 5.638-4.393 7.27.839-.278 1.651-.676 2.393-1.27 5-4 2.254-14.214-2-19-4-4.5-6-5.5-7-5.375"/><path d="m408.57 505.8-1.5 2 2.5 5c.459.917.751 2.105.857 3.428l5.143-3.428z" opacity=".2"/><path d="M409.34 528.14c-1.945 2.427-1.842 2.708-4.572 4.755l-.047.033 2.783 2.74c10.03-8.376 1.835-7.528 1.835-7.528m-5.443 5.382a29.476 29.476 0 0 1-3.729 2.273h6.04z"/><path d="M404.81 530.32c-3.079 2.523-7.654 5.475-12.236 5.475h17.734c1.367-1.426 2.532-3.039 3.531-4.617.961-.277-9.789-1.149-9.03-.857" opacity=".2"/></g><g stroke-linejoin="round" stroke-width="3" color="#000"><path d="M392.57 535.8v8h32v-8z"/><path d="M392.57 537.8v4h5v-4zm6 0v4h6v-4zm7 0v4h6v-4zm7 0v4h6v-4zm7 0v4h5v-4z"/></g><g fill-rule="evenodd"><path d="M421.57 506.8c-1 0-1 3-4 6s-4 3-4 3 3 2 3 6c3 2 3 6 3 6l4-11-1-8z"/><path d="M421.57 506.8c-1 0-1 3-4 6s-4 3-4 3 3 2 3 6-2 7-2 7l9-12-1-8z"/><path d="M421.57 506.8c-2 13.5-7.313 14.375-7.938 18.25-.637 3.949.938 3.75.938 3.75l9-12-1-8z"/><path d="M421.57 506.8c1 0 4 6 3 15s-6 11-6 11-7-1-9-1-3 1-3 1-3-2-7-2-9 4-9 4 1-4 7-6 15.799-.159 19-4c10-12 4-18 5-18m-15 4c-2.121.707-5 0-6 1l-1 1s-1-2 0-3 3-1 4-3 4-2 5-1c2 2 1 4-2 5"/><path d="M407.76 517.3c-3 2-10.721 3.239-14.5 5.313-2.766 1.517-4.688 4.188-4.688 4.188s4-2 6-2 5 1 5 1 11.188-10.5 8.188-8.5"/></g></g><g fill-rule="evenodd"><path fill="url(#i)" d="M403.57 506.8c2-3 6-3 6-3s.208.426 0 1c1.738-.781 4 0 4 0s-.317.667-1 1c1.723.629 3 2 3 2s-.317.605-1 1c1.707.161 3 2 3 2s-.453.777-1 1c1.422.613 2 .821 2 2s-3 3-3 3-1.75-4.502-3-6-2.463-2.313-4-3-5-1-5-1" transform="translate(-107.99 -141.38) scale(.28507)"/><path fill="url(#j)" d="M409.57 508.8s0 6-3 8-9 3-13 5-5 5-5 5 4-2 6-2 5 1 5 1 2-2 5-2 6 1 6 1l1-11z" transform="translate(-107.99 -141.38) scale(.28507)"/><path fill="url(#k)" d="M410.57 511.8s.188 3.5-2.813 5.5c-3 2-10.721 3.239-14.5 5.313-2.766 1.517-4.688 4.188-4.688 4.188s4-2 6-2 5 1 5 1 2-2 5-2 6 1 6 1l1-11z" transform="translate(-107.99 -141.38) scale(.28507)"/><path fill="url(#l)" d="M23 5.625C22 5.75 22 7 22 7l3 6c2 4 1 13-6 17 0 0 .477.234 1.236.525C17.157 33.048 12.582 36 8 36h17.734c1.264-1.318 2.348-2.795 3.295-4.258.057-.404.252-1.305.971-2.742 1-2 2-6 2-6s1 0 2 1c.835.835-3.036 5.638-4.393 7.27.839-.278 1.651-.676 2.393-1.27 5-4 2.254-14.214-2-19-4-4.5-6-5.5-7-5.375" transform="translate(1.64 1.098) scale(.28507)"/><path fill="url(#m)" d="m24 6-1.5 2 2.5 5c.459.917.751 2.105.857 3.428L31 13z" opacity=".2" transform="translate(1.64 1.098) scale(.28507)"/><path fill="#2980b9" d="M8.7 9.177c-.554.692-.525.772-1.303 1.355l-.013.01.793.78c2.86-2.387.523-2.145.523-2.145M7.15 10.71c-.323.229-.68.454-1.063.648h1.721z"/><path fill="url(#n)" d="M404.81 530.32c-3.079 2.523-7.654 5.475-12.236 5.475h17.734c1.367-1.426 2.532-3.039 3.531-4.617.961-.277-9.789-1.149-9.03-.857" opacity=".2" transform="translate(-107.99 -141.38) scale(.28507)"/></g><g stroke-linejoin="round" stroke-width="3" color="#000"><path fill="url(#o)" d="M392.57 535.8v8h32v-8z" transform="translate(-107.99 -141.38) scale(.28507)"/><path fill="url(#p)" d="M392.57 537.8v4h5v-4zm6 0v4h6v-4zm7 0v4h6v-4zm7 0v4h6v-4zm7 0v4h5v-4z" transform="translate(-107.99 -141.38) scale(.28507)"/></g><g fill-rule="evenodd"><path fill="url(#q)" d="M421.57 506.8c-1 0-1 3-4 6s-4 3-4 3 3 2 3 6c3 2 3 6 3 6l4-11-1-8z" transform="translate(-107.99 -141.38) scale(.28507)"/><path fill="url(#r)" d="M421.57 506.8c-1 0-1 3-4 6s-4 3-4 3 3 2 3 6-2 7-2 7l9-12-1-8z" transform="translate(-107.99 -141.38) scale(.28507)"/><path fill="url(#s)" d="M421.57 506.8c-2 13.5-7.313 14.375-7.938 18.25-.637 3.949.938 3.75.938 3.75l9-12-1-8z" transform="translate(-107.99 -141.38) scale(.28507)"/><path fill="url(#t)" d="M421.57 506.8c1 0 4 6 3 15s-6 11-6 11-7-1-9-1-3 1-3 1-3-2-7-2-9 4-9 4 1-4 7-6 15.799-.159 19-4c10-12 4-18 5-18" transform="translate(-107.99 -141.38) scale(.28507)"/><path fill="url(#u)" d="M406.57 510.8c-2.121.707-5 0-6 1l-1 1s-1-2 0-3 3-1 4-3 4-2 5-1c2 2 1 4-2 5" transform="translate(-107.99 -141.38) scale(.28507)"/><path fill="url(#v)" d="M407.76 517.3c-3 2-10.721 3.239-14.5 5.313-2.766 1.517-4.688 4.188-4.688 4.188s4-2 6-2 5 1 5 1 11.188-10.5 8.188-8.5" transform="translate(-107.99 -141.38) scale(.28507)"/></g></svg>