<svg xmlns="http://www.w3.org/2000/svg" width="64" height="64" enable-background="new 0 0 1024 1024" image-rendering="optimizeSpeed"><defs><linearGradient id="b" x1="520.32" x2="520.32" y1="-138.46" y2="1484.8" gradientTransform="translate(-.568 -.539)scale(.06363)" gradientUnits="userSpaceOnUse"><stop offset="0" stop-color="#ffda64"/><stop offset=".352" stop-color="#fb7c38"/><stop offset=".45" stop-color="#fb7c38"/><stop offset="1" stop-color="#f34f17"/></linearGradient><filter id="a" width="1.072" height="1.072" x="-.036" y="-.036" color-interpolation-filters="sRGB"><feGaussianBlur stdDeviation="14.143"/></filter></defs><path d="M983.25 511.35c0-7.95-.2-15.85-.5-23.55q-8-180.15-137.55-309.85C753.15 85.95 642 39.9 511.8 39.9c-130.15 0-241.35 46.05-333.35 138.05-92.05 92-138.1 203.2-138.1 333.4 0 130.15 46.05 241.35 138.1 333.35C264.6 931 367.8 976.85 487.6 982.3c8 .3 16 .5 24.2.5 130.2 0 241.35-46.1 333.4-138.1 92-92 138.05-203.2 138.05-333.35" filter="url(#a)" opacity=".25" transform="translate(-.568 -.539)scale(.06363)"/><path fill="url(#b)" d="M62 32c0-.506-.013-1.009-.032-1.499q-.509-11.464-8.753-19.717Q44.429 2.002 32 2c-8.281 0-15.358 2.93-21.212 8.784Q2.002 19.569 2.001 32c0 8.282 2.93 15.358 8.787 21.212 5.482 5.492 12.05 8.41 19.672 8.756.51.02 1.019.032 1.54.032 8.285 0 15.358-2.933 21.215-8.788C59.07 47.357 62 40.281 62 32"/><g fill="#fff" transform="translate(-1.882 -.336)scale(1.0588)"><rect width="14" height="11.8" x="25" y="15" rx="3" ry="3"/><g transform="translate(0 1.6)"><rect width="14" height="11.8" x="15" y="32.664" rx="3" ry="3"/><rect width="14" height="11.8" x="35" y="32.679" rx="3" ry="3"/></g><path stroke="#fff" stroke-width="2.869" d="m26.451 25.774-9.589 12.452m19.015-12.452 9.589 12.452" transform="matrix(.59813 0 0 .81232 13.36 4.545)"/></g></svg>