<svg xmlns="http://www.w3.org/2000/svg" width="64" height="64"><defs><linearGradient id="d" x1="10.094" x2="122.72" y1="107.36" y2="107.36" gradientTransform="matrix(.24842 0 0 .24428 433.38 517.17)" gradientUnits="userSpaceOnUse"><stop offset="0" stop-color="#1a1a1a"/><stop offset=".111" stop-color="#2c2c2e"/><stop offset=".29" stop-color="#2b2b2d"/><stop offset=".512" stop-color="#2a2b2d"/><stop offset=".752" stop-color="#2b2b2d"/><stop offset=".897" stop-color="#323232"/><stop offset="1" stop-color="#171717"/></linearGradient><linearGradient id="e" x1="449.43" x2="449.55" y1="540.75" y2="518.41" gradientUnits="userSpaceOnUse"><stop offset="0" stop-color="#bec1c7"/><stop offset="1" stop-color="#dddfe2"/></linearGradient><linearGradient id="f" x1="451.02" x2="451.02" y1="544.15" y2="543.09" gradientTransform="matrix(.5054 0 0 1 229.15 2.167)" gradientUnits="userSpaceOnUse"><stop offset="0" stop-color="#197cf1"/><stop offset="1" stop-color="#20bcfa"/></linearGradient><linearGradient id="g" x1="467.17" x2="467.17" y1="546.85" y2="544.72" gradientTransform="translate(0 .106)" gradientUnits="userSpaceOnUse"><stop offset="0" stop-color="#040404"/><stop offset="1" stop-color="#121212" stop-opacity=".908"/></linearGradient><linearGradient id="b" x1="519.2" x2="519.2" y1="1024.8" y2="4.8" gradientTransform="translate(-.559 -.581) scale(.06358)" gradientUnits="userSpaceOnUse"><stop offset="0" stop-color="#646464"/><stop offset=".02" stop-color="#414141"/><stop offset="1" stop-color="#1e1e1e"/></linearGradient><filter id="a" width="1.072" height="1.072" x="-.036" y="-.036" color-interpolation-filters="sRGB"><feGaussianBlur stdDeviation=".42"/></filter><filter id="c" width="1.119" height="1.121" x="-.06" y="-.06" color-interpolation-filters="sRGB"><feGaussianBlur stdDeviation=".795"/></filter></defs><circle cx="400.57" cy="531.8" r="14" filter="url(#a)" opacity=".25" transform="translate(-826.34 -1107.5) scale(2.1429)"/><circle cx="32.017" cy="31.998" r="30" fill="none"/><path fill="url(#b)" d="M50.246 8.118q-3.86-2.972-8.444-4.555Q37.065 1.925 32 1.925c-16.569 0-30.003 13.431-30.003 30 0 15.158 11.245 27.683 25.845 29.71.713.098 1.434.174 2.159.219.661.04 1.326.07 2 .07 16.567 0 29.997-13.432 29.997-29.999 0-1.31-.083-2.603-.245-3.865a29.93 29.93 0 0 0-.884-4.305q-1.329-4.689-4.082-8.726-2.721-3.977-6.54-6.911z"/><g fill="#a1a7ae" stroke="#909296" stroke-width="2.525"><g stroke="none" transform="matrix(.02764 -.0222 .02754 .02227 18.561 28.089)"><path fill="#000" d="M18.559 16.219a.843.843 0 0 0-.852.838L16.002 42.33c0 .048.02.089.028.135H16l.284 4.478c0 .464.38.838.853.838H46.86a.843.843 0 0 0 .852-.838l.285-4.478h-.024c.008-.046.028-.087.028-.135l-1.989-25.273a.844.844 0 0 0-.853-.838h-26.6z" filter="url(#c)" opacity=".75" transform="matrix(21.396 21.323 -26.464 26.556 318.3 -1200.9)"/><path fill="url(#d)" d="m435.89 541.07.248 3.915c0 .406.333.733.746.733h25.99a.738.738 0 0 0 .745-.733l.248-3.915z" transform="matrix(24.469 24.385 -30.265 30.37 5246.5 -26793)"/><path fill="url(#e)" d="M438.13 518.12h23.26c.413 0 .745.327.745.733l1.74 22.1a.738.738 0 0 1-.746.733H436.64a.738.738 0 0 1-.745-.733l1.49-22.1c0-.406.333-.733.745-.733z" transform="matrix(24.469 24.385 -30.265 30.37 5246.5 -26793)"/><rect width="11.463" height=".769" x="450.87" y="545.61" fill="url(#f)" ry=".384" transform="matrix(24.469 24.385 -30.265 30.37 5147 -27021)"/><circle cx="467.09" cy="546.02" r="1.061" fill="url(#g)" opacity=".452" transform="matrix(24.469 24.385 -30.265 30.37 5147 -27021)"/></g><path fill="#e3e8ea" stroke-width=".028860749999999998" d="M46.187 48.203c.032 0 .06-.012.084-.036a.115.115 0 0 0 .035-.083v-.596a.114.114 0 0 0-.035-.084c-.024-.024-.052-.036-.084-.036s-.06.012-.084.036a.115.115 0 0 0-.035.084v.596c0 .032.012.06.035.083a.115.115 0 0 0 .084.036z" opacity=".668"/><path fill="#e3e8ea" stroke-width=".028860749999999998" d="M46.827 47.883a.702.702 0 0 0-.21-.251c-.027-.02-.056-.028-.09-.023s-.058.02-.077.046a.113.113 0 0 0-.023.088c.004.033.02.06.046.079a.475.475 0 0 1-.47.82.48.48 0 0 1-.293-.44.468.468 0 0 1 .191-.38.116.116 0 0 0 .046-.079.113.113 0 0 0-.023-.088c-.019-.026-.045-.042-.077-.046s-.063.003-.09.023a.701.701 0 0 0-.285.57.722.722 0 0 0 .438.658.696.696 0 0 0 .555.001.721.721 0 0 0 .38-.38.705.705 0 0 0-.018-.597z" opacity=".668"/><path d="m481.1 209.44-47.955-47.979a9.755 9.755 0 0 0-6.881-2.852 9.744 9.744 0 0 0-6.883 2.844l-47.971 47.986c-3.809 3.791-3.809 9.956 0 13.749l6.691 6.683-36.563 36.548-84.964-16.617 139.67-139.67 17.684 17.684a7.674 7.674 0 0 0 7.248 2.031 7.69 7.69 0 0 0 5.514-5.139l32.533-102.52a7.723 7.723 0 0 0-1.898-7.759 7.698 7.698 0 0 0-7.757-1.888l-102.52 32.525a7.713 7.713 0 0 0-5.146 5.504 7.685 7.685 0 0 0 2.039 7.257l17.699 17.701-193.46 193.45-17.923-91.67 29.027-29.027c14.099 2.868 29.314-1.141 40.244-12.069 17.35-17.334 17.35-45.444-.017-62.794-17.317-17.334-45.422-17.31-62.771.024-10.945 10.929-14.943 26.151-12.075 40.251l-38.221 38.219a24.41 24.41 0 0 0-6.707 22.003l26.75 136.76-59.664 59.655c-17.699-5.313-37.631-1.202-51.618 12.785-20.265 20.282-20.282 53.14-.017 73.422 20.297 20.296 53.164 20.296 73.444.016 13.989-13.98 18.082-33.895 12.777-51.603l113.45-113.44 130.07 25.441a24.466 24.466 0 0 0 22.001-6.715l45.756-45.756 6.692 6.692a9.747 9.747 0 0 0 6.883 2.843 9.747 9.747 0 0 0 6.881-2.852l47.955-47.978a9.7 9.7 0 0 0 .002-13.748z" transform="matrix(.02764 -.0222 .02754 .02227 18.561 28.089)"/></g></svg>