<svg xmlns="http://www.w3.org/2000/svg" width="64" height="64"><defs><linearGradient id="b" x1="32.02" x2="32.02" y1="2.043" y2="62.045" gradientUnits="userSpaceOnUse"><stop offset="0" stop-color="#1064d3"/><stop offset="1" stop-color="#14c6fd"/></linearGradient><linearGradient id="f" x1="23.874" x2="24" y1="22.584" y2="35" gradientUnits="userSpaceOnUse"><stop offset="0" stop-color="#e0e8f8"/><stop offset="1" stop-color="#7f91b0"/></linearGradient><linearGradient id="h" x1="22.446" x2="21.872" y1="22.477" y2="36.134" gradientUnits="userSpaceOnUse"><stop offset="0" stop-color="#bdceef"/><stop offset="1" stop-color="#eaf0fa"/></linearGradient><linearGradient id="g" x1="27" x2="27" y1="24" y2="35" gradientUnits="userSpaceOnUse"><stop offset="0" stop-color="#dbe4f6"/><stop offset="1" stop-color="#eaf0fa"/></linearGradient><filter id="a" width="1.072" height="1.072" x="-.036" y="-.036" color-interpolation-filters="sRGB"><feGaussianBlur stdDeviation=".42"/></filter><filter id="c" width="1.12" height="1.12" x="-.06" y="-.06" color-interpolation-filters="sRGB"><feGaussianBlur stdDeviation="1.2"/></filter><filter id="d" width="1.128" height="1.113" x="-.064" y="-.056" color-interpolation-filters="sRGB"><feGaussianBlur stdDeviation=".449"/></filter><filter id="e" width="1.129" height="1.111" x="-.065" y="-.056" color-interpolation-filters="sRGB"><feGaussianBlur stdDeviation=".344"/></filter></defs><circle cx="400.57" cy="531.8" r="14" filter="url(#a)" opacity=".25" transform="translate(-826.36 -1107.5)scale(2.1429)"/><g stroke-width="1.571"><circle cx="32.02" cy="32.044" r="30.001" fill="url(#b)"/><circle cx="32" cy="32" r="24" filter="url(#c)" opacity=".15"/><circle cx="32.02" cy="32.044" r="30.001" fill="none"/><circle cx="32" cy="32" r="24" fill="#fff"/></g><g fill-rule="evenodd" stroke-width="2.199" filter="url(#d)" opacity=".15" transform="matrix(1.8801 -.27176 .23971 1.5821 -18.877 -1.55)"><path fill-opacity=".152" d="m18 31 6 4 6-4v-7l-6-4-6 4z"/><path d="m24 20 2-4 6 4-2 4zm0 0-2-4-6 4 2 4zm8 8-2-4-6 4 2 4zm-16 0 2-4 6 4-2 4z"/></g><g fill-rule="evenodd" stroke-width="2.199"><path d="m18 31 6 4 6-4v-7l-6-4-6 4z" filter="url(#e)" opacity=".15" transform="matrix(1.8801 -.27176 .23971 1.5821 -18.877 -1.55)"/><path fill="url(#f)" d="m18 31 6 4 6-4v-7l-6-4-6 4z" transform="matrix(1.8801 -.27176 .23971 1.5821 -18.877 -1.55)"/><path fill="#408af0" d="m31.04 23.57 2.801-6.872 12.24 4.698-2.802 6.872zm0 0-4.72-5.785L16 25.744l4.719 5.785z"/><path fill="url(#g)" d="m24 35 6-4v-7l-6 4z" transform="matrix(1.8801 -.27176 .23971 1.5821 -18.877 -1.55)"/><path fill="#408af0" d="m47.998 34.053-4.719-5.785-10.322 7.959 4.72 5.785z"/><path fill="url(#h)" d="m18 31 6 4v-7l-6-4z" transform="matrix(1.8801 -.27176 .23971 1.5821 -18.877 -1.55)"/><path fill="#408af0" d="m17.916 38.4 2.802-6.871 12.24 4.698-2.802 6.872z"/></g></svg>