<svg width="64" height="64" xmlns="http://www.w3.org/2000/svg"><defs><linearGradient id="d" x1="399.57" x2="399.57" y1="545.8" y2="517.8" gradientTransform="translate(-826.36 -1107.5) scale(2.1429)" gradientUnits="userSpaceOnUse"><stop stop-color="#3889e9" offset="0"/><stop stop-color="#5ea5fb" offset="1"/></linearGradient><linearGradient id="b" x1="32.02" x2="32.02" y1="2.043" y2="62.045" gradientUnits="userSpaceOnUse"><stop stop-color="#1064d3" offset="0"/><stop stop-color="#14c6fd" offset="1"/></linearGradient><linearGradient id="g" x1="23.874" x2="24" y1="22.584" y2="35" gradientUnits="userSpaceOnUse"><stop stop-color="#e0e8f8" offset="0"/><stop stop-color="#7f91b0" offset="1"/></linearGradient><linearGradient id="i" x1="22.446" x2="21.872" y1="22.477" y2="36.134" gradientUnits="userSpaceOnUse"><stop stop-color="#bdceef" offset="0"/><stop stop-color="#eaf0fa" offset="1"/></linearGradient><linearGradient id="h" x1="27" x2="27" y1="24" y2="35" gradientUnits="userSpaceOnUse"><stop stop-color="#dbe4f6" offset="0"/><stop stop-color="#eaf0fa" offset="1"/></linearGradient><filter id="a" x="-.036" y="-.036" width="1.072" height="1.072" color-interpolation-filters="sRGB"><feGaussianBlur stdDeviation=".42"/></filter><filter id="c" x="-.06" y="-.06" width="1.12" height="1.12" color-interpolation-filters="sRGB"><feGaussianBlur stdDeviation="1.2"/></filter><filter id="e" x="-.064" y="-.056" width="1.128" height="1.113" color-interpolation-filters="sRGB"><feGaussianBlur stdDeviation=".449"/></filter><filter id="f" x="-.065" y="-.056" width="1.129" height="1.111" color-interpolation-filters="sRGB"><feGaussianBlur stdDeviation=".344"/></filter></defs><circle transform="translate(-826.36 -1107.5) scale(2.1429)" cx="400.57" cy="531.8" r="14" filter="url(#a)" opacity=".25"/><g stroke-width="1.571"><circle cx="32.02" cy="32.044" r="30.001" fill="url(#b)"/><circle cx="32" cy="32" r="24" filter="url(#c)" opacity=".15"/><circle cx="32.02" cy="32.044" r="30.001" fill="none"/><circle cx="32" cy="32" r="24" fill="#fff"/></g><g transform="matrix(1.8801 -.27176 .23971 1.5821 -18.877 -1.55)" fill-rule="evenodd" filter="url(#e)" opacity=".15" stroke-width="2.199"><path d="m18 31 6 4 6-4v-7l-6-4-6 4z" fill-opacity=".152"/><path d="m24 20 2-4 6 4-2 4zM24 20l-2-4-6 4 2 4zM32 28l-2-4-6 4 2 4zM16 28l2-4 6 4-2 4z"/></g><g fill-rule="evenodd" stroke-width="2.199"><path d="m18 31 6 4 6-4v-7l-6-4-6 4z" filter="url(#f)" opacity=".15" transform="matrix(1.8801 -.27176 .23971 1.5821 -18.877 -1.55)"/><path d="m18 31 6 4 6-4v-7l-6-4-6 4z" fill="url(#g)" transform="matrix(1.8801 -.27176 .23971 1.5821 -18.877 -1.55)"/><path d="m31.04 23.57 2.801-6.872 12.24 4.698-2.802 6.872zM31.04 23.57l-4.72-5.785L16 25.744l4.719 5.785z" fill="#408af0"/><path d="m24 35 6-4v-7l-6 4z" fill="url(#h)" transform="matrix(1.8801 -.27176 .23971 1.5821 -18.877 -1.55)"/><path d="m47.998 34.053-4.719-5.785-10.322 7.959 4.72 5.785z" fill="#408af0"/><path d="m18 31 6 4v-7l-6-4z" fill="url(#i)" transform="matrix(1.8801 -.27176 .23971 1.5821 -18.877 -1.55)"/><path d="m17.916 38.4 2.802-6.871 12.24 4.698-2.802 6.872z" fill="#408af0"/></g></svg>