<svg xmlns="http://www.w3.org/2000/svg" width="64" height="64"><defs><linearGradient id="b" x1="30" x2="30" y1="55" y2="10" gradientTransform="translate(1.242 1.272)scale(.96117)" gradientUnits="userSpaceOnUse"><stop offset="0" stop-color="#19222c"/><stop offset="1" stop-color="#263852"/></linearGradient><linearGradient id="d" x1="11.993" x2="11.993" y1="15.289" y2="8.384" gradientTransform="translate(-.002 .965)scale(3.7796)" gradientUnits="userSpaceOnUse"><stop offset="0" stop-color="#c20000"/><stop offset="1" stop-color="#ff0202"/></linearGradient><radialGradient id="c" cx="12.171" cy="12.171" r="4.762" gradientTransform="translate(-.002 -.035)scale(3.7796)" gradientUnits="userSpaceOnUse"><stop offset="0"/><stop offset="1" stop-opacity="0"/></radialGradient><filter id="a" width="1.061" height="1.061" x="-.031" y="-.031" color-interpolation-filters="sRGB"><feGaussianBlur stdDeviation=".768"/></filter></defs><rect width="60" height="60" x="2" y="3" filter="url(#a)" opacity=".15" rx="30" ry="30"/><rect width="64" height="64" fill="none" rx="0" ry="0" style="paint-order:stroke fill markers"/><rect width="60" height="60" x="2" y="2" fill="#7b7b7b" rx="30" ry="30"/><rect width="48" height="48" x="8" y="8" fill="url(#b)" rx="24" ry="24"/><path fill="#7b7b7b" d="M20 46.083a8 8 0 0 0 1.77-.172c1.811-.378 3.35-1.162 4.532-2.553a15.8 15.8 0 0 0 1.844-2.733 28 28 0 0 0 1.57-3.526 37 37 0 0 0 1.366-4.438c.197-.84-.024-1.367-1.001-1.657a47 47 0 0 0-3.763-.966c-2.108-.44-4.233-.722-6.4-.653q-.92.035-1.828.188c-1.754.291-3.242 1.061-4.457 2.278-2.076 2.074-2.902 4.548-2.39 7.368.736 4.03 4.49 6.896 8.757 6.864m3.648-28c-.023.573.086 1.2.267 1.826.344 1.193.916 2.285 1.59 3.317 1.534 2.347 3.468 4.357 5.567 6.222.172.153.376.283.595.382.22.106.439.106.666.015q.33-.138.58-.39a69 69 0 0 0 2.137-2.133c.97-1.032 1.895-2.094 2.733-3.233.76-1.032 1.441-2.117 1.942-3.294.5-1.17.744-2.377.58-3.646-.275-2.093-1.19-3.867-2.828-5.258-1.935-1.642-4.19-2.3-6.727-1.933-4.126.596-7.118 4.143-7.102 8.125m20.352 28a8 8 0 0 1-1.77-.172c-1.811-.378-3.35-1.162-4.532-2.553a15.8 15.8 0 0 1-1.844-2.733 28 28 0 0 1-1.57-3.526 37 37 0 0 1-1.366-4.438c-.198-.84.024-1.367 1.001-1.657 1.24-.369 2.49-.699 3.763-.966 2.108-.44 4.233-.722 6.4-.653q.92.035 1.828.188c1.754.291 3.242 1.061 4.457 2.278 2.076 2.074 2.902 4.548 2.39 7.368-.736 4.03-4.49 6.896-8.757 6.864"/><g transform="translate(0 .033)"><circle cx="46" cy="45.967" r="18" fill="url(#c)"/><circle cx="46" cy="45.967" r="16" fill="url(#d)"/><rect width="21.388" height="6.066" x="35.306" y="42.934" fill="#fff" ry="2.895"/></g></svg>