<svg xmlns="http://www.w3.org/2000/svg" width="64" height="64"><defs><linearGradient id="a" x1="7.937" x2="7.937" y1="15.081" y2="1.852" gradientTransform="translate(-2.286 -2.252) scale(4.0494)" gradientUnits="userSpaceOnUse"><stop offset="0" stop-color="#ffe080"/><stop offset="1" stop-color="#fff75e"/></linearGradient></defs><rect width="60" height="60" x="2" y="2" fill="url(#a)" rx="30" ry="30"/><rect width="54" height="54" x="5" y="5" fill="#fff" opacity=".25" rx="27" ry="27"/><path fill="#545454" d="M31 17.63a1 1 0 0 0-1 1v16.74a1 1 0 0 0 1 1 1 1 0 0 0 1-1V18.63a1 1 0 0 0-1-1z" color="#000" style="-inkscape-stroke:none"/><g fill="#5a5a5a" stroke-linecap="round" stroke-linejoin="round" color="#000"><path d="M18.5 13a1.5 1.5 0 0 0-1.5 1.5 1.5 1.5 0 0 0 1.5 1.5h5.572a1.5 1.5 0 0 0 1.5-1.5 1.5 1.5 0 0 0-1.5-1.5zM35.5 44a1.5 1.5 0 0 0-1.5 1.5 1.5 1.5 0 0 0 1.5 1.5h9.4a1.5 1.5 0 0 0 1.5-1.5 1.5 1.5 0 0 0-1.5-1.5zM35.5 39a1.5 1.5 0 0 0-1.5 1.5 1.5 1.5 0 0 0 1.5 1.5h5.64a1.5 1.5 0 0 0 1.5-1.5 1.5 1.5 0 0 0-1.5-1.5z" style="-inkscape-stroke:none"/></g><g stroke-linejoin="round" color="#000"><path fill="#545454" d="M7.32 42v2h13.762v-2z" style="-inkscape-stroke:none"/><path fill="#333" d="M23.5 35.168a1.5 1.5 0 0 0-1.5 1.5v12.709a1.5 1.5 0 0 0 1.5 1.5 1.5 1.5 0 0 0 1.5-1.5V36.668a1.5 1.5 0 0 0-1.5-1.5z" style="-inkscape-stroke:none"/><path fill="#545454" d="M29.796 29a1 1 0 0 0-1 1 1 1 0 0 0 1 1h10.408a1 1 0 0 0 1-1 1 1 0 0 0-1-1zM30 51v8h2v-8z" style="-inkscape-stroke:none"/></g><path fill="#333" d="M34 30.001a2.899 2.96 0 1 1-2.898-2.96A2.899 2.96 0 0 1 34 30z" class="cls-6"/><path fill="#db295b" d="M28 5v15.24c0 .421.319.76.715.76h4.57c.396 0 .715-.339.715-.76V5z" class="cls-7"/><g fill="#333" stroke-linecap="round" stroke-linejoin="round" color="#000"><path d="M31.359 34.629a1 1 0 0 0-.756.117l-7.46 4.52a1 1 0 0 0-.337 1.373 1 1 0 0 0 1.373.338l7.46-4.522a1 1 0 0 0 .337-1.373 1 1 0 0 0-.617-.453zM23.414 44.791a1 1 0 0 0-.613.46 1 1 0 0 0 .351 1.37l6.65 3.94a1 1 0 0 0 1.37-.35 1 1 0 0 0-.35-1.371l-6.65-3.94a1 1 0 0 0-.758-.109zM18.191 42a1 1 0 0 0-1 1 1 1 0 0 0 1 1h4.83a1 1 0 0 0 1-1 1 1 0 0 0-1-1z" style="-inkscape-stroke:none"/></g><g stroke-linecap="round" stroke-linejoin="round" color="#000"><path fill="#db295b" d="M32.121 51.104c-.33.018-5.238.455-5.26.306-.022-.15 3.173-5.525 3.304-5.527.132-.002 2.065 5.07 1.956 5.221z" style="-inkscape-stroke:none" transform="translate(0 .254)"/><path fill="#e10b4f" d="m30.164 45.783-.027.004-.018.006c-.01.004-.016.01-.021.013a.196.196 0 0 0-.026.022 3.575 3.575 0 0 0-.17.23c-.1.15-.237.36-.396.614a112.313 112.313 0 0 0-2.242 3.762c-.15.262-.275.485-.362.648a4.426 4.426 0 0 0-.127.264l-.01.029-.003.017v.032l.007.025.012.022a.11.11 0 0 0 .024.025c.015.012.028.016.039.02.022.007.04.01.062.013.045.006.102.009.172.01.141.002.337-.002.572-.012.47-.02 1.097-.06 1.733-.107 1.272-.093 2.595-.209 2.744-.217a.1.1 0 0 0 .076-.041c.033-.046.024-.068.023-.09 0-.022-.005-.045-.01-.07a2.232 2.232 0 0 0-.046-.194 12.767 12.767 0 0 0-.196-.617 57.544 57.544 0 0 0-.646-1.79 63.13 63.13 0 0 0-.693-1.762c-.1-.24-.186-.44-.252-.58a2.45 2.45 0 0 0-.086-.17.416.416 0 0 0-.035-.053c-.007-.008-.014-.018-.026-.028-.006-.004-.012-.01-.023-.015-.006-.003-.02-.006-.02-.006l-.03-.004zm-.01.266.047.093c.064.137.15.335.248.573.198.476.449 1.113.692 1.756s.477 1.29.644 1.785c.084.247.152.457.193.607.018.064.028.11.036.149-.253.017-1.422.12-2.645.209-.635.046-1.26.087-1.727.107-.233.01-.427.014-.56.012-.037 0-.056-.003-.082-.004.02-.043.044-.093.08-.16.085-.16.208-.38.357-.643a112.067 112.067 0 0 1 2.239-3.754c.158-.253.294-.464.392-.61.036-.052.061-.086.086-.12z" style="-inkscape-stroke:none" transform="translate(0 .254)"/></g><path fill="#545454" d="M45.281 29v2h13.647v-2z" color="#000" style="-inkscape-stroke:none"/><rect width="6" height="12" x="27" y="-50" fill="#db295b" class="cls-7" ry=".5" transform="rotate(90)"/></svg>