<svg width="64" height="64" version="1.1" xmlns="http://www.w3.org/2000/svg">
 <defs>
  <filter id="a" x="-.036" y="-.036" width="1.072" height="1.072" color-interpolation-filters="sRGB">
   <feGaussianBlur stdDeviation=".42"/>
  </filter>
  <filter id="c" x="-.11185" y="-.10439" width="1.2237" height="1.2088" color-interpolation-filters="sRGB">
   <feGaussianBlur stdDeviation="1.702"/>
  </filter>
  <linearGradient id="b" x1="400.51" x2="400.51" y1="544.48" y2="519.16" gradientUnits="userSpaceOnUse">
   <stop stop-color="#30cf41" offset="0"/>
   <stop stop-color="#0ecf98" offset="1"/>
  </linearGradient>
  <filter id="e" x="-.013864" y="-.013864" width="1.0277" height="1.0277" color-interpolation-filters="sRGB">
   <feGaussianBlur stdDeviation=".298"/>
  </filter>
  <filter id="f" x="-.029686" y="-.029686" width="1.0594" height="1.0594" color-interpolation-filters="sRGB">
   <feGaussianBlur stdDeviation=".298"/>
  </filter>
 </defs>
 <g transform="translate(-826.35 -1107.5) scale(2.143)" stroke-width=".733">
  <circle cx="400.57" cy="531.8" r="14" filter="url(#a)" opacity=".25"/>
  <circle cx="400.57" cy="531.8" r="14" fill="url(#b)"/>
  <circle cx="400.57" cy="531.8" r="14" fill="none"/>
 </g>
 <path d="M30.696 13.478a2.609 2.609 0 1 0 0 5.217s.483-.025 1.62.354c1.138.38 2.713 1.146 4.362 2.795s2.415 3.224 2.795 4.362.354 1.62.354 1.62a2.609 2.609 0 1 0 5.217 0s-.025-1.474-.624-3.271c-.6-1.797-1.79-4.135-4.053-6.4-2.264-2.263-4.602-3.453-6.4-4.053-1.797-.599-3.27-.624-3.27-.624zM28.087 20s-1.473.025-3.27.624c-1.798.599-4.136 1.79-6.4 4.053s-3.454 4.602-4.053 6.4c-.6 1.797-.624 3.27-.624 3.27a2.609 2.609 0 1 0 5.217 0s-.025-.482.354-1.62c.38-1.137 1.146-2.712 2.795-4.361 1.649-1.65 3.224-2.416 4.361-2.795 1.138-.38 1.62-.354 1.62-.354a2.609 2.609 0 1 0 0-5.218zm19.527 9.095a2.61 2.61 0 0 0-2.57 2.644s.025.483-.354 1.62c-.38 1.137-1.146 2.712-2.795 4.362s-3.224 2.415-4.362 2.794c-1.137.38-1.62.354-1.62.354a2.609 2.609 0 1 0 0 5.218s1.474-.025 3.271-.624c1.798-.6 4.136-1.79 6.4-4.053s3.454-4.603 4.053-6.4.624-3.27.624-3.27a2.61 2.61 0 0 0-2.647-2.645m-26.087 6.521a2.61 2.61 0 0 0-2.57 2.644s.025 1.474.624 3.272c.6 1.797 1.79 4.135 4.053 6.399s4.602 3.454 6.4 4.053c1.797.6 3.27.624 3.27.624a2.609 2.609 0 1 0 0-5.217s-.482.025-1.62-.354c-1.137-.38-2.712-1.146-4.361-2.795-1.65-1.65-2.416-3.224-2.795-4.362-.38-1.137-.354-1.62-.354-1.62a2.61 2.61 0 0 0-2.647-2.644" filter="url(#c)" opacity=".15"/>
 <path d="M30.696 12.435a2.609 2.609 0 1 0 0 5.217s.483-.025 1.62.354c1.138.38 2.713 1.146 4.362 2.795s2.415 3.224 2.795 4.362.354 1.62.354 1.62a2.609 2.609 0 1 0 5.217 0s-.025-1.474-.624-3.271c-.6-1.797-1.79-4.135-4.053-6.4-2.264-2.263-4.602-3.453-6.4-4.053-1.797-.599-3.27-.624-3.27-.624zm-2.609 6.522s-1.473.025-3.27.624c-1.798.599-4.136 1.79-6.4 4.053s-3.454 4.602-4.053 6.4c-.6 1.797-.624 3.27-.624 3.27a2.609 2.609 0 1 0 5.217 0s-.025-.482.354-1.62c.38-1.137 1.146-2.712 2.795-4.361 1.649-1.65 3.224-2.416 4.361-2.795 1.138-.38 1.62-.354 1.62-.354a2.609 2.609 0 1 0 0-5.218zm19.527 9.095a2.61 2.61 0 0 0-2.57 2.644s.025.483-.354 1.62c-.38 1.137-1.146 2.712-2.795 4.362s-3.224 2.415-4.362 2.794c-1.137.38-1.62.354-1.62.354a2.609 2.609 0 1 0 0 5.218s1.474-.025 3.271-.624c1.798-.6 4.136-1.79 6.4-4.053s3.454-4.603 4.053-6.4.624-3.27.624-3.27a2.61 2.61 0 0 0-2.647-2.645m-26.087 6.521a2.61 2.61 0 0 0-2.57 2.644s.025 1.474.624 3.272c.6 1.797 1.79 4.135 4.053 6.399s4.602 3.454 6.4 4.053c1.797.6 3.27.624 3.27.624a2.609 2.609 0 1 0 0-5.217s-.482.025-1.62-.354c-1.137-.38-2.712-1.146-4.361-2.795-1.65-1.65-2.416-3.224-2.795-4.362-.38-1.137-.354-1.62-.354-1.62a2.61 2.61 0 0 0-2.647-2.644" fill="#f9f9f9"/>
 <path d="m10.787 10.787a29.934 29.934 0 0 0 0 42.426c0.119 0.119 0.242 0.23 0.362 0.345-11.4-11.775-11.288-30.43 0.345-42.065s30.29-11.743 42.066-0.345c-0.116-0.12-0.227-0.243-0.345-0.362a29.934 29.934 0 0 0-42.426 0z" fill="#ffffff" filter="url(#e)" opacity=".45"/>
 <path d="m37.435 61.526c5.772-1.063 11.297-3.831 15.779-8.313s7.25-10.007 8.313-15.779c-1.592 5.434-4.606 10.657-9.02 15.072s-9.639 7.428-15.072 9.02" fill="#ffffff" filter="url(#f)" opacity=".35"/>
</svg>
