<svg xmlns="http://www.w3.org/2000/svg" width="64" height="64"><defs><linearGradient id="a"><stop offset="0" stop-color="#3889e9"/><stop offset="1" stop-color="#5ea5fb"/></linearGradient><linearGradient id="c" x1="400.51" x2="400.51" y1="544.48" y2="519.16" gradientUnits="userSpaceOnUse"><stop offset="0" stop-color="#30cf41"/><stop offset="1" stop-color="#0ecf98"/></linearGradient><filter id="b" width="1.072" height="1.072" x="-.036" y="-.036" color-interpolation-filters="sRGB"><feGaussianBlur stdDeviation=".42"/></filter><filter id="d" width="1.224" height="1.209" x="-.112" y="-.104" color-interpolation-filters="sRGB"><feGaussianBlur stdDeviation="1.702"/></filter></defs><g stroke-width=".733" transform="translate(-826.352 -1107.527) scale(2.143)"><circle cx="400.57" cy="531.8" r="14" filter="url(#b)" opacity=".25"/><circle cx="400.57" cy="531.8" r="14" fill="url(#c)"/><circle cx="400.57" cy="531.8" r="14" fill="none"/></g><path d="M30.696 13.478a2.609 2.609 0 1 0 0 5.217s.483-.025 1.62.354c1.138.38 2.713 1.146 4.362 2.795 1.649 1.65 2.415 3.224 2.795 4.362.379 1.137.354 1.62.354 1.62a2.609 2.609 0 1 0 5.217 0s-.025-1.474-.624-3.271c-.6-1.797-1.79-4.135-4.053-6.4-2.264-2.263-4.602-3.453-6.4-4.053-1.797-.599-3.27-.624-3.27-.624zM28.087 20s-1.473.025-3.27.624c-1.798.599-4.136 1.79-6.4 4.053-2.264 2.264-3.454 4.602-4.053 6.4-.6 1.797-.624 3.27-.624 3.27a2.609 2.609 0 1 0 5.217 0s-.025-.482.354-1.62c.38-1.137 1.146-2.712 2.795-4.361 1.649-1.65 3.224-2.416 4.361-2.795 1.138-.38 1.62-.354 1.62-.354a2.609 2.609 0 1 0 0-5.218zm19.527 9.095a2.609 2.609 0 0 0-2.57 2.644s.025.483-.354 1.62c-.38 1.137-1.146 2.712-2.795 4.362-1.65 1.649-3.224 2.415-4.362 2.794-1.137.38-1.62.354-1.62.354a2.609 2.609 0 1 0 0 5.218s1.474-.025 3.271-.624c1.798-.6 4.136-1.79 6.4-4.053 2.264-2.264 3.454-4.603 4.053-6.4.599-1.797.624-3.27.624-3.27a2.609 2.609 0 0 0-2.647-2.645zm-26.087 6.521a2.609 2.609 0 0 0-2.57 2.644s.025 1.474.624 3.272c.6 1.797 1.79 4.135 4.053 6.399 2.264 2.264 4.602 3.454 6.4 4.053 1.797.6 3.27.624 3.27.624a2.609 2.609 0 1 0 0-5.217s-.482.025-1.62-.354c-1.137-.38-2.712-1.146-4.361-2.795-1.65-1.65-2.416-3.224-2.795-4.362-.38-1.137-.354-1.62-.354-1.62a2.609 2.609 0 0 0-2.647-2.644z" filter="url(#d)" opacity=".15"/><path fill="#f9f9f9" d="M30.696 12.435a2.609 2.609 0 1 0 0 5.217s.483-.025 1.62.354c1.138.38 2.713 1.146 4.362 2.795 1.649 1.65 2.415 3.224 2.795 4.362.379 1.137.354 1.62.354 1.62a2.609 2.609 0 1 0 5.217 0s-.025-1.474-.624-3.271c-.6-1.797-1.79-4.135-4.053-6.4-2.264-2.263-4.602-3.453-6.4-4.053-1.797-.599-3.27-.624-3.27-.624zm-2.609 6.522s-1.473.025-3.27.624c-1.798.599-4.136 1.79-6.4 4.053-2.264 2.264-3.454 4.602-4.053 6.4-.6 1.797-.624 3.27-.624 3.27a2.609 2.609 0 1 0 5.217 0s-.025-.482.354-1.62c.38-1.137 1.146-2.712 2.795-4.361 1.649-1.65 3.224-2.416 4.361-2.795 1.138-.38 1.62-.354 1.62-.354a2.609 2.609 0 1 0 0-5.218zm19.527 9.095a2.609 2.609 0 0 0-2.57 2.644s.025.483-.354 1.62c-.38 1.137-1.146 2.712-2.795 4.362-1.65 1.649-3.224 2.415-4.362 2.794-1.137.38-1.62.354-1.62.354a2.609 2.609 0 1 0 0 5.218s1.474-.025 3.271-.624c1.798-.6 4.136-1.79 6.4-4.053 2.264-2.264 3.454-4.603 4.053-6.4.599-1.797.624-3.27.624-3.27a2.609 2.609 0 0 0-2.647-2.645zm-26.087 6.521a2.609 2.609 0 0 0-2.57 2.644s.025 1.474.624 3.272c.6 1.797 1.79 4.135 4.053 6.399 2.264 2.264 4.602 3.454 6.4 4.053 1.797.6 3.27.624 3.27.624a2.609 2.609 0 1 0 0-5.217s-.482.025-1.62-.354c-1.137-.38-2.712-1.146-4.361-2.795-1.65-1.65-2.416-3.224-2.795-4.362-.38-1.137-.354-1.62-.354-1.62a2.609 2.609 0 0 0-2.647-2.644z"/></svg>