<svg xmlns="http://www.w3.org/2000/svg" width="64" height="64" viewBox="0 0 16.933 16.933"><defs><linearGradient id="b" x1="169.51" x2="169.51" y1="122.46" y2="16.447" gradientTransform="translate(-14.466 -.715) scale(.13643)" gradientUnits="userSpaceOnUse"><stop offset="0" stop-color="#00b5eb"/><stop offset="1" stop-color="#52ffb9"/></linearGradient><linearGradient id="e" x1="29.504" x2="29.504" y1="47.747" y2="17.014" gradientUnits="userSpaceOnUse"><stop offset="0" stop-color="#cce7ff"/><stop offset="1" stop-color="#fff"/></linearGradient><filter id="c" width="1.378" height="1.297" x="-.189" y="-.148" color-interpolation-filters="sRGB"><feGaussianBlur stdDeviation=".409"/></filter><filter id="a" width="1.061" height="1.061" x="-.031" y="-.031" color-interpolation-filters="sRGB"><feGaussianBlur stdDeviation=".203"/></filter><clipPath id="d"><circle cx="8.467" cy="288.53" r="6.879" fill="#d86eb0" stroke-opacity=".039" stroke-width=".491" style="paint-order:stroke markers fill"/></clipPath></defs><rect width="15.875" height="15.875" x=".529" y=".529" filter="url(#a)" opacity=".15" rx="7.937" ry="7.937"/><rect width="15.875" height="15.875" x=".529" y=".529" fill="url(#b)" rx="7.937" ry="7.937"/><g filter="url(#c)" opacity=".5" transform="translate(-.123 .236)"><g stroke="#000" stroke-linecap="round" stroke-linejoin="round"><path stroke-width="1.058" d="M11.771 3.613a1.48 1.48 0 0 0-.34.046l-2.397.486-2.13.42c-.244.052-.365.157-.42.313a.608.608 0 0 0-.025.099 1.22 1.22 0 0 0-.012.235l.006 5.388c-.004.094-.01.178-.024.252 0 0 0 0 0 0a.449.449 0 0 1-.127.266c-.072.066-.18.112-.343.138-.482.072-.843.168-1.11.286a1.922 1.922 0 0 0-.15.074 1.352 1.352 0 0 0-.238.164.93.93 0 0 0-.32.617c-.011.078-.015.16-.014.244.004.254.083.489.22.679a1.119 1.119 0 0 0 .348.314c.138.08.297.132.472.15.087.009.178.009.273 0 .248-.028.473-.073.673-.15a1.4 1.4 0 0 0 .826-.828c.037-.108.063-.247.078-.404.021-.21.024-.451.01-.694L7.02 7.422c0-.112-.006-.206.006-.283 0 0 0 0 0 0 0-.008.004-.013.005-.02.004-.018.008-.037.014-.053a.225.225 0 0 1 .038-.062c.05-.058.136-.1.285-.131l2.393-.483v0l1.42-.286c.116-.024.2-.015.257.031.057.047.085.131.087.262l.006 3.201c-.01.19-.023.328-.089.427a.32.32 0 0 1-.06.067.515.515 0 0 1-.196.097s0 0 0 0a1.365 1.365 0 0 1-.146.031 6.114 6.114 0 0 0-.521.1 3.19 3.19 0 0 0-.59.195c-.106.049-.2.102-.279.159a1.141 1.141 0 0 0-.2.181c-.193.224-.25.489-.245.786.006.422.225.779.574.968.139.076.299.125.474.14.087.008.179.008.273-.002.249-.027.47-.069.667-.142a1.39 1.39 0 0 0 .36-.194 1.428 1.428 0 0 0 .454-.618s0 0 0 0c.08-.25.09-.654.098-1.087l-.004-6.555a1.725 1.725 0 0 0-.023-.28l-.007-.032a.403.403 0 0 0-.035-.093.242.242 0 0 0-.055-.065l-.022-.016a.254.254 0 0 0-.057-.028l-.026-.01a.45.45 0 0 0-.106-.014z" opacity=".01"/><path stroke-width=".794" d="M11.771 3.613a1.48 1.48 0 0 0-.34.046l-2.397.486-2.13.42c-.244.052-.365.157-.42.313a.608.608 0 0 0-.025.099 1.22 1.22 0 0 0-.012.235l.006 5.388c-.004.094-.01.178-.024.252 0 0 0 0 0 0a.449.449 0 0 1-.127.266c-.072.066-.18.112-.343.138-.482.072-.843.168-1.11.286a1.922 1.922 0 0 0-.15.074 1.352 1.352 0 0 0-.238.164.93.93 0 0 0-.32.617c-.011.078-.015.16-.014.244.004.254.083.489.22.679a1.119 1.119 0 0 0 .348.314c.138.08.297.132.472.15.087.009.178.009.273 0 .248-.028.473-.073.673-.15a1.4 1.4 0 0 0 .826-.828c.037-.108.063-.247.078-.404.021-.21.024-.451.01-.694L7.02 7.422c0-.112-.006-.206.006-.283 0 0 0 0 0 0 0-.008.004-.013.005-.02.004-.018.008-.037.014-.053a.225.225 0 0 1 .038-.062c.05-.058.136-.1.285-.131l2.393-.483v0l1.42-.286c.116-.024.2-.015.257.031.057.047.085.131.087.262l.006 3.201c-.01.19-.023.328-.089.427a.32.32 0 0 1-.06.067.515.515 0 0 1-.196.097s0 0 0 0a1.365 1.365 0 0 1-.146.031 6.114 6.114 0 0 0-.521.1 3.19 3.19 0 0 0-.59.195c-.106.049-.2.102-.279.159a1.141 1.141 0 0 0-.2.181c-.193.224-.25.489-.245.786.006.422.225.779.574.968.139.076.299.125.474.14.087.008.179.008.273-.002.249-.027.47-.069.667-.142a1.39 1.39 0 0 0 .36-.194 1.428 1.428 0 0 0 .454-.618s0 0 0 0c.08-.25.09-.654.098-1.087l-.004-6.555a1.725 1.725 0 0 0-.023-.28l-.007-.032a.403.403 0 0 0-.035-.093.242.242 0 0 0-.055-.065l-.022-.016a.254.254 0 0 0-.057-.028l-.026-.01a.45.45 0 0 0-.106-.014z" opacity=".02"/><path stroke-width=".529" d="M11.771 3.613a1.48 1.48 0 0 0-.34.046l-2.397.486-2.13.42c-.244.052-.365.157-.42.313a.608.608 0 0 0-.025.099 1.22 1.22 0 0 0-.012.235l.006 5.388c-.004.094-.01.178-.024.252 0 0 0 0 0 0a.449.449 0 0 1-.127.266c-.072.066-.18.112-.343.138-.482.072-.843.168-1.11.286a1.922 1.922 0 0 0-.15.074 1.352 1.352 0 0 0-.238.164.93.93 0 0 0-.32.617c-.011.078-.015.16-.014.244.004.254.083.489.22.679a1.119 1.119 0 0 0 .348.314c.138.08.297.132.472.15.087.009.178.009.273 0 .248-.028.473-.073.673-.15a1.4 1.4 0 0 0 .826-.828c.037-.108.063-.247.078-.404.021-.21.024-.451.01-.694L7.02 7.422c0-.112-.006-.206.006-.283 0 0 0 0 0 0 0-.008.004-.013.005-.02.004-.018.008-.037.014-.053a.225.225 0 0 1 .038-.062c.05-.058.136-.1.285-.131l2.393-.483v0l1.42-.286c.116-.024.2-.015.257.031.057.047.085.131.087.262l.006 3.201c-.01.19-.023.328-.089.427a.32.32 0 0 1-.06.067.515.515 0 0 1-.196.097s0 0 0 0a1.365 1.365 0 0 1-.146.031 6.114 6.114 0 0 0-.521.1 3.19 3.19 0 0 0-.59.195c-.106.049-.2.102-.279.159a1.141 1.141 0 0 0-.2.181c-.193.224-.25.489-.245.786.006.422.225.779.574.968.139.076.299.125.474.14.087.008.179.008.273-.002.249-.027.47-.069.667-.142a1.39 1.39 0 0 0 .36-.194 1.428 1.428 0 0 0 .454-.618s0 0 0 0c.08-.25.09-.654.098-1.087l-.004-6.555a1.725 1.725 0 0 0-.023-.28l-.007-.032a.403.403 0 0 0-.035-.093.242.242 0 0 0-.055-.065l-.022-.016a.254.254 0 0 0-.057-.028l-.026-.01a.45.45 0 0 0-.106-.014z" opacity=".03"/><path stroke-width=".265" d="M11.771 3.613a1.48 1.48 0 0 0-.34.046l-2.397.486-2.13.42c-.244.052-.365.157-.42.313a.608.608 0 0 0-.025.099 1.22 1.22 0 0 0-.012.235l.006 5.388c-.004.094-.01.178-.024.252 0 0 0 0 0 0a.449.449 0 0 1-.127.266c-.072.066-.18.112-.343.138-.482.072-.843.168-1.11.286a1.922 1.922 0 0 0-.15.074 1.352 1.352 0 0 0-.238.164.93.93 0 0 0-.32.617c-.011.078-.015.16-.014.244.004.254.083.489.22.679a1.119 1.119 0 0 0 .348.314c.138.08.297.132.472.15.087.009.178.009.273 0 .248-.028.473-.073.673-.15a1.4 1.4 0 0 0 .826-.828c.037-.108.063-.247.078-.404.021-.21.024-.451.01-.694L7.02 7.422c0-.112-.006-.206.006-.283 0 0 0 0 0 0 0-.008.004-.013.005-.02.004-.018.008-.037.014-.053a.225.225 0 0 1 .038-.062c.05-.058.136-.1.285-.131l2.393-.483v0l1.42-.286c.116-.024.2-.015.257.031.057.047.085.131.087.262l.006 3.201c-.01.19-.023.328-.089.427a.32.32 0 0 1-.06.067.515.515 0 0 1-.196.097s0 0 0 0a1.365 1.365 0 0 1-.146.031 6.114 6.114 0 0 0-.521.1 3.19 3.19 0 0 0-.59.195c-.106.049-.2.102-.279.159a1.141 1.141 0 0 0-.2.181c-.193.224-.25.489-.245.786.006.422.225.779.574.968.139.076.299.125.474.14.087.008.179.008.273-.002.249-.027.47-.069.667-.142a1.39 1.39 0 0 0 .36-.194 1.428 1.428 0 0 0 .454-.618s0 0 0 0c.08-.25.09-.654.098-1.087l-.004-6.555a1.725 1.725 0 0 0-.023-.28l-.007-.032a.403.403 0 0 0-.035-.093.242.242 0 0 0-.055-.065l-.022-.016a.254.254 0 0 0-.057-.028l-.026-.01a.45.45 0 0 0-.106-.014z" opacity=".03"/></g><path d="M11.771 3.613a1.48 1.48 0 0 0-.34.046l-2.397.486-2.13.42c-.244.052-.365.157-.42.313a.608.608 0 0 0-.025.099 1.22 1.22 0 0 0-.012.235l.006 5.388c-.004.094-.01.178-.024.252a.449.449 0 0 1-.127.266c-.072.066-.18.112-.343.138-.482.072-.843.168-1.11.286a1.922 1.922 0 0 0-.15.074 1.352 1.352 0 0 0-.238.164.93.93 0 0 0-.32.617c-.011.078-.015.16-.014.244.004.254.083.489.22.679a1.119 1.119 0 0 0 .348.314c.138.08.297.132.472.15.087.009.178.009.273 0 .248-.028.473-.073.673-.15a1.4 1.4 0 0 0 .826-.828c.037-.108.063-.247.078-.404.021-.21.024-.451.01-.694L7.02 7.422c0-.112-.006-.206.006-.283 0-.008.004-.013.005-.02.004-.018.008-.037.014-.053a.225.225 0 0 1 .038-.062c.05-.058.136-.1.285-.131l2.393-.483 1.42-.286c.116-.024.2-.015.257.031.057.047.085.131.087.262l.006 3.201c-.01.19-.023.328-.089.427a.32.32 0 0 1-.06.067.515.515 0 0 1-.196.097 1.365 1.365 0 0 1-.146.031 6.114 6.114 0 0 0-.521.1 3.19 3.19 0 0 0-.59.195c-.106.049-.2.102-.279.159a1.141 1.141 0 0 0-.2.181c-.193.224-.25.489-.245.786.006.422.225.779.574.968.139.076.299.125.474.14.087.008.179.008.273-.002.249-.027.47-.069.667-.142a1.39 1.39 0 0 0 .36-.194 1.428 1.428 0 0 0 .454-.618c.08-.25.09-.654.098-1.087l-.004-6.555a1.725 1.725 0 0 0-.023-.28l-.007-.032a.403.403 0 0 0-.035-.093.242.242 0 0 0-.055-.065l-.022-.016a.254.254 0 0 0-.057-.028l-.026-.01a.45.45 0 0 0-.106-.014z" opacity=".15"/></g><g fill="none" stroke="#fff" stroke-opacity=".937" stroke-width=".114" clip-path="url(#d)" transform="translate(-1.303 -324.6) scale(1.1539)"><path d="M1.485 287.74c.72.155 1.391.625 1.983 1.98.674 1.545 1.623 2.23 2.772 2.284 1.48.07 2.673-1.226 3.459-2.385 1.602-2.362 4.519-2.136 5.816-1.251" opacity=".35"/><path d="M1.493 288.13c.894-.35 2.083-.424 2.872.827.722 1.143 1.576 2.867 4.049 2.709 1.478-.095 2.956-.71 3.718-2.15.53-.933 1.26-1.872 2.293-2.104.382-.081.655-.07.976.057" opacity=".35"/><path d="M1.775 290.25c.947-.444 2.745-.953 4.197-.53 1.297.38 2.937 1.847 6.056 1.504.824-.09 1.522-.563 2.183-1.464.478-.652.75-1.02 1.306-1.167" opacity=".35"/></g><path fill="url(#e)" d="M43.527 12.188c-.337-.007-.758.054-1.287.174L33.18 14.2l-8.047 1.588c-.924.197-1.382.593-1.588 1.181a2.299 2.299 0 0 0-.095.375 4.613 4.613 0 0 0-.047.889l.023 20.363c-.016.358-.04.674-.09.953v.002c-.074.418-.21.75-.482 1.002s-.68.425-1.297.523c-1.82.271-3.184.634-4.195 1.082a7.26 7.26 0 0 0-.565.28c-.35.193-.648.399-.9.619a3.513 3.513 0 0 0-1.014 1.476 4.2 4.2 0 0 0-.199.854 6.436 6.436 0 0 0-.049.926c.014.958.313 1.845.832 2.564a4.23 4.23 0 0 0 1.315 1.186 4.447 4.447 0 0 0 1.783.568c.33.034.674.034 1.031-.002.939-.104 1.788-.273 2.543-.564 1.259-.485 2.255-1.313 2.97-2.76.056-.11.107-.233.153-.37.14-.41.238-.934.297-1.528.08-.793.09-1.705.035-2.623l-.023-16.197c.002-.425-.022-.78.023-1.073v-.002c.004-.026.015-.047.02-.072a.852.852 0 0 1 .197-.436c.187-.216.513-.377 1.076-.494l9.045-1.824v-.002l5.37-1.082c.436-.088.757-.056.97.12.213.175.32.496.326.988l.024 12.102c-.034.715-.085 1.237-.334 1.613a1.207 1.207 0 0 1-.227.254c-.18.152-.42.273-.742.365h-.002a4.804 4.804 0 0 1-.549.117c-.728.109-1.384.234-1.973.375-.882.211-1.617.459-2.224.738-.406.187-.757.387-1.057.602s-.55.444-.758.686c-.73.844-.94 1.846-.925 2.968.022 1.597.851 2.945 2.168 3.66a4.604 4.604 0 0 0 1.793.532c.33.03.676.028 1.033-.008.939-.104 1.778-.26 2.521-.537a5.253 5.253 0 0 0 1.36-.734c.616-.468 1.138-1.101 1.568-1.97.055-.108.105-.23.149-.364v-.002c.304-.942.336-2.473.369-4.108l-.016-24.777c0-.3-.017-.553-.045-.783a3.345 3.345 0 0 0-.043-.275c-.008-.041-.015-.084-.025-.122a1.53 1.53 0 0 0-.133-.351.916.916 0 0 0-.207-.246c-.025-.022-.054-.04-.082-.059a.96.96 0 0 0-.215-.107c-.033-.012-.064-.026-.1-.035a1.703 1.703 0 0 0-.4-.055z" transform="scale(.26458)"/></svg>