<svg xmlns="http://www.w3.org/2000/svg" width="64" height="64"><defs><linearGradient id="b" x1="97.425" x2="97.425" y1="-9.007" y2="209.87" gradientTransform="translate(33.875 62.237)scale(4.7812)" gradientUnits="userSpaceOnUse"><stop offset="0" stop-color="#f22c42"/><stop offset="1" stop-color="#f76363"/></linearGradient><linearGradient id="d" x1="105.41" x2="105.41" y1="-101.99" y2="308.4" gradientUnits="userSpaceOnUse"><stop offset="0" stop-color="#fff"/><stop offset="1" stop-color="#d7d7d7"/></linearGradient><filter id="c" width="1.072" height="1.072" x="-.036" y="-.036" color-interpolation-filters="sRGB"><feGaussianBlur stdDeviation="3.09"/></filter><filter id="a" width="1.072" height="1.072" x="-.036" y="-.036" color-interpolation-filters="sRGB"><feGaussianBlur stdDeviation="14.344"/></filter></defs><g stroke-width="15.938" transform="translate(-.125 -1.9)scale(.06274)"><circle cx="512" cy="540.36" r="478.12" color="#000" filter="url(#a)" opacity=".25"/><circle cx="512" cy="540.36" r="478.12" fill="url(#b)" color="#000"/><g filter="url(#c)" opacity=".2" transform="translate(258 297.85)scale(2.4855)"><path d="M103 61.363c22.958 0 41.635 18.678 41.635 41.635a6 6 0 0 0 12 0c0-29.574-24.061-53.635-53.635-53.635s-53.636 24.061-53.636 53.635 24.061 53.635 53.635 53.635c18.99 0 36.745-10.195 46.336-26.607a6 6 0 0 0-10.361-6.055c-7.448 12.745-21.233 20.662-35.976 20.662-22.958 0-41.635-18.678-41.635-41.635S80.042 61.363 103 61.363"/><path d="M205.7 95.053C201.94 44.994 161.374 4.271 111.341.326 81.097-2.059 51.512 8.817 30.165 30.165S-2.059 81.1.326 111.341c3.931 49.847 44.483 90.399 94.329 94.329q4.12.324 8.214.323c27.329 0 53.553-10.753 72.962-30.161a6 6 0 0 0-8.485-8.486c-18.862 18.861-45.012 28.47-71.747 26.361-44.023-3.471-79.838-39.286-83.31-83.31-2.108-26.735 7.5-52.887 26.361-71.747 18.861-18.861 45.008-28.473 71.747-26.361 44.189 3.483 80.016 39.451 83.337 83.662a93 93 0 0 1-.397 18.086 19.12 19.12 0 0 1-10.208 14.713c-5.095 2.633-10.819 2.623-15.706-.026a5.996 5.996 0 0 0-8.134 2.415 6 6 0 0 0 2.415 8.134c8.435 4.573 18.251 4.623 26.933.139a31.11 31.11 0 0 0 16.613-23.935c.812-6.719.963-13.59.45-20.424"/></g><g fill="url(#d)" transform="translate(258 285.85)scale(2.4855)"><path d="M103 61.363c22.958 0 41.635 18.678 41.635 41.635a6 6 0 0 0 12 0c0-29.574-24.061-53.635-53.635-53.635s-53.636 24.061-53.636 53.635 24.061 53.635 53.635 53.635c18.99 0 36.745-10.195 46.336-26.607a6 6 0 0 0-10.361-6.055c-7.448 12.745-21.233 20.662-35.976 20.662-22.958 0-41.635-18.678-41.635-41.635S80.042 61.363 103 61.363"/><path d="M205.7 95.053C201.94 44.994 161.374 4.271 111.341.326 81.097-2.059 51.512 8.817 30.165 30.165S-2.059 81.1.326 111.341c3.931 49.847 44.483 90.399 94.329 94.329q4.12.324 8.214.323c27.329 0 53.553-10.753 72.962-30.161a6 6 0 0 0-8.485-8.486c-18.862 18.861-45.012 28.47-71.747 26.361-44.023-3.471-79.838-39.286-83.31-83.31-2.108-26.735 7.5-52.887 26.361-71.747 18.861-18.861 45.008-28.473 71.747-26.361 44.189 3.483 80.016 39.451 83.337 83.662a93 93 0 0 1-.397 18.086 19.12 19.12 0 0 1-10.208 14.713c-5.095 2.633-10.819 2.623-15.706-.026a5.996 5.996 0 0 0-8.134 2.415 6 6 0 0 0 2.415 8.134c8.435 4.573 18.251 4.623 26.933.139a31.11 31.11 0 0 0 16.613-23.935c.812-6.719.963-13.59.45-20.424"/></g></g></svg>