<svg xmlns="http://www.w3.org/2000/svg" width="64" height="64" version="1"><defs><linearGradient id="b" x1="7.937" x2="7.937" y1="15.081" y2="1.852" gradientTransform="translate(-2.286 -2.252)scale(4.0494)" gradientUnits="userSpaceOnUse"><stop offset="0" stop-color="#124aa0"/><stop offset="1" stop-color="#008bd1"/></linearGradient><filter id="a" width="1.054" height="1.054" x="-.027" y="-.027" color-interpolation-filters="sRGB"><feGaussianBlur stdDeviation=".675"/></filter></defs><rect width="60" height="60" x="2" y="3" filter="url(#a)" opacity=".15" rx="30" ry="30"/><rect width="60" height="60" x="2" y="2" fill="url(#b)" rx="30" ry="30"/><path fill="#fff" d="M20.537 18c-3.036 0-5.992 2.477-5.479 5.455l3.288 19.09C18.859 45.524 20.79 48 23.826 48h15.348c3.036 0 4.967-2.476 5.48-5.455l3.288-19.09C48.455 20.477 45.499 18 42.463 18zM31.5 25a5.5 5.5 0 0 1 5.5 5.5 5.5 5.5 0 0 1-3 4.898V40.5c0 .831-.669 1.5-1.5 1.5h-2c-.831 0-1.5-.669-1.5-1.5v-5.107a5.5 5.5 0 0 1-3-4.893 5.5 5.5 0 0 1 5.5-5.5"/></svg>