<svg xmlns="http://www.w3.org/2000/svg" xmlns:xlink="http://www.w3.org/1999/xlink" width="64" height="64" enable-background="new 0 0 1024 1024" image-rendering="optimizeSpeed"><defs><linearGradient id="a"><stop offset="0" stop-color="#fff"/><stop offset="1" stop-color="#d7d7d7"/></linearGradient><linearGradient id="c" x1="519.2" x2="519.2" y1="1024.8" y2="4.8" gradientTransform="matrix(.99724 0 0 .99719 .91 1.963)" gradientUnits="userSpaceOnUse"><stop offset="0" stop-color="#4d4d4d"/><stop offset=".02" stop-color="#414141"/><stop offset="1" stop-color="#111"/></linearGradient><linearGradient xlink:href="#a" id="f" x1="538.56" x2="538.56" y1="-21.13" y2="964.37" gradientUnits="userSpaceOnUse"/><linearGradient xlink:href="#a" id="i" x1="479.1" x2="480.59" y1="-28.841" y2="964.37" gradientUnits="userSpaceOnUse"/><linearGradient id="h" x1="448.77" x2="481.58" y1="418.4" y2="765.84" gradientUnits="userSpaceOnUse"><stop offset="0" stop-color="#2c5be0"/><stop offset="1" stop-color="#63a5ff"/></linearGradient><linearGradient id="e" x1="538.04" x2="538.04" y1="278.62" y2="602.4" gradientUnits="userSpaceOnUse"><stop offset="0" stop-color="#2d57cd"/><stop offset="1" stop-color="#5294ef"/></linearGradient><filter id="g" width="1.064" height="1.083" x="-.032" y="-.041" color-interpolation-filters="sRGB"><feGaussianBlur stdDeviation="7.222"/></filter><filter id="d" width="1.063" height="1.084" x="-.031" y="-.042" color-interpolation-filters="sRGB"><feGaussianBlur stdDeviation="6.426"/></filter><filter id="b" width="1.072" height="1.072" x="-.036" y="-.036" color-interpolation-filters="sRGB"><feGaussianBlur stdDeviation="14.115"/></filter></defs><path d="M797.71 139.13q-60.533-46.619-132.43-71.449-74.295-25.678-153.73-25.678C251.67 42.003 41 252.663 41 512.523c0 237.73 176.36 434.18 405.33 465.94 11.169 1.546 22.488 2.742 33.856 3.44 10.371.648 20.793 1.097 31.363 1.097 259.83 0 470.45-210.66 470.45-470.48 0-20.542-1.296-40.835-3.84-60.629-2.941-23.135-7.728-45.622-13.861-67.51q-20.842-73.543-64.023-136.86-42.682-62.374-102.57-108.39z" filter="url(#b)" opacity=".25" transform="translate(-.614 -.678) scale(.06376)"/><path fill="url(#c)" d="M797.71 139.13q-60.533-46.619-132.43-71.449-74.295-25.678-153.73-25.678C251.67 42.003 41 252.663 41 512.523c0 237.73 176.36 434.18 405.33 465.94 11.169 1.546 22.488 2.742 33.856 3.44 10.371.648 20.793 1.097 31.363 1.097 259.83 0 470.45-210.66 470.45-470.48 0-20.542-1.296-40.835-3.84-60.629-2.941-23.135-7.728-45.622-13.861-67.51q-20.842-73.543-64.023-136.86-42.682-62.374-102.57-108.39z" transform="translate(-.614 -.678) scale(.06376)"/><g stroke-width="15.683" filter="url(#d)" transform="translate(2.199 4.916) scale(.05966)"><path fill="#1d1d1b" fill-opacity=".3" d="M788.32 580.66V214.09l-490.17-.092v366.57z"/></g><path fill="url(#e)" d="m757.68 602.4.086-323.69-439.36-.086-.086 323.77z" transform="translate(-.614 -.678) scale(.06376)"/><path fill="url(#f)" d="M772.98 560.42V193.8l-490.24-.092v366.62zm-20.695-20.694-448.85-.092v-325.23l448.85.092z" transform="translate(2.199 4.916) scale(.05966)"/><g stroke-width="15.683" filter="url(#g)" transform="translate(2.199 4.916) scale(.05966)"><path fill="#1d1d1b" fill-opacity=".3" d="m761.27 697.79-38.257-364.64-506.81 53.247 38.349 364.64z"/></g><path fill="url(#h)" d="m237.16 443.87 33.823 321.97 455.02-47.765-33.909-321.97z" transform="translate(-.614 -.678) scale(.06376)"/><path fill="url(#i)" d="m740.05 682.84-38.263-364.69-506.88 53.255 38.263 364.69zM683.3 340.96l34.031 323.39-465.68 48.932-34.031-323.39z" transform="translate(2.199 4.916) scale(.05966)"/><path fill="#3c68d9" d="m44 35.434-4.204 4.627-2.793-.433-1.908 2.232-3.617-.406-3.498-2.596-4.594 3.787-2.01-2.043L16.74 43l.473 4.472 27.784-2.92z"/><circle cx="38" cy="31.5" r="2.5" fill="#fff" fill-rule="evenodd" opacity=".75" style="paint-order:normal"/><path d="m44 35.436-4.203 4.627-2.793-.434L40 41.272l3-4.271v1.71l1-3.275zm-6.996 4.193-1.908 2.233-3.617-.406L28 39l3 5 2-2 2 1 2.004-3.37zm-9.023-.77-4.594 3.788-2.01-2.043L23.355 45l4.625-6.14zm-6.604 1.745L16.74 43l.158 1.485.102-.06 1.645-1.848.101 1.134 2.631-3.107z" opacity=".05"/></svg>