<svg xmlns="http://www.w3.org/2000/svg" width="64" height="64"><defs><linearGradient id="c" x1="2.116" x2="2.116" y1="293.31" y2="293.79" gradientTransform="matrix(15.132 0 0 12.291 -.032 -3599.4)" gradientUnits="userSpaceOnUse"><stop offset="0" stop-color="#1475da"/><stop offset="1" stop-color="#54daef"/></linearGradient><linearGradient id="b" x1="515.31" x2="515.31" y1="580.16" y2="25.987" gradientTransform="translate(-28.073 -3.415) scale(.14406)" gradientUnits="userSpaceOnUse"><stop offset="0" stop-color="#4c4c4c"/><stop offset="1" stop-color="#242424"/></linearGradient><linearGradient id="e" x1="41.56" x2="41.56" y1="33" y2="55" gradientTransform="translate(-.332 -.332)" gradientUnits="userSpaceOnUse"><stop offset="0" stop-color="#fff"/><stop offset="1" stop-color="#e6e6e6"/></linearGradient><radialGradient id="d" cx="42.734" cy="44.818" r="22.834" gradientTransform="matrix(-.00003 -2.0583 1.8399 -.00003 -40.459 140.96)" gradientUnits="userSpaceOnUse"><stop offset="0"/><stop offset="1" stop-opacity="0"/></radialGradient><filter id="a" width="1.072" height="1.072" x="-.036" y="-.036" color-interpolation-filters="sRGB"><feGaussianBlur stdDeviation="14.115"/></filter></defs><path d="M511.51 983.01c259.84 0 470.5-210.66 470.5-470.5s-210.66-470.5-470.5-470.5-470.5 210.66-470.5 470.5 210.66 470.5 470.5 470.5z" class="shp36" filter="url(#a)" opacity=".25" transform="translate(-.615 -.678) scale(.06376)"/><path fill="url(#b)" d="M32 62c16.568 0 30-13.432 30-30S48.568 2 32 2 2 15.432 2 32s13.432 30 30 30z" class="shp36"/><g stroke-width="2.259"><path fill="#fff" d="M32 58c14.359 0 26-11.641 26-26S46.359 6 32 6 6 17.641 6 32s11.641 26 26 26z" class="shp36" opacity=".15"/><path d="M32 8C18.746 8 8 18.746 8 32c0 12.089 8.94 22.086 20.568 23.752l27.184-27.184C54.086 16.94 44.089 8 32 8z" opacity=".15"/><path fill="#fff" d="M32 9C19.298 9 9 19.298 9 32c0 11.379 8.266 20.822 19.119 22.668l26.549-26.549C52.822 17.266 43.379 9 32 9z"/></g><path fill="#0266b3" fill-rule="evenodd" d="M32 3a5 5 0 0 0-4.898 4h2.074A3 3 0 0 1 32 5a3 3 0 0 1 2.826 2h2.069A5 5 0 0 0 32 3z" style="paint-order:stroke fill markers"/><path fill="url(#c)" fill-rule="evenodd" d="M23 12s1.283-6 3.849-6H37.15C39.717 6 41 12 41 12z"/><path fill="url(#d)" d="M32 9C19.298 9 9 19.298 9 32c0 11.379 8.266 20.822 19.119 22.668l26.549-26.549C52.822 17.266 43.379 9 32 9z" opacity=".25"/><path fill="url(#e)" d="m28.119 54.668 26.549-26.549a23.12 23.12 0 0 0-3.88-.332c-12.703 0-23 10.298-23 23 0 1.323.116 2.618.331 3.88z"/></svg>