<svg width="64" height="64" version="1.1" xmlns="http://www.w3.org/2000/svg">
 <defs>
  <filter id="a" x="-.036" y="-.036" width="1.072" height="1.072" color-interpolation-filters="sRGB">
   <feGaussianBlur stdDeviation="14.115098"/>
  </filter>
  <linearGradient id="e" x1="2.1165" x2="2.116" y1="293.31" y2="293.79" gradientTransform="matrix(11.752 0 0 12.291 7.132 -3599.4)" gradientUnits="userSpaceOnUse">
   <stop stop-color="#1475da" offset="0"/>
   <stop stop-color="#54daef" offset="1"/>
  </linearGradient>
  <linearGradient id="d" x1="515.31" x2="515.31" y1="580.16" y2="25.987" gradientTransform="matrix(.14406 0 0 .14406 -28.073 -3.4153)" gradientUnits="userSpaceOnUse">
   <stop stop-color="#4c4c4c" offset="0"/>
   <stop stop-color="#242424" offset="1"/>
  </linearGradient>
  <linearGradient id="c" x1="41.56" x2="41.56" y1="33" y2="55" gradientTransform="translate(-.33203 -.33203)" gradientUnits="userSpaceOnUse">
   <stop stop-color="#fff" offset="0"/>
   <stop stop-color="#e6e6e6" offset="1"/>
  </linearGradient>
  <radialGradient id="b" cx="42.734" cy="44.818" r="22.834" gradientTransform="matrix(-2.832e-5 -2.0583 1.8399 -2.532e-5 -40.459 140.96)" gradientUnits="userSpaceOnUse">
   <stop offset="0"/>
   <stop stop-opacity="0" offset="1"/>
  </radialGradient>
 </defs>
 <path class="shp36" transform="matrix(.063762 0 0 .063762 -.6147 -.67831)" d="m511.51 983.01c259.84 0 470.5-210.66 470.5-470.5s-210.66-470.5-470.5-470.5-470.5 210.66-470.5 470.5 210.66 470.5 470.5 470.5z" filter="url(#a)" opacity=".25" stroke-width="35.434"/>
 <path class="shp36" d="m32 62c16.568 0 30-13.432 30-30s-13.432-30-30-30-30 13.432-30 30 13.432 30 30 30z" fill="url(#d)" stroke-width="2.2593"/>
 <g stroke-width="2.2593">
  <path class="shp36" d="m32 58c14.359 0 26-11.641 26-26s-11.641-26-26-26-26 11.641-26 26 11.641 26 26 26z" fill="#fff" opacity=".15"/>
  <path d="m32 8c-13.254 0-24 10.746-24 24 0 12.089 8.9404 22.086 20.568 23.752l27.184-27.184c-1.6659-11.628-11.663-20.568-23.752-20.568z" opacity=".15"/>
  <path d="m32 9c-12.702 0-23 10.298-23 23 0 11.379 8.2662 20.822 19.119 22.668l26.549-26.549c-1.8457-10.853-11.289-19.119-22.668-19.119z" fill="#fff"/>
 </g>
 <circle cx="32" cy="7" r="2.2497" fill="none" stroke="#0266b3" stroke-linejoin="bevel" stroke-width="1.5006"/>
 <path d="m25.02 12s0.99641-6 2.9892-6h8.0014c1.9928 0 2.9892 6 2.9892 6z" fill="url(#e)" fill-rule="evenodd"/>
 <path d="m32 9c-12.702 0-23 10.298-23 23 0 11.379 8.2662 20.822 19.119 22.668l26.549-26.549c-1.8457-10.853-11.289-19.119-22.668-19.119z" fill="url(#b)" opacity=".25" stroke-width="2.2593"/>
 <path d="m28.119 54.668 26.549-26.549c-1.2624-0.21468-2.5573-0.33203-3.8809-0.33203-12.702 0-23 10.298-23 23 0 1.3235 0.11735 2.6185 0.33203 3.8809z" fill="url(#c)" stroke-width="2.2593"/>
</svg>
