<svg width="64" height="64" xmlns="http://www.w3.org/2000/svg" xmlns:xlink="http://www.w3.org/1999/xlink"><defs><linearGradient id="a"><stop stop-color="#3889e9" offset="0"/><stop stop-color="#5ea5fb" offset="1"/></linearGradient><linearGradient id="b" x1="399.57" x2="399.57" y1="545.8" y2="517.8" gradientUnits="userSpaceOnUse" xlink:href="#a"/><linearGradient id="d" x1="400.51" x2="400.7" y1="546.07" y2="517.77" gradientUnits="userSpaceOnUse"><stop stop-color="#30cf41" offset="0"/><stop stop-color="#47f383" offset="1"/></linearGradient><linearGradient id="e" x1="-.5" x2="536" y1="267.75" y2="267.75" gradientUnits="userSpaceOnUse" xlink:href="#a"/><linearGradient id="g" x1="32" x2="32" y1="16" y2="48" gradientUnits="userSpaceOnUse"><stop stop-color="#fff" offset="0"/><stop stop-color="#c3ffd8" offset="1"/></linearGradient><filter id="c" x="-.036" y="-.036" width="1.072" height="1.072" color-interpolation-filters="sRGB"><feGaussianBlur stdDeviation=".42"/></filter><filter id="f" x="-.06" y="-.06" width="1.12" height="1.12" color-interpolation-filters="sRGB"><feGaussianBlur stdDeviation=".8"/></filter></defs><g stroke-width=".733"><g transform="matrix(2.1429 0 0 2.1429 -826.35 -1107.53)"><circle cx="400.57" cy="531.8" r="14" filter="url(#c)" opacity=".25"/><circle cx="400.57" cy="531.8" r="14" fill="url(#d)"/><circle cx="400.57" cy="531.8" r="14" fill="none"/></g></g><path d="M44.19 31.238h-2.286v-6.095a3.057 3.057 0 0 0-3.047-3.048H32.76V19.81A3.773 3.773 0 0 0 28.952 16a3.773 3.773 0 0 0-3.81 3.81v2.285h-6.095A3.057 3.057 0 0 0 16 25.143v5.79h2.285a4.097 4.097 0 0 1 4.115 4.115 4.097 4.097 0 0 1-4.115 4.114H16v5.79A3.057 3.057 0 0 0 19.047 48h5.79v-2.286a4.097 4.097 0 0 1 4.115-4.114 4.097 4.097 0 0 1 4.114 4.114V48h5.79a3.057 3.057 0 0 0 3.049-3.048v-6.095h2.285a3.773 3.773 0 0 0 3.81-3.81 3.773 3.773 0 0 0-3.81-3.809z" filter="url(#f)" opacity=".15"/><path d="M44.19 31.238h-2.286v-6.095a3.057 3.057 0 0 0-3.047-3.048H32.76V19.81A3.773 3.773 0 0 0 28.952 16a3.773 3.773 0 0 0-3.81 3.81v2.285h-6.095A3.057 3.057 0 0 0 16 25.143v5.79h2.285a4.097 4.097 0 0 1 4.115 4.115 4.097 4.097 0 0 1-4.115 4.114H16v5.79A3.057 3.057 0 0 0 19.047 48h5.79v-2.286a4.097 4.097 0 0 1 4.115-4.114 4.097 4.097 0 0 1 4.114 4.114V48h5.79a3.057 3.057 0 0 0 3.049-3.048v-6.095h2.285a3.773 3.773 0 0 0 3.81-3.81 3.773 3.773 0 0 0-3.81-3.809z" fill="url(#g)"/></svg>