<svg xmlns="http://www.w3.org/2000/svg" width="64" height="64"><defs><linearGradient id="a"><stop offset="0" stop-color="#3889e9"/><stop offset="1" stop-color="#5ea5fb"/></linearGradient><linearGradient id="c" x1="400.51" x2="400.7" y1="546.07" y2="517.77" gradientUnits="userSpaceOnUse"><stop offset="0" stop-color="#30cf41"/><stop offset="1" stop-color="#47f383"/></linearGradient><linearGradient id="e" x1="32" x2="32" y1="16" y2="48" gradientUnits="userSpaceOnUse"><stop offset="0" stop-color="#fff"/><stop offset="1" stop-color="#c3ffd8"/></linearGradient><filter id="b" width="1.072" height="1.072" x="-.036" y="-.036" color-interpolation-filters="sRGB"><feGaussianBlur stdDeviation=".42"/></filter><filter id="d" width="1.12" height="1.12" x="-.06" y="-.06" color-interpolation-filters="sRGB"><feGaussianBlur stdDeviation=".8"/></filter></defs><g stroke-width=".733" transform="translate(-826.35 -1107.53) scale(2.1429)"><circle cx="400.57" cy="531.8" r="14" filter="url(#b)" opacity=".25"/><circle cx="400.57" cy="531.8" r="14" fill="url(#c)"/><circle cx="400.57" cy="531.8" r="14" fill="none"/></g><path d="M44.19 31.238h-2.286v-6.095a3.057 3.057 0 0 0-3.047-3.048H32.76V19.81A3.773 3.773 0 0 0 28.952 16a3.773 3.773 0 0 0-3.81 3.81v2.285h-6.095A3.057 3.057 0 0 0 16 25.143v5.79h2.285a4.097 4.097 0 0 1 4.115 4.115 4.097 4.097 0 0 1-4.115 4.114H16v5.79A3.057 3.057 0 0 0 19.047 48h5.79v-2.286a4.097 4.097 0 0 1 4.115-4.114 4.097 4.097 0 0 1 4.114 4.114V48h5.79a3.057 3.057 0 0 0 3.049-3.048v-6.095h2.285a3.773 3.773 0 0 0 3.81-3.81 3.773 3.773 0 0 0-3.81-3.809z" filter="url(#d)" opacity=".15"/><path fill="url(#e)" d="M44.19 31.238h-2.286v-6.095a3.057 3.057 0 0 0-3.047-3.048H32.76V19.81A3.773 3.773 0 0 0 28.952 16a3.773 3.773 0 0 0-3.81 3.81v2.285h-6.095A3.057 3.057 0 0 0 16 25.143v5.79h2.285a4.097 4.097 0 0 1 4.115 4.115 4.097 4.097 0 0 1-4.115 4.114H16v5.79A3.057 3.057 0 0 0 19.047 48h5.79v-2.286a4.097 4.097 0 0 1 4.115-4.114 4.097 4.097 0 0 1 4.114 4.114V48h5.79a3.057 3.057 0 0 0 3.049-3.048v-6.095h2.285a3.773 3.773 0 0 0 3.81-3.81 3.773 3.773 0 0 0-3.81-3.809z"/></svg>