<svg xmlns="http://www.w3.org/2000/svg" width="64" height="64"><defs><linearGradient id="b" x1="399.99" x2="399.99" y1="545.14" y2="518.14" gradientTransform="translate(-826.36 -1107.5) scale(2.1429)" gradientUnits="userSpaceOnUse"><stop offset="0" stop-color="#197ff1"/><stop offset="1" stop-color="#21c6fb"/></linearGradient><linearGradient id="d" x1="30.479" x2="31.074" y1="14.368" y2="49.608" gradientUnits="userSpaceOnUse"><stop offset="0" stop-color="#f9f9f9"/><stop offset="1" stop-color="#ccf2f6"/></linearGradient><filter id="a" width="1.072" height="1.072" x="-.036" y="-.036" color-interpolation-filters="sRGB"><feGaussianBlur stdDeviation=".42"/></filter><filter id="c" width="1.133" height="1.109" x="-.067" y="-.055" color-interpolation-filters="sRGB"><feGaussianBlur stdDeviation=".775"/></filter></defs><circle cx="400.57" cy="531.8" r="14" filter="url(#a)" opacity=".25" transform="translate(-826.36 -1107.5) scale(2.1429)"/><g stroke-width="1.571"><circle cx="32.02" cy="32.044" r="30.001" fill="url(#b)"/><circle cx="32.02" cy="32.044" r="30.001" fill="none"/></g><g aria-label="A" filter="url(#c)" opacity=".15" transform="matrix(1.0022 0 0 .99781 -1.784 -.093)"><path d="m33.71 19.736-6.22 16.865h12.463zm-2.588-4.517h5.198l12.916 33.889H44.47l-3.087-8.694H26.107l-3.087 8.694h-4.835z"/></g><path fill="url(#d)" d="m26.7 35.255 1.673-5.207c1.21-3.858 2.325-7.53 3.394-11.528h.186c1.116 3.95 2.185 7.67 3.44 11.529l1.627 5.206zm14.643 13.853h4.556L34.324 15.033h-4.788L17.96 49.108h4.37l3.3-10.413h12.458z" aria-label="A" transform="scale(1.0022 .99781)"/></svg>