<svg xmlns="http://www.w3.org/2000/svg" width="64" height="64"><defs><linearGradient id="b" x1="399.99" x2="399.99" y1="545.14" y2="518.14" gradientTransform="translate(-826.36 -1107.5)scale(2.1429)" gradientUnits="userSpaceOnUse"><stop offset="0" stop-color="#ff9243"/><stop offset="1" stop-color="#fb3021"/></linearGradient><linearGradient id="d" x1="31.121" x2="31.525" y1="18.007" y2="47.409" gradientUnits="userSpaceOnUse"><stop offset="0" stop-color="#fff"/><stop offset="1" stop-color="#fdeae1"/></linearGradient><filter id="a" width="1.072" height="1.072" x="-.036" y="-.036" color-interpolation-filters="sRGB"><feGaussianBlur stdDeviation=".42"/></filter><filter id="c" width="1.12" height="1.12" x="-.06" y="-.06" color-interpolation-filters="sRGB"><feGaussianBlur stdDeviation=".7"/></filter></defs><circle cx="400.57" cy="531.8" r="14" filter="url(#a)" opacity=".25" transform="translate(-826.36 -1107.5)scale(2.1429)"/><g stroke-width="1.571"><circle cx="32.02" cy="32.044" r="30.001" fill="url(#b)"/><circle cx="32.02" cy="32.044" r="30.001" fill="none"/></g><path d="M31.121 18.007c-1.046.02-2.076.061-2.756.163-3.04.464-5.478 1.53-7.045 3.085a6.27 6.27 0 0 0-1.71 2.93c-.183.709-.244 2.341-.053 2.964.64 2.198 2.158 3.883 5.007 5.576 1.213.716 2.149 1.189 4.843 2.406 3.236 1.453 4.221 2.039 4.681 2.767.18.293.244.448.22.802-.049.562-.33.843-.99 1.083-.439.155-.597.203-1.432.203-1.526-.016-2.87-.3-4.733-.964a17.2 17.2 0 0 1-3.684-1.807c-1.083-.709-1.168-.733-1.49-.562-.24.134-1.998 1.701-3.297 2.971-.85.826-.863.993-.276 1.563.573.57 2.193 1.77 3.08 2.284.965.57 1.609.883 2.695 1.286 1.824.675 3.354.956 6.22 1.2.65.053 2.979.061 3.797 0 4.485-.358 8.145-1.823 10.07-3.968.692-.761 1.107-1.416 1.433-2.328.317-.888.399-2.63.163-3.688-.383-1.714-1.417-3.264-3.082-4.57-1.668-1.311-3.362-2.183-7.428-3.81-2.84-1.132-3.907-1.735-4.184-2.365-.15-.338-.061-.937.163-1.165.447-.451 1.31-.614 2.426-.48 2.075.257 4.746 1.209 7.098 2.524.456.252.896.464.993.484.379.098.61-.053 2.145-1.807 1.885-2.157 1.865-2.072.827-2.809-3.094-2.214-6.676-3.5-10.786-3.887a29 29 0 0 0-2.919-.081z" filter="url(#c)" opacity=".15"/><path fill="url(#d)" d="M31.121 18.007c-1.046.02-2.076.061-2.756.163-3.04.464-5.478 1.53-7.045 3.085a6.27 6.27 0 0 0-1.71 2.93c-.183.709-.244 2.341-.053 2.964.64 2.198 2.158 3.883 5.007 5.576 1.213.716 2.149 1.189 4.843 2.406 3.236 1.453 4.221 2.039 4.681 2.767.18.293.244.448.22.802-.049.562-.33.843-.99 1.083-.439.155-.597.203-1.432.203-1.526-.016-2.87-.3-4.733-.964a17.2 17.2 0 0 1-3.684-1.807c-1.083-.709-1.168-.733-1.49-.562-.24.134-1.998 1.701-3.297 2.971-.85.826-.863.993-.276 1.563.573.57 2.193 1.77 3.08 2.284.965.57 1.609.883 2.695 1.286 1.824.675 3.354.956 6.22 1.2.65.053 2.979.061 3.797 0 4.485-.358 8.145-1.823 10.07-3.968.692-.761 1.107-1.416 1.433-2.328.317-.888.399-2.63.163-3.688-.383-1.714-1.417-3.264-3.082-4.57-1.668-1.311-3.362-2.183-7.428-3.81-2.84-1.132-3.907-1.735-4.184-2.365-.15-.338-.061-.937.163-1.165.447-.451 1.31-.614 2.426-.48 2.075.257 4.746 1.209 7.098 2.524.456.252.896.464.993.484.379.098.61-.053 2.145-1.807 1.885-2.157 1.865-2.072.827-2.809-3.094-2.214-6.676-3.5-10.786-3.887a29 29 0 0 0-2.919-.081z"/></svg>