<svg width="64" height="64" version="1.1" xmlns="http://www.w3.org/2000/svg">
 <defs>
  <linearGradient id="b" x1="399.99" x2="399.99" y1="545.14" y2="518.14" gradientTransform="translate(-826.36 -1107.5) scale(2.1429)" gradientUnits="userSpaceOnUse">
   <stop stop-color="#197ff1" offset="0"/>
   <stop stop-color="#21c6fb" offset="1"/>
  </linearGradient>
  <linearGradient id="d" x1="30.479" x2="31.074" y1="14.368" y2="49.608" gradientUnits="userSpaceOnUse">
   <stop stop-color="#f9f9f9" offset="0"/>
   <stop stop-color="#ccf2f6" offset="1"/>
  </linearGradient>
  <filter id="a" x="-.036" y="-.036" width="1.072" height="1.072" color-interpolation-filters="sRGB">
   <feGaussianBlur stdDeviation=".42"/>
  </filter>
  <filter id="c" x="-.059901" y="-.054885" width="1.1198" height="1.1098" color-interpolation-filters="sRGB">
   <feGaussianBlur stdDeviation=".775"/>
  </filter>
  <filter id="filter26" x="-.013853" y="-.013853" width="1.0277" height="1.0277" color-interpolation-filters="sRGB">
   <feGaussianBlur stdDeviation="0.29776566"/>
  </filter>
  <filter id="filter25" x="-.029663" y="-.029663" width="1.0593" height="1.0593" color-interpolation-filters="sRGB">
   <feGaussianBlur stdDeviation="0.29776566"/>
  </filter>
 </defs>
 <circle transform="translate(-826.36 -1107.5) scale(2.1429)" cx="400.57" cy="531.8" r="14" filter="url(#a)" opacity=".25"/>
 <g stroke-width="1.571">
  <circle cx="32.02" cy="32.044" r="30.001" fill="url(#b)"/>
  <circle cx="32.02" cy="32.044" r="30.001" fill="none"/>
 </g>
 <g transform="matrix(1.0022 0 0 .99781 -1.784 -.093)" filter="url(#c)" opacity=".15" aria-label="A">
  <path d="m33.71 19.736-6.22 16.865h12.463zm-2.588-4.517h5.198l12.916 33.889H44.47l-3.087-8.694H26.107l-3.087 8.694h-4.835z"/>
 </g>
 <path transform="scale(1.0022 .99781)" d="m26.7 35.255 1.673-5.207c1.21-3.858 2.325-7.53 3.394-11.528h.186c1.116 3.95 2.185 7.67 3.44 11.529l1.627 5.206zm14.643 13.853h4.556L34.324 15.033h-4.788L17.96 49.108h4.37l3.3-10.413h12.458z" fill="url(#d)" aria-label="A"/>
 <path d="m10.787 10.787c-11.752 11.752-11.752 30.674 0 42.426 0.11855 0.11855 0.24184 0.22911 0.36184 0.34527-11.399-11.775-11.288-30.431 0.34527-42.065 11.634-11.634 30.289-11.744 42.065-0.34527-0.11616-0.12-0.22671-0.24329-0.34527-0.36184-11.752-11.752-30.674-11.752-42.426 0z" fill="#ffffff" filter="url(#filter26)" opacity=".5"/>
 <path d="m37.435 61.526c5.7718-1.0635 11.297-3.831 15.779-8.3126s7.2491-10.007 8.3126-15.779c-1.5917 5.4332-4.6056 10.657-9.0198 15.072s-9.6384 7.428-15.072 9.0198z" fill="#ffffff" filter="url(#filter25)" opacity=".45"/>
</svg>
