<svg width="64" height="64" viewBox="0 0 16.933 16.933" xmlns="http://www.w3.org/2000/svg"><defs><filter id="a" x="-.036" y="-.036" width="1.072" height="1.072" color-interpolation-filters="sRGB"><feGaussianBlur stdDeviation=".238"/></filter><filter id="c" x="-.075" y="-.05" width="1.15" height="1.1" color-interpolation-filters="sRGB"><feGaussianBlur stdDeviation=".938"/></filter><linearGradient id="b" x1="9.26" x2="9.26" y1="-.262" y2="15.612" gradientTransform="translate(-.794 .792)" gradientUnits="userSpaceOnUse"><stop stop-color="#2e323e" offset="0"/><stop stop-color="#505664" offset="1"/></linearGradient></defs><circle cx="8.466" cy="8.466" r="7.937" filter="url(#a)" opacity=".25" style="paint-order:stroke markers fill"/><circle cx="8.466" cy="8.466" r="7.937" fill="url(#b)" style="paint-order:stroke markers fill"/><path transform="scale(.26458)" d="M24.5 9.5A7.484 7.484 0 0 0 17 17c0 4.155 3.345 7.5 7.5 7.5A7.484 7.484 0 0 0 17 32c0 4.155 3.345 7.5 7.5 7.5A7.5 7.5 0 0 0 17 47a7.5 7.5 0 0 0 7.5 7.5A7.5 7.5 0 0 0 32 47V24.5h7.5c4.155 0 7.5-3.345 7.5-7.5 0-4.155-3.345-7.5-7.5-7.5h-15zm15 15A7.5 7.5 0 0 0 32 32a7.5 7.5 0 0 0 7.5 7.5A7.5 7.5 0 0 0 47 32a7.5 7.5 0 0 0-7.5-7.5z" filter="url(#c)" opacity=".15"/><g stroke-width=".265" transform="translate(16.159 -1.574)"><path d="M-9.677 12.025a1.984 1.984 0 0 0-1.984 1.984 1.984 1.984 0 0 0 1.984 1.985 1.984 1.984 0 0 0 1.985-1.985v-1.984z" fill="#09c37b"/><path d="M-9.677 8.056h1.985v3.969h-1.985a1.98 1.98 0 0 1-1.984-1.984c0-1.1.885-1.985 1.984-1.985z" fill="#9154dd"/><circle cx="-5.708" cy="10.04" r="1.984" fill="#01b1f8"/><path d="M-9.677 4.087a1.98 1.98 0 0 0-1.984 1.985c0 1.099.885 1.984 1.984 1.984h1.985V4.087z" fill="#f24e1e"/><path d="M-7.692 4.087h1.984c1.1 0 1.984.885 1.984 1.985a1.98 1.98 0 0 1-1.984 1.984h-1.984z" fill="#ff7262"/></g></svg>