<svg width="64" height="64" version="1.1" viewBox="0 0 16.933 16.933" xmlns="http://www.w3.org/2000/svg">
 <defs>
  <filter id="a" x="-.035983" y="-.035983" width="1.072" height="1.072" color-interpolation-filters="sRGB">
   <feGaussianBlur stdDeviation=".238"/>
  </filter>
  <filter id="c" x="-.07504" y="-.050027" width="1.1501" height="1.1001" color-interpolation-filters="sRGB">
   <feGaussianBlur stdDeviation=".938"/>
  </filter>
  <linearGradient id="b" x1="9.26" x2="9.26" y1="-.262" y2="15.612" gradientTransform="translate(-.794 .792)" gradientUnits="userSpaceOnUse">
   <stop stop-color="#2e323e" offset="0"/>
   <stop stop-color="#505664" offset="1"/>
  </linearGradient>
  <filter id="filter26" x="-.013853" y="-.013853" width="1.0277" height="1.0277" color-interpolation-filters="sRGB">
   <feGaussianBlur stdDeviation="0.29776566"/>
  </filter>
  <filter id="filter25" x="-.029663" y="-.029663" width="1.0593" height="1.0593" color-interpolation-filters="sRGB">
   <feGaussianBlur stdDeviation="0.29776566"/>
  </filter>
 </defs>
 <circle cx="8.466" cy="8.466" r="7.937" filter="url(#a)" opacity=".25" style="paint-order:stroke markers fill"/>
 <circle cx="8.466" cy="8.466" r="7.937" fill="url(#b)" style="paint-order:stroke markers fill"/>
 <path transform="scale(.26458)" d="M24.5 9.5A7.484 7.484 0 0 0 17 17c0 4.155 3.345 7.5 7.5 7.5A7.484 7.484 0 0 0 17 32c0 4.155 3.345 7.5 7.5 7.5A7.5 7.5 0 0 0 17 47a7.5 7.5 0 0 0 7.5 7.5A7.5 7.5 0 0 0 32 47V24.5h7.5c4.155 0 7.5-3.345 7.5-7.5 0-4.155-3.345-7.5-7.5-7.5h-15zm15 15A7.5 7.5 0 0 0 32 32a7.5 7.5 0 0 0 7.5 7.5A7.5 7.5 0 0 0 47 32a7.5 7.5 0 0 0-7.5-7.5z" filter="url(#c)" opacity=".15"/>
 <g transform="translate(16.159 -1.574)" stroke-width=".265">
  <path d="m-9.677 12.025a1.984 1.984 0 0 0-1.984 1.984 1.984 1.984 0 0 0 1.984 1.985 1.984 1.984 0 0 0 1.985-1.985v-1.984z" fill="#09c37b"/>
  <path d="M-9.677 8.056h1.985v3.969h-1.985a1.98 1.98 0 0 1-1.984-1.984c0-1.1.885-1.985 1.984-1.985z" fill="#9154dd"/>
  <circle cx="-5.708" cy="10.04" r="1.984" fill="#01b1f8"/>
  <path d="M-9.677 4.087a1.98 1.98 0 0 0-1.984 1.985 1.98 1.98 0 0 0 1.984 1.984h1.985V4.087z" fill="#f24e1e"/>
  <path d="M-7.692 4.087h1.984c1.1 0 1.984.885 1.984 1.985a1.98 1.98 0 0 1-1.984 1.984h-1.984z" fill="#ff7262"/>
 </g>
 <path transform="scale(.26458)" d="m10.787 10.787c-11.752 11.752-11.752 30.674 0 42.426 0.11855 0.11855 0.24184 0.22911 0.36184 0.34527-11.399-11.775-11.288-30.431 0.34527-42.065 11.634-11.634 30.289-11.744 42.065-0.34527-0.11616-0.12-0.22671-0.24329-0.34527-0.36184-11.752-11.752-30.674-11.752-42.426 0z" fill="#ffffff" filter="url(#filter26)" opacity=".2"/>
 <path transform="scale(.26458)" d="m37.435 61.526c5.7718-1.0635 11.297-3.831 15.779-8.3126s7.2491-10.007 8.3126-15.779c-1.5917 5.4332-4.6056 10.657-9.0198 15.072s-9.6384 7.428-15.072 9.0198z" fill="#ffffff" filter="url(#filter25)" opacity=".2"/>
</svg>
