<svg xmlns="http://www.w3.org/2000/svg" width="64" height="64"><defs><filter id="c" width="1.15" height="1.1" x="-.075" y="-.05" color-interpolation-filters="sRGB"><feGaussianBlur stdDeviation=".938"/></filter><filter id="d" width="1.028" height="1.028" x="-.014" y="-.014" color-interpolation-filters="sRGB"><feGaussianBlur stdDeviation=".298"/></filter><filter id="f" width="1.059" height="1.059" x="-.03" y="-.03" color-interpolation-filters="sRGB"><feGaussianBlur stdDeviation=".298"/></filter><filter id="a" width="1.096" height="1.096" x="-.048" y="-.048" color-interpolation-filters="sRGB"><feGaussianBlur stdDeviation=".317"/></filter><linearGradient id="b" x1="9.26" x2="9.26" y1="-.262" y2="15.612" gradientTransform="translate(-.794 .792)" gradientUnits="userSpaceOnUse"><stop offset="0" stop-color="#2e323e"/><stop offset="1" stop-color="#505664"/></linearGradient></defs><g transform="scale(3.7798)"><circle cx="8.466" cy="8.731" r="7.937" filter="url(#a)" opacity=".15"/><circle cx="8.466" cy="8.466" r="7.937" fill="url(#b)" style="paint-order:stroke markers fill"/><path d="M24.5 9.5A7.484 7.484 0 0 0 17 17c0 4.155 3.345 7.5 7.5 7.5A7.484 7.484 0 0 0 17 32c0 4.155 3.345 7.5 7.5 7.5A7.5 7.5 0 0 0 17 47a7.5 7.5 0 0 0 7.5 7.5A7.5 7.5 0 0 0 32 47V24.5h7.5c4.155 0 7.5-3.345 7.5-7.5s-3.345-7.5-7.5-7.5zm15 15A7.5 7.5 0 0 0 32 32a7.5 7.5 0 0 0 7.5 7.5A7.5 7.5 0 0 0 47 32a7.5 7.5 0 0 0-7.5-7.5" filter="url(#c)" opacity=".15" transform="scale(.26458)"/><g stroke-width=".265" transform="translate(16.159 -1.574)"><path fill="#09c37b" d="M-9.677 12.025a1.984 1.984 0 0 0-1.984 1.984 1.984 1.984 0 0 0 1.984 1.985 1.984 1.984 0 0 0 1.985-1.985v-1.984z"/><path fill="#9154dd" d="M-9.677 8.056h1.985v3.969h-1.985a1.98 1.98 0 0 1-1.984-1.984c0-1.1.885-1.985 1.984-1.985"/><circle cx="-5.708" cy="10.04" r="1.984" fill="#01b1f8"/><path fill="#f24e1e" d="M-9.677 4.087a1.98 1.98 0 0 0-1.984 1.985 1.98 1.98 0 0 0 1.984 1.984h1.985V4.087z"/><path fill="#ff7262" d="M-7.692 4.087h1.984c1.1 0 1.984.885 1.984 1.985a1.98 1.98 0 0 1-1.984 1.984h-1.984z"/></g></g><path fill="#fff" d="M10.787 10.787a29.934 29.934 0 0 0 0 42.426c.119.119.242.23.362.345-11.4-11.775-11.288-30.43.345-42.065S41.784-.25 53.56 11.148c-.116-.12-.227-.243-.345-.362a29.934 29.934 0 0 0-42.426 0z" filter="url(#d)" opacity=".25"/><path fill="#fff" d="M37.435 61.526c5.772-1.063 11.297-3.831 15.779-8.313s7.25-10.007 8.313-15.779c-1.592 5.434-4.606 10.657-9.02 15.072s-9.639 7.428-15.072 9.02" filter="url(#f)" opacity=".25"/></svg>