<svg width="64" height="64" version="1.1" xmlns="http://www.w3.org/2000/svg">
 <defs>
  <filter id="a" x="-.036" y="-.036" width="1.072" height="1.072" color-interpolation-filters="sRGB">
   <feGaussianBlur stdDeviation=".42"/>
  </filter>
  <filter id="c" x="-.06" y="-.06" width="1.12" height="1.12" color-interpolation-filters="sRGB">
   <feGaussianBlur stdDeviation=".6"/>
  </filter>
  <linearGradient id="b" x1="400.57" x2="400.57" y1="545.8" y2="517.8" gradientTransform="translate(-163.67 -235.91)scale(1.4286)" gradientUnits="userSpaceOnUse">
   <stop stop-color="#e02d2d" offset="0"/>
   <stop stop-color="#f75151" offset="1"/>
  </linearGradient>
  <filter id="e" x="-.013864" y="-.013864" width="1.0277" height="1.0277" color-interpolation-filters="sRGB">
   <feGaussianBlur stdDeviation=".298"/>
  </filter>
  <filter id="f" x="-.029686" y="-.029686" width="1.0594" height="1.0594" color-interpolation-filters="sRGB">
   <feGaussianBlur stdDeviation=".298"/>
  </filter>
 </defs>
 <circle transform="translate(-826.36 -1107.5)scale(2.1429)" cx="400.57" cy="531.8" r="14" filter="url(#a)" opacity=".25"/>
 <rect transform="translate(-580.85 -753.69) scale(1.5001)" x="388.57" y="503.8" width="40" height="40" ry="20" fill="url(#b)"/>
 <g transform="translate(4 4)scale(1.1667)" filter="url(#c)" opacity=".15">
  <path d="m17 12-5 21h4.1l2.15-9H29l-10.071 8.962L21.562 36l1.348-.703c2.551-1.309 3.621-.543 5.555-.008 1.883.52 3.656 1.078 7.328-1.035l-.73-3.734c-4 2.848-5.273.309-8.129.203L35 24l1-4H19.2l.98-4H31l1-4"/>
 </g>
 <path d="M23.834 18 18 42.501h4.784l2.508-10.5h12.542l-11.75 10.456L29.156 46l1.573-.82c2.976-1.527 4.225-.634 6.481-.01 2.197.607 4.266 1.258 8.55-1.207l-.852-4.356c-4.667 3.322-6.152.36-9.484.237L44.834 32l1.167-4.667h-19.6l1.143-4.667h12.624L41.334 18" fill="#f9f9f9"/>
 <path d="m10.787 10.787a29.934 29.934 0 0 0 0 42.426c0.119 0.119 0.242 0.23 0.362 0.345-11.4-11.775-11.288-30.43 0.345-42.065s30.29-11.743 42.066-0.345c-0.116-0.12-0.227-0.243-0.345-0.362a29.934 29.934 0 0 0-42.426 0z" fill="#ffffff" filter="url(#e)" opacity=".45"/>
 <path d="m37.435 61.526c5.772-1.063 11.297-3.831 15.779-8.313s7.25-10.007 8.313-15.779c-1.592 5.434-4.606 10.657-9.02 15.072s-9.639 7.428-15.072 9.02" fill="#ffffff" filter="url(#f)" opacity=".35"/>
</svg>
