<svg width="64" height="64" enable-background="new 0 0 1024 1024" image-rendering="optimizeSpeed" version="1.1" xmlns="http://www.w3.org/2000/svg" xmlns:xlink="http://www.w3.org/1999/xlink">
 <defs>
  <filter id="a" x="-.036" y="-.036" width="1.072" height="1.072" color-interpolation-filters="sRGB">
   <feGaussianBlur stdDeviation="14.16"/>
  </filter>
  <filter id="e" x="-.013864" y="-.013864" width="1.0277" height="1.0277" color-interpolation-filters="sRGB">
   <feGaussianBlur stdDeviation=".298"/>
  </filter>
  <filter id="f" x="-.029686" y="-.029686" width="1.0594" height="1.0594" color-interpolation-filters="sRGB">
   <feGaussianBlur stdDeviation=".298"/>
  </filter>
  <filter id="filter31" x="-.40425" y="-.089833" width="1.8085" height="1.1797" color-interpolation-filters="sRGB">
   <feGaussianBlur stdDeviation="0.044564879"/>
  </filter>
  <filter id="filter33" x="-.56976" y="-.084386" width="2.1395" height="1.1688" color-interpolation-filters="sRGB">
   <feGaussianBlur stdDeviation="0.044042796"/>
  </filter>
  <linearGradient id="linearGradient20" x1="3.9687" x2="12.964" y1="13.229" y2="13.229" gradientUnits="userSpaceOnUse">
   <stop stop-color="#000000" offset="0"/>
   <stop stop-color="#0b2242" offset="1"/>
  </linearGradient>
  <linearGradient id="linearGradient22" x1="12.964" x2="3.9687" y1="11.641" y2="11.641" gradientUnits="userSpaceOnUse">
   <stop stop-color="#ffffff" offset="0"/>
   <stop stop-color="#ffffff" stop-opacity=".64983" offset="1"/>
  </linearGradient>
  <filter id="filter22" x="-.034177" y="-.15764" width="1.0684" height="1.3153" color-interpolation-filters="sRGB">
   <feGaussianBlur stdDeviation="0.066521558"/>
  </filter>
  <filter id="filter23" x="-.02417" y="-.11148" width="1.0483" height="1.223" color-interpolation-filters="sRGB">
   <feGaussianBlur stdDeviation="0.058466213"/>
  </filter>
  <linearGradient id="linearGradient26" x1="10.789" x2="10.789" y1="2.1166" y2="14.816" gradientUnits="userSpaceOnUse">
   <stop stop-color="#ffffff" offset="0"/>
   <stop stop-color="#ffffff" stop-opacity=".79608" offset=".54934"/>
   <stop stop-color="#ffffff" stop-opacity=".5" offset="1"/>
  </linearGradient>
  <filter id="filter28" x="-.047138" y="-.012202" width="1.0943" height="1.0244" color-interpolation-filters="sRGB">
   <feGaussianBlur stdDeviation="0.067566961"/>
  </filter>
  <linearGradient id="linearGradient16" x1="10.789" x2="10.789" y1="2.1166" y2="14.816" gradientUnits="userSpaceOnUse" xlink:href="#linearGradient26"/>
  <linearGradient id="linearGradient13" x1="10.789" x2="10.789" y1="2.1166" y2="14.816" gradientTransform="scale(3.7796)" gradientUnits="userSpaceOnUse" xlink:href="#linearGradient26"/>
  <linearGradient id="linearGradient18" x1="-10.583" x2="-10.583" y1=".52916" y2="16.404" gradientTransform="matrix(3.7796 0 0 3.7796 72 0)" gradientUnits="userSpaceOnUse">
   <stop stop-color="#02c5fd" offset="0"/>
   <stop stop-color="#2f71f9" offset="1"/>
  </linearGradient>
 </defs>
 <circle transform="matrix(.06356 0 0 .06344 -.542 -.413)" cx="512" cy="520.92" r="472" color="#000000" enable-background="accumulate" filter="url(#a)" opacity=".25" stroke-width="15.652"/>
 <circle cx="32" cy="32" r="30" fill="url(#linearGradient18)" stroke-width=".89905"/>
 <path d="M10.787 10.787a29.934 29.934 0 0 0 0 42.426c.119.119.242.23.362.345-11.4-11.775-11.288-30.43.345-42.065S41.784-.25 53.56 11.148c-.116-.12-.227-.243-.345-.362a29.934 29.934 0 0 0-42.426 0z" fill="#fff" filter="url(#e)" opacity=".45"/>
 <path d="m37.435 61.526c5.772-1.063 11.297-3.831 15.779-8.313s7.25-10.007 8.313-15.779c-1.592 5.434-4.606 10.657-9.02 15.072s-9.639 7.428-15.072 9.02" fill="#fff" filter="url(#f)" opacity=".5"/>
 <path d="m36.535 6.7793c-1.5013 0.25922-3.3848 1.0575-4.1426 3.6445l-6.3926 21.061c-0.71227 2.431-0.97656 4.5156 2.4531 4.5156h3.5469v16.516c0 2.77 2.0019 5.379 6 4.7835 12.2-2.3908 20-12.867 20-25.299-2.95e-4 -12.111-8.2041-22.469-20.006-25.187-0.50042-0.11325-1.2055-0.088904-1.459-0.03363z" fill="url(#linearGradient13)" stroke-width="3.7796"/>
 <path transform="scale(3.7796)" d="m9.9371 1.8704c-0.097986 0-0.19344 0.010464-0.28525 0.030488-0.3972 0.068585-0.8955 0.27979-1.096 0.96426l-1.6768 5.4649c-0.18845 0.6432-0.25838 1.1947 0.64904 1.1947h0.26458c-0.90742 0-0.83749-0.55154-0.64904-1.1947l1.6768-5.4649c0.20054-0.68447 0.69884-0.89568 1.096-0.96426 0.091809-0.020025 0.18726-0.030488 0.28525-0.030488zm-1.4706 7.6544v4.3124c0 0.73288 0.59001 1.3229 1.3229 1.3229h0.26458c-0.73288 0-1.3229-0.59001-1.3229-1.3229v-4.3124z" fill="url(#linearGradient16)" filter="url(#filter28)"/>
 <g transform="scale(3.7796)" fill="none" stroke-linecap="round" stroke-linejoin="round">
  <path d="m4.1955 10.848c1.1385 1.1218 2.6726 1.852 4.271 1.852 1.5983-4.4e-5 3.1325-0.73021 4.271-1.852" stroke="url(#linearGradient20)" stroke-width=".52916"/>
  <path d="m4.1955 10.848c1.1385 1.1218 2.6726 1.852 4.271 1.852 1.5983-4.4e-5 3.1325-0.73021 4.271-1.852" filter="url(#filter22)" opacity=".52" stroke="url(#linearGradient22)" stroke-width=".26458"/>
  <path d="m4.2159 10.897c1.1385 1.1218 2.6726 1.852 4.271 1.852 1.5983-4.4e-5 3.1325-0.73021 4.271-1.852" filter="url(#filter23)" stroke="#000000" stroke-width=".13229" style="mix-blend-mode:normal"/>
 </g>
 <rect x="43.001" y="20.5" width="2" height="5.5001" rx="1" ry="1.0476" fill="#000000" stroke-width="3.7796"/>
 <rect transform="scale(3.7796)" x="11.509" y="5.5561" width=".26458" height="1.1906" rx=".13229" ry=".13229" fill="#ffffff" filter="url(#filter31)" opacity=".15" style="mix-blend-mode:normal"/>
 <path transform="scale(3.7796)" d="m11.588 5.522c-0.07329 0-0.13229 0.059001-0.13229 0.13229v0.98803c0 0.073288 0.059 0.13229 0.13229 0.13229 0.01905 0 0.03689-0.00418 0.05323-0.011369-0.0465-0.020466-0.07855-0.066686-0.07855-0.12092v-0.98803c0-0.054235 0.03205-0.10045 0.07855-0.12092-0.01634-0.00719-0.03417-0.011369-0.05323-0.011369z" fill="#ffffff" filter="url(#filter33)" opacity=".5"/>
 <rect x="19.001" y="20.5" width="2" height="5.5001" rx="1" ry="1.0476" fill="#000000" stroke-width="3.7796"/>
 <rect transform="matrix(3.7796,0,0,3.7796,-24,0)" x="11.509" y="5.5561" width=".26458" height="1.1906" rx=".13229" ry=".13229" fill="#ffffff" filter="url(#filter31)" opacity=".15" style="mix-blend-mode:normal"/>
 <path transform="matrix(3.7796,0,0,3.7796,-24,0)" d="m11.588 5.522c-0.07329 0-0.13229 0.059001-0.13229 0.13229v0.98803c0 0.073288 0.059 0.13229 0.13229 0.13229 0.01905 0 0.03689-0.00418 0.05323-0.011369-0.0465-0.020466-0.07855-0.066686-0.07855-0.12092v-0.98803c0-0.054235 0.03205-0.10045 0.07855-0.12092-0.01634-0.00719-0.03417-0.011369-0.05323-0.011369z" fill="#ffffff" filter="url(#filter33)" opacity=".5"/>
</svg>
