<svg width="64" height="64" xmlns="http://www.w3.org/2000/svg"><defs><linearGradient id="b" x1="99.036" x2="99.036" y1="-.505" y2="199.84" gradientTransform="translate(42.84 72.198) scale(4.6866)" gradientUnits="userSpaceOnUse"><stop stop-color="#ecd5b9" offset="0"/><stop stop-color="#e2ca87" offset=".5"/><stop stop-color="#d6aa37" offset="1"/></linearGradient><linearGradient id="d" x1="500" x2="500" y1="252.36" y2="806.03" gradientTransform="translate(-4.83 11.518) scale(.99609)" gradientUnits="userSpaceOnUse"><stop stop-color="#fff" offset="0"/><stop stop-color="#ebebeb" offset="1"/></linearGradient><filter id="c" x="-.058" y="-.026" width="1.117" height="1.052" color-interpolation-filters="sRGB"><feGaussianBlur stdDeviation="5.557"/></filter><filter id="a" x="-.036" y="-.036" width="1.072" height="1.072" color-interpolation-filters="sRGB"><feGaussianBlur stdDeviation="14.06"/></filter></defs><g transform="translate(-.742 -2.62) scale(.06401)" stroke-width="15.622"><circle cx="511.5" cy="540.86" r="468.66" color="#000" filter="url(#a)" opacity=".25"/><circle cx="511.5" cy="540.86" r="468.66" color="#000" fill="url(#b)"/><path transform="translate(-4.83 11.518) scale(.99609)" d="M602.83 572.62h-2.765v-49.738h-31.086v-49.738H519.24v-49.738h49.738v-49.738H519.24V323.93h49.738v-49.738h-62.172v49.738h-49.738v49.738h49.738v49.738h-49.738v49.738h49.738v49.738h-80.824v49.738h-2.766l-24.676 164.51 114.48 49.064 114.48-49.064zm-89.805 159.46-59.6-25.543 12.626-84.18h93.946l12.626 84.18z" filter="url(#c)" opacity=".2"/><path d="M595.65 571.94h-2.755v-49.544H561.93v-49.544h-49.544v-49.544h49.544v-49.544h-49.544V324.22h49.544v-49.544h-61.929v49.544h-49.544v49.544h49.544v49.544h-49.544v49.544h49.544v49.544h-80.508v49.544h-2.754l-24.58 163.87 114.04 48.872 114.04-48.872zm-89.455 158.84-59.367-25.443 12.577-83.851h93.579l12.577 83.851z" fill="url(#d)"/></g></svg>