<svg width="64" height="64" version="1.1" viewBox="0 0 16.933 16.933" xmlns="http://www.w3.org/2000/svg" xmlns:xlink="http://www.w3.org/1999/xlink">
 <defs>
  <linearGradient x1="280" x2="280" y1="172" y2="20" gradientUnits="userSpaceOnUse">
   <stop stop-color="#babdb6" offset="0"/>
   <stop stop-color="#babdb6" stop-opacity="0" offset="1"/>
  </linearGradient>
  <clipPath>
   <circle cx="64" cy="236" r="52" enable-background="new" fill="#3584e4" style="paint-order:normal"/>
  </clipPath>
  <linearGradient id="a" x1="70.786" x2="6.447" y1="12.393" y2="74.468" gradientTransform="matrix(.21175 0 0 .21175 -.0054615 280.07)" gradientUnits="userSpaceOnUse">
   <stop stop-color="#fff44f" offset=".048"/>
   <stop stop-color="#ffe847" offset=".111"/>
   <stop stop-color="#ffc830" offset=".225"/>
   <stop stop-color="#ff980e" offset=".368"/>
   <stop stop-color="#ff8b16" offset=".401"/>
   <stop stop-color="#ff672a" offset=".462"/>
   <stop stop-color="#ff3647" offset=".534"/>
   <stop stop-color="#e31587" offset=".705"/>
  </linearGradient>
  <radialGradient id="b" cx="-7907.2" cy="-8515.1" r="80.797" gradientTransform="matrix(.21175 0 0 .21175 1688.7 2085.1)" gradientUnits="userSpaceOnUse">
   <stop stop-color="#ffbd4f" offset=".129"/>
   <stop stop-color="#ffac31" offset=".186"/>
   <stop stop-color="#ff9d17" offset=".247"/>
   <stop stop-color="#ff980e" offset=".283"/>
   <stop stop-color="#ff563b" offset=".403"/>
   <stop stop-color="#ff3750" offset=".467"/>
   <stop stop-color="#f5156c" offset=".71"/>
   <stop stop-color="#eb0878" offset=".782"/>
   <stop stop-color="#e50080" offset=".86"/>
  </radialGradient>
  <radialGradient id="c" cx="-7936.7" cy="-8482.1" r="80.797" gradientTransform="matrix(.21175 0 0 .21175 1688.7 2085.1)" gradientUnits="userSpaceOnUse">
   <stop stop-color="#960e18" offset=".3"/>
   <stop stop-color="#b11927" stop-opacity=".74" offset=".351"/>
   <stop stop-color="#db293d" stop-opacity=".343" offset=".435"/>
   <stop stop-color="#f5334b" stop-opacity=".094" offset=".497"/>
   <stop stop-color="#ff3750" stop-opacity="0" offset=".53"/>
  </radialGradient>
  <radialGradient id="d" cx="-7927" cy="-8533.5" r="58.534" gradientTransform="matrix(.21175 0 0 .21175 1688.7 2085.1)" gradientUnits="userSpaceOnUse">
   <stop stop-color="#fff44f" offset=".132"/>
   <stop stop-color="#ffdc3e" offset=".252"/>
   <stop stop-color="#ff9d12" offset=".506"/>
   <stop stop-color="#ff980e" offset=".526"/>
  </radialGradient>
  <radialGradient id="g" cx="-7937.7" cy="-8518.4" r="27.676" gradientTransform="matrix(.21175 0 0 .21175 1688.7 2085.1)" gradientUnits="userSpaceOnUse">
   <stop stop-color="#ffe226" offset="0"/>
   <stop stop-color="#ffdb27" offset=".121"/>
   <stop stop-color="#ffc82a" offset=".295"/>
   <stop stop-color="#ffa930" offset=".502"/>
   <stop stop-color="#ff7e37" offset=".732"/>
   <stop stop-color="#ff7139" offset=".792"/>
  </radialGradient>
  <radialGradient id="h" cx="-7916" cy="-8536" r="118.08" gradientTransform="matrix(.21175 0 0 .21175 1688.7 2085.1)" gradientUnits="userSpaceOnUse">
   <stop stop-color="#fff44f" offset=".113"/>
   <stop stop-color="#ff980e" offset=".456"/>
   <stop stop-color="#ff5634" offset=".622"/>
   <stop stop-color="#ff3647" offset=".716"/>
   <stop stop-color="#e31587" offset=".904"/>
  </radialGradient>
  <radialGradient id="i" cx="-7927.2" cy="-8522.9" r="86.499" gradientTransform="matrix(.022234 .2107 -.13828 .014611 -991.86 2073.7)" gradientUnits="userSpaceOnUse">
   <stop stop-color="#fff44f" offset="0"/>
   <stop stop-color="#ffe847" offset=".06"/>
   <stop stop-color="#ffc830" offset=".168"/>
   <stop stop-color="#ff980e" offset=".304"/>
   <stop stop-color="#ff8b16" offset=".356"/>
   <stop stop-color="#ff672a" offset=".455"/>
   <stop stop-color="#ff3647" offset=".57"/>
   <stop stop-color="#e31587" offset=".737"/>
  </radialGradient>
  <radialGradient id="j" cx="-7938.4" cy="-8508.2" r="73.72" gradientTransform="matrix(.21175 0 0 .21175 1688.7 2085.1)" gradientUnits="userSpaceOnUse">
   <stop stop-color="#fff44f" offset=".137"/>
   <stop stop-color="#ff980e" offset=".48"/>
   <stop stop-color="#ff5634" offset=".592"/>
   <stop stop-color="#ff3647" offset=".655"/>
   <stop stop-color="#e31587" offset=".904"/>
  </radialGradient>
  <radialGradient id="k" cx="-7918.9" cy="-8503.9" r="80.686" gradientTransform="matrix(.21175 0 0 .21175 1688.7 2085.1)" gradientUnits="userSpaceOnUse">
   <stop stop-color="#fff44f" offset=".094"/>
   <stop stop-color="#ffe141" offset=".231"/>
   <stop stop-color="#ffaf1e" offset=".509"/>
   <stop stop-color="#ff980e" offset=".626"/>
  </radialGradient>
  <linearGradient id="l" x1="70.013" x2="15.267" y1="12.061" y2="66.806" gradientTransform="matrix(.21175 0 0 .21175 -.0054615 280.07)" gradientUnits="userSpaceOnUse">
   <stop stop-color="#fff44f" stop-opacity=".8" offset=".167"/>
   <stop stop-color="#fff44f" stop-opacity=".634" offset=".266"/>
   <stop stop-color="#fff44f" stop-opacity=".217" offset=".489"/>
   <stop stop-color="#fff44f" stop-opacity="0" offset=".6"/>
  </linearGradient>
  <radialGradient id="e" cx="8.4937" cy="287.34" r="3.6451" gradientTransform="matrix(1 0 0 1.0962 0 -27.756)" gradientUnits="userSpaceOnUse">
   <stop stop-color="#62a0ea" offset="0"/>
   <stop stop-color="#3584e4" offset=".55169"/>
   <stop stop-color="#1a5fb4" offset="1"/>
  </radialGradient>
 </defs>
 <g transform="translate(0 -280.07)">
  <g transform="matrix(.96836 0 0 .96836 .26789 8.8678)">
   <circle cx="339.13" cy="285.69" r="0" enable-background="new" fill="#d5d3cf"/>
   <g stroke-width=".21175">
    <path d="m16.07 285.75c-0.35659-0.85803-1.0799-1.7844-1.6464-2.0773a8.5265 8.5265 0 0 1 0.83113 2.4911l0.0015 0.0138c-0.92791-2.3134-2.5015-3.2462-3.7866-5.2773-0.06501-0.1027-0.13002-0.20561-0.19333-0.31424-0.03621-0.062-0.06522-0.11795-0.09042-0.1694a1.4935 1.4935 0 0 1-0.12239-0.32504 0.021175 0.021175 0 0 0-0.01863-0.0212 0.029222 0.029222 0 0 0-0.01546 0c-0.0011 0-0.0028 2e-3 -4e-3 2e-3 -0.0013 4.2e-4 -4e-3 2e-3 -0.0059 3e-3l0.0032-6e-3c-2.0614 1.207-2.7609 3.4414-2.8252 4.5591a4.1053 4.1053 0 0 0-2.2586 0.87052 2.4536 2.4536 0 0 0-0.21175-0.16051 3.8048 3.8048 0 0 1-0.023081-2.006 6.0784 6.0784 0 0 0-1.9755 1.5268h-0.00381c-0.32535-0.41131-0.30248-1.7708-0.28385-2.0547a1.467 1.467 0 0 0-0.27401 0.14547 5.9768 5.9768 0 0 0-0.80212 0.68715 7.1668 7.1668 0 0 0-0.76718 0.92049v1e-3 -1e-3a6.9313 6.9313 0 0 0-1.1011 2.4866l-0.011011 0.0542c-0.015458 0.0722-0.071149 0.43388-0.080678 0.51244 0 6e-3 -0.001271 0.0119-0.001906 0.018a7.8216 7.8216 0 0 0-0.13319 1.1314v0.0423a8.2074 8.2074 0 0 0 16.295 1.3878c0.01376-0.10588 0.02499-0.2107 0.03727-0.31763a8.4399 8.4399 0 0 0-0.53235-4.1226zm-9.4591 6.4242c0.038327 0.0184 0.074326 0.0383 0.11371 0.0559l0.00572 4e-3q-0.059715-0.0286-0.11943-0.0595zm1.88-4.95m6.766-1.0448v-8e-3l0.0015 9e-3z" fill="url(#a)"/>
    <path d="m16.07 285.75c-0.35659-0.85803-1.0799-1.7844-1.6464-2.0773a8.5265 8.5265 0 0 1 0.83113 2.4911v8e-3l0.0015 9e-3a7.4326 7.4326 0 0 1-0.25538 5.5391c-0.94061 2.0182-3.2174 4.0868-6.7812 3.9863-3.8507-0.10906-7.242-2.9665-7.876-6.709-0.11541-0.59016 0-0.88937 0.058021-1.369a6.1146 6.1146 0 0 0-0.13192 1.1325v0.0423a8.2074 8.2074 0 0 0 16.295 1.3878c0.01376-0.10588 0.02499-0.2107 0.03727-0.31763a8.4399 8.4399 0 0 0-0.53235-4.1226z" fill="url(#b)"/>
    <path d="m16.07 285.75c-0.35659-0.85803-1.0799-1.7844-1.6464-2.0773a8.5265 8.5265 0 0 1 0.83113 2.4911v8e-3l0.0015 9e-3a7.4326 7.4326 0 0 1-0.25538 5.5391c-0.94061 2.0182-3.2174 4.0868-6.7812 3.9863-3.8507-0.10906-7.242-2.9665-7.876-6.709-0.11541-0.59016 0-0.88937 0.058021-1.369a6.1146 6.1146 0 0 0-0.13192 1.1325v0.0423a8.2074 8.2074 0 0 0 16.295 1.3878c0.01376-0.10588 0.02499-0.2107 0.03727-0.31763a8.4399 8.4399 0 0 0-0.53235-4.1226z" fill="url(#c)"/>
    <path d="m12.082 286.71c0.01779 0.0125 0.0343 0.025 0.05103 0.0375a4.468 4.468 0 0 0-0.76232-0.99418c-2.5508-2.5512-0.66851-5.5317-0.35109-5.6831l0.0032-5e-3c-2.0614 1.207-2.7609 3.4414-2.8252 4.5591 0.095713-7e-3 0.19058-0.0146 0.28841-0.0146a4.1419 4.1419 0 0 1 3.596 2.1z" fill="url(#d)"/>
    <path d="m8.4912 287.22c-0.013552 0.20413-0.73479 0.90821-0.98699 0.90821-2.3337 0-2.7126 1.4118-2.7126 1.4118 0.10334 1.1888 0.93172 2.1679 1.9331 2.6859 0.045739 0.0237 0.092113 0.0451 0.13849 0.0661q0.12049 0.0534 0.24098 0.0987a3.6496 3.6496 0 0 0 1.0679 0.20604c4.0905 0.19185 4.8828-4.8915 1.931-6.3666a2.8333 2.8333 0 0 1 1.9788 0.48047 4.1419 4.1419 0 0 0-3.596-2.1c-0.097407 0-0.1927 8e-3 -0.28841 0.0146a4.1053 4.1053 0 0 0-2.2586 0.87052c0.12515 0.10587 0.26639 0.24733 0.5639 0.54061 0.55691 0.54865 1.9852 1.117 1.9884 1.1837z" fill="url(#e)"/>
    <path d="m5.5563 285.22c0.066491 0.0423 0.12134 0.0792 0.1694 0.11244a3.8048 3.8048 0 0 1-0.023081-2.006 6.0784 6.0784 0 0 0-1.9755 1.5268c0.040022-1e-3 1.2305-0.0224 1.8291 0.36676z" fill="url(#g)"/>
    <path d="m0.34478 288.99c0.63336 3.7425 4.0252 6.6 7.876 6.709 3.5638 0.10079 5.8406-1.968 6.7812-3.9863a7.4326 7.4326 0 0 0 0.25538-5.5391v-8e-3c0-6e-3 -0.0013-0.01 0-8e-3l0.0015 0.0138c0.29116 1.9009-0.67571 3.7425-2.1872 4.9879l-0.0047 0.0106c-2.9451 2.3985-5.7635 1.4471-6.334 1.0588q-0.059715-0.0286-0.11943-0.0595c-1.7171-0.82076-2.4265-2.3852-2.2745-3.7269a2.1076 2.1076 0 0 1-1.9441-1.2229 3.0954 3.0954 0 0 1 3.0173-0.12113 4.0869 4.0869 0 0 0 3.0814 0.12113c-0.00318-0.0667-1.4315-0.63526-1.9884-1.1837-0.29751-0.29328-0.43875-0.43452-0.5639-0.54061a2.4536 2.4536 0 0 0-0.21175-0.16051c-0.048704-0.0332-0.10355-0.0692-0.1694-0.11244-0.59863-0.3892-1.7891-0.36781-1.8285-0.36675h-0.00381c-0.32523-0.412-0.30236-1.7715-0.28373-2.0554a1.467 1.467 0 0 0-0.27401 0.14547 5.9768 5.9768 0 0 0-0.80212 0.68714 7.1668 7.1668 0 0 0-0.77036 0.91838v1e-3 -1e-3a6.9313 6.9313 0 0 0-1.1011 2.4866c-0.004023 0.0167-0.29561 1.2915-0.15183 1.9526z" fill="url(#h)"/>
    <path d="m11.371 285.76a4.468 4.468 0 0 1 0.76232 0.99524c0.0451 0.0341 0.08724 0.068 0.12303 0.10079 1.8607 1.7152 0.88577 4.1398 0.81314 4.3124 1.5115-1.2453 2.4775-3.087 2.1872-4.9879-0.92833-2.3145-2.5019-3.2472-3.787-5.2784-0.06501-0.1027-0.13002-0.20561-0.19333-0.31424-0.03621-0.062-0.06522-0.11795-0.09042-0.1694a1.4935 1.4935 0 0 1-0.12239-0.32504 0.021175 0.021175 0 0 0-0.01863-0.0212 0.029222 0.029222 0 0 0-0.01546 0c-0.0011 0-0.0028 2e-3 -4e-3 2e-3 -0.0013 4.2e-4 -4e-3 2e-3 -0.0059 3e-3 -0.31742 0.15055-2.1997 3.131 0.35151 5.6822z" fill="url(#i)"/>
    <path d="m12.255 286.85c-0.03579-0.0328-0.07792-0.0667-0.12303-0.1008-0.01673-0.0125-0.03325-0.025-0.05103-0.0375a2.8333 2.8333 0 0 0-1.9788-0.48047c2.9519 1.4759 2.1599 6.5584-1.931 6.3666a3.6496 3.6496 0 0 1-1.0679-0.20602q-0.12049-0.0451-0.24098-0.0987c-0.046374-0.0212-0.092748-0.0423-0.13849-0.0661l0.00572 4e-3c0.57047 0.38941 3.3881 1.3408 6.334-1.0588l0.0047-0.0106c0.07348-0.17152 1.0484-2.5967-0.81314-4.3113z" fill="url(#j)"/>
    <path d="m4.7916 289.54s0.37883-1.4118 2.7126-1.4118c0.2522 0 0.97407-0.70408 0.98699-0.90821a4.0869 4.0869 0 0 1-3.0814-0.12112 3.0954 3.0954 0 0 0-3.0173 0.12112 2.1076 2.1076 0 0 0 1.9441 1.2229c-0.15204 1.3419 0.55734 2.9063 2.2745 3.7269 0.038327 0.0184 0.074326 0.0383 0.11371 0.0559-1.0022-0.51773-1.8298-1.4969-1.9331-2.6857z" fill="url(#k)"/>
    <path d="m16.07 285.75c-0.35659-0.85803-1.0799-1.7844-1.6464-2.0773a8.5265 8.5265 0 0 1 0.83113 2.4911l0.0015 0.0138c-0.92791-2.3134-2.5015-3.2462-3.7866-5.2773-0.06501-0.1027-0.13002-0.20561-0.19333-0.31424-0.03621-0.062-0.06522-0.11795-0.09042-0.1694a1.4935 1.4935 0 0 1-0.12239-0.32504 0.021175 0.021175 0 0 0-0.01863-0.0212 0.029222 0.029222 0 0 0-0.01546 0c-0.0011 0-0.0028 2e-3 -4e-3 2e-3 -0.0013 4.2e-4 -4e-3 2e-3 -0.0059 3e-3l0.0032-6e-3c-2.0614 1.207-2.7609 3.4414-2.8252 4.5591 0.095713-7e-3 0.19058-0.0146 0.28841-0.0146a4.1419 4.1419 0 0 1 3.596 2.1 2.8333 2.8333 0 0 0-1.9788-0.48047c2.9519 1.4759 2.1599 6.5584-1.931 6.3666a3.6496 3.6496 0 0 1-1.068-0.20508q-0.12049-0.0451-0.24098-0.0987c-0.046374-0.0212-0.092748-0.0423-0.13849-0.0661l0.00572 4e-3q-0.059715-0.0286-0.11943-0.0595c0.038327 0.0184 0.074326 0.0383 0.11371 0.0559-1.0022-0.51795-1.8298-1.4971-1.9331-2.6859 0 0 0.37883-1.4118 2.7126-1.4118 0.2522 0 0.97407-0.70408 0.98699-0.90821-0.00318-0.0667-1.4315-0.63526-1.9884-1.1837-0.29751-0.29328-0.43875-0.43452-0.5639-0.54061a2.4536 2.4536 0 0 0-0.21175-0.16051 3.8048 3.8048 0 0 1-0.023081-2.006 6.0784 6.0784 0 0 0-1.9755 1.5268h-0.00381c-0.32526-0.41263-0.30239-1.7721-0.28375-2.056a1.467 1.467 0 0 0-0.27401 0.14547 5.9768 5.9768 0 0 0-0.80212 0.68715 7.1668 7.1668 0 0 0-0.76718 0.92049v1e-3 -1e-3a6.9313 6.9313 0 0 0-1.1011 2.4866l-0.011011 0.0542c-0.015458 0.0722-0.084702 0.43896-0.094654 0.51774v0a9.5488 9.5488 0 0 0-0.12112 1.1441v0.0423a8.2074 8.2074 0 0 0 16.295 1.3878c0.01376-0.10588 0.02499-0.2107 0.03727-0.31763a8.4399 8.4399 0 0 0-0.53235-4.1226zm-0.8142 0.4216 0.0015 9e-3z" fill="url(#l)"/>
   </g>
   <circle cx="-19.347" cy="294.53" r="0" enable-background="new" fill="#d5d3cf"/>
  </g>
 </g>
</svg>
