<svg xmlns="http://www.w3.org/2000/svg" width="64" height="64" viewBox="0 0 16.933 16.933"><defs><radialGradient id="b" cx="-7907.2" cy="-8515.1" r="80.797" gradientTransform="translate(1688.7 2085.1) scale(.21175)" gradientUnits="userSpaceOnUse"><stop offset=".129" stop-color="#ffbd4f"/><stop offset=".186" stop-color="#ffac31"/><stop offset=".247" stop-color="#ff9d17"/><stop offset=".283" stop-color="#ff980e"/><stop offset=".403" stop-color="#ff563b"/><stop offset=".467" stop-color="#ff3750"/><stop offset=".71" stop-color="#f5156c"/><stop offset=".782" stop-color="#eb0878"/><stop offset=".86" stop-color="#e50080"/></radialGradient><radialGradient id="c" cx="-7936.7" cy="-8482.1" r="80.797" gradientTransform="translate(1688.7 2085.1) scale(.21175)" gradientUnits="userSpaceOnUse"><stop offset=".3" stop-color="#960e18"/><stop offset=".351" stop-color="#b11927" stop-opacity=".74"/><stop offset=".435" stop-color="#db293d" stop-opacity=".343"/><stop offset=".497" stop-color="#f5334b" stop-opacity=".094"/><stop offset=".53" stop-color="#ff3750" stop-opacity="0"/></radialGradient><radialGradient id="d" cx="-7927" cy="-8533.5" r="58.534" gradientTransform="translate(1688.7 2085.1) scale(.21175)" gradientUnits="userSpaceOnUse"><stop offset=".132" stop-color="#fff44f"/><stop offset=".252" stop-color="#ffdc3e"/><stop offset=".506" stop-color="#ff9d12"/><stop offset=".526" stop-color="#ff980e"/></radialGradient><radialGradient id="f" cx="-7937.7" cy="-8518.4" r="27.676" gradientTransform="translate(1688.7 2085.1) scale(.21175)" gradientUnits="userSpaceOnUse"><stop offset="0" stop-color="#ffe226"/><stop offset=".121" stop-color="#ffdb27"/><stop offset=".295" stop-color="#ffc82a"/><stop offset=".502" stop-color="#ffa930"/><stop offset=".732" stop-color="#ff7e37"/><stop offset=".792" stop-color="#ff7139"/></radialGradient><radialGradient id="g" cx="-7916" cy="-8536" r="118.08" gradientTransform="translate(1688.7 2085.1) scale(.21175)" gradientUnits="userSpaceOnUse"><stop offset=".113" stop-color="#fff44f"/><stop offset=".456" stop-color="#ff980e"/><stop offset=".622" stop-color="#ff5634"/><stop offset=".716" stop-color="#ff3647"/><stop offset=".904" stop-color="#e31587"/></radialGradient><radialGradient id="h" cx="-7927.2" cy="-8522.9" r="86.499" gradientTransform="matrix(.02223 .2107 -.13828 .01461 -991.86 2073.7)" gradientUnits="userSpaceOnUse"><stop offset="0" stop-color="#fff44f"/><stop offset=".06" stop-color="#ffe847"/><stop offset=".168" stop-color="#ffc830"/><stop offset=".304" stop-color="#ff980e"/><stop offset=".356" stop-color="#ff8b16"/><stop offset=".455" stop-color="#ff672a"/><stop offset=".57" stop-color="#ff3647"/><stop offset=".737" stop-color="#e31587"/></radialGradient><radialGradient id="i" cx="-7938.4" cy="-8508.2" r="73.72" gradientTransform="translate(1688.7 2085.1) scale(.21175)" gradientUnits="userSpaceOnUse"><stop offset=".137" stop-color="#fff44f"/><stop offset=".48" stop-color="#ff980e"/><stop offset=".592" stop-color="#ff5634"/><stop offset=".655" stop-color="#ff3647"/><stop offset=".904" stop-color="#e31587"/></radialGradient><radialGradient id="j" cx="-7918.9" cy="-8503.9" r="80.686" gradientTransform="translate(1688.7 2085.1) scale(.21175)" gradientUnits="userSpaceOnUse"><stop offset=".094" stop-color="#fff44f"/><stop offset=".231" stop-color="#ffe141"/><stop offset=".509" stop-color="#ffaf1e"/><stop offset=".626" stop-color="#ff980e"/></radialGradient><radialGradient id="e" cx="8.494" cy="287.34" r="3.645" gradientTransform="matrix(1 0 0 1.0962 0 -27.756)" gradientUnits="userSpaceOnUse"><stop offset="0" stop-color="#62a0ea"/><stop offset=".552" stop-color="#3584e4"/><stop offset="1" stop-color="#1a5fb4"/></radialGradient><linearGradient id="a" x1="70.786" x2="6.447" y1="12.393" y2="74.468" gradientTransform="translate(-.005 280.07) scale(.21175)" gradientUnits="userSpaceOnUse"><stop offset=".048" stop-color="#fff44f"/><stop offset=".111" stop-color="#ffe847"/><stop offset=".225" stop-color="#ffc830"/><stop offset=".368" stop-color="#ff980e"/><stop offset=".401" stop-color="#ff8b16"/><stop offset=".462" stop-color="#ff672a"/><stop offset=".534" stop-color="#ff3647"/><stop offset=".705" stop-color="#e31587"/></linearGradient><linearGradient id="k" x1="70.013" x2="15.267" y1="12.061" y2="66.806" gradientTransform="translate(-.005 280.07) scale(.21175)" gradientUnits="userSpaceOnUse"><stop offset=".167" stop-color="#fff44f" stop-opacity=".8"/><stop offset=".266" stop-color="#fff44f" stop-opacity=".634"/><stop offset=".489" stop-color="#fff44f" stop-opacity=".217"/><stop offset=".6" stop-color="#fff44f" stop-opacity="0"/></linearGradient></defs><g stroke-width=".212"><path fill="url(#a)" d="M16.07 285.75c-.357-.858-1.08-1.784-1.646-2.077a8.527 8.527 0 0 1 .83 2.49l.002.015c-.928-2.314-2.501-3.247-3.786-5.278a9.961 9.961 0 0 1-.194-.314 2.583 2.583 0 0 1-.09-.17 1.494 1.494 0 0 1-.123-.324.021.021 0 0 0-.018-.022.03.03 0 0 0-.016 0l-.004.002-.005.003.003-.006c-2.062 1.207-2.761 3.442-2.825 4.56a4.105 4.105 0 0 0-2.26.87 2.454 2.454 0 0 0-.21-.16 3.805 3.805 0 0 1-.024-2.006 6.078 6.078 0 0 0-1.975 1.526h-.004c-.326-.411-.303-1.77-.284-2.054a1.467 1.467 0 0 0-.274.145 5.977 5.977 0 0 0-.802.687 7.167 7.167 0 0 0-.767.92v.002-.001a6.931 6.931 0 0 0-1.102 2.486l-.01.055c-.016.072-.072.433-.081.512l-.002.018a7.822 7.822 0 0 0-.133 1.131v.043a8.207 8.207 0 0 0 16.295 1.387l.037-.317a8.44 8.44 0 0 0-.532-4.123zm-9.46 6.424c.04.019.075.039.115.056l.005.004q-.06-.028-.12-.06zm8.647-5.995v-.008l.001.01z" transform="translate(.268 -271.202) scale(.96836)"/><path fill="url(#b)" d="M16.07 285.75c-.357-.858-1.08-1.784-1.646-2.077a8.527 8.527 0 0 1 .83 2.49v.009l.002.009a7.433 7.433 0 0 1-.255 5.539c-.94 2.018-3.218 4.087-6.781 3.986-3.851-.109-7.242-2.966-7.876-6.709-.116-.59 0-.89.058-1.369a6.115 6.115 0 0 0-.132 1.133v.042a8.207 8.207 0 0 0 16.295 1.388c.014-.106.025-.21.037-.318a8.44 8.44 0 0 0-.532-4.122z" transform="translate(.268 -271.202) scale(.96836)"/><path fill="url(#c)" d="M16.07 285.75c-.357-.858-1.08-1.784-1.646-2.077a8.527 8.527 0 0 1 .83 2.49v.009l.002.009a7.433 7.433 0 0 1-.255 5.539c-.94 2.018-3.218 4.087-6.781 3.986-3.851-.109-7.242-2.966-7.876-6.709-.116-.59 0-.89.058-1.369a6.115 6.115 0 0 0-.132 1.133v.042a8.207 8.207 0 0 0 16.295 1.388c.014-.106.025-.21.037-.318a8.44 8.44 0 0 0-.532-4.122z" transform="translate(.268 -271.202) scale(.96836)"/><path fill="url(#d)" d="m12.082 286.71.051.037a4.468 4.468 0 0 0-.762-.994c-2.551-2.55-.669-5.531-.351-5.683l.003-.005c-2.062 1.207-2.761 3.442-2.825 4.56.095-.008.19-.015.288-.015a4.142 4.142 0 0 1 3.596 2.1z" transform="translate(.268 -271.202) scale(.96836)"/><path fill="url(#e)" d="M8.491 287.22c-.013.204-.735.908-.987.908-2.333 0-2.712 1.412-2.712 1.412.103 1.189.931 2.168 1.933 2.686.045.024.092.045.138.066q.12.053.241.099a3.65 3.65 0 0 0 1.068.206c4.09.192 4.883-4.892 1.931-6.367a2.833 2.833 0 0 1 1.979.48 4.142 4.142 0 0 0-3.596-2.1c-.098 0-.193.009-.289.015a4.105 4.105 0 0 0-2.258.87c.125.107.266.248.564.541.557.549 1.985 1.117 1.988 1.184z" transform="translate(.268 -271.202) scale(.96836)"/><path fill="url(#f)" d="M5.556 285.22c.067.042.122.08.17.112a3.805 3.805 0 0 1-.023-2.006 6.078 6.078 0 0 0-1.976 1.527c.04 0 1.23-.022 1.83.367z" transform="translate(.268 -271.202) scale(.96836)"/><path fill="url(#g)" d="M.345 288.99c.633 3.743 4.025 6.6 7.876 6.709 3.564.1 5.84-1.968 6.781-3.986a7.433 7.433 0 0 0 .255-5.54v-.015l.002.013c.291 1.901-.676 3.743-2.187 4.988l-.005.01c-2.945 2.4-5.764 1.448-6.334 1.06l-.12-.06c-1.717-.82-2.426-2.385-2.274-3.727a2.108 2.108 0 0 1-1.944-1.223 3.095 3.095 0 0 1 3.017-.12 4.087 4.087 0 0 0 3.082.12c-.004-.066-1.432-.635-1.989-1.183-.297-.294-.439-.435-.564-.54a2.454 2.454 0 0 0-.211-.161l-.17-.113c-.598-.39-1.789-.368-1.828-.367h-.004c-.325-.412-.302-1.771-.284-2.055a1.467 1.467 0 0 0-.274.145 5.977 5.977 0 0 0-.802.688 7.167 7.167 0 0 0-.77.918v.001-.001a6.931 6.931 0 0 0-1.101 2.487c-.004.016-.296 1.291-.152 1.952z" transform="translate(.268 -271.202) scale(.96836)"/><path fill="url(#h)" d="M11.371 285.76a4.468 4.468 0 0 1 .762.995c.045.034.088.068.123.101 1.861 1.715.886 4.14.813 4.312 1.512-1.245 2.478-3.087 2.188-4.987-.929-2.315-2.502-3.248-3.787-5.279a9.961 9.961 0 0 1-.194-.314 2.583 2.583 0 0 1-.09-.17 1.494 1.494 0 0 1-.122-.325.021.021 0 0 0-.02-.02.03.03 0 0 0-.015 0l-.004.001-.005.003c-.318.15-2.2 3.131.351 5.682z" transform="translate(.268 -271.202) scale(.96836)"/><path fill="url(#i)" d="M12.255 286.85a1.719 1.719 0 0 0-.123-.1c-.017-.013-.033-.026-.051-.038a2.833 2.833 0 0 0-1.979-.48c2.952 1.475 2.16 6.558-1.93 6.366a3.65 3.65 0 0 1-1.069-.206q-.12-.045-.24-.099a2.943 2.943 0 0 1-.14-.066l.006.004c.571.39 3.389 1.34 6.334-1.059l.005-.01c.074-.172 1.049-2.597-.813-4.312z" transform="translate(.268 -271.202) scale(.96836)"/><path fill="url(#j)" d="M4.792 289.54s.378-1.412 2.712-1.412c.252 0 .974-.704.987-.908a4.087 4.087 0 0 1-3.081-.121 3.095 3.095 0 0 0-3.018.121 2.108 2.108 0 0 0 1.945 1.223c-.152 1.342.557 2.906 2.274 3.727.038.018.074.038.114.056-1.002-.518-1.83-1.497-1.933-2.686z" transform="translate(.268 -271.202) scale(.96836)"/><path fill="url(#k)" d="M16.07 285.75c-.357-.858-1.08-1.784-1.646-2.077a8.527 8.527 0 0 1 .83 2.49l.002.015c-.928-2.314-2.501-3.247-3.786-5.278a9.961 9.961 0 0 1-.194-.314 2.583 2.583 0 0 1-.09-.17 1.494 1.494 0 0 1-.123-.324.021.021 0 0 0-.018-.022.03.03 0 0 0-.016 0l-.004.002-.005.003.003-.006c-2.062 1.207-2.761 3.442-2.825 4.56.095-.007.19-.015.288-.015a4.142 4.142 0 0 1 3.596 2.1 2.833 2.833 0 0 0-1.979-.48c2.952 1.475 2.16 6.558-1.93 6.366a3.65 3.65 0 0 1-1.069-.205q-.12-.045-.24-.099a1.975 1.975 0 0 1-.14-.066l.006.004q-.06-.028-.12-.06c.04.02.075.039.115.057-1.003-.518-1.83-1.498-1.933-2.686 0 0 .378-1.412 2.712-1.412.252 0 .974-.704.987-.908-.003-.067-1.431-.636-1.988-1.184-.298-.293-.439-.435-.564-.54a2.454 2.454 0 0 0-.212-.161 3.805 3.805 0 0 1-.023-2.006 6.078 6.078 0 0 0-1.976 1.527h-.003c-.326-.413-.303-1.772-.284-2.056a1.467 1.467 0 0 0-.274.145 5.977 5.977 0 0 0-.802.687 7.167 7.167 0 0 0-.767.92v.002-.001a6.931 6.931 0 0 0-1.101 2.486l-.011.055c-.016.072-.085.439-.095.517a9.549 9.549 0 0 0-.121 1.144v.043a8.207 8.207 0 0 0 16.295 1.387c.014-.105.025-.21.037-.317a8.44 8.44 0 0 0-.532-4.123zm-.814.422.001.009z" transform="translate(.268 -271.202) scale(.96836)"/></g></svg>