<svg width="64" height="64" viewBox="0 0 16.933 16.933" xmlns="http://www.w3.org/2000/svg"><defs><linearGradient id="b" x1="7.937" x2="7.937" y1="15.081" y2="1.852" gradientTransform="translate(-.604 -.596) scale(1.0714)" gradientUnits="userSpaceOnUse"><stop stop-color="#767574" offset="0"/><stop stop-color="#d1e7ee" offset="1"/></linearGradient><filter id="a" x="-.027" y="-.027" width="1.054" height="1.054" color-interpolation-filters="sRGB"><feGaussianBlur stdDeviation=".179"/></filter></defs><rect x=".529" y=".794" width="15.875" height="15.875" rx="7.937" ry="7.937" filter="url(#a)" opacity=".15"/><rect x=".529" y=".529" width="15.875" height="15.875" rx="7.937" ry="7.937" fill="url(#b)"/><rect x="1.058" y="1.066" width="14.816" height="14.8" rx="7.4" ry="7.4" fill="#030000"/><rect x="1.852" y="1.852" width="13.229" height="13.229" rx="6.614" ry="6.614" fill="#262626"/><g fill="#fff"><path d="m12.91 8.497-1.492-2.074a.551.551 0 0 0-.38-.19H7.954a.524.524 0 0 0-.366.19l-.418.57 1.088 1.504a.34.34 0 0 1 .063.19.34.34 0 0 1-.063.19L7.169 10.38l.418.57c.076.1.24.189.366.189h3.086a.551.551 0 0 0 .38-.19l1.491-2.074a.34.34 0 0 0 .064-.19.34.34 0 0 0-.064-.189zm-2.554-1.568a.26.26 0 0 1 .266.266.26.26 0 0 1-.266.265.26.26 0 0 1-.266-.265.26.26 0 0 1 .266-.266z"/><path d="M7.79 8.687a.31.31 0 0 1-.064.19L6.22 10.95a.551.551 0 0 1-.38.19H3.997c-.089 0-.14-.038-.14-.101 0-.026.013-.064.038-.089l1.644-2.263-1.644-2.264-.038-.088c0-.064.051-.101.14-.101h1.846c.126 0 .303.088.38.19l1.504 2.073a.34.34 0 0 1 .063.19z"/></g></svg>