<svg width="64" height="64" xmlns="http://www.w3.org/2000/svg"><defs><filter id="a" x="-.036" y="-.036" width="1.072" height="1.072" color-interpolation-filters="sRGB"><feGaussianBlur stdDeviation="1.814"/></filter><filter id="c" x="-.083" y="-.079" width="1.167" height="1.158" color-interpolation-filters="sRGB"><feGaussianBlur stdDeviation="1.336"/></filter><linearGradient id="b" x1="68.113" x2="68.113" y1="131.02" y2="8.781" gradientTransform="translate(0 -72.533)" gradientUnits="userSpaceOnUse"><stop stop-color="#80a" offset="0"/><stop stop-color="#ff33f3" offset="1"/></linearGradient></defs><g stroke-width="2.015"><path d="M68.113-63.752c-33.39 0-60.457 27.067-60.457 60.457s27.067 60.457 60.457 60.457S128.57 30.095 128.57-3.295s-27.067-60.457-60.457-60.457z" filter="url(#a)" opacity=".25" style="paint-order:fill markers stroke" transform="translate(-1.8 33.635) scale(.49622)"/><path d="M68.113-63.752c-33.39 0-60.457 27.067-60.457 60.457s27.067 60.457 60.457 60.457S128.57 30.095 128.57-3.295s-27.067-60.457-60.457-60.457z" fill="url(#b)" style="paint-order:fill markers stroke" transform="translate(-1.8 33.635) scale(.49622)"/></g><g transform="translate(-40.866 2.573)" filter="url(#c)" opacity=".15" stroke-width=".938"><path d="M75.024 25.455c17.394-3.357 18.063-10.944 18.063-10.944s-1.37 23.51-14.082 24.754c-16.109 1.576-18.516 9.176-18.516 9.176s4.308-21.012 14.535-22.986z"/><path d="M64.528 24.418C79.267 18.176 77.917 7.993 77.917 7.993s8.137 20.773-4.062 25.616c-13.628 5.41-13.02 14.651-13.02 14.651s-4.963-20.177 3.693-23.843z"/><path d="M55.846 29.94c8.28-10.919 6.418-18.578 6.418-18.578s10.61 13.303 3.39 21.543c-8.065 9.205-4.552 15.608-4.552 15.608s-10.005-12.311-5.256-18.574z"/></g><g stroke-width=".938"><path d="M34.158 28.028c17.394-3.357 18.063-10.944 18.063-10.944s-1.37 23.51-14.082 24.754c-16.109 1.576-18.516 9.176-18.516 9.176s4.308-21.012 14.535-22.986z" fill="#f06"/><path d="M23.662 26.991c14.739-6.242 13.389-16.425 13.389-16.425s8.137 20.773-4.062 25.616c-13.628 5.41-13.02 14.651-13.02 14.651s-4.963-20.177 3.693-23.843z" fill="#f60"/><path d="M14.98 32.513c8.28-10.919 6.418-18.578 6.418-18.578s10.61 13.303 3.39 21.543c-8.065 9.205-4.552 15.608-4.552 15.608S10.23 38.775 14.98 32.512z" fill="#fc0"/></g></svg>