<svg xmlns="http://www.w3.org/2000/svg" width="64" height="64"><defs><filter id="a" width="1.072" height="1.072" x="-.036" y="-.036" color-interpolation-filters="sRGB"><feGaussianBlur stdDeviation=".42"/></filter><filter id="c" width="1.14" height="1.105" x="-.07" y="-.053" color-interpolation-filters="sRGB"><feGaussianBlur stdDeviation=".569"/></filter><linearGradient id="b" x1="400.57" x2="400.57" y1="545.8" y2="517.8" gradientTransform="translate(-163.67 -235.91)scale(1.4286)" gradientUnits="userSpaceOnUse"><stop offset="0" stop-color="#e02d2d"/><stop offset="1" stop-color="#f75151"/></linearGradient></defs><circle cx="400.57" cy="531.8" r="14" filter="url(#a)" opacity=".25" transform="translate(-826.36 -1107.5)scale(2.1429)"/><g stroke-width=".733"><rect width="40" height="40" x="388.57" y="503.8" fill="url(#b)" ry="20" transform="translate(-580.85 -753.742)scale(1.50008)"/><path fill-opacity=".847" d="M486.27 509.41v5.232c-4.898.093-6.303 5.6-6.303 5.6h4.132v4.335h-5.977c-3.446 11.336-11.361 10.794-11.361 10.794v-5.232s5.03.995 7.596-9c3.21-12.496 11.912-11.756 11.912-11.756" filter="url(#c)" opacity=".15" transform="translate(-590.59 -649.36)scale(1.3043)"/><path fill="#fff" fill-opacity=".847" d="M43.652 15.063v6.825c-6.389.121-8.22 7.304-8.22 7.304h5.389v5.654h-7.797C28.53 49.63 18.206 48.925 18.206 48.925V42.1s6.56 1.298 9.908-11.738C32.3 14.063 43.651 15.029 43.651 15.029"/></g></svg>