<svg width="64" height="64" version="1.1" xmlns="http://www.w3.org/2000/svg" xmlns:xlink="http://www.w3.org/1999/xlink">
 <defs>
  <filter id="c" x="-.036" y="-.036" width="1.072" height="1.072" color-interpolation-filters="sRGB">
   <feGaussianBlur stdDeviation="0.41999874"/>
  </filter>
  <linearGradient id="a" x1="400.57" x2="400.57" y1="545.8" y2="517.8" gradientTransform="matrix(1.4286 0 0 1.4286 -163.67 -235.91)" gradientUnits="userSpaceOnUse">
   <stop stop-color="#e02d2d" offset="0"/>
   <stop stop-color="#f75151" offset="1"/>
  </linearGradient>
  <linearGradient x2="47" y1="23.5" y2="23.5" gradientUnits="userSpaceOnUse">
   <stop stop-color="#a9a3d4" offset="0"/>
   <stop stop-color="#87baff" offset=".47002"/>
   <stop stop-color="#89ec85" offset="1"/>
  </linearGradient>
  <filter id="b" x="-.069975" y="-.052514" width="1.1399" height="1.105" color-interpolation-filters="sRGB">
   <feGaussianBlur stdDeviation="0.5689036"/>
  </filter>
 </defs>
 <circle transform="matrix(2.1429 0 0 2.1429 -826.36 -1107.5)" cx="400.57" cy="531.8" r="14" filter="url(#c)" opacity=".25" stroke-width=".73333"/>
 <g transform="matrix(1.3043 0 0 1.3043 -590.59 -649.36)" stroke-width=".73333">
  <g transform="translate(460.99 -503.94)" stroke-width=".73333">
   <g transform="matrix(1.1386 0 0 1.1386 -3.4562 -142.8)" stroke-width=".96611">
    <g transform="matrix(1.0539 0 0 1.0539 -.91299 -55.412)" stroke-width=".96611">
     <g transform="matrix(.83333 0 0 .83333 -408.28 587.9)" stroke-width=".96611">
      <g transform="matrix(1.1125 0 0 1.1125 8.2139 -56.26)">
       <g transform="matrix(.84003 0 0 .84003 94.723 341.97)" stroke-width=".96611">
        <g transform="matrix(1.0167 0 0 1.0167 -5.0483 -3.836)" stroke-width=".96611">
         <g transform="matrix(1.0526 0 0 1.0526 -7.0342 -334.35)" stroke-width=".96611">
          <g transform="matrix(1.15 0 0 1.15 -61.286 -78.57)" stroke-width=".96611">
           <rect x="388.57" y="503.8" width="40" height="40" ry="20" fill="url(#a)"/>
          </g>
         </g>
        </g>
       </g>
      </g>
      <g id="Settings" transform="matrix(.11906 0 0 .11906 494.76 510.73)" fill="#fff" fill-opacity=".84694"></g>
     </g>
    </g>
   </g>
  </g>
  <path d="m486.27 509.41v5.232c-4.8982 0.0932-6.3026 5.6004-6.3026 5.6004h4.132v4.3347h-5.9775c-3.4461 11.336-11.361 10.794-11.361 10.794v-5.232s5.0293 0.99481 7.5966-8.9999c3.2088-12.496 11.912-11.756 11.912-11.756" fill-opacity=".84677" filter="url(#b)" opacity=".15"/>
  <path d="m486.27 509.41v5.232c-4.8982 0.0932-6.3026 5.6004-6.3026 5.6004h4.132v4.3347h-5.9775c-3.4461 11.336-11.361 10.794-11.361 10.794v-5.232s5.0293 0.99481 7.5966-8.9999c3.2088-12.496 11.912-11.756 11.912-11.756" fill="#fff" fill-opacity=".84677"/>
 </g>
</svg>
