<svg xmlns="http://www.w3.org/2000/svg" width="64" height="64"><defs><linearGradient id="e" x1="32.405" x2="32.405" y1="47.428" y2="16.37" gradientUnits="userSpaceOnUse"><stop offset="0" stop-color="#5c5c5c"/><stop offset="1" stop-color="#8f8f8f"/></linearGradient><linearGradient id="d" x1="32.414" x2="32.414" y1="37.157" y2="27.471" gradientTransform="translate(-13.92 -13.639)scale(1.4167)" gradientUnits="userSpaceOnUse"><stop offset="0" stop-color="#d28360"/><stop offset="1" stop-color="#d7ad8e"/></linearGradient><linearGradient id="b" x1="-39.605" x2="-39.605" y1="58.247" y2="6.988" gradientTransform="translate(70.543 .42)" gradientUnits="userSpaceOnUse"><stop offset="0" stop-color="#ccc"/><stop offset="1" stop-color="#f5f5f5"/></linearGradient><filter id="c" width="1.207" height="1.226" x="-.104" y="-.113" color-interpolation-filters="sRGB"><feGaussianBlur stdDeviation="1.597"/></filter><filter id="a" width="1.078" height="1.078" x="-.039" y="-.039" color-interpolation-filters="sRGB"><feGaussianBlur stdDeviation=".972"/></filter></defs><circle cx="32" cy="32" r="30" filter="url(#a)" opacity=".15" style="isolation:isolate;paint-order:stroke fill markers"/><circle cx="32" cy="32" r="30" fill="url(#b)" style="isolation:isolate;paint-order:stroke fill markers"/><circle cx="32.017" cy="31.998" r="30" fill="none"/><g stroke-width="1.417"><path d="M32 17a17 17 0 0 0-17 17 17 17 0 0 0 17 17h17.143L52 48H41.641a17 17 0 0 0 7.36-14 17 17 0 0 0-17-17zm0 9.916A7.083 7.083 0 0 1 39.084 34 7.083 7.083 0 0 1 32 41.084 7.083 7.083 0 0 1 24.916 34 7.083 7.083 0 0 1 32 26.916" filter="url(#c)" opacity=".15" style="paint-order:normal"/><path fill="url(#d)" d="M32 23.5a8.5 8.5 0 0 0-8.5 8.5 8.5 8.5 0 0 0 8.5 8.5 8.5 8.5 0 0 0 8.5-8.5 8.5 8.5 0 0 0-8.5-8.5m0 2.833A5.667 5.667 0 0 1 37.667 32 5.667 5.667 0 0 1 32 37.667 5.667 5.667 0 0 1 26.333 32 5.667 5.667 0 0 1 32 26.333" style="paint-order:normal"/><path fill="url(#e)" d="M32 15a17 17 0 0 0-17 17 17 17 0 0 0 17 17h17.143L52 46H41.641a17 17 0 0 0 7.36-14 17 17 0 0 0-17-17zm0 9.916A7.083 7.083 0 0 1 39.084 32 7.083 7.083 0 0 1 32 39.084 7.083 7.083 0 0 1 24.916 32 7.083 7.083 0 0 1 32 24.916" style="paint-order:normal"/></g></svg>