<svg width="64" height="64" xmlns="http://www.w3.org/2000/svg"><defs><linearGradient id="c" x1="399.57" x2="399.57" y1="545.8" y2="517.8" gradientTransform="translate(-826.34 -1107.5) scale(2.1429)" gradientUnits="userSpaceOnUse"><stop stop-color="#3889e9" offset="0"/><stop stop-color="#5ea5fb" offset="1"/></linearGradient><linearGradient id="f" x1="32.405" x2="32.405" y1="47.428" y2="16.37" gradientUnits="userSpaceOnUse"><stop stop-color="#5c5c5c" offset="0"/><stop stop-color="#8f8f8f" offset="1"/></linearGradient><linearGradient id="e" x1="32.414" x2="32.414" y1="37.157" y2="27.471" gradientTransform="translate(-13.92 -13.639) scale(1.4167)" gradientUnits="userSpaceOnUse"><stop stop-color="#d28360" offset="0"/><stop stop-color="#d7ad8e" offset="1"/></linearGradient><linearGradient id="b" x1="-39.605" x2="-39.605" y1="58.247" y2="6.988" gradientTransform="translate(70.543 .42)" gradientUnits="userSpaceOnUse"><stop stop-color="#ccc" offset="0"/><stop stop-color="#f5f5f5" offset="1"/></linearGradient><filter id="d" x="-.104" y="-.113" width="1.207" height="1.226" color-interpolation-filters="sRGB"><feGaussianBlur stdDeviation="1.597"/></filter><filter id="a" x="-.039" y="-.039" width="1.078" height="1.078" color-interpolation-filters="sRGB"><feGaussianBlur stdDeviation=".972"/></filter></defs><circle cx="32" cy="32" r="30" filter="url(#a)" opacity=".15" style="isolation:isolate;paint-order:stroke fill markers"/><circle cx="32" cy="32" r="30" fill="url(#b)" style="isolation:isolate;paint-order:stroke fill markers"/><circle cx="32.017" cy="31.998" r="30" fill="none"/><g stroke-width="1.417"><path d="M32 17a17 17 0 0 0-17 17 17 17 0 0 0 17 17h17.143L52 48H41.641a17 17 0 0 0 7.36-14 17 17 0 0 0-17-17zm0 9.916A7.083 7.083 0 0 1 39.084 34 7.083 7.083 0 0 1 32 41.084 7.083 7.083 0 0 1 24.916 34 7.083 7.083 0 0 1 32 26.916z" filter="url(#d)" opacity=".15" style="paint-order:normal"/><path d="M32 23.5a8.5 8.5 0 0 0-8.5 8.5 8.5 8.5 0 0 0 8.5 8.5 8.5 8.5 0 0 0 8.5-8.5 8.5 8.5 0 0 0-8.5-8.5zm0 2.833A5.667 5.667 0 0 1 37.667 32 5.667 5.667 0 0 1 32 37.667 5.667 5.667 0 0 1 26.333 32 5.667 5.667 0 0 1 32 26.333z" fill="url(#e)" style="paint-order:normal"/><path d="M32 15a17 17 0 0 0-17 17 17 17 0 0 0 17 17h17.143L52 46H41.641a17 17 0 0 0 7.36-14 17 17 0 0 0-17-17zm0 9.916A7.083 7.083 0 0 1 39.084 32 7.083 7.083 0 0 1 32 39.084 7.083 7.083 0 0 1 24.916 32 7.083 7.083 0 0 1 32 24.916z" fill="url(#f)" style="paint-order:normal"/></g></svg>