<svg xmlns="http://www.w3.org/2000/svg" width="64" height="64"><defs><filter id="c" width="1.31" height="1.28" x="-.155" y="-.14" color-interpolation-filters="sRGB"><feGaussianBlur stdDeviation="4.66"/></filter><filter id="a" width="1.061" height="1.061" x="-.031" y="-.031" color-interpolation-filters="sRGB"><feGaussianBlur stdDeviation=".768"/></filter><linearGradient id="b" x1="7.937" x2="7.937" y1="15.081" y2="1.852" gradientTransform="translate(-2.286 -2.252)scale(4.0494)" gradientUnits="userSpaceOnUse"><stop offset="0" stop-color="#fb2e2e"/><stop offset="1" stop-color="#fb7878"/></linearGradient></defs><rect width="60" height="60" x="2" y="3" filter="url(#a)" opacity=".15" rx="30" ry="30"/><rect width="60" height="60" x="2" y="2" fill="url(#b)" rx="30" ry="30"/><g fill="#050000" filter="url(#c)" opacity=".15" transform="translate(-5.22 -4.479)scale(.56998)"><path d="M64 24v40l34.64-20Zm0 40L29.36 44v40L64 104Zm19.721 1.11c-.89.514-1.78 1.944-1.78 2.861v2.75l-6.226 3.596c-.493.284-.89.922-.89 1.43v1.834c0 .508.397.687.89.403l2.669-1.54v17.418c0 .917.89 1.32 1.779.806l16.012-9.244c.89-.514 1.78-1.944 1.78-2.861V65.144l2.668-1.54c.493-.285.89-.923.89-1.431v-1.834c0-.508-.397-.687-.89-.403l-6.227 3.595v-2.75c0-.917-.89-1.32-1.78-.807zm1.78 1.724 5.337-3.082c.446-.258.89-.052.89.403v.917l-7.117 4.109v-.917c0-.46.445-1.174.89-1.43m-3.56 7.555 12.455-7.19v15.585l-12.454 7.19Zm4.004.439c-.74.427-1.334 1.384-1.334 2.145v7.335c0 .762.595 1.031 1.334.605.74-.427 1.334-1.384 1.334-2.146v-7.334c0-.762-.595-1.032-1.334-.605m4.448-2.568c-.74.427-1.335 1.384-1.335 2.146v7.334c0 .762.596 1.031 1.335.605.739-.427 1.334-1.384 1.334-2.146v-7.334c0-.762-.595-1.032-1.334-.605"/></g><path fill="#fff" d="M31.259 9.2V32l19.744-11.4Zm0 22.8L11.515 20.6v22.8l19.744 11.399Zm11.241.632c-.508.293-1.015 1.108-1.015 1.631v1.568l-3.549 2.05c-.281.161-.507.525-.507.814v1.046c0 .29.226.391.507.23l1.521-.878v9.927c0 .523.508.753 1.014.46l9.127-5.269c.507-.293 1.014-1.108 1.014-1.63v-9.93l1.521-.877c.281-.162.507-.526.507-.816v-1.045c0-.29-.226-.392-.507-.23l-3.55 2.05v-1.568c0-.523-.506-.752-1.014-.46zm1.014.983 3.042-1.757c.254-.147.507-.03.507.23v.523l-4.056 2.342v-.523c0-.262.253-.669.507-.815m-2.03 4.306 7.1-4.098v8.883l-7.099 4.098Zm2.283.25c-.422.244-.76.79-.76 1.223v4.18c0 .435.339.589.76.346.422-.244.76-.79.76-1.223v-4.18c0-.435-.339-.589-.76-.346m2.535-1.463c-.422.243-.76.789-.76 1.223v4.18c0 .434.339.588.76.345s.76-.789.76-1.223v-4.18c0-.435-.339-.589-.76-.345"/></svg>