<svg xmlns="http://www.w3.org/2000/svg" width="64" height="64"><defs><filter id="c" width="1.326" height="1.268" x="-.163" y="-.134" color-interpolation-filters="sRGB"><feGaussianBlur stdDeviation="2.037"/></filter><filter id="a" width="1.054" height="1.054" x="-.027" y="-.027" color-interpolation-filters="sRGB"><feGaussianBlur stdDeviation=".675"/></filter><linearGradient id="b" x1="7.937" x2="7.937" y1="15.081" y2="1.852" gradientTransform="translate(-2.286 -2.252)scale(4.0494)" gradientUnits="userSpaceOnUse"><stop offset="0" stop-color="#0e71de"/><stop offset="1" stop-color="#25c9ff"/></linearGradient></defs><rect width="60" height="60" x="2" y="3" filter="url(#a)" opacity=".15" rx="30" ry="30"/><rect width="60" height="60" x="2" y="2" fill="url(#b)" rx="30" ry="30"/><path d="m32 15-.78.48L17 24.164v18.187l15 9.164 15-9.164V24.164zm0 3.51v12.984l-1.43.879L20 25.85zm12 9.105v13.05L32 48V35.021z" filter="url(#c)" opacity=".15"/><path fill="#fff" d="m32 13.742-.78.48L17 22.906v18.187l15 9.164 15-9.164V22.906zm0 3.51v12.984l-1.43.879L20 24.593zm12 9.105v13.05l-12 7.335V33.763z"/></svg>