<svg xmlns="http://www.w3.org/2000/svg" width="64" height="64"><defs><linearGradient id="d" x1="20" x2="33" y1="29" y2="18" gradientUnits="userSpaceOnUse"><stop offset="0" stop-color="#ac9c7b"/><stop offset="1" stop-color="#cabca3"/></linearGradient><linearGradient id="g" x1="33" x2="51" y1="46" y2="32" gradientUnits="userSpaceOnUse"><stop offset="0" stop-color="#b5a689"/><stop offset="1" stop-color="#c4b495"/></linearGradient><linearGradient id="e" x1="15" x2="33" y1="33" y2="47" gradientUnits="userSpaceOnUse"><stop offset="0" stop-color="#dcc9a5"/><stop offset="1" stop-color="#e3d0ac"/></linearGradient><linearGradient id="f" x1="33" x2="48" y1="21" y2="32" gradientUnits="userSpaceOnUse"><stop offset="0" stop-color="#e3d0ac"/><stop offset="1" stop-color="#d6ba85"/></linearGradient><linearGradient id="b" x1="-39.605" x2="-39.605" y1="58.247" y2="6.988" gradientTransform="translate(70.543 .42)" gradientUnits="userSpaceOnUse"><stop offset="0" stop-color="#f1efeb"/><stop offset="1" stop-color="#fdfcfc"/></linearGradient><filter id="c" width="1.192" height="1.247" x="-.096" y="-.123" color-interpolation-filters="sRGB"><feGaussianBlur stdDeviation="1.44"/></filter><filter id="a" width="1.078" height="1.078" x="-.039" y="-.039" color-interpolation-filters="sRGB"><feGaussianBlur stdDeviation=".972"/></filter></defs><circle cx="32" cy="32" r="30" filter="url(#a)" opacity=".15" style="isolation:isolate;paint-order:stroke fill markers"/><circle cx="32" cy="32" r="30" fill="url(#b)" style="isolation:isolate;paint-order:stroke fill markers"/><g stroke-linecap="round" stroke-linejoin="round"><path stroke="#000" stroke-width="2" d="M33 26 15 40l18 14 18-14zm0 3 15 11-15 11-15-11z" filter="url(#c)" opacity=".15" transform="translate(-1 1)"/><g stroke-width="1.748"><path fill="url(#d)" d="m15 40 9-4 9-7V8L15 22z" transform="translate(-1 1)"/><path fill="url(#e)" d="m15 22 18 14v18L15 40z" transform="translate(-1 1)"/><path fill="url(#f)" d="m51 40-9-4-9-7V8l18 14z" transform="translate(-1 1)"/><path fill="url(#g)" d="M51 22 33 36v18l18-14z" transform="translate(-1 1)"/></g><path fill="#ece1cd" d="M32 9 14 23l18 14 18-14zm0 3 15 11-15 11-15-11z"/><path d="M14 39.713V41l18 14v-1.287zm36 0-18 14V55l18-14z" opacity=".1"/></g></svg>