<svg width="64" height="64" xmlns="http://www.w3.org/2000/svg"><defs><linearGradient id="b" x1="408.25" x2="407.94" y1="547.6" y2="498.89" gradientTransform="translate(-510.64 -663.52) scale(1.3276)" gradientUnits="userSpaceOnUse"><stop stop-color="#fff" offset="0"/><stop stop-color="#e6e6e6" offset="1"/></linearGradient><linearGradient id="e" x1="16.348" x2="47.652" y1="40.479" y2="40.479" gradientUnits="userSpaceOnUse"><stop stop-color="#3d9ade" offset="0"/><stop stop-color="#4ae0e8" offset="1"/></linearGradient><linearGradient id="d" x1="16.343" x2="47.652" y1="32.01" y2="32.01" gradientUnits="userSpaceOnUse"><stop stop-color="#99c7ff" offset="0"/><stop stop-color="#b8e8ff" offset="1"/></linearGradient><filter id="a" x="-.036" y="-.036" width="1.072" height="1.072" color-interpolation-filters="sRGB"><feGaussianBlur stdDeviation=".89"/></filter><filter id="c" x="-.117" y="-.1" width="1.234" height="1.2" color-interpolation-filters="sRGB"><feGaussianBlur stdDeviation="1.527"/></filter></defs><rect transform="translate(-389.32 -489.92) scale(1.0115)" x="386.85" y="486.31" width="59.315" height="59.315" ry="29.657" filter="url(#a)" opacity=".25"/><rect x="1.983" y="1.978" width="59.997" height="59.997" ry="29.998" fill="url(#b)"/><path d="M25.04 15c1.737 1.748 1.727 3.138 1.727 5.244v4.35c-6.078 2.04-10.424 7.527-10.424 14.002 0 5.554 3.22 10.4 7.979 12.947h15.352c4.758-2.548 7.978-7.393 7.978-12.947 0-6.46-4.361-11.943-10.435-14.001v-4.351c0-2.094-.01-3.49 1.727-5.244h-13.91" filter="url(#c)" opacity=".15"/><path d="M25.04 13.739c1.737 1.748 1.727 3.138 1.727 5.244v4.35c-6.078 2.04-10.424 7.527-10.424 14.002 0 5.554 3.22 10.4 7.979 12.947h15.352c4.758-2.548 7.978-7.393 7.978-12.947 0-6.46-4.361-11.943-10.435-14.001v-4.351c0-2.094-.01-3.49 1.727-5.244h-13.91" fill="url(#d)"/><path d="M17.978 30.696a14.131 14.131 0 0 0-1.63 6.604c0 5.549 3.23 10.414 7.989 12.963h15.326c4.758-2.547 7.989-7.414 7.989-12.963a14.14 14.14 0 0 0-1.63-6.604" fill="url(#e)"/><path d="M35.913 47a.65.65 0 0 1-.652.652.654.654 0 0 1-.652-.652.65.65 0 0 1 .652-.652.65.65 0 0 1 .652.652M33.957 44.065a.979.979 0 1 1-1.957 0 .979.979 0 0 1 1.957 0M35.913 39.826c0 .719-.586 1.304-1.304 1.304s-1.305-.585-1.305-1.304a1.303 1.303 0 1 1 2.609 0M35.913 30.043a1.957 1.957 0 1 1-3.914-.001 1.957 1.957 0 0 1 3.914.001M32.652 35.587a1.63 1.63 0 1 1-3.26 0 1.63 1.63 0 1 1 3.26 0" fill="#f9f9f9" opacity=".5"/></svg>