<svg width="64" height="64" enable-background="new 0 0 1024 1024" image-rendering="optimizeSpeed" xmlns="http://www.w3.org/2000/svg"><defs><linearGradient id="e" x1="64" x2="120" y1="246" y2="246" gradientTransform="translate(10.286 -45.187) scale(.33929)" gradientUnits="userSpaceOnUse"><stop stop-color="#c0bfbc" offset="0"/><stop stop-color="#c0bfbc" offset=".857"/><stop stop-color="#deddda" offset=".929"/><stop stop-color="#c0bfbc" offset="1"/></linearGradient><linearGradient id="f" x1="64" x2="120" y1="246" y2="246" gradientTransform="matrix(-.33929 0 0 .33929 53.714 -45.187)" gradientUnits="userSpaceOnUse"><stop stop-color="#c0bfbc" offset="0"/><stop stop-color="#c0bfbc" offset=".857"/><stop stop-color="#deddda" offset=".929"/><stop stop-color="#c0bfbc" offset="1"/></linearGradient><linearGradient id="g" x1="320" x2="416" y1="116" y2="116" gradientTransform="matrix(-.08482 0 0 .08482 67.286 21.652)" gradientUnits="userSpaceOnUse"><stop stop-color="#f5f5f4" offset="0"/><stop stop-color="#fff" offset=".5"/><stop stop-color="#e0dedb" offset="1"/></linearGradient><linearGradient id="h" x1="320" x2="416" y1="116" y2="116" gradientTransform="translate(-3.286 21.652) scale(.08482)" gradientUnits="userSpaceOnUse"><stop stop-color="#f5f5f4" offset="0"/><stop stop-color="#f5f5f4" offset=".5"/><stop stop-color="#cccbc8" offset="1"/></linearGradient><linearGradient id="i" x1="59.092" x2="46.289" y1="216.78" y2="169" gradientTransform="translate(6.26 -46.199) scale(.33929)" gradientUnits="userSpaceOnUse"><stop stop-color="#0cc" offset="0"/><stop stop-color="#31e5d2" offset="1"/></linearGradient><linearGradient id="b" x1="107.54" x2="107.54" y1="58.738" y2="2.892" gradientTransform="translate(-75.686 .5)" gradientUnits="userSpaceOnUse"><stop stop-color="#00e0b5" offset="0"/><stop stop-color="#18adb1" offset="1"/></linearGradient><filter id="a" x="-.036" y="-.036" width="1.072" height="1.072" color-interpolation-filters="sRGB"><feGaussianBlur stdDeviation="14.17"/></filter><filter id="c" x="-.05" y="-.046" width="1.101" height="1.092" color-interpolation-filters="sRGB"><feGaussianBlur stdDeviation=".797"/></filter><clipPath id="d"><path d="M0 0h192v152H0z"/></clipPath></defs><path transform="matrix(.06351 0 0 .06351 -.544 -.493)" d="M970.43 391.52a514.995 514.995 0 0 0-3.653-13.61c-1-3.403-2.001-6.855-3.152-10.508a421.479 421.479 0 0 0-5.304-15.862c-6.455-18.263-14.16-36.076-23.167-53.689a475.424 475.424 0 0 0-12.309-22.416c-20.315-34.525-45.833-67.249-76.406-97.821-72.653-72.653-157.26-116.74-253.84-132.15a484.051 484.051 0 0 0-50.087-5.354c-9.707-.55-19.865-.85-30.122-.85-9.357 0-18.614.25-27.92.75-118.44 6.105-220.46 51.988-306.07 137.6Q40.05 315.96 40.05 511.6c0 130.45 46.134 241.83 138.35 334.04 56.741 56.691 120.64 95.97 191.24 117.64 36.777 11.258 74.855 17.863 114.83 19.965h.4c8.507.45 16.612.7 24.518.7h3.003a583.3 583.3 0 0 0 30.122-.8c2.501-.15 4.753-.3 6.955-.45 20.215-1.451 39.929-4.053 58.743-7.706a519.823 519.823 0 0 0 23.417-5.154c80.859-20.315 152.26-61.645 214.81-124.19 48.636-48.636 84.462-102.57 107.43-161.92 18.463-47.685 28.67-98.872 30.572-153.61.2-6.054.3-12.259.3-18.514V508.6c-.2-40.68-4.954-79.558-14.31-117.09z" filter="url(#a)" opacity=".25"/><circle cx="32" cy="32" r="30" fill="url(#b)"/><g filter="url(#c)" opacity=".15"><path d="M51 43.147v2.254a2.708 2.708 0 0 1-2.714 2.715H40.82a8.142 8.142 0 0 0-7.402 4.75H30.58a8.142 8.142 0 0 0-7.402-4.75h-7.464A2.708 2.708 0 0 1 13 45.4v-2.254z"/><path d="M32.79 29.462a9.59 9.59 0 0 0-.111 1.011H32v21.375h1.42a8.142 8.142 0 0 1 7.401-4.75h7.465A2.708 2.708 0 0 0 51 44.384V32.29a2.708 2.708 0 0 0-2.714-2.714zM31.211 29.462c.053.335.091.672.11 1.011H32v21.375h-1.42a8.142 8.142 0 0 0-7.402-4.75h-7.464A2.708 2.708 0 0 1 13 44.384V32.29a2.708 2.708 0 0 1 2.714-2.714z"/><g transform="translate(7.571 5.705) scale(.33929)" clip-path="url(#d)" opacity=".25"><path d="M128 107.66a7.466 7.466 0 0 1-7.492 7.344h-.5v1h.5a8.49 8.49 0 0 0 7.492-4.48zm-32 7.344 24 1v-1z"/><path d="M128 111.52a7.465 7.465 0 0 1-7.492 7.344h-.5v1h.5a8.497 8.497 0 0 0 7.465-4.426c.011-.191.027-.383.027-.574zm-26 7.344 18 1v-1z" opacity="1"/></g><path d="M48.286 18.259A2.708 2.708 0 0 1 51 20.973v20.018a2.708 2.708 0 0 1-2.714 2.715h-8.143A8.143 8.143 0 0 0 32 51.849V27.08c0-4.497 3.646-8.822 8.143-8.822zM15.714 18.259A2.708 2.708 0 0 0 13 20.973v20.018a2.708 2.708 0 0 0 2.714 2.715h8.143A8.143 8.143 0 0 1 32 51.849V27.08c0-4.497-3.646-8.822-8.143-8.822z"/><path d="M44.893 21.991v2.036h-4.071c-1.485.062-2.872.44-4.072 1.113v-1.883c1.198-.793 2.587-1.266 4.072-1.266zM46.929 26.062v1.357h-6.107c-1.485.062-2.872.44-4.072 1.113v-1.204c1.199-.793 2.588-1.266 4.072-1.266zM46.929 28.777v1.357h-6.107c-1.485.062-2.872.44-4.072 1.113v-1.204c1.199-.793 2.588-1.266 4.072-1.266zM46.929 31.491v1.357h-6.107c-1.485.062-2.872.44-4.072 1.113v-1.204c1.199-.793 2.588-1.266 4.072-1.266zM22.5 36.92h-5.429v1.357H22.5zM17.071 26.062v1.357h6.786c1.212.05 2.359.316 3.393.778V26.93a7.207 7.207 0 0 0-3.393-.868zM17.071 28.777v1.357h6.786c1.212.05 2.359.316 3.393.778v-1.267a7.207 7.207 0 0 0-3.393-.868zM17.071 31.491v1.357h6.786c1.212.05 2.359.316 3.393.778V32.36a7.207 7.207 0 0 0-3.393-.868zM17.071 23.348v1.357h6.786c1.212.05 2.359.316 3.393.778v-1.267a7.207 7.207 0 0 0-3.393-.868zM17.071 34.205v1.357h6.786c1.212.05 2.359.316 3.393.778v-1.267a7.207 7.207 0 0 0-3.393-.868zM44.214 34.205v1.357h-3.393c-1.484.062-2.872.44-4.071 1.113v-1.204c1.198-.793 2.587-1.266 4.071-1.266z"/><path d="M21.969 11.134s-2.792 6.934-2.784 10.581c.005 2.714.373 5.777 2.107 7.866 1.332 1.604 5.642 2.702 5.642 2.702l1.31-.35s3.183-3.108 3.535-5.162c.458-2.676-.755-5.512-2.107-7.866-1.817-3.163-7.703-7.772-7.703-7.772z"/><path d="M28.341 37.537c-3.655-13.64-3.558-15.163-5.346-22.67 2.216 7.364 3.002 8.678 6.657 22.319z"/><path d="M24.566 21.335c1.227-2.124 1.667-2.55 2.102-3.256-.394.73-.555 1.316-1.783 3.44zM25.417 24.632c1.703-2.95 2.314-3.541 2.917-4.523-.545 1.015-.77 1.829-2.474 4.779zM26.354 28.17c1.802-3.121 2.448-3.747 3.087-4.785-.578 1.074-.817 1.934-2.618 5.055z"/><path d="M24.819 21.267c-2.126-1.226-2.718-1.374-3.449-1.77.706.437 1.139.863 3.263 2.09zM25.731 24.549c-2.95-1.704-3.775-1.911-4.788-2.458.98.605 1.58 1.198 4.532 2.9zM26.688 28.08c-3.121-1.802-3.993-2.021-5.065-2.6 1.036.641 1.673 1.267 4.795 3.07z"/></g><path d="M51 43.147v2.254a2.708 2.708 0 0 1-2.714 2.715H40.82a8.142 8.142 0 0 0-7.402 4.75H30.58a8.142 8.142 0 0 0-7.402-4.75h-7.464A2.708 2.708 0 0 1 13 45.4v-2.254z" fill="#1ca8a8"/><path d="M32.79 29.462a9.59 9.59 0 0 0-.111 1.011H32v21.375h1.42a8.142 8.142 0 0 1 7.401-4.75h7.465A2.708 2.708 0 0 0 51 44.384V32.29a2.708 2.708 0 0 0-2.714-2.714z" fill="url(#e)"/><path d="M31.211 29.462c.053.335.091.672.11 1.011H32v21.375h-1.42a8.142 8.142 0 0 0-7.402-4.75h-7.464A2.708 2.708 0 0 1 13 44.384V32.29a2.708 2.708 0 0 1 2.714-2.714z" fill="url(#f)"/><g transform="translate(7.571 5.705) scale(.33929)" clip-path="url(#d)" opacity=".25"><path d="M128 107.66a7.466 7.466 0 0 1-7.492 7.344h-.5v1h.5a8.49 8.49 0 0 0 7.492-4.48zm-32 7.344 24 1v-1z"/><path d="M128 111.52a7.465 7.465 0 0 1-7.492 7.344h-.5v1h.5a8.497 8.497 0 0 0 7.465-4.426c.011-.191.027-.383.027-.574zm-26 7.344 18 1v-1z" opacity="1"/></g><path d="M48.286 18.259A2.708 2.708 0 0 1 51 20.973v20.018a2.708 2.708 0 0 1-2.714 2.715h-8.143A8.143 8.143 0 0 0 32 51.849V27.08c0-4.497 3.646-8.822 8.143-8.822z" fill="url(#g)"/><path d="M15.714 18.259A2.708 2.708 0 0 0 13 20.973v20.018a2.708 2.708 0 0 0 2.714 2.715h8.143A8.143 8.143 0 0 1 32 51.849V27.08c0-4.497-3.646-8.822-8.143-8.822z" fill="url(#h)"/><path d="M44.893 21.991v2.036h-4.071c-1.485.062-2.872.44-4.072 1.113v-1.883c1.198-.793 2.587-1.266 4.072-1.266z" fill="#0cc"/><g fill="#dedcd9"><path d="M46.929 26.062v1.357h-6.107c-1.485.062-2.872.44-4.072 1.113v-1.204c1.199-.793 2.588-1.266 4.072-1.266zM46.929 28.777v1.357h-6.107c-1.485.062-2.872.44-4.072 1.113v-1.204c1.199-.793 2.588-1.266 4.072-1.266zM46.929 31.491v1.357h-6.107c-1.485.062-2.872.44-4.072 1.113v-1.204c1.199-.793 2.588-1.266 4.072-1.266zM22.5 36.92h-5.429v1.357H22.5zM17.071 26.062v1.357h6.786c1.212.05 2.359.316 3.393.778V26.93a7.207 7.207 0 0 0-3.393-.868zM17.071 28.777v1.357h6.786c1.212.05 2.359.316 3.393.778v-1.267a7.207 7.207 0 0 0-3.393-.868zM17.071 31.491v1.357h6.786c1.212.05 2.359.316 3.393.778V32.36a7.207 7.207 0 0 0-3.393-.868zM17.071 23.348v1.357h6.786c1.212.05 2.359.316 3.393.778v-1.267a7.207 7.207 0 0 0-3.393-.868zM17.071 34.205v1.357h6.786c1.212.05 2.359.316 3.393.778v-1.267a7.207 7.207 0 0 0-3.393-.868zM44.214 34.205v1.357h-3.393c-1.484.062-2.872.44-4.071 1.113v-1.204c1.198-.793 2.587-1.266 4.071-1.266z"/></g><path d="M21.969 11.134s-2.792 6.934-2.784 10.581c.005 2.714.373 5.777 2.107 7.866 1.332 1.604 5.642 2.702 5.642 2.702l1.31-.35s3.183-3.108 3.535-5.162c.458-2.676-.755-5.512-2.107-7.866-1.817-3.163-7.703-7.772-7.703-7.772z" fill="url(#i)"/><g fill="#1ca8a8"><path d="M28.341 37.537c-3.655-13.64-3.558-15.163-5.346-22.67 2.216 7.364 3.002 8.678 6.657 22.319z"/><path d="M24.566 21.335c1.227-2.124 1.667-2.55 2.102-3.256-.394.73-.555 1.316-1.783 3.44zM25.417 24.632c1.703-2.95 2.314-3.541 2.917-4.523-.545 1.015-.77 1.829-2.474 4.779zM26.354 28.17c1.802-3.121 2.448-3.747 3.087-4.785-.578 1.074-.817 1.934-2.618 5.055z"/><path d="M24.819 21.267c-2.126-1.226-2.718-1.374-3.449-1.77.706.437 1.139.863 3.263 2.09zM25.731 24.549c-2.95-1.704-3.775-1.911-4.788-2.458.98.605 1.58 1.198 4.532 2.9zM26.688 28.08c-3.121-1.802-3.993-2.021-5.065-2.6 1.036.641 1.673 1.267 4.795 3.07z"/></g></svg>