<?xml version="1.0" encoding="UTF-8"?>
<svg id="SimpleNote" width="64" height="64" enable-background="new 0 0 1024 1024" image-rendering="optimizeSpeed" version="1.1" viewBox="0 0 64 64" xmlns="http://www.w3.org/2000/svg" xmlns:cc="http://creativecommons.org/ns#" xmlns:dc="http://purl.org/dc/elements/1.1/" xmlns:rdf="http://www.w3.org/1999/02/22-rdf-syntax-ns#" xmlns:xlink="http://www.w3.org/1999/xlink">
 <metadata>
  <rdf:RDF>
   <cc:Work rdf:about="">
    <dc:format>image/svg+xml</dc:format>
    <dc:type rdf:resource="http://purl.org/dc/dcmitype/StillImage"/>
    <dc:title/>
   </cc:Work>
  </rdf:RDF>
 </metadata>
 <defs>
  <filter id="d" x="-.036" y="-.036" width="1.072" height="1.072" color-interpolation-filters="sRGB">
   <feGaussianBlur stdDeviation="14.170353"/>
  </filter>
  <linearGradient id="linear0" x1="64" x2="120" y1="246" y2="246" gradientTransform="matrix(.33929 0 0 .33929 10.286 -45.187)" gradientUnits="userSpaceOnUse">
   <stop stop-color="#c0bfbc" offset="0"/>
   <stop stop-color="#c0bfbc" offset=".85714"/>
   <stop stop-color="#deddda" offset=".92857"/>
   <stop stop-color="#c0bfbc" offset="1"/>
  </linearGradient>
  <linearGradient id="linear1" x1="64" x2="120" y1="246" y2="246" gradientTransform="matrix(-.33929 0 0 .33929 53.714 -45.187)" gradientUnits="userSpaceOnUse">
   <stop stop-color="#c0bfbc" offset="0"/>
   <stop stop-color="#c0bfbc" offset=".85714"/>
   <stop stop-color="#deddda" offset=".92857"/>
   <stop stop-color="#c0bfbc" offset="1"/>
  </linearGradient>
  <clipPath id="clip1">
   <rect width="192" height="152"/>
  </clipPath>
  <linearGradient id="linear2" x1="320" x2="416" y1="116" y2="116" gradientTransform="matrix(-.084821 0 0 .084821 67.286 21.652)" gradientUnits="userSpaceOnUse">
   <stop stop-color="#f5f5f4" offset="0"/>
   <stop stop-color="#fff" offset=".5"/>
   <stop stop-color="#e0dedb" offset="1"/>
  </linearGradient>
  <linearGradient id="linear3" x1="320" x2="416" y1="116" y2="116" gradientTransform="matrix(.084821 0 0 .084821 -3.2857 21.652)" gradientUnits="userSpaceOnUse">
   <stop stop-color="#f5f5f4" offset="0"/>
   <stop stop-color="#f5f5f4" offset=".5"/>
   <stop stop-color="#cccbc8" offset="1"/>
  </linearGradient>
  <linearGradient id="linear4" x1="59.092" x2="46.289" y1="216.78" y2="169" gradientTransform="matrix(.33929 0 0 .33929 6.2608 -46.199)" gradientUnits="userSpaceOnUse">
   <stop stop-color="#0cc" offset="0"/>
   <stop stop-color="#31e5d2" offset="1"/>
  </linearGradient>
  <linearGradient id="linearGradient995" x1="32" x2="32" y1="62" y2="2" gradientTransform="translate(-11.863 -168.98)" gradientUnits="userSpaceOnUse">
   <stop stop-color="#00e0b5" offset="0"/>
   <stop stop-color="#18adb1" offset="1"/>
  </linearGradient>
  <filter id="filter1191" x="-.050357" y="-.045854" width="1.1007" height="1.0917" color-interpolation-filters="sRGB">
   <feGaussianBlur stdDeviation="0.79732141"/>
  </filter>
 </defs>
 <path transform="matrix(.063513 0 0 .063513 -.54372 -.49348)" d="m970.43 391.52c-1.1008-4.3532-2.3517-9.0066-3.6527-13.61-1.0007-3.4025-2.0015-6.855-3.1523-10.508-1.6012-5.1538-3.4025-10.508-5.3039-15.862-6.4547-18.263-14.16-36.076-23.167-53.689-3.8028-7.4054-7.9558-14.961-12.309-22.416-20.315-34.525-45.833-67.249-76.406-97.821-72.653-72.653-157.26-116.74-253.84-132.15-16.262-2.6019-32.824-4.4032-50.087-5.3539-9.7071-0.5504-19.865-0.85062-30.122-0.85062-9.3568 0-18.614 0.25018-27.92 0.75055-118.44 6.1045-220.46 51.988-306.07 137.6q-138.35 138.35-138.35 333.99c0 130.45 46.134 241.83 138.35 334.04 56.741 56.691 120.64 95.97 191.24 117.64 36.777 11.258 74.855 17.863 114.83 19.965h0.40029c8.5062 0.45033 16.612 0.70051 24.518 0.70051h3.0022c10.308 0 20.515-0.30022 30.122-0.80058 2.5018-0.15011 4.7535-0.30022 6.9551-0.45033 20.215-1.4511 39.929-4.053 58.743-7.7056 7.9558-1.5511 15.812-3.3024 23.417-5.1538 80.859-20.315 152.26-61.645 214.81-124.19 48.636-48.636 84.462-102.57 107.43-161.92 18.463-47.685 28.671-98.872 30.572-153.61 0.20015-6.0544 0.30022-12.259 0.30022-18.514v-3.0022c-0.20014-40.68-4.9536-79.558-14.31-117.09z" filter="url(#d)" opacity=".25" stroke-width="15.695"/>
 <path d="m61.091 24.373c-0.069916-0.27648-0.14936-0.57204-0.23199-0.86441-0.063558-0.2161-0.12712-0.43538-0.20021-0.6674-0.1017-0.32733-0.2161-0.66739-0.33687-1.0074-0.40996-1.1599-0.89934-2.2913-1.4714-3.4099-0.24153-0.47034-0.5053-0.95022-0.78178-1.4237-1.2903-2.1928-2.911-4.2712-4.8528-6.2129-4.6144-4.6144-9.9881-7.4145-16.122-8.3932-1.0328-0.16525-2.0848-0.27966-3.1812-0.34004-0.61653-0.034958-1.2617-0.054025-1.9131-0.054025-0.59428 0-1.1822 0.01589-1.7733 0.04767-7.5225 0.38771-14.002 3.3019-19.439 8.7394q-8.787 8.787-8.787 21.213c0 8.2853 2.9301 15.359 8.787 21.216 3.6038 3.6006 7.6622 6.0953 12.146 7.4717 2.3358 0.71503 4.7543 1.1345 7.2932 1.268h0.02542c0.54025 0.0286 1.0551 0.04449 1.5572 0.04449h0.19068c0.65469 0 1.303-0.01907 1.9131-0.05085 0.1589-0.0095 0.30191-0.01907 0.44174-0.0286 1.2839-0.09216 2.536-0.25742 3.7309-0.48941 0.5053-0.09851 1.0043-0.20974 1.4873-0.32733 5.1356-1.2903 9.6705-3.9153 13.643-7.8877 3.089-3.089 5.3644-6.5145 6.8232-10.284 1.1726-3.0286 1.821-6.2797 1.9417-9.7562 0.01271-0.38453 0.01907-0.77861 0.01907-1.1759v-0.19068c-0.01271-2.5837-0.31462-5.053-0.90887-7.4367z" fill="url(#linearGradient995)" stroke-width=".99684"/>
 <g filter="url(#filter1191)" opacity=".15">
  <path d="m51 43.147v2.2544c0 1.5043-1.21 2.7143-2.7143 2.7143h-7.4643c-3.2855 0-6.1151 1.9469-7.402 4.75h-2.8389c-1.2869-2.8031-4.1165-4.75-7.402-4.75h-7.4643c-1.5043 0-2.7143-1.21-2.7143-2.7143v-2.2544z"/>
  <path d="m32.79 29.462c-0.05434 0.33531-0.09277 0.67194-0.11133 1.0112h-0.67857v21.375h1.4194c1.2869-2.8031 4.1165-4.75 7.402-4.75h7.4643c1.5043 0 2.7143-1.21 2.7143-2.7143v-12.094c0-1.5043-1.21-2.7143-2.7143-2.7143z"/>
  <path d="m31.211 29.462c0.05301 0.33531 0.09145 0.67194 0.11 1.0112h0.67857v21.375h-1.4194c-1.2869-2.8031-4.1165-4.75-7.402-4.75h-7.4643c-1.5043 0-2.7143-1.21-2.7143-2.7143v-12.094c0-1.5043 1.21-2.7143 2.7143-2.7143z"/>
  <g transform="matrix(.33929 0 0 .33929 7.5714 5.7054)" clip-path="url(#clip1)" opacity=".25">
   <path d="m128 107.66c-0.08203 4.0898-3.3789 7.3438-7.4922 7.3438h-0.5v1h0.5c3.2461 0 6.0586-1.8125 7.4922-4.4805zm-32 7.3438 24 1v-1z"/>
   <path d="m128 111.52c-0.082 4.0898-3.3789 7.3438-7.4922 7.3438h-0.5v1h0.5c3.2227 0 6.0234-1.7891 7.4648-4.4258 0.0117-0.19141 0.0273-0.38281 0.0273-0.57422zm-26 7.3438 18 1v-1z" opacity="1"/>
  </g>
  <path d="m48.286 18.259c1.5043 0 2.7143 1.21 2.7143 2.7143v20.018c0 1.5043-1.21 2.7143-2.7143 2.7143h-8.1429c-4.4969 0-8.1429 3.646-8.1429 8.1429v-24.768c0-4.4969 3.646-8.8214 8.1429-8.8214z"/>
  <path d="m15.714 18.259c-1.5043 0-2.7143 1.21-2.7143 2.7143v20.018c0 1.5043 1.21 2.7143 2.7143 2.7143h8.1429c4.4969 0 8.1429 3.646 8.1429 8.1429v-24.768c0-4.4969-3.646-8.8214-8.1429-8.8214z"/>
  <g>
   <path d="m44.893 21.991v2.0357h-4.0714c-1.4844 0.06229-2.872 0.44001-4.0714 1.1133v-1.8833c1.1981-0.79255 2.5871-1.2657 4.0714-1.2657z"/>
   <path d="m46.929 26.062v1.3571h-6.1071c-1.4844 0.06229-2.872 0.44001-4.0714 1.1133v-1.2047c1.1981-0.79255 2.5871-1.2657 4.0714-1.2657z"/>
   <path d="m46.929 28.777v1.3571h-6.1071c-1.4844 0.062291-2.872 0.44001-4.0714 1.1133v-1.2047c1.1981-0.79255 2.5871-1.2657 4.0714-1.2657z"/>
   <path d="m46.929 31.491v1.3571h-6.1071c-1.4844 0.06229-2.872 0.44001-4.0714 1.1133v-1.2047c1.1981-0.79255 2.5871-1.2657 4.0714-1.2657z"/>
   <path d="m22.5 36.92h-5.4286v1.3571h5.4286z"/>
   <path d="m17.071 26.062v1.3571h6.7857c1.2127 0.05036 2.3591 0.31543 3.3929 0.77797v-1.267c-1.0338-0.54869-2.1802-0.8681-3.3929-0.8681z"/>
   <path d="m17.071 28.777v1.3571h6.7857c1.2127 0.05036 2.3591 0.31543 3.3929 0.77797v-1.267c-1.0338-0.54869-2.1802-0.86809-3.3929-0.86809z"/>
   <path d="m17.071 31.491v1.3571h6.7857c1.2127 0.05036 2.3591 0.31543 3.3929 0.77797v-1.267c-1.0338-0.54869-2.1802-0.86809-3.3929-0.86809z"/>
   <path d="m17.071 23.348v1.3571h6.7857c1.2127 0.05036 2.3591 0.31543 3.3929 0.77797v-1.267c-1.0338-0.54869-2.1802-0.86809-3.3929-0.86809z"/>
   <path d="m17.071 34.205v1.3571h6.7857c1.2127 0.05036 2.3591 0.31543 3.3929 0.77797v-1.267c-1.0338-0.54869-2.1802-0.8681-3.3929-0.8681z"/>
   <path d="m44.214 34.205v1.3571h-3.3929c-1.4844 0.06229-2.872 0.44001-4.0714 1.1133v-1.2047c1.1981-0.79255 2.5871-1.2657 4.0714-1.2657z"/>
  </g>
  <path d="m21.969 11.134s-2.7925 6.9342-2.7845 10.581c0.0053 2.7143 0.37374 5.7771 2.1073 7.8659 1.332 1.6037 5.642 2.7024 5.642 2.7024l1.3108-0.35121s3.1821-3.1066 3.5347-5.1609c0.45724-2.6759-0.75544-5.5121-2.1073-7.8659-1.817-3.1636-7.7028-7.7718-7.7028-7.7718z"/>
  <g>
   <path d="m28.341 37.537c-3.6553-13.64-3.5585-15.163-5.3464-22.67 2.216 7.3636 3.0019 8.6783 6.6572 22.319z"/>
   <path d="m24.566 21.335c1.2273-2.1245 1.6673-2.5499 2.102-3.2563-0.39362 0.73026-0.55532 1.3161-1.7826 3.4406z"/>
   <path d="m25.417 24.632c1.7031-2.9502 2.314-3.5413 2.9171-4.5234-0.54471 1.0152-0.77002 1.829-2.4744 4.7792z"/>
   <path d="m26.354 28.17c1.8025-3.1212 2.4479-3.7467 3.0867-4.7845-0.57785 1.0735-0.81641 1.9337-2.6175 5.0548z"/>
   <path d="m24.819 21.267c-2.1258-1.2259-2.7183-1.3744-3.4485-1.7693 0.70508 0.43604 1.1385 0.86279 3.263 2.0887z"/>
   <path d="m25.731 24.549c-2.9502-1.7044-3.7746-1.9111-4.7884-2.4585 0.98075 0.60568 1.5811 1.1981 4.5326 2.9012z"/>
   <path d="m26.688 28.08c-3.1212-1.8025-3.9932-2.0211-5.0654-2.6003 1.0364 0.64146 1.6739 1.267 4.7951 3.0695z"/>
  </g>
 </g>
 <g>
  <path d="m51 43.147v2.2544c0 1.5043-1.21 2.7143-2.7143 2.7143h-7.4643c-3.2855 0-6.1151 1.9469-7.402 4.75h-2.8389c-1.2869-2.8031-4.1165-4.75-7.402-4.75h-7.4643c-1.5043 0-2.7143-1.21-2.7143-2.7143v-2.2544z" fill="#1ca8a8"/>
  <path d="m32.79 29.462c-0.05434 0.33531-0.09277 0.67194-0.11133 1.0112h-0.67857v21.375h1.4194c1.2869-2.8031 4.1165-4.75 7.402-4.75h7.4643c1.5043 0 2.7143-1.21 2.7143-2.7143v-12.094c0-1.5043-1.21-2.7143-2.7143-2.7143z" fill="url(#linear0)"/>
  <path d="m31.211 29.462c0.05301 0.33531 0.09145 0.67194 0.11 1.0112h0.67857v21.375h-1.4194c-1.2869-2.8031-4.1165-4.75-7.402-4.75h-7.4643c-1.5043 0-2.7143-1.21-2.7143-2.7143v-12.094c0-1.5043 1.21-2.7143 2.7143-2.7143z" fill="url(#linear1)"/>
  <g transform="matrix(.33929 0 0 .33929 7.5714 5.7054)" clip-path="url(#clip1)" opacity=".25">
   <path d="m128 107.66c-0.08203 4.0898-3.3789 7.3438-7.4922 7.3438h-0.5v1h0.5c3.2461 0 6.0586-1.8125 7.4922-4.4805zm-32 7.3438 24 1v-1z"/>
   <path d="m128 111.52c-0.082 4.0898-3.3789 7.3438-7.4922 7.3438h-0.5v1h0.5c3.2227 0 6.0234-1.7891 7.4648-4.4258 0.0117-0.19141 0.0273-0.38281 0.0273-0.57422zm-26 7.3438 18 1v-1z" opacity="1"/>
  </g>
  <path d="m48.286 18.259c1.5043 0 2.7143 1.21 2.7143 2.7143v20.018c0 1.5043-1.21 2.7143-2.7143 2.7143h-8.1429c-4.4969 0-8.1429 3.646-8.1429 8.1429v-24.768c0-4.4969 3.646-8.8214 8.1429-8.8214z" fill="url(#linear2)"/>
  <path d="m15.714 18.259c-1.5043 0-2.7143 1.21-2.7143 2.7143v20.018c0 1.5043 1.21 2.7143 2.7143 2.7143h8.1429c4.4969 0 8.1429 3.646 8.1429 8.1429v-24.768c0-4.4969-3.646-8.8214-8.1429-8.8214z" fill="url(#linear3)"/>
  <path d="m44.893 21.991v2.0357h-4.0714c-1.4844 0.06229-2.872 0.44001-4.0714 1.1133v-1.8833c1.1981-0.79255 2.5871-1.2657 4.0714-1.2657z" fill="#0cc"/>
  <g fill="#dedcd9">
   <path d="m46.929 26.062v1.3571h-6.1071c-1.4844 0.06229-2.872 0.44001-4.0714 1.1133v-1.2047c1.1981-0.79255 2.5871-1.2657 4.0714-1.2657z"/>
   <path d="m46.929 28.777v1.3571h-6.1071c-1.4844 0.062291-2.872 0.44001-4.0714 1.1133v-1.2047c1.1981-0.79255 2.5871-1.2657 4.0714-1.2657z"/>
   <path d="m46.929 31.491v1.3571h-6.1071c-1.4844 0.06229-2.872 0.44001-4.0714 1.1133v-1.2047c1.1981-0.79255 2.5871-1.2657 4.0714-1.2657z"/>
   <path d="m22.5 36.92h-5.4286v1.3571h5.4286z"/>
   <path d="m17.071 26.062v1.3571h6.7857c1.2127 0.05036 2.3591 0.31543 3.3929 0.77797v-1.267c-1.0338-0.54869-2.1802-0.8681-3.3929-0.8681z"/>
   <path d="m17.071 28.777v1.3571h6.7857c1.2127 0.05036 2.3591 0.31543 3.3929 0.77797v-1.267c-1.0338-0.54869-2.1802-0.86809-3.3929-0.86809z"/>
   <path d="m17.071 31.491v1.3571h6.7857c1.2127 0.05036 2.3591 0.31543 3.3929 0.77797v-1.267c-1.0338-0.54869-2.1802-0.86809-3.3929-0.86809z"/>
   <path d="m17.071 23.348v1.3571h6.7857c1.2127 0.05036 2.3591 0.31543 3.3929 0.77797v-1.267c-1.0338-0.54869-2.1802-0.86809-3.3929-0.86809z"/>
   <path d="m17.071 34.205v1.3571h6.7857c1.2127 0.05036 2.3591 0.31543 3.3929 0.77797v-1.267c-1.0338-0.54869-2.1802-0.8681-3.3929-0.8681z"/>
   <path d="m44.214 34.205v1.3571h-3.3929c-1.4844 0.06229-2.872 0.44001-4.0714 1.1133v-1.2047c1.1981-0.79255 2.5871-1.2657 4.0714-1.2657z"/>
  </g>
  <path d="m21.969 11.134s-2.7925 6.9342-2.7845 10.581c0.0053 2.7143 0.37374 5.7771 2.1073 7.8659 1.332 1.6037 5.642 2.7024 5.642 2.7024l1.3108-0.35121s3.1821-3.1066 3.5347-5.1609c0.45724-2.6759-0.75544-5.5121-2.1073-7.8659-1.817-3.1636-7.7028-7.7718-7.7028-7.7718z" fill="url(#linear4)"/>
  <g fill="#1ca8a8">
   <path d="m28.341 37.537c-3.6553-13.64-3.5585-15.163-5.3464-22.67 2.216 7.3636 3.0019 8.6783 6.6572 22.319z"/>
   <path d="m24.566 21.335c1.2273-2.1245 1.6673-2.5499 2.102-3.2563-0.39362 0.73026-0.55532 1.3161-1.7826 3.4406z"/>
   <path d="m25.417 24.632c1.7031-2.9502 2.314-3.5413 2.9171-4.5234-0.54471 1.0152-0.77002 1.829-2.4744 4.7792z"/>
   <path d="m26.354 28.17c1.8025-3.1212 2.4479-3.7467 3.0867-4.7845-0.57785 1.0735-0.81641 1.9337-2.6175 5.0548z"/>
   <path d="m24.819 21.267c-2.1258-1.2259-2.7183-1.3744-3.4485-1.7693 0.70508 0.43604 1.1385 0.86279 3.263 2.0887z"/>
   <path d="m25.731 24.549c-2.9502-1.7044-3.7746-1.9111-4.7884-2.4585 0.98075 0.60568 1.5811 1.1981 4.5326 2.9012z"/>
   <path d="m26.688 28.08c-3.1212-1.8025-3.9932-2.0211-5.0654-2.6003 1.0364 0.64146 1.6739 1.267 4.7951 3.0695z"/>
  </g>
 </g>
</svg>
