<svg xmlns="http://www.w3.org/2000/svg" width="64" height="64"><defs><linearGradient id="e" x1="99.523" x2="103.24" y1="38.494" y2="41.915" gradientTransform="translate(-103.15 -21.795)scale(1.3333)" gradientUnits="userSpaceOnUse"><stop offset="0" stop-color="#6eb92e"/><stop offset="1" stop-color="#4592d6"/></linearGradient><linearGradient id="d" x1="101.35" x2="101.35" y1="30.289" y2="50.451" gradientTransform="translate(-103.15 -21.795)scale(1.3333)" gradientUnits="userSpaceOnUse"><stop offset="0" stop-color="#e7e7e7"/><stop offset="1" stop-color="#c2c2c2"/></linearGradient><linearGradient id="b" x1="-39.605" x2="-39.605" y1="58.247" y2="6.988" gradientTransform="translate(70.543 .42)" gradientUnits="userSpaceOnUse"><stop offset="0" stop-color="#232f3e"/><stop offset="1" stop-color="#425975"/></linearGradient><filter id="c" width="1.216" height="1.216" x="-.108" y="-.108" color-interpolation-filters="sRGB"><feGaussianBlur stdDeviation="1.44"/></filter><filter id="a" width="1.078" height="1.078" x="-.039" y="-.039" color-interpolation-filters="sRGB"><feGaussianBlur stdDeviation=".972"/></filter></defs><circle cx="32" cy="32" r="30" filter="url(#a)" opacity=".15" style="isolation:isolate;paint-order:stroke fill markers"/><circle cx="32" cy="32" r="30" fill="url(#b)" style="isolation:isolate;paint-order:stroke fill markers"/><path d="M24 16.845c-4.432 0-8 3.568-8 8v16c0 4.432 3.568 8 8 8h16c4.432 0 8-3.568 8-8v-16c0-4.432-3.568-8-8-8zm8 8a8 8 0 0 1 8 8 8 8 0 0 1-8 8 8 8 0 0 1-8-8 8 8 0 0 1 8-8m.002 4a4 4 0 0 0-2.834 6.824l-.004.004a4 4 0 0 0 2.832 1.172c2.21 0 4.004-1.79 4.004-4a3.98 3.98 0 0 0-1.168-2.822v-.006a4 4 0 0 0-2.83-1.172" filter="url(#c)" opacity=".15" style="paint-order:normal"/><path fill="url(#d)" d="M24 16c-4.432 0-8 3.568-8 8v16c0 4.432 3.568 8 8 8h16c4.432 0 8-3.568 8-8V24c0-4.432-3.568-8-8-8zm8 8a8 8 0 0 1 8 8 8 8 0 0 1-8 8 8 8 0 0 1-8-8 8 8 0 0 1 8-8" style="paint-order:normal"/><path fill="url(#e)" d="M32.003 28a4.001 4.001 0 0 0-2.834 6.824l-.004.004A4 4 0 0 0 31.997 36 4 4 0 0 0 36 32a4 4 0 0 0-1.169-2.822l.002-.006A4 4 0 0 0 32.003 28" style="paint-order:normal"/></svg>