<svg xmlns="http://www.w3.org/2000/svg" width="64" height="64" enable-background="new 0 0 1024 1024" image-rendering="optimizeSpeed"><defs><filter id="a" width="1.072" height="1.072" x="-.036" y="-.036" color-interpolation-filters="sRGB"><feGaussianBlur stdDeviation="14.16"/></filter><filter id="c" width="1.06" height="1.09" x="-.03" y="-.045" color-interpolation-filters="sRGB"><feGaussianBlur stdDeviation=".501"/></filter><filter id="e" width="1.028" height="1.028" x="-.014" y="-.014" color-interpolation-filters="sRGB"><feGaussianBlur stdDeviation=".298"/></filter><filter id="f" width="1.059" height="1.059" x="-.03" y="-.03" color-interpolation-filters="sRGB"><feGaussianBlur stdDeviation=".298"/></filter><linearGradient id="b" x1="540" x2="540" y1="4" y2="1024" gradientUnits="userSpaceOnUse"><stop offset="0" stop-color="#d7d7d7"/><stop offset="1" stop-color="#fff"/></linearGradient><linearGradient id="d" x1="32.779" x2="31.947" y1="45.883" y2="18.026" gradientUnits="userSpaceOnUse"><stop offset="0" stop-color="#707070"/><stop offset="1" stop-color="#1b1b1b"/></linearGradient></defs><g stroke-width="15.672"><path d="M966.1 378.45c-2.5-8.75-5.35-17.6-8.45-26.35-6.45-18.25-14.15-36.05-23.15-53.65-3.8-7.4-7.95-14.95-12.3-22.4-20.3-34.5-45.8-67.2-76.35-97.75C773.25 105.7 688.7 61.65 592.2 46.25c-16.25-2.6-32.8-4.4-50.05-5.35-9.7-.55-19.85-.85-30.1-.85-9.35 0-18.6.25-27.9.75-118.35 6.1-220.3 51.95-305.85 137.5Q40.05 316.55 40.05 512.05c0 130.35 46.1 241.65 138.25 333.8 85.55 85.5 187.5 131.35 305.85 137.5h.4c8.5.45 16.6.7 24.5.7h8.45c8.55-.1 16.8-.4 24.65-.8 2.5-.15 4.75-.3 6.95-.45 20.2-1.45 39.9-4.05 58.7-7.7 7.95-1.55 15.8-3.3 23.4-5.15 80.8-20.3 152.15-61.6 214.65-124.1 48.6-48.6 84.4-102.5 107.35-161.8 16.6-42.9 26.55-88.65 29.75-137.45.35-5.2.6-10.6.8-16.05.2-6.05.3-12.25.3-18.5v-3c-.2-40.65-4.95-79.5-14.3-117-1.1-4.35-2.35-9-3.65-13.6" filter="url(#a)" opacity=".25" transform="translate(-.546 -.546)scale(.06356)"/><path fill="url(#b)" d="M966.1 378.45c-2.5-8.75-5.35-17.6-8.45-26.35-6.45-18.25-14.15-36.05-23.15-53.65-3.8-7.4-7.95-14.95-12.3-22.4-20.3-34.5-45.8-67.2-76.35-97.75C773.25 105.7 688.7 61.65 592.2 46.25c-16.25-2.6-32.8-4.4-50.05-5.35-9.7-.55-19.85-.85-30.1-.85-9.35 0-18.6.25-27.9.75-118.35 6.1-220.3 51.95-305.85 137.5Q40.05 316.55 40.05 512.05c0 130.35 46.1 241.65 138.25 333.8 85.55 85.5 187.5 131.35 305.85 137.5h.4c8.5.45 16.6.7 24.5.7h8.45c8.55-.1 16.8-.4 24.65-.8 2.5-.15 4.75-.3 6.95-.45 20.2-1.45 39.9-4.05 58.7-7.7 7.95-1.55 15.8-3.3 23.4-5.15 80.8-20.3 152.15-61.6 214.65-124.1 48.6-48.6 84.4-102.5 107.35-161.8 16.6-42.9 26.55-88.65 29.75-137.45.35-5.2.6-10.6.8-16.05.2-6.05.3-12.25.3-18.5v-3c-.2-40.65-4.95-79.5-14.3-117-1.1-4.35-2.35-9-3.65-13.6" transform="translate(-.546 -.546)scale(.06356)"/></g><g aria-label="Aa" filter="url(#c)" opacity=".25"><path d="m18.758 34.229 1.294-4.026c.935-2.983 1.797-5.823 2.624-8.914h.144c.862 3.055 1.69 5.93 2.66 8.914l1.258 4.026zm11.323 10.712h3.523l-8.95-26.348H20.95L12 44.941h3.379l2.552-8.052h9.633zm12.358.466c2.408 0 4.601-1.258 6.47-2.804h.108l.288 2.337H52V32.934c0-4.817-2.012-8.016-6.757-8.016-3.127 0-5.895 1.402-7.692 2.552l1.294 2.265c1.545-1.043 3.594-2.085 5.859-2.085 3.199 0 4.025 2.408 4.025 4.924-8.303.935-12.006 3.056-12.006 7.297 0 3.523 2.445 5.536 5.716 5.536m.935-2.624c-1.941 0-3.451-.899-3.451-3.127 0-2.516 2.228-4.134 8.806-4.925v5.464c-1.905 1.69-3.45 2.588-5.355 2.588"/></g><path fill="url(#d)" d="m18.758 34.229 1.294-4.026c.935-2.983 1.797-5.823 2.624-8.914h.144c.862 3.055 1.69 5.93 2.66 8.914l1.258 4.026zm11.323 10.712h3.523l-8.95-26.348H20.95L12 44.941h3.379l2.552-8.052h9.633zm12.358.466c2.408 0 4.601-1.258 6.47-2.804h.108l.288 2.337H52V32.934c0-4.817-2.012-8.016-6.757-8.016-3.127 0-5.895 1.402-7.692 2.552l1.294 2.265c1.545-1.043 3.594-2.085 5.859-2.085 3.199 0 4.025 2.408 4.025 4.924-8.303.935-12.006 3.056-12.006 7.297 0 3.523 2.445 5.536 5.716 5.536m.935-2.624c-1.941 0-3.451-.899-3.451-3.127 0-2.516 2.228-4.134 8.806-4.925v5.464c-1.905 1.69-3.45 2.588-5.355 2.588" aria-label="Aa"/><path fill="#fff" d="M10.787 10.787a29.934 29.934 0 0 0 0 42.426c.119.119.242.23.362.345-11.4-11.775-11.288-30.43.345-42.065S41.784-.25 53.56 11.148c-.116-.12-.227-.243-.345-.362a29.934 29.934 0 0 0-42.426 0z" filter="url(#e)"/><path fill="#fff" d="M37.435 61.526c5.772-1.063 11.297-3.831 15.779-8.313s7.25-10.007 8.313-15.779c-1.592 5.434-4.606 10.657-9.02 15.072s-9.639 7.428-15.072 9.02" filter="url(#f)"/></svg>