<svg xmlns="http://www.w3.org/2000/svg" xmlns:xlink="http://www.w3.org/1999/xlink" width="64" height="64"><defs><linearGradient id="c"><stop offset="0" stop-color="#859900"/><stop offset="1" stop-color="#c9e800"/></linearGradient><linearGradient id="b"><stop offset="0" stop-color="#fff"/><stop offset="1" stop-color="#f0f0f0"/></linearGradient><linearGradient id="a"><stop offset="0" stop-color="#6e3a84"/><stop offset="1" stop-color="#a75ec4"/></linearGradient><linearGradient xlink:href="#a" id="e" x1="24" x2="24" y1="1048.4" y2="1008.4" gradientTransform="matrix(1.5 0 0 1.5 -4 -1510.5)" gradientUnits="userSpaceOnUse"/><linearGradient xlink:href="#b" id="g" x1="12" x2="18" y1="33" y2="33" gradientUnits="userSpaceOnUse"/><linearGradient xlink:href="#b" id="q" x1="30" x2="36" y1="15" y2="15" gradientUnits="userSpaceOnUse"/><linearGradient xlink:href="#b" id="o" x1="24" x2="30" y1="21" y2="21" gradientUnits="userSpaceOnUse"/><linearGradient xlink:href="#b" id="l" x1="18" x2="24" y1="27" y2="27" gradientUnits="userSpaceOnUse"/><linearGradient xlink:href="#b" id="j" x1="30" x2="36" y1="33" y2="33" gradientUnits="userSpaceOnUse"/><linearGradient xlink:href="#b" id="i" x1="24" x2="30" y1="33" y2="33" gradientUnits="userSpaceOnUse"/><linearGradient xlink:href="#b" id="h" x1="18" x2="24" y1="33" y2="33" gradientUnits="userSpaceOnUse"/><linearGradient xlink:href="#c" id="n" x1="30" x2="36" y1="27" y2="27" gradientUnits="userSpaceOnUse"/><linearGradient xlink:href="#c" id="k" x1="12" x2="18" y1="27" y2="27" gradientUnits="userSpaceOnUse"/><linearGradient xlink:href="#c" id="m" x1="24" x2="30" y1="27" y2="27" gradientUnits="userSpaceOnUse"/><linearGradient xlink:href="#c" id="p" x1="30" x2="36" y1="21" y2="21" gradientUnits="userSpaceOnUse"/><filter id="d" width="1.072" height="1.072" x="-.036" y="-.036" color-interpolation-filters="sRGB"><feGaussianBlur stdDeviation=".6"/></filter><filter id="f" width="1.12" height="1.12" x="-.06" y="-.06" color-interpolation-filters="sRGB"><feGaussianBlur stdDeviation=".6"/></filter></defs><circle cx="24" cy="1028.4" r="20" filter="url(#d)" opacity=".25" transform="matrix(1.5 0 0 1.5 -4 -1510.5)"/><circle cx="32" cy="32.06" r="30" fill="url(#e)"/><g filter="url(#f)" opacity=".15" transform="scale(1.3333)"><path d="M18 33a3.001 3.001 0 0 1-6 0 3.001 3.001 0 0 1 6 0m6 0a3.001 3.001 0 0 1-6 0 3.001 3.001 0 0 1 6 0m6 0a3.001 3.001 0 0 1-6 0 3.001 3.001 0 0 1 6 0m6 0a3.001 3.001 0 0 1-6 0 3.001 3.001 0 0 1 6 0"/><path d="M18 27a3.001 3.001 0 0 1-6 0 3.001 3.001 0 0 1 6 0m6 0a3.001 3.001 0 0 1-6 0 3.001 3.001 0 0 1 6 0m6 0a3.001 3.001 0 0 1-6 0 3.001 3.001 0 0 1 6 0m6 0a3.001 3.001 0 0 1-6 0 3.001 3.001 0 0 1 6 0"/><path d="M30 21a3.001 3.001 0 0 1-6 0 3.001 3.001 0 0 1 6 0m6 0a3.001 3.001 0 0 1-6 0 3.001 3.001 0 0 1 6 0"/><path d="M36 15a3.001 3.001 0 0 1-6 0 3.001 3.001 0 0 1 6 0"/></g><path fill="url(#g)" d="M18 33a3.001 3.001 0 0 1-6 0 3.001 3.001 0 0 1 6 0" transform="scale(1.3333)"/><path fill="url(#h)" d="M24 33a3.001 3.001 0 0 1-6 0 3.001 3.001 0 0 1 6 0" transform="scale(1.3333)"/><path fill="url(#i)" d="M30 33a3.001 3.001 0 0 1-6 0 3.001 3.001 0 0 1 6 0" transform="scale(1.3333)"/><path fill="url(#j)" d="M36 33a3.001 3.001 0 0 1-6 0 3.001 3.001 0 0 1 6 0" transform="scale(1.3333)"/><path fill="url(#k)" d="M18 27a3.001 3.001 0 0 1-6 0 3.001 3.001 0 0 1 6 0" transform="scale(1.3333)"/><path fill="url(#l)" d="M24 27a3.001 3.001 0 0 1-6 0 3.001 3.001 0 0 1 6 0" transform="scale(1.3333)"/><path fill="url(#m)" d="M30 27a3.001 3.001 0 0 1-6 0 3.001 3.001 0 0 1 6 0" transform="scale(1.3333)"/><path fill="url(#n)" d="M36 27a3.001 3.001 0 0 1-6 0 3.001 3.001 0 0 1 6 0" transform="scale(1.3333)"/><path fill="url(#o)" d="M30 21a3.001 3.001 0 0 1-6 0 3.001 3.001 0 0 1 6 0" transform="scale(1.3333)"/><path fill="url(#p)" d="M36 21a3.001 3.001 0 0 1-6 0 3.001 3.001 0 0 1 6 0" transform="scale(1.3333)"/><path fill="url(#q)" d="M36 15a3.001 3.001 0 0 1-6 0 3.001 3.001 0 0 1 6 0" transform="scale(1.3333)"/></svg>