<svg width="64" height="64" xmlns="http://www.w3.org/2000/svg" xmlns:xlink="http://www.w3.org/1999/xlink"><defs><linearGradient id="c"><stop stop-color="#859900" offset="0"/><stop stop-color="#c9e800" offset="1"/></linearGradient><linearGradient id="b"><stop stop-color="#fff" offset="0"/><stop stop-color="#f0f0f0" offset="1"/></linearGradient><linearGradient id="a"><stop stop-color="#6e3a84" offset="0"/><stop stop-color="#a75ec4" offset="1"/></linearGradient><linearGradient id="e" x1="24" x2="24" y1="1048.4" y2="1008.4" gradientTransform="matrix(1.5 0 0 1.5 -4 -1510.5)" gradientUnits="userSpaceOnUse" xlink:href="#a"/><linearGradient id="g" x1="12" x2="18" y1="33" y2="33" gradientUnits="userSpaceOnUse" xlink:href="#b"/><linearGradient id="q" x1="30" x2="36" y1="15" y2="15" gradientUnits="userSpaceOnUse" xlink:href="#b"/><linearGradient id="o" x1="24" x2="30" y1="21" y2="21" gradientUnits="userSpaceOnUse" xlink:href="#b"/><linearGradient id="l" x1="18" x2="24" y1="27" y2="27" gradientUnits="userSpaceOnUse" xlink:href="#b"/><linearGradient id="j" x1="30" x2="36" y1="33" y2="33" gradientUnits="userSpaceOnUse" xlink:href="#b"/><linearGradient id="i" x1="24" x2="30" y1="33" y2="33" gradientUnits="userSpaceOnUse" xlink:href="#b"/><linearGradient id="h" x1="18" x2="24" y1="33" y2="33" gradientUnits="userSpaceOnUse" xlink:href="#b"/><linearGradient id="n" x1="30" x2="36" y1="27" y2="27" gradientUnits="userSpaceOnUse" xlink:href="#c"/><linearGradient id="k" x1="12" x2="18" y1="27" y2="27" gradientUnits="userSpaceOnUse" xlink:href="#c"/><linearGradient id="m" x1="24" x2="30" y1="27" y2="27" gradientUnits="userSpaceOnUse" xlink:href="#c"/><linearGradient id="p" x1="30" x2="36" y1="21" y2="21" gradientUnits="userSpaceOnUse" xlink:href="#c"/><filter id="d" x="-.036" y="-.036" width="1.072" height="1.072" color-interpolation-filters="sRGB"><feGaussianBlur stdDeviation=".6"/></filter><filter id="f" x="-.06" y="-.06" width="1.12" height="1.12" color-interpolation-filters="sRGB"><feGaussianBlur stdDeviation=".6"/></filter></defs><circle transform="matrix(1.5 0 0 1.5 -4 -1510.5)" cx="24" cy="1028.4" r="20" filter="url(#d)" opacity=".25"/><circle cx="32" cy="32.06" r="30" fill="url(#e)"/><g transform="scale(1.3333)" filter="url(#f)" opacity=".15"><path d="M18 33a3.001 3.001 0 0 1-6 0 3.001 3.001 0 0 1 6 0M24 33a3.001 3.001 0 0 1-6 0 3.001 3.001 0 0 1 6 0M30 33a3.001 3.001 0 0 1-6 0 3.001 3.001 0 0 1 6 0M36 33a3.001 3.001 0 0 1-6 0 3.001 3.001 0 0 1 6 0"/><path d="M18 27a3.001 3.001 0 0 1-6 0 3.001 3.001 0 0 1 6 0M24 27a3.001 3.001 0 0 1-6 0 3.001 3.001 0 0 1 6 0M30 27a3.001 3.001 0 0 1-6 0 3.001 3.001 0 0 1 6 0M36 27a3.001 3.001 0 0 1-6 0 3.001 3.001 0 0 1 6 0"/><path d="M30 21a3.001 3.001 0 0 1-6 0 3.001 3.001 0 0 1 6 0M36 21a3.001 3.001 0 0 1-6 0 3.001 3.001 0 0 1 6 0"/><path d="M36 15a3.001 3.001 0 0 1-6 0 3.001 3.001 0 0 1 6 0"/></g><path d="M18 33a3.001 3.001 0 0 1-6 0 3.001 3.001 0 0 1 6 0" fill="url(#g)" transform="scale(1.3333)"/><path d="M24 33a3.001 3.001 0 0 1-6 0 3.001 3.001 0 0 1 6 0" fill="url(#h)" transform="scale(1.3333)"/><path d="M30 33a3.001 3.001 0 0 1-6 0 3.001 3.001 0 0 1 6 0" fill="url(#i)" transform="scale(1.3333)"/><path d="M36 33a3.001 3.001 0 0 1-6 0 3.001 3.001 0 0 1 6 0" fill="url(#j)" transform="scale(1.3333)"/><path d="M18 27a3.001 3.001 0 0 1-6 0 3.001 3.001 0 0 1 6 0" fill="url(#k)" transform="scale(1.3333)"/><path d="M24 27a3.001 3.001 0 0 1-6 0 3.001 3.001 0 0 1 6 0" fill="url(#l)" transform="scale(1.3333)"/><path d="M30 27a3.001 3.001 0 0 1-6 0 3.001 3.001 0 0 1 6 0" fill="url(#m)" transform="scale(1.3333)"/><path d="M36 27a3.001 3.001 0 0 1-6 0 3.001 3.001 0 0 1 6 0" fill="url(#n)" transform="scale(1.3333)"/><path d="M30 21a3.001 3.001 0 0 1-6 0 3.001 3.001 0 0 1 6 0" fill="url(#o)" transform="scale(1.3333)"/><path d="M36 21a3.001 3.001 0 0 1-6 0 3.001 3.001 0 0 1 6 0" fill="url(#p)" transform="scale(1.3333)"/><path d="M36 15a3.001 3.001 0 0 1-6 0 3.001 3.001 0 0 1 6 0" fill="url(#q)" transform="scale(1.3333)"/></svg>