<svg width="64" height="64" xmlns="http://www.w3.org/2000/svg"><defs><filter id="g" x="-.059" y="-.061" width="1.119" height="1.121" color-interpolation-filters="sRGB"><feGaussianBlur stdDeviation=".791"/></filter><filter id="a" x="-.036" y="-.036" width="1.072" height="1.072" color-interpolation-filters="sRGB"><feGaussianBlur stdDeviation=".89"/></filter><filter id="c" x="-.036" y="-.036" width="1.072" height="1.072" color-interpolation-filters="sRGB"><feGaussianBlur stdDeviation=".372"/></filter><filter id="e" x="-.06" y="-.06" width="1.12" height="1.12" color-interpolation-filters="sRGB"><feGaussianBlur stdDeviation=".62"/></filter><linearGradient id="d" x1="31.981" x2="31.981" y1="1.978" y2="61.975" gradientTransform="matrix(.92977 .03247 -.03751 1.0742 99.632 -112.36)" gradientUnits="userSpaceOnUse"><stop stop-color="#FF9E00" offset="0"/><stop stop-color="#FF5C11" offset="1"/></linearGradient><linearGradient id="b" x1="31.981" x2="31.981" y1="1.978" y2="61.975" gradientTransform="matrix(.92977 .03247 -.03751 1.0742 99.632 -112.36)" gradientUnits="userSpaceOnUse"><stop stop-color="#ffc054" offset="0"/><stop stop-color="#ffaa5e" offset="1"/></linearGradient><linearGradient id="f" x1="49.193" x2="49.193" y1="36.789" y2="61.59" gradientUnits="userSpaceOnUse"><stop stop-color="#fff" stop-opacity=".697" offset="0"/><stop stop-color="#fff" stop-opacity=".257" offset="1"/></linearGradient></defs><rect transform="translate(-389.32 -489.92) scale(1.0115)" x="386.85" y="486.31" width="59.315" height="59.315" ry="29.657" filter="url(#a)" opacity=".25"/><rect x="1.983" y="1.978" width="59.997" height="59.997" ry="29.998" fill="url(#b)"/><path d="m37.064 61.793 24.801-24.801c-12.749 2.04-22.761 12.052-24.801 24.801z" filter="url(#c)" opacity=".15"/><path d="M31.98 1.978c-16.619 0-29.998 13.38-29.998 29.998S15.361 61.975 31.98 61.975h.002a30.43 30.43 0 0 0 4.81-.385l24.801-24.801a30.45 30.45 0 0 0 .387-4.813A29.932 29.932 0 0 0 31.982 1.978h-.002z" fill="url(#d)"/><path d="m36.115 61.454 24.801-24.801c-12.749 2.04-22.761 12.052-24.801 24.801z" filter="url(#e)" opacity=".05"/><path d="m36.793 61.59 24.801-24.801c-12.749 2.04-22.761 12.052-24.801 24.801z" fill="url(#f)"/><path d="M37.439 40.627c-.806.752-14.211 4.963-11.412-8.197 2.663-9.266 9.62-7.463 11.177-7.409 1.558.055 5.37 2.527 5.37 2.527s-.588-5.48-6.013-6.449c0 0 5.507-1.367 11.44 7.419 0 0-.399-10.932-10.498-12.065-12.436-1.214-18.242 8.721-18.242 8.721S9.397 39.647 23.98 46.396c13.106 4.357 18.08-4.048 18.08-4.048s4.084-5.316.434-12.463c0 0-.081 2.337-1.666 3.062 0 0 .081-2.337-2.228-3.198 0 0 .507 7.817-8.034 6.739 0 0 2.2 3.976 6.874 4.14z" filter="url(#g)" opacity=".15"/><path d="M37.439 40.627c-.806.752-14.211 4.963-11.412-8.197 2.663-9.266 9.62-7.463 11.177-7.409 1.558.055 5.37 2.527 5.37 2.527s-.588-5.48-6.013-6.449c0 0 5.507-1.367 11.44 7.419 0 0-.399-10.932-10.498-12.065-12.436-1.214-18.242 8.721-18.242 8.721S9.397 39.647 23.98 46.396c13.106 4.357 18.08-4.048 18.08-4.048s4.084-5.316.434-12.463c0 0-.081 2.337-1.666 3.062 0 0 .081-2.337-2.228-3.198 0 0 .507 7.817-8.034 6.739 0 0 2.2 3.976 6.874 4.14z" fill="#fff"/></svg>