<svg xmlns="http://www.w3.org/2000/svg" width="64" height="64"><defs><linearGradient id="a" x1="7.937" x2="7.937" y1="15.081" y2="1.852" gradientTransform="translate(0 .032)scale(3.7795)" gradientUnits="userSpaceOnUse"><stop offset="0" stop-color="#1fe0aa"/><stop offset="1" stop-color="#b2ff85"/></linearGradient><filter id="b" width="1.302" height="1.287" x="-.151" y="-.143" style="color-interpolation-filters:sRGB"><feGaussianBlur stdDeviation="19.623"/></filter></defs><rect width="60" height="60" x="2" y="2" fill="url(#a)" rx="30" ry="30" style="display:inline"/><g style="opacity:.25;fill:#000;fill-opacity:1;filter:url(#b)" transform="translate(-2.72 2.087)scale(.13563)"><path d="M174.491 314.574c-2.519-4.318-6.477-7.737-11.515-10.436-5.218-2.519-10.796-3.958-16.734-3.958-13.495 0-24.65 3.958-33.287 12.055-8.637 8.277-12.955 19.613-12.955 34.367 0 15.114 4.138 26.81 12.595 35.087 8.457 8.276 19.433 12.235 33.107 12.055q8.097 0 16.734-4.318 8.367-4.05 11.875-11.336v12.955h21.772V302.34h-21.772Zm-26.45 5.218c6.658 0 12.236 1.98 16.734 5.578 4.498 3.779 7.197 8.277 8.277 13.495 1.08 5.398 1.08 10.616 0 15.834s-3.779 9.716-8.277 13.315c-4.498 3.778-10.076 5.578-16.733 5.578-7.558 0-13.675-2.34-18.713-7.197-5.038-4.859-7.557-11.516-7.557-19.793s2.519-14.754 7.557-19.612c5.038-4.679 11.155-7.198 18.713-7.198M261.759 300c-5.398 0-10.256.9-14.215 2.519-4.138 1.8-7.737 5.038-10.795 10.076V302.34h-21.952v88.706h21.952v-46.782c0-7.557 2.519-13.135 7.557-16.913 5.038-3.6 10.796-5.578 17.453-5.578zm92.485 91.045v-47.502c0-6.117 1.619-11.155 5.218-15.474q5.397-6.477 14.034-6.477c5.578 0 9.717 2.159 12.415 6.117 2.88 3.959 4.139 9.177 4.139 15.474v47.862H412v-47.862c0-13.494-3.058-23.93-9.356-31.128-6.298-7.197-15.654-10.975-28.25-10.975q-19.431 0-29.688 16.193c-4.498-10.975-13.315-16.553-26.27-16.553-4.678 0-9.356 1.08-13.674 3.059q-6.478 2.969-9.717 9.176l.18-10.796h-22.131v88.886h21.951v-47.502c0-6.117 1.8-11.335 5.218-15.654s7.917-6.657 13.675-6.657q8.637 0 13.495 6.477c3.239 4.319 4.678 9.717 4.678 15.834v47.502z" aria-label="arm" style="font-weight:700;font-size:179.931px;line-height:10;font-family:&quot;Vice City Sans Bold&quot;;-inkscape-font-specification:&quot;Vice City Sans Bold, Bold&quot;;text-align:center;text-anchor:middle;fill:#000;fill-opacity:1;stroke-width:.499278;stroke-linecap:round;stroke-linejoin:round"/><path d="M294.486 261.914c8.473 2.26 17.511 3.39 27.397 3.39q39.823 0 63.548-24.572c15.534-16.382 23.442-37.565 23.442-63.831V63.644h-37.281V176.9c0 15.816-4.237 28.808-12.71 38.694-8.473 9.885-20.9 14.686-37 14.686-11.014 0-20.052-1.694-27.396-5.366v37.564-.282z" aria-label="J" style="font-weight:700;font-size:282.437px;line-height:10;font-family:&quot;Vice City Sans Bold&quot;;-inkscape-font-specification:&quot;Vice City Sans Bold, Bold&quot;;text-align:center;text-anchor:middle;fill:#000;fill-opacity:1;stroke-width:6.76508;stroke-linecap:round;stroke-linejoin:round" transform="scale(.97913 1.02131)"/></g><path d="M174.491 314.574c-2.519-4.318-6.477-7.737-11.515-10.436-5.218-2.519-10.796-3.958-16.734-3.958-13.495 0-24.65 3.958-33.287 12.055-8.637 8.277-12.955 19.613-12.955 34.367 0 15.114 4.138 26.81 12.595 35.087 8.457 8.276 19.433 12.235 33.107 12.055q8.097 0 16.734-4.318 8.367-4.05 11.875-11.336v12.955h21.772V302.34h-21.772Zm-26.45 5.218c6.658 0 12.236 1.98 16.734 5.578 4.498 3.779 7.197 8.277 8.277 13.495 1.08 5.398 1.08 10.616 0 15.834s-3.779 9.716-8.277 13.315c-4.498 3.778-10.076 5.578-16.733 5.578-7.558 0-13.675-2.34-18.713-7.197-5.038-4.859-7.557-11.516-7.557-19.793s2.519-14.754 7.557-19.612c5.038-4.679 11.155-7.198 18.713-7.198M261.759 300c-5.398 0-10.256.9-14.215 2.519-4.138 1.8-7.737 5.038-10.795 10.076V302.34h-21.952v88.706h21.952v-46.782c0-7.557 2.519-13.135 7.557-16.913 5.038-3.6 10.796-5.578 17.453-5.578zm92.485 91.045v-47.502c0-6.117 1.619-11.155 5.218-15.474q5.397-6.477 14.034-6.477c5.578 0 9.717 2.159 12.415 6.117 2.88 3.959 4.139 9.177 4.139 15.474v47.862H412v-47.862c0-13.494-3.058-23.93-9.356-31.128-6.298-7.197-15.654-10.975-28.25-10.975q-19.431 0-29.688 16.193c-4.498-10.975-13.315-16.553-26.27-16.553-4.678 0-9.356 1.08-13.674 3.059q-6.478 2.969-9.717 9.176l.18-10.796h-22.131v88.886h21.951v-47.502c0-6.117 1.8-11.335 5.218-15.654s7.917-6.657 13.675-6.657q8.637 0 13.495 6.477c3.239 4.319 4.678 9.717 4.678 15.834v47.502z" aria-label="arm" style="font-weight:700;font-size:179.931px;line-height:10;font-family:&quot;Vice City Sans Bold&quot;;-inkscape-font-specification:&quot;Vice City Sans Bold, Bold&quot;;text-align:center;text-anchor:middle;fill:#fff;stroke-width:.499278;stroke-linecap:round;stroke-linejoin:round" transform="translate(-2.72 .73)scale(.13563)"/><path d="M294.486 261.914c8.473 2.26 17.511 3.39 27.397 3.39q39.823 0 63.548-24.572c15.534-16.382 23.442-37.565 23.442-63.831V63.644h-37.281V176.9c0 15.816-4.237 28.808-12.71 38.694-8.473 9.885-20.9 14.686-37 14.686-11.014 0-20.052-1.694-27.396-5.366v37.564-.282z" aria-label="J" style="font-weight:700;font-size:282.437px;line-height:10;font-family:&quot;Vice City Sans Bold&quot;;-inkscape-font-specification:&quot;Vice City Sans Bold, Bold&quot;;text-align:center;text-anchor:middle;fill:#fff;stroke-width:6.76508;stroke-linecap:round;stroke-linejoin:round" transform="matrix(.1328 0 0 .13852 -2.72 .73)"/></svg>