<svg xmlns="http://www.w3.org/2000/svg" xmlns:xlink="http://www.w3.org/1999/xlink" width="64" height="64" enable-background="new 0 0 1024 1024" image-rendering="optimizeSpeed"><defs><linearGradient id="a"><stop offset="0"/><stop offset="1" stop-opacity="0"/></linearGradient><linearGradient id="c" x1="519.68" x2="519.68" y1="2.826" y2="1026.1" gradientTransform="translate(-.03 -.819) scale(1.0007)" gradientUnits="userSpaceOnUse"><stop offset="0" stop-color="#d7d7d7"/><stop offset=".5" stop-color="#faf8f6"/><stop offset="1" stop-color="#fff"/></linearGradient><linearGradient id="f" x1="31.989" x2="31.967" y1="45.992" y2="18.279" gradientUnits="userSpaceOnUse"><stop offset="0" stop-color="#b14de5"/><stop offset="1" stop-color="#58b1fe"/></linearGradient><linearGradient xlink:href="#a" id="p" x1="22.379" x2="25.662" y1="39.058" y2="39.058" gradientUnits="userSpaceOnUse"/><linearGradient xlink:href="#a" id="o" x1="37.506" x2="43.432" y1="35.746" y2="35.746" gradientUnits="userSpaceOnUse"/><linearGradient xlink:href="#a" id="n" x1="31.584" x2="41.135" y1="27.973" y2="27.973" gradientUnits="userSpaceOnUse"/><linearGradient xlink:href="#a" id="m" x1="43.43" x2="48" y1="34.732" y2="34.732" gradientUnits="userSpaceOnUse"/><linearGradient xlink:href="#a" id="l" x1="22.865" x2="32.521" y1="20.433" y2="20.433" gradientUnits="userSpaceOnUse"/><linearGradient xlink:href="#a" id="k" x1="16" x2="25.662" y1="27.005" y2="27.005" gradientUnits="userSpaceOnUse"/><linearGradient xlink:href="#a" id="j" x1="31.584" x2="41.135" y1="23.394" y2="23.394" gradientUnits="userSpaceOnUse"/><linearGradient xlink:href="#a" id="i" x1="25.662" x2="37.506" y1="34.403" y2="34.403" gradientUnits="userSpaceOnUse"/><linearGradient xlink:href="#a" id="h" x1="16" x2="25.662" y1="35.674" y2="35.674" gradientUnits="userSpaceOnUse"/><linearGradient xlink:href="#a" id="g" x1="25.661" x2="31.584" y1="26.826" y2="26.826" gradientUnits="userSpaceOnUse"/><filter id="d" width="1.072" height="1.072" x="-.036" y="-.036" color-interpolation-filters="sRGB"><feGaussianBlur stdDeviation=".755"/></filter><filter id="b" width="1.072" height="1.072" x="-.036" y="-.036" color-interpolation-filters="sRGB"><feGaussianBlur stdDeviation="14.17"/></filter><filter id="e" width="1.12" height="1.12" x="-.06" y="-.06" color-interpolation-filters="sRGB"><feGaussianBlur stdDeviation=".8"/></filter></defs><path d="M970.43 391.52a514.995 514.995 0 0 0-3.653-13.61c-1-3.403-2.001-6.855-3.152-10.508a421.479 421.479 0 0 0-5.304-15.862c-6.455-18.263-14.16-36.076-23.167-53.689a475.424 475.424 0 0 0-12.309-22.416c-20.315-34.525-45.833-67.249-76.406-97.821-72.653-72.653-157.26-116.74-253.84-132.15a484.051 484.051 0 0 0-50.087-5.354c-9.707-.55-19.865-.85-30.122-.85-9.357 0-18.614.25-27.92.75-118.44 6.105-220.46 51.988-306.07 137.6Q40.05 315.96 40.05 511.6c0 130.45 46.134 241.83 138.35 334.04 56.741 56.691 120.64 95.97 191.24 117.64 36.777 11.258 74.855 17.863 114.83 19.965h.4c8.507.45 16.612.7 24.518.7h3.003a583.3 583.3 0 0 0 30.122-.8c2.501-.15 4.753-.3 6.955-.45 20.215-1.451 39.929-4.053 58.743-7.706a519.823 519.823 0 0 0 23.417-5.154c80.859-20.315 152.26-61.645 214.81-124.19 48.636-48.636 84.462-102.57 107.43-161.92 18.463-47.685 28.67-98.872 30.572-153.61.2-6.054.3-12.259.3-18.514V508.6c-.2-40.68-4.954-79.558-14.31-117.09z" filter="url(#b)" opacity=".25" transform="translate(-.544 -.493) scale(.06351)"/><path fill="url(#c)" d="M970.43 391.52a514.995 514.995 0 0 0-3.653-13.61c-1-3.403-2.001-6.855-3.152-10.508a421.479 421.479 0 0 0-5.304-15.862c-6.455-18.263-14.16-36.076-23.167-53.689a475.424 475.424 0 0 0-12.309-22.416c-20.315-34.525-45.833-67.249-76.406-97.821-72.653-72.653-157.26-116.74-253.84-132.15a484.051 484.051 0 0 0-50.087-5.354c-9.707-.55-19.865-.85-30.122-.85-9.357 0-18.614.25-27.92.75-118.44 6.105-220.46 51.988-306.07 137.6Q40.05 315.96 40.05 511.6c0 130.45 46.134 241.83 138.35 334.04 56.741 56.691 120.64 95.97 191.24 117.64 36.777 11.258 74.855 17.863 114.83 19.965h.4c8.507.45 16.612.7 24.518.7h3.003a583.3 583.3 0 0 0 30.122-.8c2.501-.15 4.753-.3 6.955-.45 20.215-1.451 39.929-4.053 58.743-7.706a519.823 519.823 0 0 0 23.417-5.154c80.859-20.315 152.26-61.645 214.81-124.19 48.636-48.636 84.462-102.57 107.43-161.92 18.463-47.685 28.67-98.872 30.572-153.61.2-6.054.3-12.259.3-18.514V508.6c-.2-40.68-4.954-79.558-14.31-117.09z" transform="translate(-.544 -.493) scale(.06351)"/><g stroke-width="15.683" filter="url(#d)" opacity=".2" transform="translate(15.898 16.787) scale(.64656)"/><path d="M22.866 17v15.355H16L32 49l16-16.645h-6.866V17z" filter="url(#e)" opacity=".15"/><g stroke-width=".37"><path fill="url(#f)" d="M22.865 17v15.355H16L32 49l16-16.645h-6.865V17z"/><path fill="url(#g)" d="m25.661 23.865 5.922-5.922v11.845l-5.922 5.922z" opacity=".15"/><path fill="url(#h)" d="m16 32.355 6.379 6.637 3.283-3.284-3.283-3.353z" opacity=".15"/><path fill="url(#i)" d="M37.467 23.775 25.662 35.709v6.697l2.523 2.625 9.32-9.322z" opacity=".15"/><path fill="url(#j)" d="m32.527 17-.943.943v11.844l9.55-9.55V17z" opacity=".15"/><path fill="url(#k)" d="M22.865 21.057v5.606l2.797-2.797zM16 32.356l.574.598.596-.598z" opacity=".15"/><path fill="url(#l)" d="M22.865 17v4.068l2.797 2.797L32.522 17z" opacity=".15"/><path fill="url(#m)" d="M43.43 32.355v4.754l3.232-3.361.354-.37.984-1.023h-2.73z" opacity=".15"/><path fill="url(#n)" d="m41.135 20.236-9.55 9.55 5.921 5.923 3.629-3.63z" opacity=".15"/><path fill="url(#o)" d="m41.135 32.08-3.629 3.629 3.711 3.703 2.215-2.305-.002-4.752h-2.295z" opacity=".15"/><path fill="url(#p)" d="m25.662 35.709-3.283 3.283 3.283 3.414z" opacity=".15"/></g></svg>