<svg xmlns="http://www.w3.org/2000/svg" width="64" height="64" image-rendering="optimizeSpeed"><defs><linearGradient id="d" x1="11.993" x2="11.993" y1="15.289" y2="8.384" gradientTransform="translate(0 1) scale(3.7796)" gradientUnits="userSpaceOnUse"><stop offset="0" stop-color="#2e2e2e"/><stop offset="1" stop-color="#5c5c5c"/></linearGradient><linearGradient id="f" x1="2331.3" x2="2331.3" y1="435.51" y2="45.726" gradientTransform="translate(-134.88 27.286) scale(.07774)" gradientUnits="userSpaceOnUse"><stop offset=".058" stop-color="#807c76"/><stop offset=".385" stop-color="#d4d7d0"/><stop offset=".558" stop-color="#bdbfba"/><stop offset=".635" stop-color="#acb3ac"/><stop offset=".75" stop-color="#dadfda"/><stop offset=".863" stop-color="#c2c7c1"/><stop offset=".941" stop-color="#7f7a75"/></linearGradient><linearGradient id="g" x1="25" x2="25" y1="50" y2="15" gradientUnits="userSpaceOnUse"><stop offset="0" stop-color="#ff0f2f"/><stop offset="1" stop-color="#ff8585"/></linearGradient><linearGradient id="b" x1="33.27" x2="33.27" y1="5.514" y2="62.082" gradientTransform="translate(-3.288 -3.848) scale(1.0607)" gradientUnits="userSpaceOnUse"><stop offset="0" stop-color="#eee"/><stop offset="1" stop-color="#fbfbf5"/></linearGradient><filter id="e" width="1.216" height="1.216" x="-.108" y="-.108" color-interpolation-filters="sRGB"><feGaussianBlur stdDeviation="1.08"/></filter><filter id="a" width="1.072" height="1.072" x="-.036" y="-.036" color-interpolation-filters="sRGB"><feGaussianBlur stdDeviation="14.17"/></filter><radialGradient id="c" cx="12.171" cy="12.171" r="4.762" gradientTransform="scale(3.7796)" gradientUnits="userSpaceOnUse"><stop offset="0"/><stop offset="1" stop-opacity="0"/></radialGradient></defs><path d="M970.43 391.52a515 515 0 0 0-3.653-13.61c-1-3.403-2.001-6.855-3.152-10.508a421.48 421.48 0 0 0-5.304-15.862c-6.455-18.263-14.16-36.076-23.167-53.689a475.42 475.42 0 0 0-12.309-22.416c-20.315-34.525-45.833-67.249-76.406-97.821-72.653-72.653-157.26-116.74-253.84-132.15a484.05 484.05 0 0 0-50.087-5.354c-9.707-.55-19.865-.85-30.122-.85-9.357 0-18.614.25-27.92.75-118.44 6.105-220.46 51.988-306.07 137.6Q40.05 315.96 40.05 511.6c0 130.45 46.134 241.83 138.35 334.04 56.741 56.691 120.64 95.97 191.24 117.64 36.777 11.258 74.855 17.863 114.83 19.965h.4c8.507.45 16.612.7 24.518.7h3.003a583.3 583.3 0 0 0 30.122-.8c2.501-.15 4.753-.3 6.955-.45 20.215-1.451 39.929-4.053 58.743-7.706a519.82 519.82 0 0 0 23.417-5.154c80.859-20.315 152.26-61.645 214.81-124.19 48.636-48.636 84.462-102.57 107.43-161.92 18.463-47.685 28.67-98.872 30.572-153.61.2-6.054.3-12.259.3-18.514V508.6c-.2-40.68-4.954-79.558-14.31-117.09z" filter="url(#a)" opacity=".25" transform="translate(-.544 -.493) scale(.06351)"/><circle cx="32" cy="32" r="30" fill="url(#b)" fill-rule="evenodd" style="paint-order:normal"/><circle cx="46.002" cy="46.002" r="18" fill="url(#c)"/><circle cx="46.002" cy="46.002" r="16" fill="url(#d)"/><path d="m52.527 36.694-.501 1.34a.243.243 0 0 0 .074.26l.59.452a.246.246 0 0 0 .272.004l1.163-.83a.207.207 0 0 1 .259.022l.487.487a.206.206 0 0 1 .022.258l-.83 1.163a.243.243 0 0 0 .004.272l.453.59a.245.245 0 0 0 .26.074l1.339-.501a.206.206 0 0 1 .243.088l.345.596a.205.205 0 0 1-.046.255l-1.104.909a.242.242 0 0 0-.066.264l.283.686c.035.084.14.149.234.14l1.423-.138a.207.207 0 0 1 .213.147l.178.666a.205.205 0 0 1-.11.234l-1.302.592a.242.242 0 0 0-.132.238l.097.736c.011.09.097.18.19.196l1.41.234a.207.207 0 0 1 .167.198v.689a.205.205 0 0 1-.167.197l-1.409.235a.241.241 0 0 0-.189.195l-.096.737a.247.247 0 0 0 .132.238l1.3.592a.208.208 0 0 1 .11.234l-.178.665a.206.206 0 0 1-.213.148l-1.422-.138a.242.242 0 0 0-.233.14l-.285.687a.244.244 0 0 0 .066.263l1.104.909c.072.06.093.173.045.255l-.344.596a.206.206 0 0 1-.244.088l-1.34-.501a.243.243 0 0 0-.26.074l-.452.59a.246.246 0 0 0-.004.273l.83 1.163a.207.207 0 0 1-.022.258l-.487.487a.206.206 0 0 1-.258.022l-1.163-.83a.243.243 0 0 0-.272.004l-.59.453a.245.245 0 0 0-.075.261l.502 1.338a.206.206 0 0 1-.088.243l-.596.345a.205.205 0 0 1-.255-.046l-.91-1.104a.242.242 0 0 0-.263-.066l-.686.284a.246.246 0 0 0-.14.233l.138 1.423a.207.207 0 0 1-.147.214l-.666.178a.205.205 0 0 1-.234-.11l-.592-1.303a.242.242 0 0 0-.238-.132l-.736.097a.245.245 0 0 0-.196.19l-.234 1.41a.207.207 0 0 1-.198.167h-.689a.205.205 0 0 1-.197-.167l-.235-1.409a.241.241 0 0 0-.195-.189l-.737-.096a.247.247 0 0 0-.238.132l-.592 1.3a.208.208 0 0 1-.234.11l-.665-.178a.206.206 0 0 1-.148-.213l.138-1.422a.242.242 0 0 0-.14-.233l-.687-.285a.244.244 0 0 0-.263.066l-.91 1.104a.207.207 0 0 1-.254.046l-.596-.345a.206.206 0 0 1-.088-.244l.501-1.34a.243.243 0 0 0-.074-.26l-.59-.452a.246.246 0 0 0-.273-.004l-1.163.83a.207.207 0 0 1-.258-.021l-.487-.488a.206.206 0 0 1-.022-.258l.83-1.162a.243.243 0 0 0-.004-.272l-.453-.59a.245.245 0 0 0-.261-.075l-1.338.501a.206.206 0 0 1-.244-.088l-.344-.596a.205.205 0 0 1 .046-.255l1.104-.909a.242.242 0 0 0 .066-.263l-.284-.687a.246.246 0 0 0-.233-.14l-1.423.139a.207.207 0 0 1-.213-.148l-.179-.666a.205.205 0 0 1 .11-.234l1.303-.592a.242.242 0 0 0 .132-.238l-.097-.736a.245.245 0 0 0-.19-.195l-1.41-.235a.207.207 0 0 1-.167-.197v-.69c0-.095.075-.182.167-.197l1.409-.235a.241.241 0 0 0 .189-.195l.096-.737a.247.247 0 0 0-.132-.238l-1.3-.591a.208.208 0 0 1-.11-.234l.178-.666a.206.206 0 0 1 .213-.148l1.422.138a.242.242 0 0 0 .233-.14l.285-.686a.244.244 0 0 0-.066-.264l-1.104-.909a.207.207 0 0 1-.046-.255l.345-.596a.206.206 0 0 1 .244-.088l1.34.502a.242.242 0 0 0 .26-.075l.452-.59a.246.246 0 0 0 .004-.272l-.83-1.163a.207.207 0 0 1 .022-.258l.487-.488a.206.206 0 0 1 .258-.022l1.162.83a.243.243 0 0 0 .273-.004l.59-.453a.245.245 0 0 0 .074-.26l-.501-1.339a.206.206 0 0 1 .088-.243l.596-.345a.205.205 0 0 1 .255.046l.909 1.104a.24.24 0 0 0 .263.066l.687-.283a.246.246 0 0 0 .14-.234l-.139-1.423a.207.207 0 0 1 .148-.213l.666-.178a.205.205 0 0 1 .234.11l.592 1.302a.242.242 0 0 0 .238.133l.736-.098a.245.245 0 0 0 .195-.19l.235-1.41a.207.207 0 0 1 .198-.167h.688c.096 0 .183.075.198.167l.235 1.41a.241.241 0 0 0 .195.188l.737.096a.247.247 0 0 0 .238-.132l.591-1.3a.208.208 0 0 1 .234-.11l.666.178c.092.025.157.12.148.213l-.138 1.422a.242.242 0 0 0 .14.233l.686.286a.244.244 0 0 0 .264-.067l.909-1.104a.207.207 0 0 1 .255-.045l.596.344c.083.048.12.156.088.244zm-2.283 2.854a8.199 8.199 0 0 0-6.135-.85c-.386.097-.16.044-.16.044-.537.183-.752.738-.48 1.232 0 0-.157-.285.012.022l2.413 4.403c.364.663 1.273 1.19 2.03 1.174l5.35-.112c.33-.007 0 0 0 0 .548-.011.905-.473.785-.99a8.202 8.202 0 0 0-3.814-4.923zm-.134 14.318a8.2 8.2 0 0 0 3.889-4.822c.115-.381.044-.16.044-.16.12-.555-.245-1.024-.809-1.046l-.025-.001-5.016-.2c-.756-.03-1.675.479-2.052 1.137l-2.66 4.642c-.164.288 0 0 0 0-.272.476-.06 1.02.445 1.184 0 0-.319-.089 0 0a8.2 8.2 0 0 0 6.184-.734zm-9.733-1.31c.394.355.972.267 1.248-.208 0 0-.166.287 0 0l2.69-4.624c.38-.655.362-1.705-.042-2.345l-2.68-4.245c-.188-.296-.014-.021-.014-.021-.3-.477-.89-.558-1.31-.177 0 0 .156-.172-.117.119a8.203 8.203 0 0 0-2.23 5.778 8.199 8.199 0 0 0 2.456 5.722z" class="shp86" filter="url(#e)" opacity=".5"/><path fill="url(#f)" d="m52.527 36.023-.501 1.34a.243.243 0 0 0 .074.26l.59.452a.246.246 0 0 0 .272.004l1.163-.83a.207.207 0 0 1 .259.022l.487.487a.206.206 0 0 1 .022.258l-.83 1.163a.243.243 0 0 0 .004.272l.453.59a.245.245 0 0 0 .26.074l1.339-.501a.206.206 0 0 1 .243.088l.345.596a.205.205 0 0 1-.046.255l-1.104.909a.242.242 0 0 0-.066.264l.283.686c.035.084.14.149.234.14l1.423-.138a.207.207 0 0 1 .213.147l.178.666a.205.205 0 0 1-.11.234l-1.302.592a.242.242 0 0 0-.132.238l.097.736c.011.09.097.18.19.196l1.41.234a.207.207 0 0 1 .167.198v.689a.205.205 0 0 1-.167.197l-1.409.235a.241.241 0 0 0-.189.195l-.096.737a.247.247 0 0 0 .132.238l1.3.592a.208.208 0 0 1 .11.234l-.178.665a.206.206 0 0 1-.213.148l-1.422-.138a.242.242 0 0 0-.233.14l-.285.687a.244.244 0 0 0 .066.263l1.104.909c.072.06.093.173.045.255l-.344.596a.206.206 0 0 1-.244.088l-1.34-.501a.243.243 0 0 0-.26.074l-.452.59a.246.246 0 0 0-.004.273l.83 1.163a.207.207 0 0 1-.022.258l-.487.487a.206.206 0 0 1-.258.022l-1.163-.83a.243.243 0 0 0-.272.004l-.59.453a.245.245 0 0 0-.075.261l.502 1.338a.206.206 0 0 1-.088.243l-.596.345a.205.205 0 0 1-.255-.046l-.91-1.104a.242.242 0 0 0-.263-.066l-.686.284a.246.246 0 0 0-.14.233l.138 1.423a.207.207 0 0 1-.147.214l-.666.178a.205.205 0 0 1-.234-.11l-.592-1.303a.242.242 0 0 0-.238-.132l-.736.097a.245.245 0 0 0-.196.19l-.234 1.41a.207.207 0 0 1-.198.167h-.689a.205.205 0 0 1-.197-.167l-.235-1.409a.241.241 0 0 0-.195-.189l-.737-.096a.247.247 0 0 0-.238.132l-.592 1.3a.208.208 0 0 1-.234.11l-.665-.178a.206.206 0 0 1-.148-.213l.138-1.422a.242.242 0 0 0-.14-.233l-.687-.285a.244.244 0 0 0-.263.066l-.91 1.104a.207.207 0 0 1-.254.046l-.596-.345a.206.206 0 0 1-.088-.244l.501-1.34a.243.243 0 0 0-.074-.26l-.59-.452a.246.246 0 0 0-.273-.004l-1.163.83a.207.207 0 0 1-.258-.021l-.487-.488a.206.206 0 0 1-.022-.258l.83-1.162a.243.243 0 0 0-.004-.272l-.453-.59a.245.245 0 0 0-.261-.075l-1.338.501a.206.206 0 0 1-.244-.088l-.344-.596a.205.205 0 0 1 .046-.255l1.104-.909a.242.242 0 0 0 .066-.263l-.284-.687a.246.246 0 0 0-.233-.14l-1.423.139a.207.207 0 0 1-.213-.148l-.179-.666a.205.205 0 0 1 .11-.234l1.303-.592a.242.242 0 0 0 .132-.238l-.097-.736a.245.245 0 0 0-.19-.195l-1.41-.235a.207.207 0 0 1-.167-.197v-.69c0-.095.075-.182.167-.197l1.409-.235a.241.241 0 0 0 .189-.195l.096-.737a.247.247 0 0 0-.132-.238l-1.3-.591a.208.208 0 0 1-.11-.234l.178-.666a.206.206 0 0 1 .213-.148l1.422.138a.242.242 0 0 0 .233-.14l.285-.686a.244.244 0 0 0-.066-.264l-1.104-.909a.207.207 0 0 1-.046-.255l.345-.596a.206.206 0 0 1 .244-.088l1.34.502a.242.242 0 0 0 .26-.075l.452-.59a.246.246 0 0 0 .004-.272l-.83-1.163a.207.207 0 0 1 .022-.258l.487-.488a.206.206 0 0 1 .258-.022l1.162.83a.243.243 0 0 0 .273-.004l.59-.453a.245.245 0 0 0 .074-.26l-.501-1.339a.206.206 0 0 1 .088-.243l.596-.345a.205.205 0 0 1 .255.046l.909 1.104a.24.24 0 0 0 .263.066l.687-.283a.246.246 0 0 0 .14-.234l-.139-1.423a.207.207 0 0 1 .148-.213l.666-.178a.205.205 0 0 1 .234.11l.592 1.302a.242.242 0 0 0 .238.133l.736-.098a.245.245 0 0 0 .195-.19l.235-1.41a.207.207 0 0 1 .198-.167h.688c.096 0 .183.075.198.167l.235 1.41a.241.241 0 0 0 .195.188l.737.096a.247.247 0 0 0 .238-.132l.591-1.3a.208.208 0 0 1 .234-.11l.666.178c.092.025.157.12.148.213l-.138 1.422a.242.242 0 0 0 .14.233l.686.286a.244.244 0 0 0 .264-.067l.909-1.104a.207.207 0 0 1 .255-.045l.596.344c.083.048.12.156.088.244zm-2.283 2.854a8.199 8.199 0 0 0-6.135-.85c-.386.097-.16.044-.16.044-.537.183-.752.738-.48 1.232 0 0-.157-.285.012.022l2.413 4.403c.364.663 1.273 1.19 2.03 1.174l5.35-.112c.33-.007 0 0 0 0 .548-.011.905-.473.785-.99a8.202 8.202 0 0 0-3.814-4.923zm-.134 14.318a8.2 8.2 0 0 0 3.889-4.822c.115-.381.044-.16.044-.16.12-.555-.245-1.024-.809-1.046l-.025-.001-5.016-.2c-.756-.03-1.675.479-2.052 1.137l-2.66 4.642c-.164.288 0 0 0 0-.272.476-.06 1.02.445 1.184 0 0-.319-.089 0 0a8.2 8.2 0 0 0 6.184-.734zm-9.733-1.31c.394.355.972.267 1.248-.208 0 0-.166.287 0 0l2.69-4.624c.38-.655.362-1.705-.042-2.345l-2.68-4.245c-.188-.296-.014-.021-.014-.021-.3-.477-.89-.558-1.31-.177 0 0 .156-.172-.117.119a8.203 8.203 0 0 0-2.23 5.778 8.199 8.199 0 0 0 2.456 5.722z" class="shp86"/><path fill="url(#g)" d="M21 16h20v7.5H26v5h7.5v5H26v15h-5z"/></svg>