<svg xmlns="http://www.w3.org/2000/svg" xmlns:xlink="http://www.w3.org/1999/xlink" width="64" height="64" enable-background="new 0 0 1024 1024" image-rendering="optimizeSpeed"><defs><filter id="c" width="1.072" height="1.072" x="-.036" y="-.036" color-interpolation-filters="sRGB"><feGaussianBlur stdDeviation=".755"/></filter><filter id="e" width="1.059" height="1.089" x="-.029" y="-.044" style="color-interpolation-filters:sRGB"><feGaussianBlur stdDeviation="6.261"/></filter><filter id="b" width="1.072" height="1.072" x="-.036" y="-.036" style="color-interpolation-filters:sRGB"><feGaussianBlur stdDeviation="14.137"/></filter><linearGradient id="a" x1="519.68" x2="519.68" y1="2.826" y2="1026.1" gradientTransform="matrix(1.0007 0 0 -1.0007 -.03 1024.024)" gradientUnits="userSpaceOnUse" spreadMethod="pad"><stop offset="0" stop-color="#d7d7d7" style="stop-color:#d7d7d7;stop-opacity:1"/><stop offset=".5" stop-color="#faf8f6"/><stop offset="1" stop-color="#fff" style="stop-color:#fff;stop-opacity:1"/></linearGradient><linearGradient xlink:href="#a" id="d" x1="121.766" x2="417.432" y1="178.91" y2="178.91" gradientTransform="matrix(3.19512 0 0 4.22212 -1373.006 -242.985)" gradientUnits="userSpaceOnUse"/></defs><g transform="translate(-.544 -.493)scale(.06351)"><circle cx="-511.604" cy="512.395" r="472.344" style="opacity:.25;fill:#4d4d4d;fill-opacity:1;stroke-width:57.8291;filter:url(#b)" transform="rotate(-90)"/><g stroke-width="15.683" filter="url(#c)" opacity=".2" transform="translate(258.87 272.08)scale(10.18)"/><circle cx="-511.604" cy="512.395" r="472.344" style="opacity:1;fill:url(#d);fill-opacity:1;stroke-width:57.8291" transform="rotate(-90)"/></g><g style="opacity:.25;fill:#4d4d4d;fill-opacity:1;filter:url(#e)"><path d="M243.682 248.138c-14.3-.136-13.813-16.021-13.241-26.339-4.892-17.028 22.596-25.377 26.213-7.226-.403 11.9 4.957 32.647-12.972 33.565m0 119.173c-13.099-1.997-7.693-17.443-8.828-26.688.454-24.595-.914-49.372.693-73.852 12.477-15.348 19.94 6.49 16.963 17.724-.455 25.786.915 51.754-.693 77.424-1.314 3.207-4.66 5.445-8.135 5.392m0-145.656c-7.67-4.145-10.286-14.441-15.732-21.257-10.82-17.744-22.466-35.078-32.765-53.079 4.055-12.697 12.596 3.57 15.673 9.077l32.824 52.518c13.966-21.895 27.174-44.376 41.609-65.908 13.18-1.902 2.295 12.895-1.303 18.072-12.86 19.895-24.59 40.713-38.164 60.024zm0 13.387c57.834 8.081 116.497 7.551 174.78 8.591 19.56-.59 30.713-18.872 36.545-35.311 17.261-39.177 37.307-78.162 44.575-120.69 1.312-26.98-34.21-20.215-49.616-12.17-55.392 25.083-101.735 65.788-147.53 104.982-20.03 17.712-39.677 35.863-58.754 54.598m4.966.406 138.483 3.862c24.927 11.764 51.573 31.31 53.142 61.287 5.331 44.948-27.497 88.558-70.65 99.855-19.203 5.115-42.403 10.207-60.377-.946-25.602-26.132-38.95-61.346-54.397-93.917-4.59-12.535-14.029-24.534-9.82-38.384zM7.643 68.298c-28.105-1.382-19.753 32.77-12.928 48.91 13.453 38.711 29.686 76.683 48.841 112.847 13.762 18.896 38.84 12.793 58.777 13.218 47.15-1.42 94.608-1.233 141.349-8.232-56.477-53.933-114.633-107.525-182.05-147.615-16.742-9.12-34.547-18.459-53.99-19.128Zm231.073 167.15-138.483 3.862c-24.927 11.764-51.573 31.31-53.142 61.287-5.332 44.948 27.497 88.558 70.65 99.855 19.203 5.115 42.403 10.207 60.377-.946 25.602-26.132 38.95-61.346 54.396-93.917 4.59-12.535 14.03-24.534 9.82-38.384z" style="fill:#4d4d4d;fill-opacity:1" transform="matrix(.0721 0 0 .08746 14.42 13.253)"/></g><g style="display:inline" transform="matrix(.07031 0 0 .08529 47.064 -3.81)"><path d="m-216.345 437.297-138.483 3.862s-26.17 11.532-41.931 30.897c-12.874 15.816-21.333 58.115 8.828 97.103 27.007 34.91 82.759 44.69 105.93 35.31 25.877-10.473 70.622-123.585 70.622-123.585z" style="fill:#ffaa41"/><path d="m-214.381 454.529-1.963-17.231-138.483 3.862s-3.384 1.502-8.414 4.288c44.426 4.43 107.352 22.117 148.86 9.08z" style="fill:#be824b"/><path d="M-447.418 270.147c-3.79 0-7.267.512-10.4 1.594-4.067 1.408-9.561 6.254-9.561 15.08 0 26.874 34.464 102.23 51.916 138.666 5.886 12.29 18.236 20.085 31.839 20.085l.386-.002c39.686-.431 139.025-2.113 171.859-8.68 0 0-167.732-166.743-236.04-166.743z" style="fill:#594759"/><path d="M-383.624 427.918c-6.847 0-12.946-3.853-15.916-10.057l-.072-.15a116.7 116.7 0 0 1-10.157-33.102c-2.994-19.975-4.004-39.335-.898-43.373 5.103-6.635 28.043-6.187 53.258-2.03 5.798.957 11.29 3.253 15.948 6.836 27.488 21.148 55.873 45.468 80.948 68.438 3.719 3.406 1.553 9.622-3.481 9.913-30.48 1.766-71.61 3.004-119.63 3.525" style="fill:#ffaa41"/><circle cx="-427.655" cy="308.749" r="16.552" style="fill:#be824b"/><g transform="translate(-467.38 182.989)"><circle cx="75.123" cy="132.646" r="8.636" style="fill:#908490"/><circle cx="36.887" cy="160.397" r="6.952" style="fill:#908490"/></g><path d="M-376.896 527.78c-13.277-26.87-3.913-41.025-16.1-59.976-1.298 1.376-2.567 2.783-3.762 4.252-12.874 15.816-21.333 58.115 8.828 97.103 27.007 34.91 82.759 44.69 105.93 35.31 5.82-2.356 12.596-9.928 19.6-20.211-45.233 7.254-94.164-15.33-114.496-56.478" style="fill:#594759"/><path d="M-341.461 346.04c-4.658-3.582-10.15-5.878-15.948-6.834-21.9-3.612-42.046-4.41-50.32-.214 48.13 23.41 109.625 65.795 137.632 85.727 2.036-.11 4.152-.213 6.102-.327 5.035-.291 7.2-6.506 3.48-9.913-25.072-22.97-53.458-47.29-80.946-68.438z" style="fill:#be824b"/><path d="m-206.413 437.297 138.483 3.862S-41.761 452.69-26 472.056c12.875 15.816 21.334 58.115-8.827 97.103-27.007 34.91-82.76 44.69-105.931 35.31-25.876-10.473-70.621-123.585-70.621-123.585z" style="fill:#ffaa41"/><path d="m-208.377 454.529 1.963-17.231 138.483 3.862s3.384 1.502 8.414 4.288c-44.426 4.43-107.352 22.117-148.86 9.08z" style="fill:#be824b"/><path d="M-211.38 436.89c32.834 6.568 132.173 8.249 171.86 8.68q.193.003.386.003c13.603 0 25.953-7.795 31.839-20.085C10.157 389.053 44.62 313.696 44.62 286.822c0-8.828-5.494-13.674-9.564-15.081-3.132-1.082-6.61-1.594-10.4-1.594-68.304 0-236.036 166.744-236.036 166.744z" style="fill:#594759"/><path d="M-158.762 424.394c-5.035-.291-7.2-6.507-3.481-9.913 25.074-22.97 53.46-47.292 80.948-68.438 4.658-3.583 10.15-5.88 15.948-6.835 25.215-4.158 48.154-4.606 53.258 2.029 3.106 4.039 2.095 23.399-.898 43.373a116.7 116.7 0 0 1-10.157 33.103l-.072.149c-2.97 6.204-9.07 10.057-15.916 10.057-48.022-.522-89.153-1.76-119.63-3.525" style="fill:#ffaa41"/><circle cx="4.897" cy="308.749" r="16.552" style="fill:#be824b"/><g transform="translate(-467.38 182.989)"><circle cx="436.877" cy="132.646" r="8.636" style="fill:#908490"/><circle cx="475.112" cy="160.397" r="6.952" style="fill:#908490"/></g><path d="M-45.862 527.78c13.277-26.87 3.913-41.025 16.099-59.976 1.299 1.376 2.568 2.783 3.763 4.252 12.874 15.816 21.333 58.115-8.828 97.103-27.007 34.91-82.76 44.69-105.931 35.31-5.82-2.356-12.595-9.928-19.6-20.211 45.234 7.254 94.165-15.33 114.497-56.478" style="fill:#594759"/><path d="M-81.297 346.04c4.658-3.582 10.15-5.878 15.948-6.834 21.899-3.612 42.046-4.41 50.319-.214-48.13 23.41-109.624 65.795-137.631 85.727-2.036-.11-4.152-.213-6.102-.327-5.035-.291-7.2-6.506-3.481-9.913 25.073-22.97 53.459-47.29 80.947-68.438z" style="fill:#be824b"/><path d="M-211.38 423.504a4.4 4.4 0 0 1-3.741-2.073l-44.138-70.621a4.41 4.41 0 0 1 1.405-6.082c2.05-1.29 4.793-.672 6.078 1.4l40.397 64.635 40.396-64.633c1.302-2.073 4.043-2.69 6.078-1.401a4.41 4.41 0 0 1 1.405 6.082l-44.138 70.62a4.4 4.4 0 0 1-3.741 2.073z" style="fill:#908490"/><path d="M256 386.171a8.826 8.826 0 0 1-8.828-8.828v-88.276a8.826 8.826 0 0 1 8.828-8.828 8.826 8.826 0 0 1 8.828 8.828v88.276a8.826 8.826 0 0 1-8.828 8.828m0-119.173c-7.31 0-13.241-5.927-13.241-13.241v-17.655c0-7.315 5.931-13.241 13.241-13.241s13.241 5.927 13.241 13.241v17.655c0 7.315-5.931 13.241-13.241 13.241" style="fill:#463246" transform="translate(-467.38 182.989)"/><path d="M-211.38 480.884c-9.75 0-17.654-7.904-17.654-17.655v-17.655c0-9.751 7.904-17.655 17.655-17.655 9.75 0 17.655 7.904 17.655 17.655v17.655c0 9.75-7.904 17.655-17.655 17.655z" style="fill:#594759"/></g></svg>