<svg xmlns="http://www.w3.org/2000/svg" width="64" height="64"><defs><filter id="a" width="1.072" height="1.072" x="-.036" y="-.036" color-interpolation-filters="sRGB"><feGaussianBlur stdDeviation="14.17"/></filter><filter id="c" width="1.216" height="1.216" x="-.108" y="-.108" color-interpolation-filters="sRGB"><feGaussianBlur stdDeviation="2.43"/></filter><filter id="d" width="1.018" height="1.035" x="-.009" y="-.018" color-interpolation-filters="sRGB"><feGaussianBlur stdDeviation=".205"/></filter><filter id="e" width="1.149" height="1.396" x="-.074" y="-.198" color-interpolation-filters="sRGB"><feGaussianBlur stdDeviation=".99"/></filter><linearGradient id="b" x1="519.68" x2="519.68" y1="2.826" y2="1026.1" gradientTransform="translate(-.03 -.819)scale(1.0007)" gradientUnits="userSpaceOnUse"><stop offset="0" stop-color="#d7d7d7"/><stop offset=".5" stop-color="#faf8f6"/><stop offset="1" stop-color="#fff"/></linearGradient></defs><g stroke-width="15.695"><path d="M970.43 391.52a515 515 0 0 0-3.653-13.61c-1-3.403-2.001-6.855-3.152-10.508a422 422 0 0 0-5.304-15.862c-6.455-18.263-14.16-36.076-23.167-53.689a475 475 0 0 0-12.309-22.416c-20.315-34.525-45.833-67.249-76.406-97.821-72.653-72.653-157.26-116.74-253.84-132.15a484 484 0 0 0-50.087-5.354c-9.707-.55-19.865-.85-30.122-.85-9.357 0-18.614.25-27.92.75-118.44 6.105-220.46 51.988-306.07 137.6Q40.05 315.96 40.05 511.6c0 130.45 46.134 241.83 138.35 334.04 56.741 56.691 120.64 95.97 191.24 117.64 36.777 11.258 74.855 17.863 114.83 19.965h.4c8.507.45 16.612.7 24.518.7h3.003a583 583 0 0 0 30.122-.8c2.501-.15 4.753-.3 6.955-.45 20.215-1.451 39.929-4.053 58.743-7.706a520 520 0 0 0 23.417-5.154c80.859-20.315 152.26-61.645 214.81-124.19 48.636-48.636 84.462-102.57 107.43-161.92 18.463-47.685 28.67-98.872 30.572-153.61.2-6.054.3-12.259.3-18.514V508.6c-.2-40.68-4.954-79.558-14.31-117.09z" filter="url(#a)" opacity=".25" transform="translate(-.544 -.493)scale(.06351)"/><path fill="url(#b)" d="M970.43 391.52a515 515 0 0 0-3.653-13.61c-1-3.403-2.001-6.855-3.152-10.508a422 422 0 0 0-5.304-15.862c-6.455-18.263-14.16-36.076-23.167-53.689a475 475 0 0 0-12.309-22.416c-20.315-34.525-45.833-67.249-76.406-97.821-72.653-72.653-157.26-116.74-253.84-132.15a484 484 0 0 0-50.087-5.354c-9.707-.55-19.865-.85-30.122-.85-9.357 0-18.614.25-27.92.75-118.44 6.105-220.46 51.988-306.07 137.6Q40.05 315.96 40.05 511.6c0 130.45 46.134 241.83 138.35 334.04 56.741 56.691 120.64 95.97 191.24 117.64 36.777 11.258 74.855 17.863 114.83 19.965h.4c8.507.45 16.612.7 24.518.7h3.003a583 583 0 0 0 30.122-.8c2.501-.15 4.753-.3 6.955-.45 20.215-1.451 39.929-4.053 58.743-7.706a520 520 0 0 0 23.417-5.154c80.859-20.315 152.26-61.645 214.81-124.19 48.636-48.636 84.462-102.57 107.43-161.92 18.463-47.685 28.67-98.872 30.572-153.61.2-6.054.3-12.259.3-18.514V508.6c-.2-40.68-4.954-79.558-14.31-117.09z" transform="translate(-.544 -.493)scale(.06351)"/></g><path d="M7.008 6A2.005 2.005 0 0 0 5 8.012V33c0 2.254.683 4.342 1.855 6.07 2.585 3.843 6.213 8.55 10.305 12.543 2.137 2.403 4.838 4.483 7.594 5.973.294.168.592.307.887.46A10.8 10.8 0 0 0 31.856 60h25.129c.471 0 .884-.184 1.226-.453.033-.017.066-.028.098-.047l.004-.004c.013-.012.018-.031.031-.043.14-.13.245-.288.344-.453.042-.07.1-.125.133-.2.098-.219.146-.461.16-.714.002-.035.02-.063.02-.098V32.855c0-.537-.051-1.059-.125-1.574a10.8 10.8 0 0 0-2.348-5.34l-.012-.012a43 43 0 0 0-3.586-4.722c-2.264-2.857-4.829-5.764-7.613-8.274-2.721-2.387-5.565-4.395-8.297-5.625C35.347 6.581 33.666 6.104 32 6H15.801z" filter="url(#c)" opacity=".2" transform="translate(8.296 7.926)scale(.74074)"/><path fill="#125072" d="M13.486 11.63c-.824 0-1.486.664-1.486 1.49v18.51c0 1.67.507 3.216 1.375 4.496C17.442 42.173 24.932 51.186 32 51.629h6.473l.928-.2h11.513a1.1 1.1 0 0 0 .574-.17l.004-.003A1.48 1.48 0 0 0 52 50.139V31.63c0-1.67-.507-3.216-1.375-4.496-2.15-3.198-5.263-7.216-8.76-10.367-2.016-1.769-4.123-3.257-6.147-4.168-1.239-.538-2.484-.891-3.718-.969H20z"/><path fill="#fff" d="M19.416 17.556c-.826 0-1.49.666-1.49 1.493v20.455c.924 6.038 8.875 11.66 14.03 12.126h5.499l.315-.1h12.74c.826 0 1.477-.823 1.49-1.65V31.587a8 8 0 0 0-1.378-4.506c-3.042-4.795-7.172-9.283-12.652-9.525H25.944z"/><path fill="#00cae5" d="M25.346 23.482c-.828 0-1.494.667-1.494 1.498v7.39h10.37v-4.867l13.333 8.57-13.333 8.52v-4.815h-10.37v3.81a8.025 8.025 0 0 0 8.042 8.041h18.612c.828 0 1.494-.668 1.494-1.498V31.524a8.025 8.025 0 0 0-8.042-8.042H31.894z"/><path fill="#fff" d="M7.008 5A2.005 2.005 0 0 0 5 7.012v1C5 6.897 5.895 6 7.008 6H32c1.666.105 3.346.582 5.02 1.309 2.732 1.229 5.575 3.237 8.296 5.625 4.72 4.253 8.925 9.678 11.828 13.996A10.77 10.77 0 0 1 59 33v-1a10.77 10.77 0 0 0-1.856-6.07c-2.903-4.318-7.107-9.743-11.828-13.996-2.72-2.388-5.564-4.396-8.297-5.625C35.346 5.582 33.666 5.104 32 5H15.802z" filter="url(#d)" opacity=".1" transform="translate(8.296 7.926)scale(.74074)"/><path d="M52.221 38.498 35 49.5v1L53 39zM21 43v1h14v-1z" filter="url(#e)" opacity=".2" transform="translate(8.296 7.926)scale(.74074)"/></svg>