<svg xmlns="http://www.w3.org/2000/svg" width="64" height="64"><defs><linearGradient id="b" x1="7.937" x2="7.937" y1="15.081" y2="1.852" gradientTransform="translate(-2.286 -2.251)scale(4.0495)" gradientUnits="userSpaceOnUse"><stop offset="0" stop-color="#404040"/><stop offset="1" stop-color="#5c5c5c"/></linearGradient><linearGradient id="d" x1="32.381" x2="32.381" y1="19.628" y2="44.853" gradientUnits="userSpaceOnUse"><stop offset="0" stop-color="#fff300"/><stop offset="1" stop-color="#ebb400"/></linearGradient><filter id="c" width="1.26" height="1.338" x="-.13" y="-.169" color-interpolation-filters="sRGB"><feGaussianBlur stdDeviation="2.044"/></filter><filter id="a" width="1.078" height="1.078" x="-.039" y="-.039" color-interpolation-filters="sRGB"><feGaussianBlur stdDeviation=".972"/></filter></defs><rect width="60" height="60" x="2" y="2" filter="url(#a)" opacity=".35" rx="30" ry="30"/><rect width="60" height="60" x="2" y="2" fill="url(#b)" rx="30" ry="30"/><path d="M33.071 18.872c-3.82 0-6.942 2.365-7.224 5.363-2.764-1.243-5.185-1.86-6.907-1.98l.008-.003c-2.255-.16-3.726.385-4.383 1.502-.662 1.12-.441 2.617.822 4.453 1.26 1.83 3.836 4.244 7.706 6.431.058.033.11.056.167.085-1.72.788-3.15 1.605-4.17 2.383-2.006 1.524-2.776 3.02-2.057 4.215.72 1.195 2.771 1.853 5.78 1.983 1.213.054 2.688-.046 4.249-.212a7.253 10.879 0 0 0 6.009 4.79 7.253 10.879 0 0 0 6.003-4.79c1.563.166 3.04.266 4.255.213 3.009-.131 5.06-.788 5.78-1.984s-.05-2.69-2.057-4.215c-1.021-.778-2.451-1.595-4.17-2.383.056-.03.11-.052.167-.085 3.87-2.187 6.447-4.6 7.706-6.43 1.263-1.837 1.484-3.333.821-4.454-.657-1.117-2.127-1.662-4.382-1.502l.008.003c-1.722.12-4.144.737-6.907 1.98-.282-2.998-3.404-5.363-7.224-5.363m-4.352 2.901c.801 0 1.45.974 1.45 2.176s-.649 2.176-1.45 2.176-1.45-.974-1.45-2.176.65-2.176 1.45-2.176m8.704 0c.8 0 1.45.974 1.45 2.176s-.65 2.176-1.45 2.176-1.45-.974-1.45-2.176.649-2.176 1.45-2.176m-17.54 2.782q.632-.052 1.354.006c1.414.113 3.057.572 4.742 1.317v.003c.316 1.178 1.085 2.26 2.219 3.083a7.253 10.879 0 0 0-1.992 4.564c-.574.206-1.144.413-1.672.629a56 56 0 0 0-.725-.42c-4.595-2.606-7.875-5.702-6.618-7.833.472-.803 1.431-1.243 2.692-1.349m26.377 0c1.26.106 2.219.546 2.691 1.349 1.258 2.13-2.023 5.227-6.618 7.833a57 57 0 0 0-.725.42c-.529-.217-1.1-.423-1.675-.63a7.253 10.879 0 0 0-1.988-4.566c1.133-.823 1.902-1.903 2.218-3.08v-.003c1.685-.746 3.328-1.204 4.742-1.317q.722-.057 1.355-.006m-13.046 4.47a5.965 8.703 0 0 1 .02 0 5.965 8.703 0 0 1 5.4 5.021c-1.537-1.156-3.58-2.12-5.562-2.12-1.791 0-3.692.92-5.16 1.893a5.965 8.703 0 0 1 5.302-4.793zm-7.16 5.279a7.253 10.879 0 0 0-.235 2.7 7.253 10.879 0 0 0 .932 5.329c-3.501.132-6.222-.451-7.034-1.793-1.085-1.805 1.69-4.343 6.337-6.236m14.032 0c4.65 1.894 7.426 4.431 6.34 6.235-.812 1.344-3.536 1.927-7.042 1.794a7.253 10.879 0 0 0 .94-5.33 7.253 10.879 0 0 0-.238-2.7zm-7.014.524c2.417 0 4.563.872 6.085 1.938a5.965 8.703 0 0 1 .043.963 5.965 8.703 0 0 1-.051 1.051c-1.657-1.427-3.868-2.501-6.077-2.501-1.968 0-4.155 1.038-5.768 2.297a5.965 8.703 0 0 1-.034-.847 5.965 8.703 0 0 1 .065-1.198c1.485-.956 3.477-1.703 5.737-1.703m0 4.352c2.103 0 4.777 1.04 5.558 2.238a5.965 8.703 0 0 1-.453 1.181c-1.068-1-3.474-1.962-5.105-1.969-1.452-.006-3.718.75-4.89 1.711a5.965 8.703 0 0 1-.433-1.223c.995-1.066 3.398-1.938 5.323-1.938m0 4.351c1.598 0 2.568.51 3.754 1.136a5.965 8.703 0 0 1-3.593 1.765 5.965 8.703 0 0 1-3.691-1.88c1.088-.573 2.03-1.02 3.53-1.02z" filter="url(#c)" opacity=".5"/><path fill="url(#d)" d="M32 17.422c-3.808 0-6.928 2.349-7.227 5.334-2.77-1.249-5.178-1.83-6.904-1.951l.008-.004c-2.256-.16-3.726.385-4.383 1.502-.663 1.121-.441 2.617.822 4.453 1.26 1.83 3.835 4.244 7.705 6.432.058.032.112.056.168.086-1.719.788-3.148 1.603-4.17 2.38-2.006 1.525-2.778 3.022-2.058 4.217s2.773 1.852 5.781 1.983c1.218.053 2.693-.042 4.26-.21A7.253 10.879 0 0 0 32 46.433a7.253 10.879 0 0 0 6.006-4.787c1.563.166 3.036.262 4.252.209 3.008-.13 5.062-.788 5.781-1.983.72-1.195-.052-2.69-2.059-4.215-1.02-.777-2.45-1.594-4.17-2.382.057-.03.11-.054.169-.086 3.87-2.188 6.446-4.601 7.705-6.432 1.263-1.836 1.485-3.332.822-4.453-.657-1.117-2.127-1.662-4.383-1.502l.008.004c-1.726.121-4.134.704-6.904 1.953-.298-2.986-3.418-5.336-7.227-5.336zm-4.352 2.9c.801 0 1.452.975 1.452 2.176s-.65 2.176-1.452 2.176-1.45-.974-1.45-2.176.65-2.176 1.45-2.176m8.703 0c.802 0 1.452.975 1.452 2.176s-.65 2.176-1.451 2.176c-.802 0-1.452-.974-1.452-2.176s.65-2.176 1.452-2.176zM19.468 23.08q.338 0 .699.03c1.414.113 3.055.566 4.74 1.312.314 1.182 1.084 2.267 2.22 3.092a7.253 10.879 0 0 0-1.974 4.549q-.88.314-1.687.642a54 54 0 0 0-.727-.418c-4.595-2.606-7.875-5.703-6.617-7.834.55-.936 1.764-1.379 3.345-1.373zm25.066 0c1.581-.006 2.794.437 3.345 1.373 1.258 2.131-2.022 5.228-6.617 7.834a54 54 0 0 0-.727.418q-.806-.33-1.685-.642a7.253 10.879 0 0 0-1.977-4.553c1.136-.824 1.907-1.908 2.221-3.088 1.685-.746 3.326-1.197 4.74-1.31q.36-.03.7-.032M32.16 27.576a5.965 8.703 0 0 1 5.399 5.02c-1.536-1.156-3.578-2.12-5.56-2.12-1.792 0-3.692.92-5.159 1.893a5.965 8.703 0 0 1 5.32-4.793m-7.171 5.268a7.253 10.879 0 0 0-.243 2.709 7.253 10.879 0 0 0 .95 5.328c-3.51.135-6.24-.448-7.053-1.793-1.086-1.807 1.687-4.35 6.346-6.244m14.02 0c4.659 1.894 7.43 4.44 6.344 6.246-.812 1.342-3.532 1.923-7.033 1.791a7.253 10.879 0 0 0 .93-5.328 7.253 10.879 0 0 0-.24-2.71zM32 33.377c2.417 0 4.564.871 6.086 1.938a5.965 8.703 0 0 1 .04.964 5.965 8.703 0 0 1-.05 1.051c-1.656-1.427-3.867-2.502-6.076-2.502-1.968 0-4.154 1.038-5.768 2.297a5.965 8.703 0 0 1-.035-.846 5.965 8.703 0 0 1 .066-1.199c1.486-.955 3.477-1.703 5.737-1.703m0 4.352c2.103 0 4.777 1.04 5.558 2.238a5.965 8.703 0 0 1-.453 1.182c-1.068-1-3.474-1.962-5.105-1.97-1.452-.005-3.719.75-4.89 1.712a5.965 8.703 0 0 1-.434-1.225c.995-1.066 3.4-1.937 5.324-1.937m0 4.351c1.598 0 2.568.511 3.754 1.137a5.965 8.703 0 0 1-3.592 1.766A5.965 8.703 0 0 1 28.47 43.1c1.088-.572 2.03-1.02 3.529-1.02z"/></svg>