<svg width="64" height="64" version="1.1" xmlns="http://www.w3.org/2000/svg">
 <defs>
  <filter id="c" x="-.036" y="-.036" width="1.072" height="1.072" color-interpolation-filters="sRGB">
   <feGaussianBlur stdDeviation="0.41999874"/>
  </filter>
  <linearGradient id="a" x1="400.57" x2="400.57" y1="545.8" y2="517.8" gradientTransform="matrix(1.4286,0,0,1.4286,-163.67,-235.91)" gradientUnits="userSpaceOnUse">
   <stop stop-color="#e02d2d" offset="0"/>
   <stop stop-color="#f75151" offset="1"/>
  </linearGradient>
  <filter id="filter978" x="-.065609" y="-.037843" width="1.1312" height="1.0757" color-interpolation-filters="sRGB">
   <feGaussianBlur stdDeviation="0.11569"/>
  </filter>
 </defs>
 <circle transform="matrix(2.1429 0 0 2.1429 -826.36 -1107.5)" cx="400.57" cy="531.8" r="14" filter="url(#c)" opacity=".25" stroke-width=".73333"/>
 <g transform="matrix(1.3043 0 0 1.3043 10.679 -1306.6)" stroke-width=".73333">
  <g transform="matrix(1.1386,0,0,1.1386,-3.4562,-142.8)" stroke-width=".96611">
   <g transform="matrix(1.0539 0 0 1.0539 -.91299 -55.412)" stroke-width=".96611">
    <g transform="matrix(.83333 0 0 .83333 -408.28 587.9)" stroke-width=".96611">
     <g transform="matrix(1.1125,0,0,1.1125,8.2139,-56.26)">
      <g transform="matrix(.84003 0 0 .84003 94.723 341.97)" stroke-width=".96611">
       <g transform="matrix(1.0167,0,0,1.0167,-5.0483,-3.836)" stroke-width=".96611">
        <g transform="matrix(1.0526,0,0,1.0526,-7.0342,-334.35)" stroke-width=".96611">
         <g transform="matrix(1.15,0,0,1.15,-61.286,-78.57)" stroke-width=".96611">
          <rect x="388.57" y="503.8" width="40" height="40" ry="20" fill="url(#a)"/>
         </g>
        </g>
       </g>
      </g>
     </g>
    </g>
   </g>
  </g>
 </g>
 <g transform="matrix(1.3043 0 0 1.3043 .69565 .69565)">
  <g transform="matrix(3.5433 0 0 3.5433 6.6e-7 .20079)">
   <path d="m7.62 3.33c-0.779 0-1.411 0.632-1.411 1.411v0.847h-0.564c-0.313 0-0.564 0.252-0.564 0.564 0 0.313 0.252 0.564 0.564 0.564h0.564v1.249c-0.514 0.224-0.846 0.731-0.847 1.291 0 0.779 0.632 1.411 1.411 1.411s1.411-0.632 1.411-1.411c0-0.561-0.333-1.068-0.847-1.293v-1.247h0.565c0.313 0 0.564-0.252 0.564-0.564 0-0.313-0.252-0.564-0.564-0.564h-0.564v-0.706c0-0.234 0.19-0.423 0.423-0.423h0.988c0.313 0 0.564-0.252 0.564-0.564 0-0.313-0.252-0.564-0.564-0.564z" filter="url(#filter978)" opacity=".1"/>
   <path d="m7.338 3.048c-0.779 0-1.411 0.632-1.411 1.411v0.847h-0.564c-0.313 0-0.564 0.252-0.564 0.564 0 0.313 0.252 0.564 0.564 0.564h0.564v1.249c-0.514 0.224-0.846 0.731-0.847 1.291 0 0.779 0.632 1.411 1.411 1.411s1.411-0.632 1.411-1.411c0-0.561-0.333-1.068-0.847-1.293v-1.247h0.565c0.313 0 0.564-0.252 0.564-0.564 0-0.313-0.252-0.564-0.564-0.564h-0.564v-0.706c0-0.234 0.19-0.423 0.423-0.423h0.988c0.313 0 0.564-0.252 0.564-0.564 0-0.313-0.252-0.564-0.564-0.564z" fill="#fbf7f7"/>
   <circle cx="6.491" cy="8.975" r=".564" fill="#5c1b0c" stroke-width="2"/>
  </g>
 </g>
</svg>
