<svg xmlns="http://www.w3.org/2000/svg" width="64" height="64"><defs><filter id="a" width="1.072" height="1.072" x="-.036" y="-.036" color-interpolation-filters="sRGB"><feGaussianBlur stdDeviation=".42"/></filter><filter id="c" width="1.131" height="1.076" x="-.066" y="-.038" color-interpolation-filters="sRGB"><feGaussianBlur stdDeviation=".116"/></filter><linearGradient id="b" x1="400.57" x2="400.57" y1="545.8" y2="517.8" gradientTransform="translate(-163.67 -235.91) scale(1.4286)" gradientUnits="userSpaceOnUse"><stop offset="0" stop-color="#e02d2d"/><stop offset="1" stop-color="#f75151"/></linearGradient></defs><circle cx="400.57" cy="531.8" r="14" filter="url(#a)" opacity=".25" transform="translate(-826.36 -1107.5) scale(2.1429)"/><rect width="40" height="40" x="388.57" y="503.8" fill="url(#b)" ry="20" transform="translate(-580.85 -753.693) scale(1.50008)"/><g transform="translate(.696 .958) scale(4.6215)"><path d="M7.62 3.33c-.779 0-1.411.632-1.411 1.411v.847h-.564a.563.563 0 0 0-.564.564c0 .313.252.564.564.564h.564v1.249a1.41 1.41 0 1 0 1.128-.002V6.716h.565a.563.563 0 0 0 .564-.564.563.563 0 0 0-.564-.564h-.564v-.706c0-.234.19-.423.423-.423h.988a.563.563 0 0 0 .564-.564.563.563 0 0 0-.564-.564z" filter="url(#c)" opacity=".1"/><path fill="#fbf7f7" d="M7.338 3.048c-.779 0-1.411.632-1.411 1.411v.847h-.564a.563.563 0 0 0-.564.564c0 .313.252.564.564.564h.564v1.249a1.41 1.41 0 1 0 1.128-.002V6.434h.565a.563.563 0 0 0 .564-.564.563.563 0 0 0-.564-.564h-.564V4.6c0-.234.19-.423.423-.423h.988a.563.563 0 0 0 .564-.564.563.563 0 0 0-.564-.564z"/><circle cx="6.491" cy="8.975" r=".564" fill="#5c1b0c"/></g></svg>