<svg xmlns="http://www.w3.org/2000/svg" width="64" height="64" viewBox="0 0 16.933 16.933"><defs><linearGradient id="a" x1="2.955" x2="14.374" y1="3.008" y2="14.316" gradientTransform="translate(-.604 -.596)scale(1.07138)" gradientUnits="userSpaceOnUse"><stop offset="0" stop-color="#3b3741"/><stop offset="1" stop-color="#101215"/></linearGradient><linearGradient id="b" x1="-2.381" x2="6.879" y1="7.144" y2="-1.587" gradientTransform="translate(-.947 -.88)scale(1.1252)" gradientUnits="userSpaceOnUse"><stop offset="0" stop-color="#7d6b66"/><stop offset="1" stop-color="#0b0c0b"/></linearGradient></defs><rect width="15.875" height="15.875" x=".529" y=".529" fill="url(#a)" rx="7.937" ry="7.937" style="fill:url(#a);stroke-width:1.07138"/><path d="M8.467.53a7.92 7.92 0 0 0-7.91 8.575 7.2 7.2 0 0 0 1.473.171 7.145 7.145 0 0 0 7.145-7.144A7.2 7.2 0 0 0 8.99.548 8 8 0 0 0 8.466.53" style="fill:url(#b);stroke-width:1.1252"/><path d="M8.467.53c-.003.052.212.308.26.312.06.003.056.055-.008.111-.039.034-.035.052.015.076.071.031.086.144.018.14-.022-.002-.042.027-.045.064-.003.06-.013.057-.087-.015-.05-.05-.088-.067-.1-.04-.01.025-.065.034-.123.018q-.108-.027-.079.023c.015.026.045.049.067.05.045.003.184.174.183.226 0 .017.034.074.075.125.042.05.076.11.075.134-.005.068.19.073.22.007.016-.034.007-.09-.02-.127-.04-.056-.036-.062.019-.036.058.025.066.005.06-.15a7 7 0 0 0-.114-.864.1.1 0 0 1-.007-.045 8 8 0 0 0-.41-.01M7.94.547l-.225.017c.028.043.05.09.048.107 0 .022.025.03.057.02.033-.012.08.01.107.044q.045.064.09.024c.044-.04.022-.064-.02-.118A.3.3 0 0 1 7.94.548m-.35.03-.01.001h.005zm-.156.02q-.083.008-.164.02a.2.2 0 0 0 .07.016c.057.003.097-.014.094-.037m-.28.04-.153.027Q6.97.71 6.965.672q-.324.06-.637.149a.3.3 0 0 0 .013.07c.045.084-.017.135-.101.084Q6.098.889 6.139.968c.012.022-.015.04-.061.037-.045-.002-.083-.022-.081-.045q0-.025-.017-.034-.128.04-.255.086a.2.2 0 0 0 .033.044c.056.063.056.074-.004.112-.036.023-.074.097-.084.165a.6.6 0 0 1-.05.168c-.018.026-.015.074.007.104.023.03.027.067.009.085-.017.017-.004.023.03.016.033-.009.083-.054.108-.101s.064-.086.087-.085-.004-.028-.057-.063l-.099-.064.142.012c.079.006.17.007.204 0q.063-.012.067.112a.5.5 0 0 0 .034.165c.042.065.025.115-.07.224-.09.1-.3.158-.334.094-.024-.044-.206.008-.194.055.004.018.057.04.118.046a.7.7 0 0 1 .21.062c.093.047.094.052.016.072a1 1 0 0 0-.161.06c-.077.033-.144-.019-.141-.109 0-.015-.017-.03-.038-.031q-.04-.003-.007.104c.03.094.025.104-.052.089-.07-.016-.087.004-.103.112-.026.18.04.21.174.077.257-.256.49-.336.589-.2.041.056.039.073-.012.104s-.051.035.002.022c.112-.024.21.065.178.165-.025.077-.012.095.095.123.192.05.225.046.252-.036.019-.057.058-.076.153-.068.09.009.12.028.104.066-.014.03.003.054.038.056.099.007.065-.177-.034-.186A.7.7 0 0 1 6.7 2.46c-.086-.063-.167-.1-.18-.083-.01.017-.071.023-.132.017-.091-.012-.114-.037-.127-.147-.01-.077-.047-.142-.091-.16-.064-.024-.067-.04-.02-.112a.8.8 0 0 1 .155-.158c.07-.05.086-.084.057-.116-.065-.075-.04-.152.047-.147.045.003.083-.022.085-.056a.06.06 0 0 0-.054-.064c-.032-.002-.064-.018-.072-.035q-.014-.025-.007.018a.08.08 0 0 1-.033.073c-.067.036-.143-.062-.125-.162l.02-.128c.003-.02.018-.023.031-.009s.054.008.09-.018c.05-.037.066-.036.078.004.008.03.079.057.157.061.09.006.164.037.195.083.028.043.05.054.054.026.002-.027-.031-.086-.074-.13-.073-.079-.061-.243.014-.19.03.021.093-.049.137-.156.009-.022.03-.033.046-.028.056.023.201-.118.205-.2zm.453.077q-.04-.006-.026.039c.02.063.13.088.135.03 0-.02-.034-.048-.075-.061zm.464.093a.03.03 0 0 0-.022.008c-.037.034.093.152.171.157.03.002.054-.016.056-.039.003-.048-.141-.13-.205-.126m-.41.054c-.026.004-.04.032-.017.072a.05.05 0 0 0 .068.023q.042-.023 0-.068-.027-.03-.051-.027m-1.16.011c.024-.002.047.002.057.014.011.014-.012.022-.056.018Q6.432.897 6.48.879zm.441.043q-.013 0-.025.014c-.017.023-.02.063-.007.085.025.05.097.06.1.017.002-.054-.034-.11-.066-.115zm.71.307c-.025 0-.045.017-.045.039-.002.022.005.04.015.041.009 0 .029-.015.045-.038.014-.021.008-.04-.015-.042m-1.62.038h.01l.015.008c.022.014.039.036.038.045 0 .01-.02.016-.042.015a.045.045 0 0 1-.038-.045q.003-.019.016-.023m.454.014c-.009 0-.029.016-.045.037-.014.023-.008.04.016.042a.045.045 0 0 0 .045-.038c.001-.023-.006-.04-.016-.04m-.555.006a.045.045 0 0 1 .041.045c-.001.021-.011.04-.02.038-.01 0-.028-.02-.04-.043s-.004-.041.02-.04m1.196.033c-.087-.005-.068.094.027.15l.098.056a.3.3 0 0 0-.03-.098c-.023-.058-.065-.106-.095-.108m1.682.039a.1.1 0 0 1 .038.036c.076.086.02.23-.084.216-.044-.007-.08-.025-.077-.043.002-.018.031-.03.067-.028.049.003.063-.023.053-.102q-.015-.087.003-.08m-.159.018q.022-.003.052.027.04.046-.001.069a.05.05 0 0 1-.068-.023c-.023-.04-.009-.07.017-.073m-3.413.03c-.022 0-.042.026-.045.06s.015.062.038.063c.022.001.042-.026.045-.058 0-.034-.015-.062-.038-.065m1.616.022q-.06-.003 0 .022c.077.037-.021.162-.146.186q-.107.02-.098.09c.012.093.148.127.153.04q.007-.066.074-.05a.074.074 0 0 1 .054.09c-.01.05.004.07.056.064q.075-.008.133.13c.079.186.101.206.15.138q.04-.052.04-.008a.09.09 0 0 1-.046.07c-.065.036-.052.099.023.103.036.002.054.016.038.03s.002.05.04.086c.048.045.052.066.014.079a.09.09 0 0 0-.055.07q-.003.05-.104.026c-.143-.037-.135.06.018.203.144.136.2.139.228.011.011-.05.045-.099.078-.11.085-.026.083-.202-.003-.254a.45.45 0 0 1-.133-.192.6.6 0 0 0-.092-.169c-.034-.024-.023-.128.045-.382.032-.124.027-.135-.043-.109-.187.065-.25.054-.312-.056-.033-.06-.085-.108-.112-.108m-1.312.038c-.01 0-.03.017-.045.038s-.009.04.015.042c.023.001.045-.016.045-.039.002-.022-.005-.04-.015-.041m.375.104c-.023 0-.032.018-.02.04s.03.042.041.042c.009.002.018-.016.02-.039a.04.04 0 0 0-.04-.043zm.123.009c-.023-.002-.033.015-.02.039.011.022.03.043.041.043.01 0 .019-.018.02-.04s-.017-.041-.04-.042m.897.1q.014 0 .104.057c.07.042.126.103.124.135-.005.073-.013.073-.086.005a1 1 0 0 1-.113-.136q-.04-.06-.029-.06m-2.64.032-.053.034a.1.1 0 0 0 .053-.034m1.272.02c-.036-.003-.022.024.04.106.078.106.086.106.092.011.002-.042-.032-.089-.076-.102a.3.3 0 0 0-.055-.015m1.859.02q-.01 0-.027.022c-.017.023.025.082.097.135.164.12.284.13.152.014a.4.4 0 0 0-.145-.09c-.026-.001-.052-.026-.06-.053q-.007-.028-.017-.028m1.37.077zc-.021-.002-.051.015-.066.037s0 .04.036.042c.034.002.064-.013.065-.036a.04.04 0 0 0-.036-.044m-.716.05q-.02-.009-.066.062c-.028.045-.033.083-.012.084.02 0 .05-.027.068-.063.022-.05.022-.079.01-.083M4.049 1.9c-.011 0-.03.015-.045.037s-.009.04.015.043c.022 0 .044-.016.045-.039 0-.022-.006-.041-.015-.041m4.214.033-.011.148c-.012.133.02.184.117.201.017.002.027-.03.022-.072a.6.6 0 0 0-.068-.177zm.695.02c-.016.002-.036.016-.046.041-.011.027.002.042.03.034.027-.006.05-.025.049-.042 0-.023-.016-.035-.033-.034m.015.166c-.023-.002-.03.033-.02.076.012.047-.004.084-.038.095-.033.01-.075.079-.093.152-.045.171-.238.346-.288.259a.3.3 0 0 1-.03-.124.3.3 0 0 0-.044-.14c-.044-.067-.056-.068-.105-.015a.3.3 0 0 0-.067.11.3.3 0 0 1-.045.101c-.02.027-.025.068-.013.091s0 .042-.025.04c-.027-.002-.041.031-.032.08a.17.17 0 0 1-.047.14c-.049.044-.052.058-.01.061.039.004.033.017-.015.05a.34.34 0 0 0-.102.135c-.019.05-.053.087-.078.086s-.023.028.008.072c.027.04.035.061.017.043-.018-.017-.082.004-.142.045-.098.068-.115.068-.153.011-.023-.037-.054-.055-.07-.041s-.025-.016-.022-.065c.003-.05-.013-.082-.037-.068q-.036.015-.013-.04c.016-.033.007-.063-.02-.065-.025-.001-.034-.02-.02-.041s.01-.041-.014-.042c-.023-.001-.04-.04-.039-.083.004-.045-.014-.082-.039-.085-.025 0-.056.034-.07.078-.023.07-.094.098-.195.073-.02-.005-.025.022-.013.059a.5.5 0 0 1 .016.144c-.002.043.012.078.03.08.02 0 .029-.045.022-.1-.008-.06.005-.102.032-.1.048.004.057.046.041.196-.005.055.015.093.052.095.033.002.068.033.08.068q.02.067.121.048c.061-.012.09-.005.074.019a.05.05 0 0 0 .014.066c.022.016.027.048.011.074q-.026.04 0 .02c.018-.013.066.013.105.059.108.12.153.105.163-.057.005-.086.025-.133.047-.117.023.015.03 0 .02-.03-.008-.033.012-.08.05-.107.036-.027.066-.074.067-.104s.02-.055.042-.053c.02 0 .047-.046.058-.106.01-.06.042-.113.07-.12.039-.011.034.026-.018.147-.047.113-.053.163-.022.166.025 0 .033.013.017.027-.016.013-.01.051.015.084.033.046.032.056-.01.045-.03-.009-.063.014-.075.054-.014.052 0 .064.052.046.056-.017.063-.009.034.034-.033.046-.028.047.033.004.079-.057.112-.242.045-.248-.022 0-.039-.037-.037-.081q.006-.079.06-.056c.055.025.11-.083.121-.24.004-.045.092-.147.198-.228.106-.08.194-.18.196-.219s.023-.084.045-.095c.023-.012.032-.05.022-.083q-.018-.06.05-.057.066.005.05-.057c-.011-.034-.006-.062.013-.061.018 0 .028-.045.022-.101s-.032-.103-.052-.104m-2.535.055-.014.006c-.03.028.016.109.063.112a.04.04 0 0 0 .042-.034c.002-.043-.056-.09-.091-.084m-1.56.142c-.011 0-.03.017-.045.038-.014.022-.009.04.015.042.023 0 .045-.016.045-.039.002-.022-.006-.04-.015-.04m3.69.037q-.006.007-.009.042c-.005.042.003.067.018.056.014-.014.018-.05.008-.079q-.01-.024-.016-.019m-2.58.072c-.022-.001-.042.025-.044.059-.003.033.014.061.037.063.022 0 .043-.025.045-.059.001-.034-.015-.062-.037-.063m-.161.168zq-.01.003-.014.022a.045.045 0 0 0 .04.045c.022 0 .04-.005.04-.015s-.016-.03-.037-.045q-.016-.012-.03-.008m-.14.018c-.02.002-.037.018-.039.05-.003.068.034.11.099.114.03.002.042-.03.033-.079-.01-.057-.058-.09-.093-.085m2.258.004c-.138-.003-.194.067-.087.135.05.032.055.057.02.093-.036.038-.023.045.056.035.057-.008.094-.03.081-.053-.01-.023.018-.048.065-.057.15-.029.105-.119-.072-.147zm.495.081c.009 0 .012.055.008.122s-.022.121-.04.12c-.02 0-.024-.056-.01-.124.014-.065.033-.119.042-.118m-1.712.033zq-.023 0-.027.04c-.002.034.013.065.036.066A.04.04 0 0 0 6.78 2.8a.1.1 0 0 0-.037-.065.02.02 0 0 0-.015-.006m-.487.073a.18.18 0 0 0-.152.094c-.064.122-.012.365.06.269.022-.032.04-.042.04-.023-.002.019.024.017.055-.007.045-.032.071-.028.106.021.037.051.037.065-.002.062-.028-.002-.04.025-.03.058s-.014.079-.053.098c-.063.033-.064.042-.014.082q.138.1.112-.03c-.01-.059.003-.074.051-.055q.075.032.011-.016c-.031-.027-.039-.076-.02-.126.02-.05.008-.125-.03-.19q-.06-.108-.013-.105c.026 0 .037-.016.025-.04-.012-.023-.04-.034-.062-.022-.021.01-.038.002-.037-.022.002-.031-.018-.047-.047-.048m-.966.045q-.005 0-.009.002c-.05.027-.063.26-.014.261a.1.1 0 0 0 .065-.033c.035-.052-.002-.227-.042-.23m.454.076h-.001a.2.2 0 0 0-.005.054.26.26 0 0 1-.075.17c-.09.078-.063.162.044.141a.2.2 0 0 1 .126.024c.078.057.163.054.146-.005-.007-.028-.062-.056-.122-.063q-.238-.023-.022-.104c.125-.046.173-.106.09-.112-.025-.001-.033-.02-.017-.041.015-.022.008-.04-.015-.042-.023 0-.044.016-.045.038-.005.068-.077.04-.095-.036q-.005-.024-.009-.024m2.239.029c-.034-.003-.053.015-.04.038a.1.1 0 0 0 .06.045.04.04 0 0 0 .04-.038c.003-.023-.025-.043-.06-.045m-3.025.222c-.036-.002-.054.015-.042.039.012.022.03.041.038.043.01 0 .028-.017.044-.039s-.003-.04-.04-.043m1.564.014c-.022 0-.032.017-.02.04.013.024.032.042.042.043.009 0 .02-.018.02-.04.001-.02-.017-.04-.04-.043zm.167.01V3.2a.04.04 0 0 0-.042.037.04.04 0 0 0 .038.044.04.04 0 0 0 .042-.039.04.04 0 0 0-.038-.043m-.517.055v.002l-.023.004q-.05.018.023.026c.042.005.067-.003.053-.018-.009-.011-.03-.016-.053-.014m-1.01.028q-.023.002-.028.042c-.005.071.02.083.057.03.015-.021.008-.05-.013-.066zm.338.045a.04.04 0 0 0-.043.04.04.04 0 0 0 .038.043.04.04 0 0 0 .044-.039.04.04 0 0 0-.038-.043zm.31.062c-.039-.003-.066.01-.058.027a1 1 0 0 1 .036.104c.03.106.083.092.09-.025q.008-.105-.068-.106m1.332.04c-.034-.002-.053.015-.04.039a.1.1 0 0 0 .06.045c.022 0 .039-.017.041-.04 0-.022-.027-.041-.061-.044m-1.179.003c-.02 0-.045.017-.056.04-.009.023.014.045.05.047.038 0 .064-.016.057-.04-.007-.026-.03-.046-.05-.047m.56.094c-.02.003-.052.024-.083.057-.041.041-.099.065-.128.052-.03-.014-.055-.006-.056.016-.001.023.019.051.047.063.055.023.268-.146.233-.184q-.005-.006-.014-.004m-.849.112a.06.06 0 0 0-.034.008c-.048.024-.053.135-.007.138.02.001.047-.022.061-.053.023-.048.01-.089-.02-.093m-.168.07c-.035 0-.07.037-.074.093-.002.036-.014.054-.028.04-.012-.015-.052-.003-.086.027a.23.23 0 0 1-.13.051c-.047-.002-.073.035-.085.122-.013.098-.003.12.048.104a.3.3 0 0 1 .101-.018c.058.004.052-.119-.005-.123-.027-.002.038-.038.147-.078.208-.077.218-.089.168-.182q-.024-.039-.056-.036m1.185.14a.04.04 0 0 0-.042.038.04.04 0 0 0 .038.043.04.04 0 0 0 .043-.037.04.04 0 0 0-.039-.044m-.414.023q-.034-.009-.1.12c-.036.07-.066.105-.066.078 0-.056-.08-.078-.084-.023 0 .02.033.079.074.133s.074.124.073.153c-.003.032.04.058.098.06.056.004.101-.01.103-.033.001-.022-.023-.042-.054-.045-.03 0-.065-.032-.075-.065-.01-.034-.007-.062.009-.06.016 0 .037-.072.045-.16q.011-.147-.023-.158m.879.047c-.034-.002-.064.015-.065.036-.001.022.014.043.036.044a.1.1 0 0 0 .065-.037c.015-.021 0-.04-.036-.043m.996.02c-.054-.003-.142.146-.115.197.037.07.088.05.12-.045.041-.124.04-.15-.005-.152m-.403.016c-.02-.001-.035.025-.037.059s.01.061.03.063c.018 0 .035-.025.037-.059s-.011-.062-.03-.063m-2.087.012c-.023.004-.028.028-.033.086-.003.063.008.088.027.06.025-.034.053-.024.105.037.104.124.188.144.21.054a.3.3 0 0 0 0-.135c-.011-.03-.051-.056-.092-.056a.6.6 0 0 1-.159-.034.1.1 0 0 0-.058-.012m1.113.031a.12.12 0 0 0-.056.037c-.04.043-.041.058-.005.06.026 0 .033.022.019.045-.04.056.001.17.053.143.023-.011.045-.074.05-.14.004-.086-.013-.138-.046-.145zm1.062.101q-.013 0-.043.022c-.035.024-.055.062-.044.083.012.02-.002.072-.03.114-.053.088-.01.11.072.039.028-.025.054-.1.058-.165.003-.063.001-.09-.013-.093m-1.274.248q-.024 0-.027.04c-.002.035.014.066.036.067.023.001.042-.016.043-.036s-.016-.051-.037-.067a.02.02 0 0 0-.015-.004m1.312.029q-.006-.008-.046.023c-.081.058-.064.253.019.227.033-.011.059-.034.06-.054 0-.02-.017-.038-.04-.04-.028 0-.031-.037-.01-.092q.022-.057.017-.064m-1.655.067q-.013-.003-.017.059c-.003.062.025.099.095.121.054.017.097.05.096.073 0 .022.025.031.059.02s.07-.001.08.02c.042.076.147.002.124-.09-.027-.114-.026-.113-.106-.09-.037.013-.056.045-.043.07.014.027-.004.022-.04-.01-.035-.034-.064-.086-.061-.116.002-.042-.022-.062-.05-.056a.1.1 0 0 0-.054.038q-.031.045-.062-.014-.012-.023-.02-.025m1.483.079c-.044-.004-.113.026-.167.082-.045.047-.08.066-.078.04 0-.025-.027-.059-.061-.073-.113-.052-.054.168.085.32.171.187.203.19.193.016-.006-.112.007-.142.062-.138a.11.11 0 0 1 .09.073c.011.037.032.057.046.045s-.01-.079-.053-.146a.5.5 0 0 1-.075-.171q0-.043-.042-.048m-1.82.011c-.022 0-.063.023-.09.052-.041.044-.038.065.018.101q.143.095.062.003c-.033-.037-.031-.064.004-.101q.045-.049.006-.055m-.243.127c-.006-.004-.013.02-.015.062-.003.056.004.078.016.051a.16.16 0 0 0 .007-.101q-.004-.011-.008-.011zm1.57.023c-.082.004-.251.089-.254.136-.002.023-.045-.007-.098-.062-.079-.084-.096-.09-.1-.033-.003.04-.036.066-.085.063-.093-.006-.099.009-.047.121.05.107.068.103.124-.018.04-.092.05-.095.104-.034.09.1.163.088.25-.041.07-.105.082-.108.125-.043.045.068.049.067.054.004.002-.037-.017-.077-.045-.09zm.25.047a.06.06 0 0 1 .05.029c.034.062.003.08-.06.036q-.051-.035-.008-.059zm-1.479.055a.04.04 0 0 0-.043.038.04.04 0 0 0 .038.044.04.04 0 0 0 .043-.039.04.04 0 0 0-.038-.043m.214.096c-.016.001-.047.02-.084.052q-.133.117.033.083c.055-.01.11.001.124.026.03.057.143.019.148-.05.002-.041-.032-.051-.127-.039-.092.014-.12.006-.097-.027.022-.031.02-.046.004-.045zm2.274.007c-.14.011-.189.079-.066.09.064.004.063.01-.011.06q-.09.056-.024.06.065.002-.016.041c-.04.02-.092.024-.112.01-.023-.016-.041-.008-.042.016-.002.027-.043.031-.103.012q-.097-.028-.103.014c-.001.026.042.07.097.098.07.038.094.083.088.158l-.012.105-.037-.115c-.02-.063-.053-.115-.072-.116s-.025.017-.012.04a.5.5 0 0 1 .033.128c.006.046.019.125.028.174.008.05.006.067-.005.037-.044-.113-.104-.053-.09.09l.015.148-.074-.096a.34.34 0 0 1-.072-.127c.002-.017-.035-.023-.08-.015-.047.008-.081-.003-.08-.03 0-.024-.024-.045-.058-.047-.033-.003-.061.015-.064.036a.04.04 0 0 0 .04.043c.022 0 .038.031.035.065a.1.1 0 0 0 .053.089c.032.013.046.05.032.082q-.03.06.048.034c.057-.02.068-.01.044.042-.023.05-.008.068.063.071.066.005.121-.04.198-.16q.135-.208.226-.381a3 3 0 0 0 .142-.298c.214-.262.012-.287-.009-.358m-.307.052c-.011-.004-.037.014-.068.057q-.051.075-.012.079c.023.002.054-.025.07-.059q.03-.07.011-.077m-.752.013c-.045-.002-.045.018 0 .12.04.093.042.126.002.137-.037.01-.03.04.021.105.087.11.084.11.096.023.015-.128-.062-.382-.119-.385m-.6.005c-.01 0-.031.015-.046.037s-.008.04.015.043c.024 0 .045-.016.045-.038.003-.023-.005-.042-.015-.042m-.295.03-.023.003q-.05.019.023.028c.042.003.067-.005.055-.02q-.018-.016-.055-.012m-.537.083c-.026-.002-.078.023-.115.057-.037.031-.067.08-.069.107 0 .026.019.018.043-.02a.34.34 0 0 1 .117-.103c.04-.02.05-.038.024-.04m1.65.059q-.034 0-.04.036c-.002.038.123.136.146.116.007-.007.003-.042-.009-.079a.11.11 0 0 0-.098-.073m.005.21-.022.005q-.05.017.022.026c.043.004.068-.004.055-.019q-.018-.015-.055-.012m-.679.483v.001a.3.3 0 0 0-.103.034c-.12.054-.104.12.022.095.088-.015.102-.009.072.034-.043.06-.074.24-.049.288.028.057.095.04.126-.03.017-.037.01-.075-.017-.085-.092-.037-.037-.132.095-.158l.135-.027-.153-.039c-.084-.022-.14-.056-.124-.076q.024-.037-.004-.037m.263.012v.002c-.023-.003-.03.015-.018.039.012.022.04.043.063.045.022 0 .03-.017.018-.04a.1.1 0 0 0-.063-.046m.449.032c-.051-.003-.056.05-.007.105.06.067-.012.22-.102.213-.066-.003-.078.015-.064.096q.004.016.005.032l.298-.241c-.053-.047-.094-.113-.093-.144.002-.033-.015-.06-.037-.061m-.168.446-.623.503c.062-.051.134-.093.16-.092a.6.6 0 0 0 .193-.11.6.6 0 0 1 .187-.11c.055.003.093-.09.083-.19m-.21-.23c-.078-.004-.086.01-.067.13.02.123.068.194.139.2.017.002.03-.015.032-.035a.1.1 0 0 0-.037-.067c-.021-.016-.026-.07-.009-.123.026-.083.017-.1-.056-.104z" style="stroke-width:1.1252;fill:#fff;opacity:.5"/><path fill="#fff" d="M3.694 14.023h1.007v-1.47h1.618v-.87H4.701v-.76h1.824v-.869H3.694zm4.26 0h.973v-3.1h1.235v-.869H6.731v.87h1.224zm2.654 0h2.631v-.875h-1.641v-3.094h-.99z"/></svg>