<svg xmlns="http://www.w3.org/2000/svg" xmlns:xlink="http://www.w3.org/1999/xlink" width="64" height="64"><defs><linearGradient id="c" x1="7.937" x2="7.937" y1="15.081" y2="1.852" gradientTransform="scale(3.7796)" gradientUnits="userSpaceOnUse"><stop offset="0" stop-color="#f1efeb" style="stop-color:#c69546;stop-opacity:1"/><stop offset="1" stop-color="#fdfcfc" style="stop-color:#3fb17d;stop-opacity:1"/></linearGradient><linearGradient id="d" x1="-79.382" x2="-36.522" y1="305.059" y2="230.825" gradientTransform="rotate(-15 -704.812 -271.34)" gradientUnits="userSpaceOnUse"><stop offset="0" stop-color="#c061cb" style="stop-color:#ff7800;stop-opacity:1"/><stop offset="1" stop-color="#3584e4" style="stop-color:#f6d32d;stop-opacity:1"/></linearGradient><linearGradient id="f" x1="19" x2="14" y1="47" y2="47" gradientUnits="userSpaceOnUse"><stop offset="0" stop-opacity=".216"/><stop offset="1" stop-opacity="0"/></linearGradient><linearGradient id="g" x1="28" x2="116" y1="-274" y2="-274" gradientTransform="rotate(180 68 -86)" gradientUnits="userSpaceOnUse"><stop offset="0" stop-color="#c0bfbc"/><stop offset=".045" stop-color="#f6f5f4"/><stop offset=".091" stop-color="#deddda"/><stop offset=".909" stop-color="#deddda"/><stop offset=".955" stop-color="#f6f5f4"/><stop offset="1" stop-color="#c0bfbc"/></linearGradient><linearGradient id="h" x1="20" x2="25.738" y1="98.337" y2="98.337" gradientUnits="userSpaceOnUse"><stop offset="0" stop-color="#deddda"/><stop offset=".28" stop-color="#fbfbfa"/><stop offset=".568" stop-color="#faf9f8"/><stop offset="1" stop-color="#f8f6f4"/></linearGradient><linearGradient id="i" x1="96.838" x2="101.618" y1="24.838" y2="20.058" gradientUnits="userSpaceOnUse"><stop offset="0" stop-color="#deddda"/><stop offset="1" stop-color="#f3f2ef"/></linearGradient><linearGradient id="j" x1="84.644" x2="95.271" y1="35.269" y2="24.643" gradientUnits="userSpaceOnUse"><stop offset="0" stop-color="#fff"/><stop offset=".342" stop-color="#ececec"/><stop offset=".7" stop-color="#e8e8e8"/><stop offset="1" stop-color="#fff"/></linearGradient><linearGradient id="k" x1="21.751" x2="44.91" y1="117.006" y2="117.006" gradientUnits="userSpaceOnUse"><stop offset="0" stop-color="#b0b0b0"/><stop offset="1" stop-color="#deddda"/></linearGradient><linearGradient id="l" x1="35" x2="81" y1="116" y2="116" gradientUnits="userSpaceOnUse"><stop offset="0" stop-color="#c0bfbc"/><stop offset="1" stop-color="#c0bfbc" stop-opacity="0"/></linearGradient><linearGradient xlink:href="#a" id="m" x1="43" x2="79" y1="116" y2="116"/><linearGradient id="a" x1="0" x2="128" y1="0" y2="0" gradientUnits="userSpaceOnUse"><stop offset="0" stop-color="#f6f5f4" stop-opacity="0"/><stop offset=".517" stop-color="#f6f5f4"/><stop offset="1" stop-color="#f6f5f4" stop-opacity="0"/></linearGradient><linearGradient id="n" x1="38.812" x2="38.812" y1="120.254" y2="122.834" gradientUnits="userSpaceOnUse"><stop offset="0" stop-opacity=".525"/><stop offset="1" stop-opacity="0"/></linearGradient><linearGradient id="o" x1="108" x2="112.754" y1="88.644" y2="88.468" gradientUnits="userSpaceOnUse"><stop offset="0" stop-opacity=".243"/><stop offset="1" stop-opacity="0"/></linearGradient><linearGradient xlink:href="#a" id="p" x1="62.479" x2="98.479" y1="118" y2="118"/><linearGradient id="q" x1="74.519" x2="108" y1="116" y2="116" gradientUnits="userSpaceOnUse"><stop offset="0" stop-color="#f6f5f4" stop-opacity="0"/><stop offset=".517" stop-color="#c0bfbc"/><stop offset="1" stop-color="#f6f5f4" stop-opacity="0"/></linearGradient><linearGradient xlink:href="#b" id="s" x1="56" x2="84" y1="224.002" y2="224.002" gradientTransform="rotate(180 60.113 63.908)"/><linearGradient id="b" x1="0" x2="128" y1="0" y2="0" gradientTransform="translate(-.398 -172.001)" gradientUnits="userSpaceOnUse"><stop offset="0" stop-color="#fff" style="stop-color:#241f31;stop-opacity:1"/><stop offset="1" stop-color="#fff" stop-opacity="0" style="stop-color:#241f31;stop-opacity:0"/></linearGradient><linearGradient xlink:href="#b" id="r" x1="56" x2="84" y1="224.002" y2="224.002" gradientTransform="translate(-6.978 -.181)"/></defs><rect width="60" height="60" x="2" y="2" fill="url(#c)" rx="30" ry="30"/><g style="display:inline;fill:none"><g style="fill:#000"><path fill="url(#d)" d="M12.977 24.297 82.52 5.66a8.005 8.005 0 0 1 9.8 5.66l22.774 85a8 8 0 0 1-5.656 9.797l-69.547 18.637c-4.266 1.144-8.653-1.391-9.797-5.656L7.316 34.094a8.003 8.003 0 0 1 5.661-9.797m0 0" class="fills" style="fill:url(#d)" transform="translate(6.487 7.301)scale(.39866)"/><path fill="url(#f)" d="m20.145 22.328-7.235 1.938a7.983 7.983 0 0 0-5.656 9.797l12.891 48.101zm0 0" class="fills" style="opacity:.5;fill:url(#f)" transform="translate(6.487 7.301)scale(.39866)"/><path d="M42.684.453 112.23 19.09a8.003 8.003 0 0 1 5.661 9.797l-22.778 85.004a8.004 8.004 0 0 1-9.797 5.656L15.77 100.91a8.003 8.003 0 0 1-5.661-9.797L32.887 6.109A8.004 8.004 0 0 1 42.684.453m0 0" class="fills" style="fill:#2ec27e" transform="translate(6.487 7.301)scale(.39866)"/><path d="M28 61h72a8 8 0 0 1 8 8v43a8 8 0 0 1-8 8H28a8 8 0 0 1-8-8V69a8 8 0 0 1 8-8m0 0" class="fills" style="fill:#deddda" transform="translate(6.487 7.301)scale(.39866)"/><path fill="url(#g)" d="M100 120H28a8 8 0 0 1-8-8V88a8 8 0 0 1 8-8h72a8 8 0 0 1 8 8v24a8 8 0 0 1-8 8m0 0" class="fills" style="fill:url(#g)" transform="translate(6.487 7.301)scale(.39866)"/><path d="M100 15.813v79.839l17.891-66.765a7.986 7.986 0 0 0-5.661-9.797ZM27.988 104.18V24.344L10.102 91.105a7.98 7.98 0 0 0 5.656 9.797zm0 0" class="fills" style="fill:#2ec27e;fill-opacity:1" transform="translate(6.487 7.301)scale(.39866)"/><path fill="url(#h)" d="M28 8h72c4.434 0 8 3.566 8 8v88c0 4.434-3.566 8-8 8H24c-2.344 0-4 1.953-4 3.754V16c0-4.434 3.566-8 8-8m0 0" class="fills" style="fill:url(#h)" transform="translate(6.487 7.301)scale(.39866)"/><path fill="url(#i)" d="m80 8 26 26c2.039 3.137 2 6 2 6V16c0-4.434-3.566-8-8-8zm0 0" class="fills" style="fill:url(#i)" transform="translate(6.487 7.301)scale(.39866)"/><path fill-opacity=".212" d="m105 35.277-25-25v20c0 4.43 3.566 8 8 8h15.797c2.203 0 4.562 2.508 4.203 4a9.94 9.94 0 0 0-3-7m0 0" class="fills" style="fill-opacity:.212" transform="translate(6.487 7.301)scale(.39866)"/><path fill="url(#j)" d="M105 33 80 8v20c0 4.434 3.566 8 8 8h15.797c2.203 0 4.562 2.512 4.203 4a9.93 9.93 0 0 0-3-7m0 0" class="fills" style="fill:url(#j)" transform="translate(6.487 7.301)scale(.39866)"/><path d="M35.004 20h32c1.66 0 3 1.344 3 3s-1.34 3-3 3h-32a3.001 3.001 0 0 1 0-6m-1 12H48a2 2 0 1 1 0 4H34.004c-1.102 0-2-.895-2-2s.898-2 2-2m0 0" class="fills" style="fill:#c0bfbc;fill-opacity:1" transform="translate(6.487 7.301)scale(.39866)"/><g style="fill:#000"><path d="M34 76h60a2 2 0 1 1 0 4H34a2 2 0 1 1 0-4m0 10h60a2 2 0 1 1 0 4H34a2 2 0 1 1 0-4m0 10h60a2 2 0 1 1 0 4H34a2 2 0 1 1 0-4m0-30h60a2 2 0 1 1 0 4H34a2 2 0 1 1 0-4m0 0" class="fills" style="fill:#c0bfbc" transform="translate(6.487 7.301)scale(.39866)"/></g><path fill="url(#k)" d="M23.754 112h48.492A3.753 3.753 0 0 1 76 115.754v.492A3.753 3.753 0 0 1 72.246 120H23.754A3.753 3.753 0 0 1 20 116.246v-.492A3.753 3.753 0 0 1 23.754 112m0 0" class="fills" style="fill:url(#k)" transform="translate(6.487 7.301)scale(.39866)"/><path fill="url(#l)" d="M24 114h71a2 2 0 1 1 0 4H24a2 2 0 1 1 0-4m0 0" class="fills" style="fill:url(#l)" transform="translate(6.487 7.301)scale(.39866)"/><path d="M24.5 116h35a.5.5 0 1 1 0 1h-35a.5.5 0 1 1 0-1m0 0" class="fills" style="fill:#deddda" transform="translate(6.487 7.301)scale(.39866)"/><path fill="url(#m)" d="M43.5 115h35a.5.5 0 1 1 0 1h-35a.5.5 0 1 1 0-1m0 0" class="fills" style="fill:url(#m)" transform="translate(6.487 7.301)scale(.39866)"/><path fill="url(#n)" d="M30.402 120.023a7.974 7.974 0 0 0 9.446 4.645l17.34-4.645zm0 0" class="fills" style="opacity:.5;fill:url(#n)" transform="translate(6.487 7.301)scale(.39866)"/><path fill="url(#o)" d="M108 70.727v35.836l1.23-.333a7.98 7.98 0 0 0 5.657-9.796zm0 0" class="fills" style="opacity:.5;fill:url(#o)" transform="translate(6.487 7.301)scale(.39866)"/><path fill="url(#p)" d="M62.98 117h35a.5.5 0 0 1 0 1h-35a.5.5 0 1 1 0-1m0 0" class="fills" style="fill:url(#p)" transform="translate(6.487 7.301)scale(.39866)"/><path fill="url(#q)" d="M75.02 115h27.796c.278 0 .5.223.5.5s-.222.5-.5.5H75.02a.5.5 0 0 1-.5-.5c0-.277.222-.5.5-.5m0 0" class="fills" style="fill:url(#q)" transform="translate(6.487 7.301)scale(.39866)"/></g><path d="M21.022 63.818h27.203l-13.6 17zm71.203 0H65.022l13.602-17zm0 0" class="fills" style="fill:#241f31;fill-opacity:1" transform="translate(9.268 7.374)scale(.39866)"/><path stroke="url(#r)" stroke-linejoin="round" stroke-width="8" d="M78.623 63.818a24 24 0 0 1-13.855 21.75 24.01 24.01 0 0 1-25.57-3.363" class="fills" style="fill:none;stroke:url(#s);stroke-linecap:round" transform="translate(9.268 7.374)scale(.39866)"/><path stroke="url(#r)" stroke-linejoin="round" stroke-width="8" d="M34.624 63.818a24 24 0 0 1 13.855-21.75 24.01 24.01 0 0 1 25.57 3.363" class="fills" style="fill:none;stroke:url(#r);stroke-linecap:round" transform="translate(9.268 7.374)scale(.39866)"/></g></svg>