<svg xmlns="http://www.w3.org/2000/svg" xmlns:xlink="http://www.w3.org/1999/xlink" width="64" height="64"><defs><linearGradient xlink:href="#a" id="f" x1="103.95" x2="89.424" y1="-7.666" y2="-7.666" gradientTransform="matrix(.73652 0 0 .72048 -52.561 46.853)" gradientUnits="userSpaceOnUse" spreadMethod="reflect"/><linearGradient id="a"><stop offset="0" stop-color="#868688"/><stop offset="1" stop-color="#d9d9da"/></linearGradient><linearGradient xlink:href="#b" id="g" x1="89.018" x2="89.018" y1="22.537" y2="27.546" gradientTransform="matrix(1.6087 0 0 1.6667 -127.47 -.577)" gradientUnits="userSpaceOnUse"/><linearGradient id="b"><stop offset="0" stop-color="#a0a0a0"/><stop offset="1" stop-color="#4a4a4a"/></linearGradient><linearGradient xlink:href="#a" id="h" x1="103.95" x2="89.424" y1="-7.666" y2="-7.666" gradientTransform="matrix(.73652 0 0 .72048 -52.561 37.853)" gradientUnits="userSpaceOnUse" spreadMethod="reflect"/><linearGradient xlink:href="#b" id="i" x1="89.018" x2="89.018" y1="22.537" y2="27.546" gradientTransform="matrix(1.6087 0 0 1.6667 -127.47 -9.577)" gradientUnits="userSpaceOnUse"/><linearGradient xlink:href="#a" id="j" x1="103.95" x2="89.424" y1="-7.666" y2="-7.666" gradientTransform="matrix(.73652 0 0 .72048 -52.561 28.853)" gradientUnits="userSpaceOnUse" spreadMethod="reflect"/><linearGradient xlink:href="#b" id="k" x1="89.018" x2="89.018" y1="22.537" y2="27.546" gradientTransform="matrix(1.6087 0 0 1.6667 -127.47 -18.577)" gradientUnits="userSpaceOnUse"/><linearGradient id="l" x1="102.31" x2="102.31" y1="-2.393" y2="-24.582" gradientTransform="matrix(.73698 0 0 .73149 -52.606 21.888)" gradientUnits="userSpaceOnUse" spreadMethod="reflect"><stop offset="0" stop-color="#a5a6a8"/><stop offset="1" stop-color="#e8e8e8"/></linearGradient><linearGradient id="m" x1="109.96" x2="109.96" y1="-24.911" y2="-2.376" gradientTransform="matrix(.73698 0 0 .73149 -52.606 21.888)" gradientUnits="userSpaceOnUse"><stop offset="0" stop-color="#b3b3b3"/><stop offset="1" stop-color="#dadada"/></linearGradient><linearGradient id="n" x1="21.381" x2="21.381" y1="5.053" y2="44.137" gradientUnits="userSpaceOnUse"><stop offset="0" stop-color="#fff"/><stop offset=".081" stop-color="#fff" stop-opacity=".235"/><stop offset=".878" stop-color="#fff" stop-opacity=".157"/><stop offset="1" stop-color="#fff" stop-opacity=".392"/></linearGradient><linearGradient id="d" x1="31.981" x2="31.981" y1="1.978" y2="61.975" gradientUnits="userSpaceOnUse"><stop offset="0" stop-color="#e6e6e7"/><stop offset="1" stop-color="#fafafa"/></linearGradient><linearGradient id="p" x1="45" x2="45" y1="31" y2="53" gradientUnits="userSpaceOnUse"><stop offset="0" stop-color="#333"/><stop offset="1" stop-color="#717171"/></linearGradient><filter id="c" width="1.072" height="1.072" x="-.036" y="-.036" color-interpolation-filters="sRGB"><feGaussianBlur stdDeviation=".89"/></filter><filter id="o" width="1.12" height="1.12" x="-.06" y="-.06" color-interpolation-filters="sRGB"><feGaussianBlur stdDeviation=".55"/></filter><radialGradient id="e" cx="23.335" cy="41.636" r="22.627" gradientTransform="matrix(.95165 0 0 .36555 1.794 24.507)" gradientUnits="userSpaceOnUse"><stop offset="0"/><stop offset="1" stop-opacity="0"/></radialGradient></defs><rect width="59.315" height="59.315" x="386.85" y="486.31" filter="url(#c)" opacity=".25" ry="29.657" transform="translate(-389.32 -489.92) scale(1.0115)"/><rect width="59.997" height="59.997" x="1.983" y="1.978" fill="url(#d)" ry="29.998"/><g transform="translate(11.938 10.266) scale(.83591)"><path fill="url(#e)" fill-rule="evenodd" d="M45.533 39.727C45.535 44.296 35.893 48 24 48S2.465 44.296 2.467 39.727c-.002-4.569 9.64-8.273 21.533-8.273s21.535 3.704 21.533 8.273z" opacity=".3"/><path fill="url(#f)" stroke="url(#g)" d="M42.484 37.113c0 4.078-8.283 7.387-18.488 7.387-10.206 0-18.488-3.31-18.488-7.387 0-11.816-2.26-7.233 18.488-7.387 21.223-.159 18.488-5.446 18.488 7.387z"/><path fill="#868688" stroke="#d8d8d8" d="M42.5 30c0 4.142-8.283 7.5-18.5 7.5S5.5 34.142 5.5 30c0-4.142 8.283-7.5 18.5-7.5s18.5 3.358 18.5 7.5z"/><path fill="url(#h)" stroke="url(#i)" d="M42.484 28.113c0 4.078-8.283 7.387-18.488 7.387-10.206 0-18.488-3.31-18.488-7.387 0-13.071-2.26-7.233 18.488-7.387 21.223-.159 18.488-5.69 18.488 7.387z"/><path fill="#868688" stroke="#d8d8d8" d="M42.5 21c0 4.142-8.283 7.5-18.5 7.5S5.5 25.142 5.5 21c0-4.142 8.283-7.5 18.5-7.5s18.5 3.358 18.5 7.5z"/><path fill="url(#j)" stroke="url(#k)" d="M42.484 19.113c0 4.078-8.283 7.387-18.488 7.387-10.206 0-18.488-3.31-18.488-7.387 0-13.951-2.26-7.233 18.488-7.387 21.223-.159 18.488-5.541 18.488 7.387z"/><path fill="url(#l)" stroke="url(#m)" d="M42.5 12c0 4.142-8.283 7.5-18.5 7.5S5.5 16.142 5.5 12c0-4.142 8.283-7.5 18.5-7.5S42.5 7.858 42.5 12z"/><rect width="35" height="38" x="6.5" y="5.5" fill="none" stroke="url(#n)" color="#000" opacity=".5" rx="17.5" ry="7"/></g><path fill-rule="evenodd" d="M55.931 40.779c-.035-.31-.395-.542-.707-.542a2.443 2.443 0 0 1-2.278-1.507 2.45 2.45 0 0 1 .615-2.72.61.61 0 0 0 .067-.83 10.883 10.883 0 0 0-1.743-1.76.612.612 0 0 0-.836.068c-.655.726-1.833.996-2.743.616a2.443 2.443 0 0 1-1.486-2.388.61.61 0 0 0-.54-.642 10.98 10.98 0 0 0-2.475-.007.612.612 0 0 0-.544.63 2.447 2.447 0 0 1-1.507 2.347c-.899.367-2.068.1-2.723-.62a.613.613 0 0 0-.83-.07c-.66.517-1.259 1.11-1.78 1.76a.612.612 0 0 0 .066.835 2.438 2.438 0 0 1 .615 2.745c-.38.904-1.318 1.487-2.393 1.487a.598.598 0 0 0-.636.54 11.017 11.017 0 0 0-.004 2.501c.034.31.406.541.72.541.959-.024 1.878.569 2.264 1.508.385.937.138 2.03-.615 2.72a.611.611 0 0 0-.067.829 10.924 10.924 0 0 0 1.74 1.76.612.612 0 0 0 .838-.066c.658-.728 1.836-.998 2.742-.617a2.44 2.44 0 0 1 1.488 2.387.611.611 0 0 0 .54.643 10.935 10.935 0 0 0 2.475.007.612.612 0 0 0 .545-.63 2.445 2.445 0 0 1 1.505-2.346c.905-.37 2.07-.1 2.724.62a.615.615 0 0 0 .83.07 10.953 10.953 0 0 0 1.78-1.76.61.61 0 0 0-.066-.836 2.437 2.437 0 0 1-.616-2.744 2.463 2.463 0 0 1 2.25-1.492l.136.004a.612.612 0 0 0 .644-.54 11 11 0 0 0 .005-2.5zm-10.914 4.914a3.673 3.673 0 0 1-3.67-3.67 3.673 3.673 0 0 1 3.67-3.668 3.673 3.673 0 0 1 3.67 3.669 3.673 3.673 0 0 1-3.67 3.669z" clip-rule="evenodd" filter="url(#o)" opacity=".5"/><path fill="url(#p)" fill-rule="evenodd" d="M55.931 40.779c-.035-.31-.395-.542-.707-.542a2.443 2.443 0 0 1-2.278-1.507 2.45 2.45 0 0 1 .615-2.72.61.61 0 0 0 .067-.83 10.883 10.883 0 0 0-1.743-1.76.612.612 0 0 0-.836.068c-.655.726-1.833.996-2.743.616a2.443 2.443 0 0 1-1.486-2.388.61.61 0 0 0-.54-.642 10.98 10.98 0 0 0-2.475-.007.612.612 0 0 0-.544.63 2.447 2.447 0 0 1-1.507 2.347c-.899.367-2.068.1-2.723-.62a.613.613 0 0 0-.83-.07c-.66.517-1.259 1.11-1.78 1.76a.612.612 0 0 0 .066.835 2.438 2.438 0 0 1 .615 2.745c-.38.904-1.318 1.487-2.393 1.487a.598.598 0 0 0-.636.54 11.017 11.017 0 0 0-.004 2.501c.034.31.406.541.72.541.959-.024 1.878.569 2.264 1.508.385.937.138 2.03-.615 2.72a.611.611 0 0 0-.067.829 10.924 10.924 0 0 0 1.74 1.76.612.612 0 0 0 .838-.066c.658-.728 1.836-.998 2.742-.617a2.44 2.44 0 0 1 1.488 2.387.611.611 0 0 0 .54.643 10.935 10.935 0 0 0 2.475.007.612.612 0 0 0 .545-.63 2.445 2.445 0 0 1 1.505-2.346c.905-.37 2.07-.1 2.724.62a.615.615 0 0 0 .83.07 10.953 10.953 0 0 0 1.78-1.76.61.61 0 0 0-.066-.836 2.437 2.437 0 0 1-.616-2.744 2.463 2.463 0 0 1 2.25-1.492l.136.004a.612.612 0 0 0 .644-.54 11 11 0 0 0 .005-2.5zm-10.914 4.914a3.673 3.673 0 0 1-3.67-3.67 3.673 3.673 0 0 1 3.67-3.668 3.673 3.673 0 0 1 3.67 3.669 3.673 3.673 0 0 1-3.67 3.669z" clip-rule="evenodd"/></svg>