<svg xmlns="http://www.w3.org/2000/svg" width="64" height="64"><defs><linearGradient id="a" x1="7.937" x2="7.937" y1="15.081" y2="1.852" gradientTransform="scale(3.7796)" gradientUnits="userSpaceOnUse"><stop offset="0" stop-color="#363636"/><stop offset="1" stop-color="#6c6c6c"/></linearGradient><filter id="b" width="1.294" height="1.294" x="-.147" y="-.147" style="color-interpolation-filters:sRGB"><feGaussianBlur stdDeviation="2.955"/></filter></defs><rect width="60" height="60" x="2" y="2" fill="url(#a)" rx="30" ry="30"/><path fill="#fefefe" d="M32.02 17.637c7.915 0 14.343 6.428 14.343 14.383v.08h.442a11.15 11.15 0 0 1 8.92 4.42c.281-1.446.401-2.973.401-4.5 0-13.339-10.807-24.146-24.106-24.146-13.339 0-24.146 10.807-24.146 24.146 0 13.299 10.807 24.106 24.146 24.106a24.2 24.2 0 0 0 10.085-2.21 9.9 9.9 0 0 0 3.455.603h.683c5.062-.361 9.12-4.58 9.12-9.763 0-1.928-.562-3.696-1.486-5.223-1.768-2.732-4.822-4.58-8.317-4.58a9.79 9.79 0 0 0-9.803 9.803c0 .362 0 .723.04 1.085-1.206.322-2.491.522-3.777.522-7.955 0-14.383-6.428-14.383-14.343 0-7.955 6.428-14.383 14.383-14.383m6.067 10.566c-1.286-2.009-3.536-3.375-6.067-3.375a7.185 7.185 0 0 0-7.192 7.192c0 3.937 3.215 7.152 7.192 7.152.16 0 .322 0 .482-.04a7.124 7.124 0 0 0 6.67-7.112 7.2 7.2 0 0 0-1.085-3.817" class="fil2" style="fill:#000;stroke-width:.0401773;fill-opacity:1;filter:url(#b);opacity:.25"/><path fill="#fefefe" d="M32.02 17.637c7.915 0 14.343 6.428 14.343 14.383v.08h.442a11.15 11.15 0 0 1 8.92 4.42c.281-1.446.401-2.973.401-4.5 0-13.339-10.807-24.146-24.106-24.146-13.339 0-24.146 10.807-24.146 24.146 0 13.299 10.807 24.106 24.146 24.106a24.2 24.2 0 0 0 10.085-2.21 9.9 9.9 0 0 0 3.455.603h.683c5.062-.361 9.12-4.58 9.12-9.763 0-1.928-.562-3.696-1.486-5.223-1.768-2.732-4.822-4.58-8.317-4.58a9.79 9.79 0 0 0-9.803 9.803c0 .362 0 .723.04 1.085-1.206.322-2.491.522-3.777.522-7.955 0-14.383-6.428-14.383-14.343 0-7.955 6.428-14.383 14.383-14.383m6.067 10.566c-1.286-2.009-3.536-3.375-6.067-3.375a7.185 7.185 0 0 0-7.192 7.192c0 3.937 3.215 7.152 7.192 7.152.16 0 .322 0 .482-.04a7.124 7.124 0 0 0 6.67-7.112 7.2 7.2 0 0 0-1.085-3.817" class="fil2" style="fill:#fefefe;stroke-width:.0401773"/></svg>