<svg xmlns="http://www.w3.org/2000/svg" width="64" height="64" enable-background="new 0 0 1024 1024" image-rendering="optimizeSpeed"><defs><filter id="a" width="1.063" height="1.085" x="-.031" y="-.042" color-interpolation-filters="sRGB"><feGaussianBlur stdDeviation="8.347"/></filter><filter id="b" width="1.072" height="1.072" x="-.036" y="-.036" color-interpolation-filters="sRGB"><feGaussianBlur stdDeviation="14.17"/></filter><filter id="d" width="1.188" height="1.254" x="-.094" y="-.127" color-interpolation-filters="sRGB"><feGaussianBlur stdDeviation="1.597"/></filter><linearGradient id="c" x1="520.03" x2="520.03" y1="2.008" y2="1026" gradientTransform="translate(-.444 -.445) scale(.06336)" gradientUnits="userSpaceOnUse"><stop offset="0" stop-color="#d7d7d7"/><stop offset="1" stop-color="#fff"/></linearGradient><linearGradient id="e" x1="522.53" x2="522.53" y1="275.03" y2="755.03" gradientTransform="translate(-1.866 -1.107) scale(.06376)" gradientUnits="userSpaceOnUse"><stop offset="0" stop-color="#6b4f35"/><stop offset="1" stop-color="#323232"/></linearGradient></defs><g stroke-width="15.683"><path d="M823 299.87c-4.348-19.453-8.607-24.373-8.607-24.373s-8.647 17.992-21.868 39.594c-13.222 21.643-34.357 44.625-52.613 59.074-23.75 18.838-47.846 30.945-69.174 37.941-21.291 7.033-38.664 11.066-38.664 11.066 9.377 7.613 19.408 17.068 24.864 27.91 5.416 10.801 8.533 22.982 8.533 36.244 0 25.945-9.994 48.277-26.285 64.152-16.299 15.836-38.934 25.215-64.26 25.215-30.746 0-55.069-9.148-71.711-24.793-16.641-15.685-25.598-37.9-25.598-64.039 0-9.951 1.502-19.099 4.227-27.402 2.732-8.264 6.689-15.723 11.648-22.258 0 0-7.381 1-20.521-1.764-13.108-2.773-32.053-9.345-55.149-24.447-19.642-12.838-36.779-30.787-49.039-45.508-12.224-14.723-19.558-26.258-19.558-26.258s.729 59.387.457 92.254c-.688 91.02-9.914 91.598-9.914 91.598-11.223-15.879-23.327-29.563-37.78-39.285-14.484-9.727-31.32-15.449-52.033-15.412-25.057.037-39.084 9.336-47.076 22.254-7.996 12.953-9.955 29.48-10.762 43.972-1.461 24.983 11.145 56.271 31.936 81.256 20.826 24.983 49.881 43.705 81.436 43.668 2.229 0 4.612-.154 7.033-.463a68.758 68.758 0 0 0 7.418-1.461s7.108 6.84 23.44 17.336c16.334 10.528 41.89 24.676 78.785 39.358 19.139 7.607 39.545 15.642 65.063 21.904 25.518 6.268 56.106 10.768 95.614 11.268 54.035.652 92.584-11.268 121.33-28.563 28.787-17.297 47.812-40.01 62.838-60.994 27.131-37.979 43.465-83.527 52.957-127.77 9.494-44.203 12.187-87.103 12.031-119.73-.271-58.116-4.693-92.095-8.994-111.54zM244.46 542.75c-16.986 0-30.744-13.76-30.744-30.75 0-16.988 13.758-30.75 30.744-30.75 16.951 0 30.744 13.762 30.744 30.75 0 16.99-13.793 30.75-30.744 30.75zm165.91 15.914c-42.004-.041-58.918-27.406-58.57-51.736.387-26.6 11.529-59.616 59.07-59.271 28.975.195 56.535 25.484 56.377 55.924-.15 27.563-23.867 55.083-56.877 55.083zm272.17 96.359c-2.076 5.655-4.992 9.608-4.992 9.608s1.113-6.184 1.189-10.684c.036-4.648-1.189-10.338-1.189-10.338s-3.266 6.955-14.799 13.951c-11.527 6.957-31.666 15.682-64.793 15.682-28.363 0-43.963-4.303-52.767-6.801-8.84-2.539-10.565-5.035-10.565-5.035s22.326 2.109 45.311.84c30.818-1.648 47.92-7.994 66.597-15.023 10.803-4.112 23.563-14.646 23.563-14.646s-4.078-4.342-9.727-8.803c-5.302-4.111-12.373-8.494-12.373-8.494s6.188.729 13.524 3.615c7.342 2.918 15.875 7.955 20.56 16.526 3.651 6.69 2.498 13.954.461 19.602z" filter="url(#a)" opacity=".2" transform="translate(-1.384 .65) scale(.06376)"/><path d="M588.3 463.96c-22.252 0-40.276 17.834-40.276 39.82 0 21.946 18.024 39.78 40.276 39.78s40.273-17.834 40.273-39.78c0-21.986-18.021-39.82-40.273-39.82zm.998 56.078c-8.494 0-15.371-6.875-15.371-15.371 0-8.457 6.877-15.375 15.371-15.375 8.457 0 15.371 6.918 15.371 15.375 0 8.496-6.914 15.371-15.371 15.371zM420.43 485.76c-14.371 0-26.018 11.875-26.018 26.521 0 14.686 11.646 26.563 26.018 26.563 14.334 0 25.982-11.877 25.982-26.563 0-14.646-11.648-26.521-25.982-26.521zm.382 36.051c-4.228 0-7.687-3.42-7.687-7.686 0-4.228 3.459-7.688 7.687-7.688 4.268 0 7.688 3.461 7.688 7.688a7.66 7.66 0 0 1-7.688 7.686z" filter="url(#a)" opacity=".2" transform="translate(-1.384 .65) scale(.06376)"/></g><path d="M726.13 93.198c-8.68-4.34-17.807-8.63-27.184-12.67-8.58-3.741-17.109-7.183-25.838-10.376-41.999-15.713-84.047-25.29-126.15-28.583-69.233-5.587-138.62 5.387-208.4 32.922-23.394 9.278-45.54 19.853-66.44 31.825-41.201 23.644-77.413 52.526-108.24 86.496q-51.476 56.467-84.347 132.24c-20.201 46.54-32.771 93.23-37.759 139.32-.449 4.44-.848 8.58-1.197 12.72-3.691 45.493-.2 90.536 10.225 135.68 5.686 24.492 13.218 48.635 22.695 72.678 27.633 69.785 67.088 128.1 118.26 174.69 31.374 28.583 67.038 52.726 107.04 72.629.15.05.25.1.35.15 3.092 1.546 6.084 2.993 8.628 4.14a415.37 415.37 0 0 0 13.567 6.235c1.098.45 1.896.848 2.744 1.197 9.427 4.09 18.855 7.832 27.833 11.174 2.344.848 4.489 1.646 6.584 2.395 19.004 6.684 38.108 12.12 56.763 16.262 7.88 1.696 15.762 3.242 23.443 4.539.947.2 1.945.3 2.693.449a462.316 462.316 0 0 0 34.666 4.19c69.632 5.437 138.87-5.537 208.35-32.972 24.291-9.577 47.186-20.6 68.634-33.072 35.016-20.302 66.29-44.395 93.874-72.329 4.14-4.19 8.18-8.48 12.221-12.87a444.065 444.065 0 0 0 24.192-29.03c20.002-26.089 37.46-54.97 52.473-86.497a586.46 586.46 0 0 0 7.632-16.81c.25-.599.549-1.247.798-1.846.15-.299.25-.598.399-.897 2.793-6.585 5.437-13.22 8.08-19.953 11.622-30.578 20.102-61.505 25.29-92.831.698-4.39 1.396-9.129 2.094-13.867.898-7.333 1.746-14.815 2.345-22.547.1-1.447.25-3.143.399-4.939 1.297-19.255 1.297-38.609.1-58.262a576.818 576.818 0 0 0-1.696-19.554c-.2-1.845-.45-3.84-.699-5.836-1.995-16.36-4.938-32.773-8.928-49.583-5.437-23.095-12.819-46.64-22.147-70.234-27.484-69.586-66.839-127.75-118.31-174.69-18.705-17.06-39.255-32.723-61.402-46.839-13.817-8.879-28.232-17.06-43.645-24.84z" filter="url(#b)" opacity=".25" transform="translate(-.487 -.55) scale(.06351)"/><path fill="url(#c)" d="M45.632 5.369a33.66 33.66 0 0 0-3.367-1.464c-2.668-.998-5.339-1.606-8.013-1.815-4.397-.355-8.804.342-13.236 2.09a32.797 32.797 0 0 0-4.22 2.022c-2.616 1.502-4.916 3.336-6.874 5.494q-3.27 3.586-5.357 8.398c-1.283 2.956-2.082 5.922-2.398 8.85a27.961 27.961 0 0 0 .573 9.425c.361 1.555.84 3.088 1.441 4.615 1.755 4.433 4.261 8.136 7.511 11.095 1.993 1.816 4.258 3.35 6.799 4.613.01.003.016.007.022.01.196.098.387.19.548.263.31.149.586.275.862.396.07.028.12.054.174.076.599.26 1.198.497 1.768.71.149.053.285.104.418.152 1.207.424 2.42.77 3.605 1.032.5.108 1.001.206 1.489.289.06.012.124.019.171.028.738.117 1.47.206 2.202.266 4.422.346 8.82-.351 13.233-2.094a32.028 32.028 0 0 0 4.359-2.1 28.218 28.218 0 0 0 6.738-5.412c.532-.586 1.046-1.2 1.537-1.843a30.654 30.654 0 0 0 3.332-5.494c.165-.348.327-.703.485-1.068.016-.038.035-.079.05-.117.01-.019.017-.038.026-.057.178-.418.346-.84.513-1.267a30.676 30.676 0 0 0 1.607-5.896c.044-.279.088-.58.133-.88a33.768 33.768 0 0 0 .174-1.746 28.83 28.83 0 0 0 .006-3.7 36.625 36.625 0 0 0-.107-1.243 28.538 28.538 0 0 0-.611-3.52 32.284 32.284 0 0 0-1.407-4.46c-1.746-4.42-4.246-8.114-7.515-11.095a28.57 28.57 0 0 0-3.9-2.975 30.64 30.64 0 0 0-2.771-1.578z"/><path d="M50.061 17.188s-.55 1.148-1.393 2.525c-.843 1.38-2.191 2.845-3.355 3.766-1.514 1.201-3.05 1.974-4.41 2.42-1.358.448-2.467.705-2.467.705.598.485 1.238 1.088 1.586 1.78.345.688.545 1.466.545 2.312 0 1.654-.637 3.077-1.676 4.09-1.04 1.01-2.483 1.607-4.098 1.607-1.96 0-3.51-.583-4.572-1.58-1.061-1-1.633-2.417-1.633-4.084 0-.635.096-1.219.27-1.748a4.858 4.858 0 0 1 .742-1.418s-.47.063-1.309-.113c-.836-.177-2.043-.596-3.515-1.559-1.253-.819-2.346-1.964-3.127-2.902-.78-.94-1.246-1.674-1.246-1.674s.044 3.787.027 5.883c-.044 5.803-.631 5.84-.631 5.84-.716-1.013-1.489-1.885-2.41-2.504-.924-.62-1.996-.985-3.317-.983-1.597.003-2.492.594-3.002 1.418-.51.826-.634 1.88-.685 2.805-.093 1.593.71 3.586 2.035 5.18 1.328 1.593 3.181 2.787 5.193 2.785a3.553 3.553 0 0 0 .922-.123s.453.436 1.494 1.105c1.042.672 2.671 1.574 5.024 2.51 1.22.485 2.521.997 4.148 1.397 1.627.4 3.577.686 6.096.718 3.445.042 5.903-.72 7.736-1.822 1.836-1.103 3.05-2.55 4.008-3.889 1.73-2.421 2.77-5.325 3.375-8.146.605-2.819.778-5.555.768-7.635-.018-3.706-.298-5.872-.573-7.111h-.002c-.277-1.24-.548-1.555-.548-1.555zM24.332 28.165c1.847.012 3.606 1.625 3.596 3.566-.01 1.758-1.522 3.512-3.627 3.512-2.679-.003-3.757-1.747-3.735-3.299.025-1.696.735-3.801 3.766-3.779zm11.312 1.041c-1.419 0-2.566 1.137-2.566 2.54 0 1.398 1.147 2.534 2.566 2.534s2.568-1.135 2.568-2.535c0-1.402-1.15-2.539-2.568-2.539zM13.72 30.308c1.08 0 1.96.877 1.96 1.96a1.959 1.959 0 1 1-3.92 0 1.96 1.96 0 0 1 1.96-1.96zm11.221.287c-.916 0-1.658.757-1.658 1.691 0 .937.742 1.694 1.658 1.694.914 0 1.656-.757 1.656-1.694 0-.934-.742-1.691-1.656-1.691zm10.768.226a.98.98 0 1 1 0 1.958.98.98 0 0 1 0-1.958zm-10.742 1.092a.49.49 0 1 1 0 .98.49.49 0 0 1 0-.98zm14.484 6.941s.396.047.863.23c.468.187 1.012.507 1.31 1.054.234.426.16.89.03 1.25-.132.36-.318.613-.318.613s.071-.395.076-.682c.002-.296-.076-.658-.076-.658s-.208.443-.944.889c-.735.443-2.018 1-4.13 1-1.809 0-2.804-.275-3.366-.434-.563-.162-.674-.32-.674-.32s1.424.133 2.89.053c1.964-.106 3.054-.51 4.245-.957.69-.263 1.504-.936 1.504-.936s-.26-.276-.621-.56c-.338-.263-.789-.542-.789-.542z" filter="url(#d)" opacity=".15"/><path fill="url(#e)" d="M50.061 16.459s-.55 1.148-1.393 2.525c-.843 1.38-2.191 2.845-3.355 3.766-1.514 1.201-3.05 1.974-4.41 2.42-1.358.448-2.467.705-2.467.705.598.485 1.238 1.088 1.586 1.78.345.688.545 1.466.545 2.312 0 1.654-.637 3.077-1.676 4.09-1.04 1.01-2.483 1.607-4.098 1.607-1.96 0-3.51-.583-4.572-1.58-1.061-1-1.633-2.417-1.633-4.084 0-.635.096-1.219.27-1.748a4.858 4.858 0 0 1 .742-1.418s-.47.063-1.309-.113c-.836-.177-2.043-.596-3.515-1.559-1.253-.819-2.346-1.964-3.127-2.902-.78-.94-1.246-1.674-1.246-1.674s.044 3.787.027 5.883c-.044 5.803-.631 5.84-.631 5.84-.716-1.013-1.489-1.885-2.41-2.504-.924-.62-1.996-.985-3.317-.983-1.597.003-2.492.594-3.002 1.418-.51.826-.634 1.88-.685 2.805-.093 1.593.71 3.586 2.035 5.18 1.328 1.593 3.181 2.787 5.193 2.785a3.55 3.55 0 0 0 .922-.123s.453.436 1.494 1.105c1.042.672 2.671 1.574 5.024 2.51 1.22.485 2.521.997 4.148 1.397 1.627.4 3.577.686 6.096.718 3.445.042 5.903-.72 7.736-1.822 1.836-1.103 3.05-2.55 4.008-3.889 1.73-2.421 2.77-5.325 3.375-8.146.605-2.819.778-5.555.768-7.635-.018-3.706-.298-5.872-.573-7.111h-.002c-.277-1.24-.548-1.555-.548-1.555zM24.332 27.436c1.847.012 3.606 1.625 3.596 3.566-.01 1.758-1.522 3.512-3.627 3.512-2.679-.003-3.757-1.747-3.735-3.299.025-1.696.735-3.801 3.766-3.779zm11.312 1.041c-1.419 0-2.566 1.137-2.566 2.54 0 1.398 1.147 2.534 2.566 2.534s2.568-1.135 2.568-2.535c0-1.402-1.15-2.539-2.568-2.539zM13.72 29.579c1.08 0 1.96.877 1.96 1.96a1.959 1.959 0 1 1-3.92 0 1.96 1.96 0 0 1 1.96-1.96zm11.221.287c-.916 0-1.658.757-1.658 1.691 0 .937.742 1.694 1.658 1.694.914 0 1.656-.757 1.656-1.694 0-.934-.742-1.691-1.656-1.691zm10.768.226a.98.98 0 1 1 0 1.958.98.98 0 0 1 0-1.958zm-10.742 1.092a.49.49 0 1 1 0 .98.49.49 0 0 1 0-.98zm14.484 6.941s.396.047.863.23c.468.187 1.012.507 1.31 1.054.234.426.16.89.03 1.25-.132.36-.318.613-.318.613s.071-.395.076-.682c.002-.296-.076-.658-.076-.658s-.208.443-.944.889c-.735.443-2.018 1-4.13 1-1.809 0-2.804-.275-3.366-.434-.563-.162-.674-.32-.674-.32s1.424.133 2.89.053c1.964-.105 3.054-.51 4.245-.957.689-.263 1.504-.936 1.504-.936s-.26-.276-.621-.56c-.338-.263-.789-.542-.789-.542z"/></svg>