<svg xmlns="http://www.w3.org/2000/svg" width="64" height="64"><defs><filter id="a" width="1.072" height="1.072" x="-.036" y="-.036" color-interpolation-filters="sRGB"><feGaussianBlur stdDeviation="1.814"/></filter><filter id="c" width="1.13" height="1.111" x="-.065" y="-.056" color-interpolation-filters="sRGB"><feGaussianBlur stdDeviation=".975"/></filter><filter id="d" width="1.028" height="1.028" x="-.014" y="-.014" color-interpolation-filters="sRGB"><feGaussianBlur stdDeviation=".298"/></filter><filter id="e" width="1.059" height="1.059" x="-.03" y="-.03" color-interpolation-filters="sRGB"><feGaussianBlur stdDeviation=".298"/></filter><linearGradient id="b" x1="68.113" x2="68.113" y1="119.96" y2="8.781" gradientTransform="translate(-1.8 -2.357)scale(.49622)" gradientUnits="userSpaceOnUse"><stop offset="0" stop-color="#8034a9"/><stop offset="1" stop-color="#d26ef7"/></linearGradient></defs><path d="M68.113-63.752c-33.39 0-60.457 27.067-60.457 60.457s27.067 60.457 60.457 60.457S128.57 30.095 128.57-3.295s-27.067-60.457-60.457-60.457" filter="url(#a)" opacity=".25" style="paint-order:fill markers stroke" transform="translate(-1.8 33.635)scale(.49622)"/><path fill="url(#b)" d="M32 2C15.431 2 2 15.431 2 32s13.431 30 30 30 30-13.431 30-30S48.569 2 32 2" style="paint-order:fill markers stroke"/><path d="M103.77 18.547c-.852-.04-3.253.245-7.006 2.856-2.1-.634-4.496-.868-6.994-.862-2.285.006-4.655.193-6.959.862-3.754-2.611-5.672-2.894-6.525-2.854a1.8 1.8 0 0 0-.422.057c-1.427 3.702-.524 6.44-.254 7.12-1.677 1.88-2.66 4.28-2.66 7.216 0 10.307 6.678 12.616 12.498 13.295-.749.672-1.22 2.061-1.457 3.798-1.493.689-5.499 2.374-7.836-1.736 0 0-1.383-2.584-4.014-2.773 0 0-2.557-.033-.178 1.634 0 0 1.718.828 2.91 3.936 0 0 1.771 4.73 9.061 3.105.007 1.263.013 3.615.02 5.891a28.16 28.16 0 0 0 12.992-.707c.007-2.775.015-6.052.015-8.187 0-2.509-1.037-4.15-1.976-4.98 5.837-.666 11.965-2.943 11.965-13.276 0-2.936-.817-5.338-2.496-7.217.268-.68 1.17-3.417-.26-7.119 0 0-.138-.045-.422-.058z" filter="url(#c)" opacity=".15" transform="translate(-63.305 -2.868)scale(1.0715)"/><path fill="#fff" d="M47.88 17.005c-.913-.043-3.486.262-7.506 3.06-2.25-.679-4.818-.93-7.494-.923-2.45.006-4.989.206-7.457.923-4.022-2.798-6.078-3.101-6.991-3.058-.305.014-.452.06-.452.06-1.53 3.967-.562 6.902-.272 7.63-1.797 2.014-2.85 4.585-2.85 7.731 0 11.044 7.155 13.518 13.39 14.245-.801.72-1.306 2.21-1.56 4.07-1.6.738-5.892 2.544-8.397-1.86 0 0-1.482-2.768-4.3-2.972 0 0-2.74-.035-.19 1.752 0 0 1.84.887 3.117 4.217 0 0 1.897 5.068 9.708 3.327.008 1.352.015 3.873.021 6.312a30.2 30.2 0 0 0 13.92-.758c.009-2.973.018-6.484.018-8.772 0-2.688-1.111-4.447-2.118-5.337 6.254-.713 12.82-3.152 12.82-14.224 0-3.145-.875-5.719-2.675-7.732.288-.73 1.255-3.661-.278-7.628 0 0-.148-.049-.452-.063z"/><path fill="#fff" d="M10.787 10.787a29.934 29.934 0 0 0 0 42.426c.119.119.242.23.362.345-11.4-11.775-11.288-30.43.345-42.065S41.784-.25 53.56 11.148c-.116-.12-.227-.243-.345-.362a29.934 29.934 0 0 0-42.426 0z" filter="url(#d)" opacity=".35"/><path fill="#fff" d="M37.435 61.526c5.772-1.063 11.297-3.831 15.779-8.313s7.25-10.007 8.313-15.779c-1.592 5.434-4.606 10.657-9.02 15.072s-9.639 7.428-15.072 9.02" filter="url(#e)" opacity=".35"/></svg>