<svg xmlns="http://www.w3.org/2000/svg" width="64" height="64"><defs><linearGradient id="b" x1="31.914" x2="31.894" y1="5.346" y2="59.613" gradientUnits="userSpaceOnUse"><stop offset="0" stop-color="#194c62"/><stop offset="1" stop-color="#423f76"/></linearGradient><linearGradient id="f" x1="31.386" x2="31.622" y1="16.646" y2="51.602" gradientUnits="userSpaceOnUse"><stop offset="0" stop-color="#33e3f6"/><stop offset="1" stop-color="#36efba"/></linearGradient><linearGradient id="d" x1="31.948" x2="31.861" y1="9.756" y2="54.627" gradientTransform="translate(.696 .696) scale(.97824)" gradientUnits="userSpaceOnUse"><stop offset="0" stop-color="#1086b9"/><stop offset="1" stop-color="#5d59a6"/></linearGradient><filter id="a" width="1.072" height="1.072" x="-.036" y="-.036" color-interpolation-filters="sRGB"><feGaussianBlur stdDeviation=".9"/></filter><filter id="e" width="1.113" height="1.129" x="-.056" y="-.064" color-interpolation-filters="sRGB"><feGaussianBlur stdDeviation=".917"/></filter><filter id="c" width="1.12" height="1.12" x="-.06" y="-.06" color-interpolation-filters="sRGB"><feGaussianBlur stdDeviation="1.278"/></filter></defs><g stroke-width="1.111"><circle cx="32" cy="32" r="30" filter="url(#a)" opacity=".25"/><circle cx="32" cy="32" r="30" fill="url(#b)"/><circle cx="32" cy="32" r="25.556" filter="url(#c)" opacity=".25" transform="translate(.137 .137) scale(.99571)"/></g><g stroke-width="1.111"><circle cx="32" cy="32" r="25" fill="url(#d)"/><path d="M23.813 17.224a.652.652 0 0 0-.29.092 16.961 16.961 0 0 0-7.9 19.073A16.958 16.958 0 0 0 27.25 48.276a.652.652 0 0 0 .835-.624v-6.005a10.435 10.435 0 0 0 1.305.443v7.898c-2.995-.437-5.862-1.528-8.295-3.34a18.255 18.255 0 0 1-6.255-20.893.652.652 0 0 0-.652-.884.652.652 0 0 0-.573.438 19.565 19.565 0 0 0 16.36 26.15.652.652 0 0 0 .719-.647v-8.47a10.435 10.435 0 0 0 1.307.091 10.435 10.435 0 0 0 1.307-.094v8.473a.652.652 0 0 0 .721.647 19.561 19.561 0 0 0 16.355-26.15.652.652 0 0 0-.657-.438.652.652 0 0 0-.568.884 18.256 18.256 0 0 1-6.254 20.893c-2.434 1.812-5.298 2.906-8.293 3.342v-7.907a10.435 10.435 0 0 0 1.307-.428v5.997a.652.652 0 0 0 .833.624A16.958 16.958 0 0 0 48.38 36.389a16.962 16.962 0 0 0-7.9-19.073.652.652 0 0 0-.374-.092.652.652 0 0 0-.278 1.22 15.647 15.647 0 0 1 7.294 17.606c-1.335 4.984-5.076 8.887-9.897 10.608v-5.597a3.26 3.26 0 0 0 2.603-3.192 3.26 3.26 0 0 0-2.017-3.01c1.092-5.18 3.322-3.385 3.322-5.356v-.716c0-1.852-5.602-11.135-9.13-11.135s-9.131 9.284-9.131 11.135v.716c0 1.97 2.23.177 3.322 5.353a3.26 3.26 0 0 0-2.018 3.013 3.26 3.26 0 0 0 2.606 3.19v5.602c-4.823-1.721-8.564-5.626-9.9-10.611a15.647 15.647 0 0 1 7.294-17.606.652.652 0 0 0-.362-1.22zm3.623 18.689a1.956 1.956 0 0 1 1.956 1.956 1.956 1.956 0 0 1-1.956 1.957 1.956 1.956 0 0 1-1.957-1.957 1.956 1.956 0 0 1 1.957-1.956zm9.13 0a1.956 1.956 0 0 1 1.956 1.956 1.956 1.956 0 0 1-1.956 1.957 1.956 1.956 0 0 1-1.957-1.957 1.956 1.956 0 0 1 1.957-1.956z" filter="url(#e)" opacity=".25"/><path fill="url(#f)" d="M23.813 17.224a.652.652 0 0 0-.29.092 16.961 16.961 0 0 0-7.9 19.073A16.958 16.958 0 0 0 27.25 48.276a.652.652 0 0 0 .835-.624v-6.005a10.435 10.435 0 0 0 1.305.443v7.898c-2.995-.437-5.862-1.528-8.295-3.34a18.255 18.255 0 0 1-6.255-20.893.652.652 0 0 0-.652-.884.652.652 0 0 0-.573.438 19.565 19.565 0 0 0 16.36 26.15.652.652 0 0 0 .719-.647v-8.47a10.435 10.435 0 0 0 1.307.091 10.435 10.435 0 0 0 1.307-.094v8.473a.652.652 0 0 0 .721.647 19.561 19.561 0 0 0 16.355-26.15.652.652 0 0 0-.657-.438.652.652 0 0 0-.568.884 18.256 18.256 0 0 1-6.254 20.893c-2.434 1.812-5.298 2.906-8.293 3.342v-7.907a10.435 10.435 0 0 0 1.307-.428v5.997a.652.652 0 0 0 .833.624A16.958 16.958 0 0 0 48.38 36.389a16.962 16.962 0 0 0-7.9-19.073.652.652 0 0 0-.374-.092.652.652 0 0 0-.278 1.22 15.647 15.647 0 0 1 7.294 17.606c-1.335 4.984-5.076 8.887-9.897 10.608v-5.597a3.26 3.26 0 0 0 2.603-3.192 3.26 3.26 0 0 0-2.017-3.01c1.092-5.18 3.322-3.385 3.322-5.356v-.716c0-1.852-5.602-11.135-9.13-11.135s-9.131 9.284-9.131 11.135v.716c0 1.97 2.23.177 3.322 5.353a3.26 3.26 0 0 0-2.018 3.013 3.26 3.26 0 0 0 2.606 3.19v5.602c-4.823-1.721-8.564-5.626-9.9-10.611a15.647 15.647 0 0 1 7.294-17.606.652.652 0 0 0-.362-1.22zm3.623 18.689a1.956 1.956 0 0 1 1.956 1.956 1.956 1.956 0 0 1-1.956 1.957 1.956 1.956 0 0 1-1.957-1.957 1.956 1.956 0 0 1 1.957-1.956zm9.13 0a1.956 1.956 0 0 1 1.956 1.956 1.956 1.956 0 0 1-1.956 1.957 1.956 1.956 0 0 1-1.957-1.957 1.956 1.956 0 0 1 1.957-1.956z"/></g></svg>