<svg id="svg10" width="64" height="64" version="1.1" viewBox="0 0 64 64" xmlns="http://www.w3.org/2000/svg">
 <defs id="defs14">
  <filter id="filter844" x="-.036" y="-.036" width="1.072" height="1.072" color-interpolation-filters="sRGB">
   <feGaussianBlur id="feGaussianBlur846" stdDeviation="0.9"/>
  </filter>
  <linearGradient id="linearGradient854" x1="31.914" x2="31.894" y1="5.3457" y2="59.613" gradientUnits="userSpaceOnUse">
   <stop id="stop848" stop-color="#194c62" offset="0"/>
   <stop id="stop850" stop-color="#423f76" offset="1"/>
  </linearGradient>
  <linearGradient id="linearGradient862" x1="31.386" x2="31.622" y1="16.646" y2="51.602" gradientUnits="userSpaceOnUse">
   <stop id="stop856" stop-color="#33e3f6" offset="0"/>
   <stop id="stop858" stop-color="#36efba" offset="1"/>
  </linearGradient>
  <filter id="filter886" x="-.056252" y="-.064283" width="1.1125" height="1.1286" color-interpolation-filters="sRGB">
   <feGaussianBlur id="feGaussianBlur888" stdDeviation="0.91713894"/>
  </filter>
  <filter id="filter912" x="-.06" y="-.06" width="1.12" height="1.12" color-interpolation-filters="sRGB">
   <feGaussianBlur id="feGaussianBlur914" stdDeviation="1.2778044"/>
  </filter>
  <linearGradient id="linearGradient922" x1="31.948" x2="31.861" y1="9.7561" y2="54.627" gradientTransform="matrix(.97824 0 0 .97824 .6962 .6962)" gradientUnits="userSpaceOnUse">
   <stop id="stop924" stop-color="#1086b9" offset="0"/>
   <stop id="stop926" stop-color="#5d59a6" offset="1"/>
  </linearGradient>
 </defs>
 <g id="g21" stroke-width="1.1111">
  <circle id="circle826" cx="32" cy="32" r="30" filter="url(#filter844)" opacity=".25"/>
  <circle id="circle2" cx="32" cy="32" r="30" fill="url(#linearGradient854)"/>
  <circle id="circle890" transform="matrix(.99571 0 0 .99571 .1372 .1372)" cx="32" cy="32" r="25.556" filter="url(#filter912)" opacity=".25"/>
 </g>
 <g id="g26" stroke-width="1.1111">
  <circle id="circle4" cx="32" cy="32" r="25" fill="url(#linearGradient922)" stroke-width="1.0869"/>
  <path id="path864" d="m23.813 17.224a0.65224 0.65224 0 0 0-0.29043 0.09171c-6.6436 3.8357-9.8854 11.663-7.8999 19.073 1.5329 5.7207 5.942 10.227 11.627 11.887a0.65224 0.65224 0 0 0 0.83559-0.62416v-6.0046a10.435 10.435 0 0 0 1.3043 0.44327v7.8974c-2.9947-0.43626-5.8611-1.5279-8.2949-3.3398-6.4736-4.8196-9.0145-13.308-6.2542-20.893a0.65224 0.65224 0 0 0-0.65217-0.88401 0.65224 0.65224 0 0 0-0.5732 0.43818c-2.9554 8.1203-0.22872 17.225 6.7027 22.385 2.822 2.1009 6.1586 3.401 9.6578 3.7653a0.65224 0.65224 0 0 0 0.71841-0.64707v-8.4706a10.435 10.435 0 0 0 1.307 0.09171 10.435 10.435 0 0 0 1.307-0.09427v8.4732a0.65224 0.65224 0 0 0 0.72096 0.64707c3.4985-0.36456 6.8339-1.6647 9.6552-3.7653 6.9313-5.1603 9.6556-14.266 6.7-22.385a0.65224 0.65224 0 0 0-0.65727-0.43818 0.65224 0.65224 0 0 0-0.56811 0.88401c2.7603 7.5841 0.2193 16.073-6.2542 20.893-2.4339 1.812-5.2973 2.9062-8.2923 3.3424v-7.9076a10.435 10.435 0 0 0 1.307-0.42798v5.997a0.65224 0.65224 0 0 0 0.83305 0.62416c5.6849-1.6598 10.094-6.1664 11.627-11.887 1.9855-7.41-1.2564-15.237-7.8999-19.073a0.65224 0.65224 0 0 0-0.37449-0.09171 0.65224 0.65224 0 0 0-0.27768 1.2203c6.1377 3.5437 9.128 10.76 7.2937 17.606-1.3353 4.9833-5.0757 8.8863-9.8973 10.608v-5.597a3.2609 3.2609 0 0 0 2.6036-3.1921 3.2609 3.2609 0 0 0-2.0177-3.0112c1.0923-5.1785 3.322-3.3844 3.322-5.355v-0.71586c0-1.8518-5.6019-11.135-9.1304-11.135s-9.1304 9.2836-9.1304 11.135v0.71586c0 1.9703 2.2295 0.1765 3.322 5.3524a3.2609 3.2609 0 0 0-2.0177 3.0137 3.2609 3.2609 0 0 0 2.6061 3.1895v5.602c-4.8232-1.7211-8.5642-5.626-9.8997-10.611-1.8343-6.8459 1.1559-14.062 7.2937-17.606a0.65224 0.65224 0 0 0-0.36175-1.2203zm3.6226 18.689a1.9565 1.9565 0 0 1 1.9565 1.9565 1.9565 1.9565 0 0 1-1.9565 1.9565 1.9565 1.9565 0 0 1-1.9565-1.9565 1.9565 1.9565 0 0 1 1.9565-1.9565zm9.1304 0a1.9565 1.9565 0 0 1 1.9565 1.9565 1.9565 1.9565 0 0 1-1.9565 1.9565 1.9565 1.9565 0 0 1-1.9565-1.9565 1.9565 1.9565 0 0 1 1.9565-1.9565z" filter="url(#filter886)" opacity=".25"/>
  <path id="path6" d="m23.813 17.224a0.65224 0.65224 0 0 0-0.29043 0.09171c-6.6436 3.8357-9.8854 11.663-7.8999 19.073 1.5329 5.7207 5.942 10.227 11.627 11.887a0.65224 0.65224 0 0 0 0.83559-0.62416v-6.0046a10.435 10.435 0 0 0 1.3043 0.44327v7.8974c-2.9947-0.43626-5.8611-1.5279-8.2949-3.3398-6.4736-4.8196-9.0145-13.308-6.2542-20.893a0.65224 0.65224 0 0 0-0.65217-0.88401 0.65224 0.65224 0 0 0-0.5732 0.43818c-2.9554 8.1203-0.22872 17.225 6.7027 22.385 2.822 2.1009 6.1586 3.401 9.6578 3.7653a0.65224 0.65224 0 0 0 0.71841-0.64707v-8.4706a10.435 10.435 0 0 0 1.307 0.09171 10.435 10.435 0 0 0 1.307-0.09427v8.4732a0.65224 0.65224 0 0 0 0.72096 0.64707c3.4985-0.36456 6.8339-1.6647 9.6552-3.7653 6.9313-5.1603 9.6556-14.266 6.7-22.385a0.65224 0.65224 0 0 0-0.65727-0.43818 0.65224 0.65224 0 0 0-0.56811 0.88401c2.7603 7.5841 0.2193 16.073-6.2542 20.893-2.4339 1.812-5.2973 2.9062-8.2923 3.3424v-7.9076a10.435 10.435 0 0 0 1.307-0.42798v5.997a0.65224 0.65224 0 0 0 0.83305 0.62416c5.6849-1.6598 10.094-6.1664 11.627-11.887 1.9855-7.41-1.2564-15.237-7.8999-19.073a0.65224 0.65224 0 0 0-0.37449-0.09171 0.65224 0.65224 0 0 0-0.27768 1.2203c6.1377 3.5437 9.128 10.76 7.2937 17.606-1.3353 4.9833-5.0757 8.8863-9.8973 10.608v-5.597a3.2609 3.2609 0 0 0 2.6036-3.1921 3.2609 3.2609 0 0 0-2.0177-3.0112c1.0923-5.1785 3.322-3.3844 3.322-5.355v-0.71586c0-1.8518-5.6019-11.135-9.1304-11.135s-9.1304 9.2836-9.1304 11.135v0.71586c0 1.9703 2.2295 0.1765 3.322 5.3524a3.2609 3.2609 0 0 0-2.0177 3.0137 3.2609 3.2609 0 0 0 2.6061 3.1895v5.602c-4.8232-1.7211-8.5642-5.626-9.8997-10.611-1.8343-6.8459 1.1559-14.062 7.2937-17.606a0.65224 0.65224 0 0 0-0.36175-1.2203zm3.6226 18.689a1.9565 1.9565 0 0 1 1.9565 1.9565 1.9565 1.9565 0 0 1-1.9565 1.9565 1.9565 1.9565 0 0 1-1.9565-1.9565 1.9565 1.9565 0 0 1 1.9565-1.9565zm9.1304 0a1.9565 1.9565 0 0 1 1.9565 1.9565 1.9565 1.9565 0 0 1-1.9565 1.9565 1.9565 1.9565 0 0 1-1.9565-1.9565 1.9565 1.9565 0 0 1 1.9565-1.9565z" fill="url(#linearGradient862)"/>
 </g>
</svg>
