<svg width="64" height="64" xmlns="http://www.w3.org/2000/svg"><defs><linearGradient id="b" x1="408.25" x2="407.94" y1="547.6" y2="498.89" gradientTransform="translate(-510.64 -663.52) scale(1.3276)" gradientUnits="userSpaceOnUse"><stop stop-color="#fff" offset="0"/><stop stop-color="#e6e6e6" offset="1"/></linearGradient><linearGradient id="d" x1="32" x2="32" y1="22" y2="54" gradientUnits="userSpaceOnUse"><stop stop-color="#4cde04" offset="0"/><stop stop-color="#7ae317" offset="1"/></linearGradient><filter id="a" x="-.036" y="-.036" width="1.072" height="1.072" color-interpolation-filters="sRGB"><feGaussianBlur stdDeviation=".89"/></filter><filter id="c" x="-.05" y="-.075" width="1.1" height="1.15" color-interpolation-filters="sRGB"><feGaussianBlur stdDeviation="1"/></filter></defs><rect transform="translate(-389.32 -489.92) scale(1.0115)" x="386.85" y="486.31" width="59.315" height="59.315" ry="29.657" filter="url(#a)" opacity=".25"/><rect x="1.983" y="1.978" width="59.997" height="59.997" ry="29.998" fill="url(#b)"/><g fill="#b3b3b3"><path opacity=".5" d="M11 16h42v1H11zM11 20h42v1H11zM11 43h42v1H11zM11 47h42v1H11z"/><path opacity=".5" d="M15 14v36h-1V14zM50 14v36h-1V14z"/></g><path d="M8 54h48V22zm41-7H31l18-12z" filter="url(#c)" opacity=".15"/><path d="M8 54h48V22zm41-7H31l18-12z" fill="url(#d)"/><circle cx="21.5" cy="26.5" r="2" fill="none" stroke="#c9caca" stroke-miterlimit="10"/><circle cx="21.5" cy="36.5" r="2" fill="none" stroke="#c9caca" stroke-miterlimit="10"/></svg>