<svg width="64" height="64" enable-background="new 0 0 1024 1024" image-rendering="optimizeSpeed" xmlns="http://www.w3.org/2000/svg"><defs><linearGradient id="b" x1="519.68" x2="519.68" y1="2.826" y2="1026.1" gradientTransform="translate(-.03 -.819) scale(1.0007)" gradientUnits="userSpaceOnUse"><stop stop-color="#d7d7d7" offset="0"/><stop stop-color="#faf8f6" offset=".5"/><stop stop-color="#fff" offset="1"/></linearGradient><linearGradient id="d" x1="23.683" x2="25.655" y1="-25.544" y2="75.049" gradientUnits="userSpaceOnUse"><stop stop-color="#111" offset="0"/><stop stop-color="#4c4c4c" offset=".549"/><stop stop-color="#888" offset="1"/></linearGradient><linearGradient id="f" x1="43" x2="31.45" y1="12" y2="49" gradientUnits="userSpaceOnUse"><stop stop-color="#0059ff" offset="0"/><stop stop-color="#31fbff" offset="1"/></linearGradient><filter id="c" x="-.036" y="-.036" width="1.072" height="1.072" color-interpolation-filters="sRGB"><feGaussianBlur stdDeviation=".755"/></filter><filter id="a" x="-.036" y="-.036" width="1.072" height="1.072" color-interpolation-filters="sRGB"><feGaussianBlur stdDeviation="14.17"/></filter><filter id="e" x="-.031" y="-.043" width="1.062" height="1.086" color-interpolation-filters="sRGB"><feGaussianBlur stdDeviation=".456"/></filter></defs><path d="M970.43 391.52a514.995 514.995 0 0 0-3.653-13.61c-1-3.403-2.001-6.855-3.152-10.508a421.479 421.479 0 0 0-5.304-15.862c-6.455-18.263-14.16-36.076-23.167-53.689a475.424 475.424 0 0 0-12.309-22.416c-20.315-34.525-45.833-67.249-76.406-97.821-72.653-72.653-157.26-116.74-253.84-132.15a484.051 484.051 0 0 0-50.087-5.354c-9.707-.55-19.865-.85-30.122-.85-9.357 0-18.614.25-27.92.75-118.44 6.105-220.46 51.988-306.07 137.6Q40.05 315.96 40.05 511.6c0 130.45 46.134 241.83 138.35 334.04 56.741 56.691 120.64 95.97 191.24 117.64 36.777 11.258 74.855 17.863 114.83 19.965h.4c8.507.45 16.612.7 24.518.7h3.003a583.3 583.3 0 0 0 30.122-.8c2.501-.15 4.753-.3 6.955-.45 20.215-1.451 39.929-4.053 58.743-7.706a519.823 519.823 0 0 0 23.417-5.154c80.859-20.315 152.26-61.645 214.81-124.19 48.636-48.636 84.462-102.57 107.43-161.92 18.463-47.685 28.67-98.872 30.572-153.61.2-6.054.3-12.259.3-18.514V508.6c-.2-40.68-4.954-79.558-14.31-117.09z" filter="url(#a)" opacity=".25" transform="matrix(.06351 0 0 .06351 -.544 -.493)"/><path d="M970.43 391.52a514.995 514.995 0 0 0-3.653-13.61c-1-3.403-2.001-6.855-3.152-10.508a421.479 421.479 0 0 0-5.304-15.862c-6.455-18.263-14.16-36.076-23.167-53.689a475.424 475.424 0 0 0-12.309-22.416c-20.315-34.525-45.833-67.249-76.406-97.821-72.653-72.653-157.26-116.74-253.84-132.15a484.051 484.051 0 0 0-50.087-5.354c-9.707-.55-19.865-.85-30.122-.85-9.357 0-18.614.25-27.92.75-118.44 6.105-220.46 51.988-306.07 137.6Q40.05 315.96 40.05 511.6c0 130.45 46.134 241.83 138.35 334.04 56.741 56.691 120.64 95.97 191.24 117.64 36.777 11.258 74.855 17.863 114.83 19.965h.4c8.507.45 16.612.7 24.518.7h3.003a583.3 583.3 0 0 0 30.122-.8c2.501-.15 4.753-.3 6.955-.45 20.215-1.451 39.929-4.053 58.743-7.706a519.823 519.823 0 0 0 23.417-5.154c80.859-20.315 152.26-61.645 214.81-124.19 48.636-48.636 84.462-102.57 107.43-161.92 18.463-47.685 28.67-98.872 30.572-153.61.2-6.054.3-12.259.3-18.514V508.6c-.2-40.68-4.954-79.558-14.31-117.09z" fill="url(#b)" transform="matrix(.06351 0 0 .06351 -.544 -.493)"/><g transform="translate(15.898 16.787) scale(.64656)" filter="url(#c)" opacity=".2" stroke-width="15.683"/><path d="M45.971 19.545 29 36.516l-9.9-9.9-4.243 4.242L29 45l21.213-21.213z" fill-rule="evenodd" filter="url(#e)" opacity=".25" style="paint-order:fill markers stroke"/><path d="M45.971 19.545 29 36.516l-9.9-9.9-4.243 4.242L29 45l21.213-21.213z" fill="url(#f)" fill-rule="evenodd" style="paint-order:fill markers stroke"/></svg>