<svg xmlns="http://www.w3.org/2000/svg" xmlns:xlink="http://www.w3.org/1999/xlink" width="64" height="64"><defs><linearGradient id="a"><stop offset="0" stop-color="#f60"/><stop offset="1" stop-color="#f60" stop-opacity="0"/></linearGradient><linearGradient id="c" x1="408.25" x2="407.94" y1="547.6" y2="498.89" gradientTransform="translate(-510.64 -663.52) scale(1.3276)" gradientUnits="userSpaceOnUse"><stop offset="0" stop-color="#fff"/><stop offset="1" stop-color="#e6e6e6"/></linearGradient><linearGradient id="e" x1="32.243" x2="32.42" y1="47.827" y2="14.844" gradientTransform="translate(-1.071 -.337)" gradientUnits="userSpaceOnUse"><stop offset="0" stop-color="#ff4c1c"/><stop offset="1" stop-color="#ffbf25"/></linearGradient><linearGradient xlink:href="#a" id="f" x1="12.684" x2="48.336" y1="29.802" y2="29.802" gradientTransform="translate(-1.071 -.337)" gradientUnits="userSpaceOnUse"/><filter id="b" width="1.072" height="1.072" x="-.036" y="-.036" color-interpolation-filters="sRGB"><feGaussianBlur stdDeviation=".89"/></filter><filter id="d" width="1.123" height="1.117" x="-.062" y="-.059" color-interpolation-filters="sRGB"><feGaussianBlur stdDeviation=".741"/></filter></defs><rect width="59.315" height="59.315" x="386.85" y="486.31" filter="url(#b)" opacity=".25" ry="29.657" transform="translate(-389.32 -489.92) scale(1.0115)"/><rect width="59.997" height="59.997" x="1.983" y="1.978" fill="url(#c)" ry="29.998"/><g filter="url(#d)" opacity=".15" transform="translate(-4.373 -2.784) scale(1.1081)"><path fill-rule="evenodd" d="M26.684 16.199a7.25 7.25 0 0 0-1.984.238c-1.747.454-3.417 1.511-4.608 2.948-1.187 1.428-1.896 3.246-1.662 5.181.246 3.304 1.795 8.738 3.727 13.387.967 2.328 2.03 4.453 3.088 6.01.529.782 1.054 1.421 1.584 1.875.517.446 1.05.723 1.597.719a3.235 3.235 0 0 0 2.518-.73c.73-.571 1.354-1.39 1.94-2.294 1.133-1.753 2.154-3.98 3.314-5.299.113.133.268.55.453.887.363.677.833 1.66 1.438 2.662.604 1.006 1.347 1.964 2.285 2.758.933.786 2.072 1.285 3.418 1.29.809.06 1.625.004 2.279-.325.661-.333 1.163-.865 1.193-1.686v-.007a1.61 1.61 0 0 0-.808-1.403c-.458-.287-1.016-.479-1.606-.785-1.175-.612-2.509-1.606-3.31-4.498-.635-2.294-1.475-4.011-2.36-5.168-.884-1.153-1.598-2.18-2.728-2.05-1.97.222-2.895 3.046-3.832 4.542-.575.923-1.115 1.84-1.584 2.569-.378.593-.662.923-.885 1.15-.726-.778-1.157-1.617-1.082-2.607.09-1.111.727-2.381 1.313-3.73 1.171-2.696 2.663-5.728 2.357-8.725-.223-2.193-1.37-4.648-2.98-5.91a5.303 5.303 0 0 0-2.42-.946 5.76 5.76 0 0 0-.655-.053zm-.158 3.715c1.138.446 2.026 1.422 2.412 2.174a8.818 8.818 0 0 0-2.42-1.022 5.783 5.783 0 0 0-2.006 1.16 3.78 3.78 0 0 1 2.014-2.312zm-4.406 1.734c.921.014 1.811.267 2.392.565-1.009.03-1.95.187-2.619.414a4.74 4.74 0 0 0-.965 1.914c-.347-1.013-.265-1.974.268-2.82a4.75 4.75 0 0 1 .924-.073zm4.228.541c.987-.094 1.84 1.169 1.904 2.817a3.883 3.883 0 0 1-.32 1.779 9.808 9.808 0 0 0-2.668.428c-.053-.084-.115-.16-.16-.25a2.871 2.871 0 0 1-.045.314c-.873.291-1.632.805-2.236 1.266-.424-.461-.754-1.203-.852-2.073-.174-1.504.386-3.042 1.248-3.128.563-.057 1.11.665 1.477 1.418.11-1.384.79-2.488 1.652-2.57zm2.59 5.239c-.027 2.373-2.382 5.216-3.815 5.205-2.014-.02-2.702-1.387-3.14-2.332 2.275-.54 5.167-1.823 6.955-2.873z"/><path d="M24.323 26.059a.633.872 0 0 1-1.266 0 .633.872 0 1 1 1.266 0zm2.717-.65a.633.872 0 0 1-1.266 0 .633.872 0 1 1 1.266 0z"/><path d="M28.719 28.705c-.416.548-1.296.964-2.76 1.606 1.668-.351 1.638-.011 1.69.5a7.068 7.068 0 0 0 1.07-2.106zm-3.515 1.897c-1.55.454-2.23.56-2.88.367a3.084 3.084 0 0 0 1.466 1.399c-.253-.51-.253-.976 1.41-1.766z" opacity=".5"/></g><path fill="url(#e)" fill-rule="evenodd" d="M26.684 16.199a7.25 7.25 0 0 0-1.984.238c-1.747.454-3.417 1.511-4.608 2.948-1.187 1.428-1.896 3.246-1.662 5.181.246 3.304 1.795 8.738 3.727 13.387.967 2.328 2.03 4.453 3.088 6.01.529.782 1.054 1.421 1.584 1.875.517.446 1.05.723 1.597.719a3.235 3.235 0 0 0 2.518-.73c.73-.571 1.354-1.39 1.94-2.294 1.133-1.753 2.154-3.98 3.314-5.299.113.133.268.55.453.887.363.677.833 1.66 1.438 2.662.604 1.006 1.347 1.964 2.285 2.758.933.786 2.072 1.285 3.418 1.29.809.06 1.625.004 2.279-.325.661-.333 1.163-.865 1.193-1.686v-.007a1.61 1.61 0 0 0-.808-1.403c-.458-.287-1.016-.479-1.606-.785-1.175-.612-2.509-1.606-3.31-4.498-.635-2.294-1.475-4.011-2.36-5.168-.884-1.153-1.598-2.18-2.728-2.05-1.97.222-2.895 3.046-3.832 4.542-.575.923-1.115 1.84-1.584 2.569-.378.593-.662.923-.885 1.15-.726-.778-1.157-1.617-1.082-2.607.09-1.111.727-2.381 1.313-3.73 1.171-2.696 2.663-5.728 2.357-8.725-.223-2.193-1.37-4.648-2.98-5.91a5.303 5.303 0 0 0-2.42-.946 5.76 5.76 0 0 0-.655-.053zm-.158 3.715c1.138.446 2.026 1.422 2.412 2.174a8.818 8.818 0 0 0-2.42-1.022 5.783 5.783 0 0 0-2.006 1.16 3.78 3.78 0 0 1 2.014-2.312zm-4.406 1.734c.921.014 1.811.267 2.392.565-1.009.03-1.95.187-2.619.414a4.74 4.74 0 0 0-.965 1.914c-.347-1.013-.265-1.974.268-2.82a4.75 4.75 0 0 1 .924-.073zm4.228.541c.987-.094 1.84 1.169 1.904 2.817a3.883 3.883 0 0 1-.32 1.779 9.808 9.808 0 0 0-2.668.428c-.053-.084-.115-.16-.16-.25a2.871 2.871 0 0 1-.045.314c-.873.291-1.632.805-2.236 1.266-.424-.461-.754-1.203-.852-2.073-.174-1.504.386-3.042 1.248-3.128.563-.057 1.11.665 1.477 1.418.11-1.384.79-2.488 1.652-2.57zm2.59 5.239c-.027 2.373-2.382 5.216-3.815 5.205-2.014-.02-2.702-1.387-3.14-2.332 2.275-.54 5.167-1.823 6.955-2.873z" transform="translate(-4.373 -2.784) scale(1.1081)"/><path fill="url(#f)" d="M24.323 26.059a.633.872 0 0 1-1.266 0 .633.872 0 1 1 1.266 0zm2.717-.65a.633.872 0 0 1-1.266 0 .633.872 0 1 1 1.266 0z" transform="translate(-4.373 -2.784) scale(1.1081)"/><path fill="url(#f)" d="M28.719 28.705c-.416.548-1.296.964-2.76 1.606 1.668-.351 1.638-.011 1.69.5a7.068 7.068 0 0 0 1.07-2.106zm-3.515 1.897c-1.55.454-2.23.56-2.88.367a3.084 3.084 0 0 0 1.466 1.399c-.253-.51-.253-.976 1.41-1.766z" opacity=".5" transform="translate(-4.373 -2.784) scale(1.1081)"/></svg>