<svg width="64" height="64" version="1.1" viewBox="0 0 64 64" xmlns="http://www.w3.org/2000/svg">
 <defs>
  <filter id="filter7739" x="-.1225" y="-.18375" width="1.245" height="1.3675" color-interpolation-filters="sRGB">
   <feGaussianBlur stdDeviation="2.1437428"/>
  </filter>
  <linearGradient id="b" x1="-17.857" x2="-18.241" y1="-2.986" y2="57.398" gradientTransform="translate(75.051,4.817)" gradientUnits="userSpaceOnUse">
   <stop stop-color="#f170ff" offset="0"/>
   <stop stop-color="#8f3cec" offset="1"/>
  </linearGradient>
  <filter id="a" x="-.036001" y="-.036001" width="1.072" height="1.072" color-interpolation-filters="sRGB">
   <feGaussianBlur stdDeviation="14.344"/>
  </filter>
 </defs>
 <circle transform="matrix(.06274 0 0 .06274 -.125 -.125)" cx="512" cy="512" r="478.12" filter="url(#a)" opacity=".25" style="paint-order:stroke markers fill"/>
 <circle cx="32" cy="32" r="30" fill="url(#b)" style="paint-order:stroke markers fill"/>
 <path d="m22.158 19c-2.4554 0-5.0283 1.3586-6.4668 5.0039-3.0377 7.6926-4.6914 13.641-4.6914 17.25 0 2.7754 0.98152 4.5333 3.0625 5.5625 0.2439 0.12095 0.51292 0.18404 0.78516 0.18359 0.43336 8.72e-4 0.85189-0.15935 1.1758-0.44727l5.4414-4.8027c0.97482-0.86453 1.8271-1.7578 4.207-1.7578h12.658c2.3799 0 3.2283 0.89279 4.2051 1.7578l5.4414 4.8027c0.54012 0.47866 1.316 0.58363 1.9629 0.26367 2.0805-1.0287 3.0605-2.7871 3.0605-5.5645 0-3.6081-1.6533-9.5569-4.6895-17.248-1.4385-3.6453-4.0138-5.0039-6.4688-5.0039-1.1483 0-2.2703 0.29844-3.2383 0.79883-4.1546 2.1403-8.9593 2.1858-13.201 0-0.97139-0.50038-2.0963-0.79883-3.2441-0.79883zm9.8418 4c1.6569 0 3 1.3431 3 3s-1.3431 3-3 3-3-1.3431-3-3 1.3431-3 3-3zm-9.8008 3c2.3197-3.91e-4 4.2015 1.8795 4.2012 4.1992 3.64e-4 2.3197-1.8814 4.2016-4.2012 4.2012-2.3197 3.9e-4 -4.1996-1.8815-4.1992-4.2012-3.64e-4 -2.3197 1.8795-4.1996 4.1992-4.1992zm19.301 0a1.5 1.5 0 0 1 1.5 1.5 1.5 1.5 0 0 1-1.5 1.5 1.5 1.5 0 0 1-1.5-1.5 1.5 1.5 0 0 1 1.5-1.5zm-19.301 1.4004c-1.5455 6.47e-4 -2.7982 1.2534-2.7988 2.7988-4.71e-4 1.5462 1.2526 2.8001 2.7988 2.8008 1.547 4.32e-4 2.8013-1.2538 2.8008-2.8008-6.08e-4 -1.5462-1.2545-2.7993-2.8008-2.7988zm16.301 1.5996a1.5 1.5 0 0 1 1.5 1.5 1.5 1.5 0 0 1-1.5 1.5 1.5 1.5 0 0 1-1.5-1.5 1.5 1.5 0 0 1 1.5-1.5zm6 0a1.5 1.5 0 0 1 1.5 1.5 1.5 1.5 0 0 1-1.5 1.5 1.5 1.5 0 0 1-1.5-1.5 1.5 1.5 0 0 1 1.5-1.5zm-3 3a1.5 1.5 0 0 1 1.5 1.5 1.5 1.5 0 0 1-1.5 1.5 1.5 1.5 0 0 1-1.5-1.5 1.5 1.5 0 0 1 1.5-1.5z" filter="url(#filter7739)" opacity=".2"/>
 <path d="m22.158 18c-2.4554 0-5.0283 1.3586-6.4668 5.0039-3.0377 7.6926-4.6914 13.641-4.6914 17.25 0 2.7754 0.98152 4.5333 3.0625 5.5625 0.2439 0.12095 0.51292 0.18404 0.78516 0.18359 0.43336 8.72e-4 0.85189-0.15935 1.1758-0.44727l5.4414-4.8027c0.97482-0.86453 1.8271-1.7578 4.207-1.7578h12.658c2.3799 0 3.2283 0.89279 4.2051 1.7578l5.4414 4.8027c0.54012 0.47866 1.316 0.58363 1.9629 0.26367 2.0805-1.0287 3.0605-2.7871 3.0605-5.5645 0-3.6081-1.6533-9.5569-4.6895-17.248-1.4385-3.6453-4.0138-5.0039-6.4688-5.0039-1.1483 0-2.2703 0.29844-3.2383 0.79883-4.1546 2.1403-8.9593 2.1858-13.201 0-0.97139-0.50038-2.0963-0.79883-3.2441-0.79883zm9.8418 4c1.6569 0 3 1.3431 3 3s-1.3431 3-3 3-3-1.3431-3-3 1.3431-3 3-3zm-9.8008 3c2.3197-3.91e-4 4.2015 1.8795 4.2012 4.1992 3.64e-4 2.3197-1.8814 4.2016-4.2012 4.2012-2.3197 3.9e-4 -4.1996-1.8815-4.1992-4.2012-3.64e-4 -2.3197 1.8795-4.1996 4.1992-4.1992zm19.301 0a1.5 1.5 0 0 1 1.5 1.5 1.5 1.5 0 0 1-1.5 1.5 1.5 1.5 0 0 1-1.5-1.5 1.5 1.5 0 0 1 1.5-1.5zm-19.301 1.4004c-1.5455 6.47e-4 -2.7982 1.2534-2.7988 2.7988-4.71e-4 1.5462 1.2526 2.8001 2.7988 2.8008 1.547 4.32e-4 2.8013-1.2538 2.8008-2.8008-6.08e-4 -1.5462-1.2545-2.7993-2.8008-2.7988zm16.301 1.5996a1.5 1.5 0 0 1 1.5 1.5 1.5 1.5 0 0 1-1.5 1.5 1.5 1.5 0 0 1-1.5-1.5 1.5 1.5 0 0 1 1.5-1.5zm6 0a1.5 1.5 0 0 1 1.5 1.5 1.5 1.5 0 0 1-1.5 1.5 1.5 1.5 0 0 1-1.5-1.5 1.5 1.5 0 0 1 1.5-1.5zm-3 3a1.5 1.5 0 0 1 1.5 1.5 1.5 1.5 0 0 1-1.5 1.5 1.5 1.5 0 0 1-1.5-1.5 1.5 1.5 0 0 1 1.5-1.5z" fill="#ffffff"/>
</svg>
