<svg width="64" height="64" enable-background="new 0 0 1024 1024" image-rendering="optimizeSpeed" xmlns="http://www.w3.org/2000/svg"><defs><linearGradient id="b" x1="540" x2="540" y1="4" y2="1024" gradientTransform="translate(2 2) scale(.99609)" gradientUnits="userSpaceOnUse"><stop stop-color="#c8c4b7" offset="0"/><stop stop-color="#888" offset="1"/></linearGradient><linearGradient id="d" x1="500" x2="500" y1="4" y2="1024" gradientTransform="translate(-.516 9.742)" gradientUnits="userSpaceOnUse"><stop stop-color="#fff" offset="0"/><stop stop-color="#e6e6e6" offset="1"/></linearGradient><linearGradient id="c" x1="540" x2="560" y1="4" y2="1024" gradientTransform="translate(-.516 9.742)" gradientUnits="userSpaceOnUse"><stop offset="0"/><stop stop-color="#666" offset="1"/></linearGradient><linearGradient id="e" x1="361.13" x2="382.52" y1="519.98" y2="519.98" gradientUnits="userSpaceOnUse"><stop stop-color="#f22c42" offset="0"/><stop stop-color="#ed7161" offset="1"/></linearGradient><linearGradient id="f" x1="660" x2="660" y1="424" y2="624" gradientTransform="translate(-2.516 5.742)" gradientUnits="userSpaceOnUse"><stop stop-color="#888" offset="0"/><stop stop-color="#c8c4b7" offset="1"/></linearGradient><filter id="a" x="-.036" y="-.036" width="1.072" height="1.072" color-interpolation-filters="sRGB"><feGaussianBlur stdDeviation="14.105"/></filter></defs><g transform="translate(-.614 -.678) scale(.06376)" stroke-width="15.683"><g stroke-width="15.622"><path d="M967.96 392.52a513.05 513.05 0 0 0-3.636-13.547c-2.49-8.716-5.329-17.531-8.417-26.247-6.425-18.179-14.095-35.909-23.06-53.44a473.03 473.03 0 0 0-12.252-22.312h-.025q-30.48-51.807-76.027-97.368c-91.79-91.79-202.66-137.71-332.5-137.71s-240.66 45.92-332.45 137.71c-91.79 91.79-137.71 202.61-137.71 332.45s45.92 240.71 137.71 332.5c67.784 67.784 145.93 110.52 233.98 128.15 31.825 6.375 64.497 9.513 98.464 9.513 129.84 0 240.71-45.87 332.5-137.66 48.41-48.41 84.07-102.1 106.93-161.17 16.934-43.778 26.895-90.445 29.833-140.2a530.95 530.95 0 0 0 .897-31.128c0-41.587-4.682-81.281-14.244-119.53z" filter="url(#a)" opacity=".25" transform="translate(-.924 .076) scale(1.0007)"/><path d="M967.96 392.52a513.05 513.05 0 0 0-3.636-13.547c-2.49-8.716-5.329-17.531-8.417-26.247-6.425-18.179-14.095-35.909-23.06-53.44a473.03 473.03 0 0 0-12.252-22.312h-.025q-30.48-51.807-76.027-97.368c-91.79-91.79-202.66-137.71-332.5-137.71s-240.66 45.92-332.45 137.71c-91.79 91.79-137.71 202.61-137.71 332.45s45.92 240.71 137.71 332.5c67.784 67.784 145.93 110.52 233.98 128.15 31.825 6.375 64.497 9.513 98.464 9.513 129.84 0 240.71-45.87 332.5-137.66 48.41-48.41 84.07-102.1 106.93-161.17 16.934-43.778 26.895-90.445 29.833-140.2a530.95 530.95 0 0 0 .897-31.128c0-41.587-4.682-81.281-14.244-119.53z" fill="url(#b)" transform="translate(-.924 .076) scale(1.0007)"/></g><path d="M380 344h256.55c99.95 0 181.73 81.777 181.73 181.73s-81.777 181.73-181.73 181.73H380c-99.95 0-181.73-81.777-181.73-181.73S280.047 344 380 344z" fill="url(#c)"/><circle cx="636.55" cy="525.73" r="128.28" fill="url(#d)"/><path fill="none" stroke="url(#e)" stroke-linecap="round" stroke-miterlimit="10" stroke-width="31.367" d="M354.67 440.21v171.03"/><circle cx="636.91" cy="526.66" r="96" fill="url(#f)" opacity=".66" style="paint-order:stroke markers fill"/></g></svg>