<svg width="64" height="64" version="1.1" xmlns="http://www.w3.org/2000/svg" xmlns:xlink="http://www.w3.org/1999/xlink">
 <defs>
  <linearGradient id="d">
   <stop stop-color="#444b58" offset="0"/>
   <stop stop-color="#7a8599" offset="1"/>
  </linearGradient>
  <linearGradient id="c">
   <stop stop-color="#3c3a42" offset="0"/>
   <stop stop-color="#58565e" offset="1"/>
  </linearGradient>
  <linearGradient id="b">
   <stop stop-color="#525252" offset="0"/>
   <stop stop-color="#a6a6a6" offset="1"/>
  </linearGradient>
  <linearGradient id="a">
   <stop stop-color="#f6c317" offset="0"/>
   <stop stop-color="#f9f06b" offset="1"/>
  </linearGradient>
  <linearGradient id="f" x1="408.25" x2="407.94" y1="547.6" y2="498.89" gradientTransform="translate(-510.64 -663.52) scale(1.3276)" gradientUnits="userSpaceOnUse">
   <stop stop-color="#fff" offset="0"/>
   <stop stop-color="#e6e6e6" offset="1"/>
  </linearGradient>
  <linearGradient id="l" x1="17.001" x2="17.001" y1="44.666" y2="20.667" gradientTransform="translate(9.249 5.5) scale(.75002)" gradientUnits="userSpaceOnUse" xlink:href="#a"/>
  <linearGradient id="m" x1="34.334" x2="34.334" y1="24.667" y2="6" gradientTransform="translate(9.249 5.5) scale(.75002)" gradientUnits="userSpaceOnUse" xlink:href="#a"/>
  <linearGradient id="n" x1="49" x2="49" y1="36.666" y2="24.667" gradientTransform="translate(9.249 5.5) scale(.75002)" gradientUnits="userSpaceOnUse" xlink:href="#a"/>
  <linearGradient id="i" x1="7.668" x2="23.668" y1="43.333" y2="43.333" gradientTransform="translate(9.249 5.5) scale(.75002)" gradientUnits="userSpaceOnUse" xlink:href="#b"/>
  <linearGradient id="j" x1="3.999" x2="29.001" y1="52.999" y2="52.999" gradientTransform="translate(9.249 5.5) scale(.75002)" gradientUnits="userSpaceOnUse" xlink:href="#b"/>
  <linearGradient id="h" x1="3.999" x2="29.001" y1="56" y2="56" gradientTransform="translate(9.249 5.5) scale(.75002)" gradientUnits="userSpaceOnUse">
   <stop stop-color="#262626" offset="0"/>
   <stop stop-color="#7c7c7c" offset="1"/>
  </linearGradient>
  <linearGradient id="p" x1="17.001" x2="17.001" y1="39.333" y2="26" gradientTransform="translate(9.249 5.5) scale(.75002)" gradientUnits="userSpaceOnUse" xlink:href="#c"/>
  <linearGradient id="o" x1="34.334" x2="34.334" y1="20.667" y2="10" gradientTransform="translate(9.249 5.5) scale(.75002)" gradientUnits="userSpaceOnUse" xlink:href="#c"/>
  <linearGradient id="q" x1="49" x2="49" y1="35.333" y2="27.333" gradientTransform="translate(9.249 5.5) scale(.75002)" gradientUnits="userSpaceOnUse" xlink:href="#c"/>
  <linearGradient id="k" x1="53.659" x2="59.997" y1="42.139" y2="42.139" gradientTransform="translate(9.249 5.5) scale(.75002)" gradientUnits="userSpaceOnUse" xlink:href="#d"/>
  <linearGradient id="r" x1="38.866" x2="45.208" y1="42.139" y2="42.139" gradientTransform="translate(9.249 5.5) scale(.75002)" gradientUnits="userSpaceOnUse" xlink:href="#d"/>
  <filter id="e" x="-.036011" y="-.036011" width="1.072" height="1.072" color-interpolation-filters="sRGB">
   <feGaussianBlur stdDeviation=".89"/>
  </filter>
  <filter id="g" x="-.034716" y="-.037382" width="1.0694" height="1.0748" color-interpolation-filters="sRGB">
   <feGaussianBlur stdDeviation=".81"/>
  </filter>
  <filter id="filter26" x="-.013853" y="-.013853" width="1.0277" height="1.0277" color-interpolation-filters="sRGB">
   <feGaussianBlur stdDeviation="0.29776566"/>
  </filter>
  <filter id="filter25" x="-.029663" y="-.029663" width="1.0593" height="1.0593" color-interpolation-filters="sRGB">
   <feGaussianBlur stdDeviation="0.29776566"/>
  </filter>
 </defs>
 <rect transform="translate(-389.32 -489.92) scale(1.0115)" x="386.85" y="486.31" width="59.315" height="59.315" ry="29.657" filter="url(#e)" opacity=".25"/>
 <rect x="1.983" y="1.978" width="59.997" height="59.997" ry="29.998" fill="url(#f)"/>
 <g transform="translate(9.249 5.5) scale(.75002)" filter="url(#g)" opacity=".25">
  <path d="M32.181 11.867 11.053 32.999l5.972 5.976L38.16 17.847z" fill="none" font-weight="400" overflow="visible" stroke="#000" stroke-opacity=".871" stroke-width="5.332" style="font-feature-settings:normal;font-variant-alternates:normal;font-variant-caps:normal;font-variant-ligatures:normal;font-variant-numeric:normal;font-variant-position:normal;isolation:auto;mix-blend-mode:normal;shape-padding:0;text-decoration-color:#000;text-decoration-line:none;text-decoration-style:solid;text-indent:0;text-orientation:mixed;text-transform:none;white-space:normal"/>
  <g stroke-width="5.039">
   <path d="M3.999 53.999H29v4.003H3.999z"/>
   <path d="M10.25 30.167v16.668A4.166 4.166 0 0 1 6.085 51H3.999v4H29v-4h-2.083a4.165 4.165 0 0 1-4.169-4.165V30.167z" font-weight="400" overflow="visible" style="font-feature-settings:normal;font-variant-alternates:normal;font-variant-caps:normal;font-variant-ligatures:normal;font-variant-numeric:normal;font-variant-position:normal;isolation:auto;mix-blend-mode:normal;shape-padding:0;text-decoration-color:#000;text-decoration-line:none;text-decoration-style:solid;text-indent:0;text-orientation:mixed;text-transform:none;white-space:normal"/>
   <path d="M3.999 50.998H29v4.003H3.999z"/>
  </g>
  <path d="m40.978 40.018 8.451-8.451 8.455 8.451" fill="none" stroke="#000" stroke-width="5.333"/>
  <path d="m56.826 35.797a3.175 3.175 0 0 1 3.171 3.171v6.338l-3.171 3.175h-3.167v-9.513a3.17 3.17 0 0 1 3.167-3.171z"/>
  <circle cx="17.001" cy="33" r="12"/>
  <path d="M51.675 32.626 34.773 15.72" fill="none" stroke="#030303" stroke-width="5.332"/>
  <g stroke-width="5.039">
   <circle cx="34.5" cy="15.5" r="9.502"/>
   <circle cx="49.003" cy="31" r="5.998"/>
   <path d="m42.033 35.797a3.171 3.171 0 0 0-3.167 3.171v6.338l3.167 3.175h3.175v-9.513a3.171 3.171 0 0 0-3.175-3.171z"/>
  </g>
 </g>
 <path d="M33.385 14.4 17.539 30.249l4.479 4.482L37.87 18.885z" fill="none" font-weight="400" overflow="visible" stroke="#dcb500" stroke-width="3.999" style="font-feature-settings:normal;font-variant-alternates:normal;font-variant-caps:normal;font-variant-ligatures:normal;font-variant-numeric:normal;font-variant-position:normal;isolation:auto;mix-blend-mode:normal;shape-padding:0;text-decoration-color:#000;text-decoration-line:none;text-decoration-style:solid;text-indent:0;text-orientation:mixed;text-transform:none;white-space:normal"/>
 <g stroke-width="3.78">
  <path d="M12.248 46H31v3.002H12.248z" fill="url(#h)"/>
  <path d="M16.937 28.125v12.501c0 1.726-1.4 3.124-3.124 3.124h-1.565v3H31v-3h-1.562a3.124 3.124 0 0 1-3.126-3.124V28.125z" fill="url(#i)" font-weight="400" overflow="visible" style="font-feature-settings:normal;font-variant-alternates:normal;font-variant-caps:normal;font-variant-ligatures:normal;font-variant-numeric:normal;font-variant-position:normal;isolation:auto;mix-blend-mode:normal;shape-padding:0;text-decoration-color:#000;text-decoration-line:none;text-decoration-style:solid;text-indent:0;text-orientation:mixed;text-transform:none;white-space:normal"/>
  <path d="M12.248 43.749H31v3.002H12.248z" fill="url(#j)"/>
 </g>
 <path d="m39.983 35.514 6.339-6.339 6.341 6.339" fill="none" stroke="#424048" stroke-width="4"/>
 <g stroke-width="3.78">
  <path d="m51.87 32.348a2.381 2.381 0 0 1 2.378 2.378v4.754l-2.378 2.382h-2.376v-7.136a2.377 2.377 0 0 1 2.376-2.378z" fill="url(#k)"/>
  <path d="m33.781 14.253-15.846 15.852 4.479 4.479 15.852-15.846z" fill="none" font-weight="400" overflow="visible" style="font-feature-settings:normal;font-variant-alternates:normal;font-variant-caps:normal;font-variant-ligatures:normal;font-variant-numeric:normal;font-variant-position:normal;isolation:auto;mix-blend-mode:normal;shape-padding:0;text-decoration-color:#000;text-decoration-line:none;text-decoration-style:solid;text-indent:0;text-orientation:mixed;text-transform:none;white-space:normal"/>
  <circle cx="22" cy="30.25" r="9" fill="url(#l)"/>
 </g>
 <path d="m48.006 29.969-12.677-12.68" fill="#424048" stroke="#424048" stroke-width="3.999"/>
 <g stroke-width="3.78">
  <circle cx="35.125" cy="17.125" r="7.127" fill="url(#m)"/>
  <circle cx="46.002" cy="28.75" r="4.499" fill="url(#n)"/>
  <circle cx="35.125" cy="17.125" r="4.125" fill="url(#o)"/>
  <circle cx="22" cy="30.25" r="5.25" fill="url(#p)"/>
  <circle cx="22" cy="30.25" r="2.999" fill="#1a1723"/>
  <circle cx="35.125" cy="17.125" r="1.874" fill="#1a1723"/>
  <circle cx="46.002" cy="28.75" r="2.999" fill="url(#q)"/>
  <circle cx="46.002" cy="28.75" r="1.5" fill="#1a1723"/>
  <circle cx="51.87" cy="34.726" r=".794" fill="#2e3436"/>
  <path d="m40.774 32.348a2.378 2.378 0 0 0-2.376 2.378v4.754l2.376 2.382h2.381v-7.136a2.378 2.378 0 0 0-2.381-2.378z" fill="url(#r)"/>
  <circle transform="scale(-1 1)" cx="-40.774" cy="34.726" r=".794" fill="#2e3436"/>
 </g>
 <path d="m10.787 10.787c-11.752 11.752-11.752 30.674 0 42.426 0.11855 0.11855 0.24184 0.22911 0.36184 0.34527-11.399-11.775-11.288-30.431 0.34527-42.065 11.634-11.634 30.289-11.744 42.065-0.34527-0.11616-0.12-0.22671-0.24329-0.34527-0.36184-11.752-11.752-30.674-11.752-42.426 0z" fill="#ffffff" filter="url(#filter26)"/>
 <path d="m37.435 61.526c5.7718-1.0635 11.297-3.831 15.779-8.3126s7.2491-10.007 8.3126-15.779c-1.5917 5.4332-4.6056 10.657-9.0198 15.072s-9.6384 7.428-15.072 9.0198z" fill="#ffffff" filter="url(#filter25)"/>
</svg>
