<svg width="64" height="64" version="1" xmlns="http://www.w3.org/2000/svg" xmlns:xlink="http://www.w3.org/1999/xlink">
 <defs>
  <linearGradient id="linearGradient862-3" x1="7.9373" x2="7.9373" y1="15.081" y2="1.852" gradientTransform="matrix(4.0494 0 0 4.0494 -2.2856 -2.2519)" gradientUnits="userSpaceOnUse">
   <stop stop-color="#f1efeb" offset="0"/>
   <stop stop-color="#fdfcfc" offset="1"/>
  </linearGradient>
  <linearGradient id="linearGradient4948" x1="58" x2="88" y1="202" y2="202" gradientTransform="translate(-33.153 -194.29)" gradientUnits="userSpaceOnUse" xlink:href="#linearGradient5299"/>
  <linearGradient id="linearGradient5299">
   <stop stop-color="#77767b" offset="0"/>
   <stop stop-color="#9a9996" offset=".73333"/>
   <stop stop-color="#f6f5f4" offset=".83333"/>
   <stop stop-color="#adacaa" offset=".93333"/>
   <stop stop-color="#77767b" offset="1"/>
  </linearGradient>
  <radialGradient id="radialGradient1963" cx="-85.993" cy="248.08" r="46" gradientTransform="matrix(1.0435 -5.3388e-8 5.5192e-8 1.0435 116.58 -213.16)" gradientUnits="userSpaceOnUse">
   <stop stop-color="#c0bfbc" offset="0"/>
   <stop stop-color="#deddda" offset=".87408"/>
   <stop stop-color="#b1b0ad" offset=".91667"/>
   <stop stop-color="#77767b" offset="1"/>
  </radialGradient>
  <linearGradient id="linearGradient1589" x1="-131.25" x2="-147.81" y1="188.45" y2="250.27" gradientUnits="userSpaceOnUse">
   <stop stop-color="#241f31" offset="0"/>
   <stop stop-color="#3d3846" offset="1"/>
  </linearGradient>
  <filter id="filter4520" x="-.06" y="-.06" width="1.12" height="1.12" color-interpolation-filters="sRGB">
   <feGaussianBlur stdDeviation="1.2"/>
  </filter>
  <linearGradient id="linearGradient1616" x1="175.59" x2="175.59" y1="822.55" y2="881.22" gradientTransform="matrix(.27273 0 0 .27273 -21.041 -186.62)" gradientUnits="userSpaceOnUse">
   <stop stop-color="#f2f2f2" offset="0"/>
   <stop stop-color="#808080" stop-opacity=".8" offset="1"/>
  </linearGradient>
  <radialGradient id="radialGradient1856" cx="64" cy="210.77" r="36" gradientTransform="matrix(.76735 .0055378 -.0054126 .74999 -21.122 -157.72)" gradientUnits="userSpaceOnUse" xlink:href="#linearGradient5299"/>
  <filter id="filter3077" x="-.147" y="-.147" width="1.294" height="1.294" color-interpolation-filters="sRGB">
   <feGaussianBlur stdDeviation="5.635"/>
  </filter>
  <filter id="filter922" x="-.048" y="-.048" width="1.096" height="1.096" color-interpolation-filters="sRGB">
   <feGaussianBlur stdDeviation="1.2"/>
  </filter>
 </defs>
 <rect x="2" y="3" width="60" height="60" rx="30" ry="30" fill="#000000" filter="url(#filter922)" opacity=".15" stroke-width="4.0494"/>
 <rect x="2" y="2" width="60" height="60" rx="30" ry="30" fill="url(#linearGradient862-3)" stroke-width="4.0494"/>
 <g transform="matrix(.36066 0 0 .36066 22.317 19.481)">
  <use transform="matrix(-1 0 0 1 53.695 0)" width="100%" height="100%" enable-background="new" xlink:href="#rect4940"/>
  <rect id="rect4940" x="46.847" y="1.7119" width="8" height="16" enable-background="new" fill="url(#linearGradient4948)"/>
  <circle cx="26.847" cy="49.712" r="46" enable-background="new" fill="#000000" filter="url(#filter3077)" opacity=".15"/>
  <circle cx="26.847" cy="47.712" r="46" enable-background="new" fill="url(#radialGradient1963)"/>
  <circle cx="26.847" cy="47.712" r="42" enable-background="new" fill="#f6f5f4"/>
  <circle transform="rotate(90)" cx="47.712" cy="-26.847" r="38" enable-background="new" fill="#241f31"/>
  <g transform="matrix(1 0 0 -1 112.85 297.71)" enable-background="new">
   <circle transform="rotate(-15)" cx="-147.77" cy="219.22" r="36" enable-background="new" fill="url(#linearGradient1589)"/>
  </g>
  <g transform="translate(-37.153 -205.29)" enable-background="new" fill-rule="evenodd">
   <path transform="matrix(.24993 0 0 .24993 -67.726 -48.783)" d="m527.04 1123.5-24 48h48z" enable-background="new" fill="#1a1a1a" fill-opacity=".4" filter="url(#filter4520)"/>
   <path d="m64 231-6 12h12z" enable-background="new" fill="#ed333b"/>
   <path d="m63.998 231-5.9984 11.997h5.9984z" enable-background="new" fill="#ffffff" fill-opacity=".37344" stroke-width=".24993"/>
  </g>
  <circle cx="26.847" cy="49.712" r="12" enable-background="new" fill="#000000" opacity=".2" stroke-width="0"/>
  <circle cx="26.847" cy="47.712" r="12" enable-background="new" fill="url(#linearGradient1616)" stroke-width="0"/>
  <circle transform="scale(1,-1)" cx="26.847" cy="-46.712" r="11" enable-background="new" fill="#cccccc" stroke-width="0"/>
  <g transform="matrix(1 0 0 -1 -37.153 297.71)" enable-background="new" fill="none" stroke="#f6f5f4" stroke-width="2">
   <path d="m64 216v6"/>
   <path d="m64 278v6"/>
   <path d="m98 250h-6"/>
   <path d="m36 250h-6"/>
   <path d="m39.958 225.96 4.2426 4.2426"/>
   <path d="m83.799 269.8 4.2426 4.2426"/>
   <path d="m88.042 225.96-4.2426 4.2426"/>
   <path d="m44.201 269.8-4.2426 4.2426"/>
  </g>
  <g transform="translate(-37.153 -202.29)" enable-background="new" fill="none" opacity=".2" stroke="#ffffff">
   <path d="m57.367 283.35 0.78036-3.9231"/>
   <path d="m69.853 220.58 0.78036-3.9231"/>
   <path d="m97.347 256.63-3.9231-0.78036"/>
   <path d="m34.576 244.15-3.9231-0.78036"/>
   <path d="m35.73 268.89 3.3259-2.2223"/>
   <path d="m88.944 233.33 3.3259-2.2223"/>
   <path d="m82.889 278.27-2.2223-3.3259"/>
   <path d="m47.333 225.06-2.2223-3.3259"/>
   <path d="m50.989 281.41 1.5307-3.6955"/>
   <path d="m75.481 222.28 1.5307-3.6955"/>
   <path d="m95.412 263.01-3.6955-1.5307"/>
   <path d="m36.284 238.52-3.6955-1.5307"/>
   <path d="m32.588 263.01 3.6955-1.5307"/>
   <path d="m91.716 238.52 3.6955-1.5307"/>
   <path d="m77.011 281.41-1.5307-3.6955"/>
   <path d="m52.519 222.28-1.5307-3.6955"/>
   <path d="m45.111 278.27 2.2223-3.3259"/>
   <path d="m80.667 225.06 2.2223-3.3259"/>
   <path d="m92.27 268.89-3.3259-2.2223"/>
   <path d="m39.056 233.33-3.3259-2.2223"/>
   <path d="m30.653 256.63 3.9231-0.78036"/>
   <path d="m93.424 244.15 3.9231-0.78037"/>
   <path d="m70.633 283.35-0.78035-3.9231"/>
   <path d="m58.147 220.58-0.78035-3.9231"/>
  </g>
  <path d="m2.8475 1.7119a24 24 0 0 1 24-24 24 24 0 0 1 24 24" enable-background="new" fill="none" stroke="url(#radialGradient1856)" stroke-linejoin="round" stroke-width="8"/>
 </g>
</svg>
