<svg xmlns="http://www.w3.org/2000/svg" xmlns:xlink="http://www.w3.org/1999/xlink" width="64" height="64" viewBox="0 0 16.933 16.933"><defs><linearGradient id="b"><stop offset="0" stop-color="#136de2"/><stop offset="1" stop-color="#26bbcf"/></linearGradient><linearGradient id="a"><stop offset="0" stop-color="#ffb636"/><stop offset="1" stop-color="#eeed51"/></linearGradient><linearGradient id="d" x1="9.26" x2="9.26" y1="-.262" y2="15.612" gradientTransform="translate(-.794 .792)" gradientUnits="userSpaceOnUse"><stop offset="0" stop-color="#2e323e"/><stop offset="1" stop-color="#505664"/></linearGradient><linearGradient xlink:href="#a" id="i" x1="38.838" x2="38.875" y1="31.829" y2="15.598" gradientUnits="userSpaceOnUse"/><linearGradient xlink:href="#a" id="h" x1="16" x2="31.359" y1="39.04" y2="39.04" gradientUnits="userSpaceOnUse"/><linearGradient xlink:href="#b" id="g" x1="29.919" x2="29.975" y1="34.767" y2="25.339" gradientUnits="userSpaceOnUse"/><linearGradient xlink:href="#b" id="f" x1="17.443" x2="17.71" y1="22.502" y2="13.498" gradientUnits="userSpaceOnUse"/><filter id="c" width="1.072" height="1.072" x="-.036" y="-.036" color-interpolation-filters="sRGB"><feGaussianBlur stdDeviation=".238"/></filter><filter id="e" width="1.12" height="1.12" x="-.06" y="-.06" color-interpolation-filters="sRGB"><feGaussianBlur stdDeviation=".6"/></filter></defs><circle cx="8.466" cy="8.466" r="7.937" filter="url(#c)" opacity=".25" style="paint-order:stroke markers fill"/><circle cx="8.466" cy="8.466" r="7.937" fill="url(#d)" style="paint-order:stroke markers fill"/><g filter="url(#e)" opacity=".25" transform="translate(.508 .508)scale(.33866)"><path d="M15.332 14h5.336c.734 0 1.332.598 1.332 1.332v5.336c0 .734-.598 1.332-1.332 1.332h-5.336A1.334 1.334 0 0 1 14 20.668v-5.336c0-.734.598-1.332 1.332-1.332m12 12h5.336c.738 0 1.332.598 1.332 1.332v5.336c0 .738-.594 1.332-1.332 1.332h-5.336A1.33 1.33 0 0 1 26 32.668v-5.336c0-.734.598-1.332 1.332-1.332M14 24c-1.109 0-2 .891-2 2v8c0 1.109.891 2 2 2h8c1.109 0 2-.891 2-2v-8c0-1.109-.891-2-2-2m-8 1h8c.555 0 1 .445 1 1v8c0 .555-.445 1-1 1h-8c-.555 0-1-.445-1-1v-8c0-.555.445-1 1-1"/><path d="M15 26h6c.551 0 1 .449 1 1v6c0 .551-.449 1-1 1h-6c-.551 0-1-.449-1-1v-6c0-.551.449-1 1-1m11-14c-1.109 0-2 .891-2 2v8c0 1.109.891 2 2 2h8c1.109 0 2-.891 2-2v-8c0-1.109-.891-2-2-2m-8 1h8c.555 0 1 .445 1 1v8c0 .555-.445 1-1 1h-8c-.555 0-1-.445-1-1v-8c0-.555.445-1 1-1"/><path d="M27 14h6c.551 0 1 .449 1 1v6c0 .551-.449 1-1 1h-6c-.551 0-1-.449-1-1v-6c0-.551.449-1 1-1"/></g><path fill="url(#f)" d="M15.332 14h5.336c.734 0 1.332.598 1.332 1.332v5.336c0 .734-.598 1.332-1.332 1.332h-5.336A1.334 1.334 0 0 1 14 20.668v-5.336c0-.734.598-1.332 1.332-1.332" transform="translate(.17 .17)scale(.33866)"/><path fill="url(#g)" d="M27.332 26h5.336c.738 0 1.332.598 1.332 1.332v5.336c0 .738-.594 1.332-1.332 1.332h-5.336A1.33 1.33 0 0 1 26 32.668v-5.336c0-.734.598-1.332 1.332-1.332" transform="translate(.17 .17)scale(.33866)"/><path fill="url(#h)" d="M18.561 31.359a2.554 2.554 0 0 0-2.56 2.56v10.24c0 1.42 1.14 2.561 2.56 2.561h10.24a2.55 2.55 0 0 0 2.559-2.56V33.92c0-1.42-1.14-2.561-2.559-2.561zm0 1.281h10.24c.71 0 1.28.57 1.28 1.28v10.24c0 .71-.57 1.279-1.28 1.279h-10.24c-.71 0-1.281-.57-1.281-1.28V33.92c0-.71.57-1.279 1.281-1.279zm1.28 1.28a1.28 1.28 0 0 0-1.28 1.279v7.681c0 .706.574 1.28 1.28 1.28h7.679c.705 0 1.281-.574 1.281-1.28V35.2c0-.705-.576-1.28-1.281-1.28z" transform="rotate(.216)scale(.26458)"/><path fill="url(#i)" d="M33.92 16a2.554 2.554 0 0 0-2.56 2.56V28.8a2.55 2.55 0 0 0 2.56 2.56h10.24c1.42 0 2.56-1.14 2.56-2.56V18.56c0-1.419-1.14-2.56-2.56-2.56zm0 1.28h10.24c.71 0 1.28.57 1.28 1.28V28.8c0 .71-.57 1.28-1.28 1.28H33.92c-.71 0-1.28-.57-1.28-1.28V18.56c0-.71.57-1.28 1.28-1.28m1.28 1.28a1.28 1.28 0 0 0-1.28 1.28v7.68c0 .705.574 1.28 1.28 1.28h7.68c.706 0 1.28-.575 1.28-1.28v-7.68a1.28 1.28 0 0 0-1.28-1.28z" transform="rotate(.216)scale(.26458)"/></svg>