<svg xmlns="http://www.w3.org/2000/svg" width="64" height="64" enable-background="new 0 0 1024 1024" image-rendering="optimizeSpeed"><defs><linearGradient id="f" x1="239.39" x2="242.95" y1="-101.44" y2="-585.55" gradientTransform="translate(-111.16 83.943) scale(1.2449)" gradientUnits="userSpaceOnUse"><stop offset="0" stop-color="#17191d"/><stop offset="1" stop-color="#535961"/></linearGradient><linearGradient id="c" x1="540" x2="532.83" y1="4" y2="694.36" gradientTransform="translate(-.546 -.546) scale(.06356)" gradientUnits="userSpaceOnUse"><stop offset="0" stop-color="#28b162"/><stop offset="1" stop-color="#35e981"/></linearGradient><linearGradient id="b" x1="32.213" x2="31.939" y1="62.062" y2="23.498" gradientUnits="userSpaceOnUse"><stop offset="0" stop-color="#3a7af0"/><stop offset="1" stop-color="#43adf1"/></linearGradient><linearGradient id="d" x1="31.791" x2="32" y1="46.159" y2="2" gradientUnits="userSpaceOnUse"><stop offset="0" stop-color="#e1e7f2"/><stop offset="1" stop-color="#fff"/></linearGradient><filter id="a" width="1.072" height="1.072" x="-.036" y="-.036" color-interpolation-filters="sRGB"><feGaussianBlur stdDeviation="14.16"/></filter><filter id="e" width="1.291" height="1.204" x="-.145" y="-.102" color-interpolation-filters="sRGB"><feGaussianBlur stdDeviation="25.722"/></filter></defs><path d="M966.1 378.45c-2.5-8.75-5.35-17.6-8.45-26.35-6.45-18.25-14.15-36.05-23.15-53.65-3.8-7.4-7.95-14.95-12.3-22.4-20.3-34.5-45.8-67.2-76.35-97.75C773.25 105.7 688.7 61.65 592.2 46.25c-16.25-2.6-32.8-4.4-50.05-5.35-9.7-.55-19.85-.85-30.1-.85-9.35 0-18.6.25-27.9.75-118.35 6.1-220.3 51.95-305.85 137.5Q40.05 316.55 40.05 512.05c0 130.35 46.1 241.65 138.25 333.8 85.55 85.5 187.5 131.35 305.85 137.5h.4c8.5.45 16.6.7 24.5.7h8.45c8.55-.1 16.8-.4 24.65-.8 2.5-.15 4.75-.3 6.95-.45 20.2-1.45 39.9-4.05 58.7-7.7 7.95-1.55 15.8-3.3 23.4-5.15 80.8-20.3 152.15-61.6 214.65-124.1 48.6-48.6 84.4-102.5 107.35-161.8 16.6-42.9 26.55-88.65 29.75-137.45.35-5.2.6-10.6.8-16.05.2-6.05.3-12.25.3-18.5v-3c-.2-40.65-4.95-79.5-14.3-117-1.1-4.35-2.35-9-3.65-13.6z" filter="url(#a)" opacity=".25" transform="translate(-.546 -.546) scale(.06356)"/><path fill="url(#b)" d="M60.859 23.509a28.41 28.41 0 0 0-2.008-5.085c-.242-.47-.506-.95-.782-1.424-1.29-2.192-2.911-4.27-4.853-6.212-4.614-4.615-9.988-7.415-16.122-8.393a30.744 30.744 0 0 0-3.181-.34 33.984 33.984 0 0 0-3.687-.007c-7.522.388-14.002 3.302-19.44 8.74Q2 19.575 2 32c0 8.285 2.93 15.359 8.787 21.216 5.438 5.434 11.917 8.348 19.44 8.739h.026c.54.029 1.055.044 1.557.044h.537a40.009 40.009 0 0 0 1.567-.05l.441-.029a31.441 31.441 0 0 0 3.731-.49c.506-.098 1.005-.21 1.488-.327 5.135-1.29 9.67-3.915 13.643-7.887 3.089-3.09 5.364-6.515 6.823-10.284 1.055-2.727 1.687-5.635 1.89-8.737A33.7 33.7 0 0 0 62 32v-.19a31.209 31.209 0 0 0-.908-7.437c-.07-.276-.15-.572-.232-.864z"/><path fill="url(#c)" d="M32 2c-.594 0-1.182.015-1.773.047-7.523.388-14.002 3.303-19.44 8.74C4.93 16.645 2 23.717 2 32c0 2.549.28 4.982.834 7.3L60.92 23.738c-.02-.077-.038-.151-.06-.229a28.365 28.365 0 0 0-2.008-5.084c-.241-.47-.507-.95-.783-1.423-1.29-2.193-2.91-4.272-4.852-6.213-4.614-4.615-9.99-7.414-16.123-8.393a30.715 30.715 0 0 0-3.18-.34 34.007 34.007 0 0 0-1.913-.054z"/><path fill="url(#d)" fill-rule="evenodd" d="M19.41 4.674c-2.43 1.13-4.713 2.619-6.848 4.467l20.074 20.074-30.2 8.09a28.195 28.195 0 0 0 2.404 7.64l34.328-9.2.427-.114 22.318-5.98a30.56 30.56 0 0 0-.822-5.278 28.365 28.365 0 0 0-.77-2.539c-.003-.012-.01-.022-.013-.033L41.56 26.824 19.41 4.674z" style="paint-order:fill markers stroke"/><g stroke-width=".973" filter="url(#e)" opacity=".35" transform="matrix(.04713 0 0 .04487 22.983 46.697)"><path d="M191.3-645.02c-117.17 0-212.16 94.991-212.16 212.16 0 8.97.72 17.711 1.816 26.377 18.13 165.72 196.57 356.73 196.57 356.73 3.18 3.558 6.245 5.753 9.196 7.341l.152.076 5.942 1.893 5.942-1.893.152-.076c2.952-1.59 6.018-3.897 9.196-7.341 0 0 175.87-191.34 193.58-357.1 1.06-8.553 1.78-17.22 1.78-26.038-.04-117.13-94.992-212.12-212.16-212.12zm0 348.63c-75.236 0-136.47-61.233-136.47-136.47s61.233-136.47 136.47-136.47 136.43 61.233 136.43 136.47-61.195 136.47-136.43 136.47z"/></g><path fill="url(#f)" d="M191.3-645.02c-117.17 0-212.16 94.991-212.16 212.16 0 8.97.72 17.711 1.816 26.377 18.13 165.72 196.57 356.73 196.57 356.73 3.18 3.558 6.245 5.753 9.196 7.341l.152.076 5.942 1.893 5.942-1.893.152-.076c2.952-1.59 6.018-3.897 9.196-7.341 0 0 175.87-191.34 193.58-357.1 1.06-8.553 1.78-17.22 1.78-26.038-.04-117.13-94.992-212.12-212.16-212.12zm0 348.63c-75.236 0-136.47-61.233-136.47-136.47s61.233-136.47 136.47-136.47 136.43 61.233 136.43 136.47-61.195 136.47-136.43 136.47z" transform="translate(22.983 48.155) scale(.04713)"/></svg>