<svg id="svg78" width="64" height="64" version="1.1" xmlns="http://www.w3.org/2000/svg" xmlns:xlink="http://www.w3.org/1999/xlink">
 <defs id="defs38">
  <linearGradient id="b" x1="399.57" x2="399.57" y1="545.8" y2="517.8" gradientTransform="matrix(2.1429 0 0 2.1429 -826.36 -1107.5)" gradientUnits="userSpaceOnUse">
   <stop id="stop2" stop-color="#3889e9" offset="0"/>
   <stop id="stop4" stop-color="#5ea5fb" offset="1"/>
  </linearGradient>
  <filter id="c" x="-.036" y="-.036" width="1.072" height="1.072" color-interpolation-filters="sRGB">
   <feGaussianBlur id="feGaussianBlur7" stdDeviation="0.41999874"/>
  </filter>
  <linearGradient id="linearGradient912" x1="30.765" x2="31.106" y1="56.993" y2="7.366" gradientTransform="matrix(244.65 0 0 228.34 152.66 -113.65)" gradientUnits="userSpaceOnUse">
   <stop id="stop33" stop-color="#626262" offset="0"/>
   <stop id="stop35" stop-color="#383838" offset="1"/>
  </linearGradient>
  <filter id="filter932" x="-.071538" y="-.051667" width="1.1431" height="1.1033" color-interpolation-filters="sRGB">
   <feGaussianBlur id="feGaussianBlur934" stdDeviation="0.775"/>
  </filter>
 </defs>
 <circle id="circle40" transform="matrix(2.1429 0 0 2.1429 -826.36 -1107.5)" cx="400.57" cy="531.8" r="14" filter="url(#c)" opacity=".25" stroke-width=".73333"/>
 <g id="g48" stroke-width="1.5715">
  <circle id="circle42" cx="32.02" cy="32.044" r="30.001" fill="url(#linearGradient912)"/>
  <circle id="circle44" cx="32.02" cy="32.044" r="30.001" fill-opacity="0"/>
  <circle id="circle46" cx="32.02" cy="32.044" r="0" fill="url(#b)"/>
 </g>
 <g>
  <rect id="rect914" x="19" y="14" width="26" height="36" rx="2" ry="2" filter="url(#filter932)" opacity=".5"/>
  <rect id="rect894" x="19" y="14" width="26" height="36" rx="2" ry="2" fill="#f2f2f2"/>
  <path id="path4" d="m29.02 20.525c-0.20882 0.15352-0.26108 0.38357-0.26108 0.65235 0 0.49888 0.20882 1.1128 0.31325 1.3431 0 0 0.15662 2.6862 0.20884 2.9932-0.46988 0.03837-1.3052 0.07676-1.6184 0.1535h-0.41766c-0.88754 0.0385-1.7228 0.07676-2.0884 0.34531l-0.15663 0.11512 0.15663 0.1535c0.26103 0.23024 0.36547 0.88261 0.46988 1.5734 0.26103 1.4198 0.57428 3.185 2.1406 3.8759l0.31325 0.11512v-0.26862s0.0523-0.11512 0.0523-0.26862c0-0.11512-0.0523-0.307-0.10436-0.57562 0.41766 0.03837 1.3052 0.11512 1.6184 0.11512 0.05226 0.30705 1.4097 12.818 1.4097 12.818h0.52216s0.57431-12.356 0.57431-12.74c0.36544 0 1.9839 0.03835 2.4538 0.07676-0.10429 0.23028-0.52193 1.1897-0.52193 1.1897l0.73075-0.49883c0.20882-0.11526 4.7508-3.1467 4.1255-5.1423-0.20998-0.65235-0.94027-1.1129-2.1418-1.343h-0.10466c-0.67872 0-2.7671 0.03837-4.3334 0.11512 0.05234-0.99773 0.05234-1.535 0.05234-1.8037v-0.34538c0-0.19188 0.26103-0.4605 0.46988-0.65238 0.20884-0.23024 0.4699-0.42212 0.4699-0.65238 0-0.07676-0.05231-0.1535-0.10436-0.23024-0.31241-0.34554-2.6096-1.2282-3.6015-1.3049-0.31334 0.03826-0.52216 0.07676-0.62669 0.19178zm0.05232 6.2935h0.26103c0 0.34538 0.15663 2.7629 0.20882 3.1082-0.41764-0.0385-1.4095-0.11526-1.7228-0.11526-0.15679-0.49883-0.20882-1.0362-0.26108-1.5733-0.05226-0.46057-0.10429-0.92114-0.20882-1.3432 0.46988 0 1.7229-0.07676 1.7229-0.07676zm3.1848 1.1894s0.05217-0.921 0.05217-1.228c0.6787 0.07676 1.5662 0.11512 2.4015 0.11512h0.93975c0 0.1535-0.05232 0.34538-0.05232 0.34538-0.10436 0.84423-0.26103 1.8419-0.73094 2.8397-0.31323 0-2.2449-0.07676-2.6626-0.11512 0-0.26862 0.05232-1.9571 0.05232-1.9571z" fill="#e64c4c" stroke-width="2.3332"/>
 </g>
</svg>
