<svg width="64" height="64" enable-background="new 0 0 1024 1024" image-rendering="optimizeSpeed" version="1.1" xmlns="http://www.w3.org/2000/svg">
 <defs>
  <linearGradient id="b" x1="8.467" x2="8.467" y1="281.65" y2="295.41" gradientTransform="translate(1324.4)" gradientUnits="userSpaceOnUse">
   <stop stop-color="#ff4949" offset="0"/>
   <stop stop-color="#ff4c83" offset="1"/>
  </linearGradient>
  <filter id="a" x="-.036" y="-.036" width="1.072" height="1.072" color-interpolation-filters="sRGB">
   <feGaussianBlur stdDeviation="14.16"/>
  </filter>
  <filter id="filter26" x="-.013853" y="-.013853" width="1.0277" height="1.0277" color-interpolation-filters="sRGB">
   <feGaussianBlur stdDeviation="0.29776566"/>
  </filter>
  <filter id="filter25" x="-.029663" y="-.029663" width="1.0593" height="1.0593" color-interpolation-filters="sRGB">
   <feGaussianBlur stdDeviation="0.29776566"/>
  </filter>
 </defs>
 <path transform="translate(-.546 -.546) scale(.06356)" d="M966.1 378.45c-2.5-8.75-5.35-17.6-8.45-26.35-6.45-18.25-14.15-36.05-23.15-53.65-3.8-7.4-7.95-14.95-12.3-22.4-20.3-34.5-45.8-67.2-76.35-97.75C773.25 105.7 688.7 61.65 592.2 46.25c-16.25-2.6-32.8-4.4-50.05-5.35-9.7-.55-19.85-.85-30.1-.85-9.35 0-18.6.25-27.9.75-118.35 6.1-220.3 51.95-305.85 137.5Q40.05 316.55 40.05 512.05c0 130.35 46.1 241.65 138.25 333.8 85.55 85.5 187.5 131.35 305.85 137.5h.4c8.5.45 16.6.7 24.5.7h8.45c8.55-.1 16.8-.4 24.65-.8 2.5-.15 4.75-.3 6.95-.45 20.2-1.45 39.9-4.05 58.7-7.7 7.95-1.55 15.8-3.3 23.4-5.15 80.8-20.3 152.15-61.6 214.65-124.1 48.6-48.6 84.4-102.5 107.35-161.8 16.6-42.9 26.55-88.65 29.75-137.45.35-5.2.6-10.6.8-16.05.2-6.05.3-12.25.3-18.5v-3c-.2-40.65-4.95-79.5-14.3-117-1.1-4.35-2.35-9-3.65-13.6z" filter="url(#a)" opacity=".25"/>
 <g transform="translate(-4.925 -1226.3) scale(4.3611)" stroke-width=".867">
  <circle cx="8.467" cy="288.53" r="6.879" fill="url(#b)" style="paint-order:stroke markers fill"/>
  <rect x="6.879" y="285.36" width="3.175" height="5.292" rx="1.587" ry="1.587" fill="#fff" style="paint-order:stroke markers fill"/>
  <path d="M6.218 288.93a.132.132 0 0 0-.133.133.132.132 0 0 0 .002.016 2.381 2.381 0 0 0 2.38 2.365 2.381 2.381 0 0 0 2.38-2.368.132.132 0 0 0 0-.01 2.381 2.381 0 0 0 0-.003.132.132 0 0 1 0-.001.132.132 0 0 0-.132-.132.132.132 0 0 0-.132.132 2.116 2.116 0 0 1-2.116 2.117 2.116 2.116 0 0 1-2.116-2.117h-.002a.132.132 0 0 0-.131-.132z" fill="#fff" style="paint-order:stroke markers fill"/>
 </g>
 <g fill="none">
  <path d="M2 26.699h60V47.15H2z"/>
  <g stroke="#fff" stroke-opacity=".937" stroke-width=".499">
   <path d="M2.17 28.178s4.208-.18 8.029 9.005c2.94 6.734 7.078 9.721 12.089 9.957 6.454.305 11.657-5.347 15.085-10.401 6.986-10.301 19.683-7.735 24.594-5.19" opacity=".35"/>
   <path d="M2.074 30.414s7.691-3.263 12.037 3.473c3.149 4.985 6.873 12.503 17.658 11.814 6.446-.414 12.89-3.096 16.215-9.376 6.053-11.413 11.965-10.067 13.74-8.36" opacity=".35"/>
   <path d="M3.06 39.777s7.287-5.736 18.059-2.593c5.656 1.653 12.809 8.055 26.41 6.56 3.594-.393 6.638-2.456 9.521-6.385 3.021-4.302 4.94-4.62 4.94-4.62" opacity=".35"/>
  </g>
 </g>
 <path d="m10.787 10.787c-11.752 11.752-11.752 30.674 0 42.426 0.11855 0.11855 0.24184 0.22911 0.36184 0.34527-11.399-11.775-11.288-30.431 0.34527-42.065 11.634-11.634 30.289-11.744 42.065-0.34527-0.11616-0.12-0.22671-0.24329-0.34527-0.36184-11.752-11.752-30.674-11.752-42.426 0z" fill="#ffffff" filter="url(#filter26)" opacity=".35"/>
 <path d="m37.435 61.526c5.7718-1.0635 11.297-3.831 15.779-8.3126s7.2491-10.007 8.3126-15.779c-1.5917 5.4332-4.6056 10.657-9.0198 15.072s-9.6384 7.428-15.072 9.0198z" fill="#ffffff" filter="url(#filter25)" opacity=".35"/>
</svg>
