<svg width="64" height="64" enable-background="new 0 0 1024 1024" image-rendering="optimizeSpeed" xmlns="http://www.w3.org/2000/svg" xmlns:xlink="http://www.w3.org/1999/xlink"><defs><linearGradient id="e" x1="-506.45" x2="-506.45" y1="-19.101" y2="1013.6" gradientTransform="matrix(.05882 0 0 .05882 61.791 3.124)" gradientUnits="userSpaceOnUse"><stop stop-color="#262626" offset="0"/><stop stop-color="#333" offset=".508"/><stop stop-color="#4a4a4a" offset="1"/></linearGradient><linearGradient id="a"><stop stop-color="#a40000" offset="0"/><stop stop-color="#a40000" stop-opacity="0" offset="1"/></linearGradient><linearGradient id="b"><stop stop-color="#c00" offset="0"/><stop stop-color="#c00" stop-opacity="0" offset="1"/></linearGradient><linearGradient id="c"><stop stop-color="#ef2929" offset="0"/><stop stop-color="#ef2929" stop-opacity="0" offset="1"/></linearGradient><linearGradient id="g" x1="5.693" x2="40.503" y1="5.458" y2="40.081" gradientTransform="translate(7.495 7.546)" gradientUnits="userSpaceOnUse"><stop stop-color="#eeeeec" offset="0"/><stop stop-color="#eeeeec" stop-opacity="0" offset="1"/></linearGradient><radialGradient id="h" cx="18.685" cy="25.668" r="5.05" gradientUnits="userSpaceOnUse" xlink:href="#a"/><radialGradient id="i" cx="18.685" cy="25.668" r="5.05" gradientUnits="userSpaceOnUse" xlink:href="#b"/><radialGradient id="j" cx="18.685" cy="25.668" r="5.05" gradientUnits="userSpaceOnUse" xlink:href="#c"/><radialGradient id="k" cx="13.199" cy="12.464" r="21.009" gradientTransform="matrix(1.0649 .61482 -.62301 1.0791 14.403 -1.554)" gradientUnits="userSpaceOnUse"><stop stop-color="#d3d7cf" offset="0"/><stop stop-color="#888a85" offset="1"/></radialGradient><filter id="d" x="-.036" y="-.036" width="1.072" height="1.072" color-interpolation-filters="sRGB"><feGaussianBlur stdDeviation=".9"/></filter><filter id="f" x="-.121" y="-.119" width="1.242" height="1.238" color-interpolation-filters="sRGB"><feGaussianBlur stdDeviation="2.036"/></filter></defs><circle cx="32" cy="32" r="30" fill-rule="evenodd" filter="url(#d)" opacity=".25" style="paint-order:fill markers stroke"/><circle cx="32" cy="32" r="30" fill="url(#e)" fill-rule="evenodd" style="paint-order:fill markers stroke"/><g transform="translate(.552 .407)" filter="url(#f)" opacity=".5"><path d="M15.008 26h32.998v11.778H15.008V26z" stroke="#2e3436"/><g opacity=".75"><path d="M39.497 31.547a8 8 0 1 1-16 0 8 8 0 0 1 16 0z"/><path d="M37.212 31.615a5.715 5.715 0 1 1-11.429 0 5.715 5.715 0 0 1 11.43 0z"/><path d="M34.926 31.615a3.429 3.429 0 1 1-6.857 0 3.429 3.429 0 0 1 6.857 0z"/></g><path d="M29.497 31.547a8 8 0 1 1-16 0 8 8 0 0 1 16 0z"/><path d="M27.212 31.615a5.715 5.715 0 1 1-11.429 0 5.715 5.715 0 0 1 11.43 0z"/><path d="M24.926 31.615a3.429 3.429 0 1 1-6.857 0 3.429 3.429 0 0 1 6.857 0z"/><g opacity=".5"><path d="M49.497 31.547a8 8 0 1 1-16 0 8 8 0 0 1 16 0z"/><path d="M47.212 31.615a5.715 5.715 0 1 1-11.429 0 5.715 5.715 0 0 1 11.43 0z"/><path d="M44.926 31.615a3.429 3.429 0 1 1-6.857 0 3.429 3.429 0 0 1 6.857 0z"/></g><path d="M31.464 11.077c-10.117 0-18.544 7.329-20.219 16.969h40.406c-1.676-9.639-10.071-16.969-20.187-16.969zM11.276 35.14c1.69 9.622 10.083 16.968 20.188 16.968 10.105 0 18.498-7.344 20.187-16.968z" fill-rule="evenodd" stroke="#2e3436"/><path d="M31.464 12.077c-9.226 0-16.95 6.45-18.969 15.063h37.938c-2.02-8.613-9.744-15.063-18.969-15.063zM12.495 36.046c2.02 8.613 9.743 15.031 18.969 15.031 9.225 0 16.949-6.418 18.969-15.031z" stroke="url(#g)"/></g><path d="M15.56 26.407h32.998v11.778H15.56V26.407z" fill="#2e3436" stroke="#2e3436"/><g opacity=".75"><path transform="matrix(1.5842 0 0 1.5842 2.448 -8.708)" d="M23.735 25.668a5.05 5.05 0 1 1-10.1 0 5.05 5.05 0 0 1 10.1 0z" fill="url(#h)"/><path transform="matrix(1.1316 0 0 1.1316 10.906 2.976)" d="M23.735 25.668a5.05 5.05 0 1 1-10.1 0 5.05 5.05 0 0 1 10.1 0z" fill="url(#i)"/><path transform="translate(19.363 14.595) scale(.67895)" d="M23.735 25.668a5.05 5.05 0 1 1-10.1 0 5.05 5.05 0 0 1 10.1 0z" fill="url(#j)"/></g><path transform="matrix(1.5842 0 0 1.5842 -7.552 -8.708)" d="M23.735 25.668a5.05 5.05 0 1 1-10.1 0 5.05 5.05 0 0 1 10.1 0z" fill="url(#h)"/><path transform="matrix(1.1316 0 0 1.1316 .906 2.976)" d="M23.735 25.668a5.05 5.05 0 1 1-10.1 0 5.05 5.05 0 0 1 10.1 0z" fill="url(#i)"/><path transform="translate(9.363 14.595) scale(.67895)" d="M23.735 25.668a5.05 5.05 0 1 1-10.1 0 5.05 5.05 0 0 1 10.1 0z" fill="url(#j)"/><g opacity=".5"><path transform="matrix(1.5842 0 0 1.5842 12.448 -8.708)" d="M23.735 25.668a5.05 5.05 0 1 1-10.1 0 5.05 5.05 0 0 1 10.1 0z" fill="url(#h)"/><path transform="matrix(1.1316 0 0 1.1316 20.906 2.976)" d="M23.735 25.668a5.05 5.05 0 1 1-10.1 0 5.05 5.05 0 0 1 10.1 0z" fill="url(#i)"/><path transform="translate(29.363 14.595) scale(.67895)" d="M23.735 25.668a5.05 5.05 0 1 1-10.1 0 5.05 5.05 0 0 1 10.1 0z" fill="url(#j)"/></g><path d="M31.464 11.077c-10.117 0-18.544 7.329-20.219 16.969h40.406c-1.676-9.639-10.071-16.969-20.187-16.969zM11.276 35.14c1.69 9.622 10.083 16.968 20.188 16.968 10.105 0 18.498-7.344 20.187-16.968z" fill="url(#k)" fill-rule="evenodd" stroke="#2e3436" transform="translate(.552 .407)"/><path d="M31.464 12.077c-9.226 0-16.95 6.45-18.969 15.063h37.938c-2.02-8.613-9.744-15.063-18.969-15.063zM12.495 36.046c2.02 8.613 9.743 15.031 18.969 15.031 9.225 0 16.949-6.418 18.969-15.031z" fill="none" stroke="url(#g)" transform="translate(.552 .407)"/></svg>