<svg width="64" height="64" version="1.1" xmlns="http://www.w3.org/2000/svg" xmlns:xlink="http://www.w3.org/1999/xlink">
 <defs>
  <linearGradient id="c" x1="99.036" x2="99.036" y1="-.505" y2="199.84" gradientTransform="matrix(.3 0 0 .3 2 2.006)" gradientUnits="userSpaceOnUse">
   <stop stop-color="#f9f9f9" offset="0"/>
   <stop stop-color="#e8edf0" offset="1"/>
  </linearGradient>
  <linearGradient id="a" x1="57.631" x2="133.23" y1="903.79" y2="1001.9" gradientTransform="translate(120.62 -3195) scale(3.9491)" gradientUnits="userSpaceOnUse">
   <stop stop-color="#ff6464" offset="0"/>
   <stop stop-color="#da4cb4" offset=".36"/>
   <stop stop-color="#a34df2" offset=".528"/>
   <stop stop-color="#686efe" offset=".697"/>
   <stop stop-color="#2ec1fc" offset="1"/>
  </linearGradient>
  <linearGradient id="d" x1="57.631" x2="133.23" y1="903.79" y2="1001.9" gradientTransform="translate(120.62 -3195) scale(3.9491)" gradientUnits="userSpaceOnUse" xlink:href="#a"/>
  <linearGradient id="f" x1="57.631" x2="133.23" y1="903.79" y2="1001.9" gradientTransform="translate(6.602 -206.4) scale(.2518)" gradientUnits="userSpaceOnUse" xlink:href="#a"/>
  <filter id="b" x="-.036" y="-.036" width="1.072" height="1.072" color-interpolation-filters="sRGB">
   <feGaussianBlur stdDeviation="14.115"/>
  </filter>
  <filter id="e" x="-.093506" y="-.076252" width="1.187" height="1.1525" color-interpolation-filters="sRGB">
   <feGaussianBlur stdDeviation="15.802"/>
  </filter>
  <filter id="filter26" x="-.013853" y="-.013853" width="1.0277" height="1.0277" color-interpolation-filters="sRGB">
   <feGaussianBlur stdDeviation="0.29776566"/>
  </filter>
  <filter id="filter25" x="-.029663" y="-.029663" width="1.0593" height="1.0593" color-interpolation-filters="sRGB">
   <feGaussianBlur stdDeviation="0.29776566"/>
  </filter>
 </defs>
 <circle transform="matrix(.06376 0 0 .06376 -.614 -2.3262)" cx="511.5" cy="540.86" r="470.5" color="#000000" filter="url(#b)" opacity=".15"/>
 <circle cx="32" cy="32.006" r="30" fill="url(#c)"/>
 <path transform="translate(-.614 -2.48) scale(.06376)" d="m406.93 582.43c0 71.534 1.35 96.504-44.54 96.504s-82.332 14.847-82.332 56.688 43.191 62.086 70.185 62.086 80.308-18.896 80.308-75.583v-256.44l229.45-53.313v196.38s2.7 23.62-27.669 23.62c-30.368 0-97.179-8.773-97.179 55.338s64.786 60.062 74.909 60.062 75.584-10.798 75.584-87.056v-360.37l-280.06 53.988z" fill="url(#d)" filter="url(#e)" opacity=".75"/>
 <path d="M24.858 34.454c0 4.561.086 6.153-2.84 6.153-2.926 0-5.25.947-5.25 3.615s2.754 3.959 4.475 3.959c1.722 0 5.121-1.205 5.121-4.82v-16.35l14.63-3.4v12.522s.172 1.506-1.764 1.506-6.196-.56-6.196 3.529c0 4.087 4.13 3.83 4.776 3.83.645 0 4.82-.69 4.82-5.552V16.468l-17.858 3.443z" fill="url(#f)"/>
 <path d="m10.787 10.787c-11.752 11.752-11.752 30.674 0 42.426 0.11855 0.11855 0.24184 0.22911 0.36184 0.34527-11.399-11.775-11.288-30.431 0.34527-42.065 11.634-11.634 30.289-11.744 42.065-0.34527-0.11616-0.12-0.22671-0.24329-0.34527-0.36184-11.752-11.752-30.674-11.752-42.426 0z" fill="#ffffff" filter="url(#filter26)"/>
 <path d="m37.435 61.526c5.7718-1.0635 11.297-3.831 15.779-8.3126s7.2491-10.007 8.3126-15.779c-1.5917 5.4332-4.6056 10.657-9.0198 15.072s-9.6384 7.428-15.072 9.0198z" fill="#ffffff" filter="url(#filter25)"/>
</svg>
