<svg xmlns="http://www.w3.org/2000/svg" xmlns:xlink="http://www.w3.org/1999/xlink" width="64" height="64"><defs><linearGradient id="a"><stop offset="0" stop-color="#fdfcfb"/><stop offset="1" stop-color="#f1f0ef"/></linearGradient><linearGradient id="d" x1="48" x2="464" y1="44" y2="44" gradientTransform="translate(-4.923 25.655)scale(.14423)" gradientUnits="userSpaceOnUse"><stop offset="0" stop-color="#babdb6"/><stop offset=".042" stop-color="#f6f5f4"/><stop offset=".083" stop-color="#d5d3cf"/><stop offset=".915" stop-color="#deddda"/><stop offset=".944" stop-color="#ebeae8"/><stop offset=".985" stop-color="#f6f5f4"/><stop offset="1" stop-color="#babdb6"/></linearGradient><linearGradient xlink:href="#a" id="c" x1="32.577" x2="32.577" y1="2" y2="57.961" gradientTransform="translate(0 .001)scale(.99998)" gradientUnits="userSpaceOnUse"/><linearGradient xlink:href="#a" id="e" x1="52.183" x2="52.183" y1="3.82" y2="57.961" gradientTransform="translate(0 .001)scale(.99998)" gradientUnits="userSpaceOnUse"/><linearGradient xlink:href="#a" id="f" x1="12.385" x2="12.385" y1="3.414" y2="57.141" gradientTransform="translate(0 .001)scale(.99998)" gradientUnits="userSpaceOnUse"/><filter id="b" width="1.072" height="1.072" x="-.036" y="-.036" color-interpolation-filters="sRGB"><feGaussianBlur stdDeviation=".89"/></filter></defs><rect width="59.315" height="59.315" x="386.85" y="486.31" filter="url(#b)" opacity=".25" ry="29.657" transform="translate(-389.32 -489.92)scale(1.0115)"/><path fill="#deddda" d="M22.769 41.234h19.615v18.461H22.769z"/><circle cx="32" cy="32" r="30" fill="#c5c4c1" style="paint-order:stroke fill markers"/><path fill="url(#c)" d="M31.855 2a30 30 0 0 0-9.086 1.455v57.082a30.1 30.1 0 0 0 9.21 1.438h.001c3.66 0 7.165-.65 10.402-1.84V3.855A30 30 0 0 0 32 2h-.144z"/><path fill="url(#d)" d="M42.384 41.23v18.461h1.125a29.94 29.94 0 0 0 17.02-18.461z"/><path fill="url(#e)" d="M42.385 3.856v56.276a32 32 0 0 0 3.897-1.75l.007-.003.213-.118c.25-.134.497-.286.746-.427A30 30 0 0 0 62 32 30 30 0 0 0 42.385 3.855z"/><path fill="#1a5fb4" d="M55.765 13.663a22 22 0 0 0-4.332 6.799h3.764a18.5 18.5 0 0 1 2.558-3.873 30 30 0 0 0-1.99-2.926"/><path d="M3.416 22.771A30.1 30.1 0 0 0 2 31.281v1.394A30.2 30.2 0 0 0 3.084 40H22.77V22.77H3.416z" opacity=".15"/><path fill="url(#f)" d="M22.769 3.415A29.92 29.92 0 0 0 2 31.28v1.395c.049 2.148.32 4.238.793 6.25H22.77V3.414z"/><path fill="#1a5fb4" d="M22.769 10.728v3.947a24.3 24.3 0 0 0 10.42 2.326 24.4 24.4 0 0 0 9.195-1.785v-3.822a20.56 20.56 0 0 1-9.195 2.146c-3.833 0-7.402-1.032-10.42-2.812m0 16.152v3.822a18.48 18.48 0 0 1 7.957 8.24h3.761A22.05 22.05 0 0 0 22.768 26.88zm30.034.506c-3.745 0-7.282.842-10.42 2.326v3.947c3.017-1.78 6.586-2.812 10.42-2.812 3.308 0 6.42.77 9.15 2.125.01-.331.026-.661.026-.994 0-.966-.05-1.92-.14-2.862a24.4 24.4 0 0 0-9.036-1.73m-.873 11.547a22.06 22.06 0 0 0 6.174 7.828 30 30 0 0 0 1.558-3.174 18.5 18.5 0 0 1-3.851-4.654z"/><path fill-opacity=".081" d="M4.51 19.886q-.129.287-.25.576H59.7q-.122-.29-.25-.576z"/><path fill="#1a5fb4" d="M10.348 20.465a19.66 19.66 0 0 1 1.973 8.615 19.63 19.63 0 0 1-2.631 9.846h4.14a23.2 23.2 0 0 0 2.184-9.846c0-2.95-.561-5.874-1.654-8.615zm26.305 18.461C35.56 41.666 34.308 45 34.309 50c0 5.59 1.478 8.573 3.752 11.381a30 30 0 0 0 3.365-.9C39.398 57.91 38.001 55 38.001 50s1.402-8.474 2.666-11.074z"/><path fill="#fff" fill-opacity=".953" d="M23.346 3.275a30 30 0 0 0-.576.18v57.082q.287.094.576.182V3.276z" opacity=".5"/><path fill-opacity=".081" d="M22.769 3.415q-.29.096-.578.196v35.313h.578z"/><path fill="#fff" d="M42.385 3.856v56.286a30 30 0 0 0 .576-.216V4.076a30 30 0 0 0-.576-.221z" opacity=".5"/><path d="M41.809 3.65v56.682c.192-.066.386-.129.576-.199V3.856a30 30 0 0 0-.576-.205z" opacity=".1"/><path fill="#fff" fill-opacity=".555" d="M4.26 20.462c-.08.191-.152.385-.227.578h55.895q-.112-.29-.228-.578zm18.51 18.463v.576h38.267c.048-.19.087-.384.132-.576z"/><path fill-opacity=".081" d="M2.66 38.346q.064.29.133.578h58.376q.069-.288.133-.578z"/></svg>