<svg width="64" height="64" xmlns="http://www.w3.org/2000/svg"><defs><linearGradient id="b" x1="32" x2="32" y1="2" y2="62" gradientUnits="userSpaceOnUse"><stop stop-color="#1d2123" offset="0"/><stop stop-color="#33393e" offset="1"/></linearGradient><linearGradient id="d" x1="100.01" x2="100.01" y1="15.314" y2="30.966" gradientUnits="userSpaceOnUse"><stop stop-color="#268bcf" offset="0"/><stop stop-color="#18bfe8" offset="1"/></linearGradient><linearGradient id="g" x1="107.85" x2="107.85" y1="16.618" y2="45.309" gradientUnits="userSpaceOnUse"><stop stop-color="#40a800" offset="0"/><stop stop-color="#7cd000" offset="1"/></linearGradient><linearGradient id="f" x1="92.191" x2="92.191" y1="16.618" y2="45.309" gradientUnits="userSpaceOnUse"><stop stop-color="#ec1f4b" offset="0"/><stop stop-color="#e94545" offset="1"/></linearGradient><linearGradient id="e" x1="100.01" x2="100.01" y1="30.971" y2="46.618" gradientUnits="userSpaceOnUse"><stop stop-color="#6534d2" offset="0"/><stop stop-color="#a553e5" offset="1"/></linearGradient><filter id="a" x="-.036" y="-.036" width="1.072" height="1.072" color-interpolation-filters="sRGB"><feGaussianBlur stdDeviation="14.344"/></filter><filter id="c" x="-.06" y="-.06" width="1.12" height="1.12" color-interpolation-filters="sRGB"><feGaussianBlur stdDeviation=".783"/></filter></defs><circle transform="matrix(.06274 0 0 .06274 -.125 -.125)" cx="512" cy="512" r="478.12" filter="url(#a)" opacity=".25" style="paint-order:stroke markers fill"/><circle cx="32" cy="32" r="30" fill="url(#b)" style="paint-order:stroke markers fill"/><g transform="translate(-68.017 1.034)" filter="url(#c)" opacity=".5"><path d="m86.973 15.314-1.304 1.304 14.348 14.348 14.343-14.348-1.305-1.304M113.06 46.618l1.304-1.304-14.343-14.343-14.348 14.343 1.305 1.304"/><path d="m84.365 44.004 1.304 1.304 14.348-14.343L85.67 16.617l-1.304 1.305M115.67 17.923l-1.304-1.304-14.343 14.348 14.343 14.343 1.304-1.305"/></g><path d="m86.973 15.314-1.304 1.304 14.348 14.348 14.343-14.348-1.305-1.304" fill="url(#d)" transform="translate(-68.017 1.034)"/><path d="m113.06 46.618 1.304-1.304-14.343-14.343-14.348 14.343 1.305 1.304" fill="url(#e)" transform="translate(-68.017 1.034)"/><path d="m84.365 44.004 1.304 1.304 14.348-14.343L85.67 16.617l-1.304 1.305" fill="url(#f)" transform="translate(-68.017 1.034)"/><path d="m115.67 17.923-1.304-1.304-14.343 14.348 14.343 14.343 1.304-1.305" fill="url(#g)" transform="translate(-68.017 1.034)"/></svg>