<svg xmlns="http://www.w3.org/2000/svg" width="64" height="64" enable-background="new 0 0 1024 1024" image-rendering="optimizeSpeed"><defs><linearGradient id="b" x1="540" x2="540" y1="4" y2="1024" gradientTransform="translate(2 2)scale(.99609)" gradientUnits="userSpaceOnUse"><stop offset="0" stop-color="#c8c4b7"/><stop offset="1" stop-color="#888"/></linearGradient><linearGradient id="d" x1="500" x2="500" y1="4" y2="1024" gradientTransform="translate(-.516 9.742)" gradientUnits="userSpaceOnUse"><stop offset="0" stop-color="#fff"/><stop offset="1" stop-color="#e6e6e6"/></linearGradient><linearGradient id="c" x1="540" x2="560" y1="4" y2="1024" gradientTransform="translate(-.516 9.742)" gradientUnits="userSpaceOnUse"><stop offset="0"/><stop offset="1" stop-color="#666"/></linearGradient><linearGradient id="e" x1="361.13" x2="382.52" y1="519.98" y2="519.98" gradientUnits="userSpaceOnUse"><stop offset="0" stop-color="#f22c42"/><stop offset="1" stop-color="#ed7161"/></linearGradient><linearGradient id="f" x1="660" x2="660" y1="424" y2="624" gradientTransform="translate(-2.516 5.742)" gradientUnits="userSpaceOnUse"><stop offset="0" stop-color="#888"/><stop offset="1" stop-color="#c8c4b7"/></linearGradient><filter id="a" width="1.072" height="1.072" x="-.036" y="-.036" color-interpolation-filters="sRGB"><feGaussianBlur stdDeviation="14.105"/></filter><filter id="g" width="1.028" height="1.028" x="-.014" y="-.014" color-interpolation-filters="sRGB"><feGaussianBlur stdDeviation=".298"/></filter><filter id="h" width="1.059" height="1.059" x="-.03" y="-.03" color-interpolation-filters="sRGB"><feGaussianBlur stdDeviation=".298"/></filter></defs><g stroke-width="15.683" transform="translate(-.614 -.678)scale(.06376)"><g stroke-width="15.622"><path d="M967.96 392.52a513 513 0 0 0-3.636-13.547c-2.49-8.716-5.329-17.531-8.417-26.247-6.425-18.179-14.095-35.909-23.06-53.44a473 473 0 0 0-12.252-22.312h-.025q-30.48-51.807-76.027-97.368c-91.79-91.79-202.66-137.71-332.5-137.71s-240.66 45.92-332.45 137.71-137.71 202.61-137.71 332.45 45.92 240.71 137.71 332.5c67.784 67.784 145.93 110.52 233.98 128.15 31.825 6.375 64.497 9.513 98.464 9.513 129.84 0 240.71-45.87 332.5-137.66 48.41-48.41 84.07-102.1 106.93-161.17 16.934-43.778 26.895-90.445 29.833-140.2a531 531 0 0 0 .897-31.128c0-41.587-4.682-81.281-14.244-119.53z" filter="url(#a)" opacity=".25" transform="translate(-.924 2.584)scale(1.0007)"/><path fill="url(#b)" d="M967.96 392.52a513 513 0 0 0-3.636-13.547c-2.49-8.716-5.329-17.531-8.417-26.247-6.425-18.179-14.095-35.909-23.06-53.44a473 473 0 0 0-12.252-22.312h-.025q-30.48-51.807-76.027-97.368c-91.79-91.79-202.66-137.71-332.5-137.71s-240.66 45.92-332.45 137.71-137.71 202.61-137.71 332.45 45.92 240.71 137.71 332.5c67.784 67.784 145.93 110.52 233.98 128.15 31.825 6.375 64.497 9.513 98.464 9.513 129.84 0 240.71-45.87 332.5-137.66 48.41-48.41 84.07-102.1 106.93-161.17 16.934-43.778 26.895-90.445 29.833-140.2a531 531 0 0 0 .897-31.128c0-41.587-4.682-81.281-14.244-119.53z" transform="translate(-.924 .076)scale(1.0007)"/></g><path fill="url(#c)" d="M380 344h256.55c99.95 0 181.73 81.777 181.73 181.73s-81.777 181.73-181.73 181.73H380c-99.95 0-181.73-81.777-181.73-181.73S280.047 344 380 344"/><circle cx="636.55" cy="525.73" r="128.28" fill="url(#d)"/><path fill="none" stroke="url(#e)" stroke-linecap="round" stroke-miterlimit="10" stroke-width="31.367" d="M354.67 440.21v171.03"/><circle cx="636.91" cy="526.66" r="96" fill="url(#f)" opacity=".66" style="paint-order:stroke markers fill"/></g><path fill="#fff" d="M10.787 10.787a29.934 29.934 0 0 0 0 42.426c.119.119.242.23.362.345-11.4-11.775-11.288-30.43.345-42.065S41.784-.25 53.56 11.148c-.116-.12-.227-.243-.345-.362a29.934 29.934 0 0 0-42.426 0z" filter="url(#g)" opacity=".35"/><path fill="#fff" d="M37.435 61.526c5.772-1.063 11.297-3.831 15.779-8.313s7.25-10.007 8.313-15.779c-1.592 5.434-4.606 10.657-9.02 15.072s-9.639 7.428-15.072 9.02" filter="url(#h)" opacity=".35"/></svg>