<svg width="64" height="64" version="1.1" xmlns="http://www.w3.org/2000/svg" xmlns:xlink="http://www.w3.org/1999/xlink">
 <defs>
  <linearGradient id="a">
   <stop stop-color="#fdfcfb" offset="0"/>
   <stop stop-color="#f1f0ef" offset="1"/>
  </linearGradient>
  <filter id="c" x="-.036" y="-.036" width="1.072" height="1.072" color-interpolation-filters="sRGB">
   <feGaussianBlur stdDeviation="0.88972449"/>
  </filter>
  <clipPath id="i">
   <rect x="12" y="184" width="104" height="100" rx="8" ry="8" fill="#f6f5f4" stroke-width=".25"/>
  </clipPath>
  <linearGradient id="j" x1="48" x2="464" y1="44" y2="44" gradientTransform="matrix(.14423 0 0 .14423 -4.9231 25.654)" gradientUnits="userSpaceOnUse">
   <stop stop-color="#babdb6" offset="0"/>
   <stop stop-color="#f6f5f4" offset=".042"/>
   <stop stop-color="#d5d3cf" offset=".083"/>
   <stop stop-color="#deddda" offset=".915"/>
   <stop stop-color="#ebeae8" offset=".944"/>
   <stop stop-color="#f6f5f4" offset=".985"/>
   <stop stop-color="#babdb6" offset="1"/>
  </linearGradient>
  <linearGradient id="f" x1="32.577" x2="32.577" y1="2" y2="57.961" gradientUnits="userSpaceOnUse" xlink:href="#a"/>
  <linearGradient id="e" x1="52.183" x2="52.183" y1="3.8203" y2="57.961" gradientUnits="userSpaceOnUse" xlink:href="#a"/>
  <linearGradient id="d" x1="12.385" x2="12.385" y1="3.4136" y2="57.141" gradientUnits="userSpaceOnUse" xlink:href="#a"/>
  <linearGradient id="b" x1="31.99" x2="31.99" y1="13.538" y2="61.974" gradientUnits="userSpaceOnUse">
   <stop stop-color="#c0bfbc" offset="0"/>
   <stop stop-color="#d6d5d2" offset="1"/>
  </linearGradient>
 </defs>
 <rect transform="matrix(1.0115 0 0 1.0115 -389.32 -489.92)" x="386.85" y="486.31" width="59.315" height="59.315" ry="29.657" filter="url(#c)" opacity=".25"/>
 <g transform="matrix(.57692 0 0 .57692 -4.9231 -104.15)">
  <path transform="matrix(1.7333 0 0 1.7333 8.5333 180.53)" d="m8.293 13.539c-3.8211 4.91-6.1413 11.047-6.293 17.74v1.3945c0.36917 16.293 13.595 29.301 29.98 29.301h0.001953c16.619 0 29.998-13.379 29.998-29.998 0-6.9652-2.3567-13.357-6.3105-18.438h-47.377z" fill="url(#b)" stroke-width=".57692"/>
  <g clip-path="url(#i)">
   <path d="m48 252h34v32h-34z" fill="#deddda"/>
   <g stroke-width=".57692">
    <path transform="matrix(1.7333 0 0 1.7333 8.5333 180.53)" d="m31.129 2c-2.9115 0.080573-5.716 0.56733-8.3594 1.4141v53.971h18.984l0.63086 0.57617v-54.141c-2.9857-1.0975-6.1984-1.7274-9.5508-1.8203h-1.7051z" fill="url(#f)"/>
    <path transform="matrix(1.7333 0 0 1.7333 8.5333 180.53)" d="m42.385 41.23v18.461h1.125c8.0608-3.3402 14.323-10.084 17.02-18.461h-18.145z" fill="url(#j)"/>
    <path transform="matrix(1.7333 0 0 1.7333 8.5333 180.53)" d="m42.385 3.8203v54.141l0.55859-0.57617h5.0215c8.4296-5.2991 14.016-14.675 14.016-25.408 0-12.957-8.1351-23.943-19.596-28.156z" fill="url(#e)"/>
    <path transform="matrix(1.7333 0 0 1.7333 8.5333 180.53)" d="m55.766 13.662a22.049 22.049 0 0 0-4.332 6.7988h3.7637a18.479 18.479 0 0 1 2.5586-3.873c-0.6063-1.0165-1.2716-1.9924-1.9902-2.9258z" fill="#1a5fb4"/>
    <path transform="matrix(1.7333 0 0 1.7333 8.5333 180.53)" d="m3.416 22.77c-0.8608 2.6887-1.3488 5.5448-1.416 8.5098v1.3945c0.067562 2.9818 0.56177 5.8546 1.4316 8.5566h19.338v-18.461h-19.354z" fill="#9a9996"/>
    <path transform="matrix(1.7333 0 0 1.7333 8.5333 180.53)" d="m22.77 3.4141c-11.873 3.8033-20.473 14.771-20.77 27.865v1.3945c0.048667 2.1479 0.31936 4.2386 0.79297 6.25h19.977v-35.51z" fill="url(#d)"/>
    <path transform="matrix(1.7333 0 0 1.7333 8.5333 180.53)" d="m22.77 10.727v3.9473c3.1385 1.4844 6.6751 2.3262 10.42 2.3262a24.399 24.399 0 0 0 9.1953-1.7852v-3.8223c-2.741 1.3673-5.8688 2.1465-9.1953 2.1465-3.8331 0-7.4026-1.0321-10.42-2.8125zm0 16.152v3.8223a18.476 18.476 0 0 1 7.957 8.2402h3.7617a22.046 22.046 0 0 0-11.719-12.062zm30.035 0.50586c-3.7448 0-7.282 0.84175-10.42 2.3262v3.9473c3.0173-1.7804 6.5863-2.8125 10.42-2.8125 3.308 0 6.4201 0.77085 9.1504 2.125 0.010684-0.33066 0.025391-0.66079 0.025391-0.99414 0-0.96564-0.05032-1.9196-0.13867-2.8613a24.399 24.399 0 0 0-9.0371-1.7305zm-0.87305 11.547a22.061 22.061 0 0 0 6.1738 7.8281c0.57808-1.0229 1.1016-2.08 1.5586-3.1738a18.483 18.483 0 0 1-3.8516-4.6543h-3.8809z" fill="#1a5fb4"/>
    <path transform="matrix(1.7333 0 0 1.7333 8.5333 180.53)" d="m4.5098 19.885c-0.084145 0.19179-0.16977 0.38228-0.25 0.57617h55.441c-0.080218-0.19386-0.16587-0.38441-0.25-0.57617h-54.941z" fill-opacity=".081"/>
   </g>
   <path d="m26.468 216a34.077 34.077 0 0 1 3.42 14.933 34.03 34.03 0 0 1-4.559 17.067h7.177a40.274 40.274 0 0 0 3.784-17.067 40.293 40.293 0 0 0-2.866-14.933zm37.916 32a40.293 40.293 0 0 0-2.864 14.933 40.274 40.274 0 0 0 3.783 17.067h7.177a34.029 34.029 0 0 1-4.56-17.067c0-5.36 1.23-10.425 3.42-14.933z" fill="#1a5fb4"/>
   <g stroke-width=".57692">
    <path transform="matrix(1.7333 0 0 1.7333 8.5333 180.53)" d="m23.346 3.2363c-0.19292 0.057521-0.38493 0.11647-0.57617 0.17773v53.971h0.57617v-54.148z" fill="#fff" fill-opacity=".555"/>
    <path transform="matrix(1.7333 0 0 1.7333 8.5333 180.53)" d="m22.77 3.4141c-0.19414 0.062191-0.38575 0.12931-0.57812 0.19531v35.314h0.57812v-35.51z" fill-opacity=".081"/>
    <path transform="matrix(1.7333 0 0 1.7333 8.5333 180.53)" d="m42.385 3.8203v54.141l0.57617-0.57617v-53.338c-0.19225-0.075245-0.38199-0.15518-0.57617-0.22656z" fill="#fff" fill-opacity=".555"/>
    <path transform="matrix(1.7333 0 0 1.7333 8.5333 180.53)" d="m41.809 3.6211v53.764l0.57617 0.57617v-54.141c-0.19041-0.069992-0.38395-0.13299-0.57617-0.19922z" fill-opacity=".081"/>
    <path transform="matrix(1.7333 0 0 1.7333 8.5333 180.53)" d="m4.2598 20.461c-0.079023 0.19097-0.15139 0.38517-0.22656 0.57812h55.896c-0.075225-0.19309-0.14944-0.38703-0.22852-0.57812h-55.441zm18.51 18.463v0.57617h38.268c0.048738-0.19009 0.087708-0.38462 0.13281-0.57617h-38.4z" fill="#fff" fill-opacity=".555"/>
    <path transform="matrix(1.7333 0 0 1.7333 8.5333 180.53)" d="m2.6602 38.346c0.041551 0.19358 0.087567 0.38598 0.13281 0.57812h58.377c0.045245-0.19215 0.091261-0.38454 0.13281-0.57812h-58.643z" fill-opacity=".081"/>
   </g>
  </g>
 </g>
</svg>
