<svg xmlns="http://www.w3.org/2000/svg" xmlns:xlink="http://www.w3.org/1999/xlink" width="64" height="64" version="1"><defs><linearGradient id="c" x1="7.937" x2="7.937" y1="15.081" y2="1.852" gradientTransform="translate(-2.286 -2.252)scale(4.0494)" gradientUnits="userSpaceOnUse"><stop offset="0" stop-color="#f1efeb"/><stop offset="1" stop-color="#fdfcfc"/></linearGradient><linearGradient xlink:href="#a" id="e" x1="58" x2="88" y1="202" y2="202" gradientTransform="translate(-33.153 -194.29)" gradientUnits="userSpaceOnUse"/><linearGradient id="a"><stop offset="0" stop-color="#77767b"/><stop offset=".733" stop-color="#9a9996"/><stop offset=".833" stop-color="#f6f5f4"/><stop offset=".933" stop-color="#adacaa"/><stop offset="1" stop-color="#77767b"/></linearGradient><linearGradient id="h" x1="-131.25" x2="-147.81" y1="188.45" y2="250.27" gradientUnits="userSpaceOnUse"><stop offset="0" stop-color="#241f31"/><stop offset="1" stop-color="#3d3846"/></linearGradient><linearGradient id="j" x1="175.59" x2="175.59" y1="822.55" y2="881.22" gradientTransform="translate(-21.041 -186.62)scale(.27273)" gradientUnits="userSpaceOnUse"><stop offset="0" stop-color="#f2f2f2"/><stop offset="1" stop-color="gray" stop-opacity=".8"/></linearGradient><filter id="i" width="1.12" height="1.12" x="-.06" y="-.06" color-interpolation-filters="sRGB"><feGaussianBlur stdDeviation="1.2"/></filter><filter id="f" width="1.294" height="1.294" x="-.147" y="-.147" color-interpolation-filters="sRGB"><feGaussianBlur stdDeviation="5.635"/></filter><filter id="b" width="1.096" height="1.096" x="-.048" y="-.048" color-interpolation-filters="sRGB"><feGaussianBlur stdDeviation="1.2"/></filter><radialGradient id="g" cx="-85.993" cy="248.08" r="46" gradientTransform="translate(116.58 -213.16)scale(1.0435)" gradientUnits="userSpaceOnUse"><stop offset="0" stop-color="#c0bfbc"/><stop offset=".874" stop-color="#deddda"/><stop offset=".917" stop-color="#b1b0ad"/><stop offset="1" stop-color="#77767b"/></radialGradient><radialGradient xlink:href="#a" id="k" cx="64" cy="210.77" r="36" gradientTransform="matrix(.76735 .00554 -.00541 .74999 -21.122 -157.72)" gradientUnits="userSpaceOnUse"/></defs><rect width="60" height="60" x="2" y="3" filter="url(#b)" opacity=".15" rx="30" ry="30"/><rect width="60" height="60" x="2" y="2" fill="url(#c)" rx="30" ry="30"/><g transform="translate(22.317 19.481)scale(.36066)"><use xlink:href="#d" width="100%" height="100%" enable-background="new" transform="matrix(-1 0 0 1 53.695 0)"/><path id="d" fill="url(#e)" d="M46.847 1.712h8v16h-8z" enable-background="new"/><circle cx="26.847" cy="49.712" r="46" enable-background="new" filter="url(#f)" opacity=".15"/><circle cx="26.847" cy="47.712" r="46" fill="url(#g)" enable-background="new"/><circle cx="26.847" cy="47.712" r="42" fill="#f6f5f4" enable-background="new"/><circle cx="47.712" cy="-26.847" r="38" fill="#241f31" enable-background="new" transform="rotate(90)"/><circle cx="-147.77" cy="219.22" r="36" fill="url(#h)" transform="scale(1 -1)rotate(-15 -1074.241 -577.445)"/><g fill-rule="evenodd"><path fill="#1a1a1a" fill-opacity=".4" d="m527.04 1123.5-24 48h48z" filter="url(#i)" transform="translate(-104.879 -254.073)scale(.24993)"/><path fill="#ed333b" d="m26.847 25.71-6 12h12z"/><path fill="#fff" fill-opacity=".373" d="m26.845 25.71-5.998 11.997h5.998z"/></g><circle cx="26.847" cy="49.712" r="12" enable-background="new" opacity=".2"/><circle cx="26.847" cy="47.712" r="12" fill="url(#j)" enable-background="new"/><circle cx="26.847" cy="-46.712" r="11" fill="#ccc" enable-background="new" transform="scale(1 -1)"/><path fill="none" stroke="#f6f5f4" stroke-width="2" d="M26.847 81.71v-6m0-56v-6m34 34h-6m-56 0h-6m9.958 24.04 4.243-4.243M46.646 27.91l4.243-4.243m0 48.083-4.243-4.243M7.048 27.91l-4.243-4.243"/><path fill="none" stroke="#fff" d="m20.214 81.06.78-3.923M32.7 18.29l.78-3.923M60.194 54.34l-3.923-.78m-58.848-11.7-3.923-.78m5.077 25.52 3.326-2.222M51.791 31.04l3.326-2.222M45.736 75.98l-2.222-3.326M10.18 22.77l-2.222-3.326m5.878 59.676 1.53-3.695M38.328 19.99l1.53-3.695M58.259 60.72l-3.695-1.53M-.869 36.23l-3.696-1.53m0 26.02 3.696-1.53m55.432-22.96 3.695-1.53m-18.4 44.42-1.53-3.695M15.366 19.99l-1.53-3.695M7.958 75.98l2.222-3.326M43.514 22.77l2.222-3.326M55.117 66.6l-3.326-2.222M1.903 31.04l-3.326-2.222M-6.5 54.34l3.923-.78m58.848-11.7 3.923-.78M33.48 81.06l-.78-3.923M20.994 18.29l-.78-3.923" opacity=".2"/><path fill="none" stroke="url(#k)" stroke-linejoin="round" stroke-width="8" d="M2.848 1.712a24 24 0 0 1 24-24 24 24 0 0 1 24 24" enable-background="new"/></g></svg>