<svg width="64" height="64" viewBox="0 0 16.933 16.933" xmlns="http://www.w3.org/2000/svg" xmlns:xlink="http://www.w3.org/1999/xlink"><defs><linearGradient id="c"><stop stop-color="#ec4520" offset="0"/><stop stop-color="#f58517" offset="1"/></linearGradient><linearGradient id="b"><stop stop-color="#548fed" offset="0"/><stop stop-color="#5ebae3" offset="1"/></linearGradient><linearGradient id="a"><stop stop-color="#8ae234" offset="0"/><stop stop-color="#47e767" offset="1"/></linearGradient><linearGradient id="e" x1="9.26" x2="9.26" y1="-.262" y2="15.612" gradientTransform="translate(-.794 .792)" gradientUnits="userSpaceOnUse"><stop stop-color="#3c3c3c" offset="0"/><stop stop-color="#505050" stop-opacity=".988" offset="1"/></linearGradient><linearGradient id="n" x1="4.933" x2="7.049" y1="4.305" y2="4.305" gradientUnits="userSpaceOnUse" xlink:href="#a"/><linearGradient id="l" x1="7.049" x2="9.166" y1="6.422" y2="6.422" gradientUnits="userSpaceOnUse" xlink:href="#a"/><linearGradient id="i" x1="11.283" x2="13.399" y1="10.655" y2="10.655" gradientUnits="userSpaceOnUse" xlink:href="#a"/><linearGradient id="p" x1="11.283" x2="13.399" y1="4.305" y2="4.305" gradientUnits="userSpaceOnUse" xlink:href="#b"/><linearGradient id="g" x1="4.933" x2="7.049" y1="10.655" y2="10.655" gradientUnits="userSpaceOnUse" xlink:href="#b"/><linearGradient id="j" x1="7.049" x2="9.166" y1="8.538" y2="8.538" gradientUnits="userSpaceOnUse" xlink:href="#b"/><linearGradient id="h" x1="9.166" x2="11.283" y1="10.655" y2="10.655" gradientUnits="userSpaceOnUse" xlink:href="#b"/><linearGradient id="m" x1="9.166" x2="11.283" y1="6.422" y2="6.422" gradientUnits="userSpaceOnUse" xlink:href="#b"/><linearGradient id="k" x1="11.283" x2="13.399" y1="8.538" y2="8.538" gradientUnits="userSpaceOnUse" xlink:href="#c"/><linearGradient id="o" x1="7.049" x2="9.166" y1="4.305" y2="4.305" gradientUnits="userSpaceOnUse" xlink:href="#c"/><filter id="d" x="-.036" y="-.036" width="1.072" height="1.072" color-interpolation-filters="sRGB"><feGaussianBlur stdDeviation=".238"/></filter><filter id="f" x="-.06" y="-.06" width="1.12" height="1.12" color-interpolation-filters="sRGB"><feGaussianBlur stdDeviation=".212"/></filter></defs><circle cx="8.466" cy="8.466" r="7.937" filter="url(#d)" opacity=".25" style="paint-order:stroke markers fill"/><circle cx="8.466" cy="8.466" r="7.937" fill="url(#e)" style="paint-order:stroke markers fill"/><g transform="translate(-.7 .987)" filter="url(#f)" opacity=".35"><path d="M5.991 9.597a1.059 1.059 0 1 0 0 2.117 1.059 1.059 0 0 0 0-2.117zM10.224 9.597a1.059 1.059 0 1 0 0 2.117 1.059 1.059 0 0 0 0-2.117z"/><path d="M12.341 9.597a1.059 1.059 0 1 0 0 2.117 1.059 1.059 0 0 0 0-2.117zM8.108 7.48a1.059 1.059 0 1 0 0 2.117 1.059 1.059 0 0 0 0-2.117z"/><path d="M12.341 7.48a1.059 1.059 0 1 0 0 2.117 1.059 1.059 0 0 0 0-2.117zM8.108 5.363a1.059 1.059 0 1 0 0 2.118 1.059 1.059 0 0 0 0-2.118z"/><path d="M10.224 5.363a1.059 1.059 0 1 0 0 2.118 1.059 1.059 0 0 0 0-2.118zM5.991 3.247a1.059 1.059 0 1 0 0 2.117 1.059 1.059 0 0 0 0-2.117z"/><path d="M8.108 3.247a1.059 1.059 0 1 0 0 2.117 1.059 1.059 0 0 0 0-2.117zM12.341 3.247a1.059 1.059 0 1 0 0 2.117 1.059 1.059 0 0 0 0-2.117z"/></g><path d="M5.991 9.597a1.059 1.059 0 1 0 0 2.117 1.059 1.059 0 0 0 0-2.117z" fill="url(#g)" transform="translate(-.7 .987)"/><path d="M10.224 9.597a1.059 1.059 0 1 0 0 2.117 1.059 1.059 0 0 0 0-2.117z" fill="url(#h)" transform="translate(-.7 .987)"/><path d="M12.341 9.597a1.059 1.059 0 1 0 0 2.117 1.059 1.059 0 0 0 0-2.117z" fill="url(#i)" transform="translate(-.7 .987)"/><path d="M8.108 7.48a1.059 1.059 0 1 0 0 2.117 1.059 1.059 0 0 0 0-2.117z" fill="url(#j)" transform="translate(-.7 .987)"/><path d="M12.341 7.48a1.059 1.059 0 1 0 0 2.117 1.059 1.059 0 0 0 0-2.117z" fill="url(#k)" transform="translate(-.7 .987)"/><path d="M8.108 5.363a1.059 1.059 0 1 0 0 2.118 1.059 1.059 0 0 0 0-2.118z" fill="url(#l)" transform="translate(-.7 .987)"/><path d="M10.224 5.363a1.059 1.059 0 1 0 0 2.118 1.059 1.059 0 0 0 0-2.118z" fill="url(#m)" transform="translate(-.7 .987)"/><path d="M5.991 3.247a1.059 1.059 0 1 0 0 2.117 1.059 1.059 0 0 0 0-2.117z" fill="url(#n)" transform="translate(-.7 .987)"/><path d="M8.108 3.247a1.059 1.059 0 1 0 0 2.117 1.059 1.059 0 0 0 0-2.117z" fill="url(#o)" transform="translate(-.7 .987)"/><path d="M12.341 3.247a1.059 1.059 0 1 0 0 2.117 1.059 1.059 0 0 0 0-2.117z" fill="url(#p)" transform="translate(-.7 .987)"/></svg>