<svg id="Flamingo" width="64" height="64" enable-background="new 0 0 1024 1024" image-rendering="optimizeSpeed" version="1.1" viewBox="0 0 64 64" xmlns="http://www.w3.org/2000/svg" xmlns:xlink="http://www.w3.org/1999/xlink">
 <defs>
  <filter id="d" x="-.036" y="-.036" width="1.072" height="1.072" color-interpolation-filters="sRGB">
   <feGaussianBlur stdDeviation="14.16"/>
  </filter>
  <clipPath id="b">
   <circle cx="8.467" cy="288.53" r="6.879" fill="#d86eb0" stroke-opacity=".039" stroke-width=".491" style="paint-order:stroke markers fill"/>
  </clipPath>
  <linearGradient id="a" x1="8.467" x2="8.467" y1="281.65" y2="295.41" gradientTransform="translate(1324.4)" gradientUnits="userSpaceOnUse">
   <stop stop-color="#ff4949" offset="0"/>
   <stop stop-color="#ff4c83" offset="1"/>
  </linearGradient>
 </defs>
 <path transform="matrix(.06356 0 0 .06356 -.54555 -.54555)" d="m966.1 378.45c-2.5-8.75-5.35-17.6-8.45-26.35-6.45-18.25-14.15-36.05-23.15-53.65-3.8-7.4-7.95-14.95-12.3-22.4-20.3-34.5-45.8-67.2-76.35-97.75-72.6-72.6-157.15-116.65-253.65-132.05-16.25-2.6-32.8-4.4-50.05-5.35-9.7-0.55-19.85-0.85-30.1-0.85-9.35 0-18.6 0.25-27.9 0.75-118.35 6.1-220.3 51.95-305.85 137.5q-138.25 138.25-138.25 333.75c0 130.35 46.1 241.65 138.25 333.8 85.55 85.5 187.5 131.35 305.85 137.5h0.4c8.5 0.45 16.6 0.7 24.5 0.7h8.45c8.55-0.1 16.8-0.4 24.65-0.8 2.5-0.15 4.75-0.3 6.95-0.45 20.2-1.45 39.9-4.05 58.7-7.7 7.95-1.55 15.8-3.3 23.4-5.15 80.8-20.3 152.15-61.6 214.65-124.1 48.6-48.6 84.4-102.5 107.35-161.8 16.6-42.9 26.55-88.65 29.75-137.45 0.35-5.2 0.6-10.6 0.8-16.05 0.2-6.05 0.3-12.25 0.3-18.5v-3c-0.2-40.65-4.95-79.5-14.3-117-1.1-4.35-2.35-9-3.65-13.6z" filter="url(#d)" opacity=".25" stroke-width="15.672"/>
 <g transform="matrix(4.3611 0 0 4.3611 -4.9254 -1226.3)">
  <g stroke-width=".86666">
   <circle cx="8.467" cy="288.53" r="6.879" fill="url(#a)" style="paint-order:stroke markers fill"/>
   <rect x="6.879" y="285.36" width="3.175" height="5.292" rx="1.587" ry="1.587" fill="#fff" style="paint-order:stroke markers fill"/>
   <path d="m6.218 288.93a0.132 0.132 0 0 0-0.133 0.133 0.132 0.132 0 0 0 2e-3 0.016 2.381 2.381 0 0 0 2.38 2.365 2.381 2.381 0 0 0 2.38-2.368 0.132 0.132 0 0 0 0-0.01 2.381 2.381 0 0 0 0-3e-3 0.132 0.132 0 0 1 0-1e-3 0.132 0.132 0 0 0-0.132-0.132 0.132 0.132 0 0 0-0.132 0.132 2.116 2.116 0 0 1-2.116 2.117 2.116 2.116 0 0 1-2.116-2.117h-2e-3a0.132 0.132 0 0 0-0.131-0.132z" fill="#fff" style="paint-order:stroke markers fill"/>
  </g>
  <g transform="translate(0 -.003)" clip-path="url(#b)" fill="none" stroke="#fff" stroke-opacity=".937" stroke-width=".1144">
   <path d="m0 287.74s2.284-0.734 3.468 1.977c0.674 1.544 1.623 2.229 2.772 2.283 1.48 0.07 2.673-1.226 3.459-2.385 1.602-2.362 4.189-1.867 6.244-0.97" opacity=".35"/>
   <path d="m0 289.11s2.786-2.65 4.365-0.149c0.722 1.143 1.576 2.867 4.049 2.709 1.478-0.095 2.956-0.71 3.718-2.15 1.388-2.617 3.338-2.528 4.165-1.394" opacity=".35"/>
   <path d="m0.732 291.07s2.337-2.2 5.24-1.353c1.297 0.379 2.937 1.847 6.056 1.504 0.824-0.09 1.522-0.563 2.183-1.464 0.957-1.305 2.015-1.371 3.385-1.112" opacity=".35"/>
  </g>
 </g>
</svg>
