<svg xmlns="http://www.w3.org/2000/svg" width="62.749" height="62.749" viewBox="0 0 16.602 16.602"><defs><filter id="b" width="1.469" height="2.213" x="-.235" y="-.607" style="color-interpolation-filters:sRGB"><feGaussianBlur stdDeviation="8.384"/></filter><filter id="c" width="1.083" height="1.215" x="-.042" y="-.108" style="color-interpolation-filters:sRGB"><feGaussianBlur stdDeviation="1.487"/></filter></defs><rect width="13.229" height="13.213" x="1.687" y="1.521" fill="#fff" opacity=".15" rx="2.646" ry="2.646"/><rect width="15.875" height="15.875" x=".364" y=".364" fill="url(#a)" rx="7.937" ry="7.937" style="fill:#f2f2f2;fill-opacity:1;stroke-width:.28347"/><path d="M240.2 872.2q10.44 10.32 10.44 25.2 0 14.52-10.38 24.9t-24.78 10.38c-6.735 0-12.8-1.638-18.21-4.914l-12.59 12.59q11.751 13.37 11.75 31.88c0 13.3-4.753 24.7-14.26 34.21q-14.257 14.26-34.04 14.26c-13.41 0-24.89-4.726-34.46-14.18q-14.341-14.176-14.34-34.29c0-13.41 4.615-24.89 13.85-34.46q13.846-14.341 33.96-14.34c11.89 0 22.22 3.541 30.98 10.62l11.99-11.99q-10.158-10.236-10.16-24.68 0-14.641 10.08-25.08a39 39 0 0 1 1.912-1.848l-12.26-12.26q-7.987 7.59-18.92 7.59c-7.687 0-14.27-2.71-19.76-8.129q-8.224-8.127-8.224-19.66c0-7.688 2.647-14.27 7.941-19.76 5.294-5.483 11.78-8.224 19.47-8.224q11.818 0 20.04 8.13c5.481 5.419 8.223 12.04 8.223 19.85q0 8.02-4.02 14.44l13.61 13.61c4.96-2.787 10.53-4.181 16.7-4.181q15 0 25.44 10.32zm-79.43-49.88q-6.523 0-10.96 4.631-4.443 4.632-4.443 11.06 0 6.616 4.349 11.06 4.348 4.442 11.06 4.442 6.333 0 10.73-4.584 4.395-4.585 4.395-10.92 0-3.12-1.134-5.956t-3.214-4.916q-2.08-2.174-4.963-3.497t-5.814-1.323zm-12.64 122.6q-11.378 0-19.12 8.077c-5.166 5.386-7.749 11.82-7.749 19.29q0 11.536 7.584 19.29c5.055 5.165 11.49 7.748 19.29 7.748q11.045 0 18.71-7.996c5.11-5.329 7.666-11.68 7.666-19.04q0-5.44-1.979-10.39-1.978-4.946-5.605-8.573-3.627-3.792-8.656-6.1-5.026-2.308-10.14-2.308zm67.35-67.4q-8.281 0-13.92 5.88-5.641 5.882-5.641 14.04 0 8.4 5.521 14.04 5.522 5.64 14.04 5.64 8.04 0 13.62-5.821t5.581-13.86q0-3.961-1.44-7.561t-4.08-6.241q-2.641-2.761-6.301-4.441t-7.381-1.68zM111.4 798.3c9.033-15.95 27.75-26.92 49.38-26.92 21.55 0 40.22 10.89 49.29 26.76l11-11.29c-12.34-18.51-34.73-30.89-60.3-30.89-25.75 0-48.28 12.56-60.56 31.29l11.18 11.04z" class="fil3" style="mix-blend-mode:normal;fill:#ff6905;fill-rule:evenodd;filter:url(#b)" transform="translate(.5 -34.984)scale(.04856)"/><path d="M160.6 782.9c-18.84 0-35.13 8.905-42.89 21.84l11.15 11.02c4.296-10.04 16.88-17.3 31.74-17.3 15 0 27.69 7.414 31.86 17.61l11.03-11.32c-7.6-12.9-23.9-21.8-42.8-21.8z" class="fil3" style="mix-blend-mode:normal;fill:#ff6905;fill-rule:evenodd;filter:url(#b)" transform="translate(.5 -34.984)scale(.04856)"/><path d="M240.2 872.2q10.44 10.32 10.44 25.2 0 14.52-10.38 24.9t-24.78 10.38c-6.735 0-12.8-1.638-18.21-4.914l-12.59 12.59q11.751 13.37 11.75 31.88c0 13.3-4.753 24.7-14.26 34.21q-14.257 14.26-34.04 14.26c-13.41 0-24.89-4.726-34.46-14.18q-14.341-14.176-14.34-34.29c0-13.41 4.615-24.89 13.85-34.46q13.846-14.341 33.96-14.34c11.89 0 22.22 3.541 30.98 10.62l11.99-11.99q-10.158-10.236-10.16-24.68 0-14.641 10.08-25.08a39 39 0 0 1 1.912-1.848l-12.26-12.26q-7.987 7.59-18.92 7.59c-7.687 0-14.27-2.71-19.76-8.129q-8.224-8.127-8.224-19.66c0-7.688 2.647-14.27 7.941-19.76 5.294-5.483 11.78-8.224 19.47-8.224q11.818 0 20.04 8.13c5.481 5.419 8.223 12.04 8.223 19.85q0 8.02-4.02 14.44l13.61 13.61c4.96-2.787 10.53-4.181 16.7-4.181q15 0 25.44 10.32zm-79.43-49.88q-6.523 0-10.96 4.631-4.443 4.632-4.443 11.06 0 6.616 4.349 11.06 4.348 4.442 11.06 4.442 6.333 0 10.73-4.584 4.395-4.585 4.395-10.92 0-3.12-1.134-5.956t-3.214-4.916q-2.08-2.174-4.963-3.497t-5.814-1.323zm-12.64 122.6q-11.378 0-19.12 8.077c-5.166 5.386-7.749 11.82-7.749 19.29q0 11.536 7.584 19.29c5.055 5.165 11.49 7.748 19.29 7.748q11.045 0 18.71-7.996c5.11-5.329 7.666-11.68 7.666-19.04q0-5.44-1.979-10.39-1.978-4.946-5.605-8.573-3.627-3.792-8.656-6.1-5.026-2.308-10.14-2.308zm67.35-67.4q-8.281 0-13.92 5.88-5.641 5.882-5.641 14.04 0 8.4 5.521 14.04 5.522 5.64 14.04 5.64 8.04 0 13.62-5.821t5.581-13.86q0-3.961-1.44-7.561t-4.08-6.241q-2.641-2.761-6.301-4.441t-7.381-1.68zM111.4 798.3c9.033-15.95 27.75-26.92 49.38-26.92 21.55 0 40.22 10.89 49.29 26.76l11-11.29c-12.34-18.51-34.73-30.89-60.3-30.89-25.75 0-48.28 12.56-60.56 31.29l11.18 11.04z" class="fil3" style="fill:#fff;fill-opacity:1;fill-rule:evenodd;filter:url(#c)" transform="translate(.227 -34.794)scale(.04856)"/><path d="M160.6 782.9c-18.84 0-35.13 8.905-42.89 21.84l11.15 11.02c4.296-10.04 16.88-17.3 31.74-17.3 15 0 27.69 7.414 31.86 17.61l11.03-11.32c-7.6-12.9-23.9-21.8-42.8-21.8z" class="fil3" style="fill:#fff;fill-opacity:1;fill-rule:evenodd;filter:url(#c)" transform="translate(.227 -34.794)scale(.04856)"/><path d="M11.507 7.344q.507.501.507 1.224 0 .705-.504 1.209t-1.203.504q-.49 0-.885-.239l-.61.612q.57.649.57 1.548 0 .97-.693 1.661-.692.692-1.653.692-.976 0-1.673-.688t-.697-1.665.673-1.674q.672-.696 1.65-.696.865 0 1.504.516l.582-.582q-.494-.498-.494-1.199 0-.71.49-1.218a2 2 0 0 1 .093-.09l-.596-.595q-.387.369-.918.369-.56 0-.96-.395t-.4-.955.386-.96.946-.399q.574 0 .973.395.4.395.4.964 0 .39-.196.701l.66.661q.362-.203.812-.203.728 0 1.235.501zM7.65 4.922q-.317 0-.532.225t-.216.537q0 .321.211.537t.537.216q.308 0 .521-.223t.214-.53q0-.152-.055-.29t-.156-.238q-.101-.106-.241-.17t-.283-.064m-.614 5.953q-.552 0-.928.393-.377.392-.377.936 0 .56.369.937.368.376.936.376.537 0 .909-.388a1.3 1.3 0 0 0 .372-.925q0-.264-.096-.504t-.272-.416q-.176-.185-.42-.297t-.493-.112m3.27-3.273q-.401 0-.675.286t-.274.682q0 .408.268.681t.682.274q.39 0 .661-.282.271-.283.271-.673 0-.193-.07-.368-.07-.174-.198-.303-.128-.134-.306-.215-.178-.082-.358-.082ZM5.254 3.755C5.69 2.981 6.6 2.448 7.65 2.448c1.047 0 1.954.529 2.394 1.3l.534-.549c-.6-.898-1.686-1.5-2.928-1.5-1.25 0-2.344.61-2.94 1.52z" class="fil3" style="fill:#ff6905;fill-rule:evenodd;stroke-width:.04856"/><path d="M7.642 3.008c-.915 0-1.706.432-2.083 1.06l.541.535c.21-.487.82-.84 1.542-.84.728 0 1.344.36 1.547.855l.535-.55c-.369-.626-1.16-1.058-2.078-1.058Z" class="fil3" style="fill:#ff6905;fill-rule:evenodd;stroke-width:.04856"/></svg>