<svg width="64" height="64" xmlns="http://www.w3.org/2000/svg"><defs><linearGradient id="b" x1="511.51" x2="515.31" y1="983.01" y2="41.047" gradientTransform="translate(-28.075 -3.416) scale(.14406)" gradientUnits="userSpaceOnUse"><stop stop-color="#666" offset="0"/><stop stop-color="#4d4d4d" offset=".6"/><stop stop-color="#333" offset="1"/></linearGradient><linearGradient id="d" x1="417" x2="417" y1="51.538" y2="573.98" gradientTransform="translate(-26.366 -2.41) scale(.13997)" gradientUnits="userSpaceOnUse"><stop stop-color="#f3f3f3" offset="0"/><stop stop-color="#b7b7b7" offset="1"/></linearGradient><radialGradient id="c" cx="118.51" cy="31.729" r="30" gradientTransform="translate(-86.51 .27)" gradientUnits="userSpaceOnUse"><stop stop-opacity="0" offset="0"/><stop stop-opacity=".15" offset=".84"/><stop stop-opacity=".35" offset="1"/></radialGradient><filter id="a" x="-.031" y="-.031" width="1.061" height="1.061" color-interpolation-filters="sRGB"><feGaussianBlur stdDeviation=".768"/></filter></defs><rect x="2" y="2" width="60" height="60" rx="30" ry="30" filter="url(#a)" opacity=".15"/><path class="shp36" d="M32 62c16.568 0 30-13.432 30-30S48.568 2 32 2 2 15.432 2 32s13.432 30 30 30z" fill="url(#b)"/><path class="shp36" d="M32 62c16.568 0 30-13.432 30-30S48.568 2 32 2 2 15.432 2 32s13.432 30 30 30z" fill="url(#c)"/><path d="m32.706 31.99 15.558 15.558-.71.707-15.558-15.558z" fill="#5fd37d"/><path d="M31.995 14.998A1.002 1.002 0 0 0 30.993 16a1.002 1.002 0 0 0 .004.07v15.916a1.002 1.002 0 0 0 1.002.99A1.002 1.002 0 0 0 33 31.976a1.002 1.002 0 0 0-.004-.07V16a1.002 1.002 0 0 0 0-.012 1.002 1.002 0 0 0-1.002-.99z" fill="#fff"/><path class="shp38" d="m34.673 4.804-.21 2.072m5.46-1.029-.602 1.993m5.564.062-1.002 1.825m5.452 1.15-1.333 1.6m5.119 2.183-1.614 1.315m4.588 3.134-1.835.984m3.891 3.978-1.999.58m3.043 4.67-2.073.19m2.073 5.163-2.071-.21m1.028 5.46-1.993-.602m-.061 5.564-1.825-1.003m-1.15 5.452-1.6-1.332M49.34 53.12l-1.316-1.614m-3.135 4.59-.984-1.835m-3.976 3.89-.581-1.998m-4.67 3.041-.189-2.072m-5.163 2.074.21-2.072m-5.46 1.03.602-1.994m-5.564-.062 1.002-1.825m-5.452-1.149 1.333-1.6m-5.119-2.185 1.614-1.316M7.904 44.89l1.835-.984m-3.886-3.96 1.99-.616m-3.04-4.651 2.073-.189m-2.072-5.163 2.071.21m-1.029-5.46 1.993.601m.062-5.563 1.825 1.002m1.15-5.453 1.6 1.332m2.183-5.117 1.316 1.614m3.135-4.588.984 1.835m3.976-3.892.581 2m4.67-3.044.189 2.073" fill="none" stroke="url(#d)" stroke-linecap="round" stroke-width=".6"/></svg>