<svg xmlns="http://www.w3.org/2000/svg" width="64" height="64" viewBox="0 0 16.933 16.933"><defs><filter id="a" width="1.072" height="1.072" x="-.036" y="-.036" color-interpolation-filters="sRGB"><feGaussianBlur stdDeviation=".214"/></filter><filter id="c" width="1.097" height="1.157" x="-.048" y="-.079" color-interpolation-filters="sRGB"><feGaussianBlur stdDeviation=".19"/></filter><linearGradient id="b" x1="8.466" x2="8.466" y1=".529" y2="16.404" gradientUnits="userSpaceOnUse"><stop offset="0" stop-color="#f0236a"/><stop offset="1" stop-color="#f95e2f"/></linearGradient></defs><circle cx="8.466" cy="288.53" r="7.144" filter="url(#a)" opacity=".15" style="paint-order:stroke markers fill" transform="translate(-.94 -312.12)scale(1.1111)"/><circle cx="8.466" cy="8.466" r="7.937" fill="url(#b)" style="paint-order:stroke markers fill"/><path d="M6.146 11.337a3 3 0 0 1-.746-.242c-1.455-.697-2.05-2.452-1.333-3.931.818-1.691 3.052-2.123 4.396-.848.389.367.56.681 1.146 2.072.611 1.456.725 1.684.923 1.878.21.207.408.275.784.275.619 0 1.06-.38 1.06-.914 0-.45-.159-.594-.967-.882C10.177 8.3 9.78 7.9 9.776 7.094c0-.43.11-.717.387-1.014.397-.424 1.083-.564 1.689-.353.26.091.8.571.8.708 0 .067-.313.27-.487.318-.092.024-.171-.007-.278-.11-.214-.205-.36-.27-.618-.27-.443 0-.719.269-.719.7s.176.575 1.052.87c1.205.407 1.56.775 1.568 1.626.007.735-.323 1.265-.982 1.578-.3.142-.402.16-.89.16-.7-.001-1.013-.13-1.404-.571-.263-.297-.53-.853-1.386-2.887-.355-.842-.81-1.255-1.569-1.417a2.1 2.1 0 0 0-1.27.177c-.34.178-.72.58-.9.947-.149.299-.163.382-.163.9 0 .496.02.612.144.883.19.416.558.798.966 1.005.294.147.386.166.856.166.45 0 .566-.022.835-.149.307-.15.719-.517.888-.793l.088-.143.172.394c.097.218.173.422.173.46 0 .11-.389.465-.748.687a2.72 2.72 0 0 1-1.832.37" filter="url(#c)" opacity=".25"/><path fill="#fff" d="M6.146 11.337a3 3 0 0 1-.746-.242c-1.455-.697-2.05-2.452-1.333-3.931.818-1.691 3.052-2.123 4.396-.848.389.367.56.681 1.146 2.072.611 1.456.725 1.684.923 1.878.21.207.408.275.784.275.619 0 1.06-.38 1.06-.914 0-.45-.159-.594-.967-.882C10.177 8.3 9.78 7.9 9.776 7.094c0-.43.11-.717.387-1.014.397-.424 1.083-.564 1.689-.353.26.091.8.571.8.708 0 .067-.313.27-.487.318-.092.024-.171-.007-.278-.11-.214-.205-.36-.27-.618-.27-.443 0-.719.269-.719.7s.176.575 1.052.87c1.205.407 1.56.775 1.568 1.626.007.735-.323 1.265-.982 1.578-.3.142-.402.16-.89.16-.7-.001-1.013-.13-1.404-.571-.263-.297-.53-.853-1.386-2.887-.355-.842-.81-1.255-1.569-1.417a2.1 2.1 0 0 0-1.27.177c-.34.178-.72.58-.9.947-.149.299-.163.382-.163.9 0 .496.02.612.144.883.19.416.558.798.966 1.005.294.147.386.166.856.166.45 0 .566-.022.835-.149.307-.15.719-.517.888-.793l.088-.143.172.394c.097.218.173.422.173.46 0 .11-.389.465-.748.687a2.72 2.72 0 0 1-1.832.37"/></svg>