<svg width="64" height="64" version="1.1" viewBox="0 0 16.933 16.933" xmlns="http://www.w3.org/2000/svg" xmlns:xlink="http://www.w3.org/1999/xlink">
 <defs>
  <filter id="c" x="-.036" y="-.036" width="1.072" height="1.072" color-interpolation-filters="sRGB">
   <feGaussianBlur stdDeviation="0.20637001"/>
  </filter>
  <linearGradient id="a" x1="8.467" x2="8.467" y1="281.65" y2="295.41" gradientTransform="matrix(1.1538 0 0 1.1539 -1.3019 -324.45)" gradientUnits="userSpaceOnUse">
   <stop stop-color="#f12755" offset="0"/>
   <stop stop-color="#dc3710" offset="1"/>
  </linearGradient>
  <filter id="b" x="-.034617" y="-.037498" width="1.0692" height="1.075" color-interpolation-filters="sRGB">
   <feGaussianBlur stdDeviation="0.13656277"/>
  </filter>
 </defs>
 <circle transform="matrix(1.1538 0 0 1.1539 -1.3019 -324.45)" cx="8.467" cy="288.53" r="6.879" filter="url(#c)" opacity=".15" stroke-width=".92739" style="paint-order:stroke markers fill"/>
 <g stroke-width="1.07">
  <ellipse cx="8.4671" cy="8.4665" rx="7.9368" ry="7.9373" fill="url(#a)" style="paint-order:stroke markers fill"/>
  <path d="m9.4928 4.1049a0.51343 0.51346 0 0 0-0.27921 0.075l-5.9246 3.4558-2.4737-1.2358a7.9379 7.9385 0 0 0-0.20999 1.0442l2.4737 1.2358a0.51343 0.51346 0 0 0 0.48689-0.015l6.1657-3.5977a0.51343 0.51346 0 0 0-0.23883-0.96116zm0 2.0562a0.51343 0.51346 0 0 0-0.27921 0.073846l-5.9246 3.4569-2.7517-1.3754a7.9379 7.9385 0 0 0-0.008076 0.15808 7.9379 7.9385 0 0 0 0.076149 1.0246l2.4737 1.2358a0.51343 0.51346 0 0 0 0.48689-0.015l6.1657-3.5977a0.51343 0.51346 0 0 0-0.23883-0.96116zm0 2.055a0.51343 0.51346 0 0 0-0.27921 0.073846l-5.9234 3.4581-2.4921-1.2462a7.9379 7.9385 0 0 0 0.52266 1.41l1.7595 0.87923a0.51343 0.51346 0 0 0 0.48689-0.015l6.1657-3.5966a0.51343 0.51346 0 0 0-0.23883-0.96231z" fill-rule="evenodd" filter="url(#b)" opacity=".15"/>
  <path d="m9.4928 4.1049a0.51343 0.51346 0 0 0-0.27921 0.075l-5.9246 3.4558-2.4737-1.2358a7.9379 7.9385 0 0 0-0.20999 1.0442l2.4737 1.2358a0.51343 0.51346 0 0 0 0.48689-0.015l6.1657-3.5977a0.51343 0.51346 0 0 0-0.23883-0.96116zm0 2.0562a0.51343 0.51346 0 0 0-0.27921 0.073846l-5.9246 3.4569-2.7517-1.3754a7.9379 7.9385 0 0 0-0.008076 0.15808 7.9379 7.9385 0 0 0 0.076149 1.0246l2.4737 1.2358a0.51343 0.51346 0 0 0 0.48689-0.015l6.1657-3.5977a0.51343 0.51346 0 0 0-0.23883-0.96116zm0 2.055a0.51343 0.51346 0 0 0-0.27921 0.073846l-5.9234 3.4581-2.4921-1.2462a7.9379 7.9385 0 0 0 0.52266 1.41l1.7595 0.87923a0.51343 0.51346 0 0 0 0.48689-0.015l6.1657-3.5966a0.51343 0.51346 0 0 0-0.23883-0.96231z" fill="#fff" fill-rule="evenodd"/>
 </g>
</svg>
