<svg width="64" height="64" version="1.1" viewBox="0 0 16.933 16.933" xmlns="http://www.w3.org/2000/svg" xmlns:xlink="http://www.w3.org/1999/xlink">
 <defs>
  <filter id="c" x="-.036" y="-.036" width="1.072" height="1.072" color-interpolation-filters="sRGB">
   <feGaussianBlur stdDeviation="0.214308"/>
  </filter>
  <filter id="b" x="-.048466" y="-.078737" width="1.0969" height="1.1575" color-interpolation-filters="sRGB">
   <feGaussianBlur stdDeviation="0.1899708"/>
  </filter>
  <linearGradient id="a" x1="8.4665" x2="8.4665" y1=".52915" y2="16.404" gradientUnits="userSpaceOnUse">
   <stop stop-color="#f0236a" offset="0"/>
   <stop stop-color="#f95e2f" offset="1"/>
  </linearGradient>
 </defs>
 <circle transform="matrix(1.1111 0 0 1.1111 -.94074 -312.12)" cx="8.4665" cy="288.53" r="7.1436" filter="url(#c)" opacity=".15" style="paint-order:stroke markers fill"/>
 <circle cx="8.4665" cy="8.4665" r="7.9373" fill="url(#a)" stroke-width="1.1111" style="paint-order:stroke markers fill"/>
 <path d="m6.1459 11.337a3.0333 3.0333 0 0 1-0.74556-0.24222c-1.4556-0.69667-2.05-2.4522-1.3333-3.9311 0.81778-1.6911 3.0522-2.1222 4.3956-0.84778 0.38889 0.36667 0.56111 0.68111 1.1467 2.0722 0.61111 1.4556 0.72444 1.6844 0.92222 1.8778 0.21111 0.20667 0.40889 0.27556 0.78445 0.27556 0.61889 0 1.06-0.38111 1.06-0.91445 0-0.45-0.15889-0.59445-0.96667-0.88222-1.2322-0.44444-1.6311-0.84445-1.6333-1.6511 0-0.43 0.11-0.71667 0.38667-1.0133 0.39778-0.42444 1.0833-0.56445 1.6889-0.35333 0.26 0.091111 0.80111 0.57111 0.80111 0.70778 0 0.066667-0.31333 0.27-0.48778 0.31778-0.09222 0.024445-0.17111-0.00667-0.27778-0.10889-0.21444-0.20556-0.36-0.27-0.61778-0.27-0.44333 0-0.71889 0.26778-0.71889 0.69889 0 0.43 0.17556 0.57556 1.0511 0.87111 1.2056 0.40667 1.5611 0.77445 1.5689 1.6256 0.0067 0.73445-0.32333 1.2644-0.98222 1.5778-0.3 0.14222-0.40222 0.16-0.89 0.16-0.7-0.0011-1.0133-0.13-1.4044-0.57111-0.26333-0.29667-0.53-0.85333-1.3856-2.8867-0.35556-0.84222-0.81111-1.2556-1.5689-1.4178a2.0922 2.0922 0 0 0-1.27 0.17778c-0.34 0.17778-0.72111 0.58-0.9 0.94667-0.14889 0.29889-0.16333 0.38222-0.16333 0.9 0 0.49556 0.02 0.61222 0.14444 0.88333 0.18889 0.41556 0.55778 0.79778 0.96556 1.0044 0.29444 0.14778 0.38556 0.16667 0.85556 0.16667 0.45 0 0.56667-0.02222 0.83556-0.14889 0.30667-0.15 0.71889-0.51778 0.88778-0.79333l0.087778-0.14333 0.17222 0.39444c0.096667 0.21778 0.17333 0.42222 0.17333 0.46 0 0.10889-0.38889 0.46444-0.74778 0.68667a2.72 2.72 0 0 1-1.8322 0.37" filter="url(#b)" opacity=".25" stroke-width=".41667"/>
 <path d="m6.1459 11.337a3.0333 3.0333 0 0 1-0.74556-0.24222c-1.4556-0.69667-2.05-2.4522-1.3333-3.9311 0.81778-1.6911 3.0522-2.1222 4.3956-0.84778 0.38889 0.36667 0.56111 0.68111 1.1467 2.0722 0.61111 1.4556 0.72444 1.6844 0.92222 1.8778 0.21111 0.20667 0.40889 0.27556 0.78445 0.27556 0.61889 0 1.06-0.38111 1.06-0.91445 0-0.45-0.15889-0.59445-0.96667-0.88222-1.2322-0.44444-1.6311-0.84445-1.6333-1.6511 0-0.43 0.11-0.71667 0.38667-1.0133 0.39778-0.42444 1.0833-0.56445 1.6889-0.35333 0.26 0.091111 0.80111 0.57111 0.80111 0.70778 0 0.066667-0.31333 0.27-0.48778 0.31778-0.09222 0.024445-0.17111-0.00667-0.27778-0.10889-0.21444-0.20556-0.36-0.27-0.61778-0.27-0.44333 0-0.71889 0.26778-0.71889 0.69889 0 0.43 0.17556 0.57556 1.0511 0.87111 1.2056 0.40667 1.5611 0.77445 1.5689 1.6256 0.0067 0.73445-0.32333 1.2644-0.98222 1.5778-0.3 0.14222-0.40222 0.16-0.89 0.16-0.7-0.0011-1.0133-0.13-1.4044-0.57111-0.26333-0.29667-0.53-0.85333-1.3856-2.8867-0.35556-0.84222-0.81111-1.2556-1.5689-1.4178a2.0922 2.0922 0 0 0-1.27 0.17778c-0.34 0.17778-0.72111 0.58-0.9 0.94667-0.14889 0.29889-0.16333 0.38222-0.16333 0.9 0 0.49556 0.02 0.61222 0.14444 0.88333 0.18889 0.41556 0.55778 0.79778 0.96556 1.0044 0.29444 0.14778 0.38556 0.16667 0.85556 0.16667 0.45 0 0.56667-0.02222 0.83556-0.14889 0.30667-0.15 0.71889-0.51778 0.88778-0.79333l0.087778-0.14333 0.17222 0.39444c0.096667 0.21778 0.17333 0.42222 0.17333 0.46 0 0.10889-0.38889 0.46444-0.74778 0.68667a2.72 2.72 0 0 1-1.8322 0.37" fill="#fff" stroke-width=".41667"/>
</svg>
