<svg width="64" height="64" version="1.1" viewBox="0 0 16.933 16.933" xmlns="http://www.w3.org/2000/svg" xmlns:xlink="http://www.w3.org/1999/xlink">
 <defs>
  <linearGradient id="a" x1="8.3931" x2="8.4385" y1="1.7188" y2="13.844" gradientUnits="userSpaceOnUse">
   <stop stop-color="#f9f9f9" offset="0"/>
   <stop stop-color="#fff" offset="1"/>
  </linearGradient>
  <filter id="c" x="-.036" y="-.036" width="1.072" height="1.072" color-interpolation-filters="sRGB">
   <feGaussianBlur stdDeviation="0.23812031"/>
  </filter>
  <filter id="b" x="-.059997" y="-.060003" width="1.12" height="1.12" color-interpolation-filters="sRGB">
   <feGaussianBlur stdDeviation="0.18521029"/>
  </filter>
 </defs>
 <circle cx="8.4665" cy="8.4665" r="7.9373" filter="url(#c)" opacity=".15" stroke-width="1.1111" style="paint-order:stroke markers fill"/>
 <circle cx="8.4665" cy="8.4665" r="7.9373" fill="url(#a)" stroke-width="1.1111" style="paint-order:stroke markers fill"/>
 <g transform="matrix(1.1428 0 0 1.1429 -1.2088 -321.3)" filter="url(#b)" opacity=".15" stroke-width=".429">
  <path d="m5.663 286.12c-0.355 0.409-0.629 0.9-0.778 1.456-0.077 0.29-0.116 0.582-0.121 0.87a3.619 3.619 0 0 0 0.898 2.503l0.761-1.024a2.433 2.433 0 0 1-0.425-1.28c-1e-3 -0.039-3e-3 -0.077-3e-3 -0.116l2e-3 -0.068c6e-3 -0.187 0.03-0.376 0.081-0.565 0.074-0.277 0.194-0.529 0.345-0.752l-0.76-1.024" style="isolation:auto;mix-blend-mode:normal;white-space:normal"/>
  <path d="m6.133 289.35-1 0.791a3.717 3.717 0 0 0 3.33 2.097c0.298 0 0.586-0.039 0.863-0.106l0.02-4e-3a3.96 3.96 0 0 0 0.359-0.107l0.014-4e-3 2e-3 -1e-3a3.663 3.663 0 0 0 1.798-1.401l-1.186-0.47c-0.173 0.2-0.381 0.377-0.624 0.519l-0.022 0.013a2.395 2.395 0 0 1-0.564 0.235l-0.016 4e-3a2.485 2.485 0 0 1-0.645 0.086 2.458 2.458 0 0 1-2.33-1.652" style="isolation:auto;mix-blend-mode:normal;white-space:normal"/>
  <path d="m8.466 287.92v1.234h2.392a2.457 2.457 0 0 1-1.061 1.465l1 0.791a3.7 3.7 0 0 0 1.374-2.873c0-0.21-0.022-0.416-0.056-0.617h-3.648z" style="isolation:auto;mix-blend-mode:normal;white-space:normal"/>
  <path d="m8.463 284.83a3.71 3.71 0 0 0-3.33 2.096l1 0.792a2.458 2.458 0 0 1 2.33-1.654c0.633 0 1.206 0.236 1.641 0.624l0.868-0.868a3.685 3.685 0 0 0-2.509-0.99" style="isolation:auto;mix-blend-mode:normal;white-space:normal"/>
 </g>
 <g transform="matrix(1.1428 0 0 1.1429 -1.2088 -321.3)" stroke-width=".429">
  <path d="m5.663 286.12c-0.355 0.409-0.629 0.9-0.778 1.456-0.077 0.29-0.116 0.582-0.121 0.87a3.619 3.619 0 0 0 0.898 2.503l0.761-1.024a2.433 2.433 0 0 1-0.425-1.28c-1e-3 -0.039-3e-3 -0.077-3e-3 -0.116l2e-3 -0.068c6e-3 -0.187 0.03-0.376 0.081-0.565 0.074-0.277 0.194-0.529 0.345-0.752l-0.76-1.024" fill="#fbbc05" style="isolation:auto;mix-blend-mode:normal;white-space:normal"/>
  <path d="m6.133 289.35-1 0.791a3.717 3.717 0 0 0 3.33 2.097c0.298 0 0.586-0.039 0.863-0.106l0.02-4e-3a3.96 3.96 0 0 0 0.359-0.107l0.014-4e-3 2e-3 -1e-3a3.663 3.663 0 0 0 1.798-1.401l-1.186-0.47c-0.173 0.2-0.381 0.377-0.624 0.519l-0.022 0.013a2.395 2.395 0 0 1-0.564 0.235l-0.016 4e-3a2.485 2.485 0 0 1-0.645 0.086 2.458 2.458 0 0 1-2.33-1.652" fill="#34a853" style="isolation:auto;mix-blend-mode:normal;white-space:normal"/>
  <path d="m8.466 287.92v1.234h2.392a2.457 2.457 0 0 1-1.061 1.465l1 0.791a3.7 3.7 0 0 0 1.374-2.873c0-0.21-0.022-0.416-0.056-0.617h-3.648z" fill="#4285f4" style="isolation:auto;mix-blend-mode:normal;white-space:normal"/>
  <path d="m8.463 284.83a3.71 3.71 0 0 0-3.33 2.096l1 0.792a2.458 2.458 0 0 1 2.33-1.654c0.633 0 1.206 0.236 1.641 0.624l0.868-0.868a3.685 3.685 0 0 0-2.509-0.99" fill="#ea4335" style="isolation:auto;mix-blend-mode:normal;white-space:normal"/>
 </g>
</svg>
