<svg xmlns="http://www.w3.org/2000/svg" xmlns:xlink="http://www.w3.org/1999/xlink" width="64" height="64"><defs><linearGradient id="b" x1="-39.605" x2="-39.605" y1="58.247" y2="6.988" gradientTransform="translate(70.543 .42)" gradientUnits="userSpaceOnUse"><stop offset="0" stop-color="#6e95e3"/><stop offset="1" stop-color="#223459"/></linearGradient><filter id="a" width="1.078" height="1.078" x="-.039" y="-.039" color-interpolation-filters="sRGB"><feGaussianBlur stdDeviation=".972"/></filter></defs><circle cx="32" cy="32" r="30" filter="url(#a)" opacity=".15" style="isolation:isolate;paint-order:stroke fill markers"/><circle cx="32" cy="32" r="30" fill="url(#b)" style="isolation:isolate;paint-order:stroke fill markers"/><g transform="matrix(2 0 0 2 .04 -1.114)"><path d="M10.961 15.052c-3.589 0-6.531 2.942-6.531 6.531 0 3.59 2.942 6.531 6.531 6.531 3.59 0 6.531-2.942 6.531-6.53v-6.532zm0 3h3.531v3.531c0 1.966-1.565 3.531-3.531 3.531S7.43 23.55 7.43 21.584a3.51 3.51 0 0 1 3.531-3.532" color="#000" opacity=".35" style="font-feature-settings:normal;font-variant-alternates:normal;font-variant-caps:normal;font-variant-east-asian:normal;font-variant-ligatures:normal;font-variant-numeric:normal;font-variant-position:normal;font-variation-settings:normal;inline-size:0;isolation:auto;mix-blend-mode:normal;shape-margin:0;shape-padding:0;text-decoration-color:#000;text-decoration-line:none;text-decoration-style:solid;text-indent:0;text-orientation:mixed;text-transform:none;white-space:normal"/><path d="M21 5c-3.59 0-6.533 2.942-6.533 6.531v6.531H21c3.589 0 6.531-2.942 6.531-6.53C27.531 7.941 24.59 5 21 5m0 3a3.51 3.51 0 0 1 3.531 3.531A3.51 3.51 0 0 1 21 15.062h-3.533v-3.53A3.513 3.513 0 0 1 21 8" color="#000" opacity=".35" style="font-feature-settings:normal;font-variant-alternates:normal;font-variant-caps:normal;font-variant-east-asian:normal;font-variant-ligatures:normal;font-variant-numeric:normal;font-variant-position:normal;font-variation-settings:normal;inline-size:0;isolation:auto;mix-blend-mode:normal;shape-margin:0;shape-padding:0;text-decoration-color:#000;text-decoration-line:none;text-decoration-style:solid;text-indent:0;text-orientation:mixed;text-transform:none;white-space:normal"/><path id="c" fill="#fff" stroke-width=".105" d="M17.531 15.02v6.556a6.57 6.57 0 0 1-6.57 6.571c-.551 0-.943-.062-1.452-.195-.743-.195-1.35-.804-1.35-1.513 0-.856.621-1.48 1.55-1.48.443 0 .603.085 1.251.085a3.47 3.47 0 0 0 3.469-3.462v-3.014a.49.49 0 0 0-.49-.489H11.66a1.526 1.526 0 0 1-1.535-1.528c0-.857.693-1.531 1.552-1.531" shape-rendering="auto"/><use xlink:href="#c" width="1" height="1" fill="#fff" transform="rotate(180 15.98 16.557)"/></g></svg>