<svg xmlns="http://www.w3.org/2000/svg" width="64" height="64" viewBox="0 0 16.933 16.933"><defs><filter id="a" width="1.072" height="1.072" x="-.036" y="-.036" color-interpolation-filters="sRGB"><feGaussianBlur stdDeviation=".206"/></filter><filter id="c" width="1.069" height="1.075" x="-.035" y="-.037" color-interpolation-filters="sRGB"><feGaussianBlur stdDeviation=".137"/></filter><linearGradient id="b" x1="8.467" x2="8.467" y1="281.65" y2="295.41" gradientTransform="matrix(1.1538 0 0 1.1539 -1.302 -324.45)" gradientUnits="userSpaceOnUse"><stop offset="0" stop-color="#f12755"/><stop offset="1" stop-color="#dc3710"/></linearGradient></defs><circle cx="8.467" cy="288.53" r="6.879" filter="url(#a)" opacity=".15" style="paint-order:stroke markers fill" transform="matrix(1.1538 0 0 1.1539 -1.302 -324.45)"/><g stroke-width="1.07"><circle cx="8.467" cy="8.466" r="7.937" fill="url(#b)" style="paint-order:stroke markers fill"/><path fill-rule="evenodd" d="M9.493 4.105a.513.513 0 0 0-.28.075L3.29 7.636.815 6.4a7.938 7.939 0 0 0-.21 1.044L3.08 8.68a.513.513 0 0 0 .487-.015l6.166-3.598a.513.513 0 0 0-.24-.961zm0 2.056a.513.513 0 0 0-.28.074L3.29 9.692.537 8.316a7.938 7.939 0 0 0-.008.159 7.938 7.939 0 0 0 .076 1.024l2.474 1.236a.513.513 0 0 0 .487-.015l6.166-3.598a.513.513 0 0 0-.24-.96zm0 2.055a.513.513 0 0 0-.28.074L3.29 11.748.798 10.502a7.938 7.939 0 0 0 .523 1.41l1.76.88a.513.513 0 0 0 .486-.016L9.733 9.18a.513.513 0 0 0-.239-.962z" filter="url(#c)" opacity=".15"/><path fill="#fff" fill-rule="evenodd" d="M9.493 4.105a.513.513 0 0 0-.28.075L3.29 7.636.815 6.4a7.938 7.939 0 0 0-.21 1.044L3.08 8.68a.513.513 0 0 0 .487-.015l6.166-3.598a.513.513 0 0 0-.24-.961zm0 2.056a.513.513 0 0 0-.28.074L3.29 9.692.537 8.316a7.938 7.939 0 0 0-.008.159 7.938 7.939 0 0 0 .076 1.024l2.474 1.236a.513.513 0 0 0 .487-.015l6.166-3.598a.513.513 0 0 0-.24-.96zm0 2.055a.513.513 0 0 0-.28.074L3.29 11.748.798 10.502a7.938 7.939 0 0 0 .523 1.41l1.76.88a.513.513 0 0 0 .486-.016L9.733 9.18a.513.513 0 0 0-.239-.962z"/></g></svg>