<svg width="64" height="64" version="1.1" viewBox="0 0 16.933 16.933" xmlns="http://www.w3.org/2000/svg" xmlns:xlink="http://www.w3.org/1999/xlink">
 <defs>
  <filter id="c" x="-.036" y="-.036" width="1.072" height="1.072" color-interpolation-filters="sRGB">
   <feGaussianBlur stdDeviation="0.23812031"/>
  </filter>
  <filter id="b" x="-.055391" y="-.065445" width="1.1108" height="1.1309" color-interpolation-filters="sRGB">
   <feGaussianBlur stdDeviation="0.18996709"/>
  </filter>
  <linearGradient id="a" x1="8.4665" x2="8.4665" y1=".52916" y2="16.404" gradientUnits="userSpaceOnUse">
   <stop stop-color="#0891ff" offset="0"/>
   <stop stop-color="#12f1ff" offset="1"/>
  </linearGradient>
 </defs>
 <g stroke-width="1.1111">
  <circle cx="8.4665" cy="8.4665" r="7.9373" filter="url(#c)" opacity=".15" style="paint-order:stroke markers fill"/>
  <circle cx="8.4665" cy="8.4665" r="7.9373" fill="url(#a)" style="paint-order:stroke markers fill"/>
  <path d="m9.5055 5.065c-0.74333 0.27778-1.2122 0.98889-1.16 1.7711l0.018889 0.30111-0.29778-0.036667c-1.0811-0.14111-2.0267-0.62-2.83-1.4256l-0.39222-0.4-0.10111 0.29667c-0.21444 0.65667-0.077778 1.3522 0.36778 1.8189 0.23778 0.25778 0.18444 0.29444-0.22667 0.14111-0.14222-0.048889-0.26778-0.085556-0.28-0.066667-0.041111 0.043333 0.10222 0.60222 0.21444 0.82445 0.15444 0.30778 0.47 0.60889 0.81445 0.78667l0.29222 0.14111-0.34444 0.00667c-0.33333 0-0.34444 0.00667-0.31111 0.13556 0.11889 0.4 0.58889 0.82445 1.1122 1.0089l0.36889 0.12889-0.32111 0.19667a3.2889 3.2889 0 0 1-1.5922 0.45556c-0.26778 0.0056-0.48667 0.03-0.48667 0.04778 0 0.06111 0.72445 0.40444 1.1467 0.54 1.2667 0.4 2.7711 0.22778 3.9022-0.45444 0.80222-0.48556 1.6056-1.45 1.98-2.3844 0.20222-0.49889 0.40444-1.4078 0.40444-1.8478 0-0.28222 0.01778-0.32 0.35111-0.65778 0.19667-0.19667 0.38111-0.41111 0.41667-0.47333 0.06-0.11778 0.05333-0.11778-0.25-0.011111-0.50556 0.18444-0.57778 0.16111-0.32667-0.11667 0.18444-0.19667 0.40444-0.55222 0.40444-0.65667 0-0.017778-0.08889 0.01-0.19 0.066667-0.10667 0.061111-0.34444 0.15333-0.52334 0.20778l-0.32222 0.10444-0.29111-0.20222c-0.16-0.11111-0.38667-0.23333-0.50556-0.27111a1.9944 1.9944 0 0 0-1.04 0.024444" filter="url(#b)" opacity=".15"/>
  <path d="m9.5055 5.065c-0.74333 0.27778-1.2122 0.98889-1.16 1.7711l0.018889 0.30111-0.29778-0.036667c-1.0811-0.14111-2.0267-0.62-2.83-1.4256l-0.39222-0.4-0.10111 0.29667c-0.21444 0.65667-0.077778 1.3522 0.36778 1.8189 0.23778 0.25778 0.18444 0.29444-0.22667 0.14111-0.14222-0.048889-0.26778-0.085556-0.28-0.066667-0.041111 0.043333 0.10222 0.60222 0.21444 0.82445 0.15444 0.30778 0.47 0.60889 0.81445 0.78667l0.29222 0.14111-0.34444 0.00667c-0.33333 0-0.34444 0.00667-0.31111 0.13556 0.11889 0.4 0.58889 0.82445 1.1122 1.0089l0.36889 0.12889-0.32111 0.19667a3.2889 3.2889 0 0 1-1.5922 0.45556c-0.26778 0.0056-0.48667 0.03-0.48667 0.04778 0 0.06111 0.72445 0.40444 1.1467 0.54 1.2667 0.4 2.7711 0.22778 3.9022-0.45444 0.80222-0.48556 1.6056-1.45 1.98-2.3844 0.20222-0.49889 0.40444-1.4078 0.40444-1.8478 0-0.28222 0.01778-0.32 0.35111-0.65778 0.19667-0.19667 0.38111-0.41111 0.41667-0.47333 0.06-0.11778 0.05333-0.11778-0.25-0.011111-0.50556 0.18444-0.57778 0.16111-0.32667-0.11667 0.18444-0.19667 0.40444-0.55222 0.40444-0.65667 0-0.017778-0.08889 0.01-0.19 0.066667-0.10667 0.061111-0.34444 0.15333-0.52334 0.20778l-0.32222 0.10444-0.29111-0.20222c-0.16-0.11111-0.38667-0.23333-0.50556-0.27111a1.9944 1.9944 0 0 0-1.04 0.024444" fill="#fff"/>
 </g>
</svg>
