<svg width="64" height="64" version="1.1" viewBox="0 0 16.933 16.933" xmlns="http://www.w3.org/2000/svg">
 <defs>
  <filter id="f" x="-.036" y="-.036" width="1.072" height="1.072" color-interpolation-filters="sRGB">
   <feGaussianBlur stdDeviation="14.1435"/>
  </filter>
  <linearGradient id="d" x1="520.32" x2="520.32" y1="1.8233" y2="1023.9" gradientUnits="userSpaceOnUse">
   <stop stop-color="#46a926" offset="0"/>
   <stop stop-color="#ffda64" offset="1"/>
  </linearGradient>
  <linearGradient id="a" x1="500.28" x2="500.28" y1="-18.217" y2="1023.9" gradientUnits="userSpaceOnUse">
   <stop stop-color="#a6d74f" offset="0"/>
   <stop stop-color="#46a926" offset="1"/>
  </linearGradient>
  <linearGradient id="linearGradient909" x1="500.28" x2="500.28" y1="20.138" y2="989.81" gradientUnits="userSpaceOnUse">
   <stop stop-color="#3aea62" offset="0"/>
   <stop stop-color="#b763fd" offset="1"/>
  </linearGradient>
  <filter id="h" x="-.06" y="-.06" width="1.12" height="1.12" color-interpolation-filters="sRGB">
   <feGaussianBlur stdDeviation="0.85"/>
  </filter>
  <linearGradient id="g" x1="32" x2="32" y1="15" y2="49" gradientTransform="scale(.26458)" gradientUnits="userSpaceOnUse">
   <stop stop-color="#303030" offset="0"/>
   <stop stop-color="#424242" offset="1"/>
  </linearGradient>
 </defs>
 <path transform="matrix(.016836 0 0 .016836 -.15028 -.14261)" d="m983.25 511.35c0-7.95-0.2-15.85-0.5-23.55q-8-180.15-137.55-309.85c-92.05-92-203.2-138.05-333.4-138.05-130.15 0-241.35 46.05-333.35 138.05-92.05 92-138.1 203.2-138.1 333.4 0 130.15 46.05 241.35 138.1 333.35 86.15 86.3 189.35 132.15 309.15 137.6 8 0.3 16 0.5 24.2 0.5 130.2 0 241.35-46.1 333.4-138.1 92-92 138.05-203.2 138.05-333.35z" filter="url(#f)" opacity=".5" stroke-width="15.683"/>
 <g transform="matrix(.016836 0 0 .016836 -.15028 -.14261)" fill="url(#d)" stroke-width="15.683">
  <g fill="url(#a)" stroke-width="15.683">
   <path d="m983.25 511.35c0-7.95-0.2-15.85-0.5-23.55q-8-180.15-137.55-309.85c-92.05-92-203.2-138.05-333.4-138.05-130.15 0-241.35 46.05-333.35 138.05-92.05 92-138.1 203.2-138.1 333.4 0 130.15 46.05 241.35 138.1 333.35 86.15 86.3 189.35 132.15 309.15 137.6 8 0.3 16 0.5 24.2 0.5 130.2 0 241.35-46.1 333.4-138.1 92-92 138.05-203.2 138.05-333.35z" fill="url(#linearGradient909)" stroke-width="15.683"/>
  </g>
 </g>
 <rect transform="matrix(.26458 0 0 .26458 -.042436 -.04234)" x="15.16" y="15.16" width="34" height="34" ry="5" fill="#303030" fill-rule="evenodd" filter="url(#h)" opacity=".5" style="paint-order:stroke fill markers"/>
 <path d="m5.2916 3.9687h6.3499c0.73289 0 1.3229 0.59001 1.3229 1.3229v6.3499c0 0.73289-0.59001 1.3229-1.3229 1.3229h-6.3499c-0.73289 0-1.3229-0.59001-1.3229-1.3229v-6.3499c0-0.73289 0.59001-1.3229 1.3229-1.3229z" fill="url(#g)" fill-rule="evenodd" stroke-width=".26458" style="paint-order:stroke fill markers"/>
 <path d="m5.2916 11.02h3.1059v0.62118h-3.1059z" fill="#f9f9f9" stroke-width=".26457"/>
 <g fill="#fff" stroke-width=".1127" aria-label="GO">
  <path d="m6.8538 8.8866c0.46431 0 0.8565-0.18032 1.0819-0.4012v-1.5056h-1.1856v0.54545h0.59053v0.65815c-0.094666 0.081142-0.25695 0.12622-0.41473 0.12622-0.65815 0-0.99173-0.43726-0.99173-1.163 0-0.71675 0.38768-1.1495 0.94215-1.1495 0.30203 0 0.49136 0.12171 0.65815 0.27949l0.35162-0.42374c-0.21638-0.22089-0.54996-0.42825-1.0323-0.42825-0.88805 0-1.6003 0.64463-1.6003 1.7446 0 1.1134 0.69421 1.7175 1.6003 1.7175z"/>
  <path d="m9.9777 8.8866c0.88355 0 1.4921-0.66266 1.4921-1.7446 0-1.0819-0.60856-1.7175-1.4921-1.7175s-1.4921 0.6311-1.4921 1.7175c0 1.0819 0.60856 1.7446 1.4921 1.7446zm0-0.57701c-0.49587 0-0.81142-0.4553-0.81142-1.1675 0-0.71675 0.31555-1.145 0.81142-1.145s0.81142 0.42825 0.81142 1.145c0 0.71225-0.31555 1.1675-0.81142 1.1675z"/>
 </g>
</svg>
