<svg xmlns="http://www.w3.org/2000/svg" width="64" height="64" enable-background="new 0 0 1024 1024" image-rendering="optimizeSpeed"><defs><linearGradient id="c" x1="280" x2="280" y1="4" y2="1024" gradientTransform="translate(5.702 -.235)" gradientUnits="userSpaceOnUse"><stop offset="0" stop-color="#5e75e3"/><stop offset="1" stop-color="#8189fa"/></linearGradient><linearGradient id="d" x1="422" x2="884.67" y1="166.12" y2="166.12" gradientTransform="translate(.053 1.215)" gradientUnits="userSpaceOnUse"><stop offset="0" stop-color="#5e91e3"/><stop offset="1" stop-color="#a781fa"/></linearGradient><linearGradient id="b" x1="520" x2="520" y1="4" y2="1024" gradientTransform="matrix(1 0 0 1.0052 2.008 -3.066)" gradientUnits="userSpaceOnUse"><stop offset="0" stop-color="#d7d7d7"/><stop offset="1" stop-color="#fff"/></linearGradient><filter id="a" width="1.072" height="1.072" x="-.036" y="-.036" color-interpolation-filters="sRGB"><feGaussianBlur stdDeviation="14.075"/></filter></defs><g stroke-width="15.679"><g transform="matrix(.0637 0 0 .06337 -.74 -.417)"><circle cx="512" cy="514" r="469.16" filter="url(#a)" opacity=".25" style="paint-order:stroke markers fill" transform="translate(0 -2.008)scale(1.0039)"/><ellipse cx="514.01" cy="511.58" fill="url(#b)" rx="471" ry="473.43" style="paint-order:stroke markers fill"/><path fill="url(#c)" d="M429.7 44.904c-27.952 5.568-56.235 13.948-84.628 25.03-43.831 17.146-83.195 38.923-118.31 65.607-61.969 46.973-109.88 109.05-143.45 185.85-7.553 17.091-14.058 34.237-19.461 51.383l413.19-76.909z"/><path fill="url(#d)" d="M779.53 121.78c-24.148-16.264-50.556-30.709-79.004-43.169a540 540 0 0 0-52.927-19.903c-74.594-23.431-149.63-27.566-225-12.46-.165.056-.386.056-.551.111l47.331 250.96.441-.083 414.9-77.24v.027c-28.945-37.82-64.174-70.789-105.19-98.245z"/></g><path fill="#333" d="m45.034 28.463 1.952-3.384-.36-1.84-14.355 2.777.36 1.84 12.351-2.39c-1.216 2.058-2.208 3.983-2.991 5.797-.92 2.389-1.511 4.184-1.798 5.353a25.5 25.5 0 0 0-.74 5.22q.028 3.549.27 5.466l2.158-.418c-.367-2.6-.419-5.048-.153-7.328q.279-2.256 1.296-6.194c.595-1.866 1.27-3.5 2.01-4.9zM29.82 32.486c-.203-1.04-.554-1.927-1.067-2.64-.51-.698-1.12-1.27-1.84-1.679-.733-.389-1.546-.638-2.436-.731s-1.824-.054-2.8.135c-1.2.232-2.207.622-3.039 1.19s-1.478 1.258-1.941 2.073-.731 1.716-.833 2.743-.035 2.094.223 3.23l2.004-.388c-.18-.832-.265-1.63-.22-2.399.028-.766.193-1.47.49-2.129a4.44 4.44 0 0 1 1.31-1.668c.588-.45 1.342-.773 2.25-.948a6.6 6.6 0 0 1 1.975-.082 5 5 0 0 1 1.767.578q.809.453 1.359 1.223c.384.509.644 1.113.787 1.846.17.869.166 1.666-.016 2.373q-.298 1.065-1.017 2.16a15 15 0 0 1-1.754 2.126l-3.998 4.099a14 14 0 0 0-1.658 2.249 8.7 8.7 0 0 0-.976 2.558c-.193.922-.208 1.933-.012 3.027l14.697-2.844-.36-1.84-12.402 2.4c-.023-.757.17-1.501.56-2.231.394-.713.863-1.405 1.428-2.063l5.271-5.318a11.7 11.7 0 0 0 1.438-2.1c.408-.733.683-1.512.841-2.338s.15-1.692-.03-2.612z"/><path fill="#fff" d="m34.335 6.843 2.445-.458-.107-.566-5.539 1.038.108.566 2.429-.455 1.211 6.396.664-.125zM30.49 9.16l.67-.125a2.4 2.4 0 0 0-.516-.908 2.6 2.6 0 0 0-.781-.58 2.8 2.8 0 0 0-.942-.275c-.34-.04-.67-.026-1.002.036-.554.104-1.014.293-1.394.565a3.2 3.2 0 0 0-.502.464 3 3 0 0 0-.379.532q-.315.582-.397 1.274c-.082.692-.037.93.055 1.412q.136.717.466 1.34c.22.41.497.749.833 1.028.17.147.35.265.55.364s.41.178.634.24c.454.12.953.13 1.506.026q.413-.075 1.08-.403.47-.29.775-.72a2.9 2.9 0 0 0 .44-.99q.139-.563.085-1.221l-.669.125c.027.316.009.623-.056.912q-.105.442-.324.8a2.2 2.2 0 0 1-.59.598c-.24.17-.525.283-.846.344a2.8 2.8 0 0 1-.661.053 2.1 2.1 0 0 1-.59-.09 2.5 2.5 0 0 1-.95-.544 3 3 0 0 1-.655-.898 4.3 4.3 0 0 1-.424-2.239 3 3 0 0 1 .284-1.063 2.4 2.4 0 0 1 .288-.466c.117-.136.25-.27.396-.39q.228-.18.517-.297.28-.124.635-.19a2.4 2.4 0 0 1 .748-.026q.369.053.7.21c.331.157.419.253.59.438.172.185.318.408.426.664m-6.36 1.193a3.5 3.5 0 0 0-.836-1.043 3.2 3.2 0 0 0-1.18-.61q-.678-.175-1.5-.023-.82.156-1.387.565a3.2 3.2 0 0 0-.502.463 3 3 0 0 0-.38.532q-.315.582-.396 1.275c-.081.693-.037.93.054 1.412q.136.716.467 1.34c.22.41.496.748.833 1.027.17.148.35.266.55.364q.297.148.634.24.68.18 1.5.028.82-.155 1.388-.57.561-.408.876-.99c.212-.381.346-.797.4-1.258q.08-.7-.055-1.417a4.6 4.6 0 0 0-.466-1.335m-1.656-.851q.23.142.439.33.4.373.653.887c.253.514.293.71.366 1.093q.105.567.058 1.146a3 3 0 0 1-.282 1.073q-.24.492-.685.85-.447.355-1.141.486a2.8 2.8 0 0 1-.656.052 2 2 0 0 1-.59-.09 2.5 2.5 0 0 1-.949-.544q-.403-.374-.655-.898c-.252-.524-.293-.71-.365-1.088-.072-.383-.091-.77-.06-1.15s.123-.735.285-1.063q.116-.248.288-.467c.116-.136.25-.27.396-.389a2 2 0 0 1 .516-.298q.28-.124.63-.188.695-.129 1.24.038c.181.059.354.135.512.22"/></g></svg>