<svg xmlns="http://www.w3.org/2000/svg" width="64" height="64" enable-background="new 0 0 1024 1024" image-rendering="optimizeSpeed"><defs><linearGradient id="b" x1="520" x2="520.03" y1="44" y2="985.85" gradientTransform="translate(-.542 -.542) scale(.06356)" gradientUnits="userSpaceOnUse"><stop offset="0" stop-color="#353535"/><stop offset="1" stop-color="#6d6d6d"/></linearGradient><linearGradient id="f" x1="25.195" x2="25.195" y1="19.358" y2="41.358" gradientUnits="userSpaceOnUse"><stop offset="0" stop-color="#0ba55f"/><stop offset="1" stop-color="#0cc380"/></linearGradient><linearGradient id="e" x1="36.029" x2="36.029" y1="19.358" y2="34.026" gradientUnits="userSpaceOnUse"><stop offset="0" stop-color="#fbaf4b"/><stop offset="1" stop-color="#fbe046"/></linearGradient><linearGradient id="d" x1="43.832" x2="26.616" y1="37.531" y2="37.073" gradientUnits="userSpaceOnUse"><stop offset="0" stop-color="#3e97fb"/><stop offset="1" stop-color="#207efa"/></linearGradient><filter id="a" width="1.072" height="1.072" x="-.036" y="-.036" color-interpolation-filters="sRGB"><feGaussianBlur stdDeviation="14.16"/></filter><filter id="c" width="1.111" height="1.131" x="-.055" y="-.065" color-interpolation-filters="sRGB"><feGaussianBlur stdDeviation=".6"/></filter></defs><path d="M969.7 392c-1.1-4.35-2.35-9-3.65-13.6-2.5-8.75-5.35-17.6-8.45-26.35-6.45-18.25-14.15-36.05-23.15-53.65-3.8-7.4-7.95-14.95-12.3-22.4h-.025q-30.601-52.01-76.325-97.75C753.65 86.1 642.35 40 512 40S270.4 86.1 178.25 178.25 40 381.65 40 512s46.1 241.65 138.25 333.8c68.05 68.05 146.5 110.95 234.9 128.65C445.1 980.85 477.9 984 512 984c130.35 0 241.65-46.05 333.8-138.2 48.6-48.6 84.4-102.5 107.35-161.8 17-43.95 27-90.8 29.95-140.75.6-10.2.9-20.65.9-31.25 0-41.75-4.7-81.6-14.3-120z" filter="url(#a)" opacity=".25" transform="translate(-.542 -.542) scale(.06356)"/><path fill="url(#b)" d="M61.091 24.373a28.41 28.41 0 0 0-2.24-5.95A31 31 0 0 0 58.069 17h-.002q-1.945-3.306-4.851-6.213C47.359 4.93 40.285 2 32 2s-15.356 2.93-21.213 8.787S2 23.715 2 32s2.93 15.36 8.787 21.216c4.325 4.325 9.311 7.052 14.93 8.177C27.747 61.8 29.832 62 32 62c8.285 0 15.359-2.927 21.216-8.784 3.089-3.089 5.364-6.515 6.823-10.284 1.08-2.793 1.716-5.771 1.904-8.946.038-.648.057-1.312.057-1.986 0-2.654-.299-5.187-.91-7.627z"/><g fill-rule="evenodd" filter="url(#c)" opacity=".15" transform="translate(-7.009 -5.364) scale(1.2308)"><path d="M27.363 34.026h17.332l-4.332 7.332H23.027m21.668-7.332-8.668-14.668h-8.664l8.664 14.668"/><path d="m23.027 41.358 8.668-14.668-4.332-7.332-8.668 14.668"/></g><g fill-rule="evenodd"><path fill="url(#d)" d="M27.363 34.026h17.332l-4.332 7.332H23.027" transform="translate(-7.009 -5.364) scale(1.2308)"/><path fill="url(#e)" d="m44.695 34.026-8.668-14.668h-8.664l8.664 14.668" transform="translate(-7.009 -5.364) scale(1.2308)"/><path fill="url(#f)" d="m23.027 41.358 8.668-14.668-4.332-7.332-8.668 14.668" transform="translate(-7.009 -5.364) scale(1.2308)"/></g></svg>