<svg xmlns="http://www.w3.org/2000/svg" xmlns:xlink="http://www.w3.org/1999/xlink" width="64" height="64"><defs><linearGradient id="d" x1="519.2" x2="519.2" y1="1024.8" y2="4.8" gradientTransform="translate(-.559 -.581)scale(.06358)" gradientUnits="userSpaceOnUse"><stop offset="0" stop-color="#646464"/><stop offset=".02" stop-color="#414141"/><stop offset="1" stop-color="#1e1e1e"/></linearGradient><linearGradient xlink:href="#a" id="y" x1="144.66" x2="174.56" y1="55.562" y2="55.562" gradientTransform="translate(-276.52 -53.322)scale(1.9355)" gradientUnits="userSpaceOnUse"/><linearGradient id="a"><stop offset="0" stop-color="#868f93"/><stop offset=".056" stop-color="#939b9d"/><stop offset=".115" stop-color="#7c7a74"/><stop offset=".505" stop-color="#918b7f"/><stop offset=".915" stop-color="#656866"/><stop offset=".962" stop-color="#8f9ea5"/><stop offset="1" stop-color="#98aab4"/></linearGradient><linearGradient xlink:href="#a" id="x" x1="144.66" x2="174.56" y1="55.562" y2="55.562" gradientTransform="translate(-276.52 -63)scale(1.9355)" gradientUnits="userSpaceOnUse"/><linearGradient id="v" x1="-27.125" x2="1.125" y1="62.125" y2="62.125" gradientTransform="translate(43.435 -15.974)scale(.85911)" gradientUnits="userSpaceOnUse"><stop offset="0" stop-color="#cbdae1"/><stop offset=".151" stop-color="#585d61"/><stop offset=".612" stop-color="#eaf5f9"/><stop offset=".866" stop-color="#959a9e"/><stop offset="1" stop-color="#eff4f7"/></linearGradient><linearGradient id="w" x1="-12.905" x2="-12.905" y1="1016.9" y2="999.65" gradientTransform="translate(43.435 -837.6)scale(.85911)" gradientUnits="userSpaceOnUse"><stop offset="0" stop-color="#a8b1b6"/><stop offset="1" stop-color="#f2f5f8"/></linearGradient><linearGradient id="q" x1="38.364" x2="39.951" y1="15.17" y2="15.17" gradientTransform="translate(-276.92 -58)scale(7.3154)" gradientUnits="userSpaceOnUse"><stop offset="0" stop-color="#2d2e30"/><stop offset=".334" stop-color="#5d5c5b" stop-opacity="0"/><stop offset=".502" stop-color="#7a7b7b" stop-opacity="0"/><stop offset=".686" stop-color="#555" stop-opacity="0"/><stop offset="1" stop-color="#333"/></linearGradient><linearGradient id="r" x1="38.364" x2="39.951" y1="15.17" y2="15.17" gradientTransform="translate(-232.4 -58)scale(7.3154)" gradientUnits="userSpaceOnUse"><stop offset="0" stop-color="#2d2e30"/><stop offset=".334" stop-color="#5d5c5b" stop-opacity="0"/><stop offset=".502" stop-color="#7a7b7b" stop-opacity="0"/><stop offset=".686" stop-color="#555" stop-opacity="0"/><stop offset="1" stop-color="#70787e"/></linearGradient><linearGradient id="s" x1="50.27" x2="50.27" y1="14.816" y2="8.731" gradientTransform="translate(-335.74 -59.935)scale(7.3154)" gradientUnits="userSpaceOnUse"><stop offset="0" stop-color="#c0d5dc"/><stop offset="1" stop-color="#9ea5a8"/></linearGradient><linearGradient id="t" x1="285.3" x2="177.35" y1="58.879" y2="58.879" gradientTransform="translate(-58.986 .793)scale(.3932)" gradientUnits="userSpaceOnUse"><stop offset="0" stop-color="#3e3f41"/><stop offset=".148" stop-color="#f6f7f7"/><stop offset=".55" stop-color="#8396a5"/><stop offset="1" stop-color="#50484b"/></linearGradient><linearGradient id="u" x1="237.32" x2="239.69" y1="18.634" y2="111.87" gradientTransform="translate(-58.986 .793)scale(.3932)" gradientUnits="userSpaceOnUse"><stop offset="0" stop-color="#9fa6aa"/><stop offset="1" stop-color="#c2d5dc"/></linearGradient><linearGradient xlink:href="#b" id="j" x1="120.59" x2="118.64" y1="137.54" y2="139.07" gradientTransform="translate(-17.752 1.088)scale(.3932)" gradientUnits="userSpaceOnUse"/><linearGradient id="b"><stop offset="0"/><stop offset="1" stop-color="#313131"/></linearGradient><linearGradient xlink:href="#b" id="k" x1="120.59" x2="118.64" y1="137.54" y2="139.07" gradientTransform="translate(-15.285 1.088)scale(.3932)" gradientUnits="userSpaceOnUse"/><linearGradient xlink:href="#b" id="l" x1="120.59" x2="118.64" y1="137.54" y2="139.07" gradientTransform="translate(-12.819 1.088)scale(.3932)" gradientUnits="userSpaceOnUse"/><linearGradient xlink:href="#b" id="m" x1="120.59" x2="118.64" y1="137.54" y2="139.07" gradientTransform="translate(-10.353 1.088)scale(.3932)" gradientUnits="userSpaceOnUse"/><linearGradient xlink:href="#b" id="n" x1="120.59" x2="118.64" y1="137.54" y2="139.07" gradientTransform="translate(-7.887 1.088)scale(.3932)" gradientUnits="userSpaceOnUse"/><linearGradient xlink:href="#b" id="o" x1="120.59" x2="118.64" y1="137.54" y2="139.07" gradientTransform="translate(-5.42 1.088)scale(.3932)" gradientUnits="userSpaceOnUse"/><linearGradient xlink:href="#b" id="p" x1="120.59" x2="118.64" y1="137.54" y2="139.07" gradientTransform="translate(-2.955 1.088)scale(.3932)" gradientUnits="userSpaceOnUse"/><linearGradient id="h" x1="50.27" x2="50.27" y1="15.081" y2="14.023" gradientTransform="translate(-335.74 -50.258)scale(7.3154)" gradientUnits="userSpaceOnUse"><stop offset="0" stop-color="#404041"/><stop offset="1" stop-color="#1e1e1e"/></linearGradient><linearGradient id="i" x1="242.09" x2="173.32" y1="131.04" y2="131.04" gradientTransform="translate(-58.986 .793)scale(.3932)" gradientUnits="userSpaceOnUse"><stop offset="0" stop-color="#8a8a8a"/><stop offset="1" stop-color="#3d3c3c"/></linearGradient><filter id="c" width="1.072" height="1.072" x="-.036" y="-.036" color-interpolation-filters="sRGB"><feGaussianBlur stdDeviation=".42"/></filter><filter id="e" width="1.028" height="1.028" x="-.014" y="-.014" color-interpolation-filters="sRGB"><feGaussianBlur stdDeviation=".298"/></filter><filter id="f" width="1.059" height="1.059" x="-.03" y="-.03" color-interpolation-filters="sRGB"><feGaussianBlur stdDeviation=".298"/></filter><filter id="g" width="1.05" height="1.058" x="-.025" y="-.029" color-interpolation-filters="sRGB"><feGaussianBlur stdDeviation=".609"/></filter></defs><circle cx="400.57" cy="531.8" r="14" filter="url(#c)" opacity=".25" transform="translate(-826.34 -1107.5)scale(2.1429)"/><circle cx="32.017" cy="31.998" r="30" fill="none"/><path fill="url(#d)" d="M50.246 8.118q-3.86-2.972-8.444-4.555Q37.065 1.925 32 1.925c-16.569 0-30.003 13.431-30.003 30 0 15.158 11.245 27.683 25.845 29.71.713.098 1.434.174 2.159.219.661.04 1.326.07 2 .07 16.567 0 29.997-13.432 29.997-29.999 0-1.31-.083-2.603-.245-3.865a30 30 0 0 0-.884-4.305q-1.329-4.689-4.082-8.726-2.721-3.977-6.54-6.911z"/><path fill="#fff" d="M10.787 10.787a29.934 29.934 0 0 0 0 42.426c.119.119.242.23.362.345-11.4-11.775-11.288-30.43.345-42.065S41.784-.25 53.56 11.148c-.116-.12-.227-.243-.345-.362a29.934 29.934 0 0 0-42.426 0z" filter="url(#e)" opacity=".15"/><path fill="#fff" d="M37.435 61.526c5.772-1.063 11.297-3.831 15.779-8.313s7.25-10.007 8.313-15.779c-1.592 5.434-4.606 10.657-9.02 15.072s-9.639 7.428-15.072 9.02" filter="url(#f)" opacity=".15"/><g transform="translate(11.24 13.922)scale(.6408)"><path d="M13.722 7.637c-3.8 0-5.756 1.757-6.135 5.413L3.485 52.58c-.307 2.965 2.399 5.38 5.38 5.38h47.062c2.98 0 5.687-2.415 5.38-5.38l-4.102-39.53c-.379-3.656-2.335-5.413-6.135-5.413H31.64z" filter="url(#g)" opacity=".35"/><g stroke-width="7.315"><path fill="url(#h)" d="M13.325 11.677c-3.8 0-5.756 1.757-6.135 5.413L3.088 56.62C2.781 59.585 5.487 62 8.468 62H55.53c2.98 0 5.687-2.415 5.38-5.38l-4.102-39.53c-.379-3.656-2.335-5.413-6.135-5.413h-19.43z" transform="translate(.397 -5)"/><path fill-opacity=".084" d="M9.93 48.574h4.713c6.422 4.372 13.08 4.367 19.792 4.367h11.626l8.835-3.686s.84-3.226.463-3.132c-.377.095-46.088 0-46.088 0z"/><path fill="url(#i)" d="M9.533 53.245h4.713c6.422 4.372 13.079 4.367 19.792 4.367H45.4l9.262-3.353s.676-3.559.3-3.465c-.378.095-46.089 0-46.089 0z" transform="translate(.397 -5)"/><path fill="#7a7b7b" d="M4.122 40.886v9.678a5.806 4.502 0 0 0 5.806 4.502 5.806 4.502 0 0 0 5.807-4.502v-9.678z"/></g><g stroke-width=".393" transform="translate(.397 -5)"><rect width="1.399" height="6.531" x="28.899" y="51.272" fill="url(#j)" rx=".2" ry=".2" style="paint-order:fill markers stroke"/><rect width="1.399" height="6.531" x="31.365" y="51.272" fill="url(#k)" rx=".2" ry=".2" style="paint-order:fill markers stroke"/><rect width="1.399" height="6.531" x="33.832" y="51.272" fill="url(#l)" rx=".2" ry=".2" style="paint-order:fill markers stroke"/><rect width="1.399" height="6.531" x="36.298" y="51.272" fill="url(#m)" rx=".2" ry=".2" style="paint-order:fill markers stroke"/><rect width="1.399" height="6.531" x="38.764" y="51.272" fill="url(#n)" rx=".2" ry=".2" style="paint-order:fill markers stroke"/><rect width="1.399" height="6.531" x="41.229" y="51.272" fill="url(#o)" rx=".2" ry=".2" style="paint-order:fill markers stroke"/><rect width="1.399" height="6.531" x="43.694" y="51.272" fill="url(#p)" rx=".2" ry=".2" style="paint-order:fill markers stroke"/></g><g stroke-width="7.315"><path fill="#797a7a" d="M48.638 40.886v9.678a5.806 4.502 0 0 0 5.806 4.502 5.806 4.502 0 0 0 5.807-4.502v-9.678z"/><path fill="url(#q)" d="M3.725 45.886v9.678a5.806 4.502 0 0 0 5.806 4.502 5.806 4.502 0 0 0 5.807-4.502v-9.678z" transform="translate(.397 -5)"/><path fill="url(#r)" d="M48.241 45.886v9.678a5.806 4.502 0 0 0 5.806 4.502 5.806 4.502 0 0 0 5.807-4.502v-9.678z" transform="translate(.397 -5)"/><path fill="url(#s)" d="M13.325 2c-3.8 0-5.756 1.757-6.135 5.413l-4.102 39.53c-.307 2.965 2.399 5.38 5.38 5.38H55.53c2.98 0 5.687-2.415 5.38-5.38l-4.102-39.53C56.43 3.757 54.474 2 50.674 2h-19.43z" transform="translate(.397 -5)"/><path fill="url(#t)" d="m50.882 7.067-.996-.913-10.3 11.474c-2.63.35-5.248.527-7.895.508-12.35-.469-23.016 6.821-23.016 14.793s10.018 14.433 22.378 14.433 22.88-6.56 22.88-14.53a9.5 9.5 0 0 0-.306-2.368z" style="paint-order:fill markers stroke" transform="translate(.397 -5)"/><path fill="#7a8285" d="m13.005 9.46 31.018.43-.644-7.965c-7.837.791-26.614 1.819-29.77 6.926z"/><path fill="url(#u)" d="m49.997 6.124-36.452.252-.32 7.493 27.303.21-.556 3.164-.406.662c-.793-.06-4.24.441-5.055.386-13.308-.903-24.5 6.095-24.5 13.825S19.44 46.112 31.07 46.112s21.53-6.36 21.53-14.089a9.5 9.5 0 0 0-.286-2.296z" style="paint-order:fill markers stroke" transform="translate(.397 -5)"/><path fill="#1f2021" d="M15.924 2.041h22.6c.368 0 .642.297.664.665l.285 4.627c.022.368-.297.666-.666.666H15.672c-.368 0-.685-.298-.665-.666l.251-4.627c.03-.367.297-.665.666-.665"/><path fill="#fff" d="M16.187 4.309h15.76v.086h-15.76zm-.066-1.244v.121h.095v-.12zm8.302 0v.314a.2.2 0 0 0-.076-.08.2.2 0 0 0-.11-.022.2.2 0 0 0-.17.083.34.34 0 0 0-.068.22q.001.136.068.222c.067.086.1.084.17.084q.065 0 .11-.027a.2.2 0 0 0 .076-.076v.087h.094v-.805zm1.444 0v.121h.098v-.12zm.843 0v.805h.098v-.283l.295.283h.125l-.322-.31.306-.272h-.12l-.284.254v-.477zm-4.53.03v.775h.107V3.5h.378v.37h.106v-.775h-.106v.318h-.378v-.318zm2.874 0v.775h.215q.225 0 .33-.094.105-.095.105-.295c0-.2-.032-.229-.102-.291q-.107-.095-.333-.095zm-7.965.03v.163h-.072v.076h.072v.314q0 .109.042.15.04.042.15.042h.1v-.08h-.1q-.059 0-.079-.022-.018-.02-.019-.09v-.314h.197v-.076h-.197v-.162zm3.243 0v.163h-.068v.076h.068v.314q0 .109.042.15.044.042.155.042h.098v-.08h-.098q-.06 0-.08-.022-.018-.02-.018-.09v-.314h.196v-.076h-.196v-.162zm4.828.057h.128q.16 0 .23.072.076.071.077.227c.001.156-.026.182-.076.23s-.124.072-.23.072h-.13zm-8.464.095a.21.21 0 0 0-.185.102v-.09h-.099v.581h.1v-.329c0-.056.01-.1.04-.132a.16.16 0 0 1 .125-.049q.063 0 .095.042a.2.2 0 0 1 .034.12v.348h.095v-.35a.28.28 0 0 0-.053-.182q-.052-.06-.15-.06zm1.05 0a.27.27 0 0 0-.207.083.32.32 0 0 0-.076.227c0 .092.026.161.08.215s.13.083.223.083a.5.5 0 0 0 .211-.045v-.09a.4.4 0 0 1-.208.053.2.2 0 0 1-.147-.05.23.23 0 0 1-.06-.151H18v-.045a.3.3 0 0 0-.068-.205.24.24 0 0 0-.185-.075zm.696 0a.23.23 0 0 0-.113.026.2.2 0 0 0-.08.076v-.09h-.098v.581h.1v-.306q-.001-.098.04-.151a.15.15 0 0 1 .125-.053q.023-.001.042.004a.1.1 0 0 1 .033.015v-.098l-.026-.004zm.412 0a.2.2 0 0 0-.105.026.24.24 0 0 0-.084.076v-.09h-.094v.581h.094v-.329q0-.084.046-.132a.15.15 0 0 1 .12-.049q.066 0 .1.042.03.04.03.12v.348h.094v-.35q0-.12-.05-.182-.051-.06-.15-.06zm.636 0a.27.27 0 0 0-.208.083.32.32 0 0 0-.076.227c0 .092.026.161.08.215a.3.3 0 0 0 .22.083.5.5 0 0 0 .214-.045v-.09a.4.4 0 0 1-.208.053q-.094 0-.147-.05a.23.23 0 0 1-.06-.151h.438v-.045a.3.3 0 0 0-.069-.205.24.24 0 0 0-.185-.075zm.695 0a.25.25 0 0 0-.117.026.2.2 0 0 0-.076.076v-.09h-.098v.581h.098v-.306q0-.098.042-.151a.15.15 0 0 1 .125-.053q.024-.001.041.004a.1.1 0 0 1 .034.015v-.098l-.026-.004zm.81 0a.27.27 0 0 0-.209.083.32.32 0 0 0-.075.227c0 .092.025.161.08.215a.3.3 0 0 0 .22.083.5.5 0 0 0 .214-.045v-.09a.4.4 0 0 1-.208.053.2.2 0 0 1-.148-.05.23.23 0 0 1-.06-.151h.438v-.045a.3.3 0 0 0-.068-.205.24.24 0 0 0-.185-.075zm.695 0a.25.25 0 0 0-.118.026.2.2 0 0 0-.075.076v-.09H21.4v.581h.098v-.306q0-.098.042-.151a.15.15 0 0 1 .124-.053q.024-.001.042.004a.1.1 0 0 1 .034.015v-.098l-.026-.004zm1.49 0a.5.5 0 0 0-.198.038v.09a.4.4 0 0 1 .185-.05.2.2 0 0 1 .122.039.13.13 0 0 1 .045.102v.008h-.136q-.129-.001-.193.049a.18.18 0 0 0-.068.147q0 .085.053.136c.053.051.084.05.143.05a.25.25 0 0 0 .118-.027.2.2 0 0 0 .083-.076v.087h.094v-.332q0-.132-.064-.197c-.064-.065-.1-.064-.185-.064m.732 0a.25.25 0 0 0-.117.026.2.2 0 0 0-.08.076v-.09h-.094v.581h.095v-.306q0-.098.042-.151a.15.15 0 0 1 .124-.053q.024-.001.042.004a.2.2 0 0 1 .038.015l-.004-.098-.026-.004zm2.435 0a.26.26 0 0 0-.163.045.15.15 0 0 0-.06.125q.001.067.041.106t.13.056l.03.008q.091.02.116.042.027.018.026.056a.08.08 0 0 1-.038.068.2.2 0 0 1-.102.023.5.5 0 0 1-.208-.057v.099a.8.8 0 0 0 .205.037.3.3 0 0 0 .173-.049.15.15 0 0 0 .068-.125.15.15 0 0 0-.045-.113.3.3 0 0 0-.144-.06l-.034-.008a.3.3 0 0 1-.102-.034q-.024-.019-.023-.053-.001-.043.035-.064a.2.2 0 0 1 .106-.023.4.4 0 0 1 .173.042v-.09a.4.4 0 0 0-.083-.024 1 1 0 0 0-.102-.007zm-10.225.011v.582h.094v-.582zm9.745 0v.582h.1v-.582zm-8.116.068q.069-.001.11.046a.18.18 0 0 1 .045.124l-.34.004a.2.2 0 0 1 .056-.128.18.18 0 0 1 .13-.046m1.74 0q.07-.001.112.046a.18.18 0 0 1 .046.124l-.34.004a.2.2 0 0 1 .056-.128.17.17 0 0 1 .124-.046zm1.503 0q.071-.001.114.046a.18.18 0 0 1 .045.124l-.34.004a.2.2 0 0 1 .053-.128.18.18 0 0 1 .128-.046m3.267 0q.076 0 .12.06a.27.27 0 0 1 .042.163.3.3 0 0 1-.04.167q-.045.06-.122.06a.14.14 0 0 1-.118-.06.3.3 0 0 1-.045-.167.27.27 0 0 1 .045-.162q.043-.06.118-.06zm-1.025.223h.1v.02a.23.23 0 0 1-.05.15.16.16 0 0 1-.129.057.13.13 0 0 1-.09-.03.1.1 0 0 1-.034-.08q0-.064.045-.09a.34.34 0 0 1 .16-.027zm-7.114 1.134v.091h.075v-.09zm6.37 0v.239a.15.15 0 0 0-.06-.057.2.2 0 0 0-.084-.019.16.16 0 0 0-.133.064.27.27 0 0 0-.049.17q0 .104.05.167a.16.16 0 0 0 .132.064.2.2 0 0 0 .083-.019.16.16 0 0 0 .06-.057v.065h.072v-.617zm1.107 0v.091h.072v-.09zm.647 0v.617h.075v-.216l.223.216h.098l-.245-.235.234-.208h-.094l-.216.19v-.364zm.733 0v.091h.072v-.09zm-4.207.023v.594h.08v-.28h.29v.28h.08v-.594h-.08v.246h-.29v-.246zm2.203 0v.594h.167q.172 0 .253-.072c.081-.072.08-.121.08-.223s-.026-.18-.08-.227q-.08-.072-.253-.072zm-6.112.023v.128h-.053v.057h.053v.238q0 .085.033.117.032.03.114.03h.075v-.06h-.075q-.045 0-.06-.015c-.015-.015-.013-.036-.013-.072v-.238h.148v-.057h-.148V4.76zm2.491 0v.128h-.053v.057h.053v.238q0 .085.03.117c.03.032.06.03.117.03h.076v-.06h-.076q-.045 0-.06-.015c-.015-.015-.016-.036-.016-.072v-.238h.151v-.057h-.15V4.76zm6.366 0v.128h-.053v.057h.053v.238q0 .085.03.117c.03.032.06.03.117.03h.076v-.06h-.076q-.045 0-.06-.015c-.015-.015-.016-.036-.016-.072v-.238h.151v-.057h-.15V4.76zm2.491 0v.128h-.057v.057h.057v.238q0 .085.03.117c.03.032.06.03.117.03h.076v-.06h-.076q-.045 0-.06-.015c-.015-.015-.016-.036-.016-.072v-.238h.151v-.057h-.15V4.76zm-5.156.045h.098q.122 0 .178.057c.056.057.06.094.06.174s-.022.137-.06.174-.096.056-.178.056h-.098zm-6.49.072a.2.2 0 0 0-.084.019.2.2 0 0 0-.06.06v-.068h-.076v.443h.075v-.25a.14.14 0 0 1 .035-.102.11.11 0 0 1 .09-.038q.05 0 .076.03.026.032.026.095v.265h.072v-.269a.2.2 0 0 0-.042-.14q-.038-.046-.113-.045zm.804 0a.2.2 0 0 0-.158.064.25.25 0 0 0-.06.174q0 .105.063.166.062.061.167.06c.028 0 .06 0 .087-.007a.4.4 0 0 0 .08-.026v-.068a.4.4 0 0 1-.16.041q-.072.001-.113-.037a.17.17 0 0 1-.046-.118h.333v-.034a.23.23 0 0 0-.053-.158.18.18 0 0 0-.14-.057m.537 0a.2.2 0 0 0-.09.019.16.16 0 0 0-.06.06v-.068h-.073v.443h.072v-.235q0-.074.034-.113a.12.12 0 0 1 .095-.042l.03.004q.015.004.026.011V4.88l-.019-.004zm.31 0a.16.16 0 0 0-.08.019.2.2 0 0 0-.064.06v-.068h-.07v.443h.07v-.25q.002-.065.038-.102a.11.11 0 0 1 .091-.038q.05 0 .076.03.024.032.022.095v.265h.076v-.269a.2.2 0 0 0-.042-.14q-.039-.046-.117-.045m.488 0a.2.2 0 0 0-.159.064.25.25 0 0 0-.057.174q0 .105.06.166.064.061.17.06a.4.4 0 0 0 .084-.007.4.4 0 0 0 .08-.026v-.068a.34.34 0 0 1-.16.041q-.072.001-.113-.037a.17.17 0 0 1-.045-.118h.336v-.034a.23.23 0 0 0-.052-.158.18.18 0 0 0-.144-.057m.537 0a.2.2 0 0 0-.09.019.14.14 0 0 0-.058.06v-.068h-.076v.443h.076v-.235q-.002-.074.03-.113a.12.12 0 0 1 .094-.042q.017 0 .035.004.015.004.026.011V4.88l-.019-.004zm.62 0a.2.2 0 0 0-.16.064.25.25 0 0 0-.06.174q.001.105.064.166.062.061.167.06a.4.4 0 0 0 .166-.033v-.068a.4.4 0 0 1-.162.041q-.074.001-.114-.037a.17.17 0 0 1-.045-.118h.336v-.034a.23.23 0 0 0-.052-.158.18.18 0 0 0-.14-.057m.533 0a.2.2 0 0 0-.087.019.16.16 0 0 0-.06.06v-.068h-.077v.443h.076v-.235q-.002-.074.03-.113a.12.12 0 0 1 .098-.042l.03.004q.016.004.027.011V4.88l-.02-.004zm1.141 0a.4.4 0 0 0-.15.03v.068a.3.3 0 0 1 .143-.038q.058 0 .09.027a.1.1 0 0 1 .035.08v.007h-.102q-.099 0-.148.038a.14.14 0 0 0-.052.113q0 .064.041.102a.16.16 0 0 0 .11.038.2.2 0 0 0 .09-.019.16.16 0 0 0 .061-.06v.068h.076v-.254q0-.102-.049-.151-.046-.05-.144-.05zm.564 0a.2.2 0 0 0-.09.019.15.15 0 0 0-.06.06v-.068h-.074v.443h.072v-.235q.001-.074.034-.113a.12.12 0 0 1 .095-.042q.018 0 .034.004c.016.004.018.007.026.011V4.88l-.023-.004zm1.867 0a.2.2 0 0 0-.125.034.11.11 0 0 0-.045.094q0 .053.03.084c.03.031.053.032.098.041l.027.008q.067.015.087.03t.02.045a.05.05 0 0 1-.028.05.15.15 0 0 1-.08.018.4.4 0 0 1-.159-.042v.076a.6.6 0 0 0 .16.027q.085.001.132-.034a.12.12 0 0 0 .05-.099q0-.055-.03-.087a.25.25 0 0 0-.114-.045l-.023-.007a.3.3 0 0 1-.08-.027.04.04 0 0 1-.018-.038.06.06 0 0 1 .026-.053.2.2 0 0 1 .083-.015.3.3 0 0 1 .133.03v-.068a.3.3 0 0 0-.065-.018q-.037-.005-.08-.004zm1.452 0a.16.16 0 0 0-.08.019.2.2 0 0 0-.064.06v-.068h-.072v.443h.072v-.25q-.001-.065.034-.102a.12.12 0 0 1 .095-.038q.051 0 .075.03.024.032.023.095v.265h.076v-.269h-.004q0-.092-.038-.14-.04-.046-.117-.045m.81 0a.2.2 0 0 0-.16.064.25.25 0 0 0-.06.174q0 .105.064.166.06.061.166.06a.4.4 0 0 0 .166-.033v-.068a.4.4 0 0 1-.162.041q-.073.001-.114-.037a.17.17 0 0 1-.045-.118h.336v-.034a.23.23 0 0 0-.052-.158.18.18 0 0 0-.14-.057m.532 0a.2.2 0 0 0-.087.019.15.15 0 0 0-.06.06v-.068h-.077v.443h.076v-.235q-.002-.074.03-.113a.12.12 0 0 1 .098-.042l.03.004q.016.004.027.011V4.88l-.02-.004zm.313 0a.2.2 0 0 0-.083.019.2.2 0 0 0-.06.06v-.068h-.072v.443h.071v-.25a.14.14 0 0 1 .035-.102.12.12 0 0 1 .094-.038q.05 0 .076.03.024.032.023.095v.265h.071v-.269q.002-.092-.038-.14-.039-.046-.117-.045m.488 0a.2.2 0 0 0-.159.064.25.25 0 0 0-.057.174q0 .105.061.166.064.061.17.06a.4.4 0 0 0 .083-.007.4.4 0 0 0 .08-.026v-.068a.4.4 0 0 1-.16.041q-.07.001-.113-.037a.17.17 0 0 1-.045-.118h.337v-.034a.23.23 0 0 0-.053-.158.18.18 0 0 0-.144-.057m.537 0a.2.2 0 0 0-.09.019.15.15 0 0 0-.062.06v-.068h-.07v.443h.07v-.235q.001-.074.035-.113a.12.12 0 0 1 .094-.042l.03.004q.016.004.03.011V4.88l-.022-.004zm.616 0a.2.2 0 0 0-.159.064.25.25 0 0 0-.057.174q0 .105.06.166.065.061.171.06a.4.4 0 0 0 .083-.007.4.4 0 0 0 .08-.026v-.068a.34.34 0 0 1-.16.041q-.07.001-.113-.037a.17.17 0 0 1-.045-.118h.337v-.034a.23.23 0 0 0-.053-.158.18.18 0 0 0-.144-.057m.537 0a.2.2 0 0 0-.09.019.14.14 0 0 0-.058.06v-.068h-.076v.443h.076v-.235q-.001-.074.03-.113a.12.12 0 0 1 .095-.042q.017 0 .034.004c.017.004.018.007.026.011V4.88l-.019-.004zm-13.13.011v.443h.076v-.443zm7.478 0v.443h.071v-.443zm1.38 0v.443h.071v-.443zm-7.61.05q.054 0 .087.037a.14.14 0 0 1 .034.095h-.26a.15.15 0 0 1 .041-.098.14.14 0 0 1 .1-.034zm1.338 0q.055 0 .087.037a.14.14 0 0 1 .035.095h-.26a.15.15 0 0 1 .041-.098.14.14 0 0 1 .098-.034zm1.153 0q.055 0 .087.037a.13.13 0 0 1 .034.095h-.26a.15.15 0 0 1 .04-.098.14.14 0 0 1 .1-.034zm2.507 0q.057 0 .09.045.035.047.035.128a.2.2 0 0 1-.035.125q-.033.045-.09.045c-.057 0-.068-.014-.09-.045a.2.2 0 0 1-.035-.125.22.22 0 0 1 .034-.128.1.1 0 0 1 .09-.046zm3.86 0q.053 0 .086.037a.14.14 0 0 1 .035.095h-.26a.15.15 0 0 1 .041-.098.14.14 0 0 1 .098-.034m1.338 0q.051 0 .083.037a.14.14 0 0 1 .034.095h-.26a.15.15 0 0 1 .045-.098.14.14 0 0 1 .098-.034m1.153 0q.053 0 .087.037a.14.14 0 0 1 .034.095h-.26a.15.15 0 0 1 .041-.098.14.14 0 0 1 .098-.034m-7.137.17h.071v.015a.18.18 0 0 1-.034.117.12.12 0 0 1-.099.041.1.1 0 0 1-.07-.022q-.025-.023-.024-.06 0-.05.035-.073.033-.019.12-.018zm-5.46.415v.091h.076v-.09zm6.37 0v.239a.15.15 0 0 0-.06-.057.2.2 0 0 0-.083-.019.16.16 0 0 0-.133.064.27.27 0 0 0-.049.17q0 .104.05.167a.16.16 0 0 0 .132.064.2.2 0 0 0 .083-.019.16.16 0 0 0 .06-.057v.065h.072v-.617zm1.108 0v.091h.072v-.09zm.647 0v.617h.075v-.216l.223.216h.098l-.245-.235.234-.208h-.094l-.216.19v-.364zm.733 0v.091h.072v-.09zm-4.207.023v.594h.08v-.28h.29v.28h.08v-.594h-.08v.246h-.29v-.246zm2.203 0v.594h.167q.172 0 .253-.072c.081-.072.08-.121.08-.223s-.026-.18-.08-.227q-.08-.072-.253-.072zm-6.112.023v.128h-.053v.057h.053v.238q0 .085.033.117.032.03.114.03h.075v-.06h-.075q-.045 0-.06-.015c-.015-.015-.013-.036-.013-.072v-.238h.148v-.057h-.148v-.128zm2.491 0v.128H19.3v.057h.053v.238q0 .085.03.117c.03.032.06.03.117.03h.076v-.06H19.5q-.045 0-.06-.015c-.015-.015-.016-.036-.016-.072v-.238h.151v-.057h-.15v-.128zm6.366 0v.128h-.053v.057h.053v.238q0 .085.03.117c.03.032.06.03.117.03h.076v-.06h-.076q-.045 0-.06-.015c-.015-.015-.016-.036-.016-.072v-.238h.151v-.057h-.15v-.128zm2.491 0v.128h-.057v.057h.057v.238q0 .085.03.117c.03.032.06.03.117.03h.076v-.06h-.076q-.045 0-.06-.015c-.015-.015-.016-.036-.016-.072v-.238h.151v-.057h-.15v-.128zm-5.156.045h.098q.122 0 .178.057c.056.057.06.094.06.174s-.022.137-.06.174-.096.056-.178.056h-.098zm-6.49.072a.2.2 0 0 0-.084.019.2.2 0 0 0-.06.06v-.068h-.076v.443h.075v-.25a.14.14 0 0 1 .035-.102.11.11 0 0 1 .09-.038q.05 0 .076.03.026.032.026.095v.265h.072V5.87a.2.2 0 0 0-.042-.14q-.038-.046-.113-.045zm.804 0a.2.2 0 0 0-.158.064.25.25 0 0 0-.06.174q0 .105.063.166.062.061.167.06c.028 0 .06 0 .087-.007a.4.4 0 0 0 .08-.026v-.068a.4.4 0 0 1-.16.041q-.072.001-.113-.037a.17.17 0 0 1-.046-.118h.333V5.9a.23.23 0 0 0-.053-.158.18.18 0 0 0-.14-.057m.537 0a.2.2 0 0 0-.09.019.16.16 0 0 0-.06.06v-.068h-.073v.443h.072v-.235q0-.074.034-.113a.12.12 0 0 1 .095-.042l.03.004q.015.004.026.011v-.075l-.019-.004zm.31 0a.16.16 0 0 0-.08.019.2.2 0 0 0-.064.06v-.068h-.07v.443h.07v-.25q.002-.064.038-.102a.11.11 0 0 1 .091-.038q.05 0 .076.03.024.032.022.095v.265h.076V5.87a.2.2 0 0 0-.042-.14q-.039-.046-.117-.045m.488 0a.2.2 0 0 0-.159.064.25.25 0 0 0-.057.174q0 .105.06.166.064.061.17.06a.4.4 0 0 0 .084-.007.4.4 0 0 0 .08-.026v-.068a.34.34 0 0 1-.16.041q-.072.001-.113-.037a.17.17 0 0 1-.045-.118h.336V5.9a.23.23 0 0 0-.052-.158.18.18 0 0 0-.144-.057m.537 0a.2.2 0 0 0-.09.019.14.14 0 0 0-.058.06v-.068h-.076v.443h.076v-.235q-.002-.074.03-.113a.12.12 0 0 1 .094-.042q.018 0 .035.004.015.004.026.011v-.075l-.019-.004zm.62 0a.2.2 0 0 0-.16.064.25.25 0 0 0-.06.174q.001.105.065.166.06.061.166.06a.4.4 0 0 0 .166-.033v-.068a.4.4 0 0 1-.162.041q-.073.001-.114-.037a.17.17 0 0 1-.045-.118h.336V5.9A.23.23 0 0 0 20 5.742a.18.18 0 0 0-.14-.057m.533 0a.2.2 0 0 0-.087.019.16.16 0 0 0-.06.06v-.068h-.077v.443h.076v-.235q-.002-.074.03-.113a.12.12 0 0 1 .098-.042l.03.004q.016.004.027.011v-.075l-.02-.004zm1.141 0a.4.4 0 0 0-.15.03v.068a.3.3 0 0 1 .144-.038c.04 0 .067.008.09.027a.1.1 0 0 1 .034.08v.007h-.102q-.099 0-.148.038a.14.14 0 0 0-.052.113q0 .064.041.102a.16.16 0 0 0 .11.038.2.2 0 0 0 .09-.019.16.16 0 0 0 .061-.06v.067h.076v-.253q0-.102-.049-.151-.047-.05-.144-.05zm.564 0a.2.2 0 0 0-.09.019.15.15 0 0 0-.06.06v-.068h-.074v.443h.072v-.235q.001-.074.034-.113a.12.12 0 0 1 .095-.042l.034.004q.015.004.026.011v-.075l-.023-.004zm1.867 0a.2.2 0 0 0-.125.034.11.11 0 0 0-.045.094q0 .053.03.084c.03.031.053.032.098.041l.027.008q.067.015.087.03t.02.045a.05.05 0 0 1-.028.05.15.15 0 0 1-.08.018.4.4 0 0 1-.159-.042v.076a.6.6 0 0 0 .16.027q.085.001.132-.034a.12.12 0 0 0 .05-.099q0-.055-.03-.087a.25.25 0 0 0-.114-.045l-.023-.007a.3.3 0 0 1-.08-.027.04.04 0 0 1-.018-.038.06.06 0 0 1 .026-.053.2.2 0 0 1 .083-.015.3.3 0 0 1 .133.03v-.068a.3.3 0 0 0-.065-.018q-.037-.005-.08-.004zm1.452 0a.16.16 0 0 0-.08.019.2.2 0 0 0-.064.06v-.068h-.072v.443h.072v-.25q-.001-.064.034-.102a.12.12 0 0 1 .095-.038q.051 0 .075.03.024.032.023.095v.265h.076V5.87h-.004q0-.092-.038-.14-.04-.046-.117-.045m.81 0a.2.2 0 0 0-.16.064.25.25 0 0 0-.06.174q0 .105.064.166.06.061.166.06a.4.4 0 0 0 .166-.033v-.068a.4.4 0 0 1-.162.041q-.073.001-.114-.037a.17.17 0 0 1-.045-.118h.336V5.9a.23.23 0 0 0-.052-.158.18.18 0 0 0-.14-.057m.532 0a.2.2 0 0 0-.087.019.15.15 0 0 0-.06.06v-.068h-.077v.443h.076v-.235q-.002-.074.03-.113a.12.12 0 0 1 .098-.042l.03.004q.016.004.027.011v-.075l-.02-.004zm.313 0a.2.2 0 0 0-.083.019.2.2 0 0 0-.06.06v-.068h-.072v.443h.072v-.25q-.001-.064.034-.102a.12.12 0 0 1 .094-.038q.05 0 .076.03.024.032.023.095v.265h.071V5.87q.002-.092-.038-.14-.039-.046-.117-.045m.488 0a.2.2 0 0 0-.159.064.25.25 0 0 0-.057.174q0 .105.061.166.064.061.17.06a.4.4 0 0 0 .083-.007.4.4 0 0 0 .08-.026v-.068a.4.4 0 0 1-.16.041q-.07.001-.113-.037a.17.17 0 0 1-.045-.118h.337V5.9a.23.23 0 0 0-.053-.158.18.18 0 0 0-.144-.057m.537 0a.2.2 0 0 0-.09.019.15.15 0 0 0-.062.06v-.068h-.07v.443h.07v-.235q.001-.074.035-.113a.12.12 0 0 1 .094-.042l.03.004q.017.004.03.011v-.075l-.022-.004zm.616 0a.2.2 0 0 0-.159.064.25.25 0 0 0-.057.174q0 .105.06.166.065.061.171.06a.4.4 0 0 0 .083-.007.4.4 0 0 0 .08-.026v-.068a.34.34 0 0 1-.16.041q-.071.001-.112-.037a.17.17 0 0 1-.046-.118h.337V5.9a.23.23 0 0 0-.053-.158.18.18 0 0 0-.144-.057m.537 0a.2.2 0 0 0-.09.019.14.14 0 0 0-.058.06v-.068h-.076v.443h.076v-.235q-.002-.074.03-.113a.12.12 0 0 1 .095-.042c.01 0 .024.002.034.004s.018.007.026.011v-.075l-.019-.004zm-13.13.011v.443h.076v-.443zm7.478 0v.443h.072v-.443zm1.38 0v.443h.071v-.443zm-7.61.05q.054 0 .087.037a.14.14 0 0 1 .035.095h-.26a.15.15 0 0 1 .04-.098.14.14 0 0 1 .1-.035zm1.338 0q.055 0 .087.037a.14.14 0 0 1 .035.095h-.26a.15.15 0 0 1 .041-.098.14.14 0 0 1 .098-.035zm1.153 0q.055 0 .087.037a.13.13 0 0 1 .034.095h-.26a.15.15 0 0 1 .041-.098.14.14 0 0 1 .098-.035zm2.507 0q.057 0 .09.045.035.047.035.128a.2.2 0 0 1-.035.125q-.033.045-.09.045c-.057 0-.068-.014-.09-.045a.2.2 0 0 1-.035-.125.22.22 0 0 1 .034-.128.1.1 0 0 1 .09-.046zm3.86 0q.054 0 .086.037a.14.14 0 0 1 .035.095h-.26a.15.15 0 0 1 .041-.098.14.14 0 0 1 .098-.035zm1.338 0q.051 0 .083.037a.14.14 0 0 1 .034.095h-.26a.15.15 0 0 1 .045-.098.14.14 0 0 1 .098-.035zm1.153 0q.053 0 .087.037a.14.14 0 0 1 .034.095h-.26a.15.15 0 0 1 .041-.098.14.14 0 0 1 .098-.035zm-7.137.17h.071v.015a.18.18 0 0 1-.034.117.12.12 0 0 1-.098.041.1.1 0 0 1-.072-.022q-.024-.023-.023-.06 0-.05.035-.073.033-.019.12-.018zm-5.46.415v.091h.076v-.09zm6.37 0v.239a.15.15 0 0 0-.06-.057.2.2 0 0 0-.083-.019.16.16 0 0 0-.133.064.27.27 0 0 0-.049.17q0 .104.05.167a.16.16 0 0 0 .132.064.2.2 0 0 0 .083-.019.16.16 0 0 0 .06-.057v.065h.072v-.617zm1.108 0v.091h.072v-.09zm.647 0v.617h.075v-.216l.223.216h.1l-.247-.235.234-.208h-.094l-.216.19v-.364zm.733 0v.091h.072v-.09zm-4.207.023v.594h.08v-.28h.29v.28h.08v-.594h-.08V6.6h-.29v-.246zm2.203 0v.594h.167q.172 0 .253-.072.08-.071.08-.223c0-.152-.026-.18-.08-.227q-.08-.072-.253-.072zm-6.112.023v.128h-.053v.057h.053V6.8q0 .085.033.117.032.03.114.03h.075v-.06h-.075q-.045 0-.06-.015c-.015-.015-.013-.036-.013-.072v-.238h.148v-.057h-.148v-.128zm2.491 0v.128h-.053v.057h.053V6.8q0 .085.03.117c.03.032.06.03.117.03h.076v-.06h-.076q-.045 0-.06-.015c-.015-.015-.016-.036-.016-.072v-.238h.151v-.057h-.15v-.128zm6.366 0v.128h-.053v.057h.053V6.8q0 .085.03.117c.03.032.06.03.117.03h.076v-.06h-.076q-.045 0-.06-.015c-.015-.015-.016-.036-.016-.072v-.238h.151v-.057h-.15v-.128zm2.491 0v.128h-.057v.057h.057V6.8q0 .085.03.117c.03.032.06.03.117.03h.076v-.06h-.076q-.045 0-.06-.015c-.015-.015-.016-.036-.016-.072v-.238h.151v-.057h-.15v-.128zm2.764 0v.128h-.058v.057h.058V6.8q-.001.085.03.117.03.03.117.03h.075v-.06h-.075q-.045 0-.06-.015-.016-.016-.016-.072v-.238h.15v-.057h-.15v-.128zm-7.92.045h.098q.122 0 .178.057c.056.057.06.094.06.174s-.022.137-.06.174-.096.056-.178.056h-.098zm-6.49.072a.2.2 0 0 0-.084.019.2.2 0 0 0-.06.06v-.068h-.076v.443h.075v-.25a.14.14 0 0 1 .035-.102.11.11 0 0 1 .09-.038q.05 0 .076.03.026.032.026.095v.265h.072v-.269a.2.2 0 0 0-.042-.14q-.038-.046-.113-.045zm.804 0a.2.2 0 0 0-.158.064.25.25 0 0 0-.06.174q0 .105.063.166.062.061.167.06c.028 0 .06 0 .087-.007a.4.4 0 0 0 .08-.026v-.068a.4.4 0 0 1-.16.041q-.072.001-.113-.037a.17.17 0 0 1-.046-.118h.333v-.034a.23.23 0 0 0-.053-.158.18.18 0 0 0-.14-.057m.537 0a.2.2 0 0 0-.09.019.16.16 0 0 0-.06.06v-.068h-.073v.443h.072v-.235q0-.074.034-.113a.12.12 0 0 1 .095-.042l.03.004q.015.004.026.011v-.075l-.019-.004zm.31 0a.16.16 0 0 0-.08.019.2.2 0 0 0-.064.06v-.068H18v.443h.07v-.25q.002-.064.038-.102a.11.11 0 0 1 .091-.038q.05 0 .076.03.024.032.023.095v.265h.075v-.269a.2.2 0 0 0-.042-.14q-.039-.046-.117-.045m.488 0a.2.2 0 0 0-.159.064.25.25 0 0 0-.057.174q0 .105.06.166.064.061.17.06a.4.4 0 0 0 .084-.007.4.4 0 0 0 .08-.026v-.068a.34.34 0 0 1-.16.041q-.072.001-.113-.037a.17.17 0 0 1-.045-.118h.336v-.034a.23.23 0 0 0-.052-.158.18.18 0 0 0-.144-.057m.537 0a.2.2 0 0 0-.09.019.14.14 0 0 0-.058.06v-.068h-.076v.443h.076v-.235q-.002-.074.03-.113a.12.12 0 0 1 .094-.042q.017 0 .035.004.015.004.026.011v-.075l-.019-.004zm.62 0a.2.2 0 0 0-.16.064.25.25 0 0 0-.06.174q.001.105.065.166.06.061.166.06a.4.4 0 0 0 .166-.033v-.068a.4.4 0 0 1-.162.041q-.073.001-.114-.037a.17.17 0 0 1-.045-.118h.336v-.034a.23.23 0 0 0-.052-.158.18.18 0 0 0-.14-.057m.533 0a.2.2 0 0 0-.087.019.16.16 0 0 0-.06.06v-.068h-.077v.443h.076v-.235q-.002-.074.03-.113a.12.12 0 0 1 .098-.042l.03.004q.016.004.027.011v-.075l-.02-.004zm1.141 0a.4.4 0 0 0-.15.03v.068a.3.3 0 0 1 .144-.038c.04 0 .067.008.09.027a.1.1 0 0 1 .034.08v.007h-.102q-.099 0-.148.038a.14.14 0 0 0-.052.113q0 .064.041.102a.16.16 0 0 0 .11.038.2.2 0 0 0 .09-.019.16.16 0 0 0 .061-.06v.067h.076v-.253q0-.102-.049-.151-.046-.05-.144-.05zm.564 0a.2.2 0 0 0-.09.019.15.15 0 0 0-.06.06v-.068h-.074v.443h.072v-.235q.001-.074.035-.113a.12.12 0 0 1 .094-.042l.034.004q.015.004.026.011v-.075l-.023-.004zm1.867 0a.2.2 0 0 0-.125.034.11.11 0 0 0-.045.094q0 .053.03.084c.03.031.053.035.098.045l.027.004q.067.015.087.03.02.016.02.045a.05.05 0 0 1-.028.05.15.15 0 0 1-.08.018.4.4 0 0 1-.159-.042v.076a.6.6 0 0 0 .16.027q.085.001.132-.034a.12.12 0 0 0 .05-.098q0-.056-.03-.087a.25.25 0 0 0-.114-.046l-.023-.007a.3.3 0 0 1-.08-.027.04.04 0 0 1-.018-.038.06.06 0 0 1 .026-.052.2.2 0 0 1 .083-.016.3.3 0 0 1 .133.03v-.067a.3.3 0 0 0-.065-.02q-.037-.004-.08-.003zm1.452 0a.16.16 0 0 0-.08.019.2.2 0 0 0-.064.06v-.068H25.2v.443h.072v-.25q-.001-.064.034-.102a.12.12 0 0 1 .095-.038q.051 0 .075.03.024.032.023.095v.265h.076v-.269h-.004q0-.092-.038-.14-.04-.046-.117-.045m.81 0a.2.2 0 0 0-.16.064.25.25 0 0 0-.06.174q0 .105.064.166.06.061.166.06a.4.4 0 0 0 .166-.033v-.068a.4.4 0 0 1-.162.041q-.073.001-.114-.037a.17.17 0 0 1-.045-.118h.336v-.034a.23.23 0 0 0-.052-.158.18.18 0 0 0-.14-.057m.532 0a.2.2 0 0 0-.087.019.15.15 0 0 0-.06.06v-.068h-.077v.443h.076v-.235q-.002-.074.03-.113a.12.12 0 0 1 .098-.042l.03.004q.016.004.027.011v-.075l-.02-.004zm.313 0a.2.2 0 0 0-.083.019.2.2 0 0 0-.06.06v-.068h-.072v.443h.072v-.25q-.001-.064.034-.102a.12.12 0 0 1 .094-.038q.05 0 .076.03.024.032.023.095v.265h.071v-.269q.002-.092-.038-.14-.039-.046-.117-.045m.488 0a.2.2 0 0 0-.159.064.25.25 0 0 0-.057.174q0 .105.061.166.064.061.17.06a.4.4 0 0 0 .083-.007.4.4 0 0 0 .08-.026v-.068a.4.4 0 0 1-.16.041q-.07.001-.113-.037a.17.17 0 0 1-.045-.118h.337v-.034a.23.23 0 0 0-.053-.158.18.18 0 0 0-.144-.057m.537 0a.2.2 0 0 0-.09.019.15.15 0 0 0-.062.06v-.068h-.07v.443h.07v-.235q.001-.074.035-.113a.12.12 0 0 1 .094-.042l.03.004q.017.004.03.011v-.075l-.022-.004zm.616 0a.2.2 0 0 0-.159.064.25.25 0 0 0-.057.174q0 .105.06.166.065.061.171.06a.4.4 0 0 0 .083-.007.4.4 0 0 0 .08-.026v-.068a.34.34 0 0 1-.16.041q-.071.001-.112-.037a.17.17 0 0 1-.046-.118h.337v-.034a.23.23 0 0 0-.053-.158.18.18 0 0 0-.144-.057m.537 0a.2.2 0 0 0-.09.019.14.14 0 0 0-.058.06v-.068h-.076v.443h.076v-.235q-.002-.074.03-.113a.12.12 0 0 1 .095-.042q.017 0 .034.004c.017.004.018.007.026.011v-.075l-.019-.004zm.586 0a.2.2 0 0 0-.083.019.2.2 0 0 0-.06.06v-.068h-.073v.443h.072v-.25q-.001-.064.034-.102a.12.12 0 0 1 .095-.038q.051 0 .075.03.024.032.023.095v.265h.072v-.269q0-.092-.038-.14-.04-.046-.118-.045zm.487 0a.2.2 0 0 0-.158.064.25.25 0 0 0-.057.174q0 .105.06.166.064.061.17.06a.4.4 0 0 0 .084-.007.4.4 0 0 0 .08-.026v-.068a.4.4 0 0 1-.16.041q-.072.001-.113-.037a.17.17 0 0 1-.046-.118h.337v-.034a.23.23 0 0 0-.053-.158.18.18 0 0 0-.143-.057zm.537 0a.2.2 0 0 0-.09.019.16.16 0 0 0-.06.06v-.068h-.073v.443h.072v-.235q0-.074.034-.113a.12.12 0 0 1 .095-.042l.03.004q.017.004.03.011v-.075l-.023-.004zm.616 0a.2.2 0 0 0-.158.064.25.25 0 0 0-.057.174q0 .105.06.166.064.061.17.06a.4.4 0 0 0 .084-.007.4.4 0 0 0 .08-.026v-.068a.34.34 0 0 1-.16.041q-.072.001-.113-.037a.17.17 0 0 1-.046-.118h.337v-.034a.23.23 0 0 0-.053-.158.18.18 0 0 0-.143-.057zm.537 0a.2.2 0 0 0-.09.019.15.15 0 0 0-.06.06v-.068h-.073v.443h.072v-.235q0-.074.033-.113a.12.12 0 0 1 .095-.042q.017 0 .034.004c.017.004.02.007.027.011v-.075l-.02-.004zm-15.892.011v.443h.076v-.443zm7.477 0v.443h.072v-.443zm1.38 0v.443h.072v-.443zm-7.61.05q.055 0 .087.037a.14.14 0 0 1 .035.095h-.26a.15.15 0 0 1 .041-.099.14.14 0 0 1 .098-.034zm1.34 0q.053 0 .086.037a.14.14 0 0 1 .034.095h-.26a.15.15 0 0 1 .041-.099.14.14 0 0 1 .098-.034zm1.152 0q.054 0 .087.037a.13.13 0 0 1 .033.095h-.26a.15.15 0 0 1 .041-.099.14.14 0 0 1 .1-.034zm2.506 0q.059 0 .09.045.035.047.035.128a.2.2 0 0 1-.034.125q-.034.045-.09.045c-.056 0-.069-.014-.092-.045a.2.2 0 0 1-.034-.125.22.22 0 0 1 .034-.128.1.1 0 0 1 .091-.046zm3.86 0q.054 0 .087.037a.14.14 0 0 1 .034.095h-.26a.15.15 0 0 1 .04-.099.14.14 0 0 1 .1-.034zm1.338 0q.052 0 .083.037a.14.14 0 0 1 .035.095h-.26a.15.15 0 0 1 .044-.099.14.14 0 0 1 .098-.034zm1.153 0q.054 0 .087.037a.14.14 0 0 1 .034.095h-.26a.15.15 0 0 1 .041-.099.14.14 0 0 1 .098-.034zm1.61 0q.053 0 .084.037a.13.13 0 0 1 .033.095h-.26a.15.15 0 0 1 .045-.099.14.14 0 0 1 .098-.034zm1.153 0q.054 0 .087.037a.14.14 0 0 1 .035.095h-.26a.15.15 0 0 1 .041-.099.14.14 0 0 1 .098-.034zm-9.9.17h.071v.015q.002.072-.034.117a.12.12 0 0 1-.098.041.1.1 0 0 1-.072-.022q-.024-.023-.023-.06 0-.05.035-.073.033-.019.12-.018z"/><path fill="#8b8789" d="m49.997 6.23-36.453.146v.386l36.453-.254z" style="paint-order:fill markers stroke" transform="translate(.397 -5)"/><path fill="#423d3f" d="m12.998 9.451.491-7.279.48-.832-.35 7.526z"/><path fill="#463d40" d="m40.496 9.806.492-.791-.62 3.229-.385.385z"/></g><g stroke-width=".859" transform="translate(.397 -5)"><ellipse cx="32.42" cy="31.999" opacity=".05" rx="13.312" ry="7.88"/><ellipse cx="32.42" cy="31.999" opacity=".05" rx="13.097" ry="7.665"/><ellipse cx="32.42" cy="31.999" opacity=".1" rx="12.882" ry="7.477"/><ellipse cx="32.42" cy="31.999" opacity=".1" rx="12.668" ry="7.264"/><ellipse cx="32.42" cy="31.57" opacity=".5" rx="12.404" ry="7.038"/><path fill="url(#v)" d="M20.232 29.311v2.07h.007a12.189 6.916 0 0 0 6.087 5.821 12.189 6.916 0 0 0 12.188 0 12.189 6.916 0 0 0 6.08-5.82h.015V29.31H20.232z"/><ellipse cx="32.42" cy="29.422" fill="url(#w)" rx="12.189" ry="6.916"/><path fill="#e5eef3" d="M44.597 29.594a12.189 6.916 0 0 1-12.177 6.78 12.189 6.916 0 0 1-12.177-6.725 12.189 6.916 0 0 0-.012.136 12.189 6.916 0 0 0 12.19 6.917 12.189 6.916 0 0 0 12.187-6.917 12.189 6.916 0 0 0-.011-.19z" opacity=".6"/></g><path d="M32.815 19.502a8.854 4.918 0 0 0-8.853 4.919 8.854 4.918 0 0 0 8.853 4.919 8.854 4.918 0 0 0 8.856-4.919 8.854 4.918 0 0 0-8.856-4.919m-.148.432a8.346 4.487 0 0 1 .148 0 8.346 4.487 0 0 1 8.348 4.487 8.346 4.487 0 0 1-8.348 4.486 8.346 4.487 0 0 1-8.345-4.486 8.346 4.487 0 0 1 8.197-4.487" opacity=".15"/><path fill="url(#x)" d="m3.505 41.756-.019.185c-.307 2.965 2.4 5.38 5.38 5.38H55.93c2.98 0 5.686-2.415 5.38-5.38l-.016-.162c-.288 2.51-2.712 4.426-5.365 4.426H8.865c-2.66 0-5.084-1.928-5.36-4.449"/><path fill="url(#y)" d="m3.505 51.434-.019.185C3.18 54.584 5.886 57 8.867 57h47.064c2.98 0 5.686-2.415 5.38-5.38l-.016-.162c-.288 2.51-2.712 4.426-5.365 4.426H8.865c-2.66 0-5.084-1.928-5.36-4.449z"/><ellipse cx="7.796" cy="42.614" fill="#233242" rx="1.284" ry="1.052" style="paint-order:fill markers stroke"/><ellipse cx="7.8" cy="42.542" fill="#c2dfea" rx="1.239" ry=".927" style="paint-order:fill markers stroke"/><path fill="#1a1c20" d="M7.826 41.844a.139.605 2.576 0 0-.148.404.766.139 23.938 0 0-.578-.11.766.139 23.938 0 0 .382.315.139.766 66.062 0 0-.382.31.139.766 66.062 0 0 .56-.106.139.605 2.576 0 0 .11.397.139.605 2.576 0 0 .15-.401.766.139 23.938 0 0 .58.11.766.139 23.938 0 0-.383-.31.139.766 66.062 0 0 .382-.314.139.766 66.062 0 0-.564.106.139.605 2.576 0 0-.11-.401z"/><ellipse cx="56.377" cy="42.614" fill="#233242" rx="1.284" ry="1.052" style="paint-order:fill markers stroke"/><ellipse cx="56.381" cy="42.542" fill="#c2dfea" rx="1.239" ry=".927" style="paint-order:fill markers stroke"/><path fill="#1a1c20" d="M56.407 41.844a.139.605 2.576 0 0-.147.404.766.139 23.938 0 0-.579-.11.766.139 23.938 0 0 .382.315.139.766 66.062 0 0-.382.31.139.766 66.062 0 0 .56-.106.139.605 2.576 0 0 .11.397.139.605 2.576 0 0 .15-.401.766.139 23.938 0 0 .579.11.766.139 23.938 0 0-.382-.31.139.766 66.062 0 0 .382-.314.139.766 66.062 0 0-.563.106.139.605 2.576 0 0-.11-.401"/><ellipse cx="8.908" cy="19.369" fill="#233242" rx="1.284" ry="1.052" style="paint-order:fill markers stroke"/><ellipse cx="8.912" cy="19.297" fill="#99acb5" rx="1.239" ry=".927" style="paint-order:fill markers stroke"/><path fill="#1a1c20" d="M8.937 18.599a.139.605 2.576 0 0-.147.404.766.139 23.938 0 0-.578-.11.766.139 23.938 0 0 .382.315.139.766 66.062 0 0-.382.31.139.766 66.062 0 0 .56-.106.139.605 2.576 0 0 .11.397.139.605 2.576 0 0 .15-.401.766.139 23.938 0 0 .58.11.766.139 23.938 0 0-.383-.31.139.766 66.062 0 0 .382-.314.139.766 66.062 0 0-.564.106.139.605 2.576 0 0-.11-.401"/><ellipse cx="55.5" cy="19.369" fill="#233242" rx="1.284" ry="1.052" style="paint-order:fill markers stroke"/><ellipse cx="55.503" cy="19.297" fill="#99acb5" rx="1.239" ry=".927" style="paint-order:fill markers stroke"/><path fill="#1a1c20" d="M55.529 18.599a.139.605 2.576 0 0-.147.404.766.139 23.938 0 0-.579-.11.766.139 23.938 0 0 .382.315.139.766 66.062 0 0-.382.31.139.766 66.062 0 0 .56-.106.139.605 2.576 0 0 .11.397.139.605 2.576 0 0 .15-.401.766.139 23.938 0 0 .579.11.766.139 23.938 0 0-.382-.31.139.766 66.062 0 0 .382-.314.139.766 66.062 0 0-.563.106.139.605 2.576 0 0-.11-.401"/><ellipse cx="11.688" cy=".176" fill="#233242" rx="1.284" ry="1.052" style="paint-order:fill markers stroke"/><ellipse cx="11.691" cy=".104" fill="#848f95" rx="1.239" ry=".927" style="paint-order:fill markers stroke"/><path fill="#1a1c20" d="M11.718-.594a.139.605 2.576 0 0-.147.404.766.139 23.938 0 0-.579-.11.766.139 23.938 0 0 .382.315.139.766 66.062 0 0-.382.31.139.766 66.062 0 0 .56-.106.139.605 2.576 0 0 .11.397.139.605 2.576 0 0 .15-.401.766.139 23.938 0 0 .579.11.766.139 23.938 0 0-.382-.31.139.766 66.062 0 0 .382-.314.139.766 66.062 0 0-.563.106.139.605 2.576 0 0-.11-.401"/><ellipse cx="53.473" cy=".176" fill="#233242" rx="1.284" ry="1.052" style="paint-order:fill markers stroke"/><ellipse cx="53.477" cy=".104" fill="#848f95" rx="1.239" ry=".927" style="paint-order:fill markers stroke"/><path fill="#1a1c20" d="M53.503-.594a.139.605 2.576 0 0-.147.404.766.139 23.938 0 0-.579-.11.766.139 23.938 0 0 .382.315.139.766 66.062 0 0-.382.31.139.766 66.062 0 0 .56-.106.139.605 2.576 0 0 .11.397.139.605 2.576 0 0 .15-.401.766.139 23.938 0 0 .579.11.766.139 23.938 0 0-.382-.31.139.766 66.062 0 0 .382-.314.139.766 66.062 0 0-.563.106.139.605 2.576 0 0-.11-.401"/><path fill="#fff" d="M35.375 3.44c-.154 0-.191.153-.28.28l-1.996 2.842c-.088.126.122.28.276.28h4.064c.154 0 .362-.152.276-.28L35.813 3.72c-.085-.128-.125-.28-.28-.28zm.034 1.058c.131 0 .235.126.235.28v.62c0 .154-.104.28-.235.28-.13 0-.238-.126-.238-.28v-.62c0-.154.107-.28.238-.28m-.015 1.346a.22.197 0 0 1 .015 0 .22.197 0 0 1 .22.196.22.197 0 0 1-.22.197.22.197 0 0 1-.219-.197.22.197 0 0 1 .204-.196"/></g></svg>