<svg xmlns="http://www.w3.org/2000/svg" width="64" height="64"><path d="M15 4.63h30c5.35 0 9.81 3.83 10.79 8.9h2.03C56.82 7.34 51.47 2.6 45 2.6H15C8.29 2.6 2.76 7.69 2.07 14.22H4.1C4.79 8.81 9.4 4.63 15 4.63M2 20.22h2v20.45H2zm43 36.35H15c-5.7 0-10.39-4.34-10.94-9.9h-2c.55 6.68 6.13 11.93 12.95 11.93h30c6.82 0 12.4-5.25 12.95-11.93h-2c-.55 5.56-5.24 9.9-10.94 9.9zm11-37.04h2v21.15h-2z" class="cls-6" style="opacity:.94;fill:#000;stroke-width:0" transform="translate(1.876 1.37)"/><path d="M53.41 13.53h2.39c-.98-5.07-5.44-8.9-10.79-8.9H15c-5.6 0-10.21 4.18-10.9 9.59h2.7c4.49 0 4.62 6 0 6H4v20.45h2.8c4.49 0 4.62 6 0 6H4.06c.55 5.56 5.24 9.9 10.94 9.9h30c5.7 0 10.39-4.34 10.94-9.9H53.4c-4.62 0-4.49-6 0-6h2.59V19.52H53.4c-4.62 0-4.49-6 0-6zM8.96 53.63c-1.08 0-1.96-.88-1.96-1.96s.88-1.96 1.96-1.96 1.96.88 1.96 1.96-.88 1.96-1.96 1.96m0-42.08C7.88 11.55 7 10.67 7 9.59s.88-1.96 1.96-1.96 1.96.88 1.96 1.96-.88 1.96-1.96 1.96m42.22 38.17c1.08 0 1.96.88 1.96 1.96s-.88 1.96-1.96 1.96-1.96-.88-1.96-1.96.88-1.96 1.96-1.96M49.23 9.59c0-1.08.88-1.96 1.96-1.96s1.96.88 1.96 1.96-.88 1.96-1.96 1.96-1.96-.88-1.96-1.96" class="cls-6" style="opacity:.94;fill:#000;stroke-width:0" transform="translate(1.876 1.37)"/><path d="M53.41 13.53h2.39c-.98-5.07-5.44-8.9-10.79-8.9H15c-5.6 0-10.21 4.18-10.9 9.59h2.7c4.49 0 4.62 6 0 6H4v20.45h2.8c4.49 0 4.62 6 0 6H4.06c.55 5.56 5.24 9.9 10.94 9.9h30c5.7 0 10.39-4.34 10.94-9.9H53.4c-4.62 0-4.49-6 0-6h2.59V19.52H53.4c-4.62 0-4.49-6 0-6zM8.96 53.63c-1.08 0-1.96-.88-1.96-1.96s.88-1.96 1.96-1.96 1.96.88 1.96 1.96-.88 1.96-1.96 1.96m0-42.08C7.88 11.55 7 10.67 7 9.59s.88-1.96 1.96-1.96 1.96.88 1.96 1.96-.88 1.96-1.96 1.96m42.22 38.17c1.08 0 1.96.88 1.96 1.96s-.88 1.96-1.96 1.96-1.96-.88-1.96-1.96.88-1.96 1.96-1.96M49.23 9.59c0-1.08.88-1.96 1.96-1.96s1.96.88 1.96 1.96-.88 1.96-1.96 1.96-1.96-.88-1.96-1.96" class="cls-2" style="opacity:.94;fill:#00b7a0;stroke-width:0" transform="translate(1.876 1.37)"/><path d="M11.81 12.42h36.37v36.37H11.81z" class="cls-7" style="fill:#424963;stroke-width:0" transform="translate(1.876 1.37)"/><path d="M15 15.6h30v30H15z" class="cls-4" style="fill:#c5d3d9;stroke-width:0" transform="translate(1.876 1.37)"/><path d="M41.48 15.6H45v30h-3.52z" class="cls-5" style="fill:#a3afb4;stroke-width:0" transform="translate(1.876 1.37)"/><path d="M23.38 43.65h-5.66c-.35 0-.63-.28-.63-.63v-5.66c0-.57.68-.85 1.08-.45l5.66 5.66c.4.4.12 1.08-.45 1.08" class="cls-7" style="fill:#424963;stroke-width:0" transform="translate(1.876 1.37)"/><path d="M14.82 2.6h30.37c1.66 0 3 1.34 3 3v1.5H11.81V5.6c0-1.66 1.34-3 3-3zm-3.01 50.97h36.37v2.02c0 1.66-1.35 3.01-3.01 3.01H15.08c-1.8 0-3.27-1.46-3.27-3.27z" class="cls-8" style="fill:#f2d178;stroke-width:0" transform="translate(1.876 1.37)"/><path d="M29.83 23.5h-.44v-.44h-.44v-4.45h.44v-.44h.44v-.44h2.67v.44h.44v.44h.44v.88h-.89v-.44h-.44v-.44h-1.78v.44h-.44v3.56h.44v.44h1.78v-.44h.44v-.44h.89v.89h-.44v.44h-.44v.44h-2.67zm4.36.45v-6.23h3.56v.44h.44v.44h.44v1.78h-.44v.44h-.44v.44h-2.66v2.67h-.9zm.9-3.56h2.21v-.44h.44v-.89h-.44v-.44h-2.21v1.78zm5.25 3.11h-.44v-.44h-.44v-5.34h.89v4.89h.44v.44h1.78v-.44h.44v-4.89h.88v5.34h-.44v.44h-.44v.44h-2.67z" class="cls-1" style="fill:#000;stroke-width:0" transform="translate(1.876 1.37)"/><path d="M15 15.6h26.67v.54H15z" class="cls-5" style="fill:#a3afb4;stroke-width:0" transform="translate(1.876 1.37)"/><path d="M.27 30.33h30v.54h-30z" class="cls-5" style="fill:#a3afb4;stroke-width:0" transform="rotate(90 15.523 32.223)"/><path d="M45.27 31.15v2.72h-2.63v.91h-2.19v.44h-2.17v-.91h-2.63v-.89h-2.17v-2.27h-1.3V29.3h-4.35v1.82h-1.31v2.3h-2.19v.91h-2.62v.89h-2.18v-.44h-2.18v-.92h-2.61v-2.73H13v-1.81h-2.18v-2.27h-1.3v-1.83h40.96v1.83h-1.31v2.26H47v1.84z" class="cls-1" style="fill:#000;stroke-width:0" transform="translate(1.876 1.37)"/><path d="M20.85 31.15v-1.83h-1.31v-1.36h-2.18v1.36h-1.3v-1.36h-1.75v1.37h1.31v1.81h1.31v1.37h1.74v1.36h1.75V32.5h1.74v-1.35zm-.86 1.35h-1.32v-1.36h-1.3v-1.82h1.3v1.82h1.32z" class="cls-3" style="fill:#636363;stroke-width:0" transform="translate(1.876 1.37)"/></svg>