<svg xmlns="http://www.w3.org/2000/svg" width="64" height="64" enable-background="new 0 0 1024 1024" image-rendering="optimizeSpeed"><defs><linearGradient id="d" x1="528.77" x2="537.94" y1="1036.3" y2="92.612" gradientTransform="translate(-1.624 -1.204) scale(.06351)" gradientUnits="userSpaceOnUse"><stop offset="0" stop-color="#351f1f"/><stop offset="1" stop-color="#352b1f" stop-opacity="0"/></linearGradient><linearGradient id="h" x1="31.926" x2="31.618" y1="26.908" y2="39.216" gradientUnits="userSpaceOnUse"><stop offset="0" stop-color="#fff"/><stop offset="1" stop-color="#d0d0d0"/></linearGradient><linearGradient id="f" x1="33.569" x2="38.583" y1="19.695" y2="21.627" gradientUnits="userSpaceOnUse"><stop offset="0" stop-color="#f4f4f4"/><stop offset="1" stop-color="#bfbfbf"/></linearGradient><linearGradient id="c" x1="7.9" x2="56.17" y1="19.867" y2="19.867" gradientUnits="userSpaceOnUse"><stop offset="0" stop-color="#fff" stop-opacity=".454"/><stop offset="1" stop-color="#fff" stop-opacity=".276"/></linearGradient><linearGradient id="b" x2="0" y1="1" y2="47" gradientTransform="translate(.696 .696) scale(1.3043)" gradientUnits="userSpaceOnUse"><stop offset="0" stop-color="#d87921"/><stop offset="1" stop-color="#e97f1b"/></linearGradient><filter id="a" width="1.072" height="1.072" x="-.036" y="-.036" color-interpolation-filters="sRGB"><feGaussianBlur stdDeviation="14.16"/></filter><filter id="g" width="1.12" height="1.12" x="-.06" y="-.06" color-interpolation-filters="sRGB"><feGaussianBlur stdDeviation=".304"/></filter><filter id="e" width="1.124" height="1.051" x="-.062" y="-.025" color-interpolation-filters="sRGB"><feGaussianBlur stdDeviation=".301"/></filter></defs><path d="M849.15 181.65c-1.1-1.15-2.2-2.25-3.3-3.35-34.35-34.35-71.3-62.25-110.9-83.75-6.7-3.65-13.45-7.1-20.65-10.55-35.05-16.75-72.5-28.85-111.9-36-3.1-.55-6.2-1.1-9.35-1.6-.3-.05-.6-.1-.85-.15-4.2-.65-8.4-1.25-12.75-1.85-4.05-.5-8.2-1-12.4-1.45-3.6-.4-7.2-.75-11-1.05-4.45-.4-9.15-.75-13.9-1-.45-.05-.85-.05-1.3-.05-9.5-.55-19.1-.8-28.8-.8-9.35 0-18.6.25-27.9.75l-5.1.3c-3.65.2-7.3.45-11 .8-6.1.5-12.2 1.1-18.25 1.85-1.8.2-3.55.4-5.2.65-43.6 5.75-84.7 17.2-123.3 34.35-3.85 1.7-7.7 3.45-11.55 5.3-47.5 22.65-91.25 54.05-131.45 94.25l-1.55 1.55c-.65.65-1.25 1.25-1.85 1.9-40.45 41.15-71.75 86.05-94 134.75-7.85 17.15-14.5 34.6-20.05 52.5q-20.8 67.2-20.8 143.05c0 128.75 44.95 238.9 134.85 330.4l3.4 3.4c3.45 3.45 6.9 6.8 10.1 9.85 37.8 35.8 78.35 63.95 121.35 84.4a729.6 729.6 0 0 0 11.55 5.3c5.55 2.45 10.8 4.65 16.1 6.75 6.45 2.6 12.6 4.85 18.8 6.95 28.6 9.8 58.2 16.7 88.4 20.65 1.9.25 3.55.45 5.2.65 11.5 1.4 22.85 2.35 34.35 2.95h.4c8.5.45 16.6.7 24.5.7h3c9.75 0 19.35-.25 28.8-.7.45-.05.85-.05 1.3-.1 2.5-.15 4.75-.3 6.95-.45 10.3-.75 20.45-1.75 30.35-3.05 7.8-1.05 15.45-2.25 22.95-3.6 1.9-.35 3.65-.7 5.4-1.05 7.95-1.55 15.8-3.3 23.4-5.15 28.9-7.25 56.6-17.2 83.1-29.75 7-3.4 13.85-6.9 20.65-10.55 25.2-13.7 49.35-30 72.4-48.85 13.25-10.9 26.05-22.5 38.5-34.95l3.3-3.3c.65-.65 1.25-1.3 1.9-1.95 22.6-23.25 42.2-47.5 58.9-72.9 17.55-26.55 31.95-54.45 43.25-83.65 3.95-10.25 7.55-20.65 10.75-31.15 11.7-38.65 18.3-79.4 19.8-122.35.2-6.05.3-12.25.3-18.5v-3c-.2-40.65-4.95-79.5-14.3-117-1.1-4.35-2.35-9-3.65-13.6-2.25-7.85-4.75-15.8-7.55-23.8-.3-.75-.6-1.65-.9-2.55a431 431 0 0 0-14.4-35.6c-2.7-5.95-5.65-12-8.75-18.05-3.8-7.4-7.95-14.95-12.3-22.4-17.95-30.55-40.05-59.7-66.5-87.65-1.45-1.5-3.05-3.15-4.65-4.8-.65-.65-1.25-1.3-1.9-1.95z" filter="url(#a)" opacity=".25" transform="translate(-.546 -.546) scale(.06356)"/><path fill="url(#b)" d="M32 2c16.569 0 30 13.431 30 30 0 16.569-13.431 30-30 30C15.431 62 2 48.569 2 32 2 15.431 15.431 2 32 2z"/><path d="M56.17 31.974v-.08h-7.685v.08c0 4.541-1.607 8.419-4.82 11.629h-.002l-.002.002v.001c-3.21 3.21-7.085 4.818-11.626 4.818-4.544 0-8.422-1.607-11.632-4.818l-.001-.001h.001v.001c-3.21-3.214-4.817-7.091-4.817-11.632v-.08H7.9v.08c0 6.663 2.356 12.35 7.066 17.066v-.001h.001l.002.001c4.712 4.713 10.4 7.07 17.066 7.07 6.662 0 12.35-2.357 17.063-7.07v-.001l-.002.001h.002c4.716-4.716 7.072-10.403 7.072-17.066z" opacity=".35"/><path fill="url(#c)" d="M31.971 7.84c-6.637.016-12.305 2.37-17.002 7.066h-.002v.002c-.022.02-.041.043-.06.065-4.653 4.68-6.987 10.32-7.007 16.922h7.686c.02-4.478 1.604-8.307 4.754-11.488l.062-.065c3.198-3.197 7.053-4.8 11.568-4.816V7.84zm.002 0v7.686h.063c4.48 0 8.316 1.564 11.503 4.69l.124.124v.002h.002c3.194 3.195 4.8 7.047 4.82 11.553h7.685c-.019-6.63-2.375-12.292-7.072-16.988h-.002l-.123-.123C44.286 10.155 38.64 7.84 32.035 7.84h-.063z"/><path fill="url(#d)" d="M46.569 46.761q6.088-6.088 6.088-14.7c0-5.741-2.03-10.642-6.088-14.7s-8.959-6.088-14.7-6.088-10.642 2.03-14.7 6.088-6.088 8.959-6.088 14.7 2.03 10.642 6.088 14.7 8.959 6.088 14.7 6.088 10.642-2.03 14.7-6.088z" opacity=".35"/><path d="m40.408 7.39-11.67 25.264 2.68 3.21 4.262-.69z" filter="url(#e)" opacity=".35"/><path fill="url(#f)" d="m40.408 7.39-11.67 25.264 2.68 3.209 4.262-.69z"/><path d="M31.926 26.908c-.851 0-1.64.153-2.367.46a6.013 6.013 0 0 0-1.934 1.321c-.825.826-1.364 1.768-1.615 2.832a6.329 6.329 0 0 0-.166 1.469c0 .8.136 1.545.406 2.234a6.003 6.003 0 0 0 1.375 2.065c1.188 1.188 2.621 1.781 4.301 1.781 1.68 0 3.111-.593 4.299-1.781 1.188-1.188 1.781-2.619 1.781-4.299 0-1.629-.559-3.03-1.68-4.2l-.101-.1a6.295 6.295 0 0 0-1.387-1.057 7.187 7.187 0 0 0-.414-.207c-.759-.346-1.59-.518-2.492-.518h-.006z" filter="url(#g)" opacity=".5"/><path fill="url(#h)" d="M31.926 26.908c-.851 0-1.64.153-2.367.46a6.013 6.013 0 0 0-1.934 1.321c-.825.826-1.364 1.768-1.615 2.832a6.329 6.329 0 0 0-.166 1.469c0 .8.136 1.545.406 2.234a6.003 6.003 0 0 0 1.375 2.065c1.188 1.188 2.621 1.781 4.301 1.781 1.68 0 3.111-.593 4.299-1.781 1.188-1.188 1.781-2.619 1.781-4.299 0-1.629-.559-3.03-1.68-4.2l-.101-.1a6.295 6.295 0 0 0-1.387-1.057 7.187 7.187 0 0 0-.414-.207c-.759-.346-1.59-.518-2.492-.518h-.006z"/></svg>