<svg width="64" height="64" xmlns="http://www.w3.org/2000/svg"><defs><linearGradient id="b" x1="408.25" x2="407.94" y1="547.6" y2="498.89" gradientTransform="translate(-510.64 -663.52) scale(1.3276)" gradientUnits="userSpaceOnUse"><stop stop-color="#fff" offset="0"/><stop stop-color="#f2f2f2" offset="1"/></linearGradient><linearGradient id="d" x1="16" x2="48" y1="32" y2="32" gradientTransform="translate(0 1.666)" gradientUnits="userSpaceOnUse"><stop stop-color="#67d388" offset="0"/><stop stop-color="#6cf5b8" offset="1"/></linearGradient><linearGradient id="e" x1="40" x2="40" y1="49" y2="14" gradientTransform="translate(0 1.666)" gradientUnits="userSpaceOnUse"><stop offset="0"/><stop stop-opacity="0" offset="1"/></linearGradient><filter id="a" x="-.036" y="-.036" width="1.072" height="1.072" color-interpolation-filters="sRGB"><feGaussianBlur stdDeviation=".89"/></filter><filter id="c" x="-.063" y="-.058" width="1.125" height="1.115" color-interpolation-filters="sRGB"><feGaussianBlur stdDeviation=".833"/></filter></defs><rect transform="translate(-389.32 -489.92) scale(1.0115)" x="386.85" y="486.31" width="59.315" height="59.315" ry="29.657" filter="url(#a)" opacity=".25"/><rect x="1.983" y="1.978" width="59.997" height="59.997" ry="29.998" fill="url(#b)"/><path d="M31.957 16.332A45.314 40.91 0 0 0 16 18.972V29.48c.076 4.956.396 9.06 2.693 12.092 2.77 3.635 7.37 6.84 13.304 9.428 5.922-2.58 10.558-5.793 13.323-9.428 2.295-3.032 2.602-7.136 2.68-12.094V19.034a45.314 40.91 0 0 0-16.04-2.702z" filter="url(#c)" opacity=".15" style="paint-order:markers stroke fill"/><path d="M31.957 16.332A45.314 40.91 0 0 0 16 18.972V29.48c.076 4.956.396 9.06 2.693 12.092 2.77 3.635 7.37 6.84 13.304 9.428 5.922-2.58 10.558-5.793 13.323-9.428 2.295-3.032 2.602-7.136 2.68-12.094V19.034a45.314 40.91 0 0 0-16.04-2.702z" fill="url(#d)" style="paint-order:markers stroke fill"/><path d="m41.658 17.361-25.066 19.23c.386 1.88 1.02 3.553 2.102 4.98 1.476 1.939 3.487 3.75 5.93 5.415L48 29.052v-10.02a45.314 40.91 0 0 0-6.341-1.672z" fill="#fff" opacity=".35"/><path d="M32 16.334V51c5.92-2.58 10.555-5.792 13.318-9.428 2.295-3.03 2.603-7.137 2.682-12.096V19.033a45.314 40.91 0 0 0-16-2.699z" fill="url(#e)" opacity=".1" style="paint-order:markers stroke fill"/></svg>