<svg xmlns="http://www.w3.org/2000/svg" xml:space="preserve" width="64" height="64" viewBox="0 0 16.933 16.933"><defs><linearGradient id="a" x1="7.937" x2="7.937" y1="15.081" y2="1.852" gradientUnits="userSpaceOnUse"><stop offset="0" stop-color="#2858e4"/><stop offset="1" stop-color="#5ab9f4"/></linearGradient></defs><rect width="15.875" height="15.875" x=".529" y=".529" fill="url(#a)" rx="7.937" ry="7.937" style="fill:#f27a22;fill-opacity:1;stroke-width:1.07138"/><path d="M7.41 14.809c-1.508-.36-2.437-.827-3.36-1.694-.825-.777-1.492-1.93-1.792-3.103-.216-.842-.22-2.24-.007-3.067.581-2.27 2.282-4.01 4.547-4.654.877-.249 2.44-.249 3.318 0 1.365.388 2.623 1.227 3.425 2.285.458.605.976 1.701 1.16 2.454.183.755.185 2.153.004 2.895-.548 2.244-2.184 3.98-4.428 4.698-.43.137-.766.178-1.627.198-.596.014-1.154.008-1.24-.012m4.34-2.591a43 43 0 0 0 1.186-.352c.037-.026-.3-1.146-.365-1.215-.03-.032-.304.026-.609.13-.411.14-.57.164-.621.097-.038-.05-.246-.544-.463-1.098A964 964 0 0 0 8.962 4.9l-.4-1.008-1.176-.021-1.176-.022v1.316l.712.022.712.022.191.59.191.588-1.743 2.82a913 913 0 0 0-1.798 2.916c-.043.075.119.097.707.097h.763l1.198-1.898a100 100 0 0 1 1.327-2.07l.13-.172.081.192c.081.189 1.47 3.705 1.63 4.13.047.123.128.206.18.186.053-.02.62-.186 1.258-.37" style="fill:#000;stroke-width:1.17126"/></svg>