<svg xmlns="http://www.w3.org/2000/svg" width="64" height="64" viewBox="0 0 16.933 16.933"><defs><linearGradient id="b" x1="8.467" x2="8.467" y1="15.867" y2="1.05" gradientTransform="translate(-.604 -.596)scale(1.0714)" gradientUnits="userSpaceOnUse"><stop offset="0" stop-color="#18dfec"/><stop offset="1" stop-color="#4c93ff"/></linearGradient><filter id="a" width="1.054" height="1.054" x="-.027" y="-.027" color-interpolation-filters="sRGB"><feGaussianBlur stdDeviation=".675"/></filter></defs><rect width="60" height="60" x="2" y="3" filter="url(#a)" opacity=".15" rx="30" ry="30" transform="scale(.26458)"/><rect width="15.875" height="15.875" x=".529" y=".529" fill="url(#b)" rx="7.937" ry="7.937"/><path d="M8.334 15.163a.5.5 0 0 1-.123-.056c-.03-.02-.68-.552-1.444-1.183-.93-.767-1.405-1.169-1.437-1.214a.6.6 0 0 1-.068-.14c-.012-.04-.419-1.924-.905-4.189-.978-4.553-.91-4.189-.824-4.365.087-.178-.06-.105 2.474-1.223 1.476-.651 2.323-1.018 2.377-1.028a.4.4 0 0 1 .166 0c.053.01.9.377 2.376 1.028 2.535 1.118 2.387 1.044 2.474 1.223.085.174.15-.186-.8 4.421-.93 4.5-.869 4.231-.989 4.345-.03.03-.687.562-1.459 1.185-.87.703-1.432 1.145-1.479 1.167a.56.56 0 0 1-.34.029zm.343-.853c.04-.021.67-.522 1.402-1.113 1.18-.954 1.334-1.083 1.372-1.15.037-.066.135-.529.83-3.892.488-2.357.79-3.85.791-3.905a.43.43 0 0 0-.177-.37 93 93 0 0 0-2.178-.977c-2.056-.906-2.13-.938-2.228-.943a.4.4 0 0 0-.177.023C8.27 2 7.3 2.424 6.156 2.928l-2.08.917-.082.08a.41.41 0 0 0-.133.318c.002.107 1.63 7.682 1.67 7.773a.5.5 0 0 0 .09.126c.034.031.633.53 1.334 1.108.938.774 1.292 1.058 1.346 1.079a.52.52 0 0 0 .376-.02zm-.42-.997a8 8 0 0 0-.22-.154c-.012-.007.004-.163.061-.603.043-.326.079-.6.079-.608 0-.02.27-.253.293-.253a1 1 0 0 1 .15.127l.133.126.075.572.081.6c.005.024-.03.055-.184.16-.104.071-.207.14-.228.153-.037.023-.04.022-.24-.12m-1.627-1.55a4 4 0 0 1-.16-.314c0-.039.311-.592.333-.593.02 0 1.137.19 1.233.21.03.007.07.052.172.197l.132.188-.12.176a5 5 0 0 1-.136.195c-.01.012-.265.06-.624.12-.334.055-.62.104-.638.108-.028.006-.05-.026-.192-.288zm2.88.184a31 31 0 0 1-.643-.112 2 2 0 0 1-.145-.196l-.128-.189.264-.375.076-.015c.153-.03 1.17-.204 1.194-.204.017 0 .074.093.185.298l.161.298-.159.292c-.087.16-.163.295-.168.3-.005.004-.291-.04-.637-.097m-1.159-.818-.141-.114c-.032-.025-.043-.117-.365-3.135-.183-1.71-.335-3.132-.34-3.16-.006-.046.036-.125.457-.853.255-.442.468-.807.473-.813.006-.005.22.356.478.801l.467.811-.312 3.163c-.172 1.74-.314 3.164-.316 3.165l-.142.113a2 2 0 0 1-.145.11 2 2 0 0 1-.114-.088"/></svg>