<svg xmlns="http://www.w3.org/2000/svg" width="64" height="64"><defs><filter id="a" width="1.072" height="1.072" x="-.036" y="-.036" color-interpolation-filters="sRGB"><feGaussianBlur stdDeviation=".6"/></filter><filter id="d" width="1.118" height="1.122" x="-.059" y="-.061" color-interpolation-filters="sRGB"><feGaussianBlur stdDeviation=".901"/></filter><filter id="c" width="1.113" height="1.127" x="-.057" y="-.064" color-interpolation-filters="sRGB"><feGaussianBlur stdDeviation="1.06"/></filter><linearGradient id="b" x2="0" y1="543.8" y2="503.8" gradientTransform="matrix(1.5 0 0 1.5 -644.87 -753.7)" gradientUnits="userSpaceOnUse"><stop offset="0" stop-color="#18222a"/><stop offset="1" stop-color="#566069"/></linearGradient><linearGradient id="e" x1="30.242" x2="31.073" y1="56.798" y2="10.968" gradientUnits="userSpaceOnUse"><stop offset="0" stop-color="#ff8a34"/><stop offset="1" stop-color="#ffdc34"/></linearGradient></defs><rect width="40" height="40" x="-428.57" y="503.8" filter="url(#a)" opacity=".25" rx="20" transform="matrix(-1.5 0 0 1.5 -580.84 -753.7)"/><rect width="60" height="60" x="-62.015" y="2" fill="url(#b)" rx="30" transform="scale(-1 1)"/><path fill-opacity=".099" d="M54.144 31.729c0 1.569-9.848 18.627-11.207 19.412-1.36.784-21.057.784-22.415 0S9.314 33.298 9.314 31.729s9.85-18.627 11.208-19.412c1.359-.784 21.057-.784 22.415 0S54.144 30.16 54.144 31.729" color="#000" display="block" filter="url(#c)" overflow="visible" style="isolation:auto;mix-blend-mode:normal;paint-order:fill markers stroke" transform="translate(-4.488 -4.488)scale(1.15)"/><path fill="#fff" d="M57.777 32c0 1.804-11.325 21.421-12.888 22.324-1.564.902-24.216.902-25.777 0S6.223 33.805 6.223 32 17.551 10.579 19.112 9.676c1.563-.902 24.216-.902 25.777 0S57.777 30.195 57.777 32" color="#000" display="block" opacity=".15" overflow="visible" style="isolation:auto;mix-blend-mode:normal;paint-order:fill markers stroke"/><path d="M31.729 15.619c-1.959 0-3.914.034-5.475.105a37 37 0 0 0-2.018.14c-.279.03-.527.064-.772.11-.244.046-.428.034-.918.31-.49.274-.574.436-.738.619a9 9 0 0 0-.483.595 33 33 0 0 0-1.133 1.625 117 117 0 0 0-2.833 4.55 117 117 0 0 0-2.64 4.657 33 33 0 0 0-.886 1.767 9 9 0 0 0-.289.703c-.081.229-.185.38-.185.929s.104.7.185.929c.08.229.176.453.289.703.227.5.527 1.093.885 1.767.716 1.348 1.662 3.01 2.641 4.656a134 134 0 0 0 1.847 3.008l-2.552 8.156 6.402-3.547c.156.046.275.057.41.083.243.047.492.08.771.11.56.059 1.237.103 2.018.139 1.56.072 3.515.107 5.474.107s3.913-.035 5.473-.106a35 35 0 0 0 2.019-.14 10 10 0 0 0 .772-.11c.245-.046.43-.034.92-.31.49-.274.573-.436.737-.619a9 9 0 0 0 .483-.595c.332-.44.711-.987 1.133-1.625a117 117 0 0 0 2.833-4.55 117 117 0 0 0 2.64-4.657 32 32 0 0 0 .884-1.767 9 9 0 0 0 .291-.703c.081-.229.185-.38.185-.929s-.104-.7-.185-.929a9 9 0 0 0-.29-.703 33 33 0 0 0-.884-1.767 117 117 0 0 0-2.641-4.656 117 117 0 0 0-2.833-4.55 33 33 0 0 0-1.133-1.626 9 9 0 0 0-.483-.595c-.164-.183-.247-.345-.738-.62-.49-.275-.674-.263-.918-.31a9 9 0 0 0-.773-.108 35 35 0 0 0-2.018-.14c-1.56-.072-3.515-.107-5.474-.107zm0 3.664c1.912 0 3.828.036 5.295.103.212.01.326.026.517.037l-5.845 8.701-5.917-8.693c.235-.015.386-.032.655-.045a123 123 0 0 1 5.295-.102zm9.242 3.2a128 128 0 0 1 1.858 3.024 114 114 0 0 1 2.557 4.502c.336.635.61 1.182.783 1.564.032.071.04.097.065.156-.024.059-.033.084-.065.156-.173.382-.447.93-.783 1.564a114 114 0 0 1-2.557 4.502 123 123 0 0 1-2.113 3.422l-6.258-9.195zm-18.551.105 6.54 9.609-6.191 9.217a123 123 0 0 1-2.14-3.463 114 114 0 0 1-2.557-4.502 30 30 0 0 1-.783-1.564c-.032-.071-.04-.097-.065-.156.024-.059.033-.084.065-.156.173-.382.447-.93.783-1.564.674-1.267 1.6-2.895 2.557-4.502a129 129 0 0 1 1.791-2.919m9.302 13.662 5.323 7.82-.02.002c-1.468.067-3.384.102-5.296.102-1.899 0-3.799-.035-5.263-.1z" color="#000" display="block" filter="url(#d)" font-weight="400" opacity=".25" overflow="visible" style="font-feature-settings:normal;font-variant-alternates:normal;font-variant-caps:normal;font-variant-ligatures:normal;font-variant-numeric:normal;font-variant-position:normal;isolation:auto;mix-blend-mode:normal;paint-order:fill markers stroke;shape-padding:0;text-decoration-color:#000;text-decoration-line:none;text-decoration-style:solid;text-indent:0;text-orientation:mixed;text-transform:none;white-space:normal" transform="translate(-4.488 -4.488)scale(1.15)"/><path fill="url(#e)" d="M32 13.474c-2.253 0-4.501.04-6.296.12a42 42 0 0 0-2.32.162c-.322.034-.607.073-.889.126-.28.053-.492.04-1.055.357-.564.315-.66.501-.85.712a10 10 0 0 0-.555.684 38 38 0 0 0-1.303 1.869 135 135 0 0 0-3.258 5.232 134 134 0 0 0-3.036 5.356 38 38 0 0 0-1.018 2.032c-.13.287-.24.545-.333.808-.093.264-.213.437-.213 1.069s.12.805.213 1.068c.092.263.203.52.333.808a38 38 0 0 0 1.017 2.032c.824 1.55 1.912 3.462 3.038 5.355a154 154 0 0 0 2.124 3.459l-2.935 9.38 7.362-4.08c.18.053.316.066.472.096.279.054.565.092.886.126.644.068 1.423.119 2.32.16 1.795.083 4.043.123 6.296.123s4.5-.04 6.294-.122a40 40 0 0 0 2.322-.16c.32-.035.607-.074.888-.127s.494-.04 1.058-.357c.563-.315.659-.501.847-.711a11 11 0 0 0 .556-.685 38 38 0 0 0 1.303-1.869 135 135 0 0 0 3.258-5.232 134 134 0 0 0 3.036-5.356 37 37 0 0 0 1.016-2.032 10 10 0 0 0 .335-.808c.093-.263.213-.437.213-1.068s-.12-.805-.213-1.069a10 10 0 0 0-.334-.808 38 38 0 0 0-1.016-2.032 134 134 0 0 0-3.037-5.355 135 135 0 0 0-3.258-5.232 38 38 0 0 0-1.303-1.87 10 10 0 0 0-.556-.684c-.188-.21-.284-.397-.849-.713-.563-.317-.775-.303-1.055-.357a11 11 0 0 0-.89-.124 40 40 0 0 0-2.32-.161A144 144 0 0 0 32 13.473zm0 4.214c2.199 0 4.402.041 6.09.118.243.012.374.03.594.043l-6.722 10.006-6.805-9.997c.27-.018.444-.037.754-.052A142 142 0 0 1 32 17.689zm10.628 3.68a147 147 0 0 1 2.137 3.477 131 131 0 0 1 2.94 5.177c.387.73.702 1.36.9 1.8.038.08.047.11.075.178-.027.068-.037.097-.074.18-.2.44-.514 1.07-.9 1.798a131 131 0 0 1-2.941 5.178 142 142 0 0 1-2.43 3.935l-7.197-10.574zm-21.334.12 7.521 11.05-7.12 10.6a141 141 0 0 1-2.46-3.982 131 131 0 0 1-2.941-5.177 35 35 0 0 1-.9-1.799c-.037-.082-.047-.111-.075-.18.027-.067.038-.096.074-.179.2-.44.514-1.07.9-1.798.776-1.457 1.84-3.33 2.941-5.178a149 149 0 0 1 2.06-3.356zM31.991 37.2l6.122 8.993-.024.003c-1.688.077-3.891.117-6.09.117-2.184 0-4.369-.04-6.052-.115z" color="#000" display="block" font-weight="400" overflow="visible" style="font-feature-settings:normal;font-variant-alternates:normal;font-variant-caps:normal;font-variant-ligatures:normal;font-variant-numeric:normal;font-variant-position:normal;isolation:auto;mix-blend-mode:normal;paint-order:fill markers stroke;shape-padding:0;text-decoration-color:#000;text-decoration-line:none;text-decoration-style:solid;text-indent:0;text-orientation:mixed;text-transform:none;white-space:normal"/></svg>