<svg xmlns="http://www.w3.org/2000/svg" width="64" height="64"><defs><filter id="c" width="1.257" height="1.343" x="-.129" y="-.172" color-interpolation-filters="sRGB"><feGaussianBlur stdDeviation="1.715"/></filter><filter id="a" width="1.054" height="1.054" x="-.027" y="-.027" color-interpolation-filters="sRGB"><feGaussianBlur stdDeviation=".675"/></filter><linearGradient id="b" x1="50.429" x2="50.429" y1="1120.5" y2="1092.5" gradientTransform="translate(-72.846 -2339)scale(2.1428)" gradientUnits="userSpaceOnUse"><stop offset="0" stop-color="#9575cd"/><stop offset="1" stop-color="#cd75bc"/></linearGradient></defs><rect width="60" height="60" x="2" y="3" filter="url(#a)" opacity=".15" rx="30" ry="30"/><rect width="60" height="60" x="2" y="2" fill="url(#b)" rx="30" ry="30"/><path d="M33.334 21A1.33 1.33 0 0 0 32 22.332v4c0 .74.594 1.334 1.334 1.334H40l-8 6.666v5.334c0 .74.594 1.334 1.334 1.334h13.332c.74 0 1.334-.596 1.334-1.334v-4a1.33 1.33 0 0 0-1.334-1.334H40l8-6.666v-5.334A1.33 1.33 0 0 0 46.666 21zm-16 12A1.33 1.33 0 0 0 16 34.332v1.334c0 .74.596 1.37 1.334 1.334H20l-4 4v2.666c0 .74.594 1.334 1.334 1.334H24c.74 0 1.334-.596 1.334-1.334v-1.334A1.33 1.33 0 0 0 24 41h-2.666l4-4v-2.668A1.33 1.33 0 0 0 24 33z" filter="url(#c)" opacity=".15"/><path fill="#fff" d="M33.334 20.04A1.33 1.33 0 0 0 32 21.372v4c0 .74.594 1.334 1.334 1.334H40l-8 6.666v5.334c0 .74.594 1.334 1.334 1.334h13.332c.74 0 1.334-.596 1.334-1.334v-4a1.33 1.33 0 0 0-1.334-1.334H40l8-6.666v-5.334a1.33 1.33 0 0 0-1.334-1.332zm-16 12A1.33 1.33 0 0 0 16 33.372v1.334c0 .74.596 1.37 1.334 1.334H20l-4 4v2.666c0 .74.594 1.334 1.334 1.334H24c.74 0 1.334-.596 1.334-1.334v-1.334A1.33 1.33 0 0 0 24 40.04h-2.666l4-4v-2.668A1.33 1.33 0 0 0 24 32.04z"/></svg>