<svg xmlns="http://www.w3.org/2000/svg" width="64" height="64"><defs><linearGradient id="a" x1="420.18" x2="404.18" y1="542.22" y2="504.45" gradientTransform="matrix(1.5 0 0 1.5 -580.86 -753.7)" gradientUnits="userSpaceOnUse"><stop offset="0" stop-color="#f8c04a"/><stop offset="1" stop-color="#ffe877"/></linearGradient><linearGradient id="c" x1="35.051" x2="22" y1="44.542" y2="10" gradientTransform="matrix(1.5 0 0 1.5 -4 -6)" gradientUnits="userSpaceOnUse"><stop offset="0" stop-color="#ffdc69"/><stop offset="1" stop-color="#fff"/></linearGradient><filter id="b" width="1.216" height="1.216" x="-.108" y="-.108" color-interpolation-filters="sRGB"><feGaussianBlur stdDeviation="1.755"/></filter></defs><path fill="url(#a)" d="M32 2C15.38 2 2 15.379 2 31.999 2 48.618 15.38 62 32 62c16.62 0 30-13.382 30-30.001S48.62 2 32 2z"/><path d="M32 10 12.5 29.5h3V49h33V29.5h3zm-1.5 12h3v3H38v3h-4.5v2.977c.71.017 1.444.103 2.2.43a3.694 3.694 0 0 1 1.729 1.541c.41.726.58 1.584.58 2.552v.003c-.003.875-.101 1.64-.416 2.344a3.427 3.427 0 0 1-1.547 1.62c-.828.413-1.67.495-2.546.516V43h-3v-3H26v-3h4.5v-2.976c-.7-.019-1.425-.107-2.17-.428a3.677 3.677 0 0 1-1.73-1.538c-.405-.72-.571-1.574-.57-2.532-.015-.767-.06-2.105.969-3.143.8-.807 1.921-1.185 3.501-1.319zm0 6.097c-.916.126-1.31.339-1.368.398-.085.086-.12.243-.106.99v.033c-.001.61.11.923.19 1.066.081.143.124.18.303.258.184.08.536.128.981.152zm3 5.909v2.938c.614-.041 1.08-.097 1.207-.16.108-.055.084-.022.146-.162.063-.14.153-.503.156-1.122 0-.612-.111-.932-.194-1.078-.082-.146-.127-.183-.307-.26-.19-.083-.553-.13-1.008-.156z" enable-background="new" filter="url(#b)" opacity=".15"/><path fill="url(#c)" d="M32 9 12.5 28.5h3V48h33V28.5h3zm-1.5 12h3v3H38v3h-4.5v2.977c.71.017 1.444.103 2.2.43a3.694 3.694 0 0 1 1.729 1.541c.41.726.58 1.584.58 2.552v.003c-.003.875-.101 1.64-.416 2.344a3.427 3.427 0 0 1-1.547 1.62c-.828.413-1.67.495-2.546.516V42h-3v-3H26v-3h4.5v-2.976c-.7-.019-1.425-.107-2.17-.428a3.677 3.677 0 0 1-1.73-1.538c-.405-.72-.571-1.574-.57-2.532-.015-.767-.06-2.105.969-3.143.8-.807 1.921-1.185 3.501-1.319zm0 6.097c-.916.126-1.31.339-1.368.398-.085.086-.12.243-.106.99v.033c-.001.61.11.923.19 1.066.081.143.124.18.303.258.184.08.536.128.981.152zm3 5.909v2.938c.614-.041 1.08-.097 1.207-.16.108-.055.084-.022.146-.162.063-.14.153-.503.156-1.122 0-.612-.111-.932-.194-1.078-.082-.146-.127-.183-.307-.26-.19-.083-.553-.13-1.008-.156z" enable-background="new"/></svg>