<svg width="64" height="64" version="1.1" xmlns="http://www.w3.org/2000/svg" xmlns:xlink="http://www.w3.org/1999/xlink">
 <defs>
  <linearGradient id="linearGradient4208" x1="420.18" x2="404.18" y1="542.22" y2="504.45" gradientTransform="matrix(1.5 0 0 1.5 -580.86 -753.7)" gradientUnits="userSpaceOnUse">
   <stop stop-color="#f8c04a" offset="0"/>
   <stop stop-color="#ffe877" offset="1"/>
  </linearGradient>
  <linearGradient id="linearGradient4233" x1="35.051" x2="22" y1="44.542" y2="10" gradientTransform="matrix(1.5 0 0 1.5 -4 -6.0001)" gradientUnits="userSpaceOnUse">
   <stop stop-color="#ffdc69" offset="0"/>
   <stop stop-color="#ffffff" offset="1"/>
  </linearGradient>
  <filter id="filter1119" x="-.108" y="-.108" width="1.216" height="1.216" color-interpolation-filters="sRGB">
   <feGaussianBlur stdDeviation="1.755"/>
  </filter>
 </defs>
 <path d="m32 2c-16.62 0-30 13.379-30 29.999 0 16.619 13.38 30.001 30 30.001 16.62 0 30-13.382 30-30.001 0-16.619-13.38-29.999-30-29.999z" fill="url(#linearGradient4208)" stroke-opacity=".55026" stroke-width="4.2"/>
 <path d="m32 10-19.5 19.5h3v19.5h33v-19.5h3zm-1.5 12h3v3c1.6963 3.3e-5 3.8534 1.04e-4 4.5 0v3c-0.64659 1.04e-4 -2.8036 3.3e-5 -4.5 0v2.9766c0.7096 0.01769 1.444 0.10332 2.2002 0.43066 0.66312 0.28707 1.3189 0.8156 1.7285 1.541 0.4096 0.72549 0.58008 1.5836 0.58008 2.5518v3e-3c-0.0025 0.87515-0.10126 1.6401-0.41601 2.3438-0.31476 0.70362-0.90352 1.2988-1.5469 1.6201-0.82794 0.4133-1.6693 0.49528-2.5459 0.51555v3.0176h-3v-3h-4.5v-3h4.5v-2.9766c-0.70016-0.01836-1.425-0.10605-2.1709-0.42773-0.66255-0.28574-1.3202-0.81278-1.7285-1.5381-0.40556-0.72036-0.57171-1.5734-0.57129-2.5312-0.01425-0.7676-0.05849-2.1059 0.96973-3.1436 0.79922-0.80652 1.9214-1.1848 3.501-1.3184zm0 6.0967c-0.91638 0.12606-1.3091 0.33887-1.3682 0.39844-0.08476 0.08554-0.11912 0.24268-0.10546 0.99023v0.03228c-0.0018 0.60975 0.11006 0.92365 0.19043 1.0664 0.08037 0.14274 0.12315 0.18079 0.30176 0.25781 0.18452 0.07954 0.53674 0.12777 0.98145 0.15234zm3 5.9092v2.9385c0.61431-0.04183 1.0796-0.09752 1.207-0.16113 0.10778-0.05382 0.08372-0.02079 0.14649-0.16113 0.06245-0.13962 0.15257-0.50272 0.15527-1.1221 0-0.61225-0.11088-0.93204-0.19336-1.0781-0.082485-0.14608-0.12734-0.1827-0.30762-0.26074-0.18906-0.081854-0.55294-0.12989-1.0078-0.15527z" enable-background="new" fill="#000000" filter="url(#filter1119)" opacity=".15"/>
 <path d="m32 9-19.5 19.5h3v19.5h33v-19.5h3zm-1.5 12h3v3c1.6963 3.3e-5 3.8534 1.04e-4 4.5 0v3c-0.64659 1.04e-4 -2.8036 3.3e-5 -4.5 0v2.9766c0.7096 0.01769 1.444 0.10332 2.2002 0.43066 0.66312 0.28707 1.3189 0.8156 1.7285 1.541 0.4096 0.72549 0.58008 1.5836 0.58008 2.5518v3e-3c-0.0025 0.87515-0.10126 1.6401-0.41601 2.3438-0.31476 0.70362-0.90352 1.2988-1.5469 1.6201-0.82794 0.4133-1.6693 0.49528-2.5459 0.51555v3.0176h-3v-3h-4.5v-3h4.5v-2.9766c-0.70016-0.01836-1.425-0.10605-2.1709-0.42773-0.66255-0.28574-1.3202-0.81278-1.7285-1.5381-0.40556-0.72036-0.57171-1.5734-0.57129-2.5312-0.01425-0.7676-0.05849-2.1059 0.96973-3.1436 0.79922-0.80652 1.9214-1.1848 3.501-1.3184zm0 6.0967c-0.91638 0.12606-1.3091 0.33887-1.3682 0.39844-0.08476 0.08554-0.11912 0.24268-0.10546 0.99023v0.03228c-0.0018 0.60975 0.11006 0.92365 0.19043 1.0664 0.08037 0.14274 0.12315 0.18079 0.30176 0.25781 0.18452 0.07954 0.53674 0.12777 0.98145 0.15234zm3 5.9092v2.9385c0.61431-0.04183 1.0796-0.09752 1.207-0.16113 0.10778-0.05382 0.08372-0.02079 0.14649-0.16113 0.06245-0.13962 0.15257-0.50272 0.15527-1.1221 0-0.61225-0.11088-0.93204-0.19336-1.0781-0.082485-0.14608-0.12734-0.1827-0.30762-0.26074-0.18906-0.081854-0.55294-0.12989-1.0078-0.15527z" enable-background="new" fill="url(#linearGradient4233)"/>
</svg>
