<svg xmlns="http://www.w3.org/2000/svg" width="64" height="64" enable-background="new 0 0 1024 1024" image-rendering="optimizeSpeed"><defs><linearGradient id="b" x1="520" x2="520" y1="4" y2="1024" gradientTransform="translate(-3.527 -3.596) scale(.06946)" gradientUnits="userSpaceOnUse"><stop offset="0" stop-color="#202020"/><stop offset="1" stop-color="#565656"/></linearGradient><filter id="a" width="1.072" height="1.072" x="-.036" y="-.036" color-interpolation-filters="sRGB"><feGaussianBlur stdDeviation="14.344"/></filter></defs><circle cx="512" cy="512" r="478.12" filter="url(#a)" opacity=".25" style="paint-order:stroke markers fill" transform="translate(-.125 -.125) scale(.06274)"/><circle cx="32" cy="32" r="30" fill="url(#b)" style="paint-order:stroke markers fill"/><path fill="#999" d="M16 16h1.6v12.8H16z"/><path fill="#84dd84" stroke-width=".063" d="M19.197 15.999h1.6v12.8h-1.6zm3.2 0h1.6v12.8h-1.6z"/><g stroke-width=".063"><path fill="#999" d="M47.997 15.999h-1.6v12.8h1.6z"/><path fill="#84dd84" d="M44.797 15.999h-1.6v12.8h1.6zm-3.2 0h-1.6v12.8h1.6z"/></g><path fill="#999" d="M16 35.2h1.6V48H16z"/><g stroke-width=".063"><path fill="#84dd84" d="M19.197 35.199h1.6v12.8h-1.6zm3.2 0h1.6v12.8h-1.6z"/><path fill="#999" d="M47.997 35.199h-1.6v12.8h1.6z"/><path fill="#84dd84" d="M44.797 35.199h-1.6v12.8h1.6zm-3.2 0h-1.6v12.8h1.6zM25.597 28.799h1.6v6.4h-1.6zm6.4 0h1.6v6.4h-1.6zm6.4 0h1.6v6.4h-1.6z"/></g></svg>