<svg width="64" height="64" enable-background="new 0 0 1024 1024" image-rendering="optimizeSpeed" xmlns="http://www.w3.org/2000/svg"><defs><linearGradient id="b" x1="520" x2="520" y1="4" y2="1024" gradientTransform="matrix(.06946 0 0 .06946 -3.527 -3.596)" gradientUnits="userSpaceOnUse"><stop stop-color="#202020" offset="0"/><stop stop-color="#565656" offset="1"/></linearGradient><filter id="a" x="-.036" y="-.036" width="1.072" height="1.072" color-interpolation-filters="sRGB"><feGaussianBlur stdDeviation="14.344"/></filter></defs><circle transform="matrix(.06274 0 0 .06274 -.125 -.125)" cx="512" cy="512" r="478.12" filter="url(#a)" opacity=".25" style="paint-order:stroke markers fill"/><circle cx="32" cy="32" r="30" fill="url(#b)" style="paint-order:stroke markers fill"/><path fill="#999" d="M16 16h1.6v12.8H16z"/><g fill="#84dd84" stroke-width=".063"><path d="M19.197 15.999h1.6v12.8h-1.6zM22.397 15.999h1.6v12.8h-1.6z"/></g><g stroke-width=".063"><path fill="#999" d="M47.997 15.999h-1.6v12.8h1.6z"/><g fill="#84dd84"><path d="M44.797 15.999h-1.6v12.8h1.6zM41.597 15.999h-1.6v12.8h1.6z"/></g></g><path fill="#999" d="M16 35.2h1.6V48H16z"/><g stroke-width=".063"><g fill="#84dd84"><path d="M19.197 35.199h1.6v12.8h-1.6zM22.397 35.199h1.6v12.8h-1.6z"/></g><path fill="#999" d="M47.997 35.199h-1.6v12.8h1.6z"/><g fill="#84dd84"><path d="M44.797 35.199h-1.6v12.8h1.6zM41.597 35.199h-1.6v12.8h1.6z"/></g><g fill="#84dd84"><path d="M25.597 28.799h1.6v6.4h-1.6zM31.997 28.799h1.6v6.4h-1.6zM38.397 28.799h1.6v6.4h-1.6z"/></g></g></svg>