<svg xmlns="http://www.w3.org/2000/svg" width="64" height="64" viewBox="0 0 16.933 16.933"><defs><filter id="f" width="1.152" height="1.152" x="-.076" y="-.076" color-interpolation-filters="sRGB"><feGaussianBlur stdDeviation=".106"/></filter><filter id="d" width="1.081" height="1.105" x="-.041" y="-.053" color-interpolation-filters="sRGB"><feGaussianBlur stdDeviation=".05"/></filter><filter id="g" width="1.258" height="1.543" x="-.129" y="-.271" color-interpolation-filters="sRGB"><feGaussianBlur stdDeviation=".167"/></filter><filter id="a" width="1.054" height="1.054" x="-.027" y="-.027" color-interpolation-filters="sRGB"><feGaussianBlur stdDeviation=".675"/></filter><linearGradient id="e" x1="14.957" x2="14.957" y1="7.617" y2="3.225" gradientTransform="matrix(.896 0 0 1 -4.935 .516)" gradientUnits="userSpaceOnUse"><stop offset="0" stop-color="#636b2c"/><stop offset="1" stop-color="#c5d2ba"/></linearGradient><linearGradient id="b" x1="8.467" x2="8.467" y1="1.05" y2="15.867" gradientTransform="translate(18.496)" gradientUnits="userSpaceOnUse"><stop offset="0" stop-color="#cbc2b1"/><stop offset="1" stop-color="#a2988b"/></linearGradient><linearGradient id="c" x1="5.283" x2="5.343" y1="13.631" y2="15.571" gradientTransform="translate(.96 .616)" gradientUnits="userSpaceOnUse"><stop offset="0" stop-color="#928377"/><stop offset="1" stop-color="#c9c1bc"/></linearGradient></defs><rect width="60" height="60" x="2" y="3" filter="url(#a)" opacity=".15" rx="30" ry="30" transform="scale(.26458)"/><circle cx="8.466" cy="8.466" r="7.937" fill="url(#b)"/><g stroke-opacity="0"><rect width="3.976" height="1.941" x="4.299" y="14.265" fill="url(#c)" opacity=".86" ry=".97" transform="rotate(-24.893)"/><g fill="#323232"><path d="M3.734 2.562a.44.44 0 0 0-.4.264.4.4 0 0 0-.033.17v5.882a.44.44 0 0 0 .264.4.4.4 0 0 0 .17.033h2.45a1.4 1.4 0 0 1-.54-.108 1.37 1.37 0 0 1-.607-.5 1.37 1.37 0 0 1-.235-.773V2.995a.433.433 0 0 1 .432-.432h6.472-.01zm7.973.001a.4.4 0 0 1 .158.033.43.43 0 0 1 .265.4v1.817h.121a1.4 1.4 0 0 1 .66.166 1.37 1.37 0 0 1 .721 1.214V2.995a.43.43 0 0 0-.19-.358.43.43 0 0 0-.242-.074z"/><path d="M12.13 7.062H5.235a.44.44 0 0 1-.305-.127.43.43 0 0 1-.127-.306V7.93a1.4 1.4 0 0 0 .167.66 1.37 1.37 0 0 0 1.073.714q.07.007.142.007h5.511a.44.44 0 0 0 .307-.127.43.43 0 0 0 .127-.306z"/><path d="M12.13 7.062v1.816a.433.433 0 0 1-.434.433h.555a1.4 1.4 0 0 0 .412-.062 1.38 1.38 0 0 0 .941-1.04 1.4 1.4 0 0 0 .028-.279v-1.3a.433.433 0 0 1-.432.432zm0-2.249H6.185a1.4 1.4 0 0 0-.66.166 1.4 1.4 0 0 0-.555.555 1.4 1.4 0 0 0-.167.66v.435a.44.44 0 0 0 .19.36.43.43 0 0 0 .242.073h6.895z"/><path d="M12.13 4.813v2.249h1.07a.44.44 0 0 0 .359-.19.43.43 0 0 0 .073-.243v-.436a1.4 1.4 0 0 0-.061-.411 1.37 1.37 0 0 0-.908-.907 1.4 1.4 0 0 0-.412-.062zm-.423-2.25H5.235a.44.44 0 0 0-.305.127.43.43 0 0 0-.127.305v3.198a1.4 1.4 0 0 1 .167-.659 1.38 1.38 0 0 1 .676-.613 1.4 1.4 0 0 1 .539-.108h5.945V2.995a.433.433 0 0 0-.423-.432"/></g></g><path fill="#26171f" d="M12.049 11.623v-.134a.67.67 0 0 0-1.34 0v.134a.67.67 0 0 0 1.34 0m1.607-.804v-.134a.67.67 0 0 0-1.34 0v.134a.67.67 0 0 0 1.34 0" filter="url(#d)" opacity=".86" style="mix-blend-mode:normal"/><path fill="#5d2143" d="M11.38 12.025c.369 0 .669-.27.669-.603s-.3-.603-.67-.603-.67.27-.67.603.3.603.67.603zm1.607-.804c.37 0 .67-.27.67-.603s-.3-.603-.67-.603-.67.27-.67.603.3.603.67.603"/><rect width="7.394" height="4.393" x="4.769" y="3.741" fill="url(#e)" ry=".358"/><circle cx="3.871" cy="4.995" r=".183" fill="red"/><g fill="#1d1d1d"><rect width="3.345" height="1.134" x="9.557" y="-5.541" ry=".204" transform="matrix(-.82742 0 0 -.89805 14.145 6.812)"/><rect width="2.768" height="1.105" x="9.938" y="-5.406" ry=".199" transform="rotate(90)"/><g stroke-opacity="0" filter="url(#f)" opacity=".507" transform="matrix(.89805 0 0 .82742 .387 2.177)"><path d="M3.301 10.663h3.345v1.134H3.301z" opacity="1"/><path d="M5.541 9.557v3.345H4.407V9.557z"/></g></g><g stroke-opacity="0" filter="url(#g)" opacity=".504" transform="rotate(-24.893)"><rect width="1.501" height=".733" x="-.259" y="14.87" opacity=".86" ry=".366"/><rect width="1.501" height=".733" x="1.344" y="15.614" opacity=".86" ry=".366"/></g><g fill="#323232" stroke-opacity="0" transform="rotate(-24.893)"><rect width="1.501" height=".733" x="-.259" y="14.87" opacity=".86" ry=".366"/><rect width="1.501" height=".733" x="1.344" y="15.614" opacity=".86" ry=".366"/></g></svg>