<svg xmlns="http://www.w3.org/2000/svg" xmlns:xlink="http://www.w3.org/1999/xlink" xml:space="preserve" width="64" height="64"><defs><linearGradient id="a"><stop offset="0" style="stop-color:#ad4a63;stop-opacity:1"/><stop offset="1" style="stop-color:#f58787;stop-opacity:1"/></linearGradient><linearGradient id="b" x1="2.232" x2="15.009" y1="1.898" y2="14.714" gradientTransform="scale(3.7796)" gradientUnits="userSpaceOnUse"><stop offset="0" stop-color="#f1efeb" style="stop-color:#fae1f5;stop-opacity:1"/><stop offset="1" stop-color="#fdfcfc" style="stop-color:#6486aa;stop-opacity:1"/></linearGradient><linearGradient xlink:href="#a" id="c" x1="94.278" x2="94.278" y1="48.261" y2="15.894" gradientUnits="userSpaceOnUse"/></defs><rect width="60" height="60" x="2" y="2" fill="url(#b)" rx="30" ry="30" style="fill:url(#b)"/><path d="M93.593 9.91c-1.477-.004-2.05.199-2.678.946-1.787 2.124-1.638 6.418.46 13.238l.405 1.313.033-6.719.032-6.719h2.933c3.35 0 3.308.02 2.02-.953-1.262-.952-1.693-1.1-3.205-1.105m-9.395 8.446a6 6 0 0 0-1.174.176c-.41.103-1.278.454-1.931.781l-1.188.594 2.969.033 2.969.033.013 6.28.012 6.279.6-2.377c.805-3.19 1.134-5.15 1.215-7.248.086-2.262-.066-3.067-.702-3.703-.601-.602-1.636-.903-2.783-.848m19.195 3.112c-1.11.051-2.006.713-2.386 1.97-.435 1.435-.246 4.78.492 8.719l.281 1.5.033-4.844.034-4.844 3.029-.003 3.03-.004-.843-.807c-1.235-1.182-2.56-1.74-3.67-1.687m-7.332 9.642c-.242-.076-.212 1.28-.214 5.203-.003 3.042.024 5.531.06 5.531s.285-.339.553-.753c.657-1.017 1.112-2.418 1.289-3.975.193-1.701-.02-2.796-.89-4.568-.408-.83-.652-1.392-.798-1.438m-9.03 8.672.366.406c.202.224.385.406.407.406.096 0 .011-.103-.368-.445zm13.417.187c-.034 0-.194.141-.355.313-.162.172-.265.312-.23.312.034 0 .193-.14.355-.312s.265-.313.23-.313m-16.855.5q-.01.01.11.157c.162.208.265.274.265.172 0-.026-.099-.125-.219-.22q-.148-.117-.156-.109m7.115 3.391a.4.4 0 0 0-.139.024c-.1.04-.07.07.076.076.132.005.206-.025.165-.067-.021-.02-.059-.031-.102-.033m1.045.281q-.02.02-.026.131c-.005.132.025.206.067.164.041-.041.046-.15.01-.24q-.03-.075-.051-.055m18.023.172c-.038.007-.072.15-.125.473-.108.652-.137.788-.177.84a2 2 0 0 0-.08.338c-.032.169-.1.337-.149.375-.05.037-.095.138-.102.224-.029.363-.056.418-.173.346-.074-.045-.09.01-.041.137q.083.216-.063.125c-.091-.057-.12-.024-.078.086.115.299-1.146 2.015-2.236 3.043-.573.54-1.441 1.235-1.928 1.544l-.885.563.71.703c.389.387.743.71.786.719.134.025 1.55-1.544 2.147-2.381 1.208-1.693 2.13-3.837 2.281-5.303.042-.406.125-.895.186-1.086.06-.19.063-.47.008-.62q-.047-.13-.08-.126zm-18.107.422c-.053.024-.158.214-.348.61-.278.579-.68 1.1-1.402 1.814-.895.885-1.225 1.11-2.826 1.926-2.115 1.077-2.718 1.46-3.541 2.246-.84.8-1.591 2.384-1.578 3.326.002.18.054.136.181-.156.501-1.152 1.46-1.92 4.213-3.362 1.09-.57 2.22-1.2 2.51-1.4.747-.514 1.64-1.505 2.002-2.22.38-.753.838-2.212.834-2.657-.001-.097-.013-.141-.045-.127m6.049 4.11q-.01.008.11.156c.093.12.192.218.218.218.103 0 .036-.102-.172-.265q-.148-.118-.156-.11m-15.84 6.296q-.02.02-.026.131c-.005.132.025.206.067.164.041-.041.046-.15.01-.24q-.03-.075-.051-.055m-8.17 2.72a.4.4 0 0 0-.139.023c-.1.04-.07.07.076.076.132.005.206-.025.165-.067-.021-.02-.059-.031-.102-.033" style="display:inline;fill:url(#c);stroke:none;stroke-opacity:.34272641;stroke-width:.17642017;stroke-dasharray:none" transform="translate(-74.39 -3.46)scale(1.13366)"/><path d="M91.843 11.97v30.035l-.719-.077c-2.3-.244-4.061-1.57-4.941-3.72-.276-.673-.278-.719-.313-9.457l-.035-8.782h-5.992v2h.343c.512.001 1.113.427 1.4.99.248.485.257.708.259 6.975.002 7.193.03 7.491.793 8.987 1.395 2.735 4.238 4.52 7.865 4.94l1.348.155-.075.57c-.108.826-.535 2.219-.894 2.928-.364.719-1.257 1.71-2.004 2.225-.29.2-1.426.833-2.524 1.408-3.136 1.643-4.094 2.533-4.4 4.09l-.14.709h25.706l.269-.625c1.204-3.015 2.179-6.215 2.179-9.064 0-.8-.032-1.422-.073-1.381s-.128.514-.195 1.052c-.289 2.328-1.628 4.964-3.578 7.045l-.844.9-.767-.726-.768-.726.947-.623c1.759-1.155 3.378-2.907 4.2-4.543.462-.922.406-.964-.12-.09-1.067 1.775-2.208 2.916-4.1 4.103-.605.38-1.194.721-1.31.758-.245.078-3.707-1.691-4.734-2.42a6.3 6.3 0 0 1-1.963-2.299c-.343-.703-.82-2.424-.82-2.957 0-.325.016-.333 1.285-.474 4.409-.493 7.693-3.023 8.531-6.576.14-.594.18-1.78.182-5.235.002-3.815.03-4.538.203-4.969a1.74 1.74 0 0 1 1.36-1.087l.439-.073V23.97h-6l-.002 6.407c-.002 6.985-.035 7.37-.721 8.64-.897 1.663-3.043 2.953-4.908 2.953h-.37V28.716c0-12.979.006-13.266.249-13.743.3-.59.661-.86 1.283-.96l.469-.075V11.97h-3z" style="display:inline;fill:#4b1725" transform="translate(-74.39 -3.46)scale(1.13366)"/></svg>