<svg xmlns="http://www.w3.org/2000/svg" xmlns:xlink="http://www.w3.org/1999/xlink" width="64" height="64"><defs><linearGradient id="c"><stop offset="0" stop-color="#ffb22a"/><stop offset="1" stop-color="#ffec4a"/></linearGradient><linearGradient id="b"><stop offset="0" stop-color="#373737"/><stop offset="1" stop-color="#646464"/></linearGradient><linearGradient id="a"><stop offset="0" stop-color="#f9f9f9"/><stop offset="1" stop-color="#dedede"/></linearGradient><linearGradient id="e" x1="399.99" x2="399.99" y1="545.14" y2="518.14" gradientTransform="translate(-826.36 -1107.5)scale(2.1429)" gradientUnits="userSpaceOnUse"><stop offset="0" stop-color="#61fcff"/><stop offset="1" stop-color="#409eff"/></linearGradient><linearGradient xlink:href="#a" id="j" x1="22.169" x2="34.169" y1="31.424" y2="31.424" gradientUnits="userSpaceOnUse"/><linearGradient xlink:href="#a" id="k" x1="34.169" x2="46.169" y1="43.424" y2="43.424" gradientUnits="userSpaceOnUse"/><linearGradient xlink:href="#b" id="l" x1="22.169" x2="34.169" y1="43.424" y2="43.424" gradientUnits="userSpaceOnUse"/><linearGradient xlink:href="#b" id="o" x1="34.169" x2="46.169" y1="31.424" y2="31.424" gradientUnits="userSpaceOnUse"/><linearGradient xlink:href="#c" id="n" x1="23.978" x2="32.368" y1="43.424" y2="43.424" gradientUnits="userSpaceOnUse"/><linearGradient xlink:href="#c" id="q" x1="35.978" x2="44.368" y1="31.424" y2="31.424" gradientUnits="userSpaceOnUse"/><filter id="d" width="1.072" height="1.072" x="-.036" y="-.036" color-interpolation-filters="sRGB"><feGaussianBlur stdDeviation=".42"/></filter><filter id="f" width="1.24" height="1.24" x="-.12" y="-.12" color-interpolation-filters="sRGB"><feGaussianBlur stdDeviation=".6"/></filter><filter id="g" width="1.24" height="1.24" x="-.12" y="-.12" color-interpolation-filters="sRGB"><feGaussianBlur stdDeviation=".6"/></filter><filter id="h" width="1.24" height="1.24" x="-.12" y="-.12" color-interpolation-filters="sRGB"><feGaussianBlur stdDeviation=".6"/></filter><filter id="i" width="1.24" height="1.24" x="-.12" y="-.12" color-interpolation-filters="sRGB"><feGaussianBlur stdDeviation=".6"/></filter><filter id="m" width="1.289" height="1.303" x="-.144" y="-.151" color-interpolation-filters="sRGB"><feGaussianBlur stdDeviation=".505"/></filter><filter id="p" width="1.289" height="1.303" x="-.144" y="-.151" color-interpolation-filters="sRGB"><feGaussianBlur stdDeviation=".505"/></filter></defs><circle cx="400.57" cy="531.8" r="14" filter="url(#d)" opacity=".25" transform="translate(-826.36 -1107.5)scale(2.1429)"/><g stroke-width="1.571"><circle cx="32.02" cy="32.044" r="30.001" fill="url(#e)"/><circle cx="32.02" cy="32.044" r="30.001" fill="none"/></g><path d="M34.169 31.424c0 3.313-2.688 6-6 6-3.313 0-6-2.688-6-6 0-3.313 2.688-6 6-6 3.313 0 6 2.688 6 6" filter="url(#f)" opacity=".25" transform="translate(-13.559 -17.898)scale(1.3333)"/><path d="M46.169 43.424c0 3.313-2.688 6-6 6-3.313 0-6-2.688-6-6 0-3.313 2.688-6 6-6 3.313 0 6 2.688 6 6" filter="url(#g)" opacity=".25" transform="translate(-13.559 -17.898)scale(1.3333)"/><path d="M34.169 43.424c0 3.313-2.688 6-6 6-3.313 0-6-2.688-6-6 0-3.313 2.688-6 6-6 3.313 0 6 2.688 6 6" filter="url(#h)" opacity=".25" transform="translate(-13.559 -17.898)scale(1.3333)"/><path d="M46.169 31.424c0 3.313-2.688 6-6 6-3.313 0-6-2.688-6-6 0-3.313 2.688-6 6-6 3.313 0 6 2.688 6 6" filter="url(#i)" opacity=".25" transform="translate(-13.559 -17.898)scale(1.3333)"/><path fill="url(#j)" d="M34.169 31.424c0 3.313-2.688 6-6 6-3.313 0-6-2.688-6-6 0-3.313 2.688-6 6-6 3.313 0 6 2.688 6 6" transform="translate(-13.559 -17.898)scale(1.3333)"/><path fill="url(#k)" d="M46.169 43.424c0 3.313-2.688 6-6 6-3.313 0-6-2.688-6-6 0-3.313 2.688-6 6-6 3.313 0 6 2.688 6 6" transform="translate(-13.559 -17.898)scale(1.3333)"/><path fill="url(#l)" d="M34.169 43.424c0 3.313-2.688 6-6 6-3.313 0-6-2.688-6-6 0-3.313 2.688-6 6-6 3.313 0 6 2.688 6 6" transform="translate(-13.559 -17.898)scale(1.3333)"/><path d="m30.724 47.424-2.582-1.383-2.602 1.34.52-2.883-2.082-2.059 2.902-.398 1.316-2.617 1.277 2.637 2.895.445-2.117 2.027" filter="url(#m)" opacity=".25" transform="translate(-13.559 -17.898)scale(1.3333)"/><path fill="url(#n)" d="m30.724 47.424-2.582-1.383-2.602 1.34.52-2.883-2.082-2.059 2.902-.398 1.316-2.617 1.277 2.637 2.895.445-2.117 2.027" transform="translate(-13.559 -17.898)scale(1.3333)"/><path fill="url(#o)" d="M46.169 31.424c0 3.313-2.688 6-6 6-3.313 0-6-2.688-6-6 0-3.313 2.688-6 6-6 3.313 0 6 2.688 6 6" transform="translate(-13.559 -17.898)scale(1.3333)"/><path d="m42.724 35.424-2.582-1.383-2.602 1.34.52-2.883-2.082-2.059 2.902-.398 1.316-2.617 1.277 2.637 2.895.445-2.117 2.027" filter="url(#p)" opacity=".25" transform="translate(-13.559 -17.898)scale(1.3333)"/><path fill="url(#q)" d="m42.724 35.424-2.582-1.383-2.602 1.34.52-2.883-2.082-2.059 2.902-.398 1.316-2.617 1.277 2.637 2.895.445-2.117 2.027" transform="translate(-13.559 -17.898)scale(1.3333)"/></svg>