<svg id="svg34" width="64" height="64" version="1.1" xmlns="http://www.w3.org/2000/svg" xmlns:xlink="http://www.w3.org/1999/xlink">
 <defs id="defs18">
  <linearGradient id="linearGradient905">
   <stop id="stop901" stop-color="#ffb22a" offset="0"/>
   <stop id="stop903" stop-color="#ffec4a" offset="1"/>
  </linearGradient>
  <linearGradient id="linearGradient889">
   <stop id="stop885" stop-color="#373737" offset="0"/>
   <stop id="stop887" stop-color="#646464" offset="1"/>
  </linearGradient>
  <linearGradient id="linearGradient873">
   <stop id="stop869" stop-color="#f9f9f9" offset="0"/>
   <stop id="stop871" stop-color="#dedede" offset="1"/>
  </linearGradient>
  <linearGradient id="b" x1="399.57" x2="399.57" y1="545.8" y2="517.8" gradientTransform="matrix(2.1429 0 0 2.1429 -826.36 -1107.5)" gradientUnits="userSpaceOnUse">
   <stop id="stop2" stop-color="#3889e9" offset="0"/>
   <stop id="stop4" stop-color="#5ea5fb" offset="1"/>
  </linearGradient>
  <linearGradient id="a" x1="399.99" x2="399.99" y1="545.14" y2="518.14" gradientTransform="matrix(2.1429 0 0 2.1429 -826.36 -1107.5)" gradientUnits="userSpaceOnUse">
   <stop id="stop7" stop-color="#61fcff" offset="0"/>
   <stop id="stop9" stop-color="#409eff" offset="1"/>
  </linearGradient>
  <filter id="c" x="-.036" y="-.036" width="1.072" height="1.072" color-interpolation-filters="sRGB">
   <feGaussianBlur id="feGaussianBlur12" stdDeviation="0.41999874"/>
  </filter>
  <linearGradient id="linearGradient875" x1="22.169" x2="34.169" y1="31.424" y2="31.424" gradientUnits="userSpaceOnUse" xlink:href="#linearGradient873"/>
  <linearGradient id="linearGradient883" x1="34.169" x2="46.169" y1="43.424" y2="43.424" gradientUnits="userSpaceOnUse" xlink:href="#linearGradient873"/>
  <linearGradient id="linearGradient891" x1="22.169" x2="34.169" y1="43.424" y2="43.424" gradientUnits="userSpaceOnUse" xlink:href="#linearGradient889"/>
  <linearGradient id="linearGradient899" x1="34.169" x2="46.169" y1="31.424" y2="31.424" gradientUnits="userSpaceOnUse" xlink:href="#linearGradient889"/>
  <linearGradient id="linearGradient907" x1="23.978" x2="32.368" y1="43.424" y2="43.424" gradientUnits="userSpaceOnUse" xlink:href="#linearGradient905"/>
  <linearGradient id="linearGradient915" x1="35.978" x2="44.368" y1="31.424" y2="31.424" gradientUnits="userSpaceOnUse" xlink:href="#linearGradient905"/>
  <filter id="filter989" x="-.12" y="-.12" width="1.24" height="1.24" color-interpolation-filters="sRGB">
   <feGaussianBlur id="feGaussianBlur991" stdDeviation="0.6"/>
  </filter>
  <filter id="filter993" x="-.12" y="-.12" width="1.24" height="1.24" color-interpolation-filters="sRGB">
   <feGaussianBlur id="feGaussianBlur995" stdDeviation="0.6"/>
  </filter>
  <filter id="filter997" x="-.12" y="-.12" width="1.24" height="1.24" color-interpolation-filters="sRGB">
   <feGaussianBlur id="feGaussianBlur999" stdDeviation="0.6"/>
  </filter>
  <filter id="filter1001" x="-.12" y="-.12" width="1.24" height="1.24" color-interpolation-filters="sRGB">
   <feGaussianBlur id="feGaussianBlur1003" stdDeviation="0.6"/>
  </filter>
  <filter id="filter1049" x="-.14442" y="-.15146" width="1.2888" height="1.3029" color-interpolation-filters="sRGB">
   <feGaussianBlur id="feGaussianBlur1051" stdDeviation="0.504875"/>
  </filter>
  <filter id="filter1053" x="-.14442" y="-.15146" width="1.2888" height="1.3029" color-interpolation-filters="sRGB">
   <feGaussianBlur id="feGaussianBlur1055" stdDeviation="0.504875"/>
  </filter>
 </defs>
 <circle id="circle20" transform="matrix(2.1429 0 0 2.1429 -826.36 -1107.5)" cx="400.57" cy="531.8" r="14" filter="url(#c)" opacity=".25" stroke-width=".73333"/>
 <g id="g28" stroke-width="1.5715">
  <circle id="circle22" cx="32.02" cy="32.044" r="30.001" fill="url(#a)"/>
  <circle id="circle24" cx="32.02" cy="32.044" r="30.001" fill-opacity="0"/>
  <circle id="circle26" cx="32.02" cy="32.044" r="0" fill="url(#b)"/>
 </g>
 <g id="g867" transform="matrix(1.3333 0 0 1.3333 -13.559 -17.898)">
  <g>
   <path id="path917" d="m34.169 31.424c0 3.313-2.688 6-6 6-3.313 0-6-2.688-6-6 0-3.313 2.688-6 6-6 3.313 0 6 2.688 6 6" filter="url(#filter989)" opacity=".25"/>
   <path id="path919" d="m46.169 43.424c0 3.313-2.688 6-6 6-3.313 0-6-2.688-6-6 0-3.313 2.688-6 6-6 3.313 0 6 2.688 6 6" filter="url(#filter993)" opacity=".25"/>
   <path id="path921" d="m34.169 43.424c0 3.313-2.688 6-6 6-3.313 0-6-2.688-6-6 0-3.313 2.688-6 6-6 3.313 0 6 2.688 6 6" filter="url(#filter997)" opacity=".25"/>
   <path id="path923" d="m46.169 31.424c0 3.313-2.688 6-6 6-3.313 0-6-2.688-6-6 0-3.313 2.688-6 6-6 3.313 0 6 2.688 6 6" filter="url(#filter1001)" opacity=".25"/>
  </g>
  <path id="path39" d="m34.169 31.424c0 3.313-2.688 6-6 6-3.313 0-6-2.688-6-6 0-3.313 2.688-6 6-6 3.313 0 6 2.688 6 6" fill="url(#linearGradient875)"/>
  <path id="path41" d="m46.169 43.424c0 3.313-2.688 6-6 6-3.313 0-6-2.688-6-6 0-3.313 2.688-6 6-6 3.313 0 6 2.688 6 6" fill="url(#linearGradient883)"/>
  <g>
   <path id="path43" d="m34.169 43.424c0 3.313-2.688 6-6 6-3.313 0-6-2.688-6-6 0-3.313 2.688-6 6-6 3.313 0 6 2.688 6 6" fill="url(#linearGradient891)"/>
   <path id="path1005" d="m30.724 47.424-2.582-1.383-2.602 1.34 0.52-2.883-2.082-2.059 2.902-0.398 1.316-2.617 1.277 2.637 2.895 0.445-2.117 2.027" filter="url(#filter1049)" opacity=".25"/>
   <path id="path45" d="m30.724 47.424-2.582-1.383-2.602 1.34 0.52-2.883-2.082-2.059 2.902-0.398 1.316-2.617 1.277 2.637 2.895 0.445-2.117 2.027" fill="url(#linearGradient907)"/>
  </g>
  <path id="path47" d="m46.169 31.424c0 3.313-2.688 6-6 6-3.313 0-6-2.688-6-6 0-3.313 2.688-6 6-6 3.313 0 6 2.688 6 6" fill="url(#linearGradient899)"/>
  <path id="path1007" d="m42.724 35.424-2.582-1.383-2.602 1.34 0.52-2.883-2.082-2.059 2.902-0.398 1.316-2.617 1.277 2.637 2.895 0.445-2.117 2.027" filter="url(#filter1053)" opacity=".25"/>
  <path id="path49" d="m42.724 35.424-2.582-1.383-2.602 1.34 0.52-2.883-2.082-2.059 2.902-0.398 1.316-2.617 1.277 2.637 2.895 0.445-2.117 2.027" fill="url(#linearGradient915)"/>
 </g>
</svg>
