<svg width="64" height="64" xmlns="http://www.w3.org/2000/svg" xmlns:xlink="http://www.w3.org/1999/xlink"><defs><linearGradient id="c"><stop stop-color="#ffb22a" offset="0"/><stop stop-color="#ffec4a" offset="1"/></linearGradient><linearGradient id="b"><stop stop-color="#373737" offset="0"/><stop stop-color="#646464" offset="1"/></linearGradient><linearGradient id="a"><stop stop-color="#f9f9f9" offset="0"/><stop stop-color="#dedede" offset="1"/></linearGradient><linearGradient id="f" x1="399.57" x2="399.57" y1="545.8" y2="517.8" gradientTransform="translate(-826.36 -1107.5) scale(2.1429)" gradientUnits="userSpaceOnUse"><stop stop-color="#3889e9" offset="0"/><stop stop-color="#5ea5fb" offset="1"/></linearGradient><linearGradient id="e" x1="399.99" x2="399.99" y1="545.14" y2="518.14" gradientTransform="translate(-826.36 -1107.5) scale(2.1429)" gradientUnits="userSpaceOnUse"><stop stop-color="#61fcff" offset="0"/><stop stop-color="#409eff" offset="1"/></linearGradient><linearGradient id="k" x1="22.169" x2="34.169" y1="31.424" y2="31.424" gradientUnits="userSpaceOnUse" xlink:href="#a"/><linearGradient id="l" x1="34.169" x2="46.169" y1="43.424" y2="43.424" gradientUnits="userSpaceOnUse" xlink:href="#a"/><linearGradient id="m" x1="22.169" x2="34.169" y1="43.424" y2="43.424" gradientUnits="userSpaceOnUse" xlink:href="#b"/><linearGradient id="p" x1="34.169" x2="46.169" y1="31.424" y2="31.424" gradientUnits="userSpaceOnUse" xlink:href="#b"/><linearGradient id="o" x1="23.978" x2="32.368" y1="43.424" y2="43.424" gradientUnits="userSpaceOnUse" xlink:href="#c"/><linearGradient id="r" x1="35.978" x2="44.368" y1="31.424" y2="31.424" gradientUnits="userSpaceOnUse" xlink:href="#c"/><filter id="d" x="-.036" y="-.036" width="1.072" height="1.072" color-interpolation-filters="sRGB"><feGaussianBlur stdDeviation=".42"/></filter><filter id="g" x="-.12" y="-.12" width="1.24" height="1.24" color-interpolation-filters="sRGB"><feGaussianBlur stdDeviation=".6"/></filter><filter id="h" x="-.12" y="-.12" width="1.24" height="1.24" color-interpolation-filters="sRGB"><feGaussianBlur stdDeviation=".6"/></filter><filter id="i" x="-.12" y="-.12" width="1.24" height="1.24" color-interpolation-filters="sRGB"><feGaussianBlur stdDeviation=".6"/></filter><filter id="j" x="-.12" y="-.12" width="1.24" height="1.24" color-interpolation-filters="sRGB"><feGaussianBlur stdDeviation=".6"/></filter><filter id="n" x="-.144" y="-.151" width="1.289" height="1.303" color-interpolation-filters="sRGB"><feGaussianBlur stdDeviation=".505"/></filter><filter id="q" x="-.144" y="-.151" width="1.289" height="1.303" color-interpolation-filters="sRGB"><feGaussianBlur stdDeviation=".505"/></filter></defs><circle transform="translate(-826.36 -1107.5) scale(2.1429)" cx="400.57" cy="531.8" r="14" filter="url(#d)" opacity=".25"/><g stroke-width="1.571"><circle cx="32.02" cy="32.044" r="30.001" fill="url(#e)"/><circle cx="32.02" cy="32.044" r="30.001" fill="none"/></g><path d="M34.169 31.424c0 3.313-2.688 6-6 6-3.313 0-6-2.688-6-6 0-3.313 2.688-6 6-6 3.313 0 6 2.688 6 6" filter="url(#g)" opacity=".25" transform="translate(-13.559 -17.898) scale(1.3333)"/><path d="M46.169 43.424c0 3.313-2.688 6-6 6-3.313 0-6-2.688-6-6 0-3.313 2.688-6 6-6 3.313 0 6 2.688 6 6" filter="url(#h)" opacity=".25" transform="translate(-13.559 -17.898) scale(1.3333)"/><path d="M34.169 43.424c0 3.313-2.688 6-6 6-3.313 0-6-2.688-6-6 0-3.313 2.688-6 6-6 3.313 0 6 2.688 6 6" filter="url(#i)" opacity=".25" transform="translate(-13.559 -17.898) scale(1.3333)"/><path d="M46.169 31.424c0 3.313-2.688 6-6 6-3.313 0-6-2.688-6-6 0-3.313 2.688-6 6-6 3.313 0 6 2.688 6 6" filter="url(#j)" opacity=".25" transform="translate(-13.559 -17.898) scale(1.3333)"/><path d="M34.169 31.424c0 3.313-2.688 6-6 6-3.313 0-6-2.688-6-6 0-3.313 2.688-6 6-6 3.313 0 6 2.688 6 6" fill="url(#k)" transform="translate(-13.559 -17.898) scale(1.3333)"/><path d="M46.169 43.424c0 3.313-2.688 6-6 6-3.313 0-6-2.688-6-6 0-3.313 2.688-6 6-6 3.313 0 6 2.688 6 6" fill="url(#l)" transform="translate(-13.559 -17.898) scale(1.3333)"/><path d="M34.169 43.424c0 3.313-2.688 6-6 6-3.313 0-6-2.688-6-6 0-3.313 2.688-6 6-6 3.313 0 6 2.688 6 6" fill="url(#m)" transform="translate(-13.559 -17.898) scale(1.3333)"/><path d="m30.724 47.424-2.582-1.383-2.602 1.34.52-2.883-2.082-2.059 2.902-.398 1.316-2.617 1.277 2.637 2.895.445-2.117 2.027" filter="url(#n)" opacity=".25" transform="translate(-13.559 -17.898) scale(1.3333)"/><path d="m30.724 47.424-2.582-1.383-2.602 1.34.52-2.883-2.082-2.059 2.902-.398 1.316-2.617 1.277 2.637 2.895.445-2.117 2.027" fill="url(#o)" transform="translate(-13.559 -17.898) scale(1.3333)"/><path d="M46.169 31.424c0 3.313-2.688 6-6 6-3.313 0-6-2.688-6-6 0-3.313 2.688-6 6-6 3.313 0 6 2.688 6 6" fill="url(#p)" transform="translate(-13.559 -17.898) scale(1.3333)"/><path d="m42.724 35.424-2.582-1.383-2.602 1.34.52-2.883-2.082-2.059 2.902-.398 1.316-2.617 1.277 2.637 2.895.445-2.117 2.027" filter="url(#q)" opacity=".25" transform="translate(-13.559 -17.898) scale(1.3333)"/><path d="m42.724 35.424-2.582-1.383-2.602 1.34.52-2.883-2.082-2.059 2.902-.398 1.316-2.617 1.277 2.637 2.895.445-2.117 2.027" fill="url(#r)" transform="translate(-13.559 -17.898) scale(1.3333)"/></svg>