<svg width="64" height="64" version="1.1" xmlns="http://www.w3.org/2000/svg">
 <defs>
  <linearGradient id="b" x1="399.57" x2="399.57" y1="545.8" y2="517.8" gradientTransform="matrix(2.1429,0,0,2.1429,-826.36,-1107.5)" gradientUnits="userSpaceOnUse">
   <stop stop-color="#3889e9" offset="0"/>
   <stop stop-color="#5ea5fb" offset="1"/>
  </linearGradient>
  <filter id="c" x="-.036" y="-.036" width="1.072" height="1.072" color-interpolation-filters="sRGB">
   <feGaussianBlur stdDeviation="0.41999874"/>
  </filter>
  <linearGradient id="a" x1="399.99" x2="399.99" y1="545.14" y2="518.14" gradientTransform="matrix(2.1429,0,0,2.1429,-826.36,-1107.5)" gradientUnits="userSpaceOnUse">
   <stop stop-color="#61fcff" offset="0"/>
   <stop stop-color="#198aff" offset="1"/>
  </linearGradient>
  <filter id="filter1041" x="-.11452" y="-.10218" width="1.229" height="1.2044" color-interpolation-filters="sRGB">
   <feGaussianBlur stdDeviation="1.2772872"/>
  </filter>
 </defs>
 <circle transform="matrix(2.1429 0 0 2.1429 -826.36 -1107.5)" cx="400.57" cy="531.8" r="14" filter="url(#c)" opacity=".25" stroke-width=".73333"/>
 <g stroke-width="1.5715">
  <circle cx="32.02" cy="32.044" r="30.001" fill="url(#a)"/>
  <circle cx="32.02" cy="32.044" r="30.001" fill-opacity="0"/>
  <circle cx="32.02" cy="32.044" r="0" fill="url(#b)"/>
 </g>
 <path d="m42.505 21.396c-4.2024 0.91818-8.9345 1.4479-12.925 1.6598l0.21189-1.0594c0.2472-1.1654 0.42377-2.3308 0.81223-3.5668l-4.944-0.21189c0.03532 1.1654 0 2.0129-0.17657 3.5314-0.03532 0.42377-0.14126 0.88286-0.21189 1.4126-2.1189-0.03532-4.7674-0.31783-6.851-0.67097v4.3437c1.7657 0.17657 3.814 0.31783 6.0388 0.35314-0.91817 3.8493-2.3308 8.5108-3.9905 11.724l4.1318 1.4832c0.35314-0.60034 0.60034-1.0594 0.9888-1.5185 2.0836-2.6839 5.6503-4.1318 9.6761-4.1318 3.3902 0 5.2265 1.7657 5.2265 3.8493 0 5.1559-7.7339 6.0741-15.397 4.8381l1.236 4.5202c11.301 1.2007 18.858-1.6245 18.858-9.4996 0-4.4496-3.7433-7.4867-9.3936-7.4867-3.2136 0-5.8622 0.63566-8.6873 2.1895 0.56503-1.6951 1.1301-3.9199 1.5891-6.0388 4.6968-0.2472 10.241-0.91818 13.879-1.4832z" fill="#000000" filter="url(#filter1041)" opacity=".15" stroke-width="1.1036"/>
 <path d="m42.7 20.178c-4.2024 0.91818-8.9345 1.4479-12.925 1.6598l0.21189-1.0594c0.2472-1.1654 0.42377-2.3308 0.81223-3.5668l-4.944-0.21189c0.03532 1.1654 0 2.0129-0.17657 3.5314-0.03532 0.42377-0.14126 0.88286-0.21189 1.4126-2.1189-0.03532-4.7674-0.31783-6.851-0.67097v4.3437c1.7657 0.17657 3.814 0.31783 6.0388 0.35314-0.91817 3.8493-2.3308 8.5108-3.9905 11.724l4.1318 1.4832c0.35314-0.60034 0.60034-1.0594 0.9888-1.5185 2.0836-2.6839 5.6503-4.1318 9.6761-4.1318 3.3902 0 5.2265 1.7657 5.2265 3.8493 0 5.1559-7.7339 6.0741-15.397 4.8381l1.236 4.5202c11.301 1.2007 18.858-1.6245 18.858-9.4996 0-4.4496-3.7433-7.4867-9.3936-7.4867-3.2136 0-5.8622 0.63566-8.6873 2.1895 0.56503-1.6951 1.1301-3.9199 1.5891-6.0388 4.6968-0.2472 10.241-0.91818 13.879-1.4832z" fill="#ffffff" stroke-width="1.1036"/>
</svg>
