<svg width="64" height="64" xmlns="http://www.w3.org/2000/svg"><defs><linearGradient id="c" x1="399.57" x2="399.57" y1="545.8" y2="517.8" gradientTransform="translate(-826.36 -1107.5) scale(2.1429)" gradientUnits="userSpaceOnUse"><stop stop-color="#3889e9" offset="0"/><stop stop-color="#5ea5fb" offset="1"/></linearGradient><linearGradient id="b" x1="399.99" x2="399.99" y1="545.14" y2="518.14" gradientTransform="translate(-826.36 -1107.5) scale(2.1429)" gradientUnits="userSpaceOnUse"><stop stop-color="#61fcff" offset="0"/><stop stop-color="#198aff" offset="1"/></linearGradient><filter id="a" x="-.036" y="-.036" width="1.072" height="1.072" color-interpolation-filters="sRGB"><feGaussianBlur stdDeviation=".42"/></filter><filter id="d" x="-.115" y="-.102" width="1.229" height="1.204" color-interpolation-filters="sRGB"><feGaussianBlur stdDeviation="1.277"/></filter></defs><circle transform="translate(-826.36 -1107.5) scale(2.1429)" cx="400.57" cy="531.8" r="14" filter="url(#a)" opacity=".25"/><g stroke-width="1.571"><circle cx="32.02" cy="32.044" r="30.001" fill="url(#b)"/><circle cx="32.02" cy="32.044" r="30.001" fill="none"/></g><path d="M42.505 21.396c-4.202.918-8.934 1.448-12.925 1.66l.212-1.06c.247-1.165.424-2.33.812-3.566l-4.944-.212c.035 1.165 0 2.013-.176 3.531-.036.424-.142.883-.212 1.413-2.12-.036-4.768-.318-6.851-.671v4.343c1.765.177 3.814.318 6.038.354-.918 3.849-2.33 8.51-3.99 11.724l4.132 1.483c.353-.6.6-1.06.989-1.519 2.083-2.684 5.65-4.132 9.676-4.132 3.39 0 5.226 1.766 5.226 3.85 0 5.156-7.734 6.074-15.397 4.838l1.236 4.52c11.301 1.2 18.858-1.624 18.858-9.5 0-4.45-3.743-7.486-9.393-7.486-3.214 0-5.863.635-8.688 2.19.565-1.696 1.13-3.92 1.59-6.04 4.696-.247 10.24-.918 13.878-1.483z" filter="url(#d)" opacity=".15"/><path d="M42.7 20.178c-4.202.918-8.934 1.448-12.925 1.66l.212-1.06c.247-1.165.424-2.33.812-3.566L25.855 17c.035 1.165 0 2.013-.176 3.531-.036.424-.142.883-.212 1.413-2.12-.036-4.768-.318-6.851-.671v4.343c1.765.177 3.814.318 6.038.354-.918 3.849-2.33 8.51-3.99 11.724l4.132 1.483c.353-.6.6-1.06.989-1.519 2.083-2.684 5.65-4.132 9.676-4.132 3.39 0 5.226 1.766 5.226 3.85 0 5.156-7.734 6.074-15.397 4.838l1.236 4.52c11.301 1.2 18.858-1.624 18.858-9.5 0-4.45-3.743-7.486-9.393-7.486-3.214 0-5.863.635-8.688 2.19.565-1.696 1.13-3.92 1.59-6.04 4.696-.247 10.24-.918 13.878-1.483z" fill="#fff"/></svg>