<svg xmlns="http://www.w3.org/2000/svg" width="64" height="64"><defs><filter id="a" width="1.072" height="1.072" x="-.036" y="-.036" color-interpolation-filters="sRGB"><feGaussianBlur stdDeviation=".42"/></filter><filter id="c" width="1.117" height="1.123" x="-.058" y="-.062" color-interpolation-filters="sRGB"><feGaussianBlur stdDeviation=".731"/></filter><linearGradient id="b" x1="399.99" x2="399.99" y1="545.14" y2="518.14" gradientTransform="translate(-826.36 -1107.5)scale(2.1429)" gradientUnits="userSpaceOnUse"><stop offset="0" stop-color="#61fcff"/><stop offset="1" stop-color="#198aff"/></linearGradient></defs><circle cx="400.57" cy="531.8" r="14" filter="url(#a)" opacity=".25" transform="translate(-826.36 -1107.5)scale(2.1429)"/><circle cx="32.02" cy="32.044" r="30.001" fill="none"/><g stroke-width="1.571"><circle cx="32.02" cy="32.044" r="30.001" fill="url(#b)"/><circle cx="32.02" cy="32.044" r="30.001" fill="none"/></g><path d="M40.842 17.771c-.74 1.972-1.604 4.065-2.586 5.79h-9.098v2.394h3.308v4.257c0 .74-.045 1.6-.126 2.259h-3.988v2.406h3.742c-.493 4.352-2.174 7.368-5.05 9.501l1.725 1.851c3.37-2.465 5.337-6.095 5.915-11.352h5.01V46.23h2.466V34.877H47v-2.406h-4.84v-6.517h4.033v-2.393h-5.351c.905-1.398 1.806-3.24 2.711-5.05zm-18.957.076v4.867h-4.078v2.434h4.078v6.422c-1.56.659-3.083 1.313-4.885 1.972l.86 2.586c1.48-.574 2.712-1.148 4.025-1.726v7.762q0 1.48-.618 1.48c-1.148 0-2.093-.166-3.16-.494l.493 2.586c.986.247 1.891.372 3.038.372q1.48 0 2.093-.74c.413-.492.565-1.357.565-2.585v-9.609l3.787-1.972-.372-2.218c-1.067.493-2.348 1.026-3.415 1.6v-5.44h4.056v-2.43h-4.056v-4.867zm11.563.296-2.46.74c.905 1.147 1.6 2.464 2.093 3.943l2.585-.865a11.9 11.9 0 0 0-2.213-3.818zm1.479 7.811h4.768v6.517H34.81c.076-.574.121-1.313.121-1.883z" filter="url(#c)" opacity=".25"/><path fill="#f9f9f9" d="M40.842 17.771c-.74 1.972-1.604 4.065-2.586 5.79h-9.098v2.394h3.308v4.257c0 .74-.045 1.6-.126 2.259h-3.988v2.406h3.742c-.493 4.352-2.174 7.368-5.05 9.501l1.725 1.851c3.37-2.465 5.337-6.095 5.915-11.352h5.01V46.23h2.466V34.877H47v-2.406h-4.84v-6.517h4.033v-2.393h-5.351c.905-1.398 1.806-3.24 2.711-5.05zm-18.957.076v4.867h-4.078v2.434h4.078v6.422c-1.56.659-3.083 1.313-4.885 1.972l.86 2.586c1.48-.574 2.712-1.148 4.025-1.726v7.762q0 1.48-.618 1.48c-1.148 0-2.093-.166-3.16-.494l.493 2.586c.986.247 1.891.372 3.038.372q1.48 0 2.093-.74c.413-.492.565-1.357.565-2.585v-9.609l3.787-1.972-.372-2.218c-1.067.493-2.348 1.026-3.415 1.6v-5.44h4.056v-2.43h-4.056v-4.867zm11.563.296-2.46.74c.905 1.147 1.6 2.464 2.093 3.943l2.585-.865a11.9 11.9 0 0 0-2.213-3.818zm1.479 7.811h4.768v6.517H34.81c.076-.574.121-1.313.121-1.883z"/></svg>