<svg xmlns="http://www.w3.org/2000/svg" width="64" height="64"><defs><clipPath id="d"><rect width="56.002" height="56.002" x="4.174" y="3.824" fill="#b94b4b" stroke-width="3.78" opacity=".586" rx="13.002" ry="13.002"/></clipPath><clipPath id="c"><rect width="56.002" height="56.002" x="4.174" y="3.824" fill="#b94b4b" stroke-width="3.78" opacity=".586" rx="13.002" ry="13.002"/></clipPath><clipPath id="b"><rect width="56.002" height="56.002" x="4.174" y="3.824" fill="#b94b4b" stroke-width="3.78" opacity=".586" rx="13.002" ry="13.002"/></clipPath><clipPath id="e"><rect width="56.002" height="56.002" x="4.174" y="3.824" fill="#b94b4b" stroke-width="3.78" opacity=".586" rx="13.002" ry="13.002"/></clipPath><filter id="a" width="1.061" height="1.061" x="-.031" y="-.031" color-interpolation-filters="sRGB"><feGaussianBlur stdDeviation=".768"/></filter></defs><rect width="60" height="60" x="2" y="3" filter="url(#a)" opacity=".15" rx="30" ry="30"/><circle cx="32" cy="32" r="30" fill="#3a3545"/><path fill="#f5614f" d="M12 45h7.892v17.892l-3.946-2.96-3.945 2.96z"/><circle cx="32" cy="32" r="26" fill="#5c5c63"/><path fill="#dedcd9" d="M32 6v26h26A26 26 0 0 0 32 6m0 26H6a26 26 0 0 0 26 26z"/><path fill="none" stroke="#5c5c63" stroke-linecap="round" stroke-linejoin="round" stroke-width="4.307" d="M51.547 15.67a4.307 4.308 0 1 1-8.613 0 4.307 4.307 0 0 1 8.613 0m0 0" clip-path="url(#b)" transform="translate(-4.78 5.868)"/><path fill="none" stroke="#dedcd9" stroke-linecap="round" stroke-width="3.23" d="m47.24 33.979 4.845 4.846-4.845 4.847m4.845-4.847H41.318" clip-path="url(#c)" transform="translate(-3.704 4.175)"/><path fill="#5c5c63" d="M18.709 32.902a2.692 2.692 0 1 1 0 5.385 2.692 2.692 0 0 1 0-5.385m7.537 0a2.692 2.692 0 1 1 0 5.385 2.692 2.692 0 0 1 0-5.385m-7.537 7.539a2.692 2.692 0 1 1 0 5.384 2.692 2.692 0 0 1 0-5.384m7.537 0a2.692 2.692 0 1 1 0 5.384 2.692 2.692 0 0 1 0-5.384" clip-path="url(#d)" transform="translate(-.937 3.098)"/><path fill="#dedcd9" d="M29.072 13.565c0-1.955-1.59-3.54-3.552-3.54a3.55 3.55 0 0 0-3.043 1.716 3.55 3.55 0 0 0-3.042-1.716 3.546 3.546 0 0 0-3.552 3.54 3.52 3.52 0 0 0 1.12 2.58h-.001l5.394 5.18 5.557-5.18h-.002a3.53 3.53 0 0 0 1.121-2.58" clip-path="url(#e)" transform="translate(-1.477 5.676)"/></svg>