<svg width="64" height="64" enable-background="new 0 0 1024 1024" image-rendering="optimizeSpeed" xmlns="http://www.w3.org/2000/svg" xmlns:xlink="http://www.w3.org/1999/xlink"><defs><linearGradient id="a"><stop stop-color="#fec589" offset="0"/><stop stop-color="#f34f17" offset="1"/></linearGradient><linearGradient id="b" x1="520" x2="520.32" y1="4" y2="1484.8" gradientUnits="userSpaceOnUse" xlink:href="#a"/><linearGradient id="d" x1="520.32" x2="520" y1="-118.42" y2="1024" gradientUnits="userSpaceOnUse"><stop stop-color="#fad961" offset="0"/><stop stop-color="#f66b1c" offset="1"/></linearGradient><linearGradient id="c" x1="520" x2="520" y1="4" y2="1024" gradientUnits="userSpaceOnUse" xlink:href="#a"/><linearGradient id="e" x1="620.52" x2="-662.07" y1="422.67" y2="1144.1" gradientUnits="userSpaceOnUse" xlink:href="#a"/><filter id="g" x="-.036" y="-.036" width="1.072" height="1.072" color-interpolation-filters="sRGB"><feGaussianBlur stdDeviation="8.4"/></filter><filter id="f" x="-.036" y="-.036" width="1.072" height="1.072" color-interpolation-filters="sRGB"><feGaussianBlur stdDeviation="14.143"/></filter></defs><g stroke-width="15.683"><g transform="translate(-.614 -.678) scale(.06376)"><path d="M983.25 511.35c0-7.95-.2-15.85-.5-23.55q-8-180.15-137.55-309.85C753.15 85.95 642 39.9 511.8 39.9c-130.15 0-241.35 46.05-333.35 138.05-92.05 92-138.1 203.2-138.1 333.4 0 130.15 46.05 241.35 138.1 333.35C264.6 931 367.8 976.85 487.6 982.3c8 .3 16 .5 24.2.5 130.2 0 241.35-46.1 333.4-138.1 92-92 138.05-203.2 138.05-333.35z" fill="url(#d)" transform="translate(.731 2.18) scale(.99798)"/><g transform="translate(.731 2.18) scale(.99798)" fill="url(#e)" opacity=".75"><path d="M983.25 511.35c0-7.95-.2-15.85-.5-23.55q-8-180.15-137.55-309.85C753.15 85.95 642 39.9 511.8 39.9c-130.15 0-241.35 46.05-333.35 138.05-92.05 92-138.1 203.2-138.1 333.4 0 130.15 46.05 241.35 138.1 333.35C264.6 931 367.8 976.85 487.6 982.3c8 .3 16 .5 24.2.5 130.2 0 241.35-46.1 333.4-138.1 92-92 138.05-203.2 138.05-333.35z" fill="#000" filter="url(#f)" opacity=".25"/><path d="M983.25 511.35c0-7.95-.2-15.85-.5-23.55q-8-180.15-137.55-309.85C753.15 85.95 642 39.9 511.8 39.9c-130.15 0-241.35 46.05-333.35 138.05-92.05 92-138.1 203.2-138.1 333.4 0 130.15 46.05 241.35 138.1 333.35C264.6 931 367.8 976.85 487.6 982.3c8 .3 16 .5 24.2.5 130.2 0 241.35-46.1 333.4-138.1 92-92 138.05-203.2 138.05-333.35z"/></g><rect x="240" y="244" width="560" height="560" ry="123.22" fill="#333" fill-rule="evenodd" filter="url(#g)" opacity=".25" style="paint-order:fill markers stroke"/><rect x="229.2" y="230.2" width="564.6" height="564.6" ry="124.23" fill="#333" fill-rule="evenodd" style="paint-order:fill markers stroke"/><path d="M439.14 341.98v-40.741H316.92v40.741h40.741v142.59H316.92v40.741h122.22V484.57h-40.741V341.98m134.29 182.98c-24.603-2.81-41.93-18.865-57.428-33.017L500 464.004c8.125 8.434 20.36 18.535 33.064 20.224s29.04.295 38.853-8.033c9.813-8.327 9.813-19.632 9.813-33.118v-141.84h40.74l-.113 144.29c.114 28.7-10.777 48.054-20.842 58.848-16.097 16.476-36.945 18.147-56.396 20.842M276.17 667.91h203.7v40.741h-203.7z" fill="#f9f9f9"/></g></g></svg>