<svg xmlns="http://www.w3.org/2000/svg" xmlns:xlink="http://www.w3.org/1999/xlink" width="64" height="64"><defs><linearGradient id="d" x1="7.937" x2="7.937" y1="15.081" y2="1.852" gradientTransform="scale(3.7796)" gradientUnits="userSpaceOnUse"><stop offset="0" stop-color="#f1efeb"/><stop offset="1" stop-color="#fdfcfc"/></linearGradient><linearGradient xlink:href="#a" id="f" x1="94" x2="106" y1="266" y2="266" gradientTransform="translate(-375.249 -166)" gradientUnits="userSpaceOnUse"/><linearGradient id="a"><stop offset="0" style="stop-color:#c0bfbc;stop-opacity:1"/><stop offset="1" style="stop-color:#77767b;stop-opacity:1"/></linearGradient><linearGradient xlink:href="#a" id="h" x1="82" x2="82" y1="264" y2="272" gradientTransform="matrix(1 0 0 .75 -58 -477.249)" gradientUnits="userSpaceOnUse"/><linearGradient xlink:href="#a" id="j" x1="82" x2="82" y1="264" y2="272" gradientTransform="matrix(1 0 0 .75 -48 -477.249)" gradientUnits="userSpaceOnUse"/><linearGradient id="b"><stop offset="0" style="stop-color:#549ff8;stop-opacity:1"/><stop offset="1" style="stop-color:#06499b;stop-opacity:1"/></linearGradient><linearGradient id="c"><stop offset="0" style="stop-color:#1a81ff;stop-opacity:0"/><stop offset=".5" style="stop-color:#137af9;stop-opacity:.5905512"/><stop offset="1" style="stop-color:#0069eb;stop-opacity:1"/></linearGradient><filter id="i" width="1.812" height="1.508" x="-.406" y="-.254" style="color-interpolation-filters:sRGB"><feGaussianBlur stdDeviation=".846"/></filter><filter id="g" width="1.812" height="1.508" x="-.406" y="-.254" style="color-interpolation-filters:sRGB"><feGaussianBlur stdDeviation=".846"/></filter><filter id="e" width="1.338" height="1.338" x="-.169" y="-.169" style="color-interpolation-filters:sRGB"><feGaussianBlur stdDeviation=".846"/></filter><radialGradient xlink:href="#b" id="k" cx="-64" cy="-224" r="36" fx="-64" fy="-224" gradientTransform="matrix(1.4935 0 0 .99567 31.584 -.97)" gradientUnits="userSpaceOnUse"/><radialGradient xlink:href="#c" id="l" cx="-64" cy="-224" r="36" fx="-64" fy="-224" gradientTransform="matrix(1.75 0 0 1.16667 48 37.333)" gradientUnits="userSpaceOnUse"/></defs><rect width="60" height="60" x="2" y="2" fill="url(#d)" rx="30" ry="30"/><g style="display:inline;enable-background:new" transform="translate(1.072 -82.696)scale(.48327)"><circle cx="100" cy="277.249" r="6" style="display:inline;opacity:.547464;mix-blend-mode:normal;fill:#5e5c64;fill-opacity:1;stroke:none;stroke-width:1;stroke-opacity:1;filter:url(#e);enable-background:new"/><circle cx="-275.249" cy="100" r="6" style="display:inline;fill:url(#f);fill-opacity:1;stroke:none;stroke-width:1;stroke-opacity:1;enable-background:new" transform="rotate(-90)"/><rect width="5" height="8" x="22" y="273.249" rx="2" ry="2" style="display:inline;opacity:.547464;mix-blend-mode:normal;fill:#5e5c64;fill-opacity:1;stroke:none;stroke-width:1;stroke-opacity:1;filter:url(#g);enable-background:new"/><rect width="5" height="6" x="22" y="-279.249" rx="2" ry="2" style="display:inline;fill:url(#h);fill-opacity:1;stroke:none;stroke-width:1;stroke-opacity:1;enable-background:new" transform="scale(1 -1)"/><rect width="5" height="8" x="32" y="273.249" rx="2" ry="2" style="display:inline;opacity:.547464;mix-blend-mode:normal;fill:#5e5c64;fill-opacity:1;stroke:none;stroke-width:1;stroke-opacity:1;filter:url(#i);enable-background:new"/><rect width="5" height="6" x="32" y="-279.249" rx="2" ry="2" style="display:inline;fill:url(#j);fill-opacity:1;stroke:none;stroke-width:1;stroke-opacity:1;enable-background:new" transform="scale(1 -1)"/><circle cx="104" cy="275.249" r="1" style="fill:#241f31;fill-opacity:1;stroke:none;stroke-opacity:1"/></g><path d="M-100-248h72v48h-72z" style="display:inline;opacity:1;vector-effect:none;fill:url(#k);fill-opacity:1;stroke:none;stroke-width:.011211px;stroke-linecap:butt;stroke-linejoin:miter;stroke-miterlimit:4;stroke-dasharray:none;stroke-dashoffset:0;stroke-opacity:1;marker:none;marker-start:none;marker-mid:none;marker-end:none;paint-order:normal;enable-background:new" transform="matrix(-.59524 0 0 -.61772 -6.095 -112.813)"/><g style="display:inline;stroke-width:.707107;enable-background:new"><g style="fill:#abdaff;fill-opacity:1;stroke-width:.707107"><path d="M60 200h2v48h-2z" style="opacity:.55;fill:#abdaff;fill-opacity:1;stroke:none;stroke-width:.707107;stroke-opacity:1" transform="matrix(1.19048 0 0 .61772 -44.19 -112.813)"/><path d="M66 200h4v48h-4z" style="opacity:.2;fill:#abdaff;fill-opacity:1;stroke:none;stroke-width:.707107;stroke-opacity:1" transform="matrix(1.19048 0 0 .61772 -44.19 -112.813)"/><path d="M46 200h2v48h-2z" style="opacity:.4;fill:#abdaff;fill-opacity:1;stroke:none;stroke-width:.707107;stroke-opacity:1" transform="matrix(1.19048 0 0 .61772 -44.19 -112.813)"/><path d="M80 200h2v48h-2z" style="opacity:.55;fill:#abdaff;fill-opacity:1;stroke:none;stroke-width:.707107;stroke-opacity:1" transform="matrix(1.19048 0 0 .61772 -44.19 -112.813)"/><path d="M54 200h1v48h-1z" style="opacity:.2;fill:#abdaff;fill-opacity:1;stroke:none;stroke-width:.707107;stroke-opacity:1" transform="matrix(1.19048 0 0 .61772 -44.19 -112.813)"/><path d="M75 200h1v48h-1z" style="opacity:.55;fill:#abdaff;fill-opacity:1;stroke:none;stroke-width:.707107;stroke-opacity:1" transform="matrix(1.19048 0 0 .61772 -44.19 -112.813)"/></g><g style="stroke-width:.707107"><path d="M62 200h4v48h-4z" style="opacity:.4;fill:#023b83;fill-opacity:1;stroke:none;stroke-width:.707107;stroke-opacity:1" transform="matrix(1.19048 0 0 .61772 -44.19 -112.813)"/><path d="M76 200h4v48h-4z" style="opacity:.2;fill:#023b83;fill-opacity:1;stroke:none;stroke-width:.707107;stroke-opacity:1" transform="matrix(1.19048 0 0 .61772 -44.19 -112.813)"/><path d="M52 200h2v48h-2z" style="opacity:.55;fill:#023b83;fill-opacity:1;stroke:none;stroke-width:.707107;stroke-opacity:1" transform="matrix(1.19048 0 0 .61772 -44.19 -112.813)"/></g></g><path d="M-100-248h72v48h-72z" style="display:inline;opacity:1;vector-effect:none;fill:url(#l);fill-opacity:1;stroke:none;stroke-width:.011211px;stroke-linecap:butt;stroke-linejoin:miter;stroke-miterlimit:4;stroke-dasharray:none;stroke-dashoffset:0;stroke-opacity:1;marker:none;marker-start:none;marker-mid:none;marker-end:none;paint-order:normal;enable-background:new" transform="matrix(-.59524 0 0 -.61772 -6.095 -112.813)"/><path d="M34.002-187.418a20.256 20.256 0 0 1-20.3-20.3v-32.563c0-11.247 9.054-20.3 20.3-20.3h59.996c11.246 0 20.3 9.053 20.3 20.3v32.562c0 11.246-9.054 20.3-20.3 20.3zm-.287-5.905h60.57c7.787 0 14.056-6.249 14.056-14.008v-33.338c0-7.76-6.27-14.008-14.056-14.008h-60.57c-7.787 0-14.057 6.248-14.057 14.008v33.338c0 7.76 6.27 14.008 14.057 14.008" style="display:inline;enable-background:new;opacity:1;vector-effect:none;fill:#241f31;fill-opacity:1;stroke:none;stroke-width:.0128163px;stroke-linecap:butt;stroke-linejoin:miter;stroke-miterlimit:4;stroke-dasharray:none;stroke-dashoffset:0;stroke-opacity:1;marker:none;marker-start:none;marker-mid:none;marker-end:none;paint-order:normal" transform="matrix(.48327 0 0 -.48327 1.072 -82.696)"/></svg>