<svg width="64" height="64" xmlns="http://www.w3.org/2000/svg"><defs><filter id="a" x="-.036" y="-.036" width="1.072" height="1.072" color-interpolation-filters="sRGB"><feGaussianBlur stdDeviation=".42"/></filter><filter id="f" x="-.05" y="-.075" width="1.1" height="1.15" color-interpolation-filters="sRGB"><feGaussianBlur stdDeviation=".777"/></filter><filter id="e" x="-.096" y="-.096" width="1.192" height="1.192" color-interpolation-filters="sRGB"><feGaussianBlur stdDeviation=".88"/></filter><filter id="d" x="-.08" y="-.12" width="1.16" height="1.24" color-interpolation-filters="sRGB"><feGaussianBlur stdDeviation="1.244"/></filter><linearGradient id="c" x1="399.57" x2="399.57" y1="545.8" y2="517.8" gradientTransform="translate(-826.36 -1107.5) scale(2.1429)" gradientUnits="userSpaceOnUse"><stop stop-color="#3889e9" offset="0"/><stop stop-color="#5ea5fb" offset="1"/></linearGradient><linearGradient id="b" x1="399.99" x2="399.99" y1="545.14" y2="518.14" gradientTransform="translate(-826.36 -1107.5) scale(2.1429)" gradientUnits="userSpaceOnUse"><stop stop-color="#7adcfc" offset="0"/><stop stop-color="#0a79ed" offset="1"/></linearGradient></defs><circle transform="translate(-826.36 -1107.5) scale(2.1429)" cx="400.57" cy="531.8" r="14" filter="url(#a)" opacity=".25"/><g stroke-width="1.571"><circle cx="32.02" cy="32.044" r="30.001" fill="url(#b)"/><circle cx="32.02" cy="32.044" r="30.001" fill="none"/></g><path d="M32.478 22.116a11.145 11.145 0 0 0-11.145 11.145 11.145 11.145 0 0 0 .018.512 6.632 6.632 0 0 0-5.997 6.595A6.632 6.632 0 0 0 21.986 47h21.642a9.018 9.018 0 0 0 9.018-9.018 9.018 9.018 0 0 0-9.018-9.018 9.018 9.018 0 0 0-.857.049 11.145 11.145 0 0 0-10.294-6.897z" filter="url(#d)" opacity=".1" style="paint-order:normal"/><circle cx="22" cy="28" r="11" filter="url(#e)" opacity=".25" style="paint-order:normal"/><circle cx="22" cy="28" r="11" fill="#ffd20f" style="paint-order:normal"/><path d="M32.478 22.116a11.145 11.145 0 0 0-11.145 11.145 11.145 11.145 0 0 0 .018.512 6.632 6.632 0 0 0-5.997 6.595A6.632 6.632 0 0 0 21.986 47h21.642a9.018 9.018 0 0 0 9.018-9.018 9.018 9.018 0 0 0-9.018-9.018 9.018 9.018 0 0 0-.857.049 11.145 11.145 0 0 0-10.294-6.897z" filter="url(#f)" opacity=".15" style="paint-order:normal"/><path d="M32.478 22.116a11.145 11.145 0 0 0-11.145 11.145 11.145 11.145 0 0 0 .018.512 6.632 6.632 0 0 0-5.997 6.595A6.632 6.632 0 0 0 21.986 47h21.642a9.018 9.018 0 0 0 9.018-9.018 9.018 9.018 0 0 0-9.018-9.018 9.018 9.018 0 0 0-.857.049 11.145 11.145 0 0 0-10.294-6.897z" fill="#fff" opacity=".85" style="paint-order:normal"/></svg>