<svg width="64" height="64" version="1.1" viewBox="0 0 16.933 16.933" xmlns="http://www.w3.org/2000/svg">
 <defs>
  <linearGradient id="d" x1="167.59" x2="167.59" y1="196.38" y2="206.55" gradientTransform="matrix(.80992 0 0 .72893 -127.27 -138.39)" gradientUnits="userSpaceOnUse">
   <stop stop-color="#4d4d4d" offset="0"/>
   <stop stop-color="#1a1a1a" offset="1"/>
  </linearGradient>
  <linearGradient id="a" x1="8.4667" x2="8.4667" y1="280.6" y2="296.47" gradientTransform="translate(0,-280.07)" gradientUnits="userSpaceOnUse">
   <stop stop-color="#63984b" offset="0"/>
   <stop stop-color="#8dbf76" offset="1"/>
  </linearGradient>
  <filter id="g" x="-.036" y="-.036" width="1.072" height="1.072" color-interpolation-filters="sRGB">
   <feGaussianBlur stdDeviation="0.238125"/>
  </filter>
  <filter id="f" x="-.06" y="-.06" width="1.12" height="1.12" color-interpolation-filters="sRGB">
   <feGaussianBlur stdDeviation="0.18520833"/>
  </filter>
  <linearGradient id="c" x1="32" x2="32" y1="11" y2="53" gradientTransform="scale(.26458)" gradientUnits="userSpaceOnUse">
   <stop stop-color="#f7bd39" offset="0"/>
   <stop stop-color="#f9e657" offset="1"/>
  </linearGradient>
 </defs>
 <circle cx="8.4667" cy="8.46" r="7.9375" fill-rule="evenodd" filter="url(#g)" opacity=".25" style="paint-order:stroke fill markers"/>
 <circle cx="8.4667" cy="8.46" r="7.9375" fill="url(#a)" fill-rule="evenodd" style="paint-order:stroke fill markers"/>
 <path d="m5.027 2.9104v2.1166h-2.1166v0.52916h2.1166v0.52916h-2.1166v0.52916h2.1166v0.52916h-2.1166v0.52916h2.1166v0.52916h-2.1166v0.52916h2.1166v0.52916h-2.1166v0.52916h2.1166v0.52916h-2.1166v0.52916h2.1166v0.52916h-2.1166v0.52916h2.1166v2.1166h0.52916v-2.1166h0.52916v2.1166h0.52916v-2.1166h0.52916v2.1166h0.52916v-2.1166h0.52916v2.1166h0.52916v-2.1166h0.52916v2.1166h0.52916v-2.1166h0.52916v2.1166h0.52916v-2.1166h0.52916v2.1166h0.52916v-2.1166h2.1166v-0.52916h-2.1166v-0.52916h2.1166v-0.52916h-2.1166v-0.52916h2.1166v-0.52916h-2.1166v-0.52916h2.1166v-0.52916h-2.1166v-0.52916h2.1166v-0.52916h-2.1166v-0.52916h2.1166v-0.52916h-2.1166v-0.52916h2.1166v-0.52916h-2.1166v-2.1166h-0.52916v2.1166h-0.52916v-2.1166h-0.52916v2.1166h-0.52916v-2.1166h-0.52916v2.1166h-0.52916v-2.1166h-0.52916v2.1166h-0.52916v-2.1166h-0.52916v2.1166h-0.52916v-2.1166h-0.52916v2.1166h-0.52916v-2.1166zm0.52916 2.6458h0.52916v0.52916h-0.52916zm1.0583 0h0.52916v0.52916h-0.52916zm1.0583 0h0.52916v0.52916h-0.52916zm1.0583 0h0.52916v0.52916h-0.52916zm1.0583 0h0.52916v0.52916h-0.52916zm1.0583 0h0.52916v0.52916h-0.52916zm-5.2916 1.0583h0.52916v0.52916h-0.52916zm1.0583 0h0.52916v0.52916h-0.52916zm1.0583 0h0.52916v0.52916h-0.52916zm1.0583 0h0.52916v0.52916h-0.52916zm1.0583 0h0.52916v0.52916h-0.52916zm1.0583 0h0.52916v0.52916h-0.52916zm-5.2916 1.0583h0.52916v0.52916h-0.52916zm1.0583 0h0.52916v0.52916h-0.52916zm1.0583 0h0.52916v0.52916h-0.52916zm1.0583 0h0.52916v0.52916h-0.52916zm1.0583 0h0.52916v0.52916h-0.52916zm1.0583 0h0.52916v0.52916h-0.52916zm-5.2916 1.0583h0.52916v0.52916h-0.52916zm1.0583 0h0.52916v0.52916h-0.52916zm1.0583 0h0.52916v0.52916h-0.52916zm1.0583 0h0.52916v0.52916h-0.52916zm1.0583 0h0.52916v0.52916h-0.52916zm1.0583 0h0.52916v0.52916h-0.52916zm-5.2916 1.0583h0.52916v0.52916h-0.52916zm1.0583 0h0.52916v0.52916h-0.52916zm1.0583 0h0.52916v0.52916h-0.52916zm1.0583 0h0.52916v0.52916h-0.52916zm1.0583 0h0.52916v0.52916h-0.52916zm1.0583 0h0.52916v0.52916h-0.52916zm-5.2916 1.0583h0.52916v0.52916h-0.52916zm1.0583 0h0.52916v0.52916h-0.52916zm1.0583 0h0.52916v0.52916h-0.52916zm1.0583 0h0.52916v0.52916h-0.52916zm1.0583 0h0.52916v0.52916h-0.52916zm1.0583 0h0.52916v0.52916h-0.52916z" fill="url(#c)" stroke-width=".82009"/>
 <rect x="4.7625" y="4.76" width="7.4083" height="7.4083" rx=".52917" ry=".52915" fill-rule="evenodd" filter="url(#f)" opacity=".5"/>
 <rect x="4.7625" y="4.76" width="7.4083" height="7.4083" rx=".52917" ry=".52915" fill="url(#d)" fill-rule="evenodd"/>
 <path d="m9.1803 6.8207c-0.72027 0.00923-1.5244 0.20932-2.1724 0.59013v0.096116c1.4793-0.73456 3.5786-0.7299 3.7697 0.32245 0.05465 0.29601-0.085 0.60106-0.35036 0.8144v-1.1105h-0.29403v1.2345c0 0.10357 0.04045 0.19605 0.14211 0.24856v0.00568c0.0015-5.471e-4 0.0031-0.00151 0.0046-0.00207 0.03969 0.019444 0.08733 0.033823 0.14728 0.039273v-0.10541c0.38187-0.20459 0.71816-0.65718 0.60362-1.1989-0.13704-0.64259-0.92444-0.94616-1.8505-0.93429zm-2.546 0.75033v0.26251h0.29403v-0.26251zm1.7156 0.1173v1.0707c0 0.15404 0.10032 0.31005 0.33847 0.31005h0.17208v-0.22892h-0.11885c-0.069401 0-0.10128-0.034662-0.10128-0.097666v-0.53587h0.22014v-0.22169h-0.22014v-0.29662zm-1.9053 0.075963c-0.42879 0.36307-0.66157 0.8225-0.52709 1.3647 0.1715 0.69584 1.0854 1.0897 2.4809 0.95858 0.55254-0.051315 1.2758-0.22294 1.7776-0.48937v-0.37878c-0.45606 0.26273-1.2106 0.47992-1.8391 0.53587-1.0222 0.090995-2.0874-0.052192-2.2365-0.82371-0.074064-0.37985 0.10629-0.78275 0.34416-1.033zm3.0287 0.20205c-0.30655 0-0.53949 0.20202-0.53949 0.55964 0 0.4182 0.26745 0.56171 0.54621 0.56171 0.21361 0 0.33422-0.065066 0.44958-0.17208l-0.17983-0.16278c-0.074767 0.069468-0.13841 0.10387-0.26768 0.10387-0.16449 0-0.25838-0.10386-0.25838-0.24442h0.73896v-0.0987c0-0.31064-0.17855-0.54724-0.48937-0.54724zm-2.839 0.018086v0.80665c0 0.14505 0.074013 0.27095 0.29403 0.29093v-1.0976zm0.55344 0v1.0862h0.29042v-0.86401h0.24132c0.085428 0 0.12092 0.039346 0.12092 0.10387v0.76015h0.29145v-0.76118c0-0.15457-0.08734-0.32504-0.34261-0.32504zm2.2727 0.20877c0.14954 0 0.20648 0.11345 0.2129 0.23202h-0.44958c0.00317-0.048544 0.0092-0.07832 0.028422-0.11782 0.032056-0.065537 0.10894-0.1142 0.20825-0.1142z" fill="#ffffff" opacity=".5" stroke-width=".26458"/>
</svg>
