<svg xmlns="http://www.w3.org/2000/svg" width="64" height="64" viewBox="0 0 16.933 16.933"><defs><linearGradient id="e" x1="167.59" x2="167.59" y1="196.38" y2="206.55" gradientTransform="matrix(.80992 0 0 .72893 -127.27 -138.39)" gradientUnits="userSpaceOnUse"><stop offset="0" stop-color="#4d4d4d"/><stop offset="1" stop-color="#1a1a1a"/></linearGradient><linearGradient id="b" x1="8.467" x2="8.467" y1="280.6" y2="296.47" gradientTransform="translate(0 -280.07)" gradientUnits="userSpaceOnUse"><stop offset="0" stop-color="#63984b"/><stop offset="1" stop-color="#8dbf76"/></linearGradient><linearGradient id="c" x1="32" x2="32" y1="11" y2="53" gradientTransform="scale(.26458)" gradientUnits="userSpaceOnUse"><stop offset="0" stop-color="#f7bd39"/><stop offset="1" stop-color="#f9e657"/></linearGradient><filter id="a" width="1.072" height="1.072" x="-.036" y="-.036" color-interpolation-filters="sRGB"><feGaussianBlur stdDeviation=".238"/></filter><filter id="d" width="1.12" height="1.12" x="-.06" y="-.06" color-interpolation-filters="sRGB"><feGaussianBlur stdDeviation=".185"/></filter></defs><circle cx="8.467" cy="8.46" r="7.938" fill-rule="evenodd" filter="url(#a)" opacity=".25" style="paint-order:stroke fill markers"/><circle cx="8.467" cy="8.46" r="7.938" fill="url(#b)" fill-rule="evenodd" style="paint-order:stroke fill markers"/><path fill="url(#c)" d="M5.027 2.91v2.117H2.91v.53h2.117v.528H2.91v.53h2.117v.529H2.91v.529h2.117v.529H2.91v.53h2.117v.528H2.91v.53h2.117v.529H2.91v.529h2.117v.529H2.91v.53h2.117v2.116h.53v-2.117h.528v2.117h.53v-2.117h.529v2.117h.529v-2.117h.529v2.117h.53v-2.117h.528v2.117h.53v-2.117h.529v2.117h.529v-2.117h.529v2.117h.53v-2.117h2.116v-.53h-2.117v-.528h2.117v-.53h-2.117V9.79h2.117v-.53h-2.117v-.529h2.117v-.529h-2.117v-.53h2.117v-.528h-2.117v-.53h2.117v-.529h-2.117v-.529h2.117v-.529h-2.117V2.91h-.53v2.117h-.528V2.91h-.53v2.117H9.79V2.91h-.53v2.117h-.529V2.91h-.529v2.117h-.53V2.91h-.528v2.117h-.53V2.91h-.529v2.117h-.529V2.91zm.53 2.646h.528v.53h-.529zm1.057 0h.53v.53h-.53zm1.059 0h.529v.53h-.53zm1.058 0h.53v.53h-.53zm1.058 0h.53v.53h-.53zm1.059 0h.529v.53h-.53zM5.556 6.615h.53v.529h-.53zm1.058 0h.53v.529h-.53zm1.059 0h.529v.529h-.53zm1.058 0h.53v.529h-.53zm1.058 0h.53v.529h-.53zm1.059 0h.529v.529h-.53zM5.556 7.673h.53v.529h-.53zm1.058 0h.53v.529h-.53zm1.059 0h.529v.529h-.53zm1.058 0h.529v.529h-.53zm1.058 0h.53v.529h-.53zm1.058 0h.53v.529h-.53zM5.556 8.73h.529v.53h-.53zm1.058 0h.53v.53h-.53zm1.058 0h.53v.53h-.53zm1.059 0h.529v.53h-.53zm1.058 0h.53v.53h-.53zm1.058 0h.53v.53h-.53zM5.556 9.79h.529v.53h-.53zm1.058 0h.53v.53h-.53zm1.058 0h.53v.53h-.53zm1.059 0h.529v.53h-.53zm1.058 0h.53v.53h-.53zm1.058 0h.53v.53h-.53zm-5.291 1.059h.529v.529h-.53zm1.058 0h.53v.529h-.53zm1.058 0h.53v.529h-.53zm1.059 0h.529v.529h-.53zm1.058 0h.529v.529h-.53zm1.058 0h.53v.529h-.53z"/><rect width="7.408" height="7.408" x="4.763" y="4.76" fill-rule="evenodd" filter="url(#d)" opacity=".5" rx=".529" ry=".529"/><rect width="7.408" height="7.408" x="4.763" y="4.76" fill="url(#e)" fill-rule="evenodd" rx=".529" ry=".529"/><path fill="#fff" d="M9.18 6.82c-.72.01-1.524.21-2.172.59v.097c1.48-.735 3.579-.73 3.77.322.054.296-.085.601-.35.815v-1.11h-.295v1.234c0 .103.04.196.142.248v.006l.005-.002q.058.03.147.04v-.106c.382-.205.718-.657.604-1.2-.137-.642-.925-.945-1.85-.933zm-2.546.751v.263h.294V7.57zm1.716.117V8.76c0 .154.1.31.338.31h.172v-.23h-.118q-.104-.002-.102-.098v-.535h.22v-.222h-.22v-.297zm-1.905.076c-.43.363-.662.823-.527 1.365.171.696 1.085 1.09 2.48.959.553-.052 1.276-.223 1.778-.49V9.22c-.456.263-1.21.48-1.84.536-1.021.091-2.086-.052-2.236-.823-.074-.38.107-.783.345-1.033zm3.028.202c-.306 0-.54.202-.54.56 0 .418.268.562.547.562a.6.6 0 0 0 .45-.172l-.18-.163a.34.34 0 0 1-.268.104c-.164 0-.258-.104-.258-.245h.739v-.098c0-.311-.179-.548-.49-.548m-2.839.018v.807c0 .145.074.271.294.291V7.984zm.554 0v1.087h.29v-.864h.241c.086 0 .121.039.121.103v.76h.292v-.76c0-.155-.087-.326-.343-.326zm2.272.21c.15 0 .207.113.213.231h-.45a.3.3 0 0 1 .03-.118c.031-.065.108-.114.207-.114z" opacity=".5"/></svg>