<?xml version="1.0" encoding="UTF-8"?>
<svg width="64" height="64" version="1.1" xmlns="http://www.w3.org/2000/svg" xmlns:cc="http://creativecommons.org/ns#" xmlns:dc="http://purl.org/dc/elements/1.1/" xmlns:rdf="http://www.w3.org/1999/02/22-rdf-syntax-ns#">
 <metadata>
  <rdf:RDF>
   <cc:Work rdf:about="">
    <dc:format>image/svg+xml</dc:format>
    <dc:type rdf:resource="http://purl.org/dc/dcmitype/StillImage"/>
    <dc:title/>
   </cc:Work>
  </rdf:RDF>
 </metadata>
 <defs>
  <linearGradient id="b" x1="399.57" x2="399.57" y1="545.8" y2="517.8" gradientTransform="matrix(2.1429 0 0 2.1429 -826.36 -1107.5)" gradientUnits="userSpaceOnUse">
   <stop stop-color="#3889e9" offset="0"/>
   <stop stop-color="#5ea5fb" offset="1"/>
  </linearGradient>
  <linearGradient id="a" x1="399.99" x2="399.99" y1="545.14" y2="518.14" gradientTransform="matrix(2.1429 0 0 2.1429 -826.36 -1107.5)" gradientUnits="userSpaceOnUse">
   <stop stop-color="#7adcfc" offset="0"/>
   <stop stop-color="#0a79ed" offset="1"/>
  </linearGradient>
  <filter id="c" x="-.036" y="-.036" width="1.072" height="1.072" color-interpolation-filters="sRGB">
   <feGaussianBlur stdDeviation="0.41999874"/>
  </filter>
  <filter id="filter909" x="-.050018" y="-.074959" width="1.1" height="1.1499" color-interpolation-filters="sRGB">
   <feGaussianBlur stdDeviation="0.77720861"/>
  </filter>
  <filter id="filter951" x="-.096" y="-.096" width="1.192" height="1.192" color-interpolation-filters="sRGB">
   <feGaussianBlur stdDeviation="0.88"/>
  </filter>
  <filter id="filter1005" x="-.080029" y="-.11993" width="1.1601" height="1.2399" color-interpolation-filters="sRGB">
   <feGaussianBlur stdDeviation="1.2435338"/>
  </filter>
 </defs>
 <circle transform="matrix(2.1429 0 0 2.1429 -826.36 -1107.5)" cx="400.57" cy="531.8" r="14" filter="url(#c)" opacity=".25" stroke-width=".73333"/>
 <g stroke-width="1.5715">
  <circle cx="32.02" cy="32.044" r="30.001" fill="url(#a)"/>
  <circle cx="32.02" cy="32.044" r="30.001" fill-opacity="0"/>
  <circle cx="32.02" cy="32.044" r="0" fill="url(#b)"/>
 </g>
 <g>
  <path d="m32.478 22.116a11.145 11.145 0 0 0-11.145 11.145 11.145 11.145 0 0 0 0.0181 0.51213 6.6318 6.6318 0 0 0-5.9971 6.5951 6.6318 6.6318 0 0 0 6.6318 6.6318h21.642a9.0182 9.0182 0 0 0 9.0181-9.0181 9.0182 9.0182 0 0 0-9.0181-9.0181 9.0182 9.0182 0 0 0-0.85637 0.04914 11.145 11.145 0 0 0-10.294-6.8971z" filter="url(#filter1005)" opacity=".1" style="paint-order:normal"/>
  <circle cx="22" cy="28" r="11" filter="url(#filter951)" opacity=".25" style="paint-order:normal"/>
  <circle cx="22" cy="28" r="11" fill="#ffd20f" style="paint-order:normal"/>
  <path d="m32.478 22.116a11.145 11.145 0 0 0-11.145 11.145 11.145 11.145 0 0 0 0.0181 0.51213 6.6318 6.6318 0 0 0-5.9971 6.5951 6.6318 6.6318 0 0 0 6.6318 6.6318h21.642a9.0182 9.0182 0 0 0 9.0181-9.0181 9.0182 9.0182 0 0 0-9.0181-9.0181 9.0182 9.0182 0 0 0-0.85637 0.04914 11.145 11.145 0 0 0-10.294-6.8971z" filter="url(#filter909)" opacity=".15" style="paint-order:normal"/>
  <path d="m32.478 22.116a11.145 11.145 0 0 0-11.145 11.145 11.145 11.145 0 0 0 0.0181 0.51213 6.6318 6.6318 0 0 0-5.9971 6.5951 6.6318 6.6318 0 0 0 6.6318 6.6318h21.642a9.0182 9.0182 0 0 0 9.0181-9.0181 9.0182 9.0182 0 0 0-9.0181-9.0181 9.0182 9.0182 0 0 0-0.85637 0.04914 11.145 11.145 0 0 0-10.294-6.8971z" fill="#fff" opacity=".85" style="paint-order:normal"/>
 </g>
</svg>
