<svg xmlns="http://www.w3.org/2000/svg" width="64" height="64"><defs><linearGradient id="b" x1="7.937" x2="7.937" y1="15.081" y2="1.852" gradientTransform="translate(-2.286 -2.252)scale(4.0494)" gradientUnits="userSpaceOnUse"><stop offset="0" stop-color="#f1efeb"/><stop offset="1" stop-color="#fdfcfc"/></linearGradient><filter id="a" width="1.054" height="1.054" x="-.027" y="-.027" color-interpolation-filters="sRGB"><feGaussianBlur stdDeviation=".675"/></filter></defs><rect width="60" height="60" x="2" y="3" filter="url(#a)" opacity=".15" rx="30" ry="30"/><rect width="60" height="60" x="2" y="2" fill="url(#b)" rx="30" ry="30"/><path fill="#c2352a" d="M50.75 50.3V15.2H22.83c-3.702 1.002-3.358 2.203-3.58 3.375V50.3c.658 2.41 2.51 2.491 4.296 2.7H47.17c1.47-.066 3.123-.648 3.58-2.7"/><path fill="#fff" d="M44.75 13.786V50H16.83c-3.702-1.034-3.358-2.272-3.58-3.482V13.786c.658-2.487 2.51-2.57 4.296-2.786H41.17c1.47.069 3.123.669 3.58 2.786"/><path fill="#90caf9" d="m41.75 23-6.75.75v6.75h6.75z"/><path fill="#bdbdbd" d="M41.75 14.75H30.5V23l11.25-2.25z"/><path fill="#ffcc80" d="M28.25 14.75h-12v10.5l12-2.25z"/><path fill="#ff8a80" d="m41.75 41.75-25.5-4.5v10.5h25.5z"/><path fill="#bdbdbd" d="m33.5 23.75-17.25 3v9l17.25 3zM41.75 32H35v6.75l6.75 1.5z"/><path fill="#df574d" d="M44.75 13.8v36.4c0-1.367.532-3.2 3-3.2s3 1.766 3 3.2V13.8c0-2.8-3-2.8-3-2.8s-3 0-3 2.8"/><path fill="#e6e6e6" d="m19.25 11-6 6h1.705c1.786-.216 3.637-.299 4.295-2.786z"/></svg>