<svg xmlns="http://www.w3.org/2000/svg" width="64" height="64" enable-background="new 0 0 1024 1024" image-rendering="optimizeSpeed"><defs><filter id="c" width="1.071" height="1.073" x="-.036" y="-.036" color-interpolation-filters="sRGB"><feGaussianBlur stdDeviation="7.629"/></filter><filter id="a" width="1.072" height="1.072" x="-.036" y="-.036" color-interpolation-filters="sRGB"><feGaussianBlur stdDeviation="14.105"/></filter><filter id="e" width="1.028" height="1.028" x="-.014" y="-.014" color-interpolation-filters="sRGB"><feGaussianBlur stdDeviation=".298"/></filter><filter id="f" width="1.059" height="1.059" x="-.03" y="-.03" color-interpolation-filters="sRGB"><feGaussianBlur stdDeviation=".298"/></filter><linearGradient id="d" x1="101.53" x2="101.53" y1="18.888" y2="183.55" gradientTransform="translate(162.38 167.09)scale(3.5223)" gradientUnits="userSpaceOnUse"><stop offset="0" stop-color="#fff"/><stop offset="1" stop-color="#d7d7d7"/></linearGradient><linearGradient id="b" x1="540.11" x2="540.11" y1="2.008" y2="1026" gradientTransform="translate(2 1.9)scale(.99609)" gradientUnits="userSpaceOnUse"><stop offset="0" stop-color="#333"/><stop offset=".508" stop-color="#333"/><stop offset="1" stop-color="#4a4a4a"/></linearGradient></defs><g stroke-width="15.683"><path d="M967.96 392.42a513 513 0 0 0-3.636-13.547c-.996-3.387-1.992-6.823-3.137-10.459a419 419 0 0 0-5.28-15.788c-6.425-18.179-14.095-35.909-23.06-53.44a473 473 0 0 0-12.252-22.312c-20.22-34.365-45.62-66.937-76.052-97.368-72.316-72.316-156.54-116.19-252.66-131.53a482 482 0 0 0-49.854-5.33 533 533 0 0 0-29.982-.846c-9.313 0-18.527.25-27.79.747-117.89 6.076-219.44 51.747-304.66 136.96q-137.71 137.71-137.71 332.45c0 129.84 45.92 240.71 137.71 332.5 56.478 56.43 120.08 95.525 190.35 117.09 36.605 11.206 74.507 17.78 114.3 19.872h.398c8.467.449 16.535.698 24.404.698h2.988c10.26 0 20.42-.3 29.982-.797 2.49-.15 4.731-.3 6.923-.449 20.12-1.444 39.744-4.034 58.47-7.67a518 518 0 0 0 23.31-5.13c80.484-20.22 151.56-61.358 213.81-123.62 48.41-48.41 84.07-102.1 106.93-161.17 18.378-47.463 28.538-98.413 30.43-152.9.2-6.026.3-12.201.3-18.427v-2.989c-.2-40.49-4.931-79.189-14.244-116.54z" filter="url(#a)" opacity=".25" transform="translate(-.673 -.507)scale(.0638)"/><path fill="url(#b)" d="M967.96 392.42a513 513 0 0 0-3.636-13.547c-.996-3.387-1.992-6.823-3.137-10.459a419 419 0 0 0-5.28-15.788c-6.425-18.179-14.095-35.909-23.06-53.44a473 473 0 0 0-12.252-22.312c-20.22-34.365-45.62-66.937-76.052-97.368-72.316-72.316-156.54-116.19-252.66-131.53a482 482 0 0 0-49.854-5.33 533 533 0 0 0-29.982-.846c-9.313 0-18.527.25-27.79.747-117.89 6.076-219.44 51.747-304.66 136.96q-137.71 137.71-137.71 332.45c0 129.84 45.92 240.71 137.71 332.5 56.478 56.43 120.08 95.525 190.35 117.09 36.605 11.206 74.507 17.78 114.3 19.872h.398c8.467.449 16.535.698 24.404.698h2.988c10.26 0 20.42-.3 29.982-.797 2.49-.15 4.731-.3 6.923-.449 20.12-1.444 39.744-4.034 58.47-7.67a518 518 0 0 0 23.31-5.13c80.484-20.22 151.56-61.358 213.81-123.62 48.41-48.41 84.07-102.1 106.93-161.17 18.378-47.463 28.538-98.413 30.43-152.9.2-6.026.3-12.201.3-18.427v-2.989c-.2-40.49-4.931-79.189-14.244-116.54z" transform="translate(-.673 -.667)scale(.0638)"/></g><path d="M509.85 281.89c-15.833-.032-31.572 5.725-42.935 17.354l-188.99 193.41c-63.868 79.093 43.469 69.91 89.481 92.691 16.505 16.871-63.252 29.26-46.747 46.145 16.505 16.871 99.732 32.484 116.26 49.355 16.505 16.871-33.759 34.791-17.254 51.662s54.646.877 61.794 39.825c5.094 27.832 68.861 11.961 100.01-10.834 16.505-16.885-31.552-15.23-15.047-32.101 41.045-41.974 79.25-15.322 93.293-57.38 6.937-20.783-60.471-31.982-43.938-48.853 47.489-27.734 211.6-45.806 133.72-123.69l-195.91-200.23c-11.981-11.503-27.904-17.323-43.737-17.354m1.605 18.358c11.304.06 22.584 4.322 30.696 12.539l74.835 75.938c7.092 7.246 6.977 21.241 3.01 25.279l-37.117-29.693-7.323 44.038-30.997-16.351-49.756 31.298-16.452-66.107-26.684 46.145H410.94c-16.632 0-18.623-21.102-3.51-36.214 26.396-28.494 56.666-57.504 73.128-74.333 8.274-8.457 19.593-12.599 30.897-12.539m-89.782 295.53c5.052 3.138 81.442 18.673 100.11 21.768 6.473 1.365 1.899 8.037-7.022 12.539-20.121 5.347-117.72-34.308-93.092-34.308zm297.13 53.167c-15.372.53-30.53 8.347-34.709 23.072 0 9.596 70.622 15.945 70.622-2.207-5.037-14.577-20.54-21.395-35.913-20.865m-324.22 41.53c-22.159-.205-48.105 16.047-28.991 32.602 16.744 14.479 42.605-3.67 50.358-23.875-4.563-6.063-12.696-8.647-21.367-8.727m280.58 1.304c-21.585 19.362 2.4 38.992 23.674 26.483 4.742-4.812-.106-21.67-23.674-26.483" filter="url(#c)" opacity=".2" transform="translate(-3.901 -4.274)scale(.06997)"/><path fill="url(#d)" d="M507.9 241.94c-17.373-.035-34.644 6.282-47.111 19.043l-207.38 212.22c-70.081 86.786 47.697 76.711 98.185 101.71 18.111 18.512-69.405 32.106-51.294 50.634 18.111 18.512 109.43 35.644 127.57 54.156 18.111 18.512-37.043 38.176-18.933 56.688 18.111 18.512 59.962.962 67.805 43.699 5.59 30.54 75.559 13.124 109.74-11.888 18.111-18.527-34.622-16.711-16.511-35.223 45.037-46.057 86.959-16.813 102.37-62.962 7.612-22.804-66.354-35.093-48.212-53.606 52.109-30.432 232.19-50.261 146.73-135.72l-214.97-219.71c-13.147-12.622-30.618-19.008-47.992-19.043zm1.761 20.143c12.404.065 24.781 4.742 33.682 13.759l82.114 83.325c7.782 7.951 7.656 23.307 3.302 27.738l-40.727-32.582-8.035 48.322-34.013-17.942-54.596 34.343-18.052-72.538-29.279 50.634h-44.69c-18.25 0-20.435-23.154-3.852-39.736 28.965-31.265 62.179-63.098 80.243-81.564 9.078-9.28 21.499-13.825 33.902-13.759zm-98.515 324.27c5.543 3.443 89.364 20.489 109.85 23.886 7.102 1.498 2.084 8.818-7.705 13.759-22.079 5.867-129.17-37.645-102.15-37.645zm326.04 58.339c-16.868.58-33.5 9.16-38.085 25.317 0 10.53 77.491 17.496 77.491-2.422-5.527-15.995-22.538-23.476-39.406-22.895m-355.76 45.57c-24.315-.225-52.785 17.608-31.81 35.774 18.372 15.887 46.748-4.026 55.256-26.197-5.007-6.653-13.93-9.488-23.446-9.576zm307.87 1.431c-23.684 21.245 2.633 42.785 25.977 29.059 5.203-5.28-.116-23.779-25.977-29.059" transform="translate(-.614 -.678)scale(.06376)"/><path fill="#fff" d="M10.787 10.787a29.934 29.934 0 0 0 0 42.426c.119.119.242.23.362.345-11.4-11.775-11.288-30.43.345-42.065S41.784-.25 53.56 11.148c-.116-.12-.227-.243-.345-.362a29.934 29.934 0 0 0-42.426 0z" filter="url(#e)" opacity=".15"/><path fill="#fff" d="M37.435 61.526c5.772-1.063 11.297-3.831 15.779-8.313s7.25-10.007 8.313-15.779c-1.592 5.434-4.606 10.657-9.02 15.072s-9.639 7.428-15.072 9.02" filter="url(#f)" opacity=".15"/></svg>