<svg id="Iterm" width="64" height="64" enable-background="new 0 0 1024 1024" image-rendering="optimizeSpeed" version="1.1" viewBox="0 0 64 64" xmlns="http://www.w3.org/2000/svg">
 <defs>
  <linearGradient id="b" x1="-506.45" x2="-506.45" y1="-19.101" y2="1013.6" gradientTransform="matrix(.058824 0 0 .058824 61.791 3.1236)" gradientUnits="userSpaceOnUse">
   <stop stop-color="#262626" offset="0"/>
   <stop stop-color="#333" offset=".50769"/>
   <stop stop-color="#4a4a4a" offset="1"/>
  </linearGradient>
  <filter id="d" x="-.036" y="-.036" width="1.072" height="1.072" color-interpolation-filters="sRGB">
   <feGaussianBlur stdDeviation="0.90000006"/>
  </filter>
  <linearGradient id="a" x1="18.601" x2="18.601" y1=".85446" y2="49.956" gradientTransform="matrix(1.1117 0 0 .96015 24.948 10.068)" gradientUnits="userSpaceOnUse">
   <stop stop-color="#fafafa" offset="0"/>
   <stop stop-color="#d4d4d4" offset="1"/>
  </linearGradient>
  <filter id="c" x="-.083607" y="-.046789" width="1.1672" height="1.0936" color-interpolation-filters="sRGB">
   <feGaussianBlur stdDeviation="0.89678916"/>
  </filter>
 </defs>
 <mask>
  <g id="g">
   <path d="m969.75 392.05c-1.1-4.35-2.35-9-3.65-13.6-1-3.4-2-6.85-3.15-10.5-1.6-5.15-3.4-10.5-5.3-15.85-6.45-18.25-14.15-36.05-23.15-53.65-3.8-7.4-7.95-14.95-12.3-22.4-20.3-34.5-45.8-67.2-76.35-97.75-72.6-72.6-157.15-116.65-253.65-132.05-16.25-2.6-32.8-4.4-50.05-5.35-9.7-0.55-19.85-0.85-30.1-0.85-9.35 0-18.6 0.25-27.9 0.75-118.35 6.1-220.3 51.95-305.85 137.5q-138.25 138.25-138.25 333.75c0 130.35 46.1 241.65 138.25 333.8 56.7 56.65 120.55 95.9 191.1 117.55 36.75 11.25 74.8 17.85 114.75 19.95h0.4c8.5 0.45 16.6 0.7 24.5 0.7h3c10.3 0 20.5-0.3 30.1-0.8 2.5-0.15 4.75-0.3 6.95-0.45 20.2-1.45 39.9-4.05 58.7-7.7 7.95-1.55 15.8-3.3 23.4-5.15 80.8-20.3 152.15-61.6 214.65-124.1 48.6-48.6 84.4-102.5 107.35-161.8 18.45-47.65 28.65-98.8 30.55-153.5 0.2-6.05 0.3-12.25 0.3-18.5v-3c-0.2-40.65-4.95-79.5-14.3-117z" fill="#fff"/>
  </g>
 </mask>
 <circle cx="32" cy="32" r="30" fill-rule="evenodd" filter="url(#d)" opacity=".25" style="paint-order:fill markers stroke"/>
 <circle cx="32" cy="32" r="30" fill="url(#b)" fill-rule="evenodd" style="paint-order:fill markers stroke"/>
 <g transform="translate(0 -2.4477)">
  <path d="m31.053 11.95c-2.9256 0.03249-6.0709 0.29912-8.2143 2.3085-3.2829 3.0776-2.8684 5.2064-3.1908 9.4186-0.65823 8.5986-0.40341 20.383 1.3449 28.849 0.51282 2.4834 2.8552 4.231 5.34 4.7093 1.9071 0.36711 3.8793 0.6452 5.8542 0.71233 1.9749-0.06713 3.9471-0.34522 5.8542-0.71233 2.4848-0.47832 4.8271-2.2259 5.34-4.7093 1.7483-8.4664 2.0031-20.251 1.3449-28.849-0.32245-4.2122 0.09208-6.341-3.1908-9.4186-2.1434-2.0094-5.2888-2.276-8.2143-2.3085-0.38236-0.0042-0.76171-4.91e-4 -1.1339 0-0.37221-4.91e-4 -0.75155-0.0042-1.1339 0z" color="#000000" enable-background="accumulate" filter="url(#c)"/>
  <path d="m31.053 11.45c-2.9256 0.03249-6.0709 0.29912-8.2143 2.3085-3.2829 3.0776-2.8684 5.2064-3.1908 9.4186-0.65823 8.5986-0.40341 20.383 1.3449 28.849 0.51282 2.4834 2.8552 4.231 5.34 4.7093 1.9071 0.36711 3.8793 0.6452 5.8542 0.71233 1.9749-0.06713 3.9471-0.34522 5.8542-0.71233 2.4848-0.47832 4.8271-2.2259 5.34-4.7093 1.7483-8.4664 2.0031-20.251 1.3449-28.849-0.32245-4.2122 0.09208-6.341-3.1908-9.4186-2.1434-2.0094-5.2888-2.276-8.2143-2.3085-0.38236-0.0042-0.76171-4.91e-4 -1.1339 0-0.37221-4.91e-4 -0.75155-0.0042-1.1339 0z" color="#000000" enable-background="accumulate" fill="url(#a)"/>
  <path d="m32.187 17.448c0.554 0 1 0.54953 1 1.2321v3.5357c0 0.68261-0.446 1.2321-1 1.2321s-1-0.54954-1-1.2321v-3.5357c0-0.68261 0.446-1.2321 1-1.2321z" fill="#4d4d4d" fill-opacity=".58824"/>
  <path d="m32.187 18.448c0.554 0 1 0.54953 1 1.2321v3.5357c0 0.68261-0.446 1.2321-1 1.2321s-1-0.54954-1-1.2321v-3.5357c0-0.68261 0.446-1.2321 1-1.2321z" fill="#4d4d4d" fill-opacity=".58824"/>
 </g>
</svg>
