<svg xmlns="http://www.w3.org/2000/svg" width="64" height="64"><defs><linearGradient id="a" x1="7.937" x2="7.937" y1="15.081" y2="1.852" gradientTransform="translate(0 .032)scale(3.7795)" gradientUnits="userSpaceOnUse"><stop offset="0" stop-color="#1fe0aa"/><stop offset="1" stop-color="#b2ff85"/></linearGradient><filter id="b" width="1.294" height="1.294" x="-.147" y="-.147" color-interpolation-filters="sRGB"><feGaussianBlur stdDeviation=".858"/></filter></defs><rect width="60" height="60" x="2" y="2" fill="url(#a)" rx="30" ry="30"/><g filter="url(#b)" opacity=".12" transform="translate(11.429 12.857)scale(2.5714)"><path d="M2 1c-.554 0-1 .446-1 1v3c0 .554.446 1 1 1h1c0 .554.446 1 1 1h1c.554 0 1-.446 1-1h1c.554 0 1-.446 1-1V2c0-.554-.446-1-1-1zm0 1h5v3H2zm9.5 6A3.5 3.5 0 0 0 8 11.5a3.5 3.5 0 0 0 3.5 3.5 3.5 3.5 0 0 0 3.5-3.5A3.5 3.5 0 0 0 11.5 8m1.918 1.79a.499.499 0 0 1 .354.854l-2.422 2.42a.5.5 0 0 1-.707 0L9.228 11.65a.499.499 0 1 1 .708-.707l1.06 1.06 2.068-2.068a.5.5 0 0 1 .354-.146z"/><path d="M9 2v3h1V3.129A4 4 0 0 1 13 7h1a5 5 0 0 0-5-5M2 8a5 5 0 0 0 5 5v-3H6v1.871A4 4 0 0 1 3 8z" opacity=".65"/></g><g fill="#fff"><path d="M16.572 14A2.566 2.566 0 0 0 14 16.572v7.714a2.566 2.566 0 0 0 2.572 2.571h2.571a2.566 2.566 0 0 0 2.572 2.572h2.571a2.566 2.566 0 0 0 2.571-2.572h2.572A2.566 2.566 0 0 0 32 24.286v-7.714A2.566 2.566 0 0 0 29.43 14zm0 2.572h12.857v7.714H16.572zM41 32a9 9 0 0 0-9 9 9 9 0 0 0 9 9 9 9 0 0 0 9-9 9 9 0 0 0-9-9m4.932 4.6c.329 0 .657.126.91.377a1.283 1.283 0 0 1 0 1.818l-6.229 6.228a1.283 1.283 0 0 1-1.818 0l-3.636-3.636c-.504-.504-.504-1.315 0-1.818s1.315-.504 1.818 0l2.727 2.727 5.319-5.319a1.28 1.28 0 0 1 .909-.377"/><path d="M34.572 16.572v7.714h2.571v-4.811a10.286 10.286 0 0 1 7.714 9.954h2.572a12.857 12.857 0 0 0-12.857-12.857M16.572 32a12.857 12.857 0 0 0 12.857 12.857v-7.714h-2.572v4.811A10.286 10.286 0 0 1 19.143 32z" opacity=".65"/></g></svg>