<svg width="64" height="64" version="1.1" xmlns="http://www.w3.org/2000/svg">
 <defs>
  <filter id="a" x="-.036" y="-.036" width="1.072" height="1.072" color-interpolation-filters="sRGB">
   <feGaussianBlur stdDeviation=".42"/>
  </filter>
  <filter id="f" x="-.013864" y="-.013864" width="1.0277" height="1.0277" color-interpolation-filters="sRGB">
   <feGaussianBlur stdDeviation=".298"/>
  </filter>
  <filter id="g" x="-.029686" y="-.029686" width="1.0594" height="1.0594" color-interpolation-filters="sRGB">
   <feGaussianBlur stdDeviation=".298"/>
  </filter>
  <linearGradient id="b" x1="72" x2="72" y2="144" gradientTransform="translate(2 2)scale(.41667)" gradientUnits="userSpaceOnUse">
   <stop stop-color="#1A6AE7" offset="0"/>
   <stop stop-color="#20C2F4" offset="1"/>
  </linearGradient>
  <filter id="filter29" x="-.090002" y="-.135" width="1.18" height="1.27" color-interpolation-filters="sRGB">
   <feGaussianBlur stdDeviation="0.41671056"/>
  </filter>
  <linearGradient id="linearGradient11" x1="8.4665" x2="8.4665" y1="5.2916" y2="12.171" gradientTransform="scale(3.7796)" gradientUnits="userSpaceOnUse">
   <stop stop-color="#c4d8ec" offset="0"/>
   <stop stop-color="#70c4ff" offset="1"/>
  </linearGradient>
  <linearGradient id="linearGradient23" x1="2.9104" x2="14.023" y1="8.4665" y2="8.4665" gradientUnits="userSpaceOnUse">
   <stop stop-color="#c2f5fe" offset="0"/>
   <stop stop-color="#91c3f8" offset="1"/>
  </linearGradient>
  <filter id="filter23" x="-.01" y="-.015" width="1.02" height="1.03" color-interpolation-filters="sRGB">
   <feGaussianBlur stdDeviation="0.046301174"/>
  </filter>
  <linearGradient id="linearGradient15" x1="8.4668" x2="8.4668" y1="8.4063" y2="12.171" gradientTransform="scale(3.7796)" gradientUnits="userSpaceOnUse">
   <stop stop-color="#d9e7f6" offset="0"/>
   <stop stop-color="#85d5ff" offset="1"/>
  </linearGradient>
  <linearGradient id="linearGradient25" x1="5.3073" x2="14.134" y1="9.6971" y2="12.282" gradientUnits="userSpaceOnUse">
   <stop stop-color="#ffffff" offset="0"/>
   <stop stop-color="#ffffff" stop-opacity=".5" offset="1"/>
  </linearGradient>
  <filter id="filter24" x="-.0088816" y="-.018493" width="1.0178" height="1.037" color-interpolation-filters="sRGB">
   <feGaussianBlur stdDeviation="0.0387346"/>
  </filter>
  <linearGradient id="linearGradient13" x1="8.4668" x2="8.4668" y1="4.7624" y2="9.5279" gradientTransform="scale(3.7796)" gradientUnits="userSpaceOnUse">
   <stop stop-color="#ffffff" offset="0"/>
   <stop stop-color="#b8d8ff" offset="1"/>
  </linearGradient>
  <filter id="filter25" x="-.01279" y="-.026629" width="1.0256" height="1.0533" color-interpolation-filters="sRGB">
   <feGaussianBlur stdDeviation="0.055778132"/>
  </filter>
  <clipPath id="clipPath26">
   <path d="m4.1041 4.7624c-0.041643 3.71e-5 -0.082467 0.00269-0.12299 0.00672-0.29454 0.030779-0.55659 0.16638-0.74774 0.36896l4.148 4.1955a1.533 1.5505 0 0 0 2.1714 0l4.1475-4.195c-0.21739-0.23067-0.52677-0.37476-0.87125-0.3762z" fill="url(#linearGradient27)" stroke-width="1.1116"/>
  </clipPath>
  <linearGradient id="linearGradient27" x1="8.4668" x2="8.4668" y1="4.7624" y2="9.7895" gradientUnits="userSpaceOnUse">
   <stop stop-color="#ffffff" offset="0"/>
   <stop stop-color="#dae6f3" offset="1"/>
  </linearGradient>
  <filter id="filter26" x="-.079935" y="-.16643" width="1.1599" height="1.3329" color-interpolation-filters="sRGB">
   <feGaussianBlur stdDeviation="0.34861332"/>
  </filter>
 </defs>
 <circle transform="translate(-826.38 -1107.4)scale(2.1429)" cx="400.57" cy="531.8" r="14" filter="url(#a)" opacity=".25"/>
 <path d="M32 2C15.38 2 2 15.38 2 32s13.38 30 30 30 30-13.38 30-30S48.62 2 32 2" fill="url(#b)"/>
 <path d="M10.787 10.787a29.934 29.934 0 0 0 0 42.426c.119.119.242.23.362.345-11.4-11.775-11.288-30.43.345-42.065S41.784-.25 53.56 11.148c-.116-.12-.227-.243-.345-.362a29.934 29.934 0 0 0-42.426 0z" fill="#fff" filter="url(#f)" opacity=".35"/>
 <path d="m37.435 61.526c5.772-1.063 11.297-3.831 15.779-8.313s7.25-10.007 8.313-15.779c-1.592 5.434-4.606 10.657-9.02 15.072s-9.639 7.428-15.072 9.02" fill="#fff" filter="url(#g)" opacity=".35"/>
 <rect transform="scale(3.7796)" x="3.2333" y="5.1381" width="11.112" height="7.4082" rx="1.1988" ry="1.1897" fill="#000000" filter="url(#filter29)" opacity=".15" stroke-width="1.1299"/>
 <rect x="11" y="18" width="41.999" height="28" rx="4.531" ry="4.4966" fill="url(#linearGradient11)" stroke-width="4.2706"/>
 <path transform="scale(3.7796)" d="m4.1092 4.7624c-0.66416 0-1.1989 0.53046-1.1989 1.1896v5.0291c0 0.65911 0.53471 1.1896 1.1989 1.1896h8.7145c0.66416 0 1.1989-0.53046 1.1989-1.1896v-5.0291c0-0.65911-0.53471-1.1896-1.1989-1.1896zm0 0.26509h8.7151c0.52324 0 0.93377 0.40742 0.93377 0.92344v5.0296c0 0.51602-0.41054 0.92551-0.93377 0.92551h-8.7151c-0.52324 0-0.93326-0.40948-0.93326-0.92551v-5.0296c0-0.51602 0.41002-0.92344 0.93326-0.92344z" fill="url(#linearGradient23)" filter="url(#filter23)" stop-color="#000000" style="mix-blend-mode:normal"/>
 <path d="m15.512 46.002c-0.15739-1.4e-4 -0.31169-0.0102-0.46485-0.02532-1.1132-0.11634-2.1037-0.62885-2.8262-1.3945l15.678-15.857a5.7941 5.8603 0 0 1 8.207 0l15.676 15.855c-0.82165 0.87184-1.991 1.4164-3.293 1.4219z" fill="url(#linearGradient15)" stroke-width="4.2014"/>
 <path transform="scale(3.7796)" d="m8.467 7.1436a1.533 1.5505 0 0 0-1.0857 0.45578l-4.148 4.1955c0.19115 0.20259 0.45321 0.33818 0.74774 0.36896 0.040521 4e-3 0.081345 0.0067 0.12299 0.0067h8.7249c0.34447-0.0014 0.65386-0.14553 0.87125-0.3762l-4.1475-4.195a1.533 1.5505 0 0 0-1.0857-0.45578zm0 0.26251c0.32401 0 0.64887 0.12589 0.89812 0.37878l3.8906 3.9377c-0.13582 0.07775-0.25721 0.18273-0.42787 0.18345h-8.7244c-0.030542-2.7e-5 -0.061072-0.0022-0.0956-0.0057-0.1348-0.01405-0.22938-0.10412-0.34002-0.16794l3.9025-3.9475c0.24925-0.25288 0.57256-0.37876 0.89657-0.37876z" fill="url(#linearGradient25)" filter="url(#filter24)" stop-color="#000000"/>
 <path d="m15.512 18c-0.15739 1.39e-4 -0.31169 0.01017-0.46485 0.0254-1.1132 0.11633-2.1037 0.62885-2.8262 1.3945l15.678 15.857a5.7941 5.8603 0 0 0 8.207 0l15.676-15.855c-0.82165-0.87184-1.991-1.4164-3.293-1.4219h-32.977z" fill="url(#linearGradient13)" stroke-width="4.2014"/>
 <path transform="scale(3.7796)" d="m4.1041 4.7624c-0.041643 3.7e-5 -0.082467 0.00269-0.12299 0.00672-0.29454 0.030779-0.55659 0.16638-0.74774 0.36896l4.148 4.1955a1.533 1.5505 0 0 0 2.1714 0l4.1475-4.195c-0.21739-0.23067-0.52677-0.37475-0.87125-0.3762h-8.7249zm-5.168e-4 0.26509h8.7244c0.17066 7.153e-4 0.29205 0.10569 0.42787 0.18345l-3.8906 3.9377c-0.49849 0.50578-1.2962 0.50578-1.7947 0l-3.9025-3.9475c0.11065-0.063831 0.20522-0.15386 0.34002-0.16795 0.034528-0.00343 0.065057-0.00565 0.0956-0.00568z" fill="#ffffff" filter="url(#filter25)" stop-color="#000000"/>
 <path transform="scale(3.7796)" d="m4.1041 12.171c-0.041643-3.7e-5 -0.082467-0.0027-0.12299-0.0067-0.29454-0.03078-0.55659-0.16638-0.74774-0.36896l4.148-4.1955a1.533 1.5505 0 0 1 2.1714 0l4.1475 4.195c-0.21739 0.23067-0.52677 0.37475-0.87125 0.3762z" clip-path="url(#clipPath26)" fill="#ffffff" filter="url(#filter26)" opacity=".68" stroke-width="1.1116"/>
 <path d="m21.726 21.966 0.42407-1.1679h0.17245l0.42955 1.1679h-0.15677l-0.11679-0.32608h-0.4813l-0.11287 0.32608zm0.31668-0.4562h0.38956l-0.08466-0.23672q-0.02117-0.05879-0.04782-0.14345-0.02665-0.08544-0.06428-0.21242-0.03685 0.12934-0.06428 0.21556-0.02744 0.08622-0.04625 0.14031zm0.874 0.78385v-1.204h0.13639v0.14031h0.01569q0.01489-0.02351 0.04155-0.05879 0.02665-0.03606 0.07682-0.06428 0.05017-0.02823 0.13561-0.02823 0.10974 0 0.19283 0.05487 0.08387 0.05487 0.1309 0.15677 0.04782 0.10112 0.04782 0.23986 0 0.13953-0.04703 0.24143t-0.1309 0.15756q-0.08309 0.05566-0.19283 0.05566-0.08309 0-0.13404-0.02823-0.05095-0.02899-0.07839-0.06506-0.02744-0.03685-0.04233-0.06114h-0.010971v0.46327zm0.38567-0.43503q0.0823 0 0.13718-0.0439 0.05565-0.04468 0.08309-0.11915 0.02823-0.07525 0.02823-0.16696 0-0.09093-0.02744-0.16383-0.02744-0.07368-0.08309-0.11679-0.05487-0.04311-0.13796-0.04311-0.12071 0-0.18342 0.08936t-0.06271 0.23437q0 0.14658 0.06349 0.23829t0.18264 0.09171zm0.59729 0.43503v-1.204h0.13639v0.14031h0.01569q0.01489-0.02351 0.04155-0.05879 0.02665-0.03606 0.07682-0.06428 0.05017-0.02823 0.13561-0.02823 0.10974 0 0.19283 0.05487 0.08387 0.05487 0.1309 0.15677 0.04782 0.10112 0.04782 0.23986 0 0.13953-0.04703 0.24143t-0.1309 0.15756q-0.08309 0.05566-0.19283 0.05566-0.08309 0-0.13404-0.02823-0.05095-0.02899-0.07839-0.06506-0.02744-0.03685-0.04233-0.06114h-0.01096v0.46327zm0.38567-0.43503q0.0823 0 0.13718-0.0439 0.05565-0.04468 0.08309-0.11915 0.02823-0.07525 0.02823-0.16696 0-0.09093-0.02744-0.16383-0.02744-0.07368-0.08309-0.11679-0.05487-0.04311-0.13796-0.04311-0.12071 0-0.18342 0.08936t-0.06271 0.23437q0 0.14658 0.06349 0.23829t0.18264 0.09171zm0.73838-1.0606v1.1679h-0.14109v-1.1679zm0.61611 1.1868q-0.12698 0-0.21948-0.05644-0.09171-0.05644-0.14188-0.15756-0.04938-0.10112-0.04938-0.23594t0.0486-0.23751q0.0486-0.10268 0.13718-0.16069 0.08936-0.05801 0.20851-0.05801 0.06976 0 0.13718 0.02351 0.0682 0.02271 0.12306 0.07447 0.05565 0.05095 0.08857 0.13482t0.03292 0.20537v0.05879h-0.63335q0.0055 0.13718 0.07839 0.21086 0.07368 0.0729 0.19048 0.0729 0.0776 0 0.13326-0.03371 0.05644-0.03451 0.08074-0.10112l0.13639 0.03761q-0.03058 0.09955-0.12385 0.16148-0.09249 0.06114-0.22732 0.06114zm-0.26729-0.52831h0.48912q-0.0102-0.11209-0.07055-0.18186-0.05957-0.07055-0.16775-0.07055-0.07525 0-0.13012 0.03526-0.05409 0.03526-0.08544 0.09249-0.03137 0.05722-0.03526 0.12463zm1.3035 0.50949v-1.1679h0.39977q0.13639 0 0.22418 0.05017 0.08857 0.04938 0.1309 0.13326 0.04311 0.08387 0.04311 0.18813 0 0.10425-0.04311 0.18891-0.04233 0.08466-0.13012 0.13482-0.08779 0.05017-0.22418 0.05017h-0.25162v0.42248zm0.14893-0.55341h0.24456q0.13874 0 0.19753-0.06898 0.05879-0.06976 0.05879-0.17402 0-0.10347-0.05879-0.17167-0.05879-0.06898-0.1991-0.06898h-0.24299zm1.1044 0.57378q-0.08309 0-0.15129-0.03137-0.06741-0.03137-0.10739-0.09171-0.03998-0.06036-0.03998-0.14658 0-0.07525 0.02978-0.12228t0.07917-0.07368q0.05017-0.02744 0.11052-0.04076 0.06036-0.01334 0.1215-0.02117 0.07839-0.01021 0.12777-0.01569 0.04938-0.0055 0.0729-0.01882 0.0243-0.01334 0.0243-0.04547v-0.0047q0-0.08152-0.04625-0.1262-0.04625-0.04547-0.13718-0.04547-0.09485 0-0.14815 0.04154-0.0533 0.04076-0.07368 0.08701l-0.1356-0.04466q0.03371-0.07995 0.09093-0.12463 0.05722-0.04547 0.1262-0.06428 0.06898-0.01882 0.13639-0.01882 0.0439 0 0.09955 0.01096 0.05644 0.01021 0.10817 0.04155 0.05252 0.03137 0.08622 0.09328 0.03451 0.06114 0.03451 0.16383v0.57771h-0.13874v-0.11915h-0.0094q-0.01489 0.03058-0.04782 0.06349-0.03292 0.03213-0.08544 0.05409t-0.12698 0.02196zm0.0243-0.12463q0.07838 0 0.13247-0.03058t0.08231-0.07917q0.02823-0.04938 0.02823-0.10268v-0.1215q-0.0086 0.0102-0.03761 0.01882-0.02899 0.0078-0.06663 0.0141-0.03685 0.0063-0.07212 0.01096-0.03451 0.0039-0.05487 0.0063-0.05095 0.0063-0.09563 0.02196-0.0439 0.01489-0.07055 0.04468-0.02665 0.02899-0.02665 0.07917 0 0.06819 0.05095 0.10347 0.05174 0.03451 0.13012 0.03451zm0.6318 0.10425v-0.87634h0.13639v0.13482h0.0094q0.0243-0.06663 0.08622-0.1066 0.06271-0.04076 0.1411-0.04076 0.01569 0 0.03685 7.84e-4 0.02196 7.84e-4 0.03451 0.0016v0.14188q-0.0063-0.0016-0.03137-0.0047-0.0251-0.0031-0.0533-0.0031-0.09484 0-0.15677 0.05801-0.06192 0.05722-0.06192 0.1458v0.54868zm0.97434-0.87634v0.12071h-0.18029v0.52831q0 0.05879 0.02351 0.08622 0.0243 0.02665 0.07995 0.02665 0.01334 0 0.03371-0.0031 0.02117-0.0031 0.03841-0.0063l0.02899 0.11914q-0.02196 0.0078-0.05017 0.01175-0.02744 0.0039-0.05487 0.0039-0.11366 0-0.17715-0.05957-0.06349-0.06036-0.06349-0.16775v-0.53927h-0.13169v-0.12071h0.13169v-0.20848h0.14109v0.20851zm1.1217 0.89202q-0.14972 0-0.2673-0.07212-0.11679-0.0729-0.18421-0.20694-0.06663-0.13482-0.06663-0.31982 0-0.18578 0.06663-0.31982 0.06741-0.13482 0.18421-0.20772 0.11758-0.0729 0.2673-0.0729 0.11836 0 0.21713 0.04625 0.09955 0.04547 0.16618 0.1309 0.06741 0.08544 0.08779 0.20616h-0.14893q-0.01648-0.07995-0.06428-0.13482-0.04703-0.05487-0.11444-0.0823-0.06741-0.02823-0.14345-0.02823-0.10504 0-0.18969 0.0533-0.08466 0.0533-0.13404 0.15677-0.04938 0.10268-0.04938 0.2524 0 0.14893 0.04938 0.2524 0.05017 0.10268 0.13482 0.15599 0.08466 0.05252 0.18891 0.05252 0.07682 0 0.14345-0.02823 0.06741-0.02823 0.11444-0.08309 0.04782-0.05487 0.06428-0.13404h0.14893q-0.02037 0.11836-0.08701 0.20459-0.06584 0.08622-0.1654 0.13247-0.09877 0.04625-0.2187 0.04625zm0.92808 0.0047q-0.08309 0-0.15129-0.03137-0.06741-0.03137-0.10739-0.09171-0.03998-0.06036-0.03998-0.14658 0-0.07525 0.02978-0.12228t0.07917-0.07368q0.05017-0.02744 0.11052-0.04076 0.06036-0.01334 0.1215-0.02117 0.07839-0.0102 0.12777-0.01569 0.04938-0.0055 0.0729-0.01882 0.0243-0.01334 0.0243-0.04547v-0.0047q0-0.08152-0.04625-0.1262-0.04625-0.04547-0.13718-0.04547-0.09485 0-0.14815 0.04155-0.0533 0.04076-0.07368 0.08701l-0.13561-0.04468q0.03371-0.07995 0.09093-0.12463 0.05722-0.04547 0.1262-0.06428 0.06898-0.01882 0.13639-0.01882 0.0439 0 0.09955 0.01096 0.05644 0.0102 0.10817 0.04154 0.05252 0.03137 0.08622 0.09328 0.03451 0.06114 0.03451 0.16383v0.57771h-0.13874v-0.11915h-0.0094q-0.01489 0.03058-0.04782 0.06349-0.03292 0.03213-0.08544 0.05409t-0.12698 0.02196zm0.0243-0.12463q0.07838 0 0.13247-0.03058t0.0823-0.07917q0.02823-0.04939 0.02823-0.10268v-0.1215q-0.0086 0.01021-0.03761 0.01882-0.02899 0.0078-0.06663 0.0141-0.03685 0.0063-0.07212 0.01096-0.03451 0.0039-0.05487 0.0063-0.05095 0.0063-0.09563 0.02196-0.0439 0.01489-0.07055 0.04468-0.02665 0.02899-0.02665 0.07917 0 0.0682 0.05095 0.10347 0.05174 0.03451 0.13012 0.03451zm0.77289-1.0637v1.1679h-0.14109v-1.1679zm0.38881 0v1.1679h-0.14109v-1.1679zm0.60436 1.1868q-0.11915 0-0.20929-0.05644-0.08936-0.05644-0.13953-0.15834t-0.05017-0.23672q0-0.13718 0.05017-0.23908 0.05017-0.10268 0.13953-0.15912 0.09014-0.05644 0.20929-0.05644 0.11993 0 0.21007 0.05644t0.14031 0.15912q0.05017 0.1019 0.05017 0.23908 0 0.13482-0.05017 0.23672t-0.14031 0.15834q-0.09014 0.05644-0.21007 0.05644zm0-0.1262q0.08857 0 0.1458-0.04547 0.05722-0.04547 0.08466-0.11915 0.02744-0.07447 0.02744-0.16069 0-0.08701-0.02744-0.16148-0.02744-0.07525-0.08466-0.12071-0.05722-0.04625-0.1458-0.04625-0.08779 0-0.14423 0.04625-0.05644 0.04547-0.08387 0.11993-0.02744 0.07447-0.02744 0.16226 0 0.08622 0.02744 0.16069 0.02744 0.07368 0.08387 0.11915 0.05644 0.04547 0.14423 0.04547zm0.60591 0.10739v-0.87634h0.13639v0.13482h0.0094q0.0243-0.06663 0.08622-0.1066 0.06271-0.04076 0.14109-0.04076 0.01568 0 0.03685 7.83e-4 0.02196 7.84e-4 0.03451 0.0016v0.14188q-0.0063-0.0016-0.03137-0.0047-0.0251-0.0031-0.0533-0.0031-0.09484 0-0.15677 0.05801-0.06193 0.05722-0.06193 0.1458v0.54868zm0.62946 0v-0.87634h0.13639v0.13482h0.0094q0.0243-0.06663 0.08622-0.1066 0.06271-0.04076 0.14109-0.04076 0.01568 0 0.03685 7.83e-4 0.02196 7.84e-4 0.03451 0.0016v0.14188q-0.0063-0.0016-0.03137-0.0047-0.0251-0.0031-0.0533-0.0031-0.09484 0-0.15677 0.05801-0.06193 0.05722-0.06193 0.1458v0.54868zm0.62004 0v-0.87634h0.14109v0.87634zm0.07133-1.0198q-0.03998 0-0.06898-0.02744-0.02899-0.02744-0.02899-0.06584 0-0.03919 0.02899-0.06584 0.02899-0.02744 0.06898-0.02744 0.04076 0 0.06976 0.02744 0.02899 0.02665 0.02899 0.06584 0 0.03841-0.02899 0.06584-0.02899 0.02744-0.06976 0.02744zm0.56282 1.0402q-0.08309 0-0.15129-0.03137-0.06741-0.03137-0.10739-0.09171-0.03998-0.06036-0.03998-0.14658 0-0.07525 0.02978-0.12228t0.07917-0.07368q0.05017-0.02744 0.11052-0.04076 0.06036-0.01334 0.1215-0.02117 0.07838-0.0102 0.12777-0.01569 0.04938-0.0055 0.0729-0.01882 0.0243-0.01334 0.0243-0.04547v-0.0047q0-0.08152-0.04625-0.1262-0.04625-0.04547-0.13717-0.04547-0.09484 0-0.14815 0.04154-0.0533 0.04076-0.07368 0.08701l-0.13561-0.04468q0.03371-0.07995 0.09093-0.12463 0.05722-0.04547 0.1262-0.06428 0.06898-0.01882 0.13639-0.01882 0.0439 0 0.09955 0.01096 0.05644 0.0102 0.10817 0.04154 0.05252 0.03137 0.08622 0.09328 0.03451 0.06114 0.03451 0.16383v0.57775h-0.13875v-0.11913h-0.0094q-0.01489 0.03058-0.04782 0.06349-0.03292 0.03213-0.08544 0.05409t-0.12698 0.02196zm0.0243-0.12463q0.07839 0 0.13247-0.03058 0.05409-0.03058 0.0823-0.07917 0.02823-0.04938 0.02823-0.10268v-0.1215q-0.0086 0.01021-0.03761 0.01882-0.02899 0.0078-0.06663 0.0141-0.03685 0.0063-0.07212 0.01096-0.03451 0.0039-0.05487 0.0063-0.05095 0.0063-0.09563 0.02196-0.0439 0.01489-0.07055 0.04468-0.02665 0.02899-0.02665 0.07917 0 0.06819 0.05095 0.10347 0.05174 0.03451 0.13012 0.03451zm1.4658 0.11993q-0.19518 0-0.30336-0.15677-0.10739-0.15677-0.10739-0.4421 0-0.28376 0.10817-0.4421 0.10896-0.15834 0.30257-0.15834 0.1944 0 0.30257 0.15834t0.10817 0.4421q0 0.28533-0.10739 0.4421t-0.30335 0.15677zm0-0.13012q0.12855 0 0.19753-0.12306 0.06976-0.12385 0.06976-0.34568 0-0.2234-0.06976-0.34725-0.06898-0.12385-0.19753-0.12385-0.12777 0-0.19753 0.12463-0.06976 0.12385-0.06976 0.34646 0 0.22183 0.06976 0.34568 0.06976 0.12306 0.19753 0.12306zm0.97355 0.13012q-0.10269 0-0.18422-0.03998-0.08153-0.04076-0.13013-0.11052-0.04861-0.07055-0.0525-0.15991h0.14423q0.0072 0.07838 0.07056 0.12934 0.06429 0.05017 0.15205 0.05017 0.07057 0 0.12541-0.03292 0.05564-0.03292 0.08701-0.09093 0.03137-0.058 0.03137-0.13169 0-0.07525-0.03288-0.13482t-0.09014-0.09328q-0.05643-0.03451-0.13013-0.03451-0.05409 0-0.10976 0.01723-0.05564 0.01724-0.09014 0.0439l-0.1395-0.01723 0.06898-0.57847h0.61456v0.1309h-0.48912l-0.03999 0.34098h0.0064q0.03591-0.02978 0.09094-0.0486 0.05488-0.01958 0.11524-0.01958 0.10738 0 0.19125 0.05095 0.08387 0.05017 0.13168 0.13874 0.04861 0.08857 0.04861 0.20145 0 0.11209-0.05095 0.19988-0.05015 0.08779-0.13796 0.13874-0.0878 0.05017-0.20066 0.05017zm0.99158 0q-0.19518 0-0.30335-0.15677-0.10738-0.15677-0.10738-0.4421 0-0.28376 0.10817-0.4421 0.10897-0.15834 0.30256-0.15834 0.19438 0 0.30256 0.15834 0.10817 0.15834 0.10817 0.4421 0 0.28533-0.10738 0.4421t-0.30335 0.15677zm0-0.13012q0.12854 0 0.19752-0.12306 0.06977-0.12385 0.06977-0.34568 0-0.2234-0.06977-0.34725-0.06898-0.12385-0.19752-0.12385-0.12775 0-0.19752 0.12463-0.06977 0.12385-0.06977 0.34646 0 0.22183 0.06977 0.34568 0.06977 0.12306 0.19752 0.12306zm1.0182-1.0535v1.1679h-0.14657v-1.03h-0.0079l-0.28218 0.20929v-0.15991l0.25395-0.18734zm0.23517 0.93042v-0.1215l0.51108-0.80895h0.18108v0.79954h0.15833v0.1309h-0.15833v0.23751h-0.14264v-0.23751zm0.55023-0.13091v-0.61298h-0.0094l-0.38174 0.60356v0.0094z" fill="#dce7ef" stroke-width="3.7796"/>
</svg>
