<svg width="64" height="64" version="1.1" xmlns="http://www.w3.org/2000/svg">
 <defs>
  <filter id="b" x="-.036" y="-.036" width="1.072" height="1.072" color-interpolation-filters="sRGB">
   <feGaussianBlur stdDeviation=".42"/>
  </filter>
  <filter id="filter2_d_31_575" x="23.812" y="40.688" width="99.375" height="65.625" color-interpolation-filters="sRGB" filterUnits="userSpaceOnUse">
   <feFlood flood-opacity="0" result="BackgroundImageFix"/>
   <feColorMatrix in="SourceAlpha" result="hardAlpha" values="0 0 0 0 0 0 0 0 0 0 0 0 0 0 0 0 0 0 127 0"/>
   <feOffset dx="1.5" dy="1.5"/>
   <feGaussianBlur stdDeviation="1.5"/>
   <feComposite in2="hardAlpha" operator="out"/>
   <feColorMatrix values="0 0 0 0 0 0 0 0 0 0 0 0 0 0 0 0 0 0 0.2 0"/>
   <feBlend in2="BackgroundImageFix" result="effect1_dropShadow_31_575"/>
   <feBlend in="SourceGraphic" in2="effect1_dropShadow_31_575" result="shape"/>
  </filter>
  <linearGradient id="paint0_linear_31_575" x1="72" x2="72" y2="144" gradientTransform="matrix(.41667 0 0 .41667 2 2)" gradientUnits="userSpaceOnUse">
   <stop stop-color="#1A6AE7" offset="0"/>
   <stop stop-color="#20C2F4" offset="1"/>
  </linearGradient>
  <linearGradient id="paint1_linear_31_575" x1="72" x2="72" y1="42.188" y2="101.81" gradientUnits="userSpaceOnUse">
   <stop stop-color="#F7F7F7" offset="0"/>
   <stop stop-color="#F9F9F9" offset="1"/>
  </linearGradient>
  <filter id="filter26" x="-.013853" y="-.013853" width="1.0277" height="1.0277" color-interpolation-filters="sRGB">
   <feGaussianBlur stdDeviation="0.29776566"/>
  </filter>
  <filter id="filter25" x="-.029663" y="-.029663" width="1.0593" height="1.0593" color-interpolation-filters="sRGB">
   <feGaussianBlur stdDeviation="0.29776566"/>
  </filter>
 </defs>
 <circle transform="matrix(2.1429 0 0 2.1429 -826.38 -1107.4)" cx="400.57" cy="531.8" r="14" filter="url(#b)" opacity=".25"/>
 <path d="m32 2c-16.62 0-30 13.38-30 30s13.38 30 30 30 30-13.38 30-30-13.38-30-30-30z" fill="url(#paint0_linear_31_575)" stroke-width=".41667"/>
 <path transform="matrix(.41667 0 0 .41667 2 2)" d="m61.168 79.983-5.8547-5.8357-27.374 27.286c0.9173 0.379 2.1447 0.379 4.4267 0.379h79.268c2.283 0 3.51 0 4.428-0.379l-27.375-27.286-5.8547 5.8357c-1.848 1.8421-4.0508 3.1151-6.3891 3.8191-1.4465 0.4356-2.945 0.6533-4.4434 0.6533-3.9206 0-7.8411-1.4908-10.832-4.4724zm57.137 19.21c0.383-0.9181 0.383-2.1458 0.383-4.4332v-45.519c0-2.3942 0-3.6274-0.439-4.5598l-27.316 27.228zm-2.117-56.57-35.419 35.304c-1.8162 1.8102-4.0555 2.9417-6.4005 3.3942-1.6041 0.3096-3.2577 0.3015-4.8593-0.0242-2.3006-0.4679-4.4937-1.5912-6.2783-3.37l-35.418-35.304c0.9315-0.4349 2.1646-0.4349 4.5528-0.4349h79.268c2.389 0 3.622 0 4.554 0.4351zm-90.437 2.0579c-0.4383 0.9324-0.4383 2.1657-0.4383 4.5601v45.519c0 2.2877 0 3.5154 0.3823 4.4335l27.373-27.284z" fill="url(#paint1_linear_31_575)" filter="url(#filter2_d_31_575)"/>
 <path d="m10.787 10.787c-11.752 11.752-11.752 30.674 0 42.426 0.11855 0.11855 0.24184 0.22911 0.36184 0.34527-11.399-11.775-11.288-30.431 0.34527-42.065 11.634-11.634 30.289-11.744 42.065-0.34527-0.11616-0.12-0.22671-0.24329-0.34527-0.36184-11.752-11.752-30.674-11.752-42.426 0z" fill="#ffffff" filter="url(#filter26)" opacity=".35"/>
 <path d="m37.435 61.526c5.7718-1.0635 11.297-3.831 15.779-8.3126s7.2491-10.007 8.3126-15.779c-1.5917 5.4332-4.6056 10.657-9.0198 15.072s-9.6384 7.428-15.072 9.0198z" fill="#ffffff" filter="url(#filter25)" opacity=".35"/>
</svg>
