<svg xmlns="http://www.w3.org/2000/svg" xmlns:xlink="http://www.w3.org/1999/xlink" xml:space="preserve" width="64" height="64"><defs><linearGradient xlink:href="#a" id="b" x1="7.937" x2="7.937" y1="15.081" y2="1.852" gradientTransform="scale(3.7796)" gradientUnits="userSpaceOnUse"><stop offset="0" stop-color="#f1efeb"/><stop offset="1" stop-color="#fdfcfc"/></linearGradient><linearGradient id="a"><stop offset="0" style="stop-color:#c061cb;stop-opacity:1"/><stop offset="1" style="stop-color:#813d9c;stop-opacity:1"/></linearGradient><radialGradient xlink:href="#a" id="c" cx="32.001" cy="31.97" r="28.001" fx="32.001" fy="31.97" gradientUnits="userSpaceOnUse"/><filter id="d" width="1.294" height="1.294" x="-.147" y="-.147" style="color-interpolation-filters:sRGB"><feGaussianBlur stdDeviation="2.96"/></filter></defs><rect width="60" height="60" x="2" y="2" fill="url(#b)" rx="30" ry="30" style="fill:url(#c);fill-opacity:1"/><path d="M25.744 7.808a1.93 1.93 0 0 1 1.34.658q.127.144.225.314l2.613 4.524a18 18 0 0 1 2.007-.116l.072.002v.046l.072-.001a18 18 0 0 1 2.007.116l2.613-4.525a1.96 1.96 0 0 1 1.186-.91 1.93 1.93 0 0 1 1.477.201l9.593 5.634a2 2 0 0 1 .577.518q.014.02.026.043h.364v1.16c.008.125 0 .099-.016.225a2 2 0 0 1-.249.738l-2.61 4.52a18 18 0 0 1 1.099 1.701 18 18 0 0 1 .9 1.819l5.187.02a1.94 1.94 0 0 1 1.79 1.206 2 2 0 0 1 .15.764l-.041 11.191a1.98 1.98 0 0 1-.576 1.387 1.95 1.95 0 0 1-1.371.57h-.008l-5.193-.02a18.6 18.6 0 0 1-2.025 3.5l2.837 4.397v1.16l-.004.097a1.97 1.97 0 0 1-.975 1.57l-9.633 5.559a1.94 1.94 0 0 1-1.465.194 1.95 1.95 0 0 1-1.193-.923L33.94 50.6a18.5 18.5 0 0 1-2.87.079 19 19 0 0 1-1.007-.08l-2.58 4.547a1.97 1.97 0 0 1-.729.732 1.95 1.95 0 0 1-1.456.192 2 2 0 0 1-.474-.195l-9.633-5.559a1.95 1.95 0 0 1-.775-.827 2 2 0 0 1-.2-.743l-.004-.097v-1.16l2.617-4.056.205-.362a19 19 0 0 1-1.576-2.565q-.23-.45-.434-.914l-5.193.02h-.008a1.93 1.93 0 0 1-1.371-.57 1.96 1.96 0 0 1-.537-1.002 2 2 0 0 1-.039-.385l-.04-11.191v-.047a2 2 0 0 1 .328-1.098 1.97 1.97 0 0 1 .854-.715 1.9 1.9 0 0 1 .757-.157l5.188-.02a18 18 0 0 1 .9-1.818 18 18 0 0 1 1.084-1.681l-2.596-4.494a2 2 0 0 1-.25-.738c-.015-.126-.023-.1-.015-.226v-1.16h.336c.02-.029.033-.06.054-.089a1.9 1.9 0 0 1 .577-.518l9.593-5.633a1.94 1.94 0 0 1 1.098-.263m6.257 8.937v3.867a11.4 11.4 0 0 1 2.454.276l.159.039c.789.186 1.546.45 2.261.79l.083.038a11.3 11.3 0 0 1 2.066 1.298l.128.106a11.4 11.4 0 0 1 1.668 1.668l.09.107c.503.637.938 1.329 1.298 2.066l.05.11c.338.713.603 1.466.787 2.25l.036.145c.095.427.174.86.22 1.305h.058v1.16c0 .851-.101 1.678-.28 2.476l-.033.13a11.3 11.3 0 0 1-.78 2.23l-.084.174c-.35.711-.77 1.38-1.255 1.998l-.08.108a11.4 11.4 0 0 1-1.73 1.729l-.107.08a11.4 11.4 0 0 1-1.999 1.256l-.173.083c-.707.334-1.452.598-2.23.781l-.13.033c-.799.178-1.625.28-2.477.28v3.866a15.2 15.2 0 0 0 8.437-2.554l.029-.018a15 15 0 0 0 2.3-1.887 15 15 0 0 0 1.887-2.3l.017-.029a15.2 15.2 0 0 0 2.554-8.436 15.2 15.2 0 0 0-2.554-8.437l-.017-.029a15 15 0 0 0-1.888-2.3 15 15 0 0 0-2.3-1.887l-.028-.018A15.2 15.2 0 0 0 32 16.745m0 7.733v3.867a3.625 3.625 0 0 1 3.394 2.465h.23v1.159c0 .491-.098.959-.274 1.385l-.002.004a3.6 3.6 0 0 1-.783 1.173l-.004.003c-.333.333-.73.6-1.172.784l-.004.001a3.6 3.6 0 0 1-1.385.275v3.867a7.5 7.5 0 0 0 1.881-.248l.104-.027a7.5 7.5 0 0 0 1.726-.714l.077-.047a7.5 7.5 0 0 0 1.51-1.158 7.5 7.5 0 0 0 1.157-1.51l.047-.077a7.5 7.5 0 0 0 .715-1.725l.027-.105a7.5 7.5 0 0 0 .247-1.88 7.5 7.5 0 0 0-.247-1.882l-.027-.104a7.5 7.5 0 0 0-.715-1.725l-.047-.078a7.5 7.5 0 0 0-1.158-1.509 7.5 7.5 0 0 0-1.509-1.158l-.077-.047a7.5 7.5 0 0 0-1.726-.714l-.104-.027a7.5 7.5 0 0 0-1.88-.248z" style="fill:#000;fill-opacity:1;stroke-width:.0947807;filter:url(#d);opacity:.25"/><path d="M25.744 7.808a1.93 1.93 0 0 1 1.34.658q.127.144.225.314l2.613 4.524a18 18 0 0 1 2.007-.116l.072.002v.046l.072-.001a18 18 0 0 1 2.007.116l2.613-4.525a1.96 1.96 0 0 1 1.186-.91 1.93 1.93 0 0 1 1.477.201l9.593 5.634a1.96 1.96 0 0 1 .963 1.567 2 2 0 0 1-.26 1.117l-2.611 4.52a18 18 0 0 1 1.099 1.701 18 18 0 0 1 .9 1.819l5.187.02a1.94 1.94 0 0 1 1.79 1.206 2 2 0 0 1 .15.764l-.041 11.191a1.98 1.98 0 0 1-.576 1.387 1.95 1.95 0 0 1-1.371.57h-.008l-5.193-.02a18.6 18.6 0 0 1-2.025 3.5l2.58 4.546a1.97 1.97 0 0 1-.722 2.679l-9.633 5.558a1.94 1.94 0 0 1-1.465.194 1.95 1.95 0 0 1-1.193-.923L33.94 50.6a19 19 0 0 1-1.939.103v-.047a18 18 0 0 1-1.938-.102L27.482 55.1a1.96 1.96 0 0 1-.728.732 1.95 1.95 0 0 1-1.456.193 2 2 0 0 1-.474-.196l-9.633-5.558a1.95 1.95 0 0 1-.775-.828 1.97 1.97 0 0 1 .053-1.85l2.58-4.547a18.8 18.8 0 0 1-2.025-3.5l-5.193.02h-.008a1.93 1.93 0 0 1-1.371-.57 1.96 1.96 0 0 1-.536-1.001 2 2 0 0 1-.04-.385l-.04-11.192a2 2 0 0 1 .328-1.098 1.97 1.97 0 0 1 .854-.715 1.9 1.9 0 0 1 .757-.157l5.188-.02a18 18 0 0 1 .9-1.818 18 18 0 0 1 1.098-1.702l-2.61-4.52a1.98 1.98 0 0 1 .125-2.166 1.9 1.9 0 0 1 .577-.518l9.593-5.633a1.94 1.94 0 0 1 1.098-.263m6.257 8.937v3.867A11.36 11.36 0 0 1 43.359 31.97 11.36 11.36 0 0 1 32 43.327v3.867A15.224 15.224 0 0 0 47.225 31.97a15.224 15.224 0 0 0-15.224-15.225m0 7.733v3.867a3.625 3.625 0 0 1 3.625 3.625A3.625 3.625 0 0 1 32 35.594v3.867a7.49 7.49 0 0 0 7.491-7.491A7.49 7.49 0 0 0 32 24.478" style="mix-blend-mode:normal;fill:#fefefe;fill-opacity:1;fill-rule:nonzero;stroke-width:.0947807"/></svg>