<svg xmlns="http://www.w3.org/2000/svg" width="64" height="64" viewBox="0 0 16.933 16.933"><defs><clipPath id="c"><path d="M46 32h32v12H46z"/></clipPath><clipPath id="d"><path d="M22 28h96a8 8 0 0 1 8 8v68a8 8 0 0 1-8 8H22a8 8 0 0 1-8-8V36a8 8 0 0 1 8-8"/></clipPath><clipPath id="e"><path d="M50 36h24v4H50z"/></clipPath><clipPath id="f"><path d="M22 28h96a8 8 0 0 1 8 8v68a8 8 0 0 1-8 8H22a8 8 0 0 1-8-8V36a8 8 0 0 1 8-8"/></clipPath><clipPath id="g"><path d="M112 34h8v8h-8z"/></clipPath><clipPath id="h"><path d="M22 28h96a8 8 0 0 1 8 8v68a8 8 0 0 1-8 8H22a8 8 0 0 1-8-8V36a8 8 0 0 1 8-8"/></clipPath><clipPath id="i"><path d="M84 36h18v4H84z"/></clipPath><clipPath id="j"><path d="M22 28h96a8 8 0 0 1 8 8v68a8 8 0 0 1-8 8H22a8 8 0 0 1-8-8V36a8 8 0 0 1 8-8"/></clipPath><clipPath id="l"><path d="M18 54h104v32H18z"/></clipPath><clipPath id="m"><path d="M22 28h96a8 8 0 0 1 8 8v68a8 8 0 0 1-8 8H22a8 8 0 0 1-8-8V36a8 8 0 0 1 8-8"/></clipPath><clipPath id="n"><path d="M18 90h50v18H18z"/></clipPath><clipPath id="o"><path d="M22 28h96a8 8 0 0 1 8 8v68a8 8 0 0 1-8 8H22a8 8 0 0 1-8-8V36a8 8 0 0 1 8-8"/></clipPath><clipPath id="p"><path d="M72 90h50v18H72z"/></clipPath><clipPath id="q"><path d="M22 28h96a8 8 0 0 1 8 8v68a8 8 0 0 1-8 8H22a8 8 0 0 1-8-8V36a8 8 0 0 1 8-8"/></clipPath><clipPath id="r"><path d="M88 96h28v6H88z"/></clipPath><clipPath id="s"><path d="M22 28h96a8 8 0 0 1 8 8v68a8 8 0 0 1-8 8H22a8 8 0 0 1-8-8V36a8 8 0 0 1 8-8"/></clipPath><clipPath id="t"><path d="M14 48h112v2H14z"/></clipPath><clipPath id="u"><path d="M22 28h96a8 8 0 0 1 8 8v68a8 8 0 0 1-8 8H22a8 8 0 0 1-8-8V36a8 8 0 0 1 8-8"/></clipPath><linearGradient id="v" x1="2" x2="40" y1="87" y2="87" gradientTransform="rotate(-16.6 15.819 -31.316)scale(.11277)" gradientUnits="userSpaceOnUse"><stop offset="0" stop-color="#3584e4"/><stop offset="1" stop-color="#33d17a"/></linearGradient><linearGradient id="w" x1="2" x2="40" y1="52" y2="52" gradientTransform="rotate(-16.6 15.819 -31.316)scale(.11277)" gradientUnits="userSpaceOnUse"><stop offset="0" stop-color="#9a9996"/><stop offset=".646" stop-color="#c0bfbc"/><stop offset="1" stop-color="#77767b"/></linearGradient><linearGradient id="b" x1="8.467" x2="8.467" y1="1.05" y2="15.867" gradientTransform="translate(-.604 -.596)scale(1.0714)" gradientUnits="userSpaceOnUse"><stop offset="0" stop-color="#2a3542"/><stop offset="1" stop-color="#1b1f22"/></linearGradient><filter id="a" width="1.054" height="1.054" x="-.027" y="-.027" color-interpolation-filters="sRGB"><feGaussianBlur stdDeviation=".675"/></filter></defs><rect width="60" height="60" x="2" y="3" filter="url(#a)" opacity=".15" rx="30" ry="30" transform="scale(.26458)"/><rect width="15.875" height="15.875" x=".529" y=".529" fill="url(#b)" rx="7.937" ry="7.937"/><path fill="#fff" fill-opacity=".2" d="M1.904 10.343H15.03c.143 0 .26.081.26.18v2.168c0 .1-.117.18-.26.18H1.904c-.143 0-.26-.08-.26-.18v-2.167c0-.1.117-.18.26-.18zm0 0"/><g clip-path="url(#c)" transform="matrix(.1312 0 0 .14022 -2.292 -2.002)"><g clip-path="url(#d)"><path fill="#fff" fill-opacity=".2" d="M49 32h26a3 3 0 0 1 3 3v6a3 3 0 0 1-3 3H49a3 3 0 0 1-3-3v-6a3 3 0 0 1 3-3"/></g></g><g clip-path="url(#e)" transform="matrix(.1312 0 0 .14022 -2.292 -2.002)"><g clip-path="url(#f)"><path fill="#fff" fill-opacity=".4" d="M52 36h20a2 2 0 1 1 0 4H52a2 2 0 1 1 0-4"/></g></g><g clip-path="url(#g)" transform="matrix(.17397 0 0 .1676 -7.767 -3.072)"><g clip-path="url(#h)"><path fill="#fff" fill-opacity=".2" d="M112 34v2l2 2-2 2v2h2l2-2 2 2h2v-2l-2-2 2-2v-2h-2l-2 2-2-2z"/></g></g><g clip-path="url(#i)" transform="matrix(.1312 0 0 .1676 -2.292 -3.072)"><g clip-path="url(#j)"><path fill="#fff" fill-opacity=".4" d="M86 36.504h14c1.105 0 2 .749 2 1.674s-.895 1.673-2 1.673H86c-1.105 0-2-.748-2-1.673s.895-1.674 2-1.674"/></g></g><g clip-path="url(#l)" transform="matrix(.1312 0 0 .14484 -.718 -2.372)"><g clip-path="url(#m)"><path fill="#fff" fill-opacity=".2" d="M20 54h100a2 2 0 0 1 2 2v28a2 2 0 0 1-2 2H20a2 2 0 0 1-2-2V56a2 2 0 0 1 2-2"/></g></g><g clip-path="url(#n)" transform="matrix(.12498 0 0 .10686 -.282 1.056)"><g clip-path="url(#o)"><path fill="#fff" fill-opacity=".2" d="M20 90h46a2 2 0 0 1 2 2v14a2 2 0 0 1-2 2H20a2 2 0 0 1-2-2V92a2 2 0 0 1 2-2"/></g></g><g clip-path="url(#p)" transform="matrix(.12498 0 0 .10686 -.282 1.056)"><g clip-path="url(#q)"><path fill="#fff" fill-opacity=".2" d="M74 90h46a2 2 0 0 1 2 2v14a2 2 0 0 1-2 2H74a2 2 0 0 1-2-2V92a2 2 0 0 1 2-2"/></g></g><g clip-path="url(#r)" transform="matrix(.12498 0 0 .10686 -.282 1.056)"><g clip-path="url(#s)"><path fill="#637d9e" d="M90 96h24a2 2 0 0 1 2 2v2a2 2 0 0 1-2 2H90a2 2 0 0 1-2-2v-2a2 2 0 0 1 2-2"/></g></g><g clip-path="url(#t)" transform="matrix(.1312 0 0 .1676 -.718 -3.601)"><g clip-path="url(#u)"><path fill-opacity=".2" d="M17.107 48h105.79v2H17.107z"/></g></g><path fill="#deddda" d="m10.745 5.461 3.674-1.095a.225.225 0 0 1 .28.152l.71 2.377a.225.225 0 0 1-.152.28l-3.675 1.096a.225.225 0 0 1-.28-.152l-.709-2.377a.225.225 0 0 1 .152-.28zm0 0"/><path fill="url(#v)" d="m11.56 8.984.128.432c.04.133.15.231.287.255l.601.106c.409.072.742.368.86.765l.858 4.093a1.15 1.15 0 0 0 1.454.867 1.14 1.14 0 0 0 .724-1.516l-1.523-3.895a1.1 1.1 0 0 1 .3-1.11l.446-.419a.36.36 0 0 0 .1-.37l-.129-.432Zm0 0"/><path fill="url(#w)" d="m11.302 8.12 4.106-1.225.387 1.297-4.107 1.224z"/><path fill-opacity=".102" d="m10.745 5.461.752 2.13-.536-2.194Zm.865-.258.839 1.633-.407-1.761zm2.377-.708.688 1.913-.472-1.978zm-1.297.386.817 2.346-.385-2.474zm0 0"/><path fill="#fff" fill-opacity=".2" d="m11.656 9.308.032.108 4.107-1.224-.032-.108zm-.354-1.188.032.107 4.107-1.224-.033-.108zm0 0"/><path fill-opacity=".149" d="M15.849 14.295a.45.45 0 1 1-.864.258.45.45 0 0 1 .864-.258m0 0"/></svg>