<svg xmlns="http://www.w3.org/2000/svg" width="64" height="64"><defs><linearGradient id="a" x1="7.937" x2="7.937" y1="15.081" y2="1.852" gradientTransform="scale(3.7796)" gradientUnits="userSpaceOnUse"><stop offset="0" stop-color="#363636" style="stop-color:#ffeac2;stop-opacity:1"/><stop offset="1" stop-color="#6c6c6c" style="stop-color:#fff9eb;stop-opacity:1"/></linearGradient><filter id="b" width="1.362" height="1.32" x="-.181" y="-.16" style="color-interpolation-filters:sRGB"><feGaussianBlur stdDeviation="2.392"/></filter></defs><rect width="60" height="60" x="2" y="2" fill="url(#a)" rx="30" ry="30"/><path stroke="#3d3846" stroke-linecap="round" stroke-linejoin="round" stroke-width="1.802" d="M28.696 52.725h2.403m-2.403 0V48.52m-7.81-37.245h4.206m3.003 0H32.3m1.803 41.45h4.205m-24.63-41.45h4.205m-4.205 41.45h4.205m29.436-4.205h3.003m-3.003 4.205h3.003m-1.501-4.205v4.205M47.319 40.11h3.003m-3.003 4.205h3.003m-1.501-4.205v4.205M20.886 48.52v4.205l2.103-2.102 2.103 2.102V48.52m16.52 3.004s0 1.201.9 1.201c1.202 0 1.202-1.201 1.202-1.201V48.52M20.886 14.88v4.806m4.206 0V14.88m-4.206 2.403h4.206m-4.206 6.007v4.806m4.206 0V23.29m-4.206 2.403h4.206M20.886 31.7v4.806m4.206 0V31.7m-4.206 2.403h4.206m-4.206 6.007v4.806m4.206 0V40.11m-4.206 2.403h4.206" style="display:inline;fill:none;fill-opacity:1;stroke:#3d3846;stroke-opacity:1;filter:url(#b);opacity:.25"/><path stroke="#3d3846" stroke-linecap="round" stroke-linejoin="round" stroke-width="1.802" d="M28.696 52.725h2.403m-2.403 0V48.52m-7.81-37.245h4.206m3.003 0H32.3m1.803 41.45h4.205m-24.63-41.45h4.205m-4.205 41.45h4.205m29.436-4.205h3.003m-3.003 4.205h3.003m-1.501-4.205v4.205M47.319 40.11h3.003m-3.003 4.205h3.003m-1.501-4.205v4.205M20.886 48.52v4.205l2.103-2.102 2.103 2.102V48.52m16.52 3.004s0 1.201.9 1.201c1.202 0 1.202-1.201 1.202-1.201V48.52M20.886 14.88v4.806m4.206 0V14.88m-4.206 2.403h4.206m-4.206 6.007v4.806m4.206 0V23.29m-4.206 2.403h4.206M20.886 31.7v4.806m4.206 0V31.7m-4.206 2.403h4.206m-4.206 6.007v4.806m4.206 0V40.11m-4.206 2.403h4.206" style="display:inline;fill:none;fill-opacity:0;stroke:#3d3846;stroke-opacity:1"/></svg>