<svg xmlns="http://www.w3.org/2000/svg" xml:space="preserve" width="64" height="64"><defs><linearGradient id="a" x1="7.937" x2="7.937" y1="15.081" y2="1.852" gradientTransform="scale(3.7796)" gradientUnits="userSpaceOnUse"><stop offset="0" stop-color="#f1efeb"/><stop offset="1" stop-color="#fdfcfc"/></linearGradient><filter id="d" width="1.353" height="1.252" x="-.177" y="-.126" style="color-interpolation-filters:sRGB"><feGaussianBlur stdDeviation="3.462"/></filter></defs><rect width="60" height="60" x="2" y="2" fill="url(#a)" rx="30" ry="30"/><path fill="#c0bfbc" d="M22.494 41.105H52.83v2.29H22.494Zm0 9.158H52.83v2.29H22.494Zm0 0"/><g clip-path="url(#c)" mask="url(#b)" style="filter:url(#d);opacity:.25" transform="translate(-9.559 -14.988)scale(.57238)"><path fill-rule="evenodd" d="M98.035 52.992a1 1 0 0 0-.777.328L75.285 76.988a6 6 0 0 0-5.582-.523l-14.223-15.8a2 2 0 0 0-1.601-.685 2.01 2.01 0 0 0-1.762 1.247 2 2 0 0 0 .387 2.117l14.219 15.8a6 6 0 0 0-.211 5.305 6 6 0 0 0 2.406 2.7l-11.86 30.492c-.132.336-.078.714.145.996.227.285.586.422.942.367.355-.059.652-.3.78-.637l11.856-30.492a6.03 6.03 0 0 0 3.656-.39 6.007 6.007 0 0 0 3.036-7.926 6 6 0 0 0-.727-1.204l21.98-23.671a1.001 1.001 0 0 0-.69-1.692m0 0"/></g><g fill="none" stroke-linecap="round"><path stroke="#949390" stroke-width="4.006" d="M64 64 46 44" style="display:inline" transform="translate(-4.98 -5.83)scale(.57238)"/><path stroke="#3d3846" stroke-width="1.146" d="m31.652 30.802 14.882-16.027"/><path stroke="#c061cb" stroke-width="1.146" d="M31.652 30.802 23.64 51.408"/></g><path fill="#d5d3cf" d="M34.79 29.402a3.44 3.44 0 0 1-1.738 4.537 3.44 3.44 0 0 1-4.537-1.737 3.44 3.44 0 0 1 1.738-4.537 3.44 3.44 0 0 1 4.536 1.737m0 0"/><path fill="#131c1a" d="M32.815 30.802a1.146 1.146 0 1 1-2.293.001 1.146 1.146 0 0 1 2.293-.001m0 0"/><path fill="#613583" d="M32.813 30.802a1.144 1.144 0 1 1-2.288.001 1.144 1.144 0 0 1 2.288-.001m0 0"/><path fill="#c0bfbc" d="M17.915 42.25a2.29 2.29 0 0 1-2.29 2.29 2.29 2.29 0 0 1-2.289-2.29 2.29 2.29 0 0 1 2.29-2.29 2.29 2.29 0 0 1 2.29 2.29m-.001 9.158a2.29 2.29 0 0 1-2.29 2.29 2.29 2.29 0 0 1-2.289-2.29 2.29 2.29 0 0 1 2.29-2.29 2.29 2.29 0 0 1 2.29 2.29m0 0"/></svg>