<svg xmlns="http://www.w3.org/2000/svg" width="64" height="64"><defs><linearGradient id="a" x1="7.937" x2="7.937" y1="15.081" y2="1.852" gradientTransform="scale(3.7796)" gradientUnits="userSpaceOnUse"><stop offset="0" stop-color="#f54800"/><stop offset="1" stop-color="#ffb200"/></linearGradient><filter id="b" width="1.276" height="1.315" x="-.138" y="-.158" color-interpolation-filters="sRGB"><feGaussianBlur stdDeviation="2.413"/></filter></defs><rect width="60" height="60" x="2" y="2" fill="url(#a)" rx="30" ry="30"/><path d="M16.241 15.026a5.243 5.243 0 0 0-5.254 5.254v18.387a5.24 5.24 0 0 0 5.254 5.252h5.252a5.24 5.24 0 0 0 5.254-5.252V20.28a5.243 5.243 0 0 0-5.254-5.254zm18.385 0c-.892 0-1.766.07-2.625.195V25.98a8 8 0 0 1 2.625-.445c4.412 0 7.88 3.467 7.88 7.879s-3.468 7.879-7.88 7.879a8 8 0 0 1-2.625-.446v10.758c.86.126 1.733.196 2.625.196 10.096 0 18.387-8.291 18.387-18.387s-8.291-18.387-18.387-18.387zm0 13.133a5.2 5.2 0 0 0-2.625.715v4.539a2.605 2.605 0 0 1 2.625-2.627c1.467 0 2.627 1.16 2.627 2.627s-1.16 2.627-2.627 2.627a2.605 2.605 0 0 1-2.625-2.627v4.539a5.2 5.2 0 0 0 2.625.715c2.883 0 5.254-2.371 5.254-5.254s-2.371-5.254-5.254-5.254M13.614 46.546V51.8H24.12v-5.254z" enable-background="new" filter="url(#b)" opacity=".15"/><path fill="#fff" d="M16.241 13.613a5.243 5.243 0 0 0-5.254 5.254v18.387a5.24 5.24 0 0 0 5.254 5.252h5.252a5.24 5.24 0 0 0 5.254-5.252V18.867a5.243 5.243 0 0 0-5.254-5.254zm18.385 0c-.892 0-1.766.07-2.625.195v10.758a8 8 0 0 1 2.625-.445c4.412 0 7.88 3.467 7.88 7.879s-3.468 7.879-7.88 7.879a8 8 0 0 1-2.625-.446v10.758c.86.126 1.733.196 2.625.196 10.096 0 18.387-8.291 18.387-18.387s-8.291-18.387-18.387-18.387m0 13.133a5.2 5.2 0 0 0-2.625.715V32a2.605 2.605 0 0 1 2.625-2.627c1.467 0 2.627 1.16 2.627 2.627s-1.16 2.627-2.627 2.627A2.605 2.605 0 0 1 32.001 32v4.539a5.2 5.2 0 0 0 2.625.715c2.883 0 5.254-2.371 5.254-5.254s-2.371-5.254-5.254-5.254M13.614 45.133v5.254H24.12v-5.254z" enable-background="new"/></svg>