<svg xmlns="http://www.w3.org/2000/svg" xmlns:xlink="http://www.w3.org/1999/xlink" width="64" height="64"><defs><linearGradient xlink:href="#a" id="u" x1="36.418" x2="21.723" y1="218.4" y2="218.4" gradientTransform="matrix(1.0208 0 0 .9305 -2.175 -109.41)"/><linearGradient id="a" gradientUnits="userSpaceOnUse"><stop offset="0" stop-color="#4fd2fd"/><stop offset="1" stop-color="#4fd2fd" stop-opacity="0"/></linearGradient><linearGradient xlink:href="#a" id="i" x1="93.539" x2="58.923" y1="240.42" y2="240.42" gradientTransform="matrix(.975 0 0 .98939 3.05 -170.32)"/><linearGradient xlink:href="#a" id="l" x1="36.418" x2="21.723" y1="218.4" y2="218.4" gradientTransform="matrix(1.0208 0 0 .9305 -2.175 -157.41)"/><linearGradient xlink:href="#a" id="o" x1="36.418" x2="21.723" y1="218.4" y2="218.4" gradientTransform="matrix(1.0208 0 0 .9305 -2.175 -141.41)"/><linearGradient xlink:href="#a" id="r" x1="36.418" x2="21.723" y1="218.4" y2="218.4" gradientTransform="matrix(1.0208 0 0 .9305 -2.175 -125.41)"/><linearGradient id="d" x1="7.937" x2="7.937" y1="15.081" y2="1.852" gradientTransform="translate(-2.286 -2.252)scale(4.0494)" gradientUnits="userSpaceOnUse"><stop offset="0" stop-color="#f1efeb"/><stop offset="1" stop-color="#fdfcfc"/></linearGradient><clipPath id="s"><path d="M0 0h192v152H0z"/></clipPath><clipPath id="p"><path d="M0 0h192v152H0z"/></clipPath><clipPath id="m"><path d="M0 0h192v152H0z"/></clipPath><clipPath id="j"><path d="M0 0h192v152H0z"/></clipPath><clipPath id="g"><path d="M0 0h192v152H0z"/></clipPath><clipPath id="e"><path d="M0 0h192v152H0z"/></clipPath><mask id="t"><g filter="url(#b)"><path fill-opacity=".236" d="M0 0h128v128H0z"/></g></mask><mask id="q"><g filter="url(#b)"><path fill-opacity=".236" d="M0 0h128v128H0z"/></g></mask><mask id="n"><g filter="url(#b)"><path fill-opacity=".236" d="M0 0h128v128H0z"/></g></mask><mask id="k"><g filter="url(#b)"><path fill-opacity=".236" d="M0 0h128v128H0z"/></g></mask><mask id="h"><g filter="url(#b)"><path fill-opacity=".236" d="M0 0h128v128H0z"/></g></mask><mask id="f"><g filter="url(#b)"><path fill-opacity=".02" d="M0 0h128v128H0z"/></g></mask><filter id="b" width="1" height="1" x="0" y="0"><feColorMatrix in="SourceGraphic" values="0 0 0 0 1 0 0 0 0 1 0 0 0 0 1 0 0 0 1 0"/></filter><filter id="c" width="1.054" height="1.054" x="-.027" y="-.027" color-interpolation-filters="sRGB"><feGaussianBlur stdDeviation=".675"/></filter></defs><rect width="60" height="60" x="2" y="3" filter="url(#c)" opacity=".15" rx="30" ry="30"/><rect width="60" height="60" x="2" y="2" fill="url(#d)" rx="30" ry="30"/><path fill="#241f31" d="M18 34a4 4 0 0 0-4 4v64a4 4 0 0 0 4 4h24a4 4 0 0 0 4-4V38a4 4 0 0 0-4-4zm38 0a4 4 0 0 0-3.418 2.016A4 4 0 0 0 56 42h54a4 4 0 0 0 0-8zm0 12a4 4 0 0 0-4 4v36a4 4 0 0 0 4 4h54a4 4 0 0 0 4-4V50a4 4 0 0 0-4-4zm-2 48a2 2 0 0 0-1.973 2A2 2 0 0 0 54 98h58a2 2 0 0 0 0-4zm0 8a2 2 0 0 0-1.973 2A2 2 0 0 0 54 106h58a2 2 0 0 0 0-4z" color="#000" style="-inkscape-stroke:none" transform="matrix(.46 0 0 .46 2.56 -.2)"/><g clip-path="url(#e)" mask="url(#f)" transform="matrix(.46 0 0 .46 -1.12 -7.56)"><path fill="#2e3436" d="M184 16h-16v16h16z"/></g><g clip-path="url(#g)" mask="url(#h)" transform="matrix(.46 0 0 .46 -1.12 -7.56)"><path fill="none" stroke="#4fd2fd" stroke-miterlimit="10" stroke-width="2.308" d="M54.308 243.08h20.769l5.77-13.27 3.46 22.5 4.616-9.23h20.77" transform="matrix(.975 0 0 .98939 11.05 -154.32)"/></g><path fill="none" stroke="url(#i)" stroke-linecap="round" stroke-miterlimit="10" stroke-width="2.267" d="M57.527 70.176H76.25l5.625-13.129 3.375 22.262 4.5-9.133h3.375" transform="matrix(.46 0 0 .46 2.56 -.2)"/><g clip-path="url(#j)" mask="url(#k)" transform="matrix(.46 0 0 .46 -1.12 -7.56)"><path fill="none" stroke="#4fd2fd" stroke-miterlimit="10" stroke-width=".98" d="M19.764 219.53h8.817l2.449-5.634 1.47 9.55 1.959-3.916h8.816" transform="matrix(1.0208 0 0 .9305 5.825 -141.41)"/></g><path fill="none" stroke="url(#l)" stroke-linecap="round" stroke-miterlimit="10" stroke-width=".955" d="M20.043 46.871H27l2.5-5.242 1.5 8.886 2-3.644h1.5" transform="matrix(.46 0 0 .46 2.56 -.2)"/><g clip-path="url(#m)" mask="url(#n)" transform="matrix(.46 0 0 .46 -1.12 -7.56)"><path fill="none" stroke="#4fd2fd" stroke-miterlimit="10" stroke-width=".98" d="M19.764 219.53h8.817l2.449-5.634 1.47 9.55 1.959-3.916h8.816" transform="matrix(1.0208 0 0 .9305 5.825 -125.41)"/></g><path fill="none" stroke="url(#o)" stroke-linecap="round" stroke-miterlimit="10" stroke-width=".955" d="M20.043 62.871H27l2.5-5.242 1.5 8.886 2-3.644h1.5" transform="matrix(.46 0 0 .46 2.56 -.2)"/><g clip-path="url(#p)" mask="url(#q)" transform="matrix(.46 0 0 .46 -1.12 -7.56)"><path fill="none" stroke="#4fd2fd" stroke-miterlimit="10" stroke-width=".98" d="M19.764 219.53h8.817l2.449-5.634 1.47 9.55 1.959-3.916h8.816" transform="matrix(1.0208 0 0 .9305 5.825 -109.41)"/></g><path fill="none" stroke="url(#r)" stroke-linecap="round" stroke-miterlimit="10" stroke-width=".955" d="M20.043 78.871H27l2.5-5.242 1.5 8.886 2-3.644h1.5" transform="matrix(.46 0 0 .46 2.56 -.2)"/><g clip-path="url(#s)" mask="url(#t)" transform="matrix(.46 0 0 .46 -1.12 -7.56)"><path fill="none" stroke="#4fd2fd" stroke-miterlimit="10" stroke-width=".98" d="M19.764 219.53h8.817l2.449-5.634 1.47 9.55 1.959-3.916h8.816" transform="matrix(1.0208 0 0 .9305 5.825 -93.406)"/></g><path fill="none" stroke="url(#u)" stroke-linecap="round" stroke-miterlimit="10" stroke-width=".955" d="M20.043 94.871H27l2.5-5.242 1.5 8.886 2-3.644h1.5" transform="matrix(.46 0 0 .46 2.56 -.2)"/></svg>