<?xml version="1.0" encoding="UTF-8"?>
<svg width="64" height="64" version="1.1" viewBox="0 0 64 64" xmlns="http://www.w3.org/2000/svg" xmlns:xlink="http://www.w3.org/1999/xlink">
 <defs>
  <linearGradient id="k" x1="36.418" x2="21.723" y1="218.4" y2="218.4" gradientTransform="matrix(1.0208 0 0 .9305 -2.1752 -109.41)" xlink:href="#g"/>
  <linearGradient id="g" gradientUnits="userSpaceOnUse">
   <stop stop-color="#4fd2fd" offset="0"/>
   <stop stop-color="#4fd2fd" stop-opacity="0" offset="1"/>
  </linearGradient>
  <clipPath id="q">
   <rect width="192" height="152"/>
  </clipPath>
  <mask id="p">
   <g filter="url(#b)">
    <rect width="128" height="128" fill-opacity=".236"/>
   </g>
  </mask>
  <filter id="b" x="0" y="0" width="1" height="1">
   <feColorMatrix in="SourceGraphic" values="0 0 0 0 1 0 0 0 0 1 0 0 0 0 1 0 0 0 1 0"/>
  </filter>
  <clipPath id="o">
   <rect width="192" height="152"/>
  </clipPath>
  <mask id="n">
   <g filter="url(#b)">
    <rect width="128" height="128" fill-opacity=".236"/>
   </g>
  </mask>
  <clipPath id="m">
   <rect width="192" height="152"/>
  </clipPath>
  <mask id="l">
   <g filter="url(#b)">
    <rect width="128" height="128" fill-opacity=".236"/>
   </g>
  </mask>
  <clipPath id="j">
   <rect width="192" height="152"/>
  </clipPath>
  <mask id="i">
   <g filter="url(#b)">
    <rect width="128" height="128" fill-opacity=".236"/>
   </g>
  </mask>
  <linearGradient id="h" x1="93.539" x2="58.923" y1="240.42" y2="240.42" gradientTransform="matrix(.975 0 0 .98939 3.05 -170.32)" xlink:href="#g"/>
  <clipPath id="f">
   <rect width="192" height="152"/>
  </clipPath>
  <mask id="e">
   <g filter="url(#b)">
    <rect width="128" height="128" fill-opacity=".236"/>
   </g>
  </mask>
  <clipPath id="d">
   <rect width="192" height="152"/>
  </clipPath>
  <mask id="c">
   <g filter="url(#b)">
    <rect width="128" height="128" fill-opacity=".02"/>
   </g>
  </mask>
  <linearGradient id="linearGradient1" x1="36.418" x2="21.723" y1="218.4" y2="218.4" gradientTransform="matrix(1.0208 0 0 .9305 -2.1752 -157.41)" xlink:href="#g"/>
  <linearGradient id="linearGradient2" x1="36.418" x2="21.723" y1="218.4" y2="218.4" gradientTransform="matrix(1.0208 0 0 .9305 -2.1752 -141.41)" xlink:href="#g"/>
  <linearGradient id="linearGradient3" x1="36.418" x2="21.723" y1="218.4" y2="218.4" gradientTransform="matrix(1.0208 0 0 .9305 -2.1752 -125.41)" xlink:href="#g"/>
  <linearGradient id="linearGradient862-3-3" x1="7.9373" x2="7.9373" y1="15.081" y2="1.852" gradientTransform="matrix(4.0494,0,0,4.0494,-2.2856,-2.2519)" gradientUnits="userSpaceOnUse">
   <stop stop-color="#f1efeb" offset="0"/>
   <stop stop-color="#fdfcfc" offset="1"/>
  </linearGradient>
  <filter id="filter7" x="-.027" y="-.027" width="1.054" height="1.054" color-interpolation-filters="sRGB">
   <feGaussianBlur stdDeviation="0.675"/>
  </filter>
 </defs>
 <rect x="2" y="3" width="60" height="60" rx="30" ry="30" filter="url(#filter7)" opacity=".15"/>
 <rect x="2" y="2" width="60" height="60" rx="30" ry="30" fill="url(#linearGradient862-3-3)" stroke-width="4.0494"/>
 <g transform="matrix(.46 0 0 .46 2.56 -.2)">
  <path d="m18 34a4.0004 4.0004 0 0 0-4 4v64a4.0004 4.0004 0 0 0 4 4h24a4.0004 4.0004 0 0 0 4-4v-64a4.0004 4.0004 0 0 0-4-4zm38 0a4.0004 4.0004 0 0 0-3.418 2.0156 4.0004 4.0004 0 0 0 3.418 5.9844h54a4.0004 4.0004 0 0 0 0-8zm0 12a4.0004 4.0004 0 0 0-4 4v36a4.0004 4.0004 0 0 0 4 4h54a4.0004 4.0004 0 0 0 4-4v-36a4.0004 4.0004 0 0 0-4-4zm-2 48a2.0002 2.0002 0 0 0-1.9727 2 2.0002 2.0002 0 0 0 1.9727 2h58a2.0002 2.0002 0 0 0 0-4zm0 8a2.0002 2.0002 0 0 0-1.9727 2 2.0002 2.0002 0 0 0 1.9727 2h58a2.0002 2.0002 0 0 0 0-4z" color="#000000" fill="#241f31" stroke-linejoin="round" style="-inkscape-stroke:none"/>
  <g transform="translate(-8,-16)" clip-path="url(#d)" mask="url(#c)">
   <path d="m184 16h-16v16h16z" fill="#2e3436"/>
  </g>
  <g transform="translate(-8,-16)" clip-path="url(#f)" mask="url(#e)">
   <path transform="matrix(.975 0 0 .98939 11.05 -154.32)" d="m54.308 243.08h20.769l5.7692-13.27 3.4615 22.5 4.6154-9.2308h20.769" fill="none" stroke="#4fd2fd" stroke-miterlimit="10" stroke-width="2.3077"/>
  </g>
  <path d="m57.527 70.176h18.723l5.625-13.129 3.375 22.262 4.5-9.1328h3.375" fill="none" stroke="url(#h)" stroke-linecap="round" stroke-miterlimit="10" stroke-width="2.2665"/>
  <g transform="translate(-8,-16)" clip-path="url(#j)" mask="url(#i)">
   <path transform="matrix(1.0208 0 0 .9305 5.8248 -141.41)" d="m19.764 219.53h8.8167l2.4491-5.6337 1.4694 9.5505 1.9593-3.9168h8.8167" fill="none" stroke="#4fd2fd" stroke-miterlimit="10" stroke-width=".97963"/>
  </g>
  <path d="m20.043 46.871h6.957l2.5-5.2422 1.5 8.8867 2-3.6445h1.5" fill="none" stroke="url(#linearGradient1)" stroke-linecap="round" stroke-miterlimit="10" stroke-width=".95475"/>
  <g transform="translate(-8,-16)" clip-path="url(#m)" mask="url(#l)">
   <path transform="matrix(1.0208 0 0 .9305 5.8248 -125.41)" d="m19.764 219.53h8.8167l2.4491-5.6337 1.4694 9.5505 1.9593-3.9168h8.8167" fill="none" stroke="#4fd2fd" stroke-miterlimit="10" stroke-width=".97963"/>
  </g>
  <path d="m20.043 62.871h6.957l2.5-5.2422 1.5 8.8867 2-3.6445h1.5" fill="none" stroke="url(#linearGradient2)" stroke-linecap="round" stroke-miterlimit="10" stroke-width=".95475"/>
  <g transform="translate(-8,-16)" clip-path="url(#o)" mask="url(#n)">
   <path transform="matrix(1.0208 0 0 .9305 5.8248 -109.41)" d="m19.764 219.53h8.8167l2.4491-5.6337 1.4694 9.5505 1.9593-3.9168h8.8167" fill="none" stroke="#4fd2fd" stroke-miterlimit="10" stroke-width=".97963"/>
  </g>
  <path d="m20.043 78.871h6.957l2.5-5.2422 1.5 8.8867 2-3.6445h1.5" fill="none" stroke="url(#linearGradient3)" stroke-linecap="round" stroke-miterlimit="10" stroke-width=".95475"/>
  <g transform="translate(-8,-16)" clip-path="url(#q)" mask="url(#p)">
   <path transform="matrix(1.0208 0 0 .9305 5.8248 -93.406)" d="m19.764 219.53h8.8167l2.4491-5.6337 1.4694 9.5505 1.9593-3.9168h8.8167" fill="none" stroke="#4fd2fd" stroke-miterlimit="10" stroke-width=".97963"/>
  </g>
  <path d="m20.043 94.871h6.957l2.5-5.2422 1.5 8.8867 2-3.6445h1.5" fill="none" stroke="url(#k)" stroke-linecap="round" stroke-miterlimit="10" stroke-width=".95475"/>
 </g>
</svg>
