<svg xmlns="http://www.w3.org/2000/svg" width="64" height="64"><defs><linearGradient id="g" x1=".187" x2=".19" y1=".005" y2=".999" gradientTransform="translate(45.999 38.925)scale(3.0429)" gradientUnits="userSpaceOnUse"><stop offset="0" stop-color="#07b3ff"/><stop offset="1" stop-color="#007de8"/></linearGradient><linearGradient id="f" x1=".187" x2=".19" y1=".005" y2=".999" gradientTransform="translate(45.999 23.71)scale(3.0429)" gradientUnits="userSpaceOnUse"><stop offset="0" stop-color="#07b3ff"/><stop offset="1" stop-color="#007de8"/></linearGradient><linearGradient id="e" x1=".187" x2=".19" y1=".005" y2=".999" gradientTransform="matrix(7.1001 0 0 26.372 37.885 19.653)" gradientUnits="userSpaceOnUse"><stop offset="0" stop-color="#07b3ff"/><stop offset="1" stop-color="#007de8"/></linearGradient><linearGradient id="d" x1=".187" x2=".19" y1=".005" y2=".999" gradientTransform="matrix(7.1001 0 0 26.372 16.585 19.653)" gradientUnits="userSpaceOnUse"><stop offset="0" stop-color="#07b3ff"/><stop offset="1" stop-color="#007de8"/></linearGradient><linearGradient id="b" x1="32.02" x2="32.02" y1="2.043" y2="62.045" gradientTransform="matrix(244.65 0 0 228.34 152.66 -113.65)" gradientUnits="userSpaceOnUse"><stop offset="0" stop-color="#eceef0"/><stop offset="1" stop-color="#f4f6f8"/></linearGradient><filter id="a" width="1.072" height="1.072" x="-.036" y="-.036" color-interpolation-filters="sRGB"><feGaussianBlur stdDeviation=".42"/></filter><filter id="c" width="1.109" height="1.134" x="-.054" y="-.067" color-interpolation-filters="sRGB"><feGaussianBlur stdDeviation=".735"/></filter></defs><circle cx="400.57" cy="531.8" r="14" filter="url(#a)" opacity=".25" transform="translate(-826.36 -1107.5)scale(2.1429)"/><g stroke-width="1.571"><circle cx="32.02" cy="32.044" r="30.001" fill="url(#b)"/><circle cx="32.02" cy="32.044" r="30.001" fill="none"/></g><g stroke-width=".942" filter="url(#c)" opacity=".25" transform="translate(-2.609 -2.866)scale(1.0617)"><path d="M19.628 42.982V22.696h4.057v-3.043h-7.1v26.372h7.1v-3.043zm22.314 0V22.696h-4.057v-3.043h7.1v26.372h-7.1v-3.043zM23.741 25.087l2.728-1.339 7.1 14.505-2.728 1.339z" style="isolation:isolate"/><path d="m36.42 24.002 2.931.842a88 88 0 0 1-.973 3.175 114 114 0 0 1-2.445 6.988 72 72 0 0 1-1.582 3.773 35 35 0 0 1-1.735 3.348 13 13 0 0 1-1.937 2.576c-.345.355-.74.66-1.177.903a3.2 3.2 0 0 1-1.521.415h-1.258V42.98h1.197q.045 0 .091-.03a2.2 2.2 0 0 0 .497-.376 9.7 9.7 0 0 0 1.471-1.968 30 30 0 0 0 1.592-3.083 59 59 0 0 0 1.522-3.611 106 106 0 0 0 2.384-6.816 84 84 0 0 0 .943-3.094m12.622 1.23a1.522 1.522 0 1 1-3.043 0 1.522 1.522 0 0 1 3.043 0m0 15.214a1.521 1.521 0 1 1-3.043 0 1.521 1.521 0 0 1 3.043 0" style="isolation:isolate"/></g><g stroke-width=".942"><path fill="url(#d)" d="M19.628 42.982V22.696h4.057v-3.043h-7.1v26.372h7.1v-3.043z" style="isolation:isolate" transform="translate(-2.609 -2.866)scale(1.0617)"/><path fill="url(#e)" d="M41.942 42.982V22.696h-4.057v-3.043h7.1v26.372h-7.1v-3.043z" style="isolation:isolate" transform="translate(-2.609 -2.866)scale(1.0617)"/><path fill="#3e424d" d="m23.741 25.087 2.728-1.339 7.1 14.505-2.728 1.339z" style="isolation:isolate" transform="translate(-2.609 -2.866)scale(1.0617)"/><path fill="#3e424d" d="m36.42 24.002 2.931.842a88 88 0 0 1-.973 3.175 114 114 0 0 1-2.445 6.988 72 72 0 0 1-1.582 3.773 35 35 0 0 1-1.735 3.348 13 13 0 0 1-1.937 2.576c-.345.355-.74.66-1.177.903a3.2 3.2 0 0 1-1.521.415h-1.258V42.98h1.197q.045 0 .091-.03a2.2 2.2 0 0 0 .497-.376 9.7 9.7 0 0 0 1.471-1.968 30 30 0 0 0 1.592-3.083 59 59 0 0 0 1.522-3.611 106 106 0 0 0 2.384-6.816 84 84 0 0 0 .943-3.094" style="isolation:isolate" transform="translate(-2.609 -2.866)scale(1.0617)"/><path fill="url(#f)" d="M49.042 25.232a1.522 1.522 0 1 1-3.043 0 1.522 1.522 0 0 1 3.043 0" style="isolation:isolate" transform="translate(-2.609 -2.866)scale(1.0617)"/><path fill="url(#g)" d="M49.042 40.446a1.521 1.521 0 1 1-3.043 0 1.521 1.521 0 0 1 3.043 0" style="isolation:isolate" transform="translate(-2.609 -2.866)scale(1.0617)"/></g></svg>