<svg xmlns="http://www.w3.org/2000/svg" width="64" height="64"><defs><linearGradient id="e" x1="-350.66" x2="-376.36" y1="-73.891" y2="-319.06" gradientUnits="userSpaceOnUse"><stop offset="0" stop-color="#83a3d4"/><stop offset="1" stop-color="#6bb5e3"/></linearGradient><linearGradient id="f" x1="-206.77" x2="10.512" y1="-12.925" y2="-156.89" gradientUnits="userSpaceOnUse"><stop offset="0" stop-color="#70c2bd"/><stop offset="1" stop-color="#67c381"/></linearGradient><linearGradient id="g" x1="134.57" x2="148.51" y1="117.3" y2="-149.19" gradientUnits="userSpaceOnUse"><stop offset="0" stop-color="#faaa32"/><stop offset="1" stop-color="#fdc22b"/></linearGradient><linearGradient id="h" x1="-146.05" x2="123.36" y1="144.9" y2="144.9" gradientUnits="userSpaceOnUse"><stop offset="0" stop-color="#a0cf63"/><stop offset="1" stop-color="#c4da45"/></linearGradient><linearGradient id="i" x1="206.71" x2="28.495" y1="-12.741" y2="-150.01" gradientUnits="userSpaceOnUse"><stop offset="0" stop-color="#b28cc0"/><stop offset="1" stop-color="#9a8ec4"/></linearGradient><linearGradient id="j" x1="189.94" x2="-19.618" y1="147.05" y2="76.406" gradientUnits="userSpaceOnUse"><stop offset="0" stop-color="#f48155"/><stop offset="1" stop-color="#f16168"/></linearGradient><linearGradient id="k" x1="116.5" x2="21.156" y1="308.3" y2="34.18" gradientUnits="userSpaceOnUse"><stop offset="0" stop-color="#735194"/><stop offset="1" stop-color="#525da3"/></linearGradient><linearGradient id="l" x1="30.131" x2="123.33" y1="111.5" y2="-107.17" gradientUnits="userSpaceOnUse"><stop offset="0" stop-color="#416db9"/><stop offset="1" stop-color="#337e8d"/></linearGradient><linearGradient id="m" x1="-103.67" x2="205.55" y1="133.12" y2=".072" gradientUnits="userSpaceOnUse"><stop offset="0" stop-color="#2e9274"/><stop offset="1" stop-color="#469d3c"/></linearGradient><linearGradient id="n" x1="26.978" x2="146.81" y1="120.23" y2="-100.49" gradientUnits="userSpaceOnUse"><stop offset="0" stop-color="#ec4001"/><stop offset="1" stop-color="#fb6f01"/></linearGradient><linearGradient id="o" x1="-14.299" x2="309.4" y1="73.5" y2="73.5" gradientUnits="userSpaceOnUse"><stop offset="0" stop-color="#58a920"/><stop offset="1" stop-color="#98b811"/></linearGradient><linearGradient id="p" x1="-123.12" x2="145.99" y1="144.9" y2="144.9" gradientUnits="userSpaceOnUse"><stop offset="0" stop-color="#d287af"/><stop offset="1" stop-color="#e07993"/></linearGradient><linearGradient id="q" x1="-205.78" x2="117.82" y1="-71.696" y2="-71.696" gradientUnits="userSpaceOnUse"><stop offset="0" stop-color="#bd090f"/><stop offset="1" stop-color="#e11f07"/></linearGradient><linearGradient id="r" x1=".176" x2="-308.72" y1="-14.583" y2="-143.71" gradientUnits="userSpaceOnUse"><stop offset="0" stop-color="#c23857"/><stop offset="1" stop-color="#914475"/></linearGradient><linearGradient id="s" x1="41.41" x2="117.32" y1="108.53" y2="319.11" gradientUnits="userSpaceOnUse"><stop offset="0" stop-color="#e69e08"/><stop offset="1" stop-color="#cbc507"/></linearGradient><linearGradient id="b" x1="66.918" x2="67.497" y1="8.777" y2="129.11" gradientTransform="translate(1.568 .921)scale(.44703)" gradientUnits="userSpaceOnUse"><stop offset="0" stop-color="#f6f6f6"/><stop offset="1" stop-color="#e7e9e8"/></linearGradient><filter id="d" width="1.024" height="1.024" x="-.012" y="-.012" color-interpolation-filters="sRGB"><feGaussianBlur stdDeviation=".475"/></filter><filter id="a" width="1.072" height="1.072" x="-.036" y="-.036" color-interpolation-filters="sRGB"><feGaussianBlur stdDeviation="2.013"/></filter><filter id="c" width="1.12" height="1.12" x="-.06" y="-.06" color-interpolation-filters="sRGB"><feGaussianBlur stdDeviation="2.883"/></filter></defs><circle cx="26.576" cy="42.034" r="67.11" filter="url(#a)" opacity=".25" transform="translate(20.12 13.21)scale(.44703)"/><circle cx="32" cy="32" r="30" fill="url(#b)"/><g fill-rule="evenodd" stroke-width="2.237" filter="url(#c)" opacity=".15" transform="translate(1.568 .921)scale(.44703)"><g fill-opacity=".503" filter="url(#d)" transform="matrix(1.2135 0 0 -1.2135 5.735 133.11)"><path d="m65.827 36.554-.121.083c.134.093.082.21.054.335-.59 2.618-1.787 4.916-3.626 6.872-2.167 2.306-4.808 3.77-7.912 4.396l-.05.043c-.104.534-.094 1.088-.283 1.607l.085.174 1.325 1.005.126-.014c.395-.242.777-.507 1.186-.723 3.001-1.587 6.177-2.082 9.524-1.515 2.033.344 3.904 1.076 5.603 2.246h.173c4.507-3.828 8.413-8.272 12.67-12.356.645-.62 1.264-1.265 1.774-2.004.03-.043.047-.094.07-.142a7.7 7.7 0 0 0-1.69-.213c-5.578-.005-11.156-.011-16.734.006-.725.002-1.45.13-2.174.2M47.242 50.967l.191.004c.498-.199.824-.644 1.285-.895.089-.612-.092-1.201-.152-1.8a.3.3 0 0 1-.062-.035c-3.198-.644-5.9-2.176-8.088-4.59-1.808-1.997-2.996-4.32-3.488-6.984a.5.5 0 0 0-.029-.096c-6.332-.5-12.675-.106-19.012-.215a5.4 5.4 0 0 0-1.582.21 8 8 0 0 0 1.096 1.375c3.892 3.893 7.781 7.789 11.683 11.672.415.412.901.754 1.364 1.116.155.121.339.206.358.434l.228-.005c-.034-.159.081-.218.188-.286 2.857-1.806 5.993-2.525 9.334-2.24 2.41.204 4.643 1.027 6.687 2.335"/><path d="M36.928 36.667c.386 2.751 1.608 5.145 3.417 7.143 2.187 2.414 5.029 3.83 8.228 4.475-.202-1.542-.836-3.008-1.594-4.342-2.238-4.122-6.084-7.028-10.089-7.37m14.526 10.501c.477-.874 1.017-1.716 1.373-2.652 1.794-4.71 1.627-9.287-1.02-13.586-.046-.075-.317-.314-.36-.392-.998 1.27-1.608 2.962-2.013 4.5-1.117 4.24-.505 8.228 1.853 11.937.036.058.05.13.075.196l.046.001z"/><path d="M48.566 48.275c.06.6.241 1.189.152 1.8l.04.01h.04c.444-.566 1.082-.953 1.46-1.579zm2.85-1.201-.046.004h-.046c-.223.534-.71.885-.971 1.394a6.9 6.9 0 0 0 2.037.003c-.257-.514-.755-.86-.974-1.401m2.806 1.166c3.104-.626 5.744-2.09 7.912-4.396 1.839-1.956 3.12-4.223 3.71-6.84.028-.126.115-.375-.019-.468-5.644 1.082-10.527 5.907-11.601 11.49-.014.069-.002.142-.002.214m-1.75.265c.4.536.83 1.04 1.417 1.385.189-.52.18-1.074.282-1.608-.566.08-1.144.062-1.699.223m2.966 2.7c1.618 1.174 3.429 1.73 5.375 2.087 3.159.577 6.27.219 9.182-1.174.638-.3 1.398-.58 1.93-1.043-1.698-1.17-3.757-1.914-5.79-2.258-3.347-.567-6.523-.072-9.524 1.515-.409.216-.933.503-1.327.745m-8.024-.26c-2.044-1.309-4.294-2.106-6.704-2.311-3.8-.371-7.491.655-9.81 2.64 4.987 3.207 13.06 3.409 16.673-.179"/></g><path d="M110.76 87.183c1.252 1.894 2.27 3.896 2.802 6.12 2.394 10.002-3.691 19.541-13.302 21.755-5.069 1.168-9.757.228-14.093-2.6-.109-.07-.219-.137-.352-.22-.259.332-.229.738-.314 1.096-1.7 7.135-7.357 12.42-14.576 13.599-9.537 1.558-18.512-4.698-20.409-14.224-.033-.17-.077-.338-.116-.507l.029-.14c.185-.023.299-.161.436-.266 1.849-1.418 3.403-3.147 5.033-4.793 3.707-3.742 7.534-7.367 11.124-11.226.397-.426.628-.987 1.115-1.336.553.803 1.137 1.588 1.824 2.277 4.55 4.57 9.107 9.133 13.687 13.674.602.597 1.224 1.21 2.04 1.619.229-.916.286-1.805.29-2.68q.039-9.446 0-18.89a15 15 0 0 0-.362-3.276c.88.084 1.759.24 2.639.242 6.769.02 13.537.014 20.307.008.69 0 1.375-.106 2.05-.26z"/><path d="M110.76 87.183c1.252 1.894 2.27 3.896 2.802 6.12 2.394 10.002-3.691 19.541-13.302 21.755-5.069 1.168-9.757.228-14.093-2.6-.109-.07-.219-.137-.352-.22-.259.332-.229.738-.314 1.096l.188-1.323c.228-.915.285-1.805.289-2.68q.039-9.446 0-18.89a15 15 0 0 0-.362-3.276c.88.084 1.759.24 2.639.242 6.769.02 13.537.014 20.307.008.69 0 1.375-.106 2.05-.259l.148.028M50.393 26.907c.705-3.899 2.391-7.31 5.311-9.997 5.11-4.705 11.113-6.202 17.732-4.112 6.617 2.09 10.639 6.76 12.178 13.54l.128.572c.082.901.232 1.802.235 2.704.02 6.417.024 12.835-.003 19.251a13 13 0 0 1-.359 3.077l-.298.134c-3.655.814-6.792 2.554-9.347 5.297-2.31 2.48-3.829 5.378-4.44 8.73a.13.13 0 0 0-.072.05c-.687.097-1.299.328-1.986.425-.857.034-1.791.006-2.645-.171.582-.805 1.23-1.571 1.736-2.421 2.043-3.435 2.891-7.138 2.47-11.138-.432-4.101-2.088-7.628-4.956-10.545-4.487-4.567-9.04-9.069-13.578-13.586-.627-.624-1.296-1.212-2.074-1.656l-.032-.155m60.367 60.277-.148-.028c-.028-.058-.049-.12-.084-.172-.62-.897-1.37-1.68-2.154-2.432-5.166-4.955-9.905-10.348-15.374-14.993.701-.71 1.576-1.208 2.282-1.917q6.715-6.737 13.453-13.453a16.4 16.4 0 0 0 1.882-2.228l.167-.017c3.419.525 6.407 1.983 8.974 4.27 3.265 2.91 5.24 6.558 5.833 10.89 1.293 9.447-4.958 18.005-14.001 19.925-.276.058-.554.104-.83.155"/><path d="m110.78 51.943-.167.017a9.8 9.8 0 0 0-2.18-.263c-6.683-.004-13.367-.012-20.051.009-.923.002-1.846.154-2.768.237a13 13 0 0 0 .358-3.076c.027-6.418.024-12.835.004-19.253-.003-.902-.154-1.803-.236-2.704 2.406-1.618 5.005-2.738 7.898-3.138 4.725-.652 9.061.368 12.936 3.123 3.98 2.831 6.441 6.708 7.26 11.524.801 4.705-.176 9.084-2.824 13.072-.095.142-.242.255-.23.451M25.364 87.181l.156-.032a6.6 6.6 0 0 0 1.92.254c7.69-.132 15.386.346 23.07-.261-.212 1.235-.363 2.476-.363 3.732-.002 5.51.006 11.021-.006 16.532-.003 1.56.032 3.114.285 4.656l-.03.14c-2.224 1.483-4.61 2.59-7.265 3.032-5.622.935-10.647-.404-14.965-4.123-3.485-3-5.494-6.858-6.012-11.42-.496-4.36.523-8.397 2.959-12.063.094-.142.168-.298.251-.447m.161-35.217-.177-.022q-.453-.783-.91-1.563a17.16 17.16 0 0 1-2.406-8.942c.057-8.957 6.405-16.158 14.884-17.604 4.691-.8 9.052.18 13.033 2.806.144.095.296.178.444.267l.032.155c-.091.837-.258 1.673-.26 2.51-.022 6.44-.027 12.882.004 19.323.005 1.027.083 2.069.38 3.072-.882-.09-1.763-.254-2.644-.257-6.776-.021-13.551-.015-20.327-.006-.69 0-1.378.09-2.052.261"/><path d="M50.426 112.06c-.253-1.542-.288-3.096-.285-4.656.012-5.51.004-11.022.006-16.532 0-1.256.151-2.497.364-3.732a.6.6 0 0 0 .035-.116c.217.005.425-.023.64-.077 5.102-1.268 8.962-4.19 11.556-8.752.92-1.619 1.607-3.345 1.85-5.216a.4.4 0 0 1 .076-.041l2.053-.28q.06.01.115.041c.317.617.908 1.043 1.179 1.693-.03.08-.047.167-.092.238-2.86 4.5-3.604 9.34-2.248 14.485.492 1.866 1.232 3.64 2.442 5.181l.017.142c-.486.35-.718.91-1.115 1.337-3.59 3.86-7.416 7.484-11.124 11.226-1.63 1.645-3.184 3.375-5.033 4.793-.137.104-.25.243-.436.266"/><path d="m68.135 94.441-.018-.142c.053-.094.103-.19.16-.283 3.211-5.216 3.693-10.685 1.516-16.399-.433-1.136-1.088-2.157-1.666-3.218.265-.656.87-1.076 1.182-1.7a.3.3 0 0 1 .1-.037c.673.195 1.374.174 2.06.27q.033.026.063.053c0 .086-.014.175.002.259 1.303 6.775 7.084 12.506 13.933 13.82l.147.1c.247 1.079.358 2.18.362 3.276q.038 9.446 0 18.891c-.004.875-.062 1.765-.29 2.68-.816-.408-1.439-1.022-2.04-1.619-4.58-4.54-9.138-9.104-13.688-13.674-.686-.689-1.27-1.474-1.823-2.277"/><path d="m85.614 87.164-.147-.1c.163-.114.1-.256.066-.407-.715-3.177-2.169-5.966-4.4-8.339-2.63-2.798-5.835-4.574-9.601-5.334l-.062-.052c-.125-.648-.113-1.32-.342-1.95l.103-.212 1.607-1.22.154.018c.479.294.943.615 1.439.877 3.641 1.926 7.495 2.526 11.557 1.839 2.466-.418 4.737-1.306 6.798-2.725h.21c5.47 4.644 10.209 10.037 15.374 14.993.784.752 1.534 1.534 2.154 2.431.036.052.057.115.085.172-.675.154-1.36.259-2.05.26-6.77.006-13.538.012-20.307-.008-.88-.003-1.76-.158-2.638-.243M50.548 51.966c-.296-1.003-.374-2.045-.38-3.072-.03-6.44-.025-12.882-.004-19.323.003-.837.17-1.673.26-2.51.778.445 1.448 1.033 2.074 1.657 4.538 4.517 9.091 9.019 13.578 13.585 2.868 2.918 4.524 6.444 4.956 10.546.421 4-.427 7.703-2.47 11.137-.506.85-1.154 1.617-1.736 2.421a.4.4 0 0 1-.108.04l-2.088-.28c-.034-.235-.052-.473-.104-.704a17.34 17.34 0 0 0-3.846-7.569c-1.702-1.968-3.74-3.525-6.135-4.606-1.292-.583-2.641-.954-3.997-1.322"/><path d="m72.992 69.567-.153-.017c-.493-.425-.99-.844-1.547-1.187-.142-.751.152-1.47.166-2.21a.13.13 0 0 1 .072-.049c3.005-.623 5.707-1.883 8.047-3.878 3.035-2.588 5.021-5.816 5.904-9.715.046-.203.14-.382-.164-.433l.299-.135c.922-.083 1.845-.235 2.768-.238 6.684-.02 13.367-.012 20.052-.008a9.8 9.8 0 0 1 2.18.263c-.56.801-1.19 1.538-1.883 2.228-4.49 4.478-8.977 8.96-13.453 13.453-.706.709-1.58 1.208-2.282 1.917h-.21c-.647-.561-1.417-.917-2.176-1.28-3.534-1.69-7.248-2.126-11.081-1.425-2.362.432-4.575 1.29-6.539 2.714"/><path d="M85.242 51.917c.304.052.446-.08.4.122-.604 3.985-3.03 7.6-6.065 10.187-2.34 1.995-5.042 3.255-8.047 3.879.611-3.352 2.13-6.25 4.44-8.73 2.555-2.744 5.853-4.956 9.508-5.769M71.191 68.377c-.538-.699-1.317-1.174-1.795-1.93l2.062-.293c-.014.74-.309 1.458-.166 2.21a.5.5 0 0 1-.101.013M25.364 87.181c-7.136-1.034-13.157-6.818-14.609-14.034-1.832-9.104 3.439-17.961 12.313-20.69.747-.23 1.501-.426 2.28-.516l.177.023c.41.64.888 1.224 1.425 1.76 4.692 4.692 9.382 9.386 14.079 14.071a11 11 0 0 0 2.087 1.64c-.024.277-.247.38-.435.527-.561.44-1.152.854-1.655 1.354-4.734 4.712-9.453 9.44-14.176 14.163a9.5 9.5 0 0 0-1.33 1.669l-.156.032"/><path d="M50.548 51.956c1.356.371 2.706.746 3.997 1.333 2.395 1.09 4.433 2.66 6.135 4.645a17.54 17.54 0 0 1 3.846 7.633c.052.232.07.473.104.71.109.77.376 1.528.167 2.322-.563.324-1.131.642-1.504 1.208l-.232.005c-.1-.457-.535-.536-.85-.726-2.354-1.422-4.936-2.126-7.644-2.416a5.76 5.76 0 0 0-2.717 0c-.938.155-1.881.265-2.81.478-2.032.465-3.875 1.36-5.647 2.43l-.277-.005a11 11 0 0 1-2.087-1.654c-4.697-4.725-9.387-9.458-14.078-14.189a10.6 10.6 0 0 1-1.425-1.775 8.3 8.3 0 0 1 2.052-.264c6.776-.009 13.551-.015 20.327.007.881.003 1.762.168 2.643.258"/><path d="m63.062 69.674.232-.005c.604.242 1 .782 1.56 1.086.107.743-.113 1.458-.185 2.185a.4.4 0 0 0-.075.042c-3.882.781-7.161 2.64-9.814 5.57-2.196 2.423-3.636 5.243-4.233 8.474a.6.6 0 0 1-.035.116c-7.684.607-15.382.13-23.07.261a6.5 6.5 0 0 1-1.92-.254 9.6 9.6 0 0 1 1.33-1.67c4.722-4.723 9.441-9.45 14.177-14.162.503-.5 1.093-.914 1.654-1.354.188-.147.411-.25.435-.526l.277.005c-.042.193.098.265.228.347 3.467 2.192 7.272 3.064 11.326 2.72 2.925-.249 5.634-1.248 8.114-2.835"/><path d="M50.546 87.026c.468-3.338 1.952-6.244 4.147-8.667 2.653-2.93 6.102-4.65 9.983-5.43-.244 1.87-1.014 3.65-1.934 5.268-2.716 5.002-7.383 8.528-12.242 8.943m17.627-12.742c.578 1.061 1.234 2.082 1.666 3.218 2.177 5.714 1.974 11.27-1.237 16.486-.057.092-.386.381-.438.475-1.21-1.54-1.95-3.593-2.442-5.46-1.356-5.145-.612-9.984 2.248-14.485.044-.07.062-.158.091-.238l.056-.001z"/><path d="M64.668 72.94c.073-.727.292-1.442.185-2.185l.047-.012h.05c.538.688 1.312 1.156 1.771 1.917zm3.459 1.458-.056-.005-.056.001c-.27-.65-.862-1.075-1.178-1.692a8.3 8.3 0 0 1 2.472-.004c-.312.624-.917 1.044-1.182 1.7m3.405-1.415c3.766.76 6.97 2.536 9.601 5.334 2.231 2.373 3.787 5.125 4.502 8.301.034.152.14.455-.023.568-6.85-1.314-12.774-7.169-14.078-13.943-.016-.084-.002-.173-.002-.26m-2.124-.322c.485-.65 1.008-1.262 1.72-1.68.229.63.217 1.302.342 1.95-.687-.096-1.389-.075-2.062-.27m3.6-3.276c1.964-1.425 4.16-2.1 6.523-2.532 3.832-.7 7.607-.266 11.14 1.424.775.363 1.697.705 2.343 1.265-2.06 1.42-4.56 2.324-7.025 2.741-4.062.688-7.916.087-11.558-1.838a32 32 0 0 1-1.61-.905"/><path d="M71.191 68.377a.5.5 0 0 0 .1-.014c.557.343 1.054.762 1.547 1.187l-1.607 1.22c-.177-.795-.111-1.594-.04-2.393m-6.393.094c.209-.787-.166-1.947-.275-2.711.696.093 1.5.595 2.196.688-.372.585-.892 1.035-1.395 1.497-.177.162-.357.306-.374.566z"/><path d="m64.798 68.471.152.04c.09.744.074 1.488 0 2.232h-.05l-.047.012c-.56-.304-.955-.845-1.56-1.086.374-.561.942-.876 1.505-1.198m-1.715 1.385c-2.48 1.588-5.21 2.556-8.134 2.804-4.61.45-9.09-.794-11.904-3.202 6.051-3.893 15.847-4.138 20.232.216m1.094-3.789c.304-.051.21-.23.164-.433-.883-3.899-2.87-7.128-5.904-9.715-2.34-1.995-5.095-3.172-8.1-3.795.611 3.352 2.184 6.166 4.494 8.646 2.554 2.744 5.69 4.484 9.346 5.297m4.081-20.836c.578 1.021 1.234 2.005 1.666 3.098 2.177 5.502 1.696 10.767-1.516 15.788-.057.09-.107.182-.16.273-1.209-1.483-1.95-3.192-2.441-4.99-1.356-4.952-.643-9.641 2.218-13.975.044-.067.076-.13.122-.198l.055-.002z"/><path d="M85.647 26.704c.25 1.566.285 3.144.282 4.727-.012 5.596-.004 11.192-.006 16.787 0 1.275.248 2.493-.274 3.693-5.122.954-10.15 5.607-12.19 9.179-.911 1.644-1.678 3.12-1.92 5.019-.023.017.013 0-.013.012-.677.125-.577.117-.826.174-.134-.004-1.24.245-1.213.299-.511-.914-.695-1.356-1.087-2.408 2.83-4.57 3.498-8.96 2.156-14.183-.564-1.874-1.436-3.76-2.24-4.927.195-.389.297-.515.976-1.712 2.783-4.362 7.273-7.723 10.943-11.523 1.613-1.67 3.15-3.426 4.98-4.866.136-.106.248-.247.432-.27"/></g><g fill-rule="evenodd" stroke-width="2.237"><g fill-opacity=".503" filter="url(#d)" transform="matrix(.54247 0 0 -.54247 4.132 60.425)"><path d="m65.827 36.554-.121.083c.134.093.082.21.054.335-.59 2.618-1.787 4.916-3.626 6.872-2.167 2.306-4.808 3.77-7.912 4.396l-.05.043c-.104.534-.094 1.088-.283 1.607l.085.174 1.325 1.005.126-.014c.395-.242.777-.507 1.186-.723 3.001-1.587 6.177-2.082 9.524-1.515 2.033.344 3.904 1.076 5.603 2.246h.173c4.507-3.828 8.413-8.272 12.67-12.356.645-.62 1.264-1.265 1.774-2.004.03-.043.047-.094.07-.142a7.7 7.7 0 0 0-1.69-.213c-5.578-.005-11.156-.011-16.734.006-.725.002-1.45.13-2.174.2M47.242 50.967l.191.004c.498-.199.824-.644 1.285-.895.089-.612-.092-1.201-.152-1.8a.3.3 0 0 1-.062-.035c-3.198-.644-5.9-2.176-8.088-4.59-1.808-1.997-2.996-4.32-3.488-6.984a.5.5 0 0 0-.029-.096c-6.332-.5-12.675-.106-19.012-.215a5.4 5.4 0 0 0-1.582.21 8 8 0 0 0 1.096 1.375c3.892 3.893 7.781 7.789 11.683 11.672.415.412.901.754 1.364 1.116.155.121.339.206.358.434l.228-.005c-.034-.159.081-.218.188-.286 2.857-1.806 5.993-2.525 9.334-2.24 2.41.204 4.643 1.027 6.687 2.335"/><path d="M36.928 36.667c.386 2.751 1.608 5.145 3.417 7.143 2.187 2.414 5.029 3.83 8.228 4.475-.202-1.542-.836-3.008-1.594-4.342-2.238-4.122-6.084-7.028-10.089-7.37m14.526 10.501c.477-.874 1.017-1.716 1.373-2.652 1.794-4.71 1.627-9.287-1.02-13.586-.046-.075-.317-.314-.36-.392-.998 1.27-1.608 2.962-2.013 4.5-1.117 4.24-.505 8.228 1.853 11.937.036.058.05.13.075.196l.046.001z"/><path d="M48.566 48.275c.06.6.241 1.189.152 1.8l.04.01h.04c.444-.566 1.082-.953 1.46-1.579zm2.85-1.201-.046.004h-.046c-.223.534-.71.885-.971 1.394a6.9 6.9 0 0 0 2.037.003c-.257-.514-.755-.86-.974-1.401m2.806 1.166c3.104-.626 5.744-2.09 7.912-4.396 1.839-1.956 3.12-4.223 3.71-6.84.028-.126.115-.375-.019-.468-5.644 1.082-10.527 5.907-11.601 11.49-.014.069-.002.142-.002.214m-1.75.265c.4.536.83 1.04 1.417 1.385.189-.52.18-1.074.282-1.608-.566.08-1.144.062-1.699.223m2.966 2.7c1.618 1.174 3.429 1.73 5.375 2.087 3.159.577 6.27.219 9.182-1.174.638-.3 1.398-.58 1.93-1.043-1.698-1.17-3.757-1.914-5.79-2.258-3.347-.567-6.523-.072-9.524 1.515-.409.216-.933.503-1.327.745m-8.024-.26c-2.044-1.309-4.294-2.106-6.704-2.311-3.8-.371-7.491.655-9.81 2.64 4.987 3.207 13.06 3.409 16.673-.179"/></g><path fill="url(#e)" d="M0 0c10.295-15.579 18.663-32.038 23.041-50.329 19.689-82.256-30.355-160.7-109.39-178.91-41.682-9.605-80.239-1.874-115.9 21.38-.889.579-1.797 1.129-2.89 1.814-2.131-2.732-1.883-6.067-2.585-9.016-13.98-58.674-60.496-102.13-119.87-111.83-78.422-12.813-152.23 38.631-167.83 116.97-.278 1.398-.639 2.781-.961 4.173l.24 1.145c1.526.193 2.461 1.332 3.585 2.195 15.205 11.657 27.985 25.882 41.39 39.412 30.49 30.775 61.957 60.584 91.48 92.319 3.265 3.509 5.169 8.123 9.174 10.991 4.545-6.605 9.352-13.058 14.994-18.726 37.42-37.583 74.897-75.111 112.56-112.45 4.952-4.909 10.069-9.956 16.783-13.315 1.876 7.529 2.35 14.846 2.38 22.041.209 51.783.221 103.57.007 155.35-.037 9.011-.943 18.074-2.981 26.938 7.233-.696 14.462-1.973 21.696-1.996 55.666-.168 111.33-.113 167-.061 5.68.004 11.306.867 16.856 2.129l1.219-.23" transform="matrix(.05436 0 0 -.05436 51.081 39.895)"/><path fill="url(#f)" d="M0 0c10.295-15.579 18.663-32.038 23.041-50.329 19.689-82.256-30.355-160.7-109.39-178.91-41.682-9.605-80.239-1.874-115.9 21.38-.889.579-1.797 1.129-2.89 1.814-2.131-2.732-1.883-6.067-2.585-9.016l1.544 10.882c1.876 7.529 2.35 14.846 2.38 22.041.209 51.783.221 103.57.007 155.35-.037 9.011-.943 18.074-2.981 26.938 7.233-.696 14.462-1.973 21.696-1.996 55.666-.168 111.33-.113 167-.061 5.68.004 11.306.867 16.856 2.129l1.219-.23" transform="matrix(.05436 0 0 -.05436 51.081 39.895)"/><path fill="url(#g)" d="M0 0c5.794 32.063 19.665 60.108 43.677 82.215 42.028 38.692 91.39 51.002 145.82 33.812 54.415-17.185 87.492-55.589 100.15-111.35.355-1.566.702-3.133 1.054-4.7.673-7.412 1.91-14.822 1.933-22.236.166-52.775.191-105.55-.026-158.32-.035-8.462-.883-16.993-2.953-25.299q-1.228-.553-2.452-1.108c-30.058-6.688-55.856-20.997-76.862-43.556-18.997-20.402-31.49-44.229-36.524-71.793a1.07 1.07 0 0 1-.588-.408c-5.649-.804-10.679-2.699-16.331-3.502-7.049-.275-14.73-.045-21.753 1.413 4.79 6.618 10.115 12.918 14.276 19.91 16.801 28.245 23.778 58.695 20.314 91.591-3.552 33.727-17.172 62.727-40.754 86.723-36.903 37.552-74.347 74.574-111.66 111.72C12.166-9.756 6.658-4.921.267-1.266L.002.008" transform="matrix(.05436 0 0 -.05436 24.095 12.95)"/><path fill="url(#h)" d="M0 0q-.609.113-1.218.23c-.227.474-.398.99-.694 1.416-5.098 7.378-11.27 13.812-17.713 19.995-42.481 40.754-81.453 85.106-126.43 123.3 5.768 5.833 12.959 9.935 18.77 15.767 36.808 36.944 73.702 73.803 110.63 110.63 5.695 5.679 10.885 11.736 15.478 18.321l1.374.143c28.115-4.32 52.691-16.307 73.802-35.122 26.848-23.928 43.084-53.927 47.964-89.555 10.639-77.686-40.77-148.06-115.14-163.85C4.56.794 2.273.423-.002 0" transform="matrix(.05436 0 0 -.05436 51.081 39.895)"/><path fill="#efe129" d="m51.09 24.141-.074.008a4.4 4.4 0 0 0-.975-.118c-2.988-.002-5.975-.005-8.963.004-.413.001-.826.07-1.238.106a5.8 5.8 0 0 0 .16-1.375c.012-2.869.01-5.738.002-8.607-.001-.403-.069-.805-.105-1.208 1.075-.724 2.237-1.224 3.53-1.403 2.112-.292 4.05.164 5.783 1.396 1.78 1.266 2.88 2.999 3.246 5.151.358 2.104-.08 4.061-1.263 5.844-.042.063-.108.114-.103.202"/><path fill="url(#i)" d="m0 0 1.286.265a53.7 53.7 0 0 1 15.79-2.088C80.312-.741 143.606-4.672 206.796.322c-1.747-10.156-2.987-20.366-2.99-30.688-.016-45.32.052-90.64-.045-135.96-.028-12.825.262-25.604 2.342-38.287l-.24-1.146c-18.297-12.198-37.913-21.308-59.754-24.941-46.229-7.69-87.556 3.325-123.07 33.907-28.655 24.674-45.18 56.397-49.441 93.914-4.074 35.857 4.301 69.059 24.337 99.204C-1.289-2.508-.682-1.229.003-.001" transform="matrix(.05436 0 0 -.05436 12.907 39.894)"/><path fill="url(#j)" d="m0 0-1.458.185C-3.95 4.468-6.42 8.765-8.935 13.034-22.3 35.726-28.887 60.45-28.723 86.569c.465 73.662 52.668 132.88 122.4 144.77 38.576 6.579 74.443-1.486 107.18-23.074 1.184-.782 2.429-1.468 3.647-2.2q.133-.636.264-1.274c-.749-6.878-2.12-13.753-2.143-20.634-.176-52.968-.213-105.94.04-158.91.04-8.444.681-17.015 3.118-25.262-7.245.736-14.489 2.086-21.736 2.109-55.721.178-111.44.128-167.16.052A69 69 0 0 1 .009-.001" transform="matrix(.05436 0 0 -.05436 12.979 24.15)"/><path fill="url(#k)" d="M0 0c-2.079 12.684-2.369 25.462-2.342 38.287.097 45.319.029 90.64.045 135.96.003 10.322 1.244 20.532 2.993 30.688q.199.461.291.957c1.784-.049 3.495.189 5.26.628 41.963 10.43 73.701 34.46 95.035 71.975 7.571 13.313 13.214 27.508 15.222 42.892q.29.205.615.342l16.886 2.305q.498-.099.944-.345c2.605-5.074 7.47-8.575 9.695-13.917-.247-.655-.388-1.378-.755-1.956-23.521-37.014-29.636-76.805-18.485-119.12 4.045-15.351 10.131-29.945 20.078-42.614l.147-1.168c-4.004-2.868-5.909-7.482-9.174-10.991-29.523-31.736-60.99-61.544-91.48-92.32C31.57 28.073 18.79 13.849 3.585 2.191 2.461 1.329 1.526.189 0-.003" transform="matrix(.05436 0 0 -.05436 24.11 51.015)"/><path fill="url(#l)" d="M0 0q-.075.584-.146 1.168c.434.775.844 1.569 1.31 2.326 26.411 42.897 30.374 87.871 12.471 134.86-3.56 9.342-8.948 17.742-13.704 26.466 2.18 5.397 7.158 8.848 9.722 13.979q.379.235.819.302c5.538-1.604 11.307-1.43 16.952-2.223q.262-.207.512-.427c-.001-.713-.119-1.446.013-2.133 10.72-55.713 58.257-102.85 114.58-113.65l1.211-.83c2.037-8.864 2.944-17.927 2.981-26.939.214-51.784.202-103.57-.007-155.35-.03-7.195-.504-14.513-2.38-22.041-6.714 3.358-11.831 8.406-16.783 13.314C89.89-93.837 52.413-56.31 14.991-18.728 9.349-13.06 4.542-6.606-.003-.001" transform="matrix(.05436 0 0 -.05436 32.027 43.14)"/><path fill="url(#m)" d="m0 0-1.21.83c1.343.93.825 2.095.544 3.342C-6.549 30.293-18.5 53.231-36.848 72.745c-21.634 23.009-47.987 37.618-78.958 43.868q-.251.22-.508.428c-1.027 5.331-.93 10.858-2.814 16.039l.844 1.735 13.222 10.032 1.259-.141c3.939-2.418 7.757-5.062 11.835-7.218 29.949-15.832 61.64-20.773 95.046-15.119 20.279 3.434 38.956 10.737 55.906 22.412h1.728c44.979-38.192 83.951-82.545 126.43-123.3 6.443-6.182 12.615-12.616 17.712-19.994.296-.426.467-.942.695-1.416-5.551-1.262-11.177-2.125-16.858-2.13-55.666-.051-111.33-.106-167 .062-7.233.022-14.463 1.3-21.695 1.996" transform="matrix(.05436 0 0 -.05436 39.84 39.886)"/><path fill="url(#n)" d="M0 0c-2.437 8.247-3.078 16.818-3.119 25.261-.252 52.968-.215 105.94-.04 158.91.024 6.88 1.395 13.755 2.143 20.634 6.393-3.655 11.901-8.49 17.056-13.622 37.315-37.145 74.759-74.167 111.66-111.72 23.582-23.996 37.202-52.995 40.754-86.722 3.463-32.896-3.513-63.346-20.314-91.591-4.161-6.992-9.486-13.293-14.276-19.91a3.4 3.4 0 0 0-.89-.334l-17.172 2.312c-.279 1.929-.423 3.889-.855 5.783-5.341 23.385-16.021 44.203-31.624 62.247-13.999 16.186-30.76 28.993-50.456 37.881C22.247-6.078 11.15-3.024-.003.003" transform="matrix(.05436 0 0 -.05436 24.165 24.152)"/><path fill="url(#o)" d="m0 0-1.26.141c-4.053 3.496-8.146 6.943-12.719 9.762-1.173 6.178 1.252 12.087 1.362 18.168q.226.304.594.405c24.713 5.127 46.929 15.487 66.177 31.898 24.954 21.275 41.293 47.829 48.553 79.893.378 1.669 1.155 3.138-1.347 3.561l2.453 1.108c7.589.681 15.175 1.928 22.766 1.952 54.965.169 109.93.105 164.9.069 6.044-.004 12.025-.813 17.922-2.164-4.593-6.586-9.784-12.644-15.479-18.322-36.928-36.826-73.821-73.685-110.63-110.63-5.81-5.831-13.002-9.933-18.769-15.766l-1.732.001c-5.313 4.612-11.652 7.543-17.893 10.528-29.063 13.902-59.603 17.478-91.123 11.714C34.351 18.766 16.152 11.715.004 0" transform="matrix(.05436 0 0 -.05436 34.198 32.02)"/><path fill="#528000" d="M39.674 24.13c.136.023.2-.037.179.054-.27 1.782-1.355 3.398-2.712 4.554-1.046.892-2.254 1.455-3.597 1.734.274-1.499.953-2.794 1.985-3.903 1.142-1.226 2.616-2.215 4.25-2.578"/><path fill="#c1dc73" d="M33.393 31.488c-.241-.313-.589-.525-.803-.863l.922-.131c-.006.33-.138.652-.074.988a.2.2 0 0 1-.045.006"/><path fill="url(#p)" d="M0 0c-58.688 8.507-108.2 56.069-120.14 115.41-15.065 74.87 28.28 147.71 101.26 170.15 6.138 1.887 12.346 3.5 18.748 4.239l1.457-.184c3.37-5.259 7.303-10.069 11.717-14.483 38.584-38.581 77.155-77.176 115.78-115.71 5.169-5.157 10.893-9.689 17.161-13.488-.193-2.277-2.028-3.118-3.575-4.329-4.615-3.616-9.47-7.022-13.605-11.137-38.936-38.747-77.745-77.624-116.58-116.47A78.5 78.5 0 0 1 1.288.271L.001.006" transform="matrix(.05436 0 0 -.05436 12.907 39.894)"/><path fill="url(#q)" d="M0 0c11.153-3.027 22.25-6.081 32.87-10.874 19.696-8.888 36.457-21.695 50.456-37.881 15.603-18.044 26.283-38.862 31.624-62.247.432-1.894.576-3.854.854-5.784.897-6.283 3.094-12.471 1.378-18.944-4.633-2.644-9.306-5.238-12.372-9.849l-1.907-.042c-.826 3.731-4.397 4.371-6.99 5.924-19.36 11.597-40.593 17.332-62.864 19.701q-11.174 2.65-22.345-.001c-7.711-1.26-15.469-2.161-23.113-3.897-16.704-3.791-31.861-11.094-46.431-19.823q-1.139.023-2.276.048c-6.269 3.799-11.994 8.332-17.162 13.488-38.63 38.536-77.201 77.131-115.78 115.71-4.414 4.414-8.347 9.223-11.717 14.483a69 69 0 0 0 16.879 2.147c55.722.075 111.44.126 167.16-.052C-14.489 2.083-7.246.733 0-.002" transform="matrix(.05436 0 0 -.05481 24.165 24.147)"/><path fill="url(#r)" d="M0 0q.954.022 1.909.04c4.966-1.986 8.217-6.431 12.822-8.933.886-6.106-.922-11.986-1.519-17.967a3.2 3.2 0 0 1-.615-.341c-31.921-6.426-58.889-21.717-80.709-45.807-18.052-19.931-29.898-43.117-34.807-69.689a4.5 4.5 0 0 0-.291-.957c-63.191-4.993-126.49-1.063-189.72-2.145a53.7 53.7 0 0 0-15.791 2.088 78.6 78.6 0 0 0 10.936 13.728c38.841 38.845 77.649 77.722 116.59 116.47 4.135 4.116 8.99 7.522 13.604 11.137 1.548 1.211 3.383 2.053 3.575 4.329l2.278-.048c-.34-1.585.808-2.178 1.874-2.852 28.512-18.025 59.806-25.195 93.149-22.363C-42.667-21.267-20.39-13.054.005.001" transform="matrix(.05436 0 0 -.05436 29.759 32.068)"/><path fill="#4a1235" d="M24.164 39.824c.21-1.492.872-2.79 1.854-3.874 1.186-1.31 2.727-2.078 4.462-2.428-.109.837-.453 1.632-.864 2.356-1.214 2.235-3.3 3.812-5.473 3.997"/><path fill="#232160" d="M32.023 34.18c.259.474.551.93.745 1.438.973 2.554.882 5.038-.553 7.37-.026.04-.173.17-.196.212-.541-.689-.872-1.606-1.092-2.441-.606-2.3-.273-4.463 1.005-6.475.02-.032.028-.07.041-.107h.025z"/><path fill="#aa81b8" d="M30.477 33.528c.032-.326.13-.645.082-.977l.022-.006h.022c.24.308.586.517.792.857z"/><path fill="#57afc9" d="m32.023 34.18-.025-.003h-.025c-.12-.29-.385-.48-.527-.756a3.7 3.7 0 0 1 1.106-.002c-.14.28-.41.467-.529.76"/><path fill="#0c4120" d="M33.545 33.547a7.9 7.9 0 0 1 4.292 2.384c.998 1.061 1.693 2.291 2.013 3.711.015.068.062.203-.01.254-3.063-.587-5.711-3.205-6.294-6.233-.007-.037 0-.077 0-.116"/><path fill="#57afc9" d="M32.596 33.403c.217-.29.45-.564.768-.751.103.281.098.582.153.872-.307-.043-.62-.034-.921-.121"/><path fill="#0a4f09" d="M34.205 31.938c.878-.637 1.86-.938 2.916-1.132 1.713-.313 3.4-.118 4.98.637.346.162.759.315 1.047.566-.92.634-2.038 1.038-3.14 1.225-1.816.307-3.539.039-5.167-.822a14 14 0 0 1-.72-.404"/><path fill="#a5d27d" d="M33.393 31.488a.2.2 0 0 0 .045-.006c.248.153.47.34.691.53l-.719.545c-.078-.355-.05-.712-.017-1.07"/><path fill="#ed7985" d="M30.535 31.53c.093-.352-.074-.87-.123-1.212.311.042.67.266.981.308-.166.261-.398.462-.623.668-.079.073-.16.137-.167.254z"/><path fill="#ed5e88" d="m30.535 31.53.068.018c.04.332.033.665 0 .998h-.022l-.022.005c-.25-.136-.427-.378-.697-.486.167-.25.421-.392.673-.535"/><path fill="#7e0804" d="M29.768 32.149a7.94 7.94 0 0 1-3.636 1.253c-2.061.202-4.064-.355-5.321-1.431 2.705-1.74 7.084-1.85 9.044.096"/><path fill="#ab0100" d="M30.344 30.374c.136-.023.094-.103.073-.194-.394-1.743-1.283-3.186-2.64-4.343-1.045-.892-2.277-1.418-3.62-1.696.273 1.498.976 2.756 2.009 3.865 1.142 1.226 2.544 2.004 4.178 2.368"/><path fill="#a24e00" d="M32.168 21.06c.259.456.552.896.745 1.384.973 2.46.758 4.813-.678 7.058q-.037.06-.07.122c-.542-.663-.872-1.427-1.092-2.23-.607-2.215-.288-4.31.99-6.248.02-.03.035-.058.055-.089h.025z"/><path fill="url(#s)" d="M0 0c-2.079 12.684-2.369 25.462-2.342 38.287.097 45.319.029 90.64.045 135.96.003 10.322-2.054 20.185 2.28 29.906 42.559 7.725 84.351 45.415 101.3 74.342 7.571 13.313 13.939 25.266 15.947 40.65.193.136-.106.005.11.096 5.63 1.014 4.798.954 6.866 1.415 1.112-.039 10.298 1.98 10.082 2.419 4.247-7.404 5.777-10.983 9.029-19.504-23.521-37.014-29.063-72.56-17.912-114.87 4.685-15.18 11.932-30.46 18.615-39.9-1.623-3.15-2.474-4.177-8.113-13.871-23.129-35.324-60.442-62.546-90.932-93.322C31.57 28.078 18.79 13.854 3.585 2.196 2.461 1.334 1.526.194 0 .002" transform="matrix(-.0538 0 0 .0552 39.855 12.859)"/></g></svg>