<svg width="64" height="64" version="1.1" xmlns="http://www.w3.org/2000/svg">
 <defs>
  <linearGradient id="linearGradient9107" x1="30.162" x2="30.162" y1="15.183" y2="51.373" gradientUnits="userSpaceOnUse">
   <stop stop-color="#4b5f6b" offset="0"/>
   <stop stop-color="#25353b" offset="1"/>
  </linearGradient>
  <linearGradient id="linearGradient9115" x1="30.017" x2="30.017" y1="15.777" y2="52.186" gradientUnits="userSpaceOnUse">
   <stop stop-color="#2dcc6b" offset="0"/>
   <stop stop-color="#3f8500" offset="1"/>
  </linearGradient>
  <linearGradient id="linearGradient10850" x1="34.354" x2="48.009" y1="16.09" y2="51.238" gradientUnits="userSpaceOnUse">
   <stop stop-color="#ffb217" offset="0"/>
   <stop stop-color="#ffff1a" offset="1"/>
  </linearGradient>
  <linearGradient id="linearGradient934" x1="32.358" x2="45.573" y1="48.341" y2="24.123" gradientUnits="userSpaceOnUse">
   <stop stop-color="#eab100" offset="0"/>
   <stop stop-color="#ea9b00" offset="1"/>
  </linearGradient>
  <filter id="filter994" x="-.18171" y="-.12342" width="1.3634" height="1.2468" color-interpolation-filters="sRGB">
   <feGaussianBlur stdDeviation="2.1599277"/>
  </filter>
  <filter id="filter1002" x="-.147" y="-.147" width="1.294" height="1.294" color-interpolation-filters="sRGB">
   <feGaussianBlur stdDeviation="2.45"/>
  </filter>
  <linearGradient id="b" x1="33.27" x2="33.27" y1="5.514" y2="62.082" gradientTransform="matrix(1.0607,0,0,1.0607,-3.288,-3.848)" gradientUnits="userSpaceOnUse">
   <stop stop-color="#eee" offset="0"/>
   <stop stop-color="#fbfbf5" offset="1"/>
  </linearGradient>
  <filter id="a" x="-.035999" y="-.035999" width="1.072" height="1.072" color-interpolation-filters="sRGB">
   <feGaussianBlur stdDeviation="14.17"/>
  </filter>
 </defs>
 <path transform="matrix(.06351 0 0 .06351 -.544 -.493)" d="m970.43 391.52a515 515 0 0 0-3.653-13.61c-1-3.403-2.001-6.855-3.152-10.508a421.48 421.48 0 0 0-5.304-15.862c-6.455-18.263-14.16-36.076-23.167-53.689a475.42 475.42 0 0 0-12.309-22.416c-20.315-34.525-45.833-67.249-76.406-97.821-72.653-72.653-157.26-116.74-253.84-132.15a484.05 484.05 0 0 0-50.087-5.354c-9.707-0.55-19.865-0.85-30.122-0.85-9.357 0-18.614 0.25-27.92 0.75-118.44 6.105-220.46 51.988-306.07 137.6q-138.35 138.35-138.35 333.99c0 130.45 46.134 241.83 138.35 334.04 56.741 56.691 120.64 95.97 191.24 117.64 36.777 11.258 74.855 17.863 114.83 19.965h0.4c8.507 0.45 16.612 0.7 24.518 0.7h3.003a583.3 583.3 0 0 0 30.122-0.8c2.501-0.15 4.753-0.3 6.955-0.45 20.215-1.451 39.929-4.053 58.743-7.706a519.82 519.82 0 0 0 23.417-5.154c80.859-20.315 152.26-61.645 214.81-124.19 48.636-48.636 84.462-102.57 107.43-161.92 18.463-47.685 28.67-98.872 30.572-153.61 0.2-6.054 0.3-12.259 0.3-18.514v-3.001c-0.2-40.68-4.954-79.558-14.31-117.09z" filter="url(#a)" opacity=".25"/>
 <circle cx="32" cy="32" r="30" fill="url(#b)" fill-rule="evenodd" style="paint-order:normal"/>
 <rect width="64" height="64" rx="0" ry="0" fill="none" style="paint-order:stroke fill markers"/>
 <g transform="translate(.94161 -1.4576)">
  <circle cx="30.813" cy="34.458" r="20" fill="#000000" filter="url(#filter1002)" opacity=".15"/>
  <circle cx="30.813" cy="33.212" r="20" fill="url(#linearGradient9107)"/>
  <path d="m22.198 15.183a20 20 0 0 0-1.565 0.8398h0.205l0.104 0.334-0.295 0.2754 1.26 0.0352 0.193 0.4551-1.418-0.0528-0.07-0.3496-0.826-0.1797a20 20 0 0 0-0.846 0.6055h0.494v0.3301l-0.217 0.289h-1.035v-0.0429a20 20 0 0 0-6.2381 8.9262l0.1093 0.052v1.67l0.8379 1.436 0.6836 0.105 0.0879-0.492-0.8066-1.244-0.1563-1.211h0.4707l0.1992 1.246 1.1641 1.701-0.2988 0.549 0.7402 1.135 1.8379 0.457v-0.299l0.734 0.105-0.068 0.526 0.576 0.105 0.893 0.244 1.26 1.44 1.611 0.121 0.156 1.316-1.101 0.772-0.051 1.176-0.158 0.718 1.593 2 0.121 0.684s0.578 0.158 0.649 0.158c0.07 0 1.295 0.93 1.295 0.93v3.613l0.437 0.123-0.297 1.666 0.735 0.983-0.135 1.652 0.971 1.711 1.238 1.082a20 20 0 0 0 0.066 0.012l1.198 0.021 0.121-0.404-0.92-0.777 0.053-0.387 0.164-0.473 0.035-0.482-0.623-0.02-0.315-0.394 0.518-0.5 0.07-0.375-0.578-0.166 0.035-0.35 0.822-0.125 1.252-0.603 0.42-0.772 1.313-1.683-0.297-1.317 0.402-0.701 1.207 0.037 0.813-0.646 0.264-2.541 0.9-1.147 0.158-0.738-0.822-0.264-0.543-0.891-1.856-0.019-1.47-0.563-0.069-1.05-0.492-0.86-1.33-0.019-0.767-1.209-0.684-0.334-0.035 0.367-1.242 0.074-0.456-0.635-1.294-0.263-1.069 1.236-1.679-0.285-0.124-1.899-1.226-0.209 0.492-0.931-0.141-0.535-1.611 1.08-1.014-0.123-0.3609-0.795 0.2207-0.819 0.5582-1.031 1.288-0.652 2.484-2e-3 -6e-3 0.76 0.893 0.416-0.071-1.297 0.643-0.651 1.299-0.853 0.09-0.602 1.295-1.351 1.376-0.764-0.121-0.101 0.932-0.879 0.342 0.089 0.158 0.198 0.354-0.395 0.085-0.037-0.386-0.055-0.395-0.132v-0.379l0.209-0.17h0.459l0.211 0.092 0.182 0.369 0.224-0.033v-0.034l0.063 0.022 0.646-0.098 0.092-0.316 0.367 0.092v0.343l-0.34 0.235 0.051 0.375 1.168 0.361s2e-3 6e-3 4e-3 0.016l0.27-0.024 0.017-0.508-0.927-0.423-0.053-0.243 0.769-0.263 0.034-0.739-0.803-0.49-0.053-1.244-1.103 0.543h-0.403l0.106-0.9473-1.5-0.3555-0.621 0.4708v1.434l-1.118 0.355-0.447 0.936-0.486 0.078v-1.198l-1.049-0.144-0.525-0.342-0.211-0.7753 1.877-1.1016 0.918-0.2793 0.093 0.6172 0.512-0.0254 0.039-0.3105 0.535-0.0781 0.01-0.1075-0.23-0.0957-0.053-0.33 0.658-0.0547 0.396-0.416 0.022-0.0293 6e-3 0.0019 0.121-0.125 1.383-0.1758 0.611 0.5215-1.603 0.8555 2.041 0.4824 0.263-0.6836h0.893l0.314-0.5957-0.629-0.1582v-0.7539l-1.978-0.8789-1.365 0.1582-0.77 0.4043 0.053 0.9824-0.807-0.123-0.123-0.543 0.772-0.7031-1.401-0.0684-0.402 0.1211-0.174 0.4727 0.523 0.0898-0.103 0.5254-0.893 0.0527-0.138 0.3497-1.295 0.0371s-0.036-0.7364-0.088-0.7364c-0.052 1e-4 1.014-0.0175 1.014-0.0175l0.771-0.7559-0.42-0.2109-0.56 0.5449-0.928-0.0528zm21.681 2.9004-0.636 0.25-0.409 0.4453 0.094 0.5196 0.502 0.07 0.301 0.758 0.865-0.35 0.143 1.012h-0.26l-0.711-0.105-0.787 0.133-0.762 1.078-1.09 0.172-0.158 0.935 0.461 0.107-0.133 0.602-1.082-0.217-0.992 0.217-0.211 0.553 0.172 1.162 0.582 0.273 0.977-6e-3 0.66-0.058 0.201-0.527 1.031-1.342 0.68 0.138 0.668-0.605 0.125 0.473 1.644 1.113-0.201 0.269-0.742-0.039 0.285 0.405 0.457 0.099 0.533-0.222-0.011-0.645 0.238-0.119-0.191-0.203-1.098-0.613-0.287-0.815h0.912l0.291 0.289 0.785 0.68 0.033 0.82 0.815 0.867 0.302-1.189 0.563-0.309 0.105 0.973 0.551 0.605 0.256-4e-3a20 20 0 0 0-2.969-5.064l-1.326-0.012-0.09-0.3 0.789-0.403a20 20 0 0 0-1.875-1.8709zm-24.462 0.207c0.039 0 0 0.459 0 0.459l-1.038 0.0664-0.197-0.2363 0.735-0.211s0.46-0.0781 0.5-0.0781zm1.261 2.2359 0.498 0.12-0.172 0.67-0.539 0.171-0.34-0.699zm1.365 1.59h0.827v0.252h0.181v0.434h-1.259l-0.471-0.131 0.117-0.303zm1.233 0.186 0.433 0.394-0.433 0.106zm0.953 0.605 0.32 0.201-0.257 0.213-0.254-0.213zm-2.422 0.067h0.695l-0.892 1.248-0.367-0.198 0.078-0.525zm1.117 0h0.707v0.42l-0.314 0.203-0.393 0.074zm0.879 0.461h0.053l0.801 0.236v0.408h-0.67l-0.184-0.265zm-0.33 0.379v0.41l-0.301 0.302h-0.67l0.106-0.459 0.316-0.027 0.065-0.158zm20.82 1.738-2.363 0.183-0.732 0.395h-0.938l-0.461-0.047-1.138 0.635v1.193l-2.33 1.684 0.193 0.719h0.473l-0.123 0.683-0.332 0.123-0.02 1.789 2.014 2.297h0.875l0.054-0.139h1.575l0.453-0.421h0.894l0.488 0.492 1.333 0.138-0.176 1.774 1.476 2.613-0.777 1.49 0.053 0.702 0.611 0.613v1.687l0.805 1.084v0.739a20 20 0 0 0 4.613-12.766 20 20 0 0 0-0.85-5.713h-0.994l-1.023-0.764-1.076 0.106v0.658h-0.342l-0.367-0.264-1.868-0.474z" fill="url(#linearGradient9115)"/>
  <path d="m41.1 16.091c1.8567 7.5245 0.9294 14.276-2.0312 19.9-3.4615 6.5756-9.8295 11.727-18.369 14.449a20 20 0 0 0 8.9805 2.7148c6.4369-3.4229 11.525-8.3395 14.699-14.369 2.4776-4.7064 3.7295-10.051 3.623-15.752a20 20 0 0 0-6.9023-6.9434z" fill="url(#linearGradient934)"/>
  <path d="m30.058 13.458c-1.5594 0-3.0706 0.19557-4.5273 0.5332 4.6746 3.4044 9.8809 11.851 13.6 21.215 1.3423 3.3802 2.5164 6.8692 3.5195 10.252l-3.3926 0.66992a0.98904 1.3476 74.339 0 0-0.9082 0.48828 0.98904 1.3476 74.339 0 0-0.04492 1.2168l3.8965 3.6602 3.8965 3.6641a0.98904 1.3476 74.339 0 0 2.2852-0.45312l2.7773-4.9785 2.7793-4.9805a0.98904 1.3476 74.339 0 0-0.94531-1.2871 0.98904 1.3476 74.339 0 0-0.38867 0.0332l-4.0117 0.79297c-1.091-3.7008-2.3928-7.5312-3.8867-11.293-2.804-7.061-6.1412-14.03-10.316-19.059-1.3796-0.36365-2.7311-0.47461-4.3301-0.47461z" fill="#000000" filter="url(#filter994)" opacity=".15"/>
  <path d="m30.812 13.212c-1.5594 0-3.0706 0.19557-4.5273 0.5332 4.6746 3.4044 9.8809 11.851 13.6 21.215 1.3423 3.3802 2.5164 6.8692 3.5195 10.252l-3.3926 0.66992a0.98904 1.3476 74.339 0 0-0.9082 0.48828 0.98904 1.3476 74.339 0 0-0.044922 1.2168l3.8965 3.6602 3.8965 3.6641a0.98904 1.3476 74.339 0 0 2.2852-0.45312l2.7773-4.9785 2.7793-4.9805a0.98904 1.3476 74.339 0 0-0.94531-1.2871 0.98904 1.3476 74.339 0 0-0.38867 0.033203l-4.0117 0.79297c-1.091-3.7008-2.3928-7.5312-3.8867-11.293-2.804-7.061-6.1412-14.03-10.316-19.059-1.3796-0.36365-2.7311-0.47461-4.3301-0.47461h-0.001953z" fill="url(#linearGradient10850)"/>
 </g>
</svg>
