<svg width="64" height="64" version="1.1" viewBox="0 0 16.933 16.933" xmlns="http://www.w3.org/2000/svg">
 <defs>
  <linearGradient id="a" x1="8.4665" x2="8.4665" y1="280.6" y2="296.47" gradientTransform="translate(0,-280.07)" gradientUnits="userSpaceOnUse">
   <stop stop-color="#2c88f5" offset="0"/>
   <stop stop-color="#32b6ef" offset="1"/>
  </linearGradient>
  <filter id="c" x="-.056466" y="-.064006" width="1.1129" height="1.128" color-interpolation-filters="sRGB">
   <feGaussianBlur stdDeviation="0.1680803"/>
  </filter>
  <filter id="b" x="-.036" y="-.036" width="1.072" height="1.072" color-interpolation-filters="sRGB">
   <feGaussianBlur stdDeviation="0.23812032"/>
  </filter>
 </defs>
 <circle cx="8.4665" cy="8.46" r="7.9373" filter="url(#b)" opacity=".25"/>
 <circle cx="8.4665" cy="8.46" r="7.9373" fill="url(#a)"/>
 <g transform="matrix(.96429 0 0 .96429 -.7185 1.329)">
  <path d="m8.3772 0.61545a6.8879 6.8879 0 0 0-0.57399 0.126v2.072h-2.2971v-0.99165a6.8879 6.8879 0 0 0-0.57399 0.46082v0.53082h-0.53199a6.8879 6.8879 0 0 0-0.46316 0.57399h0.99515v2.296h-2.0696a6.8879 6.8879 0 0 0-0.12133 0.57399h2.191v2.296h-2.198a6.8879 6.8879 0 0 0 0.126 0.57399h2.072v2.2971h-0.99165a6.8879 6.8879 0 0 0 0.46082 0.57399h0.53082v0.53199a6.8879 6.8879 0 0 0 0.57399 0.46316v-0.99515h2.2971v2.0685a6.8879 6.8879 0 0 0 0.57399 0.1225v-2.191h2.2948v2.198a6.8879 6.8879 0 0 0 0.57399-0.126v-2.072h2.296v0.99165a6.8879 6.8879 0 0 0 0.57399-0.46082v-0.53082h0.53199a6.8879 6.8879 0 0 0 0.46316-0.57399h-0.99515v-2.2971h2.0685a6.8879 6.8879 0 0 0 0.12366-0.57399h-2.1921v-2.296h2.198a6.8879 6.8879 0 0 0-0.126-0.57399h-2.072v-2.296h0.99165a6.8879 6.8879 0 0 0-0.46082-0.57399h-0.53082v-0.53199a6.8879 6.8879 0 0 0-0.57399-0.46316v0.99515h-2.2948v-2.0696a6.8879 6.8879 0 0 0-0.57399-0.1225v2.1933h-2.296zm-2.8699 2.7719h2.2948v2.296h-2.296zm2.8699 0h2.2948v2.296h-2.2948zm2.8699 0h2.296v2.296h-2.296zm-5.7399 2.8699h2.2948v2.296h-2.296zm2.8699 0h2.2948v2.296h-2.2948zm2.8699 0h2.296v2.296h-2.296zm-5.7399 2.8699h2.2948v2.2971h-2.296zm2.8699 0h2.2948v2.2971h-2.2948zm2.8699 0h2.296v2.2971h-2.296z" fill="#fcfcfc" fill-opacity=".059" stroke-width="1.037"/>
  <path d="m9.5252-0.006375a7.4082 7.4082 0 0 0-7.4082 7.4082 7.4082 7.4082 0 0 0 7.4082 7.4082 7.4082 7.4082 0 0 0 7.4082-7.4082 7.4082 7.4082 0 0 0-7.4082-7.4082zm0 0.61832a6.7899 6.7899 0 0 1 6.7899 6.7899 6.7899 6.7899 0 0 1-6.7899 6.791 6.7899 6.7899 0 0 1-6.791-6.7899 6.7899 6.7899 0 0 1 6.7899-6.7922z" fill="#fff" opacity=".2" stroke-width="1.037"/>
  <path transform="matrix(1.1666 0 0 1.1666 -.35278 -2.468)" d="m9.157 5.317c-0.44 0.033-0.9 0.203-1.32 0.413 0.84 0 1.26 0.42 1.68 0.84l0.84 0.842v0.42l0.42 0.421 1.262-1.261-0.42-0.421h-0.42l-0.841-0.84c-0.34-0.34-0.76-0.446-1.201-0.414zm0.36 1.255-1.68 1.681h-0.42l-2.522 2.521 0.84 0.84 2.522-2.52v-0.42l1.68-1.682z" fill-rule="evenodd" filter="url(#c)" opacity=".15" stroke-width=".88891"/>
  <path d="m10.33 3.7351c-0.51332 0.038499-1.05 0.23683-1.54 0.48182 0.97998 0 1.47 0.48999 1.96 0.97998l0.97998 0.98231v0.48999l0.48999 0.49116 1.4723-1.4711-0.48999-0.49116h-0.48999l-0.98115-0.97998c-0.39666-0.39666-0.88665-0.52032-1.4011-0.48299zm0.41999 1.4641-1.96 1.9611h-0.48999l-2.9423 2.9411 0.97998 0.97998 2.9423-2.9399v-0.48999l1.96-1.9623z" fill="#fff" fill-rule="evenodd" stroke-width="1.037"/>
 </g>
</svg>
