<svg xmlns="http://www.w3.org/2000/svg" width="64" height="64"><defs><filter id="a" width="1.072" height="1.072" x="-.036" y="-.036" color-interpolation-filters="sRGB"><feGaussianBlur stdDeviation=".42"/></filter><filter id="c" width="1.12" height="1.12" x="-.06" y="-.06" color-interpolation-filters="sRGB"><feGaussianBlur stdDeviation=".8"/></filter><linearGradient id="b" x1="400.51" x2="400.7" y1="546.07" y2="517.77" gradientTransform="rotate(-90 64.136 -5.695)" gradientUnits="userSpaceOnUse"><stop offset="0" stop-color="#8ad86c"/><stop offset="1" stop-color="#69dd3c"/></linearGradient></defs><g stroke-width=".733" transform="translate(-826.35 -1107.53)scale(2.1429)"><circle cx="400.57" cy="531.8" r="14" filter="url(#a)" opacity=".25"/><circle cx="400.57" cy="531.8" r="14" fill="url(#b)"/><circle cx="400.57" cy="531.8" r="14" fill="none"/></g><path d="M48 18.633s-2.667 4.013-6.667 4.013c-3.73-.718-5.208-.109-5.333 0v16.147c-.178 3.402-2.964 6.813-7.115 8.38-5.266 1.99-10.834.26-12.443-3.88-1.615-4.13 1.333-9.14 6.604-11.13 4.079-1.536 7.823-1.156 10.287 1.156V17.303C38.667 13.751 43.625 18.58 48 18.637" filter="url(#c)" opacity=".25"/><path fill="#f9f9f9" d="M48 18.633s-2.667 4.013-6.667 4.013c-3.73-.718-5.208-.109-5.333 0v16.147c-.178 3.402-2.964 6.813-7.115 8.38-5.266 1.99-10.834.26-12.443-3.88-1.615-4.13 1.333-9.14 6.604-11.13 4.079-1.536 7.823-1.156 10.287 1.156V17.303C38.667 13.751 43.625 18.58 48 18.637"/></svg>