<?xml version="1.0" encoding="UTF-8"?>
<svg width="64" height="64" version="1.1" viewBox="0 0 64 64" xmlns="http://www.w3.org/2000/svg">
 <defs>
  <linearGradient id="linearGradient6" x1="29.245" x2="29.245" y1="8.5898" y2="57.073" gradientTransform="matrix(1.0714 0 0 1.0714 -2.2856 -2.2519)" gradientUnits="userSpaceOnUse">
   <stop stop-color="#e8fff2" offset="0"/>
   <stop stop-color="#bee1cc" offset="1"/>
  </linearGradient>
  <filter id="filter7" x="-.027" y="-.027" width="1.054" height="1.054" color-interpolation-filters="sRGB">
   <feGaussianBlur stdDeviation="0.675"/>
  </filter>
 </defs>
 <rect x="2" y="3" width="60" height="60" rx="30" ry="30" filter="url(#filter7)" opacity=".15"/>
 <rect x="2" y="2" width="60" height="60" rx="30" ry="30" fill="url(#linearGradient6)" stroke-width="4.0494"/>
 <g transform="matrix(1.3043 0 0 1.3043 .69565 .69565)">
  <path d="m15 13-4 4 10 10v10h6v-10l10-10-4-4-9 9z" fill="#4da3e5"/>
  <path d="m17.828 14c-0.25032 0-0.50155 0.0953-0.69336 0.28711l-4.8477 4.8477c-0.38362 0.38362-0.38362 1.0011 0 1.3848l0.69336 0.69336c0.38362 0.38362 1.0011 0.38362 1.3848 0l4.8477-4.8477c0.38362-0.38362 0.38362-1.0011 0-1.3848l-0.69336-0.69336c-0.19181-0.19181-0.44108-0.28711-0.69141-0.28711zm12.344 0c-0.25032 0-0.4996 0.0953-0.69141 0.28711l-0.69336 0.69336c-0.38362 0.38362-0.38362 1.0011 0 1.3848l4.8477 4.8477c0.38362 0.38362 1.0011 0.38362 1.3848 0l0.69336-0.69336c0.38362-0.38362 0.38362-1.0011 0-1.3848l-4.8477-4.8477c-0.19181-0.19181-0.44304-0.28711-0.69336-0.28711zm-10.172 18c-0.554 0-1 0.446-1 1v1c0 0.554 0.446 1 1 1h8c0.554 0 1-0.446 1-1v-1c0-0.554-0.446-1-1-1z" fill="#2086d5"/>
  <path d="m18 20v2.8281l0.70703-0.70703 1.4209 1.4209 1.4141-1.4141-1.4209-1.4209 0.70703-0.70703zm9.1719 0 0.70703 0.70703-1.4209 1.4209 1.4141 1.4141 1.4209-1.4209 0.70703 0.70703v-2.8281zm-3.1719 6-2 2h1v2h2v-2h1z" fill="#f9f9f9"/>
 </g>
</svg>
