<?xml version="1.0" encoding="UTF-8"?>
<svg width="64" height="64" version="1.1" xmlns="http://www.w3.org/2000/svg" xmlns:xlink="http://www.w3.org/1999/xlink">
 <defs>
  <linearGradient id="l" x1="30" x2="34" y1="32" y2="32" gradientUnits="userSpaceOnUse" xlink:href="#a"/>
  <linearGradient id="a">
   <stop stop-color="#20b2aa" offset="0"/>
   <stop stop-color="#00ff7f" offset="1"/>
  </linearGradient>
  <linearGradient id="h" x1="-32" x2="-16" y1="38.928" y2="38.928" gradientTransform="rotate(-75 .002 -9.705)" gradientUnits="userSpaceOnUse" xlink:href="#a"/>
  <linearGradient id="c" x1="7.937" x2="7.937" y1="15.081" y2="1.852" gradientTransform="matrix(4.0494 0 0 4.0494 -2.2856 -2.2523)" gradientUnits="userSpaceOnUse">
   <stop stop-color="#008b8b" offset="0"/>
   <stop stop-color="#3cb371" offset="1"/>
  </linearGradient>
  <filter id="i" x="-.17928" y="-.020024" width="1.3586" height="1.04" color-interpolation-filters="sRGB">
   <feGaussianBlur stdDeviation=".15"/>
  </filter>
  <filter id="j" x="-.035997" y="-.036006" width="1.072" height="1.072" color-interpolation-filters="sRGB">
   <feGaussianBlur stdDeviation=".244"/>
  </filter>
  <filter id="e" x="-.04263" y="-.042625" width="1.0853" height="1.0852" color-interpolation-filters="sRGB">
   <feGaussianBlur stdDeviation=".54"/>
  </filter>
  <filter id="k" x="-.048" y="-.048" width="1.096" height="1.096" color-interpolation-filters="sRGB">
   <feGaussianBlur stdDeviation=".12"/>
  </filter>
  <radialGradient id="d" cx="67.087" cy="5.308" r="17.059" gradientTransform="matrix(0 -1.4069 -1.4067 0 39.467 126.38)" gradientUnits="userSpaceOnUse">
   <stop stop-color="#fff" offset="0"/>
   <stop stop-color="#fff" offset=".75"/>
   <stop stop-color="#d7d7d7" offset="1"/>
  </radialGradient>
  <filter id="filter943" x="-.03888" y="-.03888" width="1.0778" height="1.0778" color-interpolation-filters="sRGB">
   <feGaussianBlur stdDeviation="0.972"/>
  </filter>
 </defs>
 <rect x="2" y="2" width="60" height="60" rx="30" ry="30" filter="url(#filter943)" opacity=".35" stroke-width="1.0714"/>
 <rect x="2" y="2" width="60" height="60" rx="30" ry="30" fill="url(#c)" stroke-width="1.0714"/>
 <path d="m32 8a23.997 24 0 1 0 0 48 23.997 24 0 1 0 0-48z" fill="none" filter="url(#e)" opacity=".15" stroke="#1e1e1e" stroke-width="1.5" style="mix-blend-mode:normal"/>
 <path d="m32 8a23.996 24 0 1 0 0 48 23.996 24 0 1 0 0-48z" fill="url(#d)"/>
 <path d="M36.144 16.546A16 16 0 0 1 47.457 27.86l-15.454 4.141z" fill="url(#h)"/>
 <path transform="rotate(-60 34.343 23.227) scale(.8)" d="M31.998 14.998A1.002 1.002 0 0 0 30.996 16a1.002 1.002 0 0 0 .004.07v15.916a1.002 1.002 0 0 0 1.002.99 1.002 1.002 0 0 0 1.002-1.001 1.002 1.002 0 0 0-.004-.07V16a1.002 1.002 0 0 0 0-.011 1.002 1.002 0 0 0-1.002-.99z" filter="url(#i)" opacity=".5"/>
 <path transform="rotate(-60 34.343 23.227) scale(.8)" d="m32.709 31.991 15.557 15.557-.71.707-15.558-15.557z" filter="url(#j)" opacity=".35"/>
 <path d="m35 32a3 3 0 0 1-3 3 3 3 0 0 1-3-3 3 3 0 0 1 3-3 3 3 0 0 1 3 3z" filter="url(#k)" opacity=".5"/>
 <g fill="#333">
  <path d="m32.276 31.505 17.002-4.556.205.775-17.002 4.556z"/>
  <path d="M20.219 25.201a.801.801 0 0 0 .293 1.095.801.801 0 0 0 .05.025l11.028 6.367a.801.801 0 0 0 1.086-.298.801.801 0 0 0-.293-1.095.801.801 0 0 0-.05-.026l-11.018-6.361a.801.801 0 0 0-.008-.005.801.801 0 0 0-1.087.298z"/>
  <g stroke-linecap="round" stroke-linejoin="round" stroke-width="4.125">
   <rect x="31.5" y="10" width="1" height="4" rx=".532" ry=".532"/>
   <rect x="31.5" y="50" width="1" height="4" rx=".532" ry=".532"/>
   <rect transform="rotate(30)" x="43.213" y="-10.287" width="1" height="4" rx=".532" ry=".532"/>
   <rect transform="rotate(30)" x="43.213" y="29.713" width="1" height="4" rx=".532" ry=".532"/>
   <rect transform="rotate(60)" x="43.213" y="-33.713" width="1" height="4" rx=".532" ry=".532"/>
   <rect transform="rotate(60)" x="43.213" y="6.287" width="1" height="4" rx=".532" ry=".532"/>
   <rect transform="rotate(90)" x="31.5" y="-54" width="1" height="4" rx=".532" ry=".532"/>
   <rect transform="rotate(90)" x="31.5" y="-14" width="1" height="4" rx=".532" ry=".532"/>
   <rect transform="rotate(120)" x="11.213" y="-65.713" width="1" height="4" rx=".532" ry=".532"/>
   <rect transform="rotate(120)" x="11.213" y="-25.713" width="1" height="4" rx=".532" ry=".532"/>
   <rect transform="rotate(150)" x="-12.213" y="-65.713" width="1" height="4" rx=".532" ry=".532"/>
   <rect transform="rotate(150)" x="-12.213" y="-25.713" width="1" height="4" rx=".532" ry=".532"/>
  </g>
 </g>
 <circle cx="32" cy="32" r="3" fill="#333"/>
 <circle cx="32" cy="32" r="2" fill="url(#l)"/>
</svg>
