<svg xmlns="http://www.w3.org/2000/svg" xmlns:xlink="http://www.w3.org/1999/xlink" width="64" height="64"><defs><linearGradient id="e" x2="0" y1="45" y2="13" gradientUnits="userSpaceOnUse"><stop offset="0" stop-color="#663579"/><stop offset="1" stop-color="#16a085"/></linearGradient><linearGradient id="a" x2="0" y1="14.849" y2="26.16" gradientUnits="userSpaceOnUse"><stop offset="0"/><stop offset="1" stop-opacity="0"/></linearGradient><linearGradient xlink:href="#a" id="m" x2="0" y1="31.885" y2="44.48" gradientUnits="userSpaceOnUse"/><linearGradient xlink:href="#a" id="j" x2="0" y1="36.77" y2="48.08" gradientUnits="userSpaceOnUse"/><linearGradient id="d" x2="0" y1="42.827" y2="4.113" gradientUnits="userSpaceOnUse"><stop offset="0" stop-color="#c6cdd1"/><stop offset="1" stop-color="#e0e5e7"/></linearGradient><linearGradient id="f" x1="8.213" x2="40.551" gradientUnits="userSpaceOnUse"><stop offset="0" stop-color="#1d1e1e"/><stop offset="1" stop-color="#2c2f32"/></linearGradient><linearGradient id="b" x1="7" x2="11" gradientTransform="translate(-21 -3)" gradientUnits="userSpaceOnUse"><stop offset="0" stop-color="#1d1e1e"/><stop offset="1" stop-color="#44484c"/></linearGradient><linearGradient xlink:href="#b" id="o" x1="23" x2="28" gradientTransform="translate(-45 6)" gradientUnits="userSpaceOnUse"/><linearGradient xlink:href="#b" id="l" x1="19" x2="25" gradientTransform="translate(-52 -8)" gradientUnits="userSpaceOnUse"/><linearGradient xlink:href="#b" id="p" x1="34" x2="42" gradientTransform="translate(-73 3)" gradientUnits="userSpaceOnUse"/><linearGradient xlink:href="#a" id="g" x2="0" y1="14.849" y2="26.16" gradientUnits="userSpaceOnUse"/><linearGradient xlink:href="#b" id="i" x1="7" x2="11" gradientTransform="translate(-21 -3)" gradientUnits="userSpaceOnUse"/><filter id="h" width="1.266" height="1.266" x="-.133" y="-.133" color-interpolation-filters="sRGB"><feGaussianBlur stdDeviation=".745"/></filter><filter id="n" width="1.266" height="1.266" x="-.133" y="-.133" color-interpolation-filters="sRGB"><feGaussianBlur stdDeviation=".745"/></filter><filter id="k" width="1.281" height="1.281" x="-.14" y="-.14" color-interpolation-filters="sRGB"><feGaussianBlur stdDeviation=".745"/></filter><filter id="c" width="1.072" height="1.072" x="-.036" y="-.036" color-interpolation-filters="sRGB"><feGaussianBlur stdDeviation=".6"/></filter></defs><g transform="matrix(1.5 0 0 1.5 -4 -4)"><circle cx="24" cy="24" r="20" filter="url(#c)" opacity=".25"/><circle cx="24" cy="24" r="20" fill="url(#d)"/><g fill-rule="evenodd" stroke-width=".667"><path fill="url(#e)" d="M8.235 11.732A20 20 0 0 0 4 24c0 11.05 8.954 20 20 20a20 20 0 0 0 16.552-8.778c-2.251-.027-16.706-.361-18.596-5.088-2.045-5.112 5.112-6.134 4.089-11.246-1.28-6.4-13.659-7.107-17.81-7.157"/><path fill="url(#f)" d="m8.234 11.732-.021.029c4.798.144 15.634 1.137 16.832 7.127 1.022 5.112-6.179 6.09-4.134 11.202 1.891 4.726 16.838 6.883 19.09 6.909l.551-1.777c-2.251-.027-16.705-.361-18.596-5.088-2.045-5.112 5.112-6.134 4.09-11.246-1.28-6.4-13.66-7.107-17.811-7.156"/></g><g stroke-linejoin="bevel" stroke-width="1.333"><g stroke-linecap="round"><path fill="url(#g)" d="M-4.12 14.85h4v15h-4z" filter="url(#h)" opacity=".2" transform="rotate(-45)"/><circle cx="-12" cy="9" r="2" fill="url(#i)" transform="rotate(-90)"/><circle cx="9" cy="12" r="1" fill="#fff"/><path fill="url(#j)" d="M-8.66 36.77h6v12h-6z" filter="url(#k)" opacity=".2" transform="rotate(-45)"/><circle cx="-30" cy="22" r="3" fill="url(#l)" transform="rotate(-90)"/></g><path fill="url(#m)" d="M1.743 31.82h5v14h-5z" filter="url(#n)" opacity=".2" transform="rotate(-45)"/><g stroke-linecap="round"><circle cx="-19.5" cy="25.5" r="2.5" fill="url(#o)" transform="rotate(-90)"/><g fill="#fff"><circle cx="25.5" cy="19.5" r="1.5"/><circle cx="22" cy="30" r="2"/></g><circle cx="-35" cy="38" r="4" fill="url(#p)" transform="rotate(-90)"/><circle cx="38" cy="35" r="3" fill="#fff"/></g></g></g></svg>