<svg xmlns="http://www.w3.org/2000/svg" xmlns:xlink="http://www.w3.org/1999/xlink" width="64" height="64"><defs><linearGradient id="a"><stop offset="0" stop-color="#2a7fff"/><stop offset="1" stop-color="#0cf"/></linearGradient><linearGradient id="e" x1="61.163" x2="64.928" y1="105.11" y2="109.04" gradientUnits="userSpaceOnUse"><stop offset="0" stop-color="#e6e6e6"/><stop offset="1" stop-color="#bfbfbf"/></linearGradient><linearGradient id="f" x1="77.167" x2="64.372" y1="115.71" y2="112" gradientUnits="userSpaceOnUse"><stop offset="0" stop-color="#0cf"/><stop offset="1" stop-color="#2a7fff"/></linearGradient><linearGradient xlink:href="#a" id="g" x1="68.707" x2="75.819" y1="113.06" y2="117.91" gradientUnits="userSpaceOnUse"/><linearGradient id="h" x1="77.401" x2="68.67" y1="106.37" y2="120.36" gradientUnits="userSpaceOnUse"><stop offset="0" stop-color="#fff"/><stop offset="1" stop-color="#bfbfbf"/></linearGradient><linearGradient id="i" x1="68.229" x2="68.164" y1="112.73" y2="118.55" gradientUnits="userSpaceOnUse"><stop offset="0" stop-color="#c7c7c7"/><stop offset="1" stop-color="#fff"/></linearGradient><linearGradient id="j" x1="63.367" x2="71.136" y1="106.86" y2="104.89" gradientUnits="userSpaceOnUse"><stop offset="0" stop-color="#fff"/><stop offset="1" stop-color="#ccc"/></linearGradient><linearGradient id="k" x1="66.951" x2="66.336" y1="104.46" y2="109.67" gradientUnits="userSpaceOnUse"><stop offset="0" stop-color="#e5e5e5"/><stop offset="1" stop-color="#ccc"/></linearGradient><linearGradient id="l" x1="62.961" x2="77.488" y1="115.88" y2="107.31" gradientUnits="userSpaceOnUse"><stop offset="0" stop-color="#e6e6e6"/><stop offset="1" stop-color="#fff"/></linearGradient><linearGradient xlink:href="#a" id="c" x1="32" x2="32" y1="62.005" y2="2.005" gradientUnits="userSpaceOnUse"/><filter id="b" width="1.072" height="1.072" x="-.036" y="-.036" color-interpolation-filters="sRGB"><feGaussianBlur stdDeviation="14.344"/></filter><filter id="d" width="1.101" height="1.092" x="-.05" y="-.046" color-interpolation-filters="sRGB"><feGaussianBlur stdDeviation=".391"/></filter></defs><circle cx="512" cy="540.36" r="478.12" color="#000" filter="url(#b)" opacity=".25" transform="translate(-.125 -1.9) scale(.06274)"/><circle cx="32" cy="32.005" r="30" fill="url(#c)" color="#000"/><g stroke-width=".265" filter="url(#d)" opacity=".15" transform="matrix(2.4444 0 0 2.4989 -135.51 -253.42)"><path d="M65.429 109.92c-.795-2.58-5.286-1.955-6.037-2.01.843-.41 1.604-.747 3.341-1.978 3.347-2.371 6.89-1.854 8.664-.912-4.85.18-3.927 2.765-3.212 4.127-.909.258-2.343.648-2.756.773z"/><path d="M77.401 106.37c-1.747 2.257-4.65 5.306-7.829 5.707-3.178.402-6.208-.043-6.91 2.272-.646 2.133 1.627 4.123 3.985 3.644 2.519-.513 1.975-3.306.597-5.207 1.047-.059.852-.044 2.627-.131 2.645 2.205 3.521 2.834 8.143 6.052-3.562-.365-4.858-.7-7.412-2.194.662 1.624 2.076 5.311 2.382 8.172-1.473-2.07-2.031-2.831-4.314-4.325-2.925-1.914-5.293-1.978-6.664-4.797-1.368-2.814.443-4.84 3.682-5.717 4.63-1.255 8.62-2.444 11.712-3.476z"/><path d="M67.245 112.78c1.046-.059.852-.043 2.626-.131 2.646 2.205 3.522 2.834 8.143 6.052-4.644-.325-8.159-1.665-10.769-5.921z"/><path d="M77.401 106.37c-1.747 2.257-4.65 5.306-7.829 5.707-3.178.402-6.208-.043-6.91 2.272-.646 2.133 1.627 4.123 3.985 3.644 2.519-.513 1.975-3.306.597-5.207 1.047-.059.852-.044 2.627-.131 2.645 2.205 3.521 2.834 8.143 6.052-3.562-.365-4.858-.7-7.412-2.194.662 1.624 2.076 5.311 2.382 8.172-1.473-2.07-2.031-2.831-4.314-4.325-2.925-1.914-5.293-1.978-6.664-4.797-1.368-2.814.443-4.84 3.682-5.717 4.63-1.255 8.62-2.444 11.712-3.476z"/><path d="M67.245 112.78c1.046-.059.852-.043 2.626-.131 2.646 2.205 3.522 2.834 8.143 6.052-4.644-.325-8.159-1.665-10.769-5.921zm-7.853-4.87c.843-.41 1.604-.746 3.341-1.977 3.346-2.372 6.89-1.854 8.664-.913-4.85.18-4.226 1.126-4.244 1.867-3.222-.664-4.163.24-7.761 1.023z"/><path d="M71.397 105.02c-4.85.18-3.926 2.765-3.212 4.127-.566.16-1.18.344-1.936.54-3.053-5.321 2.656-6.013 5.148-4.667z"/><path d="M62.88 116.89c-2.373-2.99-1.935-5.73 2.712-7.153 4.587-1.405 8.716-2.333 11.81-3.365-8.348 3.111-18.8 5.19-14.523 10.518z"/></g><g stroke-width=".265"><path fill="url(#e)" d="M65.429 109.92c-.795-2.58-5.286-1.955-6.037-2.01.843-.41 1.604-.747 3.341-1.978 3.347-2.371 6.89-1.854 8.664-.912-4.85.18-3.927 2.765-3.212 4.127-.909.258-2.343.648-2.756.773z" transform="matrix(2.4444 0 0 2.4989 -135.51 -253.42)"/><path fill="url(#f)" d="M77.401 106.37c-1.747 2.257-4.65 5.306-7.829 5.707-3.178.402-6.208-.043-6.91 2.272-.646 2.133 1.627 4.123 3.985 3.644 2.519-.513 1.975-3.306.597-5.207 1.047-.059.852-.044 2.627-.131 2.645 2.205 3.521 2.834 8.143 6.052-3.562-.365-4.858-.7-7.412-2.194.662 1.624 2.076 5.311 2.382 8.172-1.473-2.07-2.031-2.831-4.314-4.325-2.925-1.914-5.293-1.978-6.664-4.797-1.368-2.814.443-4.84 3.682-5.717 4.63-1.255 8.62-2.444 11.712-3.476z" transform="matrix(2.4444 0 0 2.4989 -135.51 -253.42)"/><path fill="url(#g)" d="M67.245 112.78c1.046-.059.852-.043 2.626-.131 2.646 2.205 3.522 2.834 8.143 6.052-4.644-.325-8.159-1.665-10.769-5.921z" transform="matrix(2.4444 0 0 2.4989 -135.51 -253.42)"/><path fill="url(#h)" d="M77.401 106.37c-1.747 2.257-4.65 5.306-7.829 5.707-3.178.402-6.208-.043-6.91 2.272-.646 2.133 1.627 4.123 3.985 3.644 2.519-.513 1.975-3.306.597-5.207 1.047-.059.852-.044 2.627-.131 2.645 2.205 3.521 2.834 8.143 6.052-3.562-.365-4.858-.7-7.412-2.194.662 1.624 2.076 5.311 2.382 8.172-1.473-2.07-2.031-2.831-4.314-4.325-2.925-1.914-5.293-1.978-6.664-4.797-1.368-2.814.443-4.84 3.682-5.717 4.63-1.255 8.62-2.444 11.712-3.476z" transform="matrix(2.4444 0 0 2.4989 -135.51 -253.42)"/><path fill="url(#i)" d="M67.245 112.78c1.046-.059.852-.043 2.626-.131 2.646 2.205 3.522 2.834 8.143 6.052-4.644-.325-8.159-1.665-10.769-5.921z" transform="matrix(2.4444 0 0 2.4989 -135.51 -253.42)"/><path fill="url(#j)" d="M59.392 107.91c.843-.41 1.604-.746 3.341-1.977 3.346-2.372 6.89-1.854 8.664-.913-4.85.18-4.226 1.126-4.244 1.867-3.222-.664-4.163.24-7.761 1.023z" transform="matrix(2.4444 0 0 2.4989 -135.51 -253.42)"/><path fill="url(#k)" d="M71.397 105.02c-4.85.18-3.926 2.765-3.212 4.127-.566.16-1.18.344-1.936.54-3.053-5.321 2.656-6.013 5.148-4.667z" transform="matrix(2.4444 0 0 2.4989 -135.51 -253.42)"/><path fill="url(#l)" d="M62.88 116.89c-2.373-2.99-1.935-5.73 2.712-7.153 4.587-1.405 8.716-2.333 11.81-3.365-8.348 3.111-18.8 5.19-14.523 10.518z" transform="matrix(2.4444 0 0 2.4989 -135.51 -253.42)"/></g></svg>