<svg width="64" height="64" version="1.1" xmlns="http://www.w3.org/2000/svg" xmlns:xlink="http://www.w3.org/1999/xlink">
 <defs>
  <linearGradient id="a">
   <stop stop-color="#2a7fff" offset="0"/>
   <stop stop-color="#0cf" offset="1"/>
  </linearGradient>
  <linearGradient id="f" x1="77.167" x2="64.372" y1="115.71" y2="112" gradientUnits="userSpaceOnUse">
   <stop stop-color="#0cf" offset="0"/>
   <stop stop-color="#2a7fff" offset="1"/>
  </linearGradient>
  <linearGradient id="g" x1="68.707" x2="75.819" y1="113.06" y2="117.91" gradientUnits="userSpaceOnUse" xlink:href="#a"/>
  <linearGradient id="c" x1="32" x2="32" y1="62.005" y2="2.005" gradientUnits="userSpaceOnUse" xlink:href="#a"/>
  <filter id="b" x="-.036001" y="-.036001" width="1.072" height="1.072" color-interpolation-filters="sRGB">
   <feGaussianBlur stdDeviation="14.344"/>
  </filter>
  <filter id="d" x="-.050392" y="-.045874" width="1.1008" height="1.0917" color-interpolation-filters="sRGB">
   <feGaussianBlur stdDeviation=".391"/>
  </filter>
  <filter id="filter26" x="-.013853" y="-.013853" width="1.0277" height="1.0277" color-interpolation-filters="sRGB">
   <feGaussianBlur stdDeviation="0.29776566"/>
  </filter>
  <filter id="filter25" x="-.029663" y="-.029663" width="1.0593" height="1.0593" color-interpolation-filters="sRGB">
   <feGaussianBlur stdDeviation="0.29776566"/>
  </filter>
 </defs>
 <circle transform="translate(-.125 -1.9) scale(.06274)" cx="512" cy="540.36" r="478.12" filter="url(#b)" opacity=".25"/>
 <circle cx="32" cy="32.005" r="30" fill="url(#c)"/>
 <g transform="matrix(2.1616 0 0 2.2098 -116.08 -220.33)" filter="url(#d)" opacity=".15" stroke-width=".265">
  <path d="m65.429 109.92c-0.795-2.58-5.286-1.955-6.037-2.01 0.843-0.41 1.604-0.747 3.341-1.978 3.347-2.371 6.89-1.854 8.664-0.912-4.85 0.18-3.927 2.765-3.212 4.127-0.909 0.258-2.343 0.648-2.756 0.773z"/>
  <path d="m77.401 106.37c-1.747 2.257-4.65 5.306-7.829 5.707-3.178 0.402-6.208-0.043-6.91 2.272-0.646 2.133 1.627 4.123 3.985 3.644 2.519-0.513 1.975-3.306 0.597-5.207 1.047-0.059 0.852-0.044 2.627-0.131 2.645 2.205 3.521 2.834 8.143 6.052-3.562-0.365-4.858-0.7-7.412-2.194 0.662 1.624 2.076 5.311 2.382 8.172-1.473-2.07-2.031-2.831-4.314-4.325-2.925-1.914-5.293-1.978-6.664-4.797-1.368-2.814 0.443-4.84 3.682-5.717 4.63-1.255 8.62-2.444 11.712-3.476z"/>
  <path d="m67.245 112.78c1.046-0.059 0.852-0.043 2.626-0.131 2.646 2.205 3.522 2.834 8.143 6.052-4.644-0.325-8.159-1.665-10.769-5.921z"/>
  <path d="m77.401 106.37c-1.747 2.257-4.65 5.306-7.829 5.707-3.178 0.402-6.208-0.043-6.91 2.272-0.646 2.133 1.627 4.123 3.985 3.644 2.519-0.513 1.975-3.306 0.597-5.207 1.047-0.059 0.852-0.044 2.627-0.131 2.645 2.205 3.521 2.834 8.143 6.052-3.562-0.365-4.858-0.7-7.412-2.194 0.662 1.624 2.076 5.311 2.382 8.172-1.473-2.07-2.031-2.831-4.314-4.325-2.925-1.914-5.293-1.978-6.664-4.797-1.368-2.814 0.443-4.84 3.682-5.717 4.63-1.255 8.62-2.444 11.712-3.476z"/>
  <path d="m67.245 112.78c1.046-0.059 0.852-0.043 2.626-0.131 2.646 2.205 3.522 2.834 8.143 6.052-4.644-0.325-8.159-1.665-10.769-5.921zm-7.853-4.87c0.843-0.41 1.604-0.746 3.341-1.977 3.346-2.372 6.89-1.854 8.664-0.913-4.85 0.18-4.226 1.126-4.244 1.867-3.222-0.664-4.163 0.24-7.761 1.023z"/>
  <path d="m71.397 105.02c-4.85 0.18-3.926 2.765-3.212 4.127-0.566 0.16-1.18 0.344-1.936 0.54-3.053-5.321 2.656-6.013 5.148-4.667z"/>
  <path d="m62.88 116.89c-2.373-2.99-1.935-5.73 2.712-7.153 4.587-1.405 8.716-2.333 11.81-3.365-8.348 3.111-18.8 5.19-14.523 10.518z"/>
 </g>
 <g transform="matrix(.8843 0 0 .8843 3.752 3.7716)" stroke-width=".265">
  <path transform="matrix(2.4444,0,0,2.4989,-135.51,-253.42)" d="m65.429 109.92c-0.795-2.58-5.286-1.955-6.037-2.01 0.843-0.41 1.604-0.747 3.341-1.978 3.347-2.371 6.89-1.854 8.664-0.912-4.85 0.18-3.927 2.765-3.212 4.127-0.909 0.258-2.343 0.648-2.756 0.773z" fill="#f9f9f9"/>
  <path transform="matrix(2.4444,0,0,2.4989,-135.51,-253.42)" d="m77.401 106.37c-1.747 2.257-4.65 5.306-7.829 5.707-3.178 0.402-6.208-0.043-6.91 2.272-0.646 2.133 1.627 4.123 3.985 3.644 2.519-0.513 1.975-3.306 0.597-5.207 1.047-0.059 0.852-0.044 2.627-0.131 2.645 2.205 3.521 2.834 8.143 6.052-3.562-0.365-4.858-0.7-7.412-2.194 0.662 1.624 2.076 5.311 2.382 8.172-1.473-2.07-2.031-2.831-4.314-4.325-2.925-1.914-5.293-1.978-6.664-4.797-1.368-2.814 0.443-4.84 3.682-5.717 4.63-1.255 8.62-2.444 11.712-3.476z" fill="url(#f)"/>
  <path transform="matrix(2.4444,0,0,2.4989,-135.51,-253.42)" d="m67.245 112.78c1.046-0.059 0.852-0.043 2.626-0.131 2.646 2.205 3.522 2.834 8.143 6.052-4.644-0.325-8.159-1.665-10.769-5.921z" fill="url(#g)"/>
  <path transform="matrix(2.4444,0,0,2.4989,-135.51,-253.42)" d="m77.401 106.37c-1.747 2.257-4.65 5.306-7.829 5.707-3.178 0.402-6.208-0.043-6.91 2.272-0.646 2.133 1.627 4.123 3.985 3.644 2.519-0.513 1.975-3.306 0.597-5.207 1.047-0.059 0.852-0.044 2.627-0.131 2.645 2.205 3.521 2.834 8.143 6.052-3.562-0.365-4.858-0.7-7.412-2.194 0.662 1.624 2.076 5.311 2.382 8.172-1.473-2.07-2.031-2.831-4.314-4.325-2.925-1.914-5.293-1.978-6.664-4.797-1.368-2.814 0.443-4.84 3.682-5.717 4.63-1.255 8.62-2.444 11.712-3.476z" fill="#f9f9f9"/>
  <path transform="matrix(2.4444,0,0,2.4989,-135.51,-253.42)" d="m67.245 112.78c1.046-0.059 0.852-0.043 2.626-0.131 2.646 2.205 3.522 2.834 8.143 6.052-4.644-0.325-8.159-1.665-10.769-5.921z" fill="#ffffff"/>
  <path transform="matrix(2.4444,0,0,2.4989,-135.51,-253.42)" d="m59.392 107.91c0.843-0.41 1.604-0.746 3.341-1.977 3.346-2.372 6.89-1.854 8.664-0.913-4.85 0.18-4.226 1.126-4.244 1.867-3.222-0.664-4.163 0.24-7.761 1.023z" fill="#ffffff"/>
  <path transform="matrix(2.4444,0,0,2.4989,-135.51,-253.42)" d="m71.397 105.02c-4.85 0.18-3.926 2.765-3.212 4.127-0.566 0.16-1.18 0.344-1.936 0.54-3.053-5.321 2.656-6.013 5.148-4.667z" fill="#ffffff"/>
  <path transform="matrix(2.4444,0,0,2.4989,-135.51,-253.42)" d="m62.88 116.89c-2.373-2.99-1.935-5.73 2.712-7.153 4.587-1.405 8.716-2.333 11.81-3.365-8.348 3.111-18.8 5.19-14.523 10.518z" fill="#ffffff"/>
 </g>
 <path d="m10.787 10.787c-11.752 11.752-11.752 30.674 0 42.426 0.11855 0.11855 0.24184 0.22911 0.36184 0.34527-11.399-11.775-11.288-30.431 0.34527-42.065 11.634-11.634 30.289-11.744 42.065-0.34527-0.11616-0.12-0.22671-0.24329-0.34527-0.36184-11.752-11.752-30.674-11.752-42.426 0z" fill="#ffffff" filter="url(#filter26)" opacity=".45"/>
 <path d="m37.435 61.526c5.7718-1.0635 11.297-3.831 15.779-8.3126s7.2491-10.007 8.3126-15.779c-1.5917 5.4332-4.6056 10.657-9.0198 15.072s-9.6384 7.428-15.072 9.0198z" fill="#ffffff" filter="url(#filter25)" opacity=".35"/>
</svg>
