<svg width="64" height="64" xmlns="http://www.w3.org/2000/svg" xmlns:xlink="http://www.w3.org/1999/xlink"><defs><linearGradient id="a"><stop stop-color="#b54bd0" offset="0"/><stop stop-color="#783ed5" offset="1"/></linearGradient><linearGradient id="c" x1="99.036" x2="99.036" y1="-.505" y2="199.84" gradientTransform="matrix(.3 0 0 .3 2 2.005)" gradientUnits="userSpaceOnUse"><stop stop-color="#eaeaea" offset="0"/><stop stop-color="#c8c8c8" offset="1"/></linearGradient><linearGradient id="i" x1="23.487" x2="23.487" y1="15.18" y2="32.913" gradientTransform="translate(-.205 -.075) scale(1.3393)" gradientUnits="userSpaceOnUse"><stop stop-color="#8c59d9" offset="0"/><stop stop-color="#8f76e4" offset="1"/></linearGradient><linearGradient id="h" x1="520" x2="520" y1="272.36" y2="792.36" gradientTransform="translate(0 -1.768) scale(.0625)" gradientUnits="userSpaceOnUse"><stop stop-color="#7839b7" offset="0"/><stop stop-color="#2f5fdd" offset="1"/></linearGradient><linearGradient id="k" x1="596.38" x2="596.38" y1="331.99" y2="545.43" gradientTransform="matrix(.06274 0 0 .06274 -.125 -1.9)" gradientUnits="userSpaceOnUse"><stop stop-color="#fff" offset="0"/><stop stop-color="#fff" stop-opacity="0" offset="1"/></linearGradient><linearGradient id="l" x1="361.36" x2="361.36" y1="616.07" y2="722.79" gradientTransform="matrix(.06274 0 0 .06274 -.125 -1.9)" gradientUnits="userSpaceOnUse"><stop stop-color="#fff" offset="0"/><stop stop-color="#fff" stop-opacity="0" offset="1"/></linearGradient><linearGradient id="d" x1="5.165" x2="59.049" y1="25.522" y2="26.348" gradientUnits="userSpaceOnUse" xlink:href="#a"/><linearGradient id="e" x1="6.7" x2="60.008" y1="33.731" y2="33.311" gradientUnits="userSpaceOnUse"><stop stop-color="#edeb87" offset="0"/><stop stop-color="#f8e2a9" offset="1"/></linearGradient><linearGradient id="f" x1="7.942" x2="57.032" y1="41.078" y2="41.904" gradientUnits="userSpaceOnUse" xlink:href="#a"/><linearGradient id="m" x1="49" x2="49" y1="11" y2="15" gradientUnits="userSpaceOnUse"><stop stop-color="#f55" offset="0"/><stop stop-color="#ffa055" offset="1"/></linearGradient><filter id="b" x="-.036" y="-.036" width="1.072" height="1.072" color-interpolation-filters="sRGB"><feGaussianBlur stdDeviation="14.344"/></filter><filter id="g" x="-.06" y="-.06" width="1.12" height="1.12" color-interpolation-filters="sRGB"><feGaussianBlur stdDeviation=".95"/></filter><radialGradient id="j" cx="24.047" cy="23.949" r="2.987" gradientTransform="matrix(2.1722 0 0 1.6452 -20.233 -7.4)" gradientUnits="userSpaceOnUse"><stop stop-color="#4d4d4d" offset="0"/><stop stop-opacity="0" offset="1"/></radialGradient></defs><circle transform="matrix(.06274 0 0 .06274 -.125 -1.9)" cx="512" cy="540.36" r="478.12" color="#000" filter="url(#b)" opacity=".25"/><circle cx="32" cy="32.005" r="30" color="#000" fill="url(#c)"/><path d="M4.896 21.878a29.73 29.73 0 0 0-2.16 7.826h59.51a29.73 29.73 0 0 0-2.16-7.826H4.9z" fill="url(#d)" transform="translate(-.491 -1.617)"/><path d="M2.736 29.704a30.264 30.264 0 0 0-.245 3.913c0 1.33.077 2.635.245 3.913h59.51c.167-1.283.245-2.584.245-3.913 0-1.33-.076-2.635-.245-3.913z" fill="url(#e)" transform="translate(-.491 -1.617)"/><path d="M2.736 37.53a29.73 29.73 0 0 0 2.16 7.826h55.186a29.728 29.728 0 0 0 2.16-7.826H2.732" fill="url(#f)" transform="translate(-.491 -1.617)"/><circle cx="32.001" cy="31.999" r="19.001" filter="url(#g)" opacity=".25"/><circle cx="32.001" cy="31.999" r="19.001" fill="#333"/><circle cx="31.937" cy="32.068" r="16.072" fill="url(#h)"/><g stroke-width="21.346"><circle cx="31.938" cy="32.068" r="12.054" fill="url(#i)"/><circle cx="32.001" cy="31.999" r="6" fill="#292929"/><circle cx="32.001" cy="31.999" r="4" fill="url(#j)"/></g><circle cx="37.294" cy="25.627" r="6.696" fill="url(#k)" opacity=".35"/><circle cx="22.548" cy="40.103" r="3.348" fill="url(#l)" opacity=".35"/><path d="M49 11h.004c1.102 0 1.996.895 1.996 2v.004A1.997 1.997 0 0 1 49.004 15H49c-1.105 0-2-.895-2-1.996V13a2 2 0 0 1 2-2" fill="url(#m)" fill-rule="evenodd"/></svg>