<svg xmlns="http://www.w3.org/2000/svg" width="64" height="64" viewBox="0 0 16.933 16.933"><defs><linearGradient id="b" x1="9.26" x2="9.26" y1="-.262" y2="15.612" gradientTransform="translate(-.794 .792)" gradientUnits="userSpaceOnUse"><stop offset="0" stop-color="#2e323e"/><stop offset="1" stop-color="#505664"/></linearGradient><linearGradient id="d" x2="0" y1="54" y2="10" gradientUnits="userSpaceOnUse"><stop offset="0" stop-color="#dedede"/><stop offset="1" stop-color="#ececec"/></linearGradient><filter id="a" width="1.072" height="1.072" x="-.036" y="-.036" color-interpolation-filters="sRGB"><feGaussianBlur stdDeviation=".238"/></filter><filter id="c" width="1.12" height="1.12" x="-.06" y="-.06" color-interpolation-filters="sRGB"><feGaussianBlur stdDeviation=".146"/></filter></defs><circle cx="8.466" cy="8.466" r="7.937" filter="url(#a)" opacity=".25" style="paint-order:stroke markers fill"/><circle cx="8.466" cy="8.466" r="7.937" fill="url(#b)" style="paint-order:stroke markers fill"/><g stroke-width=".265" filter="url(#c)" opacity=".15" transform="translate(.146 .158)"><path d="M8.32 5.398a2.91 2.91 0 0 0-2.91 2.91 2.91 2.91 0 0 0 2.91 2.91 2.91 2.91 0 0 0 2.91-2.91 2.91 2.91 0 0 0-2.91-2.91m.039.251a2.646 2.646 0 0 1 2.646 2.646 2.646 2.646 0 0 1-2.646 2.646 2.646 2.646 0 0 1-2.646-2.646A2.646 2.646 0 0 1 8.359 5.65"/><path d="M9.908 8.166 7.262 10.16V6.456z"/></g><g stroke-width=".265"><path fill="#ececec" d="M8.466 5.556a2.91 2.91 0 0 0-2.91 2.91 2.91 2.91 0 0 0 2.91 2.91 2.91 2.91 0 0 0 2.91-2.91 2.91 2.91 0 0 0-2.91-2.91m.039.252a2.646 2.646 0 0 1 2.646 2.646 2.646 2.646 0 0 1-2.646 2.645 2.646 2.646 0 0 1-2.646-2.645 2.646 2.646 0 0 1 2.646-2.646"/><path fill="#edeef8" d="M10.054 8.324 7.408 10.32V6.614z"/></g><path fill="url(#d)" d="M7.752 18a28 28 0 0 0-1.897 4H9v-4zM55 18v4h3.15a28 28 0 0 0-1.904-4zM5.176 24a28 28 0 0 0-.176.656V28h4v-4zM55 24v4h4v-3.408a28 28 0 0 0-.168-.592zM5 30v4h4v-4zm50 0v4h4v-4zM5 36v3.344a28 28 0 0 0 .176.656H9v-4zm50 0v4h3.824a28 28 0 0 0 .176-.656V36zM5.855 42a28 28 0 0 0 1.896 4H9v-4zM55 42v4h1.248a28 28 0 0 0 1.897-4z" transform="scale(.26458)"/></svg>