<svg xmlns="http://www.w3.org/2000/svg" width="64" height="64" viewBox="0 0 16.933 16.933"><defs><filter id="c" width="1.131" height="1.11" x="-.066" y="-.055" color-interpolation-filters="sRGB"><feGaussianBlur stdDeviation=".174"/></filter><filter id="a" width="1.072" height="1.072" x="-.036" y="-.036" color-interpolation-filters="sRGB"><feGaussianBlur stdDeviation=".238"/></filter><filter id="e" width="1.028" height="1.028" x="-.014" y="-.014" color-interpolation-filters="sRGB"><feGaussianBlur stdDeviation=".298"/></filter><filter id="f" width="1.059" height="1.059" x="-.03" y="-.03" color-interpolation-filters="sRGB"><feGaussianBlur stdDeviation=".298"/></filter><linearGradient id="b" x1="-296.47" x2="-280.6" y1="-8.466" y2="-8.466" gradientTransform="translate(280.07)" gradientUnits="userSpaceOnUse"><stop offset="0" stop-color="#484848"/><stop offset="1" stop-color="#141414"/></linearGradient><linearGradient id="d" x1="8.467" x2="8.466" y1="284.37" y2="291.97" gradientTransform="translate(0 -280.07)" gradientUnits="userSpaceOnUse"><stop offset="0" stop-color="#fff"/><stop offset="1" stop-color="#e6e6e6"/></linearGradient></defs><rect width="15.875" height="15.875" x="-16.404" y="-16.404" filter="url(#a)" opacity=".25" rx="7.937" ry="7.937" transform="scale(1 -1)rotate(90)"/><rect width="15.875" height="15.875" x="-16.404" y="-16.404" fill="url(#b)" rx="7.937" ry="7.937" transform="scale(1 -1)rotate(90)"/><rect width="12.7" height="12.7" x="-14.816" y="-14.816" fill="#fff" opacity=".25" rx="6.349" ry="6.349" transform="scale(1 -1)rotate(90)"/><path d="M8.467 4.303 7.29 5.718a3.175 3.175 0 0 0-1.997 2.951 3.175 3.175 0 1 0 6.349 0 3.17 3.17 0 0 0-1.995-2.951z" filter="url(#c)" opacity=".5"/><path fill="url(#d)" d="M8.467 4.303 7.29 5.718a3.175 3.175 0 0 0-1.997 2.951 3.175 3.175 0 1 0 6.349 0 3.17 3.17 0 0 0-1.995-2.951z"/><path fill="#fff" d="M10.787 10.787a29.934 29.934 0 0 0 0 42.426c.119.119.242.23.362.345-11.4-11.775-11.288-30.43.345-42.065S41.784-.25 53.56 11.148c-.116-.12-.227-.243-.345-.362a29.934 29.934 0 0 0-42.426 0z" filter="url(#e)" opacity=".15" transform="scale(.26458)"/><path fill="#fff" d="M37.435 61.526c5.772-1.063 11.297-3.831 15.779-8.313s7.25-10.007 8.313-15.779c-1.592 5.434-4.606 10.657-9.02 15.072s-9.639 7.428-15.072 9.02" filter="url(#f)" opacity=".15" transform="scale(.26458)"/><circle cx="8.466" cy="2.91" r=".265" opacity=".25" style="paint-order:stroke fill markers"/><circle cx="10.369" cy=".431" r=".265" opacity=".25" style="paint-order:stroke fill markers" transform="rotate(15)"/><circle cx="11.565" cy="-2.457" r=".265" opacity=".25" style="paint-order:stroke fill markers" transform="rotate(30)"/><circle cx="11.973" cy="-5.556" r=".265" opacity=".25" style="paint-order:stroke fill markers" transform="rotate(45)"/><circle cx="11.565" cy="-8.655" r=".265" opacity=".25" style="paint-order:stroke fill markers" transform="rotate(60)"/><circle cx="10.369" cy="-11.543" r=".265" opacity=".25" style="paint-order:stroke fill markers" transform="rotate(75)"/><circle cx="8.466" cy="-14.023" r=".265" opacity=".25" style="paint-order:stroke fill markers" transform="rotate(90)"/></svg>