<svg width="64" height="64" viewBox="0 0 16.933 16.933" xmlns="http://www.w3.org/2000/svg"><defs><linearGradient id="b" x1="-296.47" x2="-280.6" y1="-8.466" y2="-8.466" gradientTransform="translate(280.07)" gradientUnits="userSpaceOnUse"><stop stop-color="#484848" offset="0"/><stop stop-color="#141414" offset="1"/></linearGradient><linearGradient id="d" x1="8.467" x2="8.466" y1="284.37" y2="291.97" gradientTransform="translate(0 -280.07)" gradientUnits="userSpaceOnUse"><stop stop-color="#fff" offset="0"/><stop stop-color="#e6e6e6" offset="1"/></linearGradient><filter id="c" x="-.066" y="-.055" width="1.132" height="1.11" color-interpolation-filters="sRGB"><feGaussianBlur stdDeviation=".174"/></filter><filter id="a" x="-.036" y="-.036" width="1.072" height="1.072" color-interpolation-filters="sRGB"><feGaussianBlur stdDeviation=".238"/></filter></defs><rect transform="matrix(0 -1 -1 0 0 0)" x="-16.404" y="-16.404" width="15.875" height="15.875" rx="7.937" ry="7.937" filter="url(#a)" opacity=".25"/><rect transform="matrix(0 -1 -1 0 0 0)" x="-16.404" y="-16.404" width="15.875" height="15.875" rx="7.937" ry="7.937" fill="url(#b)"/><rect transform="matrix(0 -1 -1 0 0 0)" x="-14.816" y="-14.816" width="12.7" height="12.7" rx="6.349" ry="6.349" fill="#fff" opacity=".25"/><path d="M8.467 4.303 7.29 5.718a3.175 3.175 0 0 0-1.997 2.951 3.175 3.175 0 1 0 6.349 0c0-1.339-.824-2.485-1.995-2.951z" filter="url(#c)" opacity=".5"/><path d="M8.467 4.303 7.29 5.718a3.175 3.175 0 0 0-1.997 2.951 3.175 3.175 0 1 0 6.349 0c0-1.339-.824-2.485-1.995-2.951z" fill="url(#d)"/></svg>