<svg id="SimpleNote" width="64" height="64" enable-background="new 0 0 1024 1024" image-rendering="optimizeSpeed" version="1.1" viewBox="0 0 64 64" xmlns="http://www.w3.org/2000/svg" xmlns:xlink="http://www.w3.org/1999/xlink">
 <defs>
  <linearGradient id="c" x1="519.68" x2="519.68" y1="2.8257" y2="1026.1" gradientTransform="matrix(1.0007 0 0 1.0007 -.029212 -.81883)" gradientUnits="userSpaceOnUse">
   <stop stop-color="#d7d7d7" offset="0"/>
   <stop stop-color="#faf8f6" offset=".5"/>
   <stop stop-color="#fff" offset="1"/>
  </linearGradient>
  <filter id="e" x="-.035863" y="-.036138" width="1.0717" height="1.0723" color-interpolation-filters="sRGB">
   <feGaussianBlur stdDeviation="0.75453"/>
  </filter>
  <linearGradient id="a" x1="23.683" x2="25.655" y1="-25.544" y2="75.049" gradientUnits="userSpaceOnUse">
   <stop stop-color="#111" offset="0"/>
   <stop stop-color="#4c4c4c" offset=".54902"/>
   <stop stop-color="#888" offset="1"/>
  </linearGradient>
  <filter id="d" x="-.036" y="-.036" width="1.072" height="1.072" color-interpolation-filters="sRGB">
   <feGaussianBlur stdDeviation="14.170353"/>
  </filter>
  <linearGradient id="b" x1="60.997" x2="60.997" y1="29.79" y2="104.85" gradientTransform="matrix(.59957 0 0 .59954 -6.5723 -8.8601)" gradientUnits="userSpaceOnUse">
   <stop stop-color="#0059ff" offset="0"/>
   <stop stop-color="#31fbff" offset="1"/>
  </linearGradient>
  <filter id="f" x="-.06" y="-.06" width="1.12" height="1.12" color-interpolation-filters="sRGB">
   <feGaussianBlur stdDeviation="0.79999999"/>
  </filter>
 </defs>
 <g id="bg" transform="matrix(.063513 0 0 .063513 -.54372 -.49348)">
  <path d="m970.43 391.52c-1.1008-4.3532-2.3517-9.0066-3.6527-13.61-1.0007-3.4025-2.0015-6.855-3.1523-10.508-1.6012-5.1538-3.4025-10.508-5.3039-15.862-6.4547-18.263-14.16-36.076-23.167-53.689-3.8028-7.4054-7.9558-14.961-12.309-22.416-20.315-34.525-45.833-67.249-76.406-97.821-72.653-72.653-157.26-116.74-253.84-132.15-16.262-2.6019-32.824-4.4032-50.087-5.3539-9.7071-0.5504-19.865-0.85062-30.122-0.85062-9.3568 0-18.614 0.25018-27.92 0.75055-118.44 6.1045-220.46 51.988-306.07 137.6q-138.35 138.35-138.35 333.99c0 130.45 46.134 241.83 138.35 334.04 56.741 56.691 120.64 95.97 191.24 117.64 36.777 11.258 74.855 17.863 114.83 19.965h0.40029c8.5062 0.45033 16.612 0.70051 24.518 0.70051h3.0022c10.308 0 20.515-0.30022 30.122-0.80058 2.5018-0.15011 4.7535-0.30022 6.9551-0.45033 20.215-1.4511 39.929-4.053 58.743-7.7056 7.9558-1.5511 15.812-3.3024 23.417-5.1538 80.859-20.315 152.26-61.645 214.81-124.19 48.636-48.636 84.462-102.57 107.43-161.92 18.463-47.685 28.671-98.872 30.572-153.61 0.20015-6.0544 0.30022-12.259 0.30022-18.514v-3.0022c-0.20014-40.68-4.9536-79.558-14.31-117.09z" filter="url(#d)" opacity=".25" stroke-width="15.695"/>
  <path d="m970.43 391.52c-1.1008-4.3532-2.3517-9.0066-3.6527-13.61-1.0007-3.4025-2.0015-6.855-3.1523-10.508-1.6012-5.1538-3.4025-10.508-5.3039-15.862-6.4547-18.263-14.16-36.076-23.167-53.689-3.8028-7.4054-7.9558-14.961-12.309-22.416-20.315-34.525-45.833-67.249-76.406-97.821-72.653-72.653-157.26-116.74-253.84-132.15-16.262-2.6019-32.824-4.4032-50.087-5.3539-9.7071-0.5504-19.865-0.85062-30.122-0.85062-9.3568 0-18.614 0.25018-27.92 0.75055-118.44 6.1045-220.46 51.988-306.07 137.6q-138.35 138.35-138.35 333.99c0 130.45 46.134 241.83 138.35 334.04 56.741 56.691 120.64 95.97 191.24 117.64 36.777 11.258 74.855 17.863 114.83 19.965h0.40029c8.5062 0.45033 16.612 0.70051 24.518 0.70051h3.0022c10.308 0 20.515-0.30022 30.122-0.80058 2.5018-0.15011 4.7535-0.30022 6.9551-0.45033 20.215-1.4511 39.929-4.053 58.743-7.7056 7.9558-1.5511 15.812-3.3024 23.417-5.1538 80.859-20.315 152.26-61.645 214.81-124.19 48.636-48.636 84.462-102.57 107.43-161.92 18.463-47.685 28.671-98.872 30.572-153.61 0.20015-6.0544 0.30022-12.259 0.30022-18.514v-3.0022c-0.20014-40.68-4.9536-79.558-14.31-117.09z" fill="url(#c)" stroke-width="15.695"/>
  <g transform="matrix(10.18 0 0 10.18 258.87 272.08)" filter="url(#e)" opacity=".2" stroke-width="15.683">
   <g stroke-width="15.683"></g>
  </g>
  <g transform="matrix(10.18 0 0 10.18 258.87 262.04)" fill="url(#a)" stroke-width="15.683">
   <g fill="url(#a)" stroke-width="15.683"></g>
  </g>
 </g>
 <path d="m22.866 17v15.355h-6.8659l15.999 16.645 16.001-16.645h-6.8659v-15.355z" fill="#0b7cff" filter="url(#f)" opacity=".35"/>
 <path d="m22.866 17v15.355h-6.8659l15.999 16.645 16.001-16.645h-6.8659v-15.355z" fill="url(#b)"/>
</svg>
