<svg xmlns="http://www.w3.org/2000/svg" width="64" height="64"><defs><linearGradient id="b" x1="1" x2="47" gradientTransform="rotate(-90 32 31.304) scale(1.3043)" gradientUnits="userSpaceOnUse"><stop offset="0" stop-color="#ff7c1f"/><stop offset="1" stop-color="#ffd752"/></linearGradient><linearGradient id="e" x1="30.992" x2="47.651" y1="24.663" y2="24.663" gradientUnits="userSpaceOnUse"><stop offset="0" stop-color="#33c0ac"/><stop offset="1" stop-color="#3388c0"/></linearGradient><linearGradient id="d" x1="16.352" x2="47.643" y1="32.003" y2="32.003" gradientUnits="userSpaceOnUse"><stop offset="0" stop-color="#fff"/><stop offset="1" stop-color="#ddd"/></linearGradient><filter id="c" width="1.096" height="1.096" x="-.048" y="-.048" color-interpolation-filters="sRGB"><feGaussianBlur stdDeviation=".626"/></filter><filter id="a" width="1.054" height="1.054" x="-.027" y="-.027" color-interpolation-filters="sRGB"><feGaussianBlur stdDeviation=".675"/></filter></defs><path d="M32 3c16.569 0 30 13.431 30 30S48.569 63 32 63 2 49.569 2 33 15.431 3 32 3z" filter="url(#a)" opacity=".15"/><path fill="url(#b)" d="M32 2c16.569 0 30 13.431 30 30S48.569 62 32 62 2 48.569 2 32 15.431 2 32 2z"/><path d="M38.265 17.665a7.737 7.737 0 0 0-5.49 2.272L19.93 32.782a7.765 7.765 0 0 0 0 10.98l2.92 2.92a7.765 7.765 0 0 0 10.98 0L46 34.511c.111.261.23.524.366.782-.381 1.216-.801 2.442-1.967 3.844l.082-.072c-3.952 3.43-5.8 5.628-6.41 7.12-.152.374-.23.717-.189 1.075.042.359.28.736.604.902.648.33 1.291.125 2.005-.19 1.427-.627 3.221-2.055 4.702-4.153 1.482-2.096 2.622-4.877 2.553-8.13a.652.652 0 0 0-.072-.281c.347-1.24.481-2.429.425-3.544 1.484-2.915 1.012-6.574-1.427-9.01l-2.919-2.92a7.737 7.737 0 0 0-5.49-2.272zm6.685 22.791c-.364.823-.34 1.938-.82 2.622-1.352 1.912-3.053 3.221-4.163 3.71-.476.21-.705.177-.756.19.007-.07.002-.122.071-.291.383-.935 2.275-3.196 5.67-6.228z" filter="url(#c)" opacity=".1"/><path fill="url(#d)" d="m45.37 21.55-2.92-2.92a7.765 7.765 0 0 0-10.98 0L18.627 31.477a7.765 7.765 0 0 0 0 10.98l2.919 2.919a7.765 7.765 0 0 0 10.98 0L45.37 32.53a7.765 7.765 0 0 0 0-10.98"/><path fill="url(#e)" d="M45.37 21.544a7.747 7.747 0 0 1 0 10.98l-.468.468-13.91-13.915.468-.463a7.747 7.747 0 0 1 10.98 0"/><path fill="#f9f9f9" d="M40.204 21.947c-.51.51-.51 1.334 0 1.844s1.334.51 1.844 0 .51-1.334 0-1.844a1.303 1.303 0 0 0-1.844 0"/><path fill="#4d4d4d" d="m41.596 22.242-.19.632-.424.478c.675.605 1.425 1.931 2.248 2.952.072.412.205.716.244 1.2.152 1.901.434 4.28 1.588 6.482-.38 1.216-.802 2.443-1.968 3.845l.082-.072c-3.947 3.43-5.8 5.63-6.41 7.122-.152.373-.23.716-.189 1.074.042.359.281.737.605.903.648.332 1.29.124 2.004-.19 1.427-.627 3.221-2.056 4.703-4.152 1.481-2.097 2.624-4.878 2.554-8.133a.653.653 0 0 0-.072-.28c.586-2.088.647-4.064.018-5.714-.461-1.212-1.244-1.674-1.959-2.59-.098-.499-.1-1.042-.315-1.49-.382-.793-1.19-1.353-2.14-1.76-.036-.033-.091-.131-.126-.163l-.036.036c-.102-.037-.11-.149-.217-.18zm2.05 16.907c-.365.823-.341 1.937-.822 2.618-1.351 1.912-3.05 3.222-4.162 3.71-.476.21-.707.176-.758.19.009-.072.003-.12.072-.29.382-.935 2.275-3.195 5.669-6.228z"/></svg>