<svg width="64" height="64" version="1.1" viewBox="0 0 64 64" xmlns="http://www.w3.org/2000/svg" xmlns:xlink="http://www.w3.org/1999/xlink">
 <defs>
  <linearGradient id="bg" x1="1" x2="47" gradientTransform="matrix(0 -1.3043 1.3043 0 .69565 63.304)" gradientUnits="userSpaceOnUse">
   <stop stop-color="#ff7c1f" offset="0"/>
   <stop stop-color="#ffd752" offset="1"/>
  </linearGradient>
  <filter id="filter2309" x="-.048004" y="-.047996" width="1.096" height="1.096" color-interpolation-filters="sRGB">
   <feGaussianBlur stdDeviation="0.62577502"/>
  </filter>
  <linearGradient id="linearGradient2319" x1="30.992" x2="47.651" y1="24.663" y2="24.663" gradientUnits="userSpaceOnUse">
   <stop stop-color="#33c0ac" offset="0"/>
   <stop stop-color="#3388c0" offset="1"/>
  </linearGradient>
  <linearGradient id="linearGradient2327" x1="16.352" x2="47.643" y1="32.003" y2="32.003" gradientUnits="userSpaceOnUse">
   <stop stop-color="#ffffff" offset="0"/>
   <stop stop-color="#dddddd" offset="1"/>
  </linearGradient>
  <filter id="filter2357" x="-.027" y="-.027" width="1.054" height="1.054" color-interpolation-filters="sRGB">
   <feGaussianBlur stdDeviation="0.67499998"/>
  </filter>
 </defs>
 <path d="m32 3c16.569 0 30 13.431 30 30s-13.431 30-30 30-30-13.431-30-30 13.431-30 30-30z" fill="#000000" filter="url(#filter2357)" opacity=".15" stroke-width="1.3044"/>
 <path d="m32 2c16.569 0 30 13.431 30 30s-13.431 30-30 30-30-13.431-30-30 13.431-30 30-30z" fill="url(#bg)" stroke-width="1.3044"/>
 <path d="m38.265 17.665c-1.9878 0-3.9743 0.75652-5.49 2.2722l-12.845 12.845c-3.0313 3.0313-3.0313 7.9487 0 10.98l2.9191 2.9191c3.0313 3.0313 7.9487 3.0313 10.98 0l12.17-12.17c0.11217 0.26217 0.23087 0.52435 0.36652 0.78261-0.38087 1.2157-0.80087 2.4417-1.967 3.8439l0.082174-0.07174c-3.9522 3.4304-5.8004 5.6283-6.4096 7.1204-0.15261 0.37304-0.23087 0.71609-0.18913 1.0748 0.04174 0.3587 0.28044 0.73565 0.60391 0.9013 0.64826 0.3313 1.2913 0.12522 2.0048-0.18913 1.427-0.62739 3.2217-2.0557 4.7022-4.153 1.4817-2.0961 2.6217-4.877 2.5526-8.1313a0.65217 0.65217 0 0 0-0.07174-0.28044c0.34696-1.2391 0.4813-2.4287 0.42522-3.5439 1.4843-2.9152 1.0122-6.5739-1.427-9.0104l-2.9191-2.9191c-1.5157-1.5157-3.5022-2.2722-5.49-2.2722zm6.6848 22.791c-0.36391 0.82304-0.33913 1.9383-0.82044 2.6217-1.3513 1.9122-3.0522 3.2217-4.1622 3.7096-0.47609 0.21-0.70565 0.17739-0.75652 0.19044 0.0078-0.07044 0.0026-0.1213 0.07174-0.29087 0.38217-0.93522 2.2748-3.1957 5.6687-6.2283z" filter="url(#filter2309)" opacity=".1" stroke-width="1.3044"/>
 <path d="m45.37 21.55-2.9191-2.9191c-3.0313-3.0313-7.9487-3.0313-10.98 0l-12.845 12.845c-3.0313 3.0313-3.0313 7.9487 0 10.98l2.9191 2.9191c3.0313 3.0313 7.9487 3.0313 10.98 0l12.845-12.845c3.0313-3.0313 3.0313-7.9487 0-10.98" fill="url(#linearGradient2327)" stroke-width="1.3044"/>
 <path d="m45.37 21.544c3.0417 3.0417 3.0417 7.9383 0 10.98l-0.46826 0.46826-13.91-13.915 0.46826-0.46304c3.0365-3.0417 7.9383-3.0417 10.98 0" fill="url(#linearGradient2319)" stroke-width="1.3044"/>
 <path d="m40.204 21.947c-0.51 0.51-0.51 1.3343 0 1.8443s1.3343 0.51 1.8443 0 0.51-1.3343 0-1.8443c-0.51-0.51-1.3343-0.51-1.8443 0" fill="#f9f9f9" stroke-width="1.3044"/>
 <path d="m41.596 22.242-0.18956 0.63188-0.42425 0.47842c0.67469 0.60489 1.4247 1.9307 2.2477 2.9517 0.07204 0.41202 0.20489 0.71618 0.24372 1.2006 0.15237 1.9004 0.43409 4.2792 1.5887 6.4812-0.38086 1.2157-0.80234 2.4429-1.9679 3.8453l0.08125-0.07221c-3.9464 3.4304-5.8002 5.6302-6.409 7.1221-0.15222 0.37296-0.23148 0.71574-0.18956 1.0742 0.04192 0.35845 0.28097 0.7368 0.6048 0.90267 0.64766 0.33175 1.2905 0.12386 2.004-0.18956 1.4268-0.62686 3.2213-2.0558 4.703-4.1523 1.4816-2.0965 2.6238-4.878 2.5546-8.1331-0.0029-0.0975-0.0275-0.19314-0.07221-0.27984 0.58573-2.0884 0.6464-4.0642 0.01805-5.714-0.46166-1.2121-1.244-1.6736-1.9589-2.5907-0.09796-0.49787-0.10028-1.041-0.31594-1.4894-0.38123-0.79273-1.1892-1.3534-2.1394-1.7602-0.03654-0.03291-0.09114-0.13089-0.12638-0.16248l-0.0361 0.0361c-0.10121-0.037299-0.10923-0.14911-0.21664-0.18053zm2.0491 16.907c-0.36412 0.82347-0.34019 1.9367-0.82144 2.6178-1.351 1.9119-3.0502 3.2219-4.1614 3.71-0.47674 0.20945-0.70741 0.17632-0.75824 0.18956 0.0085-0.07087 3e-3 -0.11923 0.07221-0.28886 0.38173-0.93535 2.2752-3.1955 5.6688-6.2285z" fill="#4d4d4d" stroke-width="1.3044"/>
</svg>
