<svg width="64" height="64" version="1.1" xmlns="http://www.w3.org/2000/svg" xmlns:xlink="http://www.w3.org/1999/xlink">
 <defs>
  <linearGradient id="b" x1="408.25" x2="407.94" y1="547.6" y2="498.89" gradientTransform="matrix(1.3276 0 0 1.3276 -510.64 -663.52)" gradientUnits="userSpaceOnUse">
   <stop stop-color="#fff" offset="0"/>
   <stop stop-color="#e6e6e6" offset="1"/>
  </linearGradient>
  <filter id="d" x="-.058883" y="-.061161" width="1.1178" height="1.1223" color-interpolation-filters="sRGB">
   <feGaussianBlur stdDeviation="10.562379"/>
  </filter>
  <filter id="c" x="-.036" y="-.036" width="1.072" height="1.072" color-interpolation-filters="sRGB">
   <feGaussianBlur stdDeviation="0.88972449"/>
  </filter>
  <linearGradient id="f" x1="215.09" x2="215.09" y1="265.75" y2="512" gradientUnits="userSpaceOnUse">
   <stop stop-color="#0f8dd3" offset="0"/>
   <stop stop-color="#32d2f0" offset="1"/>
  </linearGradient>
  <linearGradient id="e" x1="14.316" x2="14.316" y1="-51.066" y2="282.85" gradientUnits="userSpaceOnUse">
   <stop stop-color="#2ba5f7" offset="0"/>
   <stop stop-color="#5dcff9" offset="1"/>
  </linearGradient>
  <linearGradient id="a" x1="351.51" x2="351.51" y1="178.08" y2="256.45" gradientUnits="userSpaceOnUse">
   <stop stop-color="#0f8dd3" offset="0"/>
   <stop stop-color="#32a8f0" offset="1"/>
  </linearGradient>
  <filter id="g" x="-.038848" y="-.033541" width="1.0777" height="1.0671" color-interpolation-filters="sRGB">
   <feGaussianBlur stdDeviation="0.65135228"/>
  </filter>
 </defs>
 <rect transform="matrix(1.0115 0 0 1.0115 -389.32 -489.92)" x="386.85" y="486.31" width="59.315" height="59.315" ry="29.657" filter="url(#c)" opacity=".25"/>
 <rect x="1.9826" y="1.9784" width="59.997" height="59.997" ry="29.998" fill="url(#b)" stroke-width="1.0115"/>
 <g transform="matrix(.097656 0 0 .097656 30.093 29.378)">
  <path transform="matrix(10.24 0 0 10.24 -308.15 -300.83)" d="m37.492 10.393c-0.25016-0.002312-0.48994 0.14268-0.5957 0.38672-0.14111 0.3252 0.008594 0.70459 0.33398 0.8457 6.5099 2.8236 11.092 8.6445 12.508 15.377-0.86356-0.17284-1.8978-0.58291-2.8555-1.5527 0 0-0.8583-0.72441-2.1445-0.97461-0.40606-0.079492-0.85547-0.10957-1.332-0.05664-1.6683 0.18574-3.6892 1.4065-5.4883 5.2695-0.00459 0.007813-0.00752 0.014844-0.011719 0.023438 0-1e-6 -4.0856-3.6062-8.4023-3.6328-2.7989-0.016699-6.8897 1.4184-11.135 1.3594-2.3041-0.03291-4.6524-0.50654-6.8672-1.8906 0 0-0.21865 1.4017-0.089844 3.457 0.032618 0.5459 0.092188 1.1373 0.18555 1.7598 0.13682 0.9167 0.35088 1.9028 0.67188 2.9121 0.038965 0.12129 0.077832 0.24375 0.11914 0.36524 0.18398 0.53623 0.39814 1.0764 0.65039 1.6172h0.001954c0.40801 0.87539 0.90957 1.7481 1.5293 2.5898 0.38867 0.52598 0.82334 1.0416 1.3086 1.5371 0.82647 0.84668 1.801 1.6393 2.9512 2.3418 0.58291 0.35703 1.2122 0.69092 1.8887 0.99805 0.86094 0.38926 1.7987 0.73525 2.8223 1.0254 0.74024 0.21201 1.5255 0.39482 2.3555 0.54492 0.44863 0.082715 0.91123 0.15371 1.3867 0.2168 0 0-0.011133 0.013184-0.029297 0.03711-0.026172 0.031836-0.068652 0.086328-0.12891 0.1582-0.041602 0.051269-0.092285 0.11094-0.15039 0.17969-0.86367 1.0054-3.4824 3.7746-7.0449 4.9805-0.79531 0.26904-1.1473 1.1961-0.73438 1.9277 0.99824 1.7701 3.2447 4.4705 7.7598 4.8008 0.64678 0.046777 1.2395-0.36904 1.4004-0.99805 0.36602-1.4325 1.3666-4.0965 4.0078-6.2461 0.18408-0.1498 0.38516-0.27207 0.59961-0.36523 0.33945-0.14756 0.71006-0.22305 1.0859-0.2207 3.7872 0.023632 7.1937-1.4604 9.6934-3.8594 3.0628-2.9389 4.7675-7.2529 4.1562-11.854-0.27362-2.0627 0.53743-4.0586 2.0469-5.3633 0.24283 1.5471 0.3265 3.1347 0.2207 4.7402-0.02334 0.35381 0.2458 0.6583 0.59961 0.68164 0.014355 8.79e-4 0.028711 0.001953 0.042969 0.001953 0.33525 0 0.61621-0.26025 0.63867-0.59961 0.12546-1.9042 0.001077-3.7827-0.33398-5.6055 0.12342-0.064118 0.23818-0.14118 0.36719-0.19727 0.043261-0.01875 0.087207-0.034863 0.13086-0.052734 0 0-0.20968 0.038221-0.53906 0.054687-1.4066-7.2914-6.3122-13.622-13.33-16.666-0.081275-0.035279-0.16661-0.053917-0.25-0.054688z" filter="url(#g)" opacity=".15"/>
  <g transform="translate(-236.47 -229.15)" fill="#9ad14b" stroke-width="10.24">
   <path d="m463.54 92.045c10.794 27.673-2.893 58.873-30.566 69.667-2.51-6.419-3.694-13.03-3.694-19.533 0-21.516 12.994-41.838 34.26-50.134z"/>
   <path d="m367.02 0c22.437 19.485 24.84 53.458 5.355 75.895-12.253-10.639-18.529-25.605-18.529-40.655 0-12.504 4.34-25.055 13.174-35.24z"/>
   <path d="m399.8 115.82c-22.473 19.425-56.446 16.963-75.883-5.511 10.173-8.786 22.689-13.101 35.156-13.101 15.086 0 30.088 6.312 40.727 18.612z"/>
  </g>
  <path d="m212.12 42.345c-0.146 0-0.292-5e-3 -0.439-0.014-3.623-0.239-6.367-3.37-6.128-6.993 6.119-92.856-47.114-180.11-132.46-217.13-3.332-1.445-4.86-5.317-3.415-8.647 1.444-3.332 5.318-4.86 8.647-3.415 90.43 39.223 146.83 131.68 140.35 230.06-0.23 3.475-3.122 6.141-6.555 6.141z" fill="#b27214" stroke-width="10.24"/>
  <path d="m220.34-23.761c-0.447 0.183-0.895 0.366-1.338 0.558-25.302 11-40.322 37.465-36.678 64.935 6.259 47.11-11.201 91.282-42.564 121.38-25.597 24.566-60.465 39.76-99.246 39.518-3.849-0.024-7.646 0.748-11.122 2.259-2.196 0.954-4.263 2.204-6.148 3.738-27.046 22.012-37.297 49.296-41.045 63.965-1.648 6.441-7.709 10.702-14.332 10.223-46.234-3.382-69.237-31.038-79.459-49.164-4.228-7.492-0.629-16.982 7.515-19.737 36.48-12.348 63.295-40.71 72.139-51.005 0.595-0.704 1.124-1.32 1.55-1.845 0.617-0.736 1.054-1.29 1.322-1.616 0.186-0.245 0.285-0.369 0.285-0.369-4.869-0.646-9.604-1.385-14.198-2.232-8.499-1.537-16.525-3.409-24.105-5.58-10.481-2.971-20.098-6.515-28.914-10.501-6.927-3.145-13.364-6.563-19.333-10.219-11.778-7.194-21.762-15.296-30.225-23.966-4.969-5.074-9.407-10.356-13.387-15.742-6.346-8.619-11.497-17.559-15.675-26.523l-5e-3 -0.01c-2.583-5.538-4.777-11.069-6.661-16.56-0.423-1.244-0.838-2.492-1.237-3.734-3.287-10.335-5.463-20.428-6.864-29.815-0.956-6.374-1.565-12.431-1.899-18.021-1.319-21.047 0.912-35.409 0.912-35.409 22.679 14.173 46.736 19.025 70.33 19.362 43.469 0.604 85.358-14.084 114.02-13.913 44.203 0.273 86.023 37.203 86.023 37.203 0.043-0.088 0.077-0.173 0.124-0.253 18.423-39.557 39.128-52.058 56.211-53.96 4.88-0.542 9.469-0.219 13.627 0.595l0.01-5e-3c13.171 2.562 21.952 9.971 21.952 9.971 21.962 22.24 48.416 16.476 48.416 16.476z" fill="url(#e)" stroke-width="10.24"/>
  <g transform="translate(-236.47 -229.15)" stroke-width="10.24">
   <path d="m386.43 178.94c-0.877 0.218-45.97 11.979-40.997 77.511l-28.841-24.148c18.423-39.557 39.128-52.058 56.211-53.96 4.88-0.54 9.468-0.217 13.627 0.597z" fill="url(#a)"/>
   <path d="m223.68 389.14c62.665-10.605 113.43-30.388 96.702-67.226-36.504-80.41-245.74-51.793-266.43-48.753 15.366 48.267 55.003 102.04 153.74 115.07 0 0-0.098 0.124-0.285 0.369-0.268 0.328-0.705 0.881-1.322 1.616-6.808 8.218-34.782 39.707-73.782 52.883-8.112 2.741-11.626 12.247-7.422 19.706 10.221 18.129 33.226 45.779 79.456 49.159 6.622 0.484 12.688-3.782 14.33-10.216 3.748-14.677 14.003-41.958 41.045-63.968 4.865-3.96 10.998-6.037 17.271-5.998 38.781 0.243 73.65-14.952 99.246-39.518-70.504 26.127-142.45 0.71-152.55-3.125z" fill="url(#f)"/>
  </g>
  <g transform="translate(-236.47 -229.15)" fill="#0569a0" stroke-width="10.24">
   <path d="m116.44 246.69c-0.023 3.287-2.005 6.104-4.84 7.337-1.004 0.436-2.098 0.666-3.257 0.667-24.815-0.157-46.749-6.131-61.254-11.355-0.956-6.374-1.565-12.431-1.899-18.021 3.391 1.394 7.679 3.017 12.675 4.65 13.037 4.247 30.949 8.505 50.583 8.62 4.433 0.026 8.023 3.652 7.992 8.102z"/>
   <path d="m120.65 279.59c1.301 3.988-0.663 8.248-4.434 9.887-0.226 0.098-0.467 0.191-0.716 0.264-14.064 4.593-36.177 4.643-53.648 3.716l-5e-3 -0.01c-2.583-5.538-4.777-11.069-6.661-16.56 18.042 1.298 42.274 1.813 55.311-2.449 4.234-1.382 8.774 0.929 10.153 5.152z"/>
   <path d="m130.24 327.21c-0.95 0.507-1.941 0.973-2.975 1.423-10.485 4.558-24.417 6.413-36.353 7.095-4.969-5.074-9.407-10.356-13.387-15.742 12.937 0.03 31.771-1.1 43.192-6.065 0.718-0.312 1.409-0.636 2.067-0.98 3.957-2.072 8.808-0.528 10.86 3.414 2.064 3.937 0.538 8.802-3.404 10.855z"/>
   <path d="m163.49 358.26c-4.183 3.141-10.072 6.181-16.392 8.93-2.176 0.946-4.403 1.855-6.622 2.727-6.927-3.145-13.364-6.563-19.333-10.219 11.649-3.847 25.984-9.295 32.687-14.316 3.556-2.671 8.6-1.947 11.27 1.609s1.948 8.598-1.61 11.269z"/>
   <path d="m208.75 375.53c-3.244 3.201-9.139 6.981-15.258 10.461-8.499-1.537-16.525-3.409-24.105-5.58 9.887-4.802 23.963-12.303 28.05-16.339 3.168-3.133 8.267-3.09 11.386 0.072 3.127 3.159 3.094 8.253-0.073 11.386z"/>
  </g>
  <circle cx="142.61" cy="-9.1524" r="8.051" fill="#4d4d4d" stroke-width="10.24"/>
 </g>
</svg>
