<svg xmlns="http://www.w3.org/2000/svg" width="64" height="64"><defs><linearGradient id="b" x1="408.25" x2="407.94" y1="547.6" y2="498.89" gradientTransform="translate(-510.64 -663.52)scale(1.3276)" gradientUnits="userSpaceOnUse"><stop offset="0" stop-color="#fff"/><stop offset="1" stop-color="#e6e6e6"/></linearGradient><linearGradient id="f" x1="215.09" x2="215.09" y1="265.75" y2="512" gradientUnits="userSpaceOnUse"><stop offset="0" stop-color="#0f8dd3"/><stop offset="1" stop-color="#32d2f0"/></linearGradient><linearGradient id="d" x1="14.316" x2="14.316" y1="-51.066" y2="282.85" gradientUnits="userSpaceOnUse"><stop offset="0" stop-color="#2ba5f7"/><stop offset="1" stop-color="#5dcff9"/></linearGradient><linearGradient id="e" x1="351.51" x2="351.51" y1="178.08" y2="256.45" gradientUnits="userSpaceOnUse"><stop offset="0" stop-color="#0f8dd3"/><stop offset="1" stop-color="#32a8f0"/></linearGradient><filter id="a" width="1.072" height="1.072" x="-.036" y="-.036" color-interpolation-filters="sRGB"><feGaussianBlur stdDeviation=".89"/></filter><filter id="c" width="1.078" height="1.067" x="-.039" y="-.034" color-interpolation-filters="sRGB"><feGaussianBlur stdDeviation=".651"/></filter></defs><rect width="59.315" height="59.315" x="386.85" y="486.31" filter="url(#a)" opacity=".25" ry="29.657" transform="translate(-389.32 -489.92)scale(1.0115)"/><rect width="59.997" height="59.997" x="1.983" y="1.978" fill="url(#b)" ry="29.998"/><g transform="translate(30.093 29.378)scale(.09766)"><path d="M37.492 10.393a.643.643 0 0 0-.262 1.232c6.51 2.824 11.092 8.645 12.508 15.377a5.44 5.44 0 0 1-2.855-1.552s-.859-.725-2.145-.975a4.4 4.4 0 0 0-1.332-.057c-1.668.186-3.689 1.407-5.488 5.27l-.012.023s-4.085-3.606-8.402-3.632c-2.799-.017-6.89 1.418-11.135 1.359-2.304-.033-4.652-.507-6.867-1.89 0 0-.219 1.401-.09 3.456.033.546.092 1.138.185 1.76.137.917.351 1.903.672 2.912l.12.366q.273.805.65 1.617h.002c.408.875.91 1.748 1.53 2.59q.58.791 1.308 1.537a15 15 0 0 0 2.95 2.341q.875.537 1.89.998c.86.39 1.798.736 2.822 1.026q1.11.319 2.355.545a28 28 0 0 0 1.387.217l-.03.037-.128.158-.15.18c-.864 1.005-3.483 3.774-7.045 4.98a1.34 1.34 0 0 0-.735 1.928c.998 1.77 3.245 4.47 7.76 4.8a1.34 1.34 0 0 0 1.4-.997 11.9 11.9 0 0 1 4.008-6.247q.277-.225.6-.365c.34-.147.71-.223 1.086-.22a13.8 13.8 0 0 0 9.693-3.86c3.063-2.939 4.768-7.253 4.156-11.854a6.04 6.04 0 0 1 2.047-5.363c.243 1.547.327 3.135.221 4.74a.64.64 0 0 0 .6.682l.043.002a.64.64 0 0 0 .638-.6 22.7 22.7 0 0 0-.334-5.605c.124-.065.238-.142.367-.198l.131-.052s-.21.038-.539.054c-1.406-7.291-6.312-13.622-13.33-16.666a.7.7 0 0 0-.25-.054" filter="url(#c)" opacity=".15" transform="translate(-308.15 -300.83)scale(10.24)"/><path fill="#9ad14b" d="M227.07-137.105c10.794 27.673-2.893 58.873-30.566 69.667a53.5 53.5 0 0 1-3.694-19.533c0-21.516 12.994-41.838 34.26-50.134m-96.52-92.045c22.437 19.485 24.84 53.458 5.355 75.895-12.253-10.639-18.529-25.605-18.529-40.655 0-12.504 4.34-25.055 13.174-35.24m32.78 115.82c-22.473 19.425-56.446 16.963-75.883-5.511 10.173-8.786 22.689-13.101 35.156-13.101 15.086 0 30.088 6.312 40.727 18.612"/><path fill="#b27214" d="M212.12 42.345a6.575 6.575 0 0 1-6.567-7.007c6.119-92.856-47.114-180.11-132.46-217.13a6.573 6.573 0 0 1-3.415-8.647 6.573 6.573 0 0 1 8.647-3.415c90.43 39.223 146.83 131.68 140.35 230.06a6.577 6.577 0 0 1-6.555 6.141z"/><path fill="url(#d)" d="M220.34-23.761c-.447.183-.895.366-1.338.558-25.302 11-40.322 37.465-36.678 64.935 6.259 47.11-11.201 91.282-42.564 121.38-25.597 24.566-60.465 39.76-99.246 39.518a27.5 27.5 0 0 0-11.122 2.259 26.4 26.4 0 0 0-6.148 3.738c-27.046 22.012-37.297 49.296-41.045 63.965-1.648 6.441-7.709 10.702-14.332 10.223-46.234-3.382-69.237-31.038-79.459-49.164-4.228-7.492-.629-16.982 7.515-19.737 36.48-12.348 63.295-40.71 72.139-51.005.595-.704 1.124-1.32 1.55-1.845.617-.736 1.054-1.29 1.322-1.616.186-.245.285-.369.285-.369a285 285 0 0 1-14.198-2.232c-8.499-1.537-16.525-3.409-24.105-5.58-10.481-2.971-20.098-6.515-28.914-10.501-6.927-3.145-13.364-6.563-19.333-10.219-11.778-7.194-21.762-15.296-30.225-23.966a149 149 0 0 1-13.387-15.742c-6.346-8.619-11.497-17.559-15.675-26.523l-.005-.01a168 168 0 0 1-6.661-16.56 233 233 0 0 1-1.237-3.734c-3.287-10.335-5.463-20.428-6.864-29.815a204 204 0 0 1-1.899-18.021c-1.319-21.047.912-35.409.912-35.409 22.679 14.173 46.736 19.025 70.33 19.362 43.469.604 85.358-14.084 114.02-13.913 44.203.273 86.023 37.203 86.023 37.203.043-.088.077-.173.124-.253 18.423-39.557 39.128-52.058 56.211-53.96 4.88-.542 9.469-.219 13.627.595l.01-.005c13.171 2.562 21.952 9.971 21.952 9.971 21.962 22.24 48.416 16.476 48.416 16.476z"/><g stroke-width="10.24"><path fill="url(#e)" d="M386.43 178.94c-.877.218-45.97 11.979-40.997 77.511l-28.841-24.148c18.423-39.557 39.128-52.058 56.211-53.96 4.88-.54 9.468-.217 13.627.597" transform="translate(-236.47 -229.15)"/><path fill="url(#f)" d="M223.68 389.14c62.665-10.605 113.43-30.388 96.702-67.226-36.504-80.41-245.74-51.793-266.43-48.753 15.366 48.267 55.003 102.04 153.74 115.07 0 0-.098.124-.285.369-.268.328-.705.881-1.322 1.616-6.808 8.218-34.782 39.707-73.782 52.883-8.112 2.741-11.626 12.247-7.422 19.706 10.221 18.129 33.226 45.779 79.456 49.159 6.622.484 12.688-3.782 14.33-10.216 3.748-14.677 14.003-41.958 41.045-63.968 4.865-3.96 10.998-6.037 17.271-5.998 38.781.243 73.65-14.952 99.246-39.518-70.504 26.127-142.45.71-152.55-3.125z" transform="translate(-236.47 -229.15)"/></g><path fill="#0569a0" d="M-120.03 17.54a8.06 8.06 0 0 1-4.84 7.337 8.1 8.1 0 0 1-3.257.667c-24.815-.157-46.749-6.131-61.254-11.355a204 204 0 0 1-1.899-18.021 184 184 0 0 0 12.675 4.65c13.037 4.247 30.949 8.505 50.583 8.62 4.433.026 8.023 3.652 7.992 8.102m4.21 32.9a8.05 8.05 0 0 1-4.434 9.887 6 6 0 0 1-.716.264c-14.064 4.593-36.177 4.643-53.648 3.716l-.005-.01a168 168 0 0 1-6.661-16.56c18.042 1.298 42.274 1.813 55.311-2.449a8.05 8.05 0 0 1 10.153 5.152m9.59 47.62c-.95.507-1.941.973-2.975 1.423-10.485 4.558-24.417 6.413-36.353 7.095a149 149 0 0 1-13.387-15.742c12.937.03 31.771-1.1 43.192-6.065a32 32 0 0 0 2.067-.98 8.03 8.03 0 0 1 10.86 3.414 8.034 8.034 0 0 1-3.404 10.855m33.25 31.05c-4.183 3.141-10.072 6.181-16.392 8.93a202 202 0 0 1-6.622 2.727c-6.927-3.145-13.364-6.563-19.333-10.219 11.649-3.847 25.984-9.295 32.687-14.316 3.556-2.671 8.6-1.947 11.27 1.609s1.948 8.598-1.61 11.269m45.26 17.27c-3.244 3.201-9.139 6.981-15.258 10.461-8.499-1.537-16.525-3.409-24.105-5.58 9.887-4.802 23.963-12.303 28.05-16.339a8.045 8.045 0 0 1 11.386.072c3.127 3.159 3.094 8.253-.073 11.386"/><circle cx="142.61" cy="-9.152" r="8.051" fill="#4d4d4d"/></g></svg>