<svg xmlns="http://www.w3.org/2000/svg" width="64" height="64"><defs><filter id="a" width="1.072" height="1.072" x="-.036" y="-.036" color-interpolation-filters="sRGB"><feGaussianBlur stdDeviation=".42"/></filter><filter id="c" width="1.12" height="1.12" x="-.06" y="-.06" color-interpolation-filters="sRGB"><feGaussianBlur stdDeviation=".992"/></filter><linearGradient id="b" x1="399.99" x2="399.99" y1="545.14" y2="518.14" gradientTransform="translate(-826.36 -1107.5) scale(2.1429)" gradientUnits="userSpaceOnUse"><stop offset="0" stop-color="#197ff1"/><stop offset="1" stop-color="#21c6fb"/></linearGradient></defs><circle cx="400.57" cy="531.8" r="14" filter="url(#a)" opacity=".25" transform="translate(-826.36 -1107.5) scale(2.1429)"/><g stroke-width="1.571"><circle cx="32.02" cy="32.044" r="30.001" fill="url(#b)"/><circle cx="32.02" cy="32.044" r="30.001" fill="none"/></g><path d="M32 12.17c-.723 0-1.446.276-2 .83l-6.076 6.076V35.23l16.152-16.154L34 13a2.819 2.819 0 0 0-2-.83zm12.924 11.754L36.846 32l8.078 8.076L51 34a2.822 2.822 0 0 0 0-4l-6.076-6.076zm-27.463 1.615L13.001 30a2.822 2.822 0 0 0 0 4l4.46 4.461V25.539zM32 36.846l-8.076 8.078L30 51.001a2.822 2.822 0 0 0 4 0l6.076-6.077L32 36.846z" filter="url(#c)" opacity=".25"/><path fill="#fff" d="M32 12.17c-.723 0-1.446.276-2 .83l-6.076 6.076V35.23l16.152-16.154L34 13a2.819 2.819 0 0 0-2-.83zm12.924 11.754L36.846 32l8.078 8.076L51 34a2.822 2.822 0 0 0 0-4l-6.076-6.076zm-27.463 1.615L13.001 30a2.822 2.822 0 0 0 0 4l4.46 4.461V25.539zM32 36.846l-8.076 8.078L30 51.001a2.822 2.822 0 0 0 4 0l6.076-6.077L32 36.846z"/></svg>