<?xml version="1.0" encoding="UTF-8"?>
<svg width="64" height="64" version="1.1" xmlns="http://www.w3.org/2000/svg" xmlns:cc="http://creativecommons.org/ns#" xmlns:dc="http://purl.org/dc/elements/1.1/" xmlns:rdf="http://www.w3.org/1999/02/22-rdf-syntax-ns#">
 <metadata>
  <rdf:RDF>
   <cc:Work rdf:about="">
    <dc:format>image/svg+xml</dc:format>
    <dc:type rdf:resource="http://purl.org/dc/dcmitype/StillImage"/>
    <dc:title/>
   </cc:Work>
  </rdf:RDF>
 </metadata>
 <defs>
  <linearGradient id="b" x1="399.57" x2="399.57" y1="545.8" y2="517.8" gradientTransform="matrix(2.1429 0 0 2.1429 -826.36 -1107.5)" gradientUnits="userSpaceOnUse">
   <stop stop-color="#3889e9" offset="0"/>
   <stop stop-color="#5ea5fb" offset="1"/>
  </linearGradient>
  <linearGradient id="a" x1="399.99" x2="399.99" y1="545.14" y2="518.14" gradientTransform="matrix(2.1429 0 0 2.1429 -826.36 -1107.5)" gradientUnits="userSpaceOnUse">
   <stop stop-color="#197ff1" offset="0"/>
   <stop stop-color="#21c6fb" offset="1"/>
  </linearGradient>
  <filter id="c" x="-.036" y="-.036" width="1.072" height="1.072" color-interpolation-filters="sRGB">
   <feGaussianBlur stdDeviation="0.41999874"/>
  </filter>
  <filter id="filter878" x="-.059999" y="-.060001" width="1.12" height="1.12" color-interpolation-filters="sRGB">
   <feGaussianBlur stdDeviation="0.99153842"/>
  </filter>
 </defs>
 <circle transform="matrix(2.1429 0 0 2.1429 -826.36 -1107.5)" cx="400.57" cy="531.8" r="14" filter="url(#c)" opacity=".25" stroke-width=".73333"/>
 <g stroke-width="1.5715">
  <circle cx="32.02" cy="32.044" r="30.001" fill="url(#a)"/>
  <circle cx="32.02" cy="32.044" r="30.001" fill-opacity="0"/>
  <circle cx="32.02" cy="32.044" r="0" fill="url(#b)"/>
 </g>
 <path d="m32 12.17c-0.723 0-1.446 0.27608-2 0.83008l-6.0762 6.0762v16.154l16.152-16.154-6.0762-6.0762c-0.554-0.554-1.277-0.83008-2-0.83008zm12.924 11.754-8.0781 8.0762 8.0781 8.0762 6.0762-6.0762c1.108-1.108 1.108-2.892 0-4l-6.0762-6.0762zm-27.463 1.6152-4.4609 4.4609c-1.108 1.108-1.108 2.892 0 4l4.4609 4.4609v-12.922zm14.539 11.307-8.0762 8.0781 6.0762 6.0762c1.108 1.108 2.892 1.108 4 0l6.0762-6.0762-8.0762-8.0781z" filter="url(#filter878)" opacity=".25" stroke-width="1.6154"/>
 <path d="m32 12.17c-0.723 0-1.446 0.27608-2 0.83008l-6.0762 6.0762v16.154l16.152-16.154-6.0762-6.0762c-0.554-0.554-1.277-0.83008-2-0.83008zm12.924 11.754-8.0781 8.0762 8.0781 8.0762 6.0762-6.0762c1.108-1.108 1.108-2.892 0-4l-6.0762-6.0762zm-27.463 1.6152-4.4609 4.4609c-1.108 1.108-1.108 2.892 0 4l4.4609 4.4609v-12.922zm14.539 11.307-8.0762 8.0781 6.0762 6.0762c1.108 1.108 2.892 1.108 4 0l6.0762-6.0762-8.0762-8.0781z" fill="#fff" stroke-width="1.6154"/>
</svg>
