<svg xmlns="http://www.w3.org/2000/svg" width="64" height="64" enable-background="new 0 0 1024 1024" image-rendering="optimizeSpeed"><defs><filter id="a" width="1.072" height="1.072" x="-.036" y="-.036" color-interpolation-filters="sRGB"><feGaussianBlur stdDeviation="14.16"/></filter><filter id="c" width="1.077" height="1.067" x="-.039" y="-.034" color-interpolation-filters="sRGB"><feGaussianBlur stdDeviation=".42"/></filter><linearGradient id="b" x1="19.751" x2="18.792" y1="2.925" y2="58.151" gradientTransform="translate(11.135 -1.478)scale(1.0827)" gradientUnits="userSpaceOnUse"><stop offset="0" stop-color="#ff4949"/><stop offset="1" stop-color="#ff4c83"/></linearGradient></defs><path d="M966.1 378.45c-2.5-8.75-5.35-17.6-8.45-26.35-6.45-18.25-14.15-36.05-23.15-53.65-3.8-7.4-7.95-14.95-12.3-22.4-20.3-34.5-45.8-67.2-76.35-97.75C773.25 105.7 688.7 61.65 592.2 46.25c-16.25-2.6-32.8-4.4-50.05-5.35-9.7-.55-19.85-.85-30.1-.85-9.35 0-18.6.25-27.9.75-118.35 6.1-220.3 51.95-305.85 137.5Q40.05 316.55 40.05 512.05c0 130.35 46.1 241.65 138.25 333.8 85.55 85.5 187.5 131.35 305.85 137.5h.4c8.5.45 16.6.7 24.5.7h8.45c8.55-.1 16.8-.4 24.65-.8 2.5-.15 4.75-.3 6.95-.45 20.2-1.45 39.9-4.05 58.7-7.7 7.95-1.55 15.8-3.3 23.4-5.15 80.8-20.3 152.15-61.6 214.65-124.1 48.6-48.6 84.4-102.5 107.35-161.8 16.6-42.9 26.55-88.65 29.75-137.45.35-5.2.6-10.6.8-16.05.2-6.05.3-12.25.3-18.5v-3c-.2-40.65-4.95-79.5-14.3-117-1.1-4.35-2.35-9-3.65-13.6" filter="url(#a)" opacity=".25" transform="translate(-.546 -.546)scale(.06356)"/><circle cx="32" cy="32" r="30" fill="url(#b)" style="paint-order:stroke markers fill"/><g transform="translate(8 6.998)"><rect width="26" height="30.002" x="15" y="14" filter="url(#c)" opacity=".25" rx="1.999" ry="1.999" style="paint-order:markers stroke fill"/><path fill="#e3e9e3" d="M17 13.999c-1.108 0-2 .892-2 2v26.004c0 1.108.892 2 2 2h22c1.108 0 2-.892 2-2V15.999c0-1.108-.892-2-2-2zm1.002 1.996a1 1 0 0 1 1 1.002 1 1 0 0 1-1 1.002A1 1 0 0 1 17 16.997a1 1 0 0 1 1.002-1.002m0 6.002a1 1 0 0 1 1 1.002 1 1 0 0 1-1 1.002A1 1 0 0 1 17 23a1 1 0 0 1 1.002-1.002zm0 5.998a1 1 0 0 1 1 1.002 1 1 0 0 1-1 1.002A1 1 0 0 1 17 28.997a1 1 0 0 1 1.002-1.002m0 6.002a1 1 0 0 1 1 1.002 1 1 0 0 1-1 1.002A1 1 0 0 1 17 35a1 1 0 0 1 1.002-1.002zm0 5.998a1 1 0 0 1 1 1.002 1 1 0 0 1-1 1.002A1 1 0 0 1 17 40.997a1 1 0 0 1 1.002-1.002" style="paint-order:markers stroke fill"/><path fill="#59bf4a" d="M15 19h26.004v.998H15zm0 5.998h26.004V26H15zM15 31h26.004v.998H15zm0 5.998h26.004V38H15z" opacity=".25" style="paint-order:markers stroke fill"/></g><rect width="26" height="30.002" x="15" y="14" filter="url(#c)" opacity=".25" rx="1.999" ry="1.999" style="paint-order:markers stroke fill"/><path fill="#fff" d="M17 13.999c-1.108 0-2 .892-2 2v26.004c0 1.108.892 2 2 2h22c1.108 0 2-.892 2-2V15.999c0-1.108-.892-2-2-2zm1.002 1.996a1 1 0 0 1 1 1.002 1 1 0 0 1-1 1.002A1 1 0 0 1 17 16.997a1 1 0 0 1 1.002-1.002m0 6.002a1 1 0 0 1 1 1.002 1 1 0 0 1-1 1.002A1 1 0 0 1 17 23a1 1 0 0 1 1.002-1.002zm0 5.998a1 1 0 0 1 1 1.002 1 1 0 0 1-1 1.002A1 1 0 0 1 17 28.997a1 1 0 0 1 1.002-1.002m0 6.002a1 1 0 0 1 1 1.002 1 1 0 0 1-1 1.002A1 1 0 0 1 17 35a1 1 0 0 1 1.002-1.002zm0 5.998a1 1 0 0 1 1 1.002 1 1 0 0 1-1 1.002A1 1 0 0 1 17 40.997a1 1 0 0 1 1.002-1.002" style="paint-order:markers stroke fill"/><path fill="#d24c37" d="M15 19h26.004v.998H15zm0 5.998h26.004V26H15zM15 31h26.004v.998H15zm0 5.998h26.004V38H15z" opacity=".15" style="paint-order:markers stroke fill"/></svg>