<svg width="64" height="64" version="1.1" xmlns="http://www.w3.org/2000/svg" xmlns:xlink="http://www.w3.org/1999/xlink">
 <defs>
  <linearGradient id="b" x1="399.57" x2="399.57" y1="545.8" y2="517.8" gradientTransform="matrix(2.1429,0,0,2.1429,-826.36,-1107.5)" gradientUnits="userSpaceOnUse">
   <stop stop-color="#3889e9" offset="0"/>
   <stop stop-color="#5ea5fb" offset="1"/>
  </linearGradient>
  <filter id="c" x="-.036" y="-.036" width="1.072" height="1.072" color-interpolation-filters="sRGB">
   <feGaussianBlur stdDeviation="0.41999874"/>
  </filter>
  <linearGradient id="g" x1="3.242" x2="40" y1="15.778" y2="37" gradientTransform="matrix(-1.1596 -.31071 .31071 -1.1596 52.375 67.284)" gradientUnits="userSpaceOnUse">
   <stop stop-color="#b0b8b8" offset="0"/>
   <stop stop-color="#eff1f1" offset="1"/>
  </linearGradient>
  <linearGradient id="h" x1="33.405" x2="17.759" y1="32.721" y2="12.32" gradientTransform="translate(8.8135 8.5425)" gradientUnits="userSpaceOnUse">
   <stop stop-color="#197cf1" offset="0"/>
   <stop stop-color="#20bcfa" offset="1"/>
  </linearGradient>
  <filter id="f" x="-.06" y="-.06" width="1.12" height="1.12" color-interpolation-filters="sRGB">
   <feGaussianBlur stdDeviation="0.999607"/>
  </filter>
  <linearGradient id="linearGradient881" x1="32.066" x2="32.066" y1="8.002" y2="55.871" gradientTransform="matrix(1.228 0 0 1.228 -469.71 -611.2)" gradientUnits="userSpaceOnUse">
   <stop stop-color="#2e3436" offset="0"/>
   <stop stop-color="#555753" offset="1"/>
  </linearGradient>
 </defs>
 <circle transform="matrix(2.1429 0 0 2.1429 -826.36 -1107.5)" cx="400.57" cy="531.8" r="14" filter="url(#c)" opacity=".25" stroke-width=".73333"/>
 <g stroke-width="1.5715">
  <circle cx="32.02" cy="32.044" r="30.001" fill="url(#linearGradient881)"/>
  <circle cx="32.02" cy="32.044" r="30.001" fill-opacity="0"/>
  <circle cx="32.02" cy="32.044" r="0" fill="url(#b)"/>
 </g>
 <g transform="matrix(1.2005 0 0 1.2005 -7.3916 -7.066)">
  <g transform="translate(8.8135 8.5425)" color="#000000" stroke-linejoin="round" stroke-width="3">
   <path d="m21.952 43.884a20 20 0 0 0 4.0971 0.0059l0.475-3.1a17 17 0 0 0 3.6873-0.98547l1.956 2.441a20 20 0 0 0 3.549-2.0538l-1.135-2.911a17 17 0 0 0 2.7098-2.6952l2.893 1.127a20 20 0 0 0 2.0501-3.5534l-2.422-1.941a17 17 0 0 0 0.60859-1.8185 17 17 0 0 0 0.36937-1.8765l3.094-0.475a20 20 0 0 0 0.0059-4.0971l-3.1-0.475a17 17 0 0 0-0.98547-3.6873l2.441-1.956a20 20 0 0 0-2.0538-3.549l-2.911 1.135a17 17 0 0 0-2.6949-2.7096l1.1271-2.8928a20 20 0 0 0-3.5535-2.0501l-1.9395 2.4221a17 17 0 0 0-1.8201-0.60874 17 17 0 0 0-1.8765-0.36937l-0.47338-3.0939a20 20 0 0 0-4.0971-0.00591l-0.47694 3.0999a17 17 0 0 0-3.687 0.98574l-1.956-2.4407a20 20 0 0 0-3.549 2.0538l1.135 2.911a17 17 0 0 0-2.7098 2.6952l-2.8932-1.128a20 20 0 0 0-2.0501 3.5534l2.422 1.941a17 17 0 0 0-0.60859 1.8185 17 17 0 0 0-0.36937 1.8765l-3.094 0.475a20 20 0 0 0-0.00591 4.0971l3.1 0.475a17 17 0 0 0 0.98548 3.6873l-2.441 1.956a20 20 0 0 0 2.0538 3.549l2.911-1.135a17 17 0 0 0 2.6952 2.7098l-1.127 2.893a20 20 0 0 0 3.5534 2.0501l1.941-2.422a17 17 0 0 0 1.8185 0.60859 17 17 0 0 0 1.8765 0.36937zm-1.5754-6.3608a14 14 0 0 1-9.8995-17.146 14 14 0 0 1 17.146-9.8995 14 14 0 0 1 9.8995 17.146 14 14 0 0 1-17.146 9.8995" filter="url(#f)" opacity=".15"/>
   <path transform="matrix(.83299 0 0 .83299 -2.6564 -2.6566)" d="m32.066 8.002a24.01 24.01 0 0 0-2.5234 0.12109l-0.57227 3.7227a20.408 20.408 0 0 0-4.4258 1.1836l-2.3477-2.9316a24.01 24.01 0 0 0-4.2617 2.4668l1.3633 3.4941a20.408 20.408 0 0 0-3.2539 3.2363l-3.4727-1.3555a24.01 24.01 0 0 0-2.4609 4.2656l2.9082 2.332a20.408 20.408 0 0 0-0.73242 2.1816 20.408 20.408 0 0 0-0.44336 2.2539l-3.7129 0.57031a24.01 24.01 0 0 0-0.0078125 4.918l3.7227 0.57031a20.408 20.408 0 0 0 1.1816 4.4258l-2.9297 2.3496a24.01 24.01 0 0 0 2.4648 4.2598l3.4961-1.3633a20.408 20.408 0 0 0 3.2344 3.2539l-1.3535 3.4727a24.01 24.01 0 0 0 4.2676 2.4609l2.3301-2.9062a20.408 20.408 0 0 0 2.1816 0.73047 20.408 20.408 0 0 0 2.2539 0.44336l0.57031 3.7129a24.01 24.01 0 0 0 4.918 0.007812l0.57031-3.7207a20.408 20.408 0 0 0 4.4258-1.1836l2.3496 2.9297a24.01 24.01 0 0 0 4.2598-2.4648l-1.3633-3.4941a20.408 20.408 0 0 0 3.2539-3.2363l3.4727 1.3535a24.01 24.01 0 0 0 2.4609-4.2656l-2.9062-2.3301a20.408 20.408 0 0 0 0.73047-2.1836 20.408 20.408 0 0 0 0.44336-2.2539l3.7129-0.57031a24.01 24.01 0 0 0 0.007812-4.918l-3.7207-0.57031a20.408 20.408 0 0 0-1.1836-4.4258l2.9297-2.3477a24.01 24.01 0 0 0-2.4648-4.2617l-3.4941 1.3633a20.408 20.408 0 0 0-3.2363-3.2539l1.3535-3.4727a24.01 24.01 0 0 0-4.2656-2.4609l-2.3281 2.9082a20.408 20.408 0 0 0-2.1855-0.73047 20.408 20.408 0 0 0-2.252-0.44336l-0.56836-3.7148a24.01 24.01 0 0 0-2.3965-0.12891z" fill="url(#g)" stroke-width="3.6015"/>
  </g>
  <rect x="19.814" y="19.542" width="26" height="26" rx="13" fill="url(#h)"/>
 </g>
 <path d="m31.969 17.007c-1.8956 0-3.7001 0.36074-5.3676 0.99417-0.12126 0.11118-0.27893 0.19653-0.40364 0.18596-0.01759-2e-3 -0.03405-0.01193-0.05205-0.01903-0.82199 0.34305-1.6017 0.76335-2.341 1.2402 0.09602 0.15557 0.12461 0.32876-0.07292 0.41292-0.03314 0.0134-0.45133 0.05629-0.59736 0.05332-2.1025 1.5241-3.789 3.5737-4.8671 5.9664 0.01738-0.0031 0.03231-0.0106 0.05051-0.01113 0.16361-0.0031 0.39907 0.04381 0.55621 0.07727 0.14502 0.02978 0.262 0.12679 0.38752 0.13621 0.35617 0.02713 0.44182-0.24936 0.73239-0.40413 0.30028 0.04196 0.4995-0.05097 0.77062-0.02077 0.18481 0.02077 0.31832 0.21736 0.46234 0.22842 0.12114 0.01193 0.22773-0.11326 0.34494-0.09538 0.11389 0.01792 0.31026 0.26523 0.32879 0.4041 0.02403 0.17283-0.12746 0.32846-0.07762 0.51832 0.18153 0.18438 0.5113 0.22173 0.77058 0.32798 0.1689-0.13884 0.0227-0.39643 0-0.59737-0.0031-0.08874 0.01193-0.16739 0-0.24892-0.01482-0.13839-0.07464-0.26514-0.07557-0.3836-0.0031-0.54702 0.44239-0.80306 0.8102-1.019 0.15921-0.09406 0.28458-0.25911 0.42269-0.32803 0.19514-0.09753 0.34044-0.12029 0.50198-0.21084 0.29195-0.16357 0.54231-0.29485 0.77059-0.48022 0.10534-0.24804 0.0106-0.58064 0.01953-0.82578 0.10546-0.06448 0.19628 0.02773 0.30822 0.01903 0.17612-0.03633 0.19079-0.28458 0.29061-0.38356 0.05778-0.05691 0.21704-0.09723 0.2891-0.15379 0.17557-0.13733 0.23274-0.34485 0.38611-0.40406 0.05502-0.02252 0.18184-0.01525 0.26859-0.03899 0.11408-0.03028 0.27648-0.16479 0.46231-0.22835 0.12112-0.04196 0.39853-0.05055 0.44473-0.09651 0.05696-0.05792-8.04e-4 -0.22064 0.01954-0.30746 0.09337-0.43395 0.74868-0.52591 1.136-0.67206 0.2715-0.10225 0.55003-0.29051 0.84837-0.23283-0.0585 0.20626-0.33628 0.13317-0.2892 0.38363 0.06504 0.34755 0.5316-0.09917 0.6547-0.1508 0.23505-0.09866 0.63818-0.15922 0.94668-0.27088 0.27052-0.09866 0.75549-0.2492 0.50056-0.55782-0.21271-0.01193-0.31518 0.24892-0.50056 0.32795-0.12803 0.02099-0.10335-0.10688-0.21282-0.11706-0.10346-0.01193-0.16197 0.09549-0.26866 0.07696-0.10598-0.0175-0.25492-0.18376-0.2715-0.30745-0.04203-0.32088 0.27186-0.45319 0.40512-0.69258-0.08836-0.29022-0.49065-0.05926-0.73389-0.17273 0.02394-0.17282 0.20269-0.292 0.40508-0.32503 0.16591-0.02772 0.53821-0.0134 0.63703 0.07399 0.05716 0.04922 0.0042 0.16975 0.09673 0.25035 0.09816 0.08874 0.21901 0.07921 0.34645 0.05874 0.04531-0.21903-0.28557-0.16409-0.24953-0.30894 0.26032-0.16987 0.68381-0.03059 1.0025-0.07737 0.18342-0.02722 0.376-0.15618 0.53862-0.24741 0.15463-0.08771 0.3555-0.24041 0.51959-0.09662 0.04357 0.15696-0.14289 0.2089-0.23046 0.28697-0.2948 0.26166-0.5986 0.56141-0.82775 0.8653 0.14055 0.13681 0.39608 0.06785 0.63407 0.09651 0.09295 0.01193 0.2098 0.03929 0.30816 0.05731 0.11516 0.02088 0.23737 0.01422 0.32731 0.03797 0.16194 0.0392 0.20519 0.21231 0.3655 0.21231 0.26365-4.82e-4 0.26679-0.28496 0.11736-0.46269 0.04735-0.18143 0.12112-0.27556 0.05747-0.40265-0.11875-0.23693-0.55445-0.01193-0.57681-0.30746-0.01371-0.19169 0.16077-0.18312 0.23043-0.32648-0.0316-0.37036 0.3045-0.3972 0.26857-0.72917-0.01493-0.13887-0.13293-0.14079-0.23044-0.27088-0.04949-0.06345-0.07383-0.18654-0.13061-0.24158-0.4497-0.0392-0.90448-0.06427-1.365-0.06427zm-7.7556 3.0249h2e-3c0.08988 0.01193 0.19811 0.10888 0.30674 0.11722 0.10241 0.0031 0.18767-0.05671 0.25102-0.03909 0.16112 0.04206 0.22907 0.28512 0.077 0.4041-0.12596 0.01514-0.17508-0.05527-0.27003-0.03808-0.26173 0.0439-0.36214 0.55577-0.55777 0.53884-0.18446-0.01483-0.2843-0.4639-0.09664-0.59736 0.01193-0.1166-0.08559-0.13522-0.07915-0.2504 0.05563-0.07072 0.21366-0.147 0.36694-0.13467zm-0.86743 0.06028c0.05358 2e-3 0.09368 0.01422 0.11448 0.03777-0.02566 0.20491-0.1863 0.19146-0.34493 0.28696-0.27402 0.16494-0.4324 0.41634-0.51959 0.76869-0.02535 0.10224-0.29524 0.3742-0.42564 0.34701-0.3056-0.06417 0.08487-0.62618 0.15411-0.71161 0.07751-0.09466 0.18066-0.17764 0.27153-0.28696 0.08794-0.1058 0.14552-0.24873 0.23044-0.30746 0.09295-0.06406 0.3586-0.14086 0.51959-0.13465zm2.2809 0.69106c0.09777 2e-3 0.18589 0.01781 0.22605 0.05731-0.06279 0.25387-0.61116 0.18685-0.81165 0.09497 0.01193-0.09569 0.16299-0.12217 0.28912-0.13465 0.08897-0.0031 0.1988-0.02088 0.29648-0.01781zm-1.2476 0.46856c0.06504-2e-3 0.13115 0.01193 0.1996 0.0306-0.17734 0.14798-0.36916 0.2318-0.67373 0.32793-0.14643 0.04574-0.39933 0.10303-0.42416-0.06028-0.03037-0.19993 0.21415-0.15343 0.34782-0.17131 0.16838-0.02353 0.3532-0.12106 0.55047-0.12742zm19.141 1.1391c-0.02321 0.05516-0.03907 0.10838-0.03671 0.16102 0.01193 0.09272 0.1138 0.18202 0.13647 0.30751 0.01193 0.06673-0.03129 0.21019 0 0.27087 0.09286 0.17949 0.33562 0.05086 0.50934 0.06028-0.19734-0.27105-0.39441-0.54262-0.60914-0.79939zm0.98487 1.3222c-0.02771 0.13245-0.11786 0.3052-0.19081 0.4158-0.16798 0.25486-0.39615 0.26675-0.63702 0.40263-0.20086 0.11361-0.28735 0.3032-0.4051 0.50075-0.12764 0.21341-0.20668 0.34236-0.15409 0.6516-0.17223 0.34072-0.43297 0.54946-0.78967 0.71155-0.10534 0.04748-0.24961 0.06529-0.3464 0.13465-0.0769 0.05547-0.12084 0.20375-0.23044 0.32648-0.13511 0.15004-0.27682 0.21335-0.34785 0.32798-0.05501 0.08874-0.07363 0.26477-0.135 0.38361-0.08263 0.16147-0.25747 0.24054-0.36555 0.40412-0.04929 0.07543-0.08252 0.22892-0.13644 0.328-0.12216 0.22128-0.33068 0.38072-0.30828 0.57539 0.02259 0.18814 0.23641 0.22107 0.25098 0.38506 0.0031 0.09272-0.06135 0.14941-0.05747 0.25038 0.0031 0.14754 0.10283 0.25109 0.11448 0.36459 0.02884 0.28541-0.09715 0.39932-0.15116 0.59442-0.02566 0.09313-0.01422 0.19812-0.03927 0.2709-0.04797 0.14285-0.247 0.27178-0.251 0.44068-2e-3 0.12008 0.12355 0.21659 0.13364 0.38511 0.0031 0.11633-0.05747 0.24019-0.03641 0.34701 0.0408 0.20914 0.4153 0.45242 0.57833 0.61491 0.21798 0.2175 0.5034 0.3858 0.59737 0.61498 0.07895 0.19459 0.07823 0.44772 0.23045 0.59444 0.11239 0.10826 0.29928 0.17579 0.44326 0.28839 0.13433 0.105 0.28063 0.19594 0.42419 0.30746 0.23454 0.1831 0.58919 0.54796 0.96284 0.51984 0.19516-0.0134 0.39513-0.17308 0.61652-0.21233 0.22768-0.04053 0.52322-0.06181 0.75291-0.03777 0.17596 0.0175 0.35722 0.1226 0.54014 0.11418 0.19314-0.01193 0.41463-0.15473 0.6341-0.25033 0.17658-0.07655 0.39327-0.16167 0.63113-0.22406 0.10914-0.73129 0.16733-1.4806 0.16733-2.2431 0-3.07-0.92023-5.9155-2.4952-8.2871zm-24.859 5.0382c-0.32014 0.0177-0.52985 0.03194-0.71186 0.1142-0.41697 0.18928-0.33644 0.75136-0.75303 0.88435-0.14396 0.04565-0.34181 0.04821-0.50038 0.07706-0.13698 0.02519-0.30374 0.09927-0.44476 0.09641-0.03917-4.81e-4 -0.09459-0.02989-0.14387-0.04472-0.03671 0.26353-0.06749 0.53005-0.09132 0.79791 0.39635 0.07532 0.60089 0.59973 0.95119 0.77307 0.09602 0.0477 0.22132 0.05055 0.34486 0.07748 0.09929 0.02251 0.17549 0.06417 0.2715 0.09671 0.20388 0.06878 0.45347 0.06068 0.61653 0.13331 0.2456 0.10876 0.42577 0.56928 0.63701 0.69255 0.01193 0.12422-0.02465 0.29103 0.01952 0.38357 0.0994 0.13508 0.24064 0.1051 0.40504 0.19327 0.19673 0.1058 0.25694 0.37917 0.44331 0.46268 0.06422 0.02865 0.2256 0.02477 0.32731 0.05598 0.25543 0.07686 0.3388 0.37191 0.55777 0.3075 0.14359-0.04196 0.13225-0.1896 0.15555-0.32654 0.0949-0.10204 0.19847-0.26504 0.34638-0.26793 0.23944-0.01193 0.26078 0.24683 0.34785 0.47878 0.0494 0.13114 0.17779 0.24532 0.21138 0.38362 0.05982 0.23887 0.03007 0.95389-0.02096 1.0967-0.06044 0.17517-0.29815 0.24944-0.44473 0.44365-0.06893 0.09119-0.10185 0.22444-0.15412 0.28844-0.09428 0.11469-0.23465 0.14462-0.30526 0.25038-0.03958 0.05967-0.07864 0.18739-0.11752 0.26792-0.11571 0.24463-0.27052 0.41794-0.17321 0.71159 0.04059 0.12084 0.22995 0.20184 0.23046 0.34406 5.53e-4 0.16738-0.35688 0.31724-0.38452 0.50074-0.02087 0.13654 0.11055 0.38021 0.15406 0.55786 0.0318 0.13426 0.28615 0.21818 0.36551 0.30748 0.13524 0.15148 0.24336 0.36611 0.36692 0.55639 0.24435 0.37426 0.43582 0.83067 0.67373 1.1933 0.12569 0.18993 0.30225 0.36068 0.386 0.55782 0.04254 0.09927 0.03671 0.21808 0.07588 0.30748 0.13766 0.31007 0.74584 0.6338 1.0598 0.78772 0.14688 0.07103 0.30992 0.09662 0.44475 0.17127 0.20423 0.11363 0.60875 0.41876 0.71188 0.59742 0.09203 0.16056 0.14906 0.5514 0.1937 0.80671 0.05993 0.33744 7.02e-4 0.59654 0.01952 0.96196 0.01193 0.19764 0.07506 0.39634 0.07771 0.59447 7.51e-4 0.06918-0.03671 0.12096-0.03947 0.19178-1.13e-4 0.01113 0.0042 0.02477 0.0042 0.03633 1.8929 0.85446 3.9903 1.3411 6.2101 1.3411 0.40106 0 0.79738-0.02108 1.1903-0.05178 0.01769-0.02958 0.03292-0.06037 0.05481-0.08781 0.0907-0.1185 0.17086-0.22224 0.23053-0.32654 0.05696-0.35101-0.14037-0.59618-0.05757-0.90332 0.09214-0.34517 0.57037-0.55592 0.9057-0.71169 0.11522-0.05353 0.23334-0.14017 0.32723-0.17274 0.23208-0.08065 0.5218-0.03653 0.7339-0.11418 0.36108-0.1318 0.39878-0.51816 0.57681-0.84632 0.08437-0.15531 0.19494-0.31099 0.21139-0.42164 0.01422-0.09927-0.03651-0.19305-0.02087-0.31041 0.01727-0.11607 0.1218-0.2165 0.15409-0.34409 0.04203-0.16648 0.06044-0.41042 0.06044-0.59587 0-0.15226-0.07118-0.28581-0.0769-0.42317-0.02515-0.4986 0.18057-0.55439 0.36551-0.82576 0.09287-0.13478 0.12752-0.28848 0.19226-0.3851 0.3105-0.46203 0.84917-0.68511 0.8102-1.3837-0.01193-0.23111-0.15829-0.75347-0.32875-0.82721-0.09746-0.04206-0.32126-0.0031-0.46237-0.05741-0.45548-0.16945-0.72277-0.7327-1.1947-0.76872-0.10052-0.01193-0.19329 0.04115-0.30674 0.03909-0.18679-0.01193-0.46842-0.13048-0.67517-0.15374-0.13144-0.0134-0.30719 0.03867-0.38609 0-0.12021-0.05843-0.13252-0.27958-0.23043-0.34555-0.077-0.05384-0.22863-0.07123-0.3464-0.11706-0.18975-0.07216-0.34024-0.15752-0.55918-0.17273-0.06739-0.0031-0.15174 0.03194-0.23043 0.02088-0.12114-0.02088-0.217-0.16348-0.32874-0.23136-0.14009-0.08536-0.26947-0.1262-0.32735-0.24742 0.12652-0.41404-0.22316-0.52944-0.30826-0.76868-0.0404-0.11213-0.02228-0.24701-0.05757-0.347-0.05062-0.14328-0.1922-0.22603-0.34786-0.34553-0.27886-0.2141-0.52619-0.41512-0.9247-0.46416-0.17521-0.02251-0.349 0.0528-0.5607 0.03909-0.22429-0.0134-0.50593-0.2099-0.67366-0.40119-0.16316-0.18676-0.24248-0.35437-0.3846-0.44364-0.13459-0.08638-0.31323-0.08432-0.4051-0.17129-0.0409-0.03797-0.03354-0.10314-0.07782-0.19331-0.06749-0.13979-0.18133-0.21754-0.09664-0.38504-0.15358-0.0788-0.1578 0.14617-0.32583 0.11706-0.14986-0.21205-0.27634-0.31252-0.61649-0.25036-0.15575 0.02876-0.2427 0.22501-0.42418 0.22992-0.14884 0.01193-0.26578-0.16547-0.46232-0.19333-0.1484-0.02088-0.31715 0.03971-0.42276 0.02046-0.16446-0.03265-0.21522-0.16938-0.36548-0.26795-0.11019-0.07205-0.32423-0.19526-0.38601-0.19326-0.1937 0.01193-0.33172 0.4106-0.59884 0.26944-0.12984-0.16415 0.21144-0.25062 0.05747-0.40419-0.1167-0.11645-0.21483 0.05333-0.30819 0.11722-0.10703 0.07348-0.2076 0.14667-0.32588 0.19034-0.26472 0.09866-0.43015 0.04739-0.637 0.15375-0.19154 0.09876-0.19971 0.26454-0.30822 0.4612-0.08897 0.16109-0.29084 0.39581-0.42421 0.40554-0.16149 0.01193-0.31585-0.22521-0.46232-0.2884-0.44134-0.19072-0.65513 0.16932-1.0215 0.17422-0.34011 0.01193-0.82586-0.54782-0.8088-0.86678 0.0031-0.19457 0.1122-0.48983 0.13501-0.73064 0.02096-0.19147 0.15193-0.30684 0.15417-0.48169 0.0031-0.23347-0.31048-0.41298-0.46241-0.4407-0.36001-0.066-0.85985 0.14452-1.2725-0.02088-0.07854-0.13026 0.09245-0.2203 0.13647-0.347 0.02526-0.07185 0.0106-0.16819 0.03661-0.24745 0.04529-0.12244 0.17433-0.21732 0.23183-0.347 0.04244-0.09876 0.05399-0.24178 0.09664-0.36456 0.05104-0.13982 0.14325-0.2299 0.15415-0.32797 0.0134-0.12949-0.03478-0.27922-0.13656-0.36457zm5.1519 4.0689c0.13064 0.01193 0.14697 0.28142 0.01313 0.3031-0.14411 0.02263-0.21735-0.22544-0.07731-0.28995 0.02383-0.01193 0.04611-0.01193 0.06442-0.01112v-2e-3z" fill="#fff" opacity=".5" stroke-width=".81795"/>
</svg>
