<svg width="64" height="64" version="1.1" xmlns="http://www.w3.org/2000/svg" xmlns:osb="http://www.openswatchbook.org/uri/2009/osb" xmlns:xlink="http://www.w3.org/1999/xlink">
 <defs>
  <linearGradient id="b" x1="408.25" x2="407.94" y1="547.6" y2="498.89" gradientTransform="matrix(1.3125 0 0 1.3125 -119.94 -171.62)" gradientUnits="userSpaceOnUse">
   <stop stop-color="#833cfc" offset="0"/>
   <stop stop-color="#f461d4" offset="1"/>
  </linearGradient>
  <linearGradient id="a" x1="28.285" x2="28.774" y1="13.142" y2="52.167" gradientUnits="userSpaceOnUse">
   <stop stop-color="#fff" offset="0"/>
   <stop stop-color="#edcdec" offset="1"/>
  </linearGradient>
  <filter id="d" x="-.058883" y="-.061161" width="1.1178" height="1.1223" color-interpolation-filters="sRGB">
   <feGaussianBlur stdDeviation="10.562379"/>
  </filter>
  <filter id="c" x="-.036" y="-.036" width="1.072" height="1.072" color-interpolation-filters="sRGB">
   <feGaussianBlur stdDeviation="0.88972449"/>
  </filter>
 </defs>
 <g transform="translate(-384.57 -483.8)">
  <g transform="matrix(1.0115 0 0 1.0115 -4.7462 -6.1242)">
   <rect x="386.85" y="486.31" width="59.315" height="59.315" ry="29.657" filter="url(#c)" opacity=".25"/>
   <rect x="386.85" y="486.31" width="59.315" height="59.315" ry="29.657" fill="url(#b)"/>
   <g transform="matrix(.088631 0 0 .088631 397.43 496.89)" fill-opacity=".84722" filter="url(#d)" opacity=".25" stroke-width=".79208">
    <g fill-opacity=".84722" stroke-width=".79208">
     <path transform="matrix(11.154 0 0 11.154 -141.67 -141.67)" d="m49.133 13.422c-0.63837 0.026539-1.2536 0.34712-1.6367 0.91211-0.38542 0.56823-9.4501 13.939-10.617 15.951-0.58356 1.0063-1.242 2.6394-1.7891 4.1328l4.7109 2.7617c1.0259-1.2171 2.1211-2.6065 2.7129-3.627 1.1807-2.0359 8.2711-16.521 8.5723-17.137 0.48028-0.98127 0.12083-2.167-0.82422-2.7148-0.35429-0.20546-0.74588-0.29522-1.1289-0.2793zm-34.021 15.924c-0.043594-0.005435-0.090758 0.0055-0.12891 0.033203-1.4148 1.025-2.3511 2.8878-2.2773 4.5293 0.039358 0.87539 0.37579 2.0911 1.7578 2.9141 0.74395 0.44289 1.9478 0.53481 3.1113 0.625 1.1447 0.088668 2.3286 0.18191 2.6934 0.62695 0.095572 0.11664 0.13276 0.25776 0.11133 0.43555-0.079613 0.81388-0.4754 1.6157-0.85742 2.3906-0.72145 1.4638-1.4671 2.9766-0.17773 4.6562 1.1324 1.4749 2.6353 1.4756 4.1797 1.4648 0.12641-8.96e-4 0.25427-0.001953 0.38086-0.001953 0.67375 0 1.4505 0.019793 2.1562 0.26562 0.50224 0.19464 0.75488 0.59775 0.87305 1.3965 0.090461 0.48969 0.30888 0.87571 0.59766 1.166 0.042227-0.22512 0.14134-0.43972 0.29492-0.62109 0.7583-0.89529 0.60935-1.7326 0.23047-3.3906-0.1759-0.77058-0.37097-1.6258-0.41992-2.5566-0.40327-0.13466-0.79671-0.21381-1.1953-0.23828-0.066972-0.004124-0.13812-0.00586-0.21289-0.00586-0.59979 0-1.3531 0.13264-2.082 0.25977-0.64955 0.11341-1.2633 0.21875-1.6914 0.21875-0.30115 0-0.40583-0.053342-0.43945-0.082031-0.36391-0.45679 0.16355-1.6972 0.38867-2.2285 0.057558-0.13556 0.10273-0.24384 0.12891-0.32031 0.36507-1.0742 0.63242-2.2174 0.12695-3.3027-0.42021-0.90237-1.4021-1.6206-2.4941-1.8281-0.31809-0.07513-0.68259-0.10938-1.1484-0.10938-0.38345 0-0.79451 0.023296-1.1914 0.046875-0.40703 0.024207-0.82738 0.050781-1.2305 0.050781-1.3864 0-2.1854-0.3178-2.668-1.0566-0.89583-1.4224 0.18034-3.9703 1.2852-5.0312 0.067958-0.065269 0.074099-0.17179 0.013671-0.24414-0.030258-0.036175-0.071639-0.057065-0.11523-0.0625zm19.418 6.1016c-0.25686 0.03093-0.51543 0.083002-0.77148 0.15625-1.2298 0.35297-3.0072 1.3648-4.498 4.1836-1.1836 2.2379-0.74675 4.1532-0.36133 5.8438 0.3683 1.6158 0.65848 2.8932-0.42383 4.1699-0.10642 0.12543-0.13588 0.29777-0.076171 0.45117 0.037565 0.096468 0.10711 0.17636 0.19336 0.22656 0.051193 0.029586 0.1094 0.04893 0.16992 0.05664 2.7376 0.34392 6.8343-1.2716 9.3613-5.6289 1.1478-1.979 1.6408-3.8809 1.4258-5.502-0.055944-0.4229-0.16066-0.8228-0.30859-1.1953l-4.7109-2.7617z" fill-opacity="1" stroke-width=".071013"/>
    </g>
   </g>
   <g transform="matrix(.088631 0 0 .088631 397.43 496.89)" fill="#fff" fill-opacity=".84722" stroke-width=".79208">
    <g fill="#fff" fill-opacity=".84722" stroke-width=".79208">
     <path transform="matrix(11.154 0 0 11.154 -141.67 -141.67)" d="m49.133 13.422c-0.63837 0.026539-1.2536 0.34712-1.6367 0.91211-0.38542 0.56823-9.4501 13.939-10.617 15.951-0.58356 1.0063-1.242 2.6394-1.7891 4.1328l4.7109 2.7617c1.0259-1.2171 2.1211-2.6065 2.7129-3.627 1.1807-2.0359 8.2711-16.521 8.5723-17.137 0.48028-0.98127 0.12083-2.167-0.82422-2.7148-0.35429-0.20546-0.74588-0.29522-1.1289-0.2793zm-34.021 15.924c-0.043594-0.005435-0.090758 0.0055-0.12891 0.033203-1.4148 1.025-2.3511 2.8878-2.2773 4.5293 0.039358 0.87539 0.37579 2.0911 1.7578 2.9141 0.74395 0.44289 1.9478 0.53481 3.1113 0.625 1.1447 0.088668 2.3286 0.18191 2.6934 0.62695 0.095572 0.11664 0.13276 0.25776 0.11133 0.43555-0.079613 0.81388-0.4754 1.6157-0.85742 2.3906-0.72145 1.4638-1.4671 2.9766-0.17773 4.6562 1.1324 1.4749 2.6353 1.4756 4.1797 1.4648 0.12641-8.96e-4 0.25427-0.001953 0.38086-0.001953 0.67375 0 1.4505 0.019793 2.1562 0.26562 0.50224 0.19464 0.75488 0.59775 0.87305 1.3965 0.090461 0.48969 0.30888 0.87571 0.59766 1.166 0.042227-0.22512 0.14134-0.43972 0.29492-0.62109 0.7583-0.89529 0.60935-1.7326 0.23047-3.3906-0.1759-0.77058-0.37097-1.6258-0.41992-2.5566-0.40327-0.13466-0.79671-0.21381-1.1953-0.23828-0.066972-0.004124-0.13812-0.00586-0.21289-0.00586-0.59979 0-1.3531 0.13264-2.082 0.25977-0.64955 0.11341-1.2633 0.21875-1.6914 0.21875-0.30115 0-0.40583-0.053342-0.43945-0.082031-0.36391-0.45679 0.16355-1.6972 0.38867-2.2285 0.057558-0.13556 0.10273-0.24384 0.12891-0.32031 0.36507-1.0742 0.63242-2.2174 0.12695-3.3027-0.42021-0.90237-1.4021-1.6206-2.4941-1.8281-0.31809-0.07513-0.68259-0.10938-1.1484-0.10938-0.38345 0-0.79451 0.023296-1.1914 0.046875-0.40703 0.024207-0.82738 0.050781-1.2305 0.050781-1.3864 0-2.1854-0.3178-2.668-1.0566-0.89583-1.4224 0.18034-3.9703 1.2852-5.0312 0.067958-0.065269 0.074099-0.17179 0.013671-0.24414-0.030258-0.036175-0.071639-0.057065-0.11523-0.0625zm19.418 6.1016c-0.25686 0.03093-0.51543 0.083002-0.77148 0.15625-1.2298 0.35297-3.0072 1.3648-4.498 4.1836-1.1836 2.2379-0.74675 4.1532-0.36133 5.8438 0.3683 1.6158 0.65848 2.8932-0.42383 4.1699-0.10642 0.12543-0.13588 0.29777-0.076171 0.45117 0.037565 0.096468 0.10711 0.17636 0.19336 0.22656 0.051193 0.029586 0.1094 0.04893 0.16992 0.05664 2.7376 0.34392 6.8343-1.2716 9.3613-5.6289 1.1478-1.979 1.6408-3.8809 1.4258-5.502-0.055944-0.4229-0.16066-0.8228-0.30859-1.1953l-4.7109-2.7617z" fill="url(#a)" fill-opacity="1" stroke-width=".071013"/>
    </g>
   </g>
  </g>
  <g transform="matrix(.060382 -.013622 .013622 .060382 304.96 582.4)"></g>
 </g>
</svg>
