<svg xmlns="http://www.w3.org/2000/svg" width="64" height="64"><defs><linearGradient id="b" x1="408.25" x2="407.94" y1="547.6" y2="498.89" gradientTransform="translate(-119.94 -171.62) scale(1.3125)" gradientUnits="userSpaceOnUse"><stop offset="0" stop-color="#833cfc"/><stop offset="1" stop-color="#f461d4"/></linearGradient><linearGradient id="d" x1="28.285" x2="28.774" y1="13.142" y2="52.167" gradientUnits="userSpaceOnUse"><stop offset="0" stop-color="#fff"/><stop offset="1" stop-color="#edcdec"/></linearGradient><filter id="c" width="1.118" height="1.122" x="-.059" y="-.061" color-interpolation-filters="sRGB"><feGaussianBlur stdDeviation="10.562"/></filter><filter id="a" width="1.072" height="1.072" x="-.036" y="-.036" color-interpolation-filters="sRGB"><feGaussianBlur stdDeviation=".89"/></filter></defs><g transform="translate(-389.316 -489.924) scale(1.0115)"><rect width="59.315" height="59.315" x="386.85" y="486.31" filter="url(#a)" opacity=".25" ry="29.657"/><rect width="59.315" height="59.315" x="386.85" y="486.31" fill="url(#b)" ry="29.657"/><g fill-opacity=".847" stroke-width=".792" filter="url(#c)" opacity=".25" transform="translate(397.43 496.89) scale(.08863)"><path fill-opacity="1" d="M406.36 8.039a23.19 23.19 0 0 0-18.256 10.174c-4.3 6.338-105.407 155.475-118.422 177.917-6.51 11.224-13.854 29.44-19.956 46.097l52.545 30.804c11.443-13.575 23.66-29.073 30.26-40.455 13.17-22.709 92.256-184.275 95.616-191.146 5.357-10.945 1.347-24.171-9.194-30.281a23.129 23.129 0 0 0-12.592-3.115zM26.89 185.655a2.04 2.04 0 0 0-1.439.37c-15.78 11.433-26.224 32.211-25.4 50.52.438 9.765 4.19 23.325 19.606 32.504 8.298 4.94 21.726 5.966 34.703 6.972 12.768.989 25.974 2.029 30.043 6.993 1.066 1.3 1.48 2.875 1.241 4.858-.888 9.078-5.302 18.021-9.563 26.664-8.047 16.328-16.364 33.201-1.983 51.936 12.631 16.45 29.394 16.459 46.62 16.338 1.41-.01 2.837-.022 4.249-.022 7.515 0 16.179.221 24.05 2.963 5.602 2.171 8.42 6.667 9.738 15.577 1.009 5.462 3.445 9.767 6.666 13.005a14.974 14.974 0 0 1 3.29-6.927c8.458-9.987 6.796-19.326 2.57-37.82-1.962-8.594-4.137-18.133-4.683-28.516-4.498-1.502-8.887-2.384-13.333-2.657a38.864 38.864 0 0 0-2.374-.066c-6.69 0-15.093 1.48-23.223 2.898-7.245 1.265-14.09 2.44-18.866 2.44-3.359 0-4.526-.595-4.901-.915-4.06-5.095 1.824-18.93 4.335-24.857.642-1.512 1.146-2.72 1.438-3.573 4.072-11.981 7.054-24.733 1.416-36.838-4.687-10.065-15.64-18.076-27.82-20.39-3.547-.839-7.613-1.22-12.809-1.22-4.277 0-8.862.26-13.289.522-4.54.27-9.228.567-13.725.567-15.464 0-24.376-3.545-29.759-11.786-9.992-15.865 2.012-44.284 14.336-56.118a1.998 1.998 0 0 0 .152-2.723 1.983 1.983 0 0 0-1.285-.697zm216.588 68.058c-2.865.345-5.75.925-8.605 1.742-13.718 3.937-33.543 15.223-50.171 46.664-13.202 24.962-8.33 46.325-4.03 65.182 4.108 18.023 7.344 32.27-4.728 46.511a4.973 4.973 0 0 0-.85 5.032 5.058 5.058 0 0 0 2.157 2.527 5.08 5.08 0 0 0 1.896.632c30.535 3.836 76.23-14.183 104.416-62.785 12.802-22.073 18.301-43.287 15.903-61.369-.624-4.717-1.792-9.177-3.442-13.332l-52.545-30.804z"/></g><path fill="url(#d)" d="M49.133 13.422a2.08 2.08 0 0 0-1.637.912c-.385.568-9.45 13.94-10.617 15.951-.583 1.006-1.242 2.64-1.789 4.133l4.711 2.762c1.026-1.217 2.121-2.607 2.713-3.627 1.18-2.036 8.271-16.521 8.572-17.137a2.08 2.08 0 0 0-1.953-2.994zM15.112 29.346a.183.183 0 0 0-.129.033c-1.415 1.025-2.351 2.888-2.277 4.53.04.875.376 2.09 1.758 2.914.744.442 1.947.534 3.11.625 1.146.088 2.33.182 2.694.627a.547.547 0 0 1 .112.435c-.08.814-.476 1.616-.858 2.39-.721 1.465-1.467 2.977-.178 4.657 1.133 1.475 2.636 1.476 4.18 1.465l.381-.002c.674 0 1.45.02 2.156.265.502.195.755.598.873 1.397.09.49.31.876.598 1.166.042-.225.141-.44.295-.621.758-.896.61-1.733.23-3.39-.176-.771-.37-1.627-.42-2.557a4.64 4.64 0 0 0-1.195-.239 3.484 3.484 0 0 0-.213-.006c-.6 0-1.353.133-2.082.26-.65.114-1.263.219-1.691.219-.301 0-.406-.053-.44-.082-.364-.457.164-1.697.389-2.229.058-.135.103-.243.129-.32.365-1.074.632-2.217.127-3.303-.42-.902-1.402-1.62-2.494-1.828a4.979 4.979 0 0 0-1.149-.11c-.383 0-.794.024-1.191.048-.407.024-.827.05-1.23.05-1.387 0-2.186-.317-2.668-1.056-.896-1.422.18-3.97 1.285-5.031a.18.18 0 0 0-.102-.307zm19.418 6.102c-.257.03-.515.083-.771.156-1.23.353-3.008 1.365-4.498 4.183-1.184 2.238-.747 4.154-.362 5.844.368 1.616.659 2.893-.424 4.17a.446.446 0 0 0 .118.678c.05.03.109.049.17.057 2.737.343 6.834-1.272 9.36-5.63 1.149-1.978 1.642-3.88 1.427-5.501a5.015 5.015 0 0 0-.309-1.196l-4.71-2.761z" transform="translate(384.874 484.334) scale(.98859)"/></g></svg>