<svg xmlns="http://www.w3.org/2000/svg" width="64" height="64" viewBox="0 0 16.933 16.933"><defs><linearGradient id="b" x1="8.025" x2="7.999" y1="281.01" y2="290.74" gradientTransform="translate(-1.302 -324.46)scale(1.1539)" gradientUnits="userSpaceOnUse"><stop offset="0" stop-color="#fd5353"/><stop offset=".5" stop-color="#ff7689"/><stop offset="1" stop-color="#f64d5f"/></linearGradient><linearGradient id="c" x1="8.818" x2="8.774" y1="283.09" y2="296.73" gradientTransform="translate(-1.302 -324.45)scale(1.1539)" gradientUnits="userSpaceOnUse"><stop offset="0" stop-color="#fc4a4a"/><stop offset=".5" stop-color="#ff667c"/><stop offset="1" stop-color="#f64d5f"/></linearGradient><filter id="a" width="1.07" height="1.074" x="-.035" y="-.037" color-interpolation-filters="sRGB"><feGaussianBlur stdDeviation=".878"/></filter></defs><path d="M32.002 5.03A27 27 0 0 0 8.934 18.063c-1.237-.001-1.904-.034-2.422.051-1.059.174-1.507.957-1.957 1.95l-.242.532A30 30 0 0 0 2 32.06a30.01 30.01 0 0 0 17.088 27.05q.693.341 1.401.646h.045a30 30 0 0 0 11.47 2.31 30.01 30.01 0 0 0 28.823-21.71l.028-.078v-.006q.31-1.128.531-2.275.08-.349.152-.7.165-.993.262-1.996.068-.495.117-.994.086-1.122.088-2.246c-.003-6.274-1.996-12.365-5.638-17.447a1.7 1.7 0 0 0-.485-.383 1.6 1.6 0 0 0-.726-.166h-3.041A27 27 0 0 0 32.004 5.03z" filter="url(#a)" opacity=".25" style="paint-order:stroke markers fill" transform="scale(.26458)"/><circle cx="8.467" cy="8.475" r="7.144" fill="url(#b)" style="paint-order:stroke markers fill"/><path fill="url(#c)" d="M8.467 3.72c-.338 0-.44.196-.61.49l-.356.57h-5.12c-.341 0-.518-.01-.658.013-.28.046-.399.253-.518.515l-.064.142c-.4.96-.61 1.989-.612 3.033a7.94 7.94 0 0 0 4.52 7.156q.184.09.372.17h.011a7.9 7.9 0 0 0 3.035.612 7.94 7.94 0 0 0 7.626-5.744l.007-.02v-.002q.083-.299.14-.602.022-.092.041-.185a8 8 0 0 0 .07-.528q.017-.132.03-.263.023-.297.024-.594a7.94 7.94 0 0 0-1.492-4.617.42.42 0 0 0-.32-.145z" style="paint-order:stroke markers fill"/><path d="M3.718 14.834q.185.138.379.265h8.75q.19-.127.371-.265zm.81.53q.243.14.5.264h6.896q.255-.124.5-.265H4.526z" opacity=".1" style="paint-order:stroke markers fill"/><path d="M7.928 11.021c-.312.233-.788.99-.937.694-.075-.043-.193-3.439-.03-3.57.141-.114 3.234 1.79 3.088 1.988-.018.203-.722.266-1.083.402l.778 1.298-.967.541" opacity=".15"/></svg>