<svg id="Mplayer" width="64" height="64" enable-background="new 0 0 1024 1024" image-rendering="optimizeSpeed" version="1.1" viewBox="0 0 64 64" xmlns="http://www.w3.org/2000/svg" xmlns:xlink="http://www.w3.org/1999/xlink">
 <defs id="defs18">
  <filter id="d" x="-.036" y="-.036" width="1.072" height="1.072" color-interpolation-filters="sRGB">
   <feGaussianBlur id="feGaussianBlur15" stdDeviation="14.16"/>
  </filter>
  <linearGradient id="linearGradient891" x1="31.222" x2="31.628" y1="61.147" y2="2.8528" gradientUnits="userSpaceOnUse">
   <stop id="stop885" stop-color="#9a9a9a" offset="0"/>
   <stop id="stop887" stop-color="#c0c0c0" offset="1"/>
  </linearGradient>
  <linearGradient id="linearGradient899" x1="31.641" x2="32.168" y1="61.339" y2="3.8116" gradientTransform="translate(2.5493e-6 2.1051e-6)" gradientUnits="userSpaceOnUse">
   <stop id="stop893" stop-color="#efb528" offset="0"/>
   <stop id="stop895" stop-color="#e69c76" offset="1"/>
  </linearGradient>
  <linearGradient id="linearGradient907" x1="31.722" x2="32.278" y1="62.873" y2=".74348" gradientUnits="userSpaceOnUse">
   <stop id="stop901" stop-color="#ebebeb" offset="0"/>
   <stop id="stop903" stop-color="#fff" offset="1"/>
  </linearGradient>
  <filter id="filter967" x="-.15305" y="-.098005" width="1.3061" height="1.196" color-interpolation-filters="sRGB">
   <feGaussianBlur id="feGaussianBlur969" stdDeviation="0.35967694"/>
  </filter>
 </defs>
 <path id="path21" transform="matrix(.063559 0 0 .063559 -.54555 -.54555)" d="m929.85 289.65c-2.35-4.35-4.95-9-7.65-13.6-20.3-34.5-45.8-67.2-76.35-97.75-72.6-72.6-157.15-116.65-253.65-132.05-16.25-2.6-32.8-4.4-50.05-5.35-9.7-0.55-19.85-0.85-30.1-0.85-9.35 0-18.6 0.25-27.9 0.75-118.35 6.1-220.3 51.95-305.85 137.5-20.5 20.5-38.75 41.95-54.7 64.4-15.35 21.55-28.55 44-39.6 67.2l-0.025-0.025q-43.925 91.998-43.925 202.18c0 130.35 46.1 241.65 138.25 333.8 56.7 56.65 120.55 95.9 191.1 117.55 36.75 11.25 74.8 17.85 114.75 19.95h0.4c8.5 0.45 16.6 0.7 24.5 0.7h3c10.3 0 20.5-0.3 30.1-0.8 2.5-0.15 4.75-0.3 6.95-0.45 20.2-1.45 39.9-4.05 58.7-7.7 7.95-1.55 15.8-3.3 23.4-5.15 80.8-20.3 152.15-61.6 214.65-124.1 48.6-48.6 84.4-102.5 107.35-161.8 18.45-47.65 28.65-98.8 30.55-153.5 0.2-6.05 0.3-12.25 0.3-18.5v-3c-0.2-40.65-4.95-79.5-14.3-117-1.1-4.35-2.35-9-3.65-13.6-1-3.4-2-6.85-3.15-10.5-1.6-5.15-3.4-10.5-5.3-15.85-5.05-14.25-10.85-28.25-17.45-42.15-1.85-3.8-3.75-7.65-5.7-11.5-1.45-2.85-2.95-5.7-4.65-8.8z" filter="url(#d)" opacity=".25" stroke-width="15.683"/>
 <rect id="rect4" x="2" y="2" width="60" height="60" rx="30" ry="30" fill="url(#linearGradient907)" stroke-width="2.1429"/>
 <rect id="rect10" x="21.286" y="21.286" width="21.429" height="21.429" ry="0" fill="url(#linearGradient899)" stroke-width="2.1429"/>
 <g id="g18" transform="matrix(1.5198 0 0 1.4597 -4.5654 -2.3704)" fill="#fff">
  <path id="path909" d="m26.616 21.266q0 0.864-0.492 1.38-0.48 0.504-1.284 0.672v0.048q1.02 0.12 1.524 0.648 0.516 0.528 0.516 1.38 0 0.756-0.348 1.332t-1.08 0.9q-0.72 0.324-1.86 0.324-0.672 0-1.248-0.108-0.576-0.096-1.104-0.36v-0.984q0.54 0.276 1.164 0.42t1.2 0.144q1.152 0 1.656-0.444 0.516-0.456 0.516-1.248 0-0.804-0.636-1.152-0.624-0.36-1.764-0.36h-0.828v-0.9h0.84q1.056 0 1.596-0.444 0.552-0.444 0.552-1.176 0-0.624-0.42-0.96-0.42-0.348-1.14-0.348-0.696 0-1.188 0.204t-0.972 0.516l-0.528-0.72q0.456-0.36 1.128-0.624 0.684-0.264 1.548-0.264 1.344 0 1.992 0.6 0.66 0.6 0.66 1.524z" fill="#000" filter="url(#filter967)" opacity=".25"/>
  <path id="path16" d="m26.616 21.266q0 0.864-0.492 1.38-0.48 0.504-1.284 0.672v0.048q1.02 0.12 1.524 0.648 0.516 0.528 0.516 1.38 0 0.756-0.348 1.332t-1.08 0.9q-0.72 0.324-1.86 0.324-0.672 0-1.248-0.108-0.576-0.096-1.104-0.36v-0.984q0.54 0.276 1.164 0.42t1.2 0.144q1.152 0 1.656-0.444 0.516-0.456 0.516-1.248 0-0.804-0.636-1.152-0.624-0.36-1.764-0.36h-0.828v-0.9h0.84q1.056 0 1.596-0.444 0.552-0.444 0.552-1.176 0-0.624-0.42-0.96-0.42-0.348-1.14-0.348-0.696 0-1.188 0.204t-0.972 0.516l-0.528-0.72q0.456-0.36 1.128-0.624 0.684-0.264 1.548-0.264 1.344 0 1.992 0.6 0.66 0.6 0.66 1.524z"/>
 </g>
 <path id="path20" d="m21.286 3.9922c-7.961 3.0321-14.261 9.3325-17.294 17.294h17.294zm21.429 0v17.294h17.294c-3.0321-7.961-9.3325-14.261-17.294-17.294zm-38.722 38.722c3.0321 7.961 9.3325 14.261 17.294 17.294v-17.294zm38.722 0v17.294c7.961-3.0321 14.261-9.3325 17.294-17.294z" fill="url(#linearGradient891)" stroke-width="2.1429"/>
</svg>
