<svg xmlns="http://www.w3.org/2000/svg" width="64" height="64" enable-background="new 0 0 1024 1024" image-rendering="optimizeSpeed"><defs><linearGradient id="e" x1="31.222" x2="31.628" y1="61.147" y2="2.853" gradientUnits="userSpaceOnUse"><stop offset="0" stop-color="#9a9a9a"/><stop offset="1" stop-color="silver"/></linearGradient><linearGradient id="c" x1="31.641" x2="32.168" y1="61.339" y2="3.812" gradientUnits="userSpaceOnUse"><stop offset="0" stop-color="#efb528"/><stop offset="1" stop-color="#e69c76"/></linearGradient><linearGradient id="b" x1="31.722" x2="32.278" y1="62.873" y2=".743" gradientUnits="userSpaceOnUse"><stop offset="0" stop-color="#ebebeb"/><stop offset="1" stop-color="#fff"/></linearGradient><filter id="a" width="1.072" height="1.072" x="-.036" y="-.036" color-interpolation-filters="sRGB"><feGaussianBlur stdDeviation="14.16"/></filter><filter id="d" width="1.306" height="1.196" x="-.153" y="-.098" color-interpolation-filters="sRGB"><feGaussianBlur stdDeviation=".36"/></filter></defs><path d="M929.85 289.65c-2.35-4.35-4.95-9-7.65-13.6-20.3-34.5-45.8-67.2-76.35-97.75C773.25 105.7 688.7 61.65 592.2 46.25c-16.25-2.6-32.8-4.4-50.05-5.35-9.7-.55-19.85-.85-30.1-.85-9.35 0-18.6.25-27.9.75-118.35 6.1-220.3 51.95-305.85 137.5-20.5 20.5-38.75 41.95-54.7 64.4-15.35 21.55-28.55 44-39.6 67.2l-.025-.025Q40.05 401.873 40.05 512.055c0 130.35 46.1 241.65 138.25 333.8 56.7 56.65 120.55 95.9 191.1 117.55 36.75 11.25 74.8 17.85 114.75 19.95h.4c8.5.45 16.6.7 24.5.7h3c10.3 0 20.5-.3 30.1-.8 2.5-.15 4.75-.3 6.95-.45 20.2-1.45 39.9-4.05 58.7-7.7 7.95-1.55 15.8-3.3 23.4-5.15 80.8-20.3 152.15-61.6 214.65-124.1 48.6-48.6 84.4-102.5 107.35-161.8 18.45-47.65 28.65-98.8 30.55-153.5.2-6.05.3-12.25.3-18.5v-3c-.2-40.65-4.95-79.5-14.3-117-1.1-4.35-2.35-9-3.65-13.6-1-3.4-2-6.85-3.15-10.5-1.6-5.15-3.4-10.5-5.3-15.85-5.05-14.25-10.85-28.25-17.45-42.15-1.85-3.8-3.75-7.65-5.7-11.5-1.45-2.85-2.95-5.7-4.65-8.8z" filter="url(#a)" opacity=".25" transform="translate(-.546 -.546)scale(.06356)"/><rect width="60" height="60" x="2" y="2" fill="url(#b)" rx="30" ry="30"/><rect width="21.429" height="21.429" x="21.286" y="21.286" fill="url(#c)" ry="0"/><g fill="#fff"><path fill="#000" d="M26.616 21.266q0 .864-.492 1.38-.48.504-1.284.672v.048q1.02.12 1.524.648.516.528.516 1.38 0 .756-.348 1.332t-1.08.9q-.72.324-1.86.324-.672 0-1.248-.108-.576-.096-1.104-.36v-.984q.54.276 1.164.42t1.2.144q1.152 0 1.656-.444.516-.456.516-1.248 0-.804-.636-1.152-.624-.36-1.764-.36h-.828v-.9h.84q1.056 0 1.596-.444.552-.444.552-1.176 0-.624-.42-.96-.42-.348-1.14-.348-.696 0-1.188.204t-.972.516l-.528-.72q.456-.36 1.128-.624.684-.264 1.548-.264 1.344 0 1.992.6.66.6.66 1.524" filter="url(#d)" opacity=".25" transform="matrix(1.5198 0 0 1.4597 -4.565 -2.37)"/><path d="M35.886 28.672q0 1.26-.748 2.014-.73.736-1.952.98v.071q1.55.175 2.317.946.784.77.784 2.014 0 1.104-.53 1.945t-1.64 1.313q-1.095.473-2.827.473-1.022 0-1.897-.157-.875-.14-1.678-.526V36.31q.82.403 1.77.613t1.823.21q1.75 0 2.517-.648.784-.666.784-1.822 0-1.173-.967-1.681-.948-.526-2.68-.526h-1.259v-1.314h1.277q1.605 0 2.425-.648.84-.648.84-1.716 0-.911-.64-1.402-.637-.508-1.732-.508-1.057 0-1.805.298t-1.477.753l-.803-1.05q.693-.526 1.714-.911 1.04-.386 2.353-.386 2.043 0 3.028.876 1.003.876 1.003 2.225z"/></g><path fill="url(#e)" d="M21.286 3.992A29.9 29.9 0 0 0 3.992 21.286h17.294zm21.429 0v17.294h17.294A29.9 29.9 0 0 0 42.715 3.992M3.993 42.714a29.9 29.9 0 0 0 17.294 17.294V42.714zm38.722 0v17.294a29.9 29.9 0 0 0 17.294-17.294z"/></svg>