<svg width="64" height="64" viewBox="0 0 16.933 16.933" xmlns="http://www.w3.org/2000/svg"><defs><linearGradient id="b" x1="400.32" x2="400.37" y1="545.86" y2="518.63" gradientTransform="translate(-195.93 -262.88) scale(.51026)" gradientUnits="userSpaceOnUse"><stop stop-color="#e2e2e2" offset="0"/><stop stop-color="#fff" stop-opacity=".996" offset="1"/></linearGradient><linearGradient id="c" x1="384.66" x2="415.94" y1="531.64" y2="531.46" gradientTransform="translate(-183.93 -246.9) scale(.48025)" gradientUnits="userSpaceOnUse"><stop stop-color="#ac92ec" offset="0"/><stop stop-color="#64a9ff" offset=".137"/><stop stop-color="#4cdbb7" offset=".268"/><stop stop-color="#aee672" offset=".494"/><stop stop-color="#ffce53" offset=".741"/><stop stop-color="#fb6e51" offset=".93"/><stop stop-color="#ed5565" offset="1"/></linearGradient><linearGradient id="e" x1="8.526" x2="8.442" y1="11.259" y2="5.674" gradientUnits="userSpaceOnUse"><stop stop-color="#1a1a1a" offset="0"/><stop stop-color="#999" offset="1"/></linearGradient><filter id="a" x="-.036" y="-.036" width="1.072" height="1.072" color-interpolation-filters="sRGB"><feGaussianBlur stdDeviation=".238"/></filter><filter id="d" x="-.051" y="-.073" width="1.102" height="1.145" color-interpolation-filters="sRGB"><feGaussianBlur stdDeviation=".169"/></filter></defs><circle cx="8.466" cy="8.466" r="7.937" fill-rule="evenodd" filter="url(#a)" opacity=".25" style="paint-order:fill markers stroke"/><circle cx="8.466" cy="8.466" r="7.144" fill="url(#b)" stroke="url(#c)" stroke-linecap="round" stroke-linejoin="round" stroke-width="1.587"/><g filter="url(#d)" opacity=".25" stroke-width=".265" aria-label="Kv"><path d="M8.526 11.259h-.764L5.725 8.55l-.584.52v2.189h-.65V5.673h.65v2.77l2.533-2.77h.768L6.195 8.1zM10.111 11.259l-1.59-4.187h.68l.902 2.483q.306.871.36 1.13h.03q.042-.202.264-.836.225-.638 1.004-2.777h.68l-1.589 4.187z"/></g><g fill="url(#e)" stroke-width=".265" aria-label="Kv"><path d="M8.526 11.259h-.764L5.725 8.55l-.584.52v2.189h-.65V5.673h.65v2.77l2.533-2.77h.768L6.195 8.1zM10.111 11.259l-1.59-4.187h.68l.902 2.483q.306.871.36 1.13h.03q.042-.202.264-.836.225-.638 1.004-2.777h.68l-1.589 4.187z"/></g></svg>