<svg width="64" height="64" xmlns="http://www.w3.org/2000/svg"><defs><linearGradient id="c" x1="399.57" x2="399.57" y1="545.8" y2="517.8" gradientTransform="translate(-826.36 -1107.5) scale(2.1429)" gradientUnits="userSpaceOnUse"><stop stop-color="#3889e9" offset="0"/><stop stop-color="#5ea5fb" offset="1"/></linearGradient><linearGradient id="i" x1="-322.18" x2="-320.91" y1="509.99" y2="594.99" gradientTransform="matrix(.26453 0 0 .23277 112.51 -91.006)" gradientUnits="userSpaceOnUse"><stop stop-color="#eff0f1" offset="0"/><stop stop-color="#ccd2d7" offset="1"/></linearGradient><linearGradient id="g" x1="-303.15" x2="-301.88" y1="591.82" y2="515.06" gradientTransform="matrix(.26453 0 0 .22561 114.51 -94.346)" gradientUnits="userSpaceOnUse"><stop stop-color="#ffee5e" offset="0"/><stop stop-color="#feff9f" offset="1"/></linearGradient><linearGradient id="e" x1="-322.73" x2="-320.91" y1="595.62" y2="510.62" gradientTransform="matrix(.26757 0 0 .22024 117.69 -98.601)" gradientUnits="userSpaceOnUse"><stop stop-color="#ff594d" offset="0"/><stop stop-color="#ff7f76" offset="1"/></linearGradient><linearGradient id="b" x1="32.079" x2="31.961" y1="62.104" y2="3.058" gradientUnits="userSpaceOnUse"><stop stop-color="#8a695e" offset="0"/><stop stop-color="#ae8679" offset="1"/></linearGradient><linearGradient id="k" x1="32.079" x2="31.961" y1="62.104" y2="3.058" gradientUnits="userSpaceOnUse"><stop stop-color="#957d75" offset="0"/><stop stop-color="#d1b0a4" offset="1"/></linearGradient><filter id="a" x="-.036" y="-.036" width="1.072" height="1.072" color-interpolation-filters="sRGB"><feGaussianBlur stdDeviation=".42"/></filter><filter id="h" x="-.028" y="-.051" width="1.056" height="1.102" color-interpolation-filters="sRGB"><feGaussianBlur stdDeviation=".425"/></filter><filter id="f" x="-.028" y="-.052" width="1.055" height="1.104" color-interpolation-filters="sRGB"><feGaussianBlur stdDeviation=".42"/></filter><filter id="d" x="-.027" y="-.053" width="1.054" height="1.106" color-interpolation-filters="sRGB"><feGaussianBlur stdDeviation=".42"/></filter><filter id="j" x="-.084" y="-.084" width="1.168" height="1.168" color-interpolation-filters="sRGB"><feGaussianBlur stdDeviation="1.407"/></filter></defs><circle transform="translate(-826.36 -1107.5) scale(2.1429)" cx="400.57" cy="531.8" r="14" filter="url(#a)" opacity=".25"/><g stroke-width="1.571"><circle cx="32.02" cy="32.044" r="30.001" fill="url(#b)"/><circle cx="32.02" cy="32.044" r="30.001" fill="none"/></g><rect x="14" y="14" width="37" height="19" ry="2" filter="url(#d)" opacity=".25"/><rect x="14" y="14" width="37" height="19" ry="2" fill="url(#e)"/><rect x="12" y="21" width="36.579" height="19.463" ry="2" filter="url(#f)" opacity=".25"/><rect x="12" y="21" width="36.579" height="19.463" ry="2" fill="url(#g)"/><rect x="10" y="28" width="36.579" height="20.08" ry="2.08" filter="url(#h)" opacity=".25"/><rect x="10" y="28" width="36.579" height="20.08" ry="2.08" fill="url(#i)"/><ellipse transform="rotate(-45)" cx="-.789" cy="45.732" rx="28.351" ry="2.033" fill-rule="evenodd" filter="url(#j)" opacity=".2" style="paint-order:fill markers stroke"/><path d="m53.188 10.812-42.4 42.4a30.001 30.001 0 0 0 21.232 8.832 30.001 30.001 0 0 0 30.002-30 30.001 30.001 0 0 0-8.834-21.232z" fill="url(#k)"/><path d="m45.579 33.602-2.799.237-.107 11.241 2.77-.383.046-4.792 3.671 5.35 2.925-.877-3.763-5.147 3.887-4.787-2.969-.692-3.738 4.788.077-4.938zm-6.365 2.683a.14.14 0 0 0-.09.034l-1.11 1.062a.136.136 0 0 0-.02.17l1.264 2.08c-.231.373-.42.772-.555 1.197l-2.364.456a.145.145 0 0 0-.116.14l-.014 1.515c0 .064.049.12.113.135l2.283.563c.117.494.302.967.548 1.399l-1.345 1.958a.135.135 0 0 0 .018.175l1.09 1.083a.145.145 0 0 0 .172.02l2.091-1.21c.406.233.846.42 1.31.547l.462 2.279a.14.14 0 0 0 .136.112l1.554.014a.14.14 0 0 0 .138-.104l.596-2.28c.48-.122.934-.306 1.355-.542l2.037 1.33c.056.037.13.03.18-.017l1.103-1.062a.137.137 0 0 0 .026-.17l-.735-1.207-.246.074A.089.089 0 0 1 49 46s-.465-.682-1.073-1.567a4.468 4.468 0 0 1-3.99 2.331c-2.457-.022-4.432-1.986-4.409-4.384.017-1.764 1.112-3.27 2.667-3.935l.01-1.12a5.554 5.554 0 0 0-.816.343v-.005l-2.085-1.36a.133.133 0 0 0-.09-.02z" fill="#7e6056"/></svg>