<svg xmlns="http://www.w3.org/2000/svg" width="64" height="64"><defs><linearGradient id="d" x1="409.57" x2="409.94" y1="542.8" y2="504.19" gradientTransform="matrix(.86339 0 0 .8182 -320.77 -397.49)" gradientUnits="userSpaceOnUse"><stop offset="0" stop-color="#86d0fb"/><stop offset="1" stop-color="#2794f5"/></linearGradient><linearGradient id="b" x1="519.2" x2="519.2" y1="1024.8" y2="4.8" gradientTransform="matrix(.06359 0 0 .06358 -.556 -.553)" gradientUnits="userSpaceOnUse"><stop offset="0" stop-color="#606060"/><stop offset=".02" stop-color="#414141"/><stop offset="1" stop-color="#1e1e1e"/></linearGradient><linearGradient id="f" x1="15" x2="9" y1="9" y2="9" gradientTransform="matrix(2.3394 0 0 5.2636 -2.22 -15.936)" gradientUnits="userSpaceOnUse"><stop offset="0" stop-color="#a1daff"/><stop offset="1" stop-color="#abebf9" stop-opacity="0"/></linearGradient><filter id="a" width="1.072" height="1.072" x="-.036" y="-.036" color-interpolation-filters="sRGB"><feGaussianBlur stdDeviation=".42"/></filter><filter id="c" width="1.063" height="1.084" x="-.032" y="-.042" color-interpolation-filters="sRGB"><feGaussianBlur stdDeviation=".611"/></filter><filter id="e" width="1.222" height="1.21" x="-.111" y="-.105" color-interpolation-filters="sRGB"><feGaussianBlur stdDeviation="1.05"/></filter></defs><circle cx="400.57" cy="531.8" r="14" filter="url(#a)" opacity=".25" transform="translate(-826.36 -1107.5) scale(2.1429)"/><circle cx="32.02" cy="32.044" r="30.001" fill="none"/><path fill="url(#b)" d="M50.249 8.193q-3.86-2.972-8.444-4.556Q37.068 2 32.003 2C15.433 2 2 15.432 2 32.001c0 15.158 11.245 27.684 25.845 29.71a31.977 31.977 0 0 0 4.158.29C48.57 61.999 62 48.567 62 32c0-1.31-.082-2.604-.244-3.866a29.932 29.932 0 0 0-.884-4.305q-1.33-4.69-4.082-8.726-2.722-3.977-6.54-6.912z"/><rect width="46.303" height="34.939" x="334.23" y="513.13" filter="url(#c)" opacity=".75" ry="1.644" transform="matrix(.82048 0 0 .79623 -261.23 -390.57)"/><rect width="37.991" height="27.819" x="13" y="18.001" fill="url(#d)" ry="1.309"/><g fill="#d5ffff" transform="matrix(.46937 0 0 .4555 -209.41 -153.63)"><ellipse cx="498.35" cy="384.49" rx="3.196" ry="3.293"/><ellipse cx="489.83" cy="384.49" rx="3.196" ry="3.293"/><ellipse cx="481.31" cy="384.49" rx="3.196" ry="3.293"/></g><path d="M35.018 48 46 47.93l1.243-12.431c.26-2.52-2.863-3.57-3.729-1.243.01-2.795-2.863-3.144-3.73-1.245.11-2.307-2.824-3.2-3.73-1.243v-4.971c0-3.73-3.728-3.73-3.728 0v11.188c-6.216-6.217-7.74-1.75-7.74-1.75C28.81 39.088 31.392 48.025 35.018 48z" filter="url(#e)" opacity=".15" transform="translate(10.643 11.04) scale(.65795)"/><path fill="url(#f)" fill-rule="evenodd" d="M18.834 26.173H32.87v5.264H18.834z"/><path fill="#fff" d="m33.683 41.964 7.226-.046.817-8.18c.172-1.657-1.883-2.348-2.453-.817.007-1.839-1.884-2.069-2.455-.819.073-1.518-1.857-2.106-2.453-.818v-3.27c0-2.454-2.453-2.454-2.453 0v7.36c-4.09-4.09-5.093-1.15-5.093-1.15 2.78 1.876 4.478 7.756 6.864 7.74z"/></svg>