<svg width="64" height="64" version="1.1" xmlns="http://www.w3.org/2000/svg">
 <defs>
  <linearGradient id="b" x1="32.02" x2="32.02" y1="2.043" y2="62.045" gradientUnits="userSpaceOnUse">
   <stop stop-color="#fe8002" offset="0"/>
   <stop stop-color="#ffd007" offset="1"/>
  </linearGradient>
  <linearGradient id="d" x1="32" x2="32" y1="7" y2="57" gradientUnits="userSpaceOnUse">
   <stop stop-color="#fcf5d2" offset="0"/>
   <stop stop-color="#fff" offset="1"/>
  </linearGradient>
  <linearGradient id="l" x1="45.501" x2="45.501" y1="7.106" y2="29.896" gradientUnits="userSpaceOnUse">
   <stop stop-color="#fefceb" offset="0"/>
   <stop stop-color="#fcf9e7" offset="1"/>
  </linearGradient>
  <linearGradient id="f" x1="1180.2" x2="1180.2" y1="688.53" y2="658.13" gradientTransform="matrix(.60605 0 0 .60668 -690.87 -382.8)" gradientUnits="userSpaceOnUse">
   <stop stop-color="#ff7b3d" offset="0"/>
   <stop stop-color="#f14e4e" offset="1"/>
  </linearGradient>
  <linearGradient id="h" x1="1057" x2="1057" y1="-1073.6" y2="-1121.7" gradientTransform="matrix(.49999 0 0 -.5 -491.99 -513.82)" gradientUnits="userSpaceOnUse">
   <stop stop-color="#ffbd04" offset="0"/>
   <stop stop-color="#ec4a00" offset="1"/>
  </linearGradient>
  <linearGradient id="j" x1="1162.6" x2="1162.6" y1="901.16" y2="887.43" gradientTransform="matrix(1.3349 0 0 1.2569 -1523.7 -1087.7)" gradientUnits="userSpaceOnUse">
   <stop stop-color="#f1b818" offset="0"/>
   <stop stop-color="#ffda64" offset="1"/>
  </linearGradient>
  <filter id="a" x="-.036" y="-.036" width="1.072" height="1.072" color-interpolation-filters="sRGB">
   <feGaussianBlur stdDeviation=".42"/>
  </filter>
  <filter id="c" x="-.036" y="-.036" width="1.072" height="1.072" color-interpolation-filters="sRGB">
   <feGaussianBlur stdDeviation=".75"/>
  </filter>
  <filter id="i" x="-.10247" y="-.12524" width="1.2049" height="1.2505" color-interpolation-filters="sRGB">
   <feGaussianBlur stdDeviation=".731"/>
  </filter>
  <filter id="g" x="-.06" y="-.06" width="1.12" height="1.12" color-interpolation-filters="sRGB">
   <feGaussianBlur stdDeviation=".4"/>
  </filter>
  <filter id="e" x="-.06" y="-.05994" width="1.12" height="1.1199" color-interpolation-filters="sRGB">
   <feGaussianBlur stdDeviation=".5"/>
  </filter>
  <radialGradient id="k" cx="38.066" cy="26.192" r="25" gradientTransform="matrix(-.8 0 0 -.94034 80.453 38.629)" gradientUnits="userSpaceOnUse">
   <stop stop-color="#1e353c" stop-opacity=".485" offset="0"/>
   <stop stop-color="#191919" stop-opacity="0" offset="1"/>
  </radialGradient>
  <filter id="filter26" x="-.013853" y="-.013853" width="1.0277" height="1.0277" color-interpolation-filters="sRGB">
   <feGaussianBlur stdDeviation="0.29776566"/>
  </filter>
  <filter id="filter25" x="-.029663" y="-.029663" width="1.0593" height="1.0593" color-interpolation-filters="sRGB">
   <feGaussianBlur stdDeviation="0.29776566"/>
  </filter>
 </defs>
 <circle transform="translate(-826.36 -1107.5) scale(2.1429)" cx="400.57" cy="531.8" r="14" filter="url(#a)" opacity=".25"/>
 <g stroke-width="1.571">
  <circle cx="32.02" cy="32.044" r="30.001" fill="url(#b)"/>
  <path d="M32 7A25 25 0 0 0 7 32a25 25 0 0 0 25 25 25 25 0 0 0 25-25 25 25 0 0 0-.104-2.103L34.106 7.105A25 25 0 0 0 32 7z" filter="url(#c)" opacity=".25"/>
  <circle cx="32.02" cy="32.044" r="30.001" fill="none"/>
  <path d="M32 7A25 25 0 0 0 7 32a25 25 0 0 0 25 25 25 25 0 0 0 25-25 25 25 0 0 0-.104-2.103L34.106 7.105A25 25 0 0 0 32 7z" fill="url(#d)"/>
 </g>
 <path d="M37 27.01a10 10.01 0 0 1-10 10.01 10 10.01 0 0 1-10-10.01A10 10.01 0 0 1 27 17a10 10.01 0 0 1 10 10.01z" filter="url(#e)" opacity=".25"/>
 <path d="M37 27.01a10 10.01 0 0 1-10 10.01 10 10.01 0 0 1-10-10.01A10 10.01 0 0 1 27 17a10 10.01 0 0 1 10 10.01z" fill="url(#f)"/>
 <g stroke-linecap="round" stroke-linejoin="round">
  <path transform="translate(1)" d="M32 39h16V23H32z" filter="url(#g)" opacity=".25"/>
  <path transform="translate(1)" d="M32 39h16V23H32z" fill="url(#h)"/>
  <path transform="translate(1)" d="M39 45H17l11-18z" filter="url(#i)" opacity=".25" stroke="#c99c00"/>
  <path transform="translate(1)" d="M39 45H17l11-18z" fill="url(#j)"/>
 </g>
 <path d="M16.5 43.5h3v3h-3zm22-.003h3V46.5h-3zM27.5 25.5h3v3.003h-3z" fill="#92e285" opacity=".75" stroke="#18a303"/>
 <path d="M32 7A25 25 0 0 0 7 32a25 25 0 0 0 25 25 25 25 0 0 0 25-25 25 25 0 0 0-.104-2.103L34.106 7.105A25 25 0 0 0 32 7z" fill="url(#k)"/>
 <path d="M56.896 29.896 34.105 7.105a25 25 0 0 0 22.791 22.791z" fill="url(#l)"/>
 <path d="m10.787 10.787c-11.752 11.752-11.752 30.674 0 42.426 0.11855 0.11855 0.24184 0.22911 0.36184 0.34527-11.399-11.775-11.288-30.431 0.34527-42.065 11.634-11.634 30.289-11.744 42.065-0.34527-0.11616-0.12-0.22671-0.24329-0.34527-0.36184-11.752-11.752-30.674-11.752-42.426 0z" fill="#ffffff" filter="url(#filter26)" opacity=".35"/>
 <path d="m37.435 61.526c5.7718-1.0635 11.297-3.831 15.779-8.3126s7.2491-10.007 8.3126-15.779c-1.5917 5.4332-4.6056 10.657-9.0198 15.072s-9.6384 7.428-15.072 9.0198z" fill="#ffffff" filter="url(#filter25)" opacity=".35"/>
</svg>
