<svg width="64" height="64" version="1.1" xmlns="http://www.w3.org/2000/svg" xmlns:xlink="http://www.w3.org/1999/xlink">
 <defs>
  <linearGradient id="b" x1="399.57" x2="399.57" y1="545.8" y2="517.8" gradientTransform="matrix(2.1429,0,0,2.1429,-826.36,-1107.5)" gradientUnits="userSpaceOnUse">
   <stop stop-color="#3889e9" offset="0"/>
   <stop stop-color="#5ea5fb" offset="1"/>
  </linearGradient>
  <filter id="c" x="-.036" y="-.036" width="1.072" height="1.072" color-interpolation-filters="sRGB">
   <feGaussianBlur stdDeviation="0.41999874"/>
  </filter>
  <linearGradient id="g" x1="32.02" x2="32.02" y1="2.043" y2="62.045" gradientUnits="userSpaceOnUse">
   <stop stop-color="#666" offset="0"/>
   <stop stop-color="#333" offset="1"/>
  </linearGradient>
  <linearGradient id="f" x1="32" x2="32" y1="7" y2="57" gradientUnits="userSpaceOnUse">
   <stop stop-color="#e7e7e7" offset="0"/>
   <stop stop-color="#fff" offset="1"/>
  </linearGradient>
  <linearGradient id="e" x1="45.501" x2="45.501" y1="7.1055" y2="29.896" gradientUnits="userSpaceOnUse">
   <stop stop-color="#f5f5f5" offset="0"/>
   <stop stop-color="#fff" offset="1"/>
  </linearGradient>
  <filter id="k" x="-.036" y="-.036" width="1.072" height="1.072" color-interpolation-filters="sRGB">
   <feGaussianBlur stdDeviation="0.75"/>
  </filter>
  <radialGradient id="d" cx="38.066" cy="26.192" r="25" gradientTransform="matrix(-.8 3e-8 -1.9265e-8 -.94034 80.453 38.629)" gradientUnits="userSpaceOnUse">
   <stop stop-color="#1e353c" stop-opacity=".48538" offset="0"/>
   <stop stop-color="#191919" stop-opacity="0" offset="1"/>
  </radialGradient>
 </defs>
 <circle transform="matrix(2.1429 0 0 2.1429 -826.36 -1107.5)" cx="400.57" cy="531.8" r="14" filter="url(#c)" opacity=".25" stroke-width=".73333"/>
 <g stroke-width="1.5715">
  <circle cx="32.02" cy="32.044" r="30.001" fill="url(#g)"/>
  <path d="m32 7a25 25 0 0 0-25 25 25 25 0 0 0 25 25 25 25 0 0 0 25-25 25 25 0 0 0-0.10352-2.1035l-22.791-22.791a25 25 0 0 0-2.1055-0.10547z" filter="url(#k)" opacity=".25"/>
  <circle cx="32.02" cy="32.044" r="30.001" fill-opacity="0"/>
  <circle cx="32.02" cy="32.044" r="0" fill="url(#b)"/>
  <path d="m32 7a25 25 0 0 0-25 25 25 25 0 0 0 25 25 25 25 0 0 0 25-25 25 25 0 0 0-0.10352-2.1035l-22.791-22.791a25 25 0 0 0-2.1055-0.10547z" fill="url(#f)"/>
  <path d="m32 7a25 25 0 0 0-25 25 25 25 0 0 0 25 25 25 25 0 0 0 25-25 25 25 0 0 0-0.10352-2.1035l-22.791-22.791a25 25 0 0 0-2.1055-0.10547z" fill="url(#d)"/>
 </g>
 <path d="m56.896 29.896-22.791-22.791a25 25 0 0 0 22.791 22.791z" fill="url(#e)" stroke-width="1.5715"/>
</svg>
