<svg width="64" height="64" xmlns="http://www.w3.org/2000/svg"><defs><linearGradient id="d" x1="399.57" x2="399.57" y1="545.8" y2="517.8" gradientTransform="translate(-826.36 -1107.5) scale(2.1429)" gradientUnits="userSpaceOnUse"><stop stop-color="#3889e9" offset="0"/><stop stop-color="#5ea5fb" offset="1"/></linearGradient><linearGradient id="b" x1="32.02" x2="32.02" y1="2.043" y2="62.045" gradientUnits="userSpaceOnUse"><stop stop-color="#fe8002" offset="0"/><stop stop-color="#ffd007" offset="1"/></linearGradient><linearGradient id="e" x1="32" x2="32" y1="7" y2="57" gradientUnits="userSpaceOnUse"><stop stop-color="#fcf5d2" offset="0"/><stop stop-color="#fff" offset="1"/></linearGradient><linearGradient id="m" x1="45.501" x2="45.501" y1="7.106" y2="29.896" gradientUnits="userSpaceOnUse"><stop stop-color="#fefceb" offset="0"/><stop stop-color="#fcf9e7" offset="1"/></linearGradient><linearGradient id="g" x1="1180.2" x2="1180.2" y1="688.53" y2="658.13" gradientTransform="matrix(.60605 0 0 .60668 -690.87 -382.8)" gradientUnits="userSpaceOnUse"><stop stop-color="#ff7b3d" offset="0"/><stop stop-color="#f14e4e" offset="1"/></linearGradient><linearGradient id="i" x1="1057" x2="1057" y1="-1073.6" y2="-1121.7" gradientTransform="matrix(.49999 0 0 -.5 -491.99 -513.82)" gradientUnits="userSpaceOnUse"><stop stop-color="#ffbd04" offset="0"/><stop stop-color="#ec4a00" offset="1"/></linearGradient><linearGradient id="k" x1="1162.6" x2="1162.6" y1="901.16" y2="887.43" gradientTransform="matrix(1.3349 0 0 1.2569 -1523.7 -1087.7)" gradientUnits="userSpaceOnUse"><stop stop-color="#f1b818" offset="0"/><stop stop-color="#ffda64" offset="1"/></linearGradient><filter id="a" x="-.036" y="-.036" width="1.072" height="1.072" color-interpolation-filters="sRGB"><feGaussianBlur stdDeviation=".42"/></filter><filter id="c" x="-.036" y="-.036" width="1.072" height="1.072" color-interpolation-filters="sRGB"><feGaussianBlur stdDeviation=".75"/></filter><filter id="j" x="-.08" y="-.097" width="1.159" height="1.195" color-interpolation-filters="sRGB"><feGaussianBlur stdDeviation=".731"/></filter><filter id="h" x="-.06" y="-.06" width="1.12" height="1.12" color-interpolation-filters="sRGB"><feGaussianBlur stdDeviation=".4"/></filter><filter id="f" x="-.06" y="-.06" width="1.12" height="1.12" color-interpolation-filters="sRGB"><feGaussianBlur stdDeviation=".5"/></filter><radialGradient id="l" cx="38.066" cy="26.192" r="25" gradientTransform="matrix(-.8 0 0 -.94034 80.453 38.629)" gradientUnits="userSpaceOnUse"><stop stop-color="#1e353c" stop-opacity=".485" offset="0"/><stop stop-color="#191919" stop-opacity="0" offset="1"/></radialGradient></defs><circle transform="translate(-826.36 -1107.5) scale(2.1429)" cx="400.57" cy="531.8" r="14" filter="url(#a)" opacity=".25"/><g stroke-width="1.571"><circle cx="32.02" cy="32.044" r="30.001" fill="url(#b)"/><path d="M32 7A25 25 0 0 0 7 32a25 25 0 0 0 25 25 25 25 0 0 0 25-25 25 25 0 0 0-.104-2.103L34.106 7.105A25 25 0 0 0 32 7z" filter="url(#c)" opacity=".25"/><circle cx="32.02" cy="32.044" r="30.001" fill="none"/><path d="M32 7A25 25 0 0 0 7 32a25 25 0 0 0 25 25 25 25 0 0 0 25-25 25 25 0 0 0-.104-2.103L34.106 7.105A25 25 0 0 0 32 7z" fill="url(#e)"/></g><path d="M37 27.01a10 10.01 0 0 1-10 10.01 10 10.01 0 0 1-10-10.01A10 10.01 0 0 1 27 17a10 10.01 0 0 1 10 10.01z" filter="url(#f)" opacity=".25"/><path d="M37 27.01a10 10.01 0 0 1-10 10.01 10 10.01 0 0 1-10-10.01A10 10.01 0 0 1 27 17a10 10.01 0 0 1 10 10.01z" fill="url(#g)"/><g stroke-linecap="round" stroke-linejoin="round"><path d="M32 39h16V23H32z" filter="url(#h)" opacity=".25" transform="translate(1)"/><path d="M32 39h16V23H32z" fill="url(#i)" transform="translate(1)"/><path d="M39 45H17l11-18z" filter="url(#j)" opacity=".25" stroke="#c99c00" transform="translate(1)"/><path d="M39 45H17l11-18z" fill="url(#k)" transform="translate(1)"/></g><g fill="#92e285" stroke="#18a303"><path opacity=".75" d="M16.5 43.5h3v3h-3zM38.5 43.497h3V46.5h-3zM27.5 25.5h3v3.003h-3z"/></g><path d="M32 7A25 25 0 0 0 7 32a25 25 0 0 0 25 25 25 25 0 0 0 25-25 25 25 0 0 0-.104-2.103L34.106 7.105A25 25 0 0 0 32 7z" fill="url(#l)"/><path d="M56.896 29.896 34.105 7.105a25 25 0 0 0 22.791 22.791z" fill="url(#m)"/></svg>