<svg xmlns="http://www.w3.org/2000/svg" width="64" height="64" viewBox="0 0 16.933 16.933"><defs><filter id="c" width="1.185" height="1.713" x="-.093" y="-.357" color-interpolation-filters="sRGB"><feGaussianBlur stdDeviation=".469"/></filter><filter id="a" width="1.054" height="1.054" x="-.027" y="-.027" color-interpolation-filters="sRGB"><feGaussianBlur stdDeviation=".675"/></filter><linearGradient id="b" x1="1.058" x2="15.875" y1="8.459" y2="8.459" gradientTransform="translate(-17.537 -.596)scale(1.0714)" gradientUnits="userSpaceOnUse"><stop offset="0" stop-color="#89cd4b"/><stop offset="1" stop-color="#d1f89d"/></linearGradient></defs><rect width="60" height="60" x="2" y="3" filter="url(#a)" opacity=".15" rx="30" ry="30" transform="scale(.26458)"/><rect width="15.875" height="15.875" x="-16.404" y=".529" fill="url(#b)" rx="7.937" ry="7.937" transform="rotate(-90)"/><g fill="#3f8000" transform="matrix(.92518 0 0 .93909 .528 .567)"><path d="M8.467 2.522a6 6 0 0 0-.845.06 6 6 0 0 0-.828.18A6 6 0 0 0 6 3.058a6 6 0 0 0-.744.407 6 6 0 0 0-.678.507 6 6 0 0 0-.599.599 6 6 0 0 0-.507.678 6 6 0 0 0-.407.744 6 6 0 0 0-.296.793 6 6 0 0 0-.18.828 6 6 0 0 0-.06.845 6 6 0 0 0 .06.844 6 6 0 0 0 .18.828 6 6 0 0 0 .296.793 6 6 0 0 0 .407.744 6 6 0 0 0 .507.678 6 6 0 0 0 .599.599 6 6 0 0 0 .678.507A6 6 0 0 0 6 13.86a6 6 0 0 0 .793.296 6 6 0 0 0 .828.18 6 6 0 0 0 .845.06 6 6 0 0 0 .844-.06 6 6 0 0 0 .828-.18 6 6 0 0 0 .793-.296 6 6 0 0 0 .744-.407 6 6 0 0 0 .678-.507 6 6 0 0 0 .599-.599 6 6 0 0 0 .507-.678 6 6 0 0 0 .407-.744 6 6 0 0 0 .296-.793 6 6 0 0 0 .18-.828 6 6 0 0 0 .06-.844 6 6 0 0 0-.007-.292 6 6 0 0 0-.021-.29 6 6 0 0 0-.036-.29 6 6 0 0 0-.05-.287 6 6 0 0 0-.064-.284 6 6 0 0 0-.078-.28 6 6 0 0 0-.09-.277 6 6 0 0 0-.106-.272 6 6 0 0 0-.118-.267 6 6 0 0 0-.13-.26 6 6 0 0 0-.144-.253 6 6 0 0 0-.156-.246 6 6 0 0 0-.168-.239 6 6 0 0 0-.18-.23 6 6 0 0 0-.19-.22 6 6 0 0 0-.2-.211 6 6 0 0 0-.212-.201 6 6 0 0 0-.22-.19 6 6 0 0 0-.23-.18 6 6 0 0 0-.239-.168 6 6 0 0 0-.246-.156 6 6 0 0 0-.253-.143 6 6 0 0 0-.26-.131 6 6 0 0 0-.267-.118 6 6 0 0 0-.272-.105 6 6 0 0 0-.276-.091 6 6 0 0 0-.281-.078 6 6 0 0 0-.284-.064 6 6 0 0 0-.287-.05 6 6 0 0 0-.29-.036 6 6 0 0 0-.29-.02 6 6 0 0 0-.291-.008zm0 1.708a4 4 0 0 1 .245.008 4 4 0 0 1 .245.02 4 4 0 0 1 .244.036 4 4 0 0 1 .24.05 4 4 0 0 1 .238.064 4 4 0 0 1 .233.078 4 4 0 0 1 .23.09 4 4 0 0 1 .222.104 4 4 0 0 1 .217.117 4 4 0 0 1 .209.129 4 4 0 0 1 .201.141 4 4 0 0 1 .193.152 4 4 0 0 1 .184.164 4 4 0 0 1 .174.174 4 4 0 0 1 .164.184 4 4 0 0 1 .152.193 4 4 0 0 1 .141.201 4 4 0 0 1 .13.21 4 4 0 0 1 .116.216 4 4 0 0 1 .104.223 4 4 0 0 1 .09.229 4 4 0 0 1 .078.233 4 4 0 0 1 .063.237 4 4 0 0 1 .05.241 4 4 0 0 1 .036.244 4 4 0 0 1 .021.245 4 4 0 0 1 .008.245 4 4 0 0 1-.065.735 4 4 0 0 1-.19.711 4 4 0 0 1-.312.669 4 4 0 0 1-.422.603 4 4 0 0 1-.522.522 4 4 0 0 1-.603.422 4 4 0 0 1-.669.311 4 4 0 0 1-.711.192 4 4 0 0 1-.734.064 4 4 0 0 1-.735-.064 4 4 0 0 1-.711-.192 4 4 0 0 1-.669-.31 4 4 0 0 1-.603-.423 4 4 0 0 1-.522-.522 4 4 0 0 1-.422-.603 4 4 0 0 1-.311-.669 4 4 0 0 1-.192-.711 4 4 0 0 1-.064-.734 4 4 0 0 1 .064-.735 4 4 0 0 1 .192-.711 4 4 0 0 1 .31-.669 4 4 0 0 1 .423-.603 4 4 0 0 1 .522-.522 4 4 0 0 1 .603-.422 4 4 0 0 1 .669-.311 4 4 0 0 1 .711-.192 4 4 0 0 1 .735-.064"/><rect width="1.772" height="1.772" x="2.043" y="2.11" ry=".537"/><rect width="1.772" height="1.772" x="13.345" y="2.11" ry=".537"/><rect width="1.772" height="1.772" x="13.345" y="13.035" ry=".537"/><rect width="1.772" height="1.772" x="2.043" y="13.069" ry=".537"/></g><path d="M2.91 7.144a.527.527 0 0 0-.529.528v2.103c0 .292.236.528.528.528h2.122a.526.526 0 0 0 .527-.528V9.42h8.994V8.028H5.558v-.356a.527.527 0 0 0-.527-.528z" filter="url(#c)" opacity=".15"/><path fill="#2e3436" d="M2.91 6.887a.527.527 0 0 0-.529.528v2.103c0 .293.236.528.528.528h2.122a.526.526 0 0 0 .527-.528v-.355h8.994V7.771H5.558v-.356a.527.527 0 0 0-.527-.528z"/></svg>