<svg xmlns="http://www.w3.org/2000/svg" width="64" height="64"><defs><linearGradient id="b" x1="32.02" x2="32.02" y1="2.043" y2="62.045" gradientUnits="userSpaceOnUse"><stop offset="0" stop-color="#666"/><stop offset="1" stop-color="#333"/></linearGradient><linearGradient id="d" x1="32" x2="32" y1="7" y2="57" gradientUnits="userSpaceOnUse"><stop offset="0" stop-color="#e7e7e7"/><stop offset="1" stop-color="#fff"/></linearGradient><linearGradient id="h" x1="45.501" x2="45.501" y1="7.106" y2="29.896" gradientUnits="userSpaceOnUse"><stop offset="0" stop-color="#f5f5f5"/><stop offset="1" stop-color="#fff"/></linearGradient><linearGradient id="g" x1="32" x2="32" y1="18" y2="46" gradientUnits="userSpaceOnUse"><stop offset="0" stop-color="#999"/><stop offset="1" stop-color="#bebebe"/></linearGradient><filter id="a" width="1.072" height="1.072" x="-.036" y="-.036" color-interpolation-filters="sRGB"><feGaussianBlur stdDeviation=".42"/></filter><filter id="c" width="1.072" height="1.072" x="-.036" y="-.036" color-interpolation-filters="sRGB"><feGaussianBlur stdDeviation=".75"/></filter><filter id="f" width="1.12" height="1.12" x="-.06" y="-.06" color-interpolation-filters="sRGB"><feGaussianBlur stdDeviation=".7"/></filter><radialGradient id="e" cx="38.066" cy="26.192" r="25" gradientTransform="matrix(-.8 0 0 -.94034 80.453 38.629)" gradientUnits="userSpaceOnUse"><stop offset="0" stop-color="#1e353c" stop-opacity=".485"/><stop offset="1" stop-color="#191919" stop-opacity="0"/></radialGradient></defs><circle cx="400.57" cy="531.8" r="14" filter="url(#a)" opacity=".25" transform="translate(-826.36 -1107.5) scale(2.1429)"/><g stroke-width="1.571"><circle cx="32.02" cy="32.044" r="30.001" fill="url(#b)"/><path d="M32 7A25 25 0 0 0 7 32a25 25 0 0 0 25 25 25 25 0 0 0 25-25 25 25 0 0 0-.104-2.103L34.106 7.105A25 25 0 0 0 32 7z" filter="url(#c)" opacity=".25"/><circle cx="32.02" cy="32.044" r="30.001" fill="none"/><path fill="url(#d)" d="M32 7A25 25 0 0 0 7 32a25 25 0 0 0 25 25 25 25 0 0 0 25-25 25 25 0 0 0-.104-2.103L34.106 7.105A25 25 0 0 0 32 7z"/><path fill="url(#e)" d="M32 7A25 25 0 0 0 7 32a25 25 0 0 0 25 25 25 25 0 0 0 25-25 25 25 0 0 0-.104-2.103L34.106 7.105A25 25 0 0 0 32 7z"/></g><path d="M18 23.599v7.657s5.661-4.074 5.661 3.292c0 7.377-5.661 4.456-5.661 4.456V46h7.661s-2.9-5.88 3.683-5.79c7.074.101 3.968 5.79 3.968 5.79h7.09v-7.372s5.555 2.435 5.597-3.535c.043-4.445-2.095-5.101-5.598-3.836v-7.658h-7S36.233 18 29.45 18s-3.788 5.6-3.788 5.6z" filter="url(#f)" opacity=".25"/><path fill="url(#g)" d="M18 23.599v7.657s5.661-4.074 5.661 3.292c0 7.377-5.661 4.456-5.661 4.456V46h7.661s-2.9-5.88 3.683-5.79c7.074.101 3.968 5.79 3.968 5.79h7.09v-7.372s5.555 2.435 5.597-3.535c.043-4.445-2.095-5.101-5.598-3.836v-7.658h-7S36.233 18 29.45 18s-3.788 5.6-3.788 5.6z"/><path fill="url(#h)" d="M56.896 29.896 34.105 7.105a25 25 0 0 0 22.791 22.791z"/></svg>