<svg xmlns="http://www.w3.org/2000/svg" width="64" height="64"><defs><linearGradient id="b" x1="408.25" x2="407.94" y1="547.6" y2="498.89" gradientTransform="translate(-510.64 -663.52)scale(1.3276)" gradientUnits="userSpaceOnUse"><stop offset="0" stop-color="#fff"/><stop offset="1" stop-color="#e6e6e6"/></linearGradient><linearGradient id="f" x1="30.644" x2="30.373" y1="48.678" y2="15.051" gradientUnits="userSpaceOnUse"><stop offset="0" stop-color="#2673cf"/><stop offset="1" stop-color="#26bbcf"/></linearGradient><linearGradient id="d" x1="31.322" x2="31.051" y1="48.136" y2="15.322" gradientUnits="userSpaceOnUse"><stop offset="0" stop-color="#2e2e2e"/><stop offset="1" stop-color="#606060"/></linearGradient><filter id="a" width="1.072" height="1.072" x="-.036" y="-.036" color-interpolation-filters="sRGB"><feGaussianBlur stdDeviation=".89"/></filter><filter id="c" width="1.12" height="1.12" x="-.06" y="-.06" color-interpolation-filters="sRGB"><feGaussianBlur stdDeviation=".8"/></filter><filter id="e" width="1.12" height="1.12" x="-.06" y="-.06" color-interpolation-filters="sRGB"><feGaussianBlur stdDeviation=".8"/></filter></defs><rect width="59.315" height="59.315" x="386.85" y="486.31" filter="url(#a)" opacity=".25" ry="29.657" transform="translate(-389.32 -489.92)scale(1.0115)"/><rect width="59.997" height="59.997" x="1.983" y="1.978" fill="url(#b)" ry="29.998"/><g stroke-width="1.333"><path d="M18.667 16A2.66 2.66 0 0 0 16 18.667v10.667A2.663 2.663 0 0 0 18.667 32h10.667a2.666 2.666 0 0 0 2.667-2.666V18.667A2.663 2.663 0 0 0 29.334 16zm0 1.333h10.667c.74 0 1.333.594 1.333 1.334v10.667c0 .74-.593 1.333-1.333 1.333H18.667c-.74 0-1.333-.593-1.333-1.333V18.667c0-.74.593-1.334 1.333-1.334M20 18.667c-.74 0-1.333.593-1.333 1.333v8c0 .735.593 1.333 1.333 1.333h8c.735 0 1.334-.598 1.334-1.333v-8c0-.74-.6-1.333-1.334-1.333zM34.667 32a2.66 2.66 0 0 0-2.666 2.666v10.667A2.663 2.663 0 0 0 34.667 48h10.667a2.666 2.666 0 0 0 2.667-2.667V34.666A2.663 2.663 0 0 0 45.334 32zm0 1.333h10.667c.74 0 1.334.593 1.334 1.333v10.667a1.33 1.33 0 0 1-1.334 1.334H34.667c-.74 0-1.333-.594-1.333-1.334V34.666c0-.74.593-1.333 1.333-1.333m1.334 1.333A1.33 1.33 0 0 0 34.667 36v8c0 .734.594 1.333 1.334 1.333h8c.734 0 1.333-.599 1.333-1.333v-8c0-.74-.599-1.334-1.333-1.334z" filter="url(#c)" opacity=".15"/><path fill="url(#d)" d="M18.667 16A2.66 2.66 0 0 0 16 18.667v10.667A2.663 2.663 0 0 0 18.667 32h10.667a2.666 2.666 0 0 0 2.667-2.666V18.667A2.663 2.663 0 0 0 29.334 16zm0 1.333h10.667c.74 0 1.333.594 1.333 1.334v10.667c0 .74-.593 1.333-1.333 1.333H18.667c-.74 0-1.333-.593-1.333-1.333V18.667c0-.74.593-1.334 1.333-1.334M20 18.667c-.74 0-1.333.593-1.333 1.333v8c0 .735.593 1.333 1.333 1.333h8c.735 0 1.334-.598 1.334-1.333v-8c0-.74-.6-1.333-1.334-1.333zM34.667 32a2.66 2.66 0 0 0-2.666 2.666v10.667A2.663 2.663 0 0 0 34.667 48h10.667a2.666 2.666 0 0 0 2.667-2.667V34.666A2.663 2.663 0 0 0 45.334 32zm0 1.333h10.667c.74 0 1.334.593 1.334 1.333v10.667a1.33 1.33 0 0 1-1.334 1.334H34.667c-.74 0-1.333-.594-1.333-1.334V34.666c0-.74.593-1.333 1.333-1.333m1.334 1.333A1.33 1.33 0 0 0 34.667 36v8c0 .734.594 1.333 1.334 1.333h8c.734 0 1.333-.599 1.333-1.333v-8c0-.74-.599-1.334-1.333-1.334z"/><path d="M34.667 16A2.66 2.66 0 0 0 32 18.667v10.667A2.663 2.663 0 0 0 34.667 32h10.667a2.666 2.666 0 0 0 2.667-2.666V18.667A2.663 2.663 0 0 0 45.334 16zm0 1.333h10.667c.74 0 1.333.594 1.333 1.334v10.667c0 .74-.593 1.333-1.333 1.333H34.667c-.74 0-1.333-.593-1.333-1.333V18.667c0-.74.593-1.334 1.333-1.334M36 18.667c-.74 0-1.333.593-1.333 1.333v8c0 .735.593 1.333 1.333 1.333h8c.735 0 1.334-.598 1.334-1.333v-8c0-.74-.6-1.333-1.334-1.333zM18.667 32a2.66 2.66 0 0 0-2.666 2.666v10.667A2.663 2.663 0 0 0 18.667 48h10.667a2.666 2.666 0 0 0 2.667-2.667V34.666A2.663 2.663 0 0 0 29.334 32zm0 1.333h10.667c.74 0 1.334.593 1.334 1.333v10.667a1.33 1.33 0 0 1-1.334 1.334H18.667c-.74 0-1.333-.594-1.333-1.334V34.666c0-.74.593-1.333 1.333-1.333m1.334 1.333A1.33 1.33 0 0 0 18.667 36v8c0 .734.594 1.333 1.334 1.333h8c.734 0 1.333-.599 1.333-1.333v-8c0-.74-.599-1.334-1.333-1.334z" filter="url(#e)" opacity=".15"/><path fill="url(#f)" d="M34.667 16A2.66 2.66 0 0 0 32 18.667v10.667A2.663 2.663 0 0 0 34.667 32h10.667a2.666 2.666 0 0 0 2.667-2.666V18.667A2.663 2.663 0 0 0 45.334 16zm0 1.333h10.667c.74 0 1.333.594 1.333 1.334v10.667c0 .74-.593 1.333-1.333 1.333H34.667c-.74 0-1.333-.593-1.333-1.333V18.667c0-.74.593-1.334 1.333-1.334M36 18.667c-.74 0-1.333.593-1.333 1.333v8c0 .735.593 1.333 1.333 1.333h8c.735 0 1.334-.598 1.334-1.333v-8c0-.74-.6-1.333-1.334-1.333zM18.667 32a2.66 2.66 0 0 0-2.666 2.666v10.667A2.663 2.663 0 0 0 18.667 48h10.667a2.666 2.666 0 0 0 2.667-2.667V34.666A2.663 2.663 0 0 0 29.334 32zm0 1.333h10.667c.74 0 1.334.593 1.334 1.333v10.667a1.33 1.33 0 0 1-1.334 1.334H18.667c-.74 0-1.333-.594-1.333-1.334V34.666c0-.74.593-1.333 1.333-1.333m1.334 1.333A1.33 1.33 0 0 0 18.667 36v8c0 .734.594 1.333 1.334 1.333h8c.734 0 1.333-.599 1.333-1.333v-8c0-.74-.599-1.334-1.333-1.334z"/></g></svg>