<svg width="64" height="64" version="1.1" viewBox="0 0 16.933 16.933" xmlns="http://www.w3.org/2000/svg" xmlns:xlink="http://www.w3.org/1999/xlink">
 <defs>
  <filter id="c" x="-.036" y="-.036" width="1.072" height="1.072" color-interpolation-filters="sRGB">
   <feGaussianBlur stdDeviation="0.23812031"/>
  </filter>
  <linearGradient id="a" x1="8.4665" x2="8.4665" y1=".52916" y2="16.404" gradientUnits="userSpaceOnUse">
   <stop stop-color="#0071c6" offset="0"/>
   <stop stop-color="#00ccf7" offset="1"/>
  </linearGradient>
  <filter id="b" x="-.06" y="-.06" width="1.12" height="1.12" color-interpolation-filters="sRGB">
   <feGaussianBlur stdDeviation="0.185225"/>
  </filter>
 </defs>
 <circle cx="8.4665" cy="8.4665" r="7.9373" filter="url(#c)" opacity=".15" stroke-width="1.1539" style="paint-order:stroke markers fill"/>
 <circle cx="8.4665" cy="8.4665" r="7.9373" fill="url(#a)" stroke-width="1.1539" style="paint-order:stroke markers fill"/>
 <g transform="matrix(1.1427 0 0 1.1427 -1.2084 -321.25)" filter="url(#b)" opacity=".15" stroke-width=".357">
  <path d="m9.393 286.37v1.476l0.518 0.376h0.056l2.203-1.544a0.297 0.297 0 0 0-0.308-0.308z"/>
  <path d="m9.4 288.39 0.466 0.317c0.066 0.048 0.145 0 0.145 0-0.079 0.048 2.16-1.409 2.16-1.409v2.779c0 0.188-0.094 0.308-0.309 0.308h-2.469z"/>
  <path d="m6.98 287.72a0.431 0.431 0 0 0-0.38 0.221c-0.094 0.148-0.141 0.344-0.141 0.587 0 0.247 0.047 0.443 0.14 0.586 0.094 0.144 0.217 0.215 0.37 0.215 0.156 0 0.28-0.07 0.372-0.209 0.092-0.14 0.138-0.334 0.138-0.582 0-0.258-0.045-0.46-0.134-0.603a0.412 0.412 0 0 0-0.366-0.215z"/>
  <path d="m4.762 285.76v5.557l4.322 0.926v-7.409zm2.918 3.702a0.867 0.867 0 0 1-0.72 0.36 0.857 0.857 0 0 1-0.707-0.349c-0.181-0.232-0.273-0.535-0.273-0.908 0-0.395 0.093-0.714 0.277-0.957a0.877 0.877 0 0 1 0.735-0.365c0.288 0 0.52 0.116 0.698 0.35 0.178 0.232 0.267 0.54 0.267 0.921 0 0.392-0.092 0.708-0.277 0.948z"/>
 </g>
 <g transform="matrix(1.1427 0 0 1.1427 -1.2084 -321.25)" fill="#fff" stroke-width=".357">
  <path d="m9.393 286.37v1.476l0.518 0.376h0.056l2.203-1.544a0.297 0.297 0 0 0-0.308-0.308z"/>
  <path d="m9.4 288.39 0.466 0.317c0.066 0.048 0.145 0 0.145 0-0.079 0.048 2.16-1.409 2.16-1.409v2.779c0 0.188-0.094 0.308-0.309 0.308h-2.469z"/>
  <path d="m6.98 287.72a0.431 0.431 0 0 0-0.38 0.221c-0.094 0.148-0.141 0.344-0.141 0.587 0 0.247 0.047 0.443 0.14 0.586 0.094 0.144 0.217 0.215 0.37 0.215 0.156 0 0.28-0.07 0.372-0.209 0.092-0.14 0.138-0.334 0.138-0.582 0-0.258-0.045-0.46-0.134-0.603a0.412 0.412 0 0 0-0.366-0.215z"/>
  <path d="m4.762 285.76v5.557l4.322 0.926v-7.409zm2.918 3.702a0.867 0.867 0 0 1-0.72 0.36 0.857 0.857 0 0 1-0.707-0.349c-0.181-0.232-0.273-0.535-0.273-0.908 0-0.395 0.093-0.714 0.277-0.957a0.877 0.877 0 0 1 0.735-0.365c0.288 0 0.52 0.116 0.698 0.35 0.178 0.232 0.267 0.54 0.267 0.921 0 0.392-0.092 0.708-0.277 0.948z"/>
 </g>
</svg>
