<svg xmlns="http://www.w3.org/2000/svg" width="64" height="64" viewBox="0 0 16.933 16.933"><defs><filter id="a" width="1.072" height="1.072" x="-.036" y="-.036" color-interpolation-filters="sRGB"><feGaussianBlur stdDeviation=".238"/></filter><filter id="c" width="1.12" height="1.12" x="-.06" y="-.06" color-interpolation-filters="sRGB"><feGaussianBlur stdDeviation=".185"/></filter><linearGradient id="b" x1="8.466" x2="8.466" y1=".529" y2="16.404" gradientUnits="userSpaceOnUse"><stop offset="0" stop-color="#0071c6"/><stop offset="1" stop-color="#00ccf7"/></linearGradient></defs><circle cx="8.466" cy="8.466" r="7.937" filter="url(#a)" opacity=".15" style="paint-order:stroke markers fill"/><circle cx="8.466" cy="8.466" r="7.937" fill="url(#b)" style="paint-order:stroke markers fill"/><g stroke-width=".357" filter="url(#c)" opacity=".15" transform="translate(-1.208 -321.25) scale(1.1427)"><path d="M9.393 286.37v1.476l.518.376h.056l2.203-1.544a.297.297 0 0 0-.308-.308z"/><path d="m9.4 288.39.466.317c.066.048.145 0 .145 0-.079.048 2.16-1.409 2.16-1.409v2.779c0 .188-.094.308-.309.308H9.393zm-2.42-.67a.431.431 0 0 0-.38.221c-.094.148-.141.344-.141.587 0 .247.047.443.14.586.094.144.217.215.37.215.156 0 .28-.07.372-.209.092-.14.138-.334.138-.582 0-.258-.045-.46-.134-.603a.412.412 0 0 0-.366-.215z"/><path d="M4.762 285.76v5.557l4.322.926v-7.409zm2.918 3.702a.867.867 0 0 1-.72.36.857.857 0 0 1-.707-.349c-.181-.232-.273-.535-.273-.908 0-.395.093-.714.277-.957a.877.877 0 0 1 .735-.365c.288 0 .52.116.698.35.178.232.267.54.267.921 0 .392-.092.708-.277.948z"/></g><g fill="#fff" stroke-width=".357"><path d="M9.525 5.985v1.687l.592.43h.064l2.517-1.765a.34.34 0 0 0-.352-.352z"/><path d="m9.533 8.293.532.362c.076.055.166 0 .166 0-.09.055 2.468-1.61 2.468-1.61v3.176c0 .215-.107.352-.353.352H9.525zm-2.765-.765a.493.493 0 0 0-.435.252c-.107.17-.16.393-.16.67 0 .283.053.507.16.67.107.165.247.246.422.246.178 0 .32-.08.425-.239.105-.16.158-.381.158-.665 0-.294-.052-.525-.153-.689a.47.47 0 0 0-.418-.245z"/><path d="M4.233 5.288v6.35l4.939 1.058V4.23zm3.335 4.23a.99.99 0 0 1-.823.412.98.98 0 0 1-.808-.4c-.207-.264-.312-.61-.312-1.037 0-.451.106-.816.316-1.093a1.002 1.002 0 0 1 .84-.417c.33 0 .595.132.798.4.203.265.305.617.305 1.052 0 .448-.105.809-.316 1.083z"/></g></svg>