<svg xmlns="http://www.w3.org/2000/svg" width="64" height="64"><defs><filter id="c" width="1.287" height="1.301" x="-.143" y="-.151" color-interpolation-filters="sRGB"><feGaussianBlur stdDeviation="2.511"/></filter><filter id="a" width="1.078" height="1.078" x="-.039" y="-.039" color-interpolation-filters="sRGB"><feGaussianBlur stdDeviation=".972"/></filter><linearGradient id="b" x1="7.937" x2="7.937" y1="15.081" y2="1.852" gradientTransform="translate(-2.286 -2.251) scale(4.0495)" gradientUnits="userSpaceOnUse"><stop offset="0" stop-color="#249a56"/><stop offset="1" stop-color="#34d07b"/></linearGradient></defs><rect width="60" height="60" x="2" y="2" filter="url(#a)" opacity=".35" rx="30" ry="30"/><rect width="60" height="60" x="2" y="2" fill="url(#b)" rx="30" ry="30"/><path d="m32 11.352-21 12v24l7 4 7-4v-8l-7-4v-8l14-8 14 8v8l-7 4v8l7 4 7-4v-24z" filter="url(#c)" opacity=".15"/><path fill="#fff" d="m32 9.774-21 12v24l7 4 7-4v-8l-7-4v-8l14-8 14 8v8l-7 4v8l7 4 7-4v-24z"/></svg>