<svg width="64" height="64" version="1.1" viewBox="0 0 16.933 16.933" xmlns="http://www.w3.org/2000/svg" xmlns:xlink="http://www.w3.org/1999/xlink">
 <defs>
  <linearGradient id="a" x2="0" y1="47" y2="1" gradientTransform="matrix(.26458 0 0 .26458 0 284.3)" gradientUnits="userSpaceOnUse">
   <stop stop-color="#fb5164" offset="0"/>
   <stop stop-color="#ee4e8a" offset="1"/>
  </linearGradient>
  <filter id="d" x="-.036" y="-.036" width="1.072" height="1.072" color-interpolation-filters="sRGB">
   <feGaussianBlur stdDeviation="14.170353"/>
  </filter>
  <linearGradient id="c" x1="519.68" x2="519.68" y1="2.8257" y2="1026.1" gradientTransform="matrix(1.0007 0 0 1.0007 -.029212 -.81883)" gradientUnits="userSpaceOnUse">
   <stop stop-color="#fcc" offset="0"/>
   <stop stop-color="#faf8f6" offset=".5"/>
   <stop stop-color="#ffe5ef" offset="1"/>
  </linearGradient>
  <filter id="e" x="-.035863" y="-.036138" width="1.0717" height="1.0723" color-interpolation-filters="sRGB">
   <feGaussianBlur stdDeviation="0.75453"/>
  </filter>
  <linearGradient id="j" x1="23.683" x2="25.655" y1="-25.544" y2="75.049" gradientUnits="userSpaceOnUse">
   <stop stop-color="#111" offset="0"/>
   <stop stop-color="#4c4c4c" offset=".54902"/>
   <stop stop-color="#888" offset="1"/>
  </linearGradient>
  <linearGradient id="b" x1="23.683" x2="25.655" y1="-25.544" y2="75.049" gradientUnits="userSpaceOnUse" xlink:href="#j"/>
  <linearGradient id="g" x1="8.4668" x2="8.4668" y1="4.92" y2="12.028" gradientTransform="matrix(1.0007 0 0 1.0007 -.029212 -.81883)" gradientUnits="userSpaceOnUse">
   <stop stop-color="#ffcfcf" offset="0"/>
   <stop stop-color="#faf8f6" offset=".5"/>
   <stop stop-color="#ffecec" offset="1"/>
  </linearGradient>
  <linearGradient id="f" x1="8.9153" x2="8.9153" y1="6.3731" y2="10.561" gradientUnits="userSpaceOnUse" xlink:href="#a"/>
  <filter id="i" x="-.068182" y="-.053571" width="1.1364" height="1.1071" color-interpolation-filters="sRGB">
   <feGaussianBlur stdDeviation="0.093480446"/>
  </filter>
  <filter id="h" x="-.036001" y="-.035999" width="1.072" height="1.072" color-interpolation-filters="sRGB">
   <feGaussianBlur stdDeviation="0.10662249"/>
  </filter>
 </defs>
 <g id="bg" transform="matrix(.016804 0 0 .016804 -.14386 -.13056)">
  <path d="m970.43 391.52c-1.1008-4.3532-2.3517-9.0066-3.6527-13.61-1.0007-3.4025-2.0015-6.855-3.1523-10.508-1.6012-5.1538-3.4025-10.508-5.3039-15.862-6.4547-18.263-14.16-36.076-23.167-53.689-3.8028-7.4054-7.9558-14.961-12.309-22.416-20.315-34.525-45.833-67.249-76.406-97.821-72.653-72.653-157.26-116.74-253.84-132.15-16.262-2.6019-32.824-4.4032-50.087-5.3539-9.7071-0.5504-19.865-0.85062-30.122-0.85062-9.3568 0-18.614 0.25018-27.92 0.75055-118.44 6.1045-220.46 51.988-306.07 137.6q-138.35 138.35-138.35 333.99c0 130.45 46.134 241.83 138.35 334.04 56.741 56.691 120.64 95.97 191.24 117.64 36.777 11.258 74.855 17.863 114.83 19.965h0.40029c8.5062 0.45033 16.612 0.70051 24.518 0.70051h3.0022c10.308 0 20.515-0.30022 30.122-0.80058 2.5018-0.15011 4.7535-0.30022 6.9551-0.45033 20.215-1.4511 39.929-4.053 58.743-7.7056 7.9558-1.5511 15.812-3.3024 23.417-5.1538 80.859-20.315 152.26-61.645 214.81-124.19 48.636-48.636 84.462-102.57 107.43-161.92 18.463-47.685 28.671-98.872 30.572-153.61 0.20015-6.0544 0.30022-12.259 0.30022-18.514v-3.0022c-0.20014-40.68-4.9536-79.558-14.31-117.09z" filter="url(#d)" opacity=".25" stroke-width="15.695"/>
  <path d="m970.43 391.52c-1.1008-4.3532-2.3517-9.0066-3.6527-13.61-1.0007-3.4025-2.0015-6.855-3.1523-10.508-1.6012-5.1538-3.4025-10.508-5.3039-15.862-6.4547-18.263-14.16-36.076-23.167-53.689-3.8028-7.4054-7.9558-14.961-12.309-22.416-20.315-34.525-45.833-67.249-76.406-97.821-72.653-72.653-157.26-116.74-253.84-132.15-16.262-2.6019-32.824-4.4032-50.087-5.3539-9.7071-0.5504-19.865-0.85062-30.122-0.85062-9.3568 0-18.614 0.25018-27.92 0.75055-118.44 6.1045-220.46 51.988-306.07 137.6q-138.35 138.35-138.35 333.99c0 130.45 46.134 241.83 138.35 334.04 56.741 56.691 120.64 95.97 191.24 117.64 36.777 11.258 74.855 17.863 114.83 19.965h0.40029c8.5062 0.45033 16.612 0.70051 24.518 0.70051h3.0022c10.308 0 20.515-0.30022 30.122-0.80058 2.5018-0.15011 4.7535-0.30022 6.9551-0.45033 20.215-1.4511 39.929-4.053 58.743-7.7056 7.9558-1.5511 15.812-3.3024 23.417-5.1538 80.859-20.315 152.26-61.645 214.81-124.19 48.636-48.636 84.462-102.57 107.43-161.92 18.463-47.685 28.671-98.872 30.572-153.61 0.20015-6.0544 0.30022-12.259 0.30022-18.514v-3.0022c-0.20014-40.68-4.9536-79.558-14.31-117.09z" fill="url(#c)" stroke-width="15.695"/>
  <g transform="matrix(10.18,0,0,10.18,258.87,272.08)" filter="url(#e)" opacity=".2" stroke-width="15.683">
   <g stroke-width="15.683"></g>
  </g>
  <g transform="matrix(10.18,0,0,10.18,258.87,262.04)" fill="url(#b)" stroke-width="15.683">
   <g fill="url(#b)" stroke-width="15.683"></g>
  </g>
 </g>
 <g transform="matrix(1.1539 0 0 1.1538 -1.3033 -1.3113)" stroke-width=".75104">
  <path transform="matrix(1.1304,0,0,1.1305,1.289,-320.1)" d="m6.35 284.56c-0.6 0-1.178 0.088-1.725 0.25-0.393 0.835-0.378 2.274-0.186 2.949 0.188 0.659 0.453 1.292 0.725 1.917a5.122 5.122 0 0 1-1.328-0.501c-0.721-0.417-1.745-1.615-2.02-2.589a6.067 6.067 0 0 0-1.432 2.85c0.49 0.668 1.62 1.312 2.452 1.52 0.671 0.168 1.35 0.24 2.025 0.298-0.312 0.322-0.65 0.609-1.038 0.838-0.723 0.418-2.276 0.706-3.257 0.455a6.089 6.089 0 0 0 1.686 2.6c0.929-0.074 2.138-0.793 2.611-1.3 0.475-0.507 0.884-1.074 1.284-1.643 0.12 0.447 0.198 0.895 0.202 1.35 0 0.84-0.5 2.344-1.17 3.062a6.105 6.105 0 0 0 2.982-0.16c0.329-0.753 0.326-2.086 0.1-2.924-0.182-0.682-0.45-1.321-0.726-1.95 0.47 0.11 0.92 0.267 1.342 0.505 0.724 0.417 1.751 1.62 2.023 2.596a6.07 6.07 0 0 0 1.401-2.773c-0.532-0.763-1.751-1.445-2.425-1.603-0.671-0.156-1.36-0.228-2.048-0.289a5 5 0 0 1 1.036-0.836c0.723-0.417 2.278-0.705 3.258-0.454a6.088 6.088 0 0 0-1.771-2.664c-0.823 0.098-1.935 0.75-2.528 1.362-0.485 0.502-0.89 1.058-1.282 1.62a5.282 5.282 0 0 1-0.192-1.31c0-0.84 0.5-2.344 1.169-3.062a6.105 6.105 0 0 0-1.17-0.114z" fill="url(#a)"/>
  <path d="m12.02 8.558a3.554 3.5542 0 0 1-7.106 0 3.554 3.5542 0 1 1 7.106 0z" filter="url(#h)" opacity=".25"/>
  <path d="m12.02 8.558a3.554 3.5542 0 0 1-7.106 0 3.554 3.5542 0 1 1 7.106 0z" fill="url(#g)"/>
  <path d="m10.463 8.607-2.98 1.924c-0.117 0.074-0.213 0.01-0.213-0.177v-3.77c0-0.213 0.094-0.25 0.213-0.176l2.98 1.924c0.133 0.086 0.127 0.192 0 0.275z" filter="url(#i)" opacity=".25"/>
  <path d="m10.463 8.607-2.98 1.924c-0.117 0.074-0.213 0.01-0.213-0.177v-3.77c0-0.213 0.094-0.25 0.213-0.176l2.98 1.924c0.133 0.086 0.127 0.192 0 0.275z" fill="url(#f)"/>
 </g>
</svg>
