<svg xmlns="http://www.w3.org/2000/svg" xmlns:xlink="http://www.w3.org/1999/xlink" width="64" height="64" viewBox="0 0 16.933 16.933"><defs><linearGradient id="b" x2="0" y1="47" y2="1" gradientTransform="translate(0 284.3) scale(.26458)" gradientUnits="userSpaceOnUse"><stop offset="0" stop-color="#fb5164"/><stop offset="1" stop-color="#ee4e8a"/></linearGradient><linearGradient id="d" x1="519.68" x2="519.68" y1="2.826" y2="1026.1" gradientTransform="translate(-.03 -.819) scale(1.0007)" gradientUnits="userSpaceOnUse"><stop offset="0" stop-color="#fcc"/><stop offset=".5" stop-color="#faf8f6"/><stop offset="1" stop-color="#ffe5ef"/></linearGradient><linearGradient id="a" x1="23.683" x2="25.655" y1="-25.544" y2="75.049" gradientUnits="userSpaceOnUse"><stop offset="0" stop-color="#111"/><stop offset=".549" stop-color="#4c4c4c"/><stop offset="1" stop-color="#888"/></linearGradient><linearGradient id="g" x1="8.467" x2="8.467" y1="4.92" y2="12.028" gradientTransform="translate(-.03 -.819) scale(1.0007)" gradientUnits="userSpaceOnUse"><stop offset="0" stop-color="#ffcfcf"/><stop offset=".5" stop-color="#faf8f6"/><stop offset="1" stop-color="#ffecec"/></linearGradient><linearGradient xlink:href="#b" id="i" x1="8.915" x2="8.915" y1="6.373" y2="10.561" gradientUnits="userSpaceOnUse"/><filter id="c" width="1.072" height="1.072" x="-.036" y="-.036" color-interpolation-filters="sRGB"><feGaussianBlur stdDeviation="14.17"/></filter><filter id="e" width="1.072" height="1.072" x="-.036" y="-.036" color-interpolation-filters="sRGB"><feGaussianBlur stdDeviation=".755"/></filter><filter id="h" width="1.136" height="1.107" x="-.068" y="-.054" color-interpolation-filters="sRGB"><feGaussianBlur stdDeviation=".093"/></filter><filter id="f" width="1.072" height="1.072" x="-.036" y="-.036" color-interpolation-filters="sRGB"><feGaussianBlur stdDeviation=".107"/></filter></defs><path d="M970.43 391.52a514.995 514.995 0 0 0-3.653-13.61c-1-3.403-2.001-6.855-3.152-10.508a421.479 421.479 0 0 0-5.304-15.862c-6.455-18.263-14.16-36.076-23.167-53.689a475.424 475.424 0 0 0-12.309-22.416c-20.315-34.525-45.833-67.249-76.406-97.821-72.653-72.653-157.26-116.74-253.84-132.15a484.051 484.051 0 0 0-50.087-5.354c-9.707-.55-19.865-.85-30.122-.85-9.357 0-18.614.25-27.92.75-118.44 6.105-220.46 51.988-306.07 137.6Q40.05 315.96 40.05 511.6c0 130.45 46.134 241.83 138.35 334.04 56.741 56.691 120.64 95.97 191.24 117.64 36.777 11.258 74.855 17.863 114.83 19.965h.4c8.507.45 16.612.7 24.518.7h3.003a583.3 583.3 0 0 0 30.122-.8c2.501-.15 4.753-.3 6.955-.45 20.215-1.451 39.929-4.053 58.743-7.706a519.823 519.823 0 0 0 23.417-5.154c80.859-20.315 152.26-61.645 214.81-124.19 48.636-48.636 84.462-102.57 107.43-161.92 18.463-47.685 28.67-98.872 30.572-153.61.2-6.054.3-12.259.3-18.514V508.6c-.2-40.68-4.954-79.558-14.31-117.09z" filter="url(#c)" opacity=".25" transform="translate(-.144 -.13) scale(.0168)"/><path fill="url(#d)" d="M970.43 391.52a514.995 514.995 0 0 0-3.653-13.61c-1-3.403-2.001-6.855-3.152-10.508a421.479 421.479 0 0 0-5.304-15.862c-6.455-18.263-14.16-36.076-23.167-53.689a475.424 475.424 0 0 0-12.309-22.416c-20.315-34.525-45.833-67.249-76.406-97.821-72.653-72.653-157.26-116.74-253.84-132.15a484.051 484.051 0 0 0-50.087-5.354c-9.707-.55-19.865-.85-30.122-.85-9.357 0-18.614.25-27.92.75-118.44 6.105-220.46 51.988-306.07 137.6Q40.05 315.96 40.05 511.6c0 130.45 46.134 241.83 138.35 334.04 56.741 56.691 120.64 95.97 191.24 117.64 36.777 11.258 74.855 17.863 114.83 19.965h.4c8.507.45 16.612.7 24.518.7h3.003a583.3 583.3 0 0 0 30.122-.8c2.501-.15 4.753-.3 6.955-.45 20.215-1.451 39.929-4.053 58.743-7.706a519.823 519.823 0 0 0 23.417-5.154c80.859-20.315 152.26-61.645 214.81-124.19 48.636-48.636 84.462-102.57 107.43-161.92 18.463-47.685 28.67-98.872 30.572-153.61.2-6.054.3-12.259.3-18.514V508.6c-.2-40.68-4.954-79.558-14.31-117.09z" transform="translate(-.144 -.13) scale(.0168)"/><g stroke-width="15.683" filter="url(#e)" opacity=".2" transform="translate(4.206 4.441) scale(.17106)"/><g stroke-width=".751"><path fill="url(#b)" d="M6.35 284.56c-.6 0-1.178.088-1.725.25-.393.835-.378 2.274-.186 2.949.188.659.453 1.292.725 1.917a5.122 5.122 0 0 1-1.328-.501c-.721-.417-1.745-1.615-2.02-2.589a6.067 6.067 0 0 0-1.432 2.85c.49.668 1.62 1.312 2.452 1.52.671.168 1.35.24 2.025.298-.312.322-.65.609-1.038.838-.723.418-2.276.706-3.257.455a6.089 6.089 0 0 0 1.686 2.6c.929-.074 2.138-.793 2.611-1.3.475-.507.884-1.074 1.284-1.643.12.447.198.895.202 1.35 0 .84-.5 2.344-1.17 3.062a6.105 6.105 0 0 0 2.982-.16c.329-.753.326-2.086.1-2.924-.182-.682-.45-1.321-.726-1.95.47.11.92.267 1.342.505.724.417 1.751 1.62 2.023 2.596a6.07 6.07 0 0 0 1.401-2.773c-.532-.763-1.751-1.445-2.425-1.603-.671-.156-1.36-.228-2.048-.289a5 5 0 0 1 1.036-.836c.723-.417 2.278-.705 3.258-.454a6.088 6.088 0 0 0-1.771-2.664c-.823.098-1.935.75-2.528 1.362-.485.502-.89 1.058-1.282 1.62a5.282 5.282 0 0 1-.192-1.31c0-.84.5-2.344 1.169-3.062a6.105 6.105 0 0 0-1.17-.114z" transform="translate(.184 -370.643) scale(1.3044)"/><path d="M12.02 8.558a3.554 3.554 0 0 1-7.106 0 3.554 3.554 0 1 1 7.106 0z" filter="url(#f)" opacity=".25" transform="matrix(1.1539 0 0 1.1538 -1.303 -1.311)"/><path fill="url(#g)" d="M12.02 8.558a3.554 3.554 0 0 1-7.106 0 3.554 3.554 0 1 1 7.106 0z" transform="matrix(1.1539 0 0 1.1538 -1.303 -1.311)"/><path d="m10.463 8.607-2.98 1.924c-.117.074-.213.01-.213-.177v-3.77c0-.213.094-.25.213-.176l2.98 1.924c.133.086.127.192 0 .275z" filter="url(#h)" opacity=".25" transform="matrix(1.1539 0 0 1.1538 -1.303 -1.311)"/><path fill="url(#i)" d="m10.463 8.607-2.98 1.924c-.117.074-.213.01-.213-.177v-3.77c0-.213.094-.25.213-.176l2.98 1.924c.133.086.127.192 0 .275z" transform="matrix(1.1539 0 0 1.1538 -1.303 -1.311)"/></g></svg>