<svg xmlns="http://www.w3.org/2000/svg" width="64" height="64" viewBox="0 0 16.933 16.933"><defs><linearGradient id="e" x1="29.504" x2="29.504" y1="47.747" y2="17.014" gradientTransform="scale(.26458)" gradientUnits="userSpaceOnUse"><stop offset="0" stop-color="#b8ffde"/><stop offset="1" stop-color="#fff"/></linearGradient><linearGradient id="b" x1="169.51" x2="169.51" y1="122.46" y2="16.447" gradientTransform="translate(-14.466 -.715)scale(.13643)" gradientUnits="userSpaceOnUse"><stop offset="0" stop-color="#33cc7c"/><stop offset="1" stop-color="#6ee3bc"/></linearGradient><filter id="c" width="1.378" height="1.297" x="-.189" y="-.148" color-interpolation-filters="sRGB"><feGaussianBlur stdDeviation=".409"/></filter><filter id="a" width="1.061" height="1.061" x="-.031" y="-.031" color-interpolation-filters="sRGB"><feGaussianBlur stdDeviation=".203"/></filter><clipPath id="d"><circle cx="8.467" cy="288.53" r="6.879" fill="#d86eb0" stroke-opacity=".039" stroke-width=".491" style="paint-order:stroke markers fill"/></clipPath></defs><rect width="15.875" height="15.875" x=".529" y=".529" filter="url(#a)" opacity=".15" rx="7.937" ry="7.937"/><rect width="15.875" height="15.875" x=".529" y=".529" fill="url(#b)" rx="7.937" ry="7.937"/><g filter="url(#c)" opacity=".5" transform="translate(-.123 .236)"><g stroke="#000" stroke-linecap="round" stroke-linejoin="round"><path stroke-width="1.058" d="M11.771 3.613a1.5 1.5 0 0 0-.34.046l-2.397.486-2.13.42c-.244.052-.365.157-.42.313a1 1 0 0 0-.025.099 1.2 1.2 0 0 0-.012.235l.006 5.388q-.005.141-.024.252 0 0 0 0a.45.45 0 0 1-.127.266c-.072.066-.18.112-.343.138-.482.072-.843.168-1.11.286a2 2 0 0 0-.15.074 1.4 1.4 0 0 0-.238.164.93.93 0 0 0-.32.617q-.016.117-.014.244c.004.254.083.489.22.679a1.1 1.1 0 0 0 .348.314q.208.121.472.15.13.014.273 0c.248-.028.473-.073.673-.15a1.4 1.4 0 0 0 .826-.828c.037-.108.063-.247.078-.404.021-.21.024-.451.01-.694L7.02 7.422c0-.112-.006-.206.006-.283q0 0 0 0l.005-.02q.005-.028.014-.053a.2.2 0 0 1 .038-.062c.05-.058.136-.1.285-.131l2.393-.483v0l1.42-.286q.173-.037.257.031c.057.047.085.131.087.262l.006 3.201c-.01.19-.023.328-.089.427a.3.3 0 0 1-.06.067.5.5 0 0 1-.196.097s0 0 0 0a1 1 0 0 1-.146.031 6 6 0 0 0-.521.1 3 3 0 0 0-.59.195q-.16.073-.279.159a1 1 0 0 0-.2.181c-.193.224-.25.489-.245.786.006.422.225.779.574.968q.21.116.474.14.131.012.273-.002c.249-.027.47-.069.667-.142a1.4 1.4 0 0 0 .36-.194 1.43 1.43 0 0 0 .454-.618s0 0 0 0c.08-.25.09-.654.098-1.087l-.004-6.555a2 2 0 0 0-.023-.28l-.007-.032a.4.4 0 0 0-.035-.093.2.2 0 0 0-.055-.065l-.022-.016a.3.3 0 0 0-.057-.028l-.026-.01a.5.5 0 0 0-.106-.014z" opacity=".01"/><path stroke-width=".794" d="M11.771 3.613a1.5 1.5 0 0 0-.34.046l-2.397.486-2.13.42c-.244.052-.365.157-.42.313a1 1 0 0 0-.025.099 1.2 1.2 0 0 0-.012.235l.006 5.388q-.005.141-.024.252 0 0 0 0a.45.45 0 0 1-.127.266c-.072.066-.18.112-.343.138-.482.072-.843.168-1.11.286a2 2 0 0 0-.15.074 1.4 1.4 0 0 0-.238.164.93.93 0 0 0-.32.617q-.016.117-.014.244c.004.254.083.489.22.679a1.1 1.1 0 0 0 .348.314q.208.121.472.15.13.014.273 0c.248-.028.473-.073.673-.15a1.4 1.4 0 0 0 .826-.828c.037-.108.063-.247.078-.404.021-.21.024-.451.01-.694L7.02 7.422c0-.112-.006-.206.006-.283q0 0 0 0l.005-.02q.005-.028.014-.053a.2.2 0 0 1 .038-.062c.05-.058.136-.1.285-.131l2.393-.483v0l1.42-.286q.173-.037.257.031c.057.047.085.131.087.262l.006 3.201c-.01.19-.023.328-.089.427a.3.3 0 0 1-.06.067.5.5 0 0 1-.196.097s0 0 0 0a1 1 0 0 1-.146.031 6 6 0 0 0-.521.1 3 3 0 0 0-.59.195q-.16.073-.279.159a1 1 0 0 0-.2.181c-.193.224-.25.489-.245.786.006.422.225.779.574.968q.21.116.474.14.131.012.273-.002c.249-.027.47-.069.667-.142a1.4 1.4 0 0 0 .36-.194 1.43 1.43 0 0 0 .454-.618s0 0 0 0c.08-.25.09-.654.098-1.087l-.004-6.555a2 2 0 0 0-.023-.28l-.007-.032a.4.4 0 0 0-.035-.093.2.2 0 0 0-.055-.065l-.022-.016a.3.3 0 0 0-.057-.028l-.026-.01a.5.5 0 0 0-.106-.014z" opacity=".02"/><path stroke-width=".529" d="M11.771 3.613a1.5 1.5 0 0 0-.34.046l-2.397.486-2.13.42c-.244.052-.365.157-.42.313a1 1 0 0 0-.025.099 1.2 1.2 0 0 0-.012.235l.006 5.388q-.005.141-.024.252 0 0 0 0a.45.45 0 0 1-.127.266c-.072.066-.18.112-.343.138-.482.072-.843.168-1.11.286a2 2 0 0 0-.15.074 1.4 1.4 0 0 0-.238.164.93.93 0 0 0-.32.617q-.016.117-.014.244c.004.254.083.489.22.679a1.1 1.1 0 0 0 .348.314q.208.121.472.15.13.014.273 0c.248-.028.473-.073.673-.15a1.4 1.4 0 0 0 .826-.828c.037-.108.063-.247.078-.404.021-.21.024-.451.01-.694L7.02 7.422c0-.112-.006-.206.006-.283q0 0 0 0l.005-.02q.005-.028.014-.053a.2.2 0 0 1 .038-.062c.05-.058.136-.1.285-.131l2.393-.483v0l1.42-.286q.173-.037.257.031c.057.047.085.131.087.262l.006 3.201c-.01.19-.023.328-.089.427a.3.3 0 0 1-.06.067.5.5 0 0 1-.196.097s0 0 0 0a1 1 0 0 1-.146.031 6 6 0 0 0-.521.1 3 3 0 0 0-.59.195q-.16.073-.279.159a1 1 0 0 0-.2.181c-.193.224-.25.489-.245.786.006.422.225.779.574.968q.21.116.474.14.131.012.273-.002c.249-.027.47-.069.667-.142a1.4 1.4 0 0 0 .36-.194 1.43 1.43 0 0 0 .454-.618s0 0 0 0c.08-.25.09-.654.098-1.087l-.004-6.555a2 2 0 0 0-.023-.28l-.007-.032a.4.4 0 0 0-.035-.093.2.2 0 0 0-.055-.065l-.022-.016a.3.3 0 0 0-.057-.028l-.026-.01a.5.5 0 0 0-.106-.014z" opacity=".03"/><path stroke-width=".265" d="M11.771 3.613a1.5 1.5 0 0 0-.34.046l-2.397.486-2.13.42c-.244.052-.365.157-.42.313a1 1 0 0 0-.025.099 1.2 1.2 0 0 0-.012.235l.006 5.388q-.005.141-.024.252 0 0 0 0a.45.45 0 0 1-.127.266c-.072.066-.18.112-.343.138-.482.072-.843.168-1.11.286a2 2 0 0 0-.15.074 1.4 1.4 0 0 0-.238.164.93.93 0 0 0-.32.617q-.016.117-.014.244c.004.254.083.489.22.679a1.1 1.1 0 0 0 .348.314q.208.121.472.15.13.014.273 0c.248-.028.473-.073.673-.15a1.4 1.4 0 0 0 .826-.828c.037-.108.063-.247.078-.404.021-.21.024-.451.01-.694L7.02 7.422c0-.112-.006-.206.006-.283q0 0 0 0l.005-.02q.005-.028.014-.053a.2.2 0 0 1 .038-.062c.05-.058.136-.1.285-.131l2.393-.483v0l1.42-.286q.173-.037.257.031c.057.047.085.131.087.262l.006 3.201c-.01.19-.023.328-.089.427a.3.3 0 0 1-.06.067.5.5 0 0 1-.196.097s0 0 0 0a1 1 0 0 1-.146.031 6 6 0 0 0-.521.1 3 3 0 0 0-.59.195q-.16.073-.279.159a1 1 0 0 0-.2.181c-.193.224-.25.489-.245.786.006.422.225.779.574.968q.21.116.474.14.131.012.273-.002c.249-.027.47-.069.667-.142a1.4 1.4 0 0 0 .36-.194 1.43 1.43 0 0 0 .454-.618s0 0 0 0c.08-.25.09-.654.098-1.087l-.004-6.555a2 2 0 0 0-.023-.28l-.007-.032a.4.4 0 0 0-.035-.093.2.2 0 0 0-.055-.065l-.022-.016a.3.3 0 0 0-.057-.028l-.026-.01a.5.5 0 0 0-.106-.014z" opacity=".03"/></g><path d="M11.771 3.613a1.5 1.5 0 0 0-.34.046l-2.397.486-2.13.42c-.244.052-.365.157-.42.313a1 1 0 0 0-.025.099 1.2 1.2 0 0 0-.012.235l.006 5.388q-.005.141-.024.252a.45.45 0 0 1-.127.266c-.072.066-.18.112-.343.138-.482.072-.843.168-1.11.286a2 2 0 0 0-.15.074 1.4 1.4 0 0 0-.238.164.93.93 0 0 0-.32.617q-.016.117-.014.244c.004.254.083.489.22.679a1.1 1.1 0 0 0 .348.314q.208.121.472.15.13.014.273 0c.248-.028.473-.073.673-.15a1.4 1.4 0 0 0 .826-.828c.037-.108.063-.247.078-.404.021-.21.024-.451.01-.694L7.02 7.422c0-.112-.006-.206.006-.283l.005-.02q.005-.028.014-.053a.2.2 0 0 1 .038-.062c.05-.058.136-.1.285-.131l2.393-.483 1.42-.286q.173-.037.257.031c.057.047.085.131.087.262l.006 3.201c-.01.19-.023.328-.089.427a.3.3 0 0 1-.06.067.5.5 0 0 1-.196.097 1 1 0 0 1-.146.031 6 6 0 0 0-.521.1 3 3 0 0 0-.59.195q-.16.073-.279.159a1 1 0 0 0-.2.181c-.193.224-.25.489-.245.786.006.422.225.779.574.968q.21.116.474.14.131.012.273-.002c.249-.027.47-.069.667-.142a1.4 1.4 0 0 0 .36-.194 1.43 1.43 0 0 0 .454-.618c.08-.25.09-.654.098-1.087l-.004-6.555a2 2 0 0 0-.023-.28l-.007-.032a.4.4 0 0 0-.035-.093.2.2 0 0 0-.055-.065l-.022-.016a.3.3 0 0 0-.057-.028l-.026-.01a.5.5 0 0 0-.106-.014z" opacity=".15"/></g><g fill="none" stroke="#fff" stroke-opacity=".937" stroke-width=".114" clip-path="url(#d)" transform="translate(-1.303 -324.6)scale(1.1539)"><path d="M1.485 287.74c.72.155 1.391.625 1.983 1.98.674 1.545 1.623 2.23 2.772 2.284 1.48.07 2.673-1.226 3.459-2.385 1.602-2.362 4.519-2.136 5.816-1.251" opacity=".35"/><path d="M1.493 288.13c.894-.35 2.083-.424 2.872.827.722 1.143 1.576 2.867 4.049 2.709 1.478-.095 2.956-.71 3.718-2.15.53-.933 1.26-1.872 2.293-2.104.382-.081.655-.07.976.057" opacity=".35"/><path d="M1.775 290.25c.947-.444 2.745-.953 4.197-.53 1.297.38 2.937 1.847 6.056 1.504.824-.09 1.522-.563 2.183-1.464.478-.652.75-1.02 1.306-1.167" opacity=".35"/></g><path fill="url(#e)" d="M11.516 3.225c-.09-.002-.2.014-.34.046l-2.397.486-2.13.42c-.244.052-.365.157-.42.313a1 1 0 0 0-.025.099 1.2 1.2 0 0 0-.012.235l.006 5.388q-.005.141-.024.252a.45.45 0 0 1-.127.265c-.072.067-.18.113-.343.139-.482.072-.843.168-1.11.286a2 2 0 0 0-.15.074 1.4 1.4 0 0 0-.238.164.93.93 0 0 0-.32.616 2 2 0 0 0-.014.245c.004.254.083.489.22.679a1.1 1.1 0 0 0 .348.314q.208.121.472.15.13.013.273 0a2.7 2.7 0 0 0 .673-.15 1.4 1.4 0 0 0 .826-.828c.037-.108.063-.247.078-.404.021-.21.024-.451.01-.694l-.007-4.286c.001-.112-.005-.206.007-.283V6.75q.001-.01.005-.02.006-.027.014-.052a.2.2 0 0 1 .038-.062c.05-.058.136-.1.285-.131l2.393-.483 1.42-.287c.116-.023.2-.015.257.032s.085.131.087.261l.006 3.202c-.01.19-.023.328-.089.427a.3.3 0 0 1-.06.067.5.5 0 0 1-.196.097 1 1 0 0 1-.146.031 6 6 0 0 0-.522.1 3 3 0 0 0-.588.195q-.16.073-.28.159-.119.085-.2.181c-.193.224-.25.489-.245.786.006.422.225.779.573.968q.211.116.475.14.131.012.273-.002c.249-.027.47-.068.667-.142a1.4 1.4 0 0 0 .36-.194 1.43 1.43 0 0 0 .454-.617v-.001c.08-.25.09-.654.098-1.087l-.004-6.555a2 2 0 0 0-.023-.28l-.007-.032a.4.4 0 0 0-.035-.093.2.2 0 0 0-.055-.065l-.022-.016a.3.3 0 0 0-.057-.028l-.026-.01a.5.5 0 0 0-.106-.014"/></svg>