<svg xmlns="http://www.w3.org/2000/svg" width="64" height="64" enable-background="new 0 0 1024 1024" image-rendering="optimizeSpeed"><defs><filter id="a" width="1.072" height="1.072" x="-.036" y="-.036" color-interpolation-filters="sRGB"><feGaussianBlur stdDeviation="14.17"/></filter><filter id="c" width="1.165" height="1.312" x="-.083" y="-.156" color-interpolation-filters="sRGB"><feGaussianBlur stdDeviation="1.43"/></filter><linearGradient id="b" x1="-33.088" x2="-33.088" y1="1.124" y2="61.124" gradientTransform="translate(65.088 .876)" gradientUnits="userSpaceOnUse"><stop offset="0" stop-color="#ff364e"/><stop offset="1" stop-color="#ff5d1d"/></linearGradient></defs><path d="M970.43 391.52a514.995 514.995 0 0 0-3.653-13.61c-1-3.403-2.001-6.855-3.152-10.508a421.479 421.479 0 0 0-5.304-15.862c-6.455-18.263-14.16-36.076-23.167-53.689a475.424 475.424 0 0 0-12.309-22.416c-20.315-34.525-45.833-67.249-76.406-97.821-72.653-72.653-157.26-116.74-253.84-132.15a484.051 484.051 0 0 0-50.087-5.354c-9.707-.55-19.865-.85-30.122-.85-9.357 0-18.614.25-27.92.75-118.44 6.105-220.46 51.988-306.07 137.6Q40.05 315.96 40.05 511.6c0 130.45 46.134 241.83 138.35 334.04 56.741 56.691 120.64 95.97 191.24 117.64 36.777 11.258 74.855 17.863 114.83 19.965h.4c8.507.45 16.612.7 24.518.7h3.003a583.3 583.3 0 0 0 30.122-.8c2.501-.15 4.753-.3 6.955-.45 20.215-1.451 39.929-4.053 58.743-7.706a519.823 519.823 0 0 0 23.417-5.154c80.859-20.315 152.26-61.645 214.81-124.19 48.636-48.636 84.462-102.57 107.43-161.92 18.463-47.685 28.67-98.872 30.572-153.61.2-6.054.3-12.259.3-18.514V508.6c-.2-40.68-4.954-79.558-14.31-117.09z" filter="url(#a)" opacity=".25" transform="translate(-.544 -.493) scale(.06351)"/><circle cx="32" cy="32" r="30" fill="url(#b)" style="paint-order:stroke fill markers"/><path d="M28.878 20.995c-.919-.008-2.13-.007-3.416.007l-4.679.053.478.58c.6.728 1.238 2.127 3.607 7.91 3.494 8.535 3.968 9.508 4.626 9.508.101 0 .302-.186.446-.415.588-.934 4.501-10.05 4.498-10.477-.003-.254-.553-1.727-1.223-3.275-1.225-2.831-1.77-3.607-2.685-3.836-.108-.027-.733-.047-1.652-.055zm-8.696 1.146c-.237.007-.466.186-.69.535L11.223 42.99h10.195s3.535-8.838 3.85-9.697c.106-.288-2.741-7.587-3.802-9.746-.468-.953-.889-1.418-1.285-1.406zm21.65 3.824c-.768-.034-1.861.258-3.795.93-1.496.521-2.607 1.082-2.766 1.247-.3.31-4.617 10.583-4.617 10.981 0 .462.442.697 1.112.59.365-.059 3.882-1.352 8.112-2.875 5.528-1.99 7.917-2.769 8.5-2.769.546 0 .812-.078.812-.24 0-.312-5.447-6.92-6.211-7.465a2.008 2.008 0 0 0-1.146-.399zm6.575 8.909c-.399-.047-.819.053-1.833.377-3.221 1.026-6.052 2.175-6.052 2.454 0 .306 2.03 5.285 2.03 5.285h10.225s-2.828-7.25-3.089-7.582c-.099-.126-.49-.325-.869-.441a2.315 2.315 0 0 0-.412-.093z" filter="url(#c)" opacity=".15"/><path fill="#fff" d="M28.878 20c-.919-.008-2.13-.007-3.416.007l-4.679.053.478.58c.6.728 1.238 2.127 3.607 7.91 3.494 8.535 3.968 9.508 4.626 9.508.101 0 .302-.186.446-.415.588-.934 4.501-10.05 4.498-10.477-.003-.254-.553-1.727-1.223-3.275-1.225-2.831-1.77-3.607-2.685-3.836-.108-.027-.733-.047-1.652-.055zm-8.696 1.146c-.237.007-.466.186-.69.535l-8.269 20.314h10.195s3.535-8.838 3.85-9.697c.106-.288-2.741-7.587-3.802-9.746-.468-.953-.889-1.418-1.285-1.406zm21.65 3.824c-.768-.034-1.861.258-3.795.93-1.496.521-2.607 1.082-2.766 1.247-.3.31-4.617 10.583-4.617 10.981 0 .462.442.697 1.112.59.365-.059 3.882-1.352 8.112-2.875 5.528-1.99 7.917-2.769 8.5-2.769.546 0 .812-.078.812-.24 0-.312-5.447-6.92-6.211-7.465a2.008 2.008 0 0 0-1.146-.399zm6.575 8.909c-.399-.047-.819.053-1.833.377-3.221 1.026-6.052 2.175-6.052 2.454 0 .306 2.03 5.285 2.03 5.285h10.225s-2.828-7.25-3.089-7.582c-.099-.126-.49-.325-.869-.441a2.315 2.315 0 0 0-.412-.093z"/></svg>