<svg id="SimpleNote" width="64" height="64" enable-background="new 0 0 1024 1024" image-rendering="optimizeSpeed" version="1.1" viewBox="0 0 64 64" xmlns="http://www.w3.org/2000/svg">
 <defs>
  <filter id="c" x="-.036" y="-.036" width="1.072" height="1.072" color-interpolation-filters="sRGB">
   <feGaussianBlur stdDeviation="14.170353"/>
  </filter>
  <linearGradient id="b" x1="-33.088" x2="-33.088" y1="1.1236" y2="61.124" gradientTransform="translate(65.088 .87636)" gradientUnits="userSpaceOnUse">
   <stop stop-color="#ff364e" offset="0"/>
   <stop stop-color="#ff5d1d" offset="1"/>
  </linearGradient>
  <filter id="filter873" x="-.082589" y="-.156" width="1.1652" height="1.312" color-interpolation-filters="sRGB">
   <feGaussianBlur stdDeviation="1.4299821"/>
  </filter>
 </defs>
 <path transform="matrix(.063513 0 0 .063513 -.54373 -.49348)" d="m970.43 391.52c-1.1008-4.3532-2.3517-9.0066-3.6527-13.61-1.0007-3.4025-2.0015-6.855-3.1523-10.508-1.6012-5.1538-3.4025-10.508-5.3039-15.862-6.4547-18.263-14.16-36.076-23.167-53.689-3.8028-7.4054-7.9558-14.961-12.309-22.416-20.315-34.525-45.833-67.249-76.406-97.821-72.653-72.653-157.26-116.74-253.84-132.15-16.262-2.6019-32.824-4.4032-50.087-5.3539-9.7071-0.5504-19.865-0.85062-30.122-0.85062-9.3568 0-18.614 0.25018-27.92 0.75055-118.44 6.1045-220.46 51.988-306.07 137.6q-138.35 138.35-138.35 333.99c0 130.45 46.134 241.83 138.35 334.04 56.741 56.691 120.64 95.97 191.24 117.64 36.777 11.258 74.855 17.863 114.83 19.965h0.40029c8.5062 0.45033 16.612 0.70051 24.518 0.70051h3.0022c10.308 0 20.515-0.30022 30.122-0.80058 2.5018-0.15011 4.7535-0.30022 6.9551-0.45033 20.215-1.4511 39.929-4.053 58.743-7.7056 7.9558-1.5511 15.812-3.3024 23.417-5.1538 80.859-20.315 152.26-61.645 214.81-124.19 48.636-48.636 84.462-102.57 107.43-161.92 18.463-47.685 28.671-98.872 30.572-153.61 0.20015-6.0544 0.30022-12.259 0.30022-18.514v-3.0022c-0.20014-40.68-4.9536-79.558-14.31-117.09z" filter="url(#c)" opacity=".25" stroke-width="15.695"/>
 <circle cx="32" cy="32" r="30" fill="url(#b)" style="paint-order:stroke fill markers"/>
 <path d="m28.878 20.995c-0.91877-0.0083-2.1299-0.0072-3.416 0.0072l-4.6787 0.05252 0.47742 0.58007c0.59993 0.72859 1.2387 2.1275 3.6069 7.9109 3.4946 8.5341 3.9688 9.5078 4.6262 9.5078 0.10158 0 0.30254-0.18692 0.44639-0.41536 0.58817-0.93406 4.501-10.05 4.4973-10.477-0.0024-0.25382-0.55213-1.7271-1.2222-3.2751-1.2255-2.8313-1.7695-3.6074-2.6855-3.8361-0.10792-0.02695-0.73311-0.04655-1.6519-0.0549zm-8.6962 1.1458c-0.23729 0.0072-0.46625 0.18586-0.68987 0.53471l-8.2689 20.314h10.195s3.5351-8.8375 3.8504-9.6964c0.10563-0.2879-2.7416-7.5867-3.8027-9.7466-0.46777-0.95219-0.88877-1.418-1.2843-1.406zm21.651 3.8241c-0.76902-0.03355-1.8621 0.25835-3.7955 0.93097-1.4963 0.52054-2.6076 1.0813-2.7667 1.2461-0.30016 0.31092-4.6167 10.583-4.6167 10.981 0 0.46223 0.44195 0.69681 1.1124 0.58962 0.36461-0.05829 3.8812-1.3511 8.1114-2.8741 5.5284-1.9904 7.9177-2.769 8.5005-2.769 0.5462 0 0.81162-0.07889 0.81162-0.2411 0-0.31107-5.4464-6.9186-6.2113-7.4645-0.3396-0.24239-0.6844-0.37852-1.1458-0.39865zm6.5741 8.9087c-0.39845-0.04679-0.81852 0.05375-1.8333 0.37716-3.221 1.0265-6.0513 2.1754-6.0513 2.4539 0 0.30656 2.029 5.2851 2.029 5.2851h10.226s-2.8283-7.2497-3.0889-7.5814c-0.09927-0.12644-0.48996-0.32556-0.86891-0.44162-0.14982-0.04588-0.28015-0.0775-0.41297-0.09309z" filter="url(#filter873)" opacity=".15" stroke-width="1.2222"/>
 <path d="m28.878 20c-0.91877-0.0083-2.1299-0.0072-3.416 0.0072l-4.6787 0.05252 0.47742 0.58007c0.59993 0.72859 1.2387 2.1275 3.6069 7.9109 3.4946 8.5341 3.9688 9.5078 4.6262 9.5078 0.10158 0 0.30254-0.18692 0.44639-0.41536 0.58817-0.93406 4.501-10.05 4.4973-10.477-0.0024-0.25382-0.55213-1.7271-1.2222-3.2751-1.2255-2.8313-1.7695-3.6074-2.6855-3.8361-0.10792-0.02695-0.73311-0.04655-1.6519-0.0549zm-8.6962 1.1458c-0.23729 0.0072-0.46625 0.18586-0.68987 0.53471l-8.2689 20.314h10.195s3.5351-8.8375 3.8504-9.6964c0.10563-0.2879-2.7416-7.5867-3.8027-9.7466-0.46777-0.95219-0.88877-1.418-1.2843-1.406zm21.651 3.8241c-0.76902-0.03355-1.8621 0.25835-3.7955 0.93097-1.4963 0.52054-2.6076 1.0813-2.7667 1.2461-0.30016 0.31092-4.6167 10.583-4.6167 10.981 0 0.46223 0.44195 0.69681 1.1124 0.58962 0.36461-0.05829 3.8812-1.3511 8.1114-2.8741 5.5284-1.9904 7.9177-2.769 8.5005-2.769 0.5462 0 0.81162-0.07889 0.81162-0.2411 0-0.31107-5.4464-6.9186-6.2113-7.4645-0.3396-0.24239-0.6844-0.37852-1.1458-0.39865zm6.5741 8.9087c-0.39845-0.04679-0.81852 0.05375-1.8333 0.37716-3.221 1.0265-6.0513 2.1754-6.0513 2.4539 0 0.30656 2.029 5.2851 2.029 5.2851h10.226s-2.8283-7.2497-3.0889-7.5814c-0.09927-0.12644-0.48996-0.32556-0.86891-0.44162-0.14982-0.04588-0.28015-0.0775-0.41297-0.09309z" fill="#fff" stroke-width="1.2222"/>
</svg>
