<?xml version="1.0" encoding="UTF-8"?>
<svg width="64" height="64" version="1.1" viewBox="0 0 16.933 16.933" xmlns="http://www.w3.org/2000/svg">
 <defs>
  <linearGradient id="b" x1="-895.97" x2="-894.97" y1="-475.62" y2="-475.62" gradientTransform="matrix(-7.1029 12.039 8.3076 10.293 -2397.2 15685)" gradientUnits="userSpaceOnUse">
   <stop stop-color="#251480" offset="0"/>
   <stop stop-color="#e96bc3" offset="1"/>
  </linearGradient>
  <linearGradient id="d" x1="-895.97" x2="-894.97" y1="-475.62" y2="-475.62" gradientTransform="matrix(7.6222 -12.068 -8.3283 -11.045 2869.4 -16052)" gradientUnits="userSpaceOnUse">
   <stop stop-color="#ffbe00" offset="0"/>
   <stop stop-color="#f39060" offset="1"/>
  </linearGradient>
  <linearGradient id="a-6" x1="7.937" x2="7.937" y1="15.081" y2="1.852" gradientTransform="matrix(1.0714 0 0 1.0714 -.60437 -.5958)" gradientUnits="userSpaceOnUse">
   <stop stop-color="#767574" offset="0"/>
   <stop stop-color="#d1e7ee" offset="1"/>
  </linearGradient>
  <filter id="filter7" x="-.027" y="-.027" width="1.054" height="1.054" color-interpolation-filters="sRGB">
   <feGaussianBlur stdDeviation="0.675"/>
  </filter>
 </defs>
 <g transform="scale(.26458)">
  <rect x="2" y="3" width="60" height="60" rx="30" ry="30" filter="url(#filter7)" opacity=".15"/>
 </g>
 <rect x=".52916" y=".52916" width="15.875" height="15.875" rx="7.9373" ry="7.9373" fill="url(#a-6)" stroke-width="1.0714"/>
 <rect x="1.0583" y="1.0583" width="14.816" height="14.816" rx="7.4001" ry="7.4082" fill="#030000" stroke-width="1.0776"/>
 <path d="m8.4587 1.5875c-3.8068 1e-7 -6.8713 3.0681-6.8713 6.879 1e-7 3.6778 2.8544 6.663 6.4754 6.8671l1.2407-13.695c-0.27206-0.032519-0.5483-0.051159-0.82939-0.051159h-0.015503z" fill="url(#d)"/>
 <path d="m9.3036 1.6386-1.2407 13.695c0.13111 0.007393 0.26281 0.011885 0.39583 0.011885h0.015503c3.8068 0 6.8713-3.0681 6.8713-6.879 0-3.5296-2.6294-6.42-6.0419-6.8279z" fill="url(#b)"/>
 <path d="m13.896 9.717-.029-.015c-.206.03-.412 0-.618-.044A1.648 1.648 0 0 1 12.1 7.642a1.66 1.66 0 0 1 .28-.559v-.03l-.03-.014a1.7 1.7 0 0 0-1.457 1.236c-.117.442-.058.897.162 1.295a1.65 1.65 0 0 0 1.03.794c.148.045.31.059.457.059a1.7 1.7 0 0 0 1.353-.676zm-9.211.177a.204.204 0 0 0-.25.058l-.22.397a.204.204 0 0 0 .058.25c.03.015.06.03.089.03.059 0 .118-.03.162-.088l.22-.397c.06-.089.03-.207-.059-.25ZM3.553 7.907l.397.221c.03.014.059.03.088.03.059 0 .118-.03.162-.09a.204.204 0 0 0-.059-.25l-.397-.22a.204.204 0 0 0-.25.059c-.044.088-.015.206.059.25Zm2.472-.338c.029.014.058.03.088.03.059 0 .117-.03.162-.09l.22-.396a.204.204 0 0 0-.058-.25.205.205 0 0 0-.25.058l-.222.397c-.058.104-.029.207.06.25Zm1.118 1.986-.398-.22a.204.204 0 0 0-.25.058.204.204 0 0 0 .059.25l.398.22c.029.016.058.03.088.03.059 0 .117-.03.162-.088.058-.088.029-.191-.06-.25ZM4.2 9.408c-.044-.088-.162-.118-.25-.06l-.382.207c-.089.044-.118.162-.06.25.03.059.089.089.162.089.03 0 .06-.015.088-.03l.398-.22c.059-.045.088-.162.044-.236Zm.235-1.898c.03.059.089.088.163.088a.201.201 0 0 0 .087-.03c.089-.043.118-.161.06-.25l-.221-.397c-.044-.088-.162-.118-.25-.058-.089.044-.118.161-.06.25Zm2.075.559c.03.06.088.088.162.088.03 0 .059-.015.088-.029l.397-.22c.089-.045.118-.163.06-.251-.045-.088-.162-.117-.25-.059l-.398.22c-.074.045-.103.163-.059.25zm-.235 1.883a.172.172 0 0 0-.25-.058c-.089.043-.118.161-.06.25l.221.397c.03.058.089.088.162.088.03 0 .059-.015.089-.03.088-.043.117-.161.058-.25ZM4.023 8.731a.17.17 0 0 0-.176-.176h-.633a.17.17 0 0 0-.176.176.17.17 0 0 0 .176.176h.633a.179.179 0 0 0 .176-.176zm1.325-1.339a.17.17 0 0 0 .176-.177v-.632a.17.17 0 0 0-.176-.177.17.17 0 0 0-.177.177v.632a.18.18 0 0 0 .177.177zm2.148 1.163h-.633a.17.17 0 0 0-.176.176.17.17 0 0 0 .176.176h.633a.17.17 0 0 0 .176-.176c.015-.103-.073-.176-.176-.176ZM5.363 10.07a.17.17 0 0 0-.177.177v.632a.17.17 0 0 0 .177.177.17.17 0 0 0 .176-.177v-.632a.179.179 0 0 0-.176-.177zm0-2.31a.98.98 0 0 0-.972.971c0 .53.442.971.972.971a.98.98 0 0 0 .97-.971.98.98 0 0 0-.97-.97zm0 0" fill="#fff"/>
</svg>
