<svg xmlns="http://www.w3.org/2000/svg" width="64" height="64"><defs><linearGradient id="b" x1="1" x2="47" gradientTransform="rotate(-90 24 24)" gradientUnits="userSpaceOnUse"><stop offset="0" stop-color="#1b222d"/><stop offset="1" stop-color="#394250"/></linearGradient><linearGradient id="d" x1="24" x2="24" y1="19" y2="35" gradientTransform="translate(-4.783 -4.783) scale(1.5652)" gradientUnits="userSpaceOnUse"><stop offset="0" stop-color="#f9f9f9"/><stop offset="1" stop-color="#eee"/></linearGradient><linearGradient id="f" x1="22" x2="22" y1="12" y2="29.997" gradientTransform="translate(-4.783 -4.783) scale(1.5652)" gradientUnits="userSpaceOnUse"><stop offset="0" stop-color="#31b3d2"/><stop offset="1" stop-color="#4563be"/></linearGradient><filter id="c" width="1.113" height="1.127" x="-.057" y="-.064" color-interpolation-filters="sRGB"><feGaussianBlur stdDeviation=".665"/></filter><filter id="e" width="1.127" height="1.113" x="-.064" y="-.057" color-interpolation-filters="sRGB"><feGaussianBlur stdDeviation=".665"/></filter><filter id="a" width="1.072" height="1.072" x="-.036" y="-.036" color-interpolation-filters="sRGB"><feGaussianBlur stdDeviation=".69"/></filter></defs><g filter="url(#a)" opacity=".15" transform="translate(.696 .696) scale(1.3043)"><path d="M24 1c12.703 0 23 10.297 23 23S36.703 47 24 47 1 36.703 1 24 11.297 1 24 1z"/></g><path fill="url(#b)" d="M24 1c12.703 0 23 10.297 23 23S36.703 47 24 47 1 36.703 1 24 11.297 1 24 1z" transform="translate(.696 .696) scale(1.3043)"/><path d="M46.87 37.478C46.87 44.393 40.562 50 32.783 50c-7.784 0-14.087-5.607-14.087-12.522s6.308-12.522 14.087-12.522c7.778 0 14.087 5.607 14.087 12.522" filter="url(#c)" opacity=".35"/><path fill="url(#d)" d="M46.87 37.478C46.87 44.393 40.562 50 32.783 50c-7.784 0-14.087-5.607-14.087-12.522s6.308-12.522 14.087-12.522c7.778 0 14.087 5.607 14.087 12.522"/><path fill-rule="evenodd" d="M29.683 14c-8.994.349-7.483 4.469-12.553 7.759 5.051.153 6.101-3.234 9.407-3.106v23.283c5.007.484 16.912 1.015 15.524-7.348-1.077-6.415-12.387-1.963-12.387-1.963m5.417 1.229c1.382 0 2.556.311 2.77 1.742.649 4.323-8.18 3.24-8.18 3.24V35.73s3.117-1.895 5.41-1.876" filter="url(#e)" opacity=".35"/><path fill="url(#f)" fill-rule="evenodd" d="M29.683 14c-8.994.349-7.483 4.469-12.553 7.759 5.051.153 6.101-3.234 9.407-3.106v23.283c5.007.484 16.912 1.015 15.524-7.348-1.077-6.415-12.387-1.963-12.387-1.963m5.417 1.229c1.382 0 2.556.311 2.77 1.742.649 4.323-8.18 3.24-8.18 3.24V35.73s3.117-1.895 5.41-1.876"/></svg>