<svg width="64" height="64" version="1.1" viewBox="0 0 64 64" xmlns="http://www.w3.org/2000/svg" xmlns:xlink="http://www.w3.org/1999/xlink">
 <defs>
  <linearGradient id="c" x1="1" x2="47" gradientTransform="rotate(-90 24 24)" gradientUnits="userSpaceOnUse">
   <stop stop-color="#1b222d" offset="0"/>
   <stop stop-color="#394250" offset="1"/>
  </linearGradient>
  <linearGradient id="b" x1="24" x2="24" y1="19" y2="35" gradientTransform="matrix(1.5652 0 0 1.5652 -4.7826 -4.7826)" gradientUnits="userSpaceOnUse">
   <stop stop-color="#f9f9f9" offset="0"/>
   <stop stop-color="#eee" offset="1"/>
  </linearGradient>
  <linearGradient id="a" x1="22" x2="22" y1="12" y2="29.997" gradientTransform="matrix(1.5652 0 0 1.5652 -4.7826 -4.7826)" gradientUnits="userSpaceOnUse">
   <stop stop-color="#31b3d2" offset="0"/>
   <stop stop-color="#4563be" offset="1"/>
  </linearGradient>
  <filter id="f" x="-.056667" y="-.06375" width="1.1133" height="1.1275" color-interpolation-filters="sRGB">
   <feGaussianBlur stdDeviation="0.66521739"/>
  </filter>
  <filter id="e" x="-.063745" y="-.056671" width="1.1275" height="1.1133" color-interpolation-filters="sRGB">
   <feGaussianBlur stdDeviation="0.66514211"/>
  </filter>
  <filter id="d" x="-.036" y="-.036" width="1.072" height="1.072" color-interpolation-filters="sRGB">
   <feGaussianBlur stdDeviation="0.69"/>
  </filter>
 </defs>
 <g transform="matrix(1.3043 0 0 1.3043 .69565 .69565)" filter="url(#d)" opacity=".15">
  <path d="m24 1c12.703 0 23 10.297 23 23s-10.297 23-23 23-23-10.297-23-23 10.297-23 23-23z"/>
 </g>
 <g transform="translate(0,16)">
  <g transform="translate(1,1)">
   <g opacity=".1"></g>
  </g>
 </g>
 <g transform="matrix(1.3043 0 0 1.3043 .69565 .69565)">
  <path d="m24 1c12.703 0 23 10.297 23 23s-10.297 23-23 23-23-10.297-23-23 10.297-23 23-23z" fill="url(#c)"/>
 </g>
 <g>
  <path d="m46.87 37.478c0 6.9151-6.3078 12.522-14.087 12.522-7.7838 0-14.087-5.6066-14.087-12.522 0-6.9151 6.3078-12.522 14.087-12.522 7.7776 0 14.087 5.6066 14.087 12.522" filter="url(#f)" opacity=".35"/>
  <path d="m46.87 37.478c0 6.9151-6.3078 12.522-14.087 12.522-7.7838 0-14.087-5.6066-14.087-12.522 0-6.9151 6.3078-12.522 14.087-12.522 7.7776 0 14.087 5.6066 14.087 12.522" fill="url(#b)"/>
  <path d="m29.683 14c-8.9937 0.34904-7.4833 4.4687-12.553 7.7588 5.051 0.15339 6.1012-3.2337 9.407-3.1054v23.283c5.0071 0.48365 16.912 1.0143 15.524-7.3487-1.0769-6.4143-12.387-1.9628-12.387-1.9628m5.4172 1.2287c1.3821 0 2.556 0.31148 2.7704 1.7421 0.648 4.3231-8.1814 3.24-8.1814 3.24v-3.1054s3.1179-1.8955 5.411-1.8767" fill-rule="evenodd" filter="url(#e)" opacity=".35"/>
  <path d="m29.683 14c-8.9937 0.34904-7.4833 4.4687-12.553 7.7588 5.051 0.15339 6.1012-3.2337 9.407-3.1054v23.283c5.0071 0.48365 16.912 1.0143 15.524-7.3487-1.0769-6.4143-12.387-1.9628-12.387-1.9628m5.4172 1.2287c1.3821 0 2.556 0.31148 2.7704 1.7421 0.648 4.3231-8.1814 3.24-8.1814 3.24v-3.1054s3.1179-1.8955 5.411-1.8767" fill="url(#a)" fill-rule="evenodd"/>
 </g>
</svg>
