<svg xmlns="http://www.w3.org/2000/svg" width="64" height="64"><defs><linearGradient id="b" x1="408.25" x2="407.94" y1="547.6" y2="498.89" gradientTransform="translate(-510.64 -663.52)scale(1.3276)" gradientUnits="userSpaceOnUse"><stop offset="0" stop-color="#fff"/><stop offset="1" stop-color="#e6e6e6"/></linearGradient><linearGradient id="c" x1="32.342" x2="32.342" y1="2" y2="62" gradientUnits="userSpaceOnUse"><stop offset="0" stop-color="#ff850d"/><stop offset="1" stop-color="#ff2100"/></linearGradient><filter id="a" width="1.072" height="1.072" x="-.036" y="-.036" color-interpolation-filters="sRGB"><feGaussianBlur stdDeviation=".89"/></filter></defs><rect width="59.315" height="59.315" x="386.85" y="486.31" filter="url(#a)" opacity=".25" ry="29.657" transform="translate(-389.32 -489.92)scale(1.0115)"/><rect width="59.997" height="59.997" x="1.983" y="1.978" fill="url(#b)" ry="29.998"/><path fill="url(#c)" d="M31.964 2C18.942 2 7.86 10.296 3.711 21.892a32 32 0 0 0-.004 2.84C4.235 37.146 14.36 49.606 28.16 48.113c7.884-.853 14.188-8.35 10.163-14.748-1.28-2.032-4.385-2.207-5.846-1.233 7.018-.198 3.592 8.162-2.574 9.438-8.424 1.744-14.89-6.395-15.473-13.97C13.34 13.447 27.027 3.423 40.117 3.47q.62.002 1.23.03A30 30 0 0 0 31.963 2m7.139 14.556a21 21 0 0 0-2.523.133c-7.884.854-14.188 8.35-10.163 14.75 1.28 2.032 4.385 2.207 5.846 1.233-7.018.198-3.592-8.162 2.574-9.439 8.424-1.743 14.89 6.396 15.473 13.97 1.063 13.801-11.93 23.676-24.714 24.114a30 30 0 0 0 6.368.681c13.958 0 25.69-9.535 29.041-22.444-.733-11.478-9.58-22.839-21.9-22.996"/></svg>