<svg width="64" height="64" xmlns="http://www.w3.org/2000/svg"><defs><linearGradient id="b" x1="408.25" x2="407.94" y1="547.6" y2="498.89" gradientTransform="translate(-510.64 -663.52) scale(1.3276)" gradientUnits="userSpaceOnUse"><stop stop-color="#fff" offset="0"/><stop stop-color="#e6e6e6" offset="1"/></linearGradient><linearGradient id="c" x1="32.342" x2="32.342" y1="2" y2="62" gradientUnits="userSpaceOnUse"><stop stop-color="#ff850d" offset="0"/><stop stop-color="#ff2100" offset="1"/></linearGradient><filter id="a" x="-.036" y="-.036" width="1.072" height="1.072" color-interpolation-filters="sRGB"><feGaussianBlur stdDeviation=".89"/></filter></defs><rect transform="translate(-389.32 -489.92) scale(1.0115)" x="386.85" y="486.31" width="59.315" height="59.315" ry="29.657" filter="url(#a)" opacity=".25"/><rect x="1.983" y="1.978" width="59.997" height="59.997" ry="29.998" fill="url(#b)"/><path d="M31.964 2C18.942 2 7.86 10.296 3.711 21.892a31.865 31.865 0 0 0-.004 2.84C4.235 37.146 14.36 49.606 28.16 48.113c7.884-.853 14.188-8.35 10.163-14.748-1.28-2.032-4.385-2.207-5.846-1.233 7.018-.198 3.592 8.162-2.574 9.438-8.424 1.744-14.89-6.395-15.473-13.97-1.09-14.153 12.597-24.177 25.687-24.13.413.001.823.012 1.23.03A29.974 29.974 0 0 0 31.963 2m7.139 14.556a20.599 20.599 0 0 0-2.523.133c-7.884.854-14.188 8.35-10.163 14.75 1.28 2.032 4.385 2.207 5.846 1.233-7.018.198-3.592-8.162 2.574-9.439 8.424-1.743 14.89 6.396 15.473 13.97 1.063 13.801-11.93 23.676-24.714 24.114a30.12 30.12 0 0 0 6.368.681c13.958 0 25.69-9.535 29.041-22.444-.733-11.478-9.58-22.839-21.9-22.996" fill="url(#c)"/><text x="173.999" y="34.218" font-family="'Gentium Book Basic'" font-size="16.26" letter-spacing="0" stroke-width=".126" word-spacing="0" style="line-height:0%"/><text x="247.135" y="24.153" font-family="'Gentium Book Basic'" font-size="16.26" letter-spacing="0" stroke-width=".126" word-spacing="0" style="line-height:0%"/><text x="112.308" y="1.346" font-family="'Gentium Book Basic'" font-size="16.26" letter-spacing="0" stroke-width=".126" word-spacing="0" style="line-height:0%"/><text x="250.465" y="-25.89" font-family="'Gentium Book Basic'" font-size="16.26" letter-spacing="0" stroke-width=".126" word-spacing="0" style="line-height:0%"/><text x="323.601" y="-35.956" font-family="'Gentium Book Basic'" font-size="16.26" letter-spacing="0" stroke-width=".126" word-spacing="0" style="line-height:0%"/><text x="274.642" y="-95.393" font-family="'Gentium Book Basic'" font-size="16.26" letter-spacing="0" stroke-width=".126" word-spacing="0" style="line-height:0%"/><text x="347.776" y="-105.46" font-family="'Gentium Book Basic'" font-size="16.26" letter-spacing="0" stroke-width=".126" word-spacing="0" style="line-height:0%"/><text x="117.172" y="72.541" font-family="'Gentium Book Basic'" font-size="26.212" letter-spacing="0" stroke-width=".126" word-spacing="0" style="line-height:0%"/></svg>