<svg xmlns="http://www.w3.org/2000/svg" width="64" height="64"><defs><linearGradient id="d" x1="14.023" x2="27.879" y1="8.129" y2="34.944" gradientTransform="matrix(1.2 0 0 1.2 3.2 3.2)" gradientUnits="userSpaceOnUse"><stop offset="0" stop-color="#fff"/><stop offset="1" stop-color="#eea9a9"/></linearGradient><linearGradient id="b" x1="512.05" x2="512.05" y1="40.05" y2="984.05" gradientUnits="userSpaceOnUse"><stop offset="0" stop-color="#cf2134"/><stop offset="1" stop-color="#e55a6a"/></linearGradient><filter id="a" width="1.072" height="1.072" x="-.036" y="-.036" color-interpolation-filters="sRGB"><feGaussianBlur stdDeviation="14.16"/></filter><filter id="c" width="1.104" height="1.142" x="-.052" y="-.071" color-interpolation-filters="sRGB"><feGaussianBlur stdDeviation=".78"/></filter></defs><g stroke-width="15.672"><path d="M966.1 378.45c-2.5-8.75-5.35-17.6-8.45-26.35-6.45-18.25-14.15-36.05-23.15-53.65-3.8-7.4-7.95-14.95-12.3-22.4-20.3-34.5-45.8-67.2-76.35-97.75C773.25 105.7 688.7 61.65 592.2 46.25c-16.25-2.6-32.8-4.4-50.05-5.35-9.7-.55-19.85-.85-30.1-.85-9.35 0-18.6.25-27.9.75-118.35 6.1-220.3 51.95-305.85 137.5Q40.05 316.55 40.05 512.05c0 130.35 46.1 241.65 138.25 333.8 85.55 85.5 187.5 131.35 305.85 137.5h.4c8.5.45 16.6.7 24.5.7h8.45c8.55-.1 16.8-.4 24.65-.8 2.5-.15 4.75-.3 6.95-.45 20.2-1.45 39.9-4.05 58.7-7.7 7.95-1.55 15.8-3.3 23.4-5.15 80.8-20.3 152.15-61.6 214.65-124.1 48.6-48.6 84.4-102.5 107.35-161.8 16.6-42.9 26.55-88.65 29.75-137.45.35-5.2.6-10.6.8-16.05.2-6.05.3-12.25.3-18.5v-3c-.2-40.65-4.95-79.5-14.3-117-1.1-4.35-2.35-9-3.65-13.6" filter="url(#a)" opacity=".25" transform="translate(-.546 -.546)scale(.06356)"/><path fill="url(#b)" d="M966.1 378.45c-2.5-8.75-5.35-17.6-8.45-26.35-6.45-18.25-14.15-36.05-23.15-53.65-3.8-7.4-7.95-14.95-12.3-22.4-20.3-34.5-45.8-67.2-76.35-97.75C773.25 105.7 688.7 61.65 592.2 46.25c-16.25-2.6-32.8-4.4-50.05-5.35-9.7-.55-19.85-.85-30.1-.85-9.35 0-18.6.25-27.9.75-118.35 6.1-220.3 51.95-305.85 137.5Q40.05 316.55 40.05 512.05c0 130.35 46.1 241.65 138.25 333.8 85.55 85.5 187.5 131.35 305.85 137.5h.4c8.5.45 16.6.7 24.5.7h8.45c8.55-.1 16.8-.4 24.65-.8 2.5-.15 4.75-.3 6.95-.45 20.2-1.45 39.9-4.05 58.7-7.7 7.95-1.55 15.8-3.3 23.4-5.15 80.8-20.3 152.15-61.6 214.65-124.1 48.6-48.6 84.4-102.5 107.35-161.8 16.6-42.9 26.55-88.65 29.75-137.45.35-5.2.6-10.6.8-16.05.2-6.05.3-12.25.3-18.5v-3c-.2-40.65-4.95-79.5-14.3-117-1.1-4.35-2.35-9-3.65-13.6" transform="translate(-.546 -.546)scale(.06356)"/></g><path d="M21.824 18.803c-1.567.049-3.08.757-4.24 1.829-1.178 1.09-2.022 2.587-2.193 4.197a5.6 5.6 0 0 0 .26 2.394 4.9 4.9 0 0 0 1.298 2.01c.695.641 1.565 1.046 2.365 1.548.4.25.785.529 1.116.868s.607.74.758 1.192c.135.402.168.836.108 1.257s-.213.826-.436 1.185c-.446.718-1.165 1.241-1.955 1.521-.915.324-1.923.34-2.806.749a3.62 3.62 0 0 0-1.652 1.571 3.9 3.9 0 0 0-.422 2.263c.105.91.533 1.776 1.176 2.418a4.33 4.33 0 0 0 2.383 1.2c1.307.203 2.704-.223 3.653-1.157a4.1 4.1 0 0 0 1.04-1.69 4 4 0 0 0 .112-1.992c-.1-.502-.298-.979-.48-1.457-.183-.478-.355-.967-.4-1.478-.077-.902.263-1.82.852-2.499.59-.679 1.414-1.126 2.283-1.323a4.4 4.4 0 0 1 1.713-.058 3.6 3.6 0 0 1 1.574.678c.46.351.826.83 1.03 1.375.204.547.24 1.162.078 1.722-.167.574-.525 1.066-.887 1.538-.363.472-.742.945-.957 1.502a3.23 3.23 0 0 0-.099 1.946 3.9 3.9 0 0 0 .957 1.7 4.3 4.3 0 0 0 1.816 1.135c.687.216 1.389.253 2.107.253s1.468-.037 2.154-.253a4.3 4.3 0 0 0 1.816-1.135c.45-.475.795-1.061.958-1.7a3.23 3.23 0 0 0-.099-1.946c-.215-.557-.595-1.03-.957-1.502-.363-.472-.72-.964-.887-1.538a2.77 2.77 0 0 1 .077-1.722 3.13 3.13 0 0 1 1.03-1.375 3.6 3.6 0 0 1 1.575-.678 4.4 4.4 0 0 1 1.712.058c.87.197 1.694.644 2.283 1.323.59.68.93 1.597.852 2.499-.044.511-.216 1-.399 1.478s-.38.955-.48 1.457a4 4 0 0 0 .112 1.992 4.1 4.1 0 0 0 1.04 1.69c.949.934 2.346 1.36 3.652 1.157a4.33 4.33 0 0 0 2.384-1.2 4.12 4.12 0 0 0 1.176-2.418 3.9 3.9 0 0 0-.423-2.263 3.62 3.62 0 0 0-1.652-1.571c-.882-.408-1.89-.425-2.806-.749-.789-.28-1.508-.803-1.954-1.521a3.1 3.1 0 0 1-.437-1.185 2.76 2.76 0 0 1 .108-1.257c.152-.452.427-.854.758-1.192a6 6 0 0 1 1.117-.868c.8-.502 1.67-.907 2.365-1.548a4.9 4.9 0 0 0 1.297-2.01c.263-.764.346-1.59.26-2.394-.17-1.61-1.015-3.107-2.193-4.197-1.16-1.072-2.673-1.78-4.24-1.829a5.4 5.4 0 0 0-2.294.424 4.9 4.9 0 0 0-1.875 1.405c-.572.704-.932 1.559-1.262 2.408-.33.85-.641 1.716-1.14 2.476-.823 1.252-2.122 2.441-3.604 2.441s-2.78-1.19-3.604-2.441c-.5-.76-.81-1.626-1.14-2.476s-.69-1.704-1.263-2.408a4.9 4.9 0 0 0-1.874-1.405 5.4 5.4 0 0 0-2.295-.424M32 30.399a2.402 2.442 0 0 1 2.402 2.442A2.402 2.442 0 0 1 32 35.283a2.402 2.442 0 0 1-2.402-2.442A2.402 2.442 0 0 1 32 30.399" filter="url(#c)" opacity=".15"/><path fill="url(#d)" d="M21.824 18.803c-1.567.049-3.08.757-4.24 1.829-1.178 1.09-2.022 2.587-2.193 4.197a5.6 5.6 0 0 0 .26 2.394 4.9 4.9 0 0 0 1.298 2.01c.695.641 1.565 1.046 2.365 1.548.4.25.785.529 1.116.868s.607.74.758 1.192c.135.402.168.836.108 1.257s-.213.826-.436 1.185c-.446.718-1.165 1.241-1.955 1.521-.915.324-1.923.34-2.806.749a3.62 3.62 0 0 0-1.652 1.571 3.9 3.9 0 0 0-.422 2.263c.105.91.533 1.776 1.176 2.418a4.33 4.33 0 0 0 2.383 1.2c1.307.203 2.704-.223 3.653-1.157a4.1 4.1 0 0 0 1.04-1.69 4 4 0 0 0 .112-1.992c-.1-.502-.298-.979-.48-1.457-.183-.478-.355-.967-.4-1.478-.077-.902.263-1.82.852-2.499.59-.679 1.414-1.126 2.283-1.323a4.4 4.4 0 0 1 1.713-.058 3.6 3.6 0 0 1 1.574.678c.46.351.826.83 1.03 1.375.204.547.24 1.162.078 1.722-.167.574-.525 1.066-.887 1.538-.363.472-.742.945-.957 1.502a3.23 3.23 0 0 0-.099 1.946 3.9 3.9 0 0 0 .957 1.7 4.3 4.3 0 0 0 1.816 1.135c.687.216 1.389.253 2.107.253s1.468-.037 2.154-.253a4.3 4.3 0 0 0 1.816-1.135c.45-.475.795-1.061.958-1.7a3.23 3.23 0 0 0-.099-1.946c-.215-.557-.595-1.03-.957-1.502-.363-.472-.72-.964-.887-1.538a2.77 2.77 0 0 1 .077-1.722 3.13 3.13 0 0 1 1.03-1.375 3.6 3.6 0 0 1 1.575-.678 4.4 4.4 0 0 1 1.712.058c.87.197 1.694.644 2.283 1.323.59.68.93 1.597.852 2.499-.044.511-.216 1-.399 1.478s-.38.955-.48 1.457a4 4 0 0 0 .112 1.992 4.1 4.1 0 0 0 1.04 1.69c.949.934 2.346 1.36 3.652 1.157a4.33 4.33 0 0 0 2.384-1.2 4.12 4.12 0 0 0 1.176-2.418 3.9 3.9 0 0 0-.423-2.263 3.62 3.62 0 0 0-1.652-1.571c-.882-.408-1.89-.425-2.806-.749-.789-.28-1.508-.803-1.954-1.521a3.1 3.1 0 0 1-.437-1.185 2.76 2.76 0 0 1 .108-1.257c.152-.452.427-.854.758-1.192a6 6 0 0 1 1.117-.868c.8-.502 1.67-.907 2.365-1.548a4.9 4.9 0 0 0 1.297-2.01c.263-.764.346-1.59.26-2.394-.17-1.61-1.015-3.107-2.193-4.197-1.16-1.072-2.673-1.78-4.24-1.829a5.4 5.4 0 0 0-2.294.424 4.9 4.9 0 0 0-1.875 1.405c-.572.704-.932 1.559-1.262 2.408-.33.85-.641 1.716-1.14 2.476-.823 1.252-2.122 2.441-3.604 2.441s-2.78-1.19-3.604-2.441c-.5-.76-.81-1.626-1.14-2.476s-.69-1.704-1.263-2.408a4.9 4.9 0 0 0-1.874-1.405 5.4 5.4 0 0 0-2.295-.424M32 30.399a2.402 2.442 0 0 1 2.402 2.442A2.402 2.442 0 0 1 32 35.283a2.402 2.442 0 0 1-2.402-2.442A2.402 2.442 0 0 1 32 30.399"/></svg>