<svg width="64" height="64" xmlns="http://www.w3.org/2000/svg"><defs><linearGradient id="c" x1="399.57" x2="399.57" y1="545.8" y2="517.8" gradientTransform="translate(-826.36 -1107.5) scale(2.1429)" gradientUnits="userSpaceOnUse"><stop stop-color="#3889e9" offset="0"/><stop stop-color="#5ea5fb" offset="1"/></linearGradient><linearGradient id="b" x1="399.99" x2="399.99" y1="545.14" y2="518.14" gradientTransform="translate(-826.36 -1107.5) scale(2.1429)" gradientUnits="userSpaceOnUse"><stop stop-color="#6961b8" offset="0"/><stop stop-color="#b44efc" offset="1"/></linearGradient><filter id="a" x="-.036" y="-.036" width="1.072" height="1.072" color-interpolation-filters="sRGB"><feGaussianBlur stdDeviation=".42"/></filter><filter id="d" x="-.039" y="-.034" width="1.077" height="1.067" color-interpolation-filters="sRGB"><feGaussianBlur stdDeviation=".42"/></filter></defs><circle transform="translate(-826.36 -1107.5) scale(2.1429)" cx="400.57" cy="531.8" r="14" filter="url(#a)" opacity=".25"/><g stroke-width="1.571"><circle cx="32.02" cy="32.044" r="30.001" fill="url(#b)"/><circle cx="32.02" cy="32.044" r="30.001" fill="none"/></g><rect x="19" y="17.001" width="26" height="30.002" rx="1.999" ry="1.999" filter="url(#d)" opacity=".25" style="paint-order:markers stroke fill"/><path d="M21 17c-1.108 0-2 .892-2 2v26.004c0 1.108.892 2 2 2h22c1.108 0 2-.892 2-2V19c0-1.108-.892-2-2-2H21zm1.002 1.996a1.002 1.002 0 0 1 1 1.002 1.002 1.002 0 0 1-1 1.002A1.002 1.002 0 0 1 21 19.998a1.002 1.002 0 0 1 1.002-1.002zm0 6.002a1.002 1.002 0 0 1 1 1.002 1.002 1.002 0 0 1-1 1.002A1.002 1.002 0 0 1 21 26a1.002 1.002 0 0 1 1.002-1.002zm0 5.998a1.002 1.002 0 0 1 1 1.002 1.002 1.002 0 0 1-1 1.002A1.002 1.002 0 0 1 21 31.998a1.002 1.002 0 0 1 1.002-1.002zm0 6.002a1.002 1.002 0 0 1 1 1.002 1.002 1.002 0 0 1-1 1.002A1.002 1.002 0 0 1 21 38a1.002 1.002 0 0 1 1.002-1.002zm0 5.998a1.002 1.002 0 0 1 1 1.002 1.002 1.002 0 0 1-1 1.002A1.002 1.002 0 0 1 21 43.998a1.002 1.002 0 0 1 1.002-1.002z" fill="#fff" style="paint-order:markers stroke fill"/><path d="M19 22.001h26.004v.998H19zm0 5.998h26.004v1.002H19zm0 6.002h26.004V35H19zM19 40h26.004v1.002H19z" opacity=".1" style="paint-order:markers stroke fill"/></svg>