<svg xmlns="http://www.w3.org/2000/svg" width="64" height="64"><defs><filter id="a" width="1.072" height="1.072" x="-.036" y="-.036" color-interpolation-filters="sRGB"><feGaussianBlur stdDeviation=".42"/></filter><filter id="c" width="1.077" height="1.067" x="-.039" y="-.034" color-interpolation-filters="sRGB"><feGaussianBlur stdDeviation=".42"/></filter><linearGradient id="b" x1="399.99" x2="399.99" y1="545.14" y2="518.14" gradientTransform="translate(-826.36 -1107.5) scale(2.1429)" gradientUnits="userSpaceOnUse"><stop offset="0" stop-color="#6961b8"/><stop offset="1" stop-color="#b44efc"/></linearGradient></defs><circle cx="400.57" cy="531.8" r="14" filter="url(#a)" opacity=".25" transform="translate(-826.36 -1107.5) scale(2.1429)"/><g stroke-width="1.571"><circle cx="32.02" cy="32.044" r="30.001" fill="url(#b)"/><circle cx="32.02" cy="32.044" r="30.001" fill="none"/></g><rect width="26" height="30.002" x="19" y="17.001" filter="url(#c)" opacity=".25" rx="1.999" ry="1.999" style="paint-order:markers stroke fill"/><path fill="#fff" d="M21 17c-1.108 0-2 .892-2 2v26.004c0 1.108.892 2 2 2h22c1.108 0 2-.892 2-2V19c0-1.108-.892-2-2-2H21zm1.002 1.996a1.002 1.002 0 0 1 1 1.002 1.002 1.002 0 0 1-1 1.002A1.002 1.002 0 0 1 21 19.998a1.002 1.002 0 0 1 1.002-1.002zm0 6.002a1.002 1.002 0 0 1 1 1.002 1.002 1.002 0 0 1-1 1.002A1.002 1.002 0 0 1 21 26a1.002 1.002 0 0 1 1.002-1.002zm0 5.998a1.002 1.002 0 0 1 1 1.002 1.002 1.002 0 0 1-1 1.002A1.002 1.002 0 0 1 21 31.998a1.002 1.002 0 0 1 1.002-1.002zm0 6.002a1.002 1.002 0 0 1 1 1.002 1.002 1.002 0 0 1-1 1.002A1.002 1.002 0 0 1 21 38a1.002 1.002 0 0 1 1.002-1.002zm0 5.998a1.002 1.002 0 0 1 1 1.002 1.002 1.002 0 0 1-1 1.002A1.002 1.002 0 0 1 21 43.998a1.002 1.002 0 0 1 1.002-1.002z" style="paint-order:markers stroke fill"/><path d="M19 22.001h26.004v.998H19zm0 5.998h26.004v1.002H19zm0 6.002h26.004V35H19zM19 40h26.004v1.002H19z" opacity=".1" style="paint-order:markers stroke fill"/></svg>