<svg xmlns="http://www.w3.org/2000/svg" width="64" height="64" version="1"><defs><filter id="c" width="1.15" height="1.15" x="-.075" y="-.075" color-interpolation-filters="sRGB"><feGaussianBlur stdDeviation="10.327"/></filter><filter id="a" width="1.054" height="1.054" x="-.027" y="-.027" color-interpolation-filters="sRGB"><feGaussianBlur stdDeviation=".675"/></filter><linearGradient id="b" x1="7.937" x2="7.937" y1="15.081" y2="1.852" gradientTransform="translate(-2.286 -2.252)scale(4.0494)" gradientUnits="userSpaceOnUse"><stop offset="0" stop-color="#f1efeb"/><stop offset="1" stop-color="#fdfcfc"/></linearGradient></defs><rect width="60" height="60" x="2" y="3" filter="url(#a)" opacity=".15" rx="30" ry="30"/><rect width="60" height="60" x="2" y="2" fill="url(#b)" rx="30" ry="30"/><circle cx="32" cy="32" r="16" fill="#5743ff" fill-rule="evenodd" style="paint-order:stroke fill markers"/><g stroke-width=".353"><path d="M200.9 384.82c-24.732-1.595-50.031-9.22-71.438-21.532-22.175-12.753-41.771-31.18-55.751-52.425C52.132 278.071 42.93 239 47.632 200.133c3.084-25.495 11.917-49.576 26.079-71.098 5.921-8.999 11.679-16.121 19.582-24.224 8.784-9.007 16.401-15.372 26.291-21.969 16.863-11.248 33.662-18.663 52.917-23.359 33.199-8.096 66.14-5.925 99.307 6.544 8.557 3.217 15.065 4.63 24.659 5.356 4.91.37 6.607.33 15.735-.376 5.627-.435 13.247-.877 16.933-.981 12.749-.36 18.386 1.444 20.554 6.58 1.542 3.653 1.583 4.156 1.85 22.85.272 19.124.524 22.5 2.294 30.787 1.299 6.082 2.384 9.09 5.948 16.482 10.134 21.022 15.298 40.468 16.799 63.256 1.548 23.523-2.524 48.96-11.368 71.012-10.946 27.293-28.107 50.232-51.6 68.97-4.51 3.599-14.176 10.12-19.755 13.328-5.715 3.287-16.56 8.466-22.401 10.698-22.81 8.717-46.642 12.376-70.556 10.834zm19.932-48.113c29.141-2.511 55.345-14.869 75.174-35.453 18.271-18.966 29.068-41.948 32.298-68.744.614-5.091.614-20.033 0-25.125-3.231-26.809-14.019-49.769-32.298-68.744-26.178-27.174-63.85-40.003-101.46-34.551-40.131 5.819-74.905 32.626-90.828 70.021-4.448 10.446-7.183 20.936-8.722 33.451-.602 4.89-.593 19.906.015 24.948 3.231 26.809 14.02 49.769 32.298 68.744 19.647 20.395 46.036 32.921 74.645 35.433 4.89.43 14.008.439 18.874.02z" filter="url(#c)" opacity=".15" transform="translate(6.38 6.38)scale(.12104)"/><path fill="#1ae3dc" d="M30.697 51.959a20.3 20.3 0 0 1-8.647-2.607 20.3 20.3 0 0 1-6.748-6.345 19.97 19.97 0 0 1-3.157-13.403c.373-3.086 1.443-6 3.157-8.606a18.7 18.7 0 0 1 2.37-2.932c1.063-1.09 1.985-1.86 3.182-2.659 2.041-1.361 4.075-2.259 6.405-2.827 4.019-.98 8.006-.717 12.02.792 1.036.39 1.824.56 2.985.648.595.045.8.04 1.905-.045a53 53 0 0 1 2.05-.12c1.542-.043 2.225.176 2.487.797.187.443.192.503.224 2.766.033 2.315.063 2.723.278 3.727.157.736.288 1.1.72 1.995 1.226 2.544 1.851 4.898 2.033 7.656.187 2.847-.305 5.926-1.376 8.595-1.325 3.304-3.402 6.08-6.246 8.349-.546.435-1.715 1.224-2.39 1.613a25 25 0 0 1-2.712 1.295 20.2 20.2 0 0 1-8.54 1.311m2.412-5.824c3.528-.304 6.7-1.8 9.1-4.291 2.21-2.296 3.518-5.078 3.909-8.321.074-.616.074-2.425 0-3.041-.391-3.245-1.697-6.024-3.91-8.32-3.168-3.29-7.728-4.843-12.28-4.183-4.858.704-9.067 3.95-10.994 8.475-.539 1.265-.87 2.534-1.056 4.05-.073.591-.072 2.409.002 3.019.391 3.245 1.697 6.024 3.91 8.32 2.377 2.47 5.572 3.986 9.034 4.29.592.052 1.696.053 2.285.002"/></g></svg>