<svg xmlns="http://www.w3.org/2000/svg" xmlns:xlink="http://www.w3.org/1999/xlink" xml:space="preserve" width="64" height="64"><defs><linearGradient id="a"><stop offset="0" stop-color="#2a2c2f" stop-opacity=".25"/><stop offset="1" stop-color="#424649" stop-opacity=".25"/></linearGradient><linearGradient id="c" x1="7.937" x2="7.937" y1="15.081" y2="1.852" gradientTransform="translate(-2.286 -2.252) scale(4.0494)" gradientUnits="userSpaceOnUse"><stop offset="0" stop-color="#0e73de"/><stop offset="1" stop-color="#25c9ff"/></linearGradient><linearGradient id="g" x2="0" y1="532.8" y2="526.8" gradientTransform="translate(-713.35 -960.71) scale(1.8667)" gradientUnits="userSpaceOnUse"><stop offset="0" stop-color="#2a2c2f"/><stop offset="1" stop-color="#424649"/></linearGradient><linearGradient xlink:href="#a" id="h" x2="0" y1="536.8" y2="532.8" gradientTransform="translate(-714.88 -948.02) scale(1.8667)" gradientUnits="userSpaceOnUse"/><linearGradient id="i" x2="0" y1="20" y2="18" gradientTransform="translate(1.126 14.82) scale(1.8667)" gradientUnits="userSpaceOnUse"><stop offset="0" stop-color="#2a2c2f"/><stop offset="1" stop-color="#424649"/></linearGradient><linearGradient id="f" x2="0" y1="532.8" y2="530.8" gradientTransform="translate(-719.13 -961.09) scale(1.8667)" gradientUnits="userSpaceOnUse"><stop offset="0" stop-color="#2a2c2f"/><stop offset="1" stop-color="#424649"/></linearGradient><linearGradient id="e" x2="0" y1="530.8" y2="528.8" gradientTransform="translate(-717.88 -960.98) scale(1.8667)" gradientUnits="userSpaceOnUse"><stop offset="0" stop-color="#2a2c2f"/><stop offset="1" stop-color="#424649"/></linearGradient><linearGradient xlink:href="#a" id="d" x2="0" y1="536.8" y2="532.8" gradientTransform="translate(-1833.2 -2466.2) scale(4.6669)" gradientUnits="userSpaceOnUse"/><filter id="b" width="1.078" height="1.078" x="-.039" y="-.039" color-interpolation-filters="sRGB"><feGaussianBlur stdDeviation=".972"/></filter></defs><rect width="60" height="60" x="2" y="2" filter="url(#b)" opacity=".35" rx="30" ry="30"/><rect width="60" height="60" x="2" y="2" fill="url(#c)" rx="30" ry="30"/><g stroke-linecap="square"><path fill="url(#d)" d="M17.495 20.333a9.334 9.334 0 1 0 0 18.667 9.334 9.334 0 0 0 0-18.667z" transform="translate(1.007 -1.38)"/><g stroke-width=".187"><path fill="url(#e)" d="M46.66 26.135a1.867 1.867 0 0 0-1.867 1.867 1.867 1.867 0 0 0 1.866 1.867 1.867 1.867 0 0 0 1.867-1.867 1.867 1.867 0 0 0-1.867-1.867z" transform="matrix(1.25 0 0 1.25 -8.157 -7.046)"/><path fill="url(#f)" d="M41.68 29.756a1.867 1.867 0 0 0-1.867 1.867 1.867 1.867 0 0 0 1.867 1.867 1.867 1.867 0 0 0 1.867-1.867 1.867 1.867 0 0 0-1.867-1.867z" transform="matrix(1.25 0 0 1.25 -8.157 -7.046)"/><path fill="url(#g)" d="M19.46 22.667V26.4h-3.733v3.733h3.734v3.734h3.733v-3.733h3.734V26.4h-3.734v-3.733z" transform="matrix(1.25 0 0 1.25 -8.157 -7.046)"/></g><path fill="url(#h)" d="M25.394 46.554a3.733 3.733 0 0 0-3.734 3.734 3.733 3.733 0 0 0 3.734 3.733 3.733 3.733 0 0 0 3.733-3.733 3.733 3.733 0 0 0-3.733-3.734zm11.2 0a3.733 3.733 0 0 0-3.734 3.734 3.733 3.733 0 0 0 3.734 3.733 3.733 3.733 0 0 0 3.733-3.733 3.733 3.733 0 0 0-3.733-3.734z" transform="translate(1.007 -1.38)"/><path fill="url(#i)" d="M25.394 48.421a1.867 1.867 0 0 0-1.867 1.867 1.867 1.867 0 0 0 1.867 1.866 1.867 1.867 0 0 0 1.866-1.866 1.867 1.867 0 0 0-1.866-1.867zm11.2 0a1.867 1.867 0 0 0-1.867 1.867 1.867 1.867 0 0 0 1.867 1.866 1.867 1.867 0 0 0 1.866-1.866 1.867 1.867 0 0 0-1.866-1.867z" transform="translate(1.007 -1.38)"/></g></svg>