<?xml version="1.0" encoding="UTF-8"?>
<svg width="64" height="64" version="1.1" xml:space="preserve" xmlns="http://www.w3.org/2000/svg" xmlns:xlink="http://www.w3.org/1999/xlink"><defs><linearGradient id="c"><stop stop-color="#2a2c2f" stop-opacity=".25" offset="0"/><stop stop-color="#424649" stop-opacity=".25" offset="1"/></linearGradient><linearGradient id="e" x1="7.937" x2="7.937" y1="15.081" y2="1.852" gradientTransform="matrix(4.0494 0 0 4.0494 -2.2856 -2.2523)" gradientUnits="userSpaceOnUse"><stop stop-color="#0e73de" offset="0"/><stop stop-color="#25c9ff" offset="1"/></linearGradient><linearGradient id="j" x2="0" y1="532.8" y2="526.8" gradientTransform="translate(-713.35 -960.71) scale(1.8667)" gradientUnits="userSpaceOnUse"><stop stop-color="#2a2c2f" offset="0"/><stop stop-color="#424649" offset="1"/></linearGradient><linearGradient id="f" x2="0" y1="536.8" y2="532.8" gradientTransform="translate(-714.88 -948.02) scale(1.8667)" gradientUnits="userSpaceOnUse" xlink:href="#c"/><linearGradient id="k" x2="0" y1="20" y2="18" gradientTransform="translate(1.126 14.82) scale(1.8667)" gradientUnits="userSpaceOnUse"><stop stop-color="#2a2c2f" offset="0"/><stop stop-color="#424649" offset="1"/></linearGradient><linearGradient id="i" x2="0" y1="532.8" y2="530.8" gradientTransform="translate(-719.13 -961.09) scale(1.8667)" gradientUnits="userSpaceOnUse"><stop stop-color="#2a2c2f" offset="0"/><stop stop-color="#424649" offset="1"/></linearGradient><linearGradient id="h" x2="0" y1="530.8" y2="528.8" gradientTransform="translate(-717.88 -960.98) scale(1.8667)" gradientUnits="userSpaceOnUse"><stop stop-color="#2a2c2f" offset="0"/><stop stop-color="#424649" offset="1"/></linearGradient><linearGradient id="g" x2="0" y1="536.8" y2="532.8" gradientTransform="matrix(4.6669 0 0 4.6669 -1833.2 -2466.2)" gradientUnits="userSpaceOnUse" xlink:href="#c"/><filter id="filter943" x="-.03888" y="-.03888" width="1.0778" height="1.0778" color-interpolation-filters="sRGB"><feGaussianBlur stdDeviation="0.972"/></filter></defs><rect x="2" y="2" width="60" height="60" rx="30" ry="30" filter="url(#filter943)" opacity=".35" stroke-width="1.0714"/><rect x="2" y="2" width="60" height="60" rx="30" ry="30" fill="url(#e)" stroke-width="1.0714"/><g stroke-linecap="square"><path transform="translate(1.007 -1.38)" d="m17.495 20.333a9.334 9.334 0 1 0 0 18.667 9.334 9.334 0 0 0 0-18.667z" fill="url(#g)" stroke-width="4.6669"/><g stroke-width=".18667"><path transform="matrix(1.25 0 0 1.25 -8.157 -7.046)" d="m46.66 26.135a1.867 1.867 0 0 0-1.867 1.867 1.867 1.867 0 0 0 1.866 1.867 1.867 1.867 0 0 0 1.867-1.867 1.867 1.867 0 0 0-1.867-1.867z" fill="url(#h)"/><path transform="matrix(1.25 0 0 1.25 -8.157 -7.046)" d="m41.68 29.756a1.867 1.867 0 0 0-1.867 1.867 1.867 1.867 0 0 0 1.867 1.867 1.867 1.867 0 0 0 1.867-1.867 1.867 1.867 0 0 0-1.867-1.867z" fill="url(#i)"/><path transform="matrix(1.25 0 0 1.25 -8.157 -7.046)" d="M19.46 22.667V26.4h-3.733v3.733h3.734v3.734h3.733v-3.733h3.734V26.4h-3.734v-3.733z" fill="url(#j)"/></g><path transform="translate(1.007 -1.38)" d="m25.394 46.554a3.733 3.733 0 0 0-3.734 3.734 3.733 3.733 0 0 0 3.734 3.733 3.733 3.733 0 0 0 3.733-3.733 3.733 3.733 0 0 0-3.733-3.734zm11.2 0a3.733 3.733 0 0 0-3.734 3.734 3.733 3.733 0 0 0 3.734 3.733 3.733 3.733 0 0 0 3.733-3.733 3.733 3.733 0 0 0-3.733-3.734z" fill="url(#f)" stroke-width="1.8667"/><path transform="translate(1.007 -1.38)" d="m25.394 48.421a1.867 1.867 0 0 0-1.867 1.867 1.867 1.867 0 0 0 1.867 1.866 1.867 1.867 0 0 0 1.866-1.866 1.867 1.867 0 0 0-1.866-1.867zm11.2 0a1.867 1.867 0 0 0-1.867 1.867 1.867 1.867 0 0 0 1.867 1.866 1.867 1.867 0 0 0 1.866-1.866 1.867 1.867 0 0 0-1.866-1.867z" fill="url(#k)" stroke-width="1.8667"/></g></svg>
