<svg xmlns="http://www.w3.org/2000/svg" width="64" height="64"><defs><linearGradient id="h" x1="11.788" x2="52.749" y1="25.106" y2="25.106" gradientTransform="translate(-.921 -.664) scale(1.0202)" gradientUnits="userSpaceOnUse"><stop offset="0" stop-color="#40bfff"/><stop offset="1" stop-color="#5fde56"/></linearGradient><linearGradient id="e" x1="11.804" x2="30.743" y1="36.254" y2="36.254" gradientTransform="translate(-.921 -.664) scale(1.0202)" gradientUnits="userSpaceOnUse"><stop offset="0" stop-color="#0078d4"/><stop offset="1" stop-color="#108ddc"/></linearGradient><linearGradient id="d" x1="21.182" x2="49.712" y1="40.243" y2="40.243" gradientTransform="translate(-.921 -.664) scale(1.0202)" gradientUnits="userSpaceOnUse"><stop offset="0" stop-color="#0b4e90"/><stop offset="1" stop-color="#0d559d"/></linearGradient><linearGradient id="b" x1="408.25" x2="407.94" y1="547.6" y2="498.89" gradientTransform="translate(-510.64 -663.52) scale(1.3276)" gradientUnits="userSpaceOnUse"><stop offset="0" stop-color="#fff"/><stop offset="1" stop-color="#e6e6e6"/></linearGradient><filter id="g" width="1.314" height="1.165" x="-.157" y="-.082" color-interpolation-filters="sRGB"><feGaussianBlur stdDeviation="1.152"/></filter><filter id="f" width="1.159" height="1.337" x="-.079" y="-.169" color-interpolation-filters="sRGB"><feGaussianBlur stdDeviation=".861"/></filter><filter id="c" width="1.216" height="1.216" x="-.108" y="-.108" color-interpolation-filters="sRGB"><feGaussianBlur stdDeviation="1.881"/></filter><filter id="a" width="1.072" height="1.072" x="-.036" y="-.036" color-interpolation-filters="sRGB"><feGaussianBlur stdDeviation=".89"/></filter></defs><rect width="59.315" height="59.315" x="386.85" y="486.31" filter="url(#a)" opacity=".25" ry="29.657" transform="translate(-389.32 -489.92) scale(1.0115)"/><rect width="59.997" height="59.997" x="1.983" y="1.978" fill="url(#b)" ry="29.998"/><path d="M31.998 12.248c-11.426-.001-20.732 9.173-20.893 20.596.006-.483.064-.96.145-1.435a9.673 9.673 0 0 0-.127 1.46 21.234 21.234 0 0 0 1.976 9.14c4.498 9.596 15.472 14.304 25.527 10.952-.181.057-.376.092-.562.14.183-.048.383-.096.54-.146l.216-.072a20.947 20.947 0 0 0 10.87-8.617c.363-.572-.277-1.249-.869-.92-2.002 1.97-5.108 2.437-7.58 2.45-7.724 0-14.453-5.94-14.453-12.757a5.139 5.139 0 0 1 2.684-4.457c.51-.24 1.378-.675 2.535-.654a5.282 5.282 0 0 1 4.194 2.123c.449.6.75 1.287.908 2.011a5.382 5.382 0 0 1-1.139 3.555c-.132.172-.54.408-.54.924 0 .426.278.835.77 1.18 2.348 1.632 6.774 1.418 6.786 1.418a9.725 9.725 0 0 0 4.941-1.364c3.07-1.792 4.96-4.15 4.967-7.705.042-3.657-1.307-6.09-1.852-7.168-3.459-6.765-10.926-10.654-19.045-10.654zm5.394 41.021c-.053.01-.106.023-.16.033.053-.011.108-.021.16-.033z" filter="url(#c)" opacity=".2"/><path fill="url(#d)" d="M48.823 42.599c-2.002 1.97-5.109 2.438-7.58 2.45-7.725 0-14.454-5.94-14.454-12.757a5.138 5.138 0 0 1 2.682-4.457c-6.986.293-8.782 7.573-8.782 11.838 0 12.058 11.115 13.28 13.51 13.28 1.29 0 3.238-.375 4.407-.744l.213-.071A20.947 20.947 0 0 0 49.69 43.52c.363-.571-.276-1.25-.868-.92z" class="cls-1"/><path fill="url(#e)" d="M27.737 50.903a12.928 12.928 0 0 1-3.712-3.483c-4.824-6.609-1.894-15.97 5.447-19.585.51-.24 1.38-.674 2.537-.653a5.281 5.281 0 0 1 4.193 2.122 5.203 5.203 0 0 1 1.039 3.045c0-.034 3.992-12.992-13.06-12.992-7.165 0-13.058 6.8-13.058 12.765a21.239 21.239 0 0 0 1.976 9.14c4.499 9.597 15.471 14.305 25.526 10.953-3.442 1.085-7.814.608-10.875-1.305z" class="cls-3"/><path d="M24.164 20.602c-6.481 0-12 4.676-12.914 10.062a21.098 21.098 0 0 0-.145 2.18c.079-5.964 6.007-11.496 13.06-11.496.57 0 3.829.054 6.855 1.642 2.667 1.4 4.066 3.808 5.037 5.485.627 1.183.97 2.32 1.041 3.4.082-1.296-.27-2.687-1.043-4.146-.971-1.677-2.368-4.084-5.035-5.485-3.027-1.588-6.284-1.642-6.856-1.642z" filter="url(#f)" opacity=".35"/><path d="M24.795 19.191c-1.083 0-2.132.17-3.14.455a11.503 11.503 0 0 1 2.527-.289c13.11 0 13.776 7.643 13.385 11.199.18.52.279 1.07.287 1.627 0-.034 3.993-12.992-13.06-12.992zm6.18 8.104c-.645.14-1.16.38-1.502.54-7.34 3.616-10.272 12.976-5.448 19.585a12.93 12.93 0 0 0 3.711 3.484l.016.006c3.06 1.914 7.433 2.39 10.875 1.305-.448.149-.9.263-1.352.38.657-.15 1.312-.33 1.963-.547-3.442 1.086-7.813.61-10.873-1.304l-.015-.008a12.922 12.922 0 0 1-3.711-3.482c-4.825-6.61-1.896-15.97 5.445-19.586a8.97 8.97 0 0 1 .89-.373z" filter="url(#g)" opacity=".35"/><path fill="url(#h)" d="M35.97 34.872c-.132.171-.539.408-.539.924 0 .426.278.835.77 1.18 2.348 1.632 6.773 1.416 6.785 1.416a9.724 9.724 0 0 0 4.94-1.362c3.07-1.793 4.96-4.152 4.968-7.706.043-3.658-1.306-6.09-1.851-7.167-3.459-6.765-10.925-10.656-19.044-10.656-11.426 0-20.733 9.175-20.894 20.597.078-5.963 6.007-11.497 13.059-11.497.571 0 3.83.056 6.856 1.644 2.667 1.4 4.064 3.808 5.036 5.484 1.411 2.663 1.472 5.11-.085 7.143z" class="cls-5"/></svg>