<svg xmlns="http://www.w3.org/2000/svg" width="64" height="64"><defs><linearGradient id="b" x1="408.25" x2="407.94" y1="547.6" y2="498.89" gradientTransform="translate(-510.64 -663.52)scale(1.3276)" gradientUnits="userSpaceOnUse"><stop offset="0" stop-color="#fff"/><stop offset="1" stop-color="#e6e6e6"/></linearGradient><linearGradient id="d" x1="25.68" x2="26.448" y1="39.395" y2="17.376" gradientUnits="userSpaceOnUse"><stop offset="0" stop-color="#345f29"/><stop offset="1" stop-color="#59a446"/></linearGradient><linearGradient id="e" x1="15.707" x2="25.68" y1="32.561" y2="39.395" gradientUnits="userSpaceOnUse"><stop offset="0" stop-color="#ad7c59"/><stop offset="1" stop-color="#835b41"/></linearGradient><filter id="a" width="1.072" height="1.072" x="-.036" y="-.036" color-interpolation-filters="sRGB"><feGaussianBlur stdDeviation=".89"/></filter><filter id="c" width="1.129" height="1.112" x="-.065" y="-.056" color-interpolation-filters="sRGB"><feGaussianBlur stdDeviation=".661"/></filter></defs><rect width="59.315" height="59.315" x="386.85" y="486.31" filter="url(#a)" opacity=".25" ry="29.657" transform="translate(-389.32 -489.92)scale(1.0115)"/><rect width="59.997" height="59.997" x="1.983" y="1.978" fill="url(#b)" ry="29.998"/><g filter="url(#c)" opacity=".1" transform="matrix(1.3035 0 0 1.317 -1.475 -6.551)"><path fill-rule="evenodd" d="m26.448 16.11-12.274 7.087v14.174l12.274 7.087 12.275-7.087V23.197z"/></g><g fill-rule="evenodd"><path fill="url(#d)" d="m14.173 23.2 12.275 21.257L38.721 23.2l-12.273-7.09" transform="matrix(1.3035 0 0 1.317 -2.475 -7.884)"/><path fill="#59a849" d="M16 22.67v4.666l15.999 9.338.001-4.671z"/><path fill="#3e7231" d="m32 36.666 16-9.334v-4.666L32 32z"/><path fill="url(#e)" d="M14.173 26.74v10.63l12.274 7.087v-10.63z" transform="matrix(1.3035 0 0 1.317 -2.475 -7.884)"/><path fill="#573d2b" d="m32 36.666 16-9.334v14l-16 9.334z"/></g></svg>