<svg width="64" height="64" xmlns="http://www.w3.org/2000/svg"><defs><linearGradient id="b" x1="408.25" x2="407.94" y1="547.6" y2="498.89" gradientTransform="translate(-510.64 -663.52) scale(1.3276)" gradientUnits="userSpaceOnUse"><stop stop-color="#fff" offset="0"/><stop stop-color="#e6e6e6" offset="1"/></linearGradient><linearGradient id="d" x1="25.68" x2="26.448" y1="39.395" y2="17.376" gradientUnits="userSpaceOnUse"><stop stop-color="#345f29" offset="0"/><stop stop-color="#59a446" offset="1"/></linearGradient><linearGradient id="e" x1="15.707" x2="25.68" y1="32.561" y2="39.395" gradientUnits="userSpaceOnUse"><stop stop-color="#ad7c59" offset="0"/><stop stop-color="#835b41" offset="1"/></linearGradient><filter id="a" x="-.036" y="-.036" width="1.072" height="1.072" color-interpolation-filters="sRGB"><feGaussianBlur stdDeviation=".89"/></filter><filter id="c" x="-.065" y="-.056" width="1.129" height="1.112" color-interpolation-filters="sRGB"><feGaussianBlur stdDeviation=".661"/></filter></defs><rect transform="translate(-389.32 -489.92) scale(1.0115)" x="386.85" y="486.31" width="59.315" height="59.315" ry="29.657" filter="url(#a)" opacity=".25"/><rect x="1.983" y="1.978" width="59.997" height="59.997" ry="29.998" fill="url(#b)"/><g transform="matrix(1.3035 0 0 1.317 -1.475 -6.551)" filter="url(#c)" opacity=".1"><path d="m26.448 16.11-12.274 7.087v14.174l12.274 7.087 12.275-7.087V23.197z" fill-rule="evenodd"/></g><g fill-rule="evenodd"><path d="m14.173 23.2 12.275 21.257L38.721 23.2l-12.273-7.09" fill="url(#d)" transform="matrix(1.3035 0 0 1.317 -2.475 -7.884)"/><path d="M16 22.67v4.666l15.999 9.338.001-4.671z" fill="#59a849"/><path d="m32 36.666 16-9.334v-4.666L32 32z" fill="#3e7231"/><path d="M14.173 26.74v10.63l12.274 7.087v-10.63z" fill="url(#e)" transform="matrix(1.3035 0 0 1.317 -2.475 -7.884)"/><path d="m32 36.666 16-9.334v14l-16 9.334z" fill="#573d2b"/></g></svg>