<svg xmlns="http://www.w3.org/2000/svg" xmlns:xlink="http://www.w3.org/1999/xlink" width="64" height="64"><defs><linearGradient id="e" x1="409.57" x2="409.94" y1="542.8" y2="504.19" gradientTransform="matrix(1.0523 0 0 1.0276 -72.568 -8.693)" gradientUnits="userSpaceOnUse"><stop offset="0" stop-color="#86d0fb"/><stop offset="1" stop-color="#2794f5"/></linearGradient><linearGradient id="c" x1="519.2" x2="519.2" y1="1024.8" y2="4.8" gradientTransform="matrix(.06359 0 0 .06358 -.556 -.553)" gradientUnits="userSpaceOnUse"><stop offset="0" stop-color="#606060"/><stop offset=".02" stop-color="#414141"/><stop offset="1" stop-color="#1e1e1e"/></linearGradient><linearGradient id="g" x1="386.57" x2="414.57" y1="531.8" y2="531.8" gradientTransform="matrix(.85717 0 0 .85719 -291.43 -412.07)" gradientUnits="userSpaceOnUse"><stop offset="0" stop-color="#fff"/><stop offset="1" stop-color="#ebebeb"/></linearGradient><linearGradient id="a" x1="-86.388" x2="-94.072" y1="734.34" y2="939.73" gradientTransform="matrix(.17231 0 0 .17025 27.809 -111.08)" gradientUnits="userSpaceOnUse"><stop offset="0" stop-color="#1769cc"/><stop offset="1" stop-color="#5ee6fb"/></linearGradient><linearGradient xlink:href="#a" id="h" x1="-8.903" x2="16.82" y1="14.785" y2=".811" gradientUnits="userSpaceOnUse"/><filter id="b" width="1.072" height="1.072" x="-.036" y="-.036" color-interpolation-filters="sRGB"><feGaussianBlur stdDeviation=".42"/></filter><filter id="d" width="1.063" height="1.084" x="-.032" y="-.042" color-interpolation-filters="sRGB"><feGaussianBlur stdDeviation=".611"/></filter><filter id="f" width="1.12" height="1.12" x="-.06" y="-.06" color-interpolation-filters="sRGB"><feGaussianBlur stdDeviation=".7"/></filter></defs><circle cx="400.57" cy="531.8" r="14" filter="url(#b)" opacity=".25" transform="translate(-826.36 -1107.5) scale(2.1429)"/><circle cx="32.02" cy="32.044" r="30.001" fill="none"/><path fill="url(#c)" d="M50.249 8.193q-3.86-2.972-8.444-4.556Q37.068 2 32.003 2C15.433 2 2 15.432 2 32.001c0 15.158 11.245 27.684 25.845 29.71a31.977 31.977 0 0 0 4.158.29C48.57 61.999 62 48.567 62 32c0-1.31-.082-2.604-.244-3.866a29.932 29.932 0 0 0-.884-4.305q-1.33-4.69-4.082-8.726-2.722-3.977-6.54-6.912z"/><g transform="matrix(.46586 -.05557 .05726 .45209 -209.41 -153.63)"><rect width="46.303" height="34.939" x="334.23" y="513.13" filter="url(#d)" opacity=".75" ry="1.644" transform="matrix(1.735 .21325 -.21325 1.735 -46.117 -529.76)"/><rect width="46.303" height="34.939" x="334.23" y="513.13" fill="url(#e)" ry="1.644" transform="matrix(1.735 .21325 -.21325 1.735 -46.117 -529.76)"/><g fill="#d5ffff" transform="rotate(7.007)"><ellipse cx="498.35" cy="384.49" rx="3.196" ry="3.293"/><ellipse cx="489.83" cy="384.49" rx="3.196" ry="3.293"/><ellipse cx="481.31" cy="384.49" rx="3.196" ry="3.293"/></g></g><rect width="29.996" height="5" x="17.004" y="39" fill="#fff" opacity=".35" ry="1.002" style="paint-order:markers stroke fill"/><g fill="#e8f6fc" stroke-width="3.78"><rect width="5" height="5" x="19" y="36" ry=".499" style="paint-order:stroke markers fill"/><rect width="5" height="5" x="26" y="36" ry=".499" style="paint-order:stroke markers fill"/><rect width="5" height="5" x="33" y="36" ry=".499" style="paint-order:stroke markers fill"/><rect width="5" height="5" x="40" y="36" ry=".499" style="paint-order:stroke markers fill"/></g><circle cx="400.57" cy="531.8" r="14" filter="url(#f)" opacity=".25" transform="matrix(.85409 .07257 -.07283 .85409 -255.37 -435.26)"/><ellipse cx="51.929" cy="43.781" fill="url(#g)" rx="12" ry="12.001" transform="rotate(4.856) skewX(-.017)"/><g fill="url(#h)" transform="translate(40.023 40.019)"><rect width="5" height="4" y="6" fill-rule="evenodd" ry="1"/><path d="M6 3 3 6v4l3 3z"/><g fill-rule="evenodd"><path d="M13.139 1.428c-.545-.428-1.139.224-.684.732A8 8 0 0 1 15 8a8 8 0 0 1-2.554 5.852c-.446.471.18 1.148.677.728A9 9 0 0 0 16 8a9 9 0 0 0-2.861-6.572Z"/><path d="M10.775 2.889c-.587-.535-1.199.225-.684.732A6 6 0 0 1 12 8a6 6 0 0 1-1.916 4.389c-.469.446.173 1.146.68.728A7 7 0 0 0 13 8a7 7 0 0 0-2.225-5.111z"/><path d="M8.41 4.35c-.52-.494-1.155.22-.683.73A4 4 0 0 1 9 8a4 4 0 0 1-1.277 2.926c-.473.43.14 1.152.68.73A5 5 0 0 0 10 8a5 5 0 0 0-1.59-3.65Z"/></g></g></svg>