<svg width="64" height="64" enable-background="new 0 0 1024 1024" image-rendering="optimizeSpeed" version="1.1" xmlns="http://www.w3.org/2000/svg">
 <defs>
  <linearGradient id="b" x1="32.035" x2="32.035" y1="2.066" y2="62.068" gradientUnits="userSpaceOnUse">
   <stop stop-color="#ececec" offset="0"/>
   <stop stop-color="#f6f6f6" offset="1"/>
  </linearGradient>
  <linearGradient id="d" x1="649.99" x2="649.99" y1="691.58" y2="827.72" gradientTransform="translate(-826.35 -1107.5)scale(2.1429)" gradientUnits="userSpaceOnUse">
   <stop stop-color="#cf30ac" offset="0"/>
   <stop stop-color="#ab31f8" offset="1"/>
  </linearGradient>
  <filter id="a" x="-.035999" y="-.035999" width="1.072" height="1.072" color-interpolation-filters="sRGB">
   <feGaussianBlur stdDeviation="14.143"/>
  </filter>
  <filter id="c" x="-.27719" y="-.21632" width="1.5544" height="1.4326" color-interpolation-filters="sRGB">
   <feGaussianBlur stdDeviation="21.704375"/>
  </filter>
  <filter id="d-1" x="-.013864" y="-.013864" width="1.0277" height="1.0277" color-interpolation-filters="sRGB">
   <feGaussianBlur stdDeviation=".298"/>
  </filter>
  <filter id="e" x="-.029686" y="-.029686" width="1.0594" height="1.0594" color-interpolation-filters="sRGB">
   <feGaussianBlur stdDeviation=".298"/>
  </filter>
 </defs>
 <path transform="translate(-.568 -.539)scale(.06363)" d="M983.25 511.35c0-7.95-.2-15.85-.5-23.55q-8-180.15-137.55-309.85C753.15 85.95 642 39.9 511.8 39.9c-130.15 0-241.35 46.05-333.35 138.05-92.05 92-138.1 203.2-138.1 333.4 0 130.15 46.05 241.35 138.1 333.35C264.6 931 367.8 976.85 487.6 982.3c8 .3 16 .5 24.2.5 130.2 0 241.35-46.1 333.4-138.1 92-92 138.05-203.2 138.05-333.35" filter="url(#a)" opacity=".25"/>
 <circle cx="32.035" cy="32.067" r="30.001" fill="url(#b)"/>
 <path transform="translate(-.614 -.678)scale(.06376)" d="M460 371.41q-9.504-6.609-20.897-5.161c-7.616.944-13.91 4.28-19.009 10.008-5.098 5.728-7.679 12.463-7.679 20.142v242.33c0 7.679 2.58 14.414 7.679 20.142 5.098 5.728 11.393 9.064 19.009 10.008s14.54-.819 20.897-5.162l175.8-121.16c5.602-3.84 9.441-9 11.581-15.358 2.14-6.42 2.14-12.84 0-19.198-2.14-6.357-5.98-11.519-11.519-15.42z" fill="url(#d)"/>
 <path d="m10.787 10.787a29.934 29.934 0 0 0 0 42.426c0.119 0.119 0.242 0.23 0.362 0.345-11.4-11.775-11.288-30.43 0.345-42.065s30.29-11.743 42.066-0.345c-0.116-0.12-0.227-0.243-0.345-0.362a29.934 29.934 0 0 0-42.426 0z" fill="#ffffff" filter="url(#d-1)" opacity=".75"/>
 <path transform="matrix(.08027 0 0 .08027 -7.877 -8.3686)" d="m455.9 405.95q-7.55-5.25-16.6-4.1c-6.05 0.75-11.05 3.4-15.1 7.95s-6.1 9.9-6.1 16v192.5c0 6.1 2.05 11.45 6.1 16s9.05 7.2 15.1 7.95 11.55-0.65 16.6-4.1l139.65-96.25c4.45-3.05 7.5-7.15 9.2-12.2 1.7-5.1 1.7-10.2 0-15.25s-4.75-9.15-9.15-12.25z" filter="url(#c)" opacity=".15" style="mix-blend-mode:normal"/>
 <path d="m37.435 61.526c5.772-1.063 11.297-3.831 15.779-8.313s7.25-10.007 8.313-15.779c-1.592 5.434-4.606 10.657-9.02 15.072s-9.639 7.428-15.072 9.02" fill="#ffffff" filter="url(#e)" opacity=".75"/>
</svg>
