<svg xmlns="http://www.w3.org/2000/svg" width="64" height="64" enable-background="new 0 0 1024 1024" image-rendering="optimizeSpeed"><defs><linearGradient id="b" x1="32.035" x2="32.035" y1="2.066" y2="62.068" gradientUnits="userSpaceOnUse"><stop offset="0" stop-color="#ececec"/><stop offset="1" stop-color="#f6f6f6"/></linearGradient><linearGradient id="d" x1="649.99" x2="649.99" y1="691.58" y2="827.72" gradientTransform="translate(-826.35 -1107.5) scale(2.1429)" gradientUnits="userSpaceOnUse"><stop offset="0" stop-color="#cf30ac"/><stop offset="1" stop-color="#ab31f8"/></linearGradient><filter id="a" width="1.072" height="1.072" x="-.036" y="-.036" color-interpolation-filters="sRGB"><feGaussianBlur stdDeviation="14.143"/></filter><filter id="c" width="1.082" height="1.064" x="-.041" y="-.032" color-interpolation-filters="sRGB"><feGaussianBlur stdDeviation="3.215"/></filter></defs><path d="M983.25 511.35c0-7.95-.2-15.85-.5-23.55q-8-180.15-137.55-309.85C753.15 85.95 642 39.9 511.8 39.9c-130.15 0-241.35 46.05-333.35 138.05-92.05 92-138.1 203.2-138.1 333.4 0 130.15 46.05 241.35 138.1 333.35C264.6 931 367.8 976.85 487.6 982.3c8 .3 16 .5 24.2.5 130.2 0 241.35-46.1 333.4-138.1 92-92 138.05-203.2 138.05-333.35z" filter="url(#a)" opacity=".25" transform="translate(-.568 -.539) scale(.06363)"/><circle cx="32.035" cy="32.067" r="30.001" fill="url(#b)"/><path d="M455.9 405.95q-7.55-5.25-16.6-4.1c-6.05.75-11.05 3.4-15.1 7.95s-6.1 9.9-6.1 16v192.5c0 6.1 2.05 11.45 6.1 16s9.05 7.2 15.1 7.95 11.55-.65 16.6-4.1l139.65-96.25c4.45-3.05 7.5-7.15 9.2-12.2 1.7-5.1 1.7-10.2 0-15.25s-4.75-9.15-9.15-12.25z" filter="url(#c)" opacity=".2" transform="translate(-7.877 -8.778) scale(.08027)"/><path fill="url(#d)" d="M460 371.41q-9.504-6.609-20.897-5.161c-7.616.944-13.91 4.28-19.009 10.008-5.098 5.728-7.679 12.463-7.679 20.142v242.33c0 7.679 2.58 14.414 7.679 20.142 5.098 5.728 11.393 9.064 19.009 10.008 7.616.944 14.54-.819 20.897-5.162l175.8-121.16c5.602-3.84 9.441-9 11.581-15.358 2.14-6.42 2.14-12.84 0-19.198-2.14-6.357-5.98-11.519-11.519-15.42z" transform="translate(-.614 -.678) scale(.06376)"/></svg>