<svg xmlns="http://www.w3.org/2000/svg" width="64" height="64"><defs><linearGradient id="d" x1="32" x2="32" y1="2" y2="62" gradientUnits="userSpaceOnUse"><stop offset="0" stop-opacity="0"/><stop offset="1"/></linearGradient><linearGradient id="b" x1="32" x2="32" y1="2" y2="62" gradientUnits="userSpaceOnUse"><stop offset="0" stop-color="#e45757"/><stop offset=".225" stop-color="#df3a3a"/><stop offset=".225" stop-color="#e24a4a"/><stop offset=".461" stop-color="#ce2121"/><stop offset=".461" stop-color="#c52020"/><stop offset=".754" stop-color="#782323"/><stop offset=".754" stop-color="#9b3a3a"/><stop offset="1" stop-color="#5f2f2f"/></linearGradient><linearGradient id="c" x1="32" x2="32" y1="2" y2="62" gradientUnits="userSpaceOnUse"><stop offset="0" stop-color="#e45757"/><stop offset=".225" stop-color="#dd4040"/><stop offset="1" stop-color="#d42c2c"/></linearGradient><linearGradient id="g" x1="45" x2="45" y1="27" y2="63" gradientUnits="userSpaceOnUse"><stop offset="0" stop-color="#f36565"/><stop offset="1" stop-color="#ee2929"/></linearGradient><filter id="a" width="1.072" height="1.072" x="-.036" y="-.036" color-interpolation-filters="sRGB"><feGaussianBlur stdDeviation=".9"/></filter><filter id="e" width="1.072" height="1.072" x="-.036" y="-.036" color-interpolation-filters="sRGB"><feGaussianBlur stdDeviation=".72"/></filter><filter id="f" width="1.111" height="1.131" x="-.055" y="-.066" color-interpolation-filters="sRGB"><feGaussianBlur stdDeviation=".46"/></filter><filter id="h" width="1.132" height="1.11" x="-.066" y="-.055" color-interpolation-filters="sRGB"><feGaussianBlur stdDeviation=".46"/></filter></defs><g fill-rule="evenodd"><circle cx="32" cy="32" r="30" filter="url(#a)" opacity=".25" style="paint-order:stroke fill markers"/><circle cx="32" cy="32" r="30" fill="url(#b)" style="paint-order:stroke fill markers"/><path fill="url(#c)" d="M32 2a30 30 0 0 0-8 1.088V60.88A30 30 0 0 0 32 62a30 30 0 0 0 30-30A30 30 0 0 0 32 2z" style="paint-order:stroke fill markers"/><circle cx="32" cy="32" r="30" fill="url(#d)" opacity=".15" style="paint-order:stroke fill markers"/><circle cx="32" cy="32" r="24" filter="url(#e)" opacity=".15" style="paint-order:stroke fill markers" transform="matrix(.75 0 0 .75 21 21)"/></g><path d="M35 37.177h4.177l1.8 9.854 2.308-9.854h3.434l2.243 9.946 1.938-9.946H55L51.454 54h-4.252l-2.183-9.139L42.961 54H38.6z" filter="url(#f)" opacity=".25"/><circle cx="45" cy="45" r="18" fill="url(#g)" fill-rule="evenodd" style="paint-order:stroke fill markers"/><path d="M36.62 50.955s3.595-.989 3.64-1.169c.045-.18.135-9.887.135-9.887l7.056-1.663v14.427L37.16 51.225 47.586 55l5.794-1.818-.04-16.429L47.451 35l-10.697 4.045z" filter="url(#h)" opacity=".25"/><path fill="#fff" d="M36.62 50.955s3.595-.989 3.64-1.169c.045-.18.135-9.887.135-9.887l7.056-1.663v14.427L37.16 51.225 47.586 55l5.794-1.818-.04-16.429L47.451 35l-10.697 4.045z"/></svg>