<svg xmlns="http://www.w3.org/2000/svg" width="64" height="64"><defs><linearGradient id="d" x1="32" x2="32" y1="2" y2="62" gradientUnits="userSpaceOnUse"><stop offset="0" stop-opacity="0"/><stop offset="1"/></linearGradient><linearGradient id="b" x1="32" x2="32" y1="2" y2="62" gradientUnits="userSpaceOnUse"><stop offset="0" stop-color="#b757e4"/><stop offset=".225" stop-color="#ce63fe"/><stop offset=".225" stop-color="#a43dde"/><stop offset=".461" stop-color="#a147e8"/><stop offset=".461" stop-color="#782dc4"/><stop offset=".754" stop-color="#69369f"/><stop offset=".754" stop-color="#5e338b"/><stop offset="1" stop-color="#5b4770"/></linearGradient><linearGradient id="c" x1="32" x2="32" y1="2" y2="62" gradientTransform="matrix(-1 0 0 1 64 0)" gradientUnits="userSpaceOnUse"><stop offset="0" stop-color="#b757e4"/><stop offset=".225" stop-color="#ce63fe"/><stop offset="1" stop-color="#bc67e5"/></linearGradient><linearGradient id="f" x1="45" x2="45" y1="27" y2="63" gradientUnits="userSpaceOnUse"><stop offset="0" stop-color="#722bb3"/><stop offset="1" stop-color="#8535ce"/></linearGradient><filter id="a" width="1.072" height="1.072" x="-.036" y="-.036" color-interpolation-filters="sRGB"><feGaussianBlur stdDeviation=".9"/></filter><filter id="e" width="1.072" height="1.072" x="-.036" y="-.036" color-interpolation-filters="sRGB"><feGaussianBlur stdDeviation=".72"/></filter><filter id="g" width="1.126" height="1.115" x="-.063" y="-.057" color-interpolation-filters="sRGB"><feGaussianBlur stdDeviation=".477"/></filter></defs><g fill-rule="evenodd"><circle cx="32" cy="32" r="30" filter="url(#a)" opacity=".25" style="paint-order:stroke fill markers"/><circle cx="32" cy="32" r="30" fill="url(#b)" style="paint-order:stroke fill markers"/><path fill="url(#c)" d="M32 2a30 30 0 0 1 30 30 30 30 0 0 1-30 30 30 30 0 0 1-13-2.992V5.006A30 30 0 0 1 32 2" style="paint-order:stroke fill markers"/><circle cx="32" cy="32" r="30" fill="url(#d)" opacity=".15" style="paint-order:stroke fill markers"/><circle cx="32" cy="32" r="24" filter="url(#e)" opacity=".15" style="paint-order:stroke fill markers" transform="matrix(.75 0 0 .75 21 21)"/><circle cx="45" cy="45" r="18" fill="url(#f)" style="paint-order:stroke fill markers"/></g><path d="M41.034 35h-5.076l-.055 20h5.13V42.919L48.967 55h5.077l.054-20h-5.13v12.081z" filter="url(#g)" opacity=".25"/><path fill="#fff" d="M41.034 35h-5.076l-.055 20h5.13V42.919L48.967 55h5.077l.054-20h-5.13v12.081z"/></svg>