<svg xmlns="http://www.w3.org/2000/svg" width="64" height="64"><defs><linearGradient id="b" x1="32" x2="32" y1="2" y2="62" gradientUnits="userSpaceOnUse"><stop offset="0" stop-color="#f49e7a"/><stop offset=".515" stop-color="#fe9a69"/><stop offset=".515" stop-color="#c84b2b"/><stop offset="1" stop-color="#d33f24"/></linearGradient><linearGradient id="f" x1="32" x2="32" y1="8" y2="56" gradientTransform="matrix(.75 0 0 .75 21 21)" gradientUnits="userSpaceOnUse"><stop offset="0" stop-color="#bc3b22"/><stop offset="1" stop-color="#e05d3e"/></linearGradient><linearGradient id="d" x1="32" x2="32" y1="2" y2="62" gradientUnits="userSpaceOnUse"><stop offset="0" stop-opacity="0"/><stop offset="1"/></linearGradient><linearGradient id="c" x1="32" x2="32" y1="2" y2="62" gradientUnits="userSpaceOnUse"><stop offset="0" stop-color="#e36f49"/><stop offset=".515" stop-color="#e6653c"/><stop offset=".515" stop-color="#c84b2b"/><stop offset="1" stop-color="#d33f24"/></linearGradient><filter id="a" width="1.072" height="1.072" x="-.036" y="-.036" color-interpolation-filters="sRGB"><feGaussianBlur stdDeviation=".9"/></filter><filter id="e" width="1.072" height="1.072" x="-.036" y="-.036" color-interpolation-filters="sRGB"><feGaussianBlur stdDeviation=".72"/></filter><filter id="g" width="1.134" height="1.109" x="-.067" y="-.054" color-interpolation-filters="sRGB"><feGaussianBlur stdDeviation=".452"/></filter></defs><g fill-rule="evenodd"><circle cx="32" cy="32" r="30" filter="url(#a)" opacity=".25" style="paint-order:stroke fill markers"/><circle cx="32" cy="32" r="30" fill="url(#b)" style="paint-order:stroke fill markers"/><path fill="url(#c)" d="M32 2A30 30 0 0 0 2 32a30 30 0 0 0 30 30z" style="paint-order:stroke fill markers"/></g><g fill-rule="evenodd"><circle cx="32" cy="32" r="30" fill="url(#d)" opacity=".15" style="paint-order:stroke fill markers"/><circle cx="32" cy="32" r="24" filter="url(#e)" opacity=".15" style="paint-order:stroke fill markers" transform="matrix(.75 0 0 .75 21 21)"/><circle cx="45" cy="45" r="18" fill="url(#f)" style="paint-order:stroke fill markers"/></g><path d="M38.102 36.001 38 56h5.275v-6.17c7.224.014 10.896-.928 10.896-6.864 0-6.571-3.593-6.99-10.896-6.965zm7.092 4.223c1.752.042 4.09.527 4.09 2.818 0 3.666-5.984 2.707-5.984 2.707v-5.417s.843-.133 1.894-.108" filter="url(#g)" opacity=".25"/><path fill="#fff" d="M38.102 36.001 38 56h5.275v-6.17c7.224.014 10.896-.928 10.896-6.864 0-6.571-3.593-6.99-10.896-6.965zm7.092 4.223c1.752.042 4.09.527 4.09 2.818 0 3.666-5.984 2.707-5.984 2.707v-5.417s.843-.133 1.894-.108"/></svg>