<svg xmlns="http://www.w3.org/2000/svg" width="64" height="64"><defs><linearGradient id="c" x1="32" x2="32" y1="2" y2="62" gradientUnits="userSpaceOnUse"><stop offset="0" stop-opacity="0"/><stop offset="1"/></linearGradient><linearGradient id="b" x1="32" x2="32" y1="2" y2="62" gradientUnits="userSpaceOnUse"><stop offset="0" stop-color="#58baff"/><stop offset=".225" stop-color="#50b7ff"/><stop offset=".225" stop-color="#4592e5"/><stop offset=".461" stop-color="#3b8de4"/><stop offset=".461" stop-color="#376dc4"/><stop offset=".754" stop-color="#3366b7"/><stop offset=".754" stop-color="#294a96"/><stop offset="1" stop-color="#27468e"/></linearGradient><linearGradient id="e" x1="45" x2="45" y1="27" y2="63" gradientUnits="userSpaceOnUse"><stop offset="0" stop-color="#5a89d2"/><stop offset="1" stop-color="#2c5ea8"/></linearGradient><filter id="a" width="1.072" height="1.072" x="-.036" y="-.036" color-interpolation-filters="sRGB"><feGaussianBlur stdDeviation=".9"/></filter><filter id="d" width="1.072" height="1.072" x="-.036" y="-.036" color-interpolation-filters="sRGB"><feGaussianBlur stdDeviation=".72"/></filter><filter id="f" width="1.111" height="1.131" x="-.055" y="-.066" color-interpolation-filters="sRGB"><feGaussianBlur stdDeviation=".46"/></filter></defs><g fill-rule="evenodd"><circle cx="32" cy="32" r="30" filter="url(#a)" opacity=".25" style="paint-order:stroke fill markers"/><circle cx="32" cy="32" r="30" fill="url(#b)" style="paint-order:stroke fill markers"/><circle cx="32" cy="32" r="30" fill="url(#c)" opacity=".15" style="paint-order:stroke fill markers"/><circle cx="32" cy="32" r="24" filter="url(#d)" opacity=".15" style="paint-order:stroke fill markers" transform="matrix(.75 0 0 .75 21 21)"/><circle cx="45" cy="45" r="18" fill="url(#e)" style="paint-order:stroke fill markers"/></g><path d="M35 37.177h4.177l1.8 9.854 2.308-9.854h3.434l2.243 9.946 1.938-9.946H55L51.454 54h-4.252l-2.183-9.139L42.961 54H38.6z" filter="url(#f)" opacity=".25"/><path fill="#fff" d="M35 37.177h4.177l1.8 9.854 2.308-9.854h3.434l2.243 9.946 1.938-9.946H55L51.454 54h-4.252l-2.183-9.139L42.961 54H38.6z"/></svg>