<svg xmlns="http://www.w3.org/2000/svg" xmlns:xlink="http://www.w3.org/1999/xlink" width="64" height="64"><defs><linearGradient id="c" x1="408.25" x2="407.94" y1="547.6" y2="498.89" gradientTransform="translate(-510.64 -663.52) scale(1.3276)" gradientUnits="userSpaceOnUse"><stop offset="0" stop-color="#fff"/><stop offset="1" stop-color="#f5f5f5"/></linearGradient><linearGradient id="a" x1="15.938" x2="44.062" y1="44.845" y2="44.845" gradientTransform="rotate(2.377 118.86 41.374)" gradientUnits="userSpaceOnUse"><stop offset="0" stop-color="#f41e00"/><stop offset="1" stop-color="#00d500"/></linearGradient><linearGradient xlink:href="#a" id="e" x1="23" x2="23" y1="14" y2="50" gradientUnits="userSpaceOnUse"/><linearGradient xlink:href="#a" id="g" x1="41" x2="41" y1="14" y2="50" gradientUnits="userSpaceOnUse"/><filter id="b" width="1.072" height="1.072" x="-.036" y="-.036" color-interpolation-filters="sRGB"><feGaussianBlur stdDeviation=".89"/></filter><filter id="d" width="1.465" height="1.103" x="-.233" y="-.052" color-interpolation-filters="sRGB"><feGaussianBlur stdDeviation=".775"/></filter><filter id="f" width="1.465" height="1.103" x="-.233" y="-.052" color-interpolation-filters="sRGB"><feGaussianBlur stdDeviation=".775"/></filter></defs><rect width="59.315" height="59.315" x="386.85" y="486.31" filter="url(#b)" opacity=".25" ry="29.657" transform="translate(-389.32 -489.92) scale(1.0115)"/><rect width="59.997" height="59.997" x="1.983" y="1.978" fill="url(#c)" ry="29.998"/><rect width="8" height="36" x="19" y="14" filter="url(#d)" opacity=".15" rx="2" ry="2" style="paint-order:stroke fill markers"/><rect width="8" height="36" x="19" y="14" fill="url(#e)" rx="2" ry="2" style="paint-order:stroke fill markers"/><rect width="8" height="36" x="37" y="14" filter="url(#f)" opacity=".15" rx="2" ry="2" style="paint-order:stroke fill markers"/><rect width="8" height="36" x="37" y="14" fill="url(#g)" rx="2" ry="2" style="paint-order:stroke fill markers"/><rect width="8" height="18" x="19" y="24" opacity=".35" rx="0" ry="0" style="paint-order:stroke fill markers"/><rect width="8" height="18" x="37" y="24" opacity=".15" rx="0" ry="0" style="paint-order:stroke fill markers"/><rect width="8" height="18" x="37" y="24" opacity=".35" rx="0" ry="0" style="paint-order:stroke fill markers"/><rect width="2" height="36" x="13" y="14" opacity=".15" rx="1" ry="1" style="paint-order:stroke fill markers"/><rect width="2" height="36" x="31" y="14" opacity=".15" rx="1" ry="1" style="paint-order:stroke fill markers"/><rect width="2" height="36" x="49" y="14" opacity=".15" rx="1" ry="1" style="paint-order:stroke fill markers"/><rect width="4" height="8" x="12" y="33" fill="gray" rx="1" ry=".889" style="paint-order:stroke fill markers"/><rect width="4" height="8" x="30" y="22" fill="gray" rx="1" ry=".889" style="paint-order:stroke fill markers"/><rect width="4" height="8" x="48" y="29" fill="gray" rx="1" ry=".889" style="paint-order:stroke fill markers"/></svg>