<svg xmlns="http://www.w3.org/2000/svg" xmlns:xlink="http://www.w3.org/1999/xlink" width="64" height="64" enable-background="new 0 0 1024 1024" image-rendering="optimizeSpeed"><defs><linearGradient id="d" x1="748.23" x2="-290.32" y1="-271.72" y2="766.82" gradientTransform="translate(21.417 -7.004)" gradientUnits="userSpaceOnUse"><stop offset="0" stop-color="#e97cc8"/><stop offset="1" stop-color="#7839b7"/></linearGradient><linearGradient id="e" x1="400.01" x2="399.93" y1="555.33" y2="518.93" gradientTransform="translate(-797.76 -1069.6) scale(2.0715)" gradientUnits="userSpaceOnUse"><stop offset="0" stop-color="#d3d3d3"/><stop offset="1" stop-color="#fff"/></linearGradient><linearGradient id="a"><stop offset="0" stop-color="#8d3aff"/><stop offset="1" stop-color="#ff3680"/></linearGradient><linearGradient xlink:href="#a" id="g" x1="429.88" x2="431" y1="539.35" y2="521.97" gradientTransform="translate(-755.95 -938) scale(1.827)" gradientUnits="userSpaceOnUse"/><linearGradient xlink:href="#a" id="h" x1="400.4" x2="400.4" y1="545.62" y2="517.62" gradientTransform="translate(-783.45 -1050.6) scale(2.0357)" gradientUnits="userSpaceOnUse"/><filter id="c" width="1.072" height="1.072" x="-.036" y="-.036" color-interpolation-filters="sRGB"><feGaussianBlur stdDeviation="7.278"/></filter><filter id="b" width="1.072" height="1.072" x="-.036" y="-.036" color-interpolation-filters="sRGB"><feGaussianBlur stdDeviation="14.17"/></filter><filter id="f" width="1.137" height="1.107" x="-.069" y="-.053" color-interpolation-filters="sRGB"><feGaussianBlur stdDeviation=".687"/></filter></defs><path d="M970.43 391.52a514.995 514.995 0 0 0-3.653-13.61c-1-3.403-2.001-6.855-3.152-10.508a421.479 421.479 0 0 0-5.304-15.862c-6.455-18.263-14.16-36.076-23.167-53.689a475.424 475.424 0 0 0-12.309-22.416c-20.315-34.525-45.833-67.249-76.406-97.821-72.653-72.653-157.26-116.74-253.84-132.15a484.051 484.051 0 0 0-50.087-5.354c-9.707-.55-19.865-.85-30.122-.85-9.357 0-18.614.25-27.92.75-118.44 6.105-220.46 51.988-306.07 137.6Q40.05 315.96 40.05 511.6c0 130.45 46.134 241.83 138.35 334.04 56.741 56.691 120.64 95.97 191.24 117.64 36.777 11.258 74.855 17.863 114.83 19.965h.4c8.507.45 16.612.7 24.518.7h3.003a583.3 583.3 0 0 0 30.122-.8c2.501-.15 4.753-.3 6.955-.45 20.215-1.451 39.929-4.053 58.743-7.706a519.823 519.823 0 0 0 23.417-5.154c80.859-20.315 152.26-61.645 214.81-124.19 48.636-48.636 84.462-102.57 107.43-161.92 18.463-47.685 28.67-98.872 30.572-153.61.2-6.054.3-12.259.3-18.514V508.6c-.2-40.68-4.954-79.558-14.31-117.09z" filter="url(#b)" opacity=".25" transform="translate(-.544 -.493) scale(.06351)"/><g stroke-width="15.683"><path d="m488.89 148.91-21.445 21.455-128.68-128.66 21.445-21.457c23.689-23.692 62.104-23.692 85.795 0l42.886 42.897c23.657 23.679 23.657 62.078 0 85.768zM188.65 406.22c-5.922 5.922-5.922 15.513 0 21.436 5.925 5.955 15.521 5.955 21.443 0l235.91-235.85-21.469-21.457zM81.42 299.01c-5.925 5.927-5.925 15.514 0 21.44 5.922 5.923 15.518 5.923 21.443 0l235.91-235.87-21.436-21.443zm278.77-193L124.3 341.89c-11.845 11.822-11.815 31.041 0 42.886 11.85 11.846 31.038 11.901 42.914-.032l235.89-235.84zM167.16 449.04c-7.253-7.262-10.749-16.465-12.05-25.948-3.083.476-6.188.919-9.36.919-16.202 0-31.419-6.333-42.881-17.795-11.462-11.491-17.77-26.687-17.77-42.887 0-2.954.443-5.833.859-8.703-9.803-1.335-18.864-5.629-25.972-12.737-.682-.677-.917-1.596-1.538-2.338l-37.022 148.13 147.75-36.986c-.651-.593-1.388-1.037-2.014-1.658z" filter="url(#c)" opacity=".2" transform="translate(16.168 17.089) scale(.06262)"/><path fill="url(#d)" d="m488.89 139.43-21.445 21.455-128.68-128.66 21.445-21.457c23.689-23.692 62.104-23.692 85.795 0l42.886 42.897c23.657 23.679 23.657 62.078 0 85.768zM188.65 396.74c-5.922 5.922-5.922 15.513 0 21.436 5.925 5.955 15.521 5.955 21.443 0l235.91-235.85-21.469-21.457zM81.42 289.53c-5.925 5.927-5.925 15.514 0 21.44 5.922 5.923 15.518 5.923 21.443 0L338.773 75.1l-21.436-21.443zm278.77-193L124.3 332.41c-11.845 11.822-11.815 31.041 0 42.886 11.85 11.846 31.038 11.901 42.914-.032l235.89-235.84zM167.16 439.56c-7.253-7.262-10.749-16.465-12.05-25.948-3.083.476-6.188.919-9.36.919-16.202 0-31.419-6.333-42.881-17.795-11.462-11.491-17.77-26.687-17.77-42.887 0-2.954.443-5.833.859-8.703-9.803-1.335-18.864-5.629-25.972-12.737-.682-.677-.917-1.596-1.538-2.338l-37.022 148.13 147.75-36.986c-.651-.593-1.388-1.037-2.014-1.658z" transform="translate(16.168 17.089) scale(.06262)"/></g><circle cx="32" cy="32" r="29" fill="url(#e)"/><path d="M27.706 20.208c-1.023.287-1.847 1.429-1.847 2.538v17.586a5.034 5.034 0 0 0-3.751-.423c-2.493.679-4.055 2.87-3.521 4.895.534 2.025 2.99 3.156 5.483 2.478 1.989-.541 3.36-2.072 3.578-3.686l.059-16.62 12.928-3.625v13.114a5.035 5.035 0 0 0-3.752-.423c-2.493.678-4.055 2.87-3.52 4.895.534 2.025 2.99 3.155 5.482 2.477 1.99-.54 3.36-2.072 3.579-3.686l.058-21.635c0-.832-.49-1.454-1.154-1.571l-13.621 3.686z" filter="url(#f)" opacity=".25"/><path fill="url(#g)" d="M27.706 20.208c-1.023.287-1.847 1.429-1.847 2.538v17.586a5.034 5.034 0 0 0-3.751-.423c-2.493.679-4.055 2.87-3.521 4.895.534 2.025 2.99 3.156 5.483 2.478 1.989-.541 3.36-2.072 3.578-3.686l.059-16.62 12.928-3.625v13.114a5.035 5.035 0 0 0-3.752-.423c-2.493.678-4.055 2.87-3.52 4.895.534 2.025 2.99 3.155 5.482 2.477 1.99-.54 3.36-2.072 3.579-3.686l.058-21.635c0-.832-.49-1.454-1.154-1.571l-13.621 3.686z"/><circle cx="32" cy="32" r="28.5" fill="none" stroke="url(#h)" stroke-width="3"/></svg>