<svg width="64" height="64" xmlns="http://www.w3.org/2000/svg" xmlns:xlink="http://www.w3.org/1999/xlink"><defs><linearGradient id="c" x1="399.57" x2="399.57" y1="545.8" y2="517.8" gradientTransform="translate(-826.36 -1107.5) scale(2.1429)" gradientUnits="userSpaceOnUse"><stop stop-color="#3889e9" offset="0"/><stop stop-color="#5ea5fb" offset="1"/></linearGradient><linearGradient id="a" x1="409.57" x2="409.94" y1="542.8" y2="504.19" gradientTransform="matrix(.54543 0 0 .5294 -200.12 -253.45)" gradientUnits="userSpaceOnUse"><stop stop-color="#86d0fb" offset="0"/><stop stop-color="#2794f5" offset="1"/></linearGradient><linearGradient id="d" x1="519.2" x2="519.2" y1="1024.8" y2="4.8" gradientTransform="matrix(.06359 0 0 .06358 -.556 -.553)" gradientUnits="userSpaceOnUse"><stop stop-color="#606060" offset="0"/><stop stop-color="#414141" offset=".02"/><stop stop-color="#1e1e1e" offset="1"/></linearGradient><linearGradient id="i" x1="409.57" x2="409.94" y1="542.8" y2="504.19" gradientTransform="matrix(.54543 0 0 .35293 -190.78 -141.22)" gradientUnits="userSpaceOnUse" xlink:href="#a"/><linearGradient id="j" x1="409.57" x2="409.94" y1="542.8" y2="504.19" gradientTransform="matrix(.40907 0 0 .5294 -121.14 -251.83)" gradientUnits="userSpaceOnUse" xlink:href="#a"/><linearGradient id="h" x1="409.57" x2="409.94" y1="542.8" y2="504.19" gradientTransform="matrix(.54543 0 0 .5294 -200.85 -251.83)" gradientUnits="userSpaceOnUse" xlink:href="#a"/><filter id="b" x="-.036" y="-.036" width="1.072" height="1.072" color-interpolation-filters="sRGB"><feGaussianBlur stdDeviation=".42"/></filter><filter id="g" x="-.059" y="-.078" width="1.117" height="1.156" color-interpolation-filters="sRGB"><feGaussianBlur stdDeviation=".585"/></filter><filter id="f" x="-.059" y="-.117" width="1.117" height="1.234" color-interpolation-filters="sRGB"><feGaussianBlur stdDeviation=".585"/></filter><filter id="e" x="-.078" y="-.078" width="1.156" height="1.156" color-interpolation-filters="sRGB"><feGaussianBlur stdDeviation=".585"/></filter></defs><circle transform="translate(-826.36 -1107.5) scale(2.1429)" cx="400.57" cy="531.8" r="14" filter="url(#b)" opacity=".25"/><circle cx="32.02" cy="32.044" r="30.001" fill="none"/><path d="M50.249 8.193q-3.86-2.972-8.444-4.556Q37.068 2 32.003 2C15.433 2 2 15.432 2 32.001c0 15.158 11.245 27.684 25.845 29.71a31.977 31.977 0 0 0 4.158.29C48.57 61.999 62 48.567 62 32c0-1.31-.082-2.604-.244-3.866a29.932 29.932 0 0 0-.884-4.305q-1.33-4.69-4.082-8.726-2.722-3.977-6.54-6.912z" fill="url(#d)"/><g stroke-width=".808"><rect x="37" y="17" width="18" height="18" ry=".847" filter="url(#e)" opacity=".75"/><rect x="20.078" y="38" width="24" height="12" ry=".565" filter="url(#f)" opacity=".75"/><rect x="10" y="17" width="24" height="18" ry=".847" filter="url(#g)" opacity=".75"/></g><g stroke-width=".808"><rect x="10" y="17" width="24" height="18" ry=".847" fill="url(#h)"/><rect x="20.078" y="38" width="24" height="12" ry=".565" fill="url(#i)"/><rect x="37" y="17" width="18" height="18" ry=".847" fill="url(#j)"/></g><g fill="#fff" stroke-width=".808"><path d="M10.848 17a.846.846 0 0 0-.848.848V20h24v-2.152a.846.846 0 0 0-.847-.848H10.848zM37.848 17a.846.846 0 0 0-.848.848V20h18v-2.152a.846.846 0 0 0-.847-.848H37.848zM20.643 38a.563.563 0 0 0-.564.564V41h24v-2.436a.563.563 0 0 0-.565-.564h-22.87z" opacity=".25"/></g></svg>