<svg width="64" height="64" version="1.1" xmlns="http://www.w3.org/2000/svg" xmlns:xlink="http://www.w3.org/1999/xlink">
 <defs>
  <linearGradient id="a" x1="409.57" x2="409.94" y1="542.8" y2="504.19" gradientTransform="matrix(.54543 0 0 .5294 -200.12 -253.45)" gradientUnits="userSpaceOnUse">
   <stop stop-color="#86d0fb" offset="0"/>
   <stop stop-color="#2794f5" offset="1"/>
  </linearGradient>
  <linearGradient id="c" x1="519.2" x2="519.2" y1="1024.8" y2="4.8" gradientTransform="matrix(.06359 0 0 .06358 -.556 -.553)" gradientUnits="userSpaceOnUse">
   <stop stop-color="#606060" offset="0"/>
   <stop stop-color="#414141" offset=".02"/>
   <stop stop-color="#1e1e1e" offset="1"/>
  </linearGradient>
  <linearGradient id="h" x1="409.57" x2="409.94" y1="542.8" y2="504.19" gradientTransform="matrix(.54543 0 0 .35293 -190.78 -141.22)" gradientUnits="userSpaceOnUse" xlink:href="#a"/>
  <linearGradient id="i" x1="409.57" x2="409.94" y1="542.8" y2="504.19" gradientTransform="matrix(.40907 0 0 .5294 -121.14 -251.83)" gradientUnits="userSpaceOnUse" xlink:href="#a"/>
  <linearGradient id="g" x1="409.57" x2="409.94" y1="542.8" y2="504.19" gradientTransform="matrix(.54543 0 0 .5294 -200.85 -251.83)" gradientUnits="userSpaceOnUse" xlink:href="#a"/>
  <filter id="b" x="-.036" y="-.036" width="1.072" height="1.072" color-interpolation-filters="sRGB">
   <feGaussianBlur stdDeviation=".42"/>
  </filter>
  <filter id="f" x="-.0585" y="-.078" width="1.117" height="1.156" color-interpolation-filters="sRGB">
   <feGaussianBlur stdDeviation=".585"/>
  </filter>
  <filter id="e" x="-.0585" y="-.117" width="1.117" height="1.234" color-interpolation-filters="sRGB">
   <feGaussianBlur stdDeviation=".585"/>
  </filter>
  <filter id="d" x="-.078" y="-.078" width="1.156" height="1.156" color-interpolation-filters="sRGB">
   <feGaussianBlur stdDeviation=".585"/>
  </filter>
  <filter id="filter26" x="-.013853" y="-.013853" width="1.0277" height="1.0277" color-interpolation-filters="sRGB">
   <feGaussianBlur stdDeviation="0.29776566"/>
  </filter>
  <filter id="filter25" x="-.029663" y="-.029663" width="1.0593" height="1.0593" color-interpolation-filters="sRGB">
   <feGaussianBlur stdDeviation="0.29776566"/>
  </filter>
 </defs>
 <circle transform="translate(-826.36 -1107.5) scale(2.1429)" cx="400.57" cy="531.8" r="14" filter="url(#b)" opacity=".25"/>
 <circle cx="32.02" cy="32.044" r="30.001" fill="none"/>
 <path d="M50.249 8.193q-3.86-2.972-8.444-4.556Q37.068 2 32.003 2C15.433 2 2 15.432 2 32.001c0 15.158 11.245 27.684 25.845 29.71a31.977 31.977 0 0 0 4.158.29C48.57 61.999 62 48.567 62 32c0-1.31-.082-2.604-.244-3.866a29.932 29.932 0 0 0-.884-4.305q-1.33-4.69-4.082-8.726-2.722-3.977-6.54-6.912z" fill="url(#c)"/>
 <g stroke-width=".808">
  <rect x="37" y="17" width="18" height="18" ry=".847" filter="url(#d)" opacity=".75"/>
  <rect x="20.078" y="38" width="24" height="12" ry=".565" filter="url(#e)" opacity=".75"/>
  <rect x="10" y="17" width="24" height="18" ry=".847" filter="url(#f)" opacity=".75"/>
  <rect x="10" y="17" width="24" height="18" ry=".847" fill="url(#g)"/>
  <rect x="20.078" y="38" width="24" height="12" ry=".565" fill="url(#h)"/>
  <rect x="37" y="17" width="18" height="18" ry=".847" fill="url(#i)"/>
 </g>
 <path d="M10.848 17a.846.846 0 0 0-.848.848V20h24v-2.152a.846.846 0 0 0-.847-.848H10.848zm27 0a.846.846 0 0 0-.848.848V20h18v-2.152a.846.846 0 0 0-.847-.848H37.848zM20.643 38a.563.563 0 0 0-.564.564V41h24v-2.436a.563.563 0 0 0-.565-.564h-22.87z" fill="#fff" opacity=".25"/>
 <path d="m10.787 10.787c-11.752 11.752-11.752 30.674 0 42.426 0.11855 0.11855 0.24184 0.22911 0.36184 0.34527-11.399-11.775-11.288-30.431 0.34527-42.065 11.634-11.634 30.289-11.744 42.065-0.34527-0.11616-0.12-0.22671-0.24329-0.34527-0.36184-11.752-11.752-30.674-11.752-42.426 0z" fill="#ffffff" filter="url(#filter26)" opacity=".15"/>
 <path d="m37.435 61.526c5.7718-1.0635 11.297-3.831 15.779-8.3126s7.2491-10.007 8.3126-15.779c-1.5917 5.4332-4.6056 10.657-9.0198 15.072s-9.6384 7.428-15.072 9.0198z" fill="#ffffff" filter="url(#filter25)" opacity=".15"/>
</svg>
