<svg width="64" height="64" version="1.1" viewBox="0 0 64 64" xmlns="http://www.w3.org/2000/svg">
 <defs>
  <linearGradient id="bg" x1="1" x2="47" gradientTransform="matrix(0 -1.3043 1.3043 0 .69565 63.304)" gradientUnits="userSpaceOnUse">
   <stop stop-color="#2676bb" offset="0"/>
   <stop stop-color="#47aaff" offset="1"/>
  </linearGradient>
  <filter id="filter1385" x="-.027" y="-.027" width="1.054" height="1.054" color-interpolation-filters="sRGB">
   <feGaussianBlur stdDeviation="0.67499998"/>
  </filter>
  <filter id="filter1465" x="-.095538" y="-.1242" width="1.1911" height="1.2484" color-interpolation-filters="sRGB">
   <feGaussianBlur stdDeviation="1.35"/>
  </filter>
 </defs>
 <path d="m32 2c16.569 0 30 13.431 30 30s-13.431 30-30 30-30-13.431-30-30 13.431-30 30-30z" fill="#000000" filter="url(#filter1385)" opacity=".25" stroke-width="1.3044"/>
 <path d="m32 2c16.569 0 30 13.431 30 30s-13.431 30-30 30-30-13.431-30-30 13.431-30 30-30z" fill="url(#bg)" stroke-width="1.3044"/>
 <path d="m42.435 19c-3.613 0-6.5217 2.9087-6.5217 6.5217h1.3043c0-2.8904 2.327-5.2174 5.2174-5.2174 2.8904 0 5.2174 2.327 5.2174 5.2174h1.3043c0-3.613-2.9087-6.5217-6.5217-6.5217zm0 3.913c-0.72036 0-1.3043 0.58398-1.3043 1.3043 0 0.72037 0.58398 1.3043 1.3043 1.3043 0.72037 0 1.3043-0.58398 1.3043-1.3043 0-0.72036-0.58398-1.3043-1.3043-1.3043zm-21.522 5.2174c-3.2517 0-5.8696 2.6178-5.8696 5.8696v11.087h1.3043v-11.087c0-2.5291 2.0361-4.5652 4.5652-4.5652 2.5291 0 4.5652 2.0361 4.5652 4.5652v11.087h1.3043v-11.087c0-2.5291 2.0361-4.5652 4.5652-4.5652s4.5652 2.0361 4.5652 4.5652v4.5652c0 3.613 2.9087 6.5217 6.5217 6.5217 3.613 0 6.5217-2.9087 6.5217-6.5217v-9.1304h-1.3043v9.1304c0 2.8904-2.327 5.2174-5.2174 5.2174-2.8904 0-5.2174-2.327-5.2174-5.2174v-4.5652c0-3.2517-2.6178-5.8696-5.8696-5.8696-2.2946 0-4.2513 1.3178-5.2174 3.2277-0.9662-1.91-2.9228-3.2277-5.2174-3.2277z" fill="#000000" filter="url(#filter1465)" opacity=".15" stroke-width="1.3044"/>
 <path d="m42.435 17.652c-3.613 0-6.5217 2.9087-6.5217 6.5217h1.3043c0-2.8904 2.327-5.2174 5.2174-5.2174 2.8904 0 5.2174 2.327 5.2174 5.2174h1.3043c0-3.613-2.9087-6.5217-6.5217-6.5217zm0 3.913c-0.72036 0-1.3043 0.58398-1.3043 1.3043 0 0.72037 0.58398 1.3043 1.3043 1.3043 0.72037 0 1.3043-0.58398 1.3043-1.3043 0-0.72036-0.58398-1.3043-1.3043-1.3043zm-21.522 5.2174c-3.2517 0-5.8696 2.6178-5.8696 5.8696v11.087h1.3043v-11.087c0-2.5291 2.0361-4.5652 4.5652-4.5652 2.5291 0 4.5652 2.0361 4.5652 4.5652v11.087h1.3043v-11.087c0-2.5291 2.0361-4.5652 4.5652-4.5652s4.5652 2.0361 4.5652 4.5652v4.5652c0 3.613 2.9087 6.5217 6.5217 6.5217 3.613 0 6.5217-2.9087 6.5217-6.5217v-9.1304h-1.3043v9.1304c0 2.8904-2.327 5.2174-5.2174 5.2174-2.8904 0-5.2174-2.327-5.2174-5.2174v-4.5652c0-3.2517-2.6178-5.8696-5.8696-5.8696-2.2946 0-4.2513 1.3178-5.2174 3.2277-0.9662-1.91-2.9228-3.2277-5.2174-3.2277z" fill="#ffffff" stroke-width="1.3044"/>
</svg>
