<?xml version="1.0" encoding="UTF-8"?>
<svg width="64" height="64" version="1.1" viewBox="0 0 16.933 16.933" xmlns="http://www.w3.org/2000/svg">
 <defs>
  <linearGradient id="d" x1="-15.867" x2="-1.05" y1="8.466" y2="8.466" gradientTransform="matrix(1.0714 0 0 1.0714 .5958 -.60437)" gradientUnits="userSpaceOnUse">
   <stop stop-color="#575757" offset="0"/>
   <stop stop-color="#868686" offset="1"/>
  </linearGradient>
  <radialGradient id="f" cx="84.734" cy="567.23" r="21.637" gradientTransform="matrix(1 0 0 .99974 0 .145)" gradientUnits="userSpaceOnUse">
   <stop stop-color="#dd8d00" stop-opacity="0" offset="0"/>
   <stop stop-color="#f19900" stop-opacity=".49804" offset=".534"/>
   <stop stop-color="#8d5900" offset="1"/>
  </radialGradient>
  <filter id="e" x="-.087281" y="-.066115" width="1.1746" height="1.1322" color-interpolation-filters="sRGB">
   <feGaussianBlur stdDeviation="2.199"/>
  </filter>
  <linearGradient id="linearGradient17" x1="86.038" x2="85.917" y1="607.11" y2="527.29" gradientUnits="userSpaceOnUse">
   <stop stop-color="#e11f1f" offset="0"/>
   <stop stop-color="#ff7070" offset="1"/>
  </linearGradient>
  <filter id="filter7" x="-.027" y="-.027" width="1.054" height="1.054" color-interpolation-filters="sRGB">
   <feGaussianBlur stdDeviation="0.675"/>
  </filter>
 </defs>
 <g transform="scale(.26458)">
  <rect x="2" y="3" width="60" height="60" rx="30" ry="30" filter="url(#filter7)" opacity=".15"/>
 </g>
 <rect transform="rotate(-90)" x="-16.404" y=".52916" width="15.875" height="15.875" rx="7.9373" ry="7.9373" fill="url(#d)" stroke-width="1.0714"/>
 <g transform="matrix(.14998 0 0 .14998 -4.176 -76.609)" filter="url(#e)" opacity=".15">
  <path d="m84.618 546.13c-4.648 0-8.95 1.501-12.442 4.04 3.382 3.344 4.07 6.42 4.723 9.308-3.513-0.93-6.57-2.618-9.052-4.801a21.057 21.057 0 0 0-4.218 12.675c0 4.648 1.501 8.95 4.04 12.442 3.344-3.383 6.42-4.32 9.308-4.975-0.938 3.537-2.622 6.814-4.801 9.292a21.057 21.057 0 0 0 12.675 4.218c4.648 0 8.95-1.501 12.442-4.04-3.383-3.343-4.384-6.722-5.038-9.61 3.47 0.9 6.889 2.936 9.366 5.115a21.057 21.057 0 0 0 4.218-12.675c0-4.648-1.501-8.95-4.04-12.442-3.343 3.382-6.733 4.195-9.622 4.849 0.938-3.545 2.933-6.696 5.116-9.178a21.057 21.057 0 0 0-12.675-4.218z"/>
  <g stroke-width="0">
   <path d="m85.539 537.07c-16.644 0-30.145 13.49-30.145 30.133 0 16.645 13.5 30.134 30.145 30.134a29.999 29.999 0 0 0 15.516-4.295l-2.83-4.784a24.452 24.452 0 0 1-12.686 3.519c-13.573 0-24.584-11-24.584-24.574 0-13.572 11.01-24.573 24.584-24.573a24.45 24.45 0 0 1 12.664 3.508l2.963-4.706a30 30 0 0 0-15.627-4.362z"/>
   <path d="m84.618 546.13c-4.648 0-8.95 1.501-12.442 4.04 3.382 3.344 4.07 6.42 4.723 9.308-3.513-0.93-6.57-2.618-9.052-4.801a21.057 21.057 0 0 0-4.218 12.675c0 4.648 1.501 8.95 4.04 12.442 3.344-3.383 6.42-4.32 9.308-4.975-0.938 3.537-2.622 6.814-4.801 9.292a21.057 21.057 0 0 0 12.675 4.218c4.648 0 8.95-1.501 12.442-4.04-3.383-3.343-4.384-6.722-5.038-9.61 3.47 0.9 6.889 2.936 9.366 5.115a21.057 21.057 0 0 0 4.218-12.675c0-4.648-1.501-8.95-4.04-12.442-3.343 3.382-6.733 4.195-9.622 4.849 0.938-3.545 2.933-6.696 5.116-9.178a21.057 21.057 0 0 0-12.675-4.218z"/>
   <path d="m76.746 559.32 0.08 15.647 15.583-0.143-0.08-15.455z"/>
   <path d="m86.038 527.29c-22.046 0-39.934 17.866-39.934 39.912 0 22.047 17.888 39.912 39.934 39.912 7.46 0 14.44-2.044 20.411-5.605l-3.207-5.416a33.542 33.542 0 0 1-17.403 4.828c-18.622 0-33.73-15.097-33.73-33.719 0-18.621 15.108-33.718 33.73-33.718a33.532 33.532 0 0 1 17.37 4.817l3.362-5.339c-6-3.607-13.02-5.672-20.533-5.672z"/>
  </g>
 </g>
 <path transform="translate(-4.176 -76.609) scale(.14998)" d="m86.038 527.29c-22.046 0-39.933 17.867-39.933 39.913 0 22.047 17.887 39.909 39.933 39.909 7.46 0 14.44-2.0414 20.411-5.6024l-3.2077-5.4163a33.542 33.542 0 0 1-17.403 4.8271c-18.622 0-33.728-15.096-33.728-33.718 0-18.621 15.106-33.721 33.728-33.721a33.532 33.532 0 0 1 17.372 4.8202l3.3594-5.3405c-6-3.607-13.019-5.6713-20.532-5.6713zm-0.4996 9.7783c-16.644 0-30.145 13.491-30.145 30.134 0 16.645 13.5 30.134 30.145 30.134a29.999 29.999 0 0 0 15.515-4.2965l-2.8287-4.7823a24.452 24.452 0 0 1-12.686 3.5178c-13.573 0-24.584-10.999-24.584-24.573 0-13.572 11.01-24.573 24.584-24.573a24.45 24.45 0 0 1 12.666 3.5075l2.9631-4.7065a30 30 0 0 0-15.629-4.362z" fill="url(#linearGradient17)" stroke-width="0"/>
 <path transform="translate(-4.176 -76.609) scale(.14998)" d="M84.618 546.126c-4.648 0-8.95 1.501-12.442 4.04 3.382 3.344 4.07 6.42 4.723 9.308-3.513-.93-6.57-2.618-9.052-4.801a21.057 21.057 0 0 0-4.218 12.675c0 4.648 1.501 8.95 4.04 12.442 3.344-3.383 6.42-4.32 9.308-4.975-.938 3.537-2.622 6.814-4.801 9.292a21.057 21.057 0 0 0 12.675 4.218c4.648 0 8.95-1.501 12.442-4.04-3.383-3.343-4.384-6.722-5.038-9.61 3.47.9 6.889 2.936 9.366 5.115a21.057 21.057 0 0 0 4.218-12.675c0-4.648-1.501-8.95-4.04-12.442-3.343 3.382-6.733 4.195-9.622 4.849.938-3.545 2.933-6.696 5.116-9.178a21.057 21.057 0 0 0-12.675-4.218z" fill="#ffaf27"/>
 <path transform="translate(-4.176 -76.609) scale(.14998)" d="M84.618 546.126c-4.648 0-8.95 1.501-12.442 4.04 3.382 3.344 4.07 6.42 4.723 9.308-3.513-.93-6.57-2.618-9.052-4.801a21.057 21.057 0 0 0-4.218 12.675c0 4.648 1.501 8.95 4.04 12.442 3.344-3.383 6.42-4.32 9.308-4.975-.938 3.537-2.622 6.814-4.801 9.292a21.057 21.057 0 0 0 12.675 4.218c4.648 0 8.95-1.501 12.442-4.04-3.383-3.343-4.384-6.722-5.038-9.61 3.47.9 6.889 2.936 9.366 5.115a21.057 21.057 0 0 0 4.218-12.675c0-4.648-1.501-8.95-4.04-12.442-3.343 3.382-6.733 4.195-9.622 4.849.938-3.545 2.933-6.696 5.116-9.178a21.057 21.057 0 0 0-12.675-4.218z" fill="url(#f)" stroke-width="0"/>
 <path transform="translate(-4.176 -76.609) scale(.14998)" d="m76.746 559.321.08 15.647 15.583-.143-.08-15.455z" fill="none" stroke-width="0"/>
</svg>
