<?xml version="1.0" encoding="UTF-8"?>
<svg width="64" height="64" version="1.1" viewBox="0 0 16.933 16.933" xml:space="preserve" xmlns="http://www.w3.org/2000/svg"><defs><linearGradient id="a" x1="7.937" x2="7.937" y1="15.081" y2="1.852" gradientTransform="matrix(1.0714 0 0 1.0714 -.60437 -.5958)" gradientUnits="userSpaceOnUse"><stop stop-color="#28e487" offset="0"/><stop stop-color="#5af4c7" offset="1"/></linearGradient><filter id="b" x="-.15231" y="-.13846" width="1.3046" height="1.2769" color-interpolation-filters="sRGB"><feGaussianBlur stdDeviation="29.539"/></filter><filter id="filter7" x="-.027" y="-.027" width="1.054" height="1.054" color-interpolation-filters="sRGB"><feGaussianBlur stdDeviation="0.675"/></filter></defs><g transform="scale(.26458)"><rect x="2" y="3" width="60" height="60" rx="30" ry="30" filter="url(#filter7)" opacity=".15"/></g><rect x=".52916" y=".52916" width="15.875" height="15.875" rx="7.9373" ry="7.9373" fill="url(#a)" stroke-width="1.0714"/><g><path transform="translate(2.382 1.832) scale(.02377)" d="m354.04 68.143c-5.865-2.7-12.765-0.186-15.453 5.632-2.711 5.83-0.198 12.753 5.632 15.453 73.647 34.269 121.24 108.86 121.24 190.04 0 115.49-93.964 209.46-209.46 209.46s-209.45-93.964-209.45-209.46c0-94.464 64.489-177.61 154.74-202.04 7.936 22.703 29.347 39.133 54.714 39.133 32.081 0 58.182-26.1 58.182-58.182 1e-3 -32.082-26.1-58.182-58.181-58.182-30.65 0-55.575 23.901-57.763 54.004-101.86 26.089-174.96 119.27-174.96 225.27 0 128.33 104.4 232.73 232.73 232.73s232.73-104.4 232.73-232.73c0-90.205-52.875-173.07-134.69-211.13zm-98.036-44.87c19.247 0 34.909 15.663 34.909 34.909s-15.663 34.909-34.909 34.909-34.909-15.663-34.909-34.909c0-19.247 15.662-34.909 34.909-34.909z" fill="#fff"/><path transform="translate(2.382 1.832) scale(.02377)" d="m256 186.18c-51.328 0-93.091 41.763-93.091 93.091s41.763 93.091 93.091 93.091 93.091-41.763 93.091-93.091-41.763-93.091-93.091-93.091zm0 162.91c-38.505 0-69.818-31.313-69.818-69.818s31.313-69.818 69.818-69.818 69.818 31.313 69.818 69.818c0 38.504-31.313 69.818-69.818 69.818z" fill="#ffa343"/><path transform="translate(2.382 1.832) scale(.02377)" d="M279.273 267.636h-11.636V256a11.625 11.625 0 0 0-11.636-11.636A11.625 11.625 0 0 0 244.365 256v11.636h-11.636a11.625 11.625 0 0 0-11.636 11.636 11.625 11.625 0 0 0 11.636 11.636h11.636v11.636a11.625 11.625 0 0 0 11.636 11.636 11.625 11.625 0 0 0 11.636-11.636v-11.636h11.636a11.625 11.625 0 0 0 11.636-11.636 11.626 11.626 0 0 0-11.636-11.636z" fill="#ffa343"/></g><g transform="matrix(.02377 0 0 .02377 2.382 2.3852)" filter="url(#b)" opacity=".1"><path d="m354.04 68.143c-5.865-2.7-12.765-0.186-15.453 5.632-2.711 5.83-0.198 12.753 5.632 15.453 73.647 34.269 121.24 108.86 121.24 190.04 0 115.49-93.964 209.46-209.46 209.46s-209.45-93.964-209.45-209.46c0-94.464 64.489-177.61 154.74-202.04 7.936 22.703 29.347 39.133 54.714 39.133 32.081 0 58.182-26.1 58.182-58.182 1e-3 -32.082-26.1-58.182-58.181-58.182-30.65 0-55.575 23.901-57.763 54.004-101.86 26.089-174.96 119.27-174.96 225.27 0 128.33 104.4 232.73 232.73 232.73s232.73-104.4 232.73-232.73c0-90.205-52.875-173.07-134.69-211.13zm-98.036-44.87c19.247 0 34.909 15.663 34.909 34.909s-15.663 34.909-34.909 34.909-34.909-15.663-34.909-34.909c0-19.247 15.662-34.909 34.909-34.909z"/><path d="m256 186.18c-51.328 0-93.091 41.763-93.091 93.091s41.763 93.091 93.091 93.091 93.091-41.763 93.091-93.091-41.763-93.091-93.091-93.091zm0 162.91c-38.505 0-69.818-31.313-69.818-69.818s31.313-69.818 69.818-69.818 69.818 31.313 69.818 69.818c0 38.504-31.313 69.818-69.818 69.818z"/><path d="m279.27 267.64h-11.636v-11.636a11.625 11.625 0 0 0-11.636-11.636 11.625 11.625 0 0 0-11.636 11.636v11.636h-11.636a11.625 11.625 0 0 0-11.636 11.636 11.625 11.625 0 0 0 11.636 11.636h11.636v11.636a11.625 11.625 0 0 0 11.636 11.636 11.625 11.625 0 0 0 11.636-11.636v-11.636h11.636a11.625 11.625 0 0 0 11.636-11.636 11.626 11.626 0 0 0-11.636-11.636z"/></g></svg>
