<svg width="64" height="64" version="1.1" viewBox="0 0 64 64" xmlns="http://www.w3.org/2000/svg" xmlns:xlink="http://www.w3.org/1999/xlink">
 <defs>
  <linearGradient id="a" x1="24.087" x2="24" y1="47.457" y2="1" gradientTransform="rotate(-90 24 24)" gradientUnits="userSpaceOnUse">
   <stop stop-color="#e80b47" offset="0"/>
   <stop stop-color="#ff4a4a" offset="1"/>
  </linearGradient>
  <filter id="c" x="-.062303" y="-.057861" width="1.1246" height="1.1157" color-interpolation-filters="sRGB">
   <feGaussianBlur stdDeviation="0.66540055"/>
  </filter>
  <filter id="b" x="-.036" y="-.036" width="1.072" height="1.072" color-interpolation-filters="sRGB">
   <feGaussianBlur stdDeviation="0.69"/>
  </filter>
 </defs>
 <g transform="translate(0,16)">
  <g transform="translate(1,1)"></g>
 </g>
 <g transform="translate(0,16)"></g>
 <g transform="translate(1 -1)" stroke-width=".76667">
  <g transform="matrix(1.3043 0 0 1.3043 -.30435 1.6957)">
   <path d="m24 1c12.703 0 23 10.297 23 23s-10.297 23-23 23-23-10.297-23-23 10.297-23 23-23z" filter="url(#b)" opacity=".25"/>
   <path d="m24 1c12.703 0 23 10.297 23 23s-10.297 23-23 23-23-10.297-23-23 10.297-23 23-23z" fill="url(#a)"/>
  </g>
  <g transform="matrix(1.3043 0 0 1.3043 -.30435 1.6957)">
   <path d="m26.551 24.046c0 1.1907-1.0054 2.1586-2.2414 2.1586-1.371 0-2.127-1.2035-2.2493-2.3193-0.2336-2.129 0.92159-3.2882 1.9319-3.8845 0.41003-0.24149 0.86048-0.42975 1.3306-0.56774 0 0 1.0892 3.3384 1.1739 3.8569 0.09364 0.5707 0.05323 0.756 0.05323 0.756m5.3521-6.6956c-1.2045-0.75403-2.681-1.168-4.2019-1.2419l-0.34005-1.1995 0.01084 0.01183c-0.0138-0.03647-0.02464-0.07097-0.03647-0.10547l-0.10054-0.35484c-0.23163-1.0261 0.18925-1.515 0.40609-1.6904 0.03746-0.02661 0.07491-0.05421 0.11532-0.08082 0.99551-0.63575 2.404 0.38342 2.4829 0.44355 0.62688 0.58252 1.7732 0.72643 2.3922 0.13011 0.62491-0.60125 0.47706-1.7279-0.14686-2.3301-0.97284-0.93736-3.9623-2.4405-6.5024-0.80824-2.2848 1.4667-2.3311 3.5306-1.9546 4.7243l0.45636 1.6135c-0.76487 0.21192-1.4952 0.51451-2.1655 0.90976-2.5016 1.4755-3.7554 3.9722-3.4429 6.8346 0.32428 2.9422 2.6071 5.0801 5.4339 5.0801 2.9994 0 5.4418-2.3518 5.4418-5.2417-0.04041-0.68898-0.03253-0.68208-0.12715-1.2981-0.09462-0.60125-1.0172-3.4291-1.0172-3.4291 0.56675 0.12616 1.0961 0.33217 1.5534 0.61702 5.1599 3.23 3.0122 8.3712 2.9166 8.5949-1.4203 3.2852-4.5212 5.2467-8.5023 5.3807-2.5952 0.08871-5.0821-0.84569-7.0021-2.6307-2.0245-1.8826-3.1856-4.5192-3.1856-7.2337 0-4.0885 2.6701-7.8025 6.6443-9.2386 0.82795-0.29865 1.4952-1.1503 1.0379-2.1399-0.35976-0.77768-1.3346-1.0448-2.1635-0.74516-5.2161 1.8846-8.7211 6.7577-8.7211 12.124 0 3.5464 1.5179 6.9923 4.1634 9.4525 2.4405 2.268 5.5808 3.502 8.8906 3.5011 0.14982 0 0.30161-2e-3 0.45143-0.0079 5.2102-0.17643 9.4505-2.8959 11.339-7.2613 1.1808-2.6514 1.8383-8.6511-4.121-12.381" filter="url(#c)" opacity=".15"/>
   <path d="m26.551 24.046c0 1.1907-1.0054 2.1586-2.2414 2.1586-1.371 0-2.127-1.2035-2.2493-2.3193-0.2336-2.129 0.92159-3.2882 1.9319-3.8845 0.41003-0.24149 0.86048-0.42975 1.3306-0.56774 0 0 1.0892 3.3384 1.1739 3.8569 0.09364 0.5707 0.05323 0.756 0.05323 0.756m5.3521-6.6956c-1.2045-0.75403-2.681-1.168-4.2019-1.2419l-0.34005-1.1995 0.01084 0.01183c-0.0138-0.03647-0.02464-0.07097-0.03647-0.10547l-0.10054-0.35484c-0.23163-1.0261 0.18925-1.515 0.40609-1.6904 0.03746-0.02661 0.07491-0.05421 0.11532-0.08082 0.99551-0.63575 2.404 0.38342 2.4829 0.44355 0.62688 0.58252 1.7732 0.72643 2.3922 0.13011 0.62491-0.60125 0.47706-1.7279-0.14686-2.3301-0.97284-0.93736-3.9623-2.4405-6.5024-0.80824-2.2848 1.4667-2.3311 3.5306-1.9546 4.7243l0.45636 1.6135c-0.76487 0.21192-1.4952 0.51451-2.1655 0.90976-2.5016 1.4755-3.7554 3.9722-3.4429 6.8346 0.32428 2.9422 2.6071 5.0801 5.4339 5.0801 2.9994 0 5.4418-2.3518 5.4418-5.2417-0.04041-0.68898-0.03253-0.68208-0.12715-1.2981-0.09462-0.60125-1.0172-3.4291-1.0172-3.4291 0.56675 0.12616 1.0961 0.33217 1.5534 0.61702 5.1599 3.23 3.0122 8.3712 2.9166 8.5949-1.4203 3.2852-4.5212 5.2467-8.5023 5.3807-2.5952 0.08871-5.0821-0.84569-7.0021-2.6307-2.0245-1.8826-3.1856-4.5192-3.1856-7.2337 0-4.0885 2.6701-7.8025 6.6443-9.2386 0.82795-0.29865 1.4952-1.1503 1.0379-2.1399-0.35976-0.77768-1.3346-1.0448-2.1635-0.74516-5.2161 1.8846-8.7211 6.7577-8.7211 12.124 0 3.5464 1.5179 6.9923 4.1634 9.4525 2.4405 2.268 5.5808 3.502 8.8906 3.5011 0.14982 0 0.30161-2e-3 0.45143-0.0079 5.2102-0.17643 9.4505-2.8959 11.339-7.2613 1.1808-2.6514 1.8383-8.6511-4.121-12.381" fill="#f9f9f9"/>
  </g>
 </g>
</svg>
