<svg id="Apps-Visual-Studio-Code" width="64" height="64" enable-background="new 0 0 1024 1024" image-rendering="optimizeSpeed" version="1.1" viewBox="0 0 64 64" xmlns="http://www.w3.org/2000/svg" xmlns:xlink="http://www.w3.org/1999/xlink">
 <defs>
  <linearGradient id="b" x1="399.57" x2="399.57" y1="545.8" y2="517.8" gradientUnits="userSpaceOnUse">
   <stop stop-color="#3889e9" offset="0"/>
   <stop stop-color="#5ea5fb" offset="1"/>
  </linearGradient>
  <linearGradient id="linearGradient888" x1="399.57" x2="399.57" y1="545.8" y2="517.8" gradientTransform="matrix(1.94 0 0 1.9415 -838.26 -1004.2)" gradientUnits="userSpaceOnUse" xlink:href="#b"/>
  <linearGradient id="linearGradient890" x1="399.57" x2="399.57" y1="545.8" y2="517.8" gradientUnits="userSpaceOnUse" xlink:href="#b"/>
  <linearGradient id="linearGradient862-3" x1="7.9373" x2="7.9373" y1="15.081" y2="1.852" gradientTransform="matrix(4.0494 0 0 4.0494 -2.2856 -2.2519)" gradientUnits="userSpaceOnUse">
   <stop stop-color="#1560ff" offset="0"/>
   <stop stop-color="#15afff" offset="1"/>
  </linearGradient>
  <linearGradient id="linearGradient3549" x1="28.551" x2="28.551" y1="1052.4" y2="1004.4" gradientTransform="matrix(1.25 0 0 1.2507 1.9988 -1254.2)" gradientUnits="userSpaceOnUse">
   <stop stop-color="#bfe1f9" offset="0"/>
   <stop stop-color="#f6fbfe" offset="1"/>
  </linearGradient>
  <linearGradient id="linearGradient1583" x1="28.77" x2="28.77" y1="47.029" y2=".88183" gradientTransform="matrix(1.3104 0 0 1.311 .55169 .53132)" gradientUnits="userSpaceOnUse">
   <stop stop-color="#fff" stop-opacity=".49804" offset="0"/>
   <stop stop-color="#fff" stop-opacity="0" offset="1"/>
  </linearGradient>
 </defs>
 <circle cx="-61.151" cy="28.264" r="0" fill="url(#linearGradient888)" stroke-width="1.5517"/>
 <g transform="matrix(1.9401 0 0 1.9416 -913.41 -986.3)" stroke-width=".79954">
  <g transform="matrix(.090211 0 0 .090211 438.34 482.08)" stroke-width=".79954">
   <g transform="matrix(1.2041,0,0,1.2041,-35.719,-130.85)" stroke-width=".79954">
    <g transform="matrix(9.2063,0,0,9.2063,-4262.7,-3635.2)">
     <g transform="matrix(.090211 0 0 .090211 438.34 482.08)" stroke-width=".79954">
      <g transform="matrix(1.2041,0,0,1.2041,63.521,-89.411)" stroke-width=".79954">
       <g transform="matrix(15.075,0,0,15.075,-6218.9,-8263.6)" stroke-width=".79954">
        <circle cx="400.57" cy="531.8" r="0" fill="url(#linearGradient890)"/>
       </g>
      </g>
     </g>
    </g>
    <g transform="translate(-14.074,-2.0105)">
     <g transform="matrix(.95946 0 0 .95946 -17.711 32.814)" stroke-width=".79954">
      <g transform="translate(107.07,39.919)" stroke-width=".79954"></g>
     </g>
    </g>
   </g>
  </g>
 </g>
 <rect x="2" y="2" width="60" height="60" rx="30" ry="30" fill="url(#linearGradient862-3)" stroke-width="4.0494"/>
 <path d="m31.957 2.002c-0.10541 1.472e-4 -0.20931 0.0065914-0.31445 0.0078125v3.6074h-4.9102v-3.1504c-0.11913 0.020949-0.23879 0.040158-0.35742 0.0625v3.0879h-4.9121v-1.7246c-0.10454 0.038995-0.20657 0.082926-0.31055 0.12305v1.6016h-3.4844c-0.1844 0.10002-0.3629 0.20876-0.54492 0.3125h4.0293v4.9141h-4.9121v-4.3965c-0.1052 0.064833-0.20817 0.13313-0.3125 0.19922v4.1973h-4.9551v-0.27148c-0.20998 0.20606-0.4153 0.41676-0.61914 0.62891h0.30859v4.9121h-4.1328c-0.065819 0.10561-0.13664 0.20797-0.20117 0.31445h4.334v4.9141h-4.9121v-3.9062c-0.10669 0.19256-0.20995 0.38688-0.3125 0.58203v3.3242h-1.4961c-0.039651 0.10488-0.084539 0.20705-0.12305 0.3125h1.6191v4.9121h-2.9414c-0.021618 0.11902-0.044235 0.23791-0.064453 0.35742h3.0059v4.9141h-3.4336c-2.859e-4 0.054289-0.0039062 0.10775-0.0039062 0.16211 0 0.050432 0.0036601 0.10002 0.0039062 0.15039h3.4336v4.9141h-3.0078c0.020065 0.11889 0.043003 0.23706 0.064453 0.35547h2.9434v4.9141h-1.623c0.038387 0.10525 0.081569 0.20781 0.12109 0.3125h1.502v3.3359c0.10255 0.19515 0.20581 0.38947 0.3125 0.58203v-3.918h4.9121v4.9141h-4.3398c0.063563 0.10499 0.13246 0.20642 0.19727 0.31055h4.1426v4.959h-0.27734c0.19394 0.20124 0.38842 0.40191 0.58789 0.59766v-0.2832h4.9551v4.209c0.10433 0.066092 0.2073 0.13438 0.3125 0.19922v-4.4082h4.9121v4.9102h-4.0566c0.18316 0.10465 0.36325 0.21358 0.54883 0.31445h3.5078v1.6152c0.10397 0.040121 0.20601 0.084052 0.31055 0.12305v-1.7383h4.9121v3.1016c0.11864 0.022342 0.23829 0.041551 0.35742 0.0625v-3.1641h4.9102v3.6211c0.10449 0.001214 0.20775 0.00766 0.3125 0.007813v-3.6289h4.9102v3.2363c0.10539-0.017057 0.20944-0.038496 0.31445-0.056641v-3.1797h4.9551v1.8848c0.10413-0.037146 0.20891-0.07307 0.3125-0.11133v-1.7734h3.9082c0.18558-0.10087 0.36567-0.2098 0.54883-0.31445h-4.457v-4.9102h4.9102v4.6504c0.10414-0.061943 0.20918-0.12238 0.3125-0.18555v-4.4648h4.9121v0.70703c0.11899-0.11208 0.23833-0.22389 0.35547-0.33789v-0.36914h0.37891c0.10182-0.10264 0.1985-0.21035 0.29883-0.31445h-0.67773v-4.959h4.543c0.06481-0.10413 0.1337-0.20556 0.19726-0.31055h-4.7402v-4.9141h4.9102v4.6191c0.10637-0.18029 0.20982-0.36222 0.3125-0.54492v-4.0742h1.9043c0.039525-0.10469 0.082707-0.20725 0.12109-0.3125h-2.0254v-4.9141h3.3457c0.021451-0.1184 0.044388-0.23658 0.064453-0.35547h-3.4102v-4.9141h3.8359c2.46e-4 -0.050372 0.003906-0.099959 0.003906-0.15039 0-0.054359-0.00362-0.10782-0.003906-0.16211h-3.8359v-4.9141h3.4082c-0.020218-0.11951-0.042835-0.23841-0.064453-0.35742h-3.3438v-4.9121h2.0215c-0.038509-0.10545-0.083397-0.20762-0.12305-0.3125h-1.8984v-4.0625c-0.10268-0.18271-0.20613-0.36463-0.3125-0.54492v4.6074h-4.9102v-4.9141h4.7344c-0.064536-0.10649-0.13535-0.20885-0.20117-0.31445h-4.5332v-4.9121h0.70898c-0.1142-0.11885-0.22566-0.24047-0.3418-0.35742h-0.36719v-0.35742c-0.11714-0.114-0.23648-0.22581-0.35547-0.33789v0.69531h-4.9121v-4.4531c-0.10332-0.063164-0.20836-0.1236-0.3125-0.18555v4.6387h-4.9102v-4.9141h4.4297c-0.18202-0.10374-0.36052-0.21248-0.54492-0.3125h-3.8848v-1.7598c-0.10359-0.038258-0.20837-0.074182-0.3125-0.11133v1.8711h-4.9551v-3.166c-0.10501-0.018145-0.20906-0.039584-0.31445-0.056641v3.2227h-4.9082v-3.6152zm-10.494 3.9277h4.9121v4.9141h-4.9121v-4.9141zm5.2695 0h4.9102v4.9141h-4.9102v-4.9141zm5.2246 0h4.9082v4.9141h-4.9082v-4.9141zm5.2227 0h4.9551v4.9141h-4.9551v-4.9141zm-26.207 5.2715h4.9551v4.9121h-4.9551v-4.9121zm5.2676 0h4.9121v4.9121h-4.9121v-4.9121zm5.2227 0h4.9121v4.9121h-4.9121v-4.9121zm5.2695 0h4.9102v4.9121h-4.9102v-4.9121zm5.2246 0h4.9082v4.9121h-4.9082v-4.9121zm5.2227 0h4.9551v4.9121h-4.9551v-4.9121zm5.2676 0h4.9102v4.9121h-4.9102v-4.9121zm5.2227 0h4.9121v4.9121h-4.9121v-4.9121zm-36.697 5.2266h4.9551v4.9141h-4.9551v-4.9141zm5.2676 0h4.9121v4.9141h-4.9121v-4.9141zm5.2227 0h4.9121v4.9141h-4.9121v-4.9141zm5.2695 0h4.9102v4.9141h-4.9102v-4.9141zm5.2246 0h4.9082v4.9141h-4.9082v-4.9141zm5.2227 0h4.9551v4.9141h-4.9551v-4.9141zm5.2676 0h4.9102v4.9141h-4.9102v-4.9141zm5.2227 0h4.9121v4.9141h-4.9121v-4.9141zm-41.92 5.2266h4.9121v4.9121h-4.9121v-4.9121zm5.2227 0h4.9551v4.9121h-4.9551v-4.9121zm5.2676 0h4.9121v4.9121h-4.9121v-4.9121zm5.2227 0h4.9121v4.9121h-4.9121v-4.9121zm5.2695 0h4.9102v4.9121h-4.9102v-4.9121zm5.2246 0h4.9082v4.9121h-4.9082v-4.9121zm5.2227 0h4.9551v4.9121h-4.9551v-4.9121zm5.2676 0h4.9102v4.9121h-4.9102v-4.9121zm5.2227 0h4.9121v4.9121h-4.9121v-4.9121zm5.2676 0h4.9102v4.9121h-4.9102v-4.9121zm-47.188 5.2695h4.9121v4.9141h-4.9121v-4.9141zm5.2227 0h4.9551v4.9141h-4.9551v-4.9141zm5.2676 0h4.9121v4.9141h-4.9121v-4.9141zm5.2227 0h4.9121v4.9141h-4.9121v-4.9141zm5.2695 0h4.9102v4.9141h-4.9102v-4.9141zm5.2246 0h4.9082v4.9141h-4.9082v-4.9141zm5.2227 0h4.9551v4.9141h-4.9551v-4.9141zm5.2676 0h4.9102v4.9141h-4.9102v-4.9141zm5.2227 0h4.9121v4.9141h-4.9121v-4.9141zm5.2676 0h4.9102v4.9141h-4.9102v-4.9141zm-47.188 5.2266h4.9121v4.9141h-4.9121v-4.9141zm5.2227 0h4.9551v4.9141h-4.9551v-4.9141zm5.2676 0h4.9121v4.9141h-4.9121v-4.9141zm5.2227 0h4.9121v4.9141h-4.9121v-4.9141zm5.2695 0h4.9102v4.9141h-4.9102v-4.9141zm5.2246 0h4.9082v4.9141h-4.9082v-4.9141zm5.2227 0h4.9551v4.9141h-4.9551v-4.9141zm5.2676 0h4.9102v4.9141h-4.9102v-4.9141zm5.2227 0h4.9121v4.9141h-4.9121v-4.9141zm5.2676 0h4.9102v4.9141h-4.9102v-4.9141zm-47.188 5.2695h4.9121v4.9141h-4.9121v-4.9141zm5.2227 0h4.9551v4.9141h-4.9551v-4.9141zm5.2676 0h4.9121v4.9141h-4.9121v-4.9141zm5.2227 0h4.9121v4.9141h-4.9121v-4.9141zm5.2695 0h4.9102v4.9141h-4.9102v-4.9141zm5.2246 0h4.9082v4.9141h-4.9082v-4.9141zm5.2227 0h4.9551v4.9141h-4.9551v-4.9141zm5.2676 0h4.9102v4.9141h-4.9102v-4.9141zm5.2227 0h4.9121v4.9141h-4.9121v-4.9141zm5.2676 0h4.9102v4.9141h-4.9102v-4.9141zm-41.965 5.2266h4.9551v4.9141h-4.9551v-4.9141zm5.2676 0h4.9121v4.9141h-4.9121v-4.9141zm5.2227 0h4.9121v4.9141h-4.9121v-4.9141zm5.2695 0h4.9102v4.9141h-4.9102v-4.9141zm5.2246 0h4.9082v4.9141h-4.9082v-4.9141zm5.2227 0h4.9551v4.9141h-4.9551v-4.9141zm5.2676 0h4.9102v4.9141h-4.9102v-4.9141zm5.2227 0h4.9121v4.9141h-4.9121v-4.9141zm-36.697 5.2246h4.9551v4.959h-4.9551v-4.959zm5.2676 0h4.9121v4.959h-4.9121v-4.959zm5.2227 0h4.9121v4.959h-4.9121v-4.959zm5.2695 0h4.9102v4.959h-4.9102v-4.959zm5.2246 0h4.9082v4.959h-4.9082v-4.959zm5.2227 0h4.9551v4.959h-4.9551v-4.959zm5.2676 0h4.9102v4.959h-4.9102v-4.959zm5.2227 0h4.9121v4.959h-4.9121v-4.959zm-26.207 5.2734h4.9121v4.9102h-4.9121v-4.9102zm5.2695 0h4.9102v4.9102h-4.9102v-4.9102zm5.2246 0h4.9082v4.9102h-4.9082v-4.9102zm5.2227 0h4.9551v4.9102h-4.9551v-4.9102z" fill="url(#linearGradient1583)" opacity=".25" stroke-width="1.0717"/>
 <path d="m21.443 4.6758c-0.36817 0.078066-0.75221 0.65397-1.1895 0.86133-0.27159 0.12607-0.66106 0.27173-0.93359 0.2207-0.17717-0.030016-0.53322-0.29213-0.56055-0.63477-0.002257-0.02935 0.006659-0.044921 0.007812-0.070312-5.1289 2.5127-9.4253 6.4431-12.385 11.289 0.032236 0.008564 0.063262 0.003147 0.095703 0.015625-0.060748 0.050827-0.12387 0.093048-0.1875 0.13672-1.3459 2.2335-2.4039 4.6609-3.1348 7.2285 0.27715-0.24133 0.59389-0.44198 0.89453-0.61914 0.30828-0.1819 0.55456-0.5009 0.82227-0.63477 0.37806-0.18985 0.65577-0.23411 0.96875-0.41016 0.56567-0.31787 1.052-0.5731 1.4941-0.93359 0.20449-0.48161 0.012498-1.1333 0.037109-1.6094 0.20463-0.12156 0.38279 0.06126 0.59961 0.03125 0.34136-0.07654 0.36522-0.55159 0.55859-0.74414 0.11115-0.10656 0.42099-0.19062 0.56055-0.30078 0.34043-0.26624 0.45102-0.66464 0.74805-0.7793 0.10646-0.03602 0.35369-0.029954 0.52148-0.083984 0.22245-0.06453 0.53637-0.32345 0.89648-0.44727 0.23383-0.08554 0.76979-0.097004 0.85938-0.1875 0.11022-0.10806 0.001175-0.42882 0.037109-0.59766 0.18106-0.84345 1.4506-1.0229 2.2012-1.3066 0.52604-0.20051 1.0665-0.56118 1.6445-0.44922-0.11316 0.40101-0.65383 0.26089-0.5625 0.74805 0.12736 0.67491 1.0311-0.19918 1.2695-0.29883 0.45547-0.1918 1.2343-0.30882 1.832-0.52539 0.52417-0.1909 1.4628-0.48168 0.96875-1.082-0.41207-0.018011-0.60957 0.48319-0.96875 0.63672-0.24802 0.03152-0.203-0.2066-0.41406-0.22656-0.19995-0.01501-0.31498 0.18716-0.52148 0.15234-0.20544-0.031521-0.4913-0.35723-0.52344-0.59766-0.08194-0.62328 0.52696-0.87941 0.78516-1.3438-0.17062-0.5646-0.94854-0.11187-1.4199-0.33789 0.04527-0.33573 0.3929-0.57083 0.78516-0.63477 0.32141-0.05853 1.041-0.016043 1.2324 0.15039 0.11223 0.09455 0.013764 0.33026 0.1875 0.48633 0.19044 0.17304 0.42298 0.1562 0.66992 0.10938 0.089591-0.42548-0.55416-0.31731-0.48437-0.59961 0.50434-0.33018 1.3239-0.063497 1.9414-0.15039 0.35543-0.05553 0.7319-0.30668 1.0469-0.48438 0.29971-0.16959 0.68807-0.46665 1.0059-0.1875 0.08678 0.30481-0.27758 0.40867-0.44727 0.56055-0.57131 0.50862-1.1615 1.0915-1.6055 1.6816 0.27253 0.26654 0.77146 0.12942 1.2324 0.1875 0.18012 0.01651 0.40514 0.081447 0.5957 0.10547 0.22244 0.03452 0.4604 0.025595 0.63476 0.078125 0.31404 0.08254 0.39869 0.41406 0.70898 0.41406 0.5109-9e-4 0.51597-0.55461 0.22656-0.90039 0.09147-0.35254 0.23573-0.53467 0.11133-0.78125-0.23008-0.46089-1.0757 4.07e-4 -1.1191-0.59766-0.02731-0.37265 0.31045-0.35562 0.44531-0.63477-0.06134-0.71963 0.59503-0.77415 0.52539-1.4199-0.02919-0.26954-0.25972-0.27085-0.44922-0.52344-0.09802-0.12757-0.14206-0.38624-0.25976-0.48633-0.39038-0.33003-1.1863-0.2645-1.2344-0.89453-0.017939-0.3719 0.090883-0.68179 0.039063-1.0859-0.04809-0.3764-0.30572-1.4206-0.63477-1.4922-0.052094-0.011631-0.10365-0.011152-0.15625 0zm25.363 1.2129c-0.23507 0.1762-0.48056 0.42379-0.52734 0.53516-0.11229 0.26564 0.02727 0.55963 0 0.96875 0.21306 0.093049 0.34303 0.51163 0.70703 0.71094 0.13767 0.08104 0.32655 0.040343 0.44922 0.10938 0.21307 0.11406 0.38127 0.38499 0.33789 0.59766-0.063041 0.30691-0.46557 0.2196-0.67383 0.44727 0.03579 0.43493-0.30181 0.49641-0.41016 0.78711 0.06506 0.1834 0.3419 0.15048 0.37109 0.36914-0.04156 0.23818-0.46349 0.27431-0.37109 0.52539 0.39976 0.31187 0.81333-0.06841 1.1914-0.10742 0.83527-0.10205 1.6941 0.10084 2.207-0.30078-0.06978-0.39921 0.41449-0.53794 0.37109-0.89453-0.03303-0.26834-0.47763-0.30068-0.67383-0.48633-0.10461-0.09905-0.13342-0.33013-0.26172-0.52344-0.14708-0.22122-0.4336-0.38019-0.59766-0.5957-0.21962-0.2916-0.67073-0.71373-0.66992-0.93555 0.001112-0.10464 0.058222-0.17768 0.125-0.25195-0.51373-0.33432-1.0392-0.65205-1.5742-0.95508zm-1.2969 1.8906v0.0097656c-0.1921 0-0.3832 0.043217-0.53906 0.13477-0.28378 0.17364-0.37594 0.44166-0.5957 0.52539-0.30266 0.10956-0.51737 0.013827-0.5625 0.29688-0.03684 0.22992 0.19407 0.34293 0.1875 0.55859-0.1104 0.27494-0.43168 0.3426-0.48633 0.67383 0.37807 0.61743 1.2862 0.071501 1.7559-0.080078 0.21118-0.06754 0.52066-0.05892 0.63477-0.22266 0.13015-0.19675 0.015677-0.53802 0.11328-0.82422 0.10841-0.31367 0.40778-0.35457 0.37109-0.63477-0.03303-0.25484-0.45628-0.4432-0.87891-0.4375zm6.6074 1.9316c-0.032428 0.045456-0.055255 0.088995-0.091797 0.13281-0.21401 0.25739-0.61581 0.5353-0.93359 0.67188-0.15544 0.07204-0.34201 0.061389-0.48438 0.15234-0.21026 0.13507-0.28296 0.47598-0.52148 0.63672-0.17169 0.11106-0.82675 0.44336-1.0078 0.44726-0.21213 0-0.40983-0.19782-0.5625-0.15234-0.22432 0.07654-0.19456 0.50971-0.44727 0.59961-0.49497 0.17544-1.3217-0.44046-1.4941 0.29688 0.21212 0.42758 0.75069 0.32522 1.1211 0.56055 0.23289 0.14558 0.72186 0.79639 0.7832 1.0469 0.05176 0.21146-0.024454 1.0455-0.11133 1.2695-0.23101 0.59612-0.7697 0.39091-1.4551 0.375-0.18763 0-0.38711 0.051807-0.56055 0.029297-1.1559-0.08404-2.3157-0.4874-2.8379 0.33594 0.04234 0.63379 0.17468 1.0581 0.035156 1.6094-0.10272 0.40476-0.46312 0.76843-0.44531 1.1191 0.0089 0.17994 0.2182 0.35318 0.26172 0.59766 0.02261 0.12757-0.06036 0.40548 0 0.52344 0.18949 0.36784 0.70535 0.060436 1.043 0.10547 0.32998 0.05403 0.71664 0.5309 0.71289 0.90039-0.0026 0.25769-0.25094 0.68371-0.41406 0.93164-0.32609 0.49511-0.76379 0.52102-1.2305 0.78516-0.3893 0.22077-0.55501 0.58875-0.7832 0.97266-0.24708 0.41527-0.40256 0.6665-0.30078 1.2676-0.33373 0.66245-0.8381 1.0696-1.5293 1.3848-0.20448 0.09305-0.48621 0.12034-0.67383 0.26172-0.14894 0.10506-0.23318 0.39434-0.44531 0.63281-0.26114 0.29251-0.53616 0.4104-0.67383 0.63281-0.10651 0.17364-0.14484 0.51722-0.26172 0.74805-0.15934 0.31336-0.49967 0.46744-0.70898 0.78516-0.09611 0.14858-0.1533 0.44206-0.25976 0.63476-0.23664 0.42968-0.64106 0.74482-0.59766 1.123 0.043309 0.36589 0.45612 0.42748 0.48437 0.74609 0.01699 0.18025-0.11895 0.29002-0.11133 0.48633 0.01155 0.2865 0.20198 0.48656 0.22461 0.70703 0.05649 0.55469-0.19619 0.77908-0.30078 1.1582-0.05013 0.18145-0.027038 0.38191-0.074218 0.52344-0.09142 0.27735-0.47675 0.53325-0.48438 0.86133-0.0041 0.23442 0.2419 0.41847 0.26172 0.74609 0.0135 0.22512-0.11569 0.46432-0.076172 0.67188 0.07934 0.40672 0.80338 0.88149 1.1191 1.1973 0.42238 0.42277 0.97619 0.74991 1.1582 1.1953 0.15378 0.3782 0.15516 0.87303 0.44922 1.1582 0.21776 0.20906 0.58029 0.34113 0.85938 0.56055 0.26007 0.20231 0.5423 0.37899 0.82031 0.5957 0.45452 0.35599 1.1431 1.063 1.8672 1.0078 0.37806-0.01951 0.76439-0.33377 1.1934-0.41016 0.44127-0.08254 1.012-0.11265 1.457-0.078125 0.34137 0.03152 0.68848 0.23977 1.043 0.22266 0.37418-0.01501 0.80917-0.30053 1.2344-0.48633 0.73629-0.32042 1.8364-0.75118 2.9121-0.59375 0.81932 0.11406 0.7781 1.0586 1.3457 1.418 0.65902 0.06003 1.1954-0.24054 1.7168-0.10742 0.39414 0.09755 0.8569 0.69775 0.89453 1.0098 0.03871 0.32447-0.17551 0.8061-0.22266 1.0059-0.10283 0.43598-0.10932 0.95632-0.1875 1.2324-0.06037 0.21461-0.22641 0.34849-0.22266 0.5625 0.0033 0.196 0.24848 0.67486 0.44922 0.93164 0.24521 0.31487 0.63366 0.55701 0.93164 0.89844 0.24302 0.27782 0.41892 0.58433 0.57812 0.9082 3.4245-4.8756 5.4375-10.821 5.4375-17.258 0-2.5152-0.31095-4.9535-0.88867-7.2852-0.32207-0.097897-0.6658-0.39304-1.0977-0.48633-0.22244-0.04953-0.5336-0.014502-0.70703-0.082032-0.40725-0.14107-0.35838-0.53632-0.70898-0.7832-0.20369-0.13657-0.72534-0.33973-1.0469-0.375-0.19981-0.01651-0.38647 0.067723-0.59766 0.033203-0.25083-0.02251-0.60819-0.20627-0.82031-0.33594-0.20262-0.11856-0.6181-0.30713-0.66992-0.48438-0.07934-0.2751 0.50166-0.59175 0.52148-0.82617 0.01365-0.17634-0.21833-0.2871-0.26172-0.55859-0.02538-0.16554 0.06826-0.3356 0.03711-0.44531-0.05459-0.1921-0.37123-0.40746-0.67188-0.41211-0.26597 0-0.51883 0.21485-0.74609 0.22266-0.32812 0.01501-0.86522-0.17981-1.2715-0.15039-0.24896 0.01501-0.47703 0.16558-0.70898 0.18359-0.65058 0.05403-1.1762-0.02401-1.6797 0-0.36668 0.01651-1.0005 0.14485-1.3418 0.30273-0.17342 0.08405-0.30201 0.26094-0.52539 0.37305-0.10084 0.04652-0.23926 0.045889-0.37305 0.10742-0.21213 0.09605-0.43308 0.32202-0.63476 0.37305-0.29235 0.07654-0.74166-0.06276-1.2695-0.03125-0.37899 0.01501-1.0002 0.017087-1.0059-0.44727-0.0094-0.69082 1.1737-0.44048 1.8262-0.5625 0.24601-0.04352 0.37974-0.27287 0.67383-0.44727 0.14062-0.08705 0.31522-0.095951 0.44727-0.18555 0.22619-0.15848 0.56653-0.52919 0.59961-0.70898 0.02916-0.16704-0.095772-0.40007-0.076172-0.52344 0.02553-0.16059 0.20754-0.32323 0.41016-0.52344 0.31485-0.31096 0.66039-0.72978 1.0469-0.93359 0.26409-0.13357 0.62254-0.12388 0.74414-0.33789 0.02726-0.24013-0.042799-0.37749-0.037109-0.5957 0.16216-0.14858 0.27436-0.26761 0.41016-0.29688 0.40256-0.09005 0.80295 0.27762 1.2715 0.25781 0.20262 0 0.37991-0.15745 0.59766-0.29883 0.18294-0.11556 0.37941-0.20548 0.55859-0.29688 0.19699-0.10055 0.39531-0.32018 0.63477-0.33594 0.58738-0.03152 0.8171 0.61712 1.084 0.9707 0.22338 0.29476 0.86384 0.8031 1.2305 1.0098 0.20651 0.11106 0.48368 0.1134 0.71094 0.22266 0.21943 0.098593 0.53134 0.30829 0.8125 0.54492-1.64-3.0741-3.7961-5.8271-6.3594-8.1406zm-43.607 5.666v0.001953c0.18949 0 0.35579 0.026524 0.43359 0.10156-0.12159 0.49316-1.1799 0.36354-1.5684 0.18555 0.025457-0.1849 0.31433-0.23636 0.55859-0.26172 0.17303-0.01501 0.38667-0.030354 0.57617-0.027344zm46.297 0.89844c-0.28188 0-0.45453 0.59923-0.054688 0.66992 0.17156-0.10055 0.30418-0.24538 0.26172-0.56055-0.07104-0.08254-0.14195-0.10547-0.20703-0.10547v-0.003906zm-0.074219 1.0508c-0.1422 0.01501-0.3065 0.096035-0.4668 0.26367 0.0094 0.41722 0.047024 0.68323-0.035156 1.0449 0.24053 0.46089 0.7738 0.047749 0.89648-0.26172 0.13218-0.71228-0.081701-1.0677-0.39453-1.0469zm4.3203 1.6465c-0.061999 0.1299-0.14223 0.25168-0.11914 0.38867 0.093004 0.016368 0.18829 0.00268 0.2793-0.033203-0.054669-0.11772-0.10401-0.23859-0.16016-0.35547zm-1.4629 0.41992v0.001953c-0.23763 0.01501-0.45162 0.060516-0.59766 0.17383 0.27346 0.44799 0.84323 0.59612 1.4551 0.70703 0.22057-0.16599 0.23509-0.53442 0.33594-0.82031-0.3353 0-0.79737-0.07901-1.1934-0.0625zm-54.957 6.4375c-0.10646 0.51303-0.20315 1.0303-0.2832 1.5527 0.094808 0.029543 0.19483 0.053547 0.2832 0.089844 0.32717-0.26984 0.044325-0.76591 0-1.1562-0.018868-0.17259 0.017925-0.32814 0-0.48633zm4.2422 11.406c-0.1575 0-0.2979 0.21059-0.43359 0.30469-0.2065 0.14408-0.40576 0.28825-0.63477 0.37305-0.51292 0.1909-0.83159 0.092468-1.2324 0.29883-0.37137 0.19225-0.38546 0.51363-0.5957 0.89648-0.17249 0.31262-0.56589 0.76429-0.82422 0.7832-0.039036 0.002059-0.076638-0.020263-0.11523-0.03125 3.0549 11.354 12.57 20.007 24.4 21.797 0.6076-0.28834 0.69959-0.99052 1.0273-1.5957 0.16404-0.30211 0.38192-0.60946 0.41406-0.82422 0.02918-0.1936-0.073965-0.36653-0.041015-0.5957 0.03296-0.22407 0.2414-0.4262 0.30273-0.67383 0.08103-0.32372 0.11133-0.79559 0.11133-1.1562 0-0.29611-0.13907-0.55632-0.15234-0.82227-0.04811-0.96906 0.3527-1.0795 0.71094-1.6074 0.17824-0.26219 0.2477-0.55985 0.37305-0.74805 0.60158-0.89748 1.6439-1.33 1.5684-2.6875-0.02434-0.44949-0.30384-1.4617-0.63476-1.6055-0.18856-0.08555-0.62315-0.016332-0.89648-0.10938-0.88254-0.32928-1.4-1.4246-2.3145-1.4941-0.19526-0.01501-0.37789 0.083078-0.59766 0.080078-0.36198-0.01501-0.9059-0.2535-1.3066-0.29883-0.25458-0.02251-0.59329 0.07954-0.74609 0-0.23383-0.10806-0.25777-0.54281-0.44726-0.67188-0.15174-0.10055-0.44381-0.13201-0.67188-0.22461-0.36775-0.13657-0.65974-0.30667-1.084-0.33594-0.13098-0.01501-0.29748 0.066213-0.44922 0.033203-0.23476-0.03302-0.41404-0.31895-0.63086-0.45117-0.27066-0.16554-0.52462-0.2492-0.63672-0.48438 0.24507-0.80473-0.43267-1.0293-0.59766-1.4941-0.07728-0.21806-0.043413-0.47557-0.11133-0.66992-0.09709-0.27855-0.37016-0.4415-0.67188-0.67383-0.54024-0.41527-1.0188-0.80269-1.791-0.89844-0.33936-0.034521-0.67395 0.10109-1.084 0.080078-0.43457-0.01951-0.98344-0.41191-1.3086-0.7832-0.31592-0.36379-0.47075-0.68949-0.74609-0.86328-0.26114-0.16644-0.60509-0.16289-0.7832-0.33203-0.07914-0.08104-0.063563-0.20046-0.14844-0.375-0.13098-0.27149-0.35271-0.42268-0.18945-0.74805-0.29798-0.15608-0.30738 0.28119-0.63281 0.22461-0.29034-0.41197-0.53633-0.60729-1.1953-0.48633-0.30078 0.06303-0.46865 0.43961-0.82031 0.44922-0.28846 0-0.51756-0.31932-0.89844-0.37305-0.28753-0.03452-0.61569 0.08227-0.82031 0.03125-0.3186-0.06754-0.4177-0.33013-0.70898-0.52148-0.21306-0.13957-0.62636-0.37875-0.74609-0.375-0.37511 0.01501-0.64058 0.79733-1.1582 0.52344-0.25258-0.31892 0.41124-0.48695 0.11328-0.78516-0.056582-0.05703-0.11156-0.077672-0.16406-0.076172v-0.001953zm0.021484 1.5391c0.25239 0.01501 0.28753 0.54572 0.029297 0.58789-0.27909 0.03902-0.41909-0.43508-0.14844-0.56055 0.044764-0.01501 0.083096-0.025078 0.11914-0.017578v-0.009765z" fill="url(#linearGradient3549)" opacity=".35" stroke-width="1.0717"/>
 <rect transform="rotate(-45)" x="-24.361" y="44.645" width="24" height="1" rx=".5" ry=".5" fill="#f55" stroke-width=".834"/>
 <path d="m32 2c-0.33534 0-0.66739 0.01458-1 0.025391v28.975h-28.975c-0.010811 0.33261-0.025391 0.66466-0.025391 1s0.01458 0.66739 0.025391 1h28.975v28.975c0.33261 0.010811 0.66466 0.025391 1 0.025391s0.66739-0.01458 1-0.025391v-28.975h28.975c0.010811-0.33261 0.025391-0.66466 0.025391-1s-0.01458-0.66739-0.025391-1h-28.975v-28.975c-0.33261-0.010811-0.66466-0.025391-1-0.025391z" opacity=".15"/>
</svg>
