<svg xmlns="http://www.w3.org/2000/svg" width="64" height="64" aria-label="Wikipedia"><defs><linearGradient id="c" x1="8.685" x2="8.762" y1="16.869" y2="4.534" gradientTransform="translate(-4.863 -4.997) scale(4.3501)" gradientUnits="userSpaceOnUse"><stop offset="0" stop-color="#4580ff"/><stop offset="1" stop-color="#7fa8ff"/></linearGradient><linearGradient id="b" x1="33.27" x2="33.27" y1="5.514" y2="62.082" gradientTransform="translate(-3.288 -3.848) scale(1.0607)" gradientUnits="userSpaceOnUse"><stop offset="0" stop-color="#eee"/><stop offset="1" stop-color="#fbfbf5"/></linearGradient><filter id="a" width="1.072" height="1.072" x="-.036" y="-.036" color-interpolation-filters="sRGB"><feGaussianBlur stdDeviation="14.17"/></filter></defs><path d="M970.43 391.52a515 515 0 0 0-3.653-13.61c-1-3.403-2.001-6.855-3.152-10.508a421.48 421.48 0 0 0-5.304-15.862c-6.455-18.263-14.16-36.076-23.167-53.689a475.42 475.42 0 0 0-12.309-22.416c-20.315-34.525-45.833-67.249-76.406-97.821-72.653-72.653-157.26-116.74-253.84-132.15a484.05 484.05 0 0 0-50.087-5.354c-9.707-.55-19.865-.85-30.122-.85-9.357 0-18.614.25-27.92.75-118.44 6.105-220.46 51.988-306.07 137.6Q40.05 315.96 40.05 511.6c0 130.45 46.134 241.83 138.35 334.04 56.741 56.691 120.64 95.97 191.24 117.64 36.777 11.258 74.855 17.863 114.83 19.965h.4c8.507.45 16.612.7 24.518.7h3.003a583.3 583.3 0 0 0 30.122-.8c2.501-.15 4.753-.3 6.955-.45 20.215-1.451 39.929-4.053 58.743-7.706a519.82 519.82 0 0 0 23.417-5.154c80.859-20.315 152.26-61.645 214.81-124.19 48.636-48.636 84.462-102.57 107.43-161.92 18.463-47.685 28.67-98.872 30.572-153.61.2-6.054.3-12.259.3-18.514V508.6c-.2-40.68-4.954-79.558-14.31-117.09z" filter="url(#a)" opacity=".25" transform="translate(-.544 -.493) scale(.06351)"/><circle cx="32" cy="32" r="30" fill="url(#b)" fill-rule="evenodd" style="paint-order:normal"/><rect width="64" height="64" fill="none" rx="0" ry="0" style="paint-order:stroke fill markers"/><path fill="url(#c)" d="M13.917 49.715c-2.672-3.679-4.247-8.219-4.247-13.142 0-12.355 9.994-22.367 22.33-22.367 12.337 0 22.33 10.012 22.33 22.385 0 4.906-1.573 9.445-4.246 13.142L39.358 32.271l-1.043 1.757 1.043 4.869-7.376-12.63-4.54 7.706 1.062 4.923-3.862-6.607z"/></svg>