<svg xmlns="http://www.w3.org/2000/svg" width="64" height="64" viewBox="0 0 16.933 16.933"><defs><linearGradient id="b" x1="408.25" x2="407.94" y1="547.6" y2="498.89" gradientTransform="translate(-135.1 -175.55)scale(.35125)" gradientUnits="userSpaceOnUse"><stop offset="0" stop-color="#fff"/><stop offset="1" stop-color="#e6e6e6"/></linearGradient><filter id="a" width="1.072" height="1.072" x="-.036" y="-.036" color-interpolation-filters="sRGB"><feGaussianBlur stdDeviation=".9"/></filter></defs><circle cx="32" cy="32" r="30" fill-rule="evenodd" filter="url(#a)" opacity=".25" style="paint-order:fill markers stroke" transform="scale(.26458)"/><rect width="15.874" height="15.874" x=".53" y=".53" fill="url(#b)" ry="7.937"/><path fill="#333" d="M8.297 3.726a.6.6 0 0 0-.25.05L4.561 5.242a.65.65 0 0 0-.396.595v5.651a.646.646 0 0 0 .474.622l3.828 1.073a.6.6 0 0 0 .174.024.7.7 0 0 0 .188-.028l3.483-1.06a.645.645 0 0 0 .458-.618V5.85a.645.645 0 0 0-.414-.603L8.53 3.768a.7.7 0 0 0-.233-.042m.361.856 3.399 1.314v5.289l-3.399-.91zm-.713.009v5.692l-3.069.895V5.88l3.07-1.29zm-.613 1.897a.356.356 0 0 0-.355.356v1.48l-.948-1.307a.356.356 0 0 0-.642.21v2.576a.356.356 0 0 0 .355.355.356.356 0 0 0 .356-.355v-1.48l.947 1.306a.356.356 0 0 0 .643-.21V6.845a.356.356 0 0 0-.356-.356zm1.793.742a.356.356 0 0 0-.338.27.356.356 0 0 0 .26.432l2.119.525a.356.356 0 0 0 .43-.26.356.356 0 0 0-.258-.431L9.217 7.24a.4.4 0 0 0-.092-.01m-.002.946a.356.356 0 0 0-.336.273.356.356 0 0 0 .264.428l1.466.35a.356.356 0 0 0 .428-.264.356.356 0 0 0-.263-.428l-1.467-.35a.4.4 0 0 0-.092-.009m.002.95a.356.356 0 0 0-.338.27.356.356 0 0 0 .26.432l2.119.524a.356.356 0 0 0 .43-.26.356.356 0 0 0-.258-.43l-2.121-.525a.4.4 0 0 0-.092-.01zm-.818 1.792 2.93.784-2.6.794-2.923-.821z"/></svg>