<svg xmlns="http://www.w3.org/2000/svg" xmlns:xlink="http://www.w3.org/1999/xlink" width="64" height="64" enable-background="new 0 0 1024 1024" image-rendering="optimizeSpeed"><defs><linearGradient id="a"><stop offset="0" stop-color="#111"/><stop offset="1" stop-color="#626262"/></linearGradient><linearGradient id="c" x1="519.68" x2="519.68" y1="2.826" y2="1026.1" gradientTransform="translate(-.546 -.546)scale(.06356)" gradientUnits="userSpaceOnUse"><stop offset="0" stop-color="#d7d7d7"/><stop offset=".5" stop-color="#faf8f6"/><stop offset="1" stop-color="#fff"/></linearGradient><linearGradient xlink:href="#a" id="d" x1="32" x2="32" y1="-3.576" y2="57" gradientUnits="userSpaceOnUse"/><linearGradient xlink:href="#a" id="e" x1="32" x2="32" y1="7" y2="56.602" gradientUnits="userSpaceOnUse"/><filter id="b" width="1.072" height="1.072" x="-.036" y="-.036" color-interpolation-filters="sRGB"><feGaussianBlur stdDeviation="14.17"/></filter><filter id="f" width="1.139" height="1.105" x="-.07" y="-.053" color-interpolation-filters="sRGB"><feGaussianBlur stdDeviation=".58"/></filter></defs><path d="M970.43 391.52a515 515 0 0 0-3.653-13.61c-1-3.403-2.001-6.855-3.152-10.508a422 422 0 0 0-5.304-15.862c-6.455-18.263-14.16-36.076-23.167-53.689a475 475 0 0 0-12.309-22.416c-20.315-34.525-45.833-67.249-76.406-97.821-72.653-72.653-157.26-116.74-253.84-132.15a484 484 0 0 0-50.087-5.354c-9.707-.55-19.865-.85-30.122-.85-9.357 0-18.614.25-27.92.75-118.44 6.105-220.46 51.988-306.07 137.6Q40.05 315.96 40.05 511.6c0 130.45 46.134 241.83 138.35 334.04 56.741 56.691 120.64 95.97 191.24 117.64 36.777 11.258 74.855 17.863 114.83 19.965h.4c8.507.45 16.612.7 24.518.7h3.003a583 583 0 0 0 30.122-.8c2.501-.15 4.753-.3 6.955-.45 20.215-1.451 39.929-4.053 58.743-7.706a520 520 0 0 0 23.417-5.154c80.859-20.315 152.26-61.645 214.81-124.19 48.636-48.636 84.462-102.57 107.43-161.92 18.463-47.685 28.67-98.872 30.572-153.61.2-6.054.3-12.259.3-18.514V508.6c-.2-40.68-4.954-79.558-14.31-117.09z" filter="url(#b)" opacity=".25" transform="translate(-.544 -.493)scale(.06351)"/><path fill="url(#c)" d="M61.091 24.373c-.07-.276-.15-.572-.232-.864-.064-.217-.127-.436-.2-.668A28 28 0 0 0 58.069 17c-1.29-2.193-2.911-4.271-4.853-6.213q-6.921-6.923-16.122-8.393a31 31 0 0 0-3.181-.34 34 34 0 0 0-3.687-.006q-11.283.582-19.439 8.74Q2 19.573 2 32c0 8.285 2.93 15.36 8.787 21.216 3.604 3.6 7.663 6.095 12.146 7.472a30.2 30.2 0 0 0 7.294 1.268h.025c.54.028 1.055.044 1.557.044H32c.656 0 1.304-.019 1.914-.05l.442-.03a31 31 0 0 0 3.73-.489 33 33 0 0 0 1.488-.327c5.135-1.29 9.67-3.915 13.643-7.888 3.089-3.089 5.364-6.514 6.823-10.284q1.76-4.542 1.942-9.756.018-.578.019-1.176v-.19a31.2 31.2 0 0 0-.909-7.437z"/><path fill="url(#d)" fill-rule="evenodd" d="M32 7A25 25 0 0 0 7 32a25 25 0 0 0 25 25 25 25 0 0 0 25-25A25 25 0 0 0 32 7m0 2a23 23 0 0 1 23 23 23 23 0 0 1-23 23A23 23 0 0 1 9 32 23 23 0 0 1 32 9" style="paint-order:stroke fill markers"/><path fill="url(#e)" d="M22 18.788h4.814l11.717 22.106V18.788h3.47v26.425h-4.815L25.469 23.107v22.106H22z" aria-label="N"/><g aria-label="N" filter="url(#f)" opacity=".15"><path d="M22 18.788h4.814l11.717 22.106V18.788h3.47v26.425h-4.815L25.469 23.107v22.106H22z"/></g></svg>