<svg xmlns="http://www.w3.org/2000/svg" xmlns:xlink="http://www.w3.org/1999/xlink" width="64" height="64"><defs><linearGradient id="b"><stop offset="0" stop-color="#38200e"/><stop offset="1" stop-color="#77441e"/></linearGradient><linearGradient id="a"><stop offset="0" stop-color="#38200e"/><stop offset="1" stop-color="#38200e"/></linearGradient><linearGradient id="d" x1="408.25" x2="407.94" y1="547.6" y2="498.89" gradientTransform="translate(-510.64 -663.52)scale(1.3276)" gradientUnits="userSpaceOnUse"><stop offset="0" stop-color="#fff"/><stop offset="1" stop-color="#e6e6e6"/></linearGradient><linearGradient id="n" x1="13.033" x2="24.195" y1="59.32" y2="34.151" gradientUnits="userSpaceOnUse"><stop offset="0" stop-color="#5a3316"/><stop offset="1" stop-color="#ab6f45"/></linearGradient><linearGradient id="l" x1="45.186" x2="44.21" y1="24.692" y2="15.811" gradientUnits="userSpaceOnUse"><stop offset="0" stop-color="#5a3316"/><stop offset="1" stop-color="#bc6e39"/></linearGradient><linearGradient xlink:href="#a" id="e" x1="39.91" x2="49.394" y1="20.228" y2="20.228" gradientUnits="userSpaceOnUse"/><linearGradient id="k" x1="-6.408" x2="22.764" y1="53.998" y2="30.249" gradientUnits="userSpaceOnUse"><stop offset="0" stop-color="#38200e"/><stop offset="1" stop-color="#38200e" stop-opacity=".954"/></linearGradient><linearGradient xlink:href="#b" id="h" x1="12.308" x2="26.388" y1="51.014" y2="36.815" gradientUnits="userSpaceOnUse"/><linearGradient id="m" x1="3.143" x2="6.635" y1="58.286" y2="34.628" gradientUnits="userSpaceOnUse"><stop offset="0" stop-opacity=".451"/><stop offset="1" stop-color="#e5af5b" stop-opacity=".326"/></linearGradient><filter id="c" width="1.072" height="1.072" x="-.036" y="-.036" color-interpolation-filters="sRGB"><feGaussianBlur stdDeviation=".89"/></filter><filter id="f" width="1.471" height="1.714" x="-.235" y="-.357" color-interpolation-filters="sRGB"><feGaussianBlur stdDeviation=".815"/></filter><filter id="g" width="1.126" height="1.127" x="-.063" y="-.063" color-interpolation-filters="sRGB"><feGaussianBlur stdDeviation=".815"/></filter><filter id="i" width="1.182" height="1.15" x="-.091" y="-.075" color-interpolation-filters="sRGB"><feGaussianBlur stdDeviation=".815"/></filter><radialGradient id="j" cx="8.067" cy="39.411" r="16.568" gradientTransform="matrix(1.4438 -.08191 .0659 1.1615 -5.941 -5.232)" gradientUnits="userSpaceOnUse"><stop offset="0" stop-color="#eab869"/><stop offset="1" stop-color="#dca245"/></radialGradient></defs><rect width="59.315" height="59.315" x="386.85" y="486.31" filter="url(#c)" opacity=".25" ry="29.657" transform="translate(-389.32 -489.92)scale(1.0115)"/><rect width="59.997" height="59.997" x="1.983" y="1.978" fill="url(#d)" ry="29.998"/><path stroke="url(#e)" stroke-linecap="round" stroke-linejoin="bevel" d="M40.576 20.542s1.26-1.136 2.305-1.864 2.577-1.563 3.94-1.279 2.47 2.09 1.925 3.143-1.525-.228-2.97-.151-3.576 2.43-3.576 2.43z" filter="url(#f)" opacity=".35" style="paint-order:stroke fill markers" transform="translate(-2.268 -2.204)scale(1.0939)"/><path d="M24.25 42.689c0 6.725-3.3 15.028-15.213 15.028S-9.167 47.524-8.876 44.213c.458-5.21 8.74-15.314 20.651-15.582 7.839-.177 12.475 7.333 12.475 14.058" filter="url(#g)" opacity=".35" style="paint-order:stroke markers fill" transform="rotate(-32.061 -4.969 2.845)scale(1.0939)"/><path stroke="url(#h)" d="M24.25 42.689c.218 7.37-3.886 14.125-9.355 15.7-.535.154-1.918-.694-1.527-1.196.426-.546 1.585-1.176 1.902-2.32.6-2.157.714-3.16.737-5.76.02-2.231.039-5.783-.113-7.6-.234-2.804-.93-6.976-2.157-10.84-.38-1.196-1.51-1.438-1.903-2.147-.306-.551.194-1.057.816-.93 7.685 1.558 11.401 8.371 11.6 15.093z" filter="url(#i)" opacity=".35" style="paint-order:stroke markers fill" transform="rotate(-32.061 -4.969 2.845)scale(1.0939)"/><path fill="url(#j)" stroke="url(#k)" d="M24.25 42.689c0 6.725-3.3 15.028-15.213 15.028S-9.167 47.524-8.876 44.213c.458-5.21 8.74-15.314 20.651-15.582 7.839-.177 12.475 7.333 12.475 14.058z" style="paint-order:stroke markers fill" transform="rotate(-32.061 -4.969 2.845)scale(1.0939)"/><path fill="url(#l)" stroke="url(#e)" stroke-linecap="round" stroke-linejoin="bevel" d="M40.576 20.542s1.26-1.136 2.305-1.864 2.577-1.563 3.94-1.279 2.47 2.09 1.925 3.143-1.525-.228-2.97-.151-3.576 2.43-3.576 2.43z" style="paint-order:stroke fill markers" transform="translate(-2.268 -2.204)scale(1.0939)"/><path fill="#975c25" d="M32.826 16.293c1.621 1.193 3.024 2.68 4.057 4.328 3.57 5.7 5.18 14.488-4.916 20.812-5.016 3.141-10.187 3.41-14.311 2.527 3.728 2.735 12.395 5.32 20.639.157 10.097-6.325 8.485-15.111 4.916-20.811-2.23-3.56-6.156-6.42-10.385-7.014z" opacity=".5" style="paint-order:stroke markers fill" transform="translate(-2.268 -2.204)scale(1.0939)"/><path fill="url(#m)" d="M24.25 42.689c0 6.725-3.3 15.028-15.213 15.028S-9.167 47.524-8.876 44.213c.458-5.21 8.74-15.314 20.651-15.582 7.839-.177 12.475 7.333 12.475 14.058" style="paint-order:stroke markers fill" transform="rotate(-32.061 -4.969 2.845)scale(1.0939)"/><path fill="url(#n)" stroke="url(#h)" d="M24.25 42.689c.218 7.37-3.886 14.125-9.355 15.7-.535.154-1.918-.694-1.527-1.196.426-.546 1.585-1.176 1.902-2.32.6-2.157.714-3.16.737-5.76.02-2.231.039-5.783-.113-7.6-.234-2.804-.93-6.976-2.157-10.84-.38-1.196-1.51-1.438-1.903-2.147-.306-.551.194-1.057.816-.93 7.685 1.558 11.401 8.371 11.6 15.093z" style="paint-order:stroke markers fill" transform="rotate(-32.061 -4.969 2.845)scale(1.0939)"/><path fill="#5d3417" d="M45.438 22.822c.187 3.307-1.272 8.01-4.418 8.46.157.255.359.575.498.802 1.36 2.216 1.796 3.126 2.434 5.273.338 1.137-.31 2.286-.381 2.975-.065.633 1.558.62 1.93.205 3.686-4.112 3.682-11.67-.063-17.715" opacity=".75" style="paint-order:stroke markers fill" transform="translate(-4.328 -1.065)scale(1.0939)"/></svg>