<svg width="64" height="64" version="1.1" xmlns="http://www.w3.org/2000/svg">
 <defs>
  <linearGradient id="c" x1="37.386" x2="37.386" y1="23.906" y2="51.032" gradientTransform="translate(-.44 -.16) scale(1.2719)" gradientUnits="userSpaceOnUse">
   <stop stop-color="#36b512" offset="0"/>
   <stop stop-color="#93e62f" offset="1"/>
  </linearGradient>
  <linearGradient id="b" x1="25.2" x2="25.2" y1="-1003.2" y2="-1039.2" gradientTransform="matrix(1.25 0 0 1.25 .61 1250.7)" gradientUnits="userSpaceOnUse">
   <stop stop-color="#101010" offset="0"/>
   <stop stop-color="#242424" offset="1"/>
  </linearGradient>
  <filter id="a" x="-.036" y="-.036" width="1.072" height="1.072" color-interpolation-filters="sRGB">
   <feGaussianBlur stdDeviation=".42"/>
  </filter>
  <filter id="filter26" x="-.013853" y="-.013853" width="1.0277" height="1.0277" color-interpolation-filters="sRGB">
   <feGaussianBlur stdDeviation="0.29776566"/>
  </filter>
  <filter id="filter25" x="-.029663" y="-.029663" width="1.0593" height="1.0593" color-interpolation-filters="sRGB">
   <feGaussianBlur stdDeviation="0.29776566"/>
  </filter>
 </defs>
 <circle transform="translate(-826.36 -1107.5) scale(2.1429)" cx="400.57" cy="531.8" r="14" filter="url(#a)" opacity=".25"/>
 <g transform="translate(1.39 -2.746)">
  <rect transform="scale(1 -1)" x=".61" y="-64.746" width="60" height="60" ry="30" fill="url(#b)"/>
  <path d="M60.276 30.263c-15.426.4-29.435 8.25-29.435 8.25s.582 7.364 4.371 15.732H7.805c5.494 6.425 13.65 10.5 22.805 10.5 9.156 0 17.311-4.075 22.805-10.5h-.02c.38-.446.752-.9 1.107-1.368-1-3.157-1.046-5.78-1.046-5.78s2.318-1.592 5.394-2.268a29.769 29.769 0 0 0 1.248-4.556c-8.079.46-13.676 4.043-13.676 4.043s.029 4.71 2.24 9.929h-6.01c-2.638-6.569-2.907-12.354-2.907-12.354s8.224-7.07 20.862-7.274a30.49 30.49 0 0 0-.331-4.354z" fill="url(#c)"/>
 </g>
 <path d="m10.787 10.787c-11.752 11.752-11.752 30.674 0 42.426 0.11855 0.11855 0.24184 0.22911 0.36184 0.34527-11.399-11.775-11.288-30.431 0.34527-42.065 11.634-11.634 30.289-11.744 42.065-0.34527-0.11616-0.12-0.22671-0.24329-0.34527-0.36184-11.752-11.752-30.674-11.752-42.426 0z" fill="#ffffff" filter="url(#filter26)" opacity=".2"/>
 <path d="m37.435 61.526c5.7718-1.0635 11.297-3.831 15.779-8.3126s7.2491-10.007 8.3126-15.779c-1.5917 5.4332-4.6056 10.657-9.0198 15.072s-9.6384 7.428-15.072 9.0198z" fill="#ffffff" filter="url(#filter25)" opacity=".5"/>
</svg>
