<svg xmlns="http://www.w3.org/2000/svg" width="64" height="64"><defs><filter id="a" width="1.072" height="1.072" x="-.036" y="-.036" color-interpolation-filters="sRGB"><feGaussianBlur stdDeviation="14.344"/></filter><filter id="c" width="1.123" height="1.117" x="-.062" y="-.058" color-interpolation-filters="sRGB"><feGaussianBlur stdDeviation=".976"/></filter><linearGradient id="b" x1="32" x2="32" y1="2" y2="62" gradientUnits="userSpaceOnUse"><stop offset="0" stop-color="#1d2123"/><stop offset="1" stop-color="#33393e"/></linearGradient></defs><circle cx="512" cy="512" r="478.12" filter="url(#a)" opacity=".25" style="paint-order:stroke markers fill" transform="translate(-.125 -.125) scale(.06274)"/><circle cx="32" cy="32" r="30" fill="url(#b)" style="paint-order:stroke markers fill"/><path fill-rule="evenodd" d="M26.553 10.074c-3.935 2.076-7.228 5.96-7.322 10.581-.076 2.399.425 4.928 1.597 6.995 4.115.07 8.351 2.419 9.794 6.42 2.114 5.29-.374 12.313-5.936 14.262-2.852 1.027-6.024.57-8.781-.538 3.769 2.373 8.787 3.28 12.837 1.043C30.862 47.713 32.729 46.014 34 44c-2-3.607-2.08-8.446.661-11.703 3.514-4.48 10.835-5.86 15.308-2.02 2.317 1.954 3.504 4.93 3.924 7.87.169-4.447-1.547-9.242-5.5-11.633-2.032-1.296-4.432-2.006-6.814-2.17-2.125 3.536-6.275 6.027-10.467 5.285-5.633-.796-10.495-6.437-9.407-12.228.532-2.985 2.519-5.5 4.852-7.33z" filter="url(#c)" opacity=".5"/><path fill="#f9f9f9" fill-rule="evenodd" d="M26.553 10.074c-3.935 2.076-7.228 5.96-7.322 10.581-.076 2.399.425 4.928 1.597 6.995 4.115.07 8.351 2.419 9.794 6.42 2.114 5.29-.374 12.313-5.936 14.262-2.852 1.027-6.024.57-8.781-.538 3.769 2.373 8.787 3.28 12.837 1.043C30.862 47.713 32.729 46.014 34 44c-2-3.607-2.08-8.446.661-11.703 3.514-4.48 10.835-5.86 15.308-2.02 2.317 1.954 3.504 4.93 3.924 7.87.169-4.447-1.547-9.242-5.5-11.633-2.032-1.296-4.432-2.006-6.814-2.17-2.125 3.536-6.275 6.027-10.467 5.285-5.633-.796-10.495-6.437-9.407-12.228.532-2.985 2.519-5.5 4.852-7.33z"/></svg>