<svg xmlns="http://www.w3.org/2000/svg" width="64" height="64" enable-background="new 0 0 1024 1024" image-rendering="optimizeSpeed"><defs><linearGradient id="b" x1="-506.45" x2="-506.45" y1="-19.101" y2="1013.6" gradientTransform="translate(61.791 3.124) scale(.05882)" gradientUnits="userSpaceOnUse"><stop offset="0" stop-color="#f6f6f6"/><stop offset="1" stop-color="#d3d3d3"/></linearGradient><linearGradient id="d" x1="32.113" x2="32.495" y1="20.763" y2="53.185" gradientTransform="translate(-5.813 -6.252) scale(1.1667)" gradientUnits="userSpaceOnUse"><stop offset="0" stop-color="#2c2c2c"/><stop offset="1" stop-color="#595959"/></linearGradient><filter id="a" width="1.072" height="1.072" x="-.036" y="-.036" color-interpolation-filters="sRGB"><feGaussianBlur stdDeviation=".9"/></filter><filter id="c" width="1.12" height="1.12" x="-.06" y="-.06" color-interpolation-filters="sRGB"><feGaussianBlur stdDeviation=".7"/></filter></defs><circle cx="32" cy="32" r="30" fill-rule="evenodd" filter="url(#a)" opacity=".25" style="paint-order:fill markers stroke"/><circle cx="32" cy="32" r="30" fill="url(#b)" fill-rule="evenodd" style="paint-order:fill markers stroke"/><path d="m40.384 34.728-2.788.02-.04-5.576 2.788-.02a5.576 5.576 0 1 0-5.616-5.535l.02 2.788-5.576.04-.02-2.788a5.576 5.576 0 1 0-5.536 5.616l2.788-.02.04 5.576-2.788.02a5.576 5.576 0 1 0 5.616 5.535l-.02-2.788 5.576-.04.02 2.781v.007a5.576 5.576 0 1 0 5.536-5.616zm-.1-13.94a2.788 2.788 0 0 1 .04 5.576l-2.788.02-.02-2.788a2.788 2.788 0 0 1 2.767-2.808zm-19.496 2.929a2.788 2.788 0 0 1 5.576-.04l.02 2.787-2.788.02a2.788 2.788 0 0 1-2.808-2.767zm2.93 19.495a2.788 2.788 0 0 1-.041-5.576l2.788-.02.02 2.788a2.788 2.788 0 0 1-2.768 2.808zm5.515-8.404-.04-5.576 5.575-.04.04 5.576zm11.212 8.283a2.788 2.788 0 0 1-2.808-2.768l-.02-2.788 2.787-.02a2.788 2.788 0 0 1 .04 5.576z" filter="url(#c)" opacity=".15"/><path fill="url(#d)" d="m40.384 34.728-2.788.02-.04-5.576 2.788-.02a5.576 5.576 0 1 0-5.616-5.535l.02 2.788-5.576.04-.02-2.788a5.576 5.576 0 1 0-5.536 5.616l2.788-.02.04 5.576-2.788.02a5.576 5.576 0 1 0 5.616 5.535l-.02-2.788 5.576-.04.02 2.781v.007a5.576 5.576 0 1 0 5.536-5.616zm-.1-13.94a2.788 2.788 0 0 1 .04 5.576l-2.788.02-.02-2.788a2.788 2.788 0 0 1 2.767-2.808zm-19.496 2.929a2.788 2.788 0 0 1 5.576-.04l.02 2.787-2.788.02a2.788 2.788 0 0 1-2.808-2.767zm2.93 19.495a2.788 2.788 0 0 1-.041-5.576l2.788-.02.02 2.788a2.788 2.788 0 0 1-2.768 2.808zm5.515-8.404-.04-5.576 5.575-.04.04 5.576zm11.212 8.283a2.788 2.788 0 0 1-2.808-2.768l-.02-2.788 2.787-.02a2.788 2.788 0 0 1 .04 5.576z"/></svg>