<svg xmlns="http://www.w3.org/2000/svg" width="64" height="64" version="1"><defs><filter id="c" width="1.258" height="1.341" x="-.129" y="-.171" color-interpolation-filters="sRGB"><feGaussianBlur stdDeviation="2.419"/></filter><filter id="a" width="1.078" height="1.078" x="-.039" y="-.039" color-interpolation-filters="sRGB"><feGaussianBlur stdDeviation=".972"/></filter><linearGradient id="b" x1="7.937" x2="7.937" y1="15.081" y2="1.852" gradientTransform="translate(-2.286 -2.252) scale(4.0494)" gradientUnits="userSpaceOnUse"><stop offset="0" stop-color="#b81e31"/><stop offset="1" stop-color="#ff5c5c"/></linearGradient></defs><rect width="60" height="60" x="2" y="2" filter="url(#a)" opacity=".35" rx="30" ry="30"/><rect width="60" height="60" x="2" y="2" fill="url(#b)" rx="30" ry="30"/><path d="M37.486 17.014c-2.172.105-4.008.715-5.814 1.932-.769.517-1.925 1.473-2.436 2.125-.257.328-.258.327-.652.226-.223-.056-1.045-.1-1.889-.098-1.324.003-1.595.03-2.348.233a10.025 10.025 0 0 0-7.44 9.17l-.05.986-.338.102c-1.21.365-2.722 1.318-3.785 2.388-1.268 1.277-2.123 2.789-2.606 4.602-.204.767-.228 1.018-.228 2.406 0 1.389.024 1.64.228 2.406 1.05 3.945 4.228 6.848 8.127 7.42v-.004c.287.043 6.3.08 13.367.088 13.768.011 13.568.017 15.182-.431 1.525-.424 3.611-1.67 4.805-2.871 1.25-1.258 2.454-3.342 2.889-4.993 1.065-4.046-.013-8.101-2.928-11.012-.515-.514-1.258-1.148-1.65-1.408l-.715-.473.045-.996a10.956 10.956 0 0 0-1.12-5.404c-1.165-2.4-2.856-4.1-5.24-5.273a10.704 10.704 0 0 0-5.404-1.121zm.143 2.996h.002c1.47-.07 2.617.168 3.935.817 1.857.913 2.957 2.017 3.867 3.892.637 1.311.883 2.502.819 3.961l-.043.996a3 3 0 0 0 1.34 2.633l.712.473c-.024-.017.824.665 1.19 1.03 2.19 2.188 2.959 5.038 2.146 8.126-.244.93-1.355 2.874-2.117 3.64-.693.699-2.737 1.89-3.478 2.096-.835.232-.551.231-2.317.281-1.765.05-5.176.047-12.06.041a1755.38 1755.38 0 0 1-9.21-.03 457.072 457.072 0 0 1-2.904-.026c-.351-.005-.63-.01-.814-.014-.027 0-.06-.007-.096-.01-2.647-.427-4.827-2.384-5.574-5.193-.177-.666-.127-.283-.127-1.637s-.05-.97.127-1.637c.362-1.36.927-2.342 1.836-3.257.688-.694 2.031-1.481 2.521-1.63a3 3 0 0 0 .004-.001l.338-.102a3 3 0 0 0 2.127-2.713l.05-.982v-.002c.167-3.061 2.2-5.62 5.221-6.432a3 3 0 0 0 .002 0c.643-.173.29-.128 1.574-.13a3 3 0 0 0 .002 0c.37-.002.743.009 1.016.023.103.005.195.021.27.033.279.106.855.306 1.96-.08 1.314-.458 1.519-1.09 1.647-1.256l.002-.002c.035-.044 1.245-1.144 1.75-1.484 1.41-.95 2.589-1.342 4.281-1.424zM35.076 28v3H24v3h11.076v3L42 32.717zm-4.152 9L24 41.717 30.924 46v-3H42v-3H30.924z" filter="url(#c)" opacity=".15"/><path fill="#fff" d="M37.486 14.014c-2.172.105-4.008.715-5.814 1.932-.769.517-1.925 1.473-2.436 2.125-.257.328-.258.327-.652.226-.223-.056-1.045-.1-1.889-.097-1.324.002-1.595.03-2.348.232a10.025 10.025 0 0 0-7.44 9.17l-.05.986-.338.102c-1.21.365-2.722 1.318-3.785 2.388-1.268 1.277-2.123 2.789-2.606 4.602-.204.767-.228 1.018-.228 2.406 0 1.389.024 1.64.228 2.406 1.05 3.945 4.228 6.848 8.127 7.42v-.004c.287.043 6.3.08 13.367.088 13.768.011 13.568.017 15.182-.431 1.525-.424 3.611-1.67 4.805-2.871 1.25-1.258 2.454-3.342 2.889-4.993 1.065-4.046-.013-8.101-2.928-11.012-.515-.514-1.258-1.148-1.65-1.408l-.715-.473.045-.996a10.956 10.956 0 0 0-1.12-5.404c-1.165-2.4-2.856-4.1-5.24-5.273a10.704 10.704 0 0 0-5.404-1.121zm.143 2.996h.002c1.47-.07 2.617.168 3.935.817 1.857.913 2.957 2.017 3.867 3.892.637 1.311.883 2.502.819 3.961l-.043.996a3 3 0 0 0 1.34 2.633l.712.473c-.024-.017.823.665 1.19 1.03 2.19 2.188 2.959 5.038 2.146 8.126-.245.93-1.355 2.874-2.117 3.64-.694.699-2.737 1.89-3.478 2.096-.835.232-.551.231-2.317.281-1.765.05-5.176.047-12.06.041a1755.38 1755.38 0 0 1-9.21-.03 457.059 457.059 0 0 1-2.904-.026c-.351-.005-.63-.01-.815-.014-.027 0-.06-.007-.095-.01-2.647-.427-4.827-2.384-5.574-5.193-.178-.666-.127-.283-.127-1.637s-.05-.97.127-1.637c.362-1.36.926-2.342 1.835-3.257.69-.694 2.032-1.481 2.522-1.63a3 3 0 0 0 .004-.001l.338-.102a3 3 0 0 0 2.127-2.713l.05-.982v-.002c.167-3.061 2.2-5.62 5.221-6.432a3 3 0 0 0 .002 0c.643-.173.29-.128 1.574-.13a3 3 0 0 0 .002 0c.37-.001.743.009 1.016.023.103.005.195.021.27.033.279.106.855.306 1.96-.08 1.314-.458 1.519-1.09 1.647-1.256l.002-.002c.035-.044 1.245-1.144 1.75-1.484 1.41-.95 2.589-1.342 4.281-1.424zM35.076 25v3H24v3h11.076v3L42 29.717 35.076 25zm-4.152 9L24 38.717 30.924 43v-3H42v-3H30.924v-3z"/><path fill="#fff" d="m18.628 45.1.033.005a2.813 2.834 0 0 0-.011 0c-.008 0-.014-.004-.022-.005z"/></svg>