<svg xmlns="http://www.w3.org/2000/svg" width="64" height="64" viewBox="0 0 16.933 16.933"><defs><filter id="a" width="1.072" height="1.072" x="-.036" y="-.036" color-interpolation-filters="sRGB"><feGaussianBlur stdDeviation=".238"/></filter><filter id="c" width="1.12" height="1.12" x="-.06" y="-.06" color-interpolation-filters="sRGB"><feGaussianBlur stdDeviation=".146"/></filter><filter id="d" width="1.12" height="1.12" x="-.06" y="-.06" color-interpolation-filters="sRGB"><feGaussianBlur stdDeviation=".198"/></filter><linearGradient id="b" x1="9.26" x2="9.26" y1="-.262" y2="15.612" gradientTransform="translate(-.794 .792)" gradientUnits="userSpaceOnUse"><stop offset="0" stop-color="#2e323e"/><stop offset="1" stop-color="#505664"/></linearGradient></defs><circle cx="8.466" cy="8.466" r="7.937" filter="url(#a)" opacity=".25" style="paint-order:stroke markers fill"/><circle cx="8.466" cy="8.466" r="7.937" fill="url(#b)" style="paint-order:stroke markers fill"/><g stroke-width=".265" filter="url(#c)" opacity=".15" transform="translate(.146 .158)"><path d="M8.32 5.398a2.91 2.91 0 0 0-2.91 2.91 2.91 2.91 0 0 0 2.91 2.91 2.91 2.91 0 0 0 2.91-2.91 2.91 2.91 0 0 0-2.91-2.91m.039.251a2.646 2.646 0 0 1 2.646 2.646 2.646 2.646 0 0 1-2.646 2.646 2.646 2.646 0 0 1-2.646-2.646A2.646 2.646 0 0 1 8.359 5.65"/><path d="M9.908 8.166 7.262 10.16V6.456z"/></g><g stroke-width="1.2" filter="url(#d)" opacity=".35" transform="matrix(1.2 0 0 1.2 -1.693 -1.607)"><path d="M8.466 4.426a3.969 3.969 0 0 0-3.968 3.969 3.969 3.969 0 0 0 2.927 3.825c1.2-.781 2.003-1.401 2.512-1.9a2.425 2.425 0 0 1-1.47.5A2.425 2.425 0 0 1 6.04 8.395a2.425 2.425 0 0 1 1.556-2.262c.276-.42.804-.947 1.683-1.621a3.969 3.969 0 0 0-.814-.086zM7.426 6.46a2.205 2.205 0 0 0-1.132 1.923 2.205 2.205 0 0 0 2.204 2.205 2.205 2.205 0 0 0 2.14-1.68c-.115-.314-.492-.52-.949-.697l.1.064-2.204 1.662V7.3c-.214-.212-.3-.478-.16-.839z"/><path d="M9.28 4.512c-.88.674-1.407 1.2-1.683 1.621a2.425 2.425 0 0 1 .87-.164 2.425 2.425 0 0 1 2.425 2.426 2.425 2.425 0 0 1-.955 1.924c-.51.5-1.313 1.12-2.513 1.9a3.969 3.969 0 0 0 1.042.145 3.969 3.969 0 0 0 3.97-3.969A3.969 3.969 0 0 0 9.28 4.512zM8.498 6.18a2.205 2.205 0 0 0-1.073.282c-.14.361-.055.628.16.84v-.45l2.104 1.36c.457.177.834.385.948.698a2.205 2.205 0 0 0 .066-.525A2.205 2.205 0 0 0 8.498 6.18z"/></g><g stroke-width="1.2"><path fill="#4484c2" d="M8.466 3.704a4.762 4.762 0 0 0-4.762 4.763 4.762 4.762 0 0 0 3.512 4.59c1.44-.937 2.404-1.68 3.015-2.28a2.91 2.91 0 0 1-1.765.6 2.91 2.91 0 0 1-2.91-2.91 2.91 2.91 0 0 1 1.868-2.714c.33-.505.963-1.137 2.019-1.945a4.762 4.762 0 0 0-.977-.104zm-1.25 2.443A2.646 2.646 0 0 0 5.86 8.454 2.646 2.646 0 0 0 8.505 11.1a2.646 2.646 0 0 0 2.566-2.017c-.137-.375-.59-.624-1.138-.836l.12.078-2.645 1.994V7.154c-.256-.255-.358-.575-.191-1.008z"/><path fill="#dedede" d="M9.443 3.808c-1.056.808-1.69 1.44-2.02 1.945a2.91 2.91 0 0 1 1.043-.197 2.91 2.91 0 0 1 2.91 2.91 2.91 2.91 0 0 1-1.145 2.31c-.611.6-1.576 1.344-3.015 2.28a4.762 4.762 0 0 0 1.25.173 4.762 4.762 0 0 0 4.763-4.762 4.762 4.762 0 0 0-3.786-4.66zm-.939 2a2.646 2.646 0 0 0-1.287.339c-.168.433-.066.753.19 1.007v-.54l2.526 1.633c.549.212 1 .46 1.138.836a2.646 2.646 0 0 0 .08-.629 2.646 2.646 0 0 0-2.647-2.646z"/></g></svg>