<svg xmlns="http://www.w3.org/2000/svg" xml:space="preserve" width="64" height="64"><defs><linearGradient id="a" x1="7.937" x2="7.937" y1="15.081" y2="1.852" gradientTransform="scale(3.7796)" gradientUnits="userSpaceOnUse"><stop offset="0" stop-color="#f1efeb"/><stop offset="1" stop-color="#fdfcfc"/></linearGradient></defs><rect width="60" height="60" x="2" y="2" fill="url(#a)" rx="30" ry="30"/><path d="M33.188 256.375c-6.886 0-12.532 5.677-12.532 12.563v19.812c0 .85.086 1.695.25 2.5H28.5a5.5 5.5 0 0 1-.594-2.5v-19.812c0-2.992 2.29-5.313 5.282-5.313H69.03c2.992 0 5.281 2.32 5.281 5.313v19.812c0 2.992-2.29 5.313-5.28 5.313H40.124v1.093c0 2.682-1.446 4.99-3.594 6.156h32.5c6.886 0 12.531-5.676 12.531-12.562v-19.812c0-6.886-5.645-12.563-12.53-12.563z" style="color:#000;font-style:normal;font-variant:normal;font-weight:400;font-stretch:normal;font-size:medium;line-height:normal;font-family:Sans;-inkscape-font-specification:Sans;text-indent:0;text-align:start;text-decoration:none;text-decoration-line:none;letter-spacing:normal;word-spacing:normal;text-transform:none;writing-mode:lr-tb;direction:ltr;baseline-shift:baseline;text-anchor:start;display:inline;overflow:visible;visibility:visible;fill:#900;fill-opacity:1;stroke:none;stroke-width:7.25541;marker:none" transform="matrix(.75798 0 0 .73645 -6.74 -173.385)"/><path d="M56.094 264.531c-1.533.047-2.616 1.136-3.157 2.031s-.852 1.831-1.124 2.875c-.546 2.089-.896 4.631-1.282 7.25-.386 2.62-.793 5.306-1.343 7.47a16.3 16.3 0 0 1-.907 2.656c-.572-1.42-1.23-3.518-1.781-5.875-.615-2.631-1.145-5.31-1.781-7.344-.319-1.017-.539-1.835-1.313-2.781-.387-.474-1.159-1.179-2.343-1.188-1.185-.009-1.998.725-2.407 1.25-1.225 1.574-1.547 3.315-1.968 5.375s-.774 4.39-1.188 6.688-.905 4.542-1.531 6.312-1.419 2.984-2 3.406c-.55.4-2.345.964-4.594 1.188s-4.944.22-7.5.093c-5.111-.254-9.625-.968-9.625-.968l-.75 4.844s4.713.762 10.125 1.03c2.706.135 5.612.139 8.25-.124s5.01-.672 6.969-2.094c1.927-1.4 2.961-3.49 3.75-5.719.788-2.228 1.318-4.697 1.75-7.094.286-1.589.504-2.963.75-4.375.22.956.419 1.61.656 2.625.632 2.704 1.265 5.387 2.25 7.5.492 1.057 1 2.07 2.25 2.844.625.387 1.547.632 2.406.5.86-.131 1.539-.556 2.063-1.031 1.849-1.676 2.577-3.976 3.218-6.5.642-2.524 1.05-5.338 1.438-7.969.34-2.312.671-4.312 1.031-5.906.314 1.034.632 2.042.907 3.5.763 4.06 1.287 8.941 2.374 12.344 1.276 3.99 4.708 5.716 7.25 5.781 2.543.065 4.532-.937 4.532-.937l-2.094-4.438s-1.164.498-2.312.469c-1.149-.03-1.932-.01-2.688-2.375-.779-2.437-1.437-7.432-2.25-11.75-.406-2.16-.83-4.145-1.531-5.844-.351-.85-.764-1.653-1.438-2.375s-1.82-1.382-3.062-1.344" style="color:#000;font-style:normal;font-variant:normal;font-weight:400;font-stretch:normal;font-size:medium;line-height:normal;font-family:Sans;-inkscape-font-specification:Sans;text-indent:0;text-align:start;text-decoration:none;text-decoration-line:none;letter-spacing:normal;word-spacing:normal;text-transform:none;writing-mode:lr-tb;direction:ltr;baseline-shift:baseline;text-anchor:start;display:inline;overflow:visible;visibility:visible;fill:#333;fill-opacity:1;stroke:none;stroke-width:4.9;marker:none" transform="matrix(.75798 0 0 .73645 -6.74 -173.385)"/></svg>