<svg width="64" height="64" version="1.1" viewBox="0 0 64 64" xmlns="http://www.w3.org/2000/svg">
 <defs>
  <linearGradient id="c" x1="72.839" x2="98.156" y1="52.81" y2="24.853" gradientTransform="matrix(.30931 -.30853 .28011 .31083 -5.2887 49.803)" gradientUnits="userSpaceOnUse">
   <stop stop-color="#3f3f3f" offset="0"/>
   <stop stop-color="#232629" offset="1"/>
  </linearGradient>
  <filter id="f" x="-.029686" y="-.029686" width="1.0594" height="1.0594" color-interpolation-filters="sRGB">
   <feGaussianBlur stdDeviation=".298"/>
  </filter>
  <filter id="e" x="-.013864" y="-.013864" width="1.0277" height="1.0277" color-interpolation-filters="sRGB">
   <feGaussianBlur stdDeviation=".298"/>
  </filter>
  <linearGradient id="b-0" x1="32" x2="32" y1="2" y2="934.91" gradientTransform="matrix(.06356 0 0 .06356 61.458 1.458)" gradientUnits="userSpaceOnUse">
   <stop stop-color="#15c4fc" offset="0"/>
   <stop stop-color="#3391c7" offset="1"/>
  </linearGradient>
  <filter id="a-5" x="-.036" y="-.036" width="1.072" height="1.072" color-interpolation-filters="sRGB">
   <feGaussianBlur stdDeviation="14.115"/>
  </filter>
  <filter id="filter15" x="-.046667" y="-.049412" width="1.0933" height="1.0988" color-interpolation-filters="sRGB">
   <feGaussianBlur stdDeviation="0.7"/>
  </filter>
  <filter id="filter16" x="-.031287" y="-.05134" width="1.0626" height="1.1027" color-interpolation-filters="sRGB">
   <feGaussianBlur stdDeviation="0.39784074"/>
  </filter>
 </defs>
 <circle transform="matrix(.06376 0 0 .06376 -.614 -2.48)" cx="511.5" cy="540.86" r="470.5" filter="url(#a-5)" opacity=".25"/>
 <circle cx="32" cy="32" r="30" fill="url(#b-0)"/>
 <path d="m10.787 10.787a29.934 29.934 0 0 0 0 42.426c0.119 0.119 0.242 0.23 0.362 0.345-11.4-11.775-11.288-30.43 0.345-42.065s30.29-11.743 42.066-0.345c-0.116-0.12-0.227-0.243-0.345-0.362a29.934 29.934 0 0 0-42.426 0z" fill="#ffffff" filter="url(#e)" opacity=".45"/>
 <path d="m37.435 61.526c5.772-1.063 11.297-3.831 15.779-8.313s7.25-10.007 8.313-15.779c-1.592 5.434-4.606 10.657-9.02 15.072s-9.639 7.428-15.072 9.02" fill="#ffffff" filter="url(#f)" opacity=".35"/>
 <path d="m17 15.991c-1.662 0-3 1.338-3 3v4h2v-4c0-0.554 0.446-1 1-1h4v-2zm26 0v2h4c0.554 0 1 0.446 1 1v4h2v-4c0-1.662-1.338-3-3-3zm-29 27v4c0 1.662 1.338 3 3 3h4v-2h-4c-0.554 0-1-0.446-1-1v-4zm34 0v4c0 0.554-0.446 1-1 1h-4v2h4c1.662 0 3-1.338 3-3v-4z" filter="url(#filter15)" opacity=".2"/>
 <path d="m17 14.991c-1.662 0-3 1.338-3 3v4h2v-4c0-0.554 0.446-1 1-1h4v-2zm26 0v2h4c0.554 0 1 0.446 1 1v4h2v-4c0-1.662-1.338-3-3-3zm-29 27v4c0 1.662 1.338 3 3 3h4v-2h-4c-0.554 0-1-0.446-1-1v-4zm34 0v4c0 0.554-0.446 1-1 1h-4v2h4c1.662 0 3-1.338 3-3v-4z" fill="#da4453"/>
 <path d="m48.054 37.766c-0.20596-1.2276-0.21854-2.5898-1.0186-4.4565-0.80021-1.8668-1.7423-3.2701-2.9544-4.4592-1.2123-1.1892-2.5956-2.0936-4.3348-2.72-1.7393-0.6265-3.7847-0.94376-4.9979-1.2823-1.213-0.33849-1.5871-0.69685-1.8061-1.1335-0.21901-0.43659-0.28276-0.95239-0.21001-1.4262 0.0726-0.47379 0.28246-0.91039 0.44679-1.212 0.16448-0.30166 0.28584-0.47327 0.18451-0.58525-0.10133-0.11198-0.42489-0.16606-0.93461 0.1284-0.5098 0.29446-1.2044 0.93709-1.6189 1.4634-0.41447 0.52637-0.54625 0.93334-0.77328 1.3489-0.22688 0.41552-0.54647 0.83426-0.92066 1.17-0.37419 0.33571-0.79863 0.58375-1.7386 1.0686-0.94001 0.4849-2.3911 1.2041-3.8443 2.0753-1.453 0.87146-2.9067 1.8943-4.2131 2.9838-1.3065 1.0895-2.4651 2.2453-3.272 3.2512-0.80681 1.0058-1.2612 1.8609-1.5364 2.638-0.27526 0.77718-0.37082 1.4753-0.27849 1.9112 0.0924 0.43584 0.37262 0.60827 2.1644 0.23348 1.7917-0.37479 5.098-1.298 7.1279-1.8037 2.0302-0.5059 0.79308-2.5968 1.3745-2.793 0.58127-0.19613 2.9858 1.5013 3.6498 1.2406 0.66385-0.26056 1.5928-0.48167 2.531-0.70203 0.93821-0.22028 1.8923-0.44132 2.4023-0.63715 0.51017-0.19576 0.58112-0.36729 1.7563-0.40839 1.1753-0.04118 3.4549 0.0468 5.0261 0.26394 1.5712 0.21706 2.4332 0.56327 3.0294 0.96109 0.59612 0.39782 0.92636 0.84746 1.2431 1.1851 0.31681 0.33774 0.61968 0.5629 1.0703 0.99349 0.45062 0.43052 1.0476 1.0653 1.5043 2.03 0.45669 0.96461 0.77201 2.2576 0.96769 2.5022s-0.36011-1.5061-0.20621-1.9808c0.15376-0.47477 0.38612-0.62072 0.18001-1.8483z" fill="#eff0f1" stroke-width=".75003"/>
 <path d="m49.079 39.389c0.29143-0.40313 0.69576-0.99146 0.63348-1.2007-0.062327-0.20925-0.59034-0.039624-1.0881-0.86404-0.49782-0.82443-0.96349-2.6395-1.6723-4.2572-0.70873-1.6178-1.6568-3.0301-2.8691-4.2193-1.2123-1.1892-2.5955-2.0936-4.3347-2.72-1.7392-0.62649-3.7848-0.94376-4.9978-1.2823-1.213-0.33847-1.5871-0.69683-1.8061-1.1335-0.21902-0.43662-0.28272-0.95239-0.21006-1.4262 0.07266-0.47383 0.28248-0.91046 0.44686-1.2121 0.16444-0.30166 0.28584-0.47322 0.18453-0.58524-0.10131-0.11202-0.42492-0.16603-0.93469 0.12844-0.5098 0.29443-1.2044 0.93709-1.6189 1.4634-0.4145 0.52636-0.54626 0.93334-0.77328 1.3489-0.22696 0.41543-0.54651 0.83426-0.92074 1.17-0.3742 0.33572-0.79863 0.58378-1.7386 1.0686-0.94001 0.48486-2.3912 1.2041-3.8443 2.0754-1.453 0.87138-2.9067 1.8942-4.2131 2.9837s-2.4652 2.2453-3.2719 3.2511c-0.80681 1.0057-1.2612 1.8609-1.5364 2.638-0.27517 0.77718-0.37079 1.4754-0.27842 1.9112 0.09234 0.43585 0.37261 0.60822 0.91271 0.34621 0.54007-0.26201 1.3378-0.95719 2.0426-1.5346 0.70483-0.5774 1.3165-1.0368 1.9982-1.39 0.68159-0.35329 1.4341-0.60104 2.0933-0.74349 0.65918-0.14248 1.2258-0.17983 1.5339-0.06028 0.30802 0.11962 0.35768 0.39677 0.38258 0.5356 0.0249 0.13889 0.0025 0.61351 0.08166 0.73613 0.07911 0.12259 0.23673 0.36672 0.82361 0.35996 0.5869-0.0067 8.8714-2.5155 9.3814-2.7113 0.5101-0.19581 0.58129-0.36781 0.79421-0.90581 0.21296-0.53805 0.57129-1.4511 1.0041-2.1209 0.43282-0.66982 0.94481-1.1048 1.4053-1.3132 0.46049-0.2083 0.87551-0.19343 1.3915-0.10572 0.51598 0.08765 1.1373 0.24872 1.6147 0.48768 0.4774 0.23899 0.81371 0.55673 0.99432 0.85413 0.18062 0.29734 0.20517 0.57416 0.03533 0.84431-0.16978 0.27018-0.53074 0.53047-0.81843 0.61582-0.28774 0.08539-0.49566-0.0073-0.83921-0.04174-0.3436-0.03448-0.82083-0.01001-1.3522 0.23045-0.53136 0.24039-1.2221 0.85016-1.1019 1.0655 4.9334-0.06158 9.3266 2.793 10.502 5.4146 0.37738 0.84198 0.77201 2.2576 0.96769 2.5022 0.19565 0.24456 0.27117-0.55929 0.39856-1.0704 0.12733-0.51113 0.3067-0.73006 0.59813-1.1332z" fill="url(#c)" stroke-width=".42728"/>
 <path d="m23.273 28.55 1.307 2.7005 2.7005-1.307-1.3071-2.7005zm4.0507-1.9606 1.307 2.7006 2.7005-1.3071-1.307-2.7004zm-3.0489 2.309 1.3503-0.6535 0.6535 1.3502-1.3502 0.6535zm4.0508-1.9606 1.3502-0.6535 0.6535 1.3503-1.3502 0.6535zm-3.0921 5.6629 1.307 2.7005 2.7005-1.3071-1.307-2.7004zm4.0507-1.9606 0.6535 1.3503 1.3502-0.6535-0.6535-1.3502zm-3.0489 2.309 1.3503-0.6535 0.6535 1.3502-1.3502 0.6535z" color="#232629" fill="#eff0f1" stroke-width="1.5001"/>
 <path d="m33.051 20.401c-0.15729 0.0093-0.36426 0.06957-0.61914 0.2168-0.2549 0.14722-0.55652 0.38128-0.84573 0.64453-0.14459 0.13163-0.2866 0.27129-0.41797 0.41015-0.13137 0.13886-0.25185 0.27662-0.35547 0.4082-0.4145 0.52636-0.54644 0.93409-0.77343 1.3496-0.11348 0.20771-0.25122 0.41663-0.40625 0.61524-0.0778 0.09966-0.15962 0.19577-0.24609 0.28906-0.08584 0.0926-0.17632 0.18199-0.26953 0.26562-0.3742 0.33572-0.79833 0.58353-1.7383 1.0683-0.47 0.24242-1.0666 0.54325-1.7285 0.89261-0.6618 0.34952-1.3887 0.74794-2.1152 1.1836-1.453 0.87138-2.9064 1.8929-4.2128 2.9824-0.65286 0.54444-1.2687 1.1076-1.8223 1.6582-0.27686 0.27554-0.5388 0.54755-0.78123 0.81446-0.24249 0.26682-0.46628 0.52786-0.66797 0.77928-0.4034 0.50286-0.71972 0.96746-0.96874 1.4043-0.24884 0.43665-0.43074 0.84581-0.56836 1.2344-0.13759 0.38858-0.23059 0.75588-0.27735 1.082-8.5e-5 5.88e-4 8.4e-5 0.0013 0 2e-3 -0.04646 0.32529-0.04804 0.60872-2e-3 0.82616 0.02924 0.138 0.08119 0.24642 0.15039 0.32617 0.01252 0.01429 0.02321 0.03078 0.03711 0.04297 0.06101 0.05349 0.13561 0.08778 0.22461 0.09765 0.08899 0.0099 0.19141-0.0039 0.31054-0.04297 0.05953-0.01951 0.1239-0.04538 0.19141-0.07812 0.0077-0.0037 0.01757-0.0117 0.02539-0.01562 0.03362-0.37072 0.12527-0.80141 0.29101-1.2695 0.27522-0.77711 0.72835-1.633 1.5352-2.6387 0.80673-1.0058 1.965-2.1605 3.2715-3.25 1.3065-1.0895 2.7618-2.113 4.2149-2.9844 1.4531-0.87131 2.9037-1.5913 3.8438-2.0762 0.93994-0.48483 1.3641-0.73264 1.7383-1.0683 0.3742-0.33578 0.69296-0.75446 0.91991-1.1699 0.22699-0.41552 0.35894-0.82128 0.77343-1.3477 0.26873-0.34126 0.65371-0.72467 1.0312-1.0371 5.4e-4 -0.0021 0.0014-0.0038 0.0019-0.0059 0.04459-0.16897 0.103-0.32237 0.16601-0.4707 0.07319-0.17429 0.14933-0.33387 0.2207-0.46484 0.12405-0.22757 0.22277-0.38045 0.2207-0.49023-3.84e-4 -0.03662-0.01178-0.0677-0.03711-0.0957-0.05065-0.05601-0.15717-0.0972-0.31445-0.08789zm-0.30664 1.8398c-0.12803 0.33891-0.08399 1.067 0.13086 1.9141 0.02277 0.05751 0.04065 0.11664 0.06836 0.17188 0.21899 0.43665 0.59358 0.79436 1.8067 1.1328 1.2131 0.3385 4.2099 1.0141 5.9492 1.6406 1.5915 0.57317 2.8824 1.3819 4.0195 2.4257-0.20415-0.23231-0.41503-0.46028-0.63672-0.67773-1.2123-1.1892-2.5947-2.0924-4.334-2.7187-0.43482-0.15662-0.88841-0.29476-1.3438-0.41797-1.3659-0.3694-2.7445-0.61136-3.6543-0.86524-1.213-0.33847-1.5877-0.69616-1.8067-1.1328-0.21902-0.43662-0.28164-0.95201-0.20898-1.4258 0.0025-0.01594 7e-3 -0.03103 0.0098-0.04688z" fill="#ffffff" filter="url(#filter16)" opacity=".1093" stroke-width=".42728"/>
</svg>
