<svg xmlns="http://www.w3.org/2000/svg" width="64" height="64" viewBox="0 0 16.933 16.933"><defs><linearGradient id="b" x1="8.466" x2="8.466" y1="284.41" y2="295.41" gradientTransform="translate(-4.921 -1226.3)scale(4.3611)" gradientUnits="userSpaceOnUse"><stop offset="0" stop-color="#35cafc"/><stop offset=".5" stop-color="#50d4ff"/><stop offset="1" stop-color="#4dcbf6"/></linearGradient><linearGradient id="a" x1="8.467" x2="8.467" y1="282.18" y2="294.88" gradientTransform="translate(.21 7.221)scale(.97498)" gradientUnits="userSpaceOnUse"><stop offset="0" stop-color="#78d9fd"/><stop offset="1" stop-color="#7bdeff"/></linearGradient><linearGradient id="c" x1="8.466" x2="8.466" y1="294.95" y2="295.41" gradientTransform="translate(-4.921 -1226.3)scale(4.3611)" gradientUnits="userSpaceOnUse"><stop offset="0" stop-color="#3bc1f1"/><stop offset="1" stop-color="#0e95c5"/></linearGradient></defs><g style="paint-order:stroke markers fill" transform="translate(-1.302 -324.46)scale(1.1539)"><circle cx="8.466" cy="288.53" r="6.191" fill="url(#a)"/><g stroke-width="3.276"><path fill="url(#b)" d="M32 14c-1.278 0-1.661.738-2.307 1.846L28.35 18H9c-1.291 0-1.959-.036-2.489.05-1.059.174-1.507.958-1.957 1.95l-.242.533A30 30 0 0 0 2 31.996a30 30 0 0 0 17.086 27.047q.692.342 1.4.647h.045A30 30 0 0 0 32.001 62a30.005 30.005 0 0 0 28.822-21.708l.027-.079v-.005q.31-1.127.531-2.276.081-.349.153-.7.164-.993.261-1.995.067-.495.118-.994.085-1.122.087-2.246a30 30 0 0 0-5.636-17.447 1.7 1.7 0 0 0-.485-.383 1.6 1.6 0 0 0-.726-.166z" transform="translate(1.128 281.2)scale(.2293)"/><path fill="url(#c)" d="M21.332 60A30 30 0 0 0 32 62a29.9 29.9 0 0 0 10.736-2z" transform="translate(1.128 281.2)scale(.2293)"/><path fill="#3bc1f1" d="M4.35 294.04q.16.12.329.23h7.583q.164-.11.322-.23zm.702.46q.211.12.434.229h5.976q.22-.108.433-.23H5.05z"/></g></g><path d="M21 23.004c-1.108 0-2 .892-2 2v3.002h26v-3.002c0-1.108-.892-2-2-2zM22.002 25a1 1 0 0 1 1 1.002 1 1 0 0 1-1 1.002A1 1 0 0 1 21 26.002 1 1 0 0 1 22.002 25M19 29.002v5.002h26v-5.002zm3.002 2a1 1 0 0 1 1 1.002 1 1 0 0 1-1 1.002A1 1 0 0 1 21 32.004a1 1 0 0 1 1.002-1.002M19 35.004v5.002h26v-5.002zM22.002 37a1 1 0 0 1 1 1.002 1 1 0 0 1-1 1.002A1 1 0 0 1 21 38.002 1 1 0 0 1 22.002 37M19 41.002v5.002h26v-5.002zm3.002 2a1 1 0 0 1 1 1.002 1 1 0 0 1-1 1.002A1 1 0 0 1 21 44.004a1 1 0 0 1 1.002-1.002M19 47.006v4.002c0 1.108.892 2 2 2h22c1.108 0 2-.892 2-2v-4.002zM22.002 49a1 1 0 0 1 1 1.002 1 1 0 0 1-1 1.002A1 1 0 0 1 21 50.002 1 1 0 0 1 22.002 49" opacity=".1" style="paint-order:markers stroke fill" transform="scale(.26458)"/></svg>