<svg width="64" height="64" version="1.1" viewBox="0 0 64 64" xmlns="http://www.w3.org/2000/svg" xmlns:xlink="http://www.w3.org/1999/xlink">
 <defs>
  <linearGradient id="linearGradient999">
   <stop stop-color="#b3b3b3" offset="0"/>
   <stop stop-color="#ffffff" offset="1"/>
  </linearGradient>
  <linearGradient id="b-3" x1="520" x2="520.03" y1="44" y2="985.85" gradientTransform="matrix(.06356 0 0 .06356 -.54237 -.54237)" gradientUnits="userSpaceOnUse">
   <stop stop-color="#353535" offset="0"/>
   <stop stop-color="#6d6d6d" offset="1"/>
  </linearGradient>
  <filter id="g-6" x="-.036" y="-.036" width="1.072" height="1.072" color-interpolation-filters="sRGB">
   <feGaussianBlur stdDeviation="14.16"/>
  </filter>
  <linearGradient id="linearGradient970" x1="11" x2="27.8" y1="40.229" y2="40.229" gradientUnits="userSpaceOnUse" xlink:href="#linearGradient999"/>
  <linearGradient id="linearGradient972" x1="36.2" x2="53" y1="40.229" y2="40.229" gradientUnits="userSpaceOnUse" xlink:href="#linearGradient999"/>
  <linearGradient id="linearGradient974" x1="23.6" x2="40.4" y1="17.829" y2="17.829" gradientUnits="userSpaceOnUse" xlink:href="#linearGradient999"/>
 </defs>
 <path transform="matrix(.06356 0 0 .06356 -.54237 -.54237)" d="m969.7 392c-1.1-4.35-2.35-9-3.65-13.6-2.5-8.75-5.35-17.6-8.45-26.35-6.45-18.25-14.15-36.05-23.15-53.65-3.8-7.4-7.95-14.95-12.3-22.4h-0.025q-30.601-52.01-76.325-97.75c-92.15-92.15-203.45-138.25-333.8-138.25s-241.6 46.1-333.75 138.25-138.25 203.4-138.25 333.75 46.1 241.65 138.25 333.8c68.05 68.05 146.5 110.95 234.9 128.65 31.95 6.4 64.75 9.55 98.85 9.55 130.35 0 241.65-46.05 333.8-138.2 48.6-48.6 84.4-102.5 107.35-161.8 17-43.95 27-90.8 29.95-140.75 0.6-10.2 0.9-20.65 0.9-31.25 0-41.75-4.7-81.6-14.3-120z" filter="url(#g-6)" opacity=".25" stroke-width="15.672"/>
 <path d="m61.091 24.373c-0.06992-0.27648-0.14936-0.57204-0.23199-0.86441-0.1589-0.55615-0.34004-1.1186-0.53708-1.6748-0.40996-1.16-0.89937-2.2913-1.4714-3.41-0.24153-0.47034-0.5053-0.95022-0.78178-1.4237h-0.0016q-1.945-3.3057-4.8512-6.2129c-5.857-5.857-12.931-8.7871-21.216-8.7871s-15.356 2.9301-21.213 8.7871-8.7871 12.928-8.7871 21.213 2.9301 15.359 8.7871 21.216c4.3252 4.3252 9.3115 7.0519 14.93 8.1769 2.0307 0.40678 4.1155 0.60699 6.2829 0.60699 8.285 0 15.359-2.9269 21.216-8.7839 3.089-3.089 5.3644-6.5148 6.8231-10.284 1.0805-2.7934 1.7161-5.7712 1.9036-8.946 0.03814-0.64831 0.0572-1.3125 0.0572-1.9862 0-2.6536-0.29873-5.1865-0.9089-7.6271z" fill="url(#b-3)" stroke-width=".9961"/>
 <path d="m25.291 21.217c0.10298 4.4013-1.3226 8.2292-5.3255 11.096l5.9692 2.8647c-0.37129-4.8851 1.7237-8.407 5.3255-11.094z" fill="#000000" opacity=".35" stroke-width=".7"/>
 <path d="m38.532 21.217c-0.10299 4.4013 1.3212 8.2292 5.3255 11.096l-5.9692 2.8647c0.37129-4.8851-1.7237-8.407-5.3255-11.094z" fill="#000000" opacity=".35" stroke-width=".7"/>
 <path d="m37.422 36.996c-3.7726 1.9947-7.6818 2.3646-11.829-0.0068l-0.0041 6.621c4.0802-2.4459 8.0031-2.08 11.829 0.0081z" fill="#000000" opacity=".35" stroke-width=".7"/>
 <path d="m40.4 17.829c0 4.6389-3.7611 8.4-8.4 8.4s-8.4-3.7611-8.4-8.4 3.7611-8.4 8.4-8.4 8.4 3.7611 8.4 8.4z" fill="url(#linearGradient974)" stroke-width=".7"/>
 <path d="m27.8 40.229c0 4.6389-3.7598 8.4-8.4 8.4-4.6389 0-8.4-3.7611-8.4-8.4s3.7611-8.4 8.4-8.4c4.6402 0 8.4 3.7611 8.4 8.4z" fill="url(#linearGradient970)" stroke-width=".7"/>
 <path d="m53 40.229c0 4.6389-3.7598 8.4-8.4 8.4-4.6388 0-8.4-3.7611-8.4-8.4s3.7611-8.4 8.4-8.4c4.6402 0 8.4 3.7611 8.4 8.4z" fill="url(#linearGradient972)" stroke-width=".7"/>
</svg>
