<svg xmlns="http://www.w3.org/2000/svg" width="64" height="64" image-rendering="optimizeSpeed"><defs><filter id="c" width="1.316" height="1.277" x="-.158" y="-.138" color-interpolation-filters="sRGB"><feGaussianBlur stdDeviation="1.222"/></filter><filter id="a" width="1.078" height="1.078" x="-.039" y="-.039" color-interpolation-filters="sRGB"><feGaussianBlur stdDeviation=".972"/></filter><linearGradient id="b" x1="7.937" x2="7.937" y1="15.081" y2="1.852" gradientTransform="translate(-2.286 -2.252)scale(4.0494)" gradientUnits="userSpaceOnUse"><stop offset="0" stop-color="#f1efeb"/><stop offset="1" stop-color="#fdfcfc"/></linearGradient></defs><rect width="60" height="60" x="2" y="2" filter="url(#a)" opacity=".35" rx="30" ry="30"/><rect width="60" height="60" x="2" y="2" fill="url(#b)" rx="30" ry="30"/><path fill="#3d3846" d="M29.652 11.605 19.295 35.78c-2.098 4.928-3.785 6.708-6.477 6.982v2.462h13.184v-2.462c-3.238-.184-4.516-1.05-4.516-3.148 0-.776.18-1.506.683-2.6l.732-1.735h11.358l1.733 4.472c.502 1.278.548 1.505.548 1.87 0 .82-.639 1.094-2.646 1.094l-.776.047v2.462H49.13v-2.462c-2.6-.093-3.33-.549-4.29-2.874L33.119 11.605zm-.96 9.716 4.426 10.903h-9.033z"/><path d="M38.817 29.332h7.946v11.92h5.298l-9.27 9.27-9.271-9.27h5.297z" filter="url(#c)" opacity=".15" transform="matrix(1.0561 0 0 1.1661 1.676 -6.017)"/><path fill="#2ec27e" stroke="#f6f5f4" stroke-width="2.649" d="M42.893 29.332h7.946v11.92h5.298l-9.27 9.27-9.271-9.27h5.297z"/><path fill="#2ec27e" d="M42.893 29.332h7.946v11.92h5.298l-9.27 9.27-9.271-9.27h5.297z"/></svg>