<svg xmlns="http://www.w3.org/2000/svg" width="64" height="64"><defs><filter id="a" width="1.072" height="1.072" x="-.036" y="-.036" color-interpolation-filters="sRGB"><feGaussianBlur stdDeviation=".42"/></filter><filter id="d" width="1.48" height="1.375" x="-.24" y="-.187" color-interpolation-filters="sRGB"><feGaussianBlur stdDeviation="1.201"/></filter><filter id="c" width="1.48" height="1.375" x="-.24" y="-.187" color-interpolation-filters="sRGB"><feGaussianBlur stdDeviation="1.201"/></filter><linearGradient id="b" x1="399.99" x2="399.99" y1="545.14" y2="518.14" gradientTransform="translate(-826.36 -1107.5) scale(2.1429)" gradientUnits="userSpaceOnUse"><stop offset="0" stop-color="#197ff1"/><stop offset="1" stop-color="#21c6fb"/></linearGradient></defs><circle cx="400.57" cy="531.8" r="14" filter="url(#a)" opacity=".25" transform="translate(-826.36 -1107.5) scale(2.1429)"/><g stroke-width="1.571"><circle cx="32.02" cy="32.044" r="30.001" fill="url(#b)"/><circle cx="32.02" cy="32.044" r="30.001" fill="none"/></g><path d="M41.414 26q-.482-.335-1.06-.262a1.495 1.495 0 0 0-.964.508c-.259.29-.39.632-.39 1.022V39.56c0 .39.131.73.39 1.021.258.29.578.46.964.508.386.048.738-.042 1.06-.262l8.917-6.146c.285-.194.48-.456.588-.779a1.497 1.497 0 0 0 0-.974 1.534 1.534 0 0 0-.584-.782z" filter="url(#c)" opacity=".15"/><rect width="2" height="46" x="31" y="9" opacity=".15" rx="1" ry="1" style="paint-order:stroke fill markers"/><path d="M22.586 26q.482-.335 1.06-.262c.386.048.706.217.964.508.259.29.39.632.39 1.022V39.56c0 .39-.131.73-.39 1.021-.258.29-.578.46-.964.508a1.493 1.493 0 0 1-1.06-.262l-8.917-6.146a1.502 1.502 0 0 1-.588-.779 1.497 1.497 0 0 1 0-.974c.109-.322.303-.584.584-.782z" filter="url(#d)" opacity=".15"/><path fill="#fff" d="M41.414 24.587q-.482-.335-1.06-.262a1.495 1.495 0 0 0-.964.508c-.259.29-.39.632-.39 1.022v12.292c0 .39.131.73.39 1.021.258.29.578.46.964.508.386.048.738-.042 1.06-.262l8.917-6.146c.285-.194.48-.456.588-.779a1.497 1.497 0 0 0 0-.974 1.534 1.534 0 0 0-.584-.782zm-18.828 0q.482-.335 1.06-.262c.386.048.706.217.964.508.259.29.39.632.39 1.022v12.292c0 .39-.131.73-.39 1.021-.258.29-.578.46-.964.508a1.493 1.493 0 0 1-1.06-.262l-8.917-6.146a1.502 1.502 0 0 1-.588-.779 1.497 1.497 0 0 1 0-.974c.109-.322.303-.584.584-.782z"/></svg>