<svg xmlns="http://www.w3.org/2000/svg" width="64" height="64"><defs><linearGradient id="g" x1="211.2" x2="211.2" y1="27.259" y2="9.428" gradientTransform="translate(-53.055 12.304) scale(.42857)" gradientUnits="userSpaceOnUse"><stop offset="0" stop-color="#865f3c"/><stop offset="1" stop-color="#8f6440" stop-opacity="0"/></linearGradient><linearGradient id="j" x1="70.171" x2="69.768" y1="79.908" y2="87.311" gradientUnits="userSpaceOnUse"><stop offset="0"/><stop offset="1" stop-opacity="0"/></linearGradient><linearGradient id="c" x1="33.27" x2="33.27" y1="5.514" y2="62.082" gradientTransform="translate(-3.288 -3.848) scale(1.0607)" gradientUnits="userSpaceOnUse"><stop offset="0" stop-color="#eee"/><stop offset="1" stop-color="#fbfbf5"/></linearGradient><filter id="f" width="1.086" height="1.575" x="-.043" y="-.288" color-interpolation-filters="sRGB"><feGaussianBlur stdDeviation=".616"/></filter><filter id="b" width="1.072" height="1.072" x="-.036" y="-.036" color-interpolation-filters="sRGB"><feGaussianBlur stdDeviation="14.17"/></filter></defs><linearGradient id="d" x1="15.952" x2="111.99" y1="118.19" y2="118.19" gradientTransform="translate(4.571 1.571) scale(.42857)" gradientUnits="userSpaceOnUse"><stop offset="0" stop-color="#8d6542"/><stop offset=".056" stop-color="#bb926f" stop-opacity=".988"/><stop offset=".123" stop-color="#8d6542" stop-opacity=".976"/><stop offset=".87" stop-color="#8d6542" stop-opacity=".871"/><stop offset=".926" stop-color="#60452d" stop-opacity=".863"/><stop offset="1" stop-color="#8d6542" stop-opacity=".855"/></linearGradient><linearGradient id="e" x1="28" x2="102.85" y1="90" y2="90" gradientTransform="translate(4.571 1.571) scale(.42857)" gradientUnits="userSpaceOnUse"><stop offset="0" stop-color="#e5ca89"/><stop offset=".267" stop-color="#fadb8a"/><stop offset="1" stop-color="#dbb55b"/></linearGradient><filter id="a" width="1" height="1" x="0" y="0"><feColorMatrix in="SourceGraphic" values="0 0 0 0 1 0 0 0 0 1 0 0 0 0 1 0 0 0 1 0"/></filter><mask id="i"><g filter="url(#a)"><path fill-opacity=".171" d="M0 0h128v128H0z"/></g></mask><clipPath id="h"><path d="M0 0h192v152H0z"/></clipPath><clipPath id="k"><path d="M24 70h80v12H24z"/></clipPath><clipPath id="l"><path d="M24 70v2h18c0 3.574 1.906 6.875 5 8.66s6.906 1.785 10 0a10.015 10.015 0 0 0 4.793-6.73v.097c.207-2.675 4.207-2.656 4.414 0v-.113A10.003 10.003 0 0 0 71 80.66c3.094 1.785 6.906 1.785 10 0s5-5.086 5-8.66h18v-2z"/></clipPath><linearGradient id="m" x1="32" x2="89" y1="77" y2="77" gradientUnits="userSpaceOnUse"><stop offset="0" stop-color="#3d3846"/><stop offset=".387" stop-color="#4f485a"/><stop offset="1" stop-color="#201d24"/></linearGradient><clipPath id="n"><path d="M38 70h20v12H38z"/></clipPath><clipPath id="o"><path d="M24 70v2h18c0 3.574 1.906 6.875 5 8.66s6.906 1.785 10 0a10.015 10.015 0 0 0 4.793-6.73v.097c.207-2.675 4.207-2.656 4.414 0v-.113A10.003 10.003 0 0 0 71 80.66c3.094 1.785 6.906 1.785 10 0s5-5.086 5-8.66h18v-2z"/></clipPath><clipPath id="p"><path d="M47 70h18v12H47z"/></clipPath><clipPath id="q"><path d="M24 70v2h18c0 3.574 1.906 6.875 5 8.66s6.906 1.785 10 0a10.015 10.015 0 0 0 4.793-6.73v.097c.207-2.675 4.207-2.656 4.414 0v-.113A10.003 10.003 0 0 0 71 80.66c3.094 1.785 6.906 1.785 10 0s5-5.086 5-8.66h18v-2z"/></clipPath><clipPath id="r"><path d="M70 70h18v12H70z"/></clipPath><clipPath id="s"><path d="M24 70v2h18c0 3.574 1.906 6.875 5 8.66s6.906 1.785 10 0a10.015 10.015 0 0 0 4.793-6.73v.097c.207-2.675 4.207-2.656 4.414 0v-.113A10.003 10.003 0 0 0 71 80.66c3.094 1.785 6.906 1.785 10 0s5-5.086 5-8.66h18v-2z"/></clipPath><path d="M970.43 391.52a515 515 0 0 0-3.653-13.61c-1-3.403-2.001-6.855-3.152-10.508a421.48 421.48 0 0 0-5.304-15.862c-6.455-18.263-14.16-36.076-23.167-53.689a475.42 475.42 0 0 0-12.309-22.416c-20.315-34.525-45.833-67.249-76.406-97.821-72.653-72.653-157.26-116.74-253.84-132.15a484.05 484.05 0 0 0-50.087-5.354c-9.707-.55-19.865-.85-30.122-.85-9.357 0-18.614.25-27.92.75-118.44 6.105-220.46 51.988-306.07 137.6Q40.05 315.96 40.05 511.6c0 130.45 46.134 241.83 138.35 334.04 56.741 56.691 120.64 95.97 191.24 117.64 36.777 11.258 74.855 17.863 114.83 19.965h.4c8.507.45 16.612.7 24.518.7h3.003a583.3 583.3 0 0 0 30.122-.8c2.501-.15 4.753-.3 6.955-.45 20.215-1.451 39.929-4.053 58.743-7.706a519.82 519.82 0 0 0 23.417-5.154c80.859-20.315 152.26-61.645 214.81-124.19 48.636-48.636 84.462-102.57 107.43-161.92 18.463-47.685 28.67-98.872 30.572-153.61.2-6.054.3-12.259.3-18.514V508.6c-.2-40.68-4.954-79.558-14.31-117.09z" filter="url(#b)" opacity=".25" transform="translate(-.544 -.493) scale(.06351)"/><circle cx="32" cy="32" r="30" fill="url(#c)" fill-rule="evenodd" style="paint-order:normal"/><path fill="url(#d)" d="M12.465 41.857c-.574 0-1.036.462-1.036 1.036v6.186c0 2.171 1.75 3.92 3.92 3.92h33.302c2.17 0 3.92-1.749 3.92-3.92v-6.186c0-.574-.462-1.036-1.036-1.036z"/><path fill="#664930" d="M12.465 39.286c-.574 0-1.036.462-1.036 1.036v6.186c0 2.171 1.75 3.92 3.92 3.92h33.302c2.17 0 3.92-1.748 3.92-3.92v-6.186c0-.574-.462-1.036-1.036-1.036z"/><path fill="url(#e)" d="M15.821 25.571h32.357c.532 0 .964.464.964 1.036V50.25c0 .573-.432 1.037-.964 1.037H15.821c-.532 0-.964-.464-.964-1.037V26.607c0-.572.432-1.036.964-1.036z"/><path fill-opacity=".261" d="M14.857 32.428v.857h7.714A4.284 4.284 0 0 0 29 36.997a4.292 4.292 0 0 0 2.054-2.885v.042c.089-1.147 1.803-1.138 1.892 0v-.049A4.287 4.287 0 0 0 35 36.997a4.288 4.288 0 0 0 6.428-3.712h7.715v-.857z" filter="url(#f)"/><path fill="#b5835a" d="m11.429 41 1.92 1.44a8.512 8.512 0 0 0 3.353 1.52l12.631 2.658a2.807 2.807 0 0 1 2.173 2.195L32 51.286H14.07a2.64 2.64 0 0 1-2.64-2.64z"/><path fill="#9e6e47" d="m52.571 41-1.92 1.44a8.511 8.511 0 0 1-3.353 1.52l-12.631 2.658a2.807 2.807 0 0 0-2.173 2.195L32 51.286h17.93a2.64 2.64 0 0 0 2.64-2.64z"/><path fill="#986a44" d="m11.429 27.286 9.275-20.094a1.852 1.852 0 0 1 2.866-.646l6.576 5.48a2.897 2.897 0 0 0 3.71 0l6.575-5.48a1.85 1.85 0 0 1 2.866.646l9.275 20.094z"/><path fill="url(#g)" d="M41.723 10.362c.723.003 1.39.392 1.748 1.02l9.088 15.904H32.013V16.977a2.894 2.894 0 0 0 1.831-.666l6.576-5.48c.365-.305.827-.471 1.304-.47z" opacity=".75"/><g clip-path="url(#h)" mask="url(#i)" transform="translate(1.143 -5.286) scale(.42857)"><path fill="url(#j)" d="m111.73 76.027-79.699-.07-.14 8.21L112.05 96.2z"/></g><g clip-path="url(#k)" transform="translate(4.571 1.571) scale(.42857)"><g clip-path="url(#l)"><path fill="url(#m)" d="M24.418 68h78.164A2.417 2.417 0 0 1 105 70.418v11.164A2.417 2.417 0 0 1 102.582 84H24.418A2.417 2.417 0 0 1 22 81.582V70.418A2.417 2.417 0 0 1 24.418 68z"/></g></g><g clip-path="url(#n)" transform="translate(4.571 1.571) scale(.42857)"><g clip-path="url(#o)"><path fill="#5e5c64" d="m54.188 65 3.54 3.535-15.454 15.45-3.535-3.536z"/></g></g><g clip-path="url(#p)" transform="translate(4.571 1.571) scale(.42857)"><g clip-path="url(#q)"><path fill="#5e5c64" d="m62.727 67.043 1.492 1.492-15.449 15.45-1.496-1.493z"/></g></g><g clip-path="url(#r)" transform="translate(4.571 1.571) scale(.42857)"><g clip-path="url(#s)"><path fill="#5e5c64" d="m85.98 67.043 1.492 1.492-15.453 15.45-1.492-1.493z"/></g></g><path fill="#b5835a" d="M9.714 25.571h44.571a1.713 1.713 0 1 1 0 3.429H9.715a1.713 1.713 0 1 1 0-3.429z"/></svg>