<svg xmlns="http://www.w3.org/2000/svg" xmlns:xlink="http://www.w3.org/1999/xlink" width="64" height="64"><defs><linearGradient id="a"><stop offset="0" stop-color="#b3b3b3"/><stop offset="1" stop-color="#fff"/></linearGradient><linearGradient id="c" x1="520" x2="520.03" y1="44" y2="985.85" gradientTransform="translate(-.542 -.542)scale(.06356)" gradientUnits="userSpaceOnUse"><stop offset="0" stop-color="#353535"/><stop offset="1" stop-color="#6d6d6d"/></linearGradient><linearGradient xlink:href="#a" id="e" x1="11" x2="27.8" y1="40.229" y2="40.229" gradientUnits="userSpaceOnUse"/><linearGradient xlink:href="#a" id="f" x1="36.2" x2="53" y1="40.229" y2="40.229" gradientUnits="userSpaceOnUse"/><linearGradient xlink:href="#a" id="d" x1="23.6" x2="40.4" y1="17.829" y2="17.829" gradientUnits="userSpaceOnUse"/><filter id="b" width="1.072" height="1.072" x="-.036" y="-.036" color-interpolation-filters="sRGB"><feGaussianBlur stdDeviation="14.16"/></filter><filter id="g" width="1.028" height="1.028" x="-.014" y="-.014" color-interpolation-filters="sRGB"><feGaussianBlur stdDeviation=".298"/></filter><filter id="h" width="1.059" height="1.059" x="-.03" y="-.03" color-interpolation-filters="sRGB"><feGaussianBlur stdDeviation=".298"/></filter></defs><path d="M969.7 392c-1.1-4.35-2.35-9-3.65-13.6-2.5-8.75-5.35-17.6-8.45-26.35-6.45-18.25-14.15-36.05-23.15-53.65-3.8-7.4-7.95-14.95-12.3-22.4h-.025q-30.601-52.01-76.325-97.75C753.65 86.1 642.35 40 512 40S270.4 86.1 178.25 178.25 40 381.65 40 512s46.1 241.65 138.25 333.8c68.05 68.05 146.5 110.95 234.9 128.65C445.1 980.85 477.9 984 512 984c130.35 0 241.65-46.05 333.8-138.2 48.6-48.6 84.4-102.5 107.35-161.8 17-43.95 27-90.8 29.95-140.75.6-10.2.9-20.65.9-31.25 0-41.75-4.7-81.6-14.3-120" filter="url(#b)" opacity=".25" transform="translate(-.542 -.542)scale(.06356)"/><path fill="url(#c)" d="M61.091 24.373a28.4 28.4 0 0 0-2.24-5.95A31 31 0 0 0 58.069 17h-.002q-1.945-3.306-4.851-6.213Q44.429 2.001 32 2c-12.429-.001-15.356 2.93-21.213 8.787S2 23.715 2 32s2.93 15.36 8.787 21.216c4.325 4.325 9.311 7.052 14.93 8.177C27.747 61.8 29.832 62 32 62q12.429 0 21.216-8.784 4.634-4.632 6.823-10.284c1.08-2.793 1.716-5.771 1.904-8.946Q62 33.012 62 32c0-2.654-.299-5.187-.91-7.627z"/><path d="M25.291 21.217c.103 4.401-1.323 8.23-5.325 11.096l5.969 2.865c-.372-4.885 1.723-8.407 5.325-11.094zm13.241 0c-.103 4.401 1.321 8.23 5.325 11.096l-5.969 2.865c.372-4.885-1.723-8.407-5.325-11.094zm-1.11 15.779c-3.773 1.995-7.682 2.365-11.829-.007l-.004 6.621c4.08-2.446 8.003-2.08 11.829.008z" opacity=".35"/><path fill="url(#d)" d="M40.4 17.829a8.4 8.4 0 1 1-16.8 0 8.4 8.4 0 0 1 16.8 0"/><path fill="url(#e)" d="M27.8 40.229a8.4 8.4 0 1 1-16.8 0 8.4 8.4 0 0 1 16.8 0"/><path fill="url(#f)" d="M53 40.229a8.4 8.4 0 1 1-16.8 0 8.4 8.4 0 0 1 16.8 0"/><path fill="#fff" d="M10.787 10.787a29.934 29.934 0 0 0 0 42.426c.119.119.242.23.362.345-11.4-11.775-11.288-30.43.345-42.065S41.784-.25 53.56 11.148c-.116-.12-.227-.243-.345-.362a29.934 29.934 0 0 0-42.426 0z" filter="url(#g)" opacity=".15"/><path fill="#fff" d="M37.435 61.526c5.772-1.063 11.297-3.831 15.779-8.313s7.25-10.007 8.313-15.779c-1.592 5.434-4.606 10.657-9.02 15.072s-9.639 7.428-15.072 9.02" filter="url(#h)" opacity=".15"/></svg>