<svg xmlns="http://www.w3.org/2000/svg" width="64" height="64"><defs><linearGradient id="a" x1="8.467" x2="8.467" y1="282.18" y2="294.88" gradientTransform="translate(.21 7.221) scale(.97498)" gradientUnits="userSpaceOnUse"><stop offset="0" stop-color="#78d9fd"/><stop offset="1" stop-color="#7bdeff"/></linearGradient><linearGradient id="b" x1="8.466" x2="8.466" y1="284.41" y2="295.41" gradientTransform="translate(-4.921 -1226.3) scale(4.3611)" gradientUnits="userSpaceOnUse"><stop offset="0" stop-color="#35cafc"/><stop offset=".5" stop-color="#50d4ff"/><stop offset="1" stop-color="#4dcbf6"/></linearGradient><linearGradient id="c" x1="8.466" x2="8.466" y1="294.95" y2="295.41" gradientTransform="translate(-4.921 -1226.3) scale(4.3611)" gradientUnits="userSpaceOnUse"><stop offset="0" stop-color="#3bc1f1"/><stop offset="1" stop-color="#0e95c5"/></linearGradient></defs><g style="paint-order:stroke markers fill" transform="translate(-4.921 -1226.3) scale(4.3613)"><circle cx="8.466" cy="288.53" r="6.191" fill="url(#a)"/><g stroke-width="3.276"><path fill="url(#b)" d="M32 14c-1.278 0-1.661.738-2.307 1.846L28.35 18H9c-1.291 0-1.959-.036-2.489.05-1.059.174-1.507.958-1.957 1.95l-.242.533A30.002 30.002 0 0 0 2 31.996a30.003 30.003 0 0 0 17.086 27.047c.461.227.928.444 1.4.647h.045A29.998 29.998 0 0 0 32.001 62a30.005 30.005 0 0 0 28.822-21.708l.027-.079v-.005c.207-.752.384-1.51.531-2.276.054-.232.105-.466.153-.7.11-.662.196-1.327.261-1.995.045-.33.084-.662.118-.994.057-.748.086-1.497.087-2.246a29.983 29.983 0 0 0-5.636-17.447 1.72 1.72 0 0 0-.485-.383 1.58 1.58 0 0 0-.726-.166z" transform="translate(1.128 281.2) scale(.2293)"/><path fill="url(#c)" d="M21.332 60A29.994 29.994 0 0 0 32 62a29.935 29.935 0 0 0 10.736-2z" transform="translate(1.128 281.2) scale(.2293)"/><path fill="#3bc1f1" d="M4.35 294.04c.107.08.217.156.329.23h7.583c.11-.073.216-.15.322-.23H4.35zm.702.46c.141.08.285.157.434.229h5.976c.147-.072.291-.148.433-.23H5.05z"/></g></g><path fill="#fff" d="M34.711 24a5.5 5.429 0 0 0-5.406 4.461 6.188 6.107 0 0 0-2.156-.39 6.188 6.107 0 0 0-6.188 6.108 6.188 6.107 0 0 0 .08.946 4.125 4.071 0 0 0-1.455-.268 4.125 4.071 0 0 0-4.125 4.072 4.125 4.071 0 0 0 4.125 4.07h26.125v-.073a3.438 3.393 0 0 0 2.75-3.319 3.438 3.393 0 0 0-3.438-3.393 3.438 3.393 0 0 0-.69.074 5.5 5.429 0 0 0 .003-.074 5.5 5.429 0 0 0-4.337-5.304 5.5 5.429 0 0 0 .212-1.481 5.5 5.429 0 0 0-5.5-5.43z"/><circle cx="25" cy="50.5" r="2.5" fill="#fff" opacity=".35"/><circle cx="32" cy="50.5" r="2.5" fill="#fff" opacity=".35"/><circle cx="39" cy="50.5" r="2.5" fill="#fff" opacity=".75"/></svg>