<svg width="64" height="64" version="1.1" xmlns="http://www.w3.org/2000/svg">
 <defs>
  <linearGradient id="b" x1="32.86" x2="32.86" y1="59.084" y2="5.542" gradientUnits="userSpaceOnUse">
   <stop stop-color="#4ddae7" offset="0"/>
   <stop stop-color="#425ee6" offset="1"/>
  </linearGradient>
  <linearGradient id="c" x1="32.86" x2="32.86" y1="59.084" y2="5.542" gradientTransform="translate(4.267 4.267) scale(.86667)" gradientUnits="userSpaceOnUse">
   <stop stop-color="#8ff0a4" offset="0"/>
   <stop stop-color="#3584e4" offset="1"/>
  </linearGradient>
  <filter id="a" x="-.027" y="-.027" width="1.054" height="1.054" color-interpolation-filters="sRGB">
   <feGaussianBlur stdDeviation=".675"/>
  </filter>
  <filter id="filter26" x="-.013853" y="-.013853" width="1.0277" height="1.0277" color-interpolation-filters="sRGB">
   <feGaussianBlur stdDeviation="0.29776566"/>
  </filter>
  <filter id="filter25" x="-.029663" y="-.029663" width="1.0593" height="1.0593" color-interpolation-filters="sRGB">
   <feGaussianBlur stdDeviation="0.29776566"/>
  </filter>
 </defs>
 <circle cx="32" cy="33" r="30" filter="url(#a)" opacity=".15" style="paint-order:stroke fill markers"/>
 <circle cx="32" cy="32" r="30" fill="url(#b)" style="paint-order:stroke fill markers"/>
 <circle cx="32" cy="32" r="26" fill="url(#c)" style="paint-order:stroke fill markers"/>
 <path d="M12.8 30.999H32v19.2z" fill="#fff"/>
 <path d="M44.8 18.2H32V31z" fill="#fff" opacity=".75"/>
 <path d="m32 30.999h9.6v9.6z" fill="#fff" opacity=".5"/>
 <path d="m10.787 10.787c-11.752 11.752-11.752 30.674 0 42.426 0.11855 0.11855 0.24184 0.22911 0.36184 0.34527-11.399-11.775-11.288-30.431 0.34527-42.065 11.634-11.634 30.289-11.744 42.065-0.34527-0.11616-0.12-0.22671-0.24329-0.34527-0.36184-11.752-11.752-30.674-11.752-42.426 0z" fill="#ffffff" filter="url(#filter26)" opacity=".38"/>
 <path d="m37.435 61.526c5.7718-1.0635 11.297-3.831 15.779-8.3126s7.2491-10.007 8.3126-15.779c-1.5917 5.4332-4.6056 10.657-9.0198 15.072s-9.6384 7.428-15.072 9.0198z" fill="#ffffff" filter="url(#filter25)" opacity=".38"/>
</svg>
