<svg xmlns="http://www.w3.org/2000/svg" xmlns:xlink="http://www.w3.org/1999/xlink" width="64" height="64"><defs><linearGradient id="h" x1="72" x2="114" y1="95" y2="95" gradientUnits="userSpaceOnUse"><stop offset="0" stop-color="#e66100"/><stop offset=".068" stop-color="#ff903e"/><stop offset=".169" stop-color="#e66100"/><stop offset=".887" stop-color="#e66100"/><stop offset="1" stop-color="#9d4200"/></linearGradient><linearGradient id="g" x1="14" x2="56" y1="95" y2="95" gradientUnits="userSpaceOnUse"><stop offset="0" stop-color="#813d9c"/><stop offset=".109" stop-color="#b378ca"/><stop offset=".242" stop-color="#813d9c"/><stop offset=".732" stop-color="#813d9c"/><stop offset=".872" stop-color="#4d255d"/><stop offset="1" stop-color="#813d9c"/></linearGradient><linearGradient xlink:href="#a" id="f" x1="-1710.2" x2="-1774.5" y1="-1202.4" y2="-1202.4" gradientTransform="matrix(-.08119 -.04688 -.06908 .11965 -177.24 127.07)"/><linearGradient id="a" gradientUnits="userSpaceOnUse"><stop offset="0" stop-color="#c0bfbc"/><stop offset=".155" stop-color="#fff"/><stop offset=".434" stop-color="#bdbbb5"/><stop offset=".65" stop-color="#c1c0ba"/><stop offset=".825" stop-color="#fff"/><stop offset="1" stop-color="#c0bfbc"/></linearGradient><linearGradient xlink:href="#a" id="e" x1="-1710.2" x2="-1774.5" y1="-1202.4" y2="-1202.4" gradientTransform="matrix(.08119 -.04688 .06908 .11965 307.03 127.07)"/><linearGradient id="d" x1="43" x2="85" y1="39" y2="39" gradientUnits="userSpaceOnUse"><stop offset="0" stop-color="#26a269"/><stop offset=".093" stop-color="#84e3b7"/><stop offset=".331" stop-color="#26a269"/><stop offset=".687" stop-color="#26a269"/><stop offset=".897" stop-color="#175e3c"/><stop offset="1" stop-color="#26a269"/></linearGradient><linearGradient id="c" x1="520" x2="520" y1="4" y2="1024" gradientTransform="translate(-.546 -.546)scale(.06356)" gradientUnits="userSpaceOnUse"><stop offset="0" stop-color="#d7d7d7"/><stop offset="1" stop-color="#fff"/></linearGradient><filter id="b" width="1.072" height="1.072" x="-.036" y="-.036" color-interpolation-filters="sRGB"><feGaussianBlur stdDeviation="14.16"/></filter></defs><path d="M929.85 289.65c-2.35-4.35-4.95-9-7.65-13.6-20.3-34.5-45.8-67.2-76.35-97.75C773.25 105.7 688.7 61.65 592.2 46.25c-16.25-2.6-32.8-4.4-50.05-5.35-9.7-.55-19.85-.85-30.1-.85-9.35 0-18.6.25-27.9.75-118.35 6.1-220.3 51.95-305.85 137.5-20.5 20.5-38.75 41.95-54.7 64.4-15.35 21.55-28.55 44-39.6 67.2l-.025-.025Q40.05 401.873 40.05 512.055c0 130.35 46.1 241.65 138.25 333.8 56.7 56.65 120.55 95.9 191.1 117.55 36.75 11.25 74.8 17.85 114.75 19.95h.4c8.5.45 16.6.7 24.5.7h3c10.3 0 20.5-.3 30.1-.8 2.5-.15 4.75-.3 6.95-.45 20.2-1.45 39.9-4.05 58.7-7.7 7.95-1.55 15.8-3.3 23.4-5.15 80.8-20.3 152.15-61.6 214.65-124.1 48.6-48.6 84.4-102.5 107.35-161.8 18.45-47.65 28.65-98.8 30.55-153.5.2-6.05.3-12.25.3-18.5v-3c-.2-40.65-4.95-79.5-14.3-117-1.1-4.35-2.35-9-3.65-13.6-1-3.4-2-6.85-3.15-10.5-1.6-5.15-3.4-10.5-5.3-15.85-5.05-14.25-10.85-28.25-17.45-42.15-1.85-3.8-3.75-7.65-5.7-11.5-1.45-2.85-2.95-5.7-4.65-8.8z" filter="url(#b)" opacity=".25" transform="translate(-.546 -.546)scale(.06356)"/><path fill="url(#c)" d="M58.555 17.864a31 31 0 0 0-.486-.864c-1.29-2.193-2.911-4.272-4.853-6.213q-6.922-6.924-16.122-8.394a31 31 0 0 0-3.181-.34 34 34 0 0 0-3.687-.006q-11.283.583-19.44 8.74A32 32 0 0 0 7.31 14.88a28.4 28.4 0 0 0-2.517 4.271l-.002-.002Q1.999 24.997 1.999 32c0 8.285 2.93 15.36 8.787 21.216 3.604 3.601 7.662 6.096 12.146 7.472a30.2 30.2 0 0 0 7.294 1.268h.025c.54.029 1.055.044 1.557.044H32c.655 0 1.303-.019 1.913-.05l.442-.029a32 32 0 0 0 3.731-.49c.505-.098 1.004-.21 1.487-.327 5.136-1.29 9.671-3.915 13.643-7.888 3.09-3.089 5.365-6.514 6.824-10.284q1.759-4.542 1.941-9.756.02-.579.02-1.176v-.19a31.2 31.2 0 0 0-.91-7.437c-.07-.277-.149-.572-.232-.865a27 27 0 0 0-.537-1.675 28 28 0 0 0-1.471-3.41 20 20 0 0 0-.296-.559"/><path fill="url(#d)" d="M51 18h26a8 8 0 0 1 8 8v26a8 8 0 0 1-8 8H51a8 8 0 0 1-8-8V26a8 8 0 0 1 8-8" transform="matrix(.38 0 0 .38 7.68 5.73)"/><path fill="#57e389" d="M27.06 10.29h9.88a3.04 3.04 0 0 1 3.04 3.04v9.88a3.04 3.04 0 0 1-3.04 3.04h-9.88a3.04 3.04 0 0 1-3.04-3.04v-9.88a3.04 3.04 0 0 1 3.04-3.04"/><path fill="url(#e)" d="M76.977 55.453a3.093 3.093 0 0 1 4.227 1.133l6.742 11.68a3.093 3.093 0 0 1-1.133 4.226 3.096 3.096 0 0 1-4.227-1.132l-6.742-11.68a3.093 3.093 0 0 1 1.133-4.227" transform="matrix(.38 0 0 .38 7.68 5.73)"/><path fill="url(#f)" d="M52.812 55.453a3.093 3.093 0 0 0-4.227 1.133l-6.742 11.68a3.093 3.093 0 0 0 1.133 4.226 3.096 3.096 0 0 0 4.227-1.132l6.742-11.68a3.093 3.093 0 0 0-1.133-4.227" transform="matrix(.38 0 0 .38 7.68 5.73)"/><path fill="url(#g)" d="M22 74h26a8 8 0 0 1 8 8v26a8 8 0 0 1-8 8H22a8 8 0 0 1-8-8V82a8 8 0 0 1 8-8" transform="matrix(.38 0 0 .38 7.68 5.73)"/><path fill="#dc8add" d="M16.04 31.57h9.88a3.04 3.04 0 0 1 3.04 3.04v9.88a3.04 3.04 0 0 1-3.04 3.04h-9.88A3.04 3.04 0 0 1 13 44.49v-9.88a3.04 3.04 0 0 1 3.04-3.04"/><path fill="url(#h)" d="M80 74h26a8 8 0 0 1 8 8v26a8 8 0 0 1-8 8H80a8 8 0 0 1-8-8V82a8 8 0 0 1 8-8" transform="matrix(.38 0 0 .38 7.68 5.73)"/><path fill="#ffa348" d="M38.08 31.57h9.88A3.04 3.04 0 0 1 51 34.61v9.88a3.04 3.04 0 0 1-3.04 3.04h-9.88a3.04 3.04 0 0 1-3.04-3.04v-9.88a3.04 3.04 0 0 1 3.04-3.04"/></svg>