<svg xmlns="http://www.w3.org/2000/svg" width="64" height="64" enable-background="new 0 0 1024 1024" image-rendering="optimizeSpeed"><defs><linearGradient id="b" x1="520" x2="520" y1="4" y2="1024" gradientUnits="userSpaceOnUse"><stop offset="0" stop-color="#d7d7d7"/><stop offset="1" stop-color="#fff"/></linearGradient><linearGradient id="d" x1="480" x2="480" y1="384" y2="644" gradientTransform="translate(-113.91 -127.03) scale(1.2589)" gradientUnits="userSpaceOnUse"><stop offset="0" stop-color="#7839b7"/><stop offset="1" stop-color="#1a7fd4"/></linearGradient><filter id="c" width="1.082" height="1.064" x="-.041" y="-.032" color-interpolation-filters="sRGB"><feGaussianBlur stdDeviation="3.215"/></filter><filter id="a" width="1.072" height="1.072" x="-.036" y="-.036" color-interpolation-filters="sRGB"><feGaussianBlur stdDeviation="14.16"/></filter></defs><g stroke-width="15.683"><path d="M929.85 289.65c-2.35-4.35-4.95-9-7.65-13.6-20.3-34.5-45.8-67.2-76.35-97.75C773.25 105.7 688.7 61.65 592.2 46.25c-16.25-2.6-32.8-4.4-50.05-5.35-9.7-.55-19.85-.85-30.1-.85-9.35 0-18.6.25-27.9.75-118.35 6.1-220.3 51.95-305.85 137.5-20.5 20.5-38.75 41.95-54.7 64.4-15.35 21.55-28.55 44-39.6 67.2l-.025-.025Q40.05 401.873 40.05 512.055c0 130.35 46.1 241.65 138.25 333.8 56.7 56.65 120.55 95.9 191.1 117.55 36.75 11.25 74.8 17.85 114.75 19.95h.4c8.5.45 16.6.7 24.5.7h3c10.3 0 20.5-.3 30.1-.8 2.5-.15 4.75-.3 6.95-.45 20.2-1.45 39.9-4.05 58.7-7.7 7.95-1.55 15.8-3.3 23.4-5.15 80.8-20.3 152.15-61.6 214.65-124.1 48.6-48.6 84.4-102.5 107.35-161.8 18.45-47.65 28.65-98.8 30.55-153.5.2-6.05.3-12.25.3-18.5v-3c-.2-40.65-4.95-79.5-14.3-117-1.1-4.35-2.35-9-3.65-13.6-1-3.4-2-6.85-3.15-10.5-1.6-5.15-3.4-10.5-5.3-15.85-5.05-14.25-10.85-28.25-17.45-42.15-1.85-3.8-3.75-7.65-5.7-11.5-1.45-2.85-2.95-5.7-4.65-8.8z" filter="url(#a)" opacity=".25" transform="translate(-.546 -.546) scale(.06356)"/><path fill="url(#b)" d="M929.85 289.65c-2.35-4.35-4.95-9-7.65-13.6-20.3-34.5-45.8-67.2-76.35-97.75C773.25 105.7 688.7 61.65 592.2 46.25c-16.25-2.6-32.8-4.4-50.05-5.35-9.7-.55-19.85-.85-30.1-.85-9.35 0-18.6.25-27.9.75-118.35 6.1-220.3 51.95-305.85 137.5-20.5 20.5-38.75 41.95-54.7 64.4-15.35 21.55-28.55 44-39.6 67.2l-.025-.025Q40.05 401.873 40.05 512.055c0 130.35 46.1 241.65 138.25 333.8 56.7 56.65 120.55 95.9 191.1 117.55 36.75 11.25 74.8 17.85 114.75 19.95h.4c8.5.45 16.6.7 24.5.7h3c10.3 0 20.5-.3 30.1-.8 2.5-.15 4.75-.3 6.95-.45 20.2-1.45 39.9-4.05 58.7-7.7 7.95-1.55 15.8-3.3 23.4-5.15 80.8-20.3 152.15-61.6 214.65-124.1 48.6-48.6 84.4-102.5 107.35-161.8 18.45-47.65 28.65-98.8 30.55-153.5.2-6.05.3-12.25.3-18.5v-3c-.2-40.65-4.95-79.5-14.3-117-1.1-4.35-2.35-9-3.65-13.6-1-3.4-2-6.85-3.15-10.5-1.6-5.15-3.4-10.5-5.3-15.85-5.05-14.25-10.85-28.25-17.45-42.15-1.85-3.8-3.75-7.65-5.7-11.5-1.45-2.85-2.95-5.7-4.65-8.8z" transform="translate(-.546 -.546) scale(.06356)"/><path d="M455.9 405.95q-7.55-5.25-16.6-4.1c-6.05.75-11.05 3.4-15.1 7.95s-6.1 9.9-6.1 16v192.5c0 6.1 2.05 11.45 6.1 16s9.05 7.2 15.1 7.95 11.55-.65 16.6-4.1l139.65-96.25c4.45-3.05 7.5-7.15 9.2-12.2 1.7-5.1 1.7-10.2 0-15.25s-4.75-9.15-9.15-12.25z" filter="url(#c)" opacity=".2" transform="translate(-7.877 -8.778) scale(.08027)"/><path fill="url(#d)" d="M460 371.41q-9.504-6.609-20.897-5.161c-7.616.944-13.91 4.28-19.009 10.008-5.098 5.728-7.679 12.463-7.679 20.142v242.33c0 7.679 2.58 14.414 7.679 20.142 5.098 5.728 11.393 9.064 19.009 10.008 7.616.944 14.54-.819 20.897-5.162l175.8-121.16c5.602-3.84 9.441-9 11.581-15.358 2.14-6.42 2.14-12.84 0-19.198-2.14-6.357-5.98-11.519-11.519-15.42z" transform="translate(-.614 -.678) scale(.06376)"/></g></svg>