<svg width="64" height="64" version="1.1" viewBox="0 0 64 64" xmlns="http://www.w3.org/2000/svg" xmlns:xlink="http://www.w3.org/1999/xlink">
 <defs>
  <linearGradient id="f" x1="72" x2="114" y1="95" y2="95" gradientUnits="userSpaceOnUse">
   <stop stop-color="#e66100" offset="0"/>
   <stop stop-color="#ff903e" offset=".067848"/>
   <stop stop-color="#e66100" offset=".16885"/>
   <stop stop-color="#e66100" offset=".88663"/>
   <stop stop-color="#9d4200" offset="1"/>
  </linearGradient>
  <linearGradient id="e" x1="14" x2="56" y1="95" y2="95" gradientUnits="userSpaceOnUse">
   <stop stop-color="#813d9c" offset="0"/>
   <stop stop-color="#b378ca" offset=".10912"/>
   <stop stop-color="#813d9c" offset=".24158"/>
   <stop stop-color="#813d9c" offset=".73184"/>
   <stop stop-color="#4d255d" offset=".87216"/>
   <stop stop-color="#813d9c" offset="1"/>
  </linearGradient>
  <linearGradient id="d" x1="-1710.2" x2="-1774.5" y1="-1202.4" y2="-1202.4" gradientTransform="matrix(-.08119 -.046875 -.069079 .11965 -177.24 127.07)" xlink:href="#b"/>
  <linearGradient id="b" gradientUnits="userSpaceOnUse">
   <stop stop-color="#c0bfbc" offset="0"/>
   <stop stop-color="#fff" offset=".15475"/>
   <stop stop-color="#bdbbb5" offset=".43372"/>
   <stop stop-color="#c1c0ba" offset=".6505"/>
   <stop stop-color="#fff" offset=".82525"/>
   <stop stop-color="#c0bfbc" offset="1"/>
  </linearGradient>
  <linearGradient id="c" x1="-1710.2" x2="-1774.5" y1="-1202.4" y2="-1202.4" gradientTransform="matrix(.08119 -.046875 .069079 .11965 307.03 127.07)" xlink:href="#b"/>
  <linearGradient id="a" x1="43" x2="85" y1="39" y2="39" gradientUnits="userSpaceOnUse">
   <stop stop-color="#26a269" offset="0"/>
   <stop stop-color="#84e3b7" offset=".093416"/>
   <stop stop-color="#26a269" offset=".33083"/>
   <stop stop-color="#26a269" offset=".68695"/>
   <stop stop-color="#175e3c" offset=".89736"/>
   <stop stop-color="#26a269" offset="1"/>
  </linearGradient>
  <linearGradient id="b-3" x1="520" x2="520" y1="4" y2="1024" gradientTransform="matrix(.06356 0 0 .06356 -.546 -.546)" gradientUnits="userSpaceOnUse">
   <stop stop-color="#d7d7d7" offset="0"/>
   <stop stop-color="#fff" offset="1"/>
  </linearGradient>
  <filter id="a-6" x="-.036" y="-.036" width="1.072" height="1.072" color-interpolation-filters="sRGB">
   <feGaussianBlur stdDeviation="14.16"/>
  </filter>
 </defs>
 <path transform="matrix(.06356 0 0 .06356 -.546 -.546)" d="m929.85 289.65c-2.35-4.35-4.95-9-7.65-13.6-20.3-34.5-45.8-67.2-76.35-97.75-72.6-72.6-157.15-116.65-253.65-132.05-16.25-2.6-32.8-4.4-50.05-5.35-9.7-0.55-19.85-0.85-30.1-0.85-9.35 0-18.6 0.25-27.9 0.75-118.35 6.1-220.3 51.95-305.85 137.5-20.5 20.5-38.75 41.95-54.7 64.4-15.35 21.55-28.55 44-39.6 67.2l-0.025-0.025q-43.925 91.998-43.925 202.18c0 130.35 46.1 241.65 138.25 333.8 56.7 56.65 120.55 95.9 191.1 117.55 36.75 11.25 74.8 17.85 114.75 19.95h0.4c8.5 0.45 16.6 0.7 24.5 0.7h3c10.3 0 20.5-0.3 30.1-0.8 2.5-0.15 4.75-0.3 6.95-0.45 20.2-1.45 39.9-4.05 58.7-7.7 7.95-1.55 15.8-3.3 23.4-5.15 80.8-20.3 152.15-61.6 214.65-124.1 48.6-48.6 84.4-102.5 107.35-161.8 18.45-47.65 28.65-98.8 30.55-153.5 0.2-6.05 0.3-12.25 0.3-18.5v-3c-0.2-40.65-4.95-79.5-14.3-117-1.1-4.35-2.35-9-3.65-13.6-1-3.4-2-6.85-3.15-10.5-1.6-5.15-3.4-10.5-5.3-15.85-5.05-14.25-10.85-28.25-17.45-42.15-1.85-3.8-3.75-7.65-5.7-11.5-1.45-2.85-2.95-5.7-4.65-8.8z" filter="url(#a-6)" opacity=".25" stroke-width="15.683"/>
 <path d="m58.555 17.864c-0.14937-0.27649-0.31462-0.57204-0.48623-0.86442-1.2903-2.1928-2.911-4.2712-4.8528-6.213-4.6145-4.6145-9.9885-7.4143-16.122-8.3931-1.0328-0.16526-2.0848-0.27966-3.1812-0.34005-0.61653-0.034958-1.2617-0.054026-1.9132-0.054026-0.59429 0-1.1822 0.01589-1.7733 0.04767-7.5223 0.38772-14.002 3.3019-19.44 8.7395-1.303 1.303-2.463 2.6663-3.4767 4.0933-0.97565 1.3697-1.8146 2.7966-2.517 4.2712l-0.00159-0.0016q-2.7919 5.8474-2.7919 12.851c0 8.285 2.9301 15.359 8.7872 21.216 3.6039 3.6007 7.6622 6.0954 12.146 7.4715 2.3358 0.71505 4.7543 1.1345 7.2935 1.268h0.02542c0.54026 0.0286 1.0551 0.04449 1.5572 0.04449h0.19068c0.65467 0 1.303-0.01907 1.9132-0.05085 0.1589-0.0095 0.30191-0.01907 0.44174-0.0286 1.2839-0.09216 2.536-0.25742 3.731-0.48941 0.5053-0.09852 1.0042-0.20975 1.4873-0.32733 5.1356-1.2903 9.6707-3.9153 13.643-7.8878 3.089-3.089 5.3645-6.5149 6.8232-10.284 1.1727-3.0286 1.821-6.2797 1.9418-9.7565 0.01271-0.38454 0.01907-0.77861 0.01907-1.1759v-0.19068c-0.01271-2.5837-0.31462-5.053-0.90891-7.4365-0.06992-0.27649-0.14937-0.57204-0.23199-0.86442-0.06356-0.2161-0.12712-0.43539-0.20021-0.66738-0.1017-0.32733-0.2161-0.66738-0.33687-1.0074-0.32098-0.90573-0.68963-1.7956-1.1091-2.6791-0.11759-0.24153-0.23835-0.48623-0.36229-0.73094-0.09216-0.18115-0.1875-0.36229-0.29555-0.55933z" fill="url(#b-3)" stroke-width=".99681"/>
 <g transform="matrix(.38 0 0 .38 7.68 5.7295)">
  <path d="m51 18h26c4.418 0 8 3.582 8 8v26c0 4.418-3.582 8-8 8h-26c-4.418 0-8-3.582-8-8v-26c0-4.418 3.582-8 8-8z" fill="url(#a)"/>
  <path d="m51 12h26c4.418 0 8 3.582 8 8v26c0 4.418-3.582 8-8 8h-26c-4.418 0-8-3.582-8-8v-26c0-4.418 3.582-8 8-8z" fill="#57e389"/>
  <path d="m76.977 55.453c1.4805-0.85547 3.3711-0.34766 4.2266 1.1328l6.7422 11.68c0.85547 1.4805 0.34766 3.3711-1.1328 4.2266-1.4805 0.85156-3.3711 0.34766-4.2266-1.1328l-6.7422-11.68c-0.85547-1.4805-0.34766-3.3711 1.1328-4.2266z" fill="url(#c)"/>
  <path d="m52.812 55.453c-1.4805-0.85547-3.3711-0.34766-4.2266 1.1328l-6.7422 11.68c-0.85547 1.4805-0.34766 3.3711 1.1328 4.2266 1.4805 0.85156 3.3711 0.34766 4.2266-1.1328l6.7422-11.68c0.85547-1.4805 0.34766-3.3711-1.1328-4.2266z" fill="url(#d)"/>
  <path d="m22 74h26c4.418 0 8 3.582 8 8v26c0 4.418-3.582 8-8 8h-26c-4.418 0-8-3.582-8-8v-26c0-4.418 3.582-8 8-8z" fill="url(#e)"/>
  <path d="m22 68h26c4.418 0 8 3.582 8 8v26c0 4.418-3.582 8-8 8h-26c-4.418 0-8-3.582-8-8v-26c0-4.418 3.582-8 8-8z" fill="#dc8add"/>
  <path d="m80 74h26c4.418 0 8 3.582 8 8v26c0 4.418-3.582 8-8 8h-26c-4.418 0-8-3.582-8-8v-26c0-4.418 3.582-8 8-8z" fill="url(#f)"/>
  <path d="m80 68h26c4.418 0 8 3.582 8 8v26c0 4.418-3.582 8-8 8h-26c-4.418 0-8-3.582-8-8v-26c0-4.418 3.582-8 8-8z" fill="#ffa348"/>
 </g>
</svg>
