<svg xmlns="http://www.w3.org/2000/svg" xml:space="preserve" width="64" height="64"><defs><linearGradient id="d" x1="7.937" x2="7.937" y1="15.081" y2="1.852" gradientTransform="scale(3.7796)" gradientUnits="userSpaceOnUse"><stop offset="0" stop-color="#f1efeb" style="stop-color:#c4d5c5;stop-opacity:1"/><stop offset="1" stop-color="#fdfcfc"/></linearGradient></defs><rect width="60" height="60" x="2" y="2" fill="url(#d)" rx="30" ry="30"/><path fill="#77767b" d="M30.355 49.267v-.41l-6.578-3.29v7.4zm0 0"/><path fill="none" stroke="#77767b" stroke-linecap="round" stroke-linejoin="round" stroke-width="2.467" d="M43.923 37.345V32.41a2.467 2.467 0 0 0-2.467-2.467H24.6M14.321 43.1v3.7a2.467 2.467 0 0 0 2.467 2.467h9.045m25.901-4.111h1.234a2.467 2.467 0 0 0 2.466-2.467V18.844a2.467 2.467 0 0 0-2.466-2.467h-4.934M14.321 26.655v-7.811a2.467 2.467 0 0 1 2.467-2.467h5.345"/><path fill="url(#a)" d="M58 32h32c3.313 0 6 2.688 6 6v4a6 6 0 0 1-6 6H58c-3.312 0-6-2.687-6-6v-4c0-3.312 2.688-6 6-6m0 0" transform="translate(5.688 4.865)scale(.41113)"/><path fill="#33d17a" d="M29.533 8.155H42.69a2.467 2.467 0 0 1 2.467 2.466v9.867a2.467 2.467 0 0 1-2.467 2.467H29.533a2.467 2.467 0 0 1-2.467-2.467v-9.867a2.467 2.467 0 0 1 2.467-2.466m0 0"/><path fill="#8ff0a4" d="M27.066 12.266h18.09v.822h-18.09Zm0 7.4h18.09v.822h-18.09Zm0 0"/><path fill="none" stroke="#9a9996" stroke-linecap="round" stroke-linejoin="round" stroke-width="2.467" d="M14.321 26.244v-7.811a2.467 2.467 0 0 1 2.467-2.467h5.345m21.79 20.968V32a2.467 2.467 0 0 0-2.467-2.467H24.6"/><path fill="#77767b" d="M27.066 16.377v-.411l-6.578-2.878v6.99zm0 0"/><path fill="none" stroke="#9a9996" stroke-linecap="round" stroke-linejoin="round" stroke-width="2.467" d="M51.734 44.745h1.234a2.467 2.467 0 0 0 2.466-2.467V18.433a2.467 2.467 0 0 0-2.466-2.467h-4.523"/><path fill="#1d7b50" d="M28.711 9.799h11.512v1.645H28.71Zm0 0"/><path fill="#26a269" d="M28.711 13.91h14.8v1.645h-2.466v1.644H28.71Zm0 0"/><path fill="url(#b)" d="M66 108h40c3.313 0 6 2.688 6 6v4a6 6 0 0 1-6 6H66c-3.312 0-6-2.687-6-6v-4c0-3.312 2.688-6 6-6m0 0" transform="translate(5.688 4.865)scale(.41113)"/><path fill="#33d17a" d="M32.822 34.467h16.445a2.467 2.467 0 0 1 2.467 2.467v14.8a2.467 2.467 0 0 1-2.467 2.467H32.822a2.467 2.467 0 0 1-2.467-2.467v-14.8a2.467 2.467 0 0 1 2.467-2.467m0 0"/><path fill="#8ff0a4" d="M30.355 38.578h21.38v.822h-21.38Zm0 9.867h21.38v.822h-21.38Zm0 0"/><path fill="#1d7b50" d="M32 36.111h11.512v1.645H32Zm0 0"/><path fill="#26a269" d="M32 41.045h18.09v3.289h-4.934v1.644H32Zm0 9.867h14.8v1.644H32Zm0 0"/><path fill="url(#c)" d="M10 76h24c3.313 0 6 2.688 6 6v4a6 6 0 0 1-6 6H10c-3.312 0-6-2.687-6-6v-4c0-3.312 2.688-6 6-6m0 0" transform="translate(5.688 4.865)scale(.41113)"/><path fill="#33d17a" d="M9.799 22.955h9.867a2.467 2.467 0 0 1 2.467 2.467v13.156a2.467 2.467 0 0 1-2.467 2.467H9.8a2.467 2.467 0 0 1-2.467-2.467V25.422A2.467 2.467 0 0 1 9.8 22.955m0 0"/><path fill="#8ff0a4" d="M7.332 27.066h14.8v.823h-14.8Zm0 8.223h14.8v.822h-14.8Zm0 0"/><path fill="#1d7b50" d="M8.977 24.6h9.045v1.644H8.977Zm0 0"/><path fill="#26a269" d="M8.977 29.533h11.511v1.645h-2.466v1.644H8.977Zm0 8.223h9.867V39.4H8.977Zm0 0"/><path fill="none" stroke="#9a9996" stroke-linecap="round" stroke-linejoin="round" stroke-width="2.467" d="M14.321 42.69v3.7a2.467 2.467 0 0 0 2.467 2.466h9.045"/><path fill="#9a9996" d="m30.355 48.856-6.578-3.7v7.4zm0 0"/><path fill="#77767b" d="M23.924 28.576 22.41 30.09a.956.956 0 0 0 0 1.35l1.513 1.513a.956.956 0 0 0 1.35 0l1.513-1.512a.956.956 0 0 0 0-1.351l-1.513-1.513a.956.956 0 0 0-1.35 0m0 0"/><path fill="#77767b" d="M22.133 29.533h4.933v1.234h-4.933Zm0 0"/><path fill="#deddda" d="M23.924 27.344 22.41 28.86a.954.954 0 0 0 0 1.349l1.513 1.514a.956.956 0 0 0 1.35 0l1.513-1.514a.954.954 0 0 0 0-1.35l-1.513-1.514a.956.956 0 0 0-1.35 0m0 0"/><path fill="#9a9996" d="m27.066 15.966-6.578-3.7v7.4zm0 0"/><path fill="#77767b" d="m46.948 15.01-1.512 1.513a.956.956 0 0 0 0 1.35l1.512 1.514a.956.956 0 0 0 1.351 0l1.513-1.513a.956.956 0 0 0 0-1.35l-1.513-1.514a.956.956 0 0 0-1.35 0m0 0"/><path fill="#77767b" d="M45.158 15.968h4.933V17.2h-4.933Zm0 0"/><path fill="#deddda" d="m46.948 13.779-1.512 1.512a.956.956 0 0 0 0 1.351l1.512 1.513a.956.956 0 0 0 1.351 0l1.513-1.513a.956.956 0 0 0 0-1.35l-1.513-1.513a.956.956 0 0 0-1.35 0m0 0"/></svg>