<svg xmlns="http://www.w3.org/2000/svg" width="64" height="64"><defs><linearGradient id="a" x1="7.937" x2="7.937" y1="15.081" y2="1.852" gradientTransform="scale(3.7796)" gradientUnits="userSpaceOnUse"><stop offset="0" stop-color="#be7e28"/><stop offset="1" stop-color="#fab252"/></linearGradient><filter id="b" width="1.278" height="1.312" x="-.139" y="-.156" color-interpolation-filters="sRGB"><feGaussianBlur stdDeviation="2.376"/></filter></defs><rect width="60" height="60" x="2" y="2" fill="url(#a)" rx="30" ry="30"/><path d="M11.509 16.327v33.664a1.464 1.464 0 0 0 1.464 1.464h4.39a1.464 1.464 0 0 0 1.464-1.464V22.182h1.464c.808 0 2.13-.03 2.917.146q2.283.508 2.792 2.792c.175.787.145 2.108.145 2.917v21.955a1.464 1.464 0 0 0 1.464 1.463h4.39a1.464 1.464 0 0 0 1.464-1.463V45.6h5.855v4.39a1.464 1.464 0 0 0 1.463 1.464h4.391a1.464 1.464 0 0 0 1.464-1.463V45.6h4.39a1.464 1.464 0 0 0 1.464-1.464V41.21a1.464 1.464 0 0 0-1.463-1.464h-4.391v-5.854a1.464 1.464 0 0 0-1.464-1.464h-4.39a1.464 1.464 0 0 0-1.464 1.464v5.854h-5.855V28.037c0-.809.009-2.122-.09-2.923-.591-4.837-4.053-9.336-8.698-10.126-.796-.136-2.112-.123-2.92-.123h-8.783a1.464 1.464 0 0 0-1.463 1.463z" filter="url(#b)" opacity=".15"/><path fill="#fff" d="M11.509 15.168v33.664a1.464 1.464 0 0 0 1.464 1.464h4.39a1.464 1.464 0 0 0 1.464-1.464V21.023h1.464c.808 0 2.13-.03 2.917.146q2.283.508 2.792 2.792c.175.787.145 2.108.145 2.917v21.955a1.464 1.464 0 0 0 1.464 1.463h4.39a1.464 1.464 0 0 0 1.464-1.463v-4.391h5.855v4.39a1.464 1.464 0 0 0 1.463 1.464h4.391a1.464 1.464 0 0 0 1.464-1.463v-4.391h4.39a1.464 1.464 0 0 0 1.464-1.464v-2.927a1.464 1.464 0 0 0-1.463-1.464h-4.391v-5.854a1.464 1.464 0 0 0-1.464-1.464h-4.39a1.464 1.464 0 0 0-1.464 1.464v5.854h-5.855V26.878c0-.809.009-2.122-.09-2.923-.591-4.837-4.053-9.336-8.698-10.126-.796-.136-2.112-.123-2.92-.123h-8.783a1.464 1.464 0 0 0-1.463 1.463z"/></svg>