<?xml version="1.0" encoding="UTF-8"?>
<svg width="64" height="64" version="1.1" xmlns="http://www.w3.org/2000/svg">
 <defs>
  <linearGradient id="linearGradient8" x1="32" x2="32" y1="52" y2="12" gradientUnits="userSpaceOnUse">
   <stop stop-color="#07f" offset="0"/>
   <stop stop-color="#00eaff" offset="1"/>
  </linearGradient>
  <linearGradient id="linearGradient862-3-9" x1="7.9373" x2="7.9373" y1="15.081" y2="1.852" gradientTransform="matrix(4.0494,0,0,4.0494,-2.2856,-2.2519)" gradientUnits="userSpaceOnUse">
   <stop stop-color="#f1efeb" offset="0"/>
   <stop stop-color="#fdfcfc" offset="1"/>
  </linearGradient>
  <filter id="filter7" x="-.027" y="-.027" width="1.054" height="1.054" color-interpolation-filters="sRGB">
   <feGaussianBlur stdDeviation="0.675"/>
  </filter>
 </defs>
 <rect x="2" y="3" width="60" height="60" rx="30" ry="30" filter="url(#filter7)" opacity=".15"/>
 <rect x="2" y="2" width="60" height="60" rx="30" ry="30" fill="url(#linearGradient862-3-9)" stroke-width="4.0494"/>
 <rect width="64" height="64" rx="0" ry="0" fill="none" style="paint-order:stroke fill markers"/>
 <path d="m32.707 12c-0.24926 0-0.49942 0.065113-0.72266 0.19531-0.43899 0.25296-0.69922 0.69915-0.69922 1.2051v2.2031c-7.1875 0.30504-13.275 5.17-15.135 12.119-2.2991 0.074402-4.1504 1.9654-4.1504 4.2793 0 2.3213 1.8513 4.2029 4.1504 4.2773 0.99702 3.6977 3.2436 6.9356 6.3984 9.1602l0.82617-1.1699c-2.8348-1.994-4.8649-4.8802-5.7949-8.1836 1.7336-0.55057 2.9902-2.1719 2.9902-4.084s-1.2565-3.5354-2.9902-4.0859c1.7485-6.2274 7.2322-10.58 13.705-10.885v2.1426c0 0.50593 0.26023 0.95407 0.69922 1.207 0.22321 0.12648 0.46968 0.19336 0.72266 0.19336 0.24554 0 0.49749-0.06688 0.7207-0.19336l3.959-2.3066c0.65476-0.372 1.041-1.0431 1.041-1.7871s-0.38622-1.4132-1.041-1.7852l-3.959-2.3066c-0.22321-0.1302-0.47144-0.19531-0.7207-0.19531zm0 1.4297 3.9648 2.3066c0.29762 0.17112 0.32812 0.43918 0.32812 0.55078s-0.030515 0.37966-0.32812 0.55078l-3.959 2.2988-0.00586-5.707zm8.7422 5.1348-0.82617 1.168c2.8348 1.994 4.8669 4.8802 5.7969 8.1836-1.7336 0.55057-2.9922 2.1719-2.9922 4.084s1.2589 3.5354 3 4.0859c-1.756 6.2274-7.2395 10.58-13.713 10.885v-2.1426c0-0.50593-0.26218-0.95212-0.70117-1.2051-0.44643-0.2604-0.99688-0.2604-1.4434 0l-3.957 2.3066c-0.65476 0.372-1.043 1.0412-1.043 1.7852s0.38817 1.4132 1.043 1.7852l3.957 2.3066c0.22322 0.12648 0.47713 0.19336 0.72266 0.19336 0.25298 0 0.49748-0.06689 0.7207-0.19336 0.43899-0.25296 0.70117-0.69915 0.70117-1.2051v-2.2031c7.1875-0.30504 13.273-5.17 15.133-12.119 2.2984-0.074381 4.1513-1.9663 4.1523-4.2793-0.001045-2.3204-1.8539-4.203-4.1523-4.2773-0.99702-3.6977-3.2436-6.9336-6.3984-9.1582zm-9.4492 5.5801c-4.3303 0-7.8574 3.5272-7.8574 7.8574s3.5271 7.8555 7.8574 7.8555c4.3304 0 7.8574-3.5253 7.8574-7.8555s-3.5271-7.8574-7.8574-7.8574zm0 1.4277c3.5417 0 6.4277 2.8882 6.4277 6.4297s-2.886 6.4277-6.4277 6.4277-6.4277-2.8862-6.4277-6.4277 2.886-6.4297 6.4277-6.4297zm-15.715 3.5723c1.5773 0 2.8574 1.2801 2.8574 2.8574s-1.2801 2.8555-2.8574 2.8555-2.8574-1.2782-2.8574-2.8555 1.2801-2.8574 2.8574-2.8574zm15.715 0c-1.5774 0-2.8574 1.2801-2.8574 2.8574s1.2801 2.8555 2.8574 2.8555 2.8574-1.2782 2.8574-2.8555-1.2801-2.8574-2.8574-2.8574zm15.715 0c1.5773 0 2.8574 1.2801 2.8574 2.8574s-1.2801 2.8555-2.8574 2.8555c-1.5774 0-2.8574-1.2782-2.8574-2.8555s1.2801-2.8574 2.8574-2.8574zm-16.43 15.684v5.7363l-3.957-2.2988c-0.29762-0.17112-0.32812-0.43918-0.32812-0.55078s0.030505-0.37966 0.32812-0.55078l3.957-2.3359z" fill="url(#linearGradient8)"/>
</svg>
