<svg width="64" height="64" version="1.1" viewBox="0 0 64 64" xmlns="http://www.w3.org/2000/svg" xmlns:xlink="http://www.w3.org/1999/xlink">
 <defs>
  <filter id="f" x="-.029686" y="-.029686" width="1.0594" height="1.0594" color-interpolation-filters="sRGB">
   <feGaussianBlur stdDeviation=".298"/>
  </filter>
  <filter id="e-6" x="-.013864" y="-.013864" width="1.0277" height="1.0277" color-interpolation-filters="sRGB">
   <feGaussianBlur stdDeviation=".298"/>
  </filter>
  <linearGradient id="b-7" x1="520" x2="520" y1="4" y2="1024" gradientTransform="matrix(.06356 0 0 .06356 -.546 -.546)" gradientUnits="userSpaceOnUse">
   <stop stop-color="#d7d7d7" offset="0"/>
   <stop stop-color="#fff" offset="1"/>
  </linearGradient>
  <filter id="a-5" x="-.036" y="-.036" width="1.072" height="1.072" color-interpolation-filters="sRGB">
   <feGaussianBlur stdDeviation="14.16"/>
  </filter>
 </defs>
 <linearGradient id="b" x1="24" x2="104.18" y1="72" y2="72" gradientUnits="userSpaceOnUse">
  <stop stop-color="#e66100" offset="0"/>
  <stop stop-color="#e66100" offset=".06505"/>
  <stop stop-color="#e66100" offset=".11498"/>
  <stop stop-color="#e66100" offset=".18569"/>
  <stop stop-color="#e66100" offset=".24286"/>
  <stop stop-color="#e66100" offset=".31723"/>
  <stop stop-color="#e66100" offset=".44832"/>
  <stop stop-color="#ffb780" offset=".50244"/>
  <stop stop-color="#e66100" offset=".56327"/>
  <stop stop-color="#e66100" offset=".71916"/>
  <stop stop-color="#e66100" offset=".79627"/>
  <stop stop-color="#e66100" offset=".85701"/>
  <stop stop-color="#e66100" offset="1"/>
 </linearGradient>
 <linearGradient id="c" gradientUnits="userSpaceOnUse">
  <stop stop-color="#bb5e00" offset="0"/>
  <stop stop-color="#ffa954" offset=".053039"/>
  <stop stop-color="#eb7400" offset=".11772"/>
  <stop stop-color="#9a4c00" offset=".25693"/>
  <stop stop-color="#ff9d40" offset=".59296"/>
  <stop stop-color="#d36900" offset=".87488"/>
  <stop stop-color="#ffc080" offset=".93456"/>
  <stop stop-color="#ae5700" offset="1"/>
 </linearGradient>
 <linearGradient id="d" x1="38.374" x2="89.689" y1="56" y2="56" xlink:href="#c"/>
 <linearGradient id="e" x1="25.383" x2="104" y1="54.15" y2="56" xlink:href="#c"/>
 <path transform="matrix(.06356 0 0 .06356 -.546 -.546)" d="m929.85 289.65c-2.35-4.35-4.95-9-7.65-13.6-20.3-34.5-45.8-67.2-76.35-97.75-72.6-72.6-157.15-116.65-253.65-132.05-16.25-2.6-32.8-4.4-50.05-5.35-9.7-0.55-19.85-0.85-30.1-0.85-9.35 0-18.6 0.25-27.9 0.75-118.35 6.1-220.3 51.95-305.85 137.5-20.5 20.5-38.75 41.95-54.7 64.4-15.35 21.55-28.55 44-39.6 67.2l-0.025-0.025q-43.925 91.998-43.925 202.18c0 130.35 46.1 241.65 138.25 333.8 56.7 56.65 120.55 95.9 191.1 117.55 36.75 11.25 74.8 17.85 114.75 19.95h0.4c8.5 0.45 16.6 0.7 24.5 0.7h3c10.3 0 20.5-0.3 30.1-0.8 2.5-0.15 4.75-0.3 6.95-0.45 20.2-1.45 39.9-4.05 58.7-7.7 7.95-1.55 15.8-3.3 23.4-5.15 80.8-20.3 152.15-61.6 214.65-124.1 48.6-48.6 84.4-102.5 107.35-161.8 18.45-47.65 28.65-98.8 30.55-153.5 0.2-6.05 0.3-12.25 0.3-18.5v-3c-0.2-40.65-4.95-79.5-14.3-117-1.1-4.35-2.35-9-3.65-13.6-1-3.4-2-6.85-3.15-10.5-1.6-5.15-3.4-10.5-5.3-15.85-5.05-14.25-10.85-28.25-17.45-42.15-1.85-3.8-3.75-7.65-5.7-11.5-1.45-2.85-2.95-5.7-4.65-8.8z" filter="url(#a-5)" opacity=".25" stroke-width="15.683"/>
 <path d="m58.555 17.864c-0.14937-0.27649-0.31462-0.57204-0.48623-0.86442-1.2903-2.1928-2.911-4.2712-4.8528-6.213-4.6145-4.6145-9.9885-7.4143-16.122-8.3931-1.0328-0.16526-2.0848-0.27966-3.1812-0.34005-0.61653-0.034958-1.2617-0.054026-1.9132-0.054026-0.59429 0-1.1822 0.01589-1.7733 0.04767-7.5223 0.38772-14.002 3.3019-19.44 8.7395-1.303 1.303-2.463 2.6663-3.4767 4.0933-0.97565 1.3697-1.8146 2.7966-2.517 4.2712l-0.00159-0.0016q-2.7919 5.8474-2.7919 12.851c0 8.285 2.9301 15.359 8.7872 21.216 3.6039 3.6007 7.6622 6.0954 12.146 7.4715 2.3358 0.71505 4.7543 1.1345 7.2935 1.268h0.02542c0.54026 0.0286 1.0551 0.04449 1.5572 0.04449h0.19068c0.65467 0 1.303-0.01907 1.9132-0.05085 0.1589-0.0095 0.30191-0.01907 0.44174-0.0286 1.2839-0.09216 2.536-0.25742 3.731-0.48941 0.5053-0.09852 1.0042-0.20975 1.4873-0.32733 5.1356-1.2903 9.6707-3.9153 13.643-7.8878 3.089-3.089 5.3645-6.5149 6.8232-10.284 1.1727-3.0286 1.821-6.2797 1.9418-9.7565 0.01271-0.38454 0.01907-0.77861 0.01907-1.1759v-0.19068c-0.01271-2.5837-0.31462-5.053-0.90891-7.4365-0.06992-0.27649-0.14937-0.57204-0.23199-0.86442-0.06356-0.2161-0.12712-0.43539-0.20021-0.66738-0.1017-0.32733-0.2161-0.66738-0.33687-1.0074-0.32098-0.90573-0.68963-1.7956-1.1091-2.6791-0.11759-0.24153-0.23835-0.48623-0.36229-0.73094-0.09216-0.18115-0.1875-0.36229-0.29555-0.55933z" fill="url(#b-7)" stroke-width=".99681"/>
 <path d="m10.787 10.787a29.934 29.934 0 0 0 0 42.426c0.119 0.119 0.242 0.23 0.362 0.345-11.4-11.775-11.288-30.43 0.345-42.065s30.29-11.743 42.066-0.345c-0.116-0.12-0.227-0.243-0.345-0.362a29.934 29.934 0 0 0-42.426 0z" fill="#ffffff" filter="url(#e-6)"/>
 <path d="m37.435 61.526c5.772-1.063 11.297-3.831 15.779-8.313s7.25-10.007 8.313-15.779c-1.592 5.434-4.606 10.657-9.02 15.072s-9.639 7.428-15.072 9.02" fill="#ffffff" filter="url(#f)"/>
 <g transform="matrix(.49812 0 0 .49812 .10507 1.3854)">
  <path d="m64.195 74.062c-4.9492 0.0039-8.9648 4.0156-8.9648 8.9688s4.0156 8.9688 8.9648 8.9688c4.957 0 8.9727-4.0156 8.9688-8.9688 0-4.9531-4.0156-8.9688-8.9688-8.9688z" fill="url(#b)"/>
  <path d="m64.031 53.422c-8.7539 0-17.508 3.3242-24.156 9.9727-2.0039 2-2.0039 5.2461 0 7.25 2 2 5.2461 2 7.25 0 9.3789-9.3828 24.434-9.3867 33.816-0.0039 2 2 5.2461 2.0039 7.2461 0.0039 2.0039-2.0039 2.0039-5.25 0-7.25-6.6484-6.6484-15.402-9.9727-24.156-9.9727z" fill="url(#d)"/>
  <path d="m64.031 32.926c-14-0.0039-27.996 5.3242-38.648 15.977-2.0039 2-2.0039 5.2461 0 7.2461 2 2.0039 5.2461 2 7.2461 0 17.387-17.387 45.418-17.387 62.805 0 2 2 5.2461 2 7.2461 0 2.0039-2 2.0039-5.2461 0-7.2461-10.648-10.652-24.648-15.98-38.648-15.977z" fill="url(#e)"/>
  <path d="m64.031 30.922c-14 0-27.996 5.3281-38.648 15.98-2.0039 2-2.0039 5.2461 0 7.2461 2 2.0039 5.2461 2 7.2461 0 17.387-17.387 45.418-17.387 62.805 0 2 2 5.2461 2 7.2461 0 2.0039-2 2.0039-5.2461 0-7.2461-10.648-10.652-24.648-15.98-38.648-15.98zm0 20.5c-8.7539 0-17.508 3.3242-24.156 9.9727-2.0039 2-2.0039 5.2461 0 7.2461 2 2.0039 5.2461 2.0039 7.25 0 9.3789-9.3789 24.434-9.3828 33.816 0 2 2 5.2461 2.0039 7.2461 0 2.0039-2 2.0039-5.2461 0-7.2461-6.6484-6.6484-15.402-9.9727-24.156-9.9727zm0.16406 20.641c-4.9492 0.0039-8.9648 4.0156-8.9648 8.9688s4.0156 8.9688 8.9648 8.9688c4.957 0 8.9727-4.0156 8.9688-8.9688 0-4.9531-4.0156-8.9688-8.9688-8.9688z" fill="#ffa348"/>
 </g>
</svg>
