<svg xmlns="http://www.w3.org/2000/svg" width="64" height="64"><defs><linearGradient id="d" x1="13" x2="40" y1="11" y2="19" gradientTransform="matrix(1.1627 .32854 -.32854 1.1627 325.63 407.16)" gradientUnits="userSpaceOnUse"><stop offset="0" stop-color="#fff" stop-opacity=".598"/><stop offset="1" stop-color="#4e9a06" stop-opacity="0"/></linearGradient><linearGradient id="c" x1="33" x2="4" y1="33" y2="5" gradientTransform="matrix(1.1627 .32854 -.32854 1.1627 327.75 406.93)" gradientUnits="userSpaceOnUse"><stop offset="0" stop-color="#41a100"/><stop offset="1" stop-color="#fff" stop-opacity="0"/></linearGradient><linearGradient id="b" x1="-39.605" x2="-39.605" y1="58.247" y2="6.988" gradientTransform="translate(70.543 .42)" gradientUnits="userSpaceOnUse"><stop offset="0" stop-color="#f1efeb"/><stop offset="1" stop-color="#fdfcfc"/></linearGradient><filter id="a" width="1.078" height="1.078" x="-.039" y="-.039" color-interpolation-filters="sRGB"><feGaussianBlur stdDeviation=".972"/></filter></defs><circle cx="32" cy="32" r="30" filter="url(#a)" opacity=".15" style="isolation:isolate;paint-order:stroke fill markers"/><circle cx="32" cy="32" r="30" fill="url(#b)" style="isolation:isolate;paint-order:stroke fill markers"/><rect width="64" height="64" fill="none" rx="0" ry="0" style="paint-order:stroke fill markers"/><g fill="#c5f199"><path d="M45.433 14.747C41.14 17.144 24.34 14.67 17.196 32.61c-1.003 4.738-.484 11.267 4.095 11.559.948.06 1.803.702 2.25 1.43 2.925 4.764 7.141 4.35 8.886 2.075.335-.437.971-.312 1.424.036 5.274 4.053 8.81-2.363 10.612-7.395.717-2.2 4.318-19.447 2.897-21.29-.423-.55-2.276 1.038-3.89 2.733-12.904 13.546-21.466 3.433 1.486-6.67l.349-.419.238.098"/><path fill-rule="evenodd" d="m27.748 47.37 3.082-10.907m-10.492 5.869 1.798-6.363m14.562 10.986 1.798-6.363"/></g><g fill="#73d216"><path d="M45.992 21.829c-5.473 6.385-16.196 11.346-17.108 5.872-.45-2.699 2.737-6.385 8.21-10.034-6.313 1.788-17.75 7.363-18.659 16.168-1.326 3.394-.45 10.633 3.654 9.51 1.094-.3 2.436.959 2.728 2.078.623 2.377 5.148 3.012 6.464 1.974.97-.765 2.587-.91 3.66-.317 4.699 2.593 6.955-4.046 7.684-6.707 4.24-9.35 2.455-14.896 3.367-18.544z"/><path fill-rule="evenodd" d="m36.698 46.955 1.798-6.363M27.748 47.37l3.082-10.907m-10.492 5.869 1.798-6.363"/></g><path fill="url(#c)" fill-rule="evenodd" d="M329.51 447.61c2.71-5.297 7.726-5.358 16.512-2.48 5.834 0 13.676-5.523 18.11-10.472.994 19.206-7.56 38.55-15.177 31.016-1.018-1.007-1.785.096-3.29.937-1.44.806-2.131.93-3.685.528-5.122.324-6.116-7.929-8.389-6.264-4.311 3.157-5.861-5.784-4.081-13.265z" transform="translate(-238.8 -317.6) scale(.78171)"/><path fill="none" stroke="#c5f199" stroke-linecap="round" stroke-width="2.834" d="M22.713 43.769c-.258-2.245-.543-6.471 1.423-8.925m8.528 2.484c-2.265 5.915-.792 6.915.31 10.13h0l-.14-.488"/><g fill="none" stroke="#204c00" stroke-width=".828"><path stroke-linejoin="round" stroke-width=".782" d="M46.651 14.48c-4.386.814-24.893 3.123-29.454 18.36-1.332 5.158-.583 12.173 5.353 11.914.42-.018.464.12.613.474 2.444 5.782 8.458 4.73 9.81 2.464.193-.323-.291-.2 0 0 6.125 4.193 9.462-1.61 11.391-6.782 2.356-4.487 3.797-23.169 2.536-21.96-21.482 20.586-21.441 2.455-.248-4.47"/><path stroke-linecap="round" stroke-linejoin="bevel" stroke-width=".782" d="M23.16 44.856c-1.543-7.028.268-8.264.972-10.153m8.775 12.833c-2.004-4.24-1.671-7.74-.247-10.348"/></g><path fill="url(#d)" fill-rule="evenodd" d="M351.92 429.59c.185-2.304-22.609 7.325-22.318 18.169 3.968-5.156 7.823-5.581 14.15-3 4.613 4.31-9.182-3.547 8.168-15.17z" transform="translate(-238.8 -317.6) scale(.78171)"/></svg>