<svg xmlns="http://www.w3.org/2000/svg" width="64" height="64"><defs><linearGradient id="b" x1="7.937" x2="7.937" y1="15.081" y2="1.852" gradientTransform="translate(-2.286 -2.252)scale(4.0494)" gradientUnits="userSpaceOnUse"><stop offset="0" stop-color="#f1efeb"/><stop offset="1" stop-color="#fdfcfc"/></linearGradient><filter id="a" width="1.054" height="1.054" x="-.027" y="-.027" color-interpolation-filters="sRGB"><feGaussianBlur stdDeviation=".675"/></filter></defs><rect width="60" height="60" x="2" y="3" filter="url(#a)" opacity=".15" rx="30" ry="30"/><rect width="60" height="60" x="2" y="2" fill="url(#b)" rx="30" ry="30"/><path fill="#69e683" d="M15.037 16a3.197 3.197 0 0 0-3.21 3.196v25.61A3.195 3.195 0 0 0 15.036 48h21.595c2.231 0 3.765-1.198 4.953-2.295l8.476-8.69a6.98 6.98 0 0 0 2.113-4.995 6.98 6.98 0 0 0-2.113-4.993l-8.56-8.682C40.14 16.995 38.259 16 35.89 16zm30.18 13.217A2.78 2.78 0 0 1 48 32a2.782 2.782 0 1 1-2.783-2.783"/><path fill="#176642" d="M22.26 20.87v7.652h2.783v2.087h-5.565v4.174h-2.782v7.652h7.652v-7.653h-2.783v-2.086h9.044v2.086h-2.783v7.653h7.652v-7.653h-2.782V30.61H27.13v-2.087h2.783V20.87z"/></svg>