<?xml version="1.0" encoding="UTF-8"?>
<svg width="64" height="64" version="1.1" xmlns="http://www.w3.org/2000/svg">
 <defs>
  <linearGradient id="linearGradient862-3-8" x1="7.9373" x2="7.9373" y1="15.081" y2="1.852" gradientTransform="matrix(4.0494,0,0,4.0494,-2.2856,-2.2519)" gradientUnits="userSpaceOnUse">
   <stop stop-color="#f1efeb" offset="0"/>
   <stop stop-color="#fdfcfc" offset="1"/>
  </linearGradient>
  <filter id="filter7" x="-.027" y="-.027" width="1.054" height="1.054" color-interpolation-filters="sRGB">
   <feGaussianBlur stdDeviation="0.675"/>
  </filter>
 </defs>
 <rect x="2" y="3" width="60" height="60" rx="30" ry="30" filter="url(#filter7)" opacity=".15"/>
 <rect x="2" y="2" width="60" height="60" rx="30" ry="30" fill="url(#linearGradient862-3-8)" stroke-width="4.0494"/>
 <g transform="matrix(.69565 0 0 .69565 9.7391 9.7391)">
  <path d="m7.6152 9c-2.5569 0-4.6152 2.0499-4.6152 4.5938v36.814c0 2.5438 2.0584 4.5918 4.6152 4.5918h31.043c3.2078 0 5.4129-1.7214 7.1211-3.2988l12.184-12.492c1.9406-1.8901 3.0351-4.4777 3.0371-7.1797-0.002089-2.7001-1.0965-5.2875-3.0371-7.1777l-12.309-12.48c-1.9508-1.9409-4.6567-3.3711-8.0605-3.3711zm43.385 19c2.2088-2e-3 4 1.7906 4 4 0 2.2113-1.7912 4.0019-4 4-2.2088 0-4-1.7887-4-4 0-2.2094 1.7912-4 4-4z" fill="#69e683"/>
  <path d="m18 16v11h4v3h-8v6h-4v11h11v-11h-4v-3h13v3h-4v11h11v-11h-4v-6h-8v-3h4v-11z" fill="#176642"/>
 </g>
</svg>
