<svg width="64" height="64" xmlns="http://www.w3.org/2000/svg"><defs><filter id="a" x="-.036" y="-.036" width="1.072" height="1.072" color-interpolation-filters="sRGB"><feGaussianBlur stdDeviation="14.344"/></filter><filter id="c" x="-.075" y="-.05" width="1.15" height="1.1" color-interpolation-filters="sRGB"><feGaussianBlur stdDeviation=".875"/></filter><filter id="e" x="-.06" y="-.06" width="1.12" height="1.12" color-interpolation-filters="sRGB"><feGaussianBlur stdDeviation=".25"/></filter><linearGradient id="b" x1="32" x2="32" y1="4.493" y2="62" gradientUnits="userSpaceOnUse"><stop stop-color="#efca6b" offset="0"/><stop stop-color="#e4c030" offset="1"/></linearGradient><linearGradient id="d" x1="31.401" x2="31.401" y1="51.978" y2="12.392" gradientUnits="userSpaceOnUse"><stop stop-color="#d18217" offset="0"/><stop stop-color="#eaa13e" offset="1"/></linearGradient></defs><circle transform="matrix(.06274 0 0 .06274 -.125 -.125)" cx="512" cy="512" r="478.12" filter="url(#a)" opacity=".15" style="paint-order:stroke markers fill"/><circle cx="32" cy="32" r="30" fill="url(#b)" style="paint-order:stroke markers fill"/><rect x="18" y="11" width="28" height="42" ry="3" filter="url(#c)" opacity=".15" style="paint-order:stroke fill markers"/><rect x="18" y="11" width="28" height="42" ry="3" fill="url(#d)" style="paint-order:stroke fill markers"/><path d="M29 40c-1.108 0-2 .892-2 2v6c0 1.108.892 2 2 2h6c1.108 0 2-.892 2-2v-6c0-1.108-.892-2-2-2h-6zm5 1a1 1 0 0 1 1 1 1 1 0 0 1-1 1 1 1 0 0 1-1-1 1 1 0 0 1 1-1zm-3 2a2 2 0 0 1 2 2 2 2 0 0 1-2 2 2 2 0 0 1-2-2 2 2 0 0 1 2-2z" filter="url(#e)" opacity=".15" style="paint-order:stroke fill markers"/><rect x="28" y="41" width="8" height="6" ry="0" fill="#cc8e22" style="paint-order:stroke fill markers"/><path d="M29 40c-1.108 0-2 .892-2 2v6c0 1.108.892 2 2 2h6c1.108 0 2-.892 2-2v-6c0-1.108-.892-2-2-2h-6zm5 1a1 1 0 0 1 1 1 1 1 0 0 1-1 1 1 1 0 0 1-1-1 1 1 0 0 1 1-1zm-3 2a2 2 0 0 1 2 2 2 2 0 0 1-2 2 2 2 0 0 1-2-2 2 2 0 0 1 2-2z" fill="#ffb22b" style="paint-order:stroke fill markers"/><path d="M21 14v20h22V14zm2 2h18v16H23z" fill="#fff"/><path d="M31 14v18h-4v5h10v-5h-4V14z" fill="#ccc"/></svg>