<svg xmlns="http://www.w3.org/2000/svg" width="64" height="64" enable-background="new 0 0 1024 1024" image-rendering="optimizeSpeed"><defs><linearGradient id="b" x1="540" x2="540" y1="4" y2="1024" gradientUnits="userSpaceOnUse"><stop offset="0" stop-color="#383838"/><stop offset="1" stop-color="#464646"/></linearGradient><linearGradient id="c" x1="567.9" x2="567.9" y1="28.9" y2="1062.3" gradientTransform="translate(-165.81 -170.27) scale(1.3071)" gradientUnits="userSpaceOnUse"><stop offset="0" stop-color="#fff"/><stop offset="1" stop-color="#d7d7d7"/></linearGradient><filter id="a" width="1.072" height="1.072" x="-.036" y="-.036" color-interpolation-filters="sRGB"><feGaussianBlur stdDeviation="14.204"/></filter></defs><g stroke-width="15.721"><path d="M727.2 91.75c-8.7-4.35-17.85-8.65-27.25-12.7-8.6-3.75-17.15-7.2-25.9-10.4C631.95 52.9 589.8 43.3 547.6 40c-69.4-5.6-138.95 5.4-208.9 33-23.45 9.3-45.65 19.9-66.6 31.9-41.3 23.7-77.6 52.65-108.5 86.7Q112 248.2 79.05 324.15C58.8 370.8 46.2 417.6 41.2 463.8c-.45 4.45-.85 8.6-1.2 12.75-3.7 45.6-.2 90.75 10.25 136C55.95 637.1 63.5 661.3 73 685.4c27.7 69.95 67.25 128.4 118.55 175.1 31.45 28.65 67.2 52.85 107.3 72.8.15.05.25.1.35.15 3.1 1.55 6.1 3 8.65 4.15 4.9 2.35 9.25 4.35 13.6 6.25 1.1.45 1.9.85 2.75 1.2 9.45 4.1 18.9 7.85 27.9 11.2 2.35.85 4.5 1.65 6.6 2.4 19.05 6.7 38.2 12.15 56.9 16.3 7.9 1.7 15.8 3.25 23.5 4.55.95.2 1.95.3 2.7.45 11.65 1.85 23.2 3.25 34.75 4.2 69.8 5.45 139.2-5.55 208.85-33.05 24.35-9.6 47.3-20.65 68.8-33.15 35.1-20.35 66.45-44.5 94.1-72.5 4.15-4.2 8.2-8.5 12.25-12.9a444.9 444.9 0 0 0 24.25-29.1c20.05-26.15 37.55-55.1 52.6-86.7 2.6-5.5 5.15-11.1 7.65-16.85.25-.6.55-1.25.8-1.85.15-.3.25-.6.4-.9 2.8-6.6 5.45-13.25 8.1-20C966 646.5 974.5 615.5 979.7 584.1c.7-4.4 1.4-9.15 2.1-13.9.9-7.35 1.75-14.85 2.35-22.6.1-1.45.25-3.15.4-4.95 1.3-19.3 1.3-38.7.1-58.4-.45-6.4-1-12.9-1.7-19.6-.2-1.85-.45-3.85-.7-5.85-2-16.4-4.95-32.85-8.95-49.7-5.45-23.15-12.85-46.75-22.2-70.4-27.55-69.75-67-128.05-118.6-175.1-18.75-17.1-39.35-32.8-61.55-46.95-13.85-8.9-28.3-17.1-43.75-24.9z" filter="url(#a)" opacity=".25" transform="translate(-.631 -.25) scale(.06336)"/><path fill="url(#b)" d="M727.2 91.75c-8.7-4.35-17.85-8.65-27.25-12.7-8.6-3.75-17.15-7.2-25.9-10.4C631.95 52.9 589.8 43.3 547.6 40c-69.4-5.6-138.95 5.4-208.9 33-23.45 9.3-45.65 19.9-66.6 31.9-41.3 23.7-77.6 52.65-108.5 86.7Q112 248.2 79.05 324.15C58.8 370.8 46.2 417.6 41.2 463.8c-.45 4.45-.85 8.6-1.2 12.75-3.7 45.6-.2 90.75 10.25 136C55.95 637.1 63.5 661.3 73 685.4c27.7 69.95 67.25 128.4 118.55 175.1 31.45 28.65 67.2 52.85 107.3 72.8.15.05.25.1.35.15 3.1 1.55 6.1 3 8.65 4.15 4.9 2.35 9.25 4.35 13.6 6.25 1.1.45 1.9.85 2.75 1.2 9.45 4.1 18.9 7.85 27.9 11.2 2.35.85 4.5 1.65 6.6 2.4 19.05 6.7 38.2 12.15 56.9 16.3 7.9 1.7 15.8 3.25 23.5 4.55.95.2 1.95.3 2.7.45 11.65 1.85 23.2 3.25 34.75 4.2 69.8 5.45 139.2-5.55 208.85-33.05 24.35-9.6 47.3-20.65 68.8-33.15 35.1-20.35 66.45-44.5 94.1-72.5 4.15-4.2 8.2-8.5 12.25-12.9a444.9 444.9 0 0 0 24.25-29.1c20.05-26.15 37.55-55.1 52.6-86.7 2.6-5.5 5.15-11.1 7.65-16.85.25-.6.55-1.25.8-1.85.15-.3.25-.6.4-.9 2.8-6.6 5.45-13.25 8.1-20C966 646.5 974.5 615.5 979.7 584.1c.7-4.4 1.4-9.15 2.1-13.9.9-7.35 1.75-14.85 2.35-22.6.1-1.45.25-3.15.4-4.95 1.3-19.3 1.3-38.7.1-58.4-.45-6.4-1-12.9-1.7-19.6-.2-1.85-.45-3.85-.7-5.85-2-16.4-4.95-32.85-8.95-49.7-5.45-23.15-12.85-46.75-22.2-70.4-27.55-69.75-67-128.05-118.6-175.1-18.75-17.1-39.35-32.8-61.55-46.95-13.85-8.9-28.3-17.1-43.75-24.9z" transform="translate(-.631 -.25) scale(.06336)"/></g><g fill="none" stroke-linecap="round" stroke-linejoin="round" stroke-width="42.399"><path stroke="#fff" stroke-width="2" d="M56 32q0 1.153-.092 2.269C55.42 39.935 53.11 44.83 48.97 48.97 44.284 53.656 38.627 56 31.999 56s-12.285-2.344-16.971-7.03c-4.134-4.134-6.447-9.024-6.933-14.702A25.606 25.606 0 0 1 8 31.999c0-6.627 2.343-12.284 7.029-16.97S25.372 7.999 32 7.999s12.285 2.344 16.971 7.03 7.03 10.343 7.03 16.97z"/><path stroke="url(#c)" d="M1043.1 585.11H768.61L654.89 207.36l-96.726 498.53-115.03-498.53-139.86 661.4-83.655-283.64H29.499C39.825 705.5 88.842 809.16 176.479 896.8c99.34 99.34 219.27 149.01 359.78 149.01s260.44-49.67 359.78-149.01c87.772-87.772 136.72-191.56 147.05-311.68z" transform="translate(6.702 6.669) scale(.04717)"/></g></svg>