<svg width="64" height="64" enable-background="new 0 0 1024 1024" image-rendering="optimizeSpeed" version="1.1" xmlns="http://www.w3.org/2000/svg">
 <defs>
  <linearGradient id="b" x1="33.27" x2="33.27" y1="5.514" y2="62.082" gradientTransform="translate(-3.288 -3.848)scale(1.0607)" gradientUnits="userSpaceOnUse">
   <stop stop-color="#eee" offset="0"/>
   <stop stop-color="#fbfbf5" offset="1"/>
  </linearGradient>
  <filter id="a" x="-.035999" y="-.035999" width="1.072" height="1.072" color-interpolation-filters="sRGB">
   <feGaussianBlur stdDeviation="14.17"/>
  </filter>
  <filter id="d-2" x="-.013864" y="-.013864" width="1.0277" height="1.0277" color-interpolation-filters="sRGB">
   <feGaussianBlur stdDeviation=".298"/>
  </filter>
  <filter id="f" x="-.029686" y="-.029686" width="1.0594" height="1.0594" color-interpolation-filters="sRGB">
   <feGaussianBlur stdDeviation=".298"/>
  </filter>
 </defs>
 <path transform="translate(-.544 -.493)scale(.06351)" d="M970.43 391.52a515 515 0 0 0-3.653-13.61c-1-3.403-2.001-6.855-3.152-10.508a422 422 0 0 0-5.304-15.862c-6.455-18.263-14.16-36.076-23.167-53.689a475 475 0 0 0-12.309-22.416c-20.315-34.525-45.833-67.249-76.406-97.821-72.653-72.653-157.26-116.74-253.84-132.15a484 484 0 0 0-50.087-5.354c-9.707-.55-19.865-.85-30.122-.85-9.357 0-18.614.25-27.92.75-118.44 6.105-220.46 51.988-306.07 137.6Q40.05 315.96 40.05 511.6c0 130.45 46.134 241.83 138.35 334.04 56.741 56.691 120.64 95.97 191.24 117.64 36.777 11.258 74.855 17.863 114.83 19.965h.4c8.507.45 16.612.7 24.518.7h3.003a583 583 0 0 0 30.122-.8c2.501-.15 4.753-.3 6.955-.45 20.215-1.451 39.929-4.053 58.743-7.706a520 520 0 0 0 23.417-5.154c80.859-20.315 152.26-61.645 214.81-124.19 48.636-48.636 84.462-102.57 107.43-161.92 18.463-47.685 28.67-98.872 30.572-153.61.2-6.054.3-12.259.3-18.514V508.6c-.2-40.68-4.954-79.558-14.31-117.09z" filter="url(#a)" opacity=".25"/>
 <circle cx="32" cy="32" r="30" fill="url(#b)" fill-rule="evenodd" style="paint-order:normal"/>
 <path d="m10.787 10.787a29.934 29.934 0 0 0 0 42.426c0.119 0.119 0.242 0.23 0.362 0.345-11.4-11.775-11.288-30.43 0.345-42.065s30.29-11.743 42.066-0.345c-0.116-0.12-0.227-0.243-0.345-0.362a29.934 29.934 0 0 0-42.426 0z" fill="#ffffff" filter="url(#d-2)"/>
 <path d="m37.435 61.526c5.772-1.063 11.297-3.831 15.779-8.313s7.25-10.007 8.313-15.779c-1.592 5.434-4.606 10.657-9.02 15.072s-9.639 7.428-15.072 9.02" fill="#ffffff" filter="url(#f)"/>
 <path d="m20.733 43.643c6.8258 0 11.365-4.7356 11.365-11.823 0-6.8584-4.409-11.463-11.006-11.463-6.7604 0-11.235 4.7356-11.235 11.823 0 6.8911 4.3437 11.463 10.875 11.463zm0.35925-3.6905c-4.115 0-6.8258-3.2333-6.8258-8.1321 0-4.6703 2.5801-7.7402 6.4665-7.7402 4.213 0 6.9564 3.2006 6.9564 8.0995 0 4.6703-2.6127 7.7729-6.5971 7.7729zm27.989 3.3965h5.0622l-8.2954-11.953 7.4136-10.712h-4.8662l-4.7356 7.4136-4.7029-7.4136h-4.9968l7.4136 10.875-8.0015 11.79h4.8662l5.3234-8.524z" fill="#666666"/>
</svg>
