<svg xmlns="http://www.w3.org/2000/svg" xmlns:xlink="http://www.w3.org/1999/xlink" width="64" height="64"><defs><linearGradient id="a"><stop offset="0" style="stop-color:#00c7c5;stop-opacity:1"/><stop offset="1" style="stop-color:#00d6c7;stop-opacity:1"/></linearGradient><linearGradient id="b" x1="7.937" x2="7.937" y1="15.081" y2="1.852" gradientTransform="scale(3.7796)" gradientUnits="userSpaceOnUse"><stop offset="0" stop-color="#363636" style="stop-color:#c8c8c8;stop-opacity:1"/><stop offset="1" stop-color="#6c6c6c" style="stop-color:#e5e5e5;stop-opacity:1"/></linearGradient><linearGradient xlink:href="#a" id="d" x1="25.217" x2="25.217" y1="36" y2="22" gradientUnits="userSpaceOnUse"/><filter id="e" width="1.051" height="1.322" x="-.025" y="-.161" style="color-interpolation-filters:sRGB"><feGaussianBlur stdDeviation=".403"/></filter><filter id="c" width="1.051" height="1.057" x="-.025" y="-.028" style="color-interpolation-filters:sRGB"><feGaussianBlur stdDeviation=".403"/></filter></defs><rect width="60" height="60" x="2" y="2" fill="url(#b)" rx="30" ry="30"/><path d="M14.098 13c-.595 0-1.098.503-1.098 1.097v3.805c0 .594.503 1.098 1.098 1.098h3.804c.595 0 1.098-.504 1.098-1.098v-3.805c0-.594-.503-1.097-1.098-1.097ZM28 13a3 3 0 1 0 0 6h20a3 3 0 1 0 0-6zM14.098 41c-.595 0-1.098.503-1.098 1.097v3.805c0 .594.503 1.098 1.098 1.098h3.804c.595 0 1.098-.504 1.098-1.098v-3.805c0-.594-.503-1.097-1.098-1.097ZM28 41a3 3 0 1 0 0 6h20a3 3 0 1 0 0-6z" style="opacity:.2;filter:url(#c)" transform="translate(-3.842 -1.072)scale(1.12008)"/><path d="M7 22h50v14H7z" style="fill:url(#d)" transform="translate(-3.842 -1.072)scale(1.12008)"/><path d="M14.098 27c-.595 0-1.098.503-1.098 1.097v3.805c0 .594.503 1.098 1.098 1.098h3.804c.595 0 1.098-.504 1.098-1.098v-3.805c0-.594-.503-1.097-1.098-1.097ZM28 27a3 3 0 1 0 0 6h20a3 3 0 1 0 0-6z" style="opacity:.2;filter:url(#e)" transform="translate(-3.842 -1.072)scale(1.12008)"/><path d="M14.096 26C13.5 26 13 26.504 13 27.099v3.805A1.11 1.11 0 0 0 14.096 32h3.808A1.11 1.11 0 0 0 19 30.904V27.1c0-.595-.501-1.099-1.096-1.099z" style="fill:#fff" transform="translate(-3.842 -1.072)scale(1.12008)"/><path d="M14.096 12C13.5 12 13 12.504 13 13.099v3.805A1.11 1.11 0 0 0 14.096 18h3.808A1.11 1.11 0 0 0 19 16.904V13.1c0-.595-.501-1.099-1.096-1.099Z" style="fill:#898989" transform="translate(-3.842 -1.072)scale(1.12008)"/><path d="M28 29h20" style="fill:#fff;stroke:#fff;stroke-width:6;stroke-linecap:round" transform="translate(-3.842 -1.072)scale(1.12008)"/><path d="M28 15h20" style="fill:none;stroke:#898989;stroke-width:6;stroke-linecap:round" transform="translate(-3.842 -1.072)scale(1.12008)"/><path d="M14.096 40C13.5 40 13 40.504 13 41.099v3.805A1.11 1.11 0 0 0 14.096 46h3.808A1.11 1.11 0 0 0 19 44.904V41.1c0-.595-.501-1.099-1.096-1.099Z" style="fill:#898989" transform="translate(-3.842 -1.072)scale(1.12008)"/><path d="M28 43h20" style="fill:none;stroke:#898989;stroke-width:6;stroke-linecap:round" transform="translate(-3.842 -1.072)scale(1.12008)"/></svg>