<svg xmlns="http://www.w3.org/2000/svg" width="64" height="64"><defs><linearGradient id="b" x1="7.937" x2="7.937" y1="15.081" y2="1.852" gradientTransform="translate(-130.03)scale(3.7796)" gradientUnits="userSpaceOnUse"><stop offset="0" stop-color="#ffc30d"/><stop offset="1" stop-color="#fff63f"/></linearGradient><filter id="a" width="1.054" height="1.054" x="-.027" y="-.027" color-interpolation-filters="sRGB"><feGaussianBlur stdDeviation=".675"/></filter></defs><rect width="60" height="60" x="2" y="3" filter="url(#a)" opacity=".15" rx="30" ry="30"/><rect width="60" height="60" x="2" y="2" fill="url(#b)" rx="30" ry="30"/><rect width="56" height="56" x="4" y="4" fill="#fff" opacity=".15" rx="28" ry="28"/><circle cx="32.02" cy="32.044" r="30.001" fill="none"/><g fill="#fff"><path d="M33 33v26.971h.14C47.788 59.389 59.465 47.665 59.976 33z" opacity=".35" style="paint-order:stroke fill markers"/><path fill-rule="evenodd" d="M20 20v-3h3v3h3v3h-3v3h-3v-3h-3v-3zm27 3h-9v-3h9zm-9 18.5h9v-3h-9zm9 5h-9v-3h9zm-29.879-6.257 2.121 2.121-2.121 2.121 2.121 2.122 2.122-2.122 2.121 2.122 2.121-2.122-2.121-2.121 2.121-2.121-2.121-2.122-2.121 2.122-2.122-2.122z" clip-rule="evenodd"/><path d="M31 3.969v27.03H4v2h27v26.972h2V33h27.002v-2H33V3.969z" opacity=".15" style="paint-order:stroke fill markers"/></g></svg>