<svg xmlns="http://www.w3.org/2000/svg" xmlns:xlink="http://www.w3.org/1999/xlink" width="64" height="64"><defs><linearGradient id="a" x1="399.57" x2="399.57" y1="545.8" y2="517.8" gradientTransform="translate(-826.36 -1107.5) scale(2.1429)" gradientUnits="userSpaceOnUse"><stop offset="0" stop-color="#3889e9"/><stop offset="1" stop-color="#5ea5fb"/></linearGradient><linearGradient id="c" x1="7.937" x2="7.937" y1="15.081" y2="1.852" gradientTransform="translate(-2.286 -2.252) scale(4.0495)" gradientUnits="userSpaceOnUse"><stop offset="0" stop-color="#007a00"/><stop offset="1" stop-color="#009e55"/></linearGradient><linearGradient xlink:href="#a" id="d" x1="399.57" x2="399.57" y1="545.8" y2="517.8" gradientTransform="translate(-826.36 -1107.5) scale(2.1429)" gradientUnits="userSpaceOnUse"/><filter id="b" width="1.054" height="1.054" x="-.027" y="-.027" color-interpolation-filters="sRGB"><feGaussianBlur stdDeviation=".675"/></filter></defs><rect width="60" height="60" x="2" y="3" filter="url(#b)" opacity=".15" rx="30" ry="30"/><rect width="60" height="60" x="2" y="2" fill="url(#c)" rx="30" ry="30"/><circle cx="32.02" cy="32.044" r="30.001" fill="none" stroke-width="1.571"/><g transform="translate(-2.502 -2.468) scale(1.0782)"><path fill="#fff" d="M32.001 6a25.97 25.97 0 0 0-4.502.44V18.5l9.002 9H50V23H38.75l-6.749-6.75V6zm5.625.624v7.377L41 17.376h3.198C45.938 15.969 48.59 15 51 15h.65a25.97 25.97 0 0 0-14.025-8.377zM23 7.68a25.97 25.97 0 0 0-2.25.92v12.712l9 9v15.75l-9 6.75v2.525a25.97 25.97 0 0 0 2.25.92v-2.32L32 47.187v-18l-9.001-9V7.68zm-4.5 2.147a25.97 25.97 0 0 0-2.25 1.576v12.159l9 9v11.25l-9 6.75v1.973a25.97 25.97 0 0 0 2.25 1.576v-2.424l9-6.75v-13.5l-9-9V9.827zm-4.5 3.51a25.97 25.97 0 0 0-2.25 2.46v10.015l9 9v6.75l-8.918 6.689A25.97 25.97 0 0 0 14 50.6v-1.164l9-6.75v-9l-9-9v-11.35zM36.501 32l-1.125 1.125v14.624l-9.001 6.75v2.755a25.97 25.97 0 0 0 5.626.684 25.97 25.97 0 0 0 9-1.68v-1.76a2.25 2.25 0 0 1 2.25-2.25h4.884a25.97 25.97 0 0 0 3.568-3.374h-.702v-4.875h3.945a25.97 25.97 0 0 0 .913-1.875h-4.858v-4.5h3.624a2 2 0 0 1 2 2v.447a25.97 25.97 0 0 0 1.334-7.927 10.09 10.09 0 0 1-7.397 3.23A10.1 10.1 0 0 1 43.015 32h-6.514zM6.276 35.374a25.97 25.97 0 0 0 1.027 4.5h5.572v-4.5H6.276zm36.6 2.25h3.625v4.5h-5.625v-2.5a2 2 0 0 1 2-2zm-2 6.75h5.625v4.5h-3.625a2 2 0 0 1-2-2v-2.5zM44.001 54c-.554 0-1 .446-1 1v.476A25.97 25.97 0 0 0 45.708 54H44z" opacity=".2"/><g fill-rule="evenodd" clip-rule="evenodd"><path fill="#f29100" d="M50.562 29.75a4.5 4.5 0 1 0 0-9 4.5 4.5 0 0 0 0 9zM12.874 42.125a4.5 4.5 0 1 0 0-9 4.5 4.5 0 0 0 0 9z"/><path fill="#fff" d="M50.562 26.938a1.688 1.688 0 1 0 0-3.375 1.688 1.688 0 0 0 0 3.375zM12.874 39.313a1.688 1.688 0 1 0 0-3.375 1.688 1.688 0 0 0 0 3.375z"/><path fill="#fff" d="M50.562 26.938a1.688 1.688 0 1 0 0-3.375 1.688 1.688 0 0 0 0 3.375zM12.874 39.313a1.688 1.688 0 1 0 0-3.375 1.688 1.688 0 0 0 0 3.375z"/></g><rect width="11" height="6" x="43" y="40" fill="#f29100" fill-rule="evenodd" rx="1" ry="1" style="paint-order:stroke fill markers"/><rect width="7" height="2" x="45" y="42" fill="#fff" fill-rule="evenodd" opacity=".35" rx="1" ry="1" style="paint-order:stroke fill markers"/></g></svg>