<svg xmlns="http://www.w3.org/2000/svg" width="64" height="64"><defs><filter id="d" width="1.064" height="1.082" x="-.032" y="-.041" color-interpolation-filters="sRGB"><feGaussianBlur stdDeviation=".774"/></filter><filter id="e" width="1.093" height="1.099" x="-.047" y="-.049" color-interpolation-filters="sRGB"><feGaussianBlur stdDeviation=".623"/></filter><filter id="b" width="1.078" height="1.078" x="-.039" y="-.039" color-interpolation-filters="sRGB"><feGaussianBlur stdDeviation=".972"/></filter><linearGradient id="a" x1="399.57" x2="399.57" y1="545.8" y2="517.8" gradientTransform="translate(-826.36 -1107.5) scale(2.1429)" gradientUnits="userSpaceOnUse"><stop offset="0" stop-color="#3889e9"/><stop offset="1" stop-color="#5ea5fb"/></linearGradient><linearGradient id="c" x1="-39.605" x2="-39.605" y1="58.247" y2="6.988" gradientTransform="translate(70.543 .42)" gradientUnits="userSpaceOnUse"><stop offset="0" stop-color="#0ba4ae"/><stop offset="1" stop-color="#00d2ec"/></linearGradient></defs><circle cx="32" cy="32" r="30" filter="url(#b)" opacity=".15" style="isolation:isolate;paint-order:stroke fill markers"/><circle cx="32" cy="32" r="30" fill="url(#c)" style="isolation:isolate;paint-order:stroke fill markers"/><path fill="none" d="M62.021 32.044A30.001 30.001 0 0 1 32.02 62.045 30.001 30.001 0 0 1 2.019 32.044 30.001 30.001 0 0 1 32.02 2.043a30.001 30.001 0 0 1 30.001 30.001z"/><path fill="none" d="M62.021 32.044A30.001 30.001 0 0 1 32.02 62.045 30.001 30.001 0 0 1 2.019 32.044 30.001 30.001 0 0 1 32.02 2.043a30.001 30.001 0 0 1 30.001 30.001z"/><path fill="#fff" d="M20.488 14.146A13.502 13.502 0 0 0 7.006 27.253a13.502 13.502 0 0 0-4.957 3.043A30 30 0 0 0 2 31.999a30 30 0 0 0 0 .145 30 30 0 0 0 1.004 7.547c.925-.175 1.854-.33 2.791-.434.113-4.937 4.153-8.883 9.1-8.887l.021.002c.08-7.12 5.88-12.849 13.012-12.852.534 0 1.065.046 1.592.112a13.502 13.502 0 0 0-9.031-3.487zm36.057 14.643c.122.778.205 1.569.205 2.38a15.25 15.25 0 0 1-1.273 6.056 40.215 40.215 0 0 1 5.54 2.386A30 30 0 0 0 62 32a30 30 0 0 0 0-.145 30 30 0 0 0-.04-1.42 9.841 9.841 0 0 0-5.415-1.646z" opacity=".5"/><path d="M40.823 14.896a14.28 14.257 0 0 0-7.974 2.445 12.151 12.131 0 0 0-4.648-.927A12.151 12.131 0 0 0 16.054 28.41a8.501 8.488 0 0 0-.02-.002A8.501 8.488 0 0 0 7.542 36.7a37.852 37.79 0 0 0-4.615.804 30.05 30.001 0 0 0 29.083 22.54 30.05 30.001 0 0 0 28.932-22.009 37.852 37.79 0 0 0-7.027-3.232 14.28 14.257 0 0 0 1.187-5.652 14.28 14.257 0 0 0-14.279-14.256z" filter="url(#d)" opacity=".05"/><path fill="#fff" d="M41.451 15.895c-3.045.005-6.02.918-8.543 2.621a13.04 13.04 0 0 0-4.98-.994c-7.132.002-12.932 5.732-13.012 12.852l-.022-.002c-4.946.004-8.988 3.948-9.102 8.885-.936.104-1.864.26-2.789.433A30 30 0 0 0 32 62.001a30 30 0 0 0 29.018-22.389 40.208 40.208 0 0 0-5.54-2.386 15.26 15.26 0 0 0 1.273-6.057c0-8.435-6.85-15.272-15.3-15.273z"/><path fill="#00bcd4" d="M32 23c-8.823 0-16 7.177-16 16s7.177 16 16 16 16-7.177 16-16-7.177-16-16-16zm0 2.666c7.352 0 13.334 5.982 13.334 13.334S39.352 52.334 32 52.334 18.666 46.352 18.666 39 24.648 25.666 32 25.666zM27.334 31a2 2 0 0 0-2 2v13.334a2 2 0 1 0 4 0V43H34c3.308 0 6-2.692 6-6s-2.692-6-6-6h-6.666zm2 4H34c1.103 0 2 .897 2 2s-.897 2-2 2h-4.666v-4z"/><path d="M32 23c-8.823 0-16 7.177-16 16 0 .169.02.332.025.5C16.293 30.91 23.346 24 32 24s15.707 6.91 15.975 15.5c.006-.168.026-.331.026-.5 0-8.823-7.178-16-16-16zm-4.666 8a2 2 0 0 0-2 2v1a2 2 0 0 1 2-2H34c3.14 0 5.72 2.425 5.975 5.5A6.03 6.03 0 0 0 40 37c0-3.308-2.692-6-6-6h-6.666zm8.594 6.5c-.224.86-1 1.5-1.928 1.5h-4.666v1H34c1.103 0 2-.897 2-2 0-.174-.03-.34-.072-.5zm-17.236 2c-.006.167-.026.331-.026.5 0 7.352 5.982 13.334 13.334 13.334S45.334 47.352 45.334 40c0-.169-.019-.333-.025-.5-.266 7.12-6.125 12.834-13.309 12.834-7.183 0-13.043-5.715-13.309-12.834z" filter="url(#e)" opacity=".15"/></svg>