<svg width="64" height="64" version="1.1" xmlns="http://www.w3.org/2000/svg" xmlns:xlink="http://www.w3.org/1999/xlink">
 <defs>
  <linearGradient id="b" x1="399.57" x2="399.57" y1="545.8" y2="517.8" gradientTransform="matrix(2.1429,0,0,2.1429,-826.36,-1107.5)" gradientUnits="userSpaceOnUse">
   <stop stop-color="#3889e9" offset="0"/>
   <stop stop-color="#5ea5fb" offset="1"/>
  </linearGradient>
  <filter id="d" x="-.032008" y="-.04113" width="1.064" height="1.0823" color-interpolation-filters="sRGB">
   <feGaussianBlur stdDeviation="0.77372435"/>
  </filter>
  <filter id="filter991" x="-.04675" y="-.049318" width="1.0935" height="1.0986" color-interpolation-filters="sRGB">
   <feGaussianBlur stdDeviation="0.62333984"/>
  </filter>
  <linearGradient id="linearGradient899" x1="-39.605" x2="-39.605" y1="58.247" y2="6.9877" gradientTransform="translate(70.543 .41975)" gradientUnits="userSpaceOnUse">
   <stop stop-color="#0ba4ae" offset="0"/>
   <stop stop-color="#00d2ec" offset="1"/>
  </linearGradient>
  <filter id="filter930" x="-.03888" y="-.03888" width="1.0778" height="1.0778" color-interpolation-filters="sRGB">
   <feGaussianBlur stdDeviation="0.972"/>
  </filter>
  <linearGradient id="linearGradient898" x1="399.57" x2="399.57" y1="545.8" y2="517.8" gradientTransform="matrix(2.1429,0,0,2.1429,-826.36,-1107.5)" gradientUnits="userSpaceOnUse" xlink:href="#b"/>
 </defs>
 <circle cx="32" cy="32" r="30" fill="#000000" filter="url(#filter930)" opacity=".15" stroke-linecap="square" stroke-width="2.2881" style="isolation:isolate;paint-order:stroke fill markers"/>
 <circle cx="32" cy="32" r="30" fill="url(#linearGradient899)" stroke-linecap="square" stroke-width="2.2881" style="isolation:isolate;paint-order:stroke fill markers"/>
 <path d="m62.021 32.044a30.001 30.001 0 0 1-30.001 30.001 30.001 30.001 0 0 1-30.001-30.001 30.001 30.001 0 0 1 30.001-30.001 30.001 30.001 0 0 1 30.001 30.001z" fill-opacity="0" stroke-width="1.5715"/>
 <circle cx="32.02" cy="32.044" r="0" fill="url(#linearGradient898)" stroke-width="1.5715"/>
 <path d="m62.021 32.044a30.001 30.001 0 0 1-30.001 30.001 30.001 30.001 0 0 1-30.001-30.001 30.001 30.001 0 0 1 30.001-30.001 30.001 30.001 0 0 1 30.001 30.001z" fill-opacity="0" stroke-width="1.5715"/>
 <circle cx="32.02" cy="32.044" r="0" fill="url(#linearGradient898)" stroke-width="1.5715"/>
 <path d="m20.488 14.146a13.502 13.502 0 0 0-13.482 13.107 13.502 13.502 0 0 0-4.957 3.043 30 30 0 0 0-0.048828 1.7031 30 30 0 0 0 0 0.14453 30 30 0 0 0 1.0039 7.5469c0.92536-0.17409 1.8541-0.32936 2.791-0.43359 0.11334-4.9368 4.1534-8.8828 9.0996-8.8867 7e-3 7.5e-4 0.014515 0.001253 0.021485 0.001953 0.07937-7.1198 5.8802-12.849 13.012-12.852 0.53357 5.36e-4 1.0644 0.045889 1.5918 0.11133a13.502 13.502 0 0 0-9.0312-3.4863zm36.057 14.643c0.12237 0.77794 0.20501 1.5685 0.20508 2.3809-0.0059 2.0842-0.43998 4.144-1.2734 6.0547 1.9073 0.6509 3.7548 1.459 5.541 2.3867a30 30 0 0 0 0.98242-7.6113 30 30 0 0 0 0-0.14453 30 30 0 0 0-0.041016-1.4199 9.8411 9.8411 0 0 0-5.4141-1.6465z" fill="#ffffff" opacity=".5" stroke-width="1.6837"/>
 <path d="m40.823 14.896a14.28 14.257 0 0 0-7.974 2.4453 12.151 12.131 0 0 0-4.6482-0.92774 12.151 12.131 0 0 0-12.147 11.996 8.5014 8.4875 0 0 0-0.01956-2e-3 8.5014 8.4875 0 0 0-8.4924 8.293 37.852 37.79 0 0 0-4.615 0.80469 30.05 30.001 0 0 0 29.083 22.539 30.05 30.001 0 0 0 28.932-22.008 37.852 37.79 0 0 0-7.0271-3.2324 14.28 14.257 0 0 0 1.1875-5.6523 14.28 14.257 0 0 0-14.279-14.256z" filter="url(#d)" opacity=".05" stroke-width="1.5715"/>
 <path d="m41.451 15.895c-3.0454 0.0049-6.0199 0.91836-8.543 2.6211-1.5786-0.6545-3.2713-0.99242-4.9805-0.99414-7.132 0.0019-12.932 5.7319-13.012 12.852-7e-3 -7.22e-4 -0.014505-0.001253-0.021485-0.001953-4.9463 4e-3 -8.9882 3.9479-9.1016 8.8848-0.93647 0.10419-1.8641 0.25961-2.7891 0.43359a30 30 0 0 0 28.996 22.311 30 30 0 0 0 29.018-22.389c-1.7864-0.92786-3.6335-1.7357-5.541-2.3867 0.83345-1.9108 1.2675-3.9726 1.2734-6.0566-5.97e-4 -8.4352-6.8504-15.272-15.299-15.273z" fill="#ffffff" stroke-width="1.6837"/>
 <path d="m32 23c-8.8227 0-16 7.1773-16 16s7.1773 16 16 16 16-7.1773 16-16-7.1773-16-16-16zm0 2.666c7.352 0 13.334 5.982 13.334 13.334s-5.982 13.334-13.334 13.334-13.334-5.982-13.334-13.334 5.982-13.334 13.334-13.334zm-4.666 5.334c-1.1053 0-2 0.896-2 2v13.334c0 1.104 0.89467 2 2 2 1.1053 0 2-0.896 2-2v-3.334h4.666c3.308 0 6-2.692 6-6s-2.692-6-6-6h-6.666zm2 4h4.666c1.1027 0 2 0.89733 2 2s-0.89733 2-2 2h-4.666v-4z" fill="#00bcd4" stroke-width=".53333"/>
 <path d="m32 23c-8.8227 0-16 7.1773-16 16 0 0.16886 0.020171 0.33238 0.025391 0.5 0.26749-8.59 7.3208-15.5 15.975-15.5 8.6538 0 15.707 6.91 15.975 15.5 0.00522-0.16762 0.025391-0.33114 0.025391-0.5 0-8.8227-7.1773-16-16-16zm-4.666 8c-1.1053 0-2 0.896-2 2v1c0-1.104 0.89467-2 2-2h6.666c3.1394 0 5.7194 2.4253 5.9746 5.5 0.013705-0.16509 0.025391-0.33144 0.025391-0.5 0-3.308-2.692-6-6-6h-6.666zm8.5938 6.5c-0.22381 0.85985-0.99887 1.5-1.9277 1.5h-4.666v1h4.666c1.1027 0 2-0.89733 2-2 0-0.1738-0.030388-0.33911-0.072266-0.5zm-17.236 2c-0.006249 0.16727-0.02539 0.33123-0.02539 0.5 0 7.352 5.982 13.334 13.334 13.334s13.334-5.982 13.334-13.334c0-0.16877-0.019141-0.33273-0.02539-0.5-0.26597 7.1194-6.1254 12.834-13.309 12.834-7.1832 0-13.043-5.7146-13.309-12.834z" filter="url(#filter991)" opacity=".15" stroke-width=".53333"/>
</svg>
