<svg width="64" height="64" viewBox="0 0 16.933 16.933" xmlns="http://www.w3.org/2000/svg"><defs><linearGradient id="b" x1="399.99" x2="399.99" y1="545.14" y2="518.14" gradientTransform="translate(-826.36 -1107.5) scale(2.1429)" gradientUnits="userSpaceOnUse"><stop stop-color="#3f4e91" offset="0"/><stop stop-color="#4d7df5" offset="1"/></linearGradient><linearGradient id="c" x1="399.57" x2="399.57" y1="545.8" y2="517.8" gradientTransform="translate(-826.36 -1107.5) scale(2.1429)" gradientUnits="userSpaceOnUse"><stop stop-color="#3889e9" offset="0"/><stop stop-color="#5ea5fb" offset="1"/></linearGradient><filter id="a" x="-.036" y="-.036" width="1.072" height="1.072" color-interpolation-filters="sRGB"><feGaussianBlur stdDeviation=".42"/></filter><filter id="d" x="-.087" y="-.142" width="1.175" height="1.284" color-interpolation-filters="sRGB"><feGaussianBlur stdDeviation=".326"/></filter></defs><circle transform="translate(-218.64 -293.02) scale(.56696)" cx="400.57" cy="531.8" r="14" filter="url(#a)" opacity=".25"/><g transform="translate(-.005 -.012) scale(.26458)" stroke-width="1.571"><circle cx="32.02" cy="32.044" r="30.001" fill="url(#b)"/><circle cx="32.02" cy="32.044" r="30.001" fill="none"/></g><path d="M8.466 6.085c-3.45 0-4.486 1.04-4.486 5.352 0 .689 2.416-.863 3.106-1.899h2.76c.691 1.036 3.107 2.578 3.107 1.899 0-4.314-1.035-5.352-4.486-5.352zm2.071 1.036a.345.345 0 0 1 .345.345.345.345 0 0 1-.345.345.345.345 0 0 1-.345-.345.345.345 0 0 1 .345-.345zm-4.141.003h.345v.69h.69v.345h-.69v.69h-.345v-.69h-.69v-.345h.69zm3.45.687a.345.345 0 0 1 .346.345.345.345 0 0 1-.345.345.345.345 0 0 1-.345-.345.345.345 0 0 1 .345-.345zm1.381 0a.345.345 0 0 1 .345.345.345.345 0 0 1-.345.345.345.345 0 0 1-.345-.345.345.345 0 0 1 .345-.345zm-.69.69a.345.345 0 0 1 .345.345.345.345 0 0 1-.345.345.345.345 0 0 1-.345-.345.345.345 0 0 1 .345-.345z" filter="url(#d)" opacity=".15"/><path d="M8.466 5.706c-3.45 0-4.486 1.038-4.486 5.35 0 .69 2.416-.862 3.106-1.897h2.76c.691 1.035 3.107 2.578 3.107 1.898 0-4.314-1.035-5.351-4.486-5.351zm2.071 1.035a.345.345 0 0 1 .345.345.345.345 0 0 1-.345.345.345.345 0 0 1-.345-.345.345.345 0 0 1 .345-.345zm-4.141.003h.345v.69h.69v.346h-.69v.69h-.345v-.69h-.69v-.345h.69zm3.45.687a.345.345 0 0 1 .346.345.345.345 0 0 1-.345.345.345.345 0 0 1-.345-.345.345.345 0 0 1 .345-.345zm1.381 0a.345.345 0 0 1 .345.345.345.345 0 0 1-.345.345.345.345 0 0 1-.345-.345.345.345 0 0 1 .345-.345zm-.69.69a.345.345 0 0 1 .345.346.345.345 0 0 1-.345.345.345.345 0 0 1-.345-.345.345.345 0 0 1 .345-.346z" fill="#ececec"/></svg>