<svg xmlns="http://www.w3.org/2000/svg" width="64" height="64" viewBox="0 0 16.933 16.933"><defs><linearGradient id="b" x1="7.937" x2="7.937" y1="15.081" y2="1.852" gradientTransform="translate(-.604 -.596)scale(1.0714)" gradientUnits="userSpaceOnUse"><stop offset="0" stop-color="#767574"/><stop offset="1" stop-color="#d1e7ee"/></linearGradient><filter id="a" width="1.078" height="1.078" x="-.039" y="-.039" color-interpolation-filters="sRGB"><feGaussianBlur stdDeviation=".972"/></filter></defs><rect width="60" height="60" x="2" y="2" filter="url(#a)" opacity=".35" rx="30" ry="30" transform="scale(.26458)"/><g stroke-width="1.071"><rect width="15.875" height="15.875" x=".529" y=".529" fill="url(#b)" rx="7.937" ry="7.937"/><rect width="14.739" height="14.723" x="1.097" y="1.105" rx="7.362" ry="7.362"/><rect width="13.04" height="13.04" x="1.947" y="1.947" fill="#1a211f" rx="6.52" ry="6.52"/></g><g fill="#f33"><rect width="6.879" height="2.117" x="6.35" y="11.112" rx=".529" ry=".529"/><rect width="2.117" height="3.439" x="11.112" y="8.731" rx=".529" ry=".529"/><path d="M11.112 10.319c0 .44-.354.794-.794.794v.264h1.059V10.32z"/></g><g fill="#00e500"><rect width="2.117" height="6.879" x="3.969" y="6.35" rx=".529" ry=".529"/><rect width="2.91" height="2.117" x="5.556" y="8.731" rx=".529" ry=".529"/><path d="M6.085 11.641c0-.44.354-.794.794-.794v-.264H5.821v1.058zm.794-2.91a.79.79 0 0 1-.794-.794h-.264v1.059h1.058z"/></g><g fill="#08c"><rect width="2.117" height="4.498" x="8.731" y="6.35" rx=".529" ry=".529"/><rect width="3.439" height="2.117" x="9.789" y="6.35" rx=".529" ry=".529"/><rect width="2.117" height="3.439" x="11.112" y="3.969" rx=".529" ry=".529"/><path d="M11.112 5.556c0 .44-.354.794-.794.794v.264h1.059V5.556zm-.264 3.704c0-.44.354-.794.794-.794v-.264h-1.059V9.26z"/></g></svg>