<svg xmlns="http://www.w3.org/2000/svg" width="64" height="64" version="1"><defs><linearGradient id="b" x1="32" x2="32" y1="2.465" y2="62" gradientUnits="userSpaceOnUse"><stop offset="0" stop-color="#1f1f1f"/><stop offset="1" stop-color="#4d4d4d"/></linearGradient><linearGradient id="g" x1="26.678" x2="26.678" y1="35.381" y2="17.782" gradientUnits="userSpaceOnUse"><stop offset="0" stop-color="#e14664"/><stop offset="1" stop-color="#ff5c7b"/></linearGradient><linearGradient id="f" x1="37.2" x2="37.2" y1="36.124" y2="18.096" gradientUnits="userSpaceOnUse"><stop offset="0" stop-color="#aad22d"/><stop offset="1" stop-color="#dbf97c"/></linearGradient><linearGradient id="e" x1="23.688" x2="23.688" y1="45.978" y2="31.186" gradientUnits="userSpaceOnUse"><stop offset="0" stop-color="#0077c2"/><stop offset="1" stop-color="#1ba7ff"/></linearGradient><linearGradient id="h" x1="34.38" x2="34.38" y1="46.935" y2="30.814" gradientUnits="userSpaceOnUse"><stop offset="0" stop-color="#1abda2"/><stop offset="1" stop-color="#27f1d1" stop-opacity=".996"/></linearGradient><linearGradient id="d" x1="33.19" x2="33.19" y1="50.47" y2="11.676" gradientUnits="userSpaceOnUse"><stop offset="0" stop-color="#ccc"/><stop offset="1" stop-color="#fff" stop-opacity=".995"/></linearGradient><filter id="a" width="1.072" height="1.072" x="-.036" y="-.036" color-interpolation-filters="sRGB"><feGaussianBlur stdDeviation="14.344"/></filter><filter id="c" width="1.097" height="1.095" x="-.049" y="-.047" color-interpolation-filters="sRGB"><feGaussianBlur stdDeviation=".76"/></filter></defs><circle cx="512" cy="512" r="478.12" filter="url(#a)" opacity=".25" style="paint-order:stroke markers fill" transform="translate(-.125 -.125) scale(.06274)"/><circle cx="32" cy="32" r="30" fill="url(#b)" style="paint-order:stroke markers fill"/><path d="m43.5 12.5-1.414 2.586L39.5 16.5l2.586 1.414L43.5 20.5l1.414-2.586L47.5 16.5l-2.586-1.414zm-6.504 1-.523.969L35.5 15l.973.531.523.969.531-.969L38.5 15l-.973-.531zM32 15c-9.925 0-18 8.075-18 18s8.075 18 18 18 18-8.075 18-18h-1.543c0 9.075-7.381 16.457-16.457 16.457S15.543 42.076 15.543 33 22.924 16.543 32 16.543zm0 4c-.224 0-.449.007-.67.018-7.175.338-12.937 6.076-13.31 13.242-.014.245-.02.491-.02.74 0 7.732 6.267 14 14 14 .1 0 .201-.006.302-.008C39.894 46.831 46 40.63 46 33c0-.37-.018-.735-.047-1.098C45.392 24.684 39.362 19 32 19zm16.504.5-1.066 1.941L45.5 22.5l1.938 1.059 1.066 1.941 1.059-1.941L51.5 22.5l-1.937-1.059zm.996 8-.707 1.293-1.293.707 1.293.707.707 1.293.707-1.293L51.5 29.5l-1.293-.707zm-30.764 4.885c.449.103.831.241 1.104.4-.273-.159-.655-.297-1.104-.4zm1.525 1.156zm9.135 8.662s-.275.15-.619.223c.343-.073.62-.223.62-.223z" filter="url(#c)" opacity=".35"/><path fill="url(#d)" d="m43.5 11.5-1.414 2.586L39.5 15.5l2.586 1.414L43.5 19.5l1.414-2.586L47.5 15.5l-2.586-1.414L43.5 11.5zm-6.504 1-.523.969L35.5 14l.973.531.523.969.531-.969L38.5 14l-.973-.531-.53-.969zM32 14c-9.925 0-18 8.075-18 18s8.075 18 18 18 18-8.075 18-18h-1.543c0 9.075-7.381 16.457-16.457 16.457S15.543 41.076 15.543 32 22.924 15.543 32 15.543V14zm16.504 4.5-1.066 1.941L45.5 21.5l1.938 1.059 1.066 1.941 1.059-1.941L51.5 21.5l-1.937-1.059-1.059-1.941zm.996 8-.707 1.293-1.293.707 1.293.707.707 1.293.707-1.293L51.5 28.5l-1.293-.707L49.5 26.5z"/><path fill="url(#e)" d="M31.91 31.905s-1.993-.367-3.75-.63c-1.757-.262-3.678.19-4.17.761-.492.57.649 1.652.905 2.085.255.433.118.492-.335.905-.377.345-1.911.534-2.407.587v.016l-.078-.008-.078.008v-.016c-.496-.053-2.03-.242-2.408-.587-.452-.413-.59-.472-.334-.905.256-.433 1.396-1.514.905-2.085-.3-.348-1.136-.652-2.14-.776-.013.245-.02.492-.02.74 0 7.732 6.268 14 14 14 .101 0 .201-.005.302-.007.415-1.55.956-4.21.005-4.868-1.364-.944-2.911.079-2.911.079s-1.101.603-1.652-.026c-.551-.63-.656-1.626-.604-2.308.053-.682.63-2.544 1.679-2.072s3.142.836 3.593.262c1.154-1.468-.502-5.155-.502-5.155"/><path fill="url(#f)" d="M31.91 31.905s7.347-2.188 7.766-.09c.42 2.098-2.203 2.203-.63 3.252 1.249.832 2.296.806 2.677.76v-.026s.029.007.078.015c.05-.008.078-.015.078-.015v.026c.381.046 1.428.072 2.676-.76 1.574-1.049-1.049-1.154-.63-3.252.136-.674.965-.907 2.028-.912C45.393 23.685 39.363 18 32 18c-.224 0-.447.007-.669.017-.31 1.21-.568 2.925.133 3.818.45.573 2.544.21 3.593-.263 1.05-.472 1.626 1.39 1.679 2.072.052.682-.053 1.679-.604 2.308-.55.63-1.652.026-1.652.026s-1.547-1.023-2.91-.079c-1.365.945.34 6.006.34 6.006"/><path fill="url(#g)" d="M19.255 34.121c-.256.433-.118.492.334.905.378.345 1.912.534 2.408.587v.016l.078-.008.078.008v-.016c.496-.053 2.03-.242 2.407-.587.453-.413.59-.472.335-.905-.256-.433-1.397-1.515-.905-2.085.492-.57 2.413-1.023 4.17-.76 1.757.262 3.75.629 3.75.629s-1.705-5.062-.341-6.006 2.911.079 2.911.079 1.102.603 1.652-.026c.551-.63.656-1.626.604-2.308-.053-.682-.63-2.544-1.679-2.072s-3.142.836-3.593.262c-.701-.892-.443-2.608-.133-3.817-7.175.338-12.938 6.076-13.31 13.243 1.004.124 1.839.428 2.14.776.491.57-.65 1.653-.906 2.085"/><path fill="url(#h)" d="M46 32c0-.37-.019-.735-.047-1.097-1.063.005-1.892.237-2.027.912-.42 2.098 2.203 2.203.63 3.252-1.249.832-2.296.806-2.677.76v-.025l-.078.014-.078-.014v.025c-.381.046-1.429.072-2.676-.76-1.574-1.05 1.049-1.154.63-3.252-.42-2.098-7.767.09-7.767.09s1.656 3.687.502 5.155c-.45.574-2.544.21-3.593-.262s-1.626 1.39-1.679 2.072c-.052.682.053 1.678.604 2.307.55.63 1.652.027 1.652.027s1.547-1.023 2.91-.079c.952.659.411 3.317-.004 4.867C39.894 45.831 46 39.631 46 32"/></svg>