<svg width="64" height="64" viewBox="0 0 16.933 16.933" xmlns="http://www.w3.org/2000/svg"><defs><linearGradient id="b" x1="520.32" x2="520.32" y1="1.823" y2="1023.9" gradientUnits="userSpaceOnUse"><stop stop-color="#46a926" offset="0"/><stop stop-color="#ffda64" offset="1"/></linearGradient><linearGradient id="c" x1="500.28" x2="500.28" y1="-18.217" y2="1023.9" gradientUnits="userSpaceOnUse"><stop stop-color="#a6d74f" offset="0"/><stop stop-color="#46a926" offset="1"/></linearGradient><linearGradient id="d" x1="500.28" x2="500.28" y1="-18.217" y2="1023.9" gradientUnits="userSpaceOnUse"><stop stop-color="#e156e0" offset="0"/><stop stop-color="#8855e3" offset="1"/></linearGradient><linearGradient id="f" x1="32" x2="32" y1="15" y2="49" gradientTransform="scale(.26458)" gradientUnits="userSpaceOnUse"><stop stop-color="#303030" offset="0"/><stop stop-color="#424242" offset="1"/></linearGradient><filter id="a" x="-.036" y="-.036" width="1.072" height="1.072" color-interpolation-filters="sRGB"><feGaussianBlur stdDeviation="14.143"/></filter><filter id="e" x="-.06" y="-.06" width="1.12" height="1.12" color-interpolation-filters="sRGB"><feGaussianBlur stdDeviation=".85"/></filter></defs><path transform="matrix(.01684 0 0 .01684 -.15 -.143)" d="M983.25 511.35c0-7.95-.2-15.85-.5-23.55q-8-180.15-137.55-309.85C753.15 85.95 642 39.9 511.8 39.9c-130.15 0-241.35 46.05-333.35 138.05-92.05 92-138.1 203.2-138.1 333.4 0 130.15 46.05 241.35 138.1 333.35C264.6 931 367.8 976.85 487.6 982.3c8 .3 16 .5 24.2.5 130.2 0 241.35-46.1 333.4-138.1 92-92 138.05-203.2 138.05-333.35z" filter="url(#a)" opacity=".5"/><path d="M983.25 511.35c0-7.95-.2-15.85-.5-23.55q-8-180.15-137.55-309.85C753.15 85.95 642 39.9 511.8 39.9c-130.15 0-241.35 46.05-333.35 138.05-92.05 92-138.1 203.2-138.1 333.4 0 130.15 46.05 241.35 138.1 333.35C264.6 931 367.8 976.85 487.6 982.3c8 .3 16 .5 24.2.5 130.2 0 241.35-46.1 333.4-138.1 92-92 138.05-203.2 138.05-333.35z" fill="url(#d)" transform="matrix(.01684 0 0 .01684 -.15 -.143)" stroke-width="15.683"/><rect transform="translate(-.042 -.042) scale(.26458)" x="15.16" y="15.16" width="34" height="34" ry="5" fill="#303030" fill-rule="evenodd" filter="url(#e)" opacity=".5" style="paint-order:stroke fill markers"/><rect x="3.969" y="3.969" width="8.996" height="8.996" ry="1.323" fill="url(#f)" fill-rule="evenodd" style="paint-order:stroke fill markers"/><path d="M5.292 11.02h3.106v.621H5.292zM5.913 5.429v3.416h.621V7.603h.621c.748 0 1.242-.305 1.242-1.071v-.016c0-.692-.337-1.087-1.14-1.087zm4.356 0c-.673 0-1.257.338-1.257.955v.019c0 .433.434.817 1.107.986.56.15.771.285.771.472v.018c0 .206-.322.346-.621.346-.374 0-.633-.14-.932-.383l-.406.44c.393.355.833.545 1.338.564.71 0 1.229-.444 1.229-1.022v-.02c0-.511-.4-.725-1.074-.912-.56-.15-.776-.254-.776-.478v-.058c0-.169.34-.306.62-.306.281 0 .492.02.79.226l.346-.471c-.353-.214-.65-.376-1.135-.376zm-3.735.62h.621c.374 0 .621.13.621.467v.016c0 .28-.247.45-.62.45h-.622z" fill="#f9f9f9"/></svg>