<svg xmlns="http://www.w3.org/2000/svg" xml:space="preserve" width="64" height="64"><defs><linearGradient id="a" x1="7.937" x2="7.937" y1="15.081" y2="1.852" gradientTransform="translate(-.001 .03)scale(3.7796)" gradientUnits="userSpaceOnUse"><stop offset="0" stop-color="#f1efeb" style="stop-color:#90001f;stop-opacity:1"/><stop offset="1" stop-color="#fdfcfc" style="stop-color:#ff0132;stop-opacity:1"/></linearGradient><filter id="b" width="1.363" height="1.247" x="-.182" y="-.123" style="color-interpolation-filters:sRGB"><feGaussianBlur stdDeviation="1.235"/></filter></defs><rect width="60" height="60" x="3.999" y="3.999" fill="url(#a)" rx="30" ry="30" style="fill:url(#a)"/><g style="fill:#000;fill-opacity:1;filter:url(#b);opacity:.15" transform="translate(9.008 8.113)scale(1.98802)"><path d="m9.375 8.782-4.442 4.44a3.714 3.714 0 0 0 0 5.253l4.442 4.439a3.71 3.71 0 0 0 5.249 0l4.442-4.439a3.713 3.713 0 0 0 0-5.253l-4.442-4.44a3.71 3.71 0 0 0-5.249 0m1.22-1.402C7.597 7.06 4.577 4.794 4.338 0c4.652 0 7.14 2.754 7.38 7.118.88-5.234 5.003-4.621 5.003-4.621.196 2.966-2.24 4.765-5.003 4.914-.776-1.636-5.426-5.648-5.426-5.648-.005-.004-.014-.004-.018.002a.01.01 0 0 0-.002.013s4.487 3.909 4.323 5.602m1.399 10.304c-2.231.165-3.212 1.738-3.148 3.274l-.009-.107c-.133-1.848 1.327-3.21 1.327-5.005-.172-2.322-1.869-3.287-3.462-3.133a5 5 0 0 1 .313-.028c1.848-.133 3.212 1.327 5.005 1.327 2.082-.157 3.074-1.537 3.146-2.969.022 1.75-1.331 3.079-1.331 4.81.165 2.23 1.736 3.21 3.271 3.148l-.107.009c-1.848.134-3.212-1.326-5.005-1.326" style="fill:#000;fill-opacity:1"/></g><path d="m9.375 8.782-4.442 4.44a3.714 3.714 0 0 0 0 5.253l4.442 4.439a3.71 3.71 0 0 0 5.249 0l4.442-4.439a3.713 3.713 0 0 0 0-5.253l-4.442-4.44a3.71 3.71 0 0 0-5.249 0m1.22-1.402C7.597 7.06 4.577 4.794 4.338 0c4.652 0 7.14 2.754 7.38 7.118.88-5.234 5.003-4.621 5.003-4.621.196 2.966-2.24 4.765-5.003 4.914-.776-1.636-5.426-5.648-5.426-5.648-.005-.004-.014-.004-.018.002a.01.01 0 0 0-.002.013s4.487 3.909 4.323 5.602m1.399 10.304c-2.231.165-3.212 1.738-3.148 3.274l-.009-.107c-.133-1.848 1.327-3.21 1.327-5.005-.172-2.322-1.869-3.287-3.462-3.133a5 5 0 0 1 .313-.028c1.848-.133 3.212 1.327 5.005 1.327 2.082-.157 3.074-1.537 3.146-2.969.022 1.75-1.331 3.079-1.331 4.81.165 2.23 1.736 3.21 3.271 3.148l-.107.009c-1.848.134-3.212-1.326-5.005-1.326" style="fill:#fff;fill-opacity:1" transform="translate(9.008 8.113)scale(1.98802)"/></svg>