<svg xmlns="http://www.w3.org/2000/svg" width="64" height="64"><defs><filter id="c" width="1.206" height="1.228" x="-.103" y="-.114" color-interpolation-filters="sRGB"><feGaussianBlur stdDeviation="1.732"/></filter><filter id="a" width="1.072" height="1.072" x="-.036" y="-.036" color-interpolation-filters="sRGB"><feGaussianBlur stdDeviation="14.16"/></filter><linearGradient id="b" x1="520" x2="520.03" y1="44" y2="985.85" gradientTransform="translate(-.542 -.542)scale(.06356)" gradientUnits="userSpaceOnUse"><stop offset="0" stop-color="#8e2655"/><stop offset="1" stop-color="#cc3d7d"/></linearGradient></defs><path d="M969.7 392c-1.1-4.35-2.35-9-3.65-13.6-2.5-8.75-5.35-17.6-8.45-26.35-6.45-18.25-14.15-36.05-23.15-53.65-3.8-7.4-7.95-14.95-12.3-22.4h-.025q-30.601-52.01-76.325-97.75C753.65 86.1 642.35 40 512 40S270.4 86.1 178.25 178.25 40 381.65 40 512s46.1 241.65 138.25 333.8c68.05 68.05 146.5 110.95 234.9 128.65C445.1 980.85 477.9 984 512 984c130.35 0 241.65-46.05 333.8-138.2 48.6-48.6 84.4-102.5 107.35-161.8 17-43.95 27-90.8 29.95-140.75.6-10.2.9-20.65.9-31.25 0-41.75-4.7-81.6-14.3-120" filter="url(#a)" opacity=".25" transform="translate(-.542 -.542)scale(.06356)"/><path fill="url(#b)" d="M61.091 24.373a28.4 28.4 0 0 0-2.24-5.95A31 31 0 0 0 58.069 17h-.002q-1.945-3.306-4.851-6.213Q44.429 2.001 32 2c-12.429-.001-15.356 2.93-21.213 8.787S2 23.715 2 32s2.93 15.36 8.787 21.216c4.325 4.325 9.311 7.052 14.93 8.177C27.747 61.8 29.832 62 32 62q12.429 0 21.216-8.784 4.634-4.632 6.823-10.284c1.08-2.793 1.716-5.771 1.904-8.946Q62 33.012 62 32c0-2.654-.299-5.187-.91-7.627z"/><g stroke-width="1.304"><path d="M32.719 15.043a18.3 18.3 0 0 0-3.628.352 18.26 18.26 0 0 0-14.7 17.909h-3.913L17 41.13l6.522-7.826h-3.913A13.043 13.043 0 0 1 32.652 20.26a13.043 13.043 0 0 1 13.043 13.043 13.043 13.043 0 0 1-13.043 13.043 13.04 13.04 0 0 1-9.217-3.827l-3.697 3.697a18.26 18.26 0 0 0 23.058 2.27 18.26 18.26 0 0 0 6.726-22.172 18.26 18.26 0 0 0-16.804-11.273zm-.066 7.826c-.723 0-1.305.582-1.305 1.304v10.878l5.61 5.697c.505.512 1.326.508 1.834 0s.509-1.326 0-1.834l-4.835-4.836v-9.905c0-.722-.582-1.304-1.304-1.304" filter="url(#c)" opacity=".1"/><path fill="#c771d0" d="M22.87 16.187A18.26 18.26 0 0 0 13.74 32H9.827l6.521 7.826L22.87 32h-3.913c0-4.66 2.486-8.966 6.522-11.296v-3.052z"/><path fill="#f4eb61" d="M45.043 32c0 7.204-5.84 13.043-13.043 13.043a13.04 13.04 0 0 1-9.217-3.826l-3.696 3.696A18.26 18.26 0 0 0 50.258 32l-2.606-1.304z"/><path fill="#f19c46" d="M32.067 13.739a18.3 18.3 0 0 0-3.628.352 18.3 18.3 0 0 0-5.569 2.096l2.61 4.517A13.04 13.04 0 0 1 32 18.956 13.043 13.043 0 0 1 45.045 32h5.215a18.3 18.3 0 0 0-1.389-6.988 18.26 18.26 0 0 0-16.804-11.273"/><path fill="#facefa" d="M32 21.565c-.723 0-1.304.582-1.304 1.304v10.878l5.61 5.696c.504.512 1.325.509 1.834 0s.508-1.326 0-1.834l-4.836-4.835v-9.905A1.3 1.3 0 0 0 32 21.565"/></g></svg>