<svg width="64" height="64" version="1.1" xmlns="http://www.w3.org/2000/svg">
 <defs>
  <filter id="b" x="-.1028" y="-.11381" width="1.2056" height="1.2276" color-interpolation-filters="sRGB">
   <feGaussianBlur stdDeviation="1.732"/>
  </filter>
  <linearGradient id="b-2" x1="520" x2="520.03" y1="44" y2="985.85" gradientTransform="matrix(.06356 0 0 .06356 -.542 -.542)" gradientUnits="userSpaceOnUse">
   <stop stop-color="#8e2655" offset="0"/>
   <stop stop-color="#cc3d7d" offset="1"/>
  </linearGradient>
  <filter id="a-2" x="-.036" y="-.036" width="1.072" height="1.072" color-interpolation-filters="sRGB">
   <feGaussianBlur stdDeviation="14.16"/>
  </filter>
 </defs>
 <path transform="matrix(.06356 0 0 .06356 -.542 -.542)" d="m969.7 392c-1.1-4.35-2.35-9-3.65-13.6-2.5-8.75-5.35-17.6-8.45-26.35-6.45-18.25-14.15-36.05-23.15-53.65-3.8-7.4-7.95-14.95-12.3-22.4h-0.025q-30.601-52.01-76.325-97.75c-92.15-92.15-203.45-138.25-333.8-138.25s-241.6 46.1-333.75 138.25-138.25 203.4-138.25 333.75 46.1 241.65 138.25 333.8c68.05 68.05 146.5 110.95 234.9 128.65 31.95 6.4 64.75 9.55 98.85 9.55 130.35 0 241.65-46.05 333.8-138.2 48.6-48.6 84.4-102.5 107.35-161.8 17-43.95 27-90.8 29.95-140.75 0.6-10.2 0.9-20.65 0.9-31.25 0-41.75-4.7-81.6-14.3-120z" filter="url(#a-2)" opacity=".25"/>
 <path d="m61.091 24.373a28.41 28.41 0 0 0-2.24-5.95c-0.242-0.47-0.506-0.95-0.782-1.423h-2e-3q-1.945-3.306-4.851-6.213c-5.857-5.857-12.931-8.787-21.216-8.787s-15.356 2.93-21.213 8.787-8.787 12.928-8.787 21.213 2.93 15.36 8.787 21.216c4.325 4.325 9.311 7.052 14.93 8.177 2.03 0.407 4.115 0.607 6.283 0.607 8.285 0 15.359-2.927 21.216-8.784 3.089-3.089 5.364-6.515 6.823-10.284 1.08-2.793 1.716-5.771 1.904-8.946 0.038-0.648 0.057-1.312 0.057-1.986 0-2.654-0.299-5.187-0.91-7.627z" fill="url(#b-2)"/>
 <g stroke-width="1.304">
  <path d="M32.719 15.043a18.261 18.261 0 0 0-3.628.352 18.261 18.261 0 0 0-14.7 17.909h-3.913L17 41.13l6.522-7.826h-3.913A13.043 13.043 0 0 1 32.652 20.26a13.043 13.043 0 0 1 13.043 13.043 13.043 13.043 0 0 1-13.043 13.043 13.043 13.043 0 0 1-9.217-3.827l-3.697 3.697a18.261 18.261 0 0 0 23.058 2.27 18.261 18.261 0 0 0 6.726-22.172 18.261 18.261 0 0 0-16.804-11.273zm-.066 7.826c-.723 0-1.305.582-1.305 1.304v10.878l5.61 5.697c.505.512 1.326.508 1.834 0s.509-1.326 0-1.834l-4.835-4.836v-9.905c0-.722-.582-1.304-1.304-1.304z" filter="url(#b)" opacity=".1"/>
  <path d="M22.87 16.187A18.261 18.261 0 0 0 13.74 32H9.827l6.521 7.826L22.87 32h-3.913c0-4.66 2.486-8.966 6.522-11.296v-3.052z" fill="#c771d0"/>
  <path d="M45.043 32c0 7.204-5.84 13.043-13.043 13.043a13.044 13.044 0 0 1-9.217-3.826l-3.696 3.696A18.26 18.26 0 0 0 50.258 32l-2.606-1.304z" fill="#f4eb61"/>
  <path d="M32.067 13.739a18.261 18.261 0 0 0-3.628.352 18.261 18.261 0 0 0-5.569 2.096l2.61 4.517A13.043 13.043 0 0 1 32 18.956 13.043 13.043 0 0 1 45.045 32h5.215a18.261 18.261 0 0 0-1.389-6.988 18.261 18.261 0 0 0-16.804-11.273z" fill="#f19c46"/>
  <path d="M32 21.565c-.723 0-1.304.582-1.304 1.304v10.878l5.61 5.696c.504.512 1.325.509 1.834 0s.508-1.326 0-1.834l-4.836-4.835v-9.905A1.3 1.3 0 0 0 32 21.565z" fill="#facefa"/>
 </g>
</svg>
