<?xml version="1.0" encoding="UTF-8"?>
<svg width="64" height="64" version="1.1" viewBox="0 0 64 64" xmlns="http://www.w3.org/2000/svg">
 <defs>
  <linearGradient id="linearGradient913" x1="399.57" x2="399.57" y1="545.8" y2="517.8" gradientTransform="matrix(2.1429,0,0,2.1429,-705.51,-1107.5)" gradientUnits="userSpaceOnUse">
   <stop stop-color="#3889e9" offset="0"/>
   <stop stop-color="#5ea5fb" offset="1"/>
  </linearGradient>
  <linearGradient id="linearGradient862-5" x1="7.9373" x2="7.9373" y1="15.081" y2="1.852" gradientTransform="matrix(4.0494 0 0 4.0494 -2.2856 -2.2519)" gradientUnits="userSpaceOnUse">
   <stop stop-color="#0e71de" offset="0"/>
   <stop stop-color="#25c9ff" offset="1"/>
  </linearGradient>
  <filter id="filter7" x="-.027" y="-.027" width="1.054" height="1.054" color-interpolation-filters="sRGB">
   <feGaussianBlur stdDeviation="0.675"/>
  </filter>
 </defs>
 <rect x="2" y="3" width="60" height="60" rx="30" ry="30" filter="url(#filter7)" opacity=".15"/>
 <rect x="2" y="2" width="60" height="60" rx="30" ry="30" fill="url(#linearGradient862-5)" stroke-width="4.0494"/>
 <circle cx="152.87" cy="32.044" r="0" fill="url(#linearGradient913)" stroke-width="1.5715"/>
 <g transform="matrix(1.3043 0 0 1.3043 .69565 .69565)">
  <path d="m23 23h2v14l-1 2-1-2z" fill="#fff"/>
  <path d="m19 11v1l2 2v10h-3v2h12v-2h-3v-10l2-2v-1z" fill="#ffdb33"/>
  <rect x="23" y="26" width="2" height="1" opacity=".1"/>
 </g>
</svg>
