<svg xmlns="http://www.w3.org/2000/svg" xmlns:xlink="http://www.w3.org/1999/xlink" width="64" height="64"><defs><linearGradient id="b" x1="99.036" x2="99.036" y1="-.505" y2="199.84" gradientTransform="translate(45.796 78.158) scale(4.6171)" gradientUnits="userSpaceOnUse"><stop offset="0" stop-color="#369"/><stop offset="1" stop-color="#25507b"/></linearGradient><linearGradient id="a" x1="403.12" x2="403.12" y1="211.25" y2="396.25" gradientUnits="userSpaceOnUse"><stop offset="0" stop-color="#5a1aa9"/><stop offset="1" stop-color="#c063d5"/></linearGradient><linearGradient id="f" x1="403.7" x2="402.71" y1="139.02" y2="463.07" gradientUnits="userSpaceOnUse"><stop offset="0" stop-color="#fff"/><stop offset="1" stop-color="#d7d7d7"/></linearGradient><linearGradient xlink:href="#a" id="g" x1="402.71" x2="402.71" y1="316.42" y2="341.92" gradientUnits="userSpaceOnUse"/><linearGradient xlink:href="#a" id="d" x1="396.33" x2="396.33" y1="137.89" y2="463.07" gradientUnits="userSpaceOnUse"/><filter id="e" width="1.084" height="1.063" x="-.042" y="-.031" color-interpolation-filters="sRGB"><feGaussianBlur stdDeviation="2.428"/></filter><filter id="c" width="1.072" height="1.072" x="-.036" y="-.036" color-interpolation-filters="sRGB"><feGaussianBlur stdDeviation="4.5"/></filter></defs><g stroke-width="15.683" transform="translate(-.614 -2.48) scale(.06376)"><circle cx="507.51" cy="539.87" r="461.71" fill="url(#b)" color="#000"/><path d="M400 450c82.84 0 150-67.16 150-150s-67.16-150-150-150-150 67.16-150 150 67.16 150 150 150z" class="shp1" filter="url(#c)" opacity=".25" transform="translate(-743.17 -400.14) scale(3.1367)"/><path fill="url(#d)" d="M400 450c82.84 0 150-67.16 150-150s-67.16-150-150-150-150 67.16-150 150 67.16 150 150 150z" class="shp1" transform="translate(-743.17 -400.14) scale(3.1367)"/><path fill="#0b030d" d="M377.4 377.56c0 12.08-9.77 21.88-21.82 21.88-5.27 0-10.11-1.87-13.88-4.99 4.18-2.02 7.06-6.3 7.06-11.26 0-6.9-5.6-12.5-12.5-12.5-.86 0-1.69.09-2.5.25v-86.82c0-38.48 31.13-69.68 69.52-69.68h.63c38.16 0 68.68 30.8 68.58 68.88v.61c-.01.21-.01.41-.02.61-1.39 37.4-32.25 68.01-68.88 68.01-12.05 0-21.82-9.79-21.82-21.87s9.77-21.87 21.82-21.87c12.85 0 24.64-11.67 25.25-25.75-.05-13.86-11.02-24.88-24.93-24.88h-.63c-14.29 0-25.87 11.61-25.87 25.93zm51.44-93.88.02-1.23c0 .2-.01.41-.02.61 0 .2 0 .41-.01.61zm43.66-.36-.02 1.23c0-.21.01-.41.01-.61.01-.2.01-.41.01-.61z" class="shp2" filter="url(#e)" opacity=".3" transform="translate(-743.17 -400.14) scale(3.1367)"/><path fill="url(#f)" d="M377.4 374.37c0 12.08-9.77 21.88-21.82 21.88-5.27 0-10.11-1.87-13.88-4.99 4.18-2.02 7.06-6.3 7.06-11.26 0-6.9-5.6-12.5-12.5-12.5-.86 0-1.69.09-2.5.25v-86.82c0-38.48 31.13-69.68 69.52-69.68h.63c38.16 0 68.68 30.8 68.58 68.88v.61c-.01.21-.01.41-.02.61-1.39 37.4-32.25 68.01-68.88 68.01-12.05 0-21.82-9.79-21.82-21.87s9.77-21.87 21.82-21.87c12.85 0 24.64-11.67 25.25-25.75-.05-13.86-11.02-24.88-24.93-24.88h-.63c-14.29 0-25.87 11.61-25.87 25.93zm51.44-93.88.02-1.23c0 .2-.01.41-.02.61 0 .2 0 .41-.01.61zm43.66-.36-.02 1.23c0-.21.01-.41.01-.61.01-.2.01-.41.01-.61z" class="shp2" transform="translate(-743.17 -400.14) scale(3.1367)"/><path fill="url(#g)" d="M403.75 341.25c7.59 0 13.75-6.16 13.75-13.75s-6.16-13.75-13.75-13.75S390 319.91 390 327.5s6.16 13.75 13.75 13.75z" class="shp3" transform="translate(-743.17 -400.14) scale(3.1367)"/></g></svg>