<svg xmlns="http://www.w3.org/2000/svg" width="64" height="64" enable-background="new 0 0 1024 1024" image-rendering="optimizeSpeed"><defs><filter id="c" width="1.405" height="1.365" x="-.203" y="-.182" color-interpolation-filters="sRGB"><feGaussianBlur stdDeviation="75.975"/></filter><filter id="a" width="1.078" height="1.078" x="-.039" y="-.039" color-interpolation-filters="sRGB"><feGaussianBlur stdDeviation=".972"/></filter><radialGradient id="d" cx="1244.3" cy="919.87" r=".925" gradientTransform="matrix(610 0 0 -1000.5 -756324 921039)" gradientUnits="userSpaceOnUse"><stop offset="0" stop-color="#f9be03"/><stop offset="1" stop-color="#cc7c19"/></radialGradient><linearGradient id="b" x1="7.937" x2="7.937" y1="15.081" y2="1.852" gradientTransform="translate(-2.286 -2.252)scale(4.0494)" gradientUnits="userSpaceOnUse"><stop offset="0" stop-color="#343434"/><stop offset="1" stop-color="#767676"/></linearGradient></defs><rect width="60" height="60" x="2" y="2" filter="url(#a)" opacity=".35" rx="30" ry="30"/><rect width="60" height="60" x="2" y="2" fill="url(#b)" rx="30" ry="30"/><g filter="url(#c)" opacity=".339" transform="translate(-50.878 10.26)scale(.03114)"><path d="M3068.9 210.12h-290l-290 500 290 500h289.75L2778.9 710.37z"/><path d="M2168.9 210.12h290l320 500.25-320 500.25h-290l320-500.25z"/></g><path fill="#fff" d="M45.06 17.853h-8.425l-8.424 14.524L36.635 46.9h8.417l-8.417-14.517 8.424-14.531"/><path fill="url(#d)" d="M2168.9 210.12h290l320 500.25-320 500.25h-290l320-500.25z" transform="translate(-44.087 11.75)scale(.02905)"/></svg>