<svg xmlns="http://www.w3.org/2000/svg" xmlns:xlink="http://www.w3.org/1999/xlink" width="64" height="64"><defs><linearGradient xlink:href="#a" id="c" x2="0" y1="543.798" y2="503.798" gradientTransform="translate(-421.755 475.15)scale(1.07143)" gradientUnits="userSpaceOnUse"/><linearGradient id="a"><stop style="stop-color:#2f3943"/><stop offset="1" style="stop-color:#808c9b"/></linearGradient><linearGradient xlink:href="#b" id="d" x2="0" y1="23" y2="9" gradientTransform="translate(0 1020.362)" gradientUnits="userSpaceOnUse"/><linearGradient id="b"><stop style="stop-color:#ffd42a"/><stop offset="1" style="stop-color:#ffdf62"/></linearGradient></defs><g transform="matrix(2 0 0 2 0 -2040.724)"><rect width="30" height="30" x="1" y="1021.362" rx="15" style="fill:url(#c);stroke-width:.107142"/><path d="M16 1029.362a3 3 0 0 0-2.826 2H15v1h-2v1h2v1h-2v1h2v1h-2a3 3 0 0 0 3 3 3 3 0 0 0 3-3h-2v-1h2v-1h-2v-1h2v-1h-2v-1h1.824a3 3 0 0 0-2.824-2m-5 7a5 5 0 0 0 3.492 4.762L13 1043.362h6l-1.49-2.234a5 5 0 0 0 3.49-4.766h-1a4 4 0 0 1-4 4 4 4 0 0 1-4-4z" style="fill:url(#d);stroke-width:2"/></g></svg>