<svg xmlns="http://www.w3.org/2000/svg" width="64" height="64"><defs><linearGradient id="b" x1="408.25" x2="407.94" y1="547.6" y2="498.89" gradientTransform="translate(-510.64 -663.52) scale(1.3276)" gradientUnits="userSpaceOnUse"><stop offset="0" stop-color="#fff"/><stop offset="1" stop-color="#e6e6e6"/></linearGradient><linearGradient id="e" x1="280.78" x2="200.59" y1="-22.2" y2="-381.36" gradientTransform="matrix(.086 0 0 .0864 11.27 49.471)" gradientUnits="userSpaceOnUse"><stop offset="0" stop-color="#2990d6"/><stop offset="1" stop-color="#4eb2d1"/></linearGradient><linearGradient id="d" x1="197.27" x2="278.65" y1="-382.35" y2="-9.261" gradientTransform="matrix(.086 0 0 .0864 11.27 49.471)" gradientUnits="userSpaceOnUse"><stop offset="0" stop-color="#327890"/><stop offset="1" stop-color="#2d5795"/></linearGradient><filter id="a" width="1.072" height="1.072" x="-.036" y="-.036" color-interpolation-filters="sRGB"><feGaussianBlur stdDeviation=".89"/></filter><filter id="c" width="1.216" height="1.216" x="-.108" y="-.108" color-interpolation-filters="sRGB"><feGaussianBlur stdDeviation="1.71"/></filter></defs><rect width="59.315" height="59.315" x="386.85" y="486.31" filter="url(#a)" opacity=".25" ry="29.657" transform="translate(-389.32 -489.92) scale(1.0115)"/><rect width="59.997" height="59.997" x="1.983" y="1.978" fill="url(#b)" ry="29.998"/><path d="m34.252 14-12.629 2.89 2.287 10.085 7.76 4.97 4.869-7.863zm13.869 8.662-10.035 2.299-4.947 7.795 7.824 4.892L51 35.351zm-25.086 5.652L13 30.614 15.879 43.3l10.035-2.299 4.947-7.795zm9.135 5.74-4.87 7.862L29.589 52l12.629-2.893-2.287-10.082z" filter="url(#c)" opacity=".15"/><path fill="url(#d)" d="m34.252 13-12.629 2.89 2.287 10.085 7.76 4.97 4.869-7.863L34.252 13zm13.869 8.662-10.035 2.299-4.947 7.795 7.824 4.892L51 34.351l-2.88-12.688zm-25.086 5.652L13 29.614 15.879 42.3l10.035-2.299 4.947-7.795-7.826-4.892zm9.135 5.74-4.87 7.862L29.589 51l12.629-2.893-2.287-10.082-7.76-4.97z"/><path fill="url(#e)" d="m33.26 14.684-10.016 2.295 1.752 7.72 6.123 3.81 3.893-6.102-1.752-7.723zm13.779 8.607-7.684 1.76-3.79 6.152 6.074 3.91 7.683-1.76-2.283-10.061zM22.361 28.85l-7.686 1.76 2.284 10.062 7.685-1.76 3.791-6.152-6.074-3.91zm10.359 6.643-3.893 6.101 1.752 7.72 10.016-2.292-1.752-7.72-6.123-3.81z"/></svg>