<svg width="64" height="64" version="1.1" xmlns="http://www.w3.org/2000/svg" xmlns:xlink="http://www.w3.org/1999/xlink">
 <defs>
  <linearGradient id="a">
   <stop stop-color="#686868" offset="0"/>
   <stop stop-color="#1e1e1e" offset="1"/>
  </linearGradient>
  <filter id="d" x="-.036" y="-.036" width="1.072" height="1.072" color-interpolation-filters="sRGB">
   <feGaussianBlur stdDeviation="0.44408475"/>
  </filter>
  <linearGradient id="b" x1="401.97" x2="401.97" y1="546.72" y2="518.72" gradientTransform="matrix(1.0573,0,0,1.0573,-23.02,-30.545)" gradientUnits="userSpaceOnUse">
   <stop stop-color="#d3d3d3" offset="0"/>
   <stop stop-color="#fcf9f9" offset="1"/>
  </linearGradient>
  <linearGradient id="f" x1="8" x2="8" y1="284" y2="300" gradientUnits="userSpaceOnUse" xlink:href="#a"/>
  <linearGradient id="c" x1="8" x2="8" y1="284" y2="300" gradientUnits="userSpaceOnUse" xlink:href="#a"/>
  <filter id="e" x="-.040114" y="-.032652" width="1.0802" height="1.0653" color-interpolation-filters="sRGB">
   <feGaussianBlur stdDeviation="0.21767695"/>
  </filter>
 </defs>
 <g transform="matrix(1.9285 0 0 1.9285 -740.42 -993.76)" stroke-width=".7572">
  <g transform="matrix(1.0509,0,0,1.0509,-20.38,-26.904)" stroke-width=".7572">
   <circle cx="400.52" cy="531.74" r="14.803" filter="url(#d)" opacity=".25"/>
   <circle cx="400.52" cy="531.74" r="14.803" fill="url(#b)"/>
  </g>
 </g>
 <g class="ColorScheme-Text" transform="matrix(1.8428 0 0 1.8428 17.257 -506.11)" color="#565656" opacity=".8" stroke-width=".10868">
  <path d="m10.356 286.57c0.55189-0.68713 0.92608-1.6207 0.82284-2.5669-0.79488 0.0333-1.7852 0.55212-2.359 1.2192-0.50682 0.5919-0.95705 1.5594-0.84044 2.4713 0.89204 0.0666 1.8056-0.45138 2.3766-1.1236zm2.0112 5.9448c-0.01907-2.0235 1.6557-3.0059 1.7315-3.0528-0.94747-1.3829-2.4166-1.5702-2.9346-1.5873-1.2347-0.12579-2.4298 0.74182-3.0597 0.74182-0.641-8e-5 -1.609-0.7268-2.6516-0.70614-1.3438 0.0201-2.6022 0.7982-3.2911 2.0031-1.4182 2.4628-0.36096 6.0799 1.0012 8.0658 0.68235 0.97755 1.4772 2.0656 2.5198 2.0226 1.0197-0.0388 1.3998-0.64742 2.6322-0.64742 1.2195 0 1.5768 0.64742 2.6407 0.62659 1.095-0.018 1.7836-0.97932 2.4423-1.9609 0.78451-1.1198 1.1013-2.2176 1.1139-2.276-0.02441-9e-3 -2.1224-0.80693-2.1448-3.2293z" filter="url(#e)" opacity=".25"/>
  <path d="m10.356 286.57c0.55189-0.68713 0.92608-1.6207 0.82284-2.5669-0.79488 0.0333-1.7852 0.55212-2.359 1.2192-0.50682 0.5919-0.95705 1.5594-0.84044 2.4713 0.89204 0.0666 1.8056-0.45138 2.3766-1.1236zm2.0112 5.9448c-0.01907-2.0235 1.6557-3.0059 1.7315-3.0528-0.94747-1.3829-2.4166-1.5702-2.9346-1.5873-1.2347-0.12579-2.4298 0.74182-3.0597 0.74182-0.641-8e-5 -1.609-0.7268-2.6516-0.70614-1.3438 0.0201-2.6022 0.7982-3.2911 2.0031-1.4182 2.4628-0.36096 6.0799 1.0012 8.0658 0.68235 0.97755 1.4772 2.0656 2.5198 2.0226 1.0197-0.0388 1.3998-0.64742 2.6322-0.64742 1.2195 0 1.5768 0.64742 2.6407 0.62659 1.095-0.018 1.7836-0.97932 2.4423-1.9609 0.78451-1.1198 1.1013-2.2176 1.1139-2.276-0.02441-9e-3 -2.1224-0.80693-2.1448-3.2293z" fill="url(#c)"/>
 </g>
</svg>
