<svg xmlns="http://www.w3.org/2000/svg" xmlns:xlink="http://www.w3.org/1999/xlink" width="64" height="64" viewBox="0 0 16.934 16.934"><defs><linearGradient id="c" x1="8.873" x2="8.873" y1=".935" y2="15.672" gradientTransform="translate(-21.318 1.21) scale(.45359)" gradientUnits="userSpaceOnUse"><stop offset="0" stop-color="#7f8c8d"/><stop offset="1" stop-color="#bdc3c7"/></linearGradient><filter id="b" width="1.072" height="1.072" x="-.036" y="-.036" color-interpolation-filters="sRGB"><feGaussianBlur stdDeviation=".214"/></filter></defs><linearGradient id="a"><stop offset="0" stop-color="#31363b"/><stop offset="1" stop-color="#31363b" stop-opacity="0"/></linearGradient><linearGradient id="d" x1="16" x2="16" y1="5" y2="27" gradientTransform="matrix(1.5 0 0 1.5 8 8)" gradientUnits="userSpaceOnUse"><stop offset="0" stop-color="#232629"/><stop offset="1" stop-color="#292c2f"/></linearGradient><linearGradient id="e" x1="4.234" x2="4.234" y1="290.65" y2="291.18" gradientTransform="matrix(1 0 0 2 -.794 -579.96)" gradientUnits="userSpaceOnUse"><stop offset="0" stop-color="#fdbc4b" stop-opacity=".8"/><stop offset="1" stop-color="#fdbc4b" stop-opacity="0"/></linearGradient><linearGradient xlink:href="#a" id="f" x1="4.233" x2="4.233" y1="295.41" y2="294.62" gradientTransform="matrix(1.25 0 0 1 -1.058 -288.27)" gradientUnits="userSpaceOnUse"/><linearGradient xlink:href="#a" id="g" x1="4.587" x2="4.587" y1="295.41" y2="294.62" gradientTransform="matrix(.375 0 0 1 .926 -289.06)" gradientUnits="userSpaceOnUse"/><linearGradient xlink:href="#a" id="h" x1="3.88" x2="3.88" y1="295.41" y2="294.62" gradientTransform="matrix(.375 0 0 1 4.366 -289.06)" gradientUnits="userSpaceOnUse"/><linearGradient xlink:href="#a" id="i" x1="7.411" x2="7.411" y1="295.41" y2="294.62" gradientTransform="matrix(.47242 0 0 7.5588 27.499 -2217)" gradientUnits="userSpaceOnUse"/><linearGradient xlink:href="#a" id="j" x1="1.061" x2="1.061" y1="295.41" y2="294.62" gradientTransform="matrix(.47242 0 0 7.5588 .499 -2217)" gradientUnits="userSpaceOnUse"/><linearGradient xlink:href="#a" id="k" x1="4.444" x2="4.444" y1="295.41" y2="294.62" gradientTransform="matrix(.625 0 0 1.6667 -1.19 -486.8)" gradientUnits="userSpaceOnUse"/><linearGradient xlink:href="#a" id="l" x1="4.021" x2="4.021" y1="295.41" y2="294.62" gradientTransform="matrix(.625 0 0 1.6667 4.366 -486.8)" gradientUnits="userSpaceOnUse"/><circle cx="8.466" cy="288.53" r="7.144" filter="url(#b)" opacity=".15" style="paint-order:stroke markers fill" transform="translate(-.94 -312.14) scale(1.1112)"/><circle cx="8.467" cy="8.467" r="7.938" fill="url(#c)" style="paint-order:stroke markers fill"/><path fill="url(#d)" d="M12.5 15.5V23H11v1.5h.004v-.004h3.006l-.012 6.004H11V32h1.5v7.5H20V44h4.5v4.5h15V44H44v-4.5h7.502V32h1.5v-1.5h-3l-.006-6.004h3.006V23h-1.5v-7.5H12.5z" transform="scale(.2646)"/><path fill="url(#e)" d="M1.323 1.323h.265v1.058h-.265zm.794 0h.264v1.058h-.264zm.794 0h.264v1.058h-.264zm3.968 0h.265v1.058h-.265zm-.793 0h.264v1.058h-.264zm-.794 0h.264v1.058h-.264zm-.794 0h.265v1.058h-.265zm-.794 0h.265v1.058h-.265z" transform="matrix(1.5 0 0 1.5 2.117 2.117)"/><path fill="url(#f)" d="M2.91 6.35h2.646v.794H2.911z" transform="matrix(1.5 0 0 1.5 2.117 2.117)"/><path fill="url(#g)" d="M2.117 5.556h.794v.794h-.794z" transform="matrix(1.5 0 0 1.5 2.117 2.117)"/><path fill="url(#h)" d="M5.556 5.556h.794v.794h-.794z" transform="matrix(1.5 0 0 1.5 2.117 2.117)"/><path fill="url(#i)" d="M29 10v1h1v-1zm0 5v1h1v-1z" transform="matrix(.4 0 0 .4 2.117 2.117)"/><path fill="url(#j)" d="M2 10v1h1v-1zm0 5v1h1v-1z" transform="matrix(.4 0 0 .4 2.117 2.117)"/><path fill="url(#k)" d="M.794 4.234h1.323v1.322H.794z" transform="matrix(1.5 0 0 1.5 2.117 2.117)"/><path fill="url(#l)" d="M6.35 4.233h1.323v1.323H6.35z" transform="matrix(1.5 0 0 1.5 2.117 2.117)"/></svg>