<svg width="64" height="64" viewBox="0 0 16.934 16.934" xmlns="http://www.w3.org/2000/svg" xmlns:xlink="http://www.w3.org/1999/xlink"><defs><linearGradient id="c" x1="8.873" x2="8.873" y1=".935" y2="15.672" gradientTransform="translate(-21.318 1.21) scale(.45359)" gradientUnits="userSpaceOnUse"><stop stop-color="#7f8c8d" offset="0"/><stop stop-color="#bdc3c7" offset="1"/></linearGradient><filter id="b" x="-.036" y="-.036" width="1.072" height="1.072" color-interpolation-filters="sRGB"><feGaussianBlur stdDeviation=".214"/></filter></defs><linearGradient id="a"><stop stop-color="#31363b" offset="0"/><stop stop-color="#31363b" stop-opacity="0" offset="1"/></linearGradient><linearGradient id="d" x1="16.001" x2="16.001" y1="28.001" y2="6" gradientTransform="matrix(1.7142 0 0 -1.7142 4.572 59.429)" gradientUnits="userSpaceOnUse"><stop stop-color="#232629" offset="0"/><stop stop-color="#292c2f" offset="1"/></linearGradient><linearGradient id="e" x1="4.234" x2="4.234" y1="290.65" y2="291.18" gradientTransform="matrix(1.7142 0 0 -3.4284 -.151 1009.5)" gradientUnits="userSpaceOnUse"><stop stop-color="#fdbc4b" stop-opacity=".8" offset="0"/><stop stop-color="#fdbc4b" stop-opacity="0" offset="1"/></linearGradient><linearGradient id="f" x1="4.233" x2="4.233" y1="295.41" y2="294.62" gradientTransform="matrix(2.1428 0 0 -1.7142 -.604 509.43)" gradientUnits="userSpaceOnUse" xlink:href="#a"/><linearGradient id="g" x1="4.587" x2="4.587" y1="295.41" y2="294.62" gradientTransform="matrix(.64284 0 0 -1.7142 2.797 510.79)" gradientUnits="userSpaceOnUse" xlink:href="#a"/><linearGradient id="h" x1="3.88" x2="3.88" y1="295.41" y2="294.62" gradientTransform="matrix(.64284 0 0 -1.7142 8.694 510.79)" gradientUnits="userSpaceOnUse" xlink:href="#a"/><linearGradient id="i" x1="7.41" x2="7.41" y1="295.41" y2="294.62" gradientTransform="matrix(.21428 0 0 3.4286 12.776 -1002.1)" gradientUnits="userSpaceOnUse" xlink:href="#a"/><linearGradient id="j" x1="1.062" x2="1.062" y1="295.41" y2="294.62" gradientTransform="matrix(.21428 0 0 3.4286 2.343 -1002.1)" gradientUnits="userSpaceOnUse" xlink:href="#a"/><linearGradient id="k" x1="4.587" x2="4.587" y1="295.41" y2="294.62" gradientTransform="matrix(.64284 0 0 -2.8571 1.436 849.76)" gradientUnits="userSpaceOnUse" xlink:href="#a"/><linearGradient id="l" x1="3.88" x2="3.88" y1="295.41" y2="294.62" gradientTransform="matrix(.64284 0 0 -2.8571 10.055 849.76)" gradientUnits="userSpaceOnUse" xlink:href="#a"/><circle transform="translate(-.94 -312.14) scale(1.1112)" cx="8.466" cy="288.53" r="7.144" filter="url(#b)" opacity=".15" style="paint-order:stroke markers fill"/><circle cx="8.467" cy="8.467" r="7.938" fill="url(#c)" style="paint-order:stroke markers fill"/><path transform="scale(.26459)" d="M23.43 11.428v5.144h-5.143v5.143h-5.144v8.57H11.43V32h1.713v.002h1.719v6.856H11.43v1.714h1.713v8.57h37.715v-8.57h1.715v-1.714h-3.426l-.008-6.856h3.434v-1.717h-1.715v-8.57h-5.143v-5.143h-5.142v-5.144H23.43z" fill="url(#d)"/><g stroke-width="1.714"><path d="M4.839 13.004h.452v-1.817H4.84zm1.36 0h.453v-1.817H6.2zm5.444 0h.452v-1.817h-.452zm-1.362 0h.453v-1.817h-.453zm-1.36 0h.454v-1.817H8.92zm-1.362 0h.455v-1.817h-.455z" fill="url(#e)"/><path d="M6.198 4.384h4.536v-1.36H6.2z" fill="url(#f)"/><path d="M4.839 5.745h1.36v-1.36H4.84z" fill="url(#g)"/><path d="M10.734 5.745h1.361v-1.36h-1.361z" fill="url(#h)"/></g><path d="M13.457 8.013v.454h.454v-.454zm0 2.268v.454h.454v-.454z" fill="url(#i)"/><path d="M3.024 8.013v.454h.454v-.454zm0 2.268v.454h.454v-.454z" fill="url(#j)"/><path d="M3.478 8.013h1.36V5.746h-1.36z" fill="url(#k)"/><path d="M12.095 8.013h1.361V5.746h-1.361z" fill="url(#l)"/></svg>