<svg xmlns="http://www.w3.org/2000/svg" xmlns:xlink="http://www.w3.org/1999/xlink" width="64" height="64"><defs><linearGradient xlink:href="#a" id="d" x1="6" x2="6" y1="5" y2="4"/><linearGradient id="a" x2="0" y1="507.8" y2="506.8" gradientUnits="userSpaceOnUse"><stop offset="0" stop-color="#3da103"/><stop offset="1" stop-color="#7ddf07"/></linearGradient><linearGradient xlink:href="#a" id="e" x1="6" x2="6" y1="16" y2="15"/><linearGradient xlink:href="#a" id="f" x1="6" x2="6" y1="27" y2="26"/><linearGradient id="c" x1="31.044" x2="31.044" y1="59.226" y2="-22.347" gradientTransform="translate(18.469 20.214)scale(.68082)" gradientUnits="userSpaceOnUse"><stop offset="0" stop-color="#1e1f1f"/><stop offset="1" stop-color="#43474b"/></linearGradient><filter id="b" width="1.078" height="1.078" x="-.039" y="-.039" color-interpolation-filters="sRGB"><feGaussianBlur stdDeviation=".972"/></filter></defs><circle cx="32" cy="32" r="30" filter="url(#b)" opacity=".25" style="paint-order:normal"/><circle cx="32" cy="32" r="30" fill="url(#c)" style="paint-order:normal"/><path d="M11.023 15a27 27 0 0 0-5.557 12H58.53a27 27 0 0 0-5.554-12zM5.468 37a27 27 0 0 0 5.555 12h41.953a27 27 0 0 0 5.557-12z" opacity=".5"/><g stroke-width=".7"><path fill="url(#d)" d="M5 4h2v1H5z" transform="matrix(2 0 0 2 9 1)"/><path fill="url(#e)" d="M5 15h2v1H5z" transform="matrix(2 0 0 2 9 1)"/><path fill="url(#f)" d="M5 26h2v1H5z" transform="matrix(2 0 0 2 9 1)"/></g><rect width="32" height="32" x="30" y="30" fill="#eff0f1" rx="16" ry="16"/><path fill="#232629" d="M41 34c-3.878 0-7 3.122-7 7v3h4.129A4 4 0 0 1 38 43v-1a4 4 0 0 1 4-4h2v-4zm7 0v4h6v2h-6v4h10v-3c0-3.878-3.122-7-7-7zm-6 6a2 2 0 0 0-.59.09 2 2 0 0 0-.7.38 2 2 0 0 0-.491.624A2 2 0 0 0 40 42v1a2 2 0 0 0 .273 1H44v-4zm-8 8v3c0 3.878 3.122 7 7 7h3v-4h-6v-2h6v-4zm14 0v4h2a2 2 0 0 0 .59-.09 2 2 0 0 0 .7-.38 2 2 0 0 0 .491-.624A2 2 0 0 0 52 50v-1a2 2 0 0 0-.273-1zm5.871 0A4 4 0 0 1 54 49v1a4 4 0 0 1-4 4h-2v4h3c3.878 0 7-3.122 7-7v-3z"/></svg>