<svg xmlns="http://www.w3.org/2000/svg" width="64" height="64"><defs><linearGradient id="b" x1="2" x2="2" y1="30" y2="2" gradientTransform="translate(-2.286 -2.286) scale(2.1429)" gradientUnits="userSpaceOnUse"><stop offset="0" stop-color="#a5a5a5"/><stop offset="1" stop-color="#f5f2f5"/></linearGradient><filter id="a" width="1.078" height="1.078" x="-.039" y="-.039" color-interpolation-filters="sRGB"><feGaussianBlur stdDeviation=".972"/></filter></defs><linearGradient id="c" x1="15" x2="15" y1="22" y2="10" gradientTransform="translate(-5.333 -5.333) scale(2.3333)" gradientUnits="userSpaceOnUse"><stop offset="0" stop-color="#ffd42a"/><stop offset="1" stop-color="#ffdf62"/></linearGradient><circle cx="32" cy="32" r="30" filter="url(#a)" opacity=".25" style="paint-order:normal"/><rect width="60" height="60" x="2" y="2" fill="#4f575f" rx="30"/><path fill="url(#b)" d="M32 2A30 30 0 0 0 4.016 21.286h.126l6.429-2.143 4.286 4.286v-4.286L19.142 17v-2.143l4.286-2.143 4.286-4.285v2.143l2.143-2.143-2.143-2.143H32v2.143l4.285-2.143-2.143-2.143V2.107A30 30 0 0 0 32 2zm22.232 9.91-.804.804v2.143h3.148a30 30 0 0 0-2.344-2.946zm2.82 3.61-7.91 7.909L47 29.857V32l4.286 4.286 4.285 2.143 5.98-1.475A30 30 0 0 0 62 32a30 30 0 0 0-4.948-16.48zM6.286 25.57l-2.143 2.143H2.347c-.107.729-.188 1.46-.242 2.192v.005L6.286 32l2.143 2.143 4.286 2.143 2.142 2.143-2.142 2.142v4.286l2.142 4.286 4.286 4.286v5.633A30 30 0 0 0 32 62c.364-.006.729-.02 1.093-.038l1.05-2.105v-2.143l4.286-2.143 2.143-2.142v-4.286L42.715 47v-2.143l-2.143-2.143-6.429-2.143-4.286-4.285h-2.143l-2.142-2.143L19.143 32l-4.286 2.143h-4.285v-4.286H8.429V25.57z"/><path fill="url(#c)" d="M27.333 18v2.333H18v2.334h2.333V46h23.333V22.667h2.333v-2.334h-9.333V18zm2.333 2.333h4.667v2.334h-4.667zm-2.333 7h2.333V39h-2.333zm7 0h2.333V39h-2.333z"/></svg>