<svg xmlns="http://www.w3.org/2000/svg" xmlns:xlink="http://www.w3.org/1999/xlink" width="64" height="64"><defs><linearGradient xlink:href="#a" id="d" x1="6" x2="6" y1="5" y2="4"/><linearGradient id="a" x2="0" y1="507.8" y2="506.8" gradientUnits="userSpaceOnUse"><stop offset="0" stop-color="#3da103"/><stop offset="1" stop-color="#7ddf07"/></linearGradient><linearGradient xlink:href="#a" id="e" x1="6" x2="6" y1="16" y2="15"/><linearGradient xlink:href="#a" id="f" x1="6" x2="6" y1="27" y2="26"/><linearGradient id="c" x1="31.044" x2="31.044" y1="59.226" y2="-22.347" gradientTransform="translate(18.469 20.214) scale(.68082)" gradientUnits="userSpaceOnUse"><stop offset="0" stop-color="#1e1f1f"/><stop offset="1" stop-color="#43474b"/></linearGradient><filter id="b" width="1.078" height="1.078" x="-.039" y="-.039" color-interpolation-filters="sRGB"><feGaussianBlur stdDeviation=".972"/></filter></defs><circle cx="32" cy="32" r="30" filter="url(#b)" opacity=".25" style="paint-order:normal"/><circle cx="32" cy="32" r="30" fill="url(#c)" style="paint-order:normal"/><path d="M11.023 15a27 27 0 0 0-5.557 12H58.53a27 27 0 0 0-5.554-12zM5.468 37a27 27 0 0 0 5.555 12h41.953a27 27 0 0 0 5.557-12z" opacity=".5"/><g stroke-width=".7"><path fill="url(#d)" d="M5 4h2v1H5z" transform="matrix(2 0 0 2 9 1)"/><path fill="url(#e)" d="M5 15h2v1H5z" transform="matrix(2 0 0 2 9 1)"/><path fill="url(#f)" d="M5 26h2v1H5z" transform="matrix(2 0 0 2 9 1)"/></g><rect width="32" height="32" x="30" y="30" fill="#eff0f1" rx="16" ry="16"/><path fill="#232629" d="M44 34v2h10c1.108 0 2 .892 2 2v10c0 1.108-.892 2-2 2H44v6h-2c-1.108 0-2-.892-2-2V44h2v-8h-6v8h2v10c0 2.216 1.784 4 4 4h10v-2h-4v-2h6c2.216 0 4-1.784 4-4V38c0-2.216-1.784-4-4-4H44zm-6 6h2v2h-2v-2zm-4 6v8h2v-8h-2z"/></svg>