<svg width="64" height="64" xmlns="http://www.w3.org/2000/svg"><defs><linearGradient id="b" x1="520" x2="520.03" y1="44" y2="985.85" gradientTransform="translate(-.542 -.542) scale(.06356)" gradientUnits="userSpaceOnUse"><stop stop-color="#353535" offset="0"/><stop stop-color="#6d6d6d" offset="1"/></linearGradient><linearGradient id="d" x1="10.094" x2="122.72" y1="107.36" y2="107.36" gradientTransform="matrix(.24842 0 0 .24428 433.38 517.17)" gradientUnits="userSpaceOnUse"><stop stop-color="#1a1a1a" offset="0"/><stop stop-color="#2c2c2e" offset=".111"/><stop stop-color="#2b2b2d" offset=".29"/><stop stop-color="#2a2b2d" offset=".512"/><stop stop-color="#2b2b2d" offset=".752"/><stop stop-color="#323232" offset=".897"/><stop stop-color="#171717" offset="1"/></linearGradient><linearGradient id="e" x1="449.43" x2="449.55" y1="540.75" y2="518.41" gradientUnits="userSpaceOnUse"><stop stop-color="#bec1c7" offset="0"/><stop stop-color="#dddfe2" offset="1"/></linearGradient><linearGradient id="f" x1="467.17" x2="467.17" y1="546.85" y2="544.72" gradientTransform="translate(0 .106)" gradientUnits="userSpaceOnUse"><stop stop-color="#040404" offset="0"/><stop stop-color="#121212" stop-opacity=".908" offset="1"/></linearGradient><filter id="a" x="-.036" y="-.036" width="1.072" height="1.072" color-interpolation-filters="sRGB"><feGaussianBlur stdDeviation="14.16"/></filter><filter id="c" x="-.06" y="-.06" width="1.119" height="1.121" color-interpolation-filters="sRGB"><feGaussianBlur stdDeviation=".795"/></filter></defs><linearGradient id="h" x1="400.57" x2="400.57" y1="522.8" y2="535.8" gradientTransform="translate(-368.55 -499.8)" gradientUnits="userSpaceOnUse"><stop stop-color="#da4453" offset="0"/><stop stop-color="#c72737" offset="1"/></linearGradient><linearGradient id="g" x1="12" x2="12" y1="48" y2="10" gradientTransform="matrix(.55555 0 0 .54843 14.24 13.611)" gradientUnits="userSpaceOnUse"><stop stop-color="#eef1f2" offset="0"/><stop stop-color="#f9fafb" offset="1"/></linearGradient><path transform="translate(-.542 -.542) scale(.06356)" d="M969.7 392c-1.1-4.35-2.35-9-3.65-13.6-2.5-8.75-5.35-17.6-8.45-26.35-6.45-18.25-14.15-36.05-23.15-53.65-3.8-7.4-7.95-14.95-12.3-22.4h-.025q-30.601-52.01-76.325-97.75C753.65 86.1 642.35 40 512 40S270.4 86.1 178.25 178.25 40 381.65 40 512s46.1 241.65 138.25 333.8c68.05 68.05 146.5 110.95 234.9 128.65C445.1 980.85 477.9 984 512 984c130.35 0 241.65-46.05 333.8-138.2 48.6-48.6 84.4-102.5 107.35-161.8 17-43.95 27-90.8 29.95-140.75.6-10.2.9-20.65.9-31.25 0-41.75-4.7-81.6-14.3-120z" filter="url(#a)" opacity=".25"/><path d="M61.091 24.373a28.41 28.41 0 0 0-2.24-5.95c-.242-.47-.506-.95-.782-1.423h-.002q-1.945-3.306-4.851-6.213C47.359 4.93 40.285 2 32 2s-15.356 2.93-21.213 8.787C4.93 16.644 2 23.715 2 32s2.93 15.36 8.787 21.216c4.325 4.325 9.311 7.052 14.93 8.177C27.747 61.8 29.832 62 32 62c8.285 0 15.359-2.927 21.216-8.784 3.089-3.089 5.364-6.515 6.823-10.284 1.08-2.793 1.716-5.771 1.904-8.946.038-.648.057-1.312.057-1.986 0-2.654-.299-5.187-.91-7.627z" fill="url(#b)"/><g fill="#a1a7ae" stroke="#909296" stroke-width="2.525"><g stroke="none" transform="matrix(.02764 -.0222 .02754 .02227 18.561 28.089)"><path transform="matrix(21.396 21.323 -26.464 26.556 318.3 -1200.9)" d="M18.559 16.219a.843.843 0 0 0-.852.838L16.002 42.33c0 .048.02.089.028.135H16l.284 4.478c0 .464.38.838.853.838H46.86a.843.843 0 0 0 .852-.838l.285-4.478h-.024c.008-.046.028-.087.028-.135l-1.989-25.273a.844.844 0 0 0-.853-.838h-26.6z" fill="#000" filter="url(#c)" opacity=".75"/><path transform="matrix(24.469 24.385 -30.265 30.37 5246.5 -26793)" d="m435.89 541.07.248 3.915c0 .406.333.733.746.733h25.99a.738.738 0 0 0 .745-.733l.248-3.915z" fill="url(#d)"/><path transform="matrix(24.469 24.385 -30.265 30.37 5246.5 -26793)" d="M438.13 518.12h23.26c.413 0 .745.327.745.733l1.74 22.1a.738.738 0 0 1-.746.733H436.64a.738.738 0 0 1-.745-.733l1.49-22.1c0-.406.333-.733.745-.733z" fill="url(#e)"/><rect transform="matrix(24.469 24.385 -30.265 30.37 5147 -27021)" x="450.87" y="545.61" width="11.463" height=".769" ry=".384" fill="#f6b44d"/><circle transform="matrix(24.469 24.385 -30.265 30.37 5147 -27021)" cx="467.09" cy="546.02" r="1.061" fill="url(#f)" opacity=".452"/></g><path transform="matrix(.01143 0 0 .01143 45.467 47.366)" d="M63 73.215c2.824 0 5.27-1.031 7.332-3.096 2.064-2.063 3.098-4.508 3.098-7.332V10.643c0-2.825-1.033-5.269-3.098-7.332C68.27 1.246 65.825.214 63 .214s-5.269 1.033-7.333 3.097c-2.064 2.063-3.096 4.508-3.096 7.332v52.144c0 2.824 1.032 5.269 3.096 7.332 2.064 2.065 4.509 3.096 7.333 3.096z" fill="#e3e8ea" opacity=".668"/><path transform="matrix(.01143 0 0 .01143 45.467 47.366)" d="M119.01 45.269c-4.373-8.744-10.523-16.077-18.453-21.997-2.281-1.738-4.861-2.417-7.74-2.037s-5.16 1.738-6.844 4.073c-1.738 2.281-2.403 4.847-1.996 7.699.406 2.853 1.752 5.147 4.033 6.885 5.321 4.019 9.438 8.935 12.342 14.747 2.906 5.811 4.358 12.004 4.358 18.575 0 5.65-1.1 11.04-3.299 16.173-2.2 5.133-5.174 9.573-8.922 13.321-3.748 3.747-8.187 6.721-13.32 8.921s-10.524 3.301-16.173 3.301c-5.648 0-11.039-1.101-16.172-3.301s-9.573-5.174-13.321-8.921c-3.747-3.748-6.721-8.188-8.921-13.321s-3.3-10.523-3.3-16.173c0-6.571 1.453-12.763 4.359-18.575 2.906-5.811 7.02-10.727 12.343-14.747 2.281-1.739 3.625-4.033 4.033-6.885.407-2.851-.258-5.418-1.996-7.699-1.684-2.335-3.951-3.693-6.803-4.073s-5.446.299-7.781 2.037c-7.931 5.92-14.081 13.253-18.454 21.997C2.61 54.014.424 63.329.424 73.214c0 8.474 1.657 16.566 4.97 24.279 3.314 7.713 7.767 14.366 13.362 19.961 5.594 5.594 12.248 10.049 19.961 13.36 7.713 3.314 15.806 4.972 24.279 4.972s16.566-1.658 24.279-4.972c7.713-3.312 14.367-7.766 19.961-13.36s10.047-12.248 13.361-19.961c3.313-7.713 4.969-15.806 4.969-24.279 0-9.885-2.183-19.2-6.556-27.945z" fill="#e3e8ea" opacity=".668"/></g><path d="M27.017 19c-2.761 0-5 2.21-5 4.936v5c.706.623 1.11 1.565 1.111 2.5 0 .934-.405 1.877-1.111 2.5v3l3 3h14l3-3v-3c-.706-.623-1.11-1.566-1.111-2.5 0-.935.405-1.877 1.111-2.5v-5c0-2.726-2.239-4.936-5-4.936z" fill="url(#g)" opacity=".75"/><path d="M32.017 23c-1.662 0-3 1.338-3 3v3h-2v7h10v-7h-2v-3c0-1.662-1.338-3-3-3zm0 1c1.246 0 2 .546 2 2v3h-4v-3c0-1.454.754-2 2-2z" fill="url(#h)"/></svg>