<svg xmlns="http://www.w3.org/2000/svg" width="64" height="64"><defs><linearGradient id="e" x1="428.37" x2="428.37" y1="530.8" y2="525.8" gradientTransform="matrix(1.6807 0 0 1.6 -693.25 -811.28)" gradientUnits="userSpaceOnUse"><stop offset="0" stop-color="#da4453"/><stop offset="1" stop-color="#fa4e5f"/></linearGradient><linearGradient id="f" x1="353.57" x2="353.57" y1="505.8" y2="519.8" gradientTransform="matrix(.58824 0 0 .57143 -172.46 -259.03)" gradientUnits="userSpaceOnUse"><stop offset="0" stop-color="#31363b"/><stop offset="1" stop-color="#4d4d4d"/></linearGradient><linearGradient id="g" x1="350.57" x2="350.57" y1="505.8" y2="519.8" gradientTransform="matrix(.58824 0 0 .57143 -172.46 -259.03)" gradientUnits="userSpaceOnUse"><stop offset="0" stop-color="#7f8c8d"/><stop offset="1" stop-color="#afb0b3"/></linearGradient><linearGradient id="h" x1="356.57" x2="356.57" y1="519.8" y2="505.8" gradientTransform="matrix(.58824 0 0 .57143 -172.46 -259.03)" gradientUnits="userSpaceOnUse"><stop offset="0" stop-color="#afb0b3"/><stop offset="1" stop-color="#bdc3c7"/></linearGradient><linearGradient id="i" x1="358.57" x2="358.57" y1="519.8" y2="505.8" gradientTransform="matrix(.58824 0 0 .57143 -172.46 -259.03)" gradientUnits="userSpaceOnUse"><stop offset="0" stop-color="#4d4d4d"/><stop offset="1" stop-color="#585858"/></linearGradient><linearGradient id="b" x1="512" x2="512" y1="952.34" y2="71.604" gradientTransform="matrix(.06359 0 0 .06358 -.556 -.553)" gradientUnits="userSpaceOnUse"><stop offset="0" stop-color="#606060"/><stop offset="1" stop-color="#1e1e1e"/></linearGradient><filter id="d" width="1.151" height="1.378" x="-.076" y="-.189" color-interpolation-filters="sRGB"><feGaussianBlur stdDeviation=".63"/></filter><filter id="c" width="1.063" height="1.084" x="-.032" y="-.042" color-interpolation-filters="sRGB"><feGaussianBlur stdDeviation=".611"/></filter><filter id="a" width="1.072" height="1.072" x="-.036" y="-.036" color-interpolation-filters="sRGB"><feGaussianBlur stdDeviation=".42"/></filter></defs><circle cx="400.57" cy="531.8" r="14" filter="url(#a)" opacity=".25" transform="translate(-826.36 -1107.5)scale(2.1429)"/><circle cx="32.02" cy="32.044" r="30.001" fill="none"/><path fill="url(#b)" d="M50.249 8.193q-3.86-2.972-8.444-4.555Q37.068 2 32.003 2C15.433 2 2 15.432 2 32.001c0 15.158 11.245 27.684 25.845 29.71a32 32 0 0 0 4.158.29C48.57 61.999 62 48.567 62 32c0-1.31-.082-2.604-.244-3.866a30 30 0 0 0-.884-4.305q-1.33-4.689-4.082-8.726-2.722-3.977-6.54-6.911z"/><g transform="matrix(.46586 -.05557 .05726 .45209 -209.41 -153.63)"><rect width="46.303" height="34.939" x="334.23" y="513.13" filter="url(#c)" opacity=".75" ry="1.644" transform="matrix(1.735 .21325 -.21325 1.735 -46.117 -529.76)"/><rect width="80.96" height="61.472" x="473.85" y="376.8" fill="#b3b3b3" ry="2.893" transform="rotate(7.007)"/><ellipse cx="498.91" cy="384.49" opacity=".35" rx="3.196" ry="3.293" transform="rotate(7.008)skewX(-.084)"/><ellipse cx="489.83" cy="384.49" opacity=".35" rx="3.196" ry="3.293" transform="rotate(7.007)"/><ellipse cx="481.31" cy="384.49" opacity=".35" rx="3.196" ry="3.293" transform="rotate(7.007)"/><path fill="#fff" d="m422.474 447.044-5.27 42.887a2.887 2.887 0 0 0 2.516 3.226l74.614 9.17a2.887 2.887 0 0 0 3.223-2.52l5.272-42.887z" opacity=".75"/></g><g stroke-width=".58" filter="url(#d)" opacity=".15" transform="translate(-.235 1)"><path d="M22.588 30h1.765l2.059 5.714L28.47 30h1.765l-2.941 8h-1.765zm6.471 8L32 30h1.765l-2.941 8zm5.882 0 2.942-8h1.764l-2.94 8z"/><path d="m27.294 38 2.941-8H32l-2.941 8zm5.882 0 2.942-8h1.764l-2.94 8z"/><path d="M34.941 38h-1.765l-2.94-8H32zm5.882 0H39.06l-2.941-8h1.764z"/><path d="m32 30 2.941 8h1.765l-2.941-8zm5.882 0 2.942 8h1.764l-2.94-8z"/></g><g stroke-width=".58"><path fill="url(#e)" d="M22.588 30h1.765l2.059 5.714L28.47 30h1.765l-2.941 8h-1.765z" transform="translate(-.588)"/><path fill="url(#f)" d="M29.059 38 32 30h1.765l-2.941 8zm5.882 0 2.942-8h1.764l-2.94 8z" transform="translate(-.588)"/><path fill="url(#g)" d="m27.294 38 2.941-8H32l-2.941 8zm5.882 0 2.942-8h1.764l-2.94 8z" transform="translate(-.588)"/><path fill="url(#h)" d="M34.941 38h-1.765l-2.94-8H32zm5.882 0H39.06l-2.941-8h1.764z" transform="translate(-.588)"/><path fill="url(#i)" d="m32 30 2.941 8h1.765l-2.941-8zm5.882 0 2.942 8h1.764l-2.94-8z" transform="translate(-.588)"/></g><path fill="#4d4d4d" d="M42 40h3v-3h1v3h3v1h-3v3h-1v-3h-3z"/></svg>