<svg xmlns="http://www.w3.org/2000/svg" width="64" height="64"><defs><filter id="a" width="1.072" height="1.072" x="-.036" y="-.036" color-interpolation-filters="sRGB"><feGaussianBlur stdDeviation="14.115"/></filter><filter id="d" width="1.359" height="1.04" x="-.179" y="-.02" color-interpolation-filters="sRGB"><feGaussianBlur stdDeviation=".15"/></filter><filter id="e" width="1.072" height="1.072" x="-.036" y="-.036" color-interpolation-filters="sRGB"><feGaussianBlur stdDeviation=".244"/></filter><filter id="f" width="1.028" height="1.028" x="-.014" y="-.014" color-interpolation-filters="sRGB"><feGaussianBlur stdDeviation=".298"/></filter><filter id="g" width="1.059" height="1.059" x="-.03" y="-.03" color-interpolation-filters="sRGB"><feGaussianBlur stdDeviation=".298"/></filter><linearGradient id="c" x1="417" x2="417" y1="51.538" y2="573.98" gradientTransform="translate(-21.068 .714)scale(.12727)" gradientUnits="userSpaceOnUse"><stop offset="0" stop-color="#f3f3f3"/><stop offset="1" stop-color="#b7b7b7"/></linearGradient><linearGradient id="b" x1="511.51" x2="515.31" y1="983.01" y2="41.047" gradientTransform="translate(-430.63 -42.925)scale(2.2593)" gradientUnits="userSpaceOnUse"><stop offset="0" stop-color="#666"/><stop offset=".6" stop-color="#4d4d4d"/><stop offset="1" stop-color="#333"/></linearGradient></defs><path d="M511.51 983.01c259.84 0 470.5-210.66 470.5-470.5s-210.66-470.5-470.5-470.5-470.5 210.66-470.5 470.5 210.66 470.5 470.5 470.5" class="shp36" filter="url(#a)" opacity=".25" transform="translate(-.615 -.519)scale(.06376)"/><path fill="url(#b)" d="M511.51 983.01c259.84 0 470.5-210.66 470.5-470.5s-210.66-470.5-470.5-470.5-470.5 210.66-470.5 470.5 210.66 470.5 470.5 470.5" class="shp36" transform="translate(-.615 -.678)scale(.06376)"/><path fill="none" stroke="url(#c)" stroke-linecap="round" stroke-width=".546" d="m34.431 7.273-.19 1.883m4.964-.935-.548 1.812m5.06.056-.912 1.66m4.957 1.045-1.212 1.454m4.654 1.986-1.467 1.196m4.172 2.85-1.669.894m3.538 3.617-1.817.528m2.767 4.245-1.885.172m1.885 4.695-1.884-.191m.936 4.964-1.813-.547m-.056 5.059-1.66-.911m-1.044 4.957-1.455-1.212m-1.985 4.653-1.196-1.468m-2.851 4.173-.895-1.668m-3.615 3.538-.528-1.817m-4.246 2.765-.172-1.885m-4.694 1.886.19-1.883m-4.964.935.547-1.812m-5.058-.056.91-1.66m-4.956-1.044 1.211-1.455m-4.654-1.987 1.468-1.196m-4.172-2.85 1.668-.894m-3.532-3.6 1.808-.56m-2.763-4.229 1.885-.172M7.273 29.57l1.883.191m-.935-4.964 1.812.547m.056-5.059 1.66.912m1.045-4.959 1.454 1.212m1.986-4.653 1.196 1.467m2.85-4.171.895 1.668m3.616-3.538.528 1.818m4.245-2.767.172 1.885" class="shp38"/><path d="M31.998 14.998A1 1 0 0 0 30.996 16l.004.07v15.916a1 1 0 0 0 1.002.99 1 1 0 0 0 1.002-1.001l-.004-.07V15.989a1 1 0 0 0-1.002-.99z" filter="url(#d)" opacity=".5"/><path d="m32.709 31.991 15.557 15.557-.71.707-15.558-15.557z" filter="url(#e)" opacity=".35"/><path fill="#fff" d="M31.998 14.998A1 1 0 0 0 30.996 16l.004.07v15.916a1 1 0 0 0 1.002.99 1 1 0 0 0 1.002-1.001l-.004-.07V15.989a1 1 0 0 0-1.002-.99z"/><rect width="22" height="1" x="45.463" y="-.5" fill="#fff" opacity=".75" rx=".5" ry=".5" style="paint-order:stroke fill markers" transform="rotate(45)"/><path fill="#fff" d="M10.787 10.787a29.934 29.934 0 0 0 0 42.426c.119.119.242.23.362.345-11.4-11.775-11.288-30.43.345-42.065S41.784-.25 53.56 11.148c-.116-.12-.227-.243-.345-.362a29.934 29.934 0 0 0-42.426 0z" filter="url(#f)" opacity=".15"/><path fill="#fff" d="M37.435 61.526c5.772-1.063 11.297-3.831 15.779-8.313s7.25-10.007 8.313-15.779c-1.592 5.434-4.606 10.657-9.02 15.072s-9.639 7.428-15.072 9.02" filter="url(#g)" opacity=".15"/></svg>