<svg xmlns="http://www.w3.org/2000/svg" xmlns:xlink="http://www.w3.org/1999/xlink" width="64" height="64" enable-background="new 0 0 1024 1024" image-rendering="optimizeSpeed"><defs><linearGradient xlink:href="#a" id="e" x2="0" y1="538.8" y2="534.8" gradientTransform="translate(-371.07 -499.41)" gradientUnits="userSpaceOnUse"/><linearGradient id="a"><stop offset="0" stop-color="#814b13"/><stop offset="1" stop-color="#9d5b17"/></linearGradient><linearGradient xlink:href="#a" id="d" x2="0" y1="528.8" y2="524.8" gradientTransform="translate(-371.07 -499.41)" gradientUnits="userSpaceOnUse"/><linearGradient id="c" x1="29.234" x2="29.234" y1="20.91" y2="43.477" gradientUnits="userSpaceOnUse"><stop offset="0" stop-color="#ffe999"/><stop offset="1" stop-color="#ffb633"/></linearGradient><filter id="b" width="1.061" height="1.061" x="-.031" y="-.031" color-interpolation-filters="sRGB"><feGaussianBlur stdDeviation=".358"/></filter></defs><g transform="translate(-31.208 -37.396) scale(2.1429)"><rect width="28" height="28" x="15.497" y="18.852" filter="url(#b)" opacity=".15" rx="14" ry="14"/><rect width="28" height="28" x="15.497" y="18.385" fill="url(#c)" rx="14" ry="14"/><circle cx="24.497" cy="27.385" r="2" fill="url(#d)"/><circle cx="34.497" cy="27.385" r="2" fill="url(#d)"/><path fill="url(#e)" d="M24.171 35.692a6.156 7.388 0 0 0 5.327 3.694 6.156 7.388 0 0 0 5.321-3.694h-.748a6.156 7.388 0 0 1-4.573 2.462 6.156 7.388 0 0 1-4.577-2.462z"/></g></svg>