<svg width="64" height="64" version="1.1" xmlns="http://www.w3.org/2000/svg" xmlns:xlink="http://www.w3.org/1999/xlink">
 <defs>
  <linearGradient id="b" x1="417" x2="417" y1="51.538" y2="573.98" gradientTransform="matrix(2.1952 0 0 2.1952 -403.87 -27.154)" gradientUnits="userSpaceOnUse">
   <stop stop-color="#f3f3f3" offset="0"/>
   <stop stop-color="#b7b7b7" offset="1"/>
  </linearGradient>
  <filter id="a" x="-.036" y="-.036" width="1.072" height="1.072" color-interpolation-filters="sRGB">
   <feGaussianBlur stdDeviation="14.115098"/>
  </filter>
  <filter id="e" x="-.17918" y="-.02001" width="1.3584" height="1.04" color-interpolation-filters="sRGB">
   <feGaussianBlur stdDeviation="0.14989745"/>
  </filter>
  <filter id="c" x="-.035996" y="-.036004" width="1.072" height="1.072" color-interpolation-filters="sRGB">
   <feGaussianBlur stdDeviation="0.24398276"/>
  </filter>
  <linearGradient id="d" x1="511.51" x2="515.31" y1="983.01" y2="41.047" gradientTransform="matrix(2.2593 0 0 2.2593 -430.63 -42.925)" gradientUnits="userSpaceOnUse">
   <stop stop-color="#666" offset="0"/>
   <stop stop-color="#4d4d4d" offset=".5996"/>
   <stop stop-color="#333" offset="1"/>
  </linearGradient>
 </defs>
 <g transform="matrix(.063762 0 0 .063762 -.6147 -.67831)">
  <path class="shp36" d="m511.51 983.01c259.84 0 470.5-210.66 470.5-470.5s-210.66-470.5-470.5-470.5-470.5 210.66-470.5 470.5 210.66 470.5 470.5 470.5z" filter="url(#a)" opacity=".25" stroke-width="35.434"/>
  <path class="shp36" d="m511.51 983.01c259.84 0 470.5-210.66 470.5-470.5s-210.66-470.5-470.5-470.5-470.5 210.66-470.5 470.5 210.66 470.5 470.5 470.5z" fill="url(#d)" stroke-width="35.434"/>
  <path class="shp38" d="m553.43 85.985-3.2927 32.489m85.633-16.135-9.4392 31.259m87.258 0.96587-15.717 28.625m85.501 18.023-20.898 25.091m80.277 34.245-25.31 20.634m71.957 49.149-28.779 15.432m61.025 62.387-31.347 9.1099m47.723 73.231-32.51 2.9635m32.51 80.979-32.489-3.2928m16.135 85.633-31.259-9.4392m-0.96587 87.258-28.625-15.717m-18.023 85.501-25.091-20.898m-34.245 80.255-20.634-25.31m-49.172 71.979-15.432-28.779m-62.364 61.025-9.1099-31.347m-73.231 47.701-2.9635-32.51m-80.979 32.532 3.2927-32.489m-85.633 16.135 9.4392-31.259m-87.258-0.96586 15.717-28.625m-85.501-18.023 20.898-25.091m-80.277-34.267 25.31-20.634m-71.957-49.149 28.779-15.432m-60.938-62.101 31.193-9.6587m-47.657-72.945 32.51-2.9635m-32.51-80.979 32.489 3.2927m-16.135-85.633 31.259 9.4392m0.96587-87.258 28.625 15.717m18.023-85.524 25.091 20.898m34.245-80.255 20.634 25.31m49.172-71.957 15.432 28.779m62.364-61.025 9.1099 31.347m73.231-47.723 2.9635 32.51" fill="none" stroke="url(#b)" stroke-linecap="round" stroke-width="9.4101"/>
 </g>
 <g stroke-width="3.7796">
  <path d="m31.998 14.998a1.0016 1.0016 0 0 0-1.002 1.002 1.0016 1.0016 0 0 0 0.003906 0.070312v15.916a1.0016 1.0016 0 0 0 1.002 0.99023 1.0016 1.0016 0 0 0 1.002-1.002 1.0016 1.0016 0 0 0-0.003906-0.070312v-15.904a1.0016 1.0016 0 0 0 0-0.011719 1.0016 1.0016 0 0 0-1.002-0.99023z" filter="url(#e)" opacity=".5"/>
  <path d="m32.709 31.991 15.557 15.557-0.71056 0.70678-15.557-15.557z" filter="url(#c)" opacity=".35"/>
  <path d="m32.709 31.991 15.557 15.557-0.71056 0.70678-15.557-15.557z" fill="#fff" opacity=".75"/>
  <path d="m31.998 14.998a1.0016 1.0016 0 0 0-1.002 1.002 1.0016 1.0016 0 0 0 0.003906 0.070312v15.916a1.0016 1.0016 0 0 0 1.002 0.99023 1.0016 1.0016 0 0 0 1.002-1.002 1.0016 1.0016 0 0 0-0.003906-0.070312v-15.904a1.0016 1.0016 0 0 0 0-0.011719 1.0016 1.0016 0 0 0-1.002-0.99023z" fill="#fff"/>
 </g>
</svg>
