<svg xmlns="http://www.w3.org/2000/svg" xmlns:xlink="http://www.w3.org/1999/xlink" width="64" height="64"><defs><linearGradient id="d" x1="519.2" x2="519.2" y1="1024.8" y2="4.8" gradientTransform="matrix(.06359 0 0 .06358 -.556 -.553)" gradientUnits="userSpaceOnUse"><stop offset="0" stop-color="#606060"/><stop offset=".02" stop-color="#414141"/><stop offset="1" stop-color="#1e1e1e"/></linearGradient><filter id="c" width="1.072" height="1.072" x="-.036" y="-.036" color-interpolation-filters="sRGB"><feGaussianBlur stdDeviation=".42"/></filter></defs><linearGradient xlink:href="#a" id="e" x1="32" x2="32" y1="30" y2="2" gradientTransform="translate(-36.895 -1.206)" gradientUnits="userSpaceOnUse"/><linearGradient id="g" x1="-16.5" x2="-16.5" y1="29.5" y2="5.5" gradientTransform="translate(-36.895 -1.206)" gradientUnits="userSpaceOnUse"><stop offset="0" stop-color="#31363b"/><stop offset="1" stop-color="#333c45"/></linearGradient><linearGradient id="b"><stop offset="0" stop-color="#292c2f"/><stop offset="1" stop-opacity="0"/></linearGradient><linearGradient xlink:href="#a" id="j" x1="9" x2="9" y1="11" y2="13" gradientTransform="translate(-36.895 -1.206)" gradientUnits="userSpaceOnUse"/><linearGradient xlink:href="#a" id="k" x1="23" x2="23" y1="11" y2="13" gradientTransform="translate(-36.895 -1.206)" gradientUnits="userSpaceOnUse"/><linearGradient xlink:href="#a" id="l" x1="23" x2="23" y1="15" y2="17" gradientTransform="translate(-36.895 -1.206)" gradientUnits="userSpaceOnUse"/><linearGradient xlink:href="#a" id="h" x1="23" x2="23" y1="19" y2="21" gradientTransform="translate(-36.895 -1.206)" gradientUnits="userSpaceOnUse"/><linearGradient xlink:href="#a" id="i" x1="9" x2="9" y1="19" y2="21" gradientTransform="translate(-36.895 -1.206)" gradientUnits="userSpaceOnUse"/><linearGradient xlink:href="#a" id="m" x1="9" x2="9" y1="15" y2="17" gradientTransform="translate(-36.895 -1.206)" gradientUnits="userSpaceOnUse"/><linearGradient id="r" x1="16" x2="16" y1="28" y2="4" gradientTransform="translate(-36.895 -1.206)" gradientUnits="userSpaceOnUse"><stop offset="0" stop-color="#cfd5d5"/><stop offset="1" stop-color="#eff0f1"/></linearGradient><linearGradient xlink:href="#b" id="n" x1="9.854" x2="29" y1="4.146" y2="23.293" gradientTransform="translate(-36.895 -1.206)" gradientUnits="userSpaceOnUse"/><linearGradient xlink:href="#b" id="o" x1="12.854" x2="29" y1="4.146" y2="20.293" gradientTransform="translate(-36.895 -1.206)" gradientUnits="userSpaceOnUse"/><linearGradient xlink:href="#b" id="p" x1="19.854" x2="31" y1="4.146" y2="15.293" gradientTransform="translate(-36.895 -1.206)" gradientUnits="userSpaceOnUse"/><linearGradient xlink:href="#b" id="q" x1="22.854" x2="30" y1="4.146" y2="11.293" gradientTransform="translate(-36.895 -1.206)" gradientUnits="userSpaceOnUse"/><linearGradient id="f" x2="0" y1="30" y2="2" gradientTransform="translate(-36.895 -1.206)" gradientUnits="userSpaceOnUse"><stop offset="0" stop-color="#54a3d8"/><stop offset="1" stop-color="#7cbcec"/></linearGradient><linearGradient id="a" x1="5" x2="5" y1="21" y2="11" gradientUnits="userSpaceOnUse"><stop offset="0" stop-color="#375a7d"/><stop offset="1" stop-color="#3b85b5"/></linearGradient><circle cx="400.57" cy="531.8" r="14" filter="url(#c)" opacity=".25" transform="translate(-826.36 -1107.5) scale(2.1429)"/><circle cx="32.02" cy="32.044" r="30.001" fill="none"/><path fill="url(#d)" d="M50.249 8.193q-3.86-2.972-8.444-4.556Q37.068 2 32.003 2C15.433 2 2 15.432 2 32.001c0 15.158 11.245 27.684 25.845 29.71a31.977 31.977 0 0 0 4.158.29C48.57 61.999 62 48.567 62 32c0-1.31-.082-2.604-.244-3.866a29.932 29.932 0 0 0-.884-4.305q-1.33-4.69-4.082-8.726-2.722-3.977-6.54-6.912z"/><path fill="url(#e)" d="M-32.895 28.794h24v-2h-24zm0-28h24v2h-24z" transform="translate(58.865 12.979) scale(1.2857)"/><path fill="#292c2f" d="M16.572 47.428h30.857v2.571H16.572z" opacity=".2"/><path fill="url(#f)" d="M-33.895.794a1 1 0 0 0-.1.006 1 1 0 0 0-.1.014 1 1 0 0 0-.095.025 1 1 0 0 0-.094.033 1 1 0 0 0-.09.045 1 1 0 0 0-.085.05 1 1 0 0 0-.08.061 1 1 0 0 0-.073.07 1 1 0 0 0-.066.075 1 1 0 0 0-.059.08 1 1 0 0 0-.049.088 1 1 0 0 0-.04.09 1 1 0 0 0-.032.095 1 1 0 0 0-.023.098 1 1 0 0 0-.012.1 1 1 0 0 0-.002.07v26a1 1 0 0 0 .002.07 1 1 0 0 0 .012.1 1 1 0 0 0 .023.098 1 1 0 0 0 .031.095 1 1 0 0 0 .041.09 1 1 0 0 0 .05.088 1 1 0 0 0 .058.08 1 1 0 0 0 .066.076 1 1 0 0 0 .072.07 1 1 0 0 0 .08.06 1 1 0 0 0 .086.05 1 1 0 0 0 .09.045 1 1 0 0 0 .094.033 1 1 0 0 0 .096.025 1 1 0 0 0 .1.014 1 1 0 0 0 .099.006h1a1 1 0 0 0 .1-.006 1 1 0 0 0 .1-.014 1 1 0 0 0 .095-.025 1 1 0 0 0 .094-.033 1 1 0 0 0 .09-.045 1 1 0 0 0 .085-.05 1 1 0 0 0 .08-.06 1 1 0 0 0 .073-.07 1 1 0 0 0 .066-.076 1 1 0 0 0 .059-.08 1 1 0 0 0 .049-.088 1 1 0 0 0 .04-.09 1 1 0 0 0 .032-.095 1 1 0 0 0 .023-.098 1 1 0 0 0 .012-.1 1 1 0 0 0 .002-.07v-1h22v1a1 1 0 0 0 .002.07 1 1 0 0 0 .012.1 1 1 0 0 0 .023.098 1 1 0 0 0 .031.095 1 1 0 0 0 .041.09 1 1 0 0 0 .05.088 1 1 0 0 0 .058.08 1 1 0 0 0 .066.076 1 1 0 0 0 .072.07 1 1 0 0 0 .08.06 1 1 0 0 0 .086.05 1 1 0 0 0 .09.045 1 1 0 0 0 .094.033 1 1 0 0 0 .096.025 1 1 0 0 0 .1.014 1 1 0 0 0 .099.006h1a1 1 0 0 0 .1-.006 1 1 0 0 0 .1-.014 1 1 0 0 0 .095-.025 1 1 0 0 0 .094-.033 1 1 0 0 0 .09-.045 1 1 0 0 0 .085-.05 1 1 0 0 0 .08-.06 1 1 0 0 0 .073-.07 1 1 0 0 0 .066-.076 1 1 0 0 0 .059-.08 1 1 0 0 0 .049-.088 1 1 0 0 0 .04-.09 1 1 0 0 0 .032-.095 1 1 0 0 0 .023-.098 1 1 0 0 0 .012-.1 1 1 0 0 0 .002-.07v-26a1 1 0 0 0-.002-.07 1 1 0 0 0-.012-.1 1 1 0 0 0-.023-.098 1 1 0 0 0-.031-.095 1 1 0 0 0-.041-.09 1 1 0 0 0-.05-.088 1 1 0 0 0-.058-.08 1 1 0 0 0-.066-.076 1 1 0 0 0-.072-.069 1 1 0 0 0-.08-.06 1 1 0 0 0-.086-.05 1 1 0 0 0-.09-.046A1 1 0 0 0-7.6.84a1 1 0 0 0-.096-.025 1 1 0 0 0-.1-.014 1 1 0 0 0-.099-.006h-1a1 1 0 0 0-.1.006 1 1 0 0 0-.1.014A1 1 0 0 0-9.19.84a1 1 0 0 0-.094.033 1 1 0 0 0-.09.045 1 1 0 0 0-.085.05 1 1 0 0 0-.08.061 1 1 0 0 0-.073.07 1 1 0 0 0-.066.075 1 1 0 0 0-.059.08 1 1 0 0 0-.049.088 1 1 0 0 0-.04.09 1 1 0 0 0-.032.095 1 1 0 0 0-.023.098 1 1 0 0 0-.012.1 1 1 0 0 0-.002.07v1h-22v-1a1 1 0 0 0-.002-.07 1 1 0 0 0-.012-.1 1 1 0 0 0-.023-.098 1 1 0 0 0-.031-.095 1 1 0 0 0-.041-.09 1 1 0 0 0-.05-.088 1 1 0 0 0-.058-.08 1 1 0 0 0-.066-.076 1 1 0 0 0-.072-.069 1 1 0 0 0-.08-.06 1 1 0 0 0-.086-.05 1 1 0 0 0-.09-.046A1 1 0 0 0-32.6.84a1 1 0 0 0-.096-.025 1 1 0 0 0-.1-.014 1 1 0 0 0-.099-.006z" transform="translate(58.865 12.979) scale(1.2857)"/><path fill="url(#g)" d="M-32.895 2.794a1 1 0 0 0-1 1v22a1 1 0 0 0 1 1h24a1 1 0 0 0 1-1v-22a1 1 0 0 0-1-1zm1 2h10v20h-10zm12 0h10v20h-10z" opacity=".8" transform="translate(58.865 12.979) scale(1.2857)"/><path fill="url(#h)" d="M-18.895 17.794h8v2h-8z" transform="translate(58.865 12.979) scale(1.2857)"/><path fill="url(#i)" d="M-30.895 17.794h8v2h-8z" transform="translate(58.865 12.979) scale(1.2857)"/><path fill="url(#j)" d="M-30.895 9.794h8v2h-8z" transform="translate(58.865 12.979) scale(1.2857)"/><path fill="url(#k)" d="M-18.895 9.794h8v2h-8z" transform="translate(58.865 12.979) scale(1.2857)"/><path fill="url(#l)" d="M-18.895 13.794h8v2h-8z" transform="translate(58.865 12.979) scale(1.2857)"/><path fill="url(#m)" d="M-30.895 13.794h8v2h-8z" transform="translate(58.865 12.979) scale(1.2857)"/><path fill="url(#n)" d="m-27.041 2.94 2.146 2.147.146 21.56 2.147 2.147h-3l-2.147-2.146z" opacity=".2" transform="translate(58.865 12.979) scale(1.2857)"/><path fill="url(#o)" d="m-24.041 2.94 6.146 6.147.146 17.56 2.147 2.147h-7l-2.147-2.146z" opacity=".2" transform="translate(58.865 12.979) scale(1.2857)"/><path fill="url(#p)" d="m-17.041 2.94 2.146 2.147.146 21.56 2.147 2.147h-3l-2.147-2.146z" opacity=".2" transform="translate(58.865 12.979) scale(1.2857)"/><path fill="url(#q)" d="m-14.041 2.94-.708 23.708 2.147 2.146h4.707a1.007 1.007 0 0 0 .295-.045 1 1 0 0 0 .35-.19 1 1 0 0 0 .246-.312 1.003 1.003 0 0 0 .107-.383 1 1 0 0 0 .002-.07V10.087z" opacity=".2" transform="translate(58.865 12.979) scale(1.2857)"/><path fill="url(#r)" d="M-27.395 2.794a.5.5 0 0 0-.5.5v23a.5.5 0 0 0 1 0v-23a.5.5 0 0 0-.5-.5zm3 0a.5.5 0 0 0-.5.5v23a.5.5 0 0 0 1 0v-23a.5.5 0 0 0-.5-.5zm7 0a.5.5 0 0 0-.5.5v23a.5.5 0 0 0 1 0v-23a.5.5 0 0 0-.5-.5zm3 0a.5.5 0 0 0-.5.5v23a.5.5 0 0 0 1 0v-23a.5.5 0 0 0-.5-.5z" transform="translate(58.865 12.979) scale(1.2857)"/></svg>