<svg xmlns="http://www.w3.org/2000/svg" width="64" height="64"><defs><linearGradient id="b" x1="399.99" x2="399.99" y1="545.14" y2="518.14" gradientTransform="translate(-826.36 -1107.5) scale(2.1429)" gradientUnits="userSpaceOnUse"><stop offset="0" stop-color="#664889"/><stop offset="1" stop-color="#b8619e"/></linearGradient><linearGradient id="d" x1="125.09" x2="125.37" y1="43.923" y2="19.292" gradientUnits="userSpaceOnUse"><stop offset="0" stop-color="#dadada"/><stop offset="1" stop-color="#fff"/></linearGradient><linearGradient id="e" x1="125.11" x2="125.49" y1="40.719" y2="22.508" gradientUnits="userSpaceOnUse"><stop offset="0" stop-color="#4032f8"/><stop offset="1" stop-color="#45bdf9" stop-opacity=".82"/></linearGradient><linearGradient id="g" x1="129.25" x2="128.78" y1="43.696" y2="19.428" gradientUnits="userSpaceOnUse"><stop offset="0" stop-color="#d40c0c"/><stop offset="1" stop-color="#f15a70"/></linearGradient><filter id="a" width="1.072" height="1.072" x="-.036" y="-.036" color-interpolation-filters="sRGB"><feGaussianBlur stdDeviation=".42"/></filter><filter id="c" width="1.1" height="1.15" x="-.05" y="-.075" color-interpolation-filters="sRGB"><feGaussianBlur stdDeviation=".75"/></filter><radialGradient id="f" cx="125.48" cy="31.312" r="4.998" gradientUnits="userSpaceOnUse"><stop offset="0" stop-color="#3d3d3d"/><stop offset="1" stop-color="#060606"/></radialGradient></defs><circle cx="400.57" cy="531.8" r="14" filter="url(#a)" opacity=".25" transform="translate(-826.36 -1107.5) scale(2.1429)"/><g stroke-width="1.571" transform="translate(-.02 -.044)"><circle cx="32.02" cy="32.044" r="30.001" fill="url(#b)"/><circle cx="32.02" cy="32.044" r="30.001" fill="none"/></g><g stroke-width="3.538"><path d="M143.09 30.197c-.378-.53-.79-1.02-1.21-1.512-2.24-2.627-4.815-4.966-7.634-6.663-1.8-1.089-3.73-1.966-5.726-2.381a15.107 15.107 0 0 0-3.062-.33c-1.013 0-2.03.114-3.046.326-2 .423-3.92 1.296-5.723 2.381-2.82 1.7-5.397 4.044-7.65 6.667-.415.488-.816.983-1.194 1.512a1.814 1.814 0 0 0 0 2.23c1.145 1.61 2.513 3.035 3.893 4.347 2.993 2.804 6.422 5.155 10.197 6.107a14.393 14.393 0 0 0 7.041 0c3.776-.952 7.208-3.303 10.205-6.111a29.795 29.795 0 0 0 3.901-4.34 1.84 1.84 0 0 0 0-2.233" filter="url(#c)" opacity=".25" transform="matrix(1.0667 0 0 1.0698 -101.84 -1.5)"/><path fill="url(#d)" d="M143.09 30.197c-.378-.53-.79-1.02-1.21-1.512-2.24-2.627-4.815-4.966-7.634-6.663-1.8-1.089-3.73-1.966-5.726-2.381a15.107 15.107 0 0 0-3.062-.33c-1.013 0-2.03.114-3.046.326-2 .423-3.92 1.296-5.723 2.381-2.82 1.7-5.397 4.044-7.65 6.667-.415.488-.816.983-1.194 1.512a1.814 1.814 0 0 0 0 2.23c1.145 1.61 2.513 3.035 3.893 4.347 2.993 2.804 6.422 5.155 10.197 6.107a14.393 14.393 0 0 0 7.041 0c3.776-.952 7.208-3.303 10.205-6.111a29.795 29.795 0 0 0 3.901-4.34 1.84 1.84 0 0 0 0-2.233" transform="matrix(1.0667 0 0 1.0698 -101.84 -1.5)"/><path fill="url(#e)" d="M134.47 31.312a9.003 9.003 0 1 1-18.002 0 9.003 9.003 0 0 1 18.002 0" transform="matrix(1.0667 0 0 1.0698 -101.84 -1.5)"/><path fill="url(#f)" d="M130.47 31.312a4.998 4.998 0 1 1-9.997 0 4.998 4.998 0 0 1 9.997 0" transform="matrix(1.0667 0 0 1.0698 -101.84 -1.5)"/><path fill="#f9f9f9" d="M36.266 29.86a2.133 2.139 0 1 1-4.266 0 2.133 2.139 0 0 1 4.266 0" opacity=".35"/><path fill="url(#g)" d="m132.46 21.032-16.252 19.272c.74.48 1.497.907 2.275 1.293l16.241-19.276c-.722-.507-1.564-.93-2.267-1.285" transform="matrix(1.0667 0 0 1.0698 -101.84 -1.5)"/></g></svg>