<svg xmlns="http://www.w3.org/2000/svg" width="64" height="64"><defs><filter id="a" width="1.072" height="1.072" x="-.036" y="-.036" color-interpolation-filters="sRGB"><feGaussianBlur stdDeviation=".42"/></filter><filter id="c" width="1.119" height="1.121" x="-.059" y="-.061" color-interpolation-filters="sRGB"><feGaussianBlur stdDeviation=".207"/></filter><filter id="d" width="1.028" height="1.028" x="-.014" y="-.014" color-interpolation-filters="sRGB"><feGaussianBlur stdDeviation=".298"/></filter><filter id="e" width="1.059" height="1.059" x="-.03" y="-.03" color-interpolation-filters="sRGB"><feGaussianBlur stdDeviation=".298"/></filter><linearGradient id="b" x1="519.2" x2="519.2" y1="1024.8" y2="4.8" gradientTransform="matrix(.06359 0 0 .06358 -.556 -.553)" gradientUnits="userSpaceOnUse"><stop offset="0" stop-color="#606060"/><stop offset=".02" stop-color="#414141"/><stop offset="1" stop-color="#1e1e1e"/></linearGradient></defs><circle cx="400.57" cy="531.8" r="14" filter="url(#a)" opacity=".25" transform="translate(-826.36 -1107.5)scale(2.1429)"/><circle cx="32.02" cy="32.044" r="30.001" fill="none"/><path fill="url(#b)" d="M50.249 8.193q-3.86-2.972-8.444-4.556Q37.068 2 32.003 2C15.433 2 2 15.432 2 32.001c0 15.158 11.245 27.684 25.845 29.71a32 32 0 0 0 4.158.29C48.57 61.999 62 48.567 62 32c0-1.31-.082-2.604-.244-3.866a30 30 0 0 0-.884-4.305q-1.33-4.69-4.082-8.726-2.722-3.977-6.54-6.912z"/><g stroke-width="1.612"><path d="m3.631 285.09-.985 2.125c.159-.09.332-.155.511-.197l.478 4.637.477-4.638c.178.042.349.107.504.198zm5.261 6.237q.134.24.197.511l-4.802.478 4.803.478a1.8 1.8 0 0 1-.198.503l2.125-.985z" filter="url(#c)" opacity=".75" transform="translate(5.38 -1061.9)scale(3.7796)"/><path fill="#fff" d="M15.38 36.64h10v10.002h-10z" opacity=".1"/><path fill="#fff" d="m19.103 15.626-3.723 8.032a7.3 7.3 0 0 1 1.931-.745l1.807 17.526 1.803-17.53c.673.16 1.32.405 1.905.749zM38.988 39.2c.34.6.585 1.254.744 1.93l-18.15 1.808 18.154 1.806a7 7 0 0 1-.748 1.901l8.031-3.723z"/><path fill="none" stroke="#fff" stroke-dasharray="3.223838507164, 3.223838507164" stroke-dashoffset="3.78" stroke-width="1.999" d="M16 28.666h17.371v17.37H16z" opacity=".2"/></g><path fill="#fff" d="M10.787 10.787a29.934 29.934 0 0 0 0 42.426c.119.119.242.23.362.345-11.4-11.775-11.288-30.43.345-42.065S41.784-.25 53.56 11.148c-.116-.12-.227-.243-.345-.362a29.934 29.934 0 0 0-42.426 0z" filter="url(#d)" opacity=".15"/><path fill="#fff" d="M37.435 61.526c5.772-1.063 11.297-3.831 15.779-8.313s7.25-10.007 8.313-15.779c-1.592 5.434-4.606 10.657-9.02 15.072s-9.639 7.428-15.072 9.02" filter="url(#e)" opacity=".15"/></svg>