<svg width="64" height="64" xmlns="http://www.w3.org/2000/svg"><defs><linearGradient id="b" x1="399.57" x2="399.57" y1="545.8" y2="517.8" gradientTransform="translate(-826.36 -1107.5) scale(2.1429)" gradientUnits="userSpaceOnUse"><stop stop-color="#3889e9" offset="0"/><stop stop-color="#5ea5fb" offset="1"/></linearGradient><linearGradient id="c" x1="16" x2="16" y1="1" y2="31" gradientTransform="scale(2)" gradientUnits="userSpaceOnUse"><stop stop-color="#72da70" offset="0"/><stop stop-color="#52eea4" offset="1"/></linearGradient><filter id="a" x="-.036" y="-.036" width="1.072" height="1.072" color-interpolation-filters="sRGB"><feGaussianBlur stdDeviation=".42"/></filter><filter id="d" x="-.062" y="-.058" width="1.124" height="1.117" color-interpolation-filters="sRGB"><feGaussianBlur stdDeviation=".825"/></filter></defs><circle transform="translate(-826.36 -1107.5) scale(2.1429)" cx="400.57" cy="531.8" r="14" filter="url(#a)" opacity=".25"/><circle cx="32.02" cy="32.044" r="30.001" fill="none"/><path d="M32 2C15.448 2 2 15.448 2 32s13.448 30 30 30 30-13.448 30-30S48.552 2 32 2z" color="#000" fill="url(#c)" overflow="visible"/><path d="M32.004 15a10.641 10.641 0 0 0-10.668 10.66V29h-3.3C16.908 29 16 29.734 16 30.648v16.703c0 .914.909 1.649 2.035 1.649H45.97C47.096 49 48 48.265 48 47.35V30.648c0-.914-.904-1.648-2.03-1.648h-3.302v-3.34c0-5.904-4.76-10.66-10.664-10.66zm0 3.809c3.689 0 6.855 3.163 6.855 6.859V29H25.15v-3.34c0-3.689 3.158-6.851 6.855-6.851z" filter="url(#d)" opacity=".15"/><path d="M32.004 15a10.641 10.641 0 0 0-10.668 10.66V29h-3.3C16.908 29 16 29.734 16 30.648v16.703c0 .914.909 1.649 2.035 1.649H45.97C47.096 49 48 48.265 48 47.35V30.648c0-.914-.904-1.648-2.03-1.648h-3.302v-3.34c0-5.904-4.76-10.66-10.664-10.66zm0 3.809c3.689 0 6.855 3.163 6.855 6.859V29H25.15v-3.34c0-3.689 3.158-6.851 6.855-6.851z" fill="#fff"/></svg>