<svg width="64" height="64" version="1.1" viewBox="0 0 16.934 16.934" xmlns="http://www.w3.org/2000/svg">
 <defs>
  <linearGradient id="b" x1="-1.6525" x2="-1.6525" y1="-26.753" y2="60.682" gradientTransform="matrix(.18014 0 0 .18014 4.8868 5.3485)" gradientUnits="userSpaceOnUse">
   <stop stop-color="#333" offset="0"/>
   <stop stop-color="#6a6a6a" offset="1"/>
  </linearGradient>
  <filter id="filter7" x="-.027" y="-.027" width="1.054" height="1.054" color-interpolation-filters="sRGB">
   <feGaussianBlur stdDeviation="0.17860078"/>
  </filter>
  <filter id="d" x="-.06" y="-.06" width="1.12" height="1.12" color-interpolation-filters="sRGB">
   <feGaussianBlur stdDeviation=".65"/>
  </filter>
  <linearGradient id="e" x1="499.95" x2="499.95" y1="2.008" y2="1026" gradientTransform="matrix(.99609 0 0 .99609 2 2)" gradientUnits="userSpaceOnUse">
   <stop stop-color="#fff" offset="0"/>
   <stop stop-color="#d7d7d7" offset="1"/>
  </linearGradient>
  <radialGradient id="f" cx="512.01" cy="512.01" r="470.16" gradientTransform="matrix(.97625 0 0 .97625 12.152 12.141)" gradientUnits="userSpaceOnUse">
   <stop stop-opacity="0" offset="0"/>
   <stop stop-opacity=".526" offset="1"/>
  </radialGradient>
  <filter id="g" x="-.048" y="-.048" width="1.096" height="1.096" color-interpolation-filters="sRGB">
   <feGaussianBlur stdDeviation="6.174"/>
  </filter>
  <linearGradient id="h" x1="2331.3" x2="2331.3" y1="435.51" y2="45.726" gradientTransform="matrix(2.6682,0,0,2.6682,-5700.6,-128.41)" gradientUnits="userSpaceOnUse">
   <stop stop-color="#807c76" offset=".058"/>
   <stop stop-color="#d4d7d0" offset=".385"/>
   <stop stop-color="#bdbfba" offset=".558"/>
   <stop stop-color="#acb3ac" offset=".635"/>
   <stop stop-color="#dadfda" offset=".75"/>
   <stop stop-color="#c2c7c1" offset=".863"/>
   <stop stop-color="#7f7a75" offset=".941"/>
  </linearGradient>
 </defs>
 <circle cx="8.467" cy="8.7316" r="7.9378" fill="#000000" filter="url(#filter7)" opacity=".15" stroke-width=".26459" style="paint-order:normal"/>
 <circle cx="8.467" cy="8.467" r="7.9378" fill="url(#b)" stroke-width=".26459" style="paint-order:normal"/>
 <g stroke-linecap="round" stroke-linejoin="round">
  <g transform="translate(3.175 -2.117)">
   <rect x="5.821" y="10.848" width="2.117" height="1.058" rx="0" ry="0" fill="#b3b3b3" fill-opacity=".992" style="paint-order:stroke fill markers"/>
   <path d="M3.969 6.615H9.79v3.969H3.969z" fill="#1a7ab7" style="paint-order:stroke fill markers"/>
   <path d="M4.498 6.086c-.586 0-1.058.472-1.058 1.058v2.91c0 .587.472 1.059 1.058 1.059h4.763c.586 0 1.058-.472 1.058-1.058v-2.91c0-.587-.472-1.06-1.058-1.06zm0 .529h4.763c.293 0 .529.236.529.53v2.91c0 .293-.236.529-.53.529H4.499a.53.53 0 0 1-.53-.53v-2.91c0-.293.237-.53.53-.53M4.498 11.642c-.586 0-1.058.472-1.058 1.058v.265h.529V12.7c0-.293.236-.529.53-.529H9.26c.293 0 .529.236.529.53v.264h.53V12.7c0-.586-.473-1.058-1.06-1.058z" fill="#e6e6e6" fill-opacity=".992" style="paint-order:stroke fill markers"/>
  </g>
  <rect x="5.821" y="10.848" width="2.117" height="1.058" rx="0" ry="0" fill="#ccc" fill-opacity=".992" style="paint-order:stroke fill markers"/>
  <path d="M3.969 6.615H9.79v3.969H3.969z" fill="#1c98e3" style="paint-order:stroke fill markers"/>
  <path d="M4.498 6.086c-.586 0-1.058.472-1.058 1.058v2.91c0 .587.472 1.059 1.058 1.059h4.763c.586 0 1.058-.472 1.058-1.058v-2.91c0-.587-.472-1.06-1.058-1.06zm0 .529h4.763c.293 0 .529.236.529.53v2.91c0 .293-.236.529-.53.529H4.499a.53.53 0 0 1-.53-.53v-2.91c0-.293.237-.53.53-.53M4.498 11.642c-.586 0-1.058.472-1.058 1.058v.265h.529V12.7c0-.293.236-.529.53-.529H9.26c.293 0 .529.236.529.53v.264h.53V12.7c0-.586-.473-1.058-1.06-1.058z" fill="#fff" fill-opacity=".992" style="paint-order:stroke fill markers"/>
 </g>
 <circle transform="scale(.26459)" cx="50" cy="50" r="13" filter="url(#d)" opacity=".25" style="paint-order:stroke markers fill"/>
 <g transform="matrix(.0067471 0 0 .0067471 9.7765 9.7765)" stroke-width="2.308">
  <path d="m984.88 316.75q-9.292-22.529-20.962-44.139a452 452 0 0 0-13.938-24.203c-21.124-34.252-46.894-66.614-77.311-97.029-99.568-99.568-219.83-149.38-360.67-149.38-140.85 0-261.05 49.811-360.61 149.38-99.569 99.572-149.38 219.78-149.38 360.61s49.811 261.11 149.38 360.67c99.568 99.568 219.78 149.32 360.61 149.32 140.84 0 261.11-49.758 360.67-149.32 54.836-54.89 94.598-116.04 119.23-183.42 20.043-54.943 30.092-113.99 30.092-177.25 0-48.515-5.889-94.598-17.72-138.25a657 657 0 0 0-4.214-14.695 498 498 0 0 0-15.18-42.302z" fill="url(#e)"/>
  <circle cx="512" cy="511.99" r="458.99" color="#000000" fill="#666666"/>
  <circle cx="512" cy="511.99" r="458.99" color="#000000" fill="url(#f)"/>
  <path class="shp86" transform="matrix(2.6682,0,0,2.6682,-5700.6,-128.41)" d="m2410.5 116.88-6.45 17.23c-0.42 1.13 0.01 2.63 0.96 3.36l7.59 5.81c0.93 0.71 2.52 0.75 3.5 0.05l14.96-10.68c0.98-0.7 2.47-0.58 3.32 0.28l6.27 6.27c0.87 0.87 0.98 2.34 0.28 3.32l-10.68 14.95c-0.7 0.98-0.67 2.55 0.06 3.5l5.82 7.59c0.71 0.93 2.24 1.38 3.36 0.96l17.21-6.45c1.13-0.42 2.53 0.08 3.13 1.13l4.43 7.67c0.62 1.07 0.34 2.51-0.59 3.28l-14.2 11.69c-0.93 0.77-1.31 2.29-0.85 3.39l3.65 8.83c0.45 1.08 1.8 1.91 3 1.8l18.31-1.78c1.2-0.12 2.43 0.73 2.74 1.9l2.29 8.56c0.32 1.19-0.32 2.51-1.42 3.01l-16.75 7.62c-1.1 0.5-1.86 1.87-1.7 3.06l1.25 9.47c0.15 1.16 1.25 2.31 2.44 2.51l18.14 3.02c1.19 0.2 2.15 1.34 2.15 2.54v8.86c0 1.23-0.96 2.35-2.15 2.54l-18.12 3.02c-1.19 0.2-2.28 1.32-2.43 2.51l-1.24 9.48c-0.15 1.16 0.61 2.56 1.7 3.06l16.72 7.61c1.09 0.5 1.73 1.85 1.42 3.01l-2.29 8.56c-0.32 1.19-1.54 2.02-2.74 1.9l-18.29-1.77c-1.2-0.12-2.54 0.69-3 1.8l-3.67 8.83c-0.45 1.08-0.08 2.63 0.85 3.39l14.2 11.69c0.93 0.77 1.2 2.23 0.59 3.28l-4.43 7.67c-0.62 1.07-2.01 1.55-3.14 1.13l-17.23-6.45c-1.13-0.42-2.63 0.01-3.36 0.96l-5.81 7.59c-0.71 0.93-0.75 2.52-0.05 3.5l10.68 14.96c0.7 0.98 0.58 2.47-0.28 3.32l-6.27 6.27c-0.87 0.87-2.34 0.98-3.32 0.28l-14.95-10.68c-0.98-0.7-2.55-0.67-3.5 0.06l-7.59 5.82c-0.93 0.71-1.38 2.24-0.96 3.36l6.45 17.21c0.42 1.13-0.08 2.53-1.13 3.13l-7.67 4.43c-1.07 0.62-2.51 0.34-3.28-0.59l-11.69-14.2c-0.77-0.93-2.29-1.31-3.39-0.85l-8.83 3.65c-1.08 0.45-1.91 1.8-1.8 3l1.78 18.31c0.12 1.2-0.73 2.43-1.9 2.74l-8.56 2.29c-1.19 0.32-2.51-0.32-3.01-1.42l-7.62-16.75c-0.5-1.1-1.87-1.86-3.06-1.7l-9.47 1.25c-1.16 0.15-2.31 1.25-2.51 2.44l-3.02 18.14c-0.2 1.19-1.34 2.15-2.54 2.15h-8.86c-1.23 0-2.35-0.96-2.54-2.15l-3.02-18.12c-0.2-1.19-1.32-2.28-2.51-2.43l-9.48-1.24c-1.16-0.15-2.56 0.61-3.06 1.7l-7.61 16.72c-0.5 1.09-1.85 1.73-3.01 1.42l-8.56-2.29c-1.19-0.32-2.02-1.54-1.9-2.74l1.77-18.29c0.12-1.2-0.69-2.54-1.8-3l-8.83-3.67c-1.08-0.45-2.63-0.08-3.39 0.85l-11.69 14.2c-0.77 0.93-2.23 1.2-3.28 0.59l-7.67-4.43c-1.07-0.62-1.55-2.01-1.13-3.14l6.45-17.23c0.42-1.13-0.01-2.63-0.96-3.36l-7.59-5.81c-0.93-0.71-2.52-0.75-3.5-0.05l-14.96 10.68c-0.98 0.7-2.47 0.58-3.32-0.28l-6.27-6.27c-0.87-0.87-0.98-2.34-0.28-3.32l10.68-14.95c0.7-0.98 0.67-2.55-0.06-3.5l-5.82-7.59c-0.71-0.93-2.24-1.38-3.36-0.96l-17.21 6.45c-1.13 0.42-2.53-0.08-3.13-1.13l-4.43-7.67c-0.62-1.07-0.34-2.51 0.59-3.28l14.2-11.69c0.93-0.77 1.31-2.29 0.85-3.39l-3.65-8.83c-0.45-1.08-1.8-1.91-3-1.8l-18.31 1.78c-1.2 0.12-2.43-0.73-2.74-1.9l-2.29-8.56c-0.32-1.19 0.32-2.51 1.42-3.01l16.75-7.62c1.1-0.5 1.86-1.87 1.7-3.06l-1.25-9.47c-0.15-1.16-1.25-2.31-2.44-2.51l-18.14-3.02c-1.19-0.2-2.15-1.34-2.15-2.54v-8.86c0-1.23 0.96-2.35 2.15-2.54l18.12-3.02c1.19-0.2 2.28-1.32 2.43-2.51l1.24-9.48c0.15-1.16-0.61-2.56-1.7-3.06l-16.72-7.61c-1.09-0.5-1.73-1.85-1.42-3.01l2.29-8.56c0.32-1.19 1.54-2.02 2.74-1.9l18.29 1.77c1.2 0.12 2.54-0.69 3-1.8l3.67-8.83c0.45-1.08 0.08-2.63-0.85-3.39l-14.2-11.69c-0.93-0.77-1.2-2.23-0.59-3.28l4.43-7.67c0.62-1.07 2.01-1.55 3.14-1.13l17.23 6.45c1.13 0.42 2.63-0.01 3.36-0.96l5.81-7.59c0.71-0.93 0.75-2.52 0.05-3.5l-10.68-14.96c-0.7-0.98-0.58-2.47 0.28-3.32l6.27-6.27c0.87-0.87 2.34-0.98 3.32-0.28l14.95 10.68c0.98 0.7 2.55 0.67 3.5-0.06l7.59-5.82c0.93-0.71 1.38-2.24 0.96-3.36l-6.45-17.21c-0.42-1.13 0.08-2.53 1.13-3.13l7.67-4.43c1.07-0.62 2.51-0.34 3.28 0.59l11.69 14.2c0.77 0.93 2.29 1.31 3.39 0.85l8.83-3.65c1.08-0.45 1.91-1.8 1.8-3l-1.78-18.31c-0.12-1.2 0.73-2.43 1.9-2.74l8.56-2.29c1.19-0.32 2.51 0.32 3.01 1.42l7.62 16.75c0.5 1.1 1.87 1.86 3.06 1.7l9.47-1.25c1.16-0.15 2.31-1.25 2.51-2.44l3.02-18.14c0.2-1.19 1.34-2.15 2.54-2.15h8.86c1.23 0 2.35 0.96 2.54 2.15l3.02 18.12c0.2 1.19 1.32 2.28 2.51 2.43l9.48 1.24c1.16 0.15 2.56-0.61 3.06-1.7l7.61-16.72c0.5-1.09 1.85-1.73 3.01-1.42l8.56 2.29c1.19 0.32 2.02 1.54 1.9 2.74l-1.77 18.29c-0.12 1.2 0.69 2.54 1.8 3l8.83 3.67c1.08 0.45 2.63 0.08 3.39-0.85l11.69-14.2c0.77-0.93 2.23-1.2 3.28-0.59l7.67 4.43c1.07 0.62 1.55 2.01 1.13 3.14m-29.36 36.71c-24.86-14.36-53.13-17.48-78.92-10.94-4.97 1.26-2.05 0.57-2.05 0.57-6.92 2.36-9.68 9.49-6.19 15.85 0 0-2.01-3.67 0.16 0.28 10.34 18.87 31.04 56.63 31.04 56.63 4.68 8.54 16.37 15.3 26.12 15.1 0 0 45.86-0.95 68.8-1.43 4.26-0.09 0 0 0 0 7.06-0.15 11.65-6.09 10.11-12.74-7.16-25.78-24.05-48.88-49.06-63.32zm-1.73 184.17c25.11-13.92 42.34-36.54 50.02-62.02 1.48-4.91 0.57-2.05 0.57-2.05 1.54-7.15-3.15-13.18-10.4-13.47 0 0 4.18 0.17-0.32-0.01-21.5-0.85-64.52-2.56-64.52-2.56-9.73-0.39-21.55 6.15-26.4 14.61 0 0-22.8 39.8-34.21 59.71-2.12 3.7 0 0 0 0-3.51 6.13-0.77 13.12 5.72 15.23 0 0-4.1-1.14 0 0 25.79 7.14 54.29 4.56 79.54-9.44m-125.19-16.85c5.07 4.57 12.5 3.44 16.05-2.67 0 0-2.14 3.68 0 0 11.54-19.83 34.6-59.48 34.6-59.48 4.9-8.43 4.66-21.93-0.54-30.17 0 0-22.99-36.41-34.48-54.6-2.41-3.81-0.17-0.27-0.17-0.27-3.87-6.13-11.44-7.18-16.86-2.27 0 0 2.02-2.22-1.49 1.52-18.22 19.39-29.2 45.62-28.7 74.33 0.5 28.87 12.52 54.84 31.6 73.6z" fill="#050505" filter="url(#g)" opacity=".75"/>
  <path class="shp86" d="m731.1 171.44-17.21 45.973c-1.12 3.015 0.027 7.017 2.562 8.965l20.252 15.502c2.48 1.895 6.723 2.001 9.338 0.134l39.916-28.496c2.615-1.868 6.59-1.548 8.859 0.747l16.73 16.73c2.32 2.321 2.614 6.243 0.747 8.858l-28.496 39.89c-1.868 2.615-1.788 6.804 0.16 9.339l15.529 20.252c1.894 2.481 5.977 3.682 8.965 2.561l45.92-17.21c3.015-1.12 6.75 0.214 8.351 3.015l11.82 20.465c1.655 2.855 0.908 6.698-1.574 8.752l-37.888 31.191c-2.481 2.055-3.495 6.11-2.268 9.045l9.74 23.56c1.2 2.882 4.802 5.097 8.004 4.803l48.855-4.75c3.202-0.32 6.483 1.949 7.31 5.07l6.11 22.84c0.855 3.176-0.853 6.698-3.788 8.032l-44.692 20.332c-2.935 1.334-4.963 4.99-4.536 8.164l3.335 25.268c0.4 3.095 3.336 6.164 6.51 6.698l48.402 8.058c3.175 0.533 5.736 3.575 5.736 6.777v23.64c0 3.282-2.561 6.27-5.736 6.777l-48.348 8.058c-3.175 0.534-6.084 3.522-6.484 6.697l-3.309 25.295c-0.4 3.095 1.628 6.83 4.536 8.165l44.612 20.305c2.909 1.334 4.616 4.936 3.79 8.031l-6.111 22.84c-0.854 3.175-4.109 5.39-7.31 5.07l-48.802-4.723c-3.202-0.32-6.777 1.841-8.005 4.803l-9.792 23.56c-1.2 2.881-0.213 7.017 2.268 9.045l37.888 31.191c2.482 2.055 3.202 5.95 1.574 8.752l-11.82 20.465c-1.654 2.855-5.363 4.135-8.378 3.015l-45.972-17.211c-3.015-1.12-7.017 0.027-8.965 2.561l-15.502 20.252c-1.894 2.482-2.001 6.724-0.133 9.339l28.496 39.916c1.867 2.615 1.547 6.59-0.748 8.858l-16.73 16.73c-2.32 2.322-6.243 2.615-8.858 0.747l-39.89-28.496c-2.615-1.867-6.804-1.787-9.339 0.16l-20.252 15.53c-2.481 1.894-3.682 5.976-2.561 8.965l17.21 45.92c1.12 3.015-0.214 6.75-3.015 8.351l-20.465 11.82c-2.855 1.655-6.697 0.907-8.752-1.574l-31.19-37.888c-2.055-2.481-6.111-3.495-9.046-2.268l-23.56 9.739c-2.882 1.2-5.096 4.803-4.803 8.005l4.75 48.855c0.32 3.201-1.948 6.483-5.07 7.31l-22.84 6.11c-3.175 0.855-6.697-0.853-8.031-3.788l-20.332-44.692c-1.335-2.935-4.99-4.963-8.165-4.536l-25.268 3.335c-3.095 0.4-6.164 3.335-6.697 6.51l-8.058 48.402c-0.534 3.175-3.576 5.736-6.778 5.736h-23.64c-3.281 0-6.27-2.561-6.777-5.736l-8.058-48.348c-0.533-3.176-3.522-6.084-6.697-6.484l-25.295-3.309c-3.095-0.4-6.83 1.628-8.165 4.536l-20.305 44.612c-1.334 2.908-4.936 4.616-8.03 3.789l-22.841-6.109c-3.176-0.854-5.39-4.11-5.07-7.311l4.722-48.801c0.32-3.202-1.84-6.777-4.803-8.005l-23.56-9.792c-2.881-1.2-7.017-0.213-9.045 2.268l-31.19 37.888c-2.055 2.481-5.95 3.202-8.753 1.574l-20.465-11.82c-2.855-1.654-4.135-5.363-3.015-8.378l17.21-45.973c1.121-3.015-0.026-7.017-2.561-8.965l-20.252-15.502c-2.482-1.895-6.724-2.001-9.339-0.134l-39.916 28.496c-2.615 1.868-6.59 1.548-8.858-0.747l-16.73-16.73c-2.322-2.321-2.615-6.243-0.747-8.858l28.496-39.89c1.867-2.615 1.787-6.804-0.16-9.339l-15.53-20.252c-1.894-2.481-5.976-3.682-8.965-2.561l-45.92 17.21c-3.015 1.12-6.75-0.214-8.351-3.015l-11.82-20.465c-1.654-2.855-0.907-6.698 1.574-8.752l37.888-31.191c2.481-2.055 3.495-6.11 2.268-9.045l-9.739-23.56c-1.2-2.882-4.803-5.097-8.004-4.803l-48.855 4.75c-3.202 0.32-6.484-1.949-7.311-5.07l-6.11-22.84c-0.854-3.176 0.853-6.698 3.788-8.032l44.692-20.332c2.935-1.334 4.963-4.99 4.536-8.164l-3.335-25.268c-0.4-3.095-3.335-6.164-6.51-6.698l-48.401-8.058c-3.176-0.533-5.737-3.575-5.737-6.777v-23.64c0-3.282 2.561-6.27 5.737-6.777l48.348-8.058c3.175-0.534 6.083-3.522 6.483-6.697l3.31-25.296c0.4-3.095-1.628-6.83-4.536-8.165l-44.612-20.305c-2.908-1.334-4.616-4.936-3.789-8.031l6.11-22.84c0.854-3.175 4.11-5.39 7.311-5.07l48.801 4.723c3.202 0.32 6.777-1.841 8.005-4.803l9.792-23.56c1.2-2.882 0.214-7.017-2.268-9.045l-37.888-31.191c-2.481-2.055-3.202-5.95-1.574-8.752l11.82-20.465c1.654-2.855 5.363-4.135 8.378-3.015l45.973 17.21c3.015 1.12 7.018-0.027 8.965-2.561l15.502-20.252c1.895-2.482 2.002-6.724 0.134-9.339l-28.496-39.916c-1.868-2.615-1.548-6.59 0.747-8.858l16.73-16.73c2.321-2.322 6.243-2.615 8.858-0.748l39.89 28.496c2.615 1.868 6.804 1.788 9.339-0.16l20.252-15.529c2.481-1.894 3.682-5.976 2.562-8.965l-17.21-45.92c-1.121-3.015 0.213-6.75 3.015-8.351l20.465-11.82c2.855-1.655 6.697-0.907 8.751 1.574l31.191 37.888c2.055 2.481 6.11 3.495 9.046 2.268l23.56-9.739c2.881-1.2 5.096-4.803 4.802-8.005l-4.75-48.855c-0.32-3.201 1.949-6.483 5.07-7.31l22.84-6.11c3.176-0.855 6.698 0.853 8.032 3.788l20.332 44.692c1.334 2.935 4.99 4.963 8.165 4.536l25.268-3.335c3.095-0.4 6.163-3.335 6.697-6.51l8.058-48.402c0.533-3.175 3.575-5.736 6.777-5.736h23.64c3.282 0 6.27 2.561 6.777 5.736l8.058 48.348c0.534 3.176 3.522 6.084 6.697 6.484l25.295 3.309c3.095 0.4 6.83-1.628 8.165-4.536l20.305-44.612c1.334-2.909 4.936-4.616 8.031-3.789l22.84 6.11c3.175 0.854 5.39 4.11 5.07 7.311l-4.723 48.801c-0.32 3.202 1.841 6.777 4.803 8.005l23.56 9.792c2.882 1.2 7.017 0.213 9.045-2.268l31.191-37.888c2.055-2.481 5.95-3.202 8.752-1.574l20.465 11.82c2.855 1.654 4.136 5.363 3.015 8.378zm-78.338 97.95c-66.331-38.315-141.76-46.64-210.57-29.19-13.261 3.362-5.47 1.52-5.47 1.52-18.464 6.298-25.828 25.322-16.516 42.292 0 0-5.363-9.792 0.427 0.747 27.59 50.349 82.821 151.1 82.821 151.1 12.487 22.786 43.678 40.823 69.693 40.29 0 0 122.36-2.535 183.57-3.816 11.367-0.24 0 0 0 0 18.837-0.4 31.085-16.249 26.976-33.993-19.104-68.786-64.17-130.42-130.9-168.95zm-4.616 491.4c66.998-37.141 112.97-97.496 133.46-165.48 3.949-13.101 1.52-5.47 1.52-5.47 4.11-19.078-8.404-35.167-27.748-35.94 0 0 11.153 0.453-0.854-0.028-57.366-2.268-172.15-6.83-172.15-6.83-25.962-1.04-57.5 16.409-70.44 38.982 0 0-60.835 106.19-91.279 159.32-5.657 9.872 0 0 0 0-9.365 16.356-2.054 35.007 15.262 40.637 0 0-10.94-3.042 0 0 68.813 19.05 144.86 12.167 212.23-25.188zm-334.03-44.959c13.528 12.194 33.352 9.179 42.825-7.124 0 0-5.71 9.819 0 0 30.791-52.91 92.32-158.7 92.32-158.7 13.074-22.493 12.434-58.514-1.44-80.5 0 0-61.343-97.15-92-145.68-6.431-10.166-0.454-0.72-0.454-0.72-10.326-16.357-30.524-19.159-44.986-6.057 0 0 5.39-5.924-3.976 4.055-48.615 51.736-77.911 121.72-76.577 198.33 1.334 77.031 33.406 146.32 84.315 196.38z" fill="url(#h)"/>
 </g>
</svg>
