<svg xmlns="http://www.w3.org/2000/svg" width="64" height="64"><defs><linearGradient id="c" x1="520" x2="520" y1="4" y2="1024" gradientUnits="userSpaceOnUse"><stop offset="0" stop-color="#323232"/><stop offset="1" stop-color="#5c5c5c"/></linearGradient><linearGradient id="b" x1="33.88" x2="990.12" y1="512" y2="512" gradientTransform="translate(-38.508 33.22)" gradientUnits="userSpaceOnUse"><stop offset="0" stop-color="#171d25"/><stop offset="1" stop-color="#303236"/></linearGradient><linearGradient id="d" x1="34.89" x2="512" y1="272.94" y2="272.94" gradientTransform="rotate(180 515.85 515.85) scale(1.0151)" gradientUnits="userSpaceOnUse"><stop offset="0" stop-color="#5e7ee2"/><stop offset="1" stop-color="#3f9ae5"/></linearGradient><filter id="a" width="1.072" height="1.072" x="-.036" y="-.036" color-interpolation-filters="sRGB"><feGaussianBlur stdDeviation="14.344"/></filter></defs><g stroke-width="15.938" transform="translate(-.125 -.125) scale(.06274)"><circle cx="512" cy="512" r="478.12" filter="url(#a)" opacity=".25" style="paint-order:stroke markers fill"/><circle cx="512" cy="512" r="478.12" fill="url(#b)" style="paint-order:stroke markers fill"/><circle cx="511.5" cy="512.5" r="431.93" fill="url(#c)" style="paint-order:stroke markers fill"/><path fill="url(#d)" d="M512 512V33.87c-131.68.12-244.12 46.822-337.26 139.91C81.536 266.984 34.89 379.64 34.89 511.49c0 .17.004.338.004.508z"/><path fill="#fff" d="M30 5.004A27.101 27.101 0 0 0 4.969 30H28c1.108 0 2-.892 2-2V5.004zM37 35c-1.108 0-2 .892-2 2v19.783A24.969 24.969 0 0 0 56.74 35H37z" opacity=".15" style="paint-order:stroke markers fill" transform="translate(2 2) scale(15.938)"/></g><path fill-rule="evenodd" d="M32 5v27.01H5v1h27V59h1V33.01h26v-1H33V5z" opacity=".2" style="paint-order:fill markers stroke"/></svg>