<svg width="64" height="64" xmlns="http://www.w3.org/2000/svg"><defs><filter id="d" x="-.032" y="-.042" width="1.063" height="1.084" color-interpolation-filters="sRGB"><feGaussianBlur stdDeviation=".611"/></filter><filter id="a" x="-.036" y="-.036" width="1.072" height="1.072" color-interpolation-filters="sRGB"><feGaussianBlur stdDeviation=".42"/></filter><filter id="e" x="-.076" y="-.189" width="1.151" height="1.378" color-interpolation-filters="sRGB"><feGaussianBlur stdDeviation=".63"/></filter><linearGradient id="b" x1="399.57" x2="399.57" y1="545.8" y2="517.8" gradientTransform="translate(-826.36 -1107.5) scale(2.1429)" gradientUnits="userSpaceOnUse"><stop stop-color="#3889e9" offset="0"/><stop stop-color="#5ea5fb" offset="1"/></linearGradient><linearGradient id="c" x1="512" x2="512" y1="952.34" y2="71.604" gradientTransform="matrix(.06359 0 0 .06358 -.556 -.553)" gradientUnits="userSpaceOnUse"><stop stop-color="#606060" offset="0"/><stop stop-color="#1e1e1e" offset="1"/></linearGradient></defs><linearGradient id="j" x1="358.57" x2="358.57" y1="519.8" y2="505.8" gradientTransform="matrix(.58824 0 0 .57143 -172.46 -259.03)" gradientUnits="userSpaceOnUse"><stop stop-color="#4d4d4d" offset="0"/><stop stop-color="#585858" offset="1"/></linearGradient><linearGradient id="i" x1="356.57" x2="356.57" y1="519.8" y2="505.8" gradientTransform="matrix(.58824 0 0 .57143 -172.46 -259.03)" gradientUnits="userSpaceOnUse"><stop stop-color="#afb0b3" offset="0"/><stop stop-color="#bdc3c7" offset="1"/></linearGradient><linearGradient id="h" x1="350.57" x2="350.57" y1="505.8" y2="519.8" gradientTransform="matrix(.58824 0 0 .57143 -172.46 -259.03)" gradientUnits="userSpaceOnUse"><stop stop-color="#7f8c8d" offset="0"/><stop stop-color="#afb0b3" offset="1"/></linearGradient><linearGradient id="g" x1="353.57" x2="353.57" y1="505.8" y2="519.8" gradientTransform="matrix(.58824 0 0 .57143 -172.46 -259.03)" gradientUnits="userSpaceOnUse"><stop stop-color="#31363b" offset="0"/><stop stop-color="#4d4d4d" offset="1"/></linearGradient><linearGradient id="f" x1="428.37" x2="428.37" y1="530.8" y2="525.8" gradientTransform="matrix(1.6807 0 0 1.6 -693.25 -811.28)" gradientUnits="userSpaceOnUse"><stop stop-color="#da4453" offset="0"/><stop stop-color="#fa4e5f" offset="1"/></linearGradient><circle transform="translate(-826.36 -1107.5) scale(2.1429)" cx="400.57" cy="531.8" r="14" filter="url(#a)" opacity=".25"/><circle cx="32.02" cy="32.044" r="30.001" fill="none"/><path d="M50.249 8.193q-3.86-2.972-8.444-4.556Q37.068 2 32.003 2C15.433 2 2 15.432 2 32.001c0 15.158 11.245 27.684 25.845 29.71a31.977 31.977 0 0 0 4.158.29C48.57 61.999 62 48.567 62 32c0-1.31-.082-2.604-.244-3.866a29.932 29.932 0 0 0-.884-4.305q-1.33-4.69-4.082-8.726-2.722-3.977-6.54-6.912z" fill="url(#c)"/><g transform="matrix(.46586 -.05557 .05726 .45209 -209.41 -153.63)"><rect transform="matrix(1.735 .21325 -.21325 1.735 -46.117 -529.76)" x="334.23" y="513.13" width="46.303" height="34.939" ry="1.644" filter="url(#d)" opacity=".75"/><rect transform="rotate(7.007)" x="473.85" y="376.8" width="80.96" height="61.472" ry="2.893" fill="#b3b3b3"/><ellipse transform="rotate(7.008) skewX(-.084)" cx="498.91" cy="384.49" rx="3.196" ry="3.293" opacity=".35"/><ellipse transform="rotate(7.007)" cx="489.83" cy="384.49" rx="3.196" ry="3.293" opacity=".35"/><ellipse transform="rotate(7.007)" cx="481.31" cy="384.49" rx="3.196" ry="3.293" opacity=".35"/><path d="m422.474 447.044-5.27 42.887a2.887 2.887 0 0 0 2.516 3.226l74.614 9.17a2.887 2.887 0 0 0 3.223-2.52l5.272-42.887-80.355-9.876z" fill="#fff" opacity=".75"/></g><g transform="translate(-.235 1)" filter="url(#e)" opacity=".15" stroke-width=".58"><path d="M22.588 30h1.765l2.059 5.714L28.47 30h1.765l-2.941 8h-1.765zM29.059 38 32 30h1.765l-2.941 8zm5.882 0 2.942-8h1.764l-2.94 8z"/><path d="m27.294 38 2.941-8H32l-2.941 8zm5.882 0 2.942-8h1.764l-2.94 8z"/><path d="M34.941 38h-1.765l-2.94-8H32zm5.882 0H39.06l-2.941-8h1.764z"/><path d="m32 30 2.941 8h1.765l-2.941-8zm5.882 0 2.942 8h1.764l-2.94-8z"/></g><g stroke-width=".58"><path d="M22.588 30h1.765l2.059 5.714L28.47 30h1.765l-2.941 8h-1.765z" fill="url(#f)" transform="translate(-.588)"/><path d="M29.059 38 32 30h1.765l-2.941 8zm5.882 0 2.942-8h1.764l-2.94 8z" fill="url(#g)" transform="translate(-.588)"/><path d="m27.294 38 2.941-8H32l-2.941 8zm5.882 0 2.942-8h1.764l-2.94 8z" fill="url(#h)" transform="translate(-.588)"/><path d="M34.941 38h-1.765l-2.94-8H32zm5.882 0H39.06l-2.941-8h1.764z" fill="url(#i)" transform="translate(-.588)"/><path d="m32 30 2.941 8h1.765l-2.941-8zm5.882 0 2.942 8h1.764l-2.94-8z" fill="url(#j)" transform="translate(-.588)"/></g></svg>