<svg id="Apps-Visual-Studio-Code" width="64" height="64" enable-background="new 0 0 1024 1024" image-rendering="optimizeSpeed" version="1.1" viewBox="0 0 64 64" xmlns="http://www.w3.org/2000/svg" xmlns:xlink="http://www.w3.org/1999/xlink">
 <defs>
  <radialGradient id="a" cx="512.01" cy="512.01" r="470.16" gradientTransform="matrix(.057428 0 0 .057428 2.5964 2.5964)" gradientUnits="userSpaceOnUse">
   <stop stop-opacity=".16" offset="0"/>
   <stop stop-opacity=".5" offset="1"/>
  </radialGradient>
  <filter id="c" x="-.036" y="-.036" width="1.072" height="1.072" color-interpolation-filters="sRGB">
   <feGaussianBlur stdDeviation="15.299715"/>
  </filter>
  <filter id="filter1007" x="-.048" y="-.048" width="1.096" height="1.096" color-interpolation-filters="sRGB">
   <feGaussianBlur stdDeviation="0.96906229"/>
  </filter>
  <linearGradient id="linearGradient1129" x1="20" x2="45" y1="10" y2="52.411" gradientUnits="userSpaceOnUse">
   <stop stop-color="#e2e6e8" offset="0"/>
   <stop stop-color="#838d91" offset="1"/>
  </linearGradient>
  <linearGradient id="linearGradient1137" x1="32.174" x2="32.174" y1="2.5679" y2="61.821" gradientTransform="matrix(.465 0 0 .465 -70.148 -10.438)" gradientUnits="userSpaceOnUse">
   <stop stop-color="#f6f6f6" stop-opacity=".98837" offset="0"/>
   <stop stop-color="#bfbfbf" offset="1"/>
  </linearGradient>
 </defs>
 <path transform="matrix(.058825 0 0 .058825 1.8816 1.8822)" d="m984.88 316.75q-9.2923-22.529-20.962-44.139c-4.376-8.1578-9.0222-16.261-13.938-24.203-21.124-34.252-46.894-66.614-77.311-97.029-99.568-99.568-219.83-149.38-360.67-149.38-140.85 0-261.05 49.811-360.61 149.38-99.569 99.572-149.38 219.78-149.38 360.61s49.811 261.11 149.38 360.67c99.568 99.568 219.78 149.32 360.61 149.32 140.84 0 261.11-49.758 360.67-149.32 54.836-54.89 94.598-116.04 119.23-183.42 20.043-54.943 30.092-113.99 30.092-177.25 0-48.515-5.8888-94.598-17.72-138.25-1.3507-4.9163-2.7553-9.8326-4.2139-14.695-4.4302-14.371-9.5085-28.471-15.181-42.302z" filter="url(#c)" opacity=".25" stroke-width="18.368"/>
 <path id="path" d="m59.817 20.515q-0.54662-1.3253-1.2331-2.5965c-0.25742-0.47988-0.53073-0.95655-0.8199-1.4237-1.2426-2.0149-2.7585-3.9186-4.5478-5.7077-5.8571-5.8571-12.932-8.7873-21.216-8.7873-8.2855 0-15.356 2.9301-21.213 8.7873-5.8571 5.8573-8.7873 12.929-8.7873 21.213s2.9301 15.36 8.7873 21.216c5.8571 5.8571 12.929 8.7837 21.213 8.7837 8.2849 0 15.36-2.927 21.216-8.7837 3.2257-3.2289 5.5647-6.8261 7.0137-10.79 1.179-3.232 1.7702-6.7055 1.7702-10.427 0-2.8539-0.34641-5.5647-1.0424-8.1326-0.079455-0.2892-0.16208-0.5784-0.24788-0.86443-0.26061-0.84538-0.55934-1.6748-0.89302-2.4884z" fill="url(#linearGradient1137)" stroke-width="1.0805"/>
 <circle cx="32" cy="32" r="27" color="#000000" enable-background="accumulate" fill="#666" stroke-width="2.2604"/>
 <circle cx="32" cy="32" r="27" color="#000000" enable-background="accumulate" fill="url(#a)" stroke-width="2.2604"/>
 <path d="m31.301 8.4636c-0.18835 0-0.36705 0.15111-0.39844 0.33789l-0.47461 2.8477c-0.03139 0.18678-0.21246 0.35927-0.39453 0.38281l-1.4863 0.19531c-0.18678 0.02511-0.40004-0.09297-0.47852-0.26562l-1.1973-2.6289c-0.078479-0.17265-0.28588-0.27484-0.47266-0.22461l-1.3438 0.35938c-0.18364 0.04866-0.31571 0.24329-0.29688 0.43164l0.2793 2.873c0.01727 0.18835-0.11369 0.40007-0.2832 0.4707l-1.3848 0.57422c-0.17265 0.0722-0.41235 0.0112-0.5332-0.13477l-1.834-2.2285c-0.12086-0.14597-0.34768-0.18911-0.51562-0.0918l-1.2031 0.69531c-0.16481 0.09417-0.24365 0.31287-0.17773 0.49024l1.0117 2.7012c0.06592 0.17579-0.0044 0.41591-0.15039 0.52734l-1.1914 0.91406c-0.14911 0.11458-0.39501 0.11963-0.54883 0.0098l-2.3477-1.6758c-0.15382-0.10987-0.38298-0.09358-0.51953 0.04297l-0.98438 0.98434c-0.13499 0.13342-0.15479 0.36767-0.04492 0.52148l1.6758 2.3477c0.10987 0.15382 0.10363 0.40286-0.0078 0.54883l-0.91016 1.1914c-0.11458 0.14911-0.34998 0.21631-0.52734 0.15039l-2.7051-1.0117c-0.17736-0.06592-0.39487 0.0098-0.49219 0.17773l-0.69531 1.2031c-0.09574 0.1648-0.05417 0.39477 0.0918 0.51562l2.2285 1.834c0.14597 0.11928 0.20344 0.36369 0.13281 0.5332l-0.57422 1.3848c-0.0722 0.17423-0.28431 0.30204-0.47266 0.2832l-2.8691-0.27734c-0.18835-0.018836-0.38141 0.11009-0.43164 0.29688l-0.35938 1.3438c-0.04866 0.18207 0.053529 0.39418 0.22461 0.47266l2.623 1.1953c0.17108 0.07848 0.29112 0.2984 0.26758 0.48047l-0.19531 1.4863c-0.02354 0.18678-0.19408 0.36314-0.38086 0.39453l-2.8438 0.47461c-0.18678 0.02982-0.33789 0.20538-0.33789 0.39844v1.3906c0 0.18835 0.15111 0.36705 0.33789 0.39844l2.8457 0.47461c0.18678 0.03139 0.36122 0.21051 0.38477 0.39258l0.19531 1.4863c0.02511 0.18678-0.09493 0.40199-0.26758 0.48047l-2.6289 1.1973c-0.17265 0.07848-0.27288 0.28588-0.22266 0.47266l0.35938 1.3438c0.04866 0.18364 0.24134 0.31571 0.42969 0.29688l2.875-0.2793c0.18835-0.01726 0.40007 0.11369 0.4707 0.2832l0.57227 1.3848c0.0722 0.17265 0.01316 0.41235-0.13281 0.5332l-2.2285 1.834c-0.14597 0.12086-0.19106 0.34768-0.09375 0.51562l0.69531 1.2031c0.09417 0.16481 0.31482 0.24365 0.49219 0.17773l2.7012-1.0117c0.17579-0.06592 0.4159 0.0044 0.52734 0.15039l0.91406 1.1914c0.11458 0.14911 0.11963 0.39501 0.0098 0.54883l-1.6777 2.3457c-0.10987 0.15382-0.09163 0.38493 0.04492 0.52148l0.98438 0.98438c0.13341 0.13498 0.36572 0.15479 0.51953 0.04492l2.3496-1.6777c0.15382-0.10987 0.40286-0.10362 0.54883 0.0078l1.1914 0.91211c0.14911 0.11458 0.21631 0.34998 0.15039 0.52734l-1.0117 2.7051c-0.06592 0.17736 0.0098 0.39487 0.17773 0.49219l1.2031 0.69531c0.1648 0.09574 0.39282 0.05417 0.51367-0.0918l1.8359-2.2285c0.11928-0.14597 0.36173-0.2054 0.53125-0.13477l1.3867 0.57617c0.17422 0.0722 0.30204 0.28236 0.2832 0.4707l-0.2793 2.8711c-0.01884 0.18835 0.11205 0.37946 0.29883 0.42969l1.3438 0.36133c0.18207 0.04866 0.39418-0.05353 0.47266-0.22461l1.1934-2.623c0.07848-0.17108 0.2984-0.29112 0.48047-0.26758l1.4883 0.19531c0.18678 0.02354 0.36314 0.19408 0.39453 0.38086l0.47461 2.8438c0.02982 0.18678 0.20538 0.33789 0.39844 0.33789h1.3906c0.18835-1e-6 0.36705-0.15111 0.39844-0.33789l0.47266-2.8477c0.03139-0.18678 0.21246-0.35927 0.39453-0.38281l1.4863-0.19531c0.18678-0.02512 0.40199 0.09493 0.48047 0.26758l1.1953 2.6289c0.07848 0.17265 0.28588 0.27288 0.47266 0.22266l1.3438-0.35938c0.18364-0.04866 0.31766-0.24134 0.29883-0.42969l-0.2793-2.875c-0.01727-0.18835 0.11369-0.40007 0.2832-0.4707l1.3848-0.57227c0.17265-0.0722 0.41235-0.01316 0.5332 0.13281l1.834 2.2285c0.12086 0.14597 0.34768 0.19106 0.51562 0.09375l1.2031-0.69531c0.16481-0.09418 0.24365-0.31482 0.17773-0.49219l-1.0137-2.7012c-0.06592-0.17579 0.0064-0.41591 0.15234-0.52734l1.1914-0.91406c0.14911-0.11458 0.39501-0.11963 0.54883-0.0098l2.3457 1.6777c0.15382 0.10987 0.38493 0.09163 0.52148-0.04492l0.98438-0.98438c0.13498-0.13342 0.15284-0.36767 0.04297-0.52148l-1.6758-2.3477c-0.10987-0.15382-0.10362-0.40286 0.0078-0.54883l0.91211-1.1914c0.11458-0.14911 0.34998-0.21631 0.52734-0.15039l2.7051 1.0118c0.17736 0.06592 0.39487-0.0098 0.49219-0.17773l0.69531-1.2031c0.09574-0.1648 0.05417-0.39477-0.0918-0.51562l-2.2285-1.834c-0.14597-0.11928-0.2054-0.36174-0.13476-0.53125l0.57617-1.3867c0.0722-0.17422 0.28236-0.30204 0.4707-0.2832l2.8711 0.2793c0.18835 0.01884 0.37946-0.11205 0.42969-0.29883l0.35938-1.3438c0.04866-0.18207-0.05157-0.39418-0.22266-0.47266l-2.625-1.1934c-0.17108-0.07848-0.28917-0.2984-0.26562-0.48047l0.19531-1.4883c0.02354-0.18678 0.19408-0.36314 0.38086-0.39453l2.8438-0.47461c0.18678-0.02982 0.33789-0.20538 0.33789-0.39844v-1.3906c0-0.18835-0.15111-0.36705-0.33789-0.39844l-2.8477-0.47461c-0.18678-0.03139-0.35927-0.21051-0.38281-0.39258l-0.19531-1.4863c-0.02511-0.18678 0.09297-0.40199 0.26562-0.48047l2.6289-1.1973c0.17265-0.07848 0.27288-0.28392 0.22266-0.4707l-0.35938-1.3438c-0.04866-0.18364-0.24134-0.31766-0.42969-0.29883l-2.873 0.2793c-0.18835 0.01726-0.40007-0.11369-0.4707-0.2832l-0.57422-1.3848c-0.0722-0.17265-0.0112-0.41235 0.13476-0.5332l2.2285-1.834c0.14597-0.12086 0.18911-0.34768 0.0918-0.51562l-0.69531-1.2031c-0.09417-0.16481-0.31287-0.24365-0.49023-0.17773l-2.7012 1.0117c-0.17579 0.06592-0.41591-0.0044-0.52734-0.15039l-0.91406-1.1914c-0.11458-0.14911-0.11963-0.39501-0.0098-0.54883l1.6758-2.3457c0.10987-0.15382 0.09358-0.38493-0.04297-0.52148l-0.98434-0.98438c-0.13341-0.13499-0.36767-0.15284-0.52148-0.042969l-2.3477 1.6758c-0.15382 0.10987-0.40286 0.10362-0.54883-0.0078l-1.1914-0.91211c-0.14911-0.11458-0.21631-0.34998-0.15039-0.52734l1.0117-2.7051c0.06592-0.17736-0.0098-0.39487-0.17773-0.49219l-1.2031-0.69531c-0.1648-0.09574-0.39477-0.05417-0.51562 0.0918l-1.834 2.2285c-0.11928 0.14596-0.36369 0.20538-0.5332 0.13475l-1.3848-0.57617c-0.17422-0.0722-0.30204-0.28236-0.2832-0.4707l0.27734-2.8711c0.018836-0.18835-0.11009-0.37946-0.29688-0.42969l-1.3438-0.35938c-0.18207-0.04866-0.39418 0.051576-0.47266 0.22266l-1.1953 2.623c-0.07848 0.17108-0.2984 0.29112-0.48047 0.26758l-1.4863-0.19531c-0.18678-0.02354-0.36314-0.19408-0.39453-0.38086l-0.47461-2.8437c-0.029819-0.18678-0.20538-0.33789-0.39844-0.33789zm1.2617 7.627c2.6311 0.09096 5.28 0.81008 7.7188 2.2188 3.9254 2.2665 6.5774 5.8931 7.7012 9.9395 0.24171 1.0438-0.4798 1.9765-1.5879 2-2.9324 0.06135-6.9199 0.14477-8.793 0.18359a6 6 0 0 0-5.6016-3.8516 6 6 0 0 0-1.2617 0.13477c-0.75538-1.378-2.7435-5.0022-4.1133-7.502-0.3406-0.61998-0.02539-0.04297-0.02539-0.04297-0.54778-0.99826-0.11349-2.1179 0.97266-2.4883 0 0-0.45977 0.10792 0.32031-0.08984 1.5179-0.38494 3.0913-0.55653 4.6699-0.50195zm-11.371 4.543c0.60917-0.0553 1.2141 0.2346 1.5938 0.83594 0 0-0.35092-0.55505 0.02734 0.04297 1.5231 2.411 3.7333 5.9127 4.5703 7.2383a6 6 0 0 0-1.3828 3.8301 6 6 0 0 0 1.3828 3.8301c-0.89345 1.5361-3.0017 5.1609-4.5039 7.7422-0.55697 0.95852-1.7218 1.134-2.5176 0.41797-2.9947-2.9448-4.8825-7.0214-4.9609-11.553-0.07847-4.5066 1.6461-8.6226 4.5059-11.666 0.55092-0.58702 0.23438-0.23828 0.23438-0.23828 0.31902-0.289 0.68528-0.44729 1.0508-0.48047zm10.758 8.9473a3 3 0 0 1 0.05078 0 3 3 0 0 1 3 3 3 3 0 0 1-3 3 3 3 0 0 1-3-3 3 3 0 0 1 2.9492-3zm5.6641 5.1211c1.4954 0.05943 5.7686 0.22779 8.6523 0.3418 0.7063 0.02825 0.05078 2e-3 0.05078 2e-3 1.1379 0.04553 1.8745 0.99297 1.6328 2.1152 0 0 0.14245-0.45035-0.08984 0.32031-1.2053 3.9992-3.9104 7.5496-7.8516 9.7344l2e-3 2e-3c-3.963 2.1974-8.4365 2.6011-12.484 1.4805-1.0186-0.33118-1.4494-1.4285-0.89844-2.3906 1.49-2.6003 3.5924-6.2706 4.4668-7.7969a6 6 0 0 0 0.9062 0.070218 6 6 0 0 0 5.6133-3.8789z" filter="url(#filter1007)" opacity=".75"/>
 <path id="gear" d="m31.301 7.8828c-0.18835 0-0.36705 0.15111-0.39844 0.33789l-0.47461 2.8477c-0.03139 0.18678-0.21246 0.35927-0.39453 0.38281l-1.4863 0.19531c-0.18678 0.02511-0.40004-0.09297-0.47852-0.26562l-1.1973-2.6289c-0.078479-0.17265-0.28588-0.27484-0.47266-0.22461l-1.3438 0.35938c-0.18364 0.04866-0.31571 0.24329-0.29688 0.43164l0.2793 2.873c0.01727 0.18835-0.11369 0.40007-0.2832 0.4707l-1.3848 0.57422c-0.17265 0.0722-0.41235 0.0112-0.5332-0.13477l-1.834-2.2285c-0.12086-0.14597-0.34768-0.18911-0.51562-0.0918l-1.2031 0.69531c-0.16481 0.09417-0.24365 0.31287-0.17773 0.49024l1.0117 2.7012c0.06592 0.17579-0.0044 0.41591-0.15039 0.52734l-1.1914 0.91406c-0.14911 0.11458-0.39501 0.11963-0.54883 0.0098l-2.3477-1.6758c-0.15382-0.10987-0.38298-0.09358-0.51953 0.04297l-0.98438 0.98434c-0.13499 0.13342-0.15479 0.36767-0.04492 0.52148l1.6758 2.3477c0.10987 0.15382 0.10363 0.40286-0.0078 0.54883l-0.91016 1.1914c-0.11458 0.14911-0.34998 0.21631-0.52734 0.15039l-2.7051-1.0117c-0.17736-0.06592-0.39487 0.0098-0.49219 0.17773l-0.69531 1.2031c-0.09574 0.1648-0.05417 0.39477 0.0918 0.51562l2.2285 1.834c0.14597 0.11928 0.20344 0.36369 0.13281 0.5332l-0.57422 1.3848c-0.0722 0.17423-0.28431 0.30204-0.47266 0.2832l-2.8691-0.27734c-0.18835-0.018836-0.38141 0.11009-0.43164 0.29688l-0.35938 1.3438c-0.04866 0.18207 0.053529 0.39418 0.22461 0.47266l2.623 1.1953c0.17108 0.07848 0.29112 0.2984 0.26758 0.48047l-0.19531 1.4863c-0.02354 0.18678-0.19408 0.36314-0.38086 0.39453l-2.8438 0.47461c-0.18678 0.02982-0.33789 0.20538-0.33789 0.39844v1.3906c0 0.18835 0.15111 0.36705 0.33789 0.39844l2.8457 0.47461c0.18678 0.03139 0.36122 0.21051 0.38477 0.39258l0.19531 1.4863c0.02511 0.18678-0.09493 0.40199-0.26758 0.48047l-2.6289 1.1973c-0.17265 0.07848-0.27288 0.28588-0.22266 0.47266l0.35938 1.3438c0.04866 0.18364 0.24134 0.31571 0.42969 0.29688l2.875-0.2793c0.18835-0.01726 0.40007 0.11369 0.4707 0.2832l0.57227 1.3848c0.0722 0.17265 0.01316 0.41235-0.13281 0.5332l-2.2285 1.834c-0.14597 0.12086-0.19106 0.34768-0.09375 0.51562l0.69531 1.2031c0.09417 0.16481 0.31482 0.24365 0.49219 0.17773l2.7012-1.0117c0.17579-0.06592 0.4159 0.0044 0.52734 0.15039l0.91406 1.1914c0.11458 0.14911 0.11963 0.39501 0.0098 0.54883l-1.6777 2.3457c-0.10987 0.15382-0.09163 0.38493 0.04492 0.52148l0.98438 0.98438c0.13341 0.13498 0.36572 0.15479 0.51953 0.04492l2.3496-1.6777c0.15382-0.10987 0.40286-0.10362 0.54883 0.0078l1.1914 0.91211c0.14911 0.11458 0.21631 0.34998 0.15039 0.52734l-1.0117 2.7051c-0.06592 0.17736 0.0098 0.39487 0.17773 0.49219l1.2031 0.69531c0.1648 0.09574 0.39282 0.05417 0.51367-0.0918l1.8359-2.2285c0.11928-0.14597 0.36173-0.2054 0.53125-0.13477l1.3867 0.57617c0.17422 0.0722 0.30204 0.28236 0.2832 0.4707l-0.2793 2.8711c-0.01884 0.18835 0.11205 0.37946 0.29883 0.42969l1.3438 0.36133c0.18207 0.04866 0.39418-0.05353 0.47266-0.22461l1.1934-2.623c0.07848-0.17108 0.2984-0.29112 0.48047-0.26758l1.4883 0.19531c0.18678 0.02354 0.36314 0.19408 0.39453 0.38086l0.47461 2.8438c0.02982 0.18678 0.20538 0.33789 0.39844 0.33789h1.3906c0.18835-1e-6 0.36705-0.15111 0.39844-0.33789l0.47266-2.8477c0.03139-0.18678 0.21246-0.35927 0.39453-0.38281l1.4863-0.19531c0.18678-0.02512 0.40199 0.09493 0.48047 0.26758l1.1953 2.6289c0.07848 0.17265 0.28588 0.27288 0.47266 0.22266l1.3438-0.35938c0.18364-0.04866 0.31766-0.24134 0.29883-0.42969l-0.2793-2.875c-0.01727-0.18835 0.11369-0.40007 0.2832-0.4707l1.3848-0.57227c0.17265-0.0722 0.41235-0.01316 0.5332 0.13281l1.834 2.2285c0.12086 0.14597 0.34768 0.19106 0.51562 0.09375l1.2031-0.69531c0.16481-0.09418 0.24365-0.31482 0.17773-0.49219l-1.0137-2.7012c-0.06592-0.17579 0.0064-0.41591 0.15234-0.52734l1.1914-0.91406c0.14911-0.11458 0.39501-0.11963 0.54883-0.0098l2.3457 1.6777c0.15382 0.10987 0.38493 0.09163 0.52148-0.04492l0.98438-0.98438c0.13498-0.13342 0.15284-0.36767 0.04297-0.52148l-1.6758-2.3477c-0.10987-0.15382-0.10362-0.40286 0.0078-0.54883l0.91211-1.1914c0.11458-0.14911 0.34998-0.21631 0.52734-0.15039l2.7051 1.0118c0.17736 0.06592 0.39487-0.0098 0.49219-0.17773l0.69531-1.2031c0.09574-0.1648 0.05417-0.39477-0.0918-0.51562l-2.2285-1.834c-0.14597-0.11928-0.2054-0.36174-0.13476-0.53125l0.57617-1.3867c0.0722-0.17422 0.28236-0.30204 0.4707-0.2832l2.8711 0.2793c0.18835 0.01884 0.37946-0.11205 0.42969-0.29883l0.35938-1.3438c0.04866-0.18207-0.05157-0.39418-0.22266-0.47266l-2.625-1.1934c-0.17108-0.07848-0.28917-0.2984-0.26562-0.48047l0.19531-1.4883c0.02354-0.18678 0.19408-0.36314 0.38086-0.39453l2.8438-0.47461c0.18678-0.02982 0.33789-0.20538 0.33789-0.39844v-1.3906c0-0.18835-0.15111-0.36705-0.33789-0.39844l-2.8477-0.47461c-0.18678-0.03139-0.35927-0.21051-0.38281-0.39258l-0.19531-1.4863c-0.02511-0.18678 0.09297-0.40199 0.26562-0.48047l2.6289-1.1973c0.17265-0.07848 0.27288-0.28392 0.22266-0.4707l-0.35938-1.3438c-0.04866-0.18364-0.24134-0.31766-0.42969-0.29883l-2.873 0.2793c-0.18835 0.01726-0.40007-0.11369-0.4707-0.2832l-0.57422-1.3848c-0.0722-0.17265-0.0112-0.41235 0.13476-0.5332l2.2285-1.834c0.14597-0.12086 0.18911-0.34768 0.0918-0.51562l-0.69531-1.2031c-0.09417-0.16481-0.31287-0.24365-0.49023-0.17773l-2.7012 1.0117c-0.17579 0.06592-0.41591-0.0044-0.52734-0.15039l-0.91406-1.1914c-0.11458-0.14911-0.11963-0.39501-0.0098-0.54883l1.6758-2.3457c0.10987-0.15382 0.09358-0.38493-0.04297-0.52148l-0.98434-0.98438c-0.13341-0.13499-0.36767-0.15284-0.52148-0.042969l-2.3477 1.6758c-0.15382 0.10987-0.40286 0.10362-0.54883-0.0078l-1.1914-0.91211c-0.14911-0.11458-0.21631-0.34998-0.15039-0.52734l1.0117-2.7051c0.06592-0.17736-0.0098-0.39487-0.17773-0.49219l-1.2031-0.69531c-0.1648-0.09574-0.39477-0.05417-0.51562 0.0918l-1.834 2.2285c-0.11928 0.14596-0.36369 0.20538-0.5332 0.13475l-1.3848-0.57617c-0.17422-0.072202-0.30204-0.28236-0.2832-0.4707l0.27734-2.8711c0.018836-0.18835-0.11009-0.37946-0.29688-0.42969l-1.3438-0.35938c-0.18207-0.04866-0.39418 0.051576-0.47266 0.22266l-1.1953 2.623c-0.07848 0.17108-0.2984 0.29112-0.48047 0.26758l-1.4863-0.19531c-0.18678-0.02354-0.36314-0.19408-0.39453-0.38086l-0.47461-2.8437c-0.029819-0.18678-0.20538-0.33789-0.39844-0.33789zm1.2617 7.627c2.6311 0.09096 5.28 0.81008 7.7188 2.2188 3.9254 2.2665 6.5774 5.8931 7.7012 9.9395 0.24171 1.0438-0.4798 1.9765-1.5879 2-2.9324 0.06135-6.9199 0.14477-8.793 0.18359a6 6 0 0 0-5.6016-3.8516 6 6 0 0 0-1.2617 0.13477c-0.75538-1.378-2.7435-5.0022-4.1133-7.502-0.3406-0.61998-0.02539-0.04297-0.02539-0.04297-0.54778-0.99826-0.11349-2.1179 0.97266-2.4883 0 0-0.45977 0.10792 0.32031-0.08984 1.5179-0.38494 3.0913-0.55653 4.6699-0.50195zm-11.371 4.543c0.60917-0.0553 1.2141 0.2346 1.5938 0.83594 0 0-0.35092-0.55505 0.02734 0.04297 1.5231 2.411 3.7333 5.9127 4.5703 7.2383a6 6 0 0 0-1.3828 3.8301 6 6 0 0 0 1.3828 3.8301c-0.89345 1.5361-3.0017 5.1609-4.5039 7.7422-0.55697 0.95852-1.7218 1.134-2.5176 0.41797-2.9947-2.9448-4.8825-7.0214-4.9609-11.553-0.07847-4.5066 1.6461-8.6226 4.5059-11.666 0.55092-0.58702 0.23438-0.23828 0.23438-0.23828 0.31902-0.289 0.68528-0.44729 1.0508-0.48047zm10.758 8.9473a3 3 0 0 1 0.050781 0 3 3 0 0 1 3 3 3 3 0 0 1-3 3 3 3 0 0 1-3-3 3 3 0 0 1 2.9492-3zm5.6641 5.1211c1.4954 0.05943 5.7686 0.22779 8.6523 0.3418 0.7063 0.02825 0.05078 2e-3 0.05078 2e-3 1.1379 0.04553 1.8745 0.99297 1.6328 2.1152 0 0 0.14245-0.45035-0.08984 0.32031-1.2053 3.9992-3.9104 7.5496-7.8516 9.7344l2e-3 2e-3c-3.963 2.1974-8.4365 2.6011-12.484 1.4805-1.0186-0.33118-1.4494-1.4285-0.89844-2.3906 1.49-2.6003 3.5924-6.2706 4.4668-7.7969a6 6 0 0 0 0.9062 0.070218 6 6 0 0 0 5.6133-3.8789z" fill="url(#linearGradient1129)"/>
</svg>
