<svg width="64" height="64" xmlns="http://www.w3.org/2000/svg" xmlns:xlink="http://www.w3.org/1999/xlink"><defs><linearGradient id="a"><stop stop-color="#686868" offset="0"/><stop stop-color="#1e1e1e" offset="1"/></linearGradient><linearGradient id="c" x1="401.97" x2="401.97" y1="546.72" y2="518.72" gradientTransform="translate(-23.02 -30.545) scale(1.0573)" gradientUnits="userSpaceOnUse"><stop stop-color="#d3d3d3" offset="0"/><stop stop-color="#fcf9f9" offset="1"/></linearGradient><linearGradient id="e" x1="8" x2="8" y1="284" y2="300" gradientUnits="userSpaceOnUse" xlink:href="#a"/><filter id="b" x="-.036" y="-.036" width="1.072" height="1.072" color-interpolation-filters="sRGB"><feGaussianBlur stdDeviation=".444"/></filter><filter id="d" x="-.04" y="-.033" width="1.08" height="1.065" color-interpolation-filters="sRGB"><feGaussianBlur stdDeviation=".218"/></filter></defs><g transform="matrix(2.0267 0 0 2.0267 -779.723 -1045.644)" stroke-width=".757"><circle cx="400.52" cy="531.74" r="14.803" filter="url(#b)" opacity=".25"/><circle cx="400.52" cy="531.74" r="14.803" fill="url(#c)"/></g><g class="ColorScheme-Text" color="#565656" opacity=".8" stroke-width=".109"><path d="M10.356 286.57c.552-.687.926-1.62.823-2.567-.795.033-1.785.552-2.36 1.22-.506.591-.956 1.559-.84 2.47.892.067 1.806-.45 2.377-1.123zm2.011 5.945c-.019-2.024 1.656-3.006 1.732-3.053-.948-1.383-2.417-1.57-2.935-1.587-1.235-.126-2.43.742-3.06.742-.64 0-1.609-.727-2.651-.707-1.344.02-2.602.799-3.291 2.003-1.418 2.463-.361 6.08 1 8.066.683.978 1.478 2.066 2.52 2.023 1.02-.039 1.4-.648 2.633-.648 1.22 0 1.577.648 2.64.627 1.096-.018 1.784-.98 2.443-1.96.784-1.12 1.101-2.218 1.114-2.277-.025-.009-2.123-.807-2.145-3.23z" filter="url(#d)" opacity=".25" transform="translate(17.257 -506.11) scale(1.8428)"/><path d="M10.356 286.57c.552-.687.926-1.62.823-2.567-.795.033-1.785.552-2.36 1.22-.506.591-.956 1.559-.84 2.47.892.067 1.806-.45 2.377-1.123zm2.011 5.945c-.019-2.024 1.656-3.006 1.732-3.053-.948-1.383-2.417-1.57-2.935-1.587-1.235-.126-2.43.742-3.06.742-.64 0-1.609-.727-2.651-.707-1.344.02-2.602.799-3.291 2.003-1.418 2.463-.361 6.08 1 8.066.683.978 1.478 2.066 2.52 2.023 1.02-.039 1.4-.648 2.633-.648 1.22 0 1.577.648 2.64.627 1.096-.018 1.784-.98 2.443-1.96.784-1.12 1.101-2.218 1.114-2.277-.025-.009-2.123-.807-2.145-3.23z" fill="url(#e)" transform="translate(17.257 -506.11) scale(1.8428)"/></g></svg>