<svg xmlns="http://www.w3.org/2000/svg" xmlns:xlink="http://www.w3.org/1999/xlink" width="64" height="64"><defs><filter id="b" width="1.072" height="1.072" x="-.036" y="-.036" color-interpolation-filters="sRGB"><feGaussianBlur stdDeviation=".42"/></filter><filter id="d" width="1.188" height="1.255" x="-.094" y="-.127" color-interpolation-filters="sRGB"><feGaussianBlur stdDeviation="1.485"/></filter><linearGradient id="c" x1="519.2" x2="519.2" y1="1024.8" y2="4.8" gradientTransform="matrix(.06359 0 0 .06358 -.556 -.553)" gradientUnits="userSpaceOnUse"><stop offset="0" stop-color="#606060"/><stop offset=".02" stop-color="#414141"/><stop offset="1" stop-color="#1e1e1e"/></linearGradient></defs><linearGradient id="e" x1="418.17" x2="384.57" y1="503.08" y2="531.46" gradientTransform="matrix(.79167 0 0 .85555 -291.45 -413.03)" gradientUnits="userSpaceOnUse"><stop offset="0" stop-color="#1abc9c"/><stop offset="1" stop-color="#2980b9"/></linearGradient><linearGradient id="f" x1="404.05" x2="430.74" y1="521.63" y2="528.35" gradientTransform="matrix(.79167 0 0 .85555 -291.45 -413.03)" gradientUnits="userSpaceOnUse"><stop offset="0" stop-color="#cc4a5e"/><stop offset="1" stop-color="#aa478a"/></linearGradient><linearGradient xlink:href="#a" id="g" x1="398.09" x2="394" y1="542.22" y2="524.9" gradientTransform="matrix(.79167 0 0 .85555 -291.45 -413.03)" gradientUnits="userSpaceOnUse"/><linearGradient id="a"><stop offset="0" stop-color="#334545"/><stop offset="1" stop-color="#536161"/></linearGradient><linearGradient xlink:href="#a" id="h" x1="431.57" x2="439.57" y1="568.8" y2="562.8" gradientTransform="matrix(-.625 0 0 .55 285.11 724.27)" gradientUnits="userSpaceOnUse"/><linearGradient xlink:href="#a" id="i" x1="406.54" x2="423.32" y1="581.87" y2="572.68" gradientTransform="matrix(-.625 0 0 .55 285.11 724.27)" gradientUnits="userSpaceOnUse"/><linearGradient xlink:href="#a" id="j" x1="423.05" x2="431.22" y1="572.33" y2="566.77" gradientTransform="matrix(-.625 0 0 .55 285.11 724.27)" gradientUnits="userSpaceOnUse"/><linearGradient xlink:href="#a" id="k" x1="431.31" x2="440.63" y1="577.1" y2="571.45" gradientTransform="matrix(-.625 0 0 .55 285.11 724.27)" gradientUnits="userSpaceOnUse"/><linearGradient xlink:href="#a" id="l" x1="430.57" x2="423.75" y1="577.36" y2="591.33" gradientTransform="matrix(-.625 0 0 .55 285.11 724.27)" gradientUnits="userSpaceOnUse"/><linearGradient id="n" x1="16" x2="16" y1="18" y2="6" gradientTransform="translate(23.994 5.466)" gradientUnits="userSpaceOnUse"><stop offset="0" stop-color="#f0f0f0"/><stop offset="1" stop-color="#fcfcfc"/></linearGradient><linearGradient id="m" x1="19.514" x2="15" y1="15.555" y2="11" gradientTransform="translate(23.994 5.466)" gradientUnits="userSpaceOnUse"><stop offset="0" stop-color="#f3f3f3"/><stop offset="1" stop-color="#fcfcfc" stop-opacity="0"/></linearGradient><circle cx="400.57" cy="531.8" r="14" filter="url(#b)" opacity=".25" transform="translate(-826.36 -1107.5) scale(2.1429)"/><circle cx="32.02" cy="32.044" r="30.001" fill="none"/><path fill="url(#c)" d="M50.249 8.193q-3.86-2.972-8.444-4.556Q37.068 2 32.003 2C15.433 2 2 15.432 2 32.001c0 15.158 11.245 27.684 25.845 29.71a31.977 31.977 0 0 0 4.158.29C48.57 61.999 62 48.567 62 32c0-1.31-.082-2.604-.244-3.866a29.932 29.932 0 0 0-.884-4.305q-1.33-4.69-4.082-8.726-2.722-3.977-6.54-6.912z"/><rect width="38" height="28" x="13" y="18.796" filter="url(#d)" opacity=".35" ry="1.318"/><path fill="url(#e)" d="M14.318 18c-.73 0-1.318.588-1.318 1.318v25.363c0 .73.588 1.319 1.318 1.319h35.363c.73 0 1.318-.589 1.318-1.319V19.318c0-.73-.588-1.318-1.318-1.318H14.318z" transform="matrix(1.00002 0 0 1.00003 .002 0)"/><g stroke-linecap="round" stroke-width="2"><path fill="url(#f)" d="M50.504 18.311 24.848 34.317l18.725 11.684h6.11c.73 0 1.318-.588 1.318-1.318V19.32c0-.414-.2-.767-.496-1.008z" transform="matrix(1.00002 0 0 1.00003 .002 .025)"/><path fill="url(#g)" d="M24.875 34.256 13 41.666v3.016c0 .73.588 1.318 1.318 1.318H43.75L24.875 34.256z" transform="matrix(1.00002 0 0 1.00003 .002 .025)"/><path fill="url(#h)" d="m15.537 1036.4-5.162-2.622v5.245z" transform="matrix(1.2667 0 0 1.5556 11.735 -1573.93)"/><path fill="url(#i)" d="M20.698 1039.1v2.306h4.538z" transform="matrix(1.2667 0 0 1.5556 11.735 -1573.93)"/><path fill="url(#j)" d="M15.537 1036.4v4.928h.625l4.537-2.305z" transform="matrix(1.2667 0 0 1.5556 11.735 -1573.93)"/><path fill="url(#k)" d="M10.375 1039.1v2.305h4.537z" transform="matrix(1.2667 0 0 1.5556 11.735 -1573.93)"/><path fill="url(#l)" d="m20.698 1039.1-4.538 2.306h4.538z" transform="matrix(1.2667 0 0 1.5556 11.735 -1573.93)"/><path fill="#fff" d="M50.507 18.337 24.85 34.344l26.153-8.346v-6.653c0-.413-.2-.767-.496-1.008z" opacity=".1"/></g><circle cx="24.498" cy="21.502" r="1.5" fill="#d5ffff"/><circle cx="20.499" cy="21.502" r="1.5" fill="#d5ffff"/><circle cx="16.5" cy="21.502" r="1.5" fill="#d5ffff"/><path fill="url(#m)" d="M39.994 11.466a6 6 0 0 0-6 6 6 6 0 0 0 6 6 6 6 0 0 0 6-6 6 6 0 0 0-6-6zm0 1a5 5 0 0 1 5 5 5 5 0 0 1-5 5 5 5 0 0 1-5-5 5 5 0 0 1 5-5z" transform="translate(-7.994 14.534)"/><path fill="url(#n)" d="M39.994 11.466a6 6 0 0 0-6 6 6 6 0 0 0 6 6 6 6 0 0 0 4.215-1.736l-.701-.71a5 5 0 0 1-3.514 1.446 5 5 0 0 1-5-5 5 5 0 0 1 5-5z" transform="translate(-7.994 14.534)"/></svg>