<svg width="64" height="64" version="1.1" xmlns="http://www.w3.org/2000/svg" xmlns:xlink="http://www.w3.org/1999/xlink">
 <defs>
  <filter id="c-3" x="-.036" y="-.036" width="1.072" height="1.072" color-interpolation-filters="sRGB">
   <feGaussianBlur stdDeviation="15.299715"/>
  </filter>
  <linearGradient id="b-6" x1="399.57" x2="399.57" y1="545.8" y2="517.8" gradientUnits="userSpaceOnUse">
   <stop stop-color="#3889e9" offset="0"/>
   <stop stop-color="#5ea5fb" offset="1"/>
  </linearGradient>
  <linearGradient id="d-7" x1="400.56" x2="400.56" y1="546.93" y2="516.48" gradientTransform="matrix(1.0619,0,0,1.0611,-24.729,-32.522)" gradientUnits="userSpaceOnUse">
   <stop stop-color="#187ced" offset="0"/>
   <stop stop-color="#42d6fc" offset="1"/>
  </linearGradient>
  <linearGradient id="g-5" x1="16.038" x2="16.038" y1="29.505" y2="2.3196" gradientTransform="matrix(1.1024,0,0,1.0988,382.95,514.19)" gradientUnits="userSpaceOnUse">
   <stop stop-color="#0164c2" offset="0"/>
   <stop stop-color="#00a9f3" offset="1"/>
  </linearGradient>
  <linearGradient x1="-324.94" x2="-328.21" y1="649.74" y2="307.75" gradientUnits="userSpaceOnUse">
   <stop stop-color="#016ed4" offset="0"/>
   <stop stop-color="#00b1ff" offset="1"/>
  </linearGradient>
  <linearGradient id="linearGradient943" x1="399.57" x2="399.57" y1="545.8" y2="517.8" gradientUnits="userSpaceOnUse" xlink:href="#b-6"/>
  <filter id="e-2" x="-.17918" y="-.02001" width="1.3584" height="1.04" color-interpolation-filters="sRGB">
   <feGaussianBlur stdDeviation="0.14989745"/>
  </filter>
  <filter id="c-9" x="-.035996" y="-.036004" width="1.072" height="1.072" color-interpolation-filters="sRGB">
   <feGaussianBlur stdDeviation="0.24398276"/>
  </filter>
  <linearGradient id="b-1" x1="417" x2="417" y1="51.538" y2="573.98" gradientTransform="matrix(.13997 0 0 .13997 -26.366 -2.4097)" gradientUnits="userSpaceOnUse">
   <stop stop-color="#f3f3f3" offset="0"/>
   <stop stop-color="#b7b7b7" offset="1"/>
  </linearGradient>
 </defs>
 <path transform="matrix(.058825 0 0 .058825 1.8818 1.8825)" d="m984.88 316.75q-9.2923-22.529-20.962-44.139c-4.376-8.1578-9.0222-16.261-13.938-24.203-21.124-34.252-46.894-66.614-77.311-97.029-99.568-99.568-219.83-149.38-360.67-149.38-140.85 0-261.05 49.811-360.61 149.38-99.569 99.572-149.38 219.78-149.38 360.61s49.811 261.11 149.38 360.67c99.568 99.568 219.78 149.32 360.61 149.32 140.84 0 261.11-49.758 360.67-149.32 54.836-54.89 94.598-116.04 119.23-183.42 20.043-54.943 30.092-113.99 30.092-177.25 0-48.515-5.8888-94.598-17.72-138.25-1.3507-4.9163-2.7553-9.8326-4.2139-14.695-4.4302-14.371-9.5085-28.471-15.181-42.302z" filter="url(#c-3)" opacity=".25" stroke-width="18.368"/>
 <g transform="matrix(1.94,0,0,1.9415,-745.24,-1000.7)" stroke-width=".79954">
  <circle cx="400.57" cy="531.8" r="0" fill="url(#linearGradient943)"/>
  <g transform="matrix(1.0509,0,0,1.0509,-20.353,-26.94)" stroke-width=".79954">
   <ellipse cx="400.6" cy="531.78" rx="14.715" ry="14.704" fill="url(#d-7)"/>
   <path d="m400.62 517.13c-1.8537 0-3.6182 0.35249-5.2488 0.97142-0.11858 0.10863-0.27276 0.19203-0.39471 0.1817-0.0172-2e-3 -0.0333-0.0116-0.0509-0.0186-0.8038 0.3352-1.5663 0.74588-2.2892 1.2118 0.0939 0.15201 0.12185 0.32124-0.0713 0.40347-0.0324 0.0131-0.44134 0.055-0.58414 0.0521-2.056 1.4892-3.7052 3.4919-4.7594 5.8299 0.017-3e-3 0.0316-0.0104 0.0494-0.0109 0.15999-3e-3 0.39024 0.0428 0.5439 0.0755 0.14181 0.0291 0.2562 0.12389 0.37894 0.13309 0.34829 0.0265 0.43204-0.24365 0.71618-0.39488 0.29364 0.041 0.48845-0.0498 0.75357-0.0203 0.18072 0.0203 0.31128 0.21239 0.45211 0.22319 0.11846 0.0116 0.22269-0.11066 0.33731-0.0932 0.11137 0.0175 0.30339 0.25916 0.32151 0.39485 0.0235 0.16888-0.12464 0.32095-0.0759 0.50646 0.17751 0.18016 0.49998 0.21666 0.75353 0.32047 0.16516-0.13566 0.0222-0.38736 0-0.5837-3e-3 -0.0867 0.0116-0.16356 0-0.24323-0.0145-0.13522-0.073-0.25907-0.0739-0.37482-3e-3 -0.5345 0.4326-0.78468 0.79227-0.9957 0.15569-0.0919 0.27828-0.25318 0.41334-0.32052 0.19082-0.0953 0.33291-0.11754 0.49087-0.20602 0.28549-0.15983 0.53031-0.2881 0.75354-0.46923 0.10301-0.24236 0.0104-0.56735 0.0191-0.80689 0.10312-0.063 0.19194 0.0271 0.3014 0.0186 0.17222-0.0355 0.18657-0.27807 0.28418-0.37478 0.0565-0.0556 0.21224-0.095 0.2827-0.15027 0.17169-0.13419 0.22759-0.33696 0.37757-0.39481 0.0538-0.022 0.17782-0.0149 0.26265-0.0381 0.11155-0.0296 0.27036-0.16102 0.45208-0.22312 0.11844-0.041 0.38971-0.0494 0.43489-0.0943 0.0557-0.0566-7.8e-4 -0.21559 0.0191-0.30042 0.0913-0.42402 0.73211-0.51388 1.1109-0.65668 0.26549-0.0999 0.53786-0.28386 0.8296-0.2275-0.0572 0.20154-0.32884 0.13013-0.2828 0.37485 0.0636 0.3396 0.51984-0.0969 0.64021-0.14735 0.22985-0.0964 0.62406-0.15558 0.92573-0.26468 0.26453-0.0964 0.73877-0.2435 0.48948-0.54506-0.208-0.0116-0.30821 0.24322-0.48948 0.32045-0.1252 0.0205-0.10107-0.10443-0.20811-0.11439-0.10117-0.0116-0.15839 0.0933-0.26271 0.0752-0.10364-0.0171-0.24928-0.17956-0.26549-0.30042-0.0411-0.31354 0.26584-0.44282 0.39616-0.67673-0.0864-0.28358-0.47979-0.0579-0.71765-0.16878 0.0234-0.16887 0.1982-0.28532 0.39612-0.31759 0.16224-0.0271 0.5263-0.0131 0.62293 0.0723 0.0559 0.0481 4e-3 0.16587 0.0946 0.24462 0.096 0.0867 0.21416 0.0774 0.33878 0.0574 0.0443-0.21402-0.27925-0.16034-0.24401-0.30187 0.25456-0.16598 0.66868-0.0299 0.98035-0.0756 0.17936-0.0266 0.36768-0.15261 0.5267-0.24175 0.15121-0.0857 0.34764-0.23491 0.50809-0.0944 0.0426 0.15337-0.13973 0.20412-0.22536 0.2804-0.28828 0.25567-0.58535 0.54856-0.80943 0.8455 0.13744 0.13368 0.38732 0.0663 0.62004 0.0943 0.0909 0.0116 0.20516 0.0384 0.30134 0.056 0.11261 0.0204 0.23212 0.0139 0.32007 0.0371 0.15835 0.0383 0.20065 0.20745 0.35741 0.20745 0.25782-4.7e-4 0.26089-0.27844 0.11476-0.4521 0.0463-0.17728 0.11844-0.26925 0.0562-0.39344-0.11612-0.23151-0.54218-0.0116-0.56405-0.30042-0.0134-0.1873 0.15721-0.17893 0.22533-0.31901-0.0309-0.36189 0.29776-0.38811 0.26263-0.71248-0.0146-0.13569-0.12999-0.13757-0.22534-0.26468-0.0484-0.062-0.0722-0.18227-0.12772-0.23605-0.43975-0.0383-0.88447-0.0628-1.3348-0.0628zm-7.584 2.9557h2e-3c0.0879 0.0116 0.19373 0.10639 0.29995 0.11454 0.10015 3e-3 0.18352-0.0554 0.24546-0.0382 0.15756 0.0411 0.224 0.2786 0.0753 0.39485-0.12318 0.0148-0.1712-0.054-0.26406-0.0372-0.25594 0.0429-0.35413 0.54305-0.54543 0.52651-0.18038-0.0145-0.27801-0.45328-0.0945-0.58369 0.0116-0.11393-0.0837-0.13213-0.0774-0.24467 0.0544-0.0691 0.20893-0.14364 0.35882-0.13159zm-0.84824 0.0589c0.0524 2e-3 0.0916 0.0139 0.11194 0.0369-0.0251 0.20022-0.18218 0.18708-0.3373 0.28039-0.26796 0.16117-0.42283 0.40681-0.50809 0.7511-0.0248 0.0999-0.28871 0.36564-0.41622 0.33907-0.29884-0.0627 0.083-0.61185 0.1507-0.69533 0.0758-0.0925 0.17666-0.17357 0.26552-0.28039 0.086-0.10338 0.1423-0.24304 0.22534-0.30042 0.0909-0.0626 0.35067-0.13764 0.50809-0.13157zm2.2304 0.67525c0.0956 2e-3 0.18178 0.0174 0.22105 0.056-0.0614 0.24806-0.59764 0.18257-0.79369 0.0928 0.0116-0.0935 0.15938-0.11937 0.28272-0.13157 0.087-3e-3 0.1944-0.0204 0.28992-0.0174zm-1.22 0.45784c0.0636-2e-3 0.12824 0.0116 0.19518 0.0299-0.17342 0.14459-0.36099 0.2265-0.65882 0.32043-0.14319 0.0447-0.39049 0.10068-0.41477-0.0589-0.0297-0.19536 0.20941-0.14992 0.34012-0.16739 0.16466-0.023 0.34539-0.11829 0.53829-0.1245zm18.717 1.113c-0.0227 0.0539-0.0382 0.1059-0.0359 0.15734 0.0116 0.0906 0.11127 0.17786 0.13345 0.30047 0.0116 0.0652-0.0306 0.20538 0 0.26467 0.0908 0.17538 0.32819 0.0497 0.49807 0.0589-0.19297-0.26485-0.38568-0.5302-0.59566-0.7811zm0.96308 1.2919c-0.0271 0.12942-0.11525 0.29822-0.18659 0.40629-0.16426 0.24903-0.38738 0.26065-0.62292 0.39342-0.19641 0.11101-0.28099 0.29626-0.39614 0.48929-0.12481 0.20853-0.2021 0.33453-0.15068 0.63669-0.16842 0.33292-0.42339 0.53689-0.7722 0.69527-0.10301 0.0464-0.24409 0.0638-0.33874 0.13157-0.0752 0.0542-0.11817 0.19909-0.22534 0.31901-0.13212 0.14661-0.27069 0.20847-0.34015 0.32047-0.0538 0.0867-0.072 0.25871-0.13201 0.37483-0.0808 0.15777-0.25177 0.23504-0.35746 0.39487-0.0482 0.0737-0.0807 0.22368-0.13342 0.32049-0.11945 0.21622-0.32336 0.37201-0.30146 0.56222 0.0221 0.18384 0.23118 0.21601 0.24543 0.37625 3e-3 0.0906-0.06 0.14599-0.0562 0.24465 3e-3 0.14416 0.10056 0.24534 0.11194 0.35625 0.0282 0.27888-0.095 0.39018-0.14782 0.58082-0.0251 0.091-0.0139 0.19358-0.0384 0.2647-0.0469 0.13958-0.24153 0.26556-0.24545 0.4306-2e-3 0.11733 0.12081 0.21163 0.13069 0.3763 3e-3 0.11366-0.0562 0.23469-0.0356 0.33907 0.0399 0.20436 0.40611 0.44207 0.56553 0.60084 0.21316 0.21252 0.49226 0.37697 0.58415 0.60091 0.0772 0.19014 0.0765 0.43747 0.22535 0.58084 0.1099 0.10578 0.29266 0.17177 0.43345 0.28179 0.13136 0.1026 0.27442 0.19146 0.4148 0.30042 0.22935 0.17891 0.57615 0.53542 0.94153 0.50794 0.19084-0.0131 0.38639-0.16912 0.60288-0.20747 0.22264-0.0396 0.51164-0.0604 0.73625-0.0369 0.17207 0.0171 0.34932 0.11979 0.52819 0.11157 0.18887-0.0116 0.40546-0.15119 0.62007-0.2446 0.17267-0.0748 0.38457-0.15797 0.61716-0.21893 0.10673-0.71456 0.16363-1.4467 0.16363-2.1918 0-2.9997-0.89987-5.7801-2.44-8.0975zm-24.309 4.9229c-0.31306 0.0173-0.51813 0.0312-0.69611 0.11158-0.40774 0.18495-0.329 0.73416-0.73637 0.86411-0.14078 0.0446-0.33425 0.0471-0.48931 0.0753-0.13395 0.0246-0.29702 0.097-0.43492 0.0942-0.0383-4.7e-4 -0.0925-0.0292-0.14069-0.0437-0.0359 0.2575-0.066 0.51792-0.0893 0.77965 0.38758 0.0736 0.58759 0.58601 0.93014 0.75538 0.0939 0.0466 0.21642 0.0494 0.33723 0.0757 0.0971 0.022 0.17161 0.0627 0.26549 0.0945 0.19937 0.0672 0.44344 0.0593 0.60289 0.13026 0.24016 0.10627 0.41635 0.55625 0.62291 0.6767 0.0116 0.12138-0.0241 0.28437 0.0191 0.37479 0.0972 0.13199 0.23531 0.1027 0.39608 0.18885 0.19238 0.10339 0.25125 0.37049 0.4335 0.45209 0.0628 0.028 0.22061 0.0242 0.32007 0.0547 0.24978 0.0751 0.3313 0.3634 0.54543 0.30046 0.14041-0.041 0.12932-0.18526 0.15211-0.31907 0.0928-0.0997 0.19408-0.25897 0.33872-0.2618 0.23414-0.0116 0.25501 0.24118 0.34015 0.46782 0.0483 0.12813 0.17386 0.23971 0.2067 0.37484 0.0585 0.2334 0.0294 0.93206-0.0205 1.0716-0.0591 0.17116-0.29155 0.24373-0.43489 0.4335-0.0674 0.0891-0.0996 0.21931-0.15071 0.28184-0.0922 0.11207-0.22946 0.14131-0.2985 0.24465-0.0387 0.0583-0.0769 0.1831-0.11492 0.26179-0.11315 0.23903-0.26453 0.40838-0.16938 0.69531 0.0397 0.11808 0.22486 0.19722 0.22536 0.33619 5.4e-4 0.16355-0.34898 0.30998-0.37601 0.48928-0.0204 0.13342 0.1081 0.37151 0.15065 0.54509 0.0311 0.13119 0.27982 0.21319 0.35742 0.30044 0.13225 0.14801 0.23798 0.35773 0.3588 0.54366 0.23894 0.36569 0.42618 0.81166 0.65882 1.166 0.12291 0.18558 0.29556 0.35243 0.37746 0.54506 0.0416 0.097 0.0359 0.21309 0.0742 0.30045 0.13461 0.30297 0.72934 0.61929 1.0363 0.76969 0.14363 0.0694 0.30306 0.0944 0.43491 0.16735 0.19971 0.11103 0.59528 0.40918 0.69613 0.58375 0.09 0.15689 0.14576 0.53878 0.18941 0.78825 0.0586 0.32972 6.7e-4 0.58289 0.0191 0.93995 0.0116 0.19312 0.0734 0.38727 0.076 0.58087 7.5e-4 0.0676-0.0359 0.11819-0.0386 0.18739-1.1e-4 0.0109 4e-3 0.0242 4e-3 0.0355 1.851 0.83491 3.902 1.3104 6.0727 1.3104 0.39218 0 0.77974-0.0206 1.164-0.0506 0.0173-0.0289 0.0322-0.059 0.0536-0.0858 0.0887-0.11578 0.16708-0.21715 0.22543-0.31907 0.0557-0.34298-0.13726-0.58254-0.0563-0.88265 0.0901-0.33727 0.55775-0.5432 0.88566-0.6954 0.11267-0.0523 0.22818-0.13696 0.31999-0.16879 0.22694-0.0788 0.51025-0.0357 0.71766-0.11157 0.35309-0.12879 0.38996-0.5063 0.56405-0.82695 0.0825-0.15176 0.19062-0.30387 0.20671-0.41199 0.0139-0.097-0.0357-0.18863-0.0204-0.30331 0.0169-0.11341 0.1191-0.21154 0.15068-0.33622 0.0411-0.16267 0.0591-0.40103 0.0591-0.58223 0-0.14878-0.0696-0.27927-0.0752-0.41349-0.0246-0.48719 0.17657-0.5417 0.35742-0.80686 0.0908-0.1317 0.12469-0.28188 0.18801-0.37629 0.30363-0.45146 0.83038-0.66943 0.79227-1.352-0.0116-0.22582-0.15479-0.73623-0.32148-0.80828-0.0953-0.0411-0.31415-3e-3 -0.45214-0.0561-0.4454-0.16557-0.70678-0.71593-1.1683-0.75113-0.0983-0.0116-0.18901 0.0402-0.29995 0.0382-0.18266-0.0116-0.45805-0.12749-0.66023-0.15022-0.12854-0.0131-0.30039 0.0378-0.37755 0-0.11755-0.0571-0.12958-0.27318-0.22533-0.33764-0.0753-0.0526-0.22357-0.0696-0.33873-0.11438-0.18555-0.0705-0.33271-0.15392-0.54681-0.16878-0.0659-3e-3 -0.14838 0.0312-0.22533 0.0204-0.11846-0.0204-0.2122-0.15974-0.32147-0.22607-0.13699-0.0834-0.26351-0.12331-0.32011-0.24176 0.12372-0.40457-0.21822-0.51733-0.30144-0.75109-0.0395-0.10956-0.0218-0.24136-0.0563-0.33906-0.0495-0.14-0.18795-0.22086-0.34016-0.33762-0.27269-0.2092-0.51455-0.40562-0.90424-0.45354-0.17133-0.022-0.34128 0.0516-0.54829 0.0382-0.21933-0.0131-0.49473-0.2051-0.65875-0.39201-0.15955-0.18249-0.23711-0.34626-0.37609-0.43349-0.13161-0.0844-0.3063-0.0824-0.39614-0.16737-0.04-0.0371-0.0328-0.10078-0.0761-0.18889-0.066-0.13659-0.17732-0.21256-0.0945-0.37623-0.15018-0.077-0.15431 0.14282-0.31862 0.11438-0.14654-0.2072-0.27023-0.30537-0.60285-0.24463-0.1523 0.0281-0.23733 0.21986-0.41479 0.22466-0.14555 0.0116-0.2599-0.16168-0.45209-0.1889-0.14512-0.0204-0.31013 0.0388-0.4134 0.02-0.16082-0.0319-0.21046-0.1655-0.35739-0.26182-0.10775-0.0704-0.31706-0.19079-0.37747-0.18884-0.18941 0.0116-0.32438 0.40121-0.58559 0.26327-0.12696-0.16039 0.20676-0.24488 0.0562-0.39494-0.11412-0.11378-0.21008 0.0521-0.30137 0.11454-0.10466 0.0718-0.20301 0.14331-0.31867 0.18598-0.25886 0.0964-0.42063 0.0463-0.62291 0.15023-0.1873 0.0965-0.19529 0.25849-0.3014 0.45065-0.087 0.1574-0.28441 0.38675-0.41482 0.39626-0.15792 0.0116-0.30886-0.22006-0.45209-0.2818-0.43157-0.18635-0.64063 0.16545-0.99893 0.17023-0.33258 0.0116-0.80758-0.53529-0.7909-0.84695 3e-3 -0.19012 0.10972-0.47862 0.13202-0.71392 0.0205-0.18709 0.14857-0.29982 0.15076-0.47067 3e-3 -0.22813-0.30361-0.40353-0.45218-0.43061-0.35204-0.0645-0.84082 0.14121-1.2443-0.0204-0.0768-0.12728 0.0904-0.21526 0.13345-0.33906 0.0247-0.0702 0.0104-0.16434 0.0358-0.24179 0.0443-0.11964 0.17047-0.21235 0.2267-0.33906 0.0415-0.0965 0.0528-0.23625 0.0945-0.35622 0.0499-0.13662 0.14008-0.22464 0.15074-0.32046 0.0131-0.12653-0.034-0.27283-0.13354-0.35623zm5.0379 3.9758c0.12775 0.0116 0.14372 0.27498 0.0129 0.29617-0.14092 0.0221-0.21254-0.22028-0.0756-0.28332 0.0233-0.0116 0.0451-0.0116 0.063-0.0109v-2e-3z" fill="url(#g-5)" stroke-width=".79954"/>
   <g transform="matrix(.95161 0 0 .95161 -17.496 34.423)" stroke-width=".79954">
    <g transform="matrix(.090211 0 0 .090211 438.34 482.08)" stroke-width=".79954">
     <g transform="matrix(1.2041,0,0,1.2041,-35.719,-130.85)" stroke-width=".79954">
      <g transform="matrix(9.2063,0,0,9.2063,-4262.7,-3635.2)">
       <g transform="matrix(.090211 0 0 .090211 438.34 482.08)" stroke-width=".79954">
        <g transform="matrix(1.2041,0,0,1.2041,63.521,-89.411)" stroke-width=".79954">
         <g transform="matrix(15.075,0,0,15.075,-6218.9,-8263.6)" stroke-width=".79954">
          <circle cx="400.57" cy="531.8" r="0" fill="url(#linearGradient943)"/>
         </g>
        </g>
       </g>
      </g>
      <g transform="translate(-14.074,-2.0105)">
       <g transform="matrix(.95946 0 0 .95946 -17.711 32.814)" stroke-width=".79954">
        <g transform="translate(107.07,39.919)" stroke-width=".79954">
         <g transform="translate(2.9511e-6 -.87876)" stroke-width=".79954">
          <g transform="matrix(1.0511,0,0,1.0511,16.46,-22.65)" stroke-width=".79954"></g>
         </g>
        </g>
       </g>
      </g>
     </g>
    </g>
   </g>
  </g>
 </g>
 <path class="shp38" d="m34.673 4.8043-0.20995 2.0716m5.4601-1.0288-0.60186 1.9931m5.5637 0.061586-1.0021 1.8252m5.4517 1.1492-1.3325 1.5999m5.1186 2.1835-1.6138 1.3157m4.5881 3.1338-1.835 0.98398m3.8911 3.9779-1.9987 0.58086m3.0429 4.6694-2.0729 0.18896m2.0729 5.1634-2.0716-0.20996m1.0288 5.4601-1.9931-0.60186m-0.06159 5.5637-1.8252-1.0021m-1.1492 5.4517-1.5999-1.3325m-2.1835 5.1172-1.3157-1.6138m-3.1353 4.5895-0.98398-1.835m-3.9765 3.8911-0.58087-1.9987m-4.6694 3.0415-0.18896-2.0729m-5.1634 2.0743 0.20995-2.0716m-5.4601 1.0288 0.60186-1.9931m-5.5637-0.06159 1.0021-1.8252m-5.4517-1.1492 1.3325-1.5999m-5.1186-2.1849 1.6138-1.3157m-4.5881-3.1338 1.835-0.98398m-3.8855-3.9597 1.9889-0.61586m-3.0387-4.6511 2.0729-0.18896m-2.0729-5.1634 2.0716 0.20995m-1.0288-5.4601 1.9931 0.60186m0.061586-5.5637 1.8252 1.0021m1.1492-5.4532 1.5999 1.3325m2.1835-5.1172 1.3157 1.6138m3.1353-4.5881 0.98398 1.835m3.9765-3.8911 0.58086 1.9987m4.6694-3.0429 0.18896 2.0729" fill="none" stroke="url(#b-1)" stroke-linecap="round" stroke-width=".60001"/>
 <g stroke-width="3.7796">
  <path d="m31.998 14.998a1.0016 1.0016 0 0 0-1.002 1.002 1.0016 1.0016 0 0 0 0.0039 0.07031v15.916a1.0016 1.0016 0 0 0 1.002 0.99023 1.0016 1.0016 0 0 0 1.002-1.002 1.0016 1.0016 0 0 0-0.0039-0.07031v-15.904a1.0016 1.0016 0 0 0 0-0.01172 1.0016 1.0016 0 0 0-1.002-0.99023z" filter="url(#e-2)" opacity=".5"/>
  <path d="m32.709 31.991 15.557 15.557-0.71056 0.70678-15.557-15.557z" filter="url(#c-9)" opacity=".35"/>
  <path d="m32.709 31.991 15.557 15.557-0.71056 0.70678-15.557-15.557z" fill="#fff" opacity=".75"/>
  <path d="m31.998 14.998a1.0016 1.0016 0 0 0-1.002 1.002 1.0016 1.0016 0 0 0 0.0039 0.07031v15.916a1.0016 1.0016 0 0 0 1.002 0.99023 1.0016 1.0016 0 0 0 1.002-1.002 1.0016 1.0016 0 0 0-0.0039-0.07031v-15.904a1.0016 1.0016 0 0 0 0-0.01172 1.0016 1.0016 0 0 0-1.002-0.99023z" fill="#fff"/>
 </g>
</svg>
