<svg xmlns="http://www.w3.org/2000/svg" width="64" height="64"><defs><linearGradient id="b" x1="520.32" x2="520" y1="-118.42" y2="1024" gradientTransform="translate(-1.405 .497) scale(.06363)" gradientUnits="userSpaceOnUse"><stop offset="0" stop-color="#ac7c3e"/><stop offset="1" stop-color="#bc8b3c"/></linearGradient><filter id="a" width="1.072" height="1.072" x="-.036" y="-.036" color-interpolation-filters="sRGB"><feGaussianBlur stdDeviation=".9"/></filter></defs><path d="M61.162 33.036c0-.506-.013-1.009-.032-1.499q-.509-11.464-8.753-19.717c-5.857-5.854-12.93-8.784-21.215-8.784-8.282 0-15.358 2.93-21.212 8.784-5.857 5.855-8.787 12.93-8.787 21.215 0 8.282 2.93 15.358 8.787 21.212 5.482 5.492 12.05 8.41 19.672 8.756.51.02 1.018.032 1.54.032 8.285 0 15.358-2.933 21.215-8.788 5.855-5.854 8.785-12.93 8.785-21.212z" filter="url(#a)" opacity=".25" transform="translate(.838 -1.036)"/><path fill="url(#b)" d="M61.162 33.036c0-.506-.013-1.009-.032-1.499q-.509-11.464-8.753-19.717c-5.857-5.854-12.93-8.784-21.215-8.784-8.282 0-15.358 2.93-21.212 8.784-5.857 5.855-8.787 12.93-8.787 21.215 0 8.282 2.93 15.358 8.787 21.212 5.482 5.492 12.05 8.41 19.672 8.756.51.02 1.018.032 1.54.032 8.285 0 15.358-2.933 21.215-8.788 5.855-5.854 8.785-12.93 8.785-21.212z" transform="translate(.838 -1.036)"/><path fill="#8a5411" d="M31.037 15.299c-.582.027-1.167.083-1.756.17-9.412 1.398-15.945 10.112-14.559 19.445 1.387 9.334 10.17 15.773 19.582 14.375A17.4 17.4 0 0 0 37 48.646V40h2v-2.11c-.955-.173-1.899-.24-2.732-.117 0 0-1.302-1.106-1.277-3.49 0 0 1.15-1.36 1.088-4.326 0 0 .157-1.864-.24-1.994 0 0-.073-.665-.038-1.887.035-1.222-.453-5.233-5.902-4.424-5.449.81-4.748 4.79-4.36 5.95.39 1.159.514 1.816.514 1.816-.343.24.348 1.976.348 1.976.803 2.856 2.299 3.825 2.299 3.825.716 2.273-.207 3.709-.207 3.709-3.084.458-6.696 3.693-7.541 4.48a15.197 15.197 0 0 1-4.51-8.748c-1.248-8.397 4.602-16.213 13.096-17.475C38.032 15.923 45.9 21.7 47.147 30.097c.158 1.067.189 2.122.127 3.158a4.994 4.994 0 0 1 1.463 2.223c.344-1.814.413-3.709.127-5.635-1.3-8.75-9.1-14.955-17.826-14.545zM44 33a4 4 0 0 0-4 4v4h-2v8h12v-8h-2v-4a4 4 0 0 0-4-4zm0 2a2 2 0 0 1 2 2v4h-4v-4a2 2 0 0 1 2-2zm-1 4.098V40h2v-.018a25.834 25.834 0 0 0-2-.884z" color="#000" opacity=".75" style="isolation:auto;mix-blend-mode:normal;text-decoration-color:#000;text-decoration-line:none;text-decoration-style:solid;text-indent:0;text-transform:none;white-space:normal"/></svg>