<svg width="64" height="64" xmlns="http://www.w3.org/2000/svg"><defs><linearGradient id="b" x1="399.57" x2="399.57" y1="545.8" y2="517.8" gradientTransform="translate(-826.36 -1107.5) scale(2.1429)" gradientUnits="userSpaceOnUse"><stop stop-color="#3889e9" offset="0"/><stop stop-color="#5ea5fb" offset="1"/></linearGradient><linearGradient id="c" x1="519.2" x2="519.2" y1="1024.8" y2="4.8" gradientTransform="matrix(.06359 0 0 .06358 -.556 -.553)" gradientUnits="userSpaceOnUse"><stop stop-color="#606060" offset="0"/><stop stop-color="#414141" offset=".02"/><stop stop-color="#1e1e1e" offset="1"/></linearGradient><linearGradient id="e" x1="409.57" x2="409.94" y1="542.8" y2="504.19" gradientTransform="matrix(.86339 0 0 .8182 -320.77 -397.49)" gradientUnits="userSpaceOnUse"><stop stop-color="#86d0fb" offset="0"/><stop stop-color="#2794f5" offset="1"/></linearGradient><filter id="a" x="-.036" y="-.036" width="1.072" height="1.072" color-interpolation-filters="sRGB"><feGaussianBlur stdDeviation=".42"/></filter><filter id="d" x="-.032" y="-.042" width="1.063" height="1.084" color-interpolation-filters="sRGB"><feGaussianBlur stdDeviation=".611"/></filter></defs><circle transform="translate(-826.36 -1107.5) scale(2.1429)" cx="400.57" cy="531.8" r="14" filter="url(#a)" opacity=".25"/><circle cx="32.02" cy="32.044" r="30.001" fill="none"/><path d="M50.249 8.193q-3.86-2.972-8.444-4.556Q37.068 2 32.003 2C15.433 2 2 15.432 2 32.001c0 15.158 11.245 27.684 25.845 29.71a31.977 31.977 0 0 0 4.158.29C48.57 61.999 62 48.567 62 32c0-1.31-.082-2.604-.244-3.866a29.932 29.932 0 0 0-.884-4.305q-1.33-4.69-4.082-8.726-2.722-3.977-6.54-6.912z" fill="url(#c)"/><rect transform="matrix(.82048 0 0 .79623 -261.23 -390.57)" x="334.23" y="513.13" width="46.303" height="34.939" ry="1.644" filter="url(#d)" opacity=".75"/><rect x="13" y="18.001" width="37.991" height="27.819" ry="1.309" fill="url(#e)"/><g transform="matrix(.46937 0 0 .4555 -209.41 -153.63)" fill="#d5ffff"><ellipse cx="498.35" cy="384.49" rx="3.196" ry="3.293"/><ellipse cx="489.83" cy="384.49" rx="3.196" ry="3.293"/><ellipse cx="481.31" cy="384.49" rx="3.196" ry="3.293"/></g><path d="M49.691 18.002c.725 0 1.309.583 1.309 1.309v25.2c0 .726-.584 1.31-1.309 1.31H32V18.001z" opacity=".15"/></svg>