<svg width="64" height="64" version="1.1" xmlns="http://www.w3.org/2000/svg" xmlns:xlink="http://www.w3.org/1999/xlink">
 <defs>
  <linearGradient id="linearGradient5002">
   <stop stop-color="#2e5d89" offset="0"/>
   <stop stop-color="#1b92f4" offset="1"/>
  </linearGradient>
  <linearGradient id="linearGradient4352" x1="400.57" x2="415.57" y1="512.8" y2="527.8" gradientTransform="matrix(1.1818 0 0 1.1818 -514.04 -552.28)" gradientUnits="userSpaceOnUse" xlink:href="#linearGradient5002"/>
  <linearGradient id="linearGradient4352-6" x1="400.57" x2="415.57" y1="512.8" y2="527.8" gradientTransform="translate(-360.76 -452.89)" gradientUnits="userSpaceOnUse" xlink:href="#linearGradient5002"/>
  <linearGradient id="linearGradient4352-5" x1="400.57" x2="415.57" y1="512.8" y2="527.8" gradientTransform="matrix(1.1818 0 0 1.1818 -433.04 -545.78)" gradientUnits="userSpaceOnUse" xlink:href="#linearGradient5002"/>
  <linearGradient id="linearGradient4352-9" x1="400.57" x2="415.57" y1="512.8" y2="527.8" gradientTransform="matrix(1.1818 0 0 1.1818 -436.04 -552.78)" gradientUnits="userSpaceOnUse" xlink:href="#linearGradient5002"/>
  <filter id="c-3" x="-.036" y="-.036" width="1.072" height="1.072" color-interpolation-filters="sRGB">
   <feGaussianBlur stdDeviation="0.41999874"/>
  </filter>
  <linearGradient id="b-6" x1="399.57" x2="399.57" y1="545.8" y2="517.8" gradientTransform="matrix(2.1429,0,0,2.1429,-826.36,-1107.5)" gradientUnits="userSpaceOnUse">
   <stop stop-color="#3889e9" offset="0"/>
   <stop stop-color="#5ea5fb" offset="1"/>
  </linearGradient>
  <linearGradient id="e-3" x1="519.2" x2="519.2" y1="1024.8" y2="4.8" gradientTransform="matrix(.063586 0 0 .063583 -.55617 -.55275)" gradientUnits="userSpaceOnUse">
   <stop stop-color="#606060" offset="0"/>
   <stop stop-color="#414141" offset=".019551"/>
   <stop stop-color="#1e1e1e" offset="1"/>
  </linearGradient>
  <filter id="g-5" x="-.031652" y="-.041947" width="1.0633" height="1.0839" color-interpolation-filters="sRGB">
   <feGaussianBlur stdDeviation="0.61065842"/>
  </filter>
  <linearGradient id="f-6" x1="409.57" x2="409.94" y1="542.8" y2="504.19" gradientTransform="matrix(1.0523,0,0,1.0276,-72.568,-8.6932)" gradientUnits="userSpaceOnUse">
   <stop stop-color="#86d0fb" offset="0"/>
   <stop stop-color="#2794f5" offset="1"/>
  </linearGradient>
 </defs>
 <g stroke-linecap="round" stroke-linejoin="round" stroke-width="2"></g>
 <circle transform="matrix(2.1429,0,0,2.1429,-826.36,-1107.5)" cx="400.57" cy="531.8" r="14" filter="url(#c-3)" opacity=".25" stroke-width=".73333"/>
 <circle cx="32.02" cy="32.044" r="30.001" fill-opacity="0" stroke-width="1.5715"/>
 <circle cx="32.02" cy="32.044" r="0" fill="url(#b-6)" stroke-width="1.5715"/>
 <path d="m50.249 8.1932q-3.8597-2.9725-8.444-4.5557-4.7372-1.6373-9.8021-1.6373c-16.57 0-30.003 13.432-30.003 30.001 0 15.158 11.245 27.684 25.845 29.709 0.71216 0.09855 1.4339 0.17485 2.1587 0.21936 0.66128 0.04133 1.3258 0.06994 1.9998 0.06994 16.567 0 29.997-13.432 29.997-29.999 0-1.3098-0.08266-2.6037-0.24481-3.8658-0.18758-1.4751-0.49279-2.909-0.88387-4.3046q-1.3289-4.6892-4.0822-8.7265-2.7215-3.9771-6.5401-6.9112z" fill="url(#e-3)" stroke-width=".99724"/>
 <g transform="matrix(.46586 -.055566 .057258 .45209 -209.41 -153.63)">
  <rect transform="matrix(1.735 .21325 -.21325 1.735 -46.117 -529.76)" x="334.23" y="513.13" width="46.303" height="34.939" ry="1.6442" filter="url(#g-5)" opacity=".75"/>
  <rect transform="matrix(1.735 .21325 -.21325 1.735 -46.117 -529.76)" x="334.23" y="513.13" width="46.303" height="34.939" ry="1.6442" fill="url(#f-6)"/>
  <g fill="#d5ffff">
   <ellipse transform="rotate(7.007)" cx="498.35" cy="384.49" rx="3.1958" ry="3.2932"/>
   <ellipse transform="rotate(7.007)" cx="489.83" cy="384.49" rx="3.1958" ry="3.2932"/>
   <ellipse transform="rotate(7.007)" cx="481.31" cy="384.49" rx="3.1958" ry="3.2932"/>
  </g>
 </g>
 <g transform="translate(18.231 14.849)" fill="#fff">
  <path d="m22.769 10.463h2v7.3846h-2z"/>
  <path d="m22.769 17.848h2v4.3077h-2z" opacity=".75" stroke-width=".90121"/>
  <path d="m22.769 22.155h2v0.99612h-2z" opacity=".35"/>
  <path d="m22.769 23.151v0.32024l0.99998 1.6798 0.99998-1.6798v-0.32024z" fill-rule="evenodd"/>
 </g>
 <path transform="translate(2.2342 2.0061)" d="m22 27-0.40558-0.29241c-0.56644 0.78568-1.2497 1.7318-1.8227 2.6139-0.53116 0.8178-1.0212 1.6613-1.3636 2.3228-0.31774 0.61387-0.49451 1.043-0.67305 1.5438-0.08307 0.23302-0.17499 0.50621-0.2541 0.76485-0.03868 0.12645-0.07489 0.25136-0.10545 0.36691-0.0298 0.11266-0.05585 0.22246-0.07323 0.31886-0.03698 0.20446-0.03948 0.42134-0.01756 0.60129 0.01055 0.08664 0.02899 0.18353 0.06189 0.27332 0.01602 0.04371 0.04174 0.10325 0.08345 0.1625 0.03728 0.05298 0.1209 0.1538 0.26822 0.20227 0.04174 0.01305 0.08612 0.02351 0.12981 0.03192 0.04407 0.0085 0.09207 0.01575 0.14282 0.02147 0.09945 0.01122 0.21607 0.01725 0.34204 0.01292 0.12443-0.0043 0.26148-0.01783 0.43141-0.0515 0.16464-0.03262 0.35726-0.08356 0.59763-0.16134 0.2353-0.07614 0.52047-0.17945 0.81234-0.29112 0.28793-0.11016 0.58562-0.22972 0.84988-0.34036 0.51998-0.2177 0.90386-0.39812 1.2312-0.56033 0.16032-0.07944 0.30812-0.15489 0.51307-0.26653 0.20136-0.10968 0.45726-0.25392 0.83961-0.47358 0.37863-0.21753 0.88272-0.50989 1.4215-0.82308 0.53789-0.31264 1.0641-0.61913 1.602-0.93176 0.987-0.57364 1.749-1.0137 2.4597-1.4611 0.705-0.44388 1.3695-0.90072 1.9995-1.3436 0.61808-0.43448 1.2079-0.85893 1.7092-1.2418 0.2498-0.19075 0.54079-0.42248 0.77848-0.61467 0.11848-0.0958 0.22395-0.18196 0.30458-0.24843 0.04022-0.03316 0.07425-0.0614 0.10059-0.08346 0.02625-0.02199 0.04498-0.03792 0.05429-0.04622 3.12e-4 -2.16e-4 -0.01284 0.0094-0.02727 0.01787-0.0081 0.0048-0.02324 0.01325-0.04355 0.02149-0.01751 0.0071-0.05739 0.02181-0.11086 0.02454-0.02843 0.0015-0.06627-1.7e-4 -0.10889-0.01191-0.04403-0.01213-0.0901-0.03432-0.13176-0.0698-0.0415-0.03534-0.07001-0.07654-0.08848-0.11603-0.0179-0.03829-0.02574-0.07347-0.02923-0.10009-0.0066-0.05027-2.12e-4 -0.08975 0.0033-0.10761 0.0041-0.02064 0.0093-0.03624 0.01248-0.04496 0.0064-0.01755 0.01212-0.02767 0.01361-0.03018 0.0023-0.0039 0.0027-0.0037 0.0022-0.0023-0.0013 0.0034-0.0066 0.013-0.01434 0.02548-0.03245 0.05261-0.09578 0.14074-0.15988 0.22263-0.06732 0.08577-0.16082 0.20101-0.26471 0.32864-0.1031 0.12666-0.21691 0.26609-0.32439 0.39971-0.21505 0.26736-0.40707 0.51414-0.69058 0.88668-0.28082 0.369-0.65059 0.86039-1.1291 1.4681-0.47877 0.60803-1.0628 1.328-1.7748 2.2151-0.70801 0.88213-1.5366 1.9222-2.1892 2.7301-0.64978 0.80445-1.133 1.3884-1.6572 2.0529-0.52489 0.66541-1.0963 1.4183-1.505 1.9541-0.20476 0.26844-0.3723 0.48699-0.5065 0.66433-0.134 0.17706-0.23607 0.31474-0.30911 0.42066-0.03887 0.05624-0.07504 0.11404-0.10612 0.16893-0.03083 0.05446-0.05813 0.10868-0.07826 0.15783-0.01003 0.02449-0.01945 0.05055-0.02651 0.07665-0.0062 0.02274-0.01472 0.06027-0.01298 0.10228 8.98e-4 0.02172 0.0049 0.05592 0.02209 0.09281 0.01885 0.04048 0.05287 0.08191 0.10531 0.10721 0.04955 0.02391 0.09652 0.0243 0.12809 0.02008 0.03109-0.0042 0.05631-0.01388 0.07333-0.02176 0.04982-0.0251 0.10971-0.05373 0.22511-0.1136 0.11088-0.05753 0.2632-0.13898 0.47749-0.25877 0.21456-0.11994 0.4902-0.2779 0.78776-0.45084 0.29886-0.1737 0.62076-0.36304 0.92789-0.5458 0.62022-0.36906 1.1729-0.70678 1.9426-1.132 0.77482-0.42802 1.7647-0.94196 2.7609-1.4354 1.0072-0.49888 2.0233-0.97809 2.8927-1.3709 0.87526-0.39549 1.6228-0.71272 2.0641-0.9044 0.22566-0.09802 0.41088-0.18084 0.53739-0.23711 0.06527-0.02904 0.11285-0.05009 0.14727-0.06486 0.0092-4e-3 0.02543-0.01066 0.03468-0.01463 3e-3 -0.0013 0.0035-0.0015 4.1e-5 -1e-3 -9.83e-4 1.37e-4 -0.0066 1e-3 -0.01319 0.0012-0.0036 1.31e-4 -0.0096 1.9e-4 -0.01708-7e-4 -0.0069-8.17e-4 -0.01985-3e-3 -0.03465-0.01007-0.01732-0.0083-0.0313-0.02051-0.04145-0.03446-0.0097-0.01335-0.01467-0.02647-0.01725-0.03633-0.0048-0.01833-0.0034-0.0329-0.0027-0.0382 0.0016-0.01251 0.0045-0.01729 0.0045-0.0172 0.0017-0.0023-0.0022 8e-3 -0.0061 0.01666-0.0095 0.02111-0.02656 0.05356-0.04851 0.09272-0.04413 0.07874-0.10642 0.182-0.16765 0.28054-0.06195 0.0997-0.13887 0.22078-0.25924 0.37863-0.12167 0.15956-0.28708 0.35575-0.523 0.60118-0.48067 0.50006-1.2636 1.2207-2.2299 2.0668-0.49172 0.43052-1.0444 0.90494-1.5408 1.3289-0.56331 0.48115-0.68062 0.57972-1.2439 1.0609-0.14638 0.12543-0.2603 0.22488-0.34708 0.30314-0.08721 0.07866-0.14775 0.13658-0.18624 0.1782-0.01918 0.02074-0.0342 0.03883-0.04444 0.05444-0.0051 0.0077-0.01019 0.01666-0.01373 0.02629-0.0031 0.0084-8e-3 0.02533-0.0022 0.04446 0.0032 0.01045 0.0091 0.0199 0.01734 0.02732 0.0079 0.0071 0.01644 0.01097 0.0234 0.01307 0.01294 0.0039 0.02511 0.0031 0.03267 0.0022 0.0085-1e-3 0.01709-0.0031 0.02515-0.0053 0.0083-0.0023 0.0171-0.0053 0.02622-0.0086 0.13684-0.04968 0.41382-0.146 0.98113-0.33956 0.58841-0.20075 1.473-0.50071 2.1569-0.73584 0.72296-0.24854 1.2263-0.42529 2.035-0.65776 0.84538-0.243 1.9735-0.53218 2.9494-0.75994 0.51032-0.1191 0.99891-0.22598 1.4028-0.31388 0.42695-0.09291 0.76597-0.1661 1.0023-0.22291 0.12032-0.02893 0.21547-0.05482 0.28989-0.07796 0.07608-0.02366 0.13085-0.04455 0.16865-0.06298 0.01925-0.0094 0.03418-0.01816 0.0453-0.02639 0.01124-0.0083 0.01873-0.01616 0.02276-0.02362 2e-3 -0.0038 0.0032-0.0075 0.0035-0.01109 2.85e-4 -0.0036-3.36e-4 -0.0071-0.0017-0.01034-0.0028-0.0065-0.0088-0.01207-0.0168-0.01693-0.11273-0.069105-0.21854-0.13462-0.31704-0.1963 0.0985 0.06168 0.20365 0.12825 0.31497 0.19939 0.0076 0.0049 0.01249 0.01017 0.01451 0.01555 9.93e-4 0.0026 0.0013 0.0053 9.53e-4 0.0081-3.61e-4 0.0028-0.0014 0.0057-0.0033 0.0089-0.0037 0.0063-0.01073 0.01326-0.02179 0.02099-0.0109 0.0076-0.02562 0.01586-0.04477 0.02477-0.03761 0.01748-0.09221 0.03746-0.1683 0.0602-0.07439 0.02224-0.16953 0.04719-0.28989 0.07514-0.23682 0.055-0.57551 0.12606-1.0033 0.21684-0.40457 0.08586-0.89336 0.19036-1.4046 0.30715-0.978 0.2234-2.1065 0.50716-2.955 0.7449-0.81093 0.22721-1.3183 0.39903-2.0429 0.64116-0.68482 0.22884-1.5681 0.52137-2.1631 0.71684-0.56967 0.18716-0.84846 0.2766-0.98787 0.31924-0.0077 0.0023-0.01421 4e-3 -0.0194 0.0051-0.0052 0.0011-0.0087 0.0014-0.0097 0.0013-0.0048-7.51e-4 0.0049-3.86e-4 0.0094 9.32e-4 0.0041 0.0012 0.01028 0.0038 0.0164 0.0092 0.0065 0.0058 0.01112 0.01319 0.01358 0.0212 0.0043 0.014 3.74e-4 0.02508 3.85e-4 0.02504-4.7e-4 0.0017 2.08e-4 3.68e-4 0.0031-0.0034 0.0062-8e-3 0.01686-0.02022 0.03552-0.03904 0.03642-0.03674 0.09526-0.09065 0.18333-0.1675 0.08707-0.07599 0.20144-0.1733 0.3488-0.29702 0.28769-0.24154 0.74768-0.62681 1.2515-1.052 0.49922-0.42127 1.0547-0.89281 1.5499-1.321 0.9719-0.84041 1.7644-1.5586 2.2564-2.0582 0.24272-0.24651 0.41564-0.44483 0.54528-0.60773 0.12865-0.16166 0.21242-0.28556 0.27929-0.38496 0.06551-0.09738 0.13296-0.20073 0.18277-0.2806 0.02437-0.03907 0.04615-0.07512 0.06083-0.1017 7e-3 -0.01262 0.01468-0.02725 0.01997-0.04059 0.0023-0.0058 7e-3 -0.01808 0.0088-0.03353 8.85e-4 -0.0073 0.0023-0.02349-0.0029-0.04301-0.0027-0.01047-0.0079-0.0241-0.01795-0.03786-0.01045-0.01436-0.02479-0.02689-0.04256-0.03539-0.01524-0.0073-0.02881-0.0096-0.03637-0.0105-0.0082-9.7e-4 -0.01506-9.2e-4 -0.01958-7.39e-4 -0.0088 3.55e-4 -0.01632 0.0016-0.02055 0.0023-0.0089 0.0016-0.0174 0.0038-0.02392 0.0057-0.01387 0.0039-0.03031 0.0095-0.04918 0.01634-0.03798 0.0138-0.09023 0.03451-0.15574 0.06123-0.13049 0.05323-0.31483 0.13085-0.5421 0.22473-0.44614 0.18431-1.1947 0.49203-2.0793 0.88182-0.87625 0.38611-1.8991 0.85846-2.9137 1.3508-1.0032 0.48676-2.0013 0.99457-2.7858 1.4173-0.7799 0.42026-1.3434 0.75366-1.9655 1.113-0.30848 0.17817-0.63167 0.36288-0.93155 0.53178-0.29894 0.16837-0.57446 0.32088-0.78814 0.43499-0.21301 0.11376-0.36273 0.18852-0.46988 0.23896-0.10701 0.05037-0.17047 0.07601-0.21611 0.0938 0.0058-0.0029 0.02109-0.0096 0.04397-0.01273 0.02327-0.0032 0.06338-0.0037 0.10746 0.01755 0.04697 0.02263 0.0769 0.05959 0.09295 0.09396 0.01436 0.03075 0.01693 0.05726 0.01754 0.06968 0.0014 0.02917-0.0019 0.03222-5.21e-4 0.02976 0.0013-0.0025 0.0053-0.01229 0.01163-0.02526 0.01326-0.02736 0.03331-0.06383 0.0603-0.10714 0.02649-0.0425 0.05757-0.08818 0.09086-0.13259 0.07167-0.09587 0.17244-0.22423 0.31066-0.39901 0.13669-0.17284 0.30888-0.38966 0.51766-0.65557 0.41812-0.53251 0.99371-1.2753 1.5229-1.9309 0.52865-0.65495 1.0147-1.2273 1.6759-2.0308 0.66215-0.80467 1.4982-1.8389 2.2124-2.7137 0.71624-0.87729 1.3114-1.596 1.7995-2.2007 0.4881-0.60465 0.8715-1.0982 1.1558-1.4566 0.28759-0.36248 0.4832-0.59878 0.7005-0.85431 0.10958-0.12886 0.22541-0.26347 0.33243-0.38762 0.10583-0.12277 0.20705-0.23993 0.2799-0.32526 0.07707-0.09047 0.15687-0.19193 0.20918-0.26587 0.01334-0.01887 0.02709-0.03904 0.03914-0.05844 0.0061-0.0098 0.01293-0.02132 0.01962-0.03387 6e-3 -0.0113 0.01552-0.03011 0.02402-0.0536 0.0043-0.01187 0.01031-0.03033 0.01485-0.05336 4e-3 -0.02027 0.0105-0.06179 0.0037-0.11367-0.0036-0.02743-0.01164-0.06332-0.02982-0.10221-0.01875-0.0401-0.04763-0.08179-0.08959-0.11752-0.04212-0.03587-0.08874-0.05834-0.13341-0.07065-0.04326-0.01192-0.08183-0.01361-0.11109-0.01211-0.05512 0.0028-0.09702 0.01806-0.11694 0.02616-0.02275 0.0093-0.04065 0.01918-0.05195 0.02588-0.02235 0.01326-0.04043 0.02687-0.05132 0.0354-0.01007 0.0074-0.029 0.02208-0.05573 0.04299-0.02671 0.02089-0.06107 0.04794-0.10156 0.07986-0.08134 0.06411-0.18685 0.1474-0.30554 0.24047-0.239 0.18741-0.52662 0.4107-0.7712 0.5919-0.4959 0.36745-1.0822 0.77849-1.7021 1.2036-0.6316 0.43308-1.2886 0.87411-1.982 1.3006-0.7004 0.43078-1.4535 0.85578-2.45 1.4252-0.37113 0.21207-1.2374 0.70883-1.6086 0.9209-0.54108 0.30961-1.045 0.59707-1.4232 0.80962-0.38187 0.2146-0.63246 0.3511-0.82597 0.452-0.19416 0.10124-0.33311 0.1678-0.48753 0.23997-0.3179 0.14858-0.68917 0.31467-1.1942 0.51799-0.25813 0.10392-0.54874 0.21658-0.82915 0.31992-0.28589 0.10536-0.55579 0.19904-0.77066 0.26492-0.2171 0.06656-0.37434 0.10365-0.49462 0.12437-0.12027 0.02072-0.20748 0.02572-0.28296 0.02562-0.07772-1.6e-4 -0.14812-0.0067-0.20385-0.01561-0.02817-0.0045-0.05154-0.0094-0.06903-0.01395-0.0166-0.0043-0.02913-0.0088-0.02691-0.0091 0.12627 0.04149 0.19022 0.12483 0.20906 0.15139 0.02246 0.03167 0.03268 0.05776 0.03261 0.0576 0.0044 0.01-0.0042-0.02086-0.0081-0.06218-0.0088-0.09198-0.0051-0.21298 0.01603-0.3175 0.01228-0.06135 0.0325-0.14356 0.06045-0.24413 0.02795-0.10056 0.06183-0.21307 0.09928-0.33111 0.07668-0.24171 0.16612-0.49982 0.24731-0.7206 0.16998-0.46222 0.33348-0.849 0.63261-1.4192 0.32988-0.62876 0.80569-1.4425 1.3232-2.2353 0.55852-0.85568 1.2294-1.7829 1.7989-2.5727 5.6e-5 -1.2e-5 -0.40553-0.29242-0.40553-0.29242z" fill="#fff" opacity=".5"/>
</svg>
