<svg xmlns="http://www.w3.org/2000/svg" xmlns:xlink="http://www.w3.org/1999/xlink" width="64" height="64" fill="none"><defs><linearGradient id="d" x1="21.599" x2="-3.073" y1="2.411" y2="17.237" gradientTransform="translate(-4.174 -.783) scale(2.2609)" gradientUnits="userSpaceOnUse"><stop offset="0" stop-color="#1abc9c"/><stop offset="1" stop-color="#2980b9"/></linearGradient><linearGradient id="e" x1="9.887" x2="6.089" y1="31.766" y2="19.225" gradientTransform="translate(-4.174 -.783) scale(2.2609)" gradientUnits="userSpaceOnUse"><stop offset="0" stop-color="#334545"/><stop offset="1" stop-color="#536161"/></linearGradient><linearGradient id="f" x1="13.217" x2="29.16" y1="16.352" y2="19.478" gradientTransform="translate(-4.174 -.783) scale(2.2609)" gradientUnits="userSpaceOnUse"><stop offset="0" stop-color="#cc4a5e"/><stop offset="1" stop-color="#aa478a"/></linearGradient><linearGradient id="h" x1="16" x2="16" y1="3" y2="26" gradientTransform="translate(-4.174 -.783) scale(2.2609)" gradientUnits="userSpaceOnUse"><stop offset="0"/><stop offset="1" stop-opacity="0"/></linearGradient><linearGradient id="j" x1="17.635" x2="17.635" y1="9.846" y2="32.002" gradientTransform="matrix(2 0 0 2 0 -1.002)" gradientUnits="userSpaceOnUse"><stop offset="0" stop-color="#fccec0"/><stop offset="1" stop-color="#c98350"/></linearGradient><linearGradient id="k" x1="18" x2="18" y1="21" y2="32" gradientTransform="matrix(2 0 0 2 0 -1.002)" gradientUnits="userSpaceOnUse"><stop offset="0" stop-color="#a96535" stop-opacity="0"/><stop offset="1" stop-color="#a96535"/></linearGradient><linearGradient id="l" x1="18" x2="18" y1="10" y2="25.5" gradientTransform="matrix(2 0 0 2 0 -1.002)" gradientUnits="userSpaceOnUse"><stop offset="0" stop-color="#fff"/><stop offset="1" stop-color="#fff" stop-opacity=".5"/></linearGradient><linearGradient id="b-3" x1="520" x2="520.03" y1="44" y2="985.85" gradientTransform="translate(-.542 -.542) scale(.06356)" gradientUnits="userSpaceOnUse"><stop offset="0" stop-color="#353535"/><stop offset="1" stop-color="#6d6d6d"/></linearGradient><linearGradient xlink:href="#b-3" id="linearGradient645" x1="520" x2="520.03" y1="44" y2="985.85" gradientTransform="matrix(.05509 0 0 .05509 3.797 3.797)" gradientUnits="userSpaceOnUse"/><clipPath id="clipPath641"><path fill="url(#linearGradient645)" stroke-width=".867" d="M57.212 25.39a24.622 24.622 0 0 0-1.941-5.157c-.21-.407-.439-.823-.678-1.233h-.002q-1.685-2.865-4.204-5.385C45.311 8.54 39.18 6 32 6s-13.309 2.54-18.385 7.615C8.54 18.692 6 24.82 6 32s2.539 13.312 7.615 18.387c3.748 3.749 8.07 6.112 12.94 7.087 1.758.353 3.565.526 5.444.526 7.18 0 13.311-2.537 18.387-7.613 2.677-2.677 4.65-5.646 5.914-8.912.936-2.421 1.487-5.002 1.65-7.754.033-.561.05-1.137.05-1.72 0-2.3-.26-4.496-.79-6.61z"/></clipPath><filter id="a-6" width="1.072" height="1.072" x="-.036" y="-.036" color-interpolation-filters="sRGB"><feGaussianBlur stdDeviation="14.16"/></filter><style id="current-color-scheme" type="text/css">.ColorScheme-Highlight{color:#3daee9}</style></defs><path d="M969.7 392c-1.1-4.35-2.35-9-3.65-13.6-2.5-8.75-5.35-17.6-8.45-26.35-6.45-18.25-14.15-36.05-23.15-53.65-3.8-7.4-7.95-14.95-12.3-22.4h-.025q-30.601-52.01-76.325-97.75C753.65 86.1 642.35 40 512 40S270.4 86.1 178.25 178.25 40 381.65 40 512s46.1 241.65 138.25 333.8c68.05 68.05 146.5 110.95 234.9 128.65C445.1 980.85 477.9 984 512 984c130.35 0 241.65-46.05 333.8-138.2 48.6-48.6 84.4-102.5 107.35-161.8 17-43.95 27-90.8 29.95-140.75.6-10.2.9-20.65.9-31.25 0-41.75-4.7-81.6-14.3-120z" filter="url(#a-6)" opacity=".25" transform="translate(-.542 -.542) scale(.06356)"/><path fill="url(#b-3)" d="M61.091 24.373a28.41 28.41 0 0 0-2.24-5.95A31 31 0 0 0 58.069 17h-.002q-1.945-3.306-4.851-6.213C47.359 4.93 40.285 2 32 2s-15.356 2.93-21.213 8.787S2 23.715 2 32s2.93 15.36 8.787 21.216c4.325 4.325 9.311 7.052 14.93 8.177C27.747 61.8 29.832 62 32 62c8.285 0 15.359-2.927 21.216-8.784 3.089-3.089 5.364-6.515 6.823-10.284 1.08-2.793 1.716-5.771 1.904-8.946.038-.648.057-1.312.057-1.986 0-2.654-.299-5.187-.91-7.627z"/><path fill="url(#d)" stroke-width="2.261" d="M32 6c-7.18 0-13.309 2.54-18.385 7.615C8.539 18.691 6 24.82 6 32s2.539 13.312 7.615 18.387c3.748 3.748 8.07 6.113 12.939 7.088 1.76.353 3.566.525 5.445.525 7.18 0 13.311-2.537 18.387-7.613 2.677-2.677 4.65-5.645 5.914-8.912.936-2.42 1.488-5.002 1.65-7.754.034-.561.05-1.136.05-1.72 0-2.3-.26-4.495-.79-6.61h.003a24.622 24.622 0 0 0-1.942-5.158c-.21-.407-.438-.823-.678-1.233h-.002c-1.123-1.91-2.526-3.705-4.205-5.384C45.31 8.54 39.18 6 32 6z"/><path fill="url(#e)" stroke-width="2.261" d="m21.012 37.969-10.885 8.17a27.454 27.454 0 0 0 3.488 4.248c3.749 3.748 8.07 6.113 12.94 7.088C28.313 57.828 30.12 58 32 58c3.909 0 7.504-.757 10.79-2.262l-21.778-17.77z"/><path fill="url(#f)" stroke-width="2.261" d="M51.67 14.986 21.018 37.974l21.773 17.764c2.75-1.259 5.283-3.04 7.596-5.352 2.677-2.677 4.65-5.645 5.914-8.912.936-2.42 1.487-5.002 1.65-7.754.033-.561.049-1.136.049-1.72 0-2.3-.26-4.495-.789-6.61h.002a24.622 24.622 0 0 0-1.941-5.158c-.21-.407-.439-.822-.678-1.232h-.002c-.824-1.4-1.8-2.738-2.922-4.014z"/><path stroke-width="2.261" d="M51.668 14.986 21.012 37.968l36.359-11.836c-.054-.247-.099-.497-.16-.742h.002a24.622 24.622 0 0 0-1.942-5.158c-.21-.408-.438-.823-.677-1.233h-.002a26.224 26.224 0 0 0-2.924-4.013z"/><path fill="url(#h)" stroke-width="2.261" d="M.348 8.26A2.26 2.26 0 0 1 2.608 6h58.784a2.26 2.26 0 0 1 2.26 2.26V55.74a2.26 2.26 0 0 1-2.26 2.26H2.609a2.26 2.26 0 0 1-2.261-2.26z" clip-path="url(#clipPath641)" opacity=".2"/><g stroke-width="2"><path fill="currentColor" d="M43.3 21.998c0 6.075-4.925 11-11 11s-11-4.925-11-11 4.925-11 11-11 11 4.925 11 11z" class="ColorScheme-Highlight" opacity=".5"/><path fill="currentColor" d="M41.3 21.998a9 9 0 1 1-18 0 9 9 0 0 1 18 0z" class="ColorScheme-Highlight"/><path fill="#000" fill-opacity=".4" d="M41.3 21.998a9 9 0 1 1-18 0 9 9 0 0 1 18 0z"/><path fill="url(#j)" d="M33.407 62.405c4.953.55 11.949.59 12.923.592.079 0 .154.002.233.003 4.3.07 8.022-2.794 8.574-7.072l1.381-9.523c1.185-7.111-4.148-8.889-5.926-5.333 0-4.149-4.74-6.519-7.11-2.963 0-3.556-5.112-5.926-7.482-2.37V22.7c0-4.74-7-5.926-7 0v25.296s-1-3-3-5c-6.52-6.519-9.778-.148-9.778-.148 4.74 3.556 8.331 18.572 17.185 19.556z"/><path fill="url(#k)" d="M46.33 62.998c-.974-.003-7.97-.042-12.923-.592-5.617-.625-9.116-6.897-12.134-12.307-1.739-3.118-3.318-5.95-5.051-7.249 0 0 .293-.574.88-1.201 1.4 1.482 2.73 3.868 4.171 6.45 3.018 5.41 6.517 11.683 12.134 12.307 4.953.55 11.95.59 12.923.592l.205.002h.028c4.3.07 8.022-2.793 8.574-7.071l1.381-9.523c.053-.315.092-.62.12-.913.09.844.063 1.815-.12 2.913l-1.381 9.523c-.552 4.278-4.273 7.14-8.574 7.072h-.028a13.86 13.86 0 0 0-.205-.003z"/><path fill="url(#l)" fill-rule="evenodd" d="M29 47.998s-1-3-3-5c-6.52-6.52-9.778-.148-9.778-.148.298.223.59.491.881.799 1.37-1.462 4.335-3.213 8.897 1.349 2 2 3 5 3 5zm7-10.259v-2c2.37-3.556 7.481-1.185 7.481 2.37 2.37-3.555 7.112-1.185 7.112 2.963 1.699-3.398 6.646-1.924 6.045 4.421-.496-4.62-4.542-5.427-6.045-2.42 0-4.149-4.741-6.52-7.112-2.964 0-3.555-5.11-5.926-7.481-2.37zm0-15.037v2c0-4.74-7-5.926-7 0v-2c0-5.926 7-4.74 7 0z" clip-rule="evenodd" opacity=".6"/></g></svg>