<svg width="64" height="64" fill="none" version="1.1" xmlns="http://www.w3.org/2000/svg" xmlns:xlink="http://www.w3.org/1999/xlink">
 <defs>
  <linearGradient id="d" x1="21.599" x2="-3.073" y1="2.411" y2="17.237" gradientTransform="translate(-4.174 -.783)scale(2.2609)" gradientUnits="userSpaceOnUse">
   <stop stop-color="#1abc9c" offset="0"/>
   <stop stop-color="#2980b9" offset="1"/>
  </linearGradient>
  <linearGradient id="e" x1="9.887" x2="6.089" y1="31.766" y2="19.225" gradientTransform="translate(-4.174 -.783)scale(2.2609)" gradientUnits="userSpaceOnUse">
   <stop stop-color="#334545" offset="0"/>
   <stop stop-color="#536161" offset="1"/>
  </linearGradient>
  <linearGradient id="f" x1="13.217" x2="29.16" y1="16.352" y2="19.478" gradientTransform="translate(-4.174 -.783)scale(2.2609)" gradientUnits="userSpaceOnUse">
   <stop stop-color="#cc4a5e" offset="0"/>
   <stop stop-color="#aa478a" offset="1"/>
  </linearGradient>
  <linearGradient id="j" x1="17.635" x2="17.635" y1="9.846" y2="32.002" gradientTransform="matrix(2 0 0 2 0 -1.002)" gradientUnits="userSpaceOnUse">
   <stop stop-color="#fccec0" offset="0"/>
   <stop stop-color="#c98350" offset="1"/>
  </linearGradient>
  <linearGradient id="k" x1="18" x2="18" y1="21" y2="32" gradientTransform="matrix(2 0 0 2 0 -1.002)" gradientUnits="userSpaceOnUse">
   <stop stop-color="#a96535" stop-opacity="0" offset="0"/>
   <stop stop-color="#a96535" offset="1"/>
  </linearGradient>
  <linearGradient id="l" x1="18" x2="18" y1="10" y2="25.5" gradientTransform="matrix(2 0 0 2 0 -1.002)" gradientUnits="userSpaceOnUse">
   <stop stop-color="#fff" offset="0"/>
   <stop stop-color="#fff" stop-opacity=".5" offset="1"/>
  </linearGradient>
  <filter id="a-6" x="-.036" y="-.036" width="1.072" height="1.072" color-interpolation-filters="sRGB">
   <feGaussianBlur stdDeviation="14.16"/>
  </filter>
  <style id="current-color-scheme" type="text/css">.ColorScheme-Highlight{color:#3daee9}</style>
  <linearGradient id="linearGradient31" x1="32" x2="32" y1="2" y2="62" gradientUnits="userSpaceOnUse" xlink:href="#e"/>
  <filter id="filter32" x="-.027" y="-.027" width="1.054" height="1.054" color-interpolation-filters="sRGB">
   <feGaussianBlur stdDeviation="0.675"/>
  </filter>
  <filter id="filter33" x="-.028283" y="-.036556" width="1.0566" height="1.0731" color-interpolation-filters="sRGB">
   <feGaussianBlur stdDeviation="0.47687934"/>
  </filter>
  <filter id="filter34" x="-.028283" y="-.053599" width="1.0566" height="1.1072" color-interpolation-filters="sRGB">
   <feGaussianBlur stdDeviation="0.47687934"/>
  </filter>
 </defs>
 <circle cx="32" cy="33" r="30" fill="#000000" filter="url(#filter32)" opacity=".15"/>
 <circle cx="32" cy="32" r="30" fill="url(#linearGradient31)"/>
 <path transform="translate(-.542 -.542)scale(.06356)" d="M969.7 392c-1.1-4.35-2.35-9-3.65-13.6-2.5-8.75-5.35-17.6-8.45-26.35-6.45-18.25-14.15-36.05-23.15-53.65-3.8-7.4-7.95-14.95-12.3-22.4h-.025q-30.601-52.01-76.325-97.75C753.65 86.1 642.35 40 512 40S270.4 86.1 178.25 178.25 40 381.65 40 512s46.1 241.65 138.25 333.8c68.05 68.05 146.5 110.95 234.9 128.65C445.1 980.85 477.9 984 512 984c130.35 0 241.65-46.05 333.8-138.2 48.6-48.6 84.4-102.5 107.35-161.8 17-43.95 27-90.8 29.95-140.75.6-10.2.9-20.65.9-31.25 0-41.75-4.7-81.6-14.3-120" filter="url(#a-6)" opacity=".25"/>
 <path d="M32 6q-10.77.001-18.385 7.615Q6 21.23 6 32c0 10.77 2.539 13.312 7.615 18.387 3.748 3.748 8.07 6.113 12.939 7.088 1.76.353 3.566.525 5.445.525q10.772 0 18.387-7.613c2.677-2.677 4.65-5.645 5.914-8.912q1.405-3.628 1.65-7.754.05-.843.05-1.72c0-2.3-.26-4.495-.79-6.61h.003a24.6 24.6 0 0 0-1.942-5.158A27 27 0 0 0 54.593 19h-.002q-1.686-2.865-4.205-5.384Q42.771 6.001 32 6" fill="url(#d)" stroke-width="2.261"/>
 <path d="m21.012 37.969-10.885 8.17a27.5 27.5 0 0 0 3.488 4.248c3.749 3.748 8.07 6.113 12.94 7.088C28.313 57.828 30.12 58 32 58c3.909 0 7.504-.757 10.79-2.262z" fill="url(#e)" stroke-width="2.261"/>
 <path d="M51.67 14.986 21.018 37.974l21.773 17.764c2.75-1.259 5.283-3.04 7.596-5.352 2.677-2.677 4.65-5.645 5.914-8.912q1.405-3.628 1.65-7.754A29 29 0 0 0 58 32c0-2.3-.26-4.495-.789-6.61h.002a24.6 24.6 0 0 0-1.941-5.158c-.21-.407-.439-.822-.678-1.232h-.002q-1.237-2.1-2.922-4.014" fill="url(#f)" stroke-width="2.261"/>
 <path d="M51.668 14.986 21.012 37.968l36.359-11.836c-.054-.247-.099-.497-.16-.742h.002a24.6 24.6 0 0 0-1.942-5.158 27 27 0 0 0-.677-1.233h-.002a26 26 0 0 0-2.924-4.013" stroke-width="2.261"/>
 <g stroke-width="2">
  <path class="ColorScheme-Highlight" d="m43.3 21.998c0 6.075-4.925 11-11 11s-11-4.925-11-11 4.925-11 11-11 11 4.925 11 11" fill="currentColor" opacity=".5"/>
  <path class="ColorScheme-Highlight" d="m41.3 21.998a9 9 0 1 1-18 0 9 9 0 0 1 18 0" fill="currentColor"/>
  <path d="m41.3 21.998a9 9 0 1 1-18 0 9 9 0 0 1 18 0" fill="#000" fill-opacity=".4"/>
  <path d="M33.407 62.405c4.953.55 11.949.59 12.923.592q.117 0 .233.003c4.3.07 8.022-2.794 8.574-7.072l1.381-9.523c1.185-7.111-4.148-8.889-5.926-5.333 0-4.149-4.74-6.519-7.11-2.963 0-3.556-5.112-5.926-7.482-2.37V22.7c0-4.74-7-5.926-7 0v25.296s-1-3-3-5c-6.52-6.519-9.778-.148-9.778-.148 4.74 3.556 8.331 18.572 17.185 19.556z" fill="url(#j)"/>
  <path d="M46.33 62.998c-.974-.003-7.97-.042-12.923-.592-5.617-.625-9.116-6.897-12.134-12.307-1.739-3.118-3.318-5.95-5.051-7.249 0 0 .293-.574.88-1.201 1.4 1.482 2.73 3.868 4.171 6.45 3.018 5.41 6.517 11.683 12.134 12.307 4.953.55 11.95.59 12.923.592l.205.002h.028c4.3.07 8.022-2.793 8.574-7.071l1.381-9.523q.079-.473.12-.913c.09.844.063 1.815-.12 2.913l-1.381 9.523c-.552 4.278-4.273 7.14-8.574 7.072h-.028z" fill="url(#k)" filter="url(#filter34)"/>
  <path d="M29 47.998s-1-3-3-5c-6.52-6.52-9.778-.148-9.778-.148q.446.336.881.799c1.37-1.462 4.335-3.213 8.897 1.349 2 2 3 5 3 5zm7-10.259v-2c2.37-3.556 7.481-1.185 7.481 2.37 2.37-3.555 7.112-1.185 7.112 2.963 1.699-3.398 6.646-1.924 6.045 4.421-.496-4.62-4.542-5.427-6.045-2.42 0-4.149-4.741-6.52-7.112-2.964 0-3.555-5.11-5.926-7.481-2.37m0-15.037v2c0-4.74-7-5.926-7 0v-2c0-5.926 7-4.74 7 0" clip-rule="evenodd" fill="url(#l)" fill-rule="evenodd" filter="url(#filter33)" opacity=".6"/>
 </g>
</svg>
