<svg width="64" height="64" xmlns="http://www.w3.org/2000/svg"><defs><linearGradient id="b" x1="399.57" x2="399.57" y1="545.8" y2="517.8" gradientTransform="translate(-826.36 -1107.5) scale(2.1429)" gradientUnits="userSpaceOnUse"><stop stop-color="#3889e9" offset="0"/><stop stop-color="#5ea5fb" offset="1"/></linearGradient><linearGradient id="e" x1="409.57" x2="409.94" y1="542.8" y2="504.19" gradientTransform="matrix(.86339 0 0 .8182 -320.77 -397.49)" gradientUnits="userSpaceOnUse"><stop stop-color="#c4c4c4" offset="0"/><stop stop-color="#f6f6f6" offset="1"/></linearGradient><linearGradient id="c" x1="519.2" x2="519.2" y1="1024.8" y2="4.8" gradientTransform="matrix(.06359 0 0 .06358 -.556 -.553)" gradientUnits="userSpaceOnUse"><stop stop-color="#606060" offset="0"/><stop stop-color="#414141" offset=".02"/><stop stop-color="#1e1e1e" offset="1"/></linearGradient><filter id="a" x="-.036" y="-.036" width="1.072" height="1.072" color-interpolation-filters="sRGB"><feGaussianBlur stdDeviation=".42"/></filter><filter id="d" x="-.031" y="-.043" width="1.062" height="1.085" color-interpolation-filters="sRGB"><feGaussianBlur stdDeviation=".494"/></filter></defs><circle transform="translate(-826.36 -1107.5) scale(2.1429)" cx="400.57" cy="531.8" r="14" filter="url(#a)" opacity=".25"/><circle cx="32.02" cy="32.044" r="30.001" fill="none"/><path d="M50.249 8.193q-3.86-2.972-8.444-4.556Q37.068 2 32.003 2C15.433 2 2 15.432 2 32.001c0 15.158 11.245 27.684 25.845 29.71a31.977 31.977 0 0 0 4.158.29C48.57 61.999 62 48.567 62 32c0-1.31-.082-2.604-.244-3.866a29.932 29.932 0 0 0-.884-4.305q-1.33-4.69-4.082-8.726-2.722-3.977-6.54-6.912z" fill="url(#c)"/><g transform="matrix(.46586 -.05557 .05726 .45209 -209.41 -153.63)"><path transform="matrix(2.1146 .25991 -.26782 2.179 401.68 389.19)" d="M14.35 18.002c-.747 0-1.35.583-1.35 1.309v25.2c0 .726.603 1.31 1.35 1.31h35.291c.747 0 1.35-.584 1.35-1.31v-25.2c0-.726-.603-1.309-1.35-1.309H14.35zM14.971 25h34.051c.537 0 .969.42.969.941v18.117a.953.953 0 0 1-.969.942h-34.05c-.538 0-.972-.42-.972-.942V25.941c0-.521.434-.941.971-.941z" filter="url(#d)" opacity=".8"/><path transform="matrix(2.1146 .25991 -.26782 2.179 401.68 389.19)" d="M14.35 18.002c-.747 0-1.35.583-1.35 1.309v25.2c0 .726.603 1.31 1.35 1.31h35.291c.747 0 1.35-.584 1.35-1.31v-25.2c0-.726-.603-1.309-1.35-1.309H14.35zM14.971 25h34.051c.537 0 .969.42.969.941v18.117a.953.953 0 0 1-.969.942h-34.05c-.538 0-.972-.42-.972-.942V25.941c0-.521.434-.941.971-.941z" fill="url(#e)"/><g fill="#333" transform="rotate(7.007)"><ellipse cx="498.35" cy="384.49" rx="3.196" ry="3.293"/><ellipse cx="489.83" cy="384.49" rx="3.196" ry="3.293"/><ellipse cx="481.31" cy="384.49" rx="3.196" ry="3.293"/></g><rect transform="rotate(7.007)" x="475.98" y="392.17" width="76.68" height="43.908" ry="2.066" fill="#fff" opacity=".15"/></g></svg>