<svg xmlns="http://www.w3.org/2000/svg" width="64" height="64" viewBox="0 0 16.933 16.933"><defs><filter id="a" width="1.072" height="1.072" x="-.036" y="-.036" color-interpolation-filters="sRGB"><feGaussianBlur stdDeviation=".238"/></filter><filter id="c" width="1.127" height="1.114" x="-.064" y="-.057" color-interpolation-filters="sRGB"><feGaussianBlur stdDeviation=".201"/></filter><filter id="e" width="1.12" height="1.12" x="-.06" y="-.06" color-interpolation-filters="sRGB"><feGaussianBlur stdDeviation=".038"/></filter><linearGradient id="b" x1="-280.6" x2="-296.74" y1="-8.466" y2="-8.466" gradientUnits="userSpaceOnUse"><stop offset="0" stop-color="#fe9916"/><stop offset="1" stop-color="#f0e524"/></linearGradient><linearGradient id="d" x1="8.467" x2="8.467" y1="284.3" y2="292.77" gradientUnits="userSpaceOnUse"><stop offset="0" stop-color="#f5ff8e"/><stop offset="1" stop-color="#f9f9f9"/></linearGradient></defs><g transform="translate(0 -280.07)"><rect width="15.875" height="15.875" x="-296.47" y="-16.404" filter="url(#a)" opacity=".25" rx="7.938" ry="7.938" transform="matrix(0 -1 -1 0 0 0)"/><rect width="15.875" height="15.875" x="-296.47" y="-16.404" fill="url(#b)" rx="7.938" ry="7.938" transform="matrix(0 -1 -1 0 0 0)"/><g fill="#f9f9f9" stroke-width=".875"><path fill="#000" d="M6.947 284.3a1.058 1.058 0 1 0 0 2.117 1.058 1.058 0 0 0 0-2.117zm-.837 2.419c-.17 0-.264.103-.33.26l-1.059 2.178c-.234.527.571.863.782.326.122-.32.25-.639.394-.95v3.81c0 .235.189.424.423.424h.002c.235 0 .488-.19.484-.424l-.002-1.995h.293l.002 1.995c0 .235.259.424.493.424a.422.422 0 0 0 .423-.424l-.001-3.81h-.016l.473.95c.094.24.38.34.605.212l.768.449c-.005.028-.016.053-.016.083v2.328c0 .117.177.212.294.212.117 0 .321-.096.302-.212v-.998h.303v.998c0 .117.185.212.302.212.117 0 .313-.095.313-.212v-2.117l.544.452c.2.208.507-.1.3-.299l-.906-.786a.212.212 0 0 0-.15-.062h-1.032l-.81-.415a.424.424 0 0 0-.036-.172l-1.059-2.176a.424.424 0 0 0-.39-.26z" filter="url(#c)" opacity=".25"/><path fill="url(#d)" d="M6.947 284.3a1.058 1.058 0 1 0 0 2.117 1.058 1.058 0 0 0 0-2.117zm-.837 2.419c-.17 0-.264.103-.33.26l-1.059 2.178c-.234.527.571.863.782.326.122-.32.25-.639.394-.95v3.81c0 .235.189.424.423.424h.002c.235 0 .488-.19.484-.424l-.002-1.995h.293l.002 1.995c0 .235.259.424.493.424a.422.422 0 0 0 .423-.424l-.001-3.81h-.016l.473.95c.094.24.38.34.605.212l.768.449c-.005.028-.016.053-.016.083v2.328c0 .117.177.212.294.212.117 0 .321-.096.302-.212v-.998h.303v.998c0 .117.185.212.302.212.117 0 .313-.095.313-.212v-2.117l.544.452c.2.208.507-.1.3-.299l-.906-.786a.212.212 0 0 0-.15-.062h-1.032l-.81-.415a.424.424 0 0 0-.036-.172l-1.059-2.176a.424.424 0 0 0-.39-.26z"/><path fill="#000" d="M10.575 287.929a.758.758 0 0 0-.756.756.757.757 0 0 0 1.512 0 .758.758 0 0 0-.756-.756z" filter="url(#e)" opacity=".25"/><path d="M10.575 287.929a.758.758 0 0 0-.756.756.757.757 0 0 0 1.512 0 .758.758 0 0 0-.756-.756z"/></g></g></svg>