<svg width="64" height="64" xmlns="http://www.w3.org/2000/svg"><defs><linearGradient id="c" x1="399.57" x2="399.57" y1="545.8" y2="517.8" gradientTransform="translate(-826.36 -1107.5) scale(2.1429)" gradientUnits="userSpaceOnUse"><stop stop-color="#3889e9" offset="0"/><stop stop-color="#5ea5fb" offset="1"/></linearGradient><linearGradient id="b" x1="399.99" x2="399.99" y1="545.14" y2="518.14" gradientTransform="translate(-826.36 -1107.5) scale(2.1429)" gradientUnits="userSpaceOnUse"><stop stop-color="#197ff1" offset="0"/><stop stop-color="#21c6fb" offset="1"/></linearGradient><linearGradient id="e" x1="31.999" x2="32.098" y1="46.279" y2="17.899" gradientTransform="translate(-826.36 -1107.5) scale(2.1429)" gradientUnits="userSpaceOnUse"><stop stop-color="#d5e8fc" offset="0"/><stop stop-color="#fff" offset="1"/></linearGradient><filter id="a" x="-.036" y="-.036" width="1.072" height="1.072" color-interpolation-filters="sRGB"><feGaussianBlur stdDeviation=".42"/></filter><filter id="d" x="-.06" y="-.06" width="1.12" height="1.12" color-interpolation-filters="sRGB"><feGaussianBlur stdDeviation=".7"/></filter></defs><circle transform="translate(-826.36 -1107.5) scale(2.1429)" cx="400.57" cy="531.8" r="14" filter="url(#a)" opacity=".25"/><g stroke-width="1.571"><circle cx="32.02" cy="32.044" r="30.001" fill="url(#b)"/><circle cx="32.02" cy="32.044" r="30.001" fill="none"/></g><path d="M35.002 17.991c-6.055 0-11.056 4.956-11.056 11.011 0 2.3.777 4.413 2 6.192l-7.371 7.38a2.008 2.013 0 0 0 2.807 2.877l7.37-7.384a11.032 11.032 0 0 0 6.25 1.942A11.029 11.029 0 0 0 46 29.002a11.029 11.029 0 0 0-10.998-11.01zm0 4.003c3.893 0 7 3.111 7 7.008a6.97 6.97 0 0 1-7 7.005 6.969 6.969 0 0 1-6.995-7.004 6.967 6.967 0 0 1 6.995-7.009z" filter="url(#d)" opacity=".15"/><path d="M35.002 17.991c-6.055 0-11.056 4.956-11.056 11.011 0 2.3.777 4.413 2 6.192l-7.371 7.38a2.008 2.013 0 0 0 2.807 2.877l7.37-7.384a11.032 11.032 0 0 0 6.25 1.942A11.029 11.029 0 0 0 46 29.002a11.029 11.029 0 0 0-10.998-11.01zm0 4.003c3.893 0 7 3.111 7 7.008a6.97 6.97 0 0 1-7 7.005 6.969 6.969 0 0 1-6.995-7.004 6.967 6.967 0 0 1 6.995-7.009z" fill="url(#e)"/></svg>