<svg width="64" height="64" version="1.1" xmlns="http://www.w3.org/2000/svg" xmlns:xlink="http://www.w3.org/1999/xlink">
 <defs>
  <linearGradient id="linearGradient4246" x2="0" y1="545.8" y2="517.8" gradientTransform="matrix(2.1429 0 0 2.1429 -443.8 -621.77)" gradientUnits="userSpaceOnUse">
   <stop stop-color="#42a603" offset="0"/>
   <stop stop-color="#78da06" offset="1"/>
  </linearGradient>
  <linearGradient id="linearGradient4362" x2="0" y1="538.8" y2="524.8" gradientTransform="matrix(2 0 0 2 -386.57 -545.8)" gradientUnits="userSpaceOnUse">
   <stop stop-color="#bcfd93" offset="0"/>
   <stop stop-color="#fafff5" offset="1"/>
  </linearGradient>
  <linearGradient id="linearGradient4183" x1="9" x2="23" y1="9" y2="23" gradientTransform="matrix(2 0 0 2 382.57 485.8)" gradientUnits="userSpaceOnUse">
   <stop offset="0"/>
   <stop stop-color="#4f4857" stop-opacity="0" offset="1"/>
  </linearGradient>
  <filter id="filter864" x="-.036" y="-.036" width="1.072" height="1.072" color-interpolation-filters="sRGB">
   <feGaussianBlur stdDeviation="0.90000097"/>
  </filter>
  <filter id="filter900" x="-.059799" y="-.060202" width="1.1196" height="1.1204" color-interpolation-filters="sRGB">
   <feGaussianBlur stdDeviation="1.0464857"/>
  </filter>
 </defs>
 <g transform="translate(-384.57 -483.8)">
  <g transform="translate(2 -1.9999)">
   <ellipse cx="414.57" cy="517.8" rx="30" ry="30" filter="url(#filter864)" opacity=".15" stroke-width="2.1429"/>
   <ellipse cx="414.57" cy="517.8" rx="30" ry="30" fill="url(#linearGradient4246)" stroke-width="2.1429"/>
   <path d="m410.57 503.8v12l22.75 22.75a28 28 0 0 0 9.25-20.75l-14-14zm-2 12-8 12 17.719 17.719a28 28 0 0 0 13.969-6.0313z" fill="url(#linearGradient4183)" fill-rule="evenodd" filter="url(#filter900)" opacity=".2" stroke-width="2"/>
   <path d="m410.57 503.8v12h12v6l6-6v-12zm2 2h14v8h-14zm-5 10-1 0.80078-4 3.332v-0.13279h-2v8h2v-0.1328l4 3.332 1 0.80078h1v-16z" fill="url(#linearGradient4362)" stroke-opacity=".55027" stroke-width="5.6"/>
  </g>
 </g>
</svg>
