<svg xmlns="http://www.w3.org/2000/svg" width="64" height="64"><defs><filter id="a" width="1.078" height="1.078" x="-.039" y="-.039" color-interpolation-filters="sRGB"><feGaussianBlur stdDeviation=".972"/></filter></defs><linearGradient id="c" x1="16" x2="16" y1="23" y2="9" gradientTransform="translate(-2.286 -2.286)scale(2.1429)" gradientUnits="userSpaceOnUse"><stop offset="0" stop-color="#ffd42a"/><stop offset="1" stop-color="#ffdf62"/></linearGradient><linearGradient id="b" x1="2" x2="2" y1="30" y2="2" gradientTransform="translate(-2.286 -2.286)scale(2.1429)" gradientUnits="userSpaceOnUse"><stop offset="0" stop-color="#a5a5a5"/><stop offset="1" stop-color="#f5f2f5"/></linearGradient><circle cx="32" cy="32" r="30" filter="url(#a)" opacity=".25" style="paint-order:normal"/><rect width="60" height="60" x="2" y="2" fill="#4f575f" rx="30"/><path fill="url(#b)" d="M32 2A30 30 0 0 0 4.016 21.286h.126l6.429-2.143 4.286 4.286v-4.286L19.142 17v-2.143l4.286-2.143 4.286-4.285v2.143l2.143-2.143-2.143-2.143H32v2.143l4.285-2.143-2.143-2.143V2.107A30 30 0 0 0 32 2m22.232 9.91-.804.804v2.143h3.148a30 30 0 0 0-2.344-2.946zm2.82 3.61-7.91 7.909L47 29.857V32l4.286 4.286 4.285 2.143 5.98-1.475A30 30 0 0 0 62 32a30 30 0 0 0-4.948-16.48M6.286 25.57l-2.143 2.143H2.347q-.16 1.094-.242 2.192v.005L6.286 32l2.143 2.143 4.286 2.143 2.142 2.143-2.142 2.142v4.286l2.142 4.286 4.286 4.286v5.633A30 30 0 0 0 32 62q.546-.01 1.093-.038l1.05-2.105v-2.143l4.286-2.143 2.143-2.142v-4.286L42.715 47v-2.143l-2.143-2.143-6.429-2.143-4.286-4.285h-2.143l-2.142-2.143L19.143 32l-4.286 2.143h-4.285v-4.286H8.429V25.57z"/><path fill="#4f575f" d="M32 19.582c2.974 2.52 7.27 4.202 12.836 5.05-.3 2.71-.594 4.75-1.292 6.72-1.474 4.143-3.189 6.66-4.725 8.476-2.39 2.807-4.556 3.943-6.819 5.074-2.263-1.131-4.429-2.267-6.814-5.074-1.54-1.815-3.257-4.333-4.73-8.475-.698-1.972-.99-4.012-1.291-6.72 5.565-.849 9.861-2.529 12.836-5.051z"/><path fill="url(#c)" d="M32 21.83c-3.27 2.271-6.943 3.42-10.629 4.2C23.117 35.934 26.878 40.171 32 42.824c5.121-2.653 8.882-6.89 10.629-16.794-3.686-.78-7.359-1.929-10.629-4.2M32 17s-3.75 4.98-15 6.23c0 0 0 17.506 15 23.77 15-6.265 15-23.77 15-23.77C35.75 21.98 32 17 32 17m0 2.582c2.974 2.522 7.27 4.202 12.836 5.05-.3 2.71-.594 4.747-1.292 6.719-1.474 4.142-3.189 6.664-4.725 8.475-2.39 2.809-4.556 3.943-6.819 5.074-2.263-1.13-4.429-2.265-6.818-5.074-1.537-1.811-3.251-4.333-4.725-8.475-.699-1.972-.992-4.007-1.295-6.718 5.567-.849 9.864-2.529 12.838-5.05z"/></svg>