<svg width="64" height="64" xmlns="http://www.w3.org/2000/svg"><defs><filter id="a" x="-.036" y="-.036" width="1.072" height="1.072" color-interpolation-filters="sRGB"><feGaussianBlur stdDeviation=".89"/></filter><filter id="c" x="-.06" y="-.06" width="1.12" height="1.12" color-interpolation-filters="sRGB"><feGaussianBlur stdDeviation=".65"/></filter><linearGradient id="b" x1="408.25" x2="407.94" y1="547.6" y2="498.89" gradientTransform="translate(-510.64 -663.52) scale(1.3276)" gradientUnits="userSpaceOnUse"><stop stop-color="#fff" offset="0"/><stop stop-color="#e6e6e6" offset="1"/></linearGradient></defs><linearGradient id="e" x1="11" x2="11" y1="19" y2="11" gradientTransform="translate(0 32)" gradientUnits="userSpaceOnUse"><stop stop-color="#8e44ad" offset="0"/><stop stop-color="#b08bc4" offset="1"/></linearGradient><linearGradient id="d" x1="16" x2="16" y1="10" y2="2" gradientTransform="translate(0 32)" gradientUnits="userSpaceOnUse"><stop stop-color="#da4453" offset="0"/><stop stop-color="#e4848f" offset="1"/></linearGradient><linearGradient id="f" x1="7" x2="7" y1="28" y2="20" gradientTransform="translate(0 32)" gradientUnits="userSpaceOnUse"><stop stop-color="#208c4e" offset="0"/><stop stop-color="#6dbd7f" offset="1"/></linearGradient><rect transform="translate(-389.32 -489.92) scale(1.0115)" x="386.85" y="486.31" width="59.315" height="59.315" ry="29.657" filter="url(#a)" opacity=".25"/><rect x="1.983" y="1.978" width="59.997" height="59.997" ry="29.998" fill="url(#b)"/><g transform="translate(12.308 -27.846) scale(1.2308)" filter="url(#c)" opacity=".15"><path d="m15.688 39.61-5 4-.188.39v5.76l-4.813 3.85.625.78L11 50.64l4.688 3.75.624-.78-4.812-3.85v-5.52l4.5-3.6 4.5 3.6V50l.188.39 5 4 .625-.78-4.813-3.85V44l-.188-.39-5-4z"/><rect x="12" y="34" width="8" height="8" rx="1"/><path d="M18 43h6c.554 0 1 .446 1 1v6c0 .554-.446 1-1 1h-6c-.554 0-1-.446-1-1v-6c0-.554.446-1 1-1zM8 43h6c.554 0 1 .446 1 1v6c0 .554-.446 1-1 1H8c-.554 0-1-.446-1-1v-6c0-.554.446-1 1-1zM4 52h6c.554 0 1 .446 1 1v6c0 .554-.446 1-1 1H4c-.554 0-1-.446-1-1v-6c0-.554.446-1 1-1zm9 0h6c.554 0 1 .446 1 1v6c0 .554-.446 1-1 1h-6c-.554 0-1-.446-1-1v-6c0-.554.446-1 1-1zm9 0h6c.554 0 1 .446 1 1v6c0 .554-.446 1-1 1h-6c-.554 0-1-.446-1-1v-6c0-.554.446-1 1-1z"/><path d="M12 40v1c0 .554.446 1 1 1h6c.554 0 1-.446 1-1v-1c0 .554-.446 1-1 1h-6c-.554 0-1-.446-1-1zm5 9v1c0 .554.446 1 1 1h6c.554 0 1-.446 1-1v-1c0 .554-.446 1-1 1h-6c-.554 0-1-.446-1-1zM7 49v1c0 .554.446 1 1 1h6c.554 0 1-.446 1-1v-1c0 .554-.446 1-1 1H8c-.554 0-1-.446-1-1zm-4 9v1c0 .554.446 1 1 1h6c.554 0 1-.446 1-1v-1c0 .554-.446 1-1 1H4c-.554 0-1-.446-1-1zm9 0v1c0 .554.446 1 1 1h6c.554 0 1-.446 1-1v-1c0 .554-.446 1-1 1h-6c-.554 0-1-.446-1-1zm9 0v1c0 .554.446 1 1 1h6c.554 0 1-.446 1-1v-1c0 .554-.446 1-1 1h-6c-.554 0-1-.446-1-1z" opacity=".2"/></g><g transform="translate(12.308 -27.846) scale(1.2308)"><path d="m15.688 39.61-5 4-.188.39v5.76l-4.813 3.85.625.78L11 50.64l4.688 3.75.624-.78-4.812-3.85v-5.52l4.5-3.6 4.5 3.6V50l.188.39 5 4 .625-.78-4.813-3.85V44l-.188-.39-5-4z" fill="#7f8c8d"/><rect x="12" y="34" width="8" height="8" rx="1" fill="url(#d)"/><path d="M18 43h6c.554 0 1 .446 1 1v6c0 .554-.446 1-1 1h-6c-.554 0-1-.446-1-1v-6c0-.554.446-1 1-1zM8 43h6c.554 0 1 .446 1 1v6c0 .554-.446 1-1 1H8c-.554 0-1-.446-1-1v-6c0-.554.446-1 1-1z" fill="url(#e)"/><path d="M4 52h6c.554 0 1 .446 1 1v6c0 .554-.446 1-1 1H4c-.554 0-1-.446-1-1v-6c0-.554.446-1 1-1zm9 0h6c.554 0 1 .446 1 1v6c0 .554-.446 1-1 1h-6c-.554 0-1-.446-1-1v-6c0-.554.446-1 1-1zm9 0h6c.554 0 1 .446 1 1v6c0 .554-.446 1-1 1h-6c-.554 0-1-.446-1-1v-6c0-.554.446-1 1-1z" fill="url(#f)"/><path d="M12 40v1c0 .554.446 1 1 1h6c.554 0 1-.446 1-1v-1c0 .554-.446 1-1 1h-6c-.554 0-1-.446-1-1zm5 9v1c0 .554.446 1 1 1h6c.554 0 1-.446 1-1v-1c0 .554-.446 1-1 1h-6c-.554 0-1-.446-1-1zM7 49v1c0 .554.446 1 1 1h6c.554 0 1-.446 1-1v-1c0 .554-.446 1-1 1H8c-.554 0-1-.446-1-1zm-4 9v1c0 .554.446 1 1 1h6c.554 0 1-.446 1-1v-1c0 .554-.446 1-1 1H4c-.554 0-1-.446-1-1zm9 0v1c0 .554.446 1 1 1h6c.554 0 1-.446 1-1v-1c0 .554-.446 1-1 1h-6c-.554 0-1-.446-1-1zm9 0v1c0 .554.446 1 1 1h6c.554 0 1-.446 1-1v-1c0 .554-.446 1-1 1h-6c-.554 0-1-.446-1-1z" fill="#292c2f" opacity=".2"/></g></svg>