<svg width="64" height="64" version="1.1" xmlns="http://www.w3.org/2000/svg" xmlns:xlink="http://www.w3.org/1999/xlink">
 <defs>
  <linearGradient id="linearGradient4416" x1="20" x2="8" y1="19" y2="10" gradientTransform="matrix(2.1538 0 0 2.1538 -.30779 -5.1538)" gradientUnits="userSpaceOnUse">
   <stop stop-color="#197cf1" offset="0"/>
   <stop stop-color="#21c9fb" offset="1"/>
  </linearGradient>
  <filter id="c-3" x="-.036" y="-.036" width="1.072" height="1.072" color-interpolation-filters="sRGB">
   <feGaussianBlur stdDeviation="0.41999874"/>
  </filter>
  <linearGradient id="b-6" x1="399.57" x2="399.57" y1="545.8" y2="517.8" gradientTransform="matrix(2.1429,0,0,2.1429,-826.36,-1107.5)" gradientUnits="userSpaceOnUse">
   <stop stop-color="#3889e9" offset="0"/>
   <stop stop-color="#5ea5fb" offset="1"/>
  </linearGradient>
  <linearGradient id="e-3" x1="519.2" x2="519.2" y1="1024.8" y2="4.8" gradientTransform="matrix(.063586 0 0 .063583 -.55617 -.55275)" gradientUnits="userSpaceOnUse">
   <stop stop-color="#606060" offset="0"/>
   <stop stop-color="#414141" offset=".019551"/>
   <stop stop-color="#1e1e1e" offset="1"/>
  </linearGradient>
 </defs>
 <circle transform="matrix(2.1429,0,0,2.1429,-826.36,-1107.5)" cx="400.57" cy="531.8" r="14" filter="url(#c-3)" opacity=".25" stroke-width=".73333"/>
 <circle cx="32.02" cy="32.044" r="30.001" fill-opacity="0" stroke-width="1.5715"/>
 <circle cx="32.02" cy="32.044" r="0" fill="url(#b-6)" stroke-width="1.5715"/>
 <path d="m50.249 8.1932q-3.8597-2.9725-8.444-4.5557-4.7372-1.6373-9.8021-1.6373c-16.57 0-30.003 13.432-30.003 30.001 0 15.158 11.245 27.684 25.845 29.709 0.71216 0.09855 1.4339 0.17485 2.1587 0.21936 0.66128 0.04133 1.3258 0.06994 1.9998 0.06994 16.567 0 29.997-13.432 29.997-29.999 0-1.3098-0.08266-2.6037-0.24481-3.8658-0.18758-1.4751-0.49279-2.909-0.88387-4.3046q-1.3289-4.6892-4.0822-8.7265-2.7215-3.9771-6.5401-6.9112z" fill="url(#e-3)" stroke-width=".99724"/>
 <path d="m27.692 16.385a4.3077 4.3077 0 0 0-4.3077 4.3077 4.3077 4.3077 0 0 0 3.2308 4.1689v-2.3095a2.1538 2.1538 0 0 1-1.0769-1.8594 2.1538 2.1538 0 0 1 2.1538-2.1538 2.1538 2.1538 0 0 1 2.1539 2.1538 2.1538 2.1538 0 0 1-0.02154 0.29027l1.8173 1.4135a4.3077 4.3077 0 0 0 0.35758-1.7037 4.3077 4.3077 0 0 0-4.3077-4.3077zm0 4.3077 0.013 21 6.4489-8.6154h9.6923l-16.154-12.385z" fill="url(#linearGradient4416)" stroke-linejoin="round" stroke-width="2.1538"/>
 <path d="m47.816 11.368q-3.345-2.5761-7.318-3.9482-4.1055-1.419-8.495-1.419c-14.36 0-26.002 11.641-26.002 26 0 13.137 9.7455 23.992 22.399 25.747 0.6172 0.08541 1.2427 0.15153 1.8708 0.19011 0.5731 0.03581 1.149 0.06061 1.7331 0.06061 14.358 5e-6 25.997-11.641 25.997-25.999 0-1.1351-0.07164-2.2565-0.21216-3.3503-0.16257-1.2784-0.42708-2.5211-0.76601-3.7306q-1.1517-4.0639-3.5379-7.5629-2.3586-3.4468-5.668-5.9896z" fill="#fff" opacity=".15" stroke-width=".86426"/>
 <path d="m8.9375 44c2.136 4.0948 5.3285 7.5477 9.2188 10h10.434c0.78086 0 1.4102-0.6293 1.4102-1.4102v-7.1797c0-0.78086-0.6293-1.4102-1.4102-1.4102h-19.652zm26.473 0c-0.78086 0-1.4102 0.6293-1.4102 1.4102v7.1797c0 0.78086 0.6293 1.4102 1.4102 1.4102h10.439c3.8887-2.4529 7.0799-5.9052 9.2148-10h-19.654z" opacity=".25"/>
</svg>
