<svg xmlns="http://www.w3.org/2000/svg" width="64" height="64"><defs><linearGradient id="b" x1="520" x2="520.03" y1="44" y2="985.85" gradientTransform="translate(-.542 -.542) scale(.06356)" gradientUnits="userSpaceOnUse"><stop offset="0" stop-color="#353535"/><stop offset="1" stop-color="#6d6d6d"/></linearGradient><linearGradient id="d" x1="10.094" x2="122.72" y1="107.36" y2="107.36" gradientTransform="matrix(.24842 0 0 .24428 433.38 517.17)" gradientUnits="userSpaceOnUse"><stop offset="0" stop-color="#1a1a1a"/><stop offset=".111" stop-color="#2c2c2e"/><stop offset=".29" stop-color="#2b2b2d"/><stop offset=".512" stop-color="#2a2b2d"/><stop offset=".752" stop-color="#2b2b2d"/><stop offset=".897" stop-color="#323232"/><stop offset="1" stop-color="#171717"/></linearGradient><linearGradient id="e" x1="449.43" x2="449.55" y1="540.75" y2="518.41" gradientUnits="userSpaceOnUse"><stop offset="0" stop-color="#bec1c7"/><stop offset="1" stop-color="#dddfe2"/></linearGradient><linearGradient id="f" x1="467.17" x2="467.17" y1="546.85" y2="544.72" gradientTransform="translate(0 .106)" gradientUnits="userSpaceOnUse"><stop offset="0" stop-color="#040404"/><stop offset="1" stop-color="#121212" stop-opacity=".908"/></linearGradient><linearGradient id="g" x1="12" x2="12" y1="48" y2="10" gradientTransform="matrix(.55555 0 0 .54843 14.24 13.611)" gradientUnits="userSpaceOnUse"><stop offset="0" stop-color="#eef1f2"/><stop offset="1" stop-color="#f9fafb"/></linearGradient><filter id="a" width="1.072" height="1.072" x="-.036" y="-.036" color-interpolation-filters="sRGB"><feGaussianBlur stdDeviation="14.16"/></filter><filter id="c" width="1.119" height="1.121" x="-.06" y="-.06" color-interpolation-filters="sRGB"><feGaussianBlur stdDeviation=".795"/></filter></defs><linearGradient id="h" x1="-11.306" x2="-11.306" y1="23.62" y2="7.62" gradientTransform="translate(16 15)" gradientUnits="userSpaceOnUse"><stop offset="0" stop-color="#3e3e3e"/><stop offset="1" stop-color="#5c5c5c"/></linearGradient><path d="M969.7 392c-1.1-4.35-2.35-9-3.65-13.6-2.5-8.75-5.35-17.6-8.45-26.35-6.45-18.25-14.15-36.05-23.15-53.65-3.8-7.4-7.95-14.95-12.3-22.4h-.025q-30.601-52.01-76.325-97.75C753.65 86.1 642.35 40 512 40S270.4 86.1 178.25 178.25 40 381.65 40 512s46.1 241.65 138.25 333.8c68.05 68.05 146.5 110.95 234.9 128.65C445.1 980.85 477.9 984 512 984c130.35 0 241.65-46.05 333.8-138.2 48.6-48.6 84.4-102.5 107.35-161.8 17-43.95 27-90.8 29.95-140.75.6-10.2.9-20.65.9-31.25 0-41.75-4.7-81.6-14.3-120z" filter="url(#a)" opacity=".25" transform="translate(-.542 -.542) scale(.06356)"/><path fill="url(#b)" d="M61.091 24.373a28.41 28.41 0 0 0-2.24-5.95A31 31 0 0 0 58.069 17h-.002q-1.945-3.306-4.851-6.213C47.359 4.93 40.285 2 32 2s-15.356 2.93-21.213 8.787C4.93 16.644 2 23.715 2 32s2.93 15.36 8.787 21.216c4.325 4.325 9.311 7.052 14.93 8.177C27.747 61.8 29.832 62 32 62c8.285 0 15.359-2.927 21.216-8.784 3.089-3.089 5.364-6.515 6.823-10.284 1.08-2.793 1.716-5.771 1.904-8.946.038-.648.057-1.312.057-1.986 0-2.654-.299-5.187-.91-7.627z"/><g fill="#a1a7ae" stroke="#909296" stroke-width="2.525"><g stroke="none" transform="matrix(.02764 -.0222 .02754 .02227 18.561 28.089)"><path fill="#000" d="M18.559 16.219a.843.843 0 0 0-.852.838L16.002 42.33c0 .048.02.089.028.135H16l.284 4.478c0 .464.38.838.853.838H46.86a.843.843 0 0 0 .852-.838l.285-4.478h-.024c.008-.046.028-.087.028-.135l-1.989-25.273a.844.844 0 0 0-.853-.838h-26.6z" filter="url(#c)" opacity=".75" transform="matrix(21.396 21.323 -26.464 26.556 318.3 -1200.9)"/><path fill="url(#d)" d="m435.89 541.07.248 3.915c0 .406.333.733.746.733h25.99a.738.738 0 0 0 .745-.733l.248-3.915z" transform="matrix(24.469 24.385 -30.265 30.37 5246.5 -26793)"/><path fill="url(#e)" d="M438.13 518.12h23.26c.413 0 .745.327.745.733l1.74 22.1a.738.738 0 0 1-.746.733H436.64a.738.738 0 0 1-.745-.733l1.49-22.1c0-.406.333-.733.745-.733z" transform="matrix(24.469 24.385 -30.265 30.37 5246.5 -26793)"/><rect width="11.463" height=".769" x="450.87" y="545.61" fill="#f6b44d" ry=".384" transform="matrix(24.469 24.385 -30.265 30.37 5147 -27021)"/><circle cx="467.09" cy="546.02" r="1.061" fill="url(#f)" opacity=".452" transform="matrix(24.469 24.385 -30.265 30.37 5147 -27021)"/></g><path fill="#e3e8ea" stroke-width=".028860749999999998" d="M46.187 48.203c.032 0 .06-.012.084-.036a.115.115 0 0 0 .035-.083v-.596a.114.114 0 0 0-.035-.084c-.024-.024-.052-.036-.084-.036s-.06.012-.084.036a.115.115 0 0 0-.035.084v.596c0 .032.012.06.035.083a.115.115 0 0 0 .084.036z" opacity=".668"/><path fill="#e3e8ea" stroke-width=".028860749999999998" d="M46.827 47.883a.702.702 0 0 0-.21-.251c-.027-.02-.056-.028-.09-.023s-.058.02-.077.046a.113.113 0 0 0-.023.088c.004.033.02.06.046.079a.475.475 0 0 1-.47.82.48.48 0 0 1-.293-.44.468.468 0 0 1 .191-.38.116.116 0 0 0 .046-.079.113.113 0 0 0-.023-.088c-.019-.026-.045-.042-.077-.046s-.063.003-.09.023a.701.701 0 0 0-.285.57.722.722 0 0 0 .438.658.696.696 0 0 0 .555.001.721.721 0 0 0 .38-.38.705.705 0 0 0-.018-.597z" opacity=".668"/></g><path fill="url(#g)" d="M27.017 19c-2.761 0-5 2.21-5 4.936v5c.706.623 1.11 1.565 1.111 2.5 0 .934-.405 1.877-1.111 2.5v3l3 3h14l3-3v-3c-.706-.623-1.11-1.566-1.111-2.5 0-.935.405-1.877 1.111-2.5v-5c0-2.726-2.239-4.936-5-4.936z" opacity=".75"/><path fill="url(#h)" d="M32 21c-4.432 0-8 3.568-8 8s3.568 8 8 8 8-3.568 8-8-3.568-8-8-8m0 1c3.878 0 7 3.122 7 7s-3.122 7-7 7-7-3.122-7-7 3.122-7 7-7m-1 1v7h6v-1h-5v-6z"/></svg>