<svg xmlns="http://www.w3.org/2000/svg" width="64" height="64"><defs><filter id="a" width="1.072" height="1.072" x="-.036" y="-.036" color-interpolation-filters="sRGB"><feGaussianBlur stdDeviation=".45"/></filter><filter id="c" width="1.192" height="1.087" x="-.096" y="-.044" color-interpolation-filters="sRGB"><feGaussianBlur stdDeviation=".5"/></filter><linearGradient id="b" x1="15" x2="15" y1="30.95" y2="-18.871" gradientTransform="translate(-.129 29.72) scale(1.0753)" gradientUnits="userSpaceOnUse"><stop offset="0" stop-color="#0c4f97"/><stop offset="1" stop-color="#1ad3e5"/></linearGradient></defs><g transform="matrix(2 0 0 2 0 -64)"><circle cx="16" cy="48" r="15" filter="url(#a)" opacity=".15"/><circle cx="16" cy="48" r="15" fill="url(#b)"/><g fill-rule="evenodd"><path d="M402.89 517.61h3.75l-6.504 10.736h5.445l-7.044 11.194 2.27.948-6.667 4.622 1.473-7.95 1.607 1.57 4.256-7.775h-5.528z" filter="url(#c)" opacity=".15" transform="matrix(.8 0 0 .8 -304.31 -377.09)"/><path fill="#fffff9" d="M18.002 36.998h3l-5.203 8.589h4.356l-5.635 8.955 1.815.759-5.333 3.697 1.178-6.36 1.286 1.256 3.405-6.22h-4.423z"/></g></g></svg>