<svg width="64" height="64" xmlns="http://www.w3.org/2000/svg" xmlns:xlink="http://www.w3.org/1999/xlink"><defs><linearGradient id="c" x1="408.25" x2="407.94" y1="547.6" y2="498.89" gradientTransform="translate(-510.64 -663.52) scale(1.3276)" gradientUnits="userSpaceOnUse"><stop stop-color="#fff" offset="0"/><stop stop-color="#e6e6e6" offset="1"/></linearGradient><filter id="b" x="-.036" y="-.036" width="1.072" height="1.072" color-interpolation-filters="sRGB"><feGaussianBlur stdDeviation=".89"/></filter></defs><linearGradient id="a"><stop stop-color="#232629" offset="0"/><stop stop-color="#232629" stop-opacity="0" offset="1"/></linearGradient><linearGradient id="i" x1="16" x2="16" y1="17" y2="9" gradientUnits="userSpaceOnUse"><stop stop-color="#bdc3c7" offset="0"/><stop stop-color="#eff0f1" offset="1"/></linearGradient><linearGradient id="h" x1="16" x2="16" y1="7" y2="9" gradientUnits="userSpaceOnUse"><stop stop-color="#afb0b3" offset="0"/><stop stop-color="#bdc3c7" offset="1"/></linearGradient><linearGradient id="f" x1="10" x2="24" y1="18" y2="25" gradientUnits="userSpaceOnUse" xlink:href="#a"/><radialGradient id="e" cx="6" cy="8" r="10.5" gradientTransform="matrix(0 2 -2 0 22 6)" gradientUnits="userSpaceOnUse" xlink:href="#a"/><linearGradient id="d" x1="16" x2="16" y1="25" y2="19" gradientUnits="userSpaceOnUse"><stop stop-color="#6c5548" offset="0"/><stop stop-color="#997657" offset="1"/></linearGradient><linearGradient id="g" x1="16" x2="16" y1="18" y2="17" gradientUnits="userSpaceOnUse"><stop stop-color="#b0b8b8" offset="0"/><stop stop-color="#cfd5d5" offset="1"/></linearGradient><linearGradient id="j" x1="16" x2="16" y1="8" y2="5" gradientUnits="userSpaceOnUse"><stop stop-color="#909c9c" offset="0"/><stop stop-color="#cfd5d5" offset=".333"/><stop stop-color="#eff1f1" offset="1"/></linearGradient><rect transform="translate(-389.32 -489.92) scale(1.0115)" x="386.85" y="486.31" width="59.315" height="59.315" ry="29.657" filter="url(#b)" opacity=".25"/><rect x="1.983" y="1.978" width="59.997" height="59.997" ry="29.998" fill="url(#c)"/><path d="M6 19a.972.972 0 0 0-.621.217 1 1 0 0 0-.36.584A1.006 1.006 0 0 0 5 20a1.993 1.993 0 0 1-1.275 1.862 2.001 2.001 0 0 1-.385.108A2.001 2.001 0 0 1 3 22a.507.507 0 0 0-.17.028.609.609 0 0 0-.193.108.916.916 0 0 0-.178.18 1.715 1.715 0 0 0-.225.395 2.48 2.48 0 0 0-.111.33 3.133 3.133 0 0 0-.117.759A4.06 4.06 0 0 0 2 24v1h28v-1a4 4 0 0 0-.123-.959 2.872 2.872 0 0 0-.111-.33 2.097 2.097 0 0 0-.145-.277 1.137 1.137 0 0 0-.258-.297A.609.609 0 0 0 29 22a2 2 0 0 1-.34-.03 2.001 2.001 0 0 1-.566-.187A2 2 0 0 1 27 20a1.005 1.005 0 0 0-.045-.295.997.997 0 0 0-.19-.35 1 1 0 0 0-.312-.246A.997.997 0 0 0 26 19H16z" fill="url(#d)" transform="translate(8.727 8.727) scale(1.4545)"/><path d="m40.726 36.363-1.454-1.455h-1.455l1.455 1.455zm-17.454 0 1.455-1.455h1.454l-1.454 1.455z" fill="#4d4d4d"/><path d="M6 18h20l1 1H7z" fill="url(#e)" opacity=".2" transform="translate(8.727 8.727) scale(1.4545)"/><path d="m6 18 9 9h15v-3a4 4 0 0 0-.123-.959 2.098 2.098 0 0 0-.256-.607 1.137 1.137 0 0 0-.258-.297A.609.609 0 0 0 29 22a2.003 2.003 0 0 1-2-2 1.005 1.005 0 0 0-.547-.89A.997.997 0 0 0 26 19v-1z" fill="url(#f)" opacity=".2" transform="translate(8.727 8.727) scale(1.4545)"/><path d="M25.787 17H6.203c-.135.658-.203.328-.203 1h20c-.004-.672-.075-.342-.213-1z" fill="url(#g)" opacity=".998" transform="translate(8.727 8.727) scale(1.4545)"/><path d="M15 7v3h2V7z" fill="url(#h)" transform="translate(8.727 8.727) scale(1.4545)"/><path d="M16 9a10 10 0 0 0-9.797 8h19.584A10 10 0 0 0 16 9z" fill="url(#i)" opacity=".998" transform="translate(8.727 8.727) scale(1.4545)"/><path d="M16 5a2 2 0 0 0-2 2 2 1 0 0 0 1 .865 2 1 0 0 0 2 0A2 1 0 0 0 18 7a2 2 0 0 0-2-2z" fill="url(#j)" transform="translate(8.727 8.727) scale(1.4545)"/><path d="M11.636 45.09h40.726v2.909H11.636z" fill="#433a35"/></svg>