<svg xmlns="http://www.w3.org/2000/svg" width="64" height="64"><defs><linearGradient id="b" x1="2" x2="2" y1="30" y2="2" gradientTransform="translate(-2.286 -2.286) scale(2.1429)" gradientUnits="userSpaceOnUse"><stop offset="0" stop-color="#a5a5a5"/><stop offset="1" stop-color="#f5f2f5"/></linearGradient><filter id="a" width="1.078" height="1.078" x="-.039" y="-.039" color-interpolation-filters="sRGB"><feGaussianBlur stdDeviation=".972"/></filter></defs><linearGradient id="c" x1="16" x2="16" y1="23" y2="9" gradientTransform="translate(-4.571 -4.571) scale(2.2857)" gradientUnits="userSpaceOnUse"><stop offset="0" stop-color="#ffd42a"/><stop offset="1" stop-color="#ffdf62"/></linearGradient><circle cx="32" cy="32" r="30" filter="url(#a)" opacity=".25" style="paint-order:normal"/><rect width="60" height="60" x="2" y="2" fill="#4f575f" rx="30"/><path fill="url(#b)" d="M32 2A30 30 0 0 0 4.016 21.286h.126l6.429-2.143 4.286 4.286v-4.286L19.142 17v-2.143l4.286-2.143 4.286-4.285v2.143l2.143-2.143-2.143-2.143H32v2.143l4.285-2.143-2.143-2.143V2.107A30 30 0 0 0 32 2zm22.232 9.91-.804.804v2.143h3.148a30 30 0 0 0-2.344-2.946zm2.82 3.61-7.91 7.909L47 29.857V32l4.286 4.286 4.285 2.143 5.98-1.475A30 30 0 0 0 62 32a30 30 0 0 0-4.948-16.48zM6.286 25.57l-2.143 2.143H2.347c-.107.729-.188 1.46-.242 2.192v.005L6.286 32l2.143 2.143 4.286 2.143 2.142 2.143-2.142 2.142v4.286l2.142 4.286 4.286 4.286v5.633A30 30 0 0 0 32 62c.364-.006.729-.02 1.093-.038l1.05-2.105v-2.143l4.286-2.143 2.143-2.142v-4.286L42.715 47v-2.143l-2.143-2.143-6.429-2.143-4.286-4.285h-2.143l-2.142-2.143L19.143 32l-4.286 2.143h-4.285v-4.286H8.429V25.57z"/><path fill="url(#c)" d="M29.817 16c-4.062 0-5.765 1.614-5.765 5.737v3.294c0 2.546-.077 5.495-2.32 5.495h-1.16v2.948h1.16c2.243 0 2.32 2.949 2.32 5.495v3.294c0 4.123 1.703 5.737 5.765 5.737v-2.706c-2.709 0-2.745-1.093-2.745-5.052V37.92c0-1.9-.469-4.727-2.75-5.897 2.281-1.173 2.75-4.002 2.75-5.902v-2.363c0-3.96.036-5.052 2.743-5.052zm4.33 0v2.706c2.708 0 2.78 1.093 2.78 5.052v2.363c0 1.897.47 4.731 2.75 5.902-2.28 1.17-2.75 3.997-2.75 5.897v2.322c0 3.96-.072 5.052-2.78 5.052V48c4.06 0 5.8-1.614 5.8-5.737V38.97c0-2.546.156-5.495 2.361-5.495h1.12v-2.948h-1.12c-2.205 0-2.36-2.949-2.36-5.495v-3.296c0-4.123-1.738-5.737-5.802-5.737z"/></svg>