<svg xmlns="http://www.w3.org/2000/svg" width="64" height="64"><defs><linearGradient id="b" x1="400.56" x2="400.56" y1="546.93" y2="516.48" gradientTransform="matrix(1.0619 0 0 1.0611 -24.729 -32.522)" gradientUnits="userSpaceOnUse"><stop offset="0" stop-color="#187ced"/><stop offset="1" stop-color="#42d6fc"/></linearGradient><linearGradient id="c" x1="16.038" x2="16.038" y1="29.505" y2="2.32" gradientTransform="matrix(1.1024 0 0 1.0988 382.95 514.19)" gradientUnits="userSpaceOnUse"><stop offset="0" stop-color="#0164c2"/><stop offset="1" stop-color="#00a9f3"/></linearGradient><linearGradient id="d" x1="417" x2="417" y1="51.538" y2="573.98" gradientTransform="translate(-26.366 -2.41)scale(.13997)" gradientUnits="userSpaceOnUse"><stop offset="0" stop-color="#f3f3f3"/><stop offset="1" stop-color="#b7b7b7"/></linearGradient><filter id="a" width="1.072" height="1.072" x="-.036" y="-.036" color-interpolation-filters="sRGB"><feGaussianBlur stdDeviation="15.3"/></filter><filter id="e" width="1.358" height="1.04" x="-.179" y="-.02" color-interpolation-filters="sRGB"><feGaussianBlur stdDeviation=".15"/></filter><filter id="f" width="1.072" height="1.072" x="-.036" y="-.036" color-interpolation-filters="sRGB"><feGaussianBlur stdDeviation=".244"/></filter></defs><path d="M984.88 316.75q-9.292-22.529-20.962-44.139a452 452 0 0 0-13.938-24.203c-21.124-34.252-46.894-66.614-77.311-97.029-99.568-99.568-219.83-149.38-360.67-149.38-140.85 0-261.05 49.811-360.61 149.38-99.569 99.572-149.38 219.78-149.38 360.61s49.811 261.11 149.38 360.67c99.568 99.568 219.78 149.32 360.61 149.32 140.84 0 261.11-49.758 360.67-149.32 54.836-54.89 94.598-116.04 119.23-183.42 20.043-54.943 30.092-113.99 30.092-177.25 0-48.515-5.889-94.598-17.72-138.25a657 657 0 0 0-4.214-14.695 498 498 0 0 0-15.18-42.302z" filter="url(#a)" opacity=".25" transform="translate(1.882 1.883)scale(.05883)"/><g stroke-width=".8" transform="matrix(2.0387 0 0 2.0403 -784.725 -1053.004)"><ellipse cx="400.6" cy="531.78" fill="url(#b)" rx="14.715" ry="14.704"/><path fill="url(#c)" d="M400.62 517.13c-1.854 0-3.618.352-5.249.971-.118.109-.273.192-.395.182-.017-.002-.033-.011-.05-.018-.804.335-1.567.745-2.29 1.211.094.152.122.322-.07.404a4 4 0 0 1-.585.052 14.6 14.6 0 0 0-4.76 5.83c.018-.003.032-.01.05-.011.16-.003.39.043.544.075.142.03.256.124.379.133.348.027.432-.243.716-.394.294.04.488-.05.754-.02.18.02.31.212.452.222.118.012.222-.11.337-.093.111.018.303.26.321.395.024.169-.124.321-.075.507.177.18.5.216.753.32.165-.136.022-.387 0-.584-.003-.086.012-.163 0-.243-.014-.135-.073-.259-.074-.375-.003-.534.433-.784.792-.995.156-.092.279-.254.414-.32.19-.096.333-.118.49-.207.286-.16.531-.288.754-.47.103-.242.01-.567.02-.806.102-.063.191.027.3.019.173-.036.187-.279.285-.375.056-.056.212-.095.283-.15.171-.135.227-.337.377-.395.054-.022.178-.015.263-.038.111-.03.27-.161.452-.224.118-.04.39-.049.435-.094.055-.056-.001-.215.019-.3.091-.424.732-.514 1.11-.657.266-.1.539-.284.83-.227-.057.201-.328.13-.282.374.063.34.52-.096.64-.147.23-.096.624-.155.926-.265.264-.096.738-.243.489-.545-.208-.011-.308.244-.49.32-.125.021-.1-.104-.208-.114-.1-.011-.158.094-.262.076-.104-.017-.25-.18-.266-.3-.04-.314.266-.444.396-.678-.086-.283-.48-.057-.717-.168.023-.17.198-.286.396-.318.162-.027.526-.013.623.072.056.048.004.166.094.245.096.087.215.077.34.057.043-.214-.28-.16-.245-.301.255-.166.669-.03.98-.076.18-.027.368-.153.527-.242.151-.086.348-.235.508-.094.043.153-.14.204-.225.28a6 6 0 0 0-.81.846c.138.133.388.066.62.094.091.012.206.038.302.056.112.02.232.014.32.037.158.038.2.208.357.208.258 0 .261-.279.115-.453.046-.177.119-.269.056-.393-.116-.232-.542-.012-.564-.3-.013-.188.157-.18.226-.32-.031-.361.297-.388.262-.712-.014-.136-.13-.137-.225-.265-.049-.062-.072-.182-.128-.236-.44-.038-.884-.062-1.335-.062zm-7.584 2.956h.002c.088.011.194.106.3.114.1.003.183-.055.245-.038.158.041.224.279.076.395-.123.015-.171-.054-.264-.037-.256.043-.354.543-.546.526-.18-.014-.278-.453-.094-.583.011-.114-.084-.133-.078-.245.055-.07.21-.144.36-.132zm-.848.059q.08.002.112.036c-.025.2-.182.188-.338.28-.268.162-.422.408-.508.752-.024.1-.288.366-.416.34-.299-.064.083-.613.15-.696.077-.093.177-.174.266-.28.086-.104.143-.244.226-.301.09-.063.35-.138.508-.132zm2.23.675c.096.002.182.017.221.056-.061.248-.597.182-.793.093.011-.094.159-.12.282-.132.087-.003.195-.02.29-.017m-1.22.458a.7.7 0 0 1 .195.03c-.173.144-.36.226-.658.32-.144.045-.391.1-.415-.059-.03-.195.21-.15.34-.167.165-.023.345-.119.538-.125zm18.717 1.113a.4.4 0 0 0-.036.157c.012.09.112.178.134.3.011.066-.03.206 0 .265.09.176.328.05.498.06a14 14 0 0 0-.596-.782m.963 1.292a1.4 1.4 0 0 1-.186.406c-.165.249-.388.26-.623.393-.197.111-.281.297-.396.49-.125.208-.203.334-.151.636-.169.333-.423.537-.772.696-.103.046-.244.063-.339.131-.075.054-.118.2-.225.32-.132.146-.271.208-.34.32-.054.086-.073.258-.133.374-.08.158-.251.235-.357.395-.048.074-.08.224-.133.32-.12.217-.324.373-.302.563.022.184.231.216.246.376.003.09-.06.146-.057.245.003.144.1.245.112.356.028.279-.095.39-.148.581-.025.091-.013.194-.038.265-.047.14-.241.265-.245.43-.002.118.12.212.13.377.003.113-.056.234-.035.339.04.204.406.442.565.6.213.213.493.377.584.601.078.19.077.438.226.581.11.106.292.172.433.282.132.103.275.191.415.3.23.18.576.536.942.508.19-.013.386-.169.602-.207.223-.04.512-.06.737-.037.172.017.349.12.528.112.189-.012.405-.152.62-.245.173-.075.384-.158.617-.219q.162-1.073.164-2.192c0-3-.9-5.78-2.44-8.097zm-24.309 4.922c-.313.018-.518.032-.696.112-.408.185-.329.734-.736.864-.141.045-.334.047-.49.075-.134.025-.297.097-.434.095-.039 0-.093-.03-.141-.044a17 17 0 0 0-.09.78c.388.073.588.586.93.755.095.047.217.05.338.076.097.022.172.062.265.094.2.067.444.06.603.13.24.107.417.557.623.677.012.122-.024.285.02.375.096.132.235.103.395.189.193.103.252.37.434.452.063.028.22.024.32.055.25.075.331.363.545.3.14-.04.13-.185.152-.319.093-.1.195-.259.34-.262.233-.011.254.241.34.468.048.128.173.24.206.375.059.233.03.932-.02 1.071-.06.172-.292.244-.435.434-.068.09-.1.22-.151.282-.092.112-.23.141-.299.244-.038.059-.076.184-.114.262-.114.24-.265.409-.17.696.04.118.225.197.226.336 0 .163-.35.31-.376.489-.02.133.108.372.15.545.031.131.28.213.358.3.132.149.238.358.358.544.24.366.427.812.66 1.166.122.186.295.353.377.545.041.097.036.213.074.3.134.304.73.62 1.036.77.144.07.303.095.435.168.2.11.595.409.696.583.09.157.146.54.19.789.058.33 0 .583.019.94.011.193.073.387.076.58 0 .068-.036.119-.039.188 0 .01.004.024.004.035a14.7 14.7 0 0 0 6.073 1.31c.392 0 .78-.02 1.164-.05q.023-.044.053-.086a3 3 0 0 0 .226-.319c.056-.343-.137-.582-.056-.882.09-.338.557-.543.885-.696.113-.052.228-.137.32-.168.227-.08.51-.036.718-.112.353-.129.39-.506.564-.827.082-.152.19-.304.207-.412.014-.097-.036-.189-.02-.303s.118-.212.15-.336c.041-.163.059-.402.059-.583 0-.149-.07-.279-.075-.413-.025-.487.176-.542.357-.807.091-.132.125-.282.188-.376.304-.452.83-.67.792-1.352-.011-.226-.154-.737-.321-.809-.095-.04-.314-.003-.452-.056-.446-.165-.707-.716-1.168-.75-.099-.012-.19.04-.3.037-.183-.011-.458-.127-.66-.15-.13-.013-.301.038-.378 0-.118-.057-.13-.273-.225-.338-.076-.052-.224-.07-.34-.114-.185-.07-.332-.154-.546-.169-.066-.003-.148.032-.225.02-.119-.02-.213-.159-.322-.225-.137-.084-.263-.124-.32-.242.124-.405-.218-.517-.301-.751-.04-.11-.022-.242-.057-.34-.05-.14-.188-.22-.34-.337-.273-.21-.514-.406-.904-.453-.171-.022-.341.051-.548.038-.22-.013-.495-.205-.66-.392-.159-.183-.236-.347-.375-.434-.132-.084-.307-.082-.396-.167-.04-.037-.033-.1-.076-.189-.066-.137-.178-.213-.095-.376-.15-.077-.154.143-.319.114-.146-.207-.27-.305-.602-.244-.153.028-.238.22-.415.224-.146.012-.26-.161-.452-.189-.145-.02-.31.04-.414.02-.16-.032-.21-.165-.357-.262-.108-.07-.317-.19-.378-.188-.189.011-.324.4-.585.263-.127-.16.207-.245.056-.395-.114-.114-.21.052-.301.114-.105.072-.203.144-.319.186-.259.097-.42.047-.623.15-.187.097-.195.26-.301.451-.087.158-.285.387-.415.397-.158.011-.309-.22-.452-.282-.432-.187-.64.165-1 .17-.332.012-.807-.535-.79-.847.003-.19.11-.479.132-.714.02-.187.149-.3.15-.47.004-.229-.303-.404-.451-.431-.352-.065-.841.141-1.245-.02-.077-.128.09-.216.134-.34.024-.07.01-.164.036-.241.044-.12.17-.213.226-.34.042-.096.053-.236.095-.356.05-.136.14-.224.15-.32a.42.42 0 0 0-.133-.356zm5.038 3.976c.128.012.144.275.013.296-.14.023-.213-.22-.076-.283a.1.1 0 0 1 .063-.01z"/></g><path fill="none" stroke="url(#d)" stroke-linecap="round" stroke-width=".6" d="m34.673 4.804-.21 2.072m5.46-1.029-.602 1.993m5.564.062-1.002 1.825m5.452 1.15-1.333 1.6m5.119 2.183-1.614 1.315m4.588 3.134-1.835.984m3.891 3.978-1.999.58m3.043 4.67-2.073.19m2.073 5.163-2.071-.21m1.028 5.46-1.993-.602m-.061 5.564-1.825-1.003m-1.15 5.452-1.6-1.332M49.34 53.12l-1.316-1.614m-3.135 4.59-.984-1.835m-3.976 3.89-.581-1.998m-4.67 3.041-.189-2.072m-5.163 2.074.21-2.072m-5.46 1.03.602-1.994m-5.564-.062 1.002-1.825m-5.452-1.149 1.333-1.6m-5.119-2.185 1.614-1.316M7.904 44.89l1.835-.984m-3.886-3.96 1.99-.616m-3.04-4.651 2.073-.189m-2.072-5.163 2.071.21m-1.029-5.46 1.993.601m.062-5.563 1.825 1.002m1.15-5.453 1.6 1.332m2.183-5.117 1.316 1.614m3.135-4.588.984 1.835m3.976-3.892.581 2m4.67-3.044.189 2.073" class="shp38"/><g stroke-width="3.78"><path d="M31.998 14.998A1 1 0 0 0 30.996 16l.004.07v15.916a1 1 0 0 0 1.002.99 1 1 0 0 0 1.002-1.001l-.004-.07V15.989a1 1 0 0 0-1.002-.99z" filter="url(#e)" opacity=".5"/><path d="m32.709 31.991 15.557 15.557-.71.707-15.558-15.557z" filter="url(#f)" opacity=".35"/><path fill="#fff" d="m32.709 31.991 15.557 15.557-.71.707-15.558-15.557z" opacity=".75"/><path fill="#fff" d="M31.998 14.998A1 1 0 0 0 30.996 16l.004.07v15.916a1 1 0 0 0 1.002.99 1 1 0 0 0 1.002-1.001l-.004-.07V15.989a1 1 0 0 0-1.002-.99z"/></g></svg>