<svg xmlns="http://www.w3.org/2000/svg" width="64" height="64"><defs><linearGradient id="b" x1="2" x2="2" y1="30" y2="2" gradientTransform="translate(-2.286 -2.286) scale(2.1429)" gradientUnits="userSpaceOnUse"><stop offset="0" stop-color="#a5a5a5"/><stop offset="1" stop-color="#f5f2f5"/></linearGradient><filter id="a" width="1.078" height="1.078" x="-.039" y="-.039" color-interpolation-filters="sRGB"><feGaussianBlur stdDeviation=".972"/></filter></defs><linearGradient id="c" x2="0" y1="23" y2="9" gradientTransform="translate(-4.571 -4.571) scale(2.2857)" gradientUnits="userSpaceOnUse"><stop offset="0" stop-color="#ffd42a"/><stop offset="1" stop-color="#ffdf62"/></linearGradient><circle cx="32" cy="32" r="30" filter="url(#a)" opacity=".25" style="paint-order:normal"/><rect width="60" height="60" x="2" y="2" fill="#4f575f" rx="30"/><path fill="url(#b)" d="M32 2A30 30 0 0 0 4.016 21.286h.126l6.429-2.143 4.286 4.286v-4.286L19.142 17v-2.143l4.286-2.143 4.286-4.285v2.143l2.143-2.143-2.143-2.143H32v2.143l4.285-2.143-2.143-2.143V2.107A30 30 0 0 0 32 2zm22.232 9.91-.804.804v2.143h3.148a30 30 0 0 0-2.344-2.946zm2.82 3.61-7.91 7.909L47 29.857V32l4.286 4.286 4.285 2.143 5.98-1.475A30 30 0 0 0 62 32a30 30 0 0 0-4.948-16.48zM6.286 25.57l-2.143 2.143H2.347c-.107.729-.188 1.46-.242 2.192v.005L6.286 32l2.143 2.143 4.286 2.143 2.142 2.143-2.142 2.142v4.286l2.142 4.286 4.286 4.286v5.633A30 30 0 0 0 32 62c.364-.006.729-.02 1.093-.038l1.05-2.105v-2.143l4.286-2.143 2.143-2.142v-4.286L42.715 47v-2.143l-2.143-2.143-6.429-2.143-4.286-4.285h-2.143l-2.142-2.143L19.143 32l-4.286 2.143h-4.285v-4.286H8.429V25.57z"/><path fill="url(#c)" d="M32 16a4.571 4.571 0 0 0-4.571 4.571 4.571 4.571 0 0 0 .07.773 13.714 13.714 0 0 0-9.213 12.942A13.714 13.714 0 0 0 32 48a13.714 13.714 0 0 0 13.714-13.714 13.714 13.714 0 0 0-2.595-8.005 2.286 2.286 0 0 0 .309-1.138 2.286 2.286 0 0 0-2.286-2.286 2.286 2.286 0 0 0-1.143.309 13.714 13.714 0 0 0-3.497-1.817 4.571 4.571 0 0 0 .069-.777A4.571 4.571 0 0 0 31.999 16zm0 2.286a2.286 2.286 0 0 1 2.286 2.285 2.286 2.286 0 0 1-.014.192A13.714 13.714 0 0 0 32 20.571a13.714 13.714 0 0 0-2.277.206 2.286 2.286 0 0 1-.009-.206A2.286 2.286 0 0 1 32 18.286zm0 4.571a11.429 11.429 0 0 1 1.008.048 11.429 11.429 0 0 1 .135.01 11.429 11.429 0 0 1 .297.045 11.429 11.429 0 0 1 .731.114 11.429 11.429 0 0 1 .307.069 11.429 11.429 0 0 1 .845.22 11.429 11.429 0 0 1 .236.068 11.429 11.429 0 0 1 .004 0 11.429 11.429 0 0 1 .142.055 11.429 11.429 0 0 1 .782.304 11.429 11.429 0 0 1 .304.137 11.429 11.429 0 0 1 .75.381 11.429 11.429 0 0 1 .2.115 11.429 11.429 0 0 1 .835.537 11.429 11.429 0 0 1 .032.018 11.429 11.429 0 0 1 .137.103 11.429 11.429 0 0 1 .112.08 11.429 11.429 0 0 1 2.268 2.267 11.429 11.429 0 0 1 .004.01 11.429 11.429 0 0 1 .608.891 11.429 11.429 0 0 1 .03.046 11.429 11.429 0 0 1 .018.036 11.429 11.429 0 0 1 .514.951 11.429 11.429 0 0 1 .01.016 11.429 11.429 0 0 1 .009.018 11.429 11.429 0 0 1 .4.965 11.429 11.429 0 0 1 .05.135 11.429 11.429 0 0 1 .274.887 11.429 11.429 0 0 1 .069.28 11.429 11.429 0 0 1 .148.74 11.429 11.429 0 0 1 .071.456 11.429 11.429 0 0 1 .057.64 11.429 11.429 0 0 1 .042.787 11.429 11.429 0 0 1-.048 1.008 11.429 11.429 0 0 1-.06.48 11.429 11.429 0 0 1-.098.628 11.429 11.429 0 0 1-.121.54 11.429 11.429 0 0 1-.137.553 11.429 11.429 0 0 1-.192.571 11.429 11.429 0 0 1-.183.505 11.429 11.429 0 0 1-.275.6 11.429 11.429 0 0 1-.194.404 11.429 11.429 0 0 1-.331.58 11.429 11.429 0 0 1-.263.43 11.429 11.429 0 0 1-.361.503 11.429 11.429 0 0 1-.313.411 11.429 11.429 0 0 1-.398.457 11.429 11.429 0 0 1-.38.405 11.429 11.429 0 0 1-.406.38 11.429 11.429 0 0 1-.455.397 11.429 11.429 0 0 1-.412.313 11.429 11.429 0 0 1-.503.361 11.429 11.429 0 0 1-.43.263 11.429 11.429 0 0 1-.58.332 11.429 11.429 0 0 1-.404.196 11.429 11.429 0 0 1-.6.272 11.429 11.429 0 0 1-.502.183 11.429 11.429 0 0 1-.572.192 11.429 11.429 0 0 1-.555.137 11.429 11.429 0 0 1-.54.121 11.429 11.429 0 0 1-.63.099 11.429 11.429 0 0 1-.478.06 11.429 11.429 0 0 1-1.008.047 11.429 11.429 0 0 1-1.008-.048 11.429 11.429 0 0 1-.48-.06 11.429 11.429 0 0 1-.629-.098 11.429 11.429 0 0 1-.539-.12 11.429 11.429 0 0 1-.553-.138 11.429 11.429 0 0 1-.572-.192 11.429 11.429 0 0 1-.505-.183 11.429 11.429 0 0 1-.599-.274 11.429 11.429 0 0 1-.404-.194 11.429 11.429 0 0 1-.58-.332 11.429 11.429 0 0 1-.43-.263 11.429 11.429 0 0 1-.503-.36 11.429 11.429 0 0 1-.412-.314 11.429 11.429 0 0 1-.457-.398 11.429 11.429 0 0 1-.404-.379 11.429 11.429 0 0 1-.38-.407 11.429 11.429 0 0 1-.398-.455 11.429 11.429 0 0 1-.313-.411 11.429 11.429 0 0 1-.36-.503 11.429 11.429 0 0 1-.264-.43 11.429 11.429 0 0 1-.331-.58 11.429 11.429 0 0 1-.197-.405 11.429 11.429 0 0 1-.272-.599 11.429 11.429 0 0 1-.183-.503 11.429 11.429 0 0 1-.192-.571 11.429 11.429 0 0 1-.137-.555 11.429 11.429 0 0 1-.12-.54 11.429 11.429 0 0 1-.1-.63 11.429 11.429 0 0 1-.059-.478 11.429 11.429 0 0 1-.048-1.008 11.429 11.429 0 0 1 .048-1.008 11.429 11.429 0 0 1 .055-.435 11.429 11.429 0 0 1 .115-.727 11.429 11.429 0 0 1 .073-.331 11.429 11.429 0 0 1 .2-.782 11.429 11.429 0 0 1 .108-.324 11.429 11.429 0 0 1 .268-.736 11.429 11.429 0 0 1 .164-.366 11.429 11.429 0 0 1 .332-.674 11.429 11.429 0 0 1 .155-.28 11.429 11.429 0 0 1 .446-.726 11.429 11.429 0 0 1 .144-.197 11.429 11.429 0 0 1 .562-.736 11.429 11.429 0 0 1 .09-.102 11.429 11.429 0 0 1 .717-.768 11.429 11.429 0 0 1 .846-.741 11.429 11.429 0 0 1 .052-.046 11.429 11.429 0 0 1 .862-.61 11.429 11.429 0 0 1 .094-.06 11.429 11.429 0 0 1 .928-.53 11.429 11.429 0 0 1 1.04-.464 11.429 11.429 0 0 1 2.562-.665 11.429 11.429 0 0 1 .06-.009 11.429 11.429 0 0 1 .047-.005 11.429 11.429 0 0 1 .848-.075 11.429 11.429 0 0 1 .261-.018 11.429 11.429 0 0 1 .352-.014zm0 2.286V32a2.286 2.286 0 0 1 2.286 2.286h6.857a9.143 9.143 0 0 0-.041-.773 9.143 9.143 0 0 0-.057-.48 9.143 9.143 0 0 0-.062-.425 9.143 9.143 0 0 0-.117-.51 9.143 9.143 0 0 0-.091-.352 9.143 9.143 0 0 0-.16-.491 9.143 9.143 0 0 0-.151-.412 9.143 9.143 0 0 0-.178-.397 9.143 9.143 0 0 0-.206-.423 9.143 9.143 0 0 0-.215-.375 9.143 9.143 0 0 0-.263-.43 9.143 9.143 0 0 0-.221-.308 9.143 9.143 0 0 0-.323-.423 9.143 9.143 0 0 0-.258-.295 9.143 9.143 0 0 0-.34-.366 9.143 9.143 0 0 0-.366-.34 9.143 9.143 0 0 0-.295-.259 9.143 9.143 0 0 0-.423-.32 9.143 9.143 0 0 0-.309-.224 9.143 9.143 0 0 0-.43-.263 9.143 9.143 0 0 0-.374-.214A9.143 9.143 0 0 0 35.84 26a9.143 9.143 0 0 0-.398-.178 9.143 9.143 0 0 0-.411-.154 9.143 9.143 0 0 0-.492-.16 9.143 9.143 0 0 0-.352-.089 9.143 9.143 0 0 0-.51-.114 9.143 9.143 0 0 0-.422-.064 9.143 9.143 0 0 0-.483-.057 9.143 9.143 0 0 0-.772-.041z"/></svg>