<svg xmlns="http://www.w3.org/2000/svg" width="64" height="64"><defs><linearGradient id="b" x1="33.88" x2="990.12" y1="512" y2="512" gradientTransform="translate(-38.508 33.22)" gradientUnits="userSpaceOnUse"><stop offset="0" stop-color="#171d25"/><stop offset="1" stop-color="#303236"/></linearGradient><linearGradient id="c" x1="520" x2="520" y1="4" y2="1024" gradientUnits="userSpaceOnUse"><stop offset="0" stop-color="#323232"/><stop offset="1" stop-color="#5c5c5c"/></linearGradient><linearGradient id="d" x1="34.89" x2="512" y1="272.94" y2="272.94" gradientTransform="rotate(180 515.85 515.85) scale(1.0151)" gradientUnits="userSpaceOnUse"><stop offset="0" stop-color="#5e7ee2"/><stop offset="1" stop-color="#3f9ae5"/></linearGradient><filter id="a" width="1.072" height="1.072" x="-.036" y="-.036" color-interpolation-filters="sRGB"><feGaussianBlur stdDeviation="14.344"/></filter><filter id="e" width="1.12" height="1.12" x="-.06" y="-.06" color-interpolation-filters="sRGB"><feGaussianBlur stdDeviation=".9"/></filter></defs><linearGradient id="f" x1="16" x2="16" y1="28" y2="4" gradientTransform="scale(2)" gradientUnits="userSpaceOnUse"><stop offset="0" stop-color="#eff0f1"/><stop offset="1" stop-color="#fcfcfc"/></linearGradient><g stroke-width="15.938" transform="translate(-.125 -.125) scale(.06274)"><circle cx="512" cy="512" r="478.12" filter="url(#a)" opacity=".25" style="paint-order:stroke markers fill"/><circle cx="512" cy="512" r="478.12" fill="url(#b)" style="paint-order:stroke markers fill"/><circle cx="511.5" cy="512.5" r="431.93" fill="url(#c)" style="paint-order:stroke markers fill"/><path fill="url(#d)" d="M512 512V33.87c-131.68.12-244.12 46.822-337.26 139.91C81.536 266.984 34.89 379.64 34.89 511.49c0 .17.004.338.004.508z"/></g><path fill-rule="evenodd" d="M32 5v27.01H5v1h27V59h1V33.01h26v-1H33V5z" opacity=".2" style="paint-order:fill markers stroke"/><path d="M44 14v2H20a3.98 3.98 0 0 0-3.132 1.512A3.996 3.996 0 0 0 16 20v10a4.004 4.004 0 0 0 .06.68 4.002 4.002 0 0 0 .374 1.132A4 4 0 0 0 20 34h22a2.006 2.006 0 0 1 .98.26 2.004 2.004 0 0 1 .388.284A1.992 1.992 0 0 1 44 36v6a2 2 0 0 1-2 2H20v-2l-6 4 6 4v-2h24a3.98 3.98 0 0 0 2.872-1.214 4.004 4.004 0 0 0 .984-1.716A4.002 4.002 0 0 0 48 44V34a4.004 4.004 0 0 0-.06-.68 4.002 4.002 0 0 0-.374-1.132A4 4 0 0 0 44 30H22a2.006 2.006 0 0 1-.98-.26 2.004 2.004 0 0 1-.388-.284A1.992 1.992 0 0 1 20 28v-6a2 2 0 0 1 2-2h22v2l6-4z" filter="url(#e)" opacity=".15"/><path fill="url(#f)" d="M44 14v2H20a3.98 3.98 0 0 0-3.132 1.512A3.996 3.996 0 0 0 16 20v10a4.004 4.004 0 0 0 .06.68 4.002 4.002 0 0 0 .374 1.132A4 4 0 0 0 20 34h22a2.006 2.006 0 0 1 .98.26 2.004 2.004 0 0 1 .388.284A1.992 1.992 0 0 1 44 36v6a2 2 0 0 1-2 2H20v-2l-6 4 6 4v-2h24a3.98 3.98 0 0 0 2.872-1.214 4.004 4.004 0 0 0 .984-1.716A4.002 4.002 0 0 0 48 44V34a4.004 4.004 0 0 0-.06-.68 4.002 4.002 0 0 0-.374-1.132A4 4 0 0 0 44 30H22a2.006 2.006 0 0 1-.98-.26 2.004 2.004 0 0 1-.388-.284A1.992 1.992 0 0 1 20 28v-6a2 2 0 0 1 2-2h22v2l6-4z"/></svg>