<svg width="64" height="64" xmlns="http://www.w3.org/2000/svg"><defs><linearGradient id="b" x1="401.97" x2="401.97" y1="546.72" y2="518.72" gradientTransform="translate(-23.02 -30.545) scale(1.0573)" gradientUnits="userSpaceOnUse"><stop stop-color="#d3d3d3" offset="0"/><stop stop-color="#fcf9f9" offset="1"/></linearGradient><linearGradient id="c" x1="404.68" x2="404.68" y1="531.34" y2="545.36" gradientUnits="userSpaceOnUse"><stop stop-color="#505459" offset="0"/><stop stop-color="#2d2f32" offset="1"/></linearGradient><filter id="a" x="-.036" y="-.036" width="1.072" height="1.072" color-interpolation-filters="sRGB"><feGaussianBlur stdDeviation=".444"/></filter><filter id="d" x="-.06" y="-.06" width="1.121" height="1.119" color-interpolation-filters="sRGB"><feGaussianBlur stdDeviation=".348"/></filter></defs><g stroke-width=".757"><g transform="matrix(2.0267 0 0 2.0267 -779.722 -1045.65)"><circle cx="400.52" cy="531.74" r="14.803" filter="url(#a)" opacity=".25"/><circle cx="400.52" cy="531.74" r="14.803" fill="url(#b)"/></g><path d="M409.03 539.85c-.819 0-1.54.392-2.012.991l-4.376-2.246c.058-.215.099-.436.099-.67 0-.254-.049-.493-.117-.725l4.356-2.237a2.556 2.556 0 0 0 2.05 1.037 2.58 2.58 0 0 0 2.578-2.587 2.58 2.58 0 0 0-2.577-2.585 2.581 2.581 0 0 0-2.576 2.585c0 .234.042.457.1.672l-4.375 2.246a2.561 2.561 0 0 0-2.015-.993 2.58 2.58 0 0 0-2.575 2.587 2.58 2.58 0 0 0 2.575 2.587c.842 0 1.582-.411 2.053-1.039l4.354 2.237a2.565 2.565 0 0 0-.117.727 2.581 2.581 0 0 0 2.575 2.586 2.58 2.58 0 0 0 2.577-2.586 2.58 2.58 0 0 0-2.577-2.587z" fill="url(#c)" stroke="none" transform="matrix(2.14634 0 0 2.1397 -838.579 -1117.972)" stroke-opacity=".8"/><g filter="url(#d)" opacity=".15" transform="translate(-837.1 -1121.81) scale(2.1696)"><path d="M403.964 534.178c-.81 0-1.524.386-1.991.977l-4.328-2.216c.056-.211.097-.43.097-.66 0-.25-.048-.486-.116-.715l4.31-2.206a2.532 2.532 0 0 0 2.028 1.022c1.41 0 2.55-1.14 2.55-2.55a2.55 2.55 0 1 0-5.097 0c0 .23.04.45.098.662l-4.327 2.215a2.536 2.536 0 0 0-1.994-.979 2.549 2.549 0 0 0-2.548 2.551c0 1.41 1.14 2.551 2.548 2.551.833 0 1.565-.405 2.031-1.024l4.307 2.205a2.523 2.523 0 0 0-.116.718 2.55 2.55 0 1 0 5.097 0c0-1.41-1.14-2.551-2.55-2.551z" stroke="none" stroke-opacity=".8"/></g><path d="M409.03 539.85c-.819 0-1.54.392-2.012.991l-4.376-2.246c.058-.215.099-.436.099-.67 0-.254-.049-.493-.117-.725l4.356-2.237a2.556 2.556 0 0 0 2.05 1.037 2.58 2.58 0 0 0 2.578-2.587 2.58 2.58 0 0 0-2.577-2.585 2.581 2.581 0 0 0-2.576 2.585c0 .234.042.457.1.672l-4.375 2.246a2.561 2.561 0 0 0-2.015-.993 2.58 2.58 0 0 0-2.575 2.587 2.58 2.58 0 0 0 2.575 2.587c.842 0 1.582-.411 2.053-1.039l4.354 2.237a2.565 2.565 0 0 0-.117.727 2.581 2.581 0 0 0 2.575 2.586 2.58 2.58 0 0 0 2.577-2.586 2.58 2.58 0 0 0-2.577-2.587z" fill="url(#c)" stroke="none" transform="matrix(2.14634 0 0 2.1397 -838.579 -1117.972)" stroke-opacity=".8"/></g></svg>