<svg width="64" height="64" version="1.1" xmlns="http://www.w3.org/2000/svg">
 <defs>
  <linearGradient id="b-3" x1="520" x2="520.03" y1="44" y2="985.85" gradientTransform="matrix(.06356 0 0 .06356 -.54237 -.54237)" gradientUnits="userSpaceOnUse">
   <stop stop-color="#353535" offset="0"/>
   <stop stop-color="#6d6d6d" offset="1"/>
  </linearGradient>
  <filter id="g-6" x="-.036" y="-.036" width="1.072" height="1.072" color-interpolation-filters="sRGB">
   <feGaussianBlur stdDeviation="14.16"/>
  </filter>
  <filter id="h" x="-.05959" y="-.060416" width="1.1192" height="1.1208" color-interpolation-filters="sRGB">
   <feGaussianBlur stdDeviation="0.79453125"/>
  </filter>
  <linearGradient id="g" x1="10.094" x2="122.72" y1="107.36" y2="107.36" gradientTransform="matrix(.24842 0 0 .24428 433.38 517.17)" gradientUnits="userSpaceOnUse">
   <stop stop-color="#1a1a1a" offset="0"/>
   <stop stop-color="#2c2c2e" offset=".11054"/>
   <stop stop-color="#2b2b2d" offset=".29001"/>
   <stop stop-color="#2a2b2d" offset=".51187"/>
   <stop stop-color="#2b2b2d" offset=".75173"/>
   <stop stop-color="#323232" offset=".89659"/>
   <stop stop-color="#171717" offset="1"/>
  </linearGradient>
  <linearGradient id="a-2" x1="449.43" x2="449.55" y1="540.75" y2="518.41" gradientUnits="userSpaceOnUse">
   <stop stop-color="#bec1c7" offset="0"/>
   <stop stop-color="#dddfe2" offset="1"/>
  </linearGradient>
  <linearGradient id="d-9" x1="467.17" x2="467.17" y1="546.85" y2="544.72" gradientTransform="translate(0 .10639)" gradientUnits="userSpaceOnUse">
   <stop stop-color="#040404" offset="0"/>
   <stop stop-color="#121212" stop-opacity=".90816" offset="1"/>
  </linearGradient>
 </defs>
 <linearGradient id="b" x1="400.57" x2="400.57" y1="522.8" y2="535.8" gradientTransform="translate(-368.55 -499.8)" gradientUnits="userSpaceOnUse">
  <stop stop-color="#da4453" offset="0"/>
  <stop stop-color="#c72737" offset="1"/>
 </linearGradient>
 <linearGradient id="d" x1="12" x2="12" y1="48" y2="10" gradientTransform="matrix(.55555 0 0 .54843 14.24 13.611)" gradientUnits="userSpaceOnUse">
  <stop stop-color="#eef1f2" offset="0"/>
  <stop stop-color="#f9fafb" offset="1"/>
 </linearGradient>
 <path transform="matrix(.06356 0 0 .06356 -.54237 -.54237)" d="m969.7 392c-1.1-4.35-2.35-9-3.65-13.6-2.5-8.75-5.35-17.6-8.45-26.35-6.45-18.25-14.15-36.05-23.15-53.65-3.8-7.4-7.95-14.95-12.3-22.4h-0.025q-30.601-52.01-76.325-97.75c-92.15-92.15-203.45-138.25-333.8-138.25s-241.6 46.1-333.75 138.25-138.25 203.4-138.25 333.75 46.1 241.65 138.25 333.8c68.05 68.05 146.5 110.95 234.9 128.65 31.95 6.4 64.75 9.55 98.85 9.55 130.35 0 241.65-46.05 333.8-138.2 48.6-48.6 84.4-102.5 107.35-161.8 17-43.95 27-90.8 29.95-140.75 0.6-10.2 0.9-20.65 0.9-31.25 0-41.75-4.7-81.6-14.3-120z" filter="url(#g-6)" opacity=".25" stroke-width="15.672"/>
 <path d="m61.091 24.373c-0.06992-0.27648-0.14936-0.57204-0.23199-0.86441-0.1589-0.55615-0.34004-1.1186-0.53708-1.6748-0.40996-1.16-0.89937-2.2913-1.4714-3.41-0.24153-0.47034-0.5053-0.95022-0.78178-1.4237h-0.0016q-1.945-3.3057-4.8512-6.2129c-5.857-5.857-12.931-8.7871-21.216-8.7871s-15.356 2.9301-21.213 8.7871c-5.857 5.857-8.7871 12.928-8.7871 21.213s2.9301 15.359 8.7871 21.216c4.3252 4.3252 9.3115 7.0519 14.93 8.1769 2.0307 0.40678 4.1155 0.60699 6.2829 0.60699 8.285 0 15.359-2.9269 21.216-8.7839 3.089-3.089 5.3644-6.5148 6.8231-10.284 1.0805-2.7934 1.7161-5.7712 1.9036-8.946 0.03814-0.64831 0.0572-1.3125 0.0572-1.9862 0-2.6536-0.29873-5.1865-0.9089-7.6271z" fill="url(#b-3)" stroke-width=".9961"/>
 <g transform="matrix(.027637 -.022196 .027543 .022273 18.561 28.089)" fill="#a1a7ae" stroke="#909296" stroke-width="2.5249">
  <g stroke="none">
   <path transform="matrix(21.396,21.323,-26.464,26.556,318.3,-1200.9)" d="m18.559 16.219c-0.47215 0-0.85156 0.37358-0.85156 0.83789l-1.7051 25.273c0 0.04795 0.01955 0.08906 0.02734 0.13477h-0.0293l0.2832 4.4785c0 0.46432 0.38135 0.83789 0.85352 0.83789h29.723c0.47216 0 0.85156-0.37357 0.85156-0.83789l0.28516-4.4785h-0.02344c0.0078-0.04571 0.02734-0.08681 0.02734-0.13477l-1.9883-25.273c0-0.46431-0.38135-0.83789-0.85352-0.83789h-26.6z" fill="#000" filter="url(#h)" opacity=".75"/>
   <path transform="matrix(24.469,24.385,-30.265,30.37,5246.5,-26793)" d="m435.89 541.07 0.24841 3.9153c0 0.40601 0.33238 0.73288 0.74525 0.73288h25.99c0.41287 0 0.74526-0.32687 0.74526-0.73288l0.24841-3.9153z" fill="url(#g)"/>
   <path transform="matrix(24.469,24.385,-30.265,30.37,5246.5,-26793)" d="m438.13 518.12h23.26c0.41287 0 0.74526 0.32687 0.74526 0.73287l1.739 22.1c0 0.406-0.33237 0.73288-0.74524 0.73288h-26.489c-0.41287 0-0.74524-0.32688-0.74524-0.73288l1.4904-22.1c0-0.406 0.33238-0.73293 0.74524-0.73293z" fill="url(#a-2)"/>
   <rect transform="matrix(24.469,24.385,-30.265,30.37,5147,-27021)" x="450.87" y="545.61" width="11.463" height=".76887" ry=".38444" fill="#f6b44d"/>
   <circle transform="matrix(24.469,24.385,-30.265,30.37,5147,-27021)" cx="467.09" cy="546.02" r="1.0613" fill="url(#d-9)" opacity=".452"/>
  </g>
  <path transform="matrix(.20751 .2068 -.25667 .25755 55.69 920.99)" d="m63 73.215c2.824 0 5.27-1.031 7.332-3.096 2.064-2.063 3.098-4.508 3.098-7.332v-52.144c0-2.825-1.033-5.269-3.098-7.332-2.062-2.065-4.507-3.097-7.332-3.097s-5.269 1.033-7.333 3.097c-2.064 2.063-3.096 4.508-3.096 7.332v52.144c0 2.824 1.032 5.269 3.096 7.332 2.064 2.065 4.509 3.096 7.333 3.096z" fill="#e3e8ea" opacity=".668"/>
  <path transform="matrix(.20751 .2068 -.25667 .25755 55.69 920.99)" d="m119.01 45.269c-4.373-8.744-10.523-16.077-18.453-21.997-2.281-1.738-4.861-2.417-7.74-2.037s-5.16 1.738-6.844 4.073c-1.738 2.281-2.403 4.847-1.996 7.699 0.406 2.853 1.752 5.147 4.033 6.885 5.321 4.019 9.438 8.935 12.342 14.747 2.906 5.811 4.358 12.004 4.358 18.575 0 5.65-1.1 11.04-3.299 16.173-2.2 5.133-5.174 9.573-8.922 13.321-3.748 3.747-8.187 6.721-13.32 8.921s-10.524 3.301-16.173 3.301c-5.648 0-11.039-1.101-16.172-3.301s-9.573-5.174-13.321-8.921c-3.747-3.748-6.721-8.188-8.921-13.321s-3.3-10.523-3.3-16.173c0-6.571 1.453-12.763 4.359-18.575 2.906-5.811 7.02-10.727 12.343-14.747 2.281-1.739 3.625-4.033 4.033-6.885 0.407-2.851-0.258-5.418-1.996-7.699-1.684-2.335-3.951-3.693-6.803-4.073s-5.446 0.299-7.781 2.037c-7.931 5.92-14.081 13.253-18.454 21.997-4.373 8.745-6.559 18.06-6.559 27.945 0 8.474 1.657 16.566 4.97 24.279 3.314 7.713 7.767 14.366 13.362 19.961 5.594 5.594 12.248 10.049 19.961 13.36 7.713 3.314 15.806 4.972 24.279 4.972s16.566-1.658 24.279-4.972c7.713-3.312 14.367-7.766 19.961-13.36s10.047-12.248 13.361-19.961c3.313-7.713 4.969-15.806 4.969-24.279 0-9.885-2.183-19.2-6.556-27.945z" fill="#e3e8ea" opacity=".668"/>
 </g>
 <path d="m27.017 19c-2.7614 0-5 2.2095-5 4.9356v5c0.70597 0.62334 1.1102 1.565 1.1113 2.5-1e-3 0.93463-0.40565 1.8769-1.1113 2.5v3l3 3h14l3-3v-3c-0.70568-0.62309-1.1103-1.5654-1.1113-2.5 1e-3 -0.93501 0.40536-1.8767 1.1113-2.5v-5c0-2.726-2.2386-4.9356-5-4.9356z" fill="url(#d)" opacity=".75" stroke-width=".55198"/>
 <path d="m32.017 23c-1.662 0-3 1.338-3 3v3h-2v7h10v-7h-2v-3c0-1.662-1.338-3-3-3zm0 1c1.2465 0 2 0.5458 2 2v3h-4v-3c0-1.4542 0.75351-2 2-2z" fill="url(#b)"/>
</svg>
