<svg width="64" height="64" enable-background="new 0 0 1024 1024" image-rendering="optimizeSpeed" version="1.1" xmlns="http://www.w3.org/2000/svg">
 <defs>
  <linearGradient id="b" x1="-506.45" x2="-506.45" y1="-19.101" y2="1013.6" gradientTransform="translate(61.791 3.124) scale(.05882)" gradientUnits="userSpaceOnUse">
   <stop stop-color="#262626" offset="0"/>
   <stop stop-color="#333" offset=".508"/>
   <stop stop-color="#4a4a4a" offset="1"/>
  </linearGradient>
  <linearGradient id="d" x1="32.113" x2="32.495" y1="20.763" y2="53.185" gradientTransform="translate(-5.813 -6.252) scale(1.1667)" gradientUnits="userSpaceOnUse">
   <stop stop-color="#fff" offset="0"/>
   <stop stop-color="#d7d7d7" offset="1"/>
  </linearGradient>
  <filter id="a" x="-.036" y="-.036" width="1.072" height="1.072" color-interpolation-filters="sRGB">
   <feGaussianBlur stdDeviation=".9"/>
  </filter>
  <filter id="c" x="-.060001" y="-.059998" width="1.12" height="1.12" color-interpolation-filters="sRGB">
   <feGaussianBlur stdDeviation=".7"/>
  </filter>
  <filter id="filter26" x="-.013853" y="-.013853" width="1.0277" height="1.0277" color-interpolation-filters="sRGB">
   <feGaussianBlur stdDeviation="0.29776566"/>
  </filter>
  <filter id="filter25" x="-.029663" y="-.029663" width="1.0593" height="1.0593" color-interpolation-filters="sRGB">
   <feGaussianBlur stdDeviation="0.29776566"/>
  </filter>
 </defs>
 <circle cx="32" cy="32" r="30" fill-rule="evenodd" filter="url(#a)" opacity=".25" style="paint-order:fill markers stroke"/>
 <circle cx="32" cy="32" r="30" fill="url(#b)" fill-rule="evenodd" style="paint-order:fill markers stroke"/>
 <path d="m40.384 34.728-2.788.02-.04-5.576 2.788-.02a5.576 5.576 0 1 0-5.616-5.535l.02 2.788-5.576.04-.02-2.788a5.576 5.576 0 1 0-5.536 5.616l2.788-.02.04 5.576-2.788.02a5.576 5.576 0 1 0 5.616 5.535l-.02-2.788 5.576-.04.02 2.781v.007a5.576 5.576 0 1 0 5.536-5.616zm-.1-13.94a2.788 2.788 0 0 1 .04 5.576l-2.788.02-.02-2.788a2.788 2.788 0 0 1 2.767-2.808zm-19.496 2.929a2.788 2.788 0 0 1 5.576-.04l.02 2.787-2.788.02a2.788 2.788 0 0 1-2.808-2.767zm2.93 19.495a2.788 2.788 0 0 1-.041-5.576l2.788-.02.02 2.788a2.788 2.788 0 0 1-2.768 2.808zm5.515-8.404-.04-5.576 5.575-.04.04 5.576zm11.212 8.283a2.788 2.788 0 0 1-2.808-2.768l-.02-2.788 2.787-.02a2.788 2.788 0 0 1 .04 5.576z" filter="url(#c)" opacity=".75"/>
 <path d="m40.384 34.728-2.788.02-.04-5.576 2.788-.02a5.576 5.576 0 1 0-5.616-5.535l.02 2.788-5.576.04-.02-2.788a5.576 5.576 0 1 0-5.536 5.616l2.788-.02.04 5.576-2.788.02a5.576 5.576 0 1 0 5.616 5.535l-.02-2.788 5.576-.04.02 2.781v.007a5.576 5.576 0 1 0 5.536-5.616zm-.1-13.94a2.788 2.788 0 0 1 .04 5.576l-2.788.02-.02-2.788a2.788 2.788 0 0 1 2.767-2.808zm-19.496 2.929a2.788 2.788 0 0 1 5.576-.04l.02 2.787-2.788.02a2.788 2.788 0 0 1-2.808-2.767zm2.93 19.495a2.788 2.788 0 0 1-.041-5.576l2.788-.02.02 2.788a2.788 2.788 0 0 1-2.768 2.808zm5.515-8.404-.04-5.576 5.575-.04.04 5.576zm11.212 8.283a2.788 2.788 0 0 1-2.808-2.768l-.02-2.788 2.787-.02a2.788 2.788 0 0 1 .04 5.576z" fill="url(#d)"/>
 <path d="m10.787 10.787c-11.752 11.752-11.752 30.674 0 42.426 0.11855 0.11855 0.24184 0.22911 0.36184 0.34527-11.399-11.775-11.288-30.431 0.34527-42.065 11.634-11.634 30.289-11.744 42.065-0.34527-0.11616-0.12-0.22671-0.24329-0.34527-0.36184-11.752-11.752-30.674-11.752-42.426 0z" fill="#ffffff" filter="url(#filter26)" opacity=".15"/>
 <path d="m37.435 61.526c5.7718-1.0635 11.297-3.831 15.779-8.3126s7.2491-10.007 8.3126-15.779c-1.5917 5.4332-4.6056 10.657-9.0198 15.072s-9.6384 7.428-15.072 9.0198z" fill="#ffffff" filter="url(#filter25)" opacity=".15"/>
</svg>
