<svg xmlns="http://www.w3.org/2000/svg" xmlns:xlink="http://www.w3.org/1999/xlink" width="64" height="64"><defs><linearGradient id="c" x1="31.044" x2="31.044" y1="59.226" y2="-22.347" gradientTransform="translate(18.469 20.214) scale(.68082)" gradientUnits="userSpaceOnUse"><stop offset="0" stop-color="#1e1f1f"/><stop offset="1" stop-color="#43474b"/></linearGradient><filter id="b" width="1.078" height="1.078" x="-.039" y="-.039" color-interpolation-filters="sRGB"><feGaussianBlur stdDeviation=".972"/></filter></defs><linearGradient xlink:href="#a" id="d" x1="6" x2="6" y1="5" y2="4"/><linearGradient id="a" x2="0" y1="507.8" y2="506.8" gradientUnits="userSpaceOnUse"><stop offset="0" stop-color="#3da103"/><stop offset="1" stop-color="#7ddf07"/></linearGradient><linearGradient xlink:href="#a" id="e" x1="6" x2="6" y1="16" y2="15"/><linearGradient xlink:href="#a" id="f" x1="6" x2="6" y1="27" y2="26"/><circle cx="32" cy="32" r="30" filter="url(#b)" opacity=".25" style="paint-order:normal"/><circle cx="32" cy="32" r="30" fill="url(#c)" style="paint-order:normal"/><path d="M11.023 15a27 27 0 0 0-5.557 12H58.53a27 27 0 0 0-5.554-12zM5.468 37a27 27 0 0 0 5.555 12h41.953a27 27 0 0 0 5.557-12z" opacity=".5"/><g stroke-width=".7"><path fill="url(#d)" d="M5 4h2v1H5z" transform="matrix(2 0 0 2 9 1)"/><path fill="url(#e)" d="M5 15h2v1H5z" transform="matrix(2 0 0 2 9 1)"/><path fill="url(#f)" d="M5 26h2v1H5z" transform="matrix(2 0 0 2 9 1)"/></g><rect width="32" height="32" x="30" y="30" fill="#eff0f1" rx="16" ry="16"/><path fill="#232629" d="M39 34c-3.878 0-7 3.122-7 7v10c0 3.878 3.122 7 7 7h14c3.878 0 7-3.122 7-7V41c0-3.878-3.122-7-7-7H39zm0 2h14c1.022 0 1.968.306 2.758.828L46 46.586l-9.758-9.758A4.982 4.982 0 0 1 39 36zm-2.764.832c-.038.026-.073.056-.111.082.038-.027.073-.056.111-.082zm19.527 0c.039.026.074.055.112.082-.038-.026-.073-.056-.112-.082zm-20.254.59zm20.98 0zm-21.576.703c-.026.038-.056.073-.082.111.026-.038.056-.073.082-.111zm22.172 0c.027.038.057.073.082.111-.025-.038-.055-.073-.082-.111zm-22.258.117 7.04 7.04-7.126 8.314A4.966 4.966 0 0 1 34 51V41c0-1.022.306-1.968.828-2.758zm22.344 0c.522.79.828 1.736.828 2.758v10c0 .957-.28 1.84-.742 2.598l-7.125-8.317 7.04-7.039zM43.284 46.7 46 49.414l2.715-2.715 7.176 8.375a4.97 4.97 0 0 1-2.89.926H39a4.972 4.972 0 0 1-2.893-.928l7.177-8.373zm13.97 6.904zm-21.903.803zm21.297 0z"/></svg>