<svg xmlns="http://www.w3.org/2000/svg" width="64" height="64" viewBox="0 0 16.933 16.933"><defs><filter id="c" width="1.301" height="1.288" x="-.151" y="-.144" color-interpolation-filters="sRGB"><feGaussianBlur stdDeviation=".701"/></filter><filter id="a" width="1.061" height="1.061" x="-.031" y="-.031" color-interpolation-filters="sRGB"><feGaussianBlur stdDeviation=".768"/></filter><linearGradient id="b" x1="408.25" x2="407.94" y1="547.6" y2="498.89" gradientTransform="translate(-135.1 -175.55)scale(.35125)" gradientUnits="userSpaceOnUse"><stop offset="0" stop-color="#fff"/><stop offset="1" stop-color="#e6e6e6"/></linearGradient></defs><rect width="60" height="60" x="2" y="3" filter="url(#a)" opacity=".15" rx="30" ry="30" transform="scale(.26458)"/><rect width="15.874" height="15.874" x=".53" y=".53" fill="url(#b)" ry="7.937"/><g stroke-width="0" filter="url(#c)" opacity=".15"><path d="m8.423 2.584-.013.001h-.004l-.043.003-.038.005a1 1 0 0 0-.093.019l-.006.001a.8.8 0 0 0-.35.205L3.08 7.616A.765.765 0 0 0 3.062 8.7l.035.035a.765.765 0 0 0 1.084-.018l3.474-3.473v8.267c0 .431.347.778.778.778a.777.777 0 0 0 .78-.778V5.244l3.473 3.473a.765.765 0 0 0 1.084.018l.035-.035a.765.765 0 0 0-.017-1.084L8.99 2.818a.8.8 0 0 0-.347-.204l-.003-.001-.008-.002a1 1 0 0 0-.09-.018l-.038-.005-.028-.002H8.47l-.032-.002z" opacity="1"/><text xml:space="preserve" x="3.236" y="9.439" stroke="#000" stroke-linecap="round" font-family="Calibri" font-size="3.175" font-weight="700" opacity="1"><tspan x="3.236" y="9.439">PUPGUI</tspan></text><path d="m7.511 10.02-.105.106-.637.636.105.106.637-.637.532.531.105.106.106-.106.531-.53.637.636.106-.106.637-.636-.105-.106-.638.637-.637-.637-.637.637-.532-.531Z" opacity="1"/></g><path fill="#82f6a1" d="m8.423 2.584-.013.001h-.004l-.043.003-.038.005a1 1 0 0 0-.093.019l-.006.001a.8.8 0 0 0-.35.205L3.08 7.616A.765.765 0 0 0 3.062 8.7l.035.035a.765.765 0 0 0 1.084-.018l3.474-3.473v8.267c0 .431.347.778.778.778a.777.777 0 0 0 .78-.778V5.244l3.473 3.473a.765.765 0 0 0 1.084.018l.035-.035a.765.765 0 0 0-.017-1.084L8.99 2.818a.8.8 0 0 0-.347-.204l-.003-.001-.008-.002a1 1 0 0 0-.09-.018l-.038-.005-.028-.002H8.47l-.032-.002z"/><text xml:space="preserve" x="3.236" y="9.439" stroke="#000" stroke-linecap="round" stroke-width="0" font-family="Calibri" font-size="3.175" font-weight="700"><tspan x="3.236" y="9.439">PUPGUI</tspan></text><path fill="#fe9208" d="m7.511 10.02-.105.106-.637.636.105.106.637-.637.532.531.105.106.106-.106.531-.53.637.636.106-.106.637-.636-.105-.106-.638.637-.637-.637-.637.637-.532-.531Z"/></svg>