<svg xmlns="http://www.w3.org/2000/svg" width="64" height="64" fill="none" style="-webkit-print-color-adjust:exact"><defs><linearGradient id="c" x1="19.378" x2="54.202" y1="285.4" y2="186.95" gradientTransform="matrix(.14844 0 0 .14838 13 12.513)" gradientUnits="userSpaceOnUse"><stop offset="0" stop-color="#28B0E8"/><stop offset="1" stop-color="#C5B7FF" stop-opacity="0"/></linearGradient><linearGradient id="b" x1="7.937" x2="7.937" y1="15.081" y2="1.852" gradientTransform="translate(-2.286 -2.252)scale(4.0494)" gradientUnits="userSpaceOnUse"><stop offset="0" stop-color="#f1efeb"/><stop offset="1" stop-color="#fdfcfc"/></linearGradient><radialGradient id="d" cx="0" cy="0" r="1" gradientTransform="matrix(-32.498 -29.216 23.896 -26.561 47.138 53.627)" gradientUnits="userSpaceOnUse"><stop offset="0" stop-color="#E2DBFF"/><stop offset="1" stop-color="#6D4AFF"/></radialGradient><filter id="a" width="1.054" height="1.054" x="-.027" y="-.027" color-interpolation-filters="sRGB"><feGaussianBlur stdDeviation=".675"/></filter></defs><rect width="60" height="60" x="2" y="3" fill="#000" filter="url(#a)" opacity=".15" rx="30" ry="30"/><rect width="60" height="60" x="2" y="2" fill="url(#b)" rx="30" ry="30"/><path fill="#6d4aff" d="M31.913 12.5c-9.54 0-17.274 7.727-17.274 17.261v17.375a3.347 3.347 0 0 0 3.348 3.345h28.211a2.99 2.99 0 0 0 2.989-2.988V29.761c0-9.532-7.733-17.261-17.274-17.261m9.943 17.165-7.55 6.356a3.665 3.665 0 0 1-4.718 0l-7.55-6.356c0-5.393 4.376-9.766 9.773-9.766h.272c5.397 0 9.773 4.373 9.773 9.766"/><path fill="url(#c)" d="M31.913 12.5c-9.54 0-17.274 7.727-17.274 17.261v17.375a3.347 3.347 0 0 0 3.348 3.345h28.211a2.99 2.99 0 0 0 2.989-2.988V29.761c0-9.532-7.733-17.261-17.274-17.261m9.943 17.165-7.55 6.356a3.665 3.665 0 0 1-4.718 0l-7.55-6.356c0-5.393 4.376-9.766 9.773-9.766h.272c5.397 0 9.773 4.373 9.773 9.766"/><path fill="url(#d)" d="M34.311 36.098c-.786.636-2.832 1.528-4.721 0-1.888-1.529-5.807-4.907-7.531-6.405h.009l-.033-.028c0-5.393 4.374-9.766 9.77-9.766h.271c5.396 0 9.77 4.373 9.77 9.766l-.033.028h.03v20.788h4.342a2.99 2.99 0 0 0 2.989-2.987V29.761c0-9.532-7.73-17.261-17.267-17.261S14.64 20.228 14.64 29.761v1.091l10.679 9.179c.787.749 2.855 1.797 4.833 0a137 137 0 0 0 4.159-3.933"/></svg>