<?xml version="1.0" encoding="UTF-8"?>
<svg width="64" height="64" version="1.1" xmlns="http://www.w3.org/2000/svg" xmlns:cc="http://creativecommons.org/ns#" xmlns:dc="http://purl.org/dc/elements/1.1/" xmlns:rdf="http://www.w3.org/1999/02/22-rdf-syntax-ns#">
 <metadata>
  <rdf:RDF>
   <cc:Work rdf:about="">
    <dc:format>image/svg+xml</dc:format>
    <dc:type rdf:resource="http://purl.org/dc/dcmitype/StillImage"/>
    <dc:title/>
   </cc:Work>
  </rdf:RDF>
 </metadata>
 <defs>
  <linearGradient id="b" x1="399.57" x2="399.57" y1="545.8" y2="517.8" gradientTransform="matrix(2.1429 0 0 2.1429 -826.36 -1107.5)" gradientUnits="userSpaceOnUse">
   <stop stop-color="#3889e9" offset="0"/>
   <stop stop-color="#5ea5fb" offset="1"/>
  </linearGradient>
  <filter id="c" x="-.036" y="-.036" width="1.072" height="1.072" color-interpolation-filters="sRGB">
   <feGaussianBlur stdDeviation="0.41999874"/>
  </filter>
  <linearGradient id="a" x1="-5.5393" x2="47.206" y1="88.145" y2="87.672" gradientTransform="rotate(-90 -.94846 55.009)" gradientUnits="userSpaceOnUse">
   <stop stop-color="#3d6283" offset="0"/>
   <stop stop-color="#5685b1" offset="1"/>
  </linearGradient>
  <filter id="d" x="-.048462" y="-.07875" width="1.0969" height="1.1575" color-interpolation-filters="sRGB">
   <feGaussianBlur stdDeviation="0.72187499"/>
  </filter>
 </defs>
 <circle transform="matrix(2.1429 0 0 2.1429 -826.36 -1107.5)" cx="400.57" cy="531.8" r="14" filter="url(#c)" opacity=".25" stroke-width=".73333"/>
 <g stroke-width="1.5715">
  <circle cx="32.02" cy="32.044" r="30.001" fill="url(#a)"/>
  <circle cx="32.02" cy="32.044" r="30.001" fill-opacity="0"/>
  <circle cx="32.02" cy="32.044" r="0" fill="url(#b)"/>
 </g>
 <path d="m29.938 21c-2.42 0.0014-4.8125 2.1065-4.8125 5.5h-1.375c-1.5194 0-2.75 1.5386-2.75 3.4375v2.0625h-2.0625c-2.6579 0-4.8125 2.1546-4.8125 4.8125s1.8164 4.8125 4.125 4.8125c1.375 0 2.3966-0.70675 2.75-1.375 1.0175 1.375 3.6204 2.75 5.5 2.75 2.0254 0 4.1937-1.2017 5.5-2.75 1.0395 1.5359 2.409 2.75 4.125 2.75 2.2674 0 4.125-0.80575 5.5-2.75 1.0065 0.90337 1.397 1.3736 2.75 1.375 3.0374 0.0014 5.5-2.4626 5.5-5.5s-2.4626-5.5014-5.5-5.5c-0.98175 0-2.0804 0.62975-2.75 1.375 0-3.5186-1.9113-5.5-5.5-5.5h-1.375c0-4.125-2.4736-5.5014-4.8125-5.5zm0.6875 6.875h5.5v1.375l-4.125 1.375c-0.0014 2.013-0.0041 4.3134 0 5.1838 0.0055 1.2911-1.1289 2.5108-2.7184 2.9233-1.8562 0.48262-3.6809-0.29425-4.0782-1.7339-0.39738-1.441 0.78237-3.0002 2.64-3.4801 0.97212-0.253 1.9869-0.16363 2.7816 0.24062z" filter="url(#d)" opacity=".15" stroke-width="1.375"/>
 <path d="m29.938 21c-2.42 0.0014-4.8125 2.1065-4.8125 5.5h-1.375c-1.5194 0-2.75 1.5386-2.75 3.4375v2.0625h-2.0625c-2.6579 0-4.8125 2.1546-4.8125 4.8125s1.8164 4.8125 4.125 4.8125c1.375 0 2.3966-0.70675 2.75-1.375 1.0175 1.375 3.6204 2.75 5.5 2.75 2.0254 0 4.1937-1.2017 5.5-2.75 1.0395 1.5359 2.409 2.75 4.125 2.75 2.2674 0 4.125-0.80575 5.5-2.75 1.0065 0.90337 1.397 1.3736 2.75 1.375 3.0374 0.0014 5.5-2.4626 5.5-5.5s-2.4626-5.5014-5.5-5.5c-0.98175 0-2.0804 0.62975-2.75 1.375 0-3.5186-1.9113-5.5-5.5-5.5h-1.375c0-4.125-2.4736-5.5014-4.8125-5.5zm0.6875 6.875h5.5v1.375l-4.125 1.375c-0.0014 2.013-0.0041 4.3134 0 5.1838 0.0055 1.2911-1.1289 2.5108-2.7184 2.9233-1.8562 0.48262-3.6809-0.29425-4.0782-1.7339-0.39738-1.441 0.78237-3.0002 2.64-3.4801 0.97212-0.253 1.9869-0.16363 2.7816 0.24062z" fill="#f9f9f9" stroke-width="1.375"/>
</svg>
