<svg width="64" height="64" version="1.1" xmlns="http://www.w3.org/2000/svg">
 <defs>
  <filter id="filter919" x="-.03888" y="-.03888" width="1.0778" height="1.0778" color-interpolation-filters="sRGB">
   <feGaussianBlur stdDeviation="0.7296804"/>
  </filter>
  <filter id="filter932" x="-.12695" y="-.093971" width="1.2539" height="1.1879" color-interpolation-filters="sRGB">
   <feGaussianBlur stdDeviation="1.6738562"/>
  </filter>
 </defs>
 <linearGradient id="c" x1="409.4" x2="409.7" y1="546.32" y2="501.28" gradientTransform="matrix(1.3321,0,0,1.3321,-512.25,-665.75)" gradientUnits="userSpaceOnUse">
  <stop stop-color="#0c89ca" offset="0"/>
  <stop stop-color="#00ebfa" offset="1"/>
 </linearGradient>
 <linearGradient id="f" x1="409.83" x2="410.06" y1="539.74" y2="507.72" gradientTransform="matrix(1.3321,0,0,1.3321,-512.25,-665.75)" gradientUnits="userSpaceOnUse">
  <stop stop-color="#f4f4f4" offset="0"/>
  <stop stop-color="#fff" offset="1"/>
 </linearGradient>
 <rect transform="matrix(1.3321,0,0,1.3321,-512.25,-665.75)" x="386.05" y="501.28" width="45.042" height="45.042" ry="22.521" fill="#000000" filter="url(#filter919)" opacity=".15"/>
 <rect x="2.0072" y="2.0051" width="60" height="60" ry="30" fill="url(#c)" stroke-width="1.3321"/>
 <path d="m40.678 11.128-0.63142 0.07593c-0.26376 0.03197-0.33302 1.2202-0.15719 2.6629l3.9244 32.164a2.6828 2.6828 0 0 0-1.5825 2.7721 2.6828 2.6828 0 0 0 2.9892 2.3418 2.6828 2.6828 0 0 0 2.3392-2.9892 2.6828 2.6828 0 0 0-2.158-2.3112l-3.927-32.17c-0.17584-1.4427-0.53284-2.5776-0.7966-2.5456zm-11.884 1.3348-0.63674 0.07593c-0.26376 0.0333-0.33169 1.2255-0.15452 2.6722l0.14387 1.1989a2.6908 2.6908 0 0 0-1.5799 2.7854 2.6908 2.6908 0 0 0 2.2033 2.3232l3.4675 28.43c0.17717 1.4467 0.53284 2.5856 0.7966 2.5536l0.63674-0.07993c0.26376-0.03197 0.33169-1.2229 0.15452-2.6695l-3.4675-28.44a2.6908 2.6908 0 0 0 1.5506-2.7694 2.6908 2.6908 0 0 0-2.1713-2.3152l-0.1492-1.2122c-0.17584-1.448-0.53018-2.5843-0.79393-2.5523zm-11.965 1.3734-0.63674 0.07726c-0.26509 0.03064-0.33702 1.2242-0.15985 2.6709l2.7654 22.671a2.6908 2.6908 0 0 0-1.5719 2.7828 2.6908 2.6908 0 0 0 2.198 2.3205l0.84855 6.9602c0.17584 1.4467 0.53284 2.5896 0.7966 2.5576l0.63408-0.08259c0.26376-0.03197 0.33702-1.2255 0.15985-2.6709l-0.85121-6.9695a2.6908 2.6908 0 0 0 1.5559-2.7708 2.6908 2.6908 0 0 0-2.1753-2.3179l-2.7708-22.676c-0.17584-1.4467-0.52884-2.5843-0.7926-2.5523z" fill="#000000" filter="url(#filter932)" opacity=".15" stroke-width="1.3321"/>
 <path d="m40.931 10.624-0.63142 0.07593c-0.26376 0.03197-0.33302 1.2202-0.15719 2.6629l3.9244 32.164a2.6828 2.6828 0 0 0-1.5825 2.7721 2.6828 2.6828 0 0 0 2.9892 2.3418 2.6828 2.6828 0 0 0 2.3392-2.9892 2.6828 2.6828 0 0 0-2.158-2.3112l-3.927-32.17c-0.17584-1.4427-0.53284-2.5776-0.7966-2.5456zm-11.884 1.3348-0.63674 0.07593c-0.26376 0.0333-0.33169 1.2255-0.15452 2.6722l0.14387 1.1989a2.6908 2.6908 0 0 0-1.5799 2.7854 2.6908 2.6908 0 0 0 2.2033 2.3232l3.4675 28.43c0.17717 1.4467 0.53284 2.5856 0.7966 2.5536l0.63674-0.07993c0.26376-0.03197 0.33169-1.2229 0.15452-2.6695l-3.4675-28.44a2.6908 2.6908 0 0 0 1.5506-2.7694 2.6908 2.6908 0 0 0-2.1713-2.3152l-0.1492-1.2122c-0.17584-1.448-0.53018-2.5843-0.79393-2.5523zm-11.965 1.3734-0.63674 0.07726c-0.26509 0.03064-0.33702 1.2242-0.15985 2.6709l2.7654 22.671a2.6908 2.6908 0 0 0-1.5719 2.7828 2.6908 2.6908 0 0 0 2.198 2.3205l0.84855 6.9602c0.17584 1.4467 0.53284 2.5896 0.7966 2.5576l0.63408-0.08259c0.26376-0.03197 0.33702-1.2255 0.15985-2.6709l-0.85121-6.9695a2.6908 2.6908 0 0 0 1.5559-2.7708 2.6908 2.6908 0 0 0-2.1753-2.3179l-2.7708-22.676c-0.17584-1.4467-0.52884-2.5843-0.7926-2.5523z" fill="url(#f)" stroke-width="1.3321"/>
</svg>
