<svg xmlns="http://www.w3.org/2000/svg" width="64" height="64"><defs><linearGradient id="b" x1="519.2" x2="519.2" y1="1024.8" y2="4.8" gradientTransform="matrix(.06359 0 0 .06358 -.556 -.553)" gradientUnits="userSpaceOnUse"><stop offset="0" stop-color="#606060"/><stop offset=".02" stop-color="#414141"/><stop offset="1" stop-color="#1e1e1e"/></linearGradient><linearGradient id="d" x1="409.57" x2="409.94" y1="542.8" y2="504.19" gradientTransform="matrix(1.0523 0 0 1.0276 -72.568 -8.693)" gradientUnits="userSpaceOnUse"><stop offset="0" stop-color="#86d0fb"/><stop offset="1" stop-color="#2794f5"/></linearGradient><linearGradient id="f" x1="386.59" x2="414.49" y1="532.97" y2="530.59" gradientTransform="matrix(.85717 0 0 .85719 -291.43 -412.07)" gradientUnits="userSpaceOnUse"><stop offset="0" stop-color="#fff"/><stop offset="1" stop-color="#ebebeb"/></linearGradient><linearGradient id="g" x1="48.5" x2="48.5" y1="39" y2="58" gradientTransform="matrix(.17231 0 0 .17025 15.651 -105.11)" gradientUnits="userSpaceOnUse"><stop offset="0" stop-color="#1769cc"/><stop offset="1" stop-color="#5ee6fb"/></linearGradient><filter id="a" width="1.072" height="1.072" x="-.036" y="-.036" color-interpolation-filters="sRGB"><feGaussianBlur stdDeviation=".42"/></filter><filter id="c" width="1.063" height="1.084" x="-.032" y="-.042" color-interpolation-filters="sRGB"><feGaussianBlur stdDeviation=".611"/></filter><filter id="e" width="1.12" height="1.12" x="-.06" y="-.06" color-interpolation-filters="sRGB"><feGaussianBlur stdDeviation=".7"/></filter></defs><circle cx="400.57" cy="531.8" r="14" filter="url(#a)" opacity=".25" transform="translate(-826.36 -1107.5) scale(2.1429)"/><circle cx="32.02" cy="32.044" r="30.001" fill="none"/><path fill="url(#b)" d="M50.249 8.193q-3.86-2.972-8.444-4.556Q37.068 2 32.003 2C15.433 2 2 15.432 2 32.001c0 15.158 11.245 27.684 25.845 29.71a31.977 31.977 0 0 0 4.158.29C48.57 61.999 62 48.567 62 32c0-1.31-.082-2.604-.244-3.866a29.932 29.932 0 0 0-.884-4.305q-1.33-4.69-4.082-8.726-2.722-3.977-6.54-6.912z"/><g transform="matrix(.46586 -.05557 .05726 .45209 -211.41 -156.63)"><rect width="46.303" height="34.939" x="334.23" y="513.13" filter="url(#c)" opacity=".75" ry="1.644" transform="matrix(1.735 .21325 -.21325 1.735 -46.117 -529.76)"/><rect width="46.303" height="34.939" x="334.23" y="513.13" fill="url(#d)" ry="1.644" transform="matrix(1.735 .21325 -.21325 1.735 -46.117 -529.76)"/><g fill="#d5ffff" transform="rotate(7.007)"><ellipse cx="498.35" cy="384.49" rx="3.196" ry="3.293"/><ellipse cx="489.83" cy="384.49" rx="3.196" ry="3.293"/><ellipse cx="481.31" cy="384.49" rx="3.196" ry="3.293"/></g></g><g transform="matrix(.46586 -.05557 .05726 .45209 -206.41 -149.63)"><rect width="46.303" height="34.939" x="334.23" y="513.13" filter="url(#c)" opacity=".75" ry="1.644" transform="matrix(1.735 .21325 -.21325 1.735 -46.117 -529.76)"/><rect width="46.303" height="34.939" x="334.23" y="513.13" fill="url(#d)" ry="1.644" transform="matrix(1.735 .21325 -.21325 1.735 -46.117 -529.76)"/><g fill="#d5ffff" transform="rotate(7.007)"><ellipse cx="498.35" cy="384.49" rx="3.196" ry="3.293"/><ellipse cx="489.83" cy="384.49" rx="3.196" ry="3.293"/><ellipse cx="481.31" cy="384.49" rx="3.196" ry="3.293"/></g></g><circle cx="400.57" cy="531.8" r="14" filter="url(#e)" opacity=".25" transform="matrix(.85409 .07257 -.07283 .85409 -255.37 -435.26)"/><path fill="url(#f)" d="M63.929 43.781a12 12.001 0 0 1-12 12.001 12 12.001 0 0 1-12-12.001 12 12.001 0 0 1 12-12.001 12 12.001 0 0 1 12 12.001z" transform="rotate(4.856) skewX(-.017)"/><path fill="url(#g)" d="m50 39-7 11h6l-2 8 7-11h-6z"/></svg>