<svg xmlns="http://www.w3.org/2000/svg" width="64" height="64" viewBox="0 0 16.933 16.933"><defs><linearGradient id="a" x1="7.937" x2="7.937" y1="15.081" y2="1.852" gradientTransform="translate(-6.867 4.82)scale(1.07138)" gradientUnits="userSpaceOnUse"><stop offset="0" stop-color="#f1efeb"/><stop offset="1" stop-color="#fdfcfc"/></linearGradient><linearGradient id="b" x1="11.984" x2="21.047" y1="12.321" y2="21.383" gradientTransform="translate(-6.03 5.572)scale(.49854)" gradientUnits="userSpaceOnUse"><stop offset="0" stop-color="#ffb551"/><stop offset="1" stop-color="#ffd374" stop-opacity=".914"/></linearGradient><linearGradient id="c" x1="11.984" x2="21.047" y1="12.321" y2="21.383" gradientTransform="translate(-6.03 5.572)scale(.49854)" gradientUnits="userSpaceOnUse"><stop offset="0" stop-color="#ffa935"/><stop offset="1" stop-color="#ffd986" stop-opacity=".914"/></linearGradient><linearGradient id="d" x1="16.262" x2="9.799" y1="18.568" y2="8.814" gradientTransform="translate(-6.03 5.572)scale(.49854)" gradientUnits="userSpaceOnUse"><stop offset="0" stop-color="#237df5"/><stop offset="1" stop-color="#32bfe6" stop-opacity=".918"/></linearGradient></defs><g transform="translate(6.263 -5.416)"><rect width="16.933" height="16.933" x="-6.263" y="5.416" fill="none" rx="0" ry="0" style="paint-order:stroke fill markers"/><rect width="15.875" height="15.875" x="-5.733" y="5.945" fill="url(#a)" rx="7.937" ry="7.937" style="fill:url(#a);stroke-width:1.07138"/><path fill="url(#b)" stroke="#fff" stroke-opacity=".809" stroke-width=".188" d="M1.922 9.456c-1.095 0-1.977.63-1.977 1.412v.847h-.847c-.782 0-1.412.882-1.412 1.977v.564c0 1.095.63 1.977 1.412 1.977h.847v.847c0 .782.882 1.412 1.977 1.412h.564c1.095 0 1.977-.63 1.977-1.412v-.847h.847c.783 0 1.412-.882 1.412-1.977v-.564c0-1.095-.63-1.977-1.412-1.977h-.847v-.847c0-.782-.882-1.412-1.977-1.412zm1.828 4.438a1.1 1.1 0 0 1-.366.077c.072-.005.21-.023.366-.077Zm-2.728.082a1.5 1.5 0 0 0-.375.081 1.1 1.1 0 0 1 .375-.08Z" style="display:inline;fill:url(#b)" transform="translate(-.228 -2.653)scale(1.18555)"/><path fill="url(#c)" d="M4.463 11.715v1.13c0 .625-.504 1.129-1.13 1.129H1.076s-1.13 0-1.13 1.13v1.976c0 .782.882 1.412 1.977 1.412h.564c1.095 0 1.977-.63 1.977-1.412v-.847h.847c.782 0 1.412-.882 1.412-1.977v-.564c0-1.095-.63-1.977-1.412-1.977z" style="display:inline;fill:url(#c)" transform="translate(-.228 -2.653)scale(1.18555)"/><path fill="url(#d)" d="M1.922 9.456c-1.095 0-1.977.63-1.977 1.412v.847h-.847c-.782 0-1.412.882-1.412 1.976v.565c0 1.095.63 1.977 1.412 1.977h.847v-1.13c0-.625.504-1.13 1.13-1.13h2.258s1.13 0 1.13-1.129v-1.976c0-.783-.882-1.412-1.977-1.412z" style="fill:url(#d)" transform="translate(-.228 -2.653)scale(1.18555)"/><g fill-opacity=".091" color="#000"><path d="M4.416 11.62a.094.094 0 0 0-.094.094v.188c0 .052.042.094.094.095h.847c.355 0 .68.2.923.538.242.34.395.815.395 1.344.007.118.18.118.188 0v-.188c0-.565-.162-1.078-.43-1.454-.269-.375-.65-.617-1.076-.617z" opacity=".043" style="font-variant-ligatures:normal;font-variant-position:normal;font-variant-caps:normal;font-variant-numeric:normal;font-variant-alternates:normal;font-feature-settings:normal;text-indent:0;text-decoration-line:none;text-decoration-style:solid;text-decoration-color:#000;text-transform:none;text-orientation:mixed;white-space:normal;shape-padding:0;isolation:auto;mix-blend-mode:normal" transform="translate(-.228 -2.653)scale(1.18555)"/><path d="M1.875 9.456c-1.095 0-1.977.63-1.977 1.412v.847h-.847c-.782 0-1.412.882-1.412 1.977v.564c0 1.095.63 1.977 1.412 1.977h.847v.847c0 .782.882 1.412 1.977 1.412h.564c1.095 0 1.977-.63 1.977-1.412v-.847h.847c.782 0 1.412-.882 1.412-1.977v-.564c0-1.095-.63-1.977-1.412-1.977h-.847v-.847c0-.782-.882-1.412-1.977-1.412zm0 .075h.564c.533 0 1.013.153 1.355.398s.547.576.547.939v.847c0 .041.033.075.074.075h.848c.363 0 .694.204.938.546.245.343.4.822.4 1.356v.564c0 .533-.155 1.013-.4 1.356-.244.342-.575.546-.938.546h-.848a.075.075 0 0 0-.074.075v.847c0 .363-.204.694-.547.939-.342.244-.822.398-1.355.398h-.565c-.533 0-1.013-.154-1.355-.398s-.547-.576-.547-.939v-.847a.075.075 0 0 0-.075-.075H-.95c-.363 0-.693-.204-.937-.546s-.4-.823-.4-1.356v-.564c0-.534.155-1.013.4-1.356.244-.342.574-.546.937-.546h.847a.075.075 0 0 0 .075-.075v-.847c0-.363.204-.694.547-.939.342-.245.822-.398 1.355-.398" opacity=".426" style="font-variant-ligatures:normal;font-variant-position:normal;font-variant-caps:normal;font-variant-numeric:normal;font-variant-alternates:normal;font-feature-settings:normal;text-indent:0;text-decoration-line:none;text-decoration-style:solid;text-decoration-color:#000;text-transform:none;text-orientation:mixed;white-space:normal;shape-padding:0;isolation:auto;mix-blend-mode:normal" transform="translate(-.228 -2.653)scale(1.18555)"/><path d="M1.875 9.456c-1.095 0-1.977.63-1.977 1.412v.847h-.847c-.782 0-1.412.882-1.412 1.977v.564c0 1.095.63 1.977 1.412 1.977h.847v.847c0 .782.882 1.412 1.977 1.412h.564c1.095 0 1.977-.63 1.977-1.412v-.847h.847c.782 0 1.412-.882 1.412-1.977v-.564c0-1.095-.63-1.977-1.412-1.977h-.847v-.847c0-.782-.882-1.412-1.977-1.412zm0 .125h.564c.523 0 .993.151 1.326.39.333.237.526.552.526.897v.847c0 .069.056.124.124.124h.848c.344 0 .66.193.897.526.238.333.39.803.39 1.327v.564c0 .524-.152.994-.39 1.327-.237.332-.553.525-.897.525h-.848a.124.124 0 0 0-.124.125v.847c0 .345-.193.66-.526.898-.333.237-.802.39-1.326.39h-.565c-.523 0-.993-.153-1.326-.39s-.526-.553-.526-.898v-.847a.125.125 0 0 0-.125-.125H-.95c-.344 0-.66-.193-.897-.525-.238-.333-.39-.803-.39-1.327v-.564c0-.524.152-.994.39-1.327.237-.333.553-.526.897-.526h.847a.125.125 0 0 0 .125-.124v-.847c0-.345.193-.66.526-.898s.803-.39 1.326-.39" opacity=".426" style="font-variant-ligatures:normal;font-variant-position:normal;font-variant-caps:normal;font-variant-numeric:normal;font-variant-alternates:normal;font-feature-settings:normal;text-indent:0;text-decoration-line:none;text-decoration-style:solid;text-decoration-color:#000;text-transform:none;text-orientation:mixed;white-space:normal;shape-padding:0;isolation:auto;mix-blend-mode:normal" transform="translate(-.228 -2.653)scale(1.18555)"/><path d="M1.875 9.456c-1.095 0-1.977.63-1.977 1.412v.847h-.847c-.782 0-1.412.882-1.412 1.977v.564c0 1.095.63 1.977 1.412 1.977h.847v.847c0 .782.882 1.412 1.977 1.412h.564c1.095 0 1.977-.63 1.977-1.412v-.847h.847c.782 0 1.412-.882 1.412-1.977v-.564c0-1.095-.63-1.977-1.412-1.977h-.847v-.847c0-.782-.882-1.412-1.977-1.412zm0 .2h.564c.51 0 .965.147 1.283.374.318.228.494.522.494.838v.847c0 .11.09.2.2.2h.847c.316 0 .61.175.837.493s.376.774.376 1.284v.564c0 .51-.149.965-.376 1.283-.227.319-.521.494-.837.494h-.848a.2.2 0 0 0-.199.2v.847c0 .316-.176.61-.494.836-.318.227-.774.376-1.283.376h-.565c-.509 0-.964-.149-1.282-.376s-.495-.52-.495-.836v-.847a.2.2 0 0 0-.2-.2H-.95c-.876-.104-1.204-1.083-1.212-1.777v-.565c0-.509.149-.965.376-1.283s.52-.494.836-.494h.847a.2.2 0 0 0 .2-.2v-.846c0-.316.177-.61.495-.838s.773-.374 1.282-.374" opacity=".426" style="font-variant-ligatures:normal;font-variant-position:normal;font-variant-caps:normal;font-variant-numeric:normal;font-variant-alternates:normal;font-feature-settings:normal;text-indent:0;text-decoration-line:none;text-decoration-style:solid;text-decoration-color:#000;text-transform:none;text-orientation:mixed;white-space:normal;shape-padding:0;isolation:auto;mix-blend-mode:normal" transform="translate(-.228 -2.653)scale(1.18555)"/><path d="M1.875 9.456c-1.095 0-1.977.63-1.977 1.412v.847h-.847c-.782 0-1.412.882-1.412 1.977v.564c0 1.095.63 1.977 1.412 1.977h.847v.847c0 .782.882 1.412 1.977 1.412h.564c1.095 0 1.977-.63 1.977-1.412v-.847h.847c.782 0 1.412-.882 1.412-1.977v-.564c0-1.095-.63-1.977-1.412-1.977h-.847v-.847c0-.782-.882-1.412-1.977-1.412zm0 .299h.564c.49 0 .926.144 1.225.357.298.213.453.477.453.756v.847a.3.3 0 0 0 .298.299h.848c.279 0 .543.154.756.453.213.298.357.734.357 1.225v.564c0 .49-.144.927-.357 1.225s-.477.453-.756.453h-.848a.3.3 0 0 0-.298.299v.847c0 .279-.155.543-.453.756s-.735.357-1.225.357h-.565c-.49 0-.926-.144-1.225-.357-.298-.213-.452-.477-.452-.756v-.847a.3.3 0 0 0-.3-.3H-.95c-.278 0-.542-.153-.755-.452-.213-.298-.357-.735-.357-1.225v-.564c0-.49.144-.927.357-1.225s.477-.453.755-.453h.847a.3.3 0 0 0 .3-.3v-.846c0-.279.154-.543.452-.756s.735-.357 1.225-.357" opacity=".426" style="font-variant-ligatures:normal;font-variant-position:normal;font-variant-caps:normal;font-variant-numeric:normal;font-variant-alternates:normal;font-feature-settings:normal;text-indent:0;text-decoration-line:none;text-decoration-style:solid;text-decoration-color:#000;text-transform:none;text-orientation:mixed;white-space:normal;shape-padding:0;isolation:auto;mix-blend-mode:normal" transform="translate(-.228 -2.653)scale(1.18555)"/></g></g></svg>