<?xml version="1.0" encoding="UTF-8"?>
<svg width="64" height="64" version="1.1" xmlns="http://www.w3.org/2000/svg" xmlns:xlink="http://www.w3.org/1999/xlink">
 <defs>
  <linearGradient id="a" x2="0" y1="44" y2="4" gradientTransform="matrix(1.5,0,0,1.5,-4,-4)" gradientUnits="userSpaceOnUse">
   <stop stop-color="#7cbaf8" offset="0"/>
   <stop stop-color="#f4fcff" offset="1"/>
  </linearGradient>
  <linearGradient id="b" x2="0" y1="39" y2="9" gradientTransform="matrix(1.5429 0 0 1.8 -11.971 -3024.2)" gradientUnits="userSpaceOnUse">
   <stop stop-color="#197cf1" offset="0"/>
   <stop stop-color="#20bcfa" offset="1"/>
  </linearGradient>
  <filter id="h" x="-.036" y="-.036" width="1.072" height="1.072" color-interpolation-filters="sRGB">
   <feGaussianBlur stdDeviation="0.6"/>
  </filter>
  <linearGradient id="linearGradient1371" x1="41.586" x2="41.586" y1="57.074" y2="12.256" gradientUnits="userSpaceOnUse" xlink:href="#a"/>
  <filter id="filter1572" x="-.042857" y="-.054545" width="1.0857" height="1.1091" color-interpolation-filters="sRGB">
   <feGaussianBlur stdDeviation="0.75"/>
  </filter>
 </defs>
 <g fill-rule="evenodd">
  <path transform="matrix(1.5,0,0,1.5,-4,-4)" d="m44 24a20 20 0 0 1-20 20 20 20 0 0 1-20-20 20 20 0 0 1 20-20 20 20 0 0 1 20 20" color="#000000" filter="url(#h)" opacity=".25" stroke-width="1.3333"/>
  <path d="m62 32a30 30 0 0 1-30 30 30 30 0 0 1-30-30 30 30 0 0 1 30-30 30 30 0 0 1 30 30" color="#000000" fill="url(#a)" stroke-width="2"/>
  <path d="m32 5c-14.912 0-27 12.09-27 27 0 14.912 12.09 27 27 27 14.912 0 27-12.09 27-27 0-14.912-12.09-27-27-27" color="#000000" fill="url(#b)" stroke-width="2"/>
  <path d="m33.5 16h3v9.12c1.7598-1.053 3.8538-1.6184 6-1.6202 5.799 0 10.5 4.0294 10.5 9s-4.701 9-10.5 9c-2.1473-0.0043-4.2414-0.57281-6-1.6288v3.129h-3zm-6 6h3v27h-3v-9.12c-1.7598 1.053-3.8538 1.6184-6 1.6202-5.799 0-10.5-4.0294-10.5-9s4.701-9 10.5-9c2.1473 0.0043 4.2414 0.57281 6 1.6288zm-6 4.5c-4.1421 0-7.5 2.6863-7.5 6s3.3579 6 7.5 6c2.3638-0.0033 4.5873-0.89795 6-2.4141v-7.1745c-1.4135-1.515-3.6369-2.4085-6-2.4111m21 0c-2.3638 0.0033-4.5873 0.89795-6 2.4141v7.1745c1.4135 1.515 3.6369 2.4085 6 2.4111 4.1421 0 7.5-2.6863 7.5-6s-3.3579-6-7.5-6" color="#000000" filter="url(#filter1572)" opacity=".15"/>
  <path d="m33.5 15.5h3v9.12c1.7598-1.053 3.8538-1.6184 6-1.6202 5.799 0 10.5 4.0294 10.5 9s-4.701 9-10.5 9c-2.1473-0.0043-4.2414-0.57281-6-1.6288v3.129h-3zm-6 6h3v27h-3v-9.12c-1.7598 1.053-3.8538 1.6184-6 1.6202-5.799 0-10.5-4.0294-10.5-9s4.701-9 10.5-9c2.1473 0.0043 4.2414 0.57281 6 1.6288zm-6 4.5c-4.1421 0-7.5 2.6863-7.5 6s3.3579 6 7.5 6c2.3638-0.0033 4.5873-0.89795 6-2.4141v-7.1745c-1.4135-1.515-3.6369-2.4085-6-2.4111m21 0c-2.3638 0.0033-4.5873 0.89795-6 2.4141v7.1745c1.4135 1.515 3.6369 2.4085 6 2.4111 4.1421 0 7.5-2.6863 7.5-6s-3.3579-6-7.5-6" color="#000000" fill="url(#linearGradient1371)"/>
 </g>
</svg>
