<svg width="64" height="64" version="1.1" xmlns="http://www.w3.org/2000/svg">
 <defs>
  <filter id="c" x="-.036" y="-.036" width="1.072" height="1.072" color-interpolation-filters="sRGB">
   <feGaussianBlur stdDeviation="14.343749"/>
  </filter>
  <linearGradient id="a" x1="-17.857" x2="-18.241" y1="-2.9857" y2="57.398" gradientTransform="translate(75.051 4.8175)" gradientUnits="userSpaceOnUse">
   <stop stop-color="#fbc83d" offset="0"/>
   <stop stop-color="#f06836" offset="1"/>
  </linearGradient>
  <filter id="b" x="-.059824" y="-.060177" width="1.1196" height="1.1204" color-interpolation-filters="sRGB">
   <feGaussianBlur stdDeviation="0.97539128"/>
  </filter>
 </defs>
 <circle transform="matrix(.062745 0 0 .062745 -.12549 -.12549)" cx="512" cy="512" r="478.12" filter="url(#c)" opacity=".25" stroke-width="15.938" style="paint-order:stroke markers fill"/>
 <circle cx="32" cy="32" r="30" fill="url(#a)" style="paint-order:stroke markers fill"/>
 <path d="m32 12.55a19.565 19.565 0 0 0-19.565 19.565 19.565 19.565 0 0 0 13.393 18.548c-1.8104-5.0217-3.1996-12.779-4.0409-16.505-0.4187-1.6513-0.16957-3.2948 0.11478-4.95 0.57391-1.7191 0.76304-3.51 1.5483-5.1652 1.1987-1.0317 1.2274-2.91 2.3896-3.8113 0.17348 0.10304 0.28956 0.14478 0.37044 0.18391l0.1213 0.01304h0.01304c0.16696-0.17478-1.6278-1.9983 0.03522-1.2783 0.06522-0.95739 1.5678-0.22565 1.59-1.0643v-0.0026c0.73044 0.60522 0.59348 0.35217 1.5783 0.24 1.1152-0.70956 1.6357 1.6826 2.1 0.34826 1.3722 0.17348 2.8291 0.60652 4.1257 1.0422 1.3057 0.27913 2.537 1.0122 3.4109 2.0191h-0.02609l0.64043 0.83478c0.07957 0.14348 0.15783 0.29348 0.22304 0.44348 0.25826 2.1509 2.713 2.1209 4.3565 2.8983 1.4061 0.48522 3.1004 1.2235 3.2739 2.8761-0.35478-0.07565-1.727-1.6396-2.807-1.7961-0.64956-0.03914-1.3513-0.21783-2.0061-0.45522l-3.793-0.67957v-0.01304c-0.18522-0.02609-0.38087-0.05217-0.56478-0.0913v0.01304l-5.3674-0.64304c0.08739 0.0587 0.18391 0.13826 0.2687 0.21652l5.5043 1.0422v-0.01044l0.38087 0.09391 1.5391 0.33652c0.30522 0.02739 0.61044 0.07565 0.86348 0.12522 1.5691 0.41478 3.4252 0.33913 4.7165 1.4087-0.34044 0.62739-2.2174 0.2713-3.1552 0.19044-0.11478-0.02087-0.24-0.03391-0.35348-0.06-0.02609 0-0.03913-0.01304-0.06522-0.01304-1.2783-0.19565-2.5826-0.2087-3.8152 0.16043-0.0026 0-0.0091-0.0013-0.01304 0-0.42391 0.12783-0.83478 0.31044-1.23 0.53739-1.7765 1.0043-3.9652 1.3709-5.4417 2.8174-1.4348 1.5065-1.3565 3.5909-1.1048 5.5239h0.06v0.49304c0.02348 0.16956 0.05087 0.33652 0.07435 0.50217 0.7487 3.9104 2.7496 7.4987 3.3704 11.446 0.03913 0.47217 0.10435 1.003 0.15652 1.5209a19.565 19.565 0 0 0 16.696-19.336 19.565 19.565 0 0 0-19.565-19.565zm3.0209 9.4304c-0.59217 0.01565-1.0513 0.23087-1.1817 0.5987-0.2087 0.58826 0.50217 1.3487 1.59 1.71 1.0878 0.37174 2.1404 0.19565 2.3517-0.39261 0.2087-0.58826-0.49826-1.3578-1.5939-1.7243-0.40435-0.13696-0.81-0.19957-1.1661-0.19174z" filter="url(#b)" opacity=".15"/>
 <path d="m32 12.55a19.565 19.565 0 0 0-19.565 19.565 19.565 19.565 0 0 0 13.393 18.548c-1.8104-5.0217-3.1996-12.779-4.0409-16.505-0.4187-1.6513-0.16957-3.2948 0.11478-4.95 0.57391-1.7191 0.76304-3.51 1.5483-5.1652 1.1987-1.0317 1.2274-2.91 2.3896-3.8113 0.17348 0.10304 0.28956 0.14478 0.37044 0.18391l0.1213 0.01304h0.01304c0.16696-0.17478-1.6278-1.9983 0.03522-1.2783 0.06522-0.95739 1.5678-0.22565 1.59-1.0643v-0.0026c0.73044 0.60522 0.59348 0.35217 1.5783 0.24 1.1152-0.70956 1.6357 1.6826 2.1 0.34826 1.3722 0.17348 2.8291 0.60652 4.1257 1.0422 1.3057 0.27913 2.537 1.0122 3.4109 2.0191h-0.02609l0.64043 0.83478c0.07957 0.14348 0.15783 0.29348 0.22304 0.44348 0.25826 2.1509 2.713 2.1209 4.3565 2.8983 1.4061 0.48522 3.1004 1.2235 3.2739 2.8761-0.35478-0.07565-1.727-1.6396-2.807-1.7961-0.64956-0.03914-1.3513-0.21783-2.0061-0.45522l-3.793-0.67957v-0.01304c-0.18522-0.02609-0.38087-0.05217-0.56478-0.0913v0.01304l-5.3674-0.64304c0.08739 0.0587 0.18391 0.13826 0.2687 0.21652l5.5043 1.0422v-0.01044l0.38087 0.09391 1.5391 0.33652c0.30522 0.02739 0.61044 0.07565 0.86348 0.12522 1.5691 0.41478 3.4252 0.33913 4.7165 1.4087-0.34044 0.62739-2.2174 0.2713-3.1552 0.19044-0.11478-0.02087-0.24-0.03391-0.35348-0.06-0.02609 0-0.03913-0.01304-0.06522-0.01304-1.2783-0.19565-2.5826-0.2087-3.8152 0.16043-0.0026 0-0.0091-0.0013-0.01304 0-0.42391 0.12783-0.83478 0.31044-1.23 0.53739-1.7765 1.0043-3.9652 1.3709-5.4417 2.8174-1.4348 1.5065-1.3565 3.5909-1.1048 5.5239h0.06v0.49304c0.02348 0.16956 0.05087 0.33652 0.07435 0.50217 0.7487 3.9104 2.7496 7.4987 3.3704 11.446 0.03913 0.47217 0.10435 1.003 0.15652 1.5209a19.565 19.565 0 0 0 16.696-19.336 19.565 19.565 0 0 0-19.565-19.565zm3.0209 9.4304c-0.59217 0.01565-1.0513 0.23087-1.1817 0.5987-0.2087 0.58826 0.50217 1.3487 1.59 1.71 1.0878 0.37174 2.1404 0.19565 2.3517-0.39261 0.2087-0.58826-0.49826-1.3578-1.5939-1.7243-0.40435-0.13696-0.81-0.19957-1.1661-0.19174z" fill="#fff"/>
</svg>
