<svg xmlns="http://www.w3.org/2000/svg" xmlns:xlink="http://www.w3.org/1999/xlink" width="64" height="64"><defs><filter id="h" width="1.796" height="1.298" x="-.398" y="-.149" color-interpolation-filters="sRGB"><feGaussianBlur stdDeviation="2.09"/></filter><filter id="d" width="1.454" height="1.398" x="-.227" y="-.199" color-interpolation-filters="sRGB"><feGaussianBlur stdDeviation="2.09"/></filter><filter id="f" width="1.512" height="1.796" x="-.256" y="-.398" color-interpolation-filters="sRGB"><feGaussianBlur stdDeviation="2.09"/></filter><filter id="e" width="1.242" height="1.376" x="-.121" y="-.188" color-interpolation-filters="sRGB"><feGaussianBlur stdDeviation=".986"/></filter><filter id="b" width="1.078" height="1.078" x="-.039" y="-.039" color-interpolation-filters="sRGB"><feGaussianBlur stdDeviation=".972"/></filter><linearGradient id="a"><stop offset="0" stop-color="#999"/><stop offset="1" stop-color="#6b6b6b"/></linearGradient><linearGradient xlink:href="#a" id="c" x1="7.937" x2="7.937" y1="15.274" y2="1.525" gradientTransform="translate(-2.286 -2.252)scale(4.0494)" gradientUnits="userSpaceOnUse"><stop offset="0" stop-color="#333"/><stop offset="1" stop-color="#616161"/></linearGradient><linearGradient xlink:href="#a" id="i" x1="32.247" x2="32.247" y1="19.433" y2="44.994" gradientUnits="userSpaceOnUse"/><linearGradient id="g" x1="31.402" x2="31.402" y1="34.683" y2="24.597" gradientUnits="userSpaceOnUse"><stop offset="0" stop-color="#d1d1d1"/><stop offset="1" stop-color="#fff"/></linearGradient></defs><rect width="60" height="60" x="2" y="2" filter="url(#b)" opacity=".35" rx="30" ry="30"/><rect width="60" height="60" x="2" y="2" fill="url(#c)" rx="30" ry="30"/><g fill-rule="evenodd"><path d="M29.383 25.846c-4.649.288-7.373 8.592-8.028 11.234.066.004.108.01.149.015.011.078.027.228.027.481 0 .155-.013.318-.042.438s-.072.185-.094.2l-.028.012-.012.015s-.284.289-.39.774c-.105.485-.022 1.184.63 1.931.643.737 1.575 1.448 2.605 2.346.515.45.9.883 1.239 1.24q.256.27.388.465c.088.13.122.234.122.255a56 56 0 0 0-.255 2.89c-.043.734-.065 1.09-.027 1.672.02.291.047.546.107.748.03.1.067.188.121.268a.42.42 0 0 0 .242.184c.486.125 1.003-.129 1.411-.452.408-.324.733-.575.754-.993.031-.656-.406-.984-.456-1.04-.012-.045-.08.054-.121-.301a2.7 2.7 0 0 1-.028-.545c.016-.163.07-.286.107-.323.05-.051.122-.068.256-.066.133.002.31.024.497.066.188.042.393.104.592.122.2.017.407-.007.592-.122.398-.247 1.14-.788 1.525-1.278.192-.246.266-.408.523-.627.06-.05.12-.063.182-.057-3.258-10.63.03-18.342-1.19-19.512a32 32 0 0 1-1.398-.04m5.205 0c-.013.001-.357.024-1.399.04-1.219 1.17 2.07 8.883-1.19 19.512a.23.23 0 0 1 .183.057c.257.22.33.381.522.626.385.49 1.128 1.032 1.526 1.279a.94.94 0 0 0 .592.121c.2-.017.404-.08.592-.121.187-.042.362-.064.496-.066s.206.014.257.066c.037.036.09.16.105.322.016.162-.003.354-.026.546-.042.354-.11.255-.121.3-.05.057-.487.385-.456 1.04.02.419.346.67.754.993.408.324.925.578 1.41.453a.42.42 0 0 0 .243-.185 1 1 0 0 0 .121-.268 3.6 3.6 0 0 0 .107-.747c.038-.582.016-.938-.027-1.672a56 56 0 0 0-.255-2.89.7.7 0 0 1 .122-.255q.133-.196.388-.465c.34-.357.724-.79 1.239-1.24 1.03-.898 1.961-1.61 2.604-2.346.653-.748.736-1.447.63-1.932a1.7 1.7 0 0 0-.389-.774l-.012-.015-.028-.012c-.022-.014-.065-.08-.094-.2a2 2 0 0 1-.042-.437c0-.253.016-.403.027-.481.041-.006.083-.012.149-.015-.655-2.643-3.38-10.947-8.028-11.234" filter="url(#d)" opacity=".2"/><path fill="#ccc" d="M29.383 24.325c-4.649.288-7.374 8.592-8.029 11.235.066.004.108.009.15.014.01.079.027.229.027.482 0 .154-.012.318-.042.438s-.073.185-.095.2l-.027.012-.013.015s-.283.288-.39.773c-.105.485-.021 1.184.632 1.932.643.736 1.574 1.448 2.604 2.346.515.45.899.883 1.238 1.24q.256.27.39.465c.087.13.12.234.12.254a56 56 0 0 0-.254 2.89c-.043.735-.066 1.091-.027 1.673.02.291.047.546.106.748.03.101.069.187.123.267s.13.157.241.186c.486.124 1.003-.13 1.411-.453s.734-.575.754-.993c.031-.656-.406-.984-.456-1.04-.012-.046-.079.053-.121-.302a2.7 2.7 0 0 1-.027-.544c.015-.162.07-.286.106-.323.051-.05.122-.068.256-.066.134.001.31.024.498.066.187.042.391.104.59.121a.95.95 0 0 0 .594-.12c.397-.248 1.14-.79 1.524-1.28.193-.245.266-.407.523-.626.06-.05.12-.063.182-.057-3.258-10.63.03-18.342-1.19-19.513a32 32 0 0 1-1.398-.04"/><path d="M20.868 37.046s4.84.173 7.613-4.142 2.028-7.019 2.028-7.019l-1.44-.05c-.151-.013-.233-.22-.449-.384-.804-.736-1.914-.857-2.826-1.003-.12.032.017-.002-.014 0-.032.001-.052-.002-.14 0-.088.001-.285-.002-.49 0-.41.004-.976.015-1.651.04-1.35.05-3.125.176-4.912.478s-3.587.773-4.996 1.567c-1.404.791-2.437 2.053-2.588 3.593v.013c-.001.012-.005.037 0 .08.005.05.025.12.056.2.06.158.181.376.433.623.504.496 1.507 1.147 3.569 1.9 0 0 .367.147.671.371.152.113.277.249.336.36.06.11.07.168 0 .278v.013s-.049.075-.07.173a.9.9 0 0 0 .014.398c.076.334.324 1.026.966 1.568 0 0 .044.034.056.04l.028.013c.014.005.02-.001.028 0 .014.003.02.012.028.014.017.002.023-.002.042 0 .037.003.097.007.154.013.113.012.263.028.42.066.313.076.625.234.755.465.07.125.179.153.28.186s.211.051.336.066c.25.03.55.048.84.053.29.006.569.003.769.014" filter="url(#e)" opacity=".2"/><path fill="#ccc" d="M34.588 24.325c4.649.288 7.374 8.592 8.029 11.235a2 2 0 0 0-.15.014 3.5 3.5 0 0 0-.027.482c0 .154.012.318.042.438s.073.185.095.2l.027.012.013.015s.283.288.39.773c.105.485.021 1.184-.632 1.932-.643.736-1.574 1.448-2.604 2.346-.515.45-.899.883-1.238 1.24q-.257.27-.39.465a.7.7 0 0 0-.12.254c.003.026.168 1.436.254 2.89.043.735.066 1.091.027 1.673-.02.291-.047.546-.106.748a1 1 0 0 1-.123.267.42.42 0 0 1-.241.186c-.486.124-1.003-.13-1.411-.453s-.734-.575-.754-.993c-.031-.656.406-.984.456-1.04.012-.046.079.053.121-.302.023-.191.043-.382.027-.544s-.07-.286-.106-.323c-.051-.05-.122-.068-.256-.066-.134.001-.31.024-.498.066-.187.042-.391.104-.59.121a.94.94 0 0 1-.594-.12c-.397-.248-1.14-.79-1.524-1.28-.193-.245-.266-.407-.523-.626a.23.23 0 0 0-.182-.057c3.258-10.63-.03-18.342 1.19-19.513a32 32 0 0 0 1.398-.04"/><path d="M43.132 37.046s-4.84.173-7.613-4.142-2.028-7.019-2.028-7.019l1.44-.05c.151-.013.233-.22.449-.384.804-.736 1.914-.857 2.826-1.003.12.032-.017-.002.014 0 .032.001.052-.002.14 0 .088.001.285-.002.49 0 .41.004.976.015 1.651.04 1.35.05 3.125.176 4.912.478s3.587.773 4.996 1.567c1.404.791 2.437 2.053 2.588 3.593v.013c.001.012.005.037 0 .08a1 1 0 0 1-.056.2c-.06.158-.181.376-.433.623-.504.496-1.507 1.147-3.569 1.9 0 0-.367.147-.671.371a1.2 1.2 0 0 0-.336.36c-.06.11-.07.168 0 .278v.013s.049.075.07.173a.9.9 0 0 1-.014.398 3 3 0 0 1-.966 1.568s-.044.034-.056.04l-.028.013c-.014.005-.02-.001-.028 0-.014.003-.02.012-.028.014-.017.002-.023-.002-.042 0-.037.003-.097.007-.154.013a3 3 0 0 0-.42.066c-.313.076-.625.234-.755.465-.07.125-.179.153-.28.186a2 2 0 0 1-.336.066c-.25.03-.55.048-.84.053-.29.006-.569.003-.769.014" filter="url(#f)" opacity=".2"/><path fill="url(#g)" d="M25.15 22.928c-.41.004-.977.016-1.652.041-1.35.05-3.126.175-4.912.477s-3.586.774-4.994 1.568c-1.405.792-2.439 2.052-2.59 3.592v.013c-.001.012-.005.037 0 .08q.01.078.056.2c.06.158.182.377.434.625.504.495 1.507 1.146 3.568 1.898 0 0 .368.147.672.371.152.112.277.25.336.36.06.11.07.17 0 .279v.014s-.05.073-.07.171a.9.9 0 0 0 .014.399c.075.333.323 1.026.964 1.568l.057.04.027.013c.014.005.023-.001.03 0 .014.003.019.013.027.014.017.002.025-.002.043 0 .037.003.096.007.152.013.114.013.264.029.42.067.313.076.626.233.756.465.07.124.18.153.281.185.102.033.21.052.334.067.25.03.55.047.84.052.29.006.57.003.77.014l.154.014s4.84.172 7.613-4.143 2.03-7.02 2.03-7.02l-1.442-.048c-.15-.014-.233-.22-.45-.385-.803-.735-1.913-.858-2.825-1.004-.12.032.018-.001-.014 0-.032.002-.052-.002-.14 0s-.284-.002-.489 0m13.057 0c-.912.146-2.022.269-2.826 1.004-.216.164-.3.371-.45.385l-1.44.048s-.745 2.705 2.028 7.02 7.614 4.143 7.614 4.143l.154-.014c.2-.01.48-.008.77-.014.29-.005.59-.022.84-.052.124-.016.232-.034.333-.067s.212-.06.282-.185c.13-.232.442-.39.756-.465.156-.038.306-.054.42-.067.056-.006.115-.01.152-.013.018-.002.026.002.043 0 .008-.001.013-.01.027-.014.007-.002.015.005.03 0l.027-.014.056-.039c.642-.542.89-1.235.965-1.568a.9.9 0 0 0 .014-.399.5.5 0 0 0-.07-.171v-.014c-.07-.11-.06-.17 0-.28s.184-.247.336-.359c.304-.224.671-.37.671-.37 2.062-.753 3.065-1.404 3.569-1.9a1.8 1.8 0 0 0 .433-.624 1 1 0 0 0 .057-.2c.004-.043.001-.068 0-.08v-.013c-.152-1.54-1.185-2.8-2.59-3.592-1.408-.794-3.207-1.267-4.994-1.569-1.787-.301-3.562-.426-4.912-.476a64 64 0 0 0-1.652-.041c-.205-.002-.4.002-.489 0s-.109.001-.14 0c-.032-.002.107.032-.014 0"/></g><path d="M26.453 14.873c-.415 0-.753.371-.753.829 0 .374.225.688.535.791.467 1.75 1.564 3.397 3.08 4.594a5.3 5.3 0 0 0-.465 2.186c.001 1.193.383 2.33 1.05 3.126v19.034c0 1.822.839 3.15 2.1 3.15s2.097-1.382 2.1-3.15V26.397c.667-.796 1.049-1.931 1.05-3.124a5.3 5.3 0 0 0-.463-2.186c1.515-1.197 2.612-2.846 3.078-4.594.31-.103.535-.417.535-.791 0-.458-.338-.829-.753-.829-.416 0-.754.372-.754.829 0 .252.103.476.264.627-.425 1.545-1.408 3.003-2.756 4.081-.595-.851-1.428-1.335-2.3-1.337-.872.003-1.704.487-2.299 1.337-1.349-1.078-2.333-2.536-2.758-4.08a.86.86 0 0 0 .264-.628c0-.457-.339-.828-.754-.828z" filter="url(#h)" opacity=".2"/><path fill="url(#i)" d="M26.453 13.773c-.415 0-.753.371-.753.829 0 .374.225.688.535.791.467 1.75 1.564 3.397 3.08 4.594a5.3 5.3 0 0 0-.465 2.186c.001 1.193.383 2.33 1.05 3.126v19.034c0 1.822.839 3.15 2.1 3.15s2.097-1.382 2.1-3.15V25.297c.667-.796 1.049-1.931 1.05-3.124a5.3 5.3 0 0 0-.463-2.186c1.515-1.197 2.612-2.846 3.078-4.594.31-.103.535-.417.535-.791 0-.458-.338-.829-.753-.829-.416 0-.754.372-.754.829 0 .252.103.476.264.627-.425 1.545-1.408 3.003-2.756 4.081-.595-.851-1.428-1.335-2.3-1.337-.872.003-1.704.487-2.299 1.337-1.349-1.078-2.333-2.536-2.758-4.08a.86.86 0 0 0 .264-.628c0-.457-.339-.828-.754-.828z"/></svg>