<svg xmlns="http://www.w3.org/2000/svg" width="64" height="64" enable-background="new 0 0 48 48"><defs><linearGradient id="d" x1="23.876" x2="23.876" y1="16.35" y2="31.354" gradientTransform="translate(.067 -.001)" gradientUnits="userSpaceOnUse"><stop offset="0" stop-color="#f62f09"/><stop offset="1" stop-color="#ff0034"/></linearGradient><linearGradient id="a" x1="32" x2="32" y1="2" y2="62" gradientUnits="userSpaceOnUse"><stop offset="0" stop-color="#d0d0d0"/><stop offset="1" stop-color="#eee" stop-opacity=".992"/></linearGradient><linearGradient id="c" x1="31.991" x2="31.991" y1="11" y2="53" gradientUnits="userSpaceOnUse"><stop offset="0" stop-color="#151515"/><stop offset="1" stop-color="#2e2e2e"/></linearGradient><filter id="b" width="1.121" height="1.119" x="-.06" y="-.06" color-interpolation-filters="sRGB"><feGaussianBlur stdDeviation="1.042"/></filter></defs><circle cx="32" cy="32" r="30" fill="url(#a)" style="paint-order:normal"/><path d="M31.99 11a15.323 21 0 0 0-14.881 16.096c-1.205-.277-2.819 3.44-1.46 5.045l.046.05c-1.45.805-3.024 2.158-3.953 4.434 0 0-2.195 4.84 3.412 1.207l1.88-1.385a15.323 21 0 0 0 5.874 12.438c-.216.105-.432.204-.649.329 0 0-5.228 2.745 2.166 3.386l5.282.139a15.323 21 0 0 0 2.283.262 15.323 21 0 0 0 2.35-.262l5.234-.139c7.395-.64 2.166-3.386 2.166-3.386-.222-.128-.442-.23-.662-.336a15.323 21 0 0 0 5.879-12.436l1.888 1.39c5.607 3.634 3.412-1.207 3.412-1.207-.936-2.294-2.529-3.649-3.988-4.45.05-.064.106-.125.154-.188 1.126-1.496-.55-5.944-1.476-4.614l-.026.033A15.323 21 0 0 0 31.99 11" filter="url(#b)" opacity=".15" transform="scale(.99999)"/><path fill="#fcc431" d="M31.537 49.301s4.951-3.109 10.202-.09c0 0 5.229 2.746-2.166 3.388l-5.92.157z"/><path fill="#fcc431" d="M32.462 49.301s-4.951-3.109-10.202-.09c0 0-5.229 2.746 2.166 3.388l5.92.157z"/><ellipse cx="31.991" cy="32" fill="url(#c)" rx="15.323" ry="21" style="paint-order:normal"/><g transform="translate(-69.81 9.298)scale(.79618)"><ellipse cx="127.88" cy="24.638" fill="#242424" opacity=".41" rx="11.079" ry="3.386"/><ellipse cx="20.264" cy="12.583" fill="#fdfdfd" rx="2.649" ry="4.161" transform="translate(98.129 .04)scale(1.2308)"/><ellipse cx="27.55" cy="12.583" fill="#fdfdfd" rx="2.649" ry="4.161" transform="translate(98.129 .04)scale(1.2308)"/><ellipse cx="123.88" cy="15.364" rx="1.387" ry="2.062"/><path d="M131.14 14.417c.606 0 1.117.575 1.307 1.376.025.105.08.108.08-.004 0-1.138-.621-2.061-1.387-2.061s-1.387.923-1.387 2.061c0 .112.053.116.077.015.188-.806.702-1.387 1.31-1.387"/><ellipse cx="21.26" cy="12.431" fill="#fefefe" rx=".462" ry=".633" transform="translate(98.129 .04)scale(1.2308)"/><ellipse cx="20.954" cy="13.103" fill="#fefefe" opacity=".6" rx=".272" ry=".285" transform="matrix(1.2293 -.0594 .0594 1.2293 97.38 1.305)"/><path fill="#fcc431" d="M127.88 21.225c-6.239 0-11.298 2.298-11.298 3.272 0 .72 1.908 1.78 4.808 2.497-1.173-1.02-1.844-1.95-1.87-1.926l.154-.002c.796.725 7.46 7.42 16.376-.158l.13-.002a19.6 19.6 0 0 1-2.4 2.254c3.226-.681 5.398-1.8 5.398-2.664 0-1.207-5.06-3.271-11.299-3.271z"/></g><path fill="#242424" d="M19.039 31.048s-5.236.53-7.296 5.577c0 0-2.194 4.842 3.412 1.208l4.291-3.161zm25.922 0s5.236.53 7.296 5.577c0 0 2.194 4.842-3.412 1.208l-4.291-3.161z"/><path fill="#fff" d="M42.56 34c-1.938 3.05-6.067 2.662-10.52 2.667-4.45-.003-8.06.39-10.003-2.655-.769 1.92-1.616 1.698-1.621 3.834C20.416 45.663 25.62 52 32.04 52s11.625-6.337 11.625-14.154c-.003-2.14.04-1.922-.73-3.846z" style="paint-order:normal"/><path fill="#d4001b" d="M22.551 35.662s-1.612 6.352.765 7.615c0 0 1.2.826 2.973.395 0 0 1.544-.318 1.275-2.614 0 0-.23-3.017.031-4.363z"/><path fill="url(#d)" d="M37.317 16.887c-2.448 5.129-7.22 8.138-13.251 8.138-5.885 0-10.571-2.612-13.09-7.541-1.07-2.094-3.067 3.726-1.664 6.013 2.815 4.59 8.109 7.737 14.213 7.853 6.681.125 12.484-3.417 15.17-8.625.991-1.92-.563-7.545-1.378-5.838" transform="matrix(1.1152 .01545 -.01046 .78656 5.509 13.514)"/></svg>