<svg xmlns="http://www.w3.org/2000/svg" width="64" height="64"><defs><linearGradient id="a"><stop offset="0" stop-color="#3889e9"/><stop offset="1" stop-color="#5ea5fb"/></linearGradient><linearGradient id="c" x1="400.57" x2="400.57" y1="517.8" y2="545.8" gradientUnits="userSpaceOnUse"><stop offset="0" stop-color="#49b202"/><stop offset="1" stop-color="#8cd958"/></linearGradient><linearGradient id="e" x1="32" x2="32" y1="16.002" y2="47.998" gradientUnits="userSpaceOnUse"><stop offset="0" stop-color="#fff"/><stop offset="1" stop-color="#daffd8"/></linearGradient><filter id="b" width="1.072" height="1.072" x="-.036" y="-.036" color-interpolation-filters="sRGB"><feGaussianBlur stdDeviation=".42"/></filter><filter id="d" width="1.12" height="1.12" x="-.06" y="-.06" color-interpolation-filters="sRGB"><feGaussianBlur stdDeviation=".8"/></filter></defs><g stroke-width=".733" transform="translate(-826.347 -1107.525) scale(2.14289)"><circle cx="400.57" cy="531.8" r="14" filter="url(#b)" opacity=".25"/><circle cx="400.57" cy="531.8" r="14" fill="url(#c)"/><circle cx="400.57" cy="531.8" r="14" fill="none"/></g><path d="M25.598 16.002c-3.229 0-5.635 1.156-7.223 3.469C16.791 21.762 16 25.078 16 29.422c0 4.437.793 7.806 2.375 10.139 1.104 1.625 2.587 2.68 4.442 3.166 0 0 .374-.015.406.361.64 4.906 3.886 4.91 7.584 4.91 0 0 .478.001.478-.447v-2.703c0-.453-.478-.453-.478-.453-1.85 0-2.33.116-2.818-1.635a8.491 8.491 0 0 0 1.755-.603 7.718 7.718 0 0 0 3.01-2.621c.797-1.156 1.38-2.583 1.76-4.28.396-1.693.588-3.637.588-5.834 0-4.39-.802-7.727-2.416-9.998-1.61-2.28-3.979-3.422-7.088-3.422zm-.027 2.188v.01c.682 0 1.193.223 1.63.693.255.265.48.61.694 1.027.115.303.234.63.322 1 .255.994.433 2.196.537 3.629.104 1.432.145 3.058.145 4.875 0 1.828-.04 3.472-.145 4.926-.104 1.447-.288 2.666-.537 3.687a9.02 9.02 0 0 1-.322 1.047c-.027.036-.035.084-.057.125-.197.364-.402.677-.636.926-.432.49-.954.719-1.631.719-.672 0-1.197-.23-1.625-.72-.427-.5-.775-1.221-1.03-2.194-.254-.99-.433-2.195-.537-3.622a71.562 71.562 0 0 1-.166-4.9c0-1.806.057-3.416.166-4.832.104-1.412.283-2.604.537-3.562.255-.959.608-1.673 1.03-2.141.426-.464.947-.693 1.625-.693zm14.79 1.84c-1.431 5.405-.48 5.405-3.343 5.405v3.155h1.912v9.463h-.002s-.478 2.701 1.912 4.05c2.459 1.391 7.067.068 7.16 0v-3.15s-1.041.355-1.806.287c-.604 0-1.095-.22-1.46-.64-.369-.428-.556-1.057-.556-1.9v-8.11H48v-3.155h-3.822V20.03h-3.816z" filter="url(#d)" opacity=".15"/><path d="m44.77 12.046-1.003 2.68a.485.485 0 0 0 .15.522l1.18.903c.144.11.391.117.544.008l2.326-1.66a.413.413 0 0 1 .516.043l.975.975a.411.411 0 0 1 .044.516l-1.661 2.324a.486.486 0 0 0 .01.545l.904 1.18a.49.49 0 0 0 .523.15l2.676-1.004a.413.413 0 0 1 .486.176l.69 1.193a.41.41 0 0 1-.093.51l-2.207 1.817a.485.485 0 0 0-.133.527l.568 1.373c.07.168.28.297.466.28l2.847-.277a.413.413 0 0 1 .426.296l.357 1.33a.41.41 0 0 1-.221.469l-2.605 1.185a.484.484 0 0 0-.264.476l.194 1.472a.49.49 0 0 0 .38.39l2.82.47a.415.415 0 0 1 .335.395v1.377a.41.41 0 0 1-.335.395l-2.817.47a.482.482 0 0 0-.378.39l-.193 1.474a.493.493 0 0 0 .265.476l2.6 1.183a.417.417 0 0 1 .22.468l-.356 1.331a.411.411 0 0 1-.426.296l-2.844-.275a.484.484 0 0 0-.466.28l-.57 1.373a.489.489 0 0 0 .131.527l2.208 1.817c.145.12.187.347.092.51l-.689 1.193a.412.412 0 0 1-.488.176l-2.68-1.003a.485.485 0 0 0-.522.15l-.903 1.18a.491.491 0 0 0-.008.543l1.66 2.327a.413.413 0 0 1-.043.516l-.975.975a.411.411 0 0 1-.516.043l-2.325-1.66a.486.486 0 0 0-.544.009l-1.18.905a.49.49 0 0 0-.15.522l1.004 2.676a.413.413 0 0 1-.176.487l-1.193.689a.41.41 0 0 1-.51-.092l-1.817-2.208a.485.485 0 0 0-.527-.132l-1.373.567a.492.492 0 0 0-.28.467l.277 2.847a.413.413 0 0 1-.296.426l-1.33.356a.41.41 0 0 1-.469-.22l-1.185-2.605a.484.484 0 0 0-.475-.265l-1.473.195a.49.49 0 0 0-.39.38l-.47 2.82a.415.415 0 0 1-.395.334h-1.377a.41.41 0 0 1-.395-.334l-.47-2.818a.482.482 0 0 0-.39-.377l-1.474-.193a.493.493 0 0 0-.476.264l-1.183 2.6a.416.416 0 0 1-.468.22l-1.331-.355a.411.411 0 0 1-.296-.426l.275-2.844a.484.484 0 0 0-.28-.467l-1.373-.57a.489.489 0 0 0-.527.132l-1.817 2.208a.413.413 0 0 1-.51.091l-1.193-.689a.412.412 0 0 1-.176-.488l1.003-2.679a.485.485 0 0 0-.149-.522l-1.18-.904a.491.491 0 0 0-.544-.007l-2.327 1.66a.413.413 0 0 1-.516-.043l-.975-.975a.411.411 0 0 1-.043-.517l1.66-2.324a.486.486 0 0 0-.009-.544l-.905-1.18a.49.49 0 0 0-.522-.15l-2.676 1.003a.413.413 0 0 1-.487-.176l-.689-1.192a.41.41 0 0 1 .092-.51l2.208-1.818a.485.485 0 0 0 .132-.527l-.568-1.373a.492.492 0 0 0-.466-.28l-2.847.277a.413.413 0 0 1-.426-.296l-.356-1.33a.41.41 0 0 1 .22-.469l2.605-1.184a.484.484 0 0 0 .264-.476l-.194-1.473a.49.49 0 0 0-.38-.39l-2.82-.47A.415.415 0 0 1 8 32.691v-1.378a.41.41 0 0 1 .334-.395l2.817-.47a.482.482 0 0 0 .378-.39l.193-1.474a.493.493 0 0 0-.264-.476l-2.6-1.183a.416.416 0 0 1-.22-.468l.355-1.331a.411.411 0 0 1 .426-.296l2.844.276a.484.484 0 0 0 .467-.28l.57-1.373a.489.489 0 0 0-.132-.527l-2.208-1.818a.413.413 0 0 1-.091-.51l.688-1.193a.412.412 0 0 1 .489-.175l2.679 1.003a.485.485 0 0 0 .522-.15l.903-1.18a.491.491 0 0 0 .008-.544l-1.66-2.326a.413.413 0 0 1 .043-.516l.975-.975a.411.411 0 0 1 .516-.044l2.325 1.66a.486.486 0 0 0 .544-.009l1.18-.904a.49.49 0 0 0 .15-.523l-1.003-2.676a.413.413 0 0 1 .175-.487l1.193-.688a.41.41 0 0 1 .51.091l1.818 2.208c.12.145.356.204.527.132l1.373-.567a.492.492 0 0 0 .28-.467l-.277-2.847a.413.413 0 0 1 .295-.426l1.331-.356a.41.41 0 0 1 .468.221l1.185 2.605c.078.17.291.289.476.264l1.473-.195a.49.49 0 0 0 .39-.379l.47-2.82A.415.415 0 0 1 31.308 8h1.378a.41.41 0 0 1 .395.335l.47 2.817a.482.482 0 0 0 .39.378l1.474.193a.493.493 0 0 0 .476-.265l1.183-2.6a.416.416 0 0 1 .468-.22l1.331.356c.185.05.314.24.295.426l-.275 2.844a.484.484 0 0 0 .28.466l1.373.57c.168.07.409.013.527-.131l1.818-2.208a.413.413 0 0 1 .51-.092l1.193.689a.412.412 0 0 1 .175.488zm-4.565 5.708a16.397 16.397 0 0 0-12.271-1.701c-.773.196-.319.089-.319.089-1.076.367-1.505 1.475-.962 2.464 0 0-.313-.57.024.044l4.827 8.805c.727 1.328 2.545 2.38 4.061 2.348l10.698-.222c.663-.014 0 0 0 0 1.098-.024 1.812-.947 1.572-1.981a16.404 16.404 0 0 0-7.628-9.846zm-.27 28.636a16.403 16.403 0 0 0 7.778-9.643c.23-.764.089-.32.089-.32.24-1.111-.49-2.049-1.617-2.094 0 0 .65.027-.05-.001l-10.032-.398c-1.513-.061-3.35.956-4.105 2.271l-5.32 9.285c-.329.575 0 0 0 0-.545.953-.119 2.04.89 2.368 0 0-.637-.177 0 0 4.01 1.11 8.442.709 12.368-1.468zM20.47 43.77c.788.71 1.943.535 2.495-.415 0 0-.332.572 0 0 1.795-3.083 5.38-9.248 5.38-9.248.762-1.311.725-3.41-.084-4.692l-5.36-8.49c-.376-.591-.027-.041-.027-.041-.602-.953-1.78-1.116-2.622-.353 0 0 .314-.345-.232.236a16.406 16.406 0 0 0-4.462 11.558 16.397 16.397 0 0 0 4.913 11.444z" class="shp86" opacity=".15"/><path fill="url(#e)" d="M25.598 16.002c-3.229 0-5.635 1.156-7.223 3.469C16.791 21.762 16 25.078 16 29.422c0 4.437.793 7.806 2.375 10.139 1.104 1.625 2.587 2.68 4.442 3.166 0 0 .374-.015.406.361.64 4.906 3.886 4.91 7.584 4.91 0 0 .478.001.478-.447v-2.703c0-.453-.478-.453-.478-.453-1.85 0-2.33.116-2.818-1.635a8.491 8.491 0 0 0 1.755-.603 7.718 7.718 0 0 0 3.01-2.621c.797-1.156 1.38-2.583 1.76-4.28.396-1.693.588-3.637.588-5.834 0-4.39-.802-7.727-2.416-9.998-1.61-2.28-3.979-3.422-7.088-3.422zm-.027 2.188v.01c.682 0 1.193.223 1.63.693.255.265.48.61.694 1.027.115.303.234.63.322 1 .255.994.433 2.196.537 3.629.104 1.432.145 3.058.145 4.875 0 1.828-.04 3.472-.145 4.926-.104 1.447-.288 2.666-.537 3.687a9.02 9.02 0 0 1-.322 1.047c-.027.036-.035.084-.057.125-.197.364-.402.677-.636.926-.432.49-.954.719-1.631.719-.672 0-1.197-.23-1.625-.72-.427-.5-.775-1.221-1.03-2.194-.254-.99-.433-2.195-.537-3.622a71.562 71.562 0 0 1-.166-4.9c0-1.806.057-3.416.166-4.832.104-1.412.283-2.604.537-3.562.255-.959.608-1.673 1.03-2.141.426-.464.947-.693 1.625-.693zm14.79 1.84c-1.431 5.405-.48 5.405-3.343 5.405v3.155h1.912v9.463h-.002s-.478 2.701 1.912 4.05c2.459 1.391 7.067.068 7.16 0v-3.15s-1.041.355-1.806.287c-.604 0-1.095-.22-1.46-.64-.369-.428-.556-1.057-.556-1.9v-8.11H48v-3.155h-3.822V20.03h-3.816z"/></svg>