<svg xmlns="http://www.w3.org/2000/svg" width="64" height="64"><defs><linearGradient id="b" x1="400.57" x2="400.57" y1="517.8" y2="545.8" gradientUnits="userSpaceOnUse"><stop offset="0" stop-color="#49b202"/><stop offset="1" stop-color="#8cd958"/></linearGradient><linearGradient id="d" x1="32" x2="32" y1="16.002" y2="47.998" gradientUnits="userSpaceOnUse"><stop offset="0" stop-color="#fff"/><stop offset="1" stop-color="#daffd8"/></linearGradient><filter id="a" width="1.072" height="1.072" x="-.036" y="-.036" color-interpolation-filters="sRGB"><feGaussianBlur stdDeviation=".42"/></filter><filter id="c" width="1.12" height="1.12" x="-.06" y="-.06" color-interpolation-filters="sRGB"><feGaussianBlur stdDeviation=".8"/></filter></defs><g stroke-width=".733" transform="translate(-826.347 -1107.525)scale(2.14289)"><circle cx="400.57" cy="531.8" r="14" filter="url(#a)" opacity=".25"/><circle cx="400.57" cy="531.8" r="14" fill="url(#b)"/><circle cx="400.57" cy="531.8" r="14" fill="none"/></g><path d="M31.997 8C18.746 8 8 18.745 8 31.997 8 45.255 18.745 56 31.997 56 45.255 56 56 45.255 56 31.997 56 18.746 45.255 8 31.997 8m5 8.976a3.29 3.29 0 0 1 4.502-1.213 3.31 3.31 0 0 1 1.213 4.506 3.303 3.303 0 0 1-4.506 1.213 3.303 3.303 0 0 1-1.213-4.506M16.197 35.59c-1.826 0-3.306-1.482-3.306-3.302s1.482-3.306 3.306-3.306a3.307 3.307 0 0 1 3.301 3.306 3.306 3.306 0 0 1-3.301 3.302m6.026 6.448a13.76 13.76 0 0 1-3.463-5.768c1.306-.844 2.169-2.306 2.169-3.975s-.863-3.132-2.169-3.975a13.8 13.8 0 0 1 5.339-7.343l2.832 4.901a8.15 8.15 0 0 0-3.112 6.417c0 2.6 1.225 4.919 3.112 6.417L24.1 43.619a14.3 14.3 0 0 1-1.87-1.568m19.284 6.769a3.31 3.31 0 0 1-4.507-1.207 3.306 3.306 0 0 1 1.213-4.506c1.575-.912 3.601-.374 4.502 1.2a3.296 3.296 0 0 1-1.207 4.506m.506-7.07a4.74 4.74 0 0 0-4.519.106 4.74 4.74 0 0 0-2.364 3.863 14 14 0 0 1-3.163.368 13.7 13.7 0 0 1-5.87-1.306l2.826-4.906a8.1 8.1 0 0 0 3.044.594c4.112 0 7.52-3.05 8.081-7.02h5.657a13.73 13.73 0 0 1-3.695 8.302M40.06 31.143c-.564-3.964-3.975-7.014-8.081-7.014a8.2 8.2 0 0 0-3.044.587l-2.832-4.901a13.8 13.8 0 0 1 5.876-1.306c1.075 0 2.138.125 3.157.363a4.71 4.71 0 0 0 2.363 3.857 4.7 4.7 0 0 0 4.513.118 13.7 13.7 0 0 1 3.706 8.296h-5.663" opacity=".15"/><path d="M25.598 16.002q-4.842 0-7.223 3.469Q16 22.907 16 29.422c0 4.437.793 7.806 2.375 10.139q1.658 2.437 4.442 3.166s.374-.015.406.361c.64 4.906 3.886 4.91 7.584 4.91 0 0 .478.001.478-.447v-2.703c0-.453-.478-.453-.478-.453-1.85 0-2.33.116-2.818-1.635a8.5 8.5 0 0 0 1.755-.603 7.7 7.7 0 0 0 3.01-2.621c.797-1.156 1.38-2.583 1.76-4.28.396-1.693.588-3.637.588-5.834 0-4.39-.802-7.727-2.416-9.998-1.61-2.28-3.979-3.422-7.088-3.422m-.027 2.188v.01c.682 0 1.193.223 1.63.693.255.265.48.61.694 1.027.115.303.234.63.322 1 .255.994.433 2.196.537 3.629s.145 3.058.145 4.875c0 1.828-.04 3.472-.145 4.926-.104 1.447-.288 2.666-.537 3.687a9 9 0 0 1-.322 1.047c-.027.036-.035.084-.057.125-.197.364-.402.677-.636.926-.432.49-.954.719-1.631.719-.672 0-1.197-.23-1.625-.72-.427-.5-.775-1.221-1.03-2.194q-.381-1.483-.537-3.622a72 72 0 0 1-.166-4.9q.001-2.709.166-4.832c.104-1.412.283-2.604.537-3.562.255-.959.608-1.673 1.03-2.141.426-.464.947-.693 1.625-.693m14.79 1.84c-1.431 5.405-.48 5.405-3.343 5.405v3.155h1.912v9.463h-.002s-.478 2.701 1.912 4.05c2.459 1.391 7.067.068 7.16 0v-3.15s-1.041.355-1.806.287c-.604 0-1.095-.22-1.46-.64-.369-.428-.556-1.057-.556-1.9v-8.11H48v-3.155h-3.822V20.03z" filter="url(#c)" opacity=".15"/><path fill="url(#d)" d="M25.598 16.002q-4.842 0-7.223 3.469Q16 22.907 16 29.422c0 4.437.793 7.806 2.375 10.139q1.658 2.437 4.442 3.166s.374-.015.406.361c.64 4.906 3.886 4.91 7.584 4.91 0 0 .478.001.478-.447v-2.703c0-.453-.478-.453-.478-.453-1.85 0-2.33.116-2.818-1.635a8.5 8.5 0 0 0 1.755-.603 7.7 7.7 0 0 0 3.01-2.621c.797-1.156 1.38-2.583 1.76-4.28.396-1.693.588-3.637.588-5.834 0-4.39-.802-7.727-2.416-9.998-1.61-2.28-3.979-3.422-7.088-3.422m-.027 2.188v.01c.682 0 1.193.223 1.63.693.255.265.48.61.694 1.027.115.303.234.63.322 1 .255.994.433 2.196.537 3.629s.145 3.058.145 4.875c0 1.828-.04 3.472-.145 4.926-.104 1.447-.288 2.666-.537 3.687a9 9 0 0 1-.322 1.047c-.027.036-.035.084-.057.125-.197.364-.402.677-.636.926-.432.49-.954.719-1.631.719-.672 0-1.197-.23-1.625-.72-.427-.5-.775-1.221-1.03-2.194q-.381-1.483-.537-3.622a72 72 0 0 1-.166-4.9q.001-2.709.166-4.832c.104-1.412.283-2.604.537-3.562.255-.959.608-1.673 1.03-2.141.426-.464.947-.693 1.625-.693m14.79 1.84c-1.431 5.405-.48 5.405-3.343 5.405v3.155h1.912v9.463h-.002s-.478 2.701 1.912 4.05c2.459 1.391 7.067.068 7.16 0v-3.15s-1.041.355-1.806.287c-.604 0-1.095-.22-1.46-.64-.369-.428-.556-1.057-.556-1.9v-8.11H48v-3.155h-3.822V20.03z"/></svg>