<svg xmlns="http://www.w3.org/2000/svg" width="64" height="64"><defs><linearGradient id="a"><stop offset="0" stop-color="#3889e9"/><stop offset="1" stop-color="#5ea5fb"/></linearGradient><linearGradient id="c" x1="400.57" x2="400.57" y1="517.8" y2="545.8" gradientUnits="userSpaceOnUse"><stop offset="0" stop-color="#49b202"/><stop offset="1" stop-color="#8cd958"/></linearGradient><linearGradient id="e" x1="32" x2="32" y1="16.002" y2="47.998" gradientUnits="userSpaceOnUse"><stop offset="0" stop-color="#fff"/><stop offset="1" stop-color="#daffd8"/></linearGradient><filter id="b" width="1.072" height="1.072" x="-.036" y="-.036" color-interpolation-filters="sRGB"><feGaussianBlur stdDeviation=".42"/></filter><filter id="d" width="1.12" height="1.12" x="-.06" y="-.06" color-interpolation-filters="sRGB"><feGaussianBlur stdDeviation=".8"/></filter></defs><g stroke-width=".733" transform="translate(-826.347 -1107.525) scale(2.14289)"><circle cx="400.57" cy="531.8" r="14" filter="url(#b)" opacity=".25"/><circle cx="400.57" cy="531.8" r="14" fill="url(#c)"/><circle cx="400.57" cy="531.8" r="14" fill="none"/></g><path d="M20.88 55.622c-.587-.862-2.368-4.374-3.112-6.137-.9-2.131-1.812-6.049-1.763-7.543.082-2.1.744-4.082 1.957-5.825 1.537-2.207 2.55-3.118 8.618-7.712 7.374-5.58 10.261-8.193 13.887-12.573 1.512-1.832 3.78-5.1 4.968-7.15.662-1.15.662-1.225.118 2.813-.225 1.656-.363 3.094-.3 3.187.062.1.7-.731 1.425-1.856l1.318-2.036-.75 6.293a968.486 968.486 0 0 0-1.125 9.911c-1 9.664-2.124 13.93-4.687 17.867-1.843 2.826-4.088 4.8-7.974 7.043-2.837 1.637-7.019 3.163-10.668 3.888-1.538.3-1.587.3-1.9-.168m6.343-1.506c7.305-2.356 10.26-6.5 12.199-12.7.505-1.6-10.793-1.105-10.573-3.036.137-.837 14.463-6.632 14.51-7.225.026-.368-11.348 13.005-11.155 10.143.368-5.568-8.368-.187-8.105-2.138.094-.656 21.006-28.703 20.99-28.74-.007-.037-.7.943-1.55 2.162-2.594 3.768-.525 10.343-4.095 13.504-1.031.901-1.436 7.232-3.962 9.144-6.98 5.274-14.992 8.836-16.35 11.324-1.524 2.767-2.855-4.832-1.806-.837.863 3.288 3.912 7.212 4.694 8.063.144.157-5.831-5.711-4.774-7.655 2.144-3.93 1.282-9.5 1.388-9.647.05-.063 13.674-2.026 14.167-2.882.5-.849 1.087-1.862 1.305-2.231a3849.6 3849.6 0 0 1 3.825-6.53c1.894-3.217 3.488-5.876 3.55-5.882.063-.013-.112.4-.393.912-.282.518-1.518 2.912-2.744 5.324-3.905 7.662 6.974 16.16.275 21.892l-4.08 3.488-3.613 2.269c-.781.494-4.606 1.574-3.7 1.287" opacity=".15"/><path d="M25.598 16.002c-3.229 0-5.635 1.156-7.223 3.469C16.791 21.762 16 25.078 16 29.422c0 4.437.793 7.806 2.375 10.139 1.104 1.625 2.587 2.68 4.442 3.166 0 0 .374-.015.406.361.64 4.906 3.886 4.91 7.584 4.91 0 0 .478.001.478-.447v-2.703c0-.453-.478-.453-.478-.453-1.85 0-2.33.116-2.818-1.635a8.491 8.491 0 0 0 1.755-.603 7.718 7.718 0 0 0 3.01-2.621c.797-1.156 1.38-2.583 1.76-4.28.396-1.693.588-3.637.588-5.834 0-4.39-.802-7.727-2.416-9.998-1.61-2.28-3.979-3.422-7.088-3.422zm-.027 2.188v.01c.682 0 1.193.223 1.63.693.255.265.48.61.694 1.027.115.303.234.63.322 1 .255.994.433 2.196.537 3.629.104 1.432.145 3.058.145 4.875 0 1.828-.04 3.472-.145 4.926-.104 1.447-.288 2.666-.537 3.687a9.02 9.02 0 0 1-.322 1.047c-.027.036-.035.084-.057.125-.197.364-.402.677-.636.926-.432.49-.954.719-1.631.719-.672 0-1.197-.23-1.625-.72-.427-.5-.775-1.221-1.03-2.194-.254-.99-.433-2.195-.537-3.622a71.562 71.562 0 0 1-.166-4.9c0-1.806.057-3.416.166-4.832.104-1.412.283-2.604.537-3.562.255-.959.608-1.673 1.03-2.141.426-.464.947-.693 1.625-.693zm14.79 1.84c-1.431 5.405-.48 5.405-3.343 5.405v3.155h1.912v9.463h-.002s-.478 2.701 1.912 4.05c2.459 1.391 7.067.068 7.16 0v-3.15s-1.041.355-1.806.287c-.604 0-1.095-.22-1.46-.64-.369-.428-.556-1.057-.556-1.9v-8.11H48v-3.155h-3.822V20.03h-3.816z" filter="url(#d)" opacity=".15"/><path fill="url(#e)" d="M25.598 16.002c-3.229 0-5.635 1.156-7.223 3.469C16.791 21.762 16 25.078 16 29.422c0 4.437.793 7.806 2.375 10.139 1.104 1.625 2.587 2.68 4.442 3.166 0 0 .374-.015.406.361.64 4.906 3.886 4.91 7.584 4.91 0 0 .478.001.478-.447v-2.703c0-.453-.478-.453-.478-.453-1.85 0-2.33.116-2.818-1.635a8.491 8.491 0 0 0 1.755-.603 7.718 7.718 0 0 0 3.01-2.621c.797-1.156 1.38-2.583 1.76-4.28.396-1.693.588-3.637.588-5.834 0-4.39-.802-7.727-2.416-9.998-1.61-2.28-3.979-3.422-7.088-3.422zm-.027 2.188v.01c.682 0 1.193.223 1.63.693.255.265.48.61.694 1.027.115.303.234.63.322 1 .255.994.433 2.196.537 3.629.104 1.432.145 3.058.145 4.875 0 1.828-.04 3.472-.145 4.926-.104 1.447-.288 2.666-.537 3.687a9.02 9.02 0 0 1-.322 1.047c-.027.036-.035.084-.057.125-.197.364-.402.677-.636.926-.432.49-.954.719-1.631.719-.672 0-1.197-.23-1.625-.72-.427-.5-.775-1.221-1.03-2.194-.254-.99-.433-2.195-.537-3.622a71.562 71.562 0 0 1-.166-4.9c0-1.806.057-3.416.166-4.832.104-1.412.283-2.604.537-3.562.255-.959.608-1.673 1.03-2.141.426-.464.947-.693 1.625-.693zm14.79 1.84c-1.431 5.405-.48 5.405-3.343 5.405v3.155h1.912v9.463h-.002s-.478 2.701 1.912 4.05c2.459 1.391 7.067.068 7.16 0v-3.15s-1.041.355-1.806.287c-.604 0-1.095-.22-1.46-.64-.369-.428-.556-1.057-.556-1.9v-8.11H48v-3.155h-3.822V20.03h-3.816z"/></svg>