<svg width="64" height="64" version="1.1" viewBox="0 0 64 64" xmlns="http://www.w3.org/2000/svg" xmlns:xlink="http://www.w3.org/1999/xlink">
 <defs>
  <linearGradient id="a">
   <stop stop-color="#3889e9" offset="0"/>
   <stop stop-color="#5ea5fb" offset="1"/>
  </linearGradient>
  <linearGradient id="d" x1="399.57" x2="399.57" y1="545.8" y2="517.8" gradientUnits="userSpaceOnUse" xlink:href="#a"/>
  <linearGradient id="b" x1="-.5" x2="536" y1="267.75" y2="267.75" gradientUnits="userSpaceOnUse" xlink:href="#a"/>
  <filter id="f" x="-.036" y="-.036" width="1.072" height="1.072" color-interpolation-filters="sRGB">
   <feGaussianBlur stdDeviation="0.41999874"/>
  </filter>
  <linearGradient id="e" x1="400.57" x2="400.57" y1="517.8" y2="545.8" gradientUnits="userSpaceOnUse">
   <stop stop-color="#49b202" offset="0"/>
   <stop stop-color="#8cd958" offset="1"/>
  </linearGradient>
  <linearGradient id="c" x1="32" x2="32" y1="16.002" y2="47.998" gradientUnits="userSpaceOnUse">
   <stop stop-color="#fff" offset="0"/>
   <stop stop-color="#daffd8" offset="1"/>
  </linearGradient>
  <filter id="g" x="-.059996" y="-.060004" width="1.12" height="1.12" color-interpolation-filters="sRGB">
   <feGaussianBlur stdDeviation="0.79995118"/>
  </filter>
 </defs>
 <g transform="matrix(1.3043 0 0 1.3043 -500.91 -651.19)" stroke-width=".73333">
  <g transform="matrix(1.6429,0,0,1.6429,-249.51,-349.87)" stroke-width=".73333">
   <g transform="matrix(.89483 0 0 .89483 42.07 55.891)">
    <circle cx="400.57" cy="531.8" r="0" fill="url(#d)"/>
    <g transform="matrix(1.0753,0,0,1.0753,-30.117,-39.986)" stroke-width=".73333">
     <g transform="matrix(1.0393,0,0,1.0393,-15.715,-20.9)" stroke-width=".73333">
      <circle cx="400.57" cy="531.8" r="14" filter="url(#f)" opacity=".25"/>
      <circle cx="400.57" cy="531.8" r="14" fill="url(#e)"/>
      <circle cx="400.57" cy="531.8" r="14" fill-opacity="0"/>
     </g>
    </g>
   </g>
   <g transform="matrix(.44015 0 0 .44015 224.23 297.75)" fill="#fff" fill-opacity=".85">
    <g transform="matrix(.059397 0 0 .059397 387.63 521.12)" fill="#fff" fill-opacity=".85" stroke="url(#b)" stroke-width=".73333"></g>
   </g>
  </g>
 </g>
 <g>
  <path d="m31.997 8c-13.251 0-23.997 10.745-23.997 23.997 0 13.258 10.745 24.003 23.997 24.003 13.258 0 24.003-10.745 24.003-24.003 0-13.251-10.745-23.997-24.003-23.997m5.0007 8.9756c0.90572-1.581 2.9252-2.1251 4.5014-1.213 1.5746 0.91212 2.1187 2.9316 1.213 4.5062-0.91212 1.581-2.9316 2.1187-4.5062 1.213-1.581-0.91212-2.1187-2.9316-1.213-4.5062m-20.796 18.615c-1.8258 0-3.306-1.4818-3.306-3.3012s1.4818-3.306 3.306-3.306c1.8194 0 3.3012 1.4818 3.3012 3.306 0 1.8194-1.4818 3.3012-3.3012 3.3012m6.0264 6.4489c-1.637-1.637-2.8132-3.6133-3.4629-5.7688 1.3058-0.84331 2.1683-2.3059 2.1683-3.9749s-0.86252-3.1316-2.1683-3.9749c0.64969-2.1571 1.8258-4.1318 3.4629-5.7752 0.58088-0.58088 1.213-1.1057 1.8754-1.5682l2.8324 4.9015c-1.9011 1.4946-3.1124 3.8197-3.1124 6.4169 0 2.6003 1.2258 4.9191 3.1124 6.4169l-2.8324 4.9063c-0.65609-0.46246-1.2882-0.98733-1.869-1.5682m19.283 6.7689c-1.581 0.90572-3.5941 0.36325-4.5062-1.2066-0.90572-1.581-0.36325-3.5941 1.213-4.5062 1.5746-0.91212 3.6005-0.37445 4.5014 1.2002 0.91212 1.5746 0.37445 3.5941-1.2066 4.5062m0.50567-7.0697c-1.381-0.70569-3.082-0.7185-4.519 0.10561-1.4434 0.83691-2.2819 2.3123-2.3635 3.8629-1.0257 0.23683-2.0819 0.36805-3.1636 0.36805-2.0627 0-4.0565-0.44966-5.8696-1.3058l2.826-4.9063c0.94413 0.38085 1.9683 0.59368 3.0436 0.59368 4.1125 0 7.5194-3.05 8.0811-7.0201h5.6568c-0.25603 3.1124-1.5442 6.0072-3.6949 8.3019m-1.9571-10.601c-0.56328-3.9637-3.9749-7.0137-8.0811-7.0137-1.0753 0-2.1011 0.21283-3.0436 0.58728l-2.8324-4.9015c1.8194-0.85611 3.8133-1.3058 5.876-1.3058 1.0753 0 2.1379 0.12482 3.1572 0.36325 0.08161 1.5506 0.91852 3.0324 2.3635 3.8565 1.4434 0.83691 3.138 0.82571 4.5126 0.11842 2.1571 2.2819 3.4437 5.1815 3.7061 8.2955h-5.6632" opacity=".15"/>
  <g transform="matrix(1.6001 0 0 1.6001 -6.4042 -6.4019)" opacity=".15" stroke-width=".62498"></g>
  <path d="m25.598 16.002c-3.2289 0-5.6349 1.1557-7.2227 3.4688-1.5838 2.2917-2.375 5.6077-2.375 9.9512 0 4.4368 0.79253 7.8056 2.375 10.139 1.1039 1.6251 2.587 2.6794 4.4414 3.166 0 0 0.37425-0.014626 0.40625 0.36133 0.63992 4.9061 3.8858 4.9102 7.584 4.9102 0 0 0.47852 6.78e-4 0.47852-0.44727v-2.7031c0-0.45328-0.47852-0.45312-0.47852-0.45312-1.8491 0-2.3291 0.11568-2.8184-1.6348 0.63592-0.14532 1.2039-0.34355 1.7559-0.60352 1.2185-0.59859 2.2232-1.4706 3.0098-2.6211 0.79723-1.1559 1.3798-2.5822 1.7598-4.2793 0.39595-1.6931 0.58789-3.6369 0.58789-5.834 0-4.3901-0.80155-7.7277-2.416-9.998-1.6091-2.281-3.9789-3.4219-7.0879-3.4219zm-0.027344 2.1875v0.009766c0.68258 0 1.1936 0.22408 1.6309 0.69336 0.25464 0.2653 0.47872 0.61006 0.69336 1.0273 0.11465 0.30263 0.23428 0.63071 0.32227 1 0.25464 0.99454 0.43312 2.1958 0.53711 3.6289 0.10399 1.4318 0.14453 3.0579 0.14453 4.875 0 1.8278-0.040546 3.4726-0.14453 4.9258-0.10399 1.4478-0.28781 2.6663-0.53711 3.6875-0.09332 0.37995-0.20228 0.72958-0.32227 1.0469-0.02666 0.036-0.0353 0.083672-0.05664 0.125-0.19731 0.36395-0.40208 0.67648-0.63672 0.92578-0.43195 0.48927-0.95361 0.71875-1.6309 0.71875-0.67192 0-1.1971-0.22948-1.625-0.71875-0.42661-0.49994-0.77466-1.2221-1.0293-2.1953-0.25464-0.98921-0.43312-2.1946-0.53711-3.6211-0.09865-1.4372-0.16602-3.078-0.16602-4.9004 0-1.8064 0.0567-3.4162 0.16602-4.832 0.10399-1.4118 0.28248-2.604 0.53711-3.5625 0.25463-0.95855 0.60802-1.6727 1.0293-2.1406 0.42662-0.46394 0.94775-0.69336 1.625-0.69336zm14.791 1.8398c-1.4318 5.406-0.48011 5.4062-3.3438 5.4062v3.1543h1.9121v9.4629h-0.001954s-0.47826 2.7016 1.9121 4.0508c2.4584 1.3905 7.0668 0.06799 7.1602 0v-3.1504s-1.0414 0.3551-1.8066 0.28711c-0.60392 0-1.095-0.21934-1.459-0.64062-0.36929-0.42795-0.55664-1.0565-0.55664-1.9004v-8.1094h3.8223v-3.1543h-3.8223v-5.4062h-3.8164z" filter="url(#g)" opacity=".15"/>
 </g>
 <path d="m25.598 16.002c-3.2289 0-5.6349 1.1557-7.2227 3.4688-1.5838 2.2917-2.375 5.6077-2.375 9.9512 0 4.4368 0.79253 7.8056 2.375 10.139 1.1039 1.6251 2.587 2.6794 4.4414 3.166 0 0 0.37425-0.014626 0.40625 0.36133 0.63992 4.9061 3.8858 4.9102 7.584 4.9102 0 0 0.47852 6.78e-4 0.47852-0.44727v-2.7031c0-0.45328-0.47852-0.45312-0.47852-0.45312-1.8491 0-2.3291 0.11568-2.8184-1.6348 0.63592-0.14532 1.2039-0.34355 1.7559-0.60352 1.2185-0.59859 2.2232-1.4706 3.0098-2.6211 0.79723-1.1559 1.3798-2.5822 1.7598-4.2793 0.39595-1.6931 0.58789-3.6369 0.58789-5.834 0-4.3901-0.80155-7.7277-2.416-9.998-1.6091-2.281-3.9789-3.4219-7.0879-3.4219zm-0.027344 2.1875v0.009766c0.68258 0 1.1936 0.22408 1.6309 0.69336 0.25464 0.2653 0.47872 0.61006 0.69336 1.0273 0.11465 0.30263 0.23428 0.63071 0.32227 1 0.25464 0.99454 0.43312 2.1958 0.53711 3.6289 0.10399 1.4318 0.14453 3.0579 0.14453 4.875 0 1.8278-0.040546 3.4726-0.14453 4.9258-0.10399 1.4478-0.28781 2.6663-0.53711 3.6875-0.09332 0.37995-0.20228 0.72958-0.32227 1.0469-0.02666 0.036-0.0353 0.083672-0.05664 0.125-0.19731 0.36395-0.40208 0.67648-0.63672 0.92578-0.43195 0.48927-0.95361 0.71875-1.6309 0.71875-0.67192 0-1.1971-0.22948-1.625-0.71875-0.42661-0.49994-0.77466-1.2221-1.0293-2.1953-0.25464-0.98921-0.43312-2.1946-0.53711-3.6211-0.09865-1.4372-0.16602-3.078-0.16602-4.9004 0-1.8064 0.0567-3.4162 0.16602-4.832 0.10399-1.4118 0.28248-2.604 0.53711-3.5625 0.25463-0.95855 0.60802-1.6727 1.0293-2.1406 0.42662-0.46394 0.94775-0.69336 1.625-0.69336zm14.791 1.8398c-1.4318 5.406-0.48011 5.4062-3.3438 5.4062v3.1543h1.9121v9.4629h-0.001954s-0.47826 2.7016 1.9121 4.0508c2.4584 1.3905 7.0668 0.06799 7.1602 0v-3.1504s-1.0414 0.3551-1.8066 0.28711c-0.60392 0-1.095-0.21934-1.459-0.64062-0.36929-0.42795-0.55664-1.0565-0.55664-1.9004v-8.1094h3.8223v-3.1543h-3.8223v-5.4062h-3.8164z" fill="url(#c)"/>
</svg>
