<svg xmlns="http://www.w3.org/2000/svg" width="64" height="64"><defs><linearGradient id="a"><stop offset="0" stop-color="#3889e9"/><stop offset="1" stop-color="#5ea5fb"/></linearGradient><linearGradient id="c" x1="400.57" x2="400.57" y1="517.8" y2="545.8" gradientUnits="userSpaceOnUse"><stop offset="0" stop-color="#49b202"/><stop offset="1" stop-color="#8cd958"/></linearGradient><linearGradient id="e" x1="32" x2="32" y1="16.002" y2="47.998" gradientUnits="userSpaceOnUse"><stop offset="0" stop-color="#fff"/><stop offset="1" stop-color="#daffd8"/></linearGradient><filter id="b" width="1.072" height="1.072" x="-.036" y="-.036" color-interpolation-filters="sRGB"><feGaussianBlur stdDeviation=".42"/></filter><filter id="d" width="1.12" height="1.12" x="-.06" y="-.06" color-interpolation-filters="sRGB"><feGaussianBlur stdDeviation=".8"/></filter></defs><g stroke-width=".733" transform="translate(-826.347 -1107.525) scale(2.14289)"><circle cx="400.57" cy="531.8" r="14" filter="url(#b)" opacity=".25"/><circle cx="400.57" cy="531.8" r="14" fill="url(#c)"/><circle cx="400.57" cy="531.8" r="14" fill="none"/></g><path d="M20.8 24 8 32l12.8 8v-4.8h22.4V40L56 32l-12.8-8v4.8H20.8" opacity=".15"/><path d="M25.598 16.002c-3.229 0-5.635 1.156-7.223 3.469C16.791 21.762 16 25.078 16 29.422c0 4.437.793 7.806 2.375 10.139 1.104 1.625 2.587 2.68 4.442 3.166 0 0 .374-.015.406.361.64 4.906 3.886 4.91 7.584 4.91 0 0 .478.001.478-.447v-2.703c0-.453-.478-.453-.478-.453-1.85 0-2.33.116-2.818-1.635a8.491 8.491 0 0 0 1.755-.603 7.718 7.718 0 0 0 3.01-2.621c.797-1.156 1.38-2.583 1.76-4.28.396-1.693.588-3.637.588-5.834 0-4.39-.802-7.727-2.416-9.998-1.61-2.28-3.979-3.422-7.088-3.422zm-.027 2.188v.01c.682 0 1.193.223 1.63.693.255.265.48.61.694 1.027.115.303.234.63.322 1 .255.994.433 2.196.537 3.629.104 1.432.145 3.058.145 4.875 0 1.828-.04 3.472-.145 4.926-.104 1.447-.288 2.666-.537 3.687a9.02 9.02 0 0 1-.322 1.047c-.027.036-.035.084-.057.125-.197.364-.402.677-.636.926-.432.49-.954.719-1.631.719-.672 0-1.197-.23-1.625-.72-.427-.5-.775-1.221-1.03-2.194-.254-.99-.433-2.195-.537-3.622a71.562 71.562 0 0 1-.166-4.9c0-1.806.057-3.416.166-4.832.104-1.412.283-2.604.537-3.562.255-.959.608-1.673 1.03-2.141.426-.464.947-.693 1.625-.693zm14.79 1.84c-1.431 5.405-.48 5.405-3.343 5.405v3.155h1.912v9.463h-.002s-.478 2.701 1.912 4.05c2.459 1.391 7.067.068 7.16 0v-3.15s-1.041.355-1.806.287c-.604 0-1.095-.22-1.46-.64-.369-.428-.556-1.057-.556-1.9v-8.11H48v-3.155h-3.822V20.03h-3.816z" filter="url(#d)" opacity=".15"/><path fill="url(#e)" d="M25.598 16.002c-3.229 0-5.635 1.156-7.223 3.469C16.791 21.762 16 25.078 16 29.422c0 4.437.793 7.806 2.375 10.139 1.104 1.625 2.587 2.68 4.442 3.166 0 0 .374-.015.406.361.64 4.906 3.886 4.91 7.584 4.91 0 0 .478.001.478-.447v-2.703c0-.453-.478-.453-.478-.453-1.85 0-2.33.116-2.818-1.635a8.491 8.491 0 0 0 1.755-.603 7.718 7.718 0 0 0 3.01-2.621c.797-1.156 1.38-2.583 1.76-4.28.396-1.693.588-3.637.588-5.834 0-4.39-.802-7.727-2.416-9.998-1.61-2.28-3.979-3.422-7.088-3.422zm-.027 2.188v.01c.682 0 1.193.223 1.63.693.255.265.48.61.694 1.027.115.303.234.63.322 1 .255.994.433 2.196.537 3.629.104 1.432.145 3.058.145 4.875 0 1.828-.04 3.472-.145 4.926-.104 1.447-.288 2.666-.537 3.687a9.02 9.02 0 0 1-.322 1.047c-.027.036-.035.084-.057.125-.197.364-.402.677-.636.926-.432.49-.954.719-1.631.719-.672 0-1.197-.23-1.625-.72-.427-.5-.775-1.221-1.03-2.194-.254-.99-.433-2.195-.537-3.622a71.562 71.562 0 0 1-.166-4.9c0-1.806.057-3.416.166-4.832.104-1.412.283-2.604.537-3.562.255-.959.608-1.673 1.03-2.141.426-.464.947-.693 1.625-.693zm14.79 1.84c-1.431 5.405-.48 5.405-3.343 5.405v3.155h1.912v9.463h-.002s-.478 2.701 1.912 4.05c2.459 1.391 7.067.068 7.16 0v-3.15s-1.041.355-1.806.287c-.604 0-1.095-.22-1.46-.64-.369-.428-.556-1.057-.556-1.9v-8.11H48v-3.155h-3.822V20.03h-3.816z"/></svg>