<svg xmlns="http://www.w3.org/2000/svg" width="64" height="64"><defs><linearGradient id="a"><stop offset="0" stop-color="#3889e9"/><stop offset="1" stop-color="#5ea5fb"/></linearGradient><linearGradient id="c" x1="400.57" x2="400.57" y1="517.8" y2="545.8" gradientUnits="userSpaceOnUse"><stop offset="0" stop-color="#49b202"/><stop offset="1" stop-color="#8cd958"/></linearGradient><linearGradient id="e" x1="32" x2="32" y1="16.002" y2="47.998" gradientUnits="userSpaceOnUse"><stop offset="0" stop-color="#fff"/><stop offset="1" stop-color="#daffd8"/></linearGradient><filter id="b" width="1.072" height="1.072" x="-.036" y="-.036" color-interpolation-filters="sRGB"><feGaussianBlur stdDeviation=".42"/></filter><filter id="d" width="1.12" height="1.12" x="-.06" y="-.06" color-interpolation-filters="sRGB"><feGaussianBlur stdDeviation=".8"/></filter></defs><g stroke-width=".733" transform="translate(-826.347 -1107.525) scale(2.14289)"><circle cx="400.57" cy="531.8" r="14" filter="url(#b)" opacity=".25"/><circle cx="400.57" cy="531.8" r="14" fill="url(#c)"/><circle cx="400.57" cy="531.8" r="14" fill="none"/></g><path d="M50.643 11.784a2.263 2.263 0 0 0-1.781.993c-.42.618-10.283 15.168-11.553 17.357-.635 1.095-1.351 2.872-1.947 4.497l5.126 3.005c1.117-1.324 2.309-2.836 2.953-3.947 1.284-2.215 9-17.978 9.328-18.648a2.264 2.264 0 0 0-2.126-3.258zM13.622 29.112a.199.199 0 0 0-.14.036c-1.54 1.116-2.559 3.143-2.478 4.929.042.952.409 2.275 1.912 3.17.81.483 2.12.583 3.386.68 1.246.097 2.534.199 2.93.683.105.127.145.28.122.474-.087.886-.517 1.758-.933 2.601-.785 1.593-1.596 3.24-.193 5.067 1.232 1.605 2.867 1.606 4.548 1.594l.414-.002c.733 0 1.579.021 2.347.289.546.212.821.65.95 1.52.098.532.336.952.65 1.268a1.46 1.46 0 0 1 .32-.676c.826-.974.664-1.885.252-3.69-.192-.838-.404-1.768-.457-2.781a5.05 5.05 0 0 0-1.301-.26 3.781 3.781 0 0 0-.232-.006c-.652 0-1.472.145-2.265.283-.707.123-1.375.238-1.84.238-.328 0-.442-.058-.479-.09-.396-.496.178-1.846.423-2.424a5.57 5.57 0 0 0 .14-.349c.398-1.169.688-2.413.138-3.594-.457-.982-1.525-1.763-2.714-1.99-.346-.08-.742-.118-1.25-.118-.417 0-.864.025-1.296.05-.443.027-.9.056-1.339.056-1.508 0-2.378-.346-2.903-1.15-.975-1.547.196-4.32 1.399-5.474a.195.195 0 0 0-.11-.334zm21.13 6.64c-.28.033-.56.09-.84.17-1.338.384-3.272 1.485-4.894 4.552-1.288 2.435-.813 4.52-.393 6.36.4 1.757.716 3.147-.461 4.537a.485.485 0 0 0 .127.737c.056.032.12.053.185.062 2.979.374 7.437-1.384 10.187-6.125 1.249-2.154 1.785-4.223 1.551-5.987a5.456 5.456 0 0 0-.335-1.301l-5.127-3.005z" opacity=".15"/><path d="M25.598 16.002c-3.229 0-5.635 1.156-7.223 3.469C16.791 21.762 16 25.078 16 29.422c0 4.437.793 7.806 2.375 10.139 1.104 1.625 2.587 2.68 4.442 3.166 0 0 .374-.015.406.361.64 4.906 3.886 4.91 7.584 4.91 0 0 .478.001.478-.447v-2.703c0-.453-.478-.453-.478-.453-1.85 0-2.33.116-2.818-1.635a8.491 8.491 0 0 0 1.755-.603 7.718 7.718 0 0 0 3.01-2.621c.797-1.156 1.38-2.583 1.76-4.28.396-1.693.588-3.637.588-5.834 0-4.39-.802-7.727-2.416-9.998-1.61-2.28-3.979-3.422-7.088-3.422zm-.027 2.188v.01c.682 0 1.193.223 1.63.693.255.265.48.61.694 1.027.115.303.234.63.322 1 .255.994.433 2.196.537 3.629.104 1.432.145 3.058.145 4.875 0 1.828-.04 3.472-.145 4.926-.104 1.447-.288 2.666-.537 3.687a9.02 9.02 0 0 1-.322 1.047c-.027.036-.035.084-.057.125-.197.364-.402.677-.636.926-.432.49-.954.719-1.631.719-.672 0-1.197-.23-1.625-.72-.427-.5-.775-1.221-1.03-2.194-.254-.99-.433-2.195-.537-3.622a71.562 71.562 0 0 1-.166-4.9c0-1.806.057-3.416.166-4.832.104-1.412.283-2.604.537-3.562.255-.959.608-1.673 1.03-2.141.426-.464.947-.693 1.625-.693zm14.79 1.84c-1.431 5.405-.48 5.405-3.343 5.405v3.155h1.912v9.463h-.002s-.478 2.701 1.912 4.05c2.459 1.391 7.067.068 7.16 0v-3.15s-1.041.355-1.806.287c-.604 0-1.095-.22-1.46-.64-.369-.428-.556-1.057-.556-1.9v-8.11H48v-3.155h-3.822V20.03h-3.816z" filter="url(#d)" opacity=".15"/><path fill="url(#e)" d="M25.598 16.002c-3.229 0-5.635 1.156-7.223 3.469C16.791 21.762 16 25.078 16 29.422c0 4.437.793 7.806 2.375 10.139 1.104 1.625 2.587 2.68 4.442 3.166 0 0 .374-.015.406.361.64 4.906 3.886 4.91 7.584 4.91 0 0 .478.001.478-.447v-2.703c0-.453-.478-.453-.478-.453-1.85 0-2.33.116-2.818-1.635a8.491 8.491 0 0 0 1.755-.603 7.718 7.718 0 0 0 3.01-2.621c.797-1.156 1.38-2.583 1.76-4.28.396-1.693.588-3.637.588-5.834 0-4.39-.802-7.727-2.416-9.998-1.61-2.28-3.979-3.422-7.088-3.422zm-.027 2.188v.01c.682 0 1.193.223 1.63.693.255.265.48.61.694 1.027.115.303.234.63.322 1 .255.994.433 2.196.537 3.629.104 1.432.145 3.058.145 4.875 0 1.828-.04 3.472-.145 4.926-.104 1.447-.288 2.666-.537 3.687a9.02 9.02 0 0 1-.322 1.047c-.027.036-.035.084-.057.125-.197.364-.402.677-.636.926-.432.49-.954.719-1.631.719-.672 0-1.197-.23-1.625-.72-.427-.5-.775-1.221-1.03-2.194-.254-.99-.433-2.195-.537-3.622a71.562 71.562 0 0 1-.166-4.9c0-1.806.057-3.416.166-4.832.104-1.412.283-2.604.537-3.562.255-.959.608-1.673 1.03-2.141.426-.464.947-.693 1.625-.693zm14.79 1.84c-1.431 5.405-.48 5.405-3.343 5.405v3.155h1.912v9.463h-.002s-.478 2.701 1.912 4.05c2.459 1.391 7.067.068 7.16 0v-3.15s-1.041.355-1.806.287c-.604 0-1.095-.22-1.46-.64-.369-.428-.556-1.057-.556-1.9v-8.11H48v-3.155h-3.822V20.03h-3.816z"/></svg>