<svg xmlns="http://www.w3.org/2000/svg" width="64" height="64" viewBox="0 0 16.933 16.933"><defs><linearGradient id="b" x1="8.587" x2="8.587" y1="15.747" y2="1.097" gradientTransform="translate(-.605 -.596)scale(1.0714)" gradientUnits="userSpaceOnUse"><stop offset="0" stop-color="#333"/><stop offset="1" stop-color="gray"/></linearGradient><linearGradient id="d" x1="7.937" x2="7.937" y1="4.571" y2="8.473" gradientUnits="userSpaceOnUse"><stop offset="0" stop-color="#ff7072"/><stop offset="1" stop-color="#ff3875"/></linearGradient><linearGradient id="e" x1="8.466" x2="8.466" y1="8.731" y2="12.435" gradientUnits="userSpaceOnUse"><stop offset="0" stop-color="#59aef8"/><stop offset="1" stop-color="#3478d5"/></linearGradient><filter id="c" width="1.21" height="1.222" x="-.105" y="-.111" color-interpolation-filters="sRGB"><feGaussianBlur stdDeviation=".417"/></filter><filter id="a" width="1.061" height="1.061" x="-.031" y="-.031" color-interpolation-filters="sRGB"><feGaussianBlur stdDeviation=".203"/></filter></defs><rect width="15.875" height="15.875" x=".529" y=".529" filter="url(#a)" opacity=".15" rx="7.937" ry="7.937"/><rect width="15.875" height="15.875" x=".529" y=".529" fill="url(#b)" rx="7.937" ry="7.937"/><g filter="url(#c)" opacity=".35" transform="translate(0 .265)"><path d="M3.704 3.969h9.525V8.73h-2.381V6.35H3.704"/><path d="M3.704 10.583v2.38h9.525v-2.38h-3.44V8.202H7.144v2.381"/></g><path fill="url(#d)" d="M3.704 3.969h9.525V8.73h-2.381V6.35H3.704"/><path fill="url(#e)" d="M3.704 10.583v2.38h9.525v-2.38h-3.44V8.202H7.144v2.381"/></svg>