<svg xmlns="http://www.w3.org/2000/svg" stroke-linecap="round" stroke-linejoin="round" stroke-miterlimit="10" clip-rule="evenodd" viewBox="0 0 62.441 64"><defs><linearGradient id="c" x2="256" y1="-105.4" y2="276.85" gradientTransform="matrix(.1645 0 0 .17786 10.165 14.444)" gradientUnits="userSpaceOnUse"><stop offset="0" stop-color="#cbced0"/><stop offset="1" stop-color="#84838b"/></linearGradient><linearGradient id="d" x1="105.47" x2="246.77" y1="53.23" y2="197.41" gradientTransform="matrix(.1645 0 0 .17786 10.165 14.444)" gradientUnits="userSpaceOnUse"><stop offset="0" stop-color="#276dc3"/><stop offset="1" stop-color="#165caa"/></linearGradient><linearGradient id="b" x1="408.25" x2="407.94" y1="547.6" y2="498.89" gradientTransform="translate(-510.62 -663.5) scale(1.3276)" gradientUnits="userSpaceOnUse"><stop offset="0" stop-color="#fff"/><stop offset="1" stop-color="#e6e6e6"/></linearGradient><filter id="a" width="1.072" height="1.072" x="-.036" y="-.036" color-interpolation-filters="sRGB"><feGaussianBlur stdDeviation=".9"/></filter></defs><circle cx="32" cy="32" r="30" fill-rule="evenodd" filter="url(#a)" opacity=".25" style="paint-order:fill markers stroke"/><rect width="59.997" height="59.997" x="2.002" y="2.002" fill="url(#b)" ry="29.998"/><g fill-rule="evenodd"><path fill="url(#c)" d="M31.22 44.939c-11.628 0-21.055-6.827-21.055-15.248 0-8.42 9.427-15.247 21.056-15.247 11.628 0 21.055 6.826 21.055 15.247S42.85 44.94 31.221 44.94zm3.224-24.534c-8.84 0-16.004 4.667-16.004 10.424 0 5.756 7.165 10.423 16.004 10.423 8.838 0 15.362-3.19 15.362-10.423 0-7.231-6.523-10.424-15.362-10.424z"/><path fill="url(#d)" d="M42.232 38.06s1.274.416 2.014.82c.258.143.702.422 1.023.79.314.36.467.726.467.726l5.022 9.156-8.118.004-3.796-7.707s-.777-1.445-1.255-1.863c-.4-.35-.57-.474-.964-.474h-1.928l.001 10.038-7.183.004V23.912H41.94s6.57.128 6.57 6.886c0 6.76-6.278 7.262-6.278 7.262zm-3.125-8.586-4.348-.003-.002 4.36h4.35s2.015-.007 2.015-2.218c0-2.256-2.014-2.138-2.014-2.138v-.001z"/></g></svg>