<?xml version="1.0" encoding="UTF-8"?>
<svg width="64" height="64" version="1.1" xmlns="http://www.w3.org/2000/svg">
 <defs>
  <filter id="b" x="-.15488" y="-.16337" width="1.3098" height="1.3267" color-interpolation-filters="sRGB">
   <feGaussianBlur stdDeviation="3.077"/>
  </filter>
  <filter id="filter943" x="-.03888" y="-.03888" width="1.0778" height="1.0778" color-interpolation-filters="sRGB">
   <feGaussianBlur stdDeviation="0.972"/>
  </filter>
  <linearGradient id="a-3" x1="7.937" x2="7.937" y1="15.081" y2="1.852" gradientTransform="matrix(4.0494,0,0,4.0494,-2.2856,-2.2523)" gradientUnits="userSpaceOnUse">
   <stop stop-color="#f1efeb" offset="0"/>
   <stop stop-color="#fdfcfc" offset="1"/>
  </linearGradient>
 </defs>
 <rect x="2" y="2" width="60" height="60" rx="30" ry="30" filter="url(#filter943)" opacity=".35" stroke-width="1.0714"/>
 <rect x="2" y="2" width="60" height="60" rx="30" ry="30" fill="url(#a-3)" stroke-width="1.0714"/>
 <g transform="translate(11.05 14.56) scale(.84524)" clip-rule="evenodd" fill-opacity=".44332" filter="url(#b)" opacity=".13288" stroke-linejoin="round" stroke-miterlimit="1.4142" stroke-width=".68344">
  <path d="M45.727 21.836a14.504 14.504 0 0 0-6.223-5.809 15.87 15.87 0 0 1-1.857 5.022l-1.46 2.532a6.313 6.313 0 0 1 2.415 2.368 6.349 6.349 0 0 1-10.997 6.349l-2.944-5.092H19.91l-2.376 4.115 2.947 5.09c4.025 6.972 12.94 9.36 19.911 5.335 6.971-4.024 9.36-12.938 5.335-19.91"/>
  <path d="M31.128.455C24.156-3.57 15.242-1.182 11.218 5.79a14.502 14.502 0 0 0-1.92 8.293 15.868 15.868 0 0 1 5.278-.902l2.922-.003a6.314 6.314 0 0 1 .843-3.274 6.349 6.349 0 0 1 10.997 6.348L26.4 21.348l2.375 4.115h4.751l2.936-5.098C40.488 13.395 38.1 4.48 31.128.455"/>
  <path d="m19.298 37.096-1.464-2.53a6.308 6.308 0 0 1-3.258.907 6.349 6.349 0 1 1 0-12.698l5.881-.004 2.377-4.114-2.377-4.114-5.881.005C6.526 14.548 0 21.074 0 29.124S6.525 43.7 14.576 43.7a14.51 14.51 0 0 0 8.139-2.483 15.88 15.88 0 0 1-3.417-4.122"/>
 </g>
 <g transform="translate(0 -2.1859)" clip-rule="evenodd" stroke-linejoin="round" stroke-miterlimit="1.4142" stroke-width=".68344">
  <path transform="matrix(.8043 0 0 .8043 12.423 15.602)" d="m45.727 21.836a14.504 14.504 0 0 0-6.223-5.809 15.87 15.87 0 0 1-1.857 5.022l-1.46 2.532a6.313 6.313 0 0 1 2.415 2.368 6.3491 6.3491 0 0 1-10.997 6.349l-2.944-5.092h-4.751l-2.376 4.115 2.947 5.09c4.025 6.972 12.94 9.36 19.911 5.335 6.971-4.024 9.36-12.938 5.335-19.91" fill="#70caf2"/>
  <path transform="matrix(.8043 0 0 .8043 12.423 15.602)" d="m31.128 0.455c-6.972-4.025-15.886-1.637-19.91 5.335a14.502 14.502 0 0 0-1.92 8.293 15.868 15.868 0 0 1 5.278-0.902l2.922-3e-3a6.314 6.314 0 0 1 0.843-3.274 6.349 6.349 0 0 1 10.997 6.348l-2.938 5.096 2.375 4.115h4.751l2.936-5.098c4.026-6.97 1.638-15.885-5.334-19.91" fill="#b4e3f9"/>
  <path transform="matrix(.8043 0 0 .8043 12.423 15.602)" d="m19.298 37.096-1.464-2.53a6.308 6.308 0 0 1-3.258 0.907 6.349 6.349 0 1 1 0-12.698l5.881-4e-3 2.377-4.114-2.377-4.114-5.881 5e-3c-8.05 0-14.576 6.526-14.576 14.576s6.525 14.576 14.576 14.576a14.51 14.51 0 0 0 8.139-2.483 15.88 15.88 0 0 1-3.417-4.122" fill="#3f79ad"/>
 </g>
</svg>
