<svg xmlns="http://www.w3.org/2000/svg" xmlns:xlink="http://www.w3.org/1999/xlink" width="64" height="64"><defs><linearGradient id="e"><stop offset="0" style="stop-color:#ed333b;stop-opacity:1"/><stop offset="1" style="stop-color:#a90f15;stop-opacity:1"/></linearGradient><linearGradient id="c"><stop offset="0" style="stop-color:#57e389;stop-opacity:1"/><stop offset="1" style="stop-color:#1fb755;stop-opacity:1"/></linearGradient><linearGradient id="b"><stop offset="0" style="stop-color:#62a0ea;stop-opacity:1"/><stop offset="1" style="stop-color:#1b6bca;stop-opacity:1"/></linearGradient><linearGradient id="a"><stop offset="0" style="stop-color:#c061cb;stop-opacity:1"/><stop offset="1" style="stop-color:#8c3196;stop-opacity:1"/></linearGradient><linearGradient id="f" x1="7.937" x2="7.937" y1="15.081" y2="1.852" gradientTransform="scale(3.7796)" gradientUnits="userSpaceOnUse"><stop offset="0" stop-color="#f1efeb"/><stop offset="1" stop-color="#fdfcfc"/></linearGradient><linearGradient id="s" x1="115" x2="115" y1="183" y2="174" gradientTransform="matrix(.11726 -.11726 .114 .114 -20.852 -3.222)" gradientUnits="userSpaceOnUse"><stop offset="0" stop-color="#e01b24"/><stop offset="1" stop-color="#f66151"/></linearGradient><linearGradient id="u" x1="128.817" x2="158.518" y1="-97.698" y2="-127.399" gradientTransform="matrix(.0067 -.03188 .03188 -.0067 9.872 13.582)" gradientUnits="userSpaceOnUse"><stop offset="0" stop-color="#d0bb8e"/><stop offset="1" stop-color="#fff"/></linearGradient><linearGradient id="v" x1="110" x2="110" y1="182" y2="174" gradientTransform="matrix(.09771 -.09771 .114 .114 -18.743 -5.333)" gradientUnits="userSpaceOnUse"><stop offset="0" stop-color="#9a9996"/><stop offset=".533" stop-color="#deddda"/><stop offset="1" stop-color="#f6f5f4"/></linearGradient><linearGradient id="t" x1=".464" x2=".464" y1=".947" y2=".054" gradientUnits="userSpaceOnUse"><stop offset="0%" stop-color="#EEE"/><stop offset="100%" stop-color="#FDFCFC"/></linearGradient><linearGradient xlink:href="#a" id="l" x1="4.33" x2="6.187" y1="12.682" y2="12.682" gradientUnits="userSpaceOnUse"/><linearGradient xlink:href="#b" id="q" x1="4.33" x2="6.187" y1="8.504" y2="8.504" gradientUnits="userSpaceOnUse"/><linearGradient xlink:href="#c" id="n" x1="7.425" x2="9.282" y1="6.183" y2="6.183" gradientUnits="userSpaceOnUse"/><linearGradient xlink:href="#e" id="m" x1="4.021" x2="6.497" y1="4.016" y2="4.016" gradientUnits="userSpaceOnUse"/><filter id="r" width="1.092" height="1.112" x="-.046" y="-.046" filterUnits="objectBoundingBox"><feOffset dy="1" in="SourceAlpha" result="shadowOffsetOuter1"/><feGaussianBlur in="shadowOffsetOuter1" result="shadowBlurOuter1" stdDeviation="1"/><feColorMatrix in="shadowBlurOuter1" values="0 0 0 0 0 0 0 0 0 0 0 0 0 0 0 0 0 0 0.24 0"/></filter><filter id="g" width="1.142" height="1.073" x="-.071" y="-.036" style="color-interpolation-filters:sRGB"><feGaussianBlur stdDeviation=".917"/></filter><filter id="h" width="1.312" height="1.312" x="-.156" y="-.156" style="color-interpolation-filters:sRGB"><feGaussianBlur stdDeviation=".161"/></filter><filter id="i" width="1.416" height="1.416" x="-.208" y="-.208" style="color-interpolation-filters:sRGB"><feGaussianBlur stdDeviation=".161"/></filter><filter id="j" width="1.416" height="1.416" x="-.208" y="-.208" style="color-interpolation-filters:sRGB"><feGaussianBlur stdDeviation=".161"/></filter><filter id="k" width="1.416" height="1.416" x="-.208" y="-.208" style="color-interpolation-filters:sRGB"><feGaussianBlur stdDeviation=".161"/></filter></defs><rect width="60" height="60" x="2" y="2" fill="url(#f)" rx="30" ry="30"/><path d="M53.104 1.229c-.642-.019-1.273.348-1.549.92l-2.418 5.007-1.564 3.24 1.453.702.016.01 2.205 1.064.008.004 1.46.705 1.567-3.242 2.402-4.977c.426-.882.068-1.825-.744-2.217l-2.203-1.062a1.6 1.6 0 0 0-.633-.154m-.389 11.652-1.48-.687-.002.002-2.201-1.065-1.46-.734-20.333 42.13 1.203.583-1.203-.58-.694 4.718-.69 4.719 3.263-3.478 3.263-3.477zM28.708 53.237 30.91 54.3z" style="opacity:.25;mix-blend-mode:normal;fill:#000;fill-opacity:1;stroke-width:.605748;filter:url(#g)" transform="matrix(1 0 0 .97885 0 1.052)"/><g style="display:inline"><path fill="#9a9996" d="M4.95 3.667h.618v12.07H4.95zm0 0" style="stroke-width:.154749" transform="translate(-.973 -1.076)scale(3.87919)"/><path fill="none" stroke="#9a9996" stroke-linecap="round" stroke-width="2.401" d="M19.427 49.32h6.003a6.003 6.003 0 0 0 6.003-6.003v-21.61"/><path fill="#a51d2d" d="M6.497 4.326a1.238 1.238 0 1 1-2.476 0 1.238 1.238 0 0 1 2.476 0m0 0" style="display:inline;opacity:.25;fill:#000;fill-opacity:1;stroke-width:.154749;filter:url(#h)" transform="translate(-.973 -1.076)scale(3.87919)"/><path fill="#26a269" d="M9.282 6.492a.929.929 0 1 1-1.857 0 .929.929 0 0 1 1.857 0m0 0" style="display:inline;opacity:.25;fill:#000;fill-opacity:1;stroke-width:.154749;filter:url(#i)" transform="translate(-.973 -1.076)scale(3.87919)"/><path fill="#1c71d8" d="M6.187 8.813a.929.929 0 1 1-1.857 0 .929.929 0 0 1 1.857 0m0 0" style="display:inline;opacity:.25;fill:#000;fill-opacity:1;stroke-width:.154749;filter:url(#j)" transform="translate(-.973 -1.076)scale(3.87919)"/><path fill="#813d9c" d="M6.187 12.991a.929.929 0 1 1-1.857 0 .929.929 0 0 1 1.857 0m0 0" style="display:inline;opacity:.25;fill:#000;fill-opacity:1;stroke-width:.154749;filter:url(#k)" transform="translate(-.973 -1.076)scale(3.87919)"/><path fill="#c061cb" d="M6.187 12.682a.929.929 0 1 1-1.857 0 .929.929 0 0 1 1.857 0m0 0" style="fill:url(#l);stroke-width:.154749" transform="translate(-.973 -1.076)scale(3.87919)"/><path fill="#ed333b" d="M6.497 4.016a1.238 1.238 0 1 1-2.476 0 1.238 1.238 0 0 1 2.476 0m0 0" style="fill:url(#m);stroke-width:.154749" transform="translate(-.973 -1.076)scale(3.87919)"/><path fill="#57e389" d="M9.282 6.183a.929.929 0 1 1-1.857 0 .929.929 0 0 1 1.857 0m0 0" style="fill:url(#n);stroke-width:.154749" transform="translate(-.973 -1.076)scale(3.87919)"/><path fill="#62a0ea" d="M6.187 8.504a.929.929 0 1 1-1.857 0 .929.929 0 0 1 1.857 0m0 0" style="fill:url(#q);stroke-width:.154749" transform="translate(-.973 -1.076)scale(3.87919)"/></g><path fill="url(#r)" d="m11.809 3.33.604-.603c.092-.092.353-.003.569.213l.586.586c.216.216.316.467.21.573l-.6.6a.553.553 0 0 1-.783 0l-.586-.586a.553.553 0 0 1 0-.782" style="fill:url(#s);stroke-width:.138187" transform="matrix(3.88057 -3.2387 -.12145 5.05305 1.39 28.445)"/><path fill="url(#t)" d="m6.869 10.323-.684-.684.152-.836 1.368 1.368Zm0 0" style="fill:url(#u);stroke-width:.138187" transform="matrix(3.88057 -3.2387 -.12145 5.05305 1.39 28.445)"/><path fill="#424048" d="m6.032 10.476.153-.837.684.684Zm0 0" style="stroke-width:.138187" transform="matrix(3.88057 -3.2387 -.12145 5.05305 1.39 28.445)"/><path fill="#5e5c64" d="m7.549 10.015-.86-.86 5.078-5.078.86.86Zm0 0" style="stroke-width:.138187" transform="matrix(3.88057 -3.2387 -.12145 5.05305 1.39 28.445)"/><path fill="#77767b" d="m6.728 9.194-.391-.391 5.081-5.081.388.394Zm0 0" style="stroke-width:.138187" transform="matrix(3.88057 -3.2387 -.12145 5.05305 1.39 28.445)"/><path fill="#3d3846" d="m7.314 9.78.39.391 5.082-5.081-.394-.388Zm0 0" style="stroke-width:.138187" transform="matrix(3.88057 -3.2387 -.12145 5.05305 1.39 28.445)"/><path fill="url(#d)" d="m11.418 3.722.39-.391 1.37 1.368-.392.391zm0 0" style="fill:url(#v);stroke-width:.138187" transform="matrix(3.88057 -3.2387 -.12145 5.05305 1.39 28.445)"/></svg>