<svg xmlns="http://www.w3.org/2000/svg" width="64" height="64"><defs><filter id="c" width="1.319" height="1.273" x="-.159" y="-.137" color-interpolation-filters="sRGB"><feGaussianBlur stdDeviation="1.934"/></filter><filter id="a" width="1.054" height="1.054" x="-.027" y="-.027" color-interpolation-filters="sRGB"><feGaussianBlur stdDeviation=".675"/></filter><linearGradient id="b" x1="7.937" x2="7.937" y1="15.081" y2="1.852" gradientTransform="translate(-2.286 -2.252)scale(4.0494)" gradientUnits="userSpaceOnUse"><stop offset="0" stop-color="#0e71de"/><stop offset="1" stop-color="#25c9ff"/></linearGradient></defs><rect width="60" height="60" x="2" y="3" filter="url(#a)" opacity=".15" rx="30" ry="30"/><rect width="60" height="60" x="2" y="2" fill="url(#b)" rx="30" ry="30"/><path d="M32 14v4.858a14.572 14.572 0 1 0 14.572 14.57h-4.858A9.714 9.714 0 1 1 32 23.714v4.858l12.142-7.286z" color="#bebebe" filter="url(#c)" opacity=".15" overflow="visible"/><path fill="#fff" d="M32 13v4.858a14.572 14.572 0 1 0 14.572 14.57h-4.858A9.714 9.714 0 1 1 32 22.714v4.858l12.142-7.286z" color="#bebebe" overflow="visible"/></svg>