<svg xmlns="http://www.w3.org/2000/svg" width="64" height="64"><defs><linearGradient id="b" x1="399.99" x2="399.99" y1="545.14" y2="518.14" gradientTransform="translate(-826.36 -1107.5) scale(2.1429)" gradientUnits="userSpaceOnUse"><stop offset="0" stop-color="#21abf3"/><stop offset="1" stop-color="#1d64ff"/></linearGradient><linearGradient id="d" x1="31.591" x2="31.591" y1="15.469" y2="50.304" gradientUnits="userSpaceOnUse"><stop offset="0" stop-color="#2e2e2e"/><stop offset="1" stop-color="#1a1a1a" stop-opacity=".984"/></linearGradient><filter id="a" width="1.072" height="1.072" x="-.036" y="-.036" color-interpolation-filters="sRGB"><feGaussianBlur stdDeviation=".42"/></filter><filter id="c" width="1.216" height="1.216" x="-.108" y="-.108" color-interpolation-filters="sRGB"><feGaussianBlur stdDeviation="1.8"/></filter></defs><circle cx="400.57" cy="531.8" r="14" filter="url(#a)" opacity=".25" transform="translate(-826.36 -1107.5) scale(2.1429)"/><g stroke-width="1.571"><circle cx="32.02" cy="32.044" r="30.001" fill="url(#b)"/><circle cx="32.02" cy="32.044" r="30.001" fill="none"/></g><path d="M16.785 50.939c-4.824-10.416-6.15-22.088-3.293-29.003.525-1.27.313-1.17 5.618-2.642.298-.082 1.451-.985 2.563-2.005 6.29-5.776 14.712-5.712 21.316.162 1.86 1.655 2.401 1.953 4.542 2.5 2.208.563 2.48.72 2.972 1.706.298.598.785 2.264 1.082 3.704.71 3.43.48 10.715-.461 14.658-1.322 5.536-4.414 13.16-5.24 12.918-.223-.066-.912-1.068-1.528-2.227-1.07-2.288-2.96-4.334-4.883-5.036-3.275-1.194-11.19-.757-14.507-.043-3.799.818-3.888 2.45-5.105 5.036-.7 1.488-1.283 2.334-1.61 2.334-.322 0-.866-.765-1.467-2.062z" filter="url(#c)" opacity=".15"/><path fill="url(#d)" d="M16.785 49.939c-4.824-10.416-6.15-22.088-3.293-29.003.525-1.27.313-1.17 5.618-2.642.298-.082 1.451-.985 2.563-2.005 6.29-5.776 14.712-5.712 21.316.162 1.86 1.655 2.401 1.953 4.542 2.5 2.208.563 2.48.72 2.972 1.706.298.598.785 2.264 1.082 3.704.71 3.43.48 10.715-.461 14.658-1.322 5.536-4.414 13.16-5.24 12.918-.223-.066-.912-1.068-1.528-2.227-1.07-2.288-2.96-4.334-4.883-5.036-3.275-1.194-11.19-.757-14.507-.043-3.799.818-3.888 2.45-5.105 5.036-.7 1.488-1.283 2.334-1.61 2.334-.322 0-.866-.765-1.467-2.062z"/></svg>