<svg xmlns="http://www.w3.org/2000/svg" width="64" height="64" viewBox="0 0 16.933 16.933"><defs><filter id="c" width="1.177" height="1.277" x="-.089" y="-.138" color-interpolation-filters="sRGB"><feGaussianBlur stdDeviation=".32"/></filter><filter id="a" width="1.078" height="1.078" x="-.039" y="-.039" color-interpolation-filters="sRGB"><feGaussianBlur stdDeviation=".972"/></filter><linearGradient id="b" x1="-39.605" x2="-39.605" y1="58.247" y2="6.988" gradientTransform="translate(18.664 .111) scale(.26458)" gradientUnits="userSpaceOnUse"><stop offset="0" stop-color="#33db7f"/><stop offset="1" stop-color="#addf4f"/></linearGradient></defs><circle cx="32.333" cy="32.333" r="30" filter="url(#a)" opacity=".15" style="isolation:isolate;paint-order:stroke fill markers" transform="translate(-.088 -.088) scale(.26458)"/><circle cx="8.466" cy="8.466" r="7.937" fill="url(#b)" style="isolation:isolate;paint-order:stroke fill markers"/><g stroke-width=".347"><path d="m5.568 6.21-1.042 3.822h.694L6.263 6.21zm.695 0 1.042 3.822H8L6.957 6.21zM8 10.032h.695v-.695H8zm2.084-3.822-1.042 3.822h.695l1.042-3.822zm1.914 1.043a1.69 1.69 0 0 0-.658.125c-.195.08-.361.193-.498.34a1.447 1.447 0 0 0-.304.515c-.07.196-.106.414-.106.653 0 .272.037.507.112.704.074.196.176.362.304.496.129.13.278.226.448.289.442.153.834.08 1.22-.114v.139c0 .301 0 .548-.107.66-.15.138-.396.206-.74.206-.183 0-.358-.018-.528-.056a2.501 2.501 0 0 1-.423-.12l-.106.51a3.278 3.278 0 0 0 1.044.17c.523 0 .913-.114 1.17-.34.257-.226.385-.59.385-1.093V7.422c-.397-.087-.786-.173-1.213-.17zm.028.524c.156.002.319.03.49.06v1.91c-.346.252-.587.265-.94.157-.264-.08-.377-.315-.473-.528-.058-.13-.068-.296-.068-.484 0-.34.062-.63.248-.816a.952.952 0 0 1 .743-.3z" filter="url(#c)" opacity=".15"/><path fill="#2a2a2a" d="M5.22 5.863 4.178 9.685h.695l1.042-3.822zm4.517 0L8.694 9.685h.695l1.043-3.822zm1.914 1.042a1.69 1.69 0 0 0-.659.126 1.39 1.39 0 0 0-.497.34 1.447 1.447 0 0 0-.305.514c-.07.197-.106.415-.106.654 0 .272.038.506.112.703.075.197.176.362.305.496.128.13.278.226.448.29.442.153.833.08 1.22-.114v.138c0 .302 0 .549-.107.66-.15.138-.397.207-.74.207-.183 0-.359-.019-.529-.056a2.501 2.501 0 0 1-.422-.12l-.106.51a3.28 3.28 0 0 0 1.044.169c.522 0 .912-.113 1.17-.34.256-.226.385-.59.385-1.093V7.075c-.397-.087-.787-.173-1.213-.17zm.518.585v1.909c-.346.252-.587.265-.94.157-.264-.08-.377-.315-.473-.528-.058-.129-.069-.295-.069-.483 0-.34.062-.63.249-.817.382-.383.775-.318 1.233-.239z"/><path fill="#f9f9f9" d="m5.915 5.863 1.042 3.822h.695L6.61 5.863zm1.737 3.822h.695V8.99h-.695z"/></g></svg>