<?xml version="1.0" encoding="UTF-8"?>
<svg width="64" height="64" version="1.1" viewBox="0 0 16.933 16.933" xmlns="http://www.w3.org/2000/svg" xmlns:xlink="http://www.w3.org/1999/xlink">
 <defs>
  <radialGradient id="r" cx="19.75" cy="5.569" r="18" gradientTransform="matrix(-.0253 1.7569 -1.5208 -.0219 36.719 -15.639)" gradientUnits="userSpaceOnUse">
   <stop stop-color="#99d3dd" offset="0"/>
   <stop stop-color="#72c0cf" offset="1"/>
  </radialGradient>
  <radialGradient id="t" cx="16" cy="20.185" r="13.125" gradientTransform="matrix(-.02824 1.9809 -2.4283 -.03462 73.153 -2.02)" gradientUnits="userSpaceOnUse">
   <stop stop-color="#146675" offset="0"/>
   <stop stop-color="#4e8b97" offset="1"/>
  </radialGradient>
  <radialGradient id="u" cx="1.615" cy="17.867" r="13.875" gradientTransform="matrix(-.04684 3.1966 -5.0116 -.07343 93.241 14.776)" gradientUnits="userSpaceOnUse">
   <stop stop-color="#72c0cf" offset="0"/>
   <stop stop-color="#077e94" offset="1"/>
  </radialGradient>
  <radialGradient id="v" cx="3.5" cy="9.295" r="18.5" gradientTransform="matrix(.03593 1.7696 -2.6671 .05415 36.165 16.803)" gradientUnits="userSpaceOnUse">
   <stop stop-color="#3493a4" offset="0"/>
   <stop stop-color="#214146" offset="1"/>
  </radialGradient>
  <radialGradient id="y" cx="5.625" cy="10.309" r="18.5" gradientTransform="matrix(.03763 2.2227 -2.3314 .03947 37.447 6.59)" gradientUnits="userSpaceOnUse">
   <stop stop-color="#207787" offset="0"/>
   <stop stop-color="#223d42" offset="1"/>
  </radialGradient>
  <radialGradient id="z" cx="37.375" cy="33.188" r="14.625" gradientTransform="matrix(.4207 0 0 .10417 31.121 31.613)" gradientUnits="userSpaceOnUse">
   <stop offset="0"/>
   <stop stop-opacity="0" offset="1"/>
  </radialGradient>
  <radialGradient id="B" cx="27.5" cy="22.614" r="6.5" gradientTransform="matrix(1.5911 -.07843 .09932 1.9583 5.14 -4.567)" gradientUnits="userSpaceOnUse">
   <stop stop-color="#737373" offset="0"/>
   <stop stop-opacity="0" offset="1"/>
  </radialGradient>
  <radialGradient id="F" cx="26.625" cy="26.577" r="12.5" gradientTransform="matrix(.98115 -.32242 .11894 .35175 20.952 37.753)" gradientUnits="userSpaceOnUse">
   <stop stop-color="#e40000" offset="0"/>
   <stop stop-color="#490000" offset="1"/>
  </radialGradient>
  <radialGradient id="G" cx="25.017" cy="13.192" r="9.751" gradientTransform="matrix(1.2818 0 0 .46521 18.04 27.346)" gradientUnits="userSpaceOnUse">
   <stop stop-color="#fd0000" offset="0"/>
   <stop stop-color="#6a0000" offset="1"/>
  </radialGradient>
  <radialGradient id="J" cx="18" cy="14.19" r="5.505" gradientTransform="matrix(1.0342 0 0 .18745 30.961 30.693)" gradientUnits="userSpaceOnUse">
   <stop stop-color="#FFF" offset="0"/>
   <stop stop-color="#FFF" stop-opacity="0" offset="1"/>
  </radialGradient>
  <linearGradient id="C" x1="27.681" x2="21.44" y1="14.243" y2="9.277" gradientTransform="matrix(1.2745 0 0 1.0289 18.209 38.182)" gradientUnits="userSpaceOnUse">
   <stop stop-color="#373737" offset="0"/>
   <stop stop-color="#373737" stop-opacity="0" offset="1"/>
  </linearGradient>
  <linearGradient id="D" x1="25.269" x2="17.799" y1="12.038" y2="5.035" gradientTransform="matrix(1.2818 0 0 .93981 18.04 39.162)" gradientUnits="userSpaceOnUse" xlink:href="#l"/>
  <linearGradient id="l">
   <stop stop-color="#FFF" offset="0"/>
   <stop stop-color="#FFF" stop-opacity="0" offset="1"/>
  </linearGradient>
  <linearGradient id="E" x1="29" x2="19" y1="33" y2="27" gradientTransform="matrix(1.0342 0 0 1.0196 22.7 13.091)" gradientUnits="userSpaceOnUse">
   <stop stop-color="#373737" offset="0"/>
   <stop stop-color="#FFF" offset="1"/>
  </linearGradient>
  <linearGradient id="H" x1="30.376" x2="22" y1="25.27" y2="19" gradientTransform="matrix(1.0293 0 0 1.0286 22.853 13.143)" gradientUnits="userSpaceOnUse" xlink:href="#l"/>
  <linearGradient id="I" x1="17.605" x2="23" y1="18.312" y2="18.312" gradientTransform="matrix(1.0342 0 0 1.0196 23.585 12.412)" gradientUnits="userSpaceOnUse" xlink:href="#l"/>
  <linearGradient id="K" x1="16" x2="20.5" y1="27.5" y2="25.5" gradientTransform="translate(-8 15.968)" gradientUnits="userSpaceOnUse">
   <stop offset="0"/>
   <stop stop-color="#373737" stop-opacity="0" offset="1"/>
  </linearGradient>
  <linearGradient id="q" x1="8.467" x2="8.467" y1="1.05" y2="15.867" gradientTransform="matrix(1.0714 0 0 1.0714 -.60437 -.5958)" gradientUnits="userSpaceOnUse">
   <stop stop-color="#bfe3ea" offset="0"/>
   <stop stop-color="#32646b" offset="1"/>
  </linearGradient>
  <filter id="A" x="-.12086" y="-.24193" width="1.2417" height="1.4839" color-interpolation-filters="sRGB">
   <feGaussianBlur stdDeviation=".319"/>
  </filter>
  <filter id="filter70" x="-.051662" y="-.13674" width="1.1033" height="1.2735" color-interpolation-filters="sRGB">
   <feGaussianBlur stdDeviation="0.55567"/>
  </filter>
  <filter id="filter71" x="-.088713" y="-.44081" width="1.1774" height="1.8816" color-interpolation-filters="sRGB">
   <feGaussianBlur stdDeviation="0.18367285"/>
  </filter>
  <filter id="filter7" x="-.027" y="-.027" width="1.054" height="1.054" color-interpolation-filters="sRGB">
   <feGaussianBlur stdDeviation="0.675"/>
  </filter>
 </defs>
 <rect transform="scale(.26458)" x="2" y="3" width="60" height="60" rx="30" ry="30" filter="url(#filter7)" opacity=".15"/>
 <rect x=".52916" y=".52916" width="15.875" height="15.875" rx="7.9373" ry="7.9373" fill="url(#q)" stroke-width="1.0714"/>
 <g fill-rule="evenodd">
  <path transform="translate(-1.146 -2.465) scale(.32268)" d="m9.715 45.481 21.687 5.193 18.642-8.107-23.26-7.131z" fill-opacity=".19608" filter="url(#filter70)" stroke="#000" stroke-linejoin="round" stroke-opacity=".19608" stroke-width="1.5"/>
  <path transform="translate(-1.146 -2.465) scale(.32268)" d="m28 16.5-16.5 7 9.75 2.25 8.25-3.5 9.75 2.25L47.5 21z" fill="url(#r)"/>
  <path transform="translate(-1.146 -2.465) scale(.32268)" d="m29.5 33-8.25 3.5L31 38.75l8.25-3.5z" fill="url(#r)"/>
  <path transform="translate(-1.146 -2.465) scale(.32268)" d="M47.5 42.5V21l-8.25 3.5v10.75L31 38.75V49.5Zm-18-20.25V33l-8.25 3.5V25.75Z" fill="url(#t)"/>
  <path transform="translate(-1.146 -2.465) scale(.32268)" d="m11.5 23.5 9.75 2.25V36.5L31 38.75V49.5L11.5 45Zm18-1.25 9.75 2.25v10.75L29.5 33V22.25" fill="url(#u)"/>
 </g>
 <g fill="none" stroke-width="1px">
  <path transform="translate(-1.146 -2.465) scale(.32268)" d="m28.094 17.562-15.562 6.625v20l18.375 4.25 15.562-6.625v-20z" stroke="#fff" stroke-linecap="round" stroke-linejoin="round" stroke-opacity=".37647"/>
  <path transform="translate(-1.146 -2.465) scale(.32268)" d="m39.25 35.25v10.5m-9.75-23.5-9.633-2.23m17.883-1.27-8.25 3.5m18 9.5-8.25 3.5" stroke="#22616d" stroke-opacity=".64314"/>
  <g stroke="url(#v)" stroke-linecap="round" stroke-linejoin="round">
   <path transform="translate(-1.146 -2.465) scale(.32268)" d="m11.5 23.5 9.75 2.25 8.25-3.5 9.75 2.25L47.5 21"/>
   <path transform="translate(-1.146 -2.465) scale(.32268)" d="M21.25 36.5 31 38.75"/>
   <path transform="translate(-1.146 -2.465) scale(.32268)" d="m29.5 33 9.75 2.25"/>
  </g>
  <path transform="translate(-1.146 -2.465) scale(.32268)" d="m21.25 25.75 8.25-3.5V33l-8.25 3.5zM47.5 21l-8.25 3.5v10.75L31 38.75V49.5" stroke="#32646b" stroke-linecap="round" stroke-linejoin="round"/>
  <path transform="translate(-1.146 -2.465) scale(.32268)" d="M21.25 36.5V47" stroke="#22616d" stroke-opacity=".64314"/>
  <path transform="translate(-1.146 -2.465) scale(.32268)" d="m11.5 23.5 16.5-7L47.5 21v21.5l-16.5 7L11.5 45V23.5" stroke="url(#y)" stroke-linecap="round" stroke-linejoin="round"/>
 </g>
 <path transform="translate(-1.146 -2.465) scale(.32268)" d="m52.693 23.797c-0.671-1.797-9.671-1.797-10.342 0 0 1.53-1.829 6.125-1.829 10.203s5.449 6.62 7 6.62 7-2.542 7-6.62-1.829-8.674-1.829-10.203z" fill="#eeeeec" fill-opacity=".41961" fill-rule="evenodd"/>
 <path transform="translate(-1.146 -2.465) scale(.32268)" d="m52.998 35.071a6.153 1.524 0 0 1-12.305 0 6.153 1.524 0 1 1 12.305 0z" fill="url(#z)" opacity=".07"/>
 <path transform="matrix(.41362 0 0 .30326 4.674 10.436)" d="m27.438 11a4.438 2.184 0 1 1-8.875 0 4.438 2.184 0 1 1 8.875 0z" filter="url(#A)" opacity=".2" stroke="#000" stroke-linecap="round" stroke-linejoin="round" stroke-miterlimit="0" stroke-width=".61406"/>
 <path transform="translate(-1.146 -2.465) scale(.32268)" d="m52.693 23.797c-0.517-1.02-9.825-1.02-10.342 0 0 1.53-1.551 6.117-1.551 10.196 0 4.078 5.17 6.627 6.722 6.627 1.551 0 6.723-2.549 6.723-6.627s-1.552-8.666-1.552-10.196z" fill="url(#B)" fill-rule="evenodd"/>
 <path transform="translate(-1.146 -2.465) scale(.32268)" d="M53 49.5a5.479 1.978 0 1 1-10.957 0A5.479 1.978 0 1 1 53 49.5z" fill="url(#C)" stroke="#888a85" stroke-linecap="round" stroke-linejoin="round" stroke-miterlimit="0" stroke-width="1.0433"/>
 <path transform="translate(-1.146 -2.465) scale(.32268)" d="m52.022 49.5a4.5 1.272 0 0 1-9 0 4.5 1.272 0 1 1 9 0z" fill="none" stroke="url(#D)" stroke-linecap="round" stroke-linejoin="round" stroke-miterlimit="0"/>
 <g fill-rule="evenodd">
  <path transform="matrix(.33372 0 0 .32899 11.518 -.954)" d="m8 43.468 2.5-1 2.469.125L8 43.468z" fill="url(#K)" filter="url(#filter71)" stroke="url(#linearGradient3272)" stroke-linecap="round" stroke-linejoin="round" stroke-width=".64922px"/>
  <path transform="translate(-1.146 -2.465) scale(.32268)" d="M44.936 39.6c1.034 1.02 2.068 2.549 2.068 8.156 0 1.02.14 1.53.518 1.53.377 0 .517-.51.517-1.53 0-5.607 1.034-7.136 2.068-8.156" fill="url(#E)" stroke="#888a85" stroke-linecap="round"/>
  <path transform="translate(-1.146 -2.465) scale(.32268)" d="m40.522 32.5c0 6 5.449 8.12 7 8.12s7-2.12 7-8.12" fill="url(#F)"/>
 </g>
 <path transform="translate(-1.146 -2.465) scale(.32268)" d="m53.855 32.463a6.333 1.53 0 0 1-12.667 0 6.333 1.53 0 1 1 12.667 0z" fill="url(#G)" stroke="url(#linearGradient3262)" stroke-linecap="round" stroke-linejoin="round" stroke-miterlimit="0" stroke-width=".67399"/>
 <path transform="translate(-1.146 -2.465) scale(.32268)" d="m52.115 25.812-10.5 6.906c-.472 2.107.576 3.884 1.969 5.156.7.64 1.478 1.155 2.187 1.5.71.346 1.366.532 1.75.532.385 0 1.046-.208 1.782-.563.735-.355 1.56-.852 2.28-1.531 1.44-1.358 2.5-3.323 1.845-5.781a.107.107 0 0 1 0-.031c-.327-2.61-.672-3.939-1.313-6.188Z" fill="none" stroke="url(#H)" stroke-linecap="round"/>
 <path transform="translate(-1.146 -2.465) scale(.32268)" d="M43.752 25.667h3.103s-1.552 6.117-1.552 8.666c0 1.53 1.035 2.55.518 3.059-.518.51-3.103-1.479-3.103-4.078 0-1.02.517-4.079 1.034-7.647z" fill="url(#I)" fill-rule="evenodd"/>
 <g fill="none">
  <g stroke-linecap="round">
   <g stroke-linejoin="round">
    <g stroke-miterlimit="0">
     <path transform="translate(-1.146 -2.465) scale(.32268)" d="M52.706 23.727a5.184 1.24 0 1 1-.001-.022" stroke="#919191" stroke-width=".97392"/>
     <path transform="translate(-1.146 -2.465) scale(.32268)" d="M52.522 24.965c-.333.333-2.308.7-5.162.7-2.855 0-4.505-.367-4.838-.7" stroke="#fff" stroke-width=".67399"/>
     <path transform="translate(-1.146 -2.465) scale(.32268)" d="M53.522 32c0 .57-2.333 1.333-6.013 1.367-3.679.033-5.987-.797-5.987-1.367" stroke="url(#J)" stroke-width=".67399"/>
    </g>
    <path transform="translate(-1.146 -2.465) scale(.32268)" d="M46.188 41s.333.667 1.333.64c1-.028 1.334-.64 1.334-.64" opacity=".35" stroke="#000" stroke-width=".66667px"/>
   </g>
   <path transform="translate(-1.146 -2.465) scale(.32268)" d="m52.693 23.797c-0.671-1.797-9.671-1.797-10.342 0 0 1.53-1.829 6.125-1.829 10.203s5.449 6.62 7 6.62 7-2.542 7-6.62-1.829-8.674-1.829-10.203z" stroke="#919191"/>
  </g>
  <path transform="translate(-1.146 -2.465) scale(.32268)" d="m21.25 36.5-9.633-2.23" stroke="#22616d" stroke-opacity=".64314" stroke-width="1px"/>
  <path d="M1.629 1.211h15.097v15.097H1.629z" stroke-width=".058974"/>
 </g>
</svg>
