<svg width="64" height="64" version="1.1" viewBox="0 0 16.933 16.933" xmlns="http://www.w3.org/2000/svg" xmlns:xlink="http://www.w3.org/1999/xlink">
 <defs>
  <filter id="filter890" x="-.08856" y="-.13838" width="1.1771" height="1.2768" color-interpolation-filters="sRGB">
   <feGaussianBlur stdDeviation="0.32049257"/>
  </filter>
  <linearGradient id="linearGradient899" x1="-39.605" x2="-39.605" y1="58.247" y2="6.9877" gradientTransform="matrix(.26458 0 0 .26458 18.664 .11106)" gradientUnits="userSpaceOnUse">
   <stop stop-color="#33db7f" offset="0"/>
   <stop stop-color="#addf4f" offset="1"/>
  </linearGradient>
  <filter id="filter930" x="-.03888" y="-.03888" width="1.0778" height="1.0778" color-interpolation-filters="sRGB">
   <feGaussianBlur stdDeviation="0.972"/>
  </filter>
 </defs>
 <circle transform="matrix(.26458 0 0 .26458 -.088052 -.088052)" cx="32.333" cy="32.333" r="30" fill="#000000" filter="url(#filter930)" opacity=".15" stroke-linecap="square" stroke-width="2.2881" style="isolation:isolate;paint-order:stroke fill markers"/>
 <circle cx="8.4665" cy="8.4665" r="7.9373" fill="url(#linearGradient899)" stroke-linecap="square" stroke-width=".60539" style="isolation:isolate;paint-order:stroke fill markers"/>
 <g stroke-width=".34742">
  <path d="m5.5678 6.2104-1.0423 3.8216h0.69483l1.0423-3.8216zm0.69483 0 1.0423 3.8216h0.69483l-1.0423-3.8216zm1.7371 3.8216h0.69483v-0.69483h-0.69483zm2.0845-3.8216-1.0423 3.8216h0.69484l1.0423-3.8216zm1.9142 1.0423c-0.24456 0.00211-0.46404 0.041776-0.65888 0.12553-0.19482 0.079566-0.36058 0.19271-0.49736 0.33927-0.13264 0.14238-0.2342 0.31401-0.30467 0.51501-0.07046 0.19682-0.10585 0.41475-0.10585 0.65346 0 0.2722 0.03734 0.50685 0.11197 0.70366 0.07461 0.19682 0.17617 0.36201 0.30467 0.49601 0.1285 0.12983 0.27789 0.22624 0.44786 0.28906 0.44202 0.15352 0.8337 0.08043 1.22-0.11332v0.13842c0 0.30151 0 0.54822-0.10722 0.65954-0.14923 0.1382-0.39626 0.20696-0.74031 0.20696-0.18239 0-0.35794-0.01863-0.5279-0.05632-0.16581-0.0335-0.30667-0.07336-0.42274-0.11943l-0.10585 0.5089c0.13264 0.04606 0.28792 0.08593 0.46616 0.11943 0.18239 0.0335 0.375 0.05021 0.57814 0.05021 0.52231 0 0.91214-0.11314 1.1691-0.33927 0.257-0.22614 0.38542-0.59061 0.38542-1.0932v-2.9144c-0.39652-0.08684-0.78632-0.17332-1.2126-0.16964zm0.02714 0.52384c0.15623 0.00278 0.31903 0.030541 0.49059 0.060392v1.9094c-0.34579 0.25235-0.58682 0.26522-0.94046 0.15742-0.26347-0.080322-0.3765-0.31498-0.47228-0.5279-0.05806-0.12909-0.06853-0.29536-0.06853-0.48381 0-0.3392 0.06185-0.62969 0.24835-0.81629 0.23918-0.23929 0.48194-0.30389 0.74233-0.29924z" filter="url(#filter890)" opacity=".15"/>
  <path d="m5.2204 5.863-1.0423 3.8216h0.69483l1.0423-3.8216zm4.5164 0-1.0423 3.8216h0.69483l1.0423-3.8216zm1.9142 1.0423c-0.24456 0.00211-0.46404 0.041776-0.65888 0.12553-0.19482 0.079566-0.36058 0.19271-0.49736 0.33927-0.13264 0.14238-0.2342 0.31401-0.30467 0.51501-0.07047 0.19682-0.10585 0.41475-0.10585 0.65346 0 0.2722 0.03734 0.50685 0.11197 0.70366 0.07461 0.19682 0.17617 0.36201 0.30467 0.49601 0.1285 0.12982 0.27789 0.22625 0.44786 0.28906 0.44202 0.15352 0.8337 0.08043 1.22-0.11332v0.13843c0 0.30151 0 0.54822-0.10722 0.65954-0.14923 0.1382-0.39626 0.20696-0.74031 0.20696-0.18239 0-0.35794-0.01863-0.5279-0.05632-0.16581-0.0335-0.30667-0.07336-0.42274-0.11943l-0.10585 0.5089c0.13264 0.04606 0.28792 0.08592 0.46616 0.11943 0.18239 0.0335 0.375 0.05021 0.57814 0.05021 0.52231 0 0.91214-0.11314 1.1691-0.33927 0.257-0.22613 0.38542-0.59061 0.38542-1.0931v-2.9144c-0.39652-0.08684-0.78632-0.17332-1.2126-0.16964zm0.51772 0.58422v1.9094c-0.34579 0.25235-0.58682 0.26522-0.94046 0.15742-0.26347-0.080316-0.3765-0.31498-0.47228-0.5279-0.05806-0.12909-0.06853-0.29536-0.06853-0.48381 0-0.3392 0.06185-0.62969 0.24835-0.81629 0.38268-0.38285 0.7754-0.31845 1.2329-0.23885z" fill="#2a2a2a"/>
  <path d="m5.9152 5.863 1.0423 3.8216h0.69483l-1.0423-3.8216zm1.7371 3.8216h0.69483v-0.69483h-0.69483z" fill="#f9f9f9"/>
 </g>
</svg>
