<svg xmlns="http://www.w3.org/2000/svg" xmlns:xlink="http://www.w3.org/1999/xlink" width="64" height="64"><defs><linearGradient id="a" x1="409.57" x2="409.94" y1="542.8" y2="504.19" gradientTransform="matrix(1.0523 0 0 1.0276 -72.568 -8.693)" gradientUnits="userSpaceOnUse"><stop offset="0" stop-color="#86d0fb"/><stop offset="1" stop-color="#2794f5"/></linearGradient><linearGradient id="c" x1="519.2" x2="519.2" y1="1024.8" y2="4.8" gradientTransform="matrix(.06359 0 0 .06358 -.556 -.553)" gradientUnits="userSpaceOnUse"><stop offset="0" stop-color="#606060"/><stop offset=".02" stop-color="#414141"/><stop offset="1" stop-color="#1e1e1e"/></linearGradient><linearGradient xlink:href="#a" id="e" x1="409.57" x2="409.94" y1="542.8" y2="504.19" gradientTransform="matrix(1.0523 0 0 1.0276 -72.568 -8.693)" gradientUnits="userSpaceOnUse"/><linearGradient id="g" x1="386.57" x2="414.57" y1="531.8" y2="531.8" gradientUnits="userSpaceOnUse"><stop offset="0" stop-color="#fff"/><stop offset="1" stop-color="#ebebeb"/></linearGradient><linearGradient id="h" x1="-86.388" x2="-94.072" y1="734.34" y2="939.73" gradientTransform="translate(-826.36 -1107.5) scale(2.1429)" gradientUnits="userSpaceOnUse"><stop offset="0" stop-color="#1769cc"/><stop offset="1" stop-color="#5ee6fb"/></linearGradient><filter id="b" width="1.072" height="1.072" x="-.036" y="-.036" color-interpolation-filters="sRGB"><feGaussianBlur stdDeviation=".42"/></filter><filter id="d" width="1.063" height="1.084" x="-.032" y="-.042" color-interpolation-filters="sRGB"><feGaussianBlur stdDeviation=".611"/></filter><filter id="f" width="1.12" height="1.12" x="-.06" y="-.06" color-interpolation-filters="sRGB"><feGaussianBlur stdDeviation=".7"/></filter></defs><circle cx="400.57" cy="531.8" r="14" filter="url(#b)" opacity=".25" transform="translate(-826.36 -1107.5) scale(2.1429)"/><circle cx="32.02" cy="32.044" r="30.001" fill="none"/><path fill="url(#c)" d="M50.249 8.193q-3.86-2.972-8.444-4.556Q37.068 2 32.003 2C15.433 2 2 15.432 2 32.001c0 15.158 11.245 27.684 25.845 29.71a31.977 31.977 0 0 0 4.158.29C48.57 61.999 62 48.567 62 32c0-1.31-.082-2.604-.244-3.866a29.932 29.932 0 0 0-.884-4.305q-1.33-4.69-4.082-8.726-2.722-3.977-6.54-6.912z"/><g transform="matrix(.46586 -.05557 .05726 .45209 -211.41 -156.63)"><rect width="46.303" height="34.939" x="334.23" y="513.13" filter="url(#d)" opacity=".75" ry="1.644" transform="matrix(1.735 .21325 -.21325 1.735 -46.117 -529.76)"/><rect width="46.303" height="34.939" x="334.23" y="513.13" fill="url(#e)" ry="1.644" transform="matrix(1.735 .21325 -.21325 1.735 -46.117 -529.76)"/><g fill="#d5ffff" transform="rotate(7.007)"><ellipse cx="498.35" cy="384.49" rx="3.196" ry="3.293"/><ellipse cx="489.83" cy="384.49" rx="3.196" ry="3.293"/><ellipse cx="481.31" cy="384.49" rx="3.196" ry="3.293"/></g></g><g transform="matrix(.46586 -.05557 .05726 .45209 -206.41 -149.63)"><rect width="46.303" height="34.939" x="334.23" y="513.13" filter="url(#d)" opacity=".75" ry="1.644" transform="matrix(1.735 .21325 -.21325 1.735 -46.117 -529.76)"/><rect width="46.303" height="34.939" x="334.23" y="513.13" fill="url(#e)" ry="1.644" transform="matrix(1.735 .21325 -.21325 1.735 -46.117 -529.76)"/><g fill="#d5ffff" transform="rotate(7.007)"><ellipse cx="498.35" cy="384.49" rx="3.196" ry="3.293"/><ellipse cx="489.83" cy="384.49" rx="3.196" ry="3.293"/><ellipse cx="481.31" cy="384.49" rx="3.196" ry="3.293"/></g></g><g stroke-opacity=".8" stroke-width=".662" transform="matrix(.0804 0 0 .07945 56.388 -17.116)"><circle cx="400.57" cy="531.8" r="14" filter="url(#f)" opacity=".25" transform="matrix(10.622 .91339 -.90576 10.75 -3877.2 -5262.9)"/><circle cx="400.57" cy="531.8" r="14" fill="url(#g)" transform="matrix(10.622 .91339 -.90576 10.75 -3877.2 -5262.9)"/><path fill="url(#h)" d="M-67.447 887.53c-3.547 0-7.086-1.54-9.66-4.563-6.598-7.773-15.996-12.215-25.794-12.215-9.964 0-19.118 4.313-25.778 12.15-4.834 5.704-13.076 6.14-18.423.964-5.338-5.166-5.747-13.959-.904-19.645 11.494-13.532 27.934-21.296 45.105-21.296 17.145 0 33.585 7.782 45.113 21.342 4.843 5.695 4.434 14.488-.904 19.654-2.486 2.421-5.625 3.608-8.755 3.608zm28.934-34.809c-3.33 0-6.66-1.354-9.198-4.053-14.762-15.666-34.36-24.291-55.19-24.291-20.874 0-40.48 8.607-55.216 24.236-5.104 5.416-13.363 5.389-18.44-.056-5.078-5.444-5.06-14.256.055-19.672 19.648-20.85 45.792-32.333 73.604-32.333 27.769 0 53.903 11.501 73.586 32.388 5.112 5.417 5.13 14.228.055 19.682-2.548 2.718-5.904 4.1-9.25 4.1zm28.873-34.754c-3.243 0-6.494-1.29-9.024-3.868C-41.434 790.82-71.341 778-102.901 778c-31.62 0-61.545 12.8-84.254 36.061-5.19 5.315-13.45 5.139-18.44-.407-4.99-5.547-4.817-14.358.373-19.672 27.595-28.252 63.927-43.806 102.32-43.806 38.315 0 74.638 15.573 102.29 43.834 5.199 5.314 5.373 14.126.392 19.672-2.565 2.847-5.99 4.285-9.416 4.285zm-94.895 103.22c8.7 0 15.754-7.139 15.754-15.945 0-8.806-7.053-15.945-15.754-15.945-8.7 0-15.754 7.139-15.754 15.945 0 8.806 7.053 15.945 15.754 15.945z"/></g></svg>