<svg xmlns="http://www.w3.org/2000/svg" width="64" height="64"><defs><filter id="c" width="1.241" height="1.378" x="-.12" y="-.189" color-interpolation-filters="sRGB"><feGaussianBlur stdDeviation="2.286"/></filter><filter id="a" width="1.061" height="1.061" x="-.031" y="-.031" color-interpolation-filters="sRGB"><feGaussianBlur stdDeviation=".768"/></filter><linearGradient id="b" x1="32" x2="32" y1="4" y2="60" gradientTransform="translate(-2.286 -2.286)scale(1.0714)" gradientUnits="userSpaceOnUse"><stop offset="0" stop-color="#59ca91"/><stop offset="1" stop-color="#2e8f5f"/></linearGradient></defs><rect width="60" height="60" x="2" y="3" filter="url(#a)" opacity=".15" rx="30" ry="30"/><rect width="60" height="60" x="2" y="2" fill="url(#b)" rx="30" ry="30"/><path d="M9.2 48.329c0-.155 1.303-1.706 2.08-2.476 2.756-2.731 6.982-5.132 10.92-6.204.42-.114.816-.225.882-.246.073-.024-.15-.383-.579-.932-1.64-2.099-2.468-4.532-2.468-7.256 0-3.16 1.103-5.928 3.259-8.182 2.313-2.417 5.25-3.69 8.526-3.698 2.525-.005 4.681.645 6.771 2.04.948.633 2.412 2.09 3.07 3.055a11.99 11.99 0 0 1 1.013 11.76c-.391.85-1.24 2.165-1.77 2.74-.219.237-.38.443-.36.458s.273.085.562.155c1.532.372 3.904 1.274 5.619 2.136 2.452 1.232 4.294 2.538 6.055 4.293 1.112 1.108 2.111 2.298 2.012 2.397-.026.027-.341-.098-.7-.278-2.967-1.482-7.923-3.003-12.152-3.729-4.259-.73-9.712-1.011-13.864-.714-6.767.484-12.773 1.945-18.137 4.413-.406.186-.738.307-.738.268zm24.684-10.711a6.5 6.5 0 0 0 2.754-1.68c2.062-2.063 2.563-5.068 1.28-7.676-.716-1.456-1.669-2.422-3.05-3.096-1.005-.49-1.782-.662-3.002-.664-3.424-.005-6.23 2.488-6.649 5.907a6.71 6.71 0 0 0 4.237 7.061c.94.365 1.522.455 2.7.416.731-.024 1.195-.096 1.73-.268" filter="url(#c)" opacity=".15"/><path fill="#fefefe" d="M9.2 46.475c0-.155 1.303-1.706 2.08-2.476 2.756-2.731 6.982-5.132 10.92-6.204.42-.114.816-.225.882-.246.073-.024-.15-.383-.579-.932-1.64-2.099-2.468-4.532-2.468-7.256 0-3.16 1.103-5.928 3.259-8.182 2.313-2.417 5.25-3.69 8.526-3.698 2.525-.005 4.681.645 6.771 2.04.948.633 2.412 2.09 3.07 3.055a11.99 11.99 0 0 1 1.013 11.76c-.391.85-1.24 2.165-1.77 2.74-.219.237-.38.443-.36.458s.273.085.562.155c1.532.372 3.904 1.274 5.619 2.136 2.452 1.232 4.294 2.538 6.055 4.293 1.112 1.108 2.111 2.298 2.012 2.397-.026.027-.341-.098-.7-.278-2.967-1.482-7.923-3.003-12.152-3.729-4.259-.73-9.712-1.011-13.864-.714-6.767.484-12.773 1.945-18.137 4.413-.406.186-.738.307-.738.268zm24.684-10.711a6.5 6.5 0 0 0 2.754-1.68c2.062-2.063 2.563-5.068 1.28-7.676-.716-1.456-1.669-2.422-3.05-3.096-1.005-.49-1.782-.662-3.002-.664-3.424-.005-6.23 2.488-6.649 5.907a6.71 6.71 0 0 0 4.237 7.061c.94.365 1.522.455 2.7.416.731-.024 1.195-.096 1.73-.268"/></svg>