<svg xmlns="http://www.w3.org/2000/svg" xmlns:xlink="http://www.w3.org/1999/xlink" width="64" height="64" version="1"><defs><linearGradient id="a"><stop offset="0" stop-color="#4c4c4c"/><stop offset="1" stop-color="#2a2a2a"/></linearGradient><linearGradient xlink:href="#a" id="f" x1="520" x2="520" y1="24" y2="1004" gradientTransform="translate(-379.65 -485.93)" gradientUnits="userSpaceOnUse"/><linearGradient id="g" x1="398.95" x2="398.95" y1="113.41" y2="913.41" gradientTransform="translate(-430.22 -506.33)scale(1.0211)" gradientUnits="userSpaceOnUse"><stop offset="0" stop-color="#fedf2d"/><stop offset="1" stop-color="#f48d01"/></linearGradient><linearGradient xlink:href="#b" id="i" x1="558.95" x2="558.95" y1="213.41" y2="813.41" gradientTransform="matrix(.98 0 0 .98 -407.59 -484.91)" gradientUnits="userSpaceOnUse"/><linearGradient id="b"><stop offset="0"/><stop offset="1" stop-opacity="0"/></linearGradient><linearGradient xlink:href="#a" id="k" x1="528.95" x2="528.95" y1="361.06" y2="688.51" gradientTransform="translate(-467.58 -541.68)scale(1.0889)" gradientUnits="userSpaceOnUse"/><linearGradient xlink:href="#b" id="l" x1="558.95" x2="558.95" y1="213.41" y2="813.41" gradientTransform="matrix(.06 0 0 .06 -1.057 .715)" gradientUnits="userSpaceOnUse"/><linearGradient id="d" x1="408.25" x2="407.94" y1="547.6" y2="498.89" gradientTransform="translate(-510.64 -663.52)scale(1.3276)" gradientUnits="userSpaceOnUse"><stop offset="0" stop-color="#fff"/><stop offset="1" stop-color="#e6e6e6"/></linearGradient><filter id="j" width="1.72" height="1.72" x="-.36" y="-.36" color-interpolation-filters="sRGB"><feGaussianBlur stdDeviation="30"/></filter><filter id="e" width="1.162" height="1.162" x="-.081" y="-.081" color-interpolation-filters="sRGB"><feGaussianBlur stdDeviation="33.124"/></filter><filter id="c" width="1.072" height="1.072" x="-.036" y="-.036" color-interpolation-filters="sRGB"><feGaussianBlur stdDeviation=".89"/></filter><filter id="m" width="1.028" height="1.028" x="-.014" y="-.014" color-interpolation-filters="sRGB"><feGaussianBlur stdDeviation=".298"/></filter><filter id="n" width="1.059" height="1.059" x="-.03" y="-.03" color-interpolation-filters="sRGB"><feGaussianBlur stdDeviation=".298"/></filter><radialGradient id="h" cx="550.95" cy="521.41" r="425" gradientTransform="translate(-430.22 -506.33)scale(1.0211)" gradientUnits="userSpaceOnUse"><stop offset="0" stop-color="#fe8c06"/><stop offset="1" stop-color="#fea933"/></radialGradient></defs><rect width="59.315" height="59.315" x="386.85" y="486.31" filter="url(#c)" opacity=".25" ry="29.657" transform="translate(-389.32 -489.92)scale(1.0115)"/><rect width="59.997" height="59.997" x="1.983" y="1.978" fill="url(#d)" ry="29.998"/><g transform="translate(27.138 38.042)scale(.03673)"><circle cx="132.35" cy="26.074" r="490" fill-rule="evenodd" filter="url(#e)" opacity=".15" style="paint-order:stroke markers fill"/><circle cx="132.35" cy="26.074" r="490" fill="url(#f)" fill-rule="evenodd" style="paint-order:stroke markers fill"/><circle cx="132.35" cy="26.074" r="408.43" fill="url(#g)" fill-rule="evenodd" stroke="url(#h)" stroke-linejoin="round" stroke-width="54.245" style="paint-order:stroke fill markers"/><g fill="none" transform="translate(-261.67 -631.91)"><circle cx="512" cy="540.36" r="175" style="paint-order:stroke markers fill"/><circle cx="226.03" cy="825.61" r="125" style="paint-order:stroke markers fill"/><path d="m360 452.36-235 300 180 170 315-245z"/></g><circle cx="132.35" cy="26.074" r="245" fill="url(#i)" fill-rule="evenodd" opacity=".2" style="paint-order:stroke fill markers"/><circle cx="550.95" cy="611.41" r="100" fill-rule="evenodd" filter="url(#j)" opacity=".4" style="paint-order:stroke fill markers" transform="translate(-508.3 -642.87)scale(1.1628)"/><circle cx="132.35" cy="26.074" r="163.33" fill="url(#k)" fill-rule="evenodd" opacity=".9" style="paint-order:stroke fill markers"/><path fill="url(#l)" fill-rule="evenodd" d="M31.887 17A15 15 0 0 0 17 32a15 15 0 0 0 14.35 14.986A14.359 14.5 0 0 1 17.641 32.5 14.359 14.5 0 0 1 32 18a14.359 14.5 0 0 1 14.359 14.5 14.359 14.5 0 0 1-13.736 14.486A15 15 0 0 0 47 32a15 15 0 0 0-15-15zm.736 29.986a14.359 14.5 0 0 1-.318.01zm-.318.01A14.359 14.5 0 0 1 32 47z" opacity=".05" style="paint-order:stroke fill markers" transform="translate(-390.32 -496.59)scale(16.333)"/></g><circle cx="17" cy="-20" r="3" opacity=".75" transform="rotate(90)"/><circle cx="17" cy="-44" r="3" opacity=".75" transform="rotate(90)"/><circle cx="17" cy="-20" r="2" fill="#4d4d4d" transform="rotate(90)"/><circle cx="17" cy="-44" r="2" fill="#4d4d4d" transform="rotate(90)"/><g fill="#fff"><path d="M10.787 10.787a29.934 29.934 0 0 0 0 42.426c.119.119.242.23.362.345-11.4-11.775-11.288-30.43.345-42.065S41.784-.25 53.56 11.148c-.116-.12-.227-.243-.345-.362a29.934 29.934 0 0 0-42.426 0z" filter="url(#m)"/><path d="M37.435 61.526c5.772-1.063 11.297-3.831 15.779-8.313s7.25-10.007 8.313-15.779c-1.592 5.434-4.606 10.657-9.02 15.072s-9.639 7.428-15.072 9.02" filter="url(#n)"/></g></svg>