<svg width="64" height="64" version="1" xmlns="http://www.w3.org/2000/svg" xmlns:xlink="http://www.w3.org/1999/xlink">
 <defs>
  <linearGradient id="a">
   <stop stop-color="#4c4c4c" offset="0"/>
   <stop stop-color="#2a2a2a" offset="1"/>
  </linearGradient>
  <linearGradient id="f" x1="520" x2="520" y1="24" y2="1004" gradientTransform="translate(-379.65 -485.93)" gradientUnits="userSpaceOnUse" xlink:href="#a"/>
  <linearGradient id="g" x1="398.95" x2="398.95" y1="113.41" y2="913.41" gradientTransform="translate(-430.22 -506.33) scale(1.0211)" gradientUnits="userSpaceOnUse">
   <stop stop-color="#fedf2d" offset="0"/>
   <stop stop-color="#f48d01" offset="1"/>
  </linearGradient>
  <linearGradient id="i" x1="558.95" x2="558.95" y1="213.41" y2="813.41" gradientTransform="matrix(.98 0 0 .98 -407.59 -484.91)" gradientUnits="userSpaceOnUse" xlink:href="#b"/>
  <linearGradient id="b">
   <stop offset="0"/>
   <stop stop-opacity="0" offset="1"/>
  </linearGradient>
  <linearGradient id="k" x1="528.95" x2="528.95" y1="361.06" y2="688.51" gradientTransform="translate(-467.58 -541.68) scale(1.0889)" gradientUnits="userSpaceOnUse" xlink:href="#a"/>
  <linearGradient id="l" x1="558.95" x2="558.95" y1="213.41" y2="813.41" gradientTransform="matrix(.06 0 0 .06 -1.057 .715)" gradientUnits="userSpaceOnUse" xlink:href="#b"/>
  <linearGradient id="d" x1="408.25" x2="407.94" y1="547.6" y2="498.89" gradientTransform="translate(-510.64 -663.52) scale(1.3276)" gradientUnits="userSpaceOnUse">
   <stop stop-color="#fff" offset="0"/>
   <stop stop-color="#e6e6e6" offset="1"/>
  </linearGradient>
  <filter id="j" x="-.36" y="-.36" width="1.72" height="1.72" color-interpolation-filters="sRGB">
   <feGaussianBlur stdDeviation="30"/>
  </filter>
  <filter id="e" x="-.08112" y="-.08112" width="1.1622" height="1.1622" color-interpolation-filters="sRGB">
   <feGaussianBlur stdDeviation="33.124"/>
  </filter>
  <filter id="c" x="-.036011" y="-.036011" width="1.072" height="1.072" color-interpolation-filters="sRGB">
   <feGaussianBlur stdDeviation=".89"/>
  </filter>
  <radialGradient id="h" cx="550.95" cy="521.41" r="425" gradientTransform="translate(-430.22 -506.33) scale(1.0211)" gradientUnits="userSpaceOnUse">
   <stop stop-color="#fe8c06" offset="0"/>
   <stop stop-color="#fea933" offset="1"/>
  </radialGradient>
  <filter id="filter26" x="-.013853" y="-.013853" width="1.0277" height="1.0277" color-interpolation-filters="sRGB">
   <feGaussianBlur stdDeviation="0.29776566"/>
  </filter>
  <filter id="filter25" x="-.029663" y="-.029663" width="1.0593" height="1.0593" color-interpolation-filters="sRGB">
   <feGaussianBlur stdDeviation="0.29776566"/>
  </filter>
 </defs>
 <rect transform="translate(-389.32 -489.92) scale(1.0115)" x="386.85" y="486.31" width="59.315" height="59.315" ry="29.657" filter="url(#c)" opacity=".25"/>
 <rect x="1.983" y="1.978" width="59.997" height="59.997" ry="29.998" fill="url(#d)"/>
 <g transform="translate(27.138 38.042) scale(.03673)">
  <circle cx="132.35" cy="26.074" r="490" fill-rule="evenodd" filter="url(#e)" opacity=".15" style="paint-order:stroke markers fill"/>
  <circle cx="132.35" cy="26.074" r="490" fill="url(#f)" fill-rule="evenodd" style="paint-order:stroke markers fill"/>
  <circle cx="132.35" cy="26.074" r="408.43" fill="url(#g)" fill-rule="evenodd" stroke="url(#h)" stroke-linejoin="round" stroke-width="54.245" style="paint-order:stroke fill markers"/>
  <g transform="translate(-261.67 -631.91)" fill="none">
   <circle cx="512" cy="540.36" r="175" style="paint-order:stroke markers fill"/>
   <circle cx="226.03" cy="825.61" r="125" style="paint-order:stroke markers fill"/>
   <path d="m360 452.36-235 300 180 170 315-245z"/>
  </g>
  <circle cx="132.35" cy="26.074" r="245" fill="url(#i)" fill-rule="evenodd" opacity=".2" style="paint-order:stroke fill markers"/>
  <circle transform="translate(-508.3 -642.87) scale(1.1628)" cx="550.95" cy="611.41" r="100" fill-rule="evenodd" filter="url(#j)" opacity=".4" style="paint-order:stroke fill markers"/>
  <circle cx="132.35" cy="26.074" r="163.33" fill="url(#k)" fill-rule="evenodd" opacity=".9" style="paint-order:stroke fill markers"/>
  <path transform="translate(-390.32 -496.59) scale(16.333)" d="M31.887 17A15 15 0 0 0 17 32a15 15 0 0 0 14.35 14.986A14.359 14.5 0 0 1 17.641 32.5 14.359 14.5 0 0 1 32 18a14.359 14.5 0 0 1 14.359 14.5 14.359 14.5 0 0 1-13.736 14.486A15 15 0 0 0 47 32a15 15 0 0 0-15-15 15 15 0 0 0-.113 0zm.736 29.986a14.359 14.5 0 0 1-.318.01 15 15 0 0 0 .318-.01zm-.318.01A14.359 14.5 0 0 1 32 47a15 15 0 0 0 .305-.004z" fill="url(#l)" fill-rule="evenodd" opacity=".05" style="paint-order:stroke fill markers"/>
 </g>
 <circle transform="rotate(90)" cx="17" cy="-20" r="3" opacity=".75"/>
 <circle transform="rotate(90)" cx="17" cy="-44" r="3" opacity=".75"/>
 <circle transform="rotate(90)" cx="17" cy="-20" r="2" fill="#4d4d4d"/>
 <circle transform="rotate(90)" cx="17" cy="-44" r="2" fill="#4d4d4d"/>
 <g fill="#ffffff">
  <path d="m10.787 10.787c-11.752 11.752-11.752 30.674 0 42.426 0.11855 0.11855 0.24184 0.22911 0.36184 0.34527-11.399-11.775-11.288-30.431 0.34527-42.065 11.634-11.634 30.289-11.744 42.065-0.34527-0.11616-0.12-0.22671-0.24329-0.34527-0.36184-11.752-11.752-30.674-11.752-42.426 0z" filter="url(#filter26)"/>
  <path d="m37.435 61.526c5.7718-1.0635 11.297-3.831 15.779-8.3126s7.2491-10.007 8.3126-15.779c-1.5917 5.4332-4.6056 10.657-9.0198 15.072s-9.6384 7.428-15.072 9.0198z" filter="url(#filter25)"/>
 </g>
</svg>
