<svg width="64" height="64" version="1" xmlns="http://www.w3.org/2000/svg" xmlns:xlink="http://www.w3.org/1999/xlink">
 <defs>
  <linearGradient id="linearGradient968">
   <stop stop-color="#4c4c4c" offset="0"/>
   <stop stop-color="#2a2a2a" offset="1"/>
  </linearGradient>
  <linearGradient id="linearGradient850" x1="520" x2="520" y1="24" y2="1004" gradientTransform="translate(-379.65 -485.93)" gradientUnits="userSpaceOnUse" xlink:href="#linearGradient968"/>
  <linearGradient id="linearGradient1073" x1="398.95" x2="398.95" y1="113.41" y2="913.41" gradientTransform="matrix(1.0211 0 0 1.0211 -430.22 -506.33)" gradientUnits="userSpaceOnUse">
   <stop stop-color="#fedf2d" offset="0"/>
   <stop stop-color="#f48d01" offset="1"/>
  </linearGradient>
  <radialGradient id="radialGradient1109" cx="550.95" cy="521.41" r="425" gradientTransform="matrix(1.0211 0 0 1.0211 -430.22 -506.33)" gradientUnits="userSpaceOnUse">
   <stop stop-color="#fe8c06" offset="0"/>
   <stop stop-color="#fea933" offset="1"/>
  </radialGradient>
  <linearGradient id="linearGradient1211" x1="558.95" x2="558.95" y1="213.41" y2="813.41" gradientTransform="matrix(.98 0 0 .98 -407.59 -484.91)" gradientUnits="userSpaceOnUse" xlink:href="#linearGradient1209"/>
  <linearGradient id="linearGradient1209">
   <stop offset="0"/>
   <stop stop-opacity="0" offset="1"/>
  </linearGradient>
  <filter id="filter1201" x="-.36" y="-.36" width="1.72" height="1.72" color-interpolation-filters="sRGB">
   <feGaussianBlur stdDeviation="30"/>
  </filter>
  <linearGradient id="linearGradient997" x1="528.95" x2="528.95" y1="361.06" y2="688.51" gradientTransform="matrix(1.0889 0 0 1.0889 -467.58 -541.68)" gradientUnits="userSpaceOnUse" xlink:href="#linearGradient968"/>
  <linearGradient id="linearGradient985" x1="558.95" x2="558.95" y1="213.41" y2="813.41" gradientTransform="matrix(.06 0 0 .06 -1.0572 .71548)" gradientUnits="userSpaceOnUse" xlink:href="#linearGradient1209"/>
  <filter id="filter1191" x="-.08112" y="-.08112" width="1.1622" height="1.1622" color-interpolation-filters="sRGB">
   <feGaussianBlur stdDeviation="33.124"/>
  </filter>
  <linearGradient id="b" x1="408.25" x2="407.94" y1="547.6" y2="498.89" gradientTransform="matrix(1.3276,0,0,1.3276,-510.64,-663.52)" gradientUnits="userSpaceOnUse">
   <stop stop-color="#fff" offset="0"/>
   <stop stop-color="#e6e6e6" offset="1"/>
  </linearGradient>
  <filter id="c" x="-.036" y="-.036" width="1.072" height="1.072" color-interpolation-filters="sRGB">
   <feGaussianBlur stdDeviation="0.88972449"/>
  </filter>
 </defs>
 <rect transform="matrix(1.0115,0,0,1.0115,-389.32,-489.92)" x="386.85" y="486.31" width="59.315" height="59.315" ry="29.657" filter="url(#c)" opacity=".25"/>
 <rect x="1.9826" y="1.9784" width="59.997" height="59.997" ry="29.998" fill="url(#b)" stroke-width="1.0115"/>
 <g transform="matrix(.036735 0 0 .036735 27.138 38.042)">
  <circle cx="132.35" cy="26.074" r="490" fill-rule="evenodd" filter="url(#filter1191)" opacity=".15" style="paint-order:stroke markers fill"/>
  <circle cx="132.35" cy="26.074" r="490" fill="url(#linearGradient850)" fill-rule="evenodd" style="paint-order:stroke markers fill"/>
  <circle cx="132.35" cy="26.074" r="408.43" fill="url(#linearGradient1073)" fill-rule="evenodd" stroke="url(#radialGradient1109)" stroke-linejoin="round" stroke-width="54.245" style="paint-order:stroke fill markers"/>
  <g transform="translate(-261.67 -631.91)" fill="none">
   <circle cx="512" cy="540.36" r="175" style="paint-order:stroke markers fill"/>
   <circle cx="226.03" cy="825.61" r="125" style="paint-order:stroke markers fill"/>
   <path d="m360 452.36-235 300 180 170 315-245z"/>
  </g>
  <circle cx="132.35" cy="26.074" r="245" fill="url(#linearGradient1211)" fill-rule="evenodd" opacity=".2" style="paint-order:stroke fill markers"/>
  <circle transform="matrix(1.1628 0 0 1.1628 -508.3 -642.87)" cx="550.95" cy="611.41" r="100" fill-rule="evenodd" filter="url(#filter1201)" opacity=".4" style="paint-order:stroke fill markers"/>
  <circle cx="132.35" cy="26.074" r="163.33" fill="url(#linearGradient997)" fill-rule="evenodd" opacity=".9" style="paint-order:stroke fill markers"/>
  <path transform="matrix(16.333 0 0 16.333 -390.32 -496.59)" d="m31.887 17a15 15 0 0 0-14.887 15 15 15 0 0 0 14.35 14.986 14.359 14.5 0 0 1-13.709-14.486 14.359 14.5 0 0 1 14.359-14.5 14.359 14.5 0 0 1 14.359 14.5 14.359 14.5 0 0 1-13.736 14.486 15 15 0 0 0 14.377-14.986 15 15 0 0 0-15-15 15 15 0 0 0-0.11328 0zm0.73633 29.986a14.359 14.5 0 0 1-0.31836 0.0098 15 15 0 0 0 0.31836-0.0098zm-0.31836 0.0098a14.359 14.5 0 0 1-0.30469 0.003872 15 15 0 0 0 0.30469-0.0039z" fill="url(#linearGradient985)" fill-rule="evenodd" opacity=".05" style="paint-order:stroke fill markers"/>
 </g>
 <circle transform="rotate(90)" cx="17" cy="-20" r="3" opacity=".75"/>
 <circle transform="rotate(90)" cx="17" cy="-44" r="3" opacity=".75"/>
 <circle transform="rotate(90)" cx="17" cy="-20" r="2" fill="#4d4d4d" stroke-width=".66667"/>
 <circle transform="rotate(90)" cx="17" cy="-44" r="2" fill="#4d4d4d" stroke-width=".66667"/>
</svg>
