<svg width="64" height="64" viewBox="0 0 16.933 16.933" xmlns="http://www.w3.org/2000/svg"><defs><linearGradient id="b" x1="520.32" x2="520.32" y1="1.823" y2="1023.9" gradientUnits="userSpaceOnUse"><stop stop-color="#46a926" offset="0"/><stop stop-color="#ffda64" offset="1"/></linearGradient><linearGradient id="c" x1="500.28" x2="500.28" y1="-18.217" y2="1023.9" gradientUnits="userSpaceOnUse"><stop stop-color="#a6d74f" offset="0"/><stop stop-color="#46a926" offset="1"/></linearGradient><linearGradient id="d" x1="500.28" x2="500.28" y1="-18.217" y2="1023.9" gradientUnits="userSpaceOnUse"><stop stop-color="#e1415c" offset="0"/><stop stop-color="#e141a9" offset="1"/></linearGradient><linearGradient id="f" x1="32" x2="32" y1="15" y2="49" gradientTransform="scale(.26458)" gradientUnits="userSpaceOnUse"><stop stop-color="#303030" offset="0"/><stop stop-color="#424242" offset="1"/></linearGradient><filter id="a" x="-.036" y="-.036" width="1.072" height="1.072" color-interpolation-filters="sRGB"><feGaussianBlur stdDeviation="14.143"/></filter><filter id="e" x="-.06" y="-.06" width="1.12" height="1.12" color-interpolation-filters="sRGB"><feGaussianBlur stdDeviation=".85"/></filter></defs><path transform="matrix(.01684 0 0 .01684 -.15 -.143)" d="M983.25 511.35c0-7.95-.2-15.85-.5-23.55q-8-180.15-137.55-309.85C753.15 85.95 642 39.9 511.8 39.9c-130.15 0-241.35 46.05-333.35 138.05-92.05 92-138.1 203.2-138.1 333.4 0 130.15 46.05 241.35 138.1 333.35C264.6 931 367.8 976.85 487.6 982.3c8 .3 16 .5 24.2.5 130.2 0 241.35-46.1 333.4-138.1 92-92 138.05-203.2 138.05-333.35z" filter="url(#a)" opacity=".5"/><path d="M983.25 511.35c0-7.95-.2-15.85-.5-23.55q-8-180.15-137.55-309.85C753.15 85.95 642 39.9 511.8 39.9c-130.15 0-241.35 46.05-333.35 138.05-92.05 92-138.1 203.2-138.1 333.4 0 130.15 46.05 241.35 138.1 333.35C264.6 931 367.8 976.85 487.6 982.3c8 .3 16 .5 24.2.5 130.2 0 241.35-46.1 333.4-138.1 92-92 138.05-203.2 138.05-333.35z" fill="url(#d)" transform="matrix(.01684 0 0 .01684 -.15 -.143)" stroke-width="15.683"/><rect transform="translate(-.042 -.042) scale(.26458)" x="15.16" y="15.16" width="34" height="34" ry="5" fill="#303030" fill-rule="evenodd" filter="url(#e)" opacity=".5" style="paint-order:stroke fill markers"/><rect x="3.969" y="3.969" width="8.996" height="8.996" ry="1.323" fill="url(#f)" fill-rule="evenodd" style="paint-order:stroke fill markers"/><path d="M5.027 11.02h3.106v.621H5.027zM5.648 5.43v3.416h.621V7.603h.497l.746 1.243h.62L7.357 7.55c.48-.113.777-.427.777-1.02v-.015c0-.691-.337-1.087-1.141-1.087zm2.796 0v3.416h.931l.483-.006c.602-.007 1.38-.61 1.38-1.695V7.13c0-1.074-.647-1.7-1.45-1.7zm-2.175.62h.622c.373 0 .62.122.62.458v.016c0 .28-.247.459-.62.458h-.622zm2.796 0h.62c.375 0 .933.316.933 1.08v.015c0 .774-.558 1.08-.932 1.08h-.621z" fill="#f9f9f9"/></svg>