<?xml version="1.0" encoding="UTF-8"?>
<svg width="64" height="64" version="1.1" viewBox="0 0 16.933 16.933" xmlns="http://www.w3.org/2000/svg" xmlns:cc="http://creativecommons.org/ns#" xmlns:dc="http://purl.org/dc/elements/1.1/" xmlns:rdf="http://www.w3.org/1999/02/22-rdf-syntax-ns#" xmlns:xlink="http://www.w3.org/1999/xlink">
 <metadata>
  <rdf:RDF>
   <cc:Work rdf:about="">
    <dc:format>image/svg+xml</dc:format>
    <dc:type rdf:resource="http://purl.org/dc/dcmitype/StillImage"/>
    <dc:title/>
   </cc:Work>
  </rdf:RDF>
 </metadata>
 <defs>
  <filter id="f" x="-.036" y="-.036" width="1.072" height="1.072" color-interpolation-filters="sRGB">
   <feGaussianBlur stdDeviation="14.1435"/>
  </filter>
  <linearGradient id="d" x1="520.32" x2="520.32" y1="1.8233" y2="1023.9" gradientUnits="userSpaceOnUse">
   <stop stop-color="#46a926" offset="0"/>
   <stop stop-color="#ffda64" offset="1"/>
  </linearGradient>
  <linearGradient id="a" x1="500.28" x2="500.28" y1="-18.217" y2="1023.9" gradientUnits="userSpaceOnUse">
   <stop stop-color="#a6d74f" offset="0"/>
   <stop stop-color="#46a926" offset="1"/>
  </linearGradient>
  <linearGradient id="linearGradient909" x1="500.28" x2="500.28" y1="-18.217" y2="1023.9" gradientUnits="userSpaceOnUse">
   <stop stop-color="#e1415c" offset="0"/>
   <stop stop-color="#e141a9" offset="1"/>
  </linearGradient>
  <filter id="h" x="-.06" y="-.06" width="1.12" height="1.12" color-interpolation-filters="sRGB">
   <feGaussianBlur stdDeviation="0.85"/>
  </filter>
  <linearGradient id="g" x1="32" x2="32" y1="15" y2="49" gradientTransform="scale(.26458)" gradientUnits="userSpaceOnUse">
   <stop stop-color="#303030" offset="0"/>
   <stop stop-color="#424242" offset="1"/>
  </linearGradient>
 </defs>
 <path transform="matrix(.016836 0 0 .016836 -.15028 -.14261)" d="m983.25 511.35c0-7.95-0.2-15.85-0.5-23.55q-8-180.15-137.55-309.85c-92.05-92-203.2-138.05-333.4-138.05-130.15 0-241.35 46.05-333.35 138.05-92.05 92-138.1 203.2-138.1 333.4 0 130.15 46.05 241.35 138.1 333.35 86.15 86.3 189.35 132.15 309.15 137.6 8 0.3 16 0.5 24.2 0.5 130.2 0 241.35-46.1 333.4-138.1 92-92 138.05-203.2 138.05-333.35z" filter="url(#f)" opacity=".5" stroke-width="15.683"/>
 <g transform="matrix(.016836 0 0 .016836 -.15028 -.14261)" fill="url(#d)" stroke-width="15.683">
  <g fill="url(#a)" stroke-width="15.683">
   <path d="m983.25 511.35c0-7.95-0.2-15.85-0.5-23.55q-8-180.15-137.55-309.85c-92.05-92-203.2-138.05-333.4-138.05-130.15 0-241.35 46.05-333.35 138.05-92.05 92-138.1 203.2-138.1 333.4 0 130.15 46.05 241.35 138.1 333.35 86.15 86.3 189.35 132.15 309.15 137.6 8 0.3 16 0.5 24.2 0.5 130.2 0 241.35-46.1 333.4-138.1 92-92 138.05-203.2 138.05-333.35z" fill="url(#linearGradient909)" stroke-width="15.683"/>
  </g>
 </g>
 <rect transform="matrix(.26458 0 0 .26458 -.042436 -.04234)" x="15.16" y="15.16" width="34" height="34" ry="5" fill="#303030" fill-rule="evenodd" filter="url(#h)" opacity=".5" style="paint-order:stroke fill markers"/>
 <rect x="3.9687" y="3.9687" width="8.9957" height="8.9957" ry="1.3229" fill="url(#g)" fill-rule="evenodd" stroke-width=".26458" style="paint-order:stroke fill markers"/>
 <path d="m5.027 11.02h3.1059v0.62118h-3.1059z" fill="#f9f9f9" stroke-width=".26458"/>
 <path d="m5.6482 5.4292v3.4165h0.62118v-1.2424l0.49683-6.212e-4 0.74554 1.243h0.62118l-0.77648-1.2945c0.4791-0.11339 0.77648-0.42761 0.77648-1.0197v-0.015166c0-0.69164-0.33726-1.0871-1.1411-1.0871zm2.7953 0v3.4165h0.93178l0.48287-0.0054c0.60143-0.00716 1.3807-0.61035 1.3807-1.6949v-0.01583c0-1.074-0.64815-1.7004-1.4517-1.7004zm-2.1741 0.62118h0.62118c0.37386 0 0.62118 0.12153 0.62118 0.458v0.015771c0 0.2804-0.24732 0.45837-0.62118 0.458l-0.62118-7.1e-6zm2.7953 1.46e-5h0.62118c0.37395 0 0.93178 0.31575 0.93178 1.0792v0.015772c0 0.77394-0.55792 1.0792-0.93178 1.0792h-0.62118z" fill="#f9f9f9" stroke-width=".26458"/>
</svg>
