<?xml version="1.0" encoding="UTF-8"?>
<svg width="64" height="64" version="1" xmlns="http://www.w3.org/2000/svg" xmlns:cc="http://creativecommons.org/ns#" xmlns:dc="http://purl.org/dc/elements/1.1/" xmlns:rdf="http://www.w3.org/1999/02/22-rdf-syntax-ns#" xmlns:xlink="http://www.w3.org/1999/xlink">
 <metadata>
  <rdf:RDF>
   <cc:Work rdf:about="">
    <dc:format>image/svg+xml</dc:format>
    <dc:type rdf:resource="http://purl.org/dc/dcmitype/StillImage"/>
    <dc:title/>
   </cc:Work>
  </rdf:RDF>
 </metadata>
 <defs>
  <linearGradient id="e" x1="408.25" x2="407.94" y1="547.6" y2="498.89" gradientTransform="matrix(1.3276,0,0,1.3276,-510.64,-663.52)" gradientUnits="userSpaceOnUse">
   <stop stop-color="#fff" offset="0"/>
   <stop stop-color="#e6e6e6" offset="1"/>
  </linearGradient>
  <filter id="d" x="-.036" y="-.036" width="1.072" height="1.072" color-interpolation-filters="sRGB">
   <feGaussianBlur stdDeviation="0.88972449"/>
  </filter>
  <linearGradient id="linearGradient917" x1="32" x2="32" y1="50.998" y2="12.999" gradientTransform="matrix(1.4999,0,0,1.4999,-580.81,-753.64)" gradientUnits="userSpaceOnUse">
   <stop stop-color="#1db7f3" offset="0"/>
   <stop stop-color="#2274d5" offset="1"/>
  </linearGradient>
  <linearGradient id="linearGradient925" x1="34.496" x2="34.496" y1="49.314" y2="11.31" gradientUnits="userSpaceOnUse">
   <stop stop-color="#aef4f4" offset="0"/>
   <stop stop-color="#a2ddef" offset="1"/>
  </linearGradient>
  <filter id="filter1019" x="-.0544" y="-.042947" width="1.1088" height="1.0859" color-interpolation-filters="sRGB">
   <feGaussianBlur stdDeviation="0.68008478"/>
  </filter>
 </defs>
 <rect transform="matrix(1.0115,0,0,1.0115,-389.32,-489.92)" x="386.85" y="486.31" width="59.315" height="59.315" ry="29.657" filter="url(#d)" opacity=".25"/>
 <rect x="1.9826" y="1.9784" width="59.997" height="59.997" ry="29.998" fill="url(#e)" stroke-width="1.0115"/>
 <g transform="matrix(1.4999,0,0,1.4999,-580.81,-753.64)" font-size="12.666px" stroke-width=".66672">
  <text x="730.88" y="132.19" font-family="'Droid Sans'" stroke-width=".66672"/>
 </g>
 <g transform="matrix(.9999 0 0 .9999 -2.4928 1.6911)" filter="url(#filter1019)" opacity=".15">
  <path d="m25.162 11.31c0.08512 3.7898-1.8777 5.6673-5.6673 5.6673v26.57c-0.04485 3.171 2.5143 5.7662 5.6855 5.7662 3.1712 0 5.729-2.5952 5.6842-5.7662v-4.9016h4.8963c7.5869 0 13.737-6.0808 13.737-13.668 0-7.5873-6.1502-13.643-13.737-13.643zm5.6673 10.668h4.77c1.9044 0 3.2308 1.3684 3.2308 3.3337s-1.3264 3.3337-3.2308 3.3337h-4.77z" stroke-width=".66674"/>
  <path d="m25.154 15.977c-0.51814 0.0082-0.9319 0.43695-0.92481 0.95841v27.419c-0.01797 1.2786 1.8969 1.2786 1.879 0v-10.4h9.8646c4.9292 0 8.9251-4.0214 8.9251-8.9821s-3.9959-8.9821-8.9251-8.9821h-10.659c-0.05275-0.0089-0.10616-0.0132-0.15964-0.01293zm0.95417 1.9039h9.8646c3.9137 0 7.0462 3.1524 7.0462 7.0911s-3.1324 7.0911-7.0462 7.0911h-9.8646z" opacity=".3" stroke-width=".66674"/>
  <path transform="matrix(1.0001 0 0 1.0001 2.4931 -1.6913)" d="m22.566 13c-1.0915 0.017883-2.1889 0.35106-3.1484 1.0234-1.2397 0.86816-2.0675 2.1671-2.3301 3.6582-0.26295 1.4911 0.069589 2.9962 0.9375 4.2363 1.7918 2.5605 5.3318 3.1856 7.8906 1.3926 1.2394-0.86849 2.0671-2.1687 2.3301-3.6602 0.26262-1.4904-0.071544-2.9942-0.93945-4.2344-1.1198-1.6003-2.9211-2.4458-4.7402-2.416zm12.271 17.332a5.6667 5.6667 0 0 0-3.2871 1.0254 5.6667 5.6667 0 0 0-1.3926 7.8926l6.5332 9.332a5.6667 5.6667 0 0 0 7.8906 1.3926 5.6667 5.6667 0 0 0 1.3945-7.8906l-6.5352-9.334a5.6667 5.6667 0 0 0-4.6035-2.418z" fill-rule="evenodd" stroke-width=".66667"/>
 </g>
 <g transform="matrix(.9999 0 0 .9999 -2.4928 1.6911)">
  <path d="m25.162 11.31c0.08512 3.7898-1.8777 5.6673-5.6673 5.6673v26.57c-0.04485 3.171 2.5143 5.7662 5.6855 5.7662 3.1712 0 5.729-2.5952 5.6842-5.7662v-4.9016h4.8963c7.5869 0 13.737-6.0808 13.737-13.668 0-7.5873-6.1502-13.643-13.737-13.643zm5.6673 10.668h4.77c1.9044 0 3.2308 1.3684 3.2308 3.3337s-1.3264 3.3337-3.2308 3.3337h-4.77z" fill="url(#linearGradient925)" stroke-width=".66674"/>
  <path d="m25.154 15.977c-0.51814 0.0082-0.9319 0.43695-0.92481 0.95841v27.419c-0.01797 1.2786 1.8969 1.2786 1.879 0v-10.4h9.8646c4.9292 0 8.9251-4.0214 8.9251-8.9821s-3.9959-8.9821-8.9251-8.9821h-10.659c-0.05275-0.0089-0.10616-0.0132-0.15964-0.01293zm0.95417 1.9039h9.8646c3.9137 0 7.0462 3.1524 7.0462 7.0911s-3.1324 7.0911-7.0462 7.0911h-9.8646z" fill="#001851" opacity=".3" stroke-width=".66674"/>
  <path transform="matrix(1.0001 0 0 1.0001 2.4931 -1.6913)" d="m22.566 13c-1.0915 0.017883-2.1889 0.35106-3.1484 1.0234-1.2397 0.86816-2.0675 2.1671-2.3301 3.6582-0.26295 1.4911 0.069589 2.9962 0.9375 4.2363 1.7918 2.5605 5.3318 3.1856 7.8906 1.3926 1.2394-0.86849 2.0671-2.1687 2.3301-3.6602 0.26262-1.4904-0.071544-2.9942-0.93945-4.2344-1.1198-1.6003-2.9211-2.4458-4.7402-2.416zm12.271 17.332a5.6667 5.6667 0 0 0-3.2871 1.0254 5.6667 5.6667 0 0 0-1.3926 7.8926l6.5332 9.332a5.6667 5.6667 0 0 0 7.8906 1.3926 5.6667 5.6667 0 0 0 1.3945-7.8906l-6.5352-9.334a5.6667 5.6667 0 0 0-4.6035-2.418z" fill="url(#linearGradient917)" fill-rule="evenodd" stroke-width=".66667"/>
 </g>
</svg>
