<svg xmlns="http://www.w3.org/2000/svg" xmlns:xlink="http://www.w3.org/1999/xlink" width="64" height="64"><defs><linearGradient id="b"><stop offset="0" stop-color="#626245"/><stop offset="1" stop-color="#a2a27b"/></linearGradient><linearGradient id="a"><stop offset="0" stop-color="#388c38"/><stop offset="1" stop-color="#5bbe5b"/></linearGradient><linearGradient id="c"><stop offset="0" stop-color="#1c7049"/><stop offset="1" stop-color="#2bad77"/></linearGradient><linearGradient id="e" x1="7.937" x2="7.937" y1="15.081" y2="1.852" gradientTransform="translate(-2.286 -2.252)scale(4.0494)" gradientUnits="userSpaceOnUse"><stop offset="0" stop-color="#f1efeb"/><stop offset="1" stop-color="#fdfcfc"/></linearGradient><linearGradient id="y" x1="14" x2="50" y1="28" y2="28" gradientUnits="userSpaceOnUse"><stop offset="0" stop-color="#288f28"/><stop offset="1" stop-color="#74d65c"/></linearGradient><linearGradient id="w" x1="19" x2="45" y1="45" y2="45" gradientUnits="userSpaceOnUse"><stop offset="0" stop-color="#1c7049"/><stop offset="1" stop-color="#218456"/></linearGradient><linearGradient xlink:href="#a" id="n" x1="10" x2="20.693" y1="56" y2="56" gradientUnits="userSpaceOnUse"/><linearGradient xlink:href="#a" id="s" x1="43.206" x2="53.898" y1="56" y2="56" gradientUnits="userSpaceOnUse"/><linearGradient xlink:href="#b" id="o" x1="53.991" x2="58" y1="42.664" y2="42.664" gradientUnits="userSpaceOnUse"/><linearGradient xlink:href="#b" id="k" x1="6" x2="10.588" y1="42.664" y2="42.664" gradientUnits="userSpaceOnUse"/><linearGradient xlink:href="#b" id="i" x1="26" x2="38" y1="56" y2="56" gradientUnits="userSpaceOnUse"/><filter id="j" width="1.199" height="1.199" x="-.1" y="-.1" color-interpolation-filters="sRGB"><feGaussianBlur stdDeviation="1.079"/></filter><filter id="x" width="1.144" height="1.1" x="-.072" y="-.05" color-interpolation-filters="sRGB"><feGaussianBlur stdDeviation="1.079"/></filter><filter id="m" width="1.484" height="1.432" x="-.242" y="-.216" color-interpolation-filters="sRGB"><feGaussianBlur stdDeviation="1.079"/></filter><filter id="r" width="1.484" height="1.432" x="-.242" y="-.216" color-interpolation-filters="sRGB"><feGaussianBlur stdDeviation="1.079"/></filter><filter id="g" width="1.778" height="1.719" x="-.389" y="-.36" color-interpolation-filters="sRGB"><feGaussianBlur stdDeviation="1.079"/></filter><filter id="h" width="1.778" height="1.719" x="-.389" y="-.36" color-interpolation-filters="sRGB"><feGaussianBlur stdDeviation="1.079"/></filter><filter id="p" width="1.259" height="1.259" x="-.13" y="-.13" color-interpolation-filters="sRGB"><feGaussianBlur stdDeviation=".54"/></filter><filter id="t" width="1.259" height="1.259" x="-.13" y="-.13" color-interpolation-filters="sRGB"><feGaussianBlur stdDeviation=".54"/></filter><filter id="f" width="1.288" height="1.173" x="-.144" y="-.086" color-interpolation-filters="sRGB"><feGaussianBlur stdDeviation="1.7"/></filter><filter id="d" width="1.061" height="1.061" x="-.031" y="-.031" color-interpolation-filters="sRGB"><feGaussianBlur stdDeviation=".768"/></filter><radialGradient xlink:href="#c" id="u" cx="14.084" cy="31.168" r="5" gradientUnits="userSpaceOnUse"/><radialGradient xlink:href="#c" id="v" cx="49.656" cy="30.881" r="5" gradientUnits="userSpaceOnUse"/><radialGradient xlink:href="#c" id="q" cx="52.628" cy="53.676" r="3.331" gradientTransform="matrix(1 0 0 1.0814 0 -4.368)" gradientUnits="userSpaceOnUse"/><radialGradient xlink:href="#c" id="l" cx="11.368" cy="53.676" r="3.328" gradientTransform="matrix(1 0 0 1.0825 0 -4.426)" gradientUnits="userSpaceOnUse"/></defs><rect width="60" height="60" x="2" y="2" filter="url(#d)" opacity=".15" rx="30" ry="30"/><rect width="64" height="64" fill="none" rx="0" ry="0" style="paint-order:stroke fill markers"/><rect width="60" height="60" x="2" y="2" fill="url(#e)" rx="30" ry="30"/><g transform="translate(6.82 6.427)scale(.78688)"><path d="M32.012 8.002c-.038.003-.075.027-.123.064-.444.347-.823.768-1.219 1.163-1.41 1.407-2.804 2.833-4.105 4.351a64 64 0 0 0-2.692 3.334c-1.235 1.653-2.366 3.379-3.326 5.215-.81 1.55-1.506 3.152-1.998 4.842-.444 1.524-.7 3.08-.713 4.672-.004.447.02.894.041 1.341q.063 1.301.303 2.573c.366 1.934.993 3.775 1.926 5.506a17.4 17.4 0 0 0 1.865 2.78 10.23 10.23 0 0 0 5.328 7.079A4.72 4.72 0 0 0 32 55.213a4.72 4.72 0 0 0 4.701-4.293 10.23 10.23 0 0 0 5.313-7c.043-.05.09-.095.133-.147a17 17 0 0 0 2.67-4.6c.89-2.263 1.315-4.62 1.341-7.294.028-.476-.042-1.184-.128-1.885-.172-1.388-.516-2.735-.967-4.058-.826-2.422-1.99-4.667-3.336-6.819-1.56-2.493-3.359-4.799-5.332-6.955-1.334-1.457-2.725-2.86-4.256-4.105-.052-.043-.09-.059-.127-.055" filter="url(#f)" opacity=".15" transform="translate(-8.556 -5.926)scale(1.2708)"/><path d="M11.912 55.163c0 1.99 1.72 3.115-.27 3.115a3.602 3.602 0 1 1 3.023-5.56c.367.563-2.753 1.723-2.753 2.445" filter="url(#g)" opacity=".2"/><path d="M51.468 55.163c0 1.99-1.101 3.115.888 3.115a3.602 3.602 0 1 0-3.023-5.56c-.366.563 2.135 1.723 2.135 2.445" filter="url(#h)" opacity=".2"/><circle cx="32" cy="56" r="6" fill="url(#i)"/><circle cx="32" cy="46" r="13" filter="url(#j)" opacity=".1"/><path fill="url(#k)" fill-rule="evenodd" d="M11.894 36.409c-.464.894-.897 1.803-1.194 2.769a16 16 0 0 0-.687 3.586c-.211 2.888.49 5.559 1.802 8.098-1.303.022-2.669.921-2.945 2.61-.708-.952-1.184-2.03-1.637-3.115a15.7 15.7 0 0 1-1.077-4.163 19 19 0 0 1-.108-3.77c.118-1.564.389-3.09.898-4.566.734-2.131 1.802-4.078 3.308-5.765.08-.089.179-.159.268-.237-.109.768 1.038 2.016 1.241 2.769.233.863.841.784 1.44 1.44"/><path fill="url(#l)" d="M11.912 54.163c0 1.99 1.72 3.115-.27 3.115a3.602 3.602 0 1 1 3.023-5.56c.367.563-2.753 1.723-2.753 2.445"/><g fill-rule="evenodd"><path d="M15.882 51.004c1.702.027 3.055.595 4.215 1.632.868.777.768 2.267-.17 2.851-.574.358-1.648.276-2.157-.176-.598-.53-1.238-.898-2.089-.853-1 .052-1.935.706-2.245 1.675-.446 1.393.331 2.918 1.69 3.24.529.125 1.062.195 1.552.462.776.423.87 1.338.593 2.005-.425 1.02-.963 1.261-2.068 1.126-2.536-.311-4.55-2.204-5.069-4.727-.38-1.845.055-3.52 1.221-5.003.874-1.11 2.02-1.767 3.373-2.083.422-.099.853-.17 1.154-.149" filter="url(#m)" opacity=".2"/><path fill="url(#n)" d="M15.882 50.004c1.702.027 3.055.595 4.215 1.632.868.777.768 2.267-.17 2.851-.574.358-1.648.276-2.157-.176-.598-.53-1.238-.898-2.089-.853-1 .052-1.935.706-2.245 1.675-.446 1.393.331 2.918 1.69 3.24.529.125 1.062.195 1.552.462.776.423.87 1.338.593 2.005-.425 1.02-.963 1.261-2.068 1.126-2.536-.311-4.55-2.204-5.069-4.727-.38-1.845.055-3.52 1.221-5.003.874-1.11 2.02-1.767 3.373-2.083.422-.099.853-.17 1.154-.149"/><path fill="url(#o)" d="M52.106 36.409c.464.894.897 1.803 1.194 2.769a16 16 0 0 1 .687 3.586c.211 2.888-.49 5.559-1.802 8.098 1.303.022 2.669.921 2.945 2.61.708-.952 1.184-2.03 1.637-3.115a15.7 15.7 0 0 0 1.077-4.163 19 19 0 0 0 .108-3.77c-.118-1.564-.389-3.09-.898-4.566-.734-2.131-1.802-4.078-3.308-5.765-.08-.089-.179-.159-.268-.237.109.768-1.038 2.016-1.241 2.769-.233.863-.841.784-1.44 1.44"/></g><circle cx="49" cy="34" r="5" filter="url(#p)" opacity=".1"/><path fill="url(#q)" d="M51.468 54.163c0 1.99-1.101 3.115.888 3.115a3.602 3.602 0 1 0-3.023-5.56c-.366.563 2.135 1.723 2.135 2.445"/><path fill-rule="evenodd" d="M48.017 51.004c-1.702.027-3.055.595-4.215 1.632-.868.777-.768 2.267.17 2.851.574.358 1.648.276 2.157-.176.598-.53 1.238-.898 2.089-.853 1 .052 1.935.706 2.245 1.675.446 1.393-.331 2.918-1.69 3.24-.529.125-1.062.195-1.552.462-.776.423-.87 1.338-.593 2.005.425 1.02.963 1.261 2.068 1.126 2.536-.311 4.55-2.204 5.069-4.727.38-1.845-.055-3.52-1.222-5.003-.873-1.11-2.02-1.767-3.372-2.083-.422-.099-.853-.17-1.154-.149" filter="url(#r)" opacity=".2"/><path fill="url(#s)" fill-rule="evenodd" d="M48.017 50.004c-1.702.027-3.055.595-4.215 1.632-.868.777-.768 2.267.17 2.851.574.358 1.648.276 2.157-.176.598-.53 1.238-.898 2.089-.853 1 .052 1.935.706 2.245 1.675.446 1.393-.331 2.918-1.69 3.24-.529.125-1.062.195-1.552.462-.776.423-.87 1.338-.593 2.005.425 1.02.963 1.261 2.068 1.126 2.536-.311 4.55-2.204 5.069-4.727.38-1.845-.055-3.52-1.222-5.003-.873-1.11-2.02-1.767-3.372-2.083-.422-.099-.853-.17-1.154-.149"/><circle cx="15" cy="34" r="5" filter="url(#t)" opacity=".1"/><circle cx="15" cy="33" r="5" fill="url(#u)"/><circle cx="49" cy="33" r="5" fill="url(#v)"/><circle cx="32" cy="45" r="13" fill="url(#w)"/><g fill-rule="evenodd"><path d="M49.992 33.346c-.034 3.397-.573 6.394-1.704 9.27-.836 2.127-1.955 4.092-3.392 5.846-1.794 2.188-3.926 3.952-6.49 5.12a15.5 15.5 0 0 1-4.515 1.294c-2.834.358-5.54-.062-8.149-1.233-1.558-.7-2.964-1.635-4.259-2.765-1.898-1.656-3.397-3.631-4.598-5.862-1.185-2.199-1.983-4.539-2.448-6.996a24 24 0 0 1-.386-3.27 30 30 0 0 1-.05-1.706c.017-2.024.341-4 .905-5.937.625-2.148 1.51-4.184 2.54-6.153 1.22-2.334 2.656-4.526 4.226-6.627a82 82 0 0 1 3.421-4.237c1.654-1.93 3.424-3.742 5.217-5.53.503-.503.985-1.038 1.549-1.478.122-.095.185-.119.318-.01 1.947 1.582 3.714 3.366 5.408 5.217 2.508 2.74 4.793 5.67 6.776 8.839 1.71 2.734 3.191 5.586 4.24 8.663.573 1.682 1.01 3.396 1.228 5.16.11.89.198 1.79.163 2.395" filter="url(#x)" opacity=".2"/><path fill="url(#y)" d="M49.992 32.346c-.034 3.397-.573 6.394-1.704 9.27-.836 2.127-1.955 4.092-3.392 5.846-1.794 2.188-3.926 3.952-6.49 5.12a15.5 15.5 0 0 1-4.515 1.294c-2.834.358-5.54-.062-8.149-1.233-1.558-.7-2.964-1.635-4.259-2.765-1.898-1.656-3.397-3.631-4.598-5.862-1.185-2.199-1.983-4.539-2.448-6.996a24 24 0 0 1-.386-3.27 30 30 0 0 1-.05-1.706c.017-2.024.341-4 .905-5.937.625-2.148 1.51-4.184 2.54-6.153 1.22-2.334 2.656-4.526 4.226-6.627a82 82 0 0 1 3.421-4.237c1.654-1.93 3.424-3.742 5.217-5.53.503-.503.985-1.038 1.549-1.478.122-.095.185-.119.318-.01 1.947 1.582 3.714 3.366 5.408 5.217 2.508 2.74 4.793 5.67 6.776 8.839 1.71 2.734 3.191 5.586 4.24 8.663.573 1.682 1.01 3.396 1.228 5.16.11.89.198 1.79.163 2.395"/><path fill="#1c7927" d="M30.997 44.028c0 .57-.004 1.142.003 1.712.002.182-.045.246-.207.252-.79.029-.79.034-.79-.879 0-.938.006-1.875-.003-2.813-.002-.224.046-.317.247-.297.18.018.364.014.546.001.164-.011.209.069.206.25-.007.591-.002 1.183-.002 1.774"/><path fill="#1d7a28" d="M28.972 44.05c0 .579-.003 1.157.002 1.736.001.176-.013.238-.174.206-.794-.16-.795-.15-.795-1.226 0-.808.007-1.616-.004-2.424-.004-.25.058-.33.235-.308.231.029.526-.127.68.059.157.191.045.597.054.909.01.349.002.699.002 1.048"/><path fill="#1c7727" d="M26.998 43.385c0 .385-.003.77.002 1.155.002.174-.06.192-.177.114-.039-.026-.071-.072-.112-.083-.663-.189-.763-.72-.691-1.385.033-.3.012-.608.003-.911-.004-.168.045-.24.2-.233q.296.015.592 0c.144-.005.187.066.185.218-.006.375-.002.75-.002 1.125"/><path fill="#186521" d="M31.974 38c-5.502-.009-9.993-4.505-9.973-10.048.019-5.44 4.496-10.033 10.16-9.95 5.327.076 9.926 4.447 9.838 10.181-.083 5.37-4.479 9.825-10.025 9.817"/><path fill="#89d4a4" d="M39 28.036c-.002 3.849-3.15 6.966-7.035 6.964-3.865 0-6.97-3.156-6.965-7.076.005-3.825 3.178-6.929 7.078-6.924 3.807.006 6.924 3.173 6.922 7.036"/></g><circle cx="32" cy="28" r="3" fill="#599462"/><g fill-rule="evenodd"><path fill="#1d7a28" d="M34.026 44.05c0 .579.003 1.157-.002 1.736-.001.176.013.238.174.206.794-.16.795-.15.795-1.226 0-.808-.007-1.616.004-2.424.004-.25-.058-.33-.235-.308-.231.029-.526-.127-.68.059-.157.191-.045.597-.054.909-.01.349-.002.699-.002 1.048"/><path fill="#1c7727" d="M36 43.385c0 .385.003.77-.002 1.155-.002.174.06.192.177.114.039-.026.071-.072.112-.083.663-.189.763-.72.691-1.385-.033-.3-.012-.608-.003-.911.004-.168-.045-.24-.2-.233q-.296.015-.592 0c-.144-.005-.187.066-.185.218.006.375.002.75.002 1.125"/><path fill="#1c7927" d="M32.997 44.028c0 .57-.004 1.142.003 1.712.002.182-.045.246-.207.252-.79.029-.79.034-.79-.879 0-.938.006-1.875-.003-2.813-.002-.224.046-.317.247-.297.18.018.364.014.546.001.164-.011.209.069.206.25-.007.591-.002 1.183-.002 1.774"/></g></g></svg>