<svg xmlns="http://www.w3.org/2000/svg" width="64" height="64"><rect width="60" height="60" x="2" y="2" fill="#fff" rx="30" ry="30" style="fill:#f2f2f2"/><path d="M19.91 4.525A29.93 29.93 0 0 0 2 32a29.93 29.93 0 0 0 17.91 27.475z" class="cls-1" style="stroke-width:1.64379;fill:#02c5e5;fill-opacity:1"/><path d="M44.006 4.488v55.024A29.93 29.93 0 0 0 62 32 29.93 29.93 0 0 0 44.006 4.488" class="cls-2" style="stroke-width:1.4712;fill:#ff5f55;fill-opacity:1"/><path fill="#02c5e5" d="m30.708 21.863-1.428 6.164h-5.082l-.576 1.947h5.205l-1.096 4.733h-4.685l-.577 1.945h4.811l-1.33 5.738h1.78l1.33-5.738h1.583l.45-1.945h-1.585l1.098-4.733h1.582l.453-1.947h-1.584l1.428-6.164z" class="cls-1"/><path fill="#ff5f55" d="m36.833 21.863-1.427 6.164h-2.764l-.453 1.947h2.766l-1.098 4.733h-2.764l-.449 1.945h2.762l-1.33 5.738h1.822l1.33-5.738h4.437l.627-1.945H35.68l1.098-4.733h4.04l.628-1.947h-4.217l1.428-6.164z" class="cls-2"/></svg>