<svg xmlns="http://www.w3.org/2000/svg" viewBox="0 0 64 64"><defs><linearGradient id="b" x1="-868.78" x2="-868.78" y1="-881.36" y2="-879.35" gradientTransform="matrix(51.93 0 0 -51.93 45175 -45657)" gradientUnits="userSpaceOnUse"><stop offset="0" stop-color="#1e6ff1"/><stop offset="1" stop-color="#28cefb"/></linearGradient><filter id="a" width="1.072" height="1.072" x="-.036" y="-.036" color-interpolation-filters="sRGB"><feGaussianBlur stdDeviation="14.17"/></filter></defs><path d="M970.43 391.52a515 515 0 0 0-3.653-13.61c-1-3.403-2.001-6.855-3.152-10.508a421.48 421.48 0 0 0-5.304-15.862c-6.455-18.263-14.16-36.076-23.167-53.689a475.42 475.42 0 0 0-12.309-22.416c-20.315-34.525-45.833-67.249-76.406-97.821-72.653-72.653-157.26-116.74-253.84-132.15a484.05 484.05 0 0 0-50.087-5.354c-9.707-.55-19.865-.85-30.122-.85-9.357 0-18.614.25-27.92.75-118.44 6.105-220.46 51.988-306.07 137.6Q40.05 315.96 40.05 511.6c0 130.45 46.134 241.83 138.35 334.04 56.741 56.691 120.64 95.97 191.24 117.64 36.777 11.258 74.855 17.863 114.83 19.965h.4c8.507.45 16.612.7 24.518.7h3.003a583.3 583.3 0 0 0 30.122-.8c2.501-.15 4.753-.3 6.955-.45 20.215-1.451 39.929-4.053 58.743-7.706a519.82 519.82 0 0 0 23.417-5.154c80.859-20.315 152.26-61.645 214.81-124.19 48.636-48.636 84.462-102.57 107.43-161.92 18.463-47.685 28.67-98.872 30.572-153.61.2-6.054.3-12.259.3-18.514V508.6c-.2-40.68-4.954-79.558-14.31-117.09z" filter="url(#a)" opacity=".25" transform="translate(-.544 -.493) scale(.06351)"/><g data-name="Home-Screen-11&quot;" transform="matrix(.5758 0 0 .5758 -2.607 -2.548)"><circle cx="60.1" cy="60" r="52.1" fill="url(#b)"/><path fill="none" stroke="#fff" stroke-linecap="square" stroke-width="1.003" d="M60.102 107.48v-8"/><path fill="none" stroke="#fff" stroke-linecap="square" stroke-width="1.003" d="M60.102 20.48v-8" data-name="Line-2"/><g fill="none" stroke="#fff" stroke-linecap="square" stroke-width="1.003" data-name="Group-11"><path d="m51.832 106.79 1.39-7.878m13.717-77.8 1.39-7.879M43.852 104.63l2.736-7.518m27.02-74.236 2.736-7.517M36.312 101.17l4-6.928m39.5-68.416 4-6.928M29.612 96.395l5.142-6.128m50.78-60.518 5.143-6.129M23.662 90.519l6.128-5.142m60.518-50.78 6.129-5.143M18.946 83.721l6.928-4m68.416-39.5 6.928-4M15.386 76.252l7.518-2.736m74.236-27.02 7.517-2.736M13.291 68.299l7.878-1.39m77.8-13.717 7.879-1.39M12.618 60.002h8m79 0h8M13.314 51.784l7.878 1.39m77.8 13.717 7.879 1.39M15.47 43.772l7.518 2.736m74.236 27.02 7.517 2.736M18.928 36.307l6.928 4m68.416 39.5 6.928 4M23.678 29.438l6.128 5.142m60.518 50.78 6.129 5.143M29.51 23.626l5.142 6.128m50.78 60.517 5.143 6.129M36.32 18.86l4 6.928m39.5 68.416 4 6.928M43.854 15.359l2.736 7.518m27.02 74.236 2.736 7.517M51.802 13.292l1.39 7.878m13.717 77.8 1.39 7.879M55.937 107.31l.349-3.985m7.582-86.669.349-3.985M47.82 105.93l1.035-3.864M71.372 18.03l1.036-3.863M39.998 103.02l1.69-3.625m36.768-78.85 1.691-3.624M32.84 98.927l2.294-3.277m49.901-71.266 2.295-3.276M26.541 93.591l2.829-2.828m61.517-61.518 2.829-2.829M21.191 87.294 24.468 85m71.266-49.901 3.276-2.295M17.061 80.089l3.625-1.69m78.85-36.769 3.624-1.69M14.204 72.327l3.864-1.035m84.036-22.517 3.863-1.036M12.737 64.152l3.985-.349m86.669-7.582 3.985-.349M12.771 55.872l3.985.349m86.669 7.582 3.985.349M14.146 47.753l3.864 1.035m84.036 22.517 3.863 1.036M17.028 39.921l3.625 1.69m78.85 36.769 3.624 1.69M21.175 32.8l3.277 2.294m71.266 49.901 3.276 2.295M26.536 26.443l2.828 2.828M90.882 90.79l2.829 2.829M32.789 21.084l2.294 3.277m49.901 71.266 2.295 3.276M40.023 16.989l1.69 3.625m36.769 78.85 1.69 3.624M47.774 14.173l1.035 3.864m22.517 84.036 1.036 3.863M55.895 12.711l.349 3.985m7.582 86.669.349 3.985" data-name="Line-2"/></g><g fill-rule="evenodd"><path fill="#fff" d="m97.07 29.06-41.1 26.3-32.9 35.7 41.3-25.7z"/><path fill="#ff3b30" d="m64.37 65.36 32.7-36.3-41.1 26.3z"/></g></g></svg>