<svg xmlns="http://www.w3.org/2000/svg" xmlns:xlink="http://www.w3.org/1999/xlink" width="64" height="64"><defs><linearGradient id="a"><stop offset="0" stop-color="#2aa4ff"/><stop offset="1" stop-color="#5cc4ff"/></linearGradient><linearGradient id="f" x1="511.51" x2="515.31" y1="983.01" y2="41.047" gradientTransform="translate(-16.058 3.667) scale(.11525)" gradientUnits="userSpaceOnUse"><stop offset="0" stop-color="#666"/><stop offset=".6" stop-color="#4d4d4d"/><stop offset="1" stop-color="#333"/></linearGradient><linearGradient xlink:href="#a" id="i" x1="30" x2="34" y1="32" y2="32" gradientUnits="userSpaceOnUse"/><linearGradient xlink:href="#a" id="h" x1="-32" x2="-16" y1="38.928" y2="38.928" gradientUnits="userSpaceOnUse"/><linearGradient id="c" x1="28.397" x2="28.397" y1="58.321" y2=".243" gradientTransform="translate(-2.286 -2.252) scale(1.0714)" gradientUnits="userSpaceOnUse"><stop offset="0" stop-color="#ececec"/><stop offset="1" stop-color="#fff"/></linearGradient><filter id="d" width="1.359" height="1.04" x="-.179" y="-.02" color-interpolation-filters="sRGB"><feGaussianBlur stdDeviation=".15"/></filter><filter id="e" width="1.072" height="1.072" x="-.036" y="-.036" color-interpolation-filters="sRGB"><feGaussianBlur stdDeviation=".244"/></filter><filter id="b" width="1.054" height="1.054" x="-.027" y="-.027" color-interpolation-filters="sRGB"><feGaussianBlur stdDeviation=".675"/></filter><radialGradient id="g" cx="118.51" cy="31.729" r="30" gradientTransform="matrix(.8 0 0 .8 -62.806 6.617)" gradientUnits="userSpaceOnUse"><stop offset="0" stop-opacity="0"/><stop offset=".84" stop-opacity=".15"/><stop offset="1" stop-opacity=".35"/></radialGradient></defs><g stroke-width="3.78"><rect width="60" height="60" x="2" y="3" filter="url(#b)" opacity=".15" rx="30" ry="30"/><rect width="60" height="60" x="2" y="2" fill="url(#c)" rx="30" ry="30"/><path d="M31.998 14.998A1.002 1.002 0 0 0 30.996 16a1.002 1.002 0 0 0 .004.07v15.916a1.002 1.002 0 0 0 1.002.99 1.002 1.002 0 0 0 1.002-1.001 1.002 1.002 0 0 0-.004-.07V16a1.002 1.002 0 0 0 0-.011 1.002 1.002 0 0 0-1.002-.99z" filter="url(#d)" opacity=".5" transform="matrix(.8 0 0 .8 6.4 6.4)"/><path d="m32.709 31.991 15.557 15.557-.71.707-15.558-15.557z" filter="url(#e)" opacity=".35" transform="matrix(.8 0 0 .8 6.4 6.4)"/></g><path fill="url(#f)" d="M32.002 56c13.254 0 24-10.746 24-24s-10.746-24-24-24-24 10.746-24 24 10.746 24 24 24z" class="shp36"/><path fill="url(#g)" d="M32.002 56c13.254 0 24-10.746 24-24s-10.746-24-24-24-24 10.746-24 24 10.746 24 24 24z" class="shp36"/><g fill="#fff" stroke-linecap="round" stroke-linejoin="round" stroke-width="4.125"><rect width="1" height="4" x="31.5" y="10" ry=".532"/><rect width="1" height="4" x="31.5" y="50" ry=".532"/><rect width="1" height="4" x="43.213" y="-10.287" ry=".532" transform="rotate(30)"/><rect width="1" height="4" x="43.213" y="29.713" ry=".532" transform="rotate(30)"/><rect width="1" height="4" x="43.213" y="-33.713" ry=".532" transform="rotate(60)"/><rect width="1" height="4" x="43.213" y="6.287" ry=".532" transform="rotate(60)"/><rect width="1" height="4" x="31.5" y="-54" ry=".532" transform="rotate(90)"/><rect width="1" height="4" x="31.5" y="-14" ry=".532" transform="rotate(90)"/><rect width="1" height="4" x="11.213" y="-65.713" ry=".532" transform="rotate(120)"/><rect width="1" height="4" x="11.213" y="-25.713" ry=".532" transform="rotate(120)"/><rect width="1" height="4" x="-12.213" y="-65.713" ry=".532" transform="rotate(150)"/><rect width="1" height="4" x="-12.213" y="-25.713" ry=".532" transform="rotate(150)"/></g><path fill="url(#h)" d="M-16 32a16 16 0 0 1-8 13.856L-32 32z" transform="rotate(-90)"/><circle cx="32" cy="32" r="3" fill="#333"/><circle cx="32" cy="32" r="2" fill="url(#i)"/></svg>