<svg width="64" height="64" version="1.1" viewBox="0 0 16.933 16.933" xmlns="http://www.w3.org/2000/svg" xmlns:xlink="http://www.w3.org/1999/xlink">
 <defs>
  <filter id="j" x="-.05477" y="-.066371" width="1.1095" height="1.1327" color-interpolation-filters="sRGB">
   <feGaussianBlur stdDeviation=".302"/>
  </filter>
  <filter id="g" x="-.086793" y="-.4242" width="1.1736" height="1.8484" color-interpolation-filters="sRGB">
   <feGaussianBlur stdDeviation=".707"/>
  </filter>
  <filter id="m" x="-.019843" y="-.23819" width="1.0397" height="1.4764" color-interpolation-filters="sRGB">
   <feGaussianBlur stdDeviation=".105"/>
  </filter>
  <filter id="f" x="-.020056" y="-.17629" width="1.0401" height="1.3526" color-interpolation-filters="sRGB">
   <feGaussianBlur stdDeviation=".44"/>
  </filter>
  <filter id="k" x="-.041296" y="-.11001" width="1.0826" height="1.22" color-interpolation-filters="sRGB">
   <feGaussianBlur stdDeviation=".341"/>
  </filter>
  <filter id="o" x="-.18222" y="-.18222" width="1.3644" height="1.3644" color-interpolation-filters="sRGB">
   <feGaussianBlur stdDeviation=".041"/>
  </filter>
  <filter id="d" x="-.05948" y="-.060545" width="1.119" height="1.1211" color-interpolation-filters="sRGB">
   <feGaussianBlur stdDeviation="1.338"/>
  </filter>
  <filter id="b" x="-.036" y="-.036" width="1.072" height="1.072" color-interpolation-filters="sRGB">
   <feGaussianBlur stdDeviation=".9"/>
  </filter>
  <radialGradient id="h" cx="32" cy="53.196" r="9.909" gradientTransform="matrix(.25915 0 0 .090266 .17441 6.2128)" gradientUnits="userSpaceOnUse">
   <stop stop-color="#fdfdfd" offset="0"/>
   <stop stop-color="#f5f5f5" offset=".473"/>
   <stop stop-color="#cecece" offset="1"/>
  </radialGradient>
  <radialGradient id="l" cx="7.937" cy="13.903" r="7.142" gradientTransform="matrix(.77052 0 0 .89892 1.9846 -1.3787)" gradientUnits="userSpaceOnUse">
   <stop stop-color="#fff" offset="0"/>
   <stop stop-color="#fff" stop-opacity="0" offset="1"/>
  </radialGradient>
  <radialGradient id="n" cx="14.155" cy="14.42" r=".397" gradientUnits="userSpaceOnUse" xlink:href="#a"/>
  <radialGradient id="p" cx="14.155" cy="14.42" r=".397" gradientTransform="matrix(.66667 0 0 .66667 3.528 4.806)" gradientUnits="userSpaceOnUse" xlink:href="#a"/>
  <radialGradient id="q" cx="14.155" cy="14.42" r=".397" gradientTransform="matrix(.66667 0 0 .66667 2.47 4.806)" gradientUnits="userSpaceOnUse" xlink:href="#a"/>
  <linearGradient id="a">
   <stop stop-color="#bebebe" offset="0"/>
   <stop stop-color="#464646" offset="1"/>
  </linearGradient>
  <linearGradient id="e" x1="8.466" x2="8.466" y1="12.477" y2="15.356" gradientTransform="matrix(.6898 0 0 .69329 2.6273 2.2438)" gradientUnits="userSpaceOnUse">
   <stop stop-color="#f3f3f3" offset="0"/>
   <stop stop-color="#e4e4e4" offset="1"/>
  </linearGradient>
  <linearGradient id="c" x1="-506.45" x2="-506.45" y1="-19.101" y2="1013.6" gradientTransform="translate(16.349 .826) scale(.01556)" gradientUnits="userSpaceOnUse">
   <stop stop-color="#262626" offset="0"/>
   <stop stop-color="#333" offset=".508"/>
   <stop stop-color="#4a4a4a" offset="1"/>
  </linearGradient>
  <clipPath id="i">
   <path d="M3.814 1.38a.884.884 0 0 0-.36.065c-.16.053-.229.153-.275.316l-1.687 9.643a.445.445 0 0 0 .038.233.585.585 0 0 0 .169.21.703.703 0 0 0 .165.097c.09.038.192.06.296.06h3.746a3.496 5.043 0 0 1 2.56-1.619 3.496 5.043 0 0 1 2.562 1.619h3.744c.243 0 .47-.116.588-.29a.507.507 0 0 0 .043-.077l.012-.027a.475.475 0 0 0 .026-.206L13.495 1.76c-.046-.162-.114-.262-.274-.316a.885.885 0 0 0-.36-.064H8.465z" fill="#929292"/>
  </clipPath>
  <filter id="filter26" x="-.013853" y="-.013853" width="1.0277" height="1.0277" color-interpolation-filters="sRGB">
   <feGaussianBlur stdDeviation="0.29776566"/>
  </filter>
  <filter id="filter25" x="-.029663" y="-.029663" width="1.0593" height="1.0593" color-interpolation-filters="sRGB">
   <feGaussianBlur stdDeviation="0.29776566"/>
  </filter>
 </defs>
 <circle transform="scale(.26458)" cx="32" cy="32" r="30" fill-rule="evenodd" filter="url(#b)" opacity=".25" style="paint-order:fill markers stroke"/>
 <circle cx="8.466" cy="8.466" r="7.937" fill="url(#c)" fill-rule="evenodd" style="paint-order:fill markers stroke"/>
 <path transform="matrix(.18343 0 0 .18343 2.5975 2.2438)" d="m14 5c-0.543-1e-3 -1.013 0.09-1.395 0.28-0.62 0.23-0.883 0.663-1.062 1.368l-6.527 41.746a2.15 2.15 0 0 0 0.037 0.647c2e-3 0.012 7e-3 0.024 0.01 0.037-7e-3 0.418 6e-3 0.859 0.037 1.312 0.037 1.99 0.142 2.467 0.318 4.538 0.097 1.72 1.15 3.112 2.576 3.11l48.012-0.038c1.427-1e-3 2.48-1.352 2.576-3.072 0.177-2.071 0.282-2.55 0.319-4.54 0.03-0.45 0.041-0.888 0.035-1.304 3e-3 -0.015 9e-3 -0.029 0.012-0.043a2.16 2.16 0 0 0 0.037-0.649l-7.528-41.742c-0.179-0.705-0.441-1.138-1.062-1.369-0.381-0.19-0.852-0.28-1.395-0.28h-17zm18 38.982a13.526 21.831 0 0 1 6.977 3.176h-13.96a13.526 21.831 0 0 1 6.983-3.176z" filter="url(#d)" opacity=".35"/>
 <path d="m3.7067 10.894c-0.17194 0.02981-0.16778 0.31198-0.14906 0.59276 0.00693 0.36467 0.025652 0.45272 0.058236 0.83195 0.017332 0.31614 0.20937 0.57127 0.47005 0.57127l8.7625-0.0069c0.25998 0 0.45202-0.2482 0.47005-0.56434 0.03189-0.37923 0.0513-0.46728 0.05824-0.83195 0.01872-0.28148 0.02219-0.56295-0.14975-0.59276h-8.8311z" fill="url(#e)" stroke="#000000" stroke-opacity=".196" stroke-width=".265"/>
 <path transform="matrix(.18343 0 0 .18343 2.5975 2.2438)" d="m6.771 45.307c-0.607 0-1.097 0.746-1.097 1.672v2.646c0 0.926 0.49 1.672 1.097 1.672h15.867a9.864 5.113 0 0 1 9.362-3.511 9.864 5.113 0 0 1 9.353 3.511h15.875c0.608 0 1.098-0.746 1.098-1.672v-2.645c0-0.926-0.49-1.672-1.098-1.672h-50.457z" fill-rule="evenodd" filter="url(#f)" opacity=".35" style="paint-order:stroke fill markers"/>
 <path transform="matrix(.18343 0 0 .18343 2.5975 2.0608)" d="m31.855 47a10.294 5.798 0 0 0-9.771 4h2.502a10.294 5.798 0 0 1 7.269-1.7 10.294 5.798 0 0 1 7.258 1.7h2.521a10.294 5.798 0 0 0-9.779-4z" fill-rule="evenodd" filter="url(#g)" opacity=".35" style="paint-order:stroke fill markers"/>
 <path d="m8.4668 10.232a2.4813 4.2512 0 0 0-1.8164 1.3644h0.16084a1.8885 1.1294 0 0 1 1.6563-0.58722 1.8885 1.1294 0 0 1 1.6535 0.58722h0.16431a2.4813 4.2512 0 0 0-1.8178-1.3644z" fill="url(#h)" stroke-width=".69329"/>
 <path d="m5.1649 3.1615a0.56993 0.56993 0 0 0-0.25492 0.050984c-0.11472 0.04188-0.16297 0.122-0.19574 0.25128l-1.1972 7.6568a0.39422 0.39422 0 0 0 0.057358 0.24673 0.45158 0.45158 0 0 0 0.20667 0.18209c0.063731 0.03096 0.13657 0.04734 0.21031 0.04734h2.6585a2.4809 4.0041 0 0 1 1.8172-1.2846 2.4809 4.0041 0 0 1 1.8181 1.2846h2.6567a0.49164 0.49164 0 0 0 0.44794-0.29134l0.0082-0.02094a0.40605 0.40605 0 0 0 0.01821-0.16388l-1.3802-7.6568c-0.032776-0.12928-0.081939-0.2094-0.19483-0.25128a0.56993 0.56993 0 0 0-0.25583-0.050984z" fill="#b2b2b2" stroke-width=".91044"/>
 <path transform="matrix(.70972 0 0 .79402 2.4582 2.0653)" d="m4.054 1.78a0.782 0.782 0 0 0-0.342 0.067c-0.152 0.055-0.216 0.158-0.26 0.325l-1.6 9.912a0.494 0.494 0 0 0 0.077 0.319 0.589 0.589 0 0 0 0.119 0.137 0.66 0.66 0 0 0 0.157 0.099 0.68 0.68 0 0 0 0.28 0.06h3.553a3.316 5.183 0 0 1 2.429-1.663 3.316 5.183 0 0 1 2.43 1.664h3.55c0.23 0 0.446-0.12 0.557-0.297a0.536 0.536 0 0 0 0.041-0.08l0.011-0.028a0.53 0.53 0 0 0 0.025-0.212l-1.845-9.91c-0.044-0.168-0.108-0.27-0.26-0.326a0.782 0.782 0 0 0-0.342-0.066h-4.167z" clip-path="url(#i)" fill="#d8d8d8" filter="url(#j)"/>
 <path transform="matrix(.18343 0 0 .18343 2.5975 2.2438)" d="m32 43.549a13.526 23.175 0 0 0-9.906 7.438h0.297a13.526 23.175 0 0 1 9.61-6.92 13.526 23.175 0 0 1 9.603 6.92h0.308a13.526 23.175 0 0 0-9.912-7.439z" filter="url(#k)" opacity=".15"/>
 <path d="m5.1654 3.1603a0.56988 0.56988 0 0 0-0.25513 0.051303c-0.11439 0.041597-0.16223 0.12133-0.19551 0.25097l-1.1973 7.6574a0.39379 0.39379 0 0 0 0.058236 0.24681 0.45202 0.45202 0 0 0 0.18511 0.17194l0.020799 0.0104a0.49778 0.49778 0 0 0 0.21076 0.04645h2.6581a2.4813 4.0044 0 0 1 1.8164-1.2847 2.4813 4.0044 0 0 1 1.8185 1.2847h2.6574a0.49224 0.49224 0 0 0 0.41667-0.22879 0.41944 0.41944 0 0 0 0.0312-0.0624l0.0076-0.0208a0.40627 0.40627 0 0 0 0.01872-0.16362l-1.3803-7.6567c-0.033278-0.12964-0.081115-0.20937-0.19481-0.25166a0.56988 0.56988 0 0 0-0.25652-0.051303h-3.117z" fill="url(#l)" stroke-width=".69329"/>
 <g transform="matrix(.69329 0 0 .69329 2.5975 2.2438)" fill-rule="evenodd">
  <rect transform="matrix(1.0417 0 0 .96682 -.353 .5)" x="2.117" y="14.023" width="12.7" height="1.058" rx=".265" ry=".295" filter="url(#m)" opacity=".1" style="paint-order:stroke fill markers"/>
  <circle cx="14.155" cy="14.42" r=".397" fill="url(#n)" style="paint-order:stroke fill markers"/>
  <circle cx="14.155" cy="14.328" r=".27" fill="#ffffff" filter="url(#o)" opacity=".36" style="paint-order:stroke fill markers"/>
  <circle cx="12.964" cy="14.42" r=".265" fill="url(#p)" style="paint-order:stroke fill markers"/>
  <circle cx="11.906" cy="14.42" r=".265" fill="url(#q)" style="paint-order:stroke fill markers"/>
 </g>
 <path transform="scale(.26458)" d="m10.787 10.787c-11.752 11.752-11.752 30.674 0 42.426 0.11855 0.11855 0.24184 0.22911 0.36184 0.34527-11.399-11.775-11.288-30.431 0.34527-42.065 11.634-11.634 30.289-11.744 42.065-0.34527-0.11616-0.12-0.22671-0.24329-0.34527-0.36184-11.752-11.752-30.674-11.752-42.426 0z" fill="#ffffff" filter="url(#filter26)" opacity=".15"/>
 <path transform="scale(.26458)" d="m37.435 61.526c5.7718-1.0635 11.297-3.831 15.779-8.3126s7.2491-10.007 8.3126-15.779c-1.5917 5.4332-4.6056 10.657-9.0198 15.072s-9.6384 7.428-15.072 9.0198z" fill="#ffffff" filter="url(#filter25)" opacity=".15"/>
</svg>
