<?xml version="1.0" encoding="UTF-8"?>
<svg width="64" height="64" version="1.1" xmlns="http://www.w3.org/2000/svg">
 <defs>
  <linearGradient id="c" x1="273.64" x2="411.62" y1="74.198" y2="425.92" gradientTransform="scale(.71656 1.3956)" gradientUnits="userSpaceOnUse">
   <stop stop-color="#b9e5ff" stop-opacity=".42" offset="0"/>
   <stop stop-color="#fff" offset="1"/>
  </linearGradient>
  <linearGradient id="d" x1="596.06" x2="656.46" y1="231.01" y2="279.76" gradientTransform="scale(.80329 1.2449)" gradientUnits="userSpaceOnUse">
   <stop stop-color="#fff2bc" offset="0"/>
   <stop stop-color="#83560b" offset="1"/>
  </linearGradient>
  <linearGradient id="e" x1="779.72" x2="908.45" y1="160.63" y2="264.66" gradientTransform="scale(.74212 1.3475)" gradientUnits="userSpaceOnUse">
   <stop stop-color="#fff9db" stop-opacity=".732" offset="0"/>
   <stop stop-color="#2c2c2c" offset="1"/>
  </linearGradient>
  <linearGradient id="a" x1="33.333" x2="33.333" y1="4.885" y2="56.55" gradientTransform="matrix(1.0714 0 0 1.0714 -2.2856 -2.2523)" gradientUnits="userSpaceOnUse">
   <stop stop-color="#66b8ff" offset="0"/>
   <stop stop-color="#00507a" offset="1"/>
  </linearGradient>
  <filter id="b" x="-.13649" y="-.089338" width="1.273" height="1.1787" color-interpolation-filters="sRGB">
   <feGaussianBlur stdDeviation="1.575"/>
  </filter>
  <filter id="filter943" x="-.03888" y="-.03888" width="1.0778" height="1.0778" color-interpolation-filters="sRGB">
   <feGaussianBlur stdDeviation="0.972"/>
  </filter>
 </defs>
 <rect x="2" y="2" width="60" height="60" rx="30" ry="30" filter="url(#filter943)" opacity=".35" stroke-width="1.0714"/>
 <rect width="64" height="64" rx="0" ry="0" fill="none" style="paint-order:stroke fill markers"/>
 <rect x="2" y="2" width="60" height="60" rx="30" ry="30" fill="url(#a)" stroke-width="1.0714"/>
 <path d="M47.359 9.847a7.06 4.061 36.353 0 0-1.568.719 7.06 4.061 36.353 0 0 .004 4.38c-2.668 5.535-7.163 12.464-7.852 13.792-2.092 2.898-6.522 17.202-8.293 23.325l.573.029c-.168-.157 8.257-12.648 18.555-14.344.023-9.764 3.255-14.957 5.196-17.447a7.06 4.061 36.353 0 0 2.576-.684 7.06 4.061 36.353 0 0-2.35-7.306 7.06 4.061 36.353 0 0-6.84-2.464z" fill="#060000" fill-rule="evenodd" filter="url(#b)" opacity=".3"/>
 <g transform="translate(5.374 3.233) scale(.07362)" fill-rule="evenodd">
  <ellipse transform="matrix(.54666 .45993 -.50891 .46677 319.96 -324.01)" cx="765.44" cy="228.58" rx="134.35" ry="81.317" fill="#060000" stroke="#000" stroke-width="1pt"/>
  <path d="m298.39-11.893c-141.64 21.905-258.73 116.23-312.49 244.21 3.0024 19.604 8.5557 41.64 19.765 70.941 72.896 171.9 309.47 333.49 308.36 329.85 0 0-86.224-136.49-19.287-274.4 52.771-109.97 46.006-297.1 3.6611-370.59z" fill="url(#c)" opacity=".75"/>
  <path d="M336.09 639.87c-2.29-2.14 112.72-172.67 253.31-195.82.432-183.82 84.951-251.44 90.301-262.95-11.296-61.067-44.463-84.131-74.398-88.989-50.737-6.466-41.215 16.297-47.448 22.358-34.333 77.532-106.23 186.98-116.38 206.55-28.556 39.57-89.028 234.86-113.22 318.46z" fill="url(#d)" stroke="#323232" stroke-width="5.635"/>
  <ellipse transform="matrix(1.1557 .77322 -1.3252 2.2065 751.11 -543.82)" cx="145.62" cy="355.49" rx="6.25" ry="9.688" fill="#665123"/>
  <path d="m437.92 373.24-2.252-1.692c-2.59-1.946-89.455 226.06-102.86 266.91 13.32-43.073 91.705-247.25 105.11-265.22z" fill="#665123" stroke="#665123" stroke-width="1.739"/>
  <path d="m486.65 450.08c30.497-23.976 43.938-43.489 74.133-49.436-5.216-74.969 52.404-165.5 99.243-250.15l-8.435-15.22c-19.375 29.345-134.52 240.2-164.94 314.8z" fill="url(#e)"/>
 </g>
</svg>
