<svg xmlns="http://www.w3.org/2000/svg" width="64" height="64"><defs><linearGradient id="d" x1="273.64" x2="411.62" y1="74.198" y2="425.92" gradientTransform="scale(.71656 1.3956)" gradientUnits="userSpaceOnUse"><stop offset="0" stop-color="#b9e5ff" stop-opacity=".42"/><stop offset="1" stop-color="#fff"/></linearGradient><linearGradient id="e" x1="596.06" x2="656.46" y1="231.01" y2="279.76" gradientTransform="scale(.80329 1.2449)" gradientUnits="userSpaceOnUse"><stop offset="0" stop-color="#fff2bc"/><stop offset="1" stop-color="#83560b"/></linearGradient><linearGradient id="f" x1="779.72" x2="908.45" y1="160.63" y2="264.66" gradientTransform="scale(.74212 1.3475)" gradientUnits="userSpaceOnUse"><stop offset="0" stop-color="#fff9db" stop-opacity=".732"/><stop offset="1" stop-color="#2c2c2c"/></linearGradient><linearGradient id="b" x1="33.333" x2="33.333" y1="4.885" y2="56.55" gradientTransform="translate(-2.286 -2.252)scale(1.0714)" gradientUnits="userSpaceOnUse"><stop offset="0" stop-color="#66b8ff"/><stop offset="1" stop-color="#00507a"/></linearGradient><filter id="c" width="1.273" height="1.179" x="-.136" y="-.089" color-interpolation-filters="sRGB"><feGaussianBlur stdDeviation="1.575"/></filter><filter id="a" width="1.078" height="1.078" x="-.039" y="-.039" color-interpolation-filters="sRGB"><feGaussianBlur stdDeviation=".972"/></filter></defs><rect width="60" height="60" x="2" y="2" filter="url(#a)" opacity=".35" rx="30" ry="30"/><rect width="64" height="64" fill="none" rx="0" ry="0" style="paint-order:stroke fill markers"/><rect width="60" height="60" x="2" y="2" fill="url(#b)" rx="30" ry="30"/><path fill="#060000" fill-rule="evenodd" d="M47.359 9.847a7.06 4.061 36.353 0 0-1.568.719 7.06 4.061 36.353 0 0 .004 4.38c-2.668 5.535-7.163 12.464-7.852 13.792-2.092 2.898-6.522 17.202-8.293 23.325l.573.029c-.168-.157 8.257-12.648 18.555-14.344.023-9.764 3.255-14.957 5.196-17.447a7.06 4.061 36.353 0 0 2.576-.684 7.06 4.061 36.353 0 0-2.35-7.306 7.06 4.061 36.353 0 0-6.84-2.464z" filter="url(#c)" opacity=".3"/><g fill-rule="evenodd" transform="translate(5.374 3.233)scale(.07362)"><ellipse cx="765.44" cy="228.58" fill="#060000" stroke="#000" stroke-width="1pt" rx="134.35" ry="81.317" transform="matrix(.54666 .45993 -.50891 .46677 319.96 -324.01)"/><path fill="url(#d)" d="M298.39-11.893C156.75 10.012 39.66 104.337-14.1 232.317c3.002 19.604 8.556 41.64 19.765 70.941 72.896 171.9 309.47 333.49 308.36 329.85 0 0-86.224-136.49-19.287-274.4 52.771-109.97 46.006-297.1 3.661-370.59z" opacity=".75"/><path fill="url(#e)" stroke="#323232" stroke-width="5.635" d="M336.09 639.87c-2.29-2.14 112.72-172.67 253.31-195.82.432-183.82 84.951-251.44 90.301-262.95-11.296-61.067-44.463-84.131-74.398-88.989-50.737-6.466-41.215 16.297-47.448 22.358-34.333 77.532-106.23 186.98-116.38 206.55-28.556 39.57-89.028 234.86-113.22 318.46z"/><ellipse cx="145.62" cy="355.49" fill="#665123" rx="6.25" ry="9.688" transform="matrix(1.1557 .77322 -1.3252 2.2065 751.11 -543.82)"/><path fill="#665123" stroke="#665123" stroke-width="1.739" d="m437.92 373.24-2.252-1.692c-2.59-1.946-89.455 226.06-102.86 266.91 13.32-43.073 91.705-247.25 105.11-265.22z"/><path fill="url(#f)" d="M486.65 450.08c30.497-23.976 43.938-43.489 74.133-49.436-5.216-74.969 52.404-165.5 99.243-250.15l-8.435-15.22c-19.375 29.345-134.52 240.2-164.94 314.8z"/></g></svg>