<svg id="Iterm" width="64" height="64" enable-background="new 0 0 1024 1024" image-rendering="optimizeSpeed" version="1.1" viewBox="0 0 64 64" xmlns="http://www.w3.org/2000/svg" xmlns:xlink="http://www.w3.org/1999/xlink">
 <defs>
  <linearGradient id="b" x1="-506.45" x2="-506.45" y1="-19.101" y2="1013.6" gradientTransform="matrix(.058824 0 0 .058824 61.791 3.1236)" gradientUnits="userSpaceOnUse">
   <stop stop-color="#333" offset="0"/>
   <stop stop-color="#333" offset=".50769"/>
   <stop stop-color="#4a4a4a" offset="1"/>
  </linearGradient>
  <filter id="d" x="-.036" y="-.036" width="1.072" height="1.072" color-interpolation-filters="sRGB">
   <feGaussianBlur stdDeviation="0.90000006"/>
  </filter>
  <filter id="f" x="-.046154" y="-.085714" width="1.0923" height="1.1714" color-interpolation-filters="sRGB">
   <feGaussianBlur stdDeviation="0.5"/>
  </filter>
  <linearGradient id="a" x1="79.458" x2="79.458" y1="44.712" y2="56.712" gradientTransform="matrix(2 0 0 2 -111.73 -51.695)" gradientUnits="userSpaceOnUse">
   <stop stop-color="#df3de3" offset="0"/>
   <stop stop-color="#7b4bea" offset="1"/>
  </linearGradient>
  <filter id="e" x="-.06" y="-.06" width="1.12" height="1.12" color-interpolation-filters="sRGB">
   <feGaussianBlur stdDeviation="0.3"/>
  </filter>
  <filter id="c" x="-.060005" y="-.059995" width="1.12" height="1.12" color-interpolation-filters="sRGB">
   <feGaussianBlur stdDeviation="0.30002442"/>
  </filter>
 </defs>
 <mask>
  <g id="g">
   <path d="m969.75 392.05c-1.1-4.35-2.35-9-3.65-13.6-1-3.4-2-6.85-3.15-10.5-1.6-5.15-3.4-10.5-5.3-15.85-6.45-18.25-14.15-36.05-23.15-53.65-3.8-7.4-7.95-14.95-12.3-22.4-20.3-34.5-45.8-67.2-76.35-97.75-72.6-72.6-157.15-116.65-253.65-132.05-16.25-2.6-32.8-4.4-50.05-5.35-9.7-0.55-19.85-0.85-30.1-0.85-9.35 0-18.6 0.25-27.9 0.75-118.35 6.1-220.3 51.95-305.85 137.5q-138.25 138.25-138.25 333.75c0 130.35 46.1 241.65 138.25 333.8 56.7 56.65 120.55 95.9 191.1 117.55 36.75 11.25 74.8 17.85 114.75 19.95h0.4c8.5 0.45 16.6 0.7 24.5 0.7h3c10.3 0 20.5-0.3 30.1-0.8 2.5-0.15 4.75-0.3 6.95-0.45 20.2-1.45 39.9-4.05 58.7-7.7 7.95-1.55 15.8-3.3 23.4-5.15 80.8-20.3 152.15-61.6 214.65-124.1 48.6-48.6 84.4-102.5 107.35-161.8 18.45-47.65 28.65-98.8 30.55-153.5 0.2-6.05 0.3-12.25 0.3-18.5v-3c-0.2-40.65-4.95-79.5-14.3-117z" fill="#fff"/>
  </g>
 </mask>
 <circle cx="32" cy="32" r="30" fill-rule="evenodd" filter="url(#d)" opacity=".25" style="paint-order:fill markers stroke"/>
 <circle cx="32" cy="32" r="30" fill="url(#b)" fill-rule="evenodd" style="paint-order:fill markers stroke"/>
 <g transform="matrix(2 0 0 2 -111.73 -51.695)" filter="url(#e)" opacity=".35">
  <circle cx="79.458" cy="50.712" r="6"/>
  <path d="m76.457 47.711v0.5c0 0.275 0.227 0.5 0.5 0.5 2.485 0 4.5 2.015 4.5 4.5 0 0.275 0.227 0.5 0.5 0.5h0.5v-0.5c0-3.0376-2.4624-5.5-5.5-5.5zm0 2v0.5c0 0.275 0.227 0.5 0.5 0.5 1.381 0 2.5 1.119 2.5 2.5 0 0.275 0.227 0.5 0.5 0.5h0.5v-0.5c0-1.933-1.567-3.5-3.5-3.5z"/>
  <path d="m77.458 51.712c0.5523 0 1 0.44772 1 1s-0.44772 1-1 1-1-0.44772-1-1 0.44772-1 1-1z"/>
 </g>
 <g stroke-width="2">
  <circle cx="47.186" cy="49.729" r="12" fill="url(#a)"/>
  <path d="m41.186 43.727v1c0 0.55 0.454 1 1 1 4.97 0 9 4.03 9 9 0 0.55 0.454 1 1 1h1v-1c0-6.0752-4.9248-11-11-11h-1zm0 4v1c0 0.55 0.454 1 1 1 2.762 0 5 2.238 5 5 0 0.55 0.454 1 1 1h1v-1c0-3.866-3.134-7-7-7h-1zm2 4.002c-1.1046 0-2 0.89544-2 2s0.89544 2 2 2 2-0.89544 2-2-0.8954-2-2-2z" filter="url(#c)" opacity=".15"/>
  <path d="m41.186 43.727v1c0 0.55 0.454 1 1 1 4.97 0 9 4.03 9 9 0 0.55 0.454 1 1 1h1v-1c0-6.0752-4.9248-11-11-11h-1zm0 4v1c0 0.55 0.454 1 1 1 2.762 0 5 2.238 5 5 0 0.55 0.454 1 1 1h1v-1c0-3.866-3.134-7-7-7h-1zm2 4.002c-1.1046 0-2 0.89544-2 2s0.89544 2 2 2 2-0.89544 2-2-0.8954-2-2-2z" fill="#fff"/>
  <path d="m18 21v2h-1c-1.662 0-3 1.338-3 3s1.338 3 3 3h1v2h-3.8164c0.412 1.164 1.508 2 2.8164 2h1v2h2v-2h1c1.662 0 3-1.338 3-3s-1.338-3-3-3h-1v-2h3.8164c-0.412-1.164-1.508-2-2.816-2h-1v-2h-2zm-1 4h1v2h-1c-0.554 0-1-0.446-1-1s0.446-1 1-1zm3 4h1c0.554 0 1 0.446 1 1s-0.4466 1.026-1 1h-1zm8 4v2h12v-2z" filter="url(#f)" opacity=".5"/>
  <path d="m18 21v2h-1c-1.662 0-3 1.338-3 3s1.338 3 3 3h1v2h-3.8164c0.412 1.164 1.508 2 2.8164 2h1v2h2v-2h1c1.662 0 3-1.338 3-3s-1.338-3-3-3h-1v-2h3.8164c-0.412-1.164-1.508-2-2.816-2h-1v-2h-2zm-1 4h1v2h-1c-0.554 0-1-0.446-1-1s0.446-1 1-1zm3 4h1c0.554 0 1 0.446 1 1s-0.4466 1.026-1 1h-1zm8 4v2h12v-2z" fill="#fff"/>
 </g>
</svg>
