<svg xmlns="http://www.w3.org/2000/svg" width="64" height="64" viewBox="0 0 16.933 16.933"><defs><linearGradient id="b" x1="8.466" x2="8.466" y1="284.41" y2="295.41" gradientTransform="translate(-4.921 -1226.3)scale(4.3611)" gradientUnits="userSpaceOnUse"><stop offset="0" stop-color="#35cafc"/><stop offset=".5" stop-color="#50d4ff"/><stop offset="1" stop-color="#4dcbf6"/></linearGradient><linearGradient id="a" x1="8.467" x2="8.467" y1="282.18" y2="294.88" gradientTransform="translate(.21 7.221)scale(.97498)" gradientUnits="userSpaceOnUse"><stop offset="0" stop-color="#78d9fd"/><stop offset="1" stop-color="#7bdeff"/></linearGradient><linearGradient id="c" x1="8.466" x2="8.466" y1="294.95" y2="295.41" gradientTransform="translate(-4.921 -1226.3)scale(4.3611)" gradientUnits="userSpaceOnUse"><stop offset="0" stop-color="#3bc1f1"/><stop offset="1" stop-color="#0e95c5"/></linearGradient><linearGradient id="e" x1="8.819" x2="8.819" y1="9.876" y2="16.755" gradientTransform="translate(4.41 -.087)" gradientUnits="userSpaceOnUse"><stop offset="0" stop-color="#9f9f9f"/><stop offset="1" stop-color="#545454"/></linearGradient><filter id="d" width="1.12" height="1.12" x="-.06" y="-.06" color-interpolation-filters="sRGB"><feGaussianBlur stdDeviation=".65"/></filter><filter id="f" width="1.124" height="1.116" x="-.062" y="-.058" color-interpolation-filters="sRGB"><feGaussianBlur stdDeviation=".362"/></filter></defs><g style="paint-order:stroke markers fill" transform="translate(-1.302 -324.46)scale(1.1539)"><circle cx="8.466" cy="288.53" r="6.191" fill="url(#a)"/><g stroke-width="3.276"><path fill="url(#b)" d="M32 14c-1.278 0-1.661.738-2.307 1.846L28.35 18H9c-1.291 0-1.959-.036-2.489.05-1.059.174-1.507.958-1.957 1.95l-.242.533A30 30 0 0 0 2 31.996a30 30 0 0 0 17.086 27.047q.692.342 1.4.647h.045A30 30 0 0 0 32.001 62a30.005 30.005 0 0 0 28.822-21.708l.027-.079v-.005q.31-1.127.531-2.276.081-.349.153-.7.164-.993.261-1.995.067-.495.118-.994.085-1.122.087-2.246a30 30 0 0 0-5.636-17.447 1.7 1.7 0 0 0-.485-.383 1.6 1.6 0 0 0-.726-.166z" transform="translate(1.128 281.2)scale(.2293)"/><path fill="url(#c)" d="M21.332 60A30 30 0 0 0 32 62a29.9 29.9 0 0 0 10.736-2z" transform="translate(1.128 281.2)scale(.2293)"/><path fill="#3bc1f1" d="M4.35 294.04q.16.12.329.23h7.583q.164-.11.322-.23zm.702.46q.211.12.434.229h5.976q.22-.108.433-.23H5.05z"/></g></g><circle cx="14.56" cy="14.56" r="13" filter="url(#d)" opacity=".25" style="paint-order:stroke markers fill" transform="translate(9.377 9.377)scale(.26458)"/><path d="M6.35 6.35v1.058a4.233 4.233 0 0 1 4.233 4.233h1.058A5.29 5.29 0 0 0 6.35 6.35m0 2.117v1.058c1.169 0 2.117.948 2.117 2.116h1.058A3.175 3.175 0 0 0 6.35 8.467m0 2.116a1.058 1.058 0 1 0 0 2.117 1.058 1.058 0 0 0 0-2.117" opacity=".15"/><circle cx="13.229" cy="13.229" r="3.439" fill="url(#e)" style="paint-order:stroke fill markers"/><g transform="translate(5.82 6.482)scale(.26458)"><path d="M50 42.5a5 5 0 0 0-5 5h-.832c-.647 0-1.168.521-1.168 1.168v7.666c0 .647.521 1.166 1.168 1.166h11.666c.646 0 1.166-.52 1.166-1.166v-7.666c0-.647-.52-1.168-1.166-1.168H55a5 5 0 0 0-5-5m0 1a3.5 3.5 0 0 1 3.5 3.5 3.5 3.5 0 0 1-.041.5h-6.92a3.5 3.5 0 0 1-.039-.5 3.5 3.5 0 0 1 3.5-3.5" filter="url(#f)" opacity=".15" transform="translate(-22 -24.5)"/><path fill="#e6e6e6" d="M28 18a5 5 0 0 0-5 5h-.832c-.647 0-1.168.521-1.168 1.168v7.666c0 .647.521 1.166 1.168 1.166h11.666C34.48 33 35 32.48 35 31.834v-7.666c0-.647-.52-1.168-1.166-1.168H33a5 5 0 0 0-5-5m0 1a3.5 3.5 0 0 1 3.5 3.5 3.5 3.5 0 0 1-.041.5h-6.92a3.5 3.5 0 0 1-.039-.5A3.5 3.5 0 0 1 28 19"/><circle cx="28" cy="28" r="4" fill="gray"/><path fill="#333" d="M27 28h2v3h-2z"/><circle cx="28" cy="27" r="2" fill="#333"/></g></svg>