<svg xmlns="http://www.w3.org/2000/svg" width="64" height="64" enable-background="new 0 0 1024 1024" image-rendering="optimizeSpeed"><defs><filter id="a" width="1.072" height="1.072" x="-.036" y="-.036" color-interpolation-filters="sRGB"><feGaussianBlur stdDeviation=".9"/></filter><filter id="f" width="1.092" height="1.171" x="-.046" y="-.086" color-interpolation-filters="sRGB"><feGaussianBlur stdDeviation=".5"/></filter><filter id="c" width="1.12" height="1.12" x="-.06" y="-.06" color-interpolation-filters="sRGB"><feGaussianBlur stdDeviation=".3"/></filter><filter id="e" width="1.12" height="1.12" x="-.06" y="-.06" color-interpolation-filters="sRGB"><feGaussianBlur stdDeviation=".3"/></filter><linearGradient id="b" x1="-506.45" x2="-506.45" y1="-19.101" y2="1013.6" gradientTransform="translate(61.791 3.124)scale(.05882)" gradientUnits="userSpaceOnUse"><stop offset="0" stop-color="#333"/><stop offset=".508" stop-color="#333"/><stop offset="1" stop-color="#4a4a4a"/></linearGradient><linearGradient id="d" x1="79.458" x2="79.458" y1="44.712" y2="56.712" gradientTransform="matrix(2 0 0 2 -111.73 -51.695)" gradientUnits="userSpaceOnUse"><stop offset="0" stop-color="#df3de3"/><stop offset="1" stop-color="#7b4bea"/></linearGradient></defs><circle cx="32" cy="32" r="30" fill-rule="evenodd" filter="url(#a)" opacity=".25" style="paint-order:fill markers stroke"/><circle cx="32" cy="32" r="30" fill="url(#b)" fill-rule="evenodd" style="paint-order:fill markers stroke"/><g filter="url(#c)" opacity=".35" transform="matrix(2 0 0 2 -111.73 -51.695)"><circle cx="79.458" cy="50.712" r="6"/><path d="M76.457 47.711v.5c0 .275.227.5.5.5a4.5 4.5 0 0 1 4.5 4.5c0 .275.227.5.5.5h.5v-.5a5.5 5.5 0 0 0-5.5-5.5zm0 2v.5c0 .275.227.5.5.5a2.5 2.5 0 0 1 2.5 2.5c0 .275.227.5.5.5h.5v-.5a3.5 3.5 0 0 0-3.5-3.5z"/><path d="M77.458 51.712a1 1 0 1 1 0 2 1 1 0 0 1 0-2"/></g><g stroke-width="2"><circle cx="47.186" cy="49.729" r="12" fill="url(#d)"/><path d="M41.186 43.727v1c0 .55.454 1 1 1a9 9 0 0 1 9 9c0 .55.454 1 1 1h1v-1c0-6.075-4.925-11-11-11zm0 4v1c0 .55.454 1 1 1a5 5 0 0 1 5 5c0 .55.454 1 1 1h1v-1a7 7 0 0 0-7-7zm2 4.002a2 2 0 1 0 0 4 2 2 0 0 0 0-4" filter="url(#e)" opacity=".15"/><path fill="#fff" d="M41.186 43.727v1c0 .55.454 1 1 1a9 9 0 0 1 9 9c0 .55.454 1 1 1h1v-1c0-6.075-4.925-11-11-11zm0 4v1c0 .55.454 1 1 1a5 5 0 0 1 5 5c0 .55.454 1 1 1h1v-1a7 7 0 0 0-7-7zm2 4.002a2 2 0 1 0 0 4 2 2 0 0 0 0-4"/><path d="M18 21v2h-1c-1.662 0-3 1.338-3 3s1.338 3 3 3h1v2h-3.816A2.98 2.98 0 0 0 17 33h1v2h2v-2h1c1.662 0 3-1.338 3-3s-1.338-3-3-3h-1v-2h3.816A2.98 2.98 0 0 0 21 23h-1v-2zm-1 4h1v2h-1c-.554 0-1-.446-1-1s.446-1 1-1m3 4h1c.554 0 1 .446 1 1s-.447 1.026-1 1h-1zm8 4v2h12v-2z" filter="url(#f)" opacity=".5"/><path fill="#fff" d="M18 21v2h-1c-1.662 0-3 1.338-3 3s1.338 3 3 3h1v2h-3.816A2.98 2.98 0 0 0 17 33h1v2h2v-2h1c1.662 0 3-1.338 3-3s-1.338-3-3-3h-1v-2h3.816A2.98 2.98 0 0 0 21 23h-1v-2zm-1 4h1v2h-1c-.554 0-1-.446-1-1s.446-1 1-1m3 4h1c.554 0 1 .446 1 1s-.447 1.026-1 1h-1zm8 4v2h12v-2z"/></g></svg>