<svg xmlns="http://www.w3.org/2000/svg" width="64" height="64" fill="none" style="-webkit-print-color-adjust:exact"><defs><linearGradient id="b" x1="7.937" x2="7.937" y1="15.081" y2="1.852" gradientTransform="translate(-2.286 -2.252)scale(4.0494)" gradientUnits="userSpaceOnUse"><stop offset="0" stop-color="#363636"/><stop offset="1" stop-color="#6c6c6c"/></linearGradient><filter id="a" width="1.054" height="1.054" x="-.027" y="-.027" color-interpolation-filters="sRGB"><feGaussianBlur stdDeviation=".675"/></filter></defs><rect width="60" height="60" x="2" y="3" fill="#000" filter="url(#a)" opacity=".15" rx="30" ry="30"/><rect width="60" height="60" x="2" y="2" fill="url(#b)" rx="30" ry="30"/><g fill="#000" class="fills"><path fill="#00f782" d="m42.869 32.698-7.048-3.929h4.777c4.154 0 7.534-3.398 7.534-7.577 0-4.178-3.38-7.578-7.534-7.578H23.92c-5.204 0-9.438 4.259-9.438 9.494 0 3.732 2.016 7.176 5.263 8.985l7.048 3.928h-4.778c-4.153 0-7.533 3.399-7.533 7.577 0 4.179 3.38 7.579 7.533 7.579h16.679c5.204 0 9.438-4.259 9.438-9.494a10.29 10.29 0 0 0-5.263-8.985m-21.994-2.66a7.94 7.94 0 0 1-4.057-6.745c-.094-4.031 3.271-7.331 7.28-7.331h16.349c2.796 0 5.205 2.157 5.343 4.966.148 3.002-2.238 5.493-5.192 5.493l-9.416.001c-.576 0-1.04.47-1.042 1.048l-.002 7.732zm17.64 18.79h-16.35c-2.795 0-5.205-2.157-5.342-4.966-.148-3.002 2.238-5.493 5.191-5.493h9.417c.576 0 1.042-.47 1.042-1.049v-7.732l9.264 5.163a7.93 7.93 0 0 1 4.057 6.745c.095 4.031-3.271 7.332-7.279 7.332" class="st0"/></g></svg>