<svg xmlns="http://www.w3.org/2000/svg" width="64" height="64"><defs><filter id="d" width="1.072" height="1.072" x="-.036" y="-.036" color-interpolation-filters="sRGB"><feGaussianBlur stdDeviation="12.591"/></filter><filter id="a" width="1.072" height="1.072" x="-.036" y="-.036" color-interpolation-filters="sRGB"><feGaussianBlur stdDeviation="14.05"/></filter><filter id="c" width="1.12" height="1.12" x="-.06" y="-.06" color-interpolation-filters="sRGB"><feGaussianBlur stdDeviation=".921"/></filter><linearGradient id="e" x1="-156.75" x2="-156.75" y1="50.381" y2="118.4" gradientTransform="translate(139.92 -25.911) scale(.68747)" gradientUnits="userSpaceOnUse"><stop offset="0" stop-color="#f8f4fc"/><stop offset="1" stop-color="#d6d6d6"/></linearGradient><linearGradient id="b" x1="520" x2="520" y1="4" y2="1024" gradientTransform="translate(-.546 -.544) scale(.06356)" gradientUnits="userSpaceOnUse"><stop offset="0" stop-color="#d7d7d7"/><stop offset="1" stop-color="#fff"/></linearGradient></defs><path d="M926.54 319.65a440.944 440.944 0 0 0-7.59-13.494c-20.142-34.231-45.443-66.676-75.755-96.988-72.034-72.034-155.92-115.74-251.67-131.02a479.915 479.915 0 0 0-49.66-5.308A530.492 530.492 0 0 0 512 71.996c-9.277 0-18.455.248-27.682.744-117.43 6.053-218.58 51.545-303.47 136.43-20.34 20.34-38.448 41.623-54.273 63.898-15.23 21.382-28.327 43.657-39.291 66.676l-.025-.024Q43.676 431 43.676 540.32c0 129.33 45.74 239.77 137.17 331.2 56.258 56.208 119.61 95.152 189.61 116.63 36.463 11.162 74.217 17.71 113.86 19.795h.397c8.433.446 16.47.694 24.309.694h2.976c10.22 0 20.34-.298 29.865-.794 2.48-.149 4.713-.297 6.896-.446 20.042-1.439 39.59-4.019 58.242-7.64a515.86 515.86 0 0 0 23.218-5.11c80.17-20.142 150.96-61.12 212.98-123.13 48.221-48.22 83.742-101.7 106.51-160.54 18.306-47.278 28.427-98.03 30.312-152.3.199-6.003.298-12.154.298-18.356v-2.977c-.199-40.333-4.911-78.88-14.188-116.09a510.232 510.232 0 0 0-3.622-13.494c-.992-3.373-1.984-6.796-3.125-10.418a417.75 417.75 0 0 0-5.259-15.726c-5.01-14.139-10.765-28.03-17.314-41.82-1.835-3.77-3.72-7.59-5.655-11.41a314.195 314.195 0 0 0-4.614-8.732z" filter="url(#a)" opacity=".25" transform="translate(-.798 -2.61) scale(.06406)"/><path fill="url(#b)" d="M58.555 17.866a31.31 31.31 0 0 0-.486-.864c-1.29-2.193-2.911-4.272-4.853-6.213-4.614-4.615-9.988-7.415-16.122-8.393a30.741 30.741 0 0 0-3.181-.34 33.981 33.981 0 0 0-3.687-.007c-7.522.388-14.002 3.302-19.44 8.74a32.03 32.03 0 0 0-3.476 4.093 28.427 28.427 0 0 0-2.517 4.271l-.002-.001Q2 24.999 2 32.002c0 8.284 2.93 15.359 8.787 21.216 3.604 3.6 7.662 6.095 12.146 7.47a30.162 30.162 0 0 0 7.294 1.269h.026c.54.028 1.055.044 1.557.044H32c.655 0 1.303-.019 1.913-.05l.442-.03a31.441 31.441 0 0 0 3.731-.489c.505-.098 1.004-.21 1.487-.327 5.136-1.29 9.67-3.915 13.643-7.888 3.09-3.089 5.365-6.514 6.823-10.284 1.173-3.028 1.821-6.28 1.942-9.756.013-.384.02-.778.02-1.176v-.19a31.211 31.211 0 0 0-.91-7.437 31.73 31.73 0 0 0-.232-.864c-.063-.216-.127-.436-.2-.668a28.163 28.163 0 0 0-1.808-4.417 20.11 20.11 0 0 0-.296-.56z"/><g filter="url(#c)" opacity=".15" transform="matrix(1.1394 0 0 1.1401 -4.662 -4.603)"><path d="M218.87 647s-.764 2.294 189.63.382l82.7-85.563-7.919-39.386-143.1 2.076z" filter="url(#d)" transform="translate(8.972 9.532) scale(.0439)"/><g stroke-width=".685"><path d="M45.775 26.911s.47-.697-7.888-.613l-4.347 4.548.012 1.184h8.128z"/><path d="M38.156 18.816s-1.012-.178-6.863 5.791l.91 5.496 1.39.793 5.281-5.613zm-19.433 7.502s-.68-.023 5.289 5.827c1.811-.099 3.174-.113 6.178-.277l.172-1.292-4.01-4.23z"/><path d="M26.834 18.519s-.718-.366-.634 7.992l4.083 4.63 2.012-1.04-.13-7.4zM45.6 38s-.528-.67-5.295-6.027l-6.75.002.019 1.216 4.522 4.867z"/><path d="M37.521 45.689s.177-.407.61-7.823l-4.49-4.8-1.346.923.107 7.605zM18.58 37.297s-.034.1 8.325.017l3.63-3.756-.347-1.73-6.282.092z"/><path d="M26.766 45.485s.564-.148 5.747-5.024l.406-6.447-2.154-.7-5.168 5.332z"/><circle cx="31.93" cy="32.008" r="2.084" color="#000"/></g><ellipse cx="25.854" cy="32.985" color="#000" rx="2.814" ry=".988" transform="rotate(-2.108)"/><ellipse cx="36.817" cy="32.065" color="#000" rx="2.814" ry=".988"/><ellipse cx="26.734" cy="-32.754" color="#000" rx="2.609" ry=".988" transform="rotate(91.152)"/><ellipse cx="36.728" cy="-32.701" color="#000" rx="3.012" ry=".988" transform="rotate(90.557)"/><ellipse cx="40.358" cy="-1.322" color="#000" rx="2.862" ry="1.005" transform="matrix(.68033 .7329 -.68033 .7329 0 0)"/><path d="M37.445 45.635s4.66 2.826 7.934-.45c3.276-3.275.261-7.191.261-7.191l-7.979-.258z"/><ellipse cx="50.311" cy="-1.903" color="#000" rx="3.159" ry="1.109" transform="matrix(.68205 .73131 -.75557 .65506 0 0)"/><ellipse cx="-5.487" cy="-45.501" color="#000" rx="2.997" ry="1.052" transform="scale(-.9898 -1.01009) rotate(-45)"/><ellipse cx="4.686" cy="-45.454" color="#000" rx="2.591" ry=".91" transform="rotate(135)"/><g stroke-width=".685"><path d="M26.679 45.488s.973 5.035 5.606 5.035c4.632 0 5.27-4.9 5.27-4.9l-5.169-5.17zm18.852-7.499s5.078-1.21 5.078-5.842-4.9-5.27-4.9-5.27l-5.986 5.105z"/><path d="M45.718 26.878s2.83-4.55-.446-7.825c-3.276-3.276-7.378-.165-7.378-.165l-.012 7.423z"/><path d="M37.896 18.887s-1.194-5.202-5.826-5.202c-4.633 0-5.27 4.9-5.27 4.9l5.387 6.21z"/><path d="M26.809 18.518s-4.558-2.772-7.833.504c-3.276 3.275-.202 7.5-.202 7.5l7.63-.107z"/><path d="M18.857 26.444s-5.11.984-5.11 5.617 4.9 5.27 4.9 5.27l5.52-5.26z"/><path d="M18.635 37.281s-2.826 4.598.45 7.874c3.275 3.275 7.662.352 7.662.352l.182-8.207z"/></g></g><g transform="matrix(1.1394 0 0 1.1401 -4.662 -4.603)"><path fill="#151515" d="M218.87 647s-.764 2.294 189.63.382l82.7-85.563-7.919-39.386-143.1 2.076z" filter="url(#d)" transform="translate(8.972 9.532) scale(.0439)"/><g stroke-width=".685"><path fill="#82ba3c" d="M45.775 26.911s.47-.697-7.888-.613l-4.347 4.548.012 1.184h8.128z"/><path fill="#d8ab2d" d="M38.156 18.816s-1.012-.178-6.863 5.791l.91 5.496 1.39.793 5.281-5.613z"/><path fill="#dd2735" d="M18.723 26.318s-.68-.023 5.289 5.827c1.811-.099 3.174-.113 6.178-.277l.172-1.292-4.01-4.23z"/><path fill="#e75427" d="M26.834 18.519s-.718-.366-.634 7.992l4.083 4.63 2.012-1.04-.13-7.4z"/><path fill="#3a9b6b" d="M45.6 38s-.528-.67-5.295-6.027l-6.75.002.019 1.216 4.522 4.867z"/><path fill="#2a729d" d="M37.521 45.689s.177-.407.61-7.823l-4.49-4.8-1.346.923.107 7.605z"/><path fill="#b32f58" d="M18.58 37.297s-.034.1 8.325.017l3.63-3.756-.347-1.73-6.282.092z"/><path fill="#5d569b" d="M26.766 45.485s.564-.148 5.747-5.024l.406-6.447-2.154-.7-5.168 5.332z"/><circle cx="31.93" cy="32.008" r="2.084" fill="url(#e)" color="#000"/></g><ellipse cx="25.854" cy="32.985" fill="#7c061b" color="#000" rx="2.814" ry=".988" transform="rotate(-2.108)"/><ellipse cx="36.817" cy="32.065" fill="#275f18" color="#000" rx="2.814" ry=".988"/><ellipse cx="26.734" cy="-32.754" fill="#ae3e09" color="#000" rx="2.609" ry=".988" transform="rotate(91.152)"/><ellipse cx="36.728" cy="-32.701" fill="#151b4a" color="#000" rx="3.012" ry=".988" transform="rotate(90.557)"/><ellipse cx="40.358" cy="-1.322" fill="#950a0d" color="#000" rx="2.862" ry="1.005" transform="matrix(.68033 .7329 -.68033 .7329 0 0)"/><path fill="#50bac0" d="M37.445 45.635s4.66 2.826 7.934-.45c3.276-3.275.261-7.191.261-7.191l-7.979-.258z"/><ellipse cx="50.311" cy="-1.903" fill="#093129" color="#000" rx="3.159" ry="1.109" transform="matrix(.68205 .73131 -.75557 .65506 0 0)"/><ellipse cx="-5.487" cy="-45.501" fill="#526718" color="#000" rx="2.997" ry="1.052" transform="scale(-.9898 -1.01009) rotate(-45)"/><ellipse cx="4.686" cy="-45.454" fill="#3d0c34" color="#000" rx="2.591" ry=".91" transform="rotate(135)"/><g stroke-width=".685"><path fill="#60a8d8" d="M26.679 45.488s.973 5.035 5.606 5.035c4.632 0 5.27-4.9 5.27-4.9l-5.169-5.17z"/><path fill="#abd17f" d="M45.531 37.989s5.078-1.21 5.078-5.842-4.9-5.27-4.9-5.27l-5.986 5.105z"/><path fill="#c1dc7b" d="M45.718 26.878s2.83-4.55-.446-7.825c-3.276-3.276-7.378-.165-7.378-.165l-.012 7.423z"/><path fill="#f9a740" d="M37.896 18.887s-1.194-5.202-5.826-5.202c-4.633 0-5.27 4.9-5.27 4.9l5.387 6.21z"/><path fill="#ec7a84" d="M26.809 18.518s-4.558-2.772-7.833.504c-3.276 3.275-.202 7.5-.202 7.5l7.63-.107z"/><path fill="#ef5f8a" d="M18.857 26.444s-5.11.984-5.11 5.617 4.9 5.27 4.9 5.27l5.52-5.26z"/><path fill="#ae81b7" d="M18.635 37.281s-2.826 4.598.45 7.874c3.275 3.275 7.662.352 7.662.352l.182-8.207z"/></g></g></svg>