<?xml version="1.0" encoding="UTF-8"?>
<svg width="64" height="64" version="1.1" viewBox="0 0 16.933 16.933" xmlns="http://www.w3.org/2000/svg" xmlns:cc="http://creativecommons.org/ns#" xmlns:dc="http://purl.org/dc/elements/1.1/" xmlns:rdf="http://www.w3.org/1999/02/22-rdf-syntax-ns#">
 <metadata>
  <rdf:RDF>
   <cc:Work rdf:about="">
    <dc:format>image/svg+xml</dc:format>
    <dc:type rdf:resource="http://purl.org/dc/dcmitype/StillImage"/>
    <dc:title/>
   </cc:Work>
  </rdf:RDF>
 </metadata>
 <defs>
  <filter id="f" x="-.036" y="-.036" width="1.072" height="1.072" color-interpolation-filters="sRGB">
   <feGaussianBlur stdDeviation="14.1435"/>
  </filter>
  <linearGradient id="d" x1="520.32" x2="520.32" y1="1.8233" y2="1023.9" gradientUnits="userSpaceOnUse">
   <stop stop-color="#46a926" offset="0"/>
   <stop stop-color="#ffda64" offset="1"/>
  </linearGradient>
  <linearGradient id="a" x1="500.28" x2="500.28" y1="-18.217" y2="1023.9" gradientUnits="userSpaceOnUse">
   <stop stop-color="#a6d74f" offset="0"/>
   <stop stop-color="#46a926" offset="1"/>
  </linearGradient>
  <linearGradient id="linearGradient909" x1="500.28" x2="500.28" y1="-18.217" y2="1023.9" gradientUnits="userSpaceOnUse">
   <stop stop-color="#56bed1" offset="0"/>
   <stop stop-color="#3fdf9a" offset="1"/>
  </linearGradient>
  <filter id="filter914" x="-.060007" y="-.059993" width="1.12" height="1.12" color-interpolation-filters="sRGB">
   <feGaussianBlur stdDeviation="0.20501669"/>
  </filter>
 </defs>
 <path transform="matrix(.016836 0 0 .016836 -.15028 -.14261)" d="m983.25 511.35c0-7.95-0.2-15.85-0.5-23.55q-8-180.15-137.55-309.85c-92.05-92-203.2-138.05-333.4-138.05-130.15 0-241.35 46.05-333.35 138.05-92.05 92-138.1 203.2-138.1 333.4 0 130.15 46.05 241.35 138.1 333.35 86.15 86.3 189.35 132.15 309.15 137.6 8 0.3 16 0.5 24.2 0.5 130.2 0 241.35-46.1 333.4-138.1 92-92 138.05-203.2 138.05-333.35z" filter="url(#f)" opacity=".5" stroke-width="15.683"/>
 <g transform="matrix(.016836 0 0 .016836 -.15028 -.14261)" fill="url(#d)" stroke-width="15.683">
  <g fill="url(#a)" stroke-width="15.683">
   <path d="m983.25 511.35c0-7.95-0.2-15.85-0.5-23.55q-8-180.15-137.55-309.85c-92.05-92-203.2-138.05-333.4-138.05-130.15 0-241.35 46.05-333.35 138.05-92.05 92-138.1 203.2-138.1 333.4 0 130.15 46.05 241.35 138.1 333.35 86.15 86.3 189.35 132.15 309.15 137.6 8 0.3 16 0.5 24.2 0.5 130.2 0 241.35-46.1 333.4-138.1 92-92 138.05-203.2 138.05-333.35z" fill="url(#linearGradient909)" stroke-width="15.683"/>
  </g>
 </g>
 <g transform="translate(.12404 -.17629)" filter="url(#filter914)" opacity=".15">
  <rect transform="rotate(.046859)" x="4.3776" y="4.6709" width="2.6436" height="2.6436"/>
  <rect transform="rotate(.046859)" x="7.288" y="4.6685" width="2.6436" height="2.6436"/>
  <rect transform="rotate(.046859)" x="4.3822" y="7.5787" width="2.6436" height="2.6436"/>
  <rect transform="rotate(.046859)" x="7.2904" y="7.5785" width="5.2872" height="5.2872"/>
 </g>
 <g transform="translate(.12404 -.17629)">
  <rect transform="rotate(.046859)" x="4.3776" y="4.6709" width="2.6436" height="2.6436" fill="#f9f9f9"/>
  <rect transform="rotate(.046859)" x="7.288" y="4.6685" width="2.6436" height="2.6436" fill="#f2f2f2"/>
  <rect transform="rotate(.046859)" x="4.3822" y="7.5787" width="2.6436" height="2.6436" fill="#ececec"/>
  <rect transform="rotate(.046859)" x="7.2904" y="7.5785" width="5.2872" height="5.2872" fill="#f2f2f2"/>
 </g>
</svg>
