<svg width="64" height="64" viewBox="0 0 16.933 16.933" xmlns="http://www.w3.org/2000/svg"><defs><linearGradient id="b" x1="520.32" x2="520.32" y1="1.823" y2="1023.9" gradientUnits="userSpaceOnUse"><stop stop-color="#46a926" offset="0"/><stop stop-color="#ffda64" offset="1"/></linearGradient><linearGradient id="c" x1="500.28" x2="500.28" y1="-18.217" y2="1023.9" gradientUnits="userSpaceOnUse"><stop stop-color="#a6d74f" offset="0"/><stop stop-color="#46a926" offset="1"/></linearGradient><linearGradient id="d" x1="500.28" x2="500.28" y1="-18.217" y2="1023.9" gradientUnits="userSpaceOnUse"><stop stop-color="#56bed1" offset="0"/><stop stop-color="#3fdf9a" offset="1"/></linearGradient><filter id="a" x="-.036" y="-.036" width="1.072" height="1.072" color-interpolation-filters="sRGB"><feGaussianBlur stdDeviation="14.143"/></filter><filter id="e" x="-.06" y="-.06" width="1.12" height="1.12" color-interpolation-filters="sRGB"><feGaussianBlur stdDeviation=".205"/></filter></defs><path transform="matrix(.01684 0 0 .01684 -.15 -.143)" d="M983.25 511.35c0-7.95-.2-15.85-.5-23.55q-8-180.15-137.55-309.85C753.15 85.95 642 39.9 511.8 39.9c-130.15 0-241.35 46.05-333.35 138.05-92.05 92-138.1 203.2-138.1 333.4 0 130.15 46.05 241.35 138.1 333.35C264.6 931 367.8 976.85 487.6 982.3c8 .3 16 .5 24.2.5 130.2 0 241.35-46.1 333.4-138.1 92-92 138.05-203.2 138.05-333.35z" filter="url(#a)" opacity=".5"/><path d="M983.25 511.35c0-7.95-.2-15.85-.5-23.55q-8-180.15-137.55-309.85C753.15 85.95 642 39.9 511.8 39.9c-130.15 0-241.35 46.05-333.35 138.05-92.05 92-138.1 203.2-138.1 333.4 0 130.15 46.05 241.35 138.1 333.35C264.6 931 367.8 976.85 487.6 982.3c8 .3 16 .5 24.2.5 130.2 0 241.35-46.1 333.4-138.1 92-92 138.05-203.2 138.05-333.35z" fill="url(#d)" transform="matrix(.01684 0 0 .01684 -.15 -.143)" stroke-width="15.683"/><g transform="translate(.124 -.176)" filter="url(#e)" opacity=".15"><path d="m4.374 4.675 2.644.002-.002 2.644-2.644-.002zM7.284 4.674l2.644.002-.002 2.644-2.644-.002zM4.376 7.583l2.644.002-.002 2.644-2.644-.002zM7.284 7.585l5.287.004-.005 5.287-5.287-.004z"/></g><path fill="#f9f9f9" d="m4.498 4.498 2.644.002-.002 2.644-2.644-.002z"/><path fill="#f2f2f2" d="m7.408 4.498 2.644.002-.002 2.644-2.644-.002z"/><path fill="#ececec" d="m4.5 7.406 2.644.002-.002 2.644-2.644-.002z"/><path fill="#f2f2f2" d="m7.408 7.409 5.287.004-.004 5.287-5.287-.004z"/></svg>