<svg width="64" height="64" xmlns="http://www.w3.org/2000/svg"><defs><linearGradient id="c" x1="399.57" x2="399.57" y1="545.8" y2="517.8" gradientTransform="translate(-826.36 -1107.5) scale(2.1429)" gradientUnits="userSpaceOnUse"><stop stop-color="#3889e9" offset="0"/><stop stop-color="#5ea5fb" offset="1"/></linearGradient><linearGradient id="b" x1="32.02" x2="32.02" y1="2.043" y2="62.045" gradientTransform="matrix(244.65 0 0 228.34 152.66 -113.65)" gradientUnits="userSpaceOnUse"><stop stop-color="#eceef0" offset="0"/><stop stop-color="#f4f6f8" offset="1"/></linearGradient><linearGradient id="e" x1="31.995" x2="31.995" y1="17.647" y2="46.337" gradientUnits="userSpaceOnUse"><stop stop-color="#289dc7" offset="0"/><stop stop-color="#393f95" offset="1"/></linearGradient><linearGradient id="g" x1="32" x2="32" y1="28.113" y2="38.548" gradientUnits="userSpaceOnUse"><stop stop-color="#f80095" offset="0"/><stop stop-color="#f8004e" offset="1"/></linearGradient><filter id="a" x="-.036" y="-.036" width="1.072" height="1.072" color-interpolation-filters="sRGB"><feGaussianBlur stdDeviation=".42"/></filter><filter id="d" x="-.055" y="-.065" width="1.111" height="1.131" color-interpolation-filters="sRGB"><feGaussianBlur stdDeviation=".783"/></filter><filter id="f" x="-.06" y="-.06" width="1.12" height="1.12" color-interpolation-filters="sRGB"><feGaussianBlur stdDeviation=".261"/></filter></defs><circle transform="translate(-826.36 -1107.5) scale(2.1429)" cx="400.57" cy="531.8" r="14" filter="url(#a)" opacity=".25"/><g stroke-width="1.571"><circle cx="32.02" cy="32.044" r="30.001" fill="url(#b)"/><circle cx="32.02" cy="32.044" r="30.001" fill="none"/></g><path d="M27.475 17.652c-.626 0-1.238.203-1.834.612s-.999.906-1.227 1.462l-.898 3.138h-3.952c-1.248 0-2.298.444-3.18 1.305-.887.866-1.345 1.92-1.345 3.138V41.94c0 1.218.46 2.237 1.345 3.098.882.86 1.93 1.299 3.18 1.299h24.861c1.248 0 2.339-.444 3.22-1.3.882-.865 1.305-1.884 1.305-3.097V27.307c0-1.218-.423-2.272-1.304-3.138s-1.973-1.305-3.22-1.305h-3.953l-.897-3.138c-.22-.56-.627-1.055-1.224-1.467-.596-.409-1.213-.612-1.834-.612m-5.1 7.826c4.285-.316 8.407 3.53 8.398 7.82 0 4.103-3.73 7.827-7.821 7.827-4.103 0-7.826-3.73-7.826-7.826-.01-3.913 3.352-7.54 7.256-7.821" filter="url(#d)" opacity=".15"/><path d="M27.475 17.652c-.626 0-1.238.203-1.834.612s-.999.906-1.227 1.462l-.898 3.138h-3.952c-1.248 0-2.298.444-3.18 1.305-.887.866-1.345 1.92-1.345 3.138V41.94c0 1.218.46 2.237 1.345 3.098.882.86 1.93 1.299 3.18 1.299h24.861c1.248 0 2.339-.444 3.22-1.3.882-.865 1.305-1.884 1.305-3.097V27.307c0-1.218-.423-2.272-1.304-3.138s-1.973-1.305-3.22-1.305h-3.953l-.897-3.138c-.22-.56-.627-1.055-1.224-1.467-.596-.409-1.213-.612-1.834-.612m-5.1 7.826c4.285-.316 8.407 3.53 8.398 7.82 0 4.103-3.73 7.827-7.821 7.827-4.103 0-7.826-3.73-7.826-7.826-.01-3.913 3.352-7.54 7.256-7.821" fill="url(#e)"/><path d="M37.217 33.33a5.218 5.218 0 1 1-10.435 0 5.218 5.218 0 0 1 10.435 0" filter="url(#f)" opacity=".15"/><path d="M37.217 33.33a5.218 5.218 0 1 1-10.435 0 5.218 5.218 0 0 1 10.435 0" fill="url(#g)"/></svg>