<svg width="64" height="64" xmlns="http://www.w3.org/2000/svg"><defs><linearGradient id="b" x1="24" x2="24" y1="-1.555" y2="49.557" gradientUnits="userSpaceOnUse"><stop stop-color="#dedede" offset="0"/><stop stop-color="#fcfcfc" offset="1"/></linearGradient><linearGradient id="d" x1="32" x2="32" y1="13" y2="51" gradientUnits="userSpaceOnUse"><stop stop-color="#4265ce" offset="0"/><stop stop-color="#429cce" offset="1"/></linearGradient><filter id="a" x="-.036" y="-.036" width="1.072" height="1.072" color-interpolation-filters="sRGB"><feGaussianBlur stdDeviation=".767"/></filter><filter id="c" x="-.06" y="-.06" width="1.12" height="1.12" color-interpolation-filters="sRGB"><feGaussianBlur stdDeviation=".95"/></filter></defs><g stroke-width="1.111"><path d="M24-1.555c14.115 0 25.556 11.441 25.556 25.556S38.115 49.557 24 49.557-1.556 38.116-1.556 24.001 9.885-1.555 24-1.555z" filter="url(#a)" opacity=".15" transform="translate(3.826 3.825) scale(1.1739)"/><path d="M24-1.555c14.115 0 25.556 11.441 25.556 25.556S38.115 49.557 24 49.557-1.556 38.116-1.556 24.001 9.885-1.555 24-1.555z" fill="url(#b)" transform="translate(3.826 3.825) scale(1.1739)"/></g><path d="M32 13c-2.533 0-6.333 2.533-6.333 7.6 0 8.867 20.267 3.8 20.267 22.8 0 .523-.034 1.05-.086 1.576A18.973 18.973 0 0 0 51 32c.006-10.493-8.507-19-18.999-19zm-13.856 6.035A18.981 18.981 0 0 0 13 32c-.006 10.493 8.507 19 19 19 2.532 0 6.332-2.534 6.332-7.6 0-12.667-20.267-6.334-20.267-22.8 0-.524.03-1.045.078-1.566z" filter="url(#c)" opacity=".15"/><path d="M32 13c-2.533 0-6.333 2.533-6.333 7.6 0 8.867 20.267 3.8 20.267 22.8 0 .523-.034 1.05-.086 1.576A18.973 18.973 0 0 0 51 32c.006-10.493-8.507-19-18.999-19zm-13.856 6.035A18.981 18.981 0 0 0 13 32c-.006 10.493 8.507 19 19 19 2.532 0 6.332-2.534 6.332-7.6 0-12.667-20.267-6.334-20.267-22.8 0-.524.03-1.045.078-1.566z" fill="url(#d)"/></svg>