<svg width="64" height="64" version="1.1" xmlns="http://www.w3.org/2000/svg" xmlns:xlink="http://www.w3.org/1999/xlink">
 <defs>
  <linearGradient id="b" x1="399.57" x2="399.57" y1="545.8" y2="517.8" gradientTransform="matrix(2.1429 0 0 2.1429 -826.36 -1107.5)" gradientUnits="userSpaceOnUse">
   <stop stop-color="#3889e9" offset="0"/>
   <stop stop-color="#5ea5fb" offset="1"/>
  </linearGradient>
  <filter id="c" x="-.036" y="-.036" width="1.072" height="1.072" color-interpolation-filters="sRGB">
   <feGaussianBlur stdDeviation="0.41999874"/>
  </filter>
  <linearGradient id="a" x1="32.02" x2="32.02" y1="2.043" y2="62.045" gradientTransform="matrix(244.65 0 0 228.34 152.66 -113.65)" gradientUnits="userSpaceOnUse">
   <stop stop-color="#eceef0" offset="0"/>
   <stop stop-color="#f4f6f8" offset="1"/>
  </linearGradient>
  <linearGradient id="e" x1="31.995" x2="31.995" y1="17.647" y2="46.337" gradientUnits="userSpaceOnUse">
   <stop stop-color="#289dc7" offset="0"/>
   <stop stop-color="#393f95" offset="1"/>
  </linearGradient>
  <linearGradient id="d" x1="32" x2="32" y1="28.113" y2="38.548" gradientUnits="userSpaceOnUse">
   <stop stop-color="#f80095" offset="0"/>
   <stop stop-color="#f8004e" offset="1"/>
  </linearGradient>
  <filter id="f" x="-.055382" y="-.065458" width="1.1108" height="1.1309" color-interpolation-filters="sRGB">
   <feGaussianBlur stdDeviation="0.78251087"/>
  </filter>
  <filter id="g" x="-.06" y="-.06" width="1.12" height="1.12" color-interpolation-filters="sRGB">
   <feGaussianBlur stdDeviation="0.26086955"/>
  </filter>
 </defs>
 <circle transform="matrix(2.1429 0 0 2.1429 -826.36 -1107.5)" cx="400.57" cy="531.8" r="14" filter="url(#c)" opacity=".25" stroke-width=".73333"/>
 <g stroke-width="1.5715">
  <circle cx="32.02" cy="32.044" r="30.001" fill="url(#a)"/>
  <circle cx="32.02" cy="32.044" r="30.001" fill-opacity="0"/>
  <circle cx="32.02" cy="32.044" r="0" fill="url(#b)"/>
 </g>
 <g>
  <path d="m27.475 17.652c-0.62609 0-1.2378 0.20348-1.8339 0.61174s-0.99913 0.90652-1.2274 1.4622l-0.89739 3.1383h-3.9522c-1.2483 0-2.2983 0.44348-3.18 1.3043-0.88696 0.86609-1.3448 1.9213-1.3448 3.1383v14.633c0 1.2183 0.45913 2.237 1.3448 3.0978 0.88174 0.86087 1.9304 1.2991 3.18 1.2991h24.861c1.2483 0 2.3387-0.44348 3.2204-1.2991 0.88174-0.86609 1.3043-1.8848 1.3043-3.0978v-14.633c0-1.2183-0.42261-2.2722-1.3043-3.1383s-1.9722-1.3043-3.2204-1.3043h-3.9522l-0.89739-3.1383c-0.21913-0.56087-0.62609-1.0552-1.2235-1.4674-0.59609-0.40826-1.213-0.61174-1.8339-0.61174m-5.1 7.8261c4.2848-0.31565 8.4065 3.5309 8.3974 7.8209 0 4.1022-3.7291 7.8261-7.8209 7.8261-4.1022 0-7.8261-3.7291-7.8261-7.8261-0.01044-3.913 3.3522-7.5404 7.2561-7.8209" filter="url(#f)" opacity=".15"/>
  <path d="m27.475 17.652c-0.62609 0-1.2378 0.20348-1.8339 0.61174s-0.99913 0.90652-1.2274 1.4622l-0.89739 3.1383h-3.9522c-1.2483 0-2.2983 0.44348-3.18 1.3043-0.88696 0.86609-1.3448 1.9213-1.3448 3.1383v14.633c0 1.2183 0.45913 2.237 1.3448 3.0978 0.88174 0.86087 1.9304 1.2991 3.18 1.2991h24.861c1.2483 0 2.3387-0.44348 3.2204-1.2991 0.88174-0.86609 1.3043-1.8848 1.3043-3.0978v-14.633c0-1.2183-0.42261-2.2722-1.3043-3.1383s-1.9722-1.3043-3.2204-1.3043h-3.9522l-0.89739-3.1383c-0.21913-0.56087-0.62609-1.0552-1.2235-1.4674-0.59609-0.40826-1.213-0.61174-1.8339-0.61174m-5.1 7.8261c4.2848-0.31565 8.4065 3.5309 8.3974 7.8209 0 4.1022-3.7291 7.8261-7.8209 7.8261-4.1022 0-7.8261-3.7291-7.8261-7.8261-0.01044-3.913 3.3522-7.5404 7.2561-7.8209" fill="url(#e)"/>
  <path d="m37.217 33.33c0 2.8839-2.3387 5.2174-5.2174 5.2174-2.8839 0-5.2174-2.3335-5.2174-5.2174s2.3335-5.2174 5.2174-5.2174c2.8787 0 5.2174 2.3335 5.2174 5.2174" filter="url(#g)" opacity=".15"/>
  <path d="m37.217 33.33c0 2.8839-2.3387 5.2174-5.2174 5.2174-2.8839 0-5.2174-2.3335-5.2174-5.2174s2.3335-5.2174 5.2174-5.2174c2.8787 0 5.2174 2.3335 5.2174 5.2174" fill="url(#d)"/>
 </g>
</svg>
