<svg width="64" height="64" xmlns="http://www.w3.org/2000/svg"><defs><linearGradient id="e" x1="401.58" x2="401.92" y1="513.81" y2="532.44" gradientTransform="translate(-580.81 -753.64) scale(1.4999)" gradientUnits="userSpaceOnUse"><stop stop-color="#9559b6" offset="0"/><stop stop-color="#8e44ad" offset="1"/></linearGradient><linearGradient id="d" x1="417.87" x2="417.53" y1="516.47" y2="533.46" gradientTransform="translate(-580.81 -753.64) scale(1.4999)" gradientUnits="userSpaceOnUse"><stop stop-color="#1d99f3" offset="0"/><stop stop-color="#2972a7" offset="1"/></linearGradient><linearGradient id="b" x1="408.25" x2="407.94" y1="547.6" y2="498.89" gradientTransform="translate(-510.64 -663.52) scale(1.3276)" gradientUnits="userSpaceOnUse"><stop stop-color="#fff" offset="0"/><stop stop-color="#e6e6e6" offset="1"/></linearGradient><filter id="a" x="-.036" y="-.036" width="1.072" height="1.072" color-interpolation-filters="sRGB"><feGaussianBlur stdDeviation=".89"/></filter><filter id="c" x="-.05" y="-.075" width="1.1" height="1.151" color-interpolation-filters="sRGB"><feGaussianBlur stdDeviation=".936"/></filter></defs><rect transform="translate(-389.32 -489.92) scale(1.0115)" x="386.85" y="486.31" width="59.315" height="59.315" ry="29.657" filter="url(#a)" opacity=".25"/><rect x="1.983" y="1.978" width="59.997" height="59.997" ry="29.998" fill="url(#b)"/><g transform="translate(2.134 2.206) scale(.93337)" filter="url(#c)" opacity=".15" stroke-width="1.071"><path d="m37.472 20.644-1.291 6.436 7.816 4.884-10.055 6.283-1.724 8.597 22.279-14.852zM31.998 16.999 9.5 31.998l17.27 11.513 1.303-6.498L20 31.97l10.388-6.491 1.688-8.425z"/></g><g stroke-width="1.071"><path d="m37.472 20.644-1.291 6.436 7.816 4.884-10.055 6.283-1.724 8.597 22.279-14.852z" fill="url(#d)" transform="translate(2.134 2.206) scale(.93337)"/><path d="M31.998 16.999 9.5 31.998l17.27 11.513 1.303-6.498L20 31.97l10.388-6.491 1.688-8.425z" fill="url(#e)" transform="translate(2.134 2.206) scale(.93337)"/></g></svg>