<svg xmlns="http://www.w3.org/2000/svg" width="64" height="64" viewBox="0 0 16.933 16.933"><defs><linearGradient id="d" x1="8.466" x2="8.466" y1="13.767" y2="2.91" gradientTransform="translate(0 -.304)" gradientUnits="userSpaceOnUse"><stop offset="0" stop-color="#2b6896"/><stop offset="1" stop-color="#4394d1"/></linearGradient><linearGradient id="b" x1="7.937" x2="7.937" y1="15.081" y2="1.852" gradientTransform="translate(-.605 -.596)scale(1.0714)" gradientUnits="userSpaceOnUse"><stop offset="0" stop-color="#f1efeb"/><stop offset="1" stop-color="#fdfcfc"/></linearGradient><filter id="c" width="1.139" height="1.163" x="-.07" y="-.081" color-interpolation-filters="sRGB"><feGaussianBlur stdDeviation=".368"/></filter><filter id="a" width="1.054" height="1.054" x="-.027" y="-.027" color-interpolation-filters="sRGB"><feGaussianBlur stdDeviation=".675"/></filter></defs><rect width="60" height="60" x="2" y="3" filter="url(#a)" opacity=".15" rx="30" ry="30" transform="scale(.26458)"/><rect width="15.875" height="15.875" x=".529" y=".529" fill="url(#b)" rx="7.937" ry="7.937"/><path d="M8.013 3.191v.002a6.365 6.353 0 0 0-.898.129 6.365 6.353 0 0 0-.87.254 6.365 6.353 0 0 0-.824.375 6.365 6.353 0 0 0-.763.488 6.365 6.353 0 0 0-.686.591 6.363 6.351 0 0 0-.588.68 6.363 6.351 0 0 0-.486.756 6.363 6.351 0 0 0-.376.818 6.363 6.351 0 0 0-.255.862 6.363 6.351 0 0 0-.133.888 6.363 6.351 0 0 0-.003.899 6.363 6.351 0 0 0 .122.89 6.363 6.351 0 0 0 .248.864 6.363 6.351 0 0 0 .367.82 6.363 6.351 0 0 0 .48.761 6.363 6.351 0 0 0 .583.686.636.635 0 0 0 .04.047.636.635 0 0 0 .045.03l.888-.888a.636.635 0 0 0-.033-.04 5.075 5.065 0 0 1-.52-.604 5.075 5.065 0 0 1-.417-.68 5.075 5.065 0 0 1-.307-.735 5.075 5.065 0 0 1-.186-.775 5.075 5.065 0 0 1-.063-.794 5.075 5.065 0 0 1 .063-.794 5.075 5.065 0 0 1 .186-.774 5.075 5.065 0 0 1 .307-.736 5.075 5.065 0 0 1 .417-.68 5.075 5.065 0 0 1 .52-.603 5.075 5.065 0 0 1 .606-.519 5.075 5.065 0 0 1 .68-.417 5.075 5.065 0 0 1 .737-.305 5.075 5.065 0 0 1 .776-.188 5.075 5.065 0 0 1 .795-.062 5.075 5.065 0 0 1 .797.062 5.075 5.065 0 0 1 .775.188 5.075 5.065 0 0 1 .737.305 5.075 5.065 0 0 1 .68.416 5.075 5.065 0 0 1 .607.52 5.075 5.065 0 0 1 .196.205 5.075 5.065 0 0 1 .184.219 5.075 5.065 0 0 1 .173.227 5.075 5.065 0 0 1 .158.237 5.075 5.065 0 0 1 .146.244 5.075 5.065 0 0 1 .13.253 5.075 5.065 0 0 1 .118.26 5.075 5.065 0 0 1 .102.266 5.075 5.065 0 0 1 .086.27 5.075 5.065 0 0 1 .072.277 5.075 5.065 0 0 1 .056.28 5.075 5.065 0 0 1 .04.281 5.075 5.065 0 0 1 .025.284 5.075 5.065 0 0 1 .007.285 5.075 5.065 0 0 1-.007.284 5.075 5.065 0 0 1-.025.284 5.075 5.065 0 0 1-.04.282 5.075 5.065 0 0 1-.056.28 5.075 5.065 0 0 1-.07.275 5.075 5.065 0 0 1-.088.271 5.075 5.065 0 0 1-.102.267 5.075 5.065 0 0 1-.117.26 5.075 5.065 0 0 1-.13.252 5.075 5.065 0 0 1-.147.245 5.075 5.065 0 0 1-.158.238 5.075 5.065 0 0 1-.172.226 5.075 5.065 0 0 1-.184.218 5.075 5.065 0 0 1-.196.206.636.635 0 0 0-.029.042l.884.884a.636.635 0 0 0 .043-.03.636.635 0 0 0 .04-.045 6.363 6.351 0 0 0 .21-.226 6.363 6.351 0 0 0 .2-.235 6.363 6.351 0 0 0 .189-.246 6.363 6.351 0 0 0 .177-.255 6.363 6.351 0 0 0 .163-.262 6.363 6.351 0 0 0 .15-.271 6.363 6.351 0 0 0 .137-.277 6.363 6.351 0 0 0 .123-.284 6.363 6.351 0 0 0 .11-.288 6.363 6.351 0 0 0 .096-.296 6.363 6.351 0 0 0 .08-.297 6.363 6.351 0 0 0 .066-.303 6.363 6.351 0 0 0 .052-.305 6.363 6.351 0 0 0 .035-.308 6.363 6.351 0 0 0 .022-.307 6.363 6.351 0 0 0 .006-.31 6.363 6.351 0 0 0-.01-.31 6.363 6.351 0 0 0-.022-.307 6.363 6.351 0 0 0-.04-.307 6.363 6.351 0 0 0-.054-.306 6.363 6.351 0 0 0-.07-.3 6.363 6.351 0 0 0-.082-.298 6.363 6.351 0 0 0-.099-.294 6.363 6.351 0 0 0-.11-.288 6.363 6.351 0 0 0-.126-.283 6.363 6.351 0 0 0-.14-.277 6.363 6.351 0 0 0-.153-.267 6.363 6.351 0 0 0-.166-.262 6.363 6.351 0 0 0-.179-.254 6.363 6.351 0 0 0-.19-.244 6.363 6.351 0 0 0-.202-.233 6.363 6.351 0 0 0-.213-.226 6.365 6.353 0 0 0-.686-.592 6.365 6.353 0 0 0-.763-.488 6.365 6.353 0 0 0-.825-.374 6.365 6.353 0 0 0-.87-.255 6.365 6.353 0 0 0-.897-.129 6.365 6.353 0 0 0-.906 0m.453 2.524a3.823 3.816 0 0 0-.332.014 3.823 3.816 0 0 0-.654.114 3.823 3.816 0 0 0-.625.226 3.823 3.816 0 0 0-.575.331 3.823 3.816 0 0 0-.51.424 3.82 3.813 0 0 0-.468.571 3.82 3.813 0 0 0-.349.65 3.82 3.813 0 0 0-.218.705 3.82 3.813 0 0 0-.077.734 3.82 3.813 0 0 0 .066.735 3.82 3.813 0 0 0 .206.708 3.82 3.813 0 0 0 .338.655 3.82 3.813 0 0 0 .46.579.636.635 0 0 0 .04.046.636.635 0 0 0 .044.028l.888-.888a.636.635 0 0 0-.032-.037 2.533 2.527 0 0 1-.357-.444 2.533 2.527 0 0 1-.248-.512 2.533 2.527 0 0 1-.127-.554 2.533 2.527 0 0 1 0-.569 2.533 2.527 0 0 1 .128-.554 2.533 2.527 0 0 1 .248-.512 2.533 2.527 0 0 1 .357-.444 2.533 2.527 0 0 1 .444-.355 2.533 2.527 0 0 1 .512-.248 2.533 2.527 0 0 1 .556-.127 2.533 2.527 0 0 1 .57 0 2.533 2.527 0 0 1 .554.127 2.533 2.527 0 0 1 .514.248 2.533 2.527 0 0 1 .444.355 2.6 2.6 0 0 1 .457.615 2.52 2.52 0 0 1 .245 1.663 2.5 2.5 0 0 1-.702 1.312.636.635 0 0 0-.026.039l.884.884a.636.635 0 0 0 .04-.027.636.635 0 0 0 .041-.044 3.822 3.814 0 0 0 .16-.176 3.822 3.814 0 0 0 .148-.184 3.822 3.814 0 0 0 .136-.194 3.822 3.814 0 0 0 .124-.202 3.822 3.814 0 0 0 .112-.208 3.822 3.814 0 0 0 .096-.216 3.822 3.814 0 0 0 .086-.221 3.822 3.814 0 0 0 .07-.226 3.822 3.814 0 0 0 .056-.229 3.822 3.814 0 0 0 .042-.233 3.822 3.814 0 0 0 .028-.234 3.822 3.814 0 0 0 .013-.237 3.822 3.814 0 0 0-.002-.236 3.822 3.814 0 0 0-.017-.236 3.822 3.814 0 0 0-.03-.234 3.822 3.814 0 0 0-.046-.232 3.822 3.814 0 0 0-.06-.229 3.822 3.814 0 0 0-.074-.225 3.822 3.814 0 0 0-.087-.22 3.822 3.814 0 0 0-.103-.213 3.822 3.814 0 0 0-.113-.208 3.822 3.814 0 0 0-.127-.199 3.822 3.814 0 0 0-.14-.192 3.822 3.814 0 0 0-.15-.182 3.822 3.814 0 0 0-.162-.173 3.823 3.816 0 0 0-.51-.425 3.823 3.816 0 0 0-.575-.33 3.823 3.816 0 0 0-.625-.226 3.823 3.816 0 0 0-.654-.114 3.823 3.816 0 0 0-.332-.014m-.067 2.534a1.27 1.269 0 0 0-.132.014 1.27 1.269 0 0 0-.378.122 1.27 1.269 0 0 0-.322.233 1.27 1.269 0 0 0-.234.322 1.27 1.269 0 0 0-.123.377 1.27 1.269 0 0 0 0 .397 1.27 1.269 0 0 0 .123.376 1.27 1.269 0 0 0 .234.322 1.27 1.269 0 0 0 .04.028l.86-.861.861.86a1.27 1.269 0 0 0 .037-.026 1.27 1.269 0 0 0 .095-.107 1.27 1.269 0 0 0 .082-.115 1.27 1.269 0 0 0 .07-.125 1.27 1.269 0 0 0 .054-.131 1.27 1.269 0 0 0 .04-.137 1.27 1.269 0 0 0 .022-.14 1.27 1.269 0 0 0 .01-.142 1.27 1.269 0 0 0-.01-.143 1.27 1.269 0 0 0-.023-.14 1.27 1.269 0 0 0-.04-.137 1.27 1.269 0 0 0-.054-.13 1.27 1.269 0 0 0-.07-.126 1.27 1.269 0 0 0-.082-.115 1.27 1.269 0 0 0-.095-.107 1.27 1.269 0 0 0-.321-.233 1.27 1.269 0 0 0-.379-.122 1.27 1.269 0 0 0-.265-.014" filter="url(#c)" opacity=".15"/><path fill="url(#d)" d="M8.013 2.623v.002a6.365 6.353 0 0 0-.898.128 6.365 6.353 0 0 0-.87.254 6.365 6.353 0 0 0-.824.376 6.365 6.353 0 0 0-.763.487 6.365 6.353 0 0 0-.686.592 6.363 6.351 0 0 0-.588.68 6.363 6.351 0 0 0-.486.756 6.363 6.351 0 0 0-.376.818 6.363 6.351 0 0 0-.255.861 6.363 6.351 0 0 0-.133.889 6.363 6.351 0 0 0-.003.898 6.363 6.351 0 0 0 .122.89 6.363 6.351 0 0 0 .248.864 6.363 6.351 0 0 0 .367.82 6.363 6.351 0 0 0 .48.762 6.363 6.351 0 0 0 .583.685.636.635 0 0 0 .04.048.636.635 0 0 0 .045.03l.888-.888a.636.635 0 0 0-.033-.04 5.075 5.065 0 0 1-.52-.605 5.075 5.065 0 0 1-.417-.679 5.075 5.065 0 0 1-.307-.735 5.075 5.065 0 0 1-.186-.775 5.075 5.065 0 0 1-.063-.794 5.075 5.065 0 0 1 .063-.794 5.075 5.065 0 0 1 .186-.775 5.075 5.065 0 0 1 .307-.735 5.075 5.065 0 0 1 .417-.68 5.075 5.065 0 0 1 .52-.604 5.075 5.065 0 0 1 .606-.518 5.075 5.065 0 0 1 .68-.418 5.075 5.065 0 0 1 .737-.305 5.075 5.065 0 0 1 .776-.187 5.075 5.065 0 0 1 .795-.063 5.075 5.065 0 0 1 .797.063 5.075 5.065 0 0 1 .775.187 5.075 5.065 0 0 1 .737.305 5.075 5.065 0 0 1 .68.417 5.075 5.065 0 0 1 .607.52 5.075 5.065 0 0 1 .196.205 5.075 5.065 0 0 1 .184.218 5.075 5.065 0 0 1 .173.227 5.075 5.065 0 0 1 .158.237 5.075 5.065 0 0 1 .146.245 5.075 5.065 0 0 1 .13.252 5.075 5.065 0 0 1 .118.26 5.075 5.065 0 0 1 .102.267 5.075 5.065 0 0 1 .086.27 5.075 5.065 0 0 1 .072.277 5.075 5.065 0 0 1 .056.279 5.075 5.065 0 0 1 .04.282 5.075 5.065 0 0 1 .025.284 5.075 5.065 0 0 1 .007.285 5.075 5.065 0 0 1-.007.283 5.075 5.065 0 0 1-.025.285 5.075 5.065 0 0 1-.04.281 5.075 5.065 0 0 1-.056.28 5.075 5.065 0 0 1-.07.275 5.075 5.065 0 0 1-.088.272 5.075 5.065 0 0 1-.102.267 5.075 5.065 0 0 1-.117.26 5.075 5.065 0 0 1-.13.252 5.075 5.065 0 0 1-.147.244 5.075 5.065 0 0 1-.158.239 5.075 5.065 0 0 1-.172.226 5.075 5.065 0 0 1-.184.218 5.075 5.065 0 0 1-.196.206.636.635 0 0 0-.029.041l.884.885a.636.635 0 0 0 .043-.03.636.635 0 0 0 .04-.045 6.363 6.351 0 0 0 .21-.226 6.363 6.351 0 0 0 .2-.236 6.363 6.351 0 0 0 .189-.245 6.363 6.351 0 0 0 .177-.256 6.363 6.351 0 0 0 .163-.262 6.363 6.351 0 0 0 .15-.27 6.363 6.351 0 0 0 .137-.278 6.363 6.351 0 0 0 .123-.284 6.363 6.351 0 0 0 .11-.288 6.363 6.351 0 0 0 .096-.295 6.363 6.351 0 0 0 .08-.297 6.363 6.351 0 0 0 .066-.304 6.363 6.351 0 0 0 .052-.305 6.363 6.351 0 0 0 .035-.307 6.363 6.351 0 0 0 .022-.308 6.363 6.351 0 0 0 .006-.31 6.363 6.351 0 0 0-.01-.31 6.363 6.351 0 0 0-.022-.307 6.363 6.351 0 0 0-.04-.307 6.363 6.351 0 0 0-.054-.305 6.363 6.351 0 0 0-.07-.301 6.363 6.351 0 0 0-.082-.297 6.363 6.351 0 0 0-.099-.295 6.363 6.351 0 0 0-.11-.287 6.363 6.351 0 0 0-.126-.284 6.363 6.351 0 0 0-.14-.276 6.363 6.351 0 0 0-.153-.268 6.363 6.351 0 0 0-.166-.262 6.363 6.351 0 0 0-.179-.253 6.363 6.351 0 0 0-.19-.244 6.363 6.351 0 0 0-.202-.234 6.363 6.351 0 0 0-.213-.226 6.365 6.353 0 0 0-.686-.592 6.365 6.353 0 0 0-.763-.487 6.365 6.353 0 0 0-.825-.375 6.365 6.353 0 0 0-.87-.255 6.365 6.353 0 0 0-.897-.128 6.365 6.353 0 0 0-.906 0m.453 2.523a3.823 3.816 0 0 0-.332.015 3.823 3.816 0 0 0-.654.114 3.823 3.816 0 0 0-.625.225 3.823 3.816 0 0 0-.575.332 3.823 3.816 0 0 0-.51.424 3.82 3.813 0 0 0-.468.57 3.82 3.813 0 0 0-.349.65 3.82 3.813 0 0 0-.218.706 3.82 3.813 0 0 0-.077.733 3.82 3.813 0 0 0 .066.736 3.82 3.813 0 0 0 .206.707 3.82 3.813 0 0 0 .338.655 3.82 3.813 0 0 0 .46.58.636.635 0 0 0 .04.046.636.635 0 0 0 .044.027l.888-.888a.636.635 0 0 0-.032-.036 2.533 2.527 0 0 1-.357-.444 2.533 2.527 0 0 1-.248-.513 2.533 2.527 0 0 1-.127-.554 2.533 2.527 0 0 1 0-.568 2.533 2.527 0 0 1 .128-.555 2.533 2.527 0 0 1 .248-.511 2.533 2.527 0 0 1 .357-.444 2.533 2.527 0 0 1 .444-.356 2.533 2.527 0 0 1 .512-.248 2.533 2.527 0 0 1 .556-.127 2.533 2.527 0 0 1 .57 0 2.533 2.527 0 0 1 .554.127 2.533 2.527 0 0 1 .514.248 2.533 2.527 0 0 1 .444.356 2.6 2.6 0 0 1 .457.614 2.52 2.52 0 0 1 .245 1.663 2.5 2.5 0 0 1-.702 1.312.636.635 0 0 0-.026.04l.884.883a.636.635 0 0 0 .04-.026.636.635 0 0 0 .041-.045 3.822 3.814 0 0 0 .16-.175 3.822 3.814 0 0 0 .148-.185 3.822 3.814 0 0 0 .136-.194 3.822 3.814 0 0 0 .124-.201 3.822 3.814 0 0 0 .112-.208 3.822 3.814 0 0 0 .096-.216 3.822 3.814 0 0 0 .086-.222 3.822 3.814 0 0 0 .07-.225 3.822 3.814 0 0 0 .056-.23 3.822 3.814 0 0 0 .042-.232 3.822 3.814 0 0 0 .028-.235 3.822 3.814 0 0 0 .013-.236 3.822 3.814 0 0 0-.002-.237 3.822 3.814 0 0 0-.017-.236 3.822 3.814 0 0 0-.03-.234 3.822 3.814 0 0 0-.046-.231 3.822 3.814 0 0 0-.06-.23 3.822 3.814 0 0 0-.074-.225 3.822 3.814 0 0 0-.087-.22 3.822 3.814 0 0 0-.103-.212 3.822 3.814 0 0 0-.113-.21 3.822 3.814 0 0 0-.127-.198 3.822 3.814 0 0 0-.14-.192 3.822 3.814 0 0 0-.15-.182 3.822 3.814 0 0 0-.162-.173 3.823 3.816 0 0 0-.51-.425 3.823 3.816 0 0 0-.575-.33 3.823 3.816 0 0 0-.625-.226 3.823 3.816 0 0 0-.654-.114 3.823 3.816 0 0 0-.332-.014M8.399 7.68a1.27 1.269 0 0 0-.132.014 1.27 1.269 0 0 0-.378.123 1.27 1.269 0 0 0-.322.233 1.27 1.269 0 0 0-.234.321 1.27 1.269 0 0 0-.123.378 1.27 1.269 0 0 0 0 .396 1.27 1.269 0 0 0 .123.376 1.27 1.269 0 0 0 .234.323 1.27 1.269 0 0 0 .04.027l.86-.86.861.86a1.27 1.269 0 0 0 .037-.026 1.27 1.269 0 0 0 .095-.107 1.27 1.269 0 0 0 .082-.115 1.27 1.269 0 0 0 .07-.125 1.27 1.269 0 0 0 .054-.132 1.27 1.269 0 0 0 .04-.136 1.27 1.269 0 0 0 .022-.14 1.27 1.269 0 0 0 .01-.142 1.27 1.269 0 0 0-.01-.143 1.27 1.269 0 0 0-.023-.14 1.27 1.269 0 0 0-.04-.138 1.27 1.269 0 0 0-.054-.13 1.27 1.269 0 0 0-.07-.125 1.27 1.269 0 0 0-.082-.116 1.27 1.269 0 0 0-.095-.106 1.27 1.269 0 0 0-.321-.233 1.27 1.269 0 0 0-.379-.123A1.27 1.269 0 0 0 8.4 7.68z"/></svg>