<svg xmlns="http://www.w3.org/2000/svg" width="64" height="64" version="1"><defs><filter id="c" width="1.285" height="1.303" x="-.143" y="-.152" color-interpolation-filters="sRGB"><feGaussianBlur stdDeviation="2.378"/></filter><filter id="a" width="1.096" height="1.096" x="-.048" y="-.048" color-interpolation-filters="sRGB"><feGaussianBlur stdDeviation="1.2"/></filter><linearGradient id="b" x1="10.144" x2="10.144" y1=".9" y2="15.196" gradientTransform="translate(-2.286 -2.252)scale(4.0495)" gradientUnits="userSpaceOnUse"><stop offset="0" stop-color="#1fe0aa"/><stop offset="1" stop-color="#029499"/></linearGradient></defs><rect width="60" height="60" x="2" y="3" filter="url(#a)" opacity=".15" rx="30" ry="30"/><rect width="60" height="60" x="2" y="2" fill="url(#b)" rx="30" ry="30"/><path d="m24.598 14.179-5.195 3 4.715 8.164A11 11 0 0 0 21.427 30H12v6h9.42a11 11 0 0 0 2.692 4.666l-4.71 8.155 5.196 3 4.717-8.168A11 11 0 0 0 32 44a11 11 0 0 0 2.69-.343l4.713 8.164 5.195-3-4.715-8.164A11 11 0 0 0 42.573 36H52v-6h-9.42a11 11 0 0 0-2.691-4.666l4.709-8.154-5.195-3-4.717 8.168A11 11 0 0 0 32 21.999a11 11 0 0 0-2.69.344zM32 25.999a7 7 0 0 1 7 7 7 7 0 0 1-7 7 7 7 0 0 1-7-7 7 7 0 0 1 7-7" filter="url(#c)" opacity=".2"/><path fill="#fff" d="m24.598 13.18-5.195 3 4.715 8.164A11 11 0 0 0 21.427 29H12v6h9.42a11 11 0 0 0 2.692 4.666l-4.71 8.155 5.196 3 4.717-8.168A11 11 0 0 0 32 43a11 11 0 0 0 2.69-.343l4.713 8.164 5.195-3-4.715-8.164A11 11 0 0 0 42.573 35H52v-6h-9.42a11 11 0 0 0-2.691-4.666l4.709-8.154-5.195-3-4.717 8.168A11 11 0 0 0 32 21a11 11 0 0 0-2.69.344zM32 25a7 7 0 0 1 7 7 7 7 0 0 1-7 7 7 7 0 0 1-7-7 7 7 0 0 1 7-7"/></svg>