<svg xmlns="http://www.w3.org/2000/svg" width="64" height="64"><defs><linearGradient id="b" x2="0" y1="1" y2="47" gradientTransform="translate(.696 .696) scale(1.3043)" gradientUnits="userSpaceOnUse"><stop offset="0" stop-color="#995549"/><stop offset="1" stop-color="#5d231c"/></linearGradient><linearGradient id="d" x1="32.105" x2="32.105" y1="17.199" y2="48.327" gradientTransform="matrix(1.09 0 0 1.09 -2.984 -2.925)" gradientUnits="userSpaceOnUse"><stop offset="0" stop-color="#f66"/><stop offset="1" stop-color="#e55995"/></linearGradient><linearGradient id="f" x1="22.87" x2="42.435" y1="17.652" y2="17.652" gradientTransform="matrix(1.09 0 0 1.09 -2.984 -2.925)" gradientUnits="userSpaceOnUse"><stop offset="0" stop-color="#14cc6f"/><stop offset="1" stop-color="#ffe100"/></linearGradient><filter id="a" width="1.054" height="1.054" x="-.027" y="-.027" color-interpolation-filters="sRGB"><feGaussianBlur stdDeviation=".517"/></filter><filter id="c" width="1.055" height="1.053" x="-.027" y="-.027" color-interpolation-filters="sRGB"><feGaussianBlur stdDeviation=".418"/></filter><filter id="e" width="1.103" height="1.085" x="-.051" y="-.043" color-interpolation-filters="sRGB"><feGaussianBlur stdDeviation=".418"/></filter></defs><circle cx="24" cy="24.767" r="23" filter="url(#a)" opacity=".15" transform="translate(.696 .696) scale(1.3043)"/><circle cx="32" cy="32" r="30" fill="url(#b)"/><path d="m32 13.739-1.304 1.304c-2.251 0-4.048.599-5.187 1.75a18.261 18.261 0 0 0-10.465 16.51 18.261 18.261 0 0 0 18.26 18.262 18.261 18.261 0 0 0 18.262-18.262 18.261 18.261 0 0 0-8.107-15.175c-.743-1.35-3.042-3.086-6.241-3.086-1.528-1.03-2.609-1.304-5.218-1.304z" filter="url(#c)" opacity=".1" transform="matrix(1.09 0 0 1.09 -2.984 -2.925)"/><circle cx="31.896" cy="31.955" r="19.904" fill="url(#d)"/><path d="m32 13.739-1.304 1.304c-3.913 0-6.522 1.748-6.522 5.218 1.304-1.305 2.609-2.609 6.522-2.609 0 3.913.874 5.217 2.608 6.522V20.26c0-1.305 0-2.609 1.305-2.609 1.304 2.609 3.913 3.913 6.521 3.913 0-1.304-1.304-3.913-3.913-5.217 2.61 0 3.913 2.608 6.522 2.608 0-.445-.324-1.044-.881-1.638a18.261 18.261 0 0 0-3.24-1.913 8.36 8.36 0 0 0-2.4-.362c-1.031-.695-1.89-1.03-3.121-1.184a18.261 18.261 0 0 0-.83-.077c-.393-.022-.782-.043-1.267-.043zm10.435 10.435S32 29.391 30.696 30.696c-.708.707-1.304 1.526-1.304 2.608a3.91 3.91 0 0 0 3.913 3.913c1.08 0 1.898-.594 2.608-1.304 1.305-1.304 6.522-11.739 6.522-11.739z" filter="url(#e)" opacity=".1" transform="matrix(1.09 0 0 1.09 -2.984 -2.925)"/><path fill="url(#f)" d="m29.052 12.05 1.422-1.422c2.843 0 4.022.299 5.687 1.422 4.265 0 7.108 2.844 7.108 4.265-2.843 0-4.265-2.843-7.108-2.843 2.843 1.421 4.265 4.265 4.265 5.687-2.844 0-5.687-1.422-7.109-4.266-1.422 0-1.422 1.422-1.422 2.844v4.265c-1.89-1.422-2.843-2.843-2.843-7.109-4.265 0-5.687 1.422-7.109 2.844 0-3.782 2.844-5.687 7.109-5.687z"/><path fill="#f9f9f9" d="M34.74 34.799c-.774.774-1.666 1.422-2.844 1.422a4.262 4.262 0 0 1-4.265-4.265c0-1.18.65-2.073 1.422-2.844 1.422-1.422 12.795-7.109 12.795-7.109s-5.687 11.374-7.109 12.795z"/><circle cx="31.896" cy="31.955" r="1.422" fill="#4d4d4d"/></svg>