<svg id="svg41" width="64" height="64" version="1.1" xmlns="http://www.w3.org/2000/svg" xmlns:xlink="http://www.w3.org/1999/xlink">
 <defs id="defs23">
  <filter id="c" x="-.036" y="-.036" width="1.072" height="1.072" color-interpolation-filters="sRGB">
   <feGaussianBlur id="feGaussianBlur2" stdDeviation="14.343749"/>
  </filter>
  <linearGradient id="e" x2="0" y1="505.8" y2="541.8" gradientTransform="matrix(1.5 0 0 1.5 -580.86 -753.66)" gradientUnits="userSpaceOnUse">
   <stop id="stop5" stop-color="#fffcde" offset="0"/>
   <stop id="stop7" stop-color="#fafac5" offset="1"/>
  </linearGradient>
  <linearGradient id="b" x2="0" y1="542.8" y2="503.8" gradientTransform="translate(-384.57,504.56)" gradientUnits="userSpaceOnUse">
   <stop id="stop10" stop-color="#f39c12" offset="0"/>
   <stop id="stop12" stop-color="#f5ab35" offset="1"/>
  </linearGradient>
  <radialGradient id="a" cx="24" cy="1028.4" r="16" gradientTransform="matrix(1.8465 .00501 -.00501 1.847 -7.165 -1867.4)" gradientUnits="userSpaceOnUse">
   <stop id="stop15" stop-color="#f47750" offset="0"/>
   <stop id="stop17" stop-color="#fdbc4b" offset="1"/>
  </radialGradient>
  <filter id="d" x="-.036" y="-.036" width="1.072" height="1.072" color-interpolation-filters="sRGB">
   <feGaussianBlur id="feGaussianBlur20" stdDeviation="0.54"/>
  </filter>
  <linearGradient id="linearGradient876" x1="40.722" x2="56.884" y1="48.485" y2="48.485" gradientTransform="rotate(-1.9691 68.596 44.879)" gradientUnits="userSpaceOnUse">
   <stop id="stop870" stop-color="#ffc23e" offset="0"/>
   <stop id="stop872" stop-color="#ffe426" offset="1"/>
  </linearGradient>
  <filter id="filter1022" x="-.48021" y="-.28792" width="1.9604" height="1.5758" color-interpolation-filters="sRGB">
   <feGaussianBlur id="feGaussianBlur1024" stdDeviation="1.960462"/>
  </filter>
  <filter id="filter1292" x="-.6" y="-.6" width="2.2" height="2.2" color-interpolation-filters="sRGB">
   <feGaussianBlur id="feGaussianBlur1294" stdDeviation="0.40677965"/>
  </filter>
  <filter id="filter1367" x="-.52971" y="-.10842" width="2.0594" height="1.2168" color-interpolation-filters="sRGB">
   <feGaussianBlur id="feGaussianBlur1369" stdDeviation="0.3893889"/>
  </filter>
  <filter id="filter1397" x="-.080035" y="-.047987" width="1.1601" height="1.096" color-interpolation-filters="sRGB">
   <feGaussianBlur id="feGaussianBlur1399" stdDeviation="0.53821378"/>
  </filter>
 </defs>
 <circle id="circle25" transform="matrix(.062745 0 0 .062745 -.12549 -.12549)" cx="512" cy="512" r="478.12" filter="url(#c)" opacity=".25" stroke-width="15.938" style="paint-order:stroke markers fill"/>
 <g id="g39" transform="matrix(1.5 0 0 1.5 -4 -1510.5)" stroke-linejoin="round">
  <g id="g29" stroke-width=".33333">
   <circle id="circle27" cx="24" cy="1028.4" r="20" fill="url(#b)" stroke-width=".33333"/>
  </g>
  <g id="g37" stroke-width="1.9999">
   <path id="circle31" transform="matrix(.66667 0 0 .66667 2.6667 1007)" d="m32 5.0996a27 27 0 0 0-27 27 27 27 0 0 0 27 27 27 27 0 0 0 27-27 27 27 0 0 0-27-27zm0 20.9a6 6 0 0 1 6 6 6 6 0 0 1-6 6 6 6 0 0 1-6-6 6 6 0 0 1 6-6z" filter="url(#d)" opacity=".15" stroke-linecap="round"/>
   <path id="circle33" transform="matrix(.66667 0 0 .66667 2.6667 1007)" d="m32 5.0996a27 27 0 0 0-27 27 27 27 0 0 0 27 27 27 27 0 0 0 27-27 27 27 0 0 0-27-27zm0 20.9a6 6 0 0 1 6 6 6 6 0 0 1-6 6 6 6 0 0 1-6-6 6 6 0 0 1 6-6z" fill="url(#e)" stroke-linecap="round"/>
   <path id="path35" transform="matrix(.66667 0 0 .66667 2.6667 1007)" d="m32 8.0996c-4.5 0-7.5 3-7.5 3s1.7895 6.078 3 9c0.4933 1.1906 1.2713 2.7726 2.043 4.2969a8 8 0 0 1 2.457-0.39648 8 8 0 0 1 2.459 0.39258c0.77106-1.5231 1.5481-3.1034 2.041-4.293 1.2105-2.922 3-9 3-9s-3-3-7.5-3zm-9.5449 3.8457s-4.2443 1.41e-4 -7.4258 3.1816-3.1816 7.4277-3.1816 7.4277 5.5643 3.0302 8.4863 4.2422c1.2021 0.49807 2.8916 1.0713 4.5293 1.6074a8 8 0 0 1 3.4277-3.4883c-0.5321-1.6235-1.1004-3.2916-1.5938-4.4824-1.2105-2.922-4.2422-8.4883-4.2422-8.4883zm19.092 0s-3.0302 5.5663-4.2422 8.4883c-0.49357 1.1913-1.0615 2.8603-1.5938 4.4844a8 8 0 0 1 3.4316 3.4863c1.6366-0.53582 3.3242-1.1097 4.5254-1.6074 2.922-1.2105 8.4863-4.2422 8.4863-4.2422s-1.41e-4 -4.2462-3.1816-7.4277-7.4258-3.1816-7.4258-3.1816zm-30.545 12.654s-3 3-3 7.5 3 7.5 3 7.5 6.078-1.7895 9-3c1.2202-0.50557 2.8504-1.3092 4.4082-2.0996a8 8 0 0 1-0.41016-2.5 8 8 0 0 1 0.34961-2.3301c-1.5398-0.78034-3.1434-1.5714-4.3477-2.0703-2.922-1.2105-9-3-9-3zm42 0s-6.078 1.7895-9 3c-1.2059 0.49964-2.8138 1.2909-4.3555 2.0723a8 8 0 0 1 0.35352 2.3281 8 8 0 0 1-0.4082 2.5c1.558 0.79052 3.1897 1.5939 4.4102 2.0996 2.922 1.2105 9 3 9 3s3-3 3-7.5-3-7.5-3-7.5zm-28.053 11.166c-1.6637 0.54354-3.3901 1.1299-4.6133 1.6367-2.922 1.2105-8.4863 4.2422-8.4863 4.2422s1.41e-4 4.2443 3.1816 7.4258c3.1815 3.1815 7.4258 3.1816 7.4258 3.1816s3.0302-5.5643 4.2422-8.4863c0.51099-1.2333 1.1033-2.9781 1.6504-4.6543a8 8 0 0 1-3.4004-3.3457zm14.105 0a8 8 0 0 1-3.4004 3.3477c0.54691 1.6756 1.1396 3.4195 1.6504 4.6523 1.2105 2.922 4.2422 8.4863 4.2422 8.4863s4.2443-1.4e-4 7.4258-3.1816c3.1815-3.1815 3.1816-7.4258 3.1816-7.4258s-5.5643-3.0302-8.4863-4.2422c-1.2229-0.50668-2.9498-1.0933-4.6133-1.6367zm-4.6836 3.8672a8 8 0 0 1-2.3711 0.36719 8 8 0 0 1-2.373-0.36133c-0.79888 1.573-1.6137 3.227-2.125 4.4609-1.2105 2.922-3 9-3 9s3 3 7.5 3 7.5-3 7.5-3-1.7895-6.078-3-9c-0.51194-1.2356-1.331-2.892-2.1309-4.4668z" fill="url(#a)"/>
  </g>
 </g>
 <g id="g1406">
  <path id="path1371" d="m41.398 56.942c2.2393 6.9271 9.7831 7.5537 14.334 1.9513 4.5513-5.6024-2.4331-19.371-9.0595-23.145 1.8188 9.4561-7.5142 14.267-5.2749 21.194z" filter="url(#filter1397)" opacity=".25" stroke-width="2.0001"/>
  <path id="path10" d="m41.398 56.942c2.2393 6.9271 9.7831 7.5537 14.334 1.9513 4.5513-5.6024-2.4331-19.371-9.0595-23.145 1.8188 9.4561-7.5142 14.267-5.2749 21.194z" fill="url(#linearGradient876)" stroke-width="2.0001"/>
  <g fill="#fff">
   <path id="path878" transform="matrix(.62547 0 0 .62547 16.762 21.646)" d="m43.837 55.936c1.3595 4.2054 5.9392 4.5858 8.7023 1.1846 2.763-3.4012-1.9369-9.6136-3.8137-14.818-2.5748 5.7407-6.248 9.4276-4.8885 13.633z" filter="url(#filter1022)" opacity=".5" stroke-width="1.2142"/>
   <circle id="path1026" cx="54.747" cy="56.949" r=".81356" filter="url(#filter1292)" opacity=".5"/>
   <path id="rect1296" d="m53.518 46.253c0.20597-0.01575 0.40503 0.79555 0.4857 0.98572 1.6662 3.9276 1.3126 7.0286 1.3126 7.0286 0.02541 0.20501-0.30687 0.38448-0.51285 0.40024-0.20598 0.01576-0.37546-0.13827-0.40024-0.34336 0 0 0.65935-2.1427-0.95155-7.0882-0.16176-0.49662-0.13969-0.96722 0.06632-0.98298z" filter="url(#filter1367)" opacity=".5"/>
  </g>
 </g>
</svg>
