<svg xmlns="http://www.w3.org/2000/svg" xmlns:xlink="http://www.w3.org/1999/xlink" width="64" height="64"><defs><linearGradient xlink:href="#a" id="c" x1="82.026" x2="82.026" y1="144.83" y2="264.46" gradientTransform="translate(7.221)" gradientUnits="userSpaceOnUse"/><linearGradient id="a"><stop offset=".113" stop-color="#5668ea"/><stop offset=".608" stop-color="#0093b1"/><stop offset=".944" stop-color="#00a29f"/></linearGradient><linearGradient id="e" x1="143.69" x2="143.69" y1="22.804" y2="264.58" gradientUnits="userSpaceOnUse"><stop offset=".113" stop-color="#5869eb"/><stop offset=".608" stop-color="#0093b1"/><stop offset=".944" stop-color="#02a7a4"/></linearGradient><linearGradient xlink:href="#a" id="f" x1="82.026" x2="82.026" y1="144.83" y2="264.46" gradientTransform="translate(117.35)" gradientUnits="userSpaceOnUse"/><radialGradient id="d" cx="143.69" cy="143.69" r="152.73" gradientTransform="matrix(1 0 0 .85068 0 21.456)" gradientUnits="userSpaceOnUse"><stop offset=".259" stop-color="#00063b"/><stop offset="1" stop-color="#004256"/></radialGradient><radialGradient id="b" cx="32.001" cy="31.97" r="28.001" gradientTransform="scale(3.7796)" gradientUnits="userSpaceOnUse"><stop offset="0" stop-color="#002847"/><stop offset="1" stop-color="#1c1c1c"/></radialGradient></defs><rect width="60" height="60" x="2" y="2" fill="url(#b)" rx="30" ry="30"/><path fill="none" stroke="url(#c)" stroke-linecap="round" stroke-linejoin="round" stroke-width="9.809" d="M78.642 155.44v98.42a10.594 10.594 0 0 0 10.605 10.605c5.854 0 10.605-4.738 10.605-10.605v-98.42c0-5.856-4.75-10.605-10.605-10.605a10.6 10.6 0 0 0-10.605 10.605" transform="matrix(.14933 0 0 .14912 10.543 9.766)"/><path fill="url(#d)" stroke="url(#e)" stroke-linecap="round" stroke-linejoin="round" stroke-width="18.066" d="M29.456 264.58h23.351V147.73c.064-.56.166-1.119.166-1.693 0-50.412 40.69-91.42 90.698-91.42 50.002 0 90.692 41.008 90.692 91.42 0 .771.113 1.518.228 2.263v116.28h23.354c16.254 0 29.442-13.64 29.442-30.469v-60.936c0-13.878-8.989-25.57-21.261-29.249-1.129-66.971-55.608-121.12-122.45-121.12-66.86 0-121.35 54.158-122.46 121.15C8.961 147.64.005 159.322.005 173.189v60.926c0 16.819 13.187 30.469 29.456 30.469" transform="matrix(.14933 0 0 .14912 10.543 9.766)"/><path fill="none" d="M17.97 51.424c-3.885-1.77-1.734-4.582 4.648-6.249 2.15-.52 3.746-.764 6.52-.729 1.735.035 3.677.52 3.677.52 0-6.283-.07-18.156-.07-23.988.694 0 1.18-.035 2.151-.035v.903c0 .312 0 .486.07.694.693 2.187 1.665 3.055 6.52 5.728 6.174 3.437 7.978 5.486 7.978 8.228-.07 2.57-4.579 8.055-5.55 7.846 1.387-1.944 3.33-4.027 3.816-5.763.624-2.117-1.11-5.103-3.885-6.665-2.22-1.32-7.492-2.465-8.949-2.465 0 0-.07 12.637-.07 17.427 0 .799-1.456 2.222-2.288 2.708-3.816 2.292-11.238 3.333-14.568 1.84"/><path fill="none" stroke="url(#f)" stroke-linecap="round" stroke-linejoin="round" stroke-width="9.809" d="M188.77 155.44v98.42a10.594 10.594 0 0 0 10.605 10.605c5.854 0 10.605-4.738 10.605-10.605v-98.42c0-5.856-4.751-10.605-10.605-10.605a10.6 10.6 0 0 0-10.605 10.605" transform="matrix(.14933 0 0 .14912 10.543 9.766)"/></svg>