<svg id="SimpleNote" width="64" height="64" enable-background="new 0 0 1024 1024" image-rendering="optimizeSpeed" version="1.1" viewBox="0 0 64 64" xmlns="http://www.w3.org/2000/svg" xmlns:xlink="http://www.w3.org/1999/xlink">
 <defs>
  <linearGradient id="a" x1="32" x2="32" y1="1.9995" y2="61.999" gradientUnits="userSpaceOnUse">
   <stop stop-color="#2b3439" offset="0"/>
   <stop stop-color="#3f4e59" offset="1"/>
  </linearGradient>
  <filter id="c" x="-.036" y="-.036" width="1.072" height="1.072" color-interpolation-filters="sRGB">
   <feGaussianBlur stdDeviation="0.90000003"/>
  </filter>
  <filter id="b" x="-.059772" y="-.060229" width="1.1195" height="1.1205" color-interpolation-filters="sRGB">
   <feGaussianBlur stdDeviation="1.257454"/>
  </filter>
 </defs>
 <path d="m61.09 24.373c-0.06991-0.27649-0.14937-0.57205-0.23199-0.86444-0.06356-0.2161-0.12712-0.43539-0.20021-0.66742-0.1017-0.32734-0.2161-0.66741-0.33687-1.0075-0.40995-1.1599-0.89933-2.2914-1.4714-3.4102-0.24153-0.47036-0.5053-0.95026-0.78176-1.4237-1.2902-2.1928-2.911-4.2714-4.8528-6.2131-4.6144-4.6146-9.9878-7.4147-16.122-8.3935-1.0328-0.16526-2.0848-0.27966-3.1812-0.34006-0.61651-0.034959-1.2617-0.054026-1.9131-0.054026-0.59426 0-1.1822 0.01589-1.7733 0.047672-7.5223 0.38773-14.002 3.302-19.439 8.7396q-8.7869 8.7872-8.7869 21.213c0 8.2854 2.9301 15.359 8.7869 21.216 3.6038 3.6008 7.6621 6.0955 12.147 7.4719 2.3358 0.71505 4.7542 1.1346 7.2931 1.268h0.02542c0.54025 0.0286 1.0551 0.04449 1.5572 0.04449h0.19068c0.65468 0 1.303-0.01907 1.9131-0.05085 0.1589-0.0094 0.30191-0.01907 0.44173-0.0286 1.2839-0.09216 2.536-0.25743 3.7309-0.48942 0.50529-0.09851 1.0043-0.20975 1.4873-0.32735 5.1355-1.2902 9.6703-3.9154 13.643-7.8879 3.089-3.089 5.3644-6.5148 6.8231-10.284 1.1727-3.0287 1.821-6.2799 1.9417-9.7566 0.01271-0.38455 0.01907-0.77862 0.01907-1.1759v-0.19068c-0.01271-2.5837-0.31462-5.0532-0.90885-7.437z" filter="url(#c)" opacity=".25" stroke-width=".99684"/>
 <path d="m61.09 24.373c-0.06991-0.27649-0.14937-0.57205-0.23199-0.86444-0.06356-0.2161-0.12712-0.43539-0.20021-0.66742-0.1017-0.32734-0.2161-0.66741-0.33687-1.0075-0.40995-1.1599-0.89933-2.2914-1.4714-3.4102-0.24153-0.47036-0.5053-0.95026-0.78176-1.4237-1.2902-2.1928-2.911-4.2714-4.8528-6.2131-4.6144-4.6146-9.9878-7.4147-16.122-8.3935-1.0328-0.16526-2.0848-0.27966-3.1812-0.34006-0.61651-0.034959-1.2617-0.054026-1.9131-0.054026-0.59426 0-1.1822 0.01589-1.7733 0.047672-7.5223 0.38773-14.002 3.302-19.439 8.7396q-8.7869 8.7872-8.7869 21.213c0 8.2854 2.9301 15.359 8.7869 21.216 3.6038 3.6008 7.6621 6.0955 12.147 7.4719 2.3358 0.71505 4.7542 1.1346 7.2931 1.268h0.02542c0.54025 0.0286 1.0551 0.04449 1.5572 0.04449h0.19068c0.65468 0 1.303-0.01907 1.9131-0.05085 0.1589-0.0094 0.30191-0.01907 0.44173-0.0286 1.2839-0.09216 2.536-0.25743 3.7309-0.48942 0.50529-0.09851 1.0043-0.20975 1.4873-0.32735 5.1355-1.2902 9.6703-3.9154 13.643-7.8879 3.089-3.089 5.3644-6.5148 6.8231-10.284 1.1727-3.0287 1.821-6.2799 1.9417-9.7566 0.01271-0.38455 0.01907-0.77862 0.01907-1.1759v-0.19068c-0.01271-2.5837-0.31462-5.0532-0.90885-7.437z" fill="url(#a)" stroke-width=".99684"/>
 <g transform="matrix(.75262 0 0 .75838 13 12.855)" filter="url(#b)" opacity=".25" stroke-width="13.422">
  <g stroke-width="13.422">
   <g stroke-width="13.422">
    <g stroke-width="13.422">
     <path transform="matrix(1.5466,0,0,1.5466,-24.588,-24.977)" d="m30.955 16.273c-8.4053 0.50367-15.057 7.5767-15.057 16.201 0 8.951 7.3836 16.197 16.334 16.197 8.6846 0 15.898-7.0673 16.312-15.473h-3.8984c-0.41186 6.4656-5.7693 11.596-12.312 11.596-6.8115-6.47e-4 -12.557-5.527-12.557-12.338 0-6.4837 5.3587-11.787 11.178-12.285zm1.9414 0v3.8965c3.2328 0.20561 5.1376 1.2338 7.0508 2.8359l2.8496-2.75c-2.6263-2.2966-6.021-3.7632-9.9004-3.9824zm11.49 5.3066-2.7559 2.7383c1.6591 1.9009 2.7517 4.3552 2.998 6.9414h3.8926c-0.26121-3.8794-1.778-7.0676-4.1348-9.6797zm-4.959 3.6211-8.2168 5.0391 0.0078 0.0078c-0.78169 0.44031-1.3164 1.2671-1.3164 2.2266 0 1.4153 1.1491 2.5645 2.5645 2.5645 0.99441 0 1.8474-0.57213 2.2734-1.3984l0.0059 0.0059z" stroke-width="8.6784"/>
    </g>
   </g>
  </g>
 </g>
 <g transform="matrix(.75262 0 0 .75838 13 12.855)" fill="#333" stroke-width="13.422">
  <g fill="#333" stroke-width="13.422">
   <g fill="#333" stroke-width="13.422">
    <g fill="#333" stroke-width="13.422">
     <path transform="matrix(1.5466,0,0,1.5466,-24.588,-24.977)" d="m30.955 16.273c-8.4053 0.50367-15.057 7.5767-15.057 16.201 0 8.951 7.3836 16.197 16.334 16.197 8.6846 0 15.898-7.0673 16.312-15.473h-3.8984c-0.41186 6.4656-5.7693 11.596-12.312 11.596-6.8115-6.47e-4 -12.557-5.527-12.557-12.338 0-6.4837 5.3587-11.787 11.178-12.285zm1.9414 0v3.8965c3.2328 0.20561 5.1376 1.2338 7.0508 2.8359l2.8496-2.75c-2.6263-2.2966-6.021-3.7632-9.9004-3.9824zm11.49 5.3066-2.7559 2.7383c1.6591 1.9009 2.7517 4.3552 2.998 6.9414h3.8926c-0.26121-3.8794-1.778-7.0676-4.1348-9.6797zm-4.959 3.6211-8.2168 5.0391 0.0078 0.0078c-0.78169 0.44031-1.3164 1.2671-1.3164 2.2266 0 1.4153 1.1491 2.5645 2.5645 2.5645 0.99441 0 1.8474-0.57213 2.2734-1.3984l0.0059 0.0059z" fill="#fff" stroke-width="8.6784"/>
    </g>
   </g>
  </g>
 </g>
</svg>
