<svg xmlns="http://www.w3.org/2000/svg" width="64" height="64"><defs><filter id="c" width="1.069" height="1.076" x="-.034" y="-.038" color-interpolation-filters="sRGB"><feGaussianBlur stdDeviation="9.486"/></filter><filter id="a" width="1.072" height="1.072" x="-.036" y="-.036" color-interpolation-filters="sRGB"><feGaussianBlur stdDeviation=".96"/></filter><filter id="f" width="1.028" height="1.028" x="-.014" y="-.014" color-interpolation-filters="sRGB"><feGaussianBlur stdDeviation=".298"/></filter><filter id="g" width="1.059" height="1.059" x="-.03" y="-.03" color-interpolation-filters="sRGB"><feGaussianBlur stdDeviation=".298"/></filter><linearGradient id="b" x1="99.036" x2="99.036" y1="-.505" y2="199.84" gradientTransform="matrix(.32 0 0 .32 42.84 945.52)" gradientUnits="userSpaceOnUse"><stop offset="0" stop-color="#111D2E"/><stop offset=".212" stop-color="#051839"/><stop offset=".407" stop-color="#0A1B48"/><stop offset=".581" stop-color="#132E62"/><stop offset=".738" stop-color="#144B7E"/><stop offset=".873" stop-color="#136497"/><stop offset="1" stop-color="#1387B8"/></linearGradient><linearGradient id="d" x1="429.07" x2="429.07" y1="14.723" y2="1034.7" gradientTransform="translate(1.365 -1.384)scale(.06376)" gradientUnits="userSpaceOnUse"><stop offset="0" stop-color="#fff"/><stop offset="1" stop-color="#d7d7d7"/></linearGradient><linearGradient id="e" x1="540" x2="540" y1="452.36" y2="632.36" gradientTransform="translate(39.915 940.59)scale(.06828)" gradientUnits="userSpaceOnUse"><stop offset="0" stop-color="#d7d7d7"/><stop offset="1" stop-color="#fff"/></linearGradient></defs><g stroke-width="1.067" transform="translate(-38.162 -884.43)scale(.9375)"><circle cx="74.84" cy="977.52" r="32" filter="url(#a)" opacity=".25"/><circle cx="74.84" cy="977.52" r="32" fill="url(#b)"/><path d="M579.8 333.51c-98.164 0-178.02 79.989-178.02 178.31 0 .789-.001 1.576.04 2.316l-114.69 166.61c-18.58-.844-37.222 2.416-54.899 9.698-7.793 3.178-15.096 7.08-21.947 11.586l-114.63-47.19a512 512 0 0 0 135.37 215.84l18.438 7.641c37.67 15.69 80.885-2.171 96.543-39.828 15.706-37.697-2.111-80.986-39.76-96.676l-59.908-24.822c23.117-8.77 49.396-9.093 73.95 1.125 24.753 10.3 43.96 29.692 54.138 54.475s10.14 52.14-.16 76.842c-16.351 39.257-54.783 62.67-94.867 61.801a512 512 0 0 0 37.207 24.936c37.048-10.388 69.173-37.032 85.057-75.23 7.161-17.299 10.5-35.445 10.018-53.549l164.1-117.27c1.328.04 2.696.08 4.023.08 98.205 0 178.02-80.06 178.02-178.38 0-98.325-79.819-178.31-178.02-178.31zm0 59.516c65.416 0 118.64 53.322 118.64 118.8 0 65.529-53.226 118.83-118.64 118.83-65.376 0-118.6-53.305-118.6-118.83 0-65.476 53.226-118.8 118.6-118.8m.201 29.34c-49.163 0-89.072 39.982-89.072 89.277 0 49.299 39.91 89.246 89.072 89.246 49.203 0 89.111-39.947 89.111-89.246 0-49.295-39.908-89.277-89.11-89.277z" filter="url(#c)" opacity=".2" transform="translate(40.059 940.71)scale(.06801)"/><path fill="url(#d)" d="M33.811 20.67c-6.26 0-11.35 5.1-11.35 11.369q0 .076.002.148L15.15 42.81a8.2 8.2 0 0 0-3.5.618 8 8 0 0 0-1.4.738L3.555 41.41a30 30 0 0 0 10.078 14.266 4.706 4.706 0 0 0 5.271-2.807 4.716 4.716 0 0 0-2.535-6.166l-3.82-1.582a6.35 6.35 0 0 1 4.715.073 6.35 6.35 0 0 1 3.453 3.472 6.38 6.38 0 0 1-.012 4.9c-.85 2.042-2.641 3.394-4.658 3.8a30 30 0 0 0 2.205 1.27 8.25 8.25 0 0 0 4.201-4.337c.457-1.103.67-2.26.639-3.414l10.463-7.477q.127.004.256.004c6.261 0 11.352-5.104 11.352-11.373S40.073 20.67 33.811 20.67m0 3.795c4.171 0 7.566 3.4 7.566 7.574 0 4.178-3.395 7.578-7.566 7.578-4.168 0-7.56-3.4-7.56-7.578 0-4.175 3.392-7.574 7.56-7.574m.014 1.871a5.687 5.687 0 0 0-5.68 5.691c0 3.144 2.545 5.692 5.68 5.692a5.687 5.687 0 0 0 5.681-5.692 5.687 5.687 0 0 0-5.681-5.691" transform="translate(40.707 943.39)scale(1.0667)"/><circle cx="76.767" cy="977.56" r="5.093" fill="url(#e)" style="paint-order:stroke markers fill"/></g><path fill="#fff" d="M10.787 10.787a29.934 29.934 0 0 0 0 42.426c.119.119.242.23.362.345-11.4-11.775-11.288-30.43.345-42.065S41.784-.25 53.56 11.148c-.116-.12-.227-.243-.345-.362a29.934 29.934 0 0 0-42.426 0z" filter="url(#f)" opacity=".25"/><path fill="#fff" d="M37.435 61.526c5.772-1.063 11.297-3.831 15.779-8.313s7.25-10.007 8.313-15.779c-1.592 5.434-4.606 10.657-9.02 15.072s-9.639 7.428-15.072 9.02" filter="url(#g)" opacity=".25"/></svg>