<svg width="64" height="64" version="1.1" xmlns="http://www.w3.org/2000/svg" xmlns:xlink="http://www.w3.org/1999/xlink">
 <defs>
  <linearGradient id="linearGradient1108" x1="-13.304" x2="-13.304" y1=".52926" y2="15.329" gradientTransform="matrix(3.7796,0,0,3.7796,82.284,0)" gradientUnits="userSpaceOnUse">
   <stop stop-color="#a72714" offset="0"/>
   <stop stop-color="#e43d25" offset="1"/>
  </linearGradient>
  <filter id="a-2" x="-.036" y="-.036" width="1.072" height="1.072" color-interpolation-filters="sRGB">
   <feGaussianBlur stdDeviation="14.16"/>
  </filter>
 </defs>
 <path transform="matrix(.06356 0 0 .06356 -.542 -.542)" d="m969.7 392c-1.1-4.35-2.35-9-3.65-13.6-2.5-8.75-5.35-17.6-8.45-26.35-6.45-18.25-14.15-36.05-23.15-53.65-3.8-7.4-7.95-14.95-12.3-22.4h-0.025q-30.601-52.01-76.325-97.75c-92.15-92.15-203.45-138.25-333.8-138.25s-241.6 46.1-333.75 138.25-138.25 203.4-138.25 333.75 46.1 241.65 138.25 333.8c68.05 68.05 146.5 110.95 234.9 128.65 31.95 6.4 64.75 9.55 98.85 9.55 130.35 0 241.65-46.05 333.8-138.2 48.6-48.6 84.4-102.5 107.35-161.8 17-43.95 27-90.8 29.95-140.75 0.6-10.2 0.9-20.65 0.9-31.25 0-41.75-4.7-81.6-14.3-120z" filter="url(#a-2)" opacity=".25"/>
 <path d="m61.091 24.373a28.41 28.41 0 0 0-2.24-5.95c-0.242-0.47-0.506-0.95-0.782-1.423h-2e-3q-1.945-3.306-4.851-6.213c-5.857-5.857-12.931-8.787-21.216-8.787s-15.356 2.93-21.213 8.787-8.787 12.928-8.787 21.213 2.93 15.36 8.787 21.216c4.325 4.325 9.311 7.052 14.93 8.177 2.03 0.407 4.115 0.607 6.283 0.607 8.285 0 15.359-2.927 21.216-8.784 3.089-3.089 5.364-6.515 6.823-10.284 1.08-2.793 1.716-5.771 1.904-8.946 0.038-0.648 0.057-1.312 0.057-1.986 0-2.654-0.299-5.187-0.91-7.627z" fill="url(#linearGradient1108)"/>
 <path d="M42.263 16.939c-.219.006-.443.035-.652.01-2.269.008-4.541-.015-6.807.013l-.197.051c-.352.209-.297.716.025.926L46.1 29.406c.327.324.908.024.858-.426.099-2.523.047-5.05.068-7.574-.073-.462-.553-.69-.824-1.033-1.109-1.097-2.198-2.22-3.319-3.301-.186-.12-.4-.139-.619-.133zm-22.131.205a.529.529 0 0 0-.11.002c-.486.144-.805.595-1.19.902-.578.556-1.182 1.097-1.714 1.692-.292.408.19.775.424 1.072l15.355 18.031c.55.356 1.206.518 1.795.807.275.145.626.225.842.435.283.871.421 1.79.72 2.65 1.1 1.382 2.265 2.72 3.39 4.085.35.32.867.125 1.296.177 1.462-.021 2.93.034 4.387-.084.508-.086.438-.694.515-1.08.36-2.667.78-5.327 1.082-8.002.086-.661-.56-1.037-.994-1.402-4.63-3.59-9.333-7.084-14.008-10.615-3.71-2.776-7.388-5.595-11.133-8.326-.204-.13-.41-.321-.658-.344zM17.556 34.41a.553.553 0 0 0-.35.121c-.28.364-.152.862-.201 1.293-.026 2.255-.04 4.515-.02 6.768.093.434.55.654.811.986 1.109 1.097 2.197 2.22 3.318 3.3.373.241.853.073 1.272.124 2.268-.008 4.541.014 6.807-.014.45-.023.595-.655.238-.908L17.898 34.545a.544.544 0 0 0-.342-.135z" fill="#fff"/>
</svg>
