<?xml version="1.0" encoding="UTF-8"?>
<svg width="64" height="64" version="1" xmlns="http://www.w3.org/2000/svg">
 <defs>
  <linearGradient id="linearGradient862-3-5" x1="7.9373" x2="7.9373" y1="15.081" y2="1.852" gradientTransform="matrix(4.0494,0,0,4.0494,-2.2856,-2.2519)" gradientUnits="userSpaceOnUse">
   <stop stop-color="#f1efeb" offset="0"/>
   <stop stop-color="#fdfcfc" offset="1"/>
  </linearGradient>
  <filter id="filter7" x="-.027" y="-.027" width="1.054" height="1.054" color-interpolation-filters="sRGB">
   <feGaussianBlur stdDeviation="0.675"/>
  </filter>
 </defs>
 <rect x="2" y="3" width="60" height="60" rx="30" ry="30" filter="url(#filter7)" opacity=".15"/>
 <rect x="2" y="2" width="60" height="60" rx="30" ry="30" fill="url(#linearGradient862-3-5)" stroke-width="4.0494"/>
 <g transform="matrix(.66667 0 0 .66667 10.667 10.667)">
  <path d="m34.802 10.001c-0.57498-0.00768-1.3169 0.05057-2.3294 0.16359-7.168 0.80013-13.148 5.4371-19.988 15.498-2.0654 3.0377-4.72 6.9393-5.8989 8.6705-4.9663 7.2929-4.7524 14.777 0.51244 17.924 3.4027 2.0341 6.6907 2.8406 11.896 2.9197 2.6162 0.03974 6.4466 0.23516 8.512 0.43392 5.7626 0.55457 6.4841 0.54165 10.54-0.19652 4.5397-0.82616 8.0417-2.5467 10.854-5.3308 2.2082-2.1859 5.3615-8.2366 5.8559-10.882 4.1412-12.864-10.503-28.549-19.954-29.2z" fill="#dc3a2d"/>
  <path d="m37.265 7.9999c-0.26635 0-0.34353 0.51259-0.17936 1.1895 0 0 0.47196 2.1599 3.6386 3.7419 2.2025 1.0284 2.1985 1.6227-0.0146 2.2393-0.96441 0.26873-2.1365 0.7784-2.6042 1.1323-0.7714 0.58371-0.48986 0.82442 3.029 2.5955 2.1336 1.0739 4.2746 2.2657 4.7573 2.6489 0.838 0.66538 0.79979 0.75858-0.83515 2.049-1.8252 1.4406-3.9846 4.8087-3.9846 6.2146 0 0.76007 0.35627 0.82182 3.3624 0.58209 1.8493-0.14746 3.8841-0.33309 4.5218-0.41243l1.1594-0.14436-0.16576 3.8234c-0.09104 2.1027-0.35745 4.3463-0.5924 4.9857-0.23494 0.63946-0.33284 1.2603-0.21739 1.3798 0.48605 0.50298 2.4688-0.60716 3.8288-2.1437 1.3904-1.5709 1.4788-1.6032 1.7745-0.63927 0.99562 1.728 1.4363 3.2417 2.9812 4.756 0.34498 0.03202 0.60821-0.38469 0.82955-1.2437 0.68142-2.6447 0.31641-5.2046-1.1187-7.8484-0.77332-1.4246-1.5308-3.6697-1.6839-4.9895-0.15312-1.3198-0.40532-2.855-0.55979-3.4119-0.23473-0.84626 0.22045-1.3402 2.7709-3.007 2.904-1.8979 3.6535-2.9776 2.5553-3.68-0.27287-0.17452-1.7102 0.35285-3.1948 1.1717-1.4846 0.81883-2.9912 1.4885-3.3479 1.4885-0.35666 0-1.4759-1.0251-2.4864-2.2778-1.7563-2.177-1.837-2.4259-1.837-5.6391 0-3.0531-0.08958-3.3745-0.97736-3.5057-0.71756-0.10601-1.1332 0.24491-1.5634 1.3198-0.32234 0.8053-0.74874 1.4641-0.94747 1.4641-0.19874 0-2.177-0.86386-4.3959-1.9197-2.2188-1.0558-4.2453-1.9197-4.5026-1.9197z" fill="#75ac4c"/>
  <g fill="#b4291e">
   <path d="m31.692 25.069c-1.1539 1.154-2.9313 1.2475-3.9699 0.20894-1.0386-1.0386-0.94501-2.8159 0.20894-3.9699 1.154-1.154 3.5188-1.835 4.5574-0.79641 1.0386 1.0386 0.35754 3.4034-0.79641 4.5574z"/>
   <path d="m27.692 35.069c-1.154 1.154-2.9313 1.2475-3.9699 0.20894-1.0386-1.0386-0.94501-2.8159 0.20894-3.9699 1.154-1.154 3.5188-1.835 4.5574-0.79641 1.0386 1.0386 0.35754 3.4034-0.79642 4.5574z"/>
   <path d="m41.692 41.069c-1.154 1.1539-2.9313 1.2475-3.9699 0.20894-1.0386-1.0386-0.94501-2.8159 0.20894-3.9699 1.154-1.154 3.5188-1.835 4.5574-0.79641 1.0386 1.0386 0.35754 3.4034-0.79641 4.5574z"/>
   <path d="m37.692 51.069c-1.154 1.154-2.9313 1.2475-3.9699 0.20894-1.0386-1.0386-0.94501-2.8159 0.20894-3.9699 1.154-1.154 3.5188-1.835 4.5574-0.79641 1.0386 1.0386 0.35754 3.4034-0.79641 4.5574z"/>
   <path d="m25.692 49.069c-1.154 1.154-2.9313 1.2475-3.9699 0.20894-1.0386-1.0386-0.94501-2.8159 0.20894-3.9699 1.154-1.154 3.5188-1.835 4.5574-0.79641 1.0386 1.0386 0.35754 3.4034-0.79641 4.5574z"/>
   <path d="m13.692 45.069c-1.154 1.154-2.9313 1.2475-3.9699 0.20894-1.0386-1.0386-0.94501-2.8159 0.20894-3.9699 1.154-1.154 3.5188-1.835 4.5574-0.79641 1.0386 1.0386 0.35754 3.4034-0.79641 4.5574z"/>
   <path d="m17.692 33.069c-1.154 1.154-2.9313 1.2475-3.9699 0.20894-1.0386-1.0386-0.94501-2.8159 0.20894-3.9699 1.154-1.1539 3.5188-1.835 4.5574-0.79641 1.0386 1.0386 0.35754 3.4034-0.79641 4.5574z"/>
  </g>
 </g>
</svg>
