<svg xmlns="http://www.w3.org/2000/svg" xmlns:xlink="http://www.w3.org/1999/xlink" width="64" height="64"><defs><linearGradient xlink:href="#a" id="f" x1="24" x2="24" y1="35" y2="13" gradientTransform="matrix(3.0643 -10.246 8.6729 3.545 33.829 47.979)" gradientUnits="userSpaceOnUse"/><linearGradient id="c" x1="31.981" x2="31.981" y1="1.978" y2="61.975" gradientTransform="translate(-117.83 8.678)" gradientUnits="userSpaceOnUse"><stop offset="0" stop-color="#172525"/><stop offset="1" stop-color="#536161"/></linearGradient><filter id="b" width="1.072" height="1.072" x="-.036" y="-.036" color-interpolation-filters="sRGB"><feGaussianBlur stdDeviation=".89"/></filter><filter id="e" width="1.103" height="1.144" x="-.051" y="-.072" color-interpolation-filters="sRGB"><feGaussianBlur stdDeviation=".571"/></filter></defs><linearGradient id="d" x1="23" x2="37" y1="20" y2="34" gradientTransform="translate(-65.492 8.678)" gradientUnits="userSpaceOnUse"><stop offset="0" stop-color="#292c2f"/><stop offset="1" stop-opacity="0"/></linearGradient><linearGradient id="a" x1="24" x2="24" y1="35" y2="13" gradientTransform="matrix(2.0429 -6.8309 5.7819 2.3633 25.219 34.653)" gradientUnits="userSpaceOnUse"><stop offset="0" stop-color="#23a2cd"/><stop offset=".53" stop-color="#00b8f5"/><stop offset="1" stop-color="#2ecbff"/></linearGradient><rect width="59.315" height="59.315" x="386.85" y="486.31" filter="url(#b)" opacity=".25" ry="29.657" transform="translate(-389.32 -489.92)scale(1.0115)"/><rect width="59.997" height="59.997" x="1.983" y="1.978" fill="url(#c)" ry="29.998"/><path fill="url(#d)" d="m-48.192 41.738 9.94 9.94h16.76v-9.5l-9.5-9.5-2.967 2.967h-5.632z" filter="url(#e)" opacity=".4" transform="matrix(1.5 0 0 1.5 94.237 -17.017)"/><path fill="url(#f)" d="M31.509 35.902 17.15 25.732l4.8-7.32 14.359 10.17z" opacity=".612"/><path fill="url(#f)" d="M32.283 27.55H43.3L47.75 32l-4.45 4.451h-8.447l-12.903 9.14-4.8-7.321L26 32z"/></svg>