<svg id="Mplayer" width="64" height="64" enable-background="new 0 0 1024 1024" image-rendering="optimizeSpeed" version="1.1" viewBox="0 0 64 64" xmlns="http://www.w3.org/2000/svg" xmlns:xlink="http://www.w3.org/1999/xlink">
 <defs>
  <filter id="d" x="-.036" y="-.036" width="1.072" height="1.072" color-interpolation-filters="sRGB">
   <feGaussianBlur stdDeviation="14.16"/>
  </filter>
  <linearGradient id="f" x1="-20.542" x2="-23.085" y1="40.856" y2="43.297" gradientTransform="matrix(1.9136 0 0 1.9136 130.67 12.607)" gradientUnits="userSpaceOnUse">
   <stop stop-color="#a9a9a9" offset="0"/>
   <stop stop-color="#a9a9a9" stop-opacity="0" offset="1"/>
  </linearGradient>
  <linearGradient id="h" x1="-59.612" x2="-43.792" y1="51.186" y2="51.186" gradientTransform="matrix(1.9136 0 0 1.9136 130.67 12.607)" gradientUnits="userSpaceOnUse" xlink:href="#a"/>
  <linearGradient id="a">
   <stop stop-color="#ffd700" offset="0"/>
   <stop stop-color="#998100" offset="1"/>
  </linearGradient>
  <linearGradient id="e" x1="228.81" x2="228.81" y1="611.18" y2="614.41" gradientTransform="matrix(2.0324 0 0 2.0324 -383.73 -1215.5)" gradientUnits="userSpaceOnUse" xlink:href="#a"/>
  <linearGradient id="j" x1="-46.135" x2="-43.234" y1="23.19" y2="22.645" gradientTransform="matrix(1.9136 0 0 1.9136 130.67 12.607)" gradientUnits="userSpaceOnUse">
   <stop stop-color="#232323" offset="0"/>
   <stop stop-color="#232323" stop-opacity="0" offset="1"/>
  </linearGradient>
  <linearGradient id="i" x1="-23.465" x2="-12.07" y1="44.578" y2="44.578" gradientTransform="matrix(1.9136 0 0 1.9136 130.67 12.607)" gradientUnits="userSpaceOnUse" xlink:href="#a"/>
  <linearGradient id="g" x1="-27.665" x2="-26.186" y1="26.67" y2="36.636" gradientTransform="matrix(1.9136 0 0 1.9136 130.59 13.326)" gradientUnits="userSpaceOnUse">
   <stop stop-color="#fdfdfd" offset="0"/>
   <stop stop-color="#a6a6a6" offset="1"/>
  </linearGradient>
  <linearGradient id="c" x1="32" x2="32" y1="2" y2="62" gradientUnits="userSpaceOnUse">
   <stop stop-color="#fdfdfd" offset="0"/>
   <stop stop-color="#dcdcdc" offset="1"/>
  </linearGradient>
  <linearGradient id="b" x1="32" x2="32" y1="2" y2="62" gradientTransform="matrix(.83333 0 0 .83333 5.3333 5.3332)" gradientUnits="userSpaceOnUse">
   <stop stop-color="#bbdfff" offset="0"/>
   <stop stop-color="#47a6ff" offset="1"/>
  </linearGradient>
  <filter id="k" x="-.070164" y="-.052408" width="1.1403" height="1.1048" color-interpolation-filters="sRGB">
   <feGaussianBlur stdDeviation="2.693051"/>
  </filter>
 </defs>
 <path transform="matrix(.063559 0 0 .063559 -.54555 -.54555)" d="m929.85 289.65c-2.35-4.35-4.95-9-7.65-13.6-20.3-34.5-45.8-67.2-76.35-97.75-72.6-72.6-157.15-116.65-253.65-132.05-16.25-2.6-32.8-4.4-50.05-5.35-9.7-0.55-19.85-0.85-30.1-0.85-9.35 0-18.6 0.25-27.9 0.75-118.35 6.1-220.3 51.95-305.85 137.5-20.5 20.5-38.75 41.95-54.7 64.4-15.35 21.55-28.55 44-39.6 67.2l-0.025-0.025q-43.925 91.998-43.925 202.18c0 130.35 46.1 241.65 138.25 333.8 56.7 56.65 120.55 95.9 191.1 117.55 36.75 11.25 74.8 17.85 114.75 19.95h0.4c8.5 0.45 16.6 0.7 24.5 0.7h3c10.3 0 20.5-0.3 30.1-0.8 2.5-0.15 4.75-0.3 6.95-0.45 20.2-1.45 39.9-4.05 58.7-7.7 7.95-1.55 15.8-3.3 23.4-5.15 80.8-20.3 152.15-61.6 214.65-124.1 48.6-48.6 84.4-102.5 107.35-161.8 18.45-47.65 28.65-98.8 30.55-153.5 0.2-6.05 0.3-12.25 0.3-18.5v-3c-0.2-40.65-4.95-79.5-14.3-117-1.1-4.35-2.35-9-3.65-13.6-1-3.4-2-6.85-3.15-10.5-1.6-5.15-3.4-10.5-5.3-15.85-5.05-14.25-10.85-28.25-17.45-42.15-1.85-3.8-3.75-7.65-5.7-11.5-1.45-2.85-2.95-5.7-4.65-8.8z" filter="url(#d)" opacity=".25" stroke-width="15.683"/>
 <path d="m58.555 17.864c-0.14936-0.27648-0.31462-0.57203-0.48623-0.86441-1.2903-2.1928-2.911-4.2712-4.8527-6.2129-4.6144-4.6144-9.9883-7.4142-16.122-8.393-1.0328-0.16525-2.0847-0.27966-3.1811-0.34004-0.61652-0.034958-1.2617-0.054025-1.9131-0.054025-0.59428 0-1.1822 0.01589-1.7733 0.047669-7.5222 0.38771-14.002 3.3019-19.44 8.7394-1.303 1.303-2.4629 2.6663-3.4767 4.0932-0.97563 1.3697-1.8146 2.7966-2.5169 4.2712l-0.00159-0.0016q-2.7918 5.8473-2.7918 12.85c0 8.2849 2.9301 15.359 8.7871 21.216 3.6038 3.6006 7.6621 6.0953 12.146 7.4714 2.3358 0.71504 4.7542 1.1345 7.2934 1.268h0.02542c0.54025 0.0286 1.0551 0.04449 1.5572 0.04449h0.19068c0.65466 0 1.303-0.01907 1.9131-0.05085 0.1589-0.0095 0.30191-0.01907 0.44174-0.0286 1.2839-0.09216 2.536-0.25742 3.7309-0.48941 0.5053-0.09852 1.0042-0.20975 1.4873-0.32733 5.1356-1.2903 9.6705-3.9152 13.643-7.8877 3.089-3.089 5.3644-6.5148 6.8231-10.284 1.1727-3.0286 1.821-6.2797 1.9417-9.7563 0.01271-0.38453 0.01907-0.7786 0.01907-1.1758v-0.19068c-0.01271-2.5837-0.31462-5.053-0.9089-7.4364-0.06991-0.27648-0.14936-0.57203-0.23199-0.86441-0.06356-0.2161-0.12712-0.43538-0.20021-0.66737-0.1017-0.32733-0.2161-0.66737-0.33686-1.0074-0.32097-0.90572-0.68962-1.7955-1.1091-2.679-0.11758-0.24152-0.23835-0.48623-0.36229-0.73093-0.09216-0.18114-0.1875-0.36229-0.29555-0.55932z" fill="url(#c)" stroke-width=".9968"/>
 <path d="m54.129 20.22c-0.12447-0.2304-0.26218-0.4767-0.40519-0.72034-1.0752-1.8273-2.4258-3.5593-4.044-5.1774-3.8453-3.8453-8.3236-6.1785-13.435-6.9942-0.8607-0.13771-1.7373-0.23305-2.651-0.28337-0.51377-0.029131-1.0514-0.045021-1.5943-0.045021-0.49523 0-0.98517 0.013241-1.4778 0.039724-6.2685 0.32309-11.668 2.7516-16.2 7.2828-1.0858 1.0858-2.0524 2.2219-2.8972 3.411-0.81303 1.1414-1.5122 2.3305-2.0975 3.5593l-0.00133-0.0013q-2.3265 4.8728-2.3265 10.709c0 6.9041 2.4417 12.799 7.3226 17.68 3.0032 3.0005 6.3851 5.0794 10.122 6.2262 1.9465 0.59587 3.9619 0.94545 6.0779 1.0567h0.02118c0.45021 0.02383 0.87924 0.03708 1.2977 0.03708h0.1589c0.54555 0 1.0858-0.01589 1.5943-0.04238 0.13242-0.0079 0.25159-0.01589 0.36811-0.02383 1.0699-0.0768 2.1133-0.21451 3.1091-0.40784 0.42108-0.0821 0.83686-0.17479 1.2394-0.27278 4.2797-1.0752 8.0588-3.2627 11.369-6.5731 2.5742-2.5742 4.4703-5.429 5.6859-8.5699 0.97722-2.5238 1.5175-5.2331 1.6181-8.1303 0.01059-0.32044 0.01589-0.64883 0.01589-0.97987v-0.1589c-0.01059-2.1531-0.26218-4.2108-0.75742-6.197-0.05826-0.2304-0.12447-0.4767-0.19333-0.72034-0.05297-0.18008-0.10593-0.36282-0.16684-0.55614-0.08475-0.27278-0.18008-0.55614-0.28072-0.83951-0.26748-0.75477-0.57468-1.4963-0.92426-2.2325-0.09799-0.20127-0.19862-0.40519-0.30191-0.60911-0.0768-0.15095-0.15625-0.30191-0.24629-0.4661z" fill="url(#b)" stroke-width=".9968"/>
 <g transform="matrix(.31891 0 0 .31891 11.361 11.83)" fill-rule="evenodd" filter="url(#k)" opacity=".15" stroke-width="3.1356">
  <path d="m67.711 75.562 27.105 17.889-3.9472 9.4526s-22.457-18.01-23.158-27.342z"/>
  <path d="m70.922 44.522c10.119-6.9085 25.038-18.756 26.661-24.131 1.5568-5.157 7.9788-4.184 6.5192 1.6541-1.4595 5.8381-9.4383 28.899-21.99 44.272"/>
  <path d="m19.741 96.774c5.7276-1.6827 8.9312-8.287 13.123-12.422 7.5972 6.9739 47.152 20.382 26.592 20.724-10.565-0.60837-16.712 5.1289-22.468 9.8089z"/>
  <path d="m63.926 1.3936c-14.999 0.27521-19.953 11.697-19.953 17.338 0 5.6418 1.8528 17.369-2.6882 25.075-3 5.0909-12.506 17.156-15.201 28.454-2.6918 11.284-0.5898 35.09 30.686 35.64 32.2 0.5667 29.987 7.4462 29.987 7.4462l11.426-21.827c-2.9874-1.4276-7.559-3.5928-7.3693-3.9949 5.7423-12.173-9.6305-34.804-12.52-43.611-2.8897-8.8068 0.50726-10.985 2.8466-16.352 2.3393-5.3666 3.2887-28.169-17.215-28.169z"/>
  <path d="m21.681 97.167c-2.8338-2.2663-5.2668 0.87212-3.5708 3.8904 1.6959 3.0183 16.163 17.54 20.318 22.117 4.1554 4.577 11.389-2.1056 4.8594-5.8727-6.53-3.7672-18.773-17.869-21.607-20.135z"/>
  <path d="m25.559 84.486c1.1778 4.5147-4.3624 9.9275-7.3208 12.713-3.848 3.623 0.09814 5.5943 1.374 5.4962 1.2759-0.098 10.762-3.5283 18.123 0.59382"/>
  <path d="m73.131 11.339c-4.3047-0.04908-7.3074 4.8429-5.0583 10.6 1.2891 3.2999 9.7658 3.1187 10.304-0.31985 0.91782-5.8643-0.98737-10.232-5.2456-10.28z"/>
  <path d="m72.761 17.291a3.0383 3.6858 0 0 1 4.2911-0.0079 3.0383 3.6858 0 0 1 0.0172 5.2055 3.0383 3.6858 0 0 1-4.291 0.03461 3.0383 3.6858 0 0 1-0.03996-5.2053"/>
  <path d="m81.463 33.036c2.722 0.09066 18.873-3.0849 19.054-5.3533 0.1815-2.2683-11.342-3.3571-13.61-4.3552-2.2683-0.99808-13.293-3.9419-13.156 3.4479 0.13679 7.3897 4.9903 6.1699 7.7123 6.2606z"/>
  <path d="m77.324 28.802c5.7413 1.2468 12.703 1.6684 16.553 1.0265" stroke="#ae9300" stroke-width="3.1865"/>
  <path d="m81.463 33.036c2.722 0.09066 18.873-3.0849 19.054-5.3533 0.1815-2.2683-11.342-3.3571-13.61-4.3552-2.2683-0.99808-13.293-3.9419-13.156 3.4479 0.13679 7.3897 4.9903 6.1699 7.7123 6.2606z"/>
  <path d="m45.836 40.168c-13.512 11.442-34.729 38.79-30.485 41.45 3.6603 2.2934 25.475-16.621 34.7-18.55"/>
  <path d="m40.553 45.162c-8.5567 9.0667-20.773 23.461-24.625 31.264-3.8024 6.0179 0.59632 8.2634 5.7525 3.3262 7.0031-3.8669 17.5-13.044 24.381-14.483"/>
  <path d="m98.64 83.661c0.38197-5.4526 8.0186-6.3586 7.9702 0.31266-0.0551 7.5879-10.331 25.947-14.2 30.532-3.7284 4.4181-7.4315 0.96274-4.8162-3.3026 2.6141-4.2634 10.531-20.19 11.046-27.542z"/>
  <path d="m79.603 53.117c-2.5927-1.1498-3.508 5.5639-5.6634 8.7006-2.5967 3.7789-5.0985 7.4165-3.187 13.392l19.755 13.712c2.5476-10.027-4.2838-24.627-10.905-35.805z"/>
  <path d="m74.133 16.97a1.0355 0.65911 0 0 1 1.4624-0.0012 1.0355 0.65911 0 0 1 0.0058 0.93088 1.0355 0.65911 0 0 1-1.4624 0.0062 1.0355 0.65911 0 0 1-0.0136-0.93085"/>
 </g>
 <g transform="matrix(.31891 0 0 .31891 11.361 11.83)" stroke-width="3.1356">
  <path d="m67.711 75.562 27.105 17.889-3.9472 9.4526s-22.457-18.01-23.158-27.342z" fill="url(#f)" fill-rule="evenodd"/>
  <path d="m70.922 44.522c10.119-6.9085 25.038-18.756 26.661-24.131 1.5568-5.157 7.9788-4.184 6.5192 1.6541-1.4595 5.8381-9.4383 28.899-21.99 44.272" fill="#181818" fill-rule="evenodd"/>
  <path d="m19.741 96.774c5.7276-1.6827 8.9312-8.287 13.123-12.422 7.5972 6.9739 47.152 20.382 26.592 20.724-10.565-0.60837-16.712 5.1289-22.468 9.8089z" fill="#181818" fill-rule="evenodd"/>
  <path d="m63.926 1.3936c-14.999 0.27521-19.953 11.697-19.953 17.338 0 5.6418 1.8528 17.369-2.6882 25.075-3 5.0909-12.506 17.156-15.201 28.454-2.6918 11.284-0.5898 35.09 30.686 35.64 32.2 0.5667 29.987 7.4462 29.987 7.4462l11.426-21.827c-2.9874-1.4276-7.559-3.5928-7.3693-3.9949 5.7423-12.173-9.6305-34.804-12.52-43.611-2.8897-8.8068 0.50726-10.985 2.8466-16.352 2.3393-5.3666 3.2887-28.169-17.215-28.169z" fill="#232323" fill-rule="evenodd"/>
  <path d="m21.681 97.167c-2.8338-2.2663-5.2668 0.87212-3.5708 3.8904 1.6959 3.0183 16.163 17.54 20.318 22.117 4.1554 4.577 11.389-2.1056 4.8594-5.8727-6.53-3.7672-18.773-17.869-21.607-20.135z" fill="url(#h)" fill-rule="evenodd"/>
  <path d="m25.559 84.486c1.1778 4.5147-4.3624 9.9275-7.3208 12.713-3.848 3.623 0.09814 5.5943 1.374 5.4962 1.2759-0.098 10.762-3.5283 18.123 0.59382" fill="#232323" fill-rule="evenodd"/>
  <path d="m73.131 11.339c-4.3047-0.04908-7.3074 4.8429-5.0583 10.6 1.2891 3.2999 9.7658 3.1187 10.304-0.31985 0.91782-5.8643-0.98737-10.232-5.2456-10.28z" fill="#fdfdfd" fill-rule="evenodd"/>
  <path d="m72.761 17.291a3.0383 3.6858 0 0 1 4.2911-0.0079 3.0383 3.6858 0 0 1 0.0172 5.2055 3.0383 3.6858 0 0 1-4.291 0.03461 3.0383 3.6858 0 0 1-0.03996-5.2053" fill-rule="evenodd"/>
  <path d="m81.463 33.036c2.722 0.09066 18.873-3.0849 19.054-5.3533 0.1815-2.2683-11.342-3.3571-13.61-4.3552-2.2683-0.99808-13.293-3.9419-13.156 3.4479 0.13679 7.3897 4.9903 6.1699 7.7123 6.2606z" fill="url(#e)" fill-rule="evenodd"/>
  <path d="m77.324 28.802c5.7413 1.2468 12.703 1.6684 16.553 1.0265" fill="none" stroke="#ae9300" stroke-width=".62713"/>
  <path d="m81.463 33.036c2.722 0.09066 18.873-3.0849 19.054-5.3533 0.1815-2.2683-11.342-3.3571-13.61-4.3552-2.2683-0.99808-13.293-3.9419-13.156 3.4479 0.13679 7.3897 4.9903 6.1699 7.7123 6.2606z" fill="none"/>
  <path d="m45.836 40.168c-13.512 11.442-34.729 38.79-30.485 41.45 3.6603 2.2934 25.475-16.621 34.7-18.55" fill="url(#j)" fill-rule="evenodd"/>
  <path d="m40.553 45.162c-8.5567 9.0667-20.773 23.461-24.625 31.264-3.8024 6.0179 0.59632 8.2634 5.7525 3.3262 7.0031-3.8669 17.5-13.044 24.381-14.483" fill="none"/>
  <path d="m98.64 83.661c0.38197-5.4526 8.0186-6.3586 7.9702 0.31266-0.0551 7.5879-10.331 25.947-14.2 30.532-3.7284 4.4181-7.4315 0.96274-4.8162-3.3026 2.6141-4.2634 10.531-20.19 11.046-27.542z" fill="url(#i)" fill-rule="evenodd"/>
  <path d="m79.603 53.117c-2.5927-1.1498-3.508 5.5639-5.6634 8.7006-2.5967 3.7789-5.0985 7.4165-3.187 13.392l19.755 13.712c2.5476-10.027-4.2838-24.627-10.905-35.805z" fill="url(#g)" fill-rule="evenodd"/>
  <path d="m74.133 16.97a1.0355 0.65911 0 0 1 1.4624-0.0012 1.0355 0.65911 0 0 1 0.0058 0.93088 1.0355 0.65911 0 0 1-1.4624 0.0062 1.0355 0.65911 0 0 1-0.0136-0.93085" fill="#fff" fill-rule="evenodd"/>
 </g>
</svg>
