<svg xmlns="http://www.w3.org/2000/svg" xmlns:xlink="http://www.w3.org/1999/xlink" width="64" height="64"><defs><linearGradient id="a"><stop offset="0" stop-color="#68b0e3"/><stop offset="1" stop-color="#6884e3"/></linearGradient><linearGradient id="c" x1="32" x2="32" y1="2" y2="62" gradientUnits="userSpaceOnUse"><stop offset="0" stop-color="#1d2123"/><stop offset="1" stop-color="#33393e"/></linearGradient><linearGradient xlink:href="#a" id="f" x1="18.002" x2="18.002" y1="12" y2="24.003" gradientUnits="userSpaceOnUse"/><linearGradient xlink:href="#a" id="e" x1="30.004" x2="30.004" y1="12" y2="24.003" gradientUnits="userSpaceOnUse"/><linearGradient xlink:href="#a" id="g" x1="30.004" x2="30.004" y1="24" y2="35.999" gradientUnits="userSpaceOnUse"/><linearGradient id="h" x1="18.002" x2="18.002" y1="24" y2="35.999" gradientUnits="userSpaceOnUse"><stop offset="0" stop-color="#eeee4c"/><stop offset="1" stop-color="#ebf06f"/></linearGradient><filter id="b" width="1.072" height="1.072" x="-.036" y="-.036" color-interpolation-filters="sRGB"><feGaussianBlur stdDeviation="14.344"/></filter><filter id="d" width="1.12" height="1.12" x="-.06" y="-.06" color-interpolation-filters="sRGB"><feGaussianBlur stdDeviation=".783"/></filter></defs><circle cx="512" cy="512" r="478.12" filter="url(#b)" opacity=".25" style="paint-order:stroke markers fill" transform="translate(-.125 -.125)scale(.06274)"/><circle cx="32" cy="32" r="30" fill="url(#c)" style="paint-order:stroke markers fill"/><g filter="url(#d)" opacity=".5" transform="translate(-7.814 11.068)"><path d="M42.945 5.28h9.395c1.727 0 3.128 1.4 3.128 3.127v9.4c0 1.727-1.4 3.128-3.128 3.128h-9.395a3.13 3.13 0 0 1-3.127-3.128v-9.4c0-1.727 1.4-3.127 3.127-3.127m-15.656 0h9.4c1.726 0 3.127 1.4 3.127 3.127v9.4c0 1.727-1.4 3.128-3.127 3.128h-9.4a3.13 3.13 0 0 1-3.128-3.128v-9.4c0-1.727 1.4-3.127 3.128-3.127"/><path d="M42.945 20.931h9.395a3.13 3.13 0 0 1 3.128 3.128v9.395c0 1.727-1.4 3.127-3.128 3.127h-9.395a3.13 3.13 0 0 1-3.127-3.127v-9.395c0-1.727 1.4-3.128 3.127-3.128m-15.656 0h9.4a3.13 3.13 0 0 1 3.127 3.128v9.395c0 1.727-1.4 3.127-3.127 3.127h-9.4a3.13 3.13 0 0 1-3.128-3.127v-9.395c0-1.727 1.4-3.128 3.128-3.128"/></g><path fill="url(#e)" d="M26.402 12h7.203a2.4 2.4 0 0 1 2.398 2.398v7.207a2.4 2.4 0 0 1-2.398 2.398h-7.203a2.4 2.4 0 0 1-2.398-2.398v-7.207A2.4 2.4 0 0 1 26.402 12" transform="translate(.696 .696)scale(1.3043)"/><path fill="url(#f)" d="M14.398 12h7.207a2.4 2.4 0 0 1 2.398 2.398v7.207a2.4 2.4 0 0 1-2.398 2.398h-7.207A2.4 2.4 0 0 1 12 21.605v-7.207A2.4 2.4 0 0 1 14.398 12" transform="translate(.696 .696)scale(1.3043)"/><path fill="url(#g)" d="M26.402 24h7.203a2.4 2.4 0 0 1 2.398 2.398v7.203a2.4 2.4 0 0 1-2.398 2.398h-7.203a2.4 2.4 0 0 1-2.398-2.398v-7.203A2.4 2.4 0 0 1 26.402 24" transform="translate(.696 .696)scale(1.3043)"/><path fill="url(#h)" d="M14.398 24h7.207a2.4 2.4 0 0 1 2.398 2.398v7.203a2.4 2.4 0 0 1-2.398 2.398h-7.207A2.4 2.4 0 0 1 12 33.601v-7.203A2.4 2.4 0 0 1 14.398 24" transform="translate(.696 .696)scale(1.3043)"/></svg>