<svg xmlns="http://www.w3.org/2000/svg" xmlns:xlink="http://www.w3.org/1999/xlink" width="64" height="64"><defs><linearGradient xlink:href="#a" id="e" x1="-72" x2="-44" y1="-248" y2="-248" gradientTransform="rotate(180 -2.928 -53.795)scale(.5915)"/><linearGradient id="a" gradientUnits="userSpaceOnUse"><stop offset="0" stop-color="#fff"/><stop offset="1" stop-color="#fff" stop-opacity="0"/></linearGradient><linearGradient xlink:href="#a" id="f" x1="56" x2="84" y1="224" y2="224" gradientTransform="translate(-5.856 -107.59)scale(.5915)"/><linearGradient id="c" x1="15.875" x2="2.456" y1="12.001" y2="1.718" gradientTransform="matrix(3.2396 0 0 3.2354 4.571 4.633)" gradientUnits="userSpaceOnUse"><stop offset="0" stop-color="#b50dda"/><stop offset=".483" stop-color="#eb765e"/><stop offset="1" stop-color="#fffb65"/></linearGradient><linearGradient id="b" x1="7.937" x2="7.937" y1="15.081" y2="1.852" gradientTransform="translate(0 .031)scale(3.7795)" gradientUnits="userSpaceOnUse"><stop offset="0" stop-color="#f1efeb"/><stop offset="1" stop-color="#fdfcfc"/></linearGradient><radialGradient id="d" cx="19.326" cy="29.634" r="19.105" gradientTransform="translate(-8.822 6.315)scale(.86674)" gradientUnits="userSpaceOnUse"><stop offset="0" stop-color="#6ad26e"/><stop offset="1" stop-color="#6ad26e" stop-opacity="0"/></radialGradient></defs><rect width="60" height="60" x="2" y="2" fill="url(#b)" rx="30" ry="30"/><rect width="48" height="47.938" x="8" y="8.031" fill="url(#c)" rx="23.969" ry="23.969"/><path d="M13.662 16.504A23.9 23.9 0 0 0 8 32a23.9 23.9 0 0 0 5.64 15.47A16.56 16.56 0 0 0 24.487 32a16.56 16.56 0 0 0-10.824-15.496" style="fill:url(#d)"/><path fill="#fff" d="M10.942 32h16.091l-8.045 10.056zm42.116 0H36.967l8.045-10.056z"/><path fill="none" stroke="url(#e)" stroke-linecap="round" stroke-linejoin="round" stroke-width="4.732" d="M45.013 32a14.19 14.19 0 0 1-8.195 12.865 14.2 14.2 0 0 1-15.126-1.99"/><path fill="none" stroke="url(#f)" stroke-linecap="round" stroke-linejoin="round" stroke-width="4.732" d="M18.987 32a14.19 14.19 0 0 1 8.196-12.865 14.2 14.2 0 0 1 15.124 1.99"/></svg>