<svg xmlns="http://www.w3.org/2000/svg" width="64" height="64" viewBox="0 0 16.933 16.933"><defs><filter id="c" width="1.212" height="1.22" x="-.106" y="-.11" color-interpolation-filters="sRGB"><feGaussianBlur stdDeviation=".443"/></filter><filter id="a" width="1.078" height="1.078" x="-.039" y="-.039" color-interpolation-filters="sRGB"><feGaussianBlur stdDeviation=".972"/></filter><linearGradient id="b" x1="-39.605" x2="-39.605" y1="58.247" y2="6.988" gradientTransform="translate(18.664 .111)scale(.26458)" gradientUnits="userSpaceOnUse"><stop offset="0" stop-color="#23edff"/><stop offset="1" stop-color="#0194cf"/></linearGradient></defs><circle cx="32.333" cy="32.333" r="30" filter="url(#a)" opacity=".15" style="isolation:isolate;paint-order:stroke fill markers" transform="translate(-.088 -.088)scale(.26458)"/><circle cx="8.466" cy="8.466" r="7.937" fill="url(#b)" style="isolation:isolate;paint-order:stroke fill markers"/><path d="M8.466 4.057A4.83 4.83 0 0 0 3.635 8.89a5 5 0 0 0 .026.499.86.86 0 0 0-.37.709.863.863 0 0 0 .81.86 4.83 4.83 0 0 0 4.365 2.764 4.8 4.8 0 0 0 2.326-.597.86.86 0 0 0 .608.25.863.863 0 0 0 .863-.862.86.86 0 0 0-.138-.467 4.83 4.83 0 0 0 1.173-3.156 4.8 4.8 0 0 0-.194-1.354.86.86 0 0 0 .194-.545.863.863 0 0 0-.863-.862h-.004a4.83 4.83 0 0 0-3.964-2.07zm0 .69a4.14 4.14 0 0 1 3.324 1.671.86.86 0 0 0-.218.572 1 1 0 0 0 .03.22l-1.84 1.45a.86.86 0 0 0-.433-.116.86.86 0 0 0-.839.662l-3.578.48a.86.86 0 0 0-.57-.431 4 4 0 0 1-.017-.366 4.14 4.14 0 0 1 4.142-4.141zm3.563 3.004a.86.86 0 0 0 .406.102h.041a4 4 0 0 1 .132 1.036 4.14 4.14 0 0 1-1.066 2.772 1 1 0 0 0-.142-.012 1 1 0 0 0-.167.017l-1.18-1.79a.86.86 0 0 0 .139-.47 1 1 0 0 0-.02-.19zM8.611 9.885a.86.86 0 0 0 .717.384 1 1 0 0 0 .148-.013l1.189 1.803a.86.86 0 0 0-.128.416 4.14 4.14 0 0 1-2.072.555 4.14 4.14 0 0 1-3.715-2.312.86.86 0 0 0 .219-.344z" filter="url(#c)" opacity=".15"/><path fill="#f9f9f9" d="M8.467 3.635a4.83 4.83 0 0 0-4.832 4.832 5 5 0 0 0 .026.498.86.86 0 0 0-.37.71.863.863 0 0 0 .81.86 4.83 4.83 0 0 0 4.366 2.763 4.8 4.8 0 0 0 2.325-.597.86.86 0 0 0 .608.251.863.863 0 0 0 .863-.862.86.86 0 0 0-.138-.468 4.83 4.83 0 0 0 1.173-3.156 4.8 4.8 0 0 0-.194-1.354.86.86 0 0 0 .194-.544.863.863 0 0 0-.863-.863h-.004a4.83 4.83 0 0 0-3.964-2.07m0 .69a4.14 4.14 0 0 1 3.323 1.67.86.86 0 0 0-.218.573 1 1 0 0 0 .03.219l-1.84 1.45a.86.86 0 0 0-.432-.116.86.86 0 0 0-.84.662l-3.578.48a.86.86 0 0 0-.57-.43 4 4 0 0 1-.017-.366 4.14 4.14 0 0 1 4.142-4.142m3.562 3.004a.86.86 0 0 0 .406.102l.041-.001a4 4 0 0 1 .132 1.037 4.14 4.14 0 0 1-1.066 2.772 1 1 0 0 0-.142-.012 1 1 0 0 0-.167.017l-1.18-1.79a.86.86 0 0 0 .14-.47 1 1 0 0 0-.022-.19L12.03 7.33zM8.612 9.463a.86.86 0 0 0 .718.384 1 1 0 0 0 .147-.013l1.189 1.803a.86.86 0 0 0-.128.415 4.14 4.14 0 0 1-2.071.556 4.14 4.14 0 0 1-3.716-2.313.86.86 0 0 0 .219-.343z"/></svg>