<svg width="64" height="64" version="1.1" viewBox="0 0 16.933 16.933" xmlns="http://www.w3.org/2000/svg" xmlns:xlink="http://www.w3.org/1999/xlink">
 <defs>
  <filter id="filter903" x="-.10614" y="-.10993" width="1.2123" height="1.2199" color-interpolation-filters="sRGB">
   <feGaussianBlur stdDeviation="0.44260378"/>
  </filter>
  <linearGradient id="linearGradient899" x1="-39.605" x2="-39.605" y1="58.247" y2="6.9877" gradientTransform="matrix(.26458 0 0 .26458 18.664 .11106)" gradientUnits="userSpaceOnUse">
   <stop stop-color="#23edff" offset="0"/>
   <stop stop-color="#0194cf" offset="1"/>
  </linearGradient>
  <filter id="filter930" x="-.03888" y="-.03888" width="1.0778" height="1.0778" color-interpolation-filters="sRGB">
   <feGaussianBlur stdDeviation="0.972"/>
  </filter>
 </defs>
 <circle transform="matrix(.26458 0 0 .26458 -.088052 -.088052)" cx="32.333" cy="32.333" r="30" fill="#000000" filter="url(#filter930)" opacity=".15" stroke-linecap="square" stroke-width="2.2881" style="isolation:isolate;paint-order:stroke fill markers"/>
 <circle cx="8.4665" cy="8.4665" r="7.9373" fill="url(#linearGradient899)" stroke-linecap="square" stroke-width=".60539" style="isolation:isolate;paint-order:stroke fill markers"/>
 <path d="m8.4665 4.0572a4.8314 4.8314 0 0 0-4.8317 4.8317 4.8314 4.8314 0 0 0 0.026355 0.49867 0.86275 0.86275 0 0 0-0.37103 0.70899 0.86275 0.86275 0 0 0 0.81027 0.86091 4.8314 4.8314 0 0 0 4.3661 2.7631 4.8314 4.8314 0 0 0 2.3254-0.59685 0.86275 0.86275 0 0 0 0.60822 0.25114 0.86275 0.86275 0 0 0 0.86246-0.86246 0.86275 0.86275 0 0 0-0.13797-0.46766 4.8314 4.8314 0 0 0 1.1735-3.1558 4.8314 4.8314 0 0 0-0.1943-1.3539 0.86275 0.86275 0 0 0 0.1943-0.54466 0.86275 0.86275 0 0 0-0.86298-0.86246 0.86275 0.86275 0 0 0-0.0041 0 4.8314 4.8314 0 0 0-3.9645-2.0706zm0 0.69038a4.1412 4.1412 0 0 1 3.3232 1.6707 0.86275 0.86275 0 0 0-0.21755 0.57205 0.86275 0.86275 0 0 0 0.02894 0.2191l-1.8386 1.4505a0.86275 0.86275 0 0 0-0.43304-0.11627 0.86275 0.86275 0 0 0-0.83921 0.66196l-3.5785 0.48006a0.86275 0.86275 0 0 0-0.56998-0.43097 4.1412 4.1412 0 0 1-0.016536-0.36586 4.1412 4.1412 0 0 1 4.1413-4.1413zm3.562 3.0034a0.86275 0.86275 0 0 0 0.40669 0.10232 0.86275 0.86275 0 0 0 0.04082-0.00103 4.1412 4.1412 0 0 1 0.13177 1.0366 4.1412 4.1412 0 0 1-1.0655 2.7724 0.86275 0.86275 0 0 0-0.14211-0.01188 0.86275 0.86275 0 0 0-0.16743 0.01654l-1.1803-1.79a0.86275 0.86275 0 0 0 0.13952-0.46973 0.86275 0.86275 0 0 0-0.02067-0.18965zm-3.4168 2.1342a0.86275 0.86275 0 0 0 0.71777 0.38395 0.86275 0.86275 0 0 0 0.14727-0.01292l1.1891 1.803a0.86275 0.86275 0 0 0-0.12764 0.41547 4.1412 4.1412 0 0 1-2.0717 0.55551 4.1412 4.1412 0 0 1-3.7155-2.3125 0.86275 0.86275 0 0 0 0.21859-0.34364z" filter="url(#filter903)" opacity=".15"/>
 <path transform="scale(.26458)" d="m32 13.738a18.261 18.261 0 0 0-18.262 18.262 18.261 18.261 0 0 0 0.09961 1.8848 3.2609 3.2609 0 0 0-1.4023 2.6797 3.2609 3.2609 0 0 0 3.0625 3.2539 18.261 18.261 0 0 0 16.502 10.443 18.261 18.261 0 0 0 8.7891-2.2559 3.2609 3.2609 0 0 0 2.2988 0.94922 3.2609 3.2609 0 0 0 3.2598-3.2598 3.2609 3.2609 0 0 0-0.52148-1.7676 18.261 18.261 0 0 0 4.4355-11.928 18.261 18.261 0 0 0-0.73438-5.1172 3.2609 3.2609 0 0 0 0.73438-2.0586 3.2609 3.2609 0 0 0-3.2617-3.2598 3.2609 3.2609 0 0 0-0.015625 0 18.261 18.261 0 0 0-14.984-7.8262zm0 2.6094a15.652 15.652 0 0 1 12.561 6.3145 3.2609 3.2609 0 0 0-0.82227 2.1621 3.2609 3.2609 0 0 0 0.10938 0.82812l-6.9492 5.4824a3.2609 3.2609 0 0 0-1.6367-0.43945 3.2609 3.2609 0 0 0-3.1719 2.502l-13.525 1.8145a3.2609 3.2609 0 0 0-2.1543-1.6289 15.652 15.652 0 0 1-0.0625-1.3828 15.652 15.652 0 0 1 15.652-15.652zm13.463 11.352a3.2609 3.2609 0 0 0 1.5371 0.38672 3.2609 3.2609 0 0 0 0.1543-0.003907 15.652 15.652 0 0 1 0.49805 3.918 15.652 15.652 0 0 1-4.0273 10.479 3.2609 3.2609 0 0 0-0.53711-0.044922 3.2609 3.2609 0 0 0-0.63281 0.0625l-4.4609-6.7656a3.2609 3.2609 0 0 0 0.52734-1.7754 3.2609 3.2609 0 0 0-0.078125-0.7168l7.0195-5.5391zm-12.914 8.0664a3.2609 3.2609 0 0 0 2.7129 1.4512 3.2609 3.2609 0 0 0 0.55664-0.048828l4.4941 6.8145a3.2609 3.2609 0 0 0-0.48242 1.5703 15.652 15.652 0 0 1-7.8301 2.0996 15.652 15.652 0 0 1-14.043-8.7402 3.2609 3.2609 0 0 0 0.82617-1.2988l13.766-1.8477z" fill="#f9f9f9"/>
</svg>
