<svg xmlns="http://www.w3.org/2000/svg" xmlns:xlink="http://www.w3.org/1999/xlink" width="64" height="64"><defs><linearGradient id="c" x2="0" y1="543.8" y2="503.8" gradientTransform="translate(-817.14)" gradientUnits="userSpaceOnUse"><stop offset="0" stop-color="#18222a"/><stop offset="1" stop-color="#566069"/></linearGradient><linearGradient id="e" x1="399.57" x2="416.57" y1="517.8" y2="534.8" gradientUnits="userSpaceOnUse"><stop offset="0"/><stop offset="1" stop-opacity="0"/></linearGradient><linearGradient id="g" x2="0" y1="537.8" y2="508.8" gradientUnits="userSpaceOnUse"><stop offset="0" stop-color="#026ddc"/><stop offset="1" stop-color="#28b0fd"/></linearGradient><linearGradient id="a" x1="408.65" x2="416.65" y1="525.28" y2="533.28" gradientTransform="translate(-.081 -.48)" gradientUnits="userSpaceOnUse"><stop offset="0" stop-opacity=".065"/><stop offset="1" stop-opacity="0"/></linearGradient><linearGradient xlink:href="#a" id="i" x1="417.79" x2="426.22" y1="517.96" y2="525.91" gradientTransform="matrix(-1 0 0 1 817.2 -.48)" gradientUnits="userSpaceOnUse"/><linearGradient xlink:href="#a" id="h" x1="408.65" x2="416.65" y1="525.28" y2="533.28" gradientTransform="translate(-.081 -.48)" gradientUnits="userSpaceOnUse"/><filter id="f" width="1.127" height="1.113" x="-.064" y="-.057" color-interpolation-filters="sRGB"><feGaussianBlur stdDeviation=".804"/></filter><filter id="d" width="1.143" height="1.104" x="-.071" y="-.052" color-interpolation-filters="sRGB"><feGaussianBlur stdDeviation=".627"/></filter><filter id="b" width="1.072" height="1.072" x="-.036" y="-.036" color-interpolation-filters="sRGB"><feGaussianBlur stdDeviation=".6"/></filter></defs><g transform="matrix(1.5 0 0 1.5 -580.84 -753.7)"><rect width="40" height="40" x="-428.57" y="503.8" filter="url(#b)" opacity=".25" rx="20" transform="scale(-1 1)"/><rect width="40" height="40" x="-428.57" y="503.8" fill="url(#c)" rx="20" transform="scale(-1 1)"/><path d="M408.57 508.8a.331.331 0 0 0-.248.101A56.172 56.172 0 0 0 405.59 512v.004c-2.107 2.628-3.709 5.328-4.869 8.218-1.081 2.693-1.713 5.02-2.288 8.416a54.665 54.665 0 0 0-.341 2.368c-.044.362-.078.68-.097.915-.01.118-.015.214-.017.292v.112c0 .02 0 .042.014.079.01.037 0 .111.149.202.08.049.09.039.11.044a.813.813 0 0 0 .156.024c.078.008.174.016.276.022.808.044 1.999.25 2.789.481.533.156.884.285 1.405.516a171.833 171.833 0 0 0 .413.18l.032.013.001.002c0 .002.01.004.014.007v-.003.002c.01.002.01.004.019.007l.012.005-.013-.001.087.048.341.19c1.275.716 2.228 1.455 3.75 2.914.201.192.387.366.529.495.071.064.13.118.176.157a1.228 1.228 0 0 0 .102.08l.039.022c.02.009.039.028.13.033.109.005.131-.019.153-.029s.034-.017.043-.023a2.08 2.08 0 0 0 .109-.084 31.848 31.848 0 0 0 .77-.705c1.259-1.194 1.869-1.699 2.746-2.281 1.915-1.271 3.621-1.834 6.24-2.056l.212-.018a.329.329 0 0 0 .302-.328v-.125c0-.26-.062-.798-.146-1.464s-.19-1.424-.287-2c-.575-3.424-1.228-5.836-2.323-8.562-.986-2.457-2.399-4.938-4.087-7.184 0-.005-.01-.01-.012-.015-1.136-1.345-2.235-2.756-3.434-4.065a.329.329 0 0 0-.233-.107z" filter="url(#d)" opacity=".15"/><path fill="url(#e)" fill-rule="evenodd" d="m398.28 532.51 10.291 10.291c6 1 17.781-10.52 20-16l-20-18z" filter="url(#f)" opacity=".2"/><path fill="url(#g)" d="M408.57 508.8a.331.331 0 0 0-.248.101A56.172 56.172 0 0 0 405.59 512v.004c-2.107 2.628-3.709 5.328-4.869 8.218-1.081 2.693-1.713 5.02-2.288 8.416a54.665 54.665 0 0 0-.341 2.368c-.044.362-.078.68-.097.915-.01.118-.015.214-.017.292v.112c0 .02 0 .042.014.079.01.037 0 .111.149.202.08.049.09.039.11.044a.813.813 0 0 0 .156.024c.078.008.174.016.276.022.808.044 1.999.25 2.789.481.533.156.884.285 1.405.516a171.833 171.833 0 0 0 .413.18l.032.013.001.002c0 .002.01.004.014.007v-.003.002c.01.002.01.004.019.007l.012.005-.013-.001.087.048.341.19c1.275.716 2.228 1.455 3.75 2.914.201.192.387.366.529.495.071.064.13.118.176.157a1.228 1.228 0 0 0 .102.08l.039.022c.02.009.039.028.13.033.109.005.131-.019.153-.029s.034-.017.043-.023a2.08 2.08 0 0 0 .109-.084 31.848 31.848 0 0 0 .77-.705c1.259-1.194 1.869-1.699 2.746-2.281 1.915-1.271 3.621-1.834 6.24-2.056l.212-.018a.329.329 0 0 0 .302-.328v-.125c0-.26-.062-.798-.146-1.464s-.19-1.424-.287-2c-.575-3.424-1.228-5.836-2.323-8.562-.986-2.457-2.399-4.938-4.087-7.184 0-.005-.01-.01-.012-.015-1.136-1.345-2.235-2.756-3.434-4.065a.329.329 0 0 0-.233-.107z"/><g fill-rule="evenodd" stroke-width=".667"><path fill="url(#h)" d="m415.83 519.04-17.797 13.467c.02.03.042.063.102.1.08.049.092.038.111.043l.051.012c.032.005.067.008.105.012.078.008.174.018.275.023.808.044 1.999.249 2.789.48.533.156.886.285 1.406.516a52.338 52.338 0 0 0 .413.18l.031.014h.004l.002.002.014.006h.002a.182.182 0 0 0 .018.006c.004.001.007.005.012.006l-.012-.002.086.049.342.189c1.275.716 2.228 1.455 3.75 2.914.201.192.388.367.529.496a8.929 8.929 0 0 0 .241.209c.01.008.021.016.039.027.009.005.019.012.039.021s.038.029.129.033c.109.005.132-.019.154-.029s.033-.018.043-.023a.745.745 0 0 0 .109-.082c.05-.042.114-.101.191-.17.154-.139.358-.327.578-.535 1.259-1.194 1.869-1.699 2.746-2.281 1.915-1.271 3.621-1.834 6.24-2.055l.211-.018a.332.332 0 0 0 .303-.33v-.123c0-.26-.063-.799-.146-1.465a52.997 52.997 0 0 0-.287-2c-.575-3.424-1.227-5.836-2.322-8.563-.151-.376-.329-.752-.5-1.129"/><path fill="url(#i)" d="m401.29 519.04 17.797 13.467a.291.291 0 0 1-.102.1c-.08.049-.092.038-.111.043l-.051.012c-.032.005-.067.008-.105.012-.078.008-.174.018-.275.023-.808.044-1.999.249-2.789.48a9.998 9.998 0 0 0-1.406.516 52.338 52.338 0 0 1-.413.18l-.031.014h-.004l-.002.002-.014.006h-.002a.182.182 0 0 1-.018.006c-.004.001-.007.005-.012.006l.012-.002-.086.049-.342.189c-1.275.716-2.228 1.455-3.75 2.914-.201.192-.388.367-.529.496a8.929 8.929 0 0 1-.241.209.354.354 0 0 1-.039.027c-.009.005-.019.012-.039.021s-.038.029-.129.033c-.109.005-.132-.019-.154-.029s-.033-.018-.043-.023a.745.745 0 0 1-.109-.082c-.05-.042-.114-.101-.191-.17a35.327 35.327 0 0 1-.578-.535c-1.259-1.194-1.869-1.699-2.746-2.281-1.915-1.271-3.621-1.834-6.24-2.055l-.211-.018a.332.332 0 0 1-.303-.33v-.123c0-.26.063-.799.146-1.465.084-.666.19-1.424.287-2 .575-3.424 1.227-5.836 2.322-8.563.151-.376.329-.752.5-1.129"/></g></g></svg>