<svg xmlns="http://www.w3.org/2000/svg" width="32" height="32"><defs><filter id="a" width="1.072" height="1.072" x="-.036" y="-.036" color-interpolation-filters="sRGB"><feGaussianBlur stdDeviation=".45"/></filter><filter id="c" width="1.081" height="1.065" x="-.041" y="-.032" color-interpolation-filters="sRGB"><feGaussianBlur stdDeviation=".203"/></filter><linearGradient id="b" x1="16" x2="16" y1="1" y2="31" gradientUnits="userSpaceOnUse"><stop offset="0" stop-color="#72da70"/><stop offset="1" stop-color="#52eea4"/></linearGradient></defs><path d="M16 1C7.724 1 1 7.724 1 16s6.724 15 15 15 15-6.724 15-15S24.276 1 16 1z" color="#000" filter="url(#a)" opacity=".25" overflow="visible"/><path fill="url(#b)" d="M16 1C7.724 1 1 7.724 1 16s6.724 15 15 15 15-6.724 15-15S24.276 1 16 1z" color="#000" overflow="visible"/><path fill-rule="evenodd" d="M16 8c-2.216 0-4 1.784-4 4v3c-1.108 0-2 .892-2 2v4c0 1.108.892 2 2 2h8c1.108 0 2-.892 2-2v-4c0-1.108-.892-2-2-2v-3c0-2.216-1.784-4-4-4zm0 1c1.662 0 3 1.338 3 3v3h-6v-3c0-1.662 1.338-3 3-3z" filter="url(#c)" opacity=".25" style="paint-order:fill markers stroke"/><path fill="#fff" fill-rule="evenodd" d="M16 8c-2.216 0-4 1.784-4 4v3c-1.108 0-2 .892-2 2v4c0 1.108.892 2 2 2h8c1.108 0 2-.892 2-2v-4c0-1.108-.892-2-2-2v-3c0-2.216-1.784-4-4-4zm0 1c1.662 0 3 1.338 3 3v3h-6v-3c0-1.662 1.338-3 3-3z" style="paint-order:fill markers stroke"/></svg>