<svg xmlns="http://www.w3.org/2000/svg" width="32" height="32"><defs><filter id="a" width="1.072" height="1.072" x="-.036" y="-.036" color-interpolation-filters="sRGB"><feGaussianBlur stdDeviation=".45"/></filter><filter id="c" width="1.063" height="1.084" x="-.032" y="-.042" color-interpolation-filters="sRGB"><feGaussianBlur stdDeviation=".21"/></filter><linearGradient id="b" x1="16" x2="16" y1="1091.5" y2="1121.5" gradientUnits="userSpaceOnUse"><stop offset="0" stop-color="#9575cd"/><stop offset="1" stop-color="#cd75bc"/></linearGradient></defs><g transform="translate(0 -1090.5)"><circle cx="16" cy="1106.5" r="15" filter="url(#a)" opacity=".25"/><circle cx="16" cy="1106.5" r="15" fill="url(#b)"/><path d="M16.667 1100.52a.665.665 0 0 0-.667.666v2c0 .37.297.667.667.667H20l-4 3.333v2.667c0 .37.297.667.667.667h6.666c.37 0 .667-.298.667-.667v-2a.665.665 0 0 0-.667-.667H20l4-3.333v-2.667a.665.665 0 0 0-.667-.666zm-8 6a.665.665 0 0 0-.667.666v.667c0 .37.298.685.667.667H10l-2 2v1.333c0 .37.297.667.667.667H12c.37 0 .667-.298.667-.667v-.667a.665.665 0 0 0-.667-.666h-1.333l2-2v-1.334a.665.665 0 0 0-.667-.666z" filter="url(#c)" opacity=".25"/><path fill="#fff" d="M16.667 1100.52a.665.665 0 0 0-.667.666v2c0 .37.297.667.667.667H20l-4 3.333v2.667c0 .37.297.667.667.667h6.666c.37 0 .667-.298.667-.667v-2a.665.665 0 0 0-.667-.667H20l4-3.333v-2.667a.665.665 0 0 0-.667-.666zm-8 6a.665.665 0 0 0-.667.666v.667c0 .37.298.685.667.667H10l-2 2v1.333c0 .37.297.667.667.667H12c.37 0 .667-.298.667-.667v-.667a.665.665 0 0 0-.667-.666h-1.333l2-2v-1.334a.665.665 0 0 0-.667-.666z"/></g></svg>