<svg width="32" height="32" xmlns="http://www.w3.org/2000/svg"><defs><filter id="a" x="-.036" y="-.036" width="1.072" height="1.072" color-interpolation-filters="sRGB"><feGaussianBlur stdDeviation=".45"/></filter><filter id="c" x="-.033" y="-.04" width="1.066" height="1.08" color-interpolation-filters="sRGB"><feGaussianBlur stdDeviation=".233"/></filter><linearGradient id="b" x1="16" x2="16" y1="1" y2="31" gradientUnits="userSpaceOnUse"><stop stop-color="#ff791d" offset="0"/><stop stop-color="#f8c430" offset="1"/></linearGradient></defs><path d="M16 1C7.724 1 1 7.724 1 16s6.724 15 15 15 15-6.724 15-15S24.276 1 16 1z" color="#000" filter="url(#a)" opacity=".25" overflow="visible"/><path d="M16 1C7.724 1 1 7.724 1 16s6.724 15 15 15 15-6.724 15-15S24.276 1 16 1z" color="#000" fill="url(#b)" overflow="visible"/><path d="m17 9 8 7.027L17 23v-5H8v-3.928h9z" filter="url(#c)" opacity=".25" overflow="visible"/><path d="m17 9 8 7.027L17 23v-5H8v-3.928h9z" fill="#fff" overflow="visible"/></svg>