<svg xmlns="http://www.w3.org/2000/svg" width="32" height="32"><defs><filter id="a" width="1.072" height="1.072" x="-.036" y="-.036" color-interpolation-filters="sRGB"><feGaussianBlur stdDeviation=".45"/></filter><filter id="c" width="1.066" height="1.08" x="-.033" y="-.04" color-interpolation-filters="sRGB"><feGaussianBlur stdDeviation=".233"/></filter><linearGradient id="b" x1="16" x2="16" y1="1" y2="31" gradientUnits="userSpaceOnUse"><stop offset="0" stop-color="#ff791d"/><stop offset="1" stop-color="#f8c430"/></linearGradient></defs><path d="M16 1C7.724 1 1 7.724 1 16s6.724 15 15 15 15-6.724 15-15S24.276 1 16 1" color="#000" filter="url(#a)" opacity=".25" overflow="visible"/><path fill="url(#b)" d="M16 1C7.724 1 1 7.724 1 16s6.724 15 15 15 15-6.724 15-15S24.276 1 16 1" color="#000" overflow="visible"/><path d="m17 9 8 7.027L17 23v-5H8v-3.928h9z" filter="url(#c)" opacity=".25" overflow="visible"/><path fill="#fff" d="m17 9 8 7.027L17 23v-5H8v-3.928h9z" overflow="visible"/></svg>