<svg viewBox="0 0 32 32" xmlns="http://www.w3.org/2000/svg"><defs><filter id="a" x="-.036" y="-.036" width="1.072" height="1.072" color-interpolation-filters="sRGB"><feGaussianBlur stdDeviation=".45"/></filter><filter id="c" x="-.04" y="-.033" width="1.08" height="1.066" color-interpolation-filters="sRGB"><feGaussianBlur stdDeviation=".233"/></filter><linearGradient id="b" x1="16" x2="16" y1="1" y2="31" gradientUnits="userSpaceOnUse"><stop stop-color="#33e66e" offset="0"/><stop stop-color="#b2ea34" offset="1"/></linearGradient></defs><path d="M16 1C7.724 1 1 7.724 1 16s6.724 15 15 15 15-6.724 15-15S24.276 1 16 1z" color="#000" filter="url(#a)" opacity=".25" overflow="visible"/><path d="M16 1C7.724 1 1 7.724 1 16s6.724 15 15 15 15-6.724 15-15S24.276 1 16 1z" color="#000" fill="url(#b)" overflow="visible"/><path d="m23 16-7.027 8L9 16h5V7h3.928v9z" filter="url(#c)" opacity=".25" overflow="visible"/><path d="m23 16-7.027 8L9 16h5V7h3.928v9z" fill="#fff" overflow="visible"/></svg>