<svg xmlns="http://www.w3.org/2000/svg" xmlns:xlink="http://www.w3.org/1999/xlink" width="64" height="64"><defs><linearGradient xlink:href="#a" id="d" x1="12" x2="22" y1="17" y2="17" gradientTransform="translate(2 2)" gradientUnits="userSpaceOnUse"/><linearGradient xlink:href="#a" id="g" x1="42" x2="52" y1="17" y2="17" gradientTransform="translate(-2 2)" gradientUnits="userSpaceOnUse"/><linearGradient xlink:href="#a" id="h" x1="27" x2="37" y1="32" y2="32" gradientUnits="userSpaceOnUse"/><linearGradient xlink:href="#a" id="f" x1="42" x2="52" y1="47" y2="47" gradientTransform="translate(-2 -2)" gradientUnits="userSpaceOnUse"/><linearGradient xlink:href="#a" id="e" x1="12" x2="22" y1="47" y2="47" gradientTransform="translate(2 -2)" gradientUnits="userSpaceOnUse"/><linearGradient id="b" x1="31.467" x2="31.467" y1="6.721" y2="58.058" gradientTransform="translate(58.107)" gradientUnits="userSpaceOnUse"><stop offset="0" stop-color="#ff625c"/><stop offset="1" stop-color="#d03b36"/></linearGradient><filter id="c" width="1.216" height="1.216" x="-.108" y="-.108" color-interpolation-filters="sRGB"><feGaussianBlur stdDeviation="1.8"/></filter></defs><linearGradient id="a" gradientUnits="userSpaceOnUse"><stop offset="0" stop-color="#fff"/><stop offset="1" stop-color="#bebebe"/></linearGradient><circle cx="32" cy="32" r="30" fill="url(#b)" style="paint-order:stroke fill markers"/><g stroke-width=".833" filter="url(#c)" opacity=".15" transform="translate(3.46 5.347) scale(.89185)"><path d="M22 17c0 2.75-2.24 5-5 5s-5-2.25-5-5 2.24-5 5-5 5 2.25 5 5zm30 0c0 2.75-2.24 5-5 5s-5-2.25-5-5 2.24-5 5-5 5 2.25 5 5zM22 47c0 2.75-2.24 5-5 5s-5-2.25-5-5 2.24-5 5-5 5 2.25 5 5zm30 0c0 2.75-2.24 5-5 5s-5-2.25-5-5 2.24-5 5-5 5 2.25 5 5z"/><path d="M52 17c0 2.75-2.24 5-5 5s-5-2.25-5-5 2.24-5 5-5 5 2.25 5 5zM37 32c0 2.75-2.24 5-5 5s-5-2.25-5-5 2.24-5 5-5 5 2.25 5 5z"/></g><path fill="url(#d)" d="M24 19c0 2.75-2.24 5-5 5s-5-2.25-5-5 2.24-5 5-5 5 2.25 5 5z"/><path fill="url(#e)" d="M24 45c0 2.75-2.24 5-5 5s-5-2.25-5-5 2.24-5 5-5 5 2.25 5 5z"/><path fill="url(#f)" d="M50 45c0 2.75-2.24 5-5 5s-5-2.25-5-5 2.24-5 5-5 5 2.25 5 5z"/><path fill="url(#g)" d="M50 19c0 2.75-2.24 5-5 5s-5-2.25-5-5 2.24-5 5-5 5 2.25 5 5z"/><path fill="url(#h)" d="M37 32c0 2.75-2.24 5-5 5s-5-2.25-5-5 2.24-5 5-5 5 2.25 5 5z"/></svg>