<svg xmlns="http://www.w3.org/2000/svg" width="64" height="64"><defs><filter id="a" width="1.072" height="1.072" x="-.036" y="-.036" color-interpolation-filters="sRGB"><feGaussianBlur stdDeviation=".89"/></filter><filter id="i" width="1.179" height="1.149" x="-.089" y="-.074" color-interpolation-filters="sRGB"><feGaussianBlur stdDeviation=".558"/></filter><filter id="g" width="1.189" height="1.189" x="-.094" y="-.094" color-interpolation-filters="sRGB"><feGaussianBlur stdDeviation="1.14"/></filter><filter id="d" width="1.189" height="1.098" x="-.094" y="-.049" color-interpolation-filters="sRGB"><feGaussianBlur stdDeviation="1.14"/></filter><filter id="c" width="1.288" height="1.133" x="-.144" y="-.067" color-interpolation-filters="sRGB"><feGaussianBlur stdDeviation="1.14"/></filter><linearGradient id="b" x1="408.25" x2="407.94" y1="547.6" y2="498.89" gradientTransform="translate(-510.64 -663.52) scale(1.3276)" gradientUnits="userSpaceOnUse"><stop offset="0" stop-color="#fff"/><stop offset="1" stop-color="#e6e6e6"/></linearGradient><linearGradient id="f" x1="32.734" x2="32.734" y1="14.169" y2="49.545" gradientUnits="userSpaceOnUse"><stop offset="0" stop-color="#7b83eb"/><stop offset="1" stop-color="#6356f5"/></linearGradient><linearGradient id="e" x1="46.015" x2="46.015" y1="18.924" y2="43.952" gradientUnits="userSpaceOnUse"><stop offset="0" stop-color="#636bcf"/><stop offset="1" stop-color="#593edb"/></linearGradient><linearGradient id="h" x1="15.354" x2="15.354" y1="20.19" y2="45.552" gradientUnits="userSpaceOnUse"><stop offset="0" stop-color="#545dde"/><stop offset="1" stop-color="#3d38c7" stop-opacity=".965"/></linearGradient></defs><rect width="59.315" height="59.315" x="386.85" y="486.31" filter="url(#a)" opacity=".25" ry="29.657" transform="translate(-389.32 -489.92) scale(1.0115)"/><rect width="59.997" height="59.997" x="1.983" y="1.978" fill="url(#b)" ry="29.998"/><g transform="translate(8.828 8.466) scale(.72414)"><path d="M51.5 11a6.5 6.5 0 0 0-6.5 6.5 6.5 6.5 0 0 0 6.5 6.5 6.5 6.5 0 0 0 6.5-6.5 6.5 6.5 0 0 0-6.5-6.5zm-7.465 16A2.03 2.03 0 0 0 42 29.035v13.951h.018A9.5 9.5 0 0 0 51.5 52a9.5 9.5 0 0 0 9.477-9.014H61v-13.95A2.03 2.03 0 0 0 58.965 27z" filter="url(#c)" opacity=".2"/><path d="M33.5 5a9.5 9.5 0 0 0-9.5 9.5 9.5 9.5 0 0 0 9.5 9.5 9.5 9.5 0 0 0 9.5-9.5A9.5 9.5 0 0 0 33.5 5zM22.295 27A3.287 3.287 0 0 0 19 30.295v16.479h.01A14.5 14.5 0 0 0 33.5 61a14.5 14.5 0 0 0 14.486-14.227H48v-16.48A3.287 3.287 0 0 0 44.705 27z" filter="url(#d)" opacity=".2"/><path fill="url(#e)" d="M46.025 15.707a4.707 4.707 0 1 0 .191 9.412 4.707 4.707 0 0 0-.191-9.412zm-5.31 11.586a1.47 1.47 0 0 0-1.473 1.475v.492c5.629 1.012 0 5.84 0 8.761v.848h.01a6.88 6.88 0 0 0 13.738 0H53V28.767c0-.817-.658-1.474-1.475-1.474z" transform="translate(-12.19 -11.69) scale(1.381)"/><path fill="url(#f)" d="M33.086 11.361a6.88 6.88 0 0 0-6.879 6.88 6.88 6.88 0 0 0 6.879 6.88 6.88 6.88 0 0 0 6.879-6.88 6.88 6.88 0 0 0-6.879-6.88zm-8.113 15.932a2.382 2.382 0 0 0-2.387 2.387v11.93h.004a10.5 10.5 0 0 0 10.496 10.303A10.5 10.5 0 0 0 43.584 41.61h.002v-.197a10.5 10.5 0 0 0 0-.144V29.68a2.382 2.382 0 0 0-2.387-2.387H24.972z" transform="translate(-12.19 -11.69) scale(1.381)"/><rect width="29" height="29" x="3" y="19" filter="url(#g)" opacity=".1" rx="1.977" ry="1.977"/><rect width="29" height="29" x="3" y="18" fill="url(#h)" rx="1.977" ry="1.977"/><path d="M10 25v5h5v13h5V30h5v-5z" filter="url(#i)" opacity=".2"/><path fill="#fff" d="M10 24.003v4.998h5v13.001h5.001v-13h5.001v-4.999H10z"/></g></svg>