<svg xmlns="http://www.w3.org/2000/svg" xmlns:xlink="http://www.w3.org/1999/xlink" xml:space="preserve" width="64" height="64" viewBox="0 0 16.933 16.933"><defs><linearGradient id="a"><stop offset="0" style="stop-color:#142a43;stop-opacity:1"/><stop offset="1" style="stop-color:#185991;stop-opacity:1"/></linearGradient><linearGradient id="b" x1="7.937" x2="7.937" y1="15.081" y2="1.852" gradientUnits="userSpaceOnUse" spreadMethod="pad"><stop offset="0" stop-color="#2858e4" style="stop-color:#0131ff;stop-opacity:1"/><stop offset=".137" stop-color="#2858e4" style="stop-color:#01ffdd;stop-opacity:1"/><stop offset=".258" stop-color="#2858e4" style="stop-color:#02ff20;stop-opacity:1"/><stop offset=".386" stop-color="#2858e4" style="stop-color:#c1ff01;stop-opacity:1"/><stop offset=".507" stop-color="#2858e4" style="stop-color:#f3ff01;stop-opacity:1"/><stop offset=".637" stop-color="#2858e4" style="stop-color:#fa8d00;stop-opacity:1"/><stop offset=".751" stop-color="#2858e4" style="stop-color:#ff0101;stop-opacity:1"/><stop offset=".878" stop-color="#2858e4" style="stop-color:#f901be;stop-opacity:1"/><stop offset="1" stop-color="#5ab9f4" style="stop-color:#9202ff;stop-opacity:1"/></linearGradient><linearGradient xlink:href="#a" id="c" x1="8.467" x2="8.467" y1="15.867" y2="1.05" gradientTransform="translate(-.604 -.596)scale(1.07138)" gradientUnits="userSpaceOnUse"/><filter id="d" width="1.15" height="1.15" x="-.075" y="-.075" style="color-interpolation-filters:sRGB"><feGaussianBlur stdDeviation=".394"/></filter></defs><rect width="15.875" height="15.875" x=".529" y=".529" fill="url(#b)" rx="7.937" ry="7.937" style="fill:url(#c);fill-opacity:1;stroke-width:1.07138"/><path d="M8.76 14.777c-.703-.035-1.227-.143-1.227-.253 0-.047.173-.11.42-.15.157-.027.436-.057.777-.085.327-.026.52-.05.768-.097 1.255-.231 2.255-.835 2.936-1.773a4.3 4.3 0 0 0 .556-1.059c.042-.121.076-.159.144-.159.14 0 .288.274.35.647a2.5 2.5 0 0 1-.071.961c-.133.46-.378.788-.884 1.182-.308.24-.473.335-.777.45-.7.26-1.865.392-2.992.336m1.409-3.424a23 23 0 0 1-.68-.11c-.242-.061-.508-.275-.554-.447a.5.5 0 0 1 .036-.31c.052-.103.218-.266.378-.371.23-.151.68-.353 1.238-.555.722-.261 1.23-.286 1.47-.072.138.125.204.326.19.582-.029.5-.265.937-.64 1.18-.2.13-.384.184-.641.192-.167.005-.222-.001-.797-.09zm-3.956-.014a2 2 0 0 1-.441-.056 1.3 1.3 0 0 1-.768-.536 3.3 3.3 0 0 1-.288-.6 2.4 2.4 0 0 1-.113-.93c.034-.422.117-.645.307-.818.214-.195.504-.22.821-.072.452.211 1.275.834 1.817 1.374.287.287.44.48.533.672a.5.5 0 0 1 .068.23c.017.253-.142.5-.41.64-.183.094-.216.098-.804.103-.288.002-.613-.001-.722-.007m-3.02-.951a2 2 0 0 1-.22-.033 1.5 1.5 0 0 1-.386-.172 1.15 1.15 0 0 1-.44-.688c-.03-.144-.04-.587-.023-1.1.014-.388.018-.43.05-.544.087-.299.279-.526.566-.671.1-.05.151-.115.17-.212.155-.779.43-1.441.878-2.115.1-.152.155-.246.155-.27 0-.02-.02-.074-.043-.12-.078-.15-.048-.21.274-.541.569-.587 1.142-.987 1.825-1.278.532-.226 1.254-.404 1.933-.477.26-.028.893-.032 1.135-.007 1.204.124 2.27.592 3.275 1.438a7 7 0 0 1 .576.545c.092.126.097.23.02.37l-.045.08.063.081a5.5 5.5 0 0 1 .98 2.192c.02.094.048.187.063.207s.065.058.113.083c.234.123.417.302.513.501.115.238.13.365.134 1.082.002.553-.01.703-.074.896a1.15 1.15 0 0 1-.803.735 1.2 1.2 0 0 1-.497.001.3.3 0 0 1-.183-.183q-.014-.054-.014-1.126c0-1.105-.01-1.39-.056-1.75-.186-1.451-.93-2.598-2.202-3.397a4.57 4.57 0 0 0-3.168-.665 4.86 4.86 0 0 0-2.699 1.368 4.6 4.6 0 0 0-1.335 2.725c-.02.152-.023.368-.026 1.471-.003.934-.008 1.312-.02 1.362-.043.182-.165.235-.49.212z" style="opacity:.499719;fill:#000;fill-opacity:1;filter:url(#d)" transform="translate(.333 .334)scale(.96052)"/><path d="M8.747 14.527c-.675-.033-1.178-.137-1.178-.242 0-.046.166-.105.403-.145.151-.025.419-.054.747-.08.314-.026.499-.05.737-.094 1.206-.222 2.166-.802 2.82-1.703.222-.305.42-.685.534-1.017.04-.117.073-.153.139-.153.134 0 .276.263.336.621.041.247.011.646-.069.924-.128.442-.363.756-.849 1.135-.296.23-.453.322-.746.431-.672.251-1.791.377-2.874.323M10.1 11.24c-.327-.05-.62-.098-.653-.106-.233-.059-.488-.264-.533-.429a.47.47 0 0 1 .035-.298c.05-.098.21-.255.363-.356.22-.145.653-.34 1.19-.533.693-.251 1.181-.275 1.41-.07.134.12.197.313.183.56-.027.48-.254.9-.614 1.132a1.1 1.1 0 0 1-.616.185c-.16.005-.213 0-.765-.085m-3.8-.013a1.8 1.8 0 0 1-.424-.054 1.24 1.24 0 0 1-.737-.515 3.2 3.2 0 0 1-.277-.576 2.3 2.3 0 0 1-.109-.893c.033-.406.113-.62.295-.786.206-.187.484-.212.789-.07.434.203 1.224.802 1.745 1.32.276.276.423.46.512.645.05.103.06.14.066.222.015.243-.137.48-.395.614-.175.09-.207.095-.772.099-.276.002-.588 0-.694-.006zm-2.9-.915a2 2 0 0 1-.212-.031 1.4 1.4 0 0 1-.37-.166 1.1 1.1 0 0 1-.422-.66c-.03-.139-.04-.564-.022-1.058.013-.371.016-.412.048-.521.083-.288.267-.506.543-.645.096-.049.145-.11.164-.204a5.4 5.4 0 0 1 .842-2.031c.097-.146.149-.236.149-.26a.4.4 0 0 0-.041-.114c-.075-.146-.046-.202.263-.52.547-.564 1.097-.949 1.754-1.228.51-.217 1.203-.388 1.856-.458.25-.027.858-.03 1.09-.007 1.157.12 2.181.569 3.145 1.381.183.154.511.464.554.523.088.122.094.221.019.356l-.042.077.06.078a5.3 5.3 0 0 1 .942 2.105c.019.09.045.18.06.2a.4.4 0 0 0 .108.079c.225.118.4.29.493.481.11.229.125.351.128 1.04.002.53-.01.675-.07.86-.112.34-.409.612-.772.706a1.2 1.2 0 0 1-.478.001.29.29 0 0 1-.175-.176Q13 10.068 13 9.038c0-1.061-.009-1.335-.053-1.68-.179-1.395-.893-2.496-2.116-3.263a4.4 4.4 0 0 0-3.042-.639A4.67 4.67 0 0 0 5.196 4.77a4.43 4.43 0 0 0-1.282 2.617c-.019.146-.023.353-.025 1.414-.003.896-.008 1.26-.02 1.307-.04.175-.158.226-.47.204z" style="fill:#fff;fill-opacity:1;stroke-width:.960516"/></svg>