<svg width="64" height="64" enable-background="new 0 0 1024 1024" image-rendering="optimizeSpeed" version="1.1" xmlns="http://www.w3.org/2000/svg">
 <defs>
  <filter id="filter26" x="-.013853" y="-.013853" width="1.0277" height="1.0277" color-interpolation-filters="sRGB">
   <feGaussianBlur stdDeviation="0.29776566"/>
  </filter>
  <filter id="filter25" x="-.029663" y="-.029663" width="1.0593" height="1.0593" color-interpolation-filters="sRGB">
   <feGaussianBlur stdDeviation="0.29776566"/>
  </filter>
  <linearGradient id="a-8" x1="7.937" x2="7.937" y1="15.081" y2="1.852" gradientTransform="matrix(3.7796 0 0 3.7796 81.001 -4.9709)" gradientUnits="userSpaceOnUse">
   <stop stop-color="#767574" offset="0"/>
   <stop stop-color="#d1e7ee" offset="1"/>
  </linearGradient>
  <filter id="filter14" x="-.048" y="-.048" width="1.096" height="1.096" color-interpolation-filters="sRGB">
   <feGaussianBlur stdDeviation="1.2"/>
  </filter>
 </defs>
 <circle cx="32" cy="32.88" r="30" fill="#000000" filter="url(#filter14)" opacity=".25"/>
 <circle cx="32" cy="32" r="30" fill="url(#a-8)"/>
 <circle cx="32" cy="32" r="30" fill="url(#a)"/>
 <circle cx="32" cy="32" r="27" fill="#1a1a1a" fill-rule="evenodd" stroke-width=".9" style="paint-order:fill markers stroke"/>
 <circle cx="32" cy="32" r="24" fill="#ffffff" fill-rule="evenodd" opacity=".12" stroke-width=".8" style="paint-order:fill markers stroke"/>
 <path d="m19.003 22.167v-2.1506l6.996 3.9837v2.0334l-6.996 3.9837v-2.1544l5.2688-2.8347z" fill="#ffffff" stroke-width="3.7796" aria-label="&gt;"/>
 <rect x="29" y="31" width="8.0014" height="1.9994" rx="0" ry="0" fill="#ffffff" stroke-width="3.7796"/>
 <path d="m10.787 10.787c-11.752 11.752-11.752 30.674 0 42.426 0.11855 0.11855 0.24184 0.22911 0.36184 0.34527-11.399-11.775-11.288-30.431 0.34527-42.065 11.634-11.634 30.289-11.744 42.065-0.34527-0.11616-0.12-0.22671-0.24329-0.34527-0.36184-11.752-11.752-30.674-11.752-42.426 0z" fill="#ffffff" filter="url(#filter26)" opacity=".55"/>
 <path d="m37.435 61.526c5.7718-1.0635 11.297-3.831 15.779-8.3126s7.2491-10.007 8.3126-15.779c-1.5917 5.4332-4.6056 10.657-9.0198 15.072s-9.6384 7.428-15.072 9.0198z" fill="#ffffff" filter="url(#filter25)" opacity=".38"/>
</svg>
