<svg xmlns="http://www.w3.org/2000/svg" width="64" height="64" enable-background="new 0 0 1024 1024" image-rendering="optimizeSpeed"><defs><filter id="d" width="1.028" height="1.028" x="-.014" y="-.014" color-interpolation-filters="sRGB"><feGaussianBlur stdDeviation=".298"/></filter><filter id="e" width="1.059" height="1.059" x="-.03" y="-.03" color-interpolation-filters="sRGB"><feGaussianBlur stdDeviation=".298"/></filter><filter id="b" width="1.096" height="1.096" x="-.048" y="-.048" color-interpolation-filters="sRGB"><feGaussianBlur stdDeviation="1.2"/></filter><linearGradient id="c" x1="7.937" x2="7.937" y1="15.081" y2="1.852" gradientTransform="translate(81.001 -4.97)scale(3.7796)" gradientUnits="userSpaceOnUse"><stop offset="0" stop-color="#767574"/><stop offset="1" stop-color="#d1e7ee"/></linearGradient></defs><circle cx="32" cy="32.88" r="30" filter="url(#b)" opacity=".25"/><circle cx="32" cy="32" r="30" fill="url(#c)"/><circle cx="32" cy="32" r="30" fill="url(#a)"/><circle cx="32" cy="32" r="27" fill="#1a1a1a" fill-rule="evenodd" style="paint-order:fill markers stroke"/><circle cx="32" cy="32" r="24" fill="#fff" fill-rule="evenodd" opacity=".12" style="paint-order:fill markers stroke"/><path fill="#fff" d="M19.003 22.167v-2.15L25.999 24v2.033l-6.996 3.984v-2.154l5.269-2.835z" aria-label="&gt;"/><rect width="8.001" height="1.999" x="29" y="31" fill="#fff" rx="0" ry="0"/><path fill="#fff" d="M10.787 10.787a29.934 29.934 0 0 0 0 42.426c.119.119.242.23.362.345-11.4-11.775-11.288-30.43.345-42.065S41.784-.25 53.56 11.148c-.116-.12-.227-.243-.345-.362a29.934 29.934 0 0 0-42.426 0z" filter="url(#d)" opacity=".55"/><path fill="#fff" d="M37.435 61.526c5.772-1.063 11.297-3.831 15.779-8.313s7.25-10.007 8.313-15.779c-1.592 5.434-4.606 10.657-9.02 15.072s-9.639 7.428-15.072 9.02" filter="url(#e)" opacity=".38"/></svg>