<svg xmlns="http://www.w3.org/2000/svg" xmlns:xlink="http://www.w3.org/1999/xlink" width="64" height="64"><defs><linearGradient id="g" x1="7.937" x2="7.937" y1="15.081" y2="1.852" gradientTransform="translate(-2.286 -2.252)scale(4.0494)" gradientUnits="userSpaceOnUse"><stop offset="0" stop-color="#2d910a"/><stop offset="1" stop-color="#2c78e0"/></linearGradient><linearGradient xlink:href="#a" id="h" x1="6" x2="58" gradientUnits="userSpaceOnUse"/><linearGradient id="a" x1="6" x2="58" gradientUnits="userSpaceOnUse"><stop offset="0" stop-opacity="0"/><stop offset=".5" stop-opacity=".25"/><stop offset="1" stop-opacity="0"/></linearGradient><linearGradient id="i" x2="0" y1="70" y2="122" gradientUnits="userSpaceOnUse"><stop offset="0" stop-opacity="0"/><stop offset=".5" stop-opacity=".25"/><stop offset="1" stop-opacity="0"/></linearGradient><linearGradient id="j" x1="70" x2="122" gradientUnits="userSpaceOnUse"><stop offset="0" stop-opacity="0"/><stop offset=".5" stop-opacity=".25"/><stop offset="1" stop-opacity="0"/></linearGradient><linearGradient xlink:href="#b" id="k" x1="64" x2="60" gradientUnits="userSpaceOnUse"/><linearGradient id="b" x1="64" x2="60" gradientUnits="userSpaceOnUse"><stop offset="0" stop-opacity=".75"/><stop offset="1" stop-opacity="0"/></linearGradient><linearGradient id="l" x1="128" x2="124" gradientUnits="userSpaceOnUse"><stop offset="0" stop-opacity=".75"/><stop offset="1" stop-opacity="0"/></linearGradient><linearGradient xlink:href="#c" id="m" x2="0" y1="192" y2="188" gradientUnits="userSpaceOnUse"/><linearGradient id="c" x2="0" y1="192" y2="188" gradientUnits="userSpaceOnUse"><stop offset="0" stop-opacity=".75"/><stop offset="1" stop-opacity="0"/></linearGradient><linearGradient id="n" x2="0" y1="128" y2="124" gradientUnits="userSpaceOnUse"><stop offset="0" stop-opacity=".75"/><stop offset="1" stop-opacity="0"/></linearGradient><linearGradient xlink:href="#d" id="o" x2="0" y1="64" y2="68" gradientUnits="userSpaceOnUse"/><linearGradient id="d" x2="0" y1="64" y2="68" gradientUnits="userSpaceOnUse"><stop offset="0" stop-color="#fff" stop-opacity="0"/><stop offset="1" stop-color="#fff" stop-opacity=".75"/></linearGradient><linearGradient id="p" x1="64" x2="68" gradientUnits="userSpaceOnUse"><stop offset="0" stop-color="#fff" stop-opacity=".75"/><stop offset="1" stop-color="#fff" stop-opacity="0"/></linearGradient><linearGradient id="q" x2="0" y1="198" y2="250" gradientUnits="userSpaceOnUse"><stop offset="0" stop-opacity="0"/><stop offset=".5" stop-opacity=".25"/><stop offset="1" stop-opacity="0"/></linearGradient><linearGradient id="r" x1="192" x2="188" gradientUnits="userSpaceOnUse"><stop offset="0" stop-opacity=".75"/><stop offset="1" stop-opacity="0"/></linearGradient><linearGradient xlink:href="#e" id="s" x2="0" y1="128" y2="132" gradientUnits="userSpaceOnUse"/><linearGradient id="e" x2="0" y1="128" y2="132" gradientUnits="userSpaceOnUse"><stop offset="0" stop-color="#fff" stop-opacity=".75"/><stop offset="1" stop-color="#fff" stop-opacity="0"/></linearGradient><linearGradient id="t" x2="0" y1="192" y2="196" gradientUnits="userSpaceOnUse"><stop offset="0" stop-color="#fff" stop-opacity=".75"/><stop offset="1" stop-color="#fff" stop-opacity="0"/></linearGradient><linearGradient id="u" x1="198" x2="250" gradientUnits="userSpaceOnUse"><stop offset="0" stop-opacity="0"/><stop offset=".5" stop-opacity=".25"/><stop offset="1" stop-opacity="0"/></linearGradient><linearGradient id="v" x2="0" y1="134" y2="186" gradientUnits="userSpaceOnUse"><stop offset="0" stop-opacity="0"/><stop offset=".5" stop-opacity=".25"/><stop offset="1" stop-opacity="0"/></linearGradient><linearGradient id="w" x1="128" x2="132" gradientUnits="userSpaceOnUse"><stop offset="0" stop-color="#fff" stop-opacity=".75"/><stop offset="1" stop-color="#fff" stop-opacity="0"/></linearGradient><linearGradient id="x" x1="192" x2="196" gradientUnits="userSpaceOnUse"><stop offset="0" stop-color="#fff" stop-opacity=".75"/><stop offset="1" stop-color="#fff" stop-opacity="0"/></linearGradient><filter id="f" width="1.078" height="1.078" x="-.039" y="-.039" color-interpolation-filters="sRGB"><feGaussianBlur stdDeviation=".972"/></filter></defs><rect width="60" height="60" x="2" y="2" filter="url(#f)" opacity=".35" rx="30" ry="30"/><rect width="64" height="64" fill="none" rx="0" ry="0" style="paint-order:stroke fill markers"/><rect width="60" height="60" x="2" y="2" fill="url(#g)" rx="30" ry="30"/><path fill="#b3d9ff" d="M18.876 11a7.855 7.855 0 0 0-7.87 7.7l.006 13.295-.006 13.304a7.855 7.855 0 0 0 7.87 7.7h26.248A7.857 7.857 0 0 0 53 45.124V21.5H42.5V32H32V21.5H21.5V11z"/><path fill="#99cdff" d="M21.325 11c-.094 0-.126.074-.07.164s.134.164.175.164c.039 0 .058-.073.058-.164S21.422 11 21.326 11zm-2.767.009A7.855 7.855 0 0 0 11 18.875v26.25A7.86 7.86 0 0 0 18.876 53h26.248a7.855 7.855 0 0 0 7.866-7.537l-.003-3.035c-.016-7.99-.056-10.592-.203-10.652-.144-.059-.137-.122.027-.236.122-.086.16-.194.08-.243-.21-.13-.665.252-.74.624-.052.263-.18.315-.666.277-.47-.037-.64.029-.785.299-.139.26-.134.403.018.586s.154.289.01.433a.8.8 0 0 0-.19.485.285.285 0 0 1-.286.298c-.158 0-.45.045-.648.099-.33.087-.372.022-.476-.757-.1-.753-.175-.881-.615-1.067-.276-.116-.601-.172-.724-.125s-.439-.122-.703-.374c-.438-.42-.504-.438-.77-.207-.339.297-1.358.507-1.618.333-.099-.065-.232-.45-.295-.855-.124-.794-.635-1.48-1.102-1.48-.38 0-.802.617-.802 1.173 0 .426.143.831-.012.966s-.618 0-1.12 0c-1.024 0-1.32.173-1.344.807l-.017.418-.114-.41-.114-.41-3.896-.082c-3.085-.065-3.924-.13-4.036-.311-.078-.126-.149-2.446-.16-5.156-.009-2.71-.036-4.944-.057-4.965s-2.292-.087-5.043-.15c-2.99-.068-5.139-.14-5.261-.24-.114-.094-.153-.325-.153-.463 0-.22-.036-.218-.294.016-.243.22-.396.236-.875.088-.647-.198-1.09-.735-.826-.999.091-.09.557-.172 1.038-.184.481-.01.93-.094.997-.185.17-.236.148-6.845-.025-7.118-.079-.125-.213-.183-.298-.13-.226.14-.866-.354-.866-.667 0-.145.123-.399.272-.563.194-.214.148-.275-1.738-.292z"/><path fill="#536457" d="M11.218 30.512C11.012 30.508 11 31.87 11 41.65v3.476a7.855 7.855 0 0 0 7.672 7.87h26.654A7.855 7.855 0 0 0 53 45.125v-.98c0-5.723-.058-8.885-.165-8.951-.09-.055-.163-.175-.163-.265s.073-.118.163-.063c.091.056.165-.064.165-.268 0-.347-.014-.35-.217-.072s-.25.28-.73.03c-.282-.145-.59-.264-.685-.264-.26 0-.207.488.065.593.131.05.324.349.427.663.164.496.15.6-.114.8-.448.339-.551.295-.551-.242 0-.576-.282-.823-.357-.312-.029.197-.136.385-.237.418-.28.092-.412-.422-.208-.803.265-.496-.165-.905-.64-.608-.476.297-.792-.014-.927-.91-.13-.875-.413-1.138-1.108-1.037-.395.059-.604-.009-.832-.268-.168-.19-.339-.271-.38-.18-.259.571-.362.632-.633.361-.182-.183-.374-.225-.615-.136a1.64 1.64 0 0 1-.733.054c-.297-.057-.384-.18-.384-.548 0-.262-.068-.602-.152-.76s-.193-.42-.245-.584c-.066-.212-.222-.283-.543-.245-.382.043-.465.148-.552.685-.061.377.006.638-.16.767-.167.128-.57.123-.918.058-.794-.145-1.242.052-1.104.484.12.379.123 1.419.002 1.54-.04.039-.245-.035-.457-.168-.21-.132-.768-.282-1.239-.333l-.856-.093-.168.607c-.227.822-.211 1.18.077 1.732.357.684.322 1.08-.084.973a.75.75 0 0 0-.597.136c-.232.192-.303.168-.53-.185-.144-.225-.594-.717-.998-1.095-.803-.751-1.045-.728-1.213.115-.128.639-.336.617-1.015-.104-.645-.683-1.06-.654-1.06.075 0 .263-.102.563-.227.667s-.28.595-.342 1.092c-.08.64-.23 1.02-.518 1.307-.498.5-.612.503-.921.038-.222-.335-.283-.35-.667-.144-.23.125-.53.184-.666.132-.311-.12-.437.204-.232.6.085.166.11.48.056.697-.08.32-.205.395-.653.395-.328 0-.589-.095-.642-.235-.05-.128-.298-.257-.55-.287-.365-.04-.472-.147-.513-.504-.028-.247-.123-.45-.209-.45s-.24-.185-.343-.411c-.235-.516-.43-.52-.622-.014-.13.342-.752.73-.9.563-.028-.03-.309-.621-.626-1.312-.333-.727-.751-1.37-.992-1.528-.376-.247-.462-.25-.9-.023-.554.287-.75.195-.488-.226.099-.158.132-.41.074-.56-.088-.232-.262-.256-1.182-.162l-1.08.11.1-.4c.07-.28.005-.487-.223-.693-.243-.22-.303-.429-.238-.83.075-.46.031-.552-.3-.64a4 4 0 0 0-.836-.107c-.271-.002-.532-.133-.654-.33-.229-.365-.635-.42-1.138-.15-.27.144-.393.114-.652-.165-.175-.188-.426-.34-.557-.34s-.518-.25-.856-.553c-.545-.49-.71-.549-1.435-.516-.54.023-.92-.05-1.108-.212q-.04-.036-.07-.038zm41.517 1.372a.04.04 0 0 0-.02.01c-.043.043-.028.158.031.254.162.262.256.21.145-.078-.047-.123-.113-.198-.157-.186zm-12.841 4.914c.151-.013.288.15.203.37-.05.133-.196.241-.321.241-.262 0-.286-.147-.08-.472.056-.09.128-.131.197-.138zm-1.58.189q.079-.01.23.082c.14.087.157.172.047.24a.206.206 0 0 1-.28-.073c-.094-.152-.083-.242.004-.25zm-6.44 9.29a.7.7 0 0 1 .215.053c.146.056.237.19.201.297-.105.314-.404.334-.52.034q-.15-.392.106-.384z"/><path fill="#485527" d="M11.076 30.644q-.024-.008-.04.408c-.013.36.053.615.162.615.127 0 .12.076-.021.245-.164.198-.16.302.02.52.176.213.181.289.02.342-.265.09-.295 3.486-.03 3.486.103 0 .13-.14.065-.346-.08-.251-.048-.328.113-.276.375.125.364.745-.016.866-.274.086-.336.243-.336.834 0 .47.072.728.205.73.156.001.158.033.01.127-.107.068-.192.435-.186.816.005.38.074.65.154.6.079-.048.145.142.145.423s-.07.47-.154.417c-.085-.053-.144 1.997-.162 5.252a7.85 7.85 0 0 0 7.647 7.292h26.656A7.855 7.855 0 0 0 53 45.125v-.895c0-7.59-.053-8.778-.263-8.86-.453-.174-.523-.095-.374.422.081.284.098.595.038.692s-.095.382-.076.633c.02.25.006.456-.029.456-.268 0-1.252-.533-1.252-.678 0-.114-.178-.147-.47-.09-.615.123-1.216-.391-1.082-.927.068-.271-.037-.483-.408-.814-.28-.25-.5-.61-.5-.818 0-.205-.118-.54-.26-.744-.215-.306-.357-.351-.82-.265-.428.08-.582.044-.66-.157-.152-.396-.393-.145-.393.407 0 .58-.441.83-.741.42-.11-.15-.162-.468-.116-.71.072-.375.04-.42-.227-.315-.371.144-.341.14-.99.116-.422-.015-.532-.1-.608-.47l-.224-1.093-.131-.645-.448.677c-.52.787-.94 1.064-1.282.848-.131-.083-.4-.153-.598-.154-.344-.003-.356.045-.265 1.123.108 1.286-.08 1.578-.665 1.029-.245-.23-.643-.363-1.216-.405l-.853-.063-.163.587c-.175.632-.106.78.406.872.386.07.526.7.233 1.053-.11.132-.17.257-.135.278s.23.178.43.347c.362.304.37.303.512-.082.107-.287.079-.438-.105-.573-.3-.218-.154-.723.208-.723.155 0 .251.15.251.392 0 .253.116.421.328.477.18.046.328.195.328.329 0 .135.12.289.266.346.214.082.157.178-.287.485-.382.265-.638.339-.83.243-.152-.077-.502-.139-.779-.139s-.503-.06-.503-.136-.183-.236-.408-.356c-.355-.19-.451-.18-.728.072-.353.319-.665.224-.674-.205-.006-.368-.384-.852-.662-.852-.123 0-.385-.203-.585-.45-.328-.409-.374-.423-.48-.152-.076.194.011.472.25.796.336.452.347.52.112.755-.215.215-.33.224-.7.057-.306-.14-.493-.149-.612-.03-.282.282-.451.197-.25-.126.152-.245.1-.431-.287-1.017l-.472-.715-.054.48c-.03.267-.144.596-.253.73-.37.46-.645 1.494-.447 1.691.33.33.21.77-.21.77-.254 0-.422.116-.478.329-.117.448-.519.411-.908-.082-.177-.226-.392-.41-.478-.41-.27 0-.657.553-.775 1.109-.17.798-1.087 1.149-1.616.62-.13-.131-.45-.224-.708-.204-.418.028-.477-.027-.522-.488-.078-.814-.376-.953-1.198-.555-.385.186-.72.338-.745.338s-.353-.625-.728-1.388c-.898-1.828-1.007-1.92-1.988-1.67-.423.11-.823.25-.888.316-.193.192-.39.133-.39-.12a.49.49 0 0 1 .205-.37c.36-.23.648-.685.543-.856-.123-.198-.903.11-1.18.467-.161.208-.237.204-.574-.033-.95-.665-.936-.636-.84-1.832l.09-1.124-.436.109c-.457.115-1.417-.264-1.417-.56 0-.234-.44-.193-.99.092-.425.219-.46.29-.284.57.274.44-.06.815-.441.498-.289-.24-.342-.918-.083-1.076.229-.143-.085-.52-.555-.67-.195-.06-.583-.284-.861-.496-.28-.212-.556-.337-.615-.277-.06.06-.284.013-.498-.101-.29-.156-.475-.162-.728-.027-.468.25-.492.24-.569-.271-.024-.157-.042-.242-.055-.244zm1.094 1.024c.096 0 .13.072.073.163-.056.09-.134.164-.175.164-.039 0-.07-.074-.07-.164s.076-.164.172-.164zm1.328.5q.14 0 .14.21c0 .123-.146.354-.325.515-.311.282-.33.282-.437.002-.074-.19-.006-.368.192-.514q.29-.21.43-.212zm28.252.485c.07.002.11.064.068.192a.46.46 0 0 1-.26.261c-.12.04-.158-.035-.096-.195.064-.168.201-.262.288-.258m3.842 1.49c.07-.015.132.035.204.15.085.135.156.3.158.368.003.19-.455.146-.58-.055-.06-.098-.026-.265.078-.369a.3.3 0 0 1 .14-.094m1.209.663c.196.012.334.326.24.704-.06.232-.177.422-.264.422-.245 0-.394-.82-.184-1.029.071-.071.143-.101.208-.097m-2.34.368c.1.007.214.123.319.351.322.707.25.949-.25.853a1.24 1.24 0 0 0-.819.162c-.207.137-.49.204-.63.15-.157-.059-.288.014-.342.189a4 4 0 0 1-.243.574c-.186.35.079.94.423.94.34 0 .469.309.242.582-.271.327-.4.3-.627-.13a9 9 0 0 0-.591-.913c-.406-.556-.399-.868.032-1.37.191-.225.197-.344.031-.657-.189-.354-.184-.366.082-.147.233.193.347.199.613.032.209-.13.398-.148.52-.051.105.085.354.203.55.263.3.092.366.038.41-.337.04-.333.149-.502.28-.491m1.366.021a.36.36 0 0 1 .267.119c.119.119.122.275.013.48-.235.438-.642.38-.642-.091 0-.301.169-.5.362-.508m-27.267.737a.164.165 0 0 1 0 .328.164.165 0 0 1-.165-.163.166.166 0 0 1 .165-.165m27.945.178c.099 0 .108.088.108.315 0 .381-.208.424-.477.1-.145-.175-.129-.25.075-.328.143-.055.235-.087.294-.087m-30.611.156c.204.011.528.158 1.01.444.036.022-.067.188-.232.37-.163.18-.381.33-.484.33-.307 0-.581-.367-.581-.772 0-.259.082-.385.287-.372m-3.26.65c.06 0 .576.436 1.15.968.952.884 1.01.977.686 1.08-.206.065-.46.026-.602-.09-.185-.155-.29-.158-.434-.014-.105.105-.234.19-.289.19-.216 0-.491-.414-.491-.739 0-.19-.072-.416-.16-.504-.163-.164-.05-.89.14-.89zm31.19 0c.09 0 .164.07.164.155s-.074.2-.165.256c-.09.056-.163-.013-.163-.154s.073-.256.163-.256zm-29.776.165c.135 0 .245.074.245.164s-.11.164-.245.164-.246-.074-.246-.164.11-.164.245-.164zm30.677 0c.136 0 .247.11.247.245a.247.247 0 0 1-.247.247.247.247 0 0 1-.245-.246c0-.136.11-.246.245-.246m3.333.372c.046-.005.078.054.125.177a.84.84 0 0 1 .01.517c-.114.297-.599.33-.59.041.002-.113.11-.346.24-.518.107-.14.169-.21.215-.217m-27.859.12a.164.165 0 0 1 0 .328.164.165 0 0 1-.164-.164c0-.09.074-.164.164-.164m-1.57.172c.357.005 1.102.242 1.131.403.016.09-.248.186-.588.214-.447.038-.645-.02-.717-.212-.056-.144-.055-.31.003-.367.027-.027.088-.039.17-.038zm3.329.337c.056-.007.162.018.328.06.567.142.602.177.481.49-.148.39-.526.302-.743-.175-.118-.261-.16-.363-.066-.375m22.11.312c.136 0 .247.068.247.153 0 .207-.257.355-.388.224-.184-.184-.112-.377.142-.377zm-26.26.328c.207 0 .266.115.228.45-.04.339-.154.467-.462.51-.226.031-.462.14-.525.241q-.114.185-.216-.079c-.122-.32.574-1.122.975-1.122m22.652 0c.255 0 .482.568.328.818-.057.09-.204.166-.328.166s-.274-.075-.33-.166c-.155-.25.075-.818.33-.818m8.428 0c.09 0 .21.073.266.163s.028.165-.063.165-.209-.074-.265-.165c-.055-.09-.028-.163.062-.163m-10.576.063a.17.17 0 0 1 .108.026c.083.052.153.201.153.33 0 .272-.26.317-.41.073-.11-.175 0-.412.149-.43zm7.724.32c.158-.029.298.395.188.683a.41.41 0 0 1-.358.246c-.195 0-.233-.093-.15-.369.061-.203.175-.438.252-.52a.12.12 0 0 1 .068-.04m-24.088.116c.104-.015.214.069.28.238.054.142.002.247-.12.247-.28 0-.447-.173-.337-.35.05-.082.114-.127.177-.136zm12.004.21c.171-.01.274.118.274.37 0 .197-.131.333-.354.365-.485.07-.673-.293-.294-.57q.22-.157.375-.165zm-2.211.783c.074.004.003.101-.178.312-.297.35-.7.441-.7.161 0-.093.188-.24.42-.328.254-.096.4-.149.458-.145m-13.635.337c.25-.005.535.243.535.552 0 .43-.306.467-.656.08-.237-.263-.26-.38-.107-.535a.32.32 0 0 1 .228-.096zm17.03.303c.187 0 .295.075.239.165s-.209.163-.339.163-.236-.073-.236-.163.151-.165.337-.165zm-16.733 1.149c.096 0 .13.074.074.164s-.135.164-.175.164-.071-.074-.071-.164.077-.164.172-.164m2.042.164c.136 0 .246.074.246.164s-.11.164-.245.164c-.136 0-.247-.074-.247-.164s.111-.164.246-.164m16.897.615a.24.24 0 0 1 .193.064c.268.222.284.585.03.669-.138.046-.14.15-.005.403.1.186.134.385.077.441-.198.199-.46.097-.835-.331l-.378-.43.446-.467c.213-.223.355-.333.472-.35zm8.07.735c.034-.014.087.1.194.358.272.652.187.845-.347.784-.485-.056-.598-.269-.219-.414.129-.05.263-.26.3-.468.028-.16.044-.249.071-.26zm-9.29.127c.085 0 .156.11.156.245 0 .253-.196.327-.38.142-.131-.131.017-.387.224-.387m7.74.737c.064.005.11.062.172.174.079.141.105.364.055.493-.119.309-.337.3-.609-.027-.185-.224-.171-.298.097-.494.136-.1.22-.15.285-.146m-12.103 1.57q.153.01.427.158c.358.192.418.651.122.947-.436.436-.788.114-.788-.72 0-.269.068-.393.24-.384zm-10.964.482c.31 0 .285.138-.143.767-.45.66-.692.702-.54.094.14-.554.385-.862.683-.862zm.018 1.51c.22-.017.706.316.612.467-.052.086-.156.156-.23.156-.192 0-.567-.484-.458-.592a.115.116 0 0 1 .075-.03z"/><path fill="#38461f" d="M11.379 31.843c-.08-.002-.147.03-.217.1-.14.14-.058.255.326.453.393.203.495.35.44.63-.253 1.244-.278 1.298-.554 1.226-.217-.056-.283.042-.296.434-.009.28.013.423.05.32.035-.104.196-.153.357-.111.225.059.294.244.294.806 0 .629-.054.745-.384.828-.328.082-.382.197-.382.815 0 .396.055.713.123.702.523-.082.738.234.279.41-.146.057-.214.029-.156-.064.055-.09.026-.163-.067-.163s-.161.33-.153.735.074.7.146.655c.073-.045.179-.007.237.085.137.223-.067.852-.242.744-.16-.1-.201 5.472-.04 5.728.17.272.184.572.03.583a7.854 7.854 0 0 0 7.497 6.236c5.28 0 7.617-.055 7.694-.18.079-.128.16-.128.289 0 .22.22 7.56.254 7.423.035-.05-.08.077-.19.279-.245.603-.162.818-.12.719.139-.08.21 1.068.24 8.927.247l1.412.002a7.855 7.855 0 0 0 7.589-7.868v-.086c0-6.036-.055-7.96-.203-7.962q-.194-.003-.026-.123c.094-.066.176-.433.183-.816.01-.558-.045-.698-.273-.698-.249 0-.279.14-.23 1.085l.059 1.087-.477-.096c-.425-.084-.472-.052-.446.3.017.217-.044.382-.133.364-.09-.017-.152-.136-.137-.263.033-.277-.582-.823-.935-.832-.468-.01-.92-.472-1.122-1.15-.162-.538-.265-.656-.503-.58-.323.102-.497-.278-.501-1.096-.003-.602-.243-.702-.913-.385-.658.313-.678.394-.237.954.347.441.425.776.183.776-.08 0-.269.258-.419.574-.292.617-.586.722-.913.328-.231-.28-.75-.327-.9-.081-.058.09-.247.163-.422.163s-.318.074-.318.165c0 .09.105.164.234.164.276 0 1 .953.843 1.11-.06.06-.256.016-.436-.097-.45-.281-.667-.096-.609.52.047.483.015.518-.476.518-.327 0-.612.116-.754.31-.304.415-.423.313-1.097-.952l-.572-1.072.308-.575c.254-.474.273-.619.098-.829-.256-.309-.093-.528.207-.278.118.098.47.167.783.155.312-.012.695.036.849.106.216.098.304.032.386-.295.128-.51.651-.576.777-.098.11.422.392.422.525 0 .068-.21-.03-.518-.273-.86-.208-.292-.358-.652-.333-.8.074-.433-.506-.55-.767-.155-.312.469-.499.422-.462-.113.024-.354-.048-.463-.338-.504-.302-.043-.352-.125-.27-.452.173-.688-.813-.37-1.087.35-.219.575-.543.51-.455-.091.061-.42.02-.492-.287-.492-.344 0-.357.05-.278 1.148.074 1.046.056 1.149-.228 1.149-.17 0-.402-.148-.516-.328-.269-.43-1.91-.485-2.071-.069-.22.574-.107 1.028.27 1.082.43.061.588.674.275 1.05-.163.197-.14.29.111.48.172.129.398.237.504.24.292.009.345-.543.074-.75-.287-.219-.133-.72.22-.72.159 0 .251.15.251.41 0 .3.088.409.328.409.186 0 .329.11.329.252 0 .137.11.293.246.345.331.127.31.373-.04.505-.158.06-.37.218-.47.353-.157.208-.261.213-.705.029-.466-.193-.546-.184-.755.094-.292.385-.296.477-.04.89.17.273.162.357-.04.484-.392.243-.738-.197-.503-.636.138-.26.138-.347-.002-.347-.116 0-.151-.149-.09-.391.134-.536-.29-.899-.73-.624-.426.266-.8.245-.915-.051a.4.4 0 0 0-.34-.247q-.25.002-.162-.328c.065-.246.004-.328-.239-.328-.233 0-.299.08-.234.288.159.512-.143.755-.805.647-.467-.076-.684-.026-.949.22-.189.177-.403.322-.477.322-.265 0-.126-.529.214-.803.327-.265.332-.3.072-.56-.362-.363-.46-.35-.86.092-.523.577-.728 1.347-.454 1.708.125.166.231.438.234.607.004.236-.087.289-.391.23-.298-.056-.44.021-.571.31-.243.533-.71.48-1.065-.122l-.299-.503-.378.355c-.207.195-.421.593-.476.887-.083.438-.209.568-.707.722-.493.15-.68.14-.979-.057-.43-.282-.542-.3-.542-.085 0 .085-.185.354-.41.596-.337.365-.45.405-.656.234-.136-.114-.25-.142-.25-.063-.002.079-.073.253-.158.388-.133.21-.19.198-.397-.083-.223-.302-.248-.305-.351-.039-.062.158-.213.288-.34.288-.146 0-.227.184-.227.517 0 .508-.007.512-.329.22-.472-.427-.43-.9.082-.9.327 0 .411-.085.411-.407a.68.68 0 0 0-.344-.588c-.262-.14-.318-.28-.238-.599.079-.312.02-.476-.23-.651-.185-.13-.337-.315-.337-.411 0-.109.093-.097.25.033.317.264.467.119.328-.32-.109-.342-.742-.49-.742-.173 0 .093-.195.244-.433.334-.395.15-.41.187-.177.446.318.355.192 1.135-.22 1.355-.368.197-.445.084-.635-.93-.119-.638-.099-.818.11-.97s.223-.282.08-.691c-.214-.611-.125-.728.378-.5.41.188.897.086.897-.186 0-.097-.206-.125-.492-.067-.42.084-.493.05-.493-.24 0-.5-.253-.573-.91-.261-.782.37-1.13.092-.596-.475.337-.36.476-.77.259-.77-.054 0-.331.098-.615.221-1.33.575-1.435.601-1.757.429-.175-.094-.318-.315-.318-.492 0-.178-.073-.323-.162-.323s-.145.13-.123.287-.033.287-.122.287-.166-.073-.174-.164c-.033-.428-.774-1.723-.986-1.723-.435 0-.245-.505.255-.68.554-.193.656-.468.172-.468-.175 0-.362-.074-.418-.164-.114-.184-.789-.223-.956-.057-.06.06-.026.208.074.328.135.164.131.285-.02.468-.376.451-.769.28-1.132-.493-.191-.406-.416-.739-.498-.739-.084 0-.304.194-.49.43-.427.543-.833.417-.833-.26 0-.39-.074-.498-.333-.498-.18 0-.473-.09-.65-.2-.12-.076-.213-.113-.292-.116zm-.197 1.136c-.189 0-.234.703-.056.88.164.165.423-.364.315-.644-.049-.13-.166-.236-.259-.236m7.082.344q-.159-.015-.54.292c-.367.298-.37.32-.096.738.346.53.602.555.605.061.001-.202.047-.534.1-.737q.09-.338-.07-.354zm28.055.97c-.114 0-.199.161-.199.445 0 .41.021.423.265.18.146-.147.215-.348.154-.447-.075-.123-.152-.178-.22-.178m-35.235 1.038c-.044.004-.072.04-.072.099 0 .095.074.174.164.174s.164-.032.164-.072-.074-.118-.164-.175a.15.15 0 0 0-.092-.026m.029.5c-.059.003-.1.067-.1.173 0 .14.073.256.163.256s.164-.069.164-.154-.074-.2-.164-.256a.1.1 0 0 0-.063-.018zm23.787 0c-.058.003-.1.067-.1.173 0 .14.073.256.163.256s.165-.069.165-.154-.074-.2-.165-.256a.1.1 0 0 0-.063-.018zm-19.086.296a.444.445 0 0 1 .326.111c.103.102.357.187.565.187.471 0 .476.207.018.827-.198.267-.405.485-.461.485-.532 0-1.029-1.407-.56-1.586a.4.4 0 0 1 .112-.024m32.428.343c.254.001.3.316.204 1.103-.097.77-.167.91-.482.955-.424.06-.68-.381-.39-.672.102-.102.186-.42.186-.708 0-.338.097-.562.274-.63a.6.6 0 0 1 .208-.048m-35.22.069c.1-.013.123.054.123.218 0 .387.3.58.538.343.39-.392.651-.21.541.378-.117.627.082.853.684.775.435-.056.453.023.12.532-.209.317-.405.385-1.2.408l-.95.03-.349-.786c-.413-.925-.338-1.53.217-1.793.13-.062.217-.097.277-.105zm30.117.204a.39.39 0 0 0-.345.297 7 7 0 0 1-.2.574c-.082.196-.043.287.12.287.131 0 .37.149.534.33.277.306.322.309.595.061.367-.332.328-.608-.102-.728-.225-.062-.312-.204-.277-.45.036-.253-.14-.384-.324-.372zm-24.372.18c.066-.003.103.108.077.35-.058.527.661.684 1.145.25.336-.302.374-.306.473-.045.06.154.026.365-.076.468s-.187.428-.187.726c0 .621-.372.744-.656.213a.68.68 0 0 0-.573-.328c-.539 0-.735-.407-.526-1.088.106-.347.238-.541.323-.545zm18.822.814c.09 0 .165.074.165.164a.164.165 0 0 1-.165.165.164.165 0 0 1-.163-.165c0-.09.073-.164.163-.164m11.648 0q.328 0 .328.328c0 .372-.17.42-.46.132s-.24-.46.132-.46m-32.403.328c.124 0 .483.167.798.369.47.304.556.443.48.78-.13.584-.191.656-.548.656-.21 0-.318.113-.318.328q.001.66-.55-.099c-.298-.41-.297-.424.041-.785.437-.464.436-.694 0-.808-.364-.095-.287-.44.097-.44zm31.84.42c.168-.021.516.21.62.477.055.144.008.251-.112.251-.27 0-.6-.335-.6-.613 0-.072.035-.107.091-.114zm-8.193.072c.367 0 .647.756.394 1.062-.22.262-.284.277-.62.141-.385-.155-.189-1.203.226-1.203m5.725.328c.25 0 .328.57.143 1.053-.11.286-.885.362-.885.088 0-.358.509-1.14.742-1.14zm-12.285.574a.44.44 0 0 1 .317.093c.18.149.193.252.052.422-.27.324-1.15.3-1.024-.027a.8.8 0 0 1 .656-.488zm-21.445.115c.175-.011.341.185.341.47 0 .175-.104.318-.229.318-.289 0-.49-.497-.284-.702a.27.27 0 0 1 .173-.086zm19.704.296c.341 0 .138.492-.243.588-.222.056-.49.203-.595.33-.264.318-.643.255-.643-.108 0-.135 1.235-.81 1.482-.81zm-13.31.155q.052-.006.117.053c.054.055.066.192.029.306-.056.166-.094.167-.197 0-.103-.166-.052-.348.051-.359m-.87.445c.113.005.268.066.53.187.333.153.666.376.741.495.09.141.301.178.615.109.402-.088.479-.053.479.217 0 .177.11.412.246.525.135.112.246.297.246.411 0 .336.469.422.638.117.087-.154.212-.225.278-.16.066.067.206.05.313-.038.127-.106.341-.093.626.04.5.232.797.728.32.532-.813-.335-.854-.316-.748.352.055.348.157.655.229.683.07.03.09.158.04.288-.235.61-1.395-.22-1.633-1.17-.055-.22-.133-.399-.175-.399-.24 0-.708.374-.708.565 0 .182-.094.191-.482.044-.356-.135-.59-.131-.908.014-.366.167-.438.153-.514-.092a4 4 0 0 0-.24-.566c-.185-.347-.032-.786.274-.786.356 0 .271-.272-.201-.644-.35-.275-.395-.383-.235-.576.086-.103.155-.154.269-.149zm3.012.219q.068 0 .163.093c.081.084.199.43.26.77.115.622-.02.856-.188.328a6 6 0 0 0-.269-.657c-.14-.294-.1-.539.034-.534m14.203.073c.057-.002.108.012.14.044.052.052.055.158.007.235-.116.186-.56.181-.56-.006 0-.135.24-.27.413-.273m-21.777.338c.053.009.115.064.203.17.186.224.184.288-.013.414-.461.293-.657.025-.342-.47.053-.083.098-.122.152-.113zm.75.142c.21-.034 1.582 1.395 1.582 1.662 0 .222-1.226.224-1.522.005-.237-.177-.296-1.44-.077-1.658a.03.03 0 0 1 .017-.01zm19.294 1.097c.07.009.178.052.31.137.136.085.16.181.06.243-.089.055-.253-.009-.365-.144-.139-.166-.123-.25-.005-.236m3.934.32c.259 0 .392.685.16.829-.173.107-.172.177.002.386.117.14.17.369.118.505-.149.387-.59.293-.762-.161-.165-.433-.578-.553-.704-.206-.059.162-.12.163-.287.005-.172-.162-.153-.22.102-.314.173-.064.519-.324.767-.58.25-.255.52-.464.604-.464m-15.758.343a.14.14 0 0 0-.094.043c-.05.05-.049.206.005.346.122.32.436.331.436.016 0-.212-.196-.413-.347-.405m23.77.477c.233 0 .529.382.529.684 0 .159.146.367.324.463.324.173.324.174 0 .497-.415.415-.593.41-.705-.02-.085-.324-.548-.365-.501-.045.012.08.07.42.13.76s.047.614-.029.614c-.236 0-.532-.378-.532-.678 0-.157-.07-.332-.157-.385-.091-.056-.025-.318.16-.624a10 10 0 0 0 .482-.897c.09-.203.224-.369.297-.369zm-30.809.197a.2.2 0 0 1 .044.009.32.32 0 0 1 .205.287.32.32 0 0 1-.205.287c-.123.04-.205-.076-.205-.287 0-.186.063-.298.16-.296zm29.393.567c.107.003.142.106.19.354.046.241.048.494.006.562-.094.153-.618.164-.767.016-.236-.236-.09-.668.284-.838.133-.06.223-.096.287-.094m-27.749.057c.256 0 .193.25-.137.549-.335.302-.684.357-.684.107 0-.09.148-.164.328-.164.182 0 .329-.11.329-.246s.073-.246.164-.246m22.647.81c.164-.004.282.045.44.143.294.184.333.29.2.54-.187.35-.295.375-.647.148-.136-.088-.475-.161-.753-.163-.82-.005-.801-.222.045-.497.34-.11.55-.167.715-.172zm-15.572.516c.297.014.635.252.635.593 0 .117-.055.203-.122.19a19.764 19.765 0 0 0-.575-.095c-.496-.075-.495-.072-.352-.443.07-.18.235-.253.414-.245m13.35.315a.245.245 0 0 1 .245.244.247.247 0 0 1-.245.247.247.247 0 0 1-.247-.246c0-.135.111-.246.247-.246zm4.594 0c.134 0 .245.073.245.163s-.11.165-.245.165c-.136 0-.247-.075-.247-.165s.111-.163.247-.163m1.722 0c.09 0 .164.073.164.163a.164.165 0 0 1-.164.165.164.165 0 0 1-.164-.165c0-.09.073-.163.164-.163m-11.278.028a1 1 0 0 1 .362.103c.442.201.545.66.22.984-.33.33-.584.222-.774-.326-.175-.502-.1-.77.192-.761m-11.03.464c.406 0 .406.039-.044.826-.393.688-.572.793-.715.42-.14-.368.394-1.247.759-1.247zm8.182.317q.053-.007.117.055c.054.054.066.192.028.306-.055.166-.092.166-.196 0-.103-.166-.051-.35.051-.361m-13.69.052c.135.02.422.39.56.789.1.282.106.482.018.482-.169 0-.65-.86-.65-1.16 0-.084.027-.116.073-.11zm8.622.123c.09 0 .164.147.164.328s-.073.328-.164.328c-.09 0-.164-.149-.164-.328s.073-.328.164-.328m-2.963 1.025c.24-.006.666.212.666.388a.227.228 0 0 1-.225.228c-.24 0-.691-.453-.571-.574.028-.028.074-.04.13-.042m-4.771.363a.1.1 0 0 1 .035.013c.084.052.152.233.152.403 0 .362-.26.572-.41.33-.135-.219.046-.773.223-.746m16.757 2.55c.09 0 .164.073.164.163a.164.165 0 0 1-.164.165.164.165 0 0 1-.164-.165c0-.09.074-.164.164-.164zm1.712 1.859c-.043.004-.071.04-.071.099 0 .096.073.175.163.175s.165-.033.165-.073-.075-.118-.165-.175a.15.15 0 0 0-.092-.026"/><path fill="#1b220f" d="M42.282 32.816c-.035 0-.106.11-.158.245-.052.136-.023.247.065.247s.16-.111.16-.247c0-.134-.03-.245-.067-.245m-31.13.413c-.05.006-.085.07-.085.167 0 .132.062.24.138.24s.136-.069.136-.154a.32.32 0 0 0-.136-.239.1.1 0 0 0-.053-.014m30.03.407c-.172 0-.194.226-.038.383.2.2.375.113.28-.137-.053-.135-.162-.246-.242-.246m-28.758.04c-.215.018-.42.236-.425.493-.004.215.442.132.653-.122.164-.197.15-.264-.079-.351a.332.333 0 0 0-.149-.02m3.201.37a.3.3 0 0 0-.1.022c-.136.053-.246.16-.246.241s.11.147.245.147.246-.108.246-.24c0-.11-.055-.171-.145-.17m23.85.101a6 6 0 0 0-.46.013c-.81.048-.854.075-.907.541-.053.473-.044.48.26.205.173-.158.44-.285.596-.285.356 0 1.106.793 1.073 1.136a2 2 0 0 0-.005.38c.033.218.308.132.407-.125.067-.175.221-.22.51-.147.34.085.415.045.415-.224 0-.446.375-.56.822-.247.324.228.383.23.505.012.076-.134.473-.373.882-.529s.703-.352.653-.434c-.146-.237-.594-.175-.93.128-.227.205-.649.287-1.604.311-1.213.03-1.315.006-1.561-.369-.173-.265-.291-.356-.656-.366m-24.67.347c-.077-.009-.151.032-.256.12-.355.294-.318.465.114.536.532.088.738-.149.412-.475-.111-.112-.193-.172-.27-.181m-1.659.629c-.078-.004-.194.032-.341.125-.181.112-.391.165-.467.117-.219-.135-.523.333-.409.63.109.283.725.376.725.109 0-.088.16-.307.357-.49.288-.27.306-.482.135-.491m2.706.048c-.044.004-.108.047-.204.12a9 9 0 0 1-.345.255c-.031.02-.009.117.05.213.213.343.582.18.582-.256 0-.241-.012-.34-.083-.333zm23.21.105c-.088 0-.16.111-.16.247s.03.246.065.246.108-.11.16-.246.022-.246-.065-.246zm-24.809.082c-.057-.006-.1.046-.16.153-.075.135-.09.432-.034.66l.105.413.297-.367c.274-.338.278-.39.034-.66-.113-.127-.185-.192-.242-.199m33.179.59q-.082.013-.242.145c-.137.114-.25.427-.25.694 0 .662.37.512.517-.21.093-.453.094-.645-.026-.629zm-27.049.149c-.09 0-.21.074-.265.164s-.029.164.061.164.211-.074.267-.164.026-.164-.063-.164m32.47.096c-.053.005-.1.14-.112.33-.013.216.027.394.09.394.148 0 .19-.63.046-.72a.04.04 0 0 0-.023-.004zm-37.727.11c-.11-.006-.245.084-.302.256-.035.106.052.194.195.194a.26.26 0 0 0 .259-.26c0-.126-.068-.187-.152-.19m23.76.148a.13.13 0 0 0-.1.035c-.067.067-.014.186.116.267.306.19.444.052.196-.196a.34.34 0 0 0-.211-.106zm-19.342.138c-.385 0-.39.017-.137.57.14.307.23.367.326.214.248-.389.152-.784-.189-.784m-8.477.043q-.052-.01-.052.229c-.002.245.087.342.285.313.158-.024.269-.09.245-.149-.022-.06-.087-.101-.144-.094-.058.008-.168-.084-.245-.205q-.057-.09-.089-.094m34.373.055c-.084-.005-.152.014-.194.056-.21.21.267.936.705 1.075.184.058.334.248.334.422 0 .175.076.318.17.318.26 0 .388-.492.18-.7a.76.76 0 0 1-.186-.469c0-.284-.645-.685-1.009-.703zm-12.348.063a2 2 0 0 0-.169.026c-.372.07-.989 1.033-.827 1.293.175.284.486.088.547-.345a1.6 1.6 0 0 1 .328-.702c.192-.216.236-.279.12-.272zm15.982.168a.164.165 0 0 0-.164.163c0 .09.074.165.164.165a.164.165 0 0 0 .164-.165.164.165 0 0 0-.164-.163m3.872.163c-.035 0-.106.111-.158.247-.052.135-.023.245.065.245s.147-.11.147-.245c0-.136-.018-.247-.053-.247zm-2.747.19c-.08 0-.14.09-.14.22 0 .151.079.248.175.216.097-.033.177-.13.177-.215s-.079-.183-.176-.216a.1.1 0 0 0-.036-.005m-9.082.303c-.124 0-.271.073-.328.163-.057.094.084.165.328.165.245 0 .386-.071.328-.165-.055-.09-.203-.163-.328-.163m-5.946.099c-.613.049-.698.084-.698.297 0 .252-.875.597-1.372.54a.55.55 0 0 0-.475.228c-.13.2-.086.348.186.62.298.297.37.315.451.105.125-.324.944-.323 1.212 0 .169.205.153.309-.087.575-.162.178-.423.324-.58.324-.25 0-.484.306-.483.63 0 .06.259.127.574.15s.574-.016.574-.084c0-.24.68-.546.994-.446.447.142.396.55-.091.735-.226.086-.41.27-.41.407 0 .27-.255.337-.397.106-.05-.08-.293-.184-.544-.234a6 6 0 0 1-.758-.21c-.235-.09-.29-.05-.247.174.032.16.313.372.631.475.525.17.574.238.58.84.011.837-.177 1.118-.595.894-.171-.091-.313-.293-.317-.448-.006-.332-.627-1.076-1.027-1.23-.39-.149-.35-.362.125-.674.223-.145.368-.362.321-.48-.108-.283-1.035-.161-1.433.189-.38.333-.762.118-1.09-.607-.295-.658-.761-.631-.713.04.03.41-.01.45-.359.363-.216-.054-.583-.013-.814.093-.343.157-.418.304-.418.82 0 .534-.054.63-.352.63a.8.8 0 0 0-.564.288c-.29.39-.83.072-.754-.445.041-.277-.018-.35-.245-.307-.187.035-.32.228-.353.508-.035.294-.148.448-.332.448-.154 0-.446.117-.648.259-.301.21-.512.228-1.142.094-.426-.091-.8-.14-.832-.11-.03.031.057.23.194.442.217.334.219.422.014.7-.359.484-.285.635.256.526.374-.074.493-.038.493.15 0 .137.148.45.33.697.27.364.31.591.221 1.239-.118.866-.441 1.138-.787.665-.15-.205-.175-.424-.08-.678.125-.326.092-.374-.252-.374-.251 0-.433.12-.499.328-.058.181-.216.328-.352.328-.194 0-.224-.116-.135-.533.063-.293.19-.626.283-.742.093-.114.138-.24.1-.278-.108-.109-1.126.584-1.126.766 0 .09-.15.37-.332.627-.372.523-.218.744.412.586.44-.111.708.163.431.441a.75.75 0 0 0-.184.46c0 .164-.166.308-.411.355-.324.061-.457-.014-.617-.35-.113-.236-.354-.45-.537-.477-.182-.026-.418-.186-.525-.355-.155-.249-.134-.383.107-.692a3 3 0 0 0 .418-.768c.08-.254.178-.33.284-.224.187.187.79.07.79-.152 0-.082-.188-.219-.416-.306-.538-.205-.676-.592-.343-.96.146-.162.267-.418.267-.569 0-.388-.505-.342-.61.054-.093.359-.528.454-.557.123l-.042-.45c-.017-.19-.2-.234-.801-.19-.643.046-.78.007-.78-.221 0-.152-.153-.317-.338-.366-.236-.061-.302-.167-.22-.353.063-.147.128-.51.145-.809.025-.446-.053-.586-.434-.783-.272-.14-.465-.376-.465-.565 0-.237-.112-.324-.414-.324h-.411l.53.474c.466.417.501.508.302.748-.206.25-.292.205-.948-.48l-.721-.753.378-.311c.607-.496.222-.66-1.013-.433-1.228.226-1.447.58-.758 1.227l.401.38.184-.344c.268-.498.449-.423.573.237.075.403.23.629.497.73.214.082.413.274.443.429.03.156.307.367.617.472.755.254.986.63.627 1.025-.155.172-.236.446-.188.634.128.49-.412 1.047-1.126 1.16-.528.086-.677.036-1.026-.34-.224-.243-.408-.487-.408-.543 0-.055-.123-.238-.272-.403-.253-.28-.25-.3.042-.304.29-.004.291-.018.026-.172-.158-.092-.334-.456-.39-.81q-.104-.644-.41-.743c-.21-.066-.309-.253-.309-.579 0-.44-.049-.48-.568-.48-.42 0-.62.096-.764.365-.19.356-.198.357-.321.042-.086-.22-.132-.043-.139.546-.007.542.05.833.152.77.22-.136.21.134-.012.357-.126.126-.053.153.257.094.308-.06.385-.136.26-.26-.218-.218-.234-.93-.021-.93.262 0 .993.373.993.506 0 .069.189.35.42.624l.419.498-.42.107c-.495.124-.566.562-.091.562.182 0 .328.11.328.247 0 .136.146.245.328.245.42 0 .427.332.01.442-.536.14-.196.527.923 1.05.73.342 1.119.631 1.253.937.106.243.334.649.504.9.253.375.274.532.125.862-.102.221-.255.402-.341.402-.206 0-.679-.672-.582-.827.04-.066-.11-.241-.335-.389-.28-.184-.408-.416-.408-.741 0-.526-.26-.702-.701-.474-.367.19-.612.043-.612-.368 0-.175-.077-.317-.17-.317s-.237-.184-.322-.409l-.154-.406-.427.425c-.481.482-.428.97.09.834.417-.108.56.114.243.378a.76.76 0 0 0-.245.511c0 .467-.285.372-.897-.296l-.394-.431a7.85 7.85 0 0 0 7.472 6.12c6.597 0 7.437-.03 7.567-.262.133-.238.168-.238.406 0 .223.222.792.262 3.891.262 2.622 0 3.598-.052 3.518-.184-.152-.243.232-.468.806-.47.33-.002.491.094.552.326.081.31.224.328 2.609.328 1.388 0 2.516-.055 2.506-.123a2.4 2.4 0 0 1 .015-.451c.03-.278.054-.266.15.081l.115.411 5.206.035a7.854 7.854 0 0 0 6.987-7.762c-.022-5.605-.073-7.23-.22-7.029a.57.57 0 0 1-.513.209c-.25-.044-.309.026-.269.315.07.505-.218.46-.787-.123-.281-.286-.522-.418-.583-.32q-.105.172-.34-.025c-.13-.107-.251-.166-.272-.13-.34.59-.397.783-.284.966.158.254.035.656-.198.656-.089 0-.38-.154-.644-.343-.266-.19-.6-.3-.744-.245a.51.51 0 0 1-.463-.068c-.292-.242-.707.263-.438.532.278.277.24.378-.228.59-.24.11-.372.27-.308.373.123.199-1.129.051-1.56-.183-.13-.071-.411-.048-.627.05-.306.14-.423.126-.535-.055-.079-.127-.166-.196-.192-.153-.44.68-.445.788-.044 1.05.6.394.504.703-.26.831-.525.09-.643.171-.572.394.049.153-.014.42-.14.593-.184.25-.277.274-.467.116-.13-.109-.286-.15-.343-.093-.058.059.02.201.177.319.263.195.245.248-.229.687l-.514.472.083-.67a2.1 2.1 0 0 1 .556-1.17c.26-.275.473-.683.473-.906 0-.224.112-.57.25-.767.232-.332.22-.409-.158-1.006-.225-.357-.484-.696-.579-.755-.094-.057-.17-.285-.17-.505s-.064-.4-.144-.4c-.235 0-.55.463-.438.645.057.093.056.43-.003.746-.077.41-.195.578-.409.578-.164 0-.345-.074-.401-.164-.055-.09-.282-.165-.502-.165-.4 0-.528-.288-.259-.582.08-.086.192-.36.25-.607.14-.596-.265-.612-.671-.026a5 5 0 0 1-.581.693c-.158.147-.287.361-.287.476 0 .116-.075.21-.165.21l-.262.003c-.055 0-.122-.339-.148-.753-.034-.544-.143-.819-.393-.994-.19-.134-.345-.341-.345-.462 0-.12-.216-.25-.48-.289-.376-.055-.526.014-.685.312-.265.495-.677.501-.61.01.032-.22-.03-.362-.153-.352zm-17.206.292a.1.1 0 0 0-.065.02c-.092.057-.123.172-.072.256.14.228.24.184.24-.104 0-.105-.044-.17-.103-.172m3.213.149c-.28.02-.65.331-.65.613 0 .36.195.406.667.154.339-.181.422-.568.158-.731a.3.3 0 0 0-.175-.036m24.212.351q-.034.005-.089.093a1.16 1.16 0 0 0-.163.52c0 .15-.08.3-.175.33-.099.034-.122.19-.055.365.114.297.124.297.336.007.122-.166.219-.564.218-.885-.002-.301-.02-.435-.072-.429zm-34.106.197c-.067.013-.104.125-.139.366-.063.427-.037.458.228.292.356-.223.369-.334.07-.582q-.102-.087-.16-.076zm23.672.224c.084 0 .2.074.256.164s-.015.164-.155.164-.255-.074-.255-.164.069-.164.154-.164m-16.386.174c-.142-.017-.338.244-.338.546 0 .317.07.362.476.302.378-.056.5.003.59.29.124.392.312.287.479-.268.09-.3.023-.365-.461-.456-.313-.058-.596-.19-.63-.294-.027-.077-.069-.113-.116-.12m2.04.646c-.38 0-.55.297-.307.54.134.135.718-.176.718-.382 0-.088-.184-.158-.41-.158zm15.996 0c.09 0 .164.111.164.247 0 .135-.073.245-.164.245-.09 0-.164-.11-.164-.245 0-.136.074-.247.164-.247m2.172.35c.115-.009.284.067.402.186.154.154.184.283.08.348-.092.057-.293-.023-.448-.178-.2-.201-.225-.3-.08-.349a.2.2 0 0 1 .046-.009zm-26.853.143c-.04 0-.117.073-.173.163s-.024.165.071.165c.097 0 .175-.074.175-.165s-.034-.163-.073-.163m11.11.152c-.066-.007-.15.076-.185.184s.022.166.13.13c.213-.07.25-.294.053-.315zm15.284.723a.15.15 0 0 1 .092.027c.09.056.164.135.164.175s-.074.07-.164.07-.164-.078-.164-.173c0-.06.028-.095.072-.1zm-14.464.06c-.354.013-1.026.345-1.029.567.003.098.213.118.534.05.658-.137.904-.346.678-.571-.036-.036-.102-.05-.184-.047zm6.64.215c.112-.01.206.11.206.326 0 .181-.07.328-.156.328-.22 0-.375-.298-.254-.492.064-.105.137-.157.205-.162zm-3.834.39a.1.1 0 0 0-.065.02c-.092.057-.124.17-.072.255.14.227.24.185.24-.103 0-.105-.044-.17-.103-.172m10.716.806a.444.445 0 0 1 .178.02c.382.121.589.726.348 1.016-.104.126-.11.402-.02.747.149.565.34.63 1.133.38.261-.082.47-.006.754.279.455.455 1.225.496 1.457.079.246-.439.424-.319.506.342.064.507-.055 1.04-.296 1.326-.024.03-.378-.134-.785-.361-.624-.348-.772-.376-.931-.183-.222.267-.084.571.257.571.13 0 .238.074.238.164 0 .248-.372.199-.809-.108-.362-.253-.402-.253-.588 0a.73.73 0 0 1-.52.272c-.174 0-.482.222-.682.492-.201.271-.46.493-.575.493-.37 0-.775-.404-.743-.74.064-.678-.02-.923-.308-.879-.507.077-1.19-.182-1.19-.452 0-.194.103-.237.394-.163.272.068.423.02.49-.158q.1-.255.429-.151c.21.067.485-.017.761-.234.315-.248.359-.34.164-.34-.19 0-.269-.147-.269-.493 0-.571-.163-.63-.455-.164-.112.181-.35.328-.53.328-.346 0-.44-.239-.163-.41.09-.055.164-.244.164-.42 0-.179.112-.318.254-.318.14 0 .466-.23.722-.51.253-.277.438-.409.615-.425m7.104.279c.09 0 .165.073.165.163a.164.165 0 0 1-.165.165.164.165 0 0 1-.163-.165c0-.09.073-.163.163-.163m-32.34.328c-.09 0-.116.073-.06.164.055.09.175.164.264.164s.119-.074.063-.164-.176-.164-.266-.164zm15.533 0c.04 0 .074.073.074.164s-.08.164-.175.164c-.096 0-.127-.074-.071-.164.055-.09.132-.164.172-.164m16.144.162c.136-.01.342.135.468.412.103.226.264.41.359.41s.242-.184.328-.41c.262-.688 1.053-.425 1.364.451.116.33.705.389.815.082.04-.112.132-.149.203-.082.073.068-.25.495-.715.949-.633.616-.784.849-.6.919a.8.8 0 0 0 .495-.002c.166-.063.36.084.571.431.443.728.149.985-.46.402-.556-.534-.726-.56-.658-.095.07.477-.785.607-.933.142-.128-.404-.553-.483-1.112-.208-.251.122-.583.202-.738.176-.21-.035-.269.048-.231.32.074.537-.401.473-.585-.078-.114-.343-.074-.573.168-.983.335-.57.724-.699.88-.29.126.328.88.324.88-.006 0-.138-.129-.293-.287-.344-.607-.194-1.026-.453-1.026-.636 0-.104.176-.354.392-.557.247-.231.362-.485.31-.685-.055-.208.007-.31.113-.318zm-28.539.002a.164.165 0 0 0-.164.164.164.165 0 0 0 .328 0 .164.165 0 0 0-.164-.164m-4.147.186c-.126-.014-.137.126-.067.557.056.343.195.685.311.759.327.207.822.163.748-.067-.035-.112-.224-.277-.416-.364-.206-.092-.335-.288-.317-.473.018-.174-.07-.352-.198-.396a.3.3 0 0 0-.06-.016zm16.789.306c.095 0 .128.074.073.164s-.134.164-.175.164c-.039 0-.071-.074-.071-.164s.077-.164.173-.164m-10.11.183c.067.005.093.063.063.156a.5.5 0 0 1-.287.287c-.123.04-.185-.021-.144-.144a.5.5 0 0 1 .287-.288.2.2 0 0 1 .08-.011zm20.69.034c.044.003.074.035.074.092 0 .09-.074.21-.164.265s-.164.026-.164-.063c0-.09.074-.21.164-.265a.16.16 0 0 1 .09-.029m-5.88.17q.07.009.13.106a.31.31 0 0 1-.046.356q-.164.165-.282-.029a.305.305 0 0 1 .044-.357q.083-.082.154-.075zm.82.108c.164.003.483.245.846.667.304.354.525.635.493.624a14 14 0 0 0-.389-.102c-.353-.09-1.066-.783-1.066-1.036 0-.104.042-.153.116-.153m-1.838.137c.085 0 .18.079.213.177.033.096-.063.175-.213.175s-.248-.08-.216-.175c.033-.097.13-.177.216-.177m-16.492.036a.4.4 0 0 0-.152.065.206.206 0 0 0-.073.28c.068.11.154.094.24-.048.123-.197.105-.315-.015-.297m-4.077.562-.01.424c-.006.234.043.478.109.544.194.194.23-.144.06-.571zm20.847.41c.072 0 .131.094.131.207s.148.3.328.412a.68.68 0 0 1 .041 1.121c-.595.452-1.025.134-1.025-.755 0-.555.228-.984.525-.984zm-13.157.329c.09 0 .164.073.164.164a.164.165 0 0 1-.164.164.164.165 0 0 1-.164-.164c0-.09.073-.164.164-.164m18.661.574c-.171.017-.451.257-.451.43 0 .08.065.144.143.144.215 0 .527-.424.404-.547q-.035-.034-.097-.026zm-8.874.113c.116-.009.307.07.546.262.312.253.33.324.125.493-.19.157-.293.136-.51-.102-.343-.38-.356-.638-.161-.653m-.447.464c.098.01.175.123.175.315 0 .175-.075.364-.166.42-.201.125-.399-.324-.25-.565.076-.122.165-.177.241-.17m-9.342.014c.06 0 .121.038.197.114.267.267-.031.565-.36.362-.194-.12-.201-.192-.04-.354.08-.08.14-.12.202-.122zm15.39.147c.286 0 .732.452.621.63-.127.209-.472.252-.643.08-.155-.153-.137-.71.022-.71m-3.153.164c.143 0 .23.088.195.195-.102.305-.455.355-.455.065a.26.26 0 0 1 .26-.26m-16.94.199q.051.006.14.093c.106.107.156.232.109.28-.11.109-.302-.085-.302-.303q.002-.078.053-.07m19.66.294c.181 0 .302.118.302.295 0 .162.088.384.197.492.127.128.14.252.037.355-.103.105-.315-.035-.6-.39-.458-.575-.442-.753.065-.753zm-11.12.192a.4.4 0 0 1 .172.026c.141.055.259.212.259.35 0 .287-.58.344-.748.074-.126-.204.072-.434.316-.449zm20.348.163q.103.004.251.052c.188.059.301.177.25.261-.128.206-.524.193-.657-.023-.12-.193-.051-.3.156-.29m-14.027.055.335.388c.342.393.416.774.238 1.239-.055.142-.207.26-.335.26-.314 0-.488-.494-.23-.653q.205-.128.099-.681zm6.841.081a.227.228 0 0 1 .23.226c0 .305-.436.656-.561.453-.146-.236.07-.679.331-.679m-3.308.165c.289 0 .348.416.083.58-.114.07-.082.245.095.515.147.224.227.511.179.637-.123.32.458.595.982.464.33-.083.418-.055.36.117-.04.126-.24.253-.442.283-.201.029-.405.158-.455.287-.093.242-.572.318-.768.12-.062-.06-.429-.094-.815-.074-.655.034-.731-.01-1.135-.627-.238-.364-.411-.661-.386-.661.026 0 .264.108.53.24.697.348 1.618.398 1.618.088 0-.158-.133-.232-.37-.207-.48.05-.483-.337-.003-.817.201-.201.345-.497.318-.656-.03-.174.054-.29.209-.29zm-8.843.164a.245.245 0 0 1 .24.246c0 .135-.066.245-.147.245s-.189-.11-.24-.245c-.058-.15 0-.246.147-.246m-5.576.735c.114 0 .238.07.238.177 0 .04-.115.072-.256.072-.14 0-.21-.075-.152-.167.035-.057.1-.082.17-.082m10.417.894c.09-.006.157.033.158.135.002.067.047.288.1.492.08.295.034.369-.236.369-.42 0-.575-.232-.44-.658a.53.53 0 0 1 .418-.338m12.316.504c.09 0 .119.073.063.163s-.177.165-.267.165-.117-.074-.061-.165.175-.163.265-.163m-9.8.884c.059.001.102.066.102.172 0 .289-.1.332-.24.105-.052-.085-.02-.201.072-.257a.1.1 0 0 1 .065-.02zm8.96.428c.09 0 .164.074.164.164a.164.165 0 0 1-.163.164.164.165 0 0 1-.165-.164c0-.09.075-.164.165-.164z"/><g fill-rule="evenodd" stroke-linecap="square" stroke-linejoin="bevel"><path fill="url(#h)" d="M6 63h52v1H6zm0 1h52v1H6z" transform="translate(11 11)scale(.16406)"/><path fill="url(#i)" d="M63 70v52h1V70zm1 0v52h1V70z" transform="translate(11 11)scale(.16406)"/><path fill="url(#j)" d="M70 127h52v1H70zm0 1h52v1H70z" transform="translate(11 11)scale(.16406)"/><path fill="url(#k)" d="M64 0v64l-4 4V4z" transform="translate(11 11)scale(.16406)"/><path fill="url(#l)" d="M128 64v128l-4-4V68z" transform="translate(11 11)scale(.16406)"/><path fill="url(#m)" d="M128 192H64l4-4h56z" transform="translate(11 11)scale(.16406)"/><path fill="url(#n)" d="M0 128h64l4-4H4z" transform="translate(11 11)scale(.16406)"/><path fill="url(#o)" d="M64 64h64l-4 4H60z" transform="translate(11 11)scale(.16406)"/><path fill="url(#p)" d="M64 128v64l4-4v-64z" transform="translate(11 11)scale(.16406)"/><path fill="url(#h)" d="M6 191h52v1H6zm0 1h52v1H6z" transform="translate(11 11)scale(.16406)"/><path fill="url(#q)" d="M63 198v52h1v-52zm1 0v52h1v-52zm63 0v52h1v-52zm1 0v52h1v-52z" transform="translate(11 11)scale(.16406)"/><path fill="url(#k)" d="M64 128v64l-4 4v-64z" transform="translate(11 11)scale(.16406)"/><path fill="url(#r)" d="M192 192v64l-4-4v-56z" transform="translate(11 11)scale(.16406)"/><path fill="url(#s)" d="M0 128h64l-4 4H4z" transform="translate(11 11)scale(.16406)"/><path fill="url(#t)" d="M64 192h128l-4 4H60z" transform="translate(11 11)scale(.16406)"/><path fill="url(#u)" d="M198 127h52v1h-52zm0 1h52v1h-52zm0 63h52v1h-52zm0 1h52v1h-52z" transform="translate(11 11)scale(.16406)"/><path fill="url(#v)" d="M191 134v52h1v-52zm1 0v52h1v-52z" transform="translate(11 11)scale(.16406)"/><path fill="url(#m)" d="M128 192h64l4-4h-64z" transform="translate(11 11)scale(.16406)"/><path fill="url(#w)" d="m128 128 4 4v56l-4 4z" transform="translate(11 11)scale(.16406)"/><path fill="url(#s)" d="M128 128h64l4 4h-64z" transform="translate(11 11)scale(.16406)"/><path fill="url(#o)" d="M192 64h64l-4 4h-56z" transform="translate(11 11)scale(.16406)"/><path fill="url(#x)" d="m192 64 4 4v64l-4-4zm0 128 4-4v64l-4 4z" transform="translate(11 11)scale(.16406)"/></g></svg>