<svg width="64" height="64" version="1.1" viewBox="0 0 64 64" xmlns="http://www.w3.org/2000/svg">
 <defs>
  <linearGradient id="bg" x1="25.004" x2="25.004" y1="5.2158" y2="45.11" gradientUnits="userSpaceOnUse">
   <stop stop-color="#c7c7c7" offset="0"/>
   <stop stop-color="#f6f6f6" offset="1"/>
  </linearGradient>
  <filter id="filter1182" x="-.12273" y="-.096429" width="1.2455" height="1.1929" color-interpolation-filters="sRGB">
   <feGaussianBlur stdDeviation="1.1250001"/>
  </filter>
  <filter id="filter1399" x="-.027" y="-.027" width="1.054" height="1.054" color-interpolation-filters="sRGB">
   <feGaussianBlur stdDeviation="0.5175"/>
  </filter>
 </defs>
 <g transform="matrix(1.3043 0 0 1.3043 .69565 .69565)">
  <circle cx="24" cy="24.767" r="23" fill="#000000" filter="url(#filter1399)" opacity=".15"/>
  <circle cx="24" cy="24" r="23" fill="url(#bg)"/>
  <path d="m18 10c0 5 2 8 6 11l-9 1c0 2.216 1.784 4 4 4h1v-3h3v2h-1v1h3l-7 8.5c-0.0022 1.933 1.567 3.502 3.5 3.5 0.92702-9.7e-4 1.8461-0.34287 2.5-1l12-12c0.65712-0.65387 0.99895-1.573 1-2.5 0.0022-1.933-1.567-3.502-3.5-3.5-0.61497 6.43e-4 -1.2249 0.15405-1.7578 0.44727z" filter="url(#filter1182)" opacity=".1"/>
  <path d="m14 20v1c0 2.216 1.784 4 4 4h1v-3h3c0.554 0 1 0.446 1 1s-0.446 1-1 1h-1v1h8l4-5z" fill="#f2f2f2"/>
  <path d="m22.748 20c0.39408 0.33511 0.80876 0.66761 1.252 1l5.3477 3.5645 3.1973-4.5645z" opacity=".1"/>
  <path d="m17 9 16 11-4 4-6-4c-4-3-6-6-6-11z" fill="#ffffff"/>
  <path d="m32.5 18c-0.92702 9.7e-4 -1.8461 0.34287-2.5 1l-12 12c-0.65712 0.65392-0.99895 1.573-1 2.5-0.0022 1.933 1.567 3.502 3.5 3.5 0.92702-9.7e-4 1.8461-0.34287 2.5-1l12-12c0.65712-0.65387 0.99895-1.573 1-2.5 0.0022-1.933-1.567-3.502-3.5-3.5z" fill="#e74b52"/>
  <path d="m21 30-0.5 0.5 0.75 0.75-0.5 0.5-0.75-0.75-0.5 0.5 0.75 0.75-0.75 0.75 0.5 0.5 0.75-0.75 0.5 0.5-0.75 0.75 0.5 0.5 0.75-0.75 0.75 0.75 0.5-0.5-0.75-0.75 0.5-0.5 0.75 0.75 0.5-0.5-0.75-0.75 0.75-0.75-0.5-0.5-0.75 0.75-0.5-0.5 0.75-0.75-0.5-0.5-0.75 0.75zm0.75 1.75 0.5 0.5-0.5 0.5-0.5-0.5z" fill="#f9f9f9"/>
  <path d="m20 12.062v1l6 4.125v-1z" fill="#878787"/>
 </g>
</svg>
