<svg width="64" height="64" version="1.1" xmlns="http://www.w3.org/2000/svg">
 <defs>
  <linearGradient id="b" x1="25.004" x2="25.004" y1="5.216" y2="45.11" gradientTransform="translate(.696 .696) scale(1.3043)" gradientUnits="userSpaceOnUse">
   <stop stop-color="#c7c7c7" offset="0"/>
   <stop stop-color="#f6f6f6" offset="1"/>
  </linearGradient>
  <linearGradient id="e" x1="21.517" x2="49.153" y1="38.216" y2="38.216" gradientUnits="userSpaceOnUse">
   <stop stop-color="#f13f47" offset="0"/>
   <stop stop-color="#ff7552" offset="1"/>
  </linearGradient>
  <linearGradient id="f" x1="35.535" x2="25.85" y1="20.803" y2="14.749" gradientUnits="userSpaceOnUse">
   <stop stop-color="#878787" offset="0"/>
   <stop stop-color="#878787" stop-opacity="0" offset="1"/>
  </linearGradient>
  <filter id="c" x="-.12273" y="-.096429" width="1.2455" height="1.1929" color-interpolation-filters="sRGB">
   <feGaussianBlur stdDeviation="1.125"/>
  </filter>
  <filter id="a" x="-.026974" y="-.026974" width="1.0539" height="1.0539" color-interpolation-filters="sRGB">
   <feGaussianBlur stdDeviation=".517"/>
  </filter>
  <filter id="d" x="-.054905" y="-.11785" width="1.1098" height="1.2357" color-interpolation-filters="sRGB">
   <feGaussianBlur stdDeviation=".326"/>
  </filter>
  <filter id="filter26" x="-.013853" y="-.013853" width="1.0277" height="1.0277" color-interpolation-filters="sRGB">
   <feGaussianBlur stdDeviation="0.29776566"/>
  </filter>
  <filter id="filter25" x="-.029663" y="-.029663" width="1.0593" height="1.0593" color-interpolation-filters="sRGB">
   <feGaussianBlur stdDeviation="0.29776566"/>
  </filter>
 </defs>
 <circle transform="translate(.696 .696) scale(1.3043)" cx="24" cy="24.767" r="23" filter="url(#a)" opacity=".15"/>
 <circle cx="31.999" cy="31.999" r="29.999" fill="url(#b)"/>
 <path transform="translate(-3.21 -1.783) scale(1.4545)" d="M18 10c0 5 2 8 6 11l-9 1c0 2.216 1.784 4 4 4h1v-3h3v2h-1v1h3l-7 8.5a3.497 3.497 0 0 0 3.5 3.5c.927-.001 1.846-.343 2.5-1l12-12c.657-.654.999-1.573 1-2.5a3.497 3.497 0 0 0-3.5-3.5c-.615 0-1.225.154-1.758.447z" filter="url(#c)" opacity=".1"/>
 <path d="M17.153 27.307v1.454a5.805 5.805 0 0 0 5.818 5.819h1.455v-4.364h4.363c.806 0 1.455.649 1.455 1.454s-.649 1.455-1.455 1.455h-1.454v1.454H38.97l5.818-7.272z" fill="#f2f2f2"/>
 <path d="M29.877 27.307c.573.487 1.176.971 1.821 1.454l7.779 5.185 4.65-6.639z" filter="url(#d)" opacity=".1"/>
 <path d="m21.517 11.307 23.272 16-5.818 5.818-8.727-5.818c-5.818-4.364-8.727-8.727-8.727-16z" fill="#fff"/>
 <path d="M44.062 24.398c-1.348.001-2.685.499-3.636 1.454L22.972 43.306c-.956.952-1.453 2.289-1.455 3.637a5.087 5.087 0 0 0 5.091 5.09c1.348 0 2.685-.498 3.636-1.454l17.454-17.454c.956-.951 1.453-2.288 1.455-3.636a5.087 5.087 0 0 0-5.091-5.091z" fill="url(#e)"/>
 <path d="m27.335 41.852-.727.727 1.09 1.091-.727.727-1.09-1.09-.728.727 1.091 1.09-1.09 1.092.726.727 1.091-1.091.728.727-1.091 1.091.727.727 1.09-1.09 1.092 1.09.727-.727-1.09-1.09.726-.728 1.091 1.09.728-.726-1.091-1.091 1.09-1.091-.727-.727-1.09 1.09-.728-.727 1.091-1.09-.727-.728-1.091 1.09zm1.09 2.545.728.728-.727.727-.727-.727z" fill="#f9f9f9"/>
 <path d="m25.88 15.761v1.454l8.727 6v-1.454z" fill="url(#f)"/>
 <path d="m10.787 10.787c-11.752 11.752-11.752 30.674 0 42.426 0.11855 0.11855 0.24184 0.22911 0.36184 0.34527-11.399-11.775-11.288-30.431 0.34527-42.065 11.634-11.634 30.289-11.744 42.065-0.34527-0.11616-0.12-0.22671-0.24329-0.34527-0.36184-11.752-11.752-30.674-11.752-42.426 0z" fill="#ffffff" filter="url(#filter26)"/>
 <path d="m37.435 61.526c5.7718-1.0635 11.297-3.831 15.779-8.3126s7.2491-10.007 8.3126-15.779c-1.5917 5.4332-4.6056 10.657-9.0198 15.072s-9.6384 7.428-15.072 9.0198z" fill="#ffffff" filter="url(#filter25)"/>
</svg>
