<?xml version="1.0" encoding="UTF-8"?>
<svg id="SimpleNote" width="64" height="64" enable-background="new 0 0 1024 1024" image-rendering="optimizeSpeed" version="1.1" viewBox="0 0 64 64" xmlns="http://www.w3.org/2000/svg" xmlns:cc="http://creativecommons.org/ns#" xmlns:dc="http://purl.org/dc/elements/1.1/" xmlns:rdf="http://www.w3.org/1999/02/22-rdf-syntax-ns#" xmlns:xlink="http://www.w3.org/1999/xlink">
 <metadata>
  <rdf:RDF>
   <cc:Work rdf:about="">
    <dc:format>image/svg+xml</dc:format>
    <dc:type rdf:resource="http://purl.org/dc/dcmitype/StillImage"/>
    <dc:title/>
   </cc:Work>
  </rdf:RDF>
 </metadata>
 <defs>
  <filter id="d" x="-.036" y="-.036" width="1.072" height="1.072" color-interpolation-filters="sRGB">
   <feGaussianBlur stdDeviation="7.2782306"/>
  </filter>
  <filter id="c" x="-.036" y="-.036" width="1.072" height="1.072" color-interpolation-filters="sRGB">
   <feGaussianBlur stdDeviation="14.170353"/>
  </filter>
  <linearGradient id="linearGradient916" x1="125.56" x2="125.56" y1="59.651" y2="-.34928" gradientTransform="translate(-93.56 2.3493)" gradientUnits="userSpaceOnUse">
   <stop stop-color="#e42e50" offset="0"/>
   <stop stop-color="#fcae5b" offset="1"/>
  </linearGradient>
 </defs>
 <path transform="matrix(.063513 0 0 .063513 -.54373 -.49348)" d="m970.43 391.52c-1.1008-4.3532-2.3517-9.0066-3.6527-13.61-1.0007-3.4025-2.0015-6.855-3.1523-10.508-1.6012-5.1538-3.4025-10.508-5.3039-15.862-6.4547-18.263-14.16-36.076-23.167-53.689-3.8028-7.4054-7.9558-14.961-12.309-22.416-20.315-34.525-45.833-67.249-76.406-97.821-72.653-72.653-157.26-116.74-253.84-132.15-16.262-2.6019-32.824-4.4032-50.087-5.3539-9.7071-0.5504-19.865-0.85062-30.122-0.85062-9.3568 0-18.614 0.25018-27.92 0.75055-118.44 6.1045-220.46 51.988-306.07 137.6q-138.35 138.35-138.35 333.99c0 130.45 46.134 241.83 138.35 334.04 56.741 56.691 120.64 95.97 191.24 117.64 36.777 11.258 74.855 17.863 114.83 19.965h0.40029c8.5062 0.45033 16.612 0.70051 24.518 0.70051h3.0022c10.308 0 20.515-0.30022 30.122-0.80058 2.5018-0.15011 4.7535-0.30022 6.9551-0.45033 20.215-1.4511 39.929-4.053 58.743-7.7056 7.9558-1.5511 15.812-3.3024 23.417-5.1538 80.859-20.315 152.26-61.645 214.81-124.19 48.636-48.636 84.462-102.57 107.43-161.92 18.463-47.685 28.671-98.872 30.572-153.61 0.20015-6.0544 0.30022-12.259 0.30022-18.514v-3.0022c-0.20014-40.68-4.9536-79.558-14.31-117.09z" filter="url(#c)" opacity=".25" stroke-width="15.695"/>
 <circle cx="32" cy="32" r="30" fill="url(#linearGradient916)" stroke-linecap="round" stroke-linejoin="bevel" stroke-width="2.2935" style="paint-order:stroke fill markers"/>
 <path transform="matrix(.062623 0 0 .062623 16.168 17.089)" d="m488.89 148.91-21.445 21.455-128.68-128.66 21.445-21.457c23.689-23.692 62.104-23.692 85.795 0l42.886 42.897c23.657 23.679 23.657 62.078 0 85.768zm-300.24 257.31c-5.922 5.922-5.922 15.513 0 21.436 5.925 5.955 15.521 5.955 21.443 0l235.91-235.85-21.469-21.457zm-107.23-107.21c-5.925 5.927-5.925 15.514 0 21.44 5.922 5.923 15.518 5.923 21.443 0l235.91-235.87-21.436-21.443zm278.77-193-235.89 235.88c-11.845 11.822-11.815 31.041 0 42.886 11.85 11.846 31.038 11.901 42.914-0.032l235.89-235.84zm-193.03 343.03c-7.253-7.262-10.749-16.465-12.05-25.948-3.083 0.476-6.188 0.919-9.36 0.919-16.202 0-31.419-6.333-42.881-17.795-11.462-11.491-17.77-26.687-17.77-42.887 0-2.954 0.443-5.833 0.859-8.703-9.803-1.335-18.864-5.629-25.972-12.737-0.682-0.677-0.917-1.596-1.538-2.338l-37.022 148.13 147.75-36.986c-0.651-0.593-1.388-1.037-2.014-1.658z" filter="url(#d)" opacity=".2" stroke-width="15.683"/>
 <path d="m46.784 25.82-1.3429 1.3436-8.0583-8.0571 1.3429-1.3437c1.4835-1.4837 3.8891-1.4837 5.3727 0l2.6856 2.6863c1.4815 1.4828 1.4815 3.8875 0 5.371zm-18.802 16.113c-0.37085 0.37085-0.37085 0.97147 0 1.3424 0.37104 0.37292 0.97197 0.37292 1.3428 0l14.773-14.77-1.3444-1.3437zm-6.7151-6.7138c-0.37104 0.37117-0.37104 0.97153 0 1.3426 0.37085 0.37092 0.97178 0.37092 1.3428 0l14.773-14.771-1.3424-1.3428zm17.457-12.086-14.772 14.771c-0.74177 0.74033-0.73989 1.9439 0 2.6856 0.74208 0.74183 1.9437 0.74528 2.6874-2e-3l14.772-14.769zm-12.088 21.482c-0.4542-0.45477-0.67313-1.0311-0.75461-1.6249-0.19307 0.02981-0.38751 0.05755-0.58615 0.05755-1.0146 0-1.9675-0.39659-2.6853-1.1144-0.71778-0.7196-1.1128-1.6712-1.1128-2.6857 0-0.18499 0.02774-0.36528 0.05379-0.54501-0.61389-0.0836-1.1813-0.3525-1.6264-0.79763-0.04271-0.0424-0.05742-0.09995-0.09631-0.14641l-2.3184 9.2763 9.2525-2.3162c-0.04077-0.03713-0.08692-0.06494-0.12612-0.10383z" fill="#fff" stroke-width=".98212"/>
</svg>
