<svg width="64" height="64" version="1.1" viewBox="0 0 64 64" xmlns="http://www.w3.org/2000/svg" xmlns:xlink="http://www.w3.org/1999/xlink">
 <defs>
  <linearGradient id="bg" x1="25.004" x2="25.004" y1="5.2158" y2="45.11" gradientTransform="matrix(1.3043 0 0 1.3043 .69565 .69565)" gradientUnits="userSpaceOnUse">
   <stop stop-color="#c7c7c7" offset="0"/>
   <stop stop-color="#f6f6f6" offset="1"/>
  </linearGradient>
  <filter id="filter1182" x="-.12273" y="-.096429" width="1.2455" height="1.1929" color-interpolation-filters="sRGB">
   <feGaussianBlur stdDeviation="1.1250001"/>
  </filter>
  <filter id="filter1399" x="-.027" y="-.027" width="1.054" height="1.054" color-interpolation-filters="sRGB">
   <feGaussianBlur stdDeviation="0.5175"/>
  </filter>
  <linearGradient id="linearGradient888" x1="21.517" x2="49.153" y1="38.216" y2="38.216" gradientUnits="userSpaceOnUse">
   <stop stop-color="#f13f47" offset="0"/>
   <stop stop-color="#ff7552" offset="1"/>
  </linearGradient>
  <filter id="filter970" x="-.054972" y="-.11799" width="1.1099" height="1.236" color-interpolation-filters="sRGB">
   <feGaussianBlur stdDeviation="0.3263937"/>
  </filter>
  <linearGradient id="linearGradient980" x1="35.535" x2="25.85" y1="20.803" y2="14.749" gradientUnits="userSpaceOnUse">
   <stop stop-color="#878787" offset="0"/>
   <stop stop-color="#878787" stop-opacity="0" offset="1"/>
  </linearGradient>
 </defs>
 <circle transform="matrix(1.3043 0 0 1.3043 .69565 .69565)" cx="24" cy="24.767" r="23" fill="#000000" filter="url(#filter1399)" opacity=".15"/>
 <circle cx="31.999" cy="31.999" r="29.999" fill="url(#bg)" stroke-width="1.3043"/>
 <path transform="matrix(1.4545 0 0 1.4545 -3.2103 -1.7834)" d="m18 10c0 5 2 8 6 11l-9 1c0 2.216 1.784 4 4 4h1v-3h3v2h-1v1h3l-7 8.5c-0.0022 1.933 1.567 3.502 3.5 3.5 0.92702-9.7e-4 1.8461-0.34287 2.5-1l12-12c0.65712-0.65387 0.99895-1.573 1-2.5 0.0022-1.933-1.567-3.502-3.5-3.5-0.61497 6.43e-4 -1.2249 0.15405-1.7578 0.44727z" filter="url(#filter1182)" opacity=".1"/>
 <path d="m17.153 27.307v1.4545c0 3.2232 2.5949 5.8181 5.8181 5.8181h1.4545v-4.3636h4.3636c0.80581 0 1.4545 0.64872 1.4545 1.4545s-0.64872 1.4545-1.4545 1.4545h-1.4545v1.4545h11.636l5.8181-7.2726z" fill="#f2f2f2" stroke-width="1.4545"/>
 <path d="m29.877 27.307c0.5732 0.48743 1.1764 0.97106 1.8211 1.4545l7.7784 5.1847 4.6506-6.6392z" filter="url(#filter970)" opacity=".1" stroke-width="1.4545"/>
 <path d="m21.517 11.307 23.272 16-5.8181 5.8181-8.7272-5.8181c-5.8181-4.3636-8.7272-8.7272-8.7272-16z" fill="#ffffff" stroke-width="1.4545"/>
 <path d="m44.062 24.398c-1.3484 0.0014-2.6852 0.49871-3.6363 1.4545l-17.454 17.454c-0.9558 0.95114-1.453 2.288-1.4545 3.6363-0.0032 2.8116 2.2792 5.0938 5.0908 5.0908 1.3484-0.0014 2.6852-0.49871 3.6363-1.4545l17.454-17.454c0.9558-0.95107 1.453-2.288 1.4545-3.6363 0.0032-2.8116-2.2792-5.0938-5.0908-5.0908z" fill="url(#linearGradient888)" stroke-width="1.4545"/>
 <path d="m27.335 41.852-0.72726 0.72726 1.0909 1.0909-0.72726 0.72726-1.0909-1.0909-0.72726 0.72726 1.0909 1.0909-1.0909 1.0909 0.72726 0.72726 1.0909-1.0909 0.72726 0.72726-1.0909 1.0909 0.72726 0.72726 1.0909-1.0909 1.0909 1.0909 0.72726-0.72726-1.0909-1.0909 0.72726-0.72726 1.0909 1.0909 0.72726-0.72726-1.0909-1.0909 1.0909-1.0909-0.72726-0.72726-1.0909 1.0909-0.72726-0.72726 1.0909-1.0909-0.72726-0.72726-1.0909 1.0909zm1.0909 2.5454 0.72726 0.72726-0.72726 0.72726-0.72726-0.72726z" fill="#f9f9f9" stroke-width="1.4545"/>
 <path d="m25.88 15.761v1.4545l8.7272 5.9999v-1.4545z" fill="url(#linearGradient980)" stroke-width="1.4545"/>
</svg>
