<svg xmlns="http://www.w3.org/2000/svg" width="64" height="64"><defs><linearGradient id="b" x1="520.68" x2="515.31" y1="533.79" y2="41.047" gradientTransform="translate(-28.073 -3.415) scale(.14406)" gradientUnits="userSpaceOnUse"><stop offset="0" stop-color="#666"/><stop offset=".4" stop-color="#4d4d4d"/><stop offset="1" stop-color="#333"/></linearGradient><linearGradient id="g" x1="31.996" x2="32" y1="2" y2="64" gradientUnits="userSpaceOnUse"><stop offset="0" stop-color="#afafaf"/><stop offset="1" stop-color="#d0d0d0"/></linearGradient><linearGradient id="d" x1="32" x2="32" y1="4.865" y2="64" gradientUnits="userSpaceOnUse"><stop offset="0" stop-color="#fff"/><stop offset="1" stop-color="#f0f0f0"/></linearGradient><linearGradient id="e" x1="32" x2="32.049" y1="9" y2="62" gradientUnits="userSpaceOnUse"><stop offset="0" stop-color="#f2f2f2"/><stop offset="1" stop-color="#dfdfdf"/></linearGradient><filter id="a" width="1.072" height="1.072" x="-.036" y="-.036" color-interpolation-filters="sRGB"><feGaussianBlur stdDeviation="14.115"/></filter><filter id="f" width="1.095" height="1.058" x="-.047" y="-.029" color-interpolation-filters="sRGB"><feGaussianBlur stdDeviation=".689"/></filter><filter id="c" width="1.087" height="1.194" x="-.043" y="-.097" color-interpolation-filters="sRGB"><feGaussianBlur stdDeviation=".597"/></filter></defs><path d="M511.51 983.01c259.84 0 470.5-210.66 470.5-470.5s-210.66-470.5-470.5-470.5-470.5 210.66-470.5 470.5 210.66 470.5 470.5 470.5z" class="shp36" filter="url(#a)" opacity=".25" transform="translate(-.615 -.678) scale(.06376)"/><path fill="url(#b)" d="M32 62c16.568 0 30-13.432 30-30S48.568 2 32 2 2 15.432 2 32s13.432 30 30 30z" class="shp36"/><path fill="#fff" d="M32 2C21.49 2 12.246 7.41 6.889 15.592A30 18.541 0 0 0 32 24a30 18.541 0 0 0 25.104-8.418C51.745 7.406 42.506 2 32 2z" opacity=".5"/><path d="M46.045 5.508A29.856 29.856 0 0 1 32 9a29.86 29.86 0 0 1-14.045-3.49 30.13 30.13 0 0 0-2.39 1.398L25 19c1.55.248 5.006 1.297 6.626 1.297 1.66 0 8.898-1.037 10.485-1.297l6.422-12.03c-.8-.53-1.637-1.009-2.488-1.462z" filter="url(#c)" opacity=".15"/><path fill="url(#d)" d="M46.045 5.508A29.856 29.856 0 0 1 32 9a29.86 29.86 0 0 1-14.045-3.49 30.13 30.13 0 0 0-2.39 1.398L27.24 61.621c1.551.248 3.14.38 4.76.38 1.661 0 3.288-.142 4.875-.401L48.533 6.969c-.8-.53-1.636-1.008-2.488-1.461z"/><g fill-rule="evenodd"><path fill="url(#e)" d="M28 9v52.727c1.31.175 2.643.273 4 .273 1.357 0 2.69-.098 4-.273V9h-8z" style="paint-order:fill markers stroke"/><path d="M28 9v52.727c.332.044.664.092 1 .125V9h-1z" opacity=".1" style="paint-order:fill markers stroke"/><circle cx="32" cy="26.5" r="1.5" fill="#333" style="paint-order:fill markers stroke"/><circle cx="32" cy="44" r="1.5" fill="#333" style="paint-order:fill markers stroke"/></g><path fill="#4d4d4d" d="M22.815 5.163c-.205 1.552-.304 2.848 0 4.556.116 1.71.51 2.659.764 3.988 1.358.675 2.081.407 3.056 0 1.849-.973 2.408-1.71 4.583-2.279.577-.19.88-.326.764-.57l-.764-3.417c-.763-.19-1.411-.28-2.291-.57a33.81 33.81 0 0 1-3.056-1.139c-.47-.15-.861-.32-1.412-.45-.602-.12-1.123-.12-1.644-.12z"/><path fill="#4d4d4d" d="M41.199 5.163c.205 1.552.304 2.848 0 4.556-.116 1.71-.51 2.659-.764 3.988-1.358.675-2.081.407-3.056 0-1.849-.973-2.408-1.71-4.583-2.279-.577-.19-.88-.326-.764-.57l.764-3.417c.764-.19 1.411-.28 2.291-.57a33.81 33.81 0 0 0 3.056-1.139c.47-.15.861-.32 1.412-.45.602-.12 1.123-.12 1.644-.12z"/><path fill="#333" fill-rule="evenodd" d="M29.987 9.441h4.022v4.022h-4.022z" style="paint-order:fill markers stroke" transform="translate(0 -2)"/><g fill-rule="evenodd"><path d="M19.203 4.865c-4.5 2.127-1.269 1.765-4.203 5.727 1.546 16.489 3.104 31.967 7.604 46.206 3.236 1.756 1.942 4.514 5.76 4.975-5.136-19.263-8.122-34.09-9.161-56.908zm25.594 0c-1.04 22.817-4.024 37.645-9.16 56.908 3.817-.461 3.184-2.557 6.42-4.314 4.5-14.24 6.397-26.97 7.943-43.46-2.934-3.96-.703-7.008-5.203-9.134z" filter="url(#f)" opacity=".15" style="paint-order:fill markers stroke"/><path fill="url(#g)" d="M19.203 4.865a30.111 30.111 0 0 0-11.322 9.297c1.546 16.49 5.33 29.984 9.83 44.223a29.803 29.803 0 0 0 10.652 3.389c-5.135-19.263-8.12-34.091-9.16-56.908zm25.594 0c-1.04 22.817-4.024 37.645-9.16 56.908a29.792 29.792 0 0 0 10.652-3.389c4.5-14.24 8.284-27.734 9.83-44.224a30.12 30.12 0 0 0-11.322-9.295z" style="paint-order:fill markers stroke"/></g></svg>