<svg xmlns="http://www.w3.org/2000/svg" width="64" height="64" enable-background="new 0 0 1024 1024" image-rendering="optimizeSpeed"><defs><filter id="a" width="1.072" height="1.072" x="-.036" y="-.036" color-interpolation-filters="sRGB"><feGaussianBlur stdDeviation="14.16"/></filter><filter id="c" width="1.234" height="1.24" x="-.117" y="-.12" color-interpolation-filters="sRGB"><feGaussianBlur stdDeviation=".75"/></filter><filter id="d" width="1.12" height="1.12" x="-.06" y="-.06" color-interpolation-filters="sRGB"><feGaussianBlur stdDeviation=".978"/></filter><linearGradient id="b" x1="1" x2="47" gradientTransform="rotate(-90 32 31.304) scale(1.3043)" gradientUnits="userSpaceOnUse"><stop offset="0" stop-color="#fa446b"/><stop offset="1" stop-color="#f74b4b"/></linearGradient><linearGradient id="e" x1="32" x2="32" y1="12.436" y2="51.565" gradientUnits="userSpaceOnUse"><stop offset="0" stop-color="#fedede"/><stop offset="1" stop-color="#fdc3cb"/></linearGradient></defs><path d="M966.1 378.45c-2.5-8.75-5.35-17.6-8.45-26.35-6.45-18.25-14.15-36.05-23.15-53.65-3.8-7.4-7.95-14.95-12.3-22.4-20.3-34.5-45.8-67.2-76.35-97.75C773.25 105.7 688.7 61.65 592.2 46.25c-16.25-2.6-32.8-4.4-50.05-5.35-9.7-.55-19.85-.85-30.1-.85-9.35 0-18.6.25-27.9.75-118.35 6.1-220.3 51.95-305.85 137.5Q40.05 316.55 40.05 512.05c0 130.35 46.1 241.65 138.25 333.8 85.55 85.5 187.5 131.35 305.85 137.5h.4c8.5.45 16.6.7 24.5.7h8.45c8.55-.1 16.8-.4 24.65-.8 2.5-.15 4.75-.3 6.95-.45 20.2-1.45 39.9-4.05 58.7-7.7 7.95-1.55 15.8-3.3 23.4-5.15 80.8-20.3 152.15-61.6 214.65-124.1 48.6-48.6 84.4-102.5 107.35-161.8 16.6-42.9 26.55-88.65 29.75-137.45.35-5.2.6-10.6.8-16.05.2-6.05.3-12.25.3-18.5v-3c-.2-40.65-4.95-79.5-14.3-117-1.1-4.35-2.35-9-3.65-13.6z" filter="url(#a)" opacity=".25" transform="translate(-.546 -.546) scale(.06356)"/><path fill="url(#b)" d="M32 2c16.569 0 30 13.431 30 30S48.569 62 32 62 2 48.569 2 32 15.431 2 32 2z"/><path d="M9 24c0 8.284 6.716 15 15 15 .5-.625.5-1.292 0-2-7.18 0-13-5.82-13-13z" filter="url(#c)" opacity=".25" transform="translate(.696 .696) scale(1.3043)"/><path d="M32 12.436A19.565 19.565 0 0 0 12.436 32a19.565 19.565 0 0 0 1.193 6.691l7.936-11.908h-5.69A16.957 16.957 0 0 1 32 15.043 16.957 16.957 0 0 1 48.957 32 16.957 16.957 0 0 1 32 48.957v2.608A19.565 19.565 0 0 0 51.564 32 19.565 19.565 0 0 0 32 12.437z" filter="url(#d)" opacity=".25" transform="scale(.99997)"/><path d="M12.434 31.999c0 10.805 8.76 19.564 19.565 19.564.652-.815.652-1.685 0-2.608-9.365 0-16.956-7.591-16.956-16.956z" opacity=".15"/><path fill="url(#e)" d="M32 12.436A19.565 19.565 0 0 0 12.436 32a19.565 19.565 0 0 0 1.193 6.691l7.936-11.908h-5.69A16.957 16.957 0 0 1 32 15.043 16.957 16.957 0 0 1 48.957 32 16.957 16.957 0 0 1 32 48.957v2.608A19.565 19.565 0 0 0 51.564 32 19.565 19.565 0 0 0 32 12.437z" transform="scale(.99997)"/></svg>