<svg xmlns="http://www.w3.org/2000/svg" width="64" height="64"><defs><linearGradient id="a" x1="7.937" x2="7.937" y1="15.081" y2="1.852" gradientTransform="scale(3.7796)" gradientUnits="userSpaceOnUse"><stop offset="0" stop-color="#363636"/><stop offset="1" stop-color="#6c6c6c"/></linearGradient></defs><rect width="60" height="60" x="2" y="2" fill="url(#a)" rx="30" ry="30"/><path fill="#3ba0fd" d="M32.017 7.304c-8.12 0-11.364.001-14.551.005a11.45 11.45 0 0 0-8.758 5.834c1.031.007 4.284.013 9.503.013l10.861-.002v21.724c0 11.947.007 27.099.018 27.11.009.01 1.326.016 2.926.012l2.906-.007.015-48.84h10.872c5.935 0 8.25-.004 9.492-.015a11.45 11.45 0 0 0-8.79-5.834Z" style="stroke-width:.883363"/><path fill="#6cf74a" d="m13.515 13.156-4.821.01c-.132.242-.25.493-.366.745.318.295.624.58 3.125 2.954l2.046 1.943 2.1 1.994c.276.263.76.72 2.788 2.641l1.836 1.743c.138.133.454.43.7.663.247.232.579.546.739.699.286.273.75.713 1.758 1.667l.818.777c.168.159.524.499.793.753.268.253.614.582.766.728l.805.766c.648.612 1.359 1.287 1.835 1.74.196.186.36.352.362.368.003.018-.332.34-.745.718a428 428 0 0 0-1.798 1.65l-9.454 8.706c-.662.606-.975.892-1.164 1.069-.101.096-.63.583-1.175 1.083s-1.054.97-1.135 1.045c-.138.129-1.54 1.42-2.68 2.469l-1.52 1.396a11.5 11.5 0 0 0 3.532 3.466l.88-.835c1.596-1.512 1.618-1.535 2.297-2.181l1.28-1.215c.394-.37.846-.797 1.006-.95.34-.324 1.295-1.232 3.064-2.906a1007 1007 0 0 0 2.615-2.482l1.241-1.175 1.56-1.48c.652-.622 1.877-1.78 2.222-2.1l.241-.226.002-5.961.003-5.961-1.274-1.173-2.752-2.532a783 783 0 0 1-2.22-2.046 926 926 0 0 0-2.035-1.875l-2.165-1.993-1.322-1.216-.992-.915-1.67-1.535zm37.24 0-.638.586-.996.92-.806.74-1.164 1.07-1.518 1.397-.833.766-.66.61-1.173 1.08-.83.765-.676.625c-.212.197-.818.754-1.348 1.24-.53.487-1.277 1.177-1.663 1.533l-2.108 1.939-1.406 1.294v11.418l.654.62 1.221 1.16c.313.299.897.85 1.296 1.228.4.377.86.817 1.029.976.644.616.79.754 2.033 1.93.705.665 1.401 1.324 1.546 1.464.646.618.81.775 1.546 1.47a511 511 0 0 1 2.02 1.915c.16.153.505.479.767.726l2.033 1.928.767.726c.305.291 1.118 1.063 1.546 1.466l.111.107a11.5 11.5 0 0 0 3.47-3.523l-.833-.767-.654-.605-.702-.646-.81-.748-.835-.766-.819-.755-1.174-1.08c-1.253-1.154-1.355-1.248-1.666-1.532a77 77 0 0 1-.803-.744l-.848-.778-1.518-1.397-1.65-1.52-1.349-1.24-2.996-2.761a995 995 0 0 0-2.673-2.457 1 1 0 0 1-.18-.186c0-.016.286-.3.639-.634l1.223-1.161c.32-.305.908-.864 1.308-1.24l1.266-1.203a1370 1370 0 0 1 4.307-4.082c.592-.565.9-.859 1.585-1.504.4-.378.852-.804 1.004-.952.153-.145.497-.474.767-.728.268-.253.607-.574.751-.713.146-.14.508-.485.806-.767.596-.564 1.194-1.13 2.06-1.952.726-.691 1.412-1.342 2.326-2.207l2.114-2.005.138-.13a12 12 0 0 0-.444-.907c-.546-.003-.726-.01-1.603-.01z" style="stroke-width:.883363"/><path fill="#fd5d51" d="m26.759 13.154-.473.972-.992 2.04a2056 2056 0 0 0-2.458 5.066 4 4 0 0 0-.156.343c0 .012.236.237.523.501l1.894 1.747c.755.696 1.382 1.258 1.39 1.25.016-.016.553-1.145 1.08-2.276l.29-.621.37-.793c.148-.32.397-.848.552-1.174l.282-.596v-6.445zm10.48 0-2.289.014-.013 6.123.183.398c.287.63 1.502 3.224 2.062 4.408.316.669.52 1.07.538 1.058.015-.01.344-.309.731-.666.387-.356 1.135-1.047 1.665-1.533s1.044-.961 1.142-1.057l.178-.172-.33-.67a54 54 0 0 1-.33-.675c0-.005-.211-.435-.466-.956-.42-.852-1.054-2.153-1.859-3.801l-.748-1.526ZM20.695 25.65c-.008 0-.035.044-.056.098-.022.055-.23.491-.465.968-.233.477-.425.871-.425.875 0 .003-.168.35-.373.77l-.54 1.105c-.17.355-.432.898-1.953 4.028-.491 1.011-.992 2.041-1.113 2.293l-2.424 4.992c-1.051 2.164-1.332 2.745-1.569 3.23-.138.283-.325.67-.415.86l-.449.924c-.156.32-.353.723-.436.897l-.423.872-.462.952-.377.778-.622 1.28q.248.469.538.911l.659-.608.859-.791a1298 1298 0 0 0 3.657-3.367l1.323-1.215c.625-.579.565-.525 1.13-1.039l.486-.44 1.188-2.391a1057 1057 0 0 0 3.073-6.222l.58-1.189c.406-.83.657-1.342 1.542-3.17l.558-1.147.314-.648-.282-.278a69 69 0 0 0-.796-.764l-.769-.726c-1.432-1.368-1.932-1.837-1.957-1.838m22.728.154c-.01-.01-.227.18-.482.422l-1.465 1.393c-1.637 1.552-1.769 1.679-1.779 1.705a1 1 0 0 0 .083.216c.348.726 2.119 4.367 2.792 5.739l.635 1.294a860 860 0 0 0 2.574 5.203l1.001 2.009.2.185.503.462c.314.287.448.411 1.665 1.532l1.175 1.082a467 467 0 0 1 1.652 1.52l.817.752.716.66.5.463.967.89q.27-.428.503-.881l-.016-.033c0-.004-.221-.457-.492-1.007l-1.02-2.085-1.448-2.96-.567-1.162a1537 1537 0 0 1-1.782-3.645l-.582-1.19-.595-1.214-.554-1.135-.607-1.242c-.214-.435-.477-.97-.581-1.189l-.55-1.123-.917-1.875-.885-1.81L44 26.972a55 55 0 0 0-.577-1.168" style="stroke-width:.883363"/></svg>