<svg xmlns="http://www.w3.org/2000/svg" width="64" height="64" style="isolation:isolate"><defs><linearGradient id="b" x1="-39.605" x2="-39.605" y1="58.247" y2="6.988" gradientTransform="translate(70.543 .42)" gradientUnits="userSpaceOnUse"><stop offset="0" stop-color="#ff3533"/><stop offset="1" stop-color="#ff6766"/></linearGradient><filter id="a" width="1.078" height="1.078" x="-.039" y="-.039" color-interpolation-filters="sRGB"><feGaussianBlur stdDeviation=".972"/></filter></defs><circle cx="32" cy="32" r="30" filter="url(#a)" opacity=".15" style="isolation:isolate;paint-order:stroke fill markers"/><circle cx="32" cy="32" r="30" fill="url(#b)" style="isolation:isolate;paint-order:stroke fill markers"/><path fill="#fff" d="M33.473 14.514a1.6 1.6 0 0 0-.781.184L13.46 25.712c-.527.302-1.38.3-1.906-.002l-7.592-4.373a30 30 0 0 0-1.211 3.996l8.63 5.015c.62.36 1.629.361 2.25.002l22.43-12.939c.79-.455.79-1.196.003-1.654l-1.813-1.053a1.6 1.6 0 0 0-.777-.19zm0 9.404a1.6 1.6 0 0 0-.781.184L13.46 35.116c-.527.302-1.38.3-1.906-.002l-9.461-5.451A30 30 0 0 0 2 32a30 30 0 0 0 .094 2.353l9.287 5.399c.62.36 1.628.36 2.25.001l22.43-12.939c.789-.455.789-1.196.002-1.654l-1.813-1.055a1.6 1.6 0 0 0-.777-.187m0 9.375a1.6 1.6 0 0 0-.781.184L13.46 44.49c-.527.302-1.38.3-1.906-.002l-8.59-4.95a30 30 0 0 0 2.277 6.018l6.14 3.57c.62.36 1.629.362 2.25.003l22.43-12.94c.79-.454.79-1.196.003-1.654l-1.813-1.054a1.6 1.6 0 0 0-.777-.188z"/></svg>