<svg xmlns="http://www.w3.org/2000/svg" width="64" height="64"><defs><linearGradient id="b" x1="99.036" x2="99.036" y1="-.505" y2="199.84" gradientTransform="matrix(.3 0 0 .3 2 2.002)" gradientUnits="userSpaceOnUse"><stop offset="0" stop-color="#ff9931"/><stop offset=".5" stop-color="#ffc831"/><stop offset="1" stop-color="#fffa31"/></linearGradient><linearGradient id="e" x1="392.72" x2="392.72" y1="241.6" y2="589.86" gradientTransform="matrix(.085 0 0 .08413 -1.39 -2.152)" gradientUnits="userSpaceOnUse"><stop offset="0" stop-color="#fff"/><stop offset="1" stop-color="#fffedf"/></linearGradient><filter id="a" width="1.072" height="1.072" x="-.036" y="-.036" color-interpolation-filters="sRGB"><feGaussianBlur stdDeviation="14.06"/></filter><filter id="d" width="1.14" height="1.105" x="-.07" y="-.052" color-interpolation-filters="sRGB"><feGaussianBlur stdDeviation=".525"/></filter><clipPath id="c"/></defs><circle cx="511.5" cy="540.86" r="468.66" color="#000" filter="url(#a)" opacity=".25" transform="translate(-.742 -2.62) scale(.06401)"/><circle cx="32" cy="32.002" r="30" fill="url(#b)" color="#000"/><g stroke-width=".592" clip-path="url(#c)" filter="url(#d)" opacity=".15" transform="matrix(1.3331 0 0 1.3194 .012 1.4)"><path d="M24.01 12c-2.898.004-5.734 1.297-7.48 3.691-2.715 3.738-1.73 8.801 2.145 11.441v7.871h1.328v1h8v-1h1.313v-7.871a8.684 8.684 0 0 0 2.145-2.059c2.77-3.828 1.691-9.04-2.43-11.633a9.439 9.439 0 0 0-5.03-1.441m-.012 1.523c1.418 0 2.852.383 4.121 1.18 3.379 2.125 4.266 6.367 1.984 9.512a7.198 7.198 0 0 1-1.977 1.848l-.133 1.941h-8l-.117-1.941c-3.387-2.125-4.27-6.367-1.98-9.512 1.426-1.965 3.742-3.03 6.102-3.02m-4 15.477h8v1.996h-8m0 1h8v1.715h-8"/></g><path fill="url(#e)" d="M32.02 16.165c-3.863.005-7.644 1.711-9.972 4.87-3.619 4.932-2.306 11.612 2.86 15.095v10.385h1.77v1.32h10.665v-1.32h1.75V36.13c1.11-.752 2.088-1.66 2.86-2.717 3.693-5.05 2.254-11.927-3.24-15.349a12.68 12.68 0 0 0-6.705-1.901m-.016 2.01c1.89 0 3.802.505 5.494 1.556 4.504 2.804 5.687 8.4 2.645 12.55a9.559 9.559 0 0 1-2.636 2.439l-.177 2.56H26.653l-.156-2.56c-4.515-2.804-5.692-8.401-2.64-12.55 1.902-2.593 4.99-3.998 8.135-3.985m-5.332 20.42h10.665v2.633H26.66m0 1.32h10.665v2.263H26.66"/></svg>