<svg width="64" height="64" version="1.1" xmlns="http://www.w3.org/2000/svg" xmlns:xlink="http://www.w3.org/1999/xlink">
 <defs>
  <linearGradient id="a" x1="99.036" x2="99.036" y1="-.50472" y2="199.84" gradientTransform="matrix(.3 0 0 .3 2 2.0015)" gradientUnits="userSpaceOnUse">
   <stop stop-color="#ff9931" offset="0"/>
   <stop stop-color="#ffc831" offset=".5"/>
   <stop stop-color="#fffa31" offset="1"/>
  </linearGradient>
  <filter id="c" x="-.036" y="-.036" width="1.072" height="1.072" color-interpolation-filters="sRGB">
   <feGaussianBlur stdDeviation="14.059863"/>
  </filter>
  <clipPath id="d">
   <g transform="translate(0 -1004.4)">
    <path transform="matrix(15.333 0 0 11.5 415 878.86)" d="m-24 13c0 1.105-0.672 2-1.5 2s-1.5-0.895-1.5-2 0.672-2 1.5-2 1.5 0.895 1.5 2z" fill="#1890d0"/>
   </g>
  </clipPath>
  <filter id="e" x="-.06995" y="-.052462" width="1.1399" height="1.1049" color-interpolation-filters="sRGB">
   <feGaussianBlur stdDeviation="0.52470471"/>
  </filter>
  <linearGradient id="linearGradient963" x1="392.72" x2="392.72" y1="241.6" y2="589.86" gradientTransform="matrix(.085001 0 0 .084128 -1.3894 -2.1516)" gradientUnits="userSpaceOnUse">
   <stop stop-color="#fff" offset="0"/>
   <stop stop-color="#fffedf" offset="1"/>
  </linearGradient>
 </defs>
 <circle transform="matrix(.064012 0 0 .064012 -.74226 -2.62)" cx="511.5" cy="540.86" r="468.66" color="#000000" filter="url(#c)" opacity=".25" stroke-width="15.622"/>
 <circle cx="32" cy="32.002" r="30" color="#000000" fill="url(#a)"/>
 <g transform="matrix(1.3331 0 0 1.3194 .012175 1.4)" clip-path="url(#d)" filter="url(#e)" opacity=".15" stroke-width=".59201">
  <g stroke-width=".59201">
   <path d="m24.01 12c-2.898 4e-3 -5.734 1.297-7.48 3.691-2.715 3.738-1.73 8.801 2.145 11.441v7.871h1.328v1h8v-1h1.313v-7.871c0.832-0.57 1.566-1.258 2.145-2.059 2.77-3.828 1.691-9.04-2.43-11.633-1.543-0.969-3.289-1.441-5.03-1.441m-0.012 1.523c1.418 0 2.852 0.383 4.121 1.18 3.379 2.125 4.266 6.367 1.984 9.512-0.527 0.723-1.195 1.355-1.977 1.848l-0.133 1.941h-8l-0.117-1.941c-3.387-2.125-4.27-6.367-1.98-9.512 1.426-1.965 3.742-3.03 6.102-3.02m-4 15.477h8v1.996h-8m0 1h8v1.715h-8"/>
  </g>
 </g>
 <path d="m32.02 16.165c-3.8633 0.0053-7.644 1.7113-9.9716 4.8699-3.6194 4.9319-2.3063 11.612 2.8595 15.095v10.385h1.7704v1.3194h10.665v-1.3194h1.7504v-10.385c1.1091-0.75206 2.0876-1.6598 2.8595-2.7166 3.6927-5.0507 2.2543-11.927-3.2394-15.349-2.057-1.2785-4.3846-1.9013-6.7055-1.9013m-0.016 2.0094c1.8903 0 3.802 0.50533 5.4937 1.5569 4.5045 2.8037 5.687 8.4006 2.6449 12.55-0.70254 0.95393-1.5931 1.7878-2.6355 2.4383l-0.1773 2.561h-10.665l-0.15597-2.561c-4.5152-2.8037-5.6923-8.4006-2.6395-12.55 1.901-2.5926 4.9885-3.9978 8.1346-3.9846m-5.3324 20.42h10.665v2.6335h-10.665m0 1.3194h10.665v2.2628h-10.665" fill="url(#linearGradient963)" stroke-width=".78514"/>
</svg>
