<svg width="64" height="64" version="1.1" viewBox="0 0 16.933 16.933" xmlns="http://www.w3.org/2000/svg">
 <defs>
  <linearGradient id="a" x1="7.937" x2="7.937" y1="15.081" y2="1.852" gradientTransform="translate(-38.682)" gradientUnits="userSpaceOnUse">
   <stop stop-color="#676767" offset="0"/>
   <stop stop-color="#c6c6c6" offset="1"/>
  </linearGradient>
  <filter id="a-3" x="-.036" y="-.036" width="1.072" height="1.072" color-interpolation-filters="sRGB">
   <feGaussianBlur stdDeviation=".9"/>
  </filter>
  <linearGradient id="b" x1="-506.45" x2="-506.45" y1="-19.101" y2="1013.6" gradientTransform="matrix(.01556 0 0 .01556 16.349 .82)" gradientUnits="userSpaceOnUse">
   <stop stop-color="#c7c7c7" offset="0"/>
   <stop stop-color="#646464" offset="1"/>
  </linearGradient>
 </defs>
 <circle transform="matrix(.26458 0 0 .26458 -.042 -.05)" cx="32.16" cy="32.16" r="30" fill-rule="evenodd" filter="url(#a-3)" opacity=".25" style="paint-order:fill markers stroke"/>
 <circle cx="8.467" cy="8.46" r="7.938" fill="url(#b)" fill-rule="evenodd" style="paint-order:fill markers stroke"/>
 <rect x="-37.624" y="1.05" width="14.817" height="14.817" rx="3.44" ry="3.44" fill="url(#a)"/>
 <path d="m0.75291 10.319a7.938 7.938 0 0 0 0.070795 0.2651h7.5105v5.8088a7.938 7.938 0 0 0 0.13281 0.005167 7.938 7.938 0 0 0 0.13177-0.005167v-5.8088h7.5115a7.938 7.938 0 0 0 0.070796-0.2651h-15.428z" fill="#000000" opacity=".25" stroke-width="1.0691"/>
</svg>
