<svg xmlns="http://www.w3.org/2000/svg" width="64" height="64" viewBox="0 0 16.933 16.933"><defs><filter id="a" width="1.072" height="1.072" x="-.036" y="-.036" color-interpolation-filters="sRGB"><feGaussianBlur stdDeviation=".9"/></filter><filter id="c" width="1.028" height="1.028" x="-.014" y="-.014" color-interpolation-filters="sRGB"><feGaussianBlur stdDeviation=".298"/></filter><filter id="d" width="1.059" height="1.059" x="-.03" y="-.03" color-interpolation-filters="sRGB"><feGaussianBlur stdDeviation=".298"/></filter><linearGradient id="b" x1="-506.45" x2="-506.45" y1="-19.101" y2="1013.6" gradientTransform="translate(16.349 .82)scale(.01556)" gradientUnits="userSpaceOnUse"><stop offset="0" stop-color="#c7c7c7"/><stop offset="1" stop-color="#646464"/></linearGradient></defs><circle cx="32.16" cy="32.16" r="30" fill-rule="evenodd" filter="url(#a)" opacity=".25" style="paint-order:fill markers stroke" transform="translate(-.042 -.05)scale(.26458)"/><circle cx="8.467" cy="8.46" r="7.938" fill="url(#b)" fill-rule="evenodd" style="paint-order:fill markers stroke"/><path d="M.753 10.319a8 8 0 0 0 .07.265h7.511v5.809l.133.005.132-.005v-5.809h7.511a8 8 0 0 0 .071-.265z" opacity=".25"/><path fill="#fff" d="M10.787 10.787a29.934 29.934 0 0 0 0 42.426c.119.119.242.23.362.345-11.4-11.775-11.288-30.43.345-42.065S41.784-.25 53.56 11.148c-.116-.12-.227-.243-.345-.362a29.934 29.934 0 0 0-42.426 0z" filter="url(#c)" opacity=".5" transform="scale(.26458)"/><path fill="#fff" d="M37.435 61.526c5.772-1.063 11.297-3.831 15.779-8.313s7.25-10.007 8.313-15.779c-1.592 5.434-4.606 10.657-9.02 15.072s-9.639 7.428-15.072 9.02" filter="url(#d)" opacity=".5" transform="scale(.26458)"/></svg>