<svg width="64" height="64" xmlns="http://www.w3.org/2000/svg" xmlns:xlink="http://www.w3.org/1999/xlink"><defs><linearGradient id="A" x1="353.61" x2="353.61" y1="34.476" y2="194.3" gradientTransform="translate(-40.506 -5.962) scale(.20439)" gradientUnits="userSpaceOnUse"><stop stop-color="#c3c3c3" stop-opacity=".996" offset="0"/><stop stop-color="#c4c4c4" offset=".042"/><stop stop-color="#999" offset=".085"/><stop stop-color="#9f9f9f" offset=".139"/><stop stop-color="#dedede" offset=".201"/><stop stop-color="#e9e9e9" offset=".23"/><stop stop-color="#bebdbd" offset=".275"/><stop stop-color="#888686" offset=".309"/><stop stop-color="#545353" offset=".456"/><stop stop-color="#4e4e4e" offset=".535"/><stop stop-color="#a1a1a1" offset=".857"/><stop stop-color="#737373" offset="1"/></linearGradient><linearGradient id="z" x1="535.64" x2="535.64" y1="161.77" y2="200.46" gradientTransform="translate(-76.994 -2.457) scale(.20439)" gradientUnits="userSpaceOnUse"><stop stop-color="#0d0d0d" offset="0"/><stop stop-color="#2c2c2c" stop-opacity="0" offset="1"/></linearGradient><linearGradient id="r" x1="103.3" x2="103.3" y1="33.303" y2="61.044" gradientTransform="translate(-34.261 2.301)" gradientUnits="userSpaceOnUse" xlink:href="#a"/><linearGradient id="a"><stop stop-color="#eee" offset="0"/><stop stop-color="#cacaca" offset=".468"/><stop stop-color="#b3b3b3" offset=".505"/><stop stop-color="#b0b0b0" offset=".578"/><stop stop-color="#454646" offset="1"/></linearGradient><linearGradient id="s" x1="100.34" x2="100.34" y1="56.953" y2="35.604" gradientTransform="translate(-34.261 2.301)" gradientUnits="userSpaceOnUse" xlink:href="#b"/><linearGradient id="b"><stop stop-color="#484847" offset="0"/><stop stop-color="#828280" offset="1"/></linearGradient><linearGradient id="t" x1="98.436" x2="67.627" y1="50.305" y2="50.305" gradientUnits="userSpaceOnUse" xlink:href="#c"/><linearGradient id="c"><stop offset="0"/><stop stop-opacity="0" offset="1"/></linearGradient><linearGradient id="u" x1="13.907" x2="20.312" y1="33.066" y2="57.654" gradientTransform="translate(-63.418 -9.884)" gradientUnits="userSpaceOnUse" xlink:href="#d"/><linearGradient id="d"><stop stop-color="#b32418" stop-opacity=".996" offset="0"/><stop stop-color="#d42b1d" offset=".087"/><stop stop-color="#c72318" offset="1"/></linearGradient><linearGradient id="v" x1="15.715" x2="19.408" y1="78.625" y2="42.829" gradientTransform="translate(-63.418 -9.884)" gradientUnits="userSpaceOnUse" xlink:href="#e"/><linearGradient id="e"><stop stop-color="#46120e" offset="0"/><stop stop-color="#8b150d" offset=".311"/><stop stop-color="#c72318" stop-opacity="0" offset="1"/></linearGradient><linearGradient id="w" x1="-31.29" x2="-11.868" y1="56.027" y2="56.027" gradientTransform="translate(-63.418 -9.884)" gradientUnits="userSpaceOnUse" xlink:href="#f"/><linearGradient id="f"><stop stop-color="#46120e" offset="0"/><stop stop-color="#46120e" stop-opacity="0" offset="1"/></linearGradient><linearGradient id="g"><stop stop-color="#b52117" stop-opacity=".118" offset="0"/><stop stop-color="#b22117" stop-opacity="0" offset=".82"/><stop stop-color="#841810" offset="1"/></linearGradient><linearGradient id="y" x1="-.155" x2="-26.654" y1="45.781" y2="42.527" gradientUnits="userSpaceOnUse" xlink:href="#f"/><linearGradient id="o" x1="399.57" x2="399.57" y1="545.8" y2="517.8" gradientTransform="translate(-1679.3 -1376) scale(2.1429)" gradientUnits="userSpaceOnUse"><stop stop-color="#3889e9" offset="0"/><stop stop-color="#5ea5fb" offset="1"/></linearGradient><linearGradient id="n" x1="399.57" x2="399.57" y1="545.8" y2="517.8" gradientTransform="translate(-965.92 -1176.9) scale(2.1429)" gradientUnits="userSpaceOnUse"><stop stop-color="#3889e9" offset="0"/><stop stop-color="#5ea5fb" offset="1"/></linearGradient><linearGradient id="m" x1="399.57" x2="399.57" y1="545.8" y2="517.8" gradientTransform="translate(-1395 -1382.7) scale(2.1429)" gradientUnits="userSpaceOnUse"><stop stop-color="#3889e9" offset="0"/><stop stop-color="#5ea5fb" offset="1"/></linearGradient><linearGradient id="l" x1="399.57" x2="399.57" y1="545.8" y2="517.8" gradientTransform="translate(-681.61 -1183.6) scale(2.1429)" gradientUnits="userSpaceOnUse"><stop stop-color="#3889e9" offset="0"/><stop stop-color="#5ea5fb" offset="1"/></linearGradient><linearGradient id="k" x1="399.57" x2="399.57" y1="545.8" y2="517.8" gradientTransform="translate(-1771.4 -1397.3) scale(2.1429)" gradientUnits="userSpaceOnUse"><stop stop-color="#3889e9" offset="0"/><stop stop-color="#5ea5fb" offset="1"/></linearGradient><linearGradient id="i" x1="20.62" x2="20.62" y1="63.531" y2="8.275" gradientTransform="translate(-72.849) scale(3.7795)" gradientUnits="userSpaceOnUse"><stop stop-color="#a1abb2" offset="0"/><stop stop-color="#627177" offset="1"/></linearGradient><linearGradient id="j" x1="32.123" x2="32.123" y1="6.71" y2="58.017" gradientTransform="translate(4.267 4.261) scale(.86667)" gradientUnits="userSpaceOnUse"><stop stop-color="#bbbfc3" offset="0"/><stop stop-color="#f3f4f7" stop-opacity=".941" offset="1"/></linearGradient><radialGradient id="x" cx="3.512" cy="47.23" r="12.017" gradientTransform="matrix(2.5424 0 0 1.4791 -60.842 -28.344)" gradientUnits="userSpaceOnUse" xlink:href="#g"/><radialGradient id="q" cx="16.993" cy="1.557" r="19.382" gradientTransform="matrix(1.4339 0 0 .60833 6.933 6.479)" gradientUnits="userSpaceOnUse"><stop stop-color="#c12b2b" offset="0"/><stop stop-color="#c12b2b" stop-opacity="0" offset="1"/></radialGradient><radialGradient id="p" cx="16.994" cy="4.308" r="6.579" gradientTransform="matrix(1.9253 0 0 4.6905 -.613 -12.763)" gradientUnits="userSpaceOnUse"><stop offset="0"/><stop stop-opacity="0" offset="1"/></radialGradient><filter id="h" x="-.036" y="-.036" width="1.072" height="1.072" color-interpolation-filters="sRGB"><feGaussianBlur stdDeviation="14.115"/></filter></defs><circle transform="translate(-.614 -2.48) scale(.06376)" cx="511.5" cy="540.86" r="470.5" color="#000" filter="url(#h)" opacity=".25"/><circle cx="32" cy="32.006" r="30" color="#000" fill="url(#i)"/><circle cx="32" cy="32" r="26" color="#000" fill="url(#j)"/><text x="-811.92" y="-199.925" font-family="'Noto Serif CJK SC'" font-size="40" letter-spacing="0" word-spacing="0" style="line-height:1.25" xml:space="preserve"/><text x="277.858" y="13.806" font-family="'Noto Serif CJK SC'" font-size="40" letter-spacing="0" word-spacing="0" style="line-height:1.25" xml:space="preserve"/><text x="-435.555" y="-185.276" font-family="'Noto Serif CJK SC'" font-size="40" letter-spacing="0" word-spacing="0" style="line-height:1.25" xml:space="preserve"/><text x="-6.454" y="20.463" font-family="'Noto Serif CJK SC'" font-size="40" letter-spacing="0" word-spacing="0" style="line-height:1.25" xml:space="preserve"/><text x="-719.866" y="-178.618" font-family="'Noto Serif CJK SC'" font-size="40" letter-spacing="0" word-spacing="0" style="line-height:1.25" xml:space="preserve"/><path d="M32.02 12.873a1.23 1.23 0 0 0-.853.356l-8.68 8.314c-.959.918-.676 1.775 0 1.795h3.418V42.31h-3.419c-.675.02-.958.876 0 1.794l8.68 8.315c.248.237.551.356.854.356.303 0 .606-.12.853-.356l8.68-8.315c.958-.918.676-1.774 0-1.794h-3.419V23.338h3.42c.675-.02.957-.877 0-1.795l-8.68-8.314a1.23 1.23 0 0 0-.854-.356z" fill="#fff" stroke="#fff" stroke-linecap="round" stroke-linejoin="round" stroke-opacity=".355" stroke-width="1.226"/><path d="M32.02 12.873a1.23 1.23 0 0 0-.853.356l-8.68 8.314c-.959.918-.676 1.775 0 1.795h3.418V42.31h-3.419c-.675.02-.958.876 0 1.794l8.68 8.315c.248.237.551.356.854.356.303 0 .606-.12.853-.356l8.68-8.315c.958-.918.676-1.774 0-1.794h-3.419V23.338h3.42c.675-.02.957-.877 0-1.795l-8.68-8.314a1.23 1.23 0 0 0-.854-.356z" fill="#484848"/><path d="M19.524 4a12.667 30.862 0 0 0-.086 3.446 12.667 30.862 0 0 0 12.666 30.862A12.667 30.862 0 0 0 44.771 7.446a12.667 30.862 0 0 0-.093-3.445z" fill="url(#p)" opacity=".735"/><path d="M32.019 12.873a1.23 1.23 0 0 0-.853.356l-8.68 8.314c-.959.918-.676 1.775 0 1.795h3.418V42.31h-3.419c-.675.02-.958.876 0 1.794l8.68 8.315c.248.237.551.356.854.356.303 0 .606-.12.853-.356l8.68-8.315c.958-.918.676-1.774 0-1.794h-3.419V23.338h3.42c.675-.02.957-.877 0-1.795l-8.68-8.314a1.23 1.23 0 0 0-.854-.356zm0 1.661 7.59 7.27h-1.475a1.533 1.533 0 0 0-1.533 1.534V42.31a1.533 1.533 0 0 0 1.533 1.533h1.476l-7.591 7.27-7.59-7.27h1.475a1.533 1.533 0 0 0 1.533-1.533V23.338a1.533 1.533 0 0 0-1.533-1.533h-1.476z" color="#000" fill-opacity=".128" style="font-feature-settings:normal;font-variant-alternates:normal;font-variant-caps:normal;font-variant-ligatures:normal;font-variant-numeric:normal;font-variant-position:normal;isolation:auto;mix-blend-mode:normal;shape-padding:0;text-decoration-color:#000;text-decoration-line:none;text-decoration-style:solid;text-indent:0;text-orientation:mixed;text-transform:none;white-space:normal"/><path d="M16.417 4A12.39 12.39 0 0 0 3.999 16.418v2.845a47.29 11.951 0 0 0 27.493 2.24A47.29 11.951 0 0 0 60 19.073v-2.656A12.39 12.39 0 0 0 47.582 4z" fill="url(#q)" opacity=".747"/><path d="m58.934 41.056 15.98-7.042c.98-.432 1.918.906 1.918 2.031v25.46c0 1.125-.926 2.434-1.918 2.03l-15.98-6.5c-.992-.403-1.918-.905-1.918-2.03V43.086c0-1.125.937-1.599 1.918-2.031z" fill="url(#r)" stroke="url(#s)" stroke-linecap="round" stroke-linejoin="round" transform="translate(-3.045 -2.562) scale(.20439)"/><path d="m58.934 41.056 15.98-7.042c.98-.432 1.918.906 1.918 2.031v25.46c0 1.125-.926 2.434-1.918 2.03l-15.98-6.5c-.992-.403-1.918-.905-1.918-2.03V43.086c0-1.125.937-1.599 1.918-2.031z" fill="url(#t)" opacity=".654" transform="translate(-3.045 -2.562) scale(.20439)"/><path d="M24.838 13.023c-4.033-.173-8.103-.937-12.105-2.185-.528-.176-1.007-.42-1.103-1.081a29.414 29.414 0 0 1-.026-5.1c.065-.508.61-.705 1.073-.851C16.765 2.55 21 1.663 25.674 1.579z" fill="#c72418"/><path d="M-16.643 74.14c-19.733-.845-39.643-4.586-59.227-10.692-2.583-.858-4.925-2.05-5.396-5.288-.776-7.677-.796-17.273-.128-24.95.32-2.486 2.984-3.45 5.253-4.166 20-6.145 40.722-10.484 63.589-10.897z" fill="url(#u)" transform="translate(28.24 -2.13) scale(.20439)"/><path d="M-16.643 74.14c-19.733-.845-39.643-4.586-59.227-10.692-2.583-.858-4.925-2.05-5.396-5.288-.776-7.677-.796-17.273-.128-24.95.32-2.486 2.984-3.45 5.253-4.166 20-6.145 40.722-10.484 63.589-10.897z" fill="url(#v)" transform="translate(28.24 -2.13) scale(.20439)"/><path d="M-16.643 74.14c-19.733-.845-39.643-4.586-59.227-10.692-2.583-.858-4.925-2.05-5.396-5.288-.776-7.677-.796-17.273-.128-24.95.32-2.486 2.984-3.45 5.253-4.166 20-6.145 40.722-10.484 63.589-10.897z" fill="url(#w)" transform="translate(28.24 -2.13) scale(.20439)"/><path d="M-67.578 26.548c-2.87.793-5.725 1.624-8.563 2.496-2.268.716-4.932 1.68-5.251 4.166-.337 3.863-.498 8.21-.477 12.555a12.017 12.017 0 0 0 6.434 1.883 12.017 12.017 0 0 0 12.018-12.016 12.017 12.017 0 0 0-4.16-9.084z" fill="url(#x)" opacity=".392" transform="translate(28.24 -2.13) scale(.20439)"/><path d="M-16.643 74.14c-19.733-.845-39.643-4.586-59.227-10.692-2.583-.858-4.925-2.05-5.396-5.288-.776-7.677-.796-17.273-.128-24.95.32-2.486 2.984-3.45 5.253-4.166 20-6.145 40.722-10.484 63.589-10.897z" fill="url(#y)" opacity=".315" transform="translate(28.24 -2.13) scale(.20439)"/><path d="m58.934 41.056 15.98-7.042c.98-.432 1.918.906 1.918 2.031v25.46c0 1.125-.926 2.434-1.918 2.03l-15.98-6.5c-.992-.403-1.918-.905-1.918-2.03V43.086c0-1.125.937-1.599 1.918-2.031z" fill="url(#r)" stroke="url(#s)" stroke-linecap="round" stroke-linejoin="round" transform="matrix(-.20439 0 0 .20439 66.857 -2.562)"/><path d="m58.934 41.056 15.98-7.042c.98-.432 1.918.906 1.918 2.031v25.46c0 1.125-.926 2.434-1.918 2.03l-15.98-6.5c-.992-.403-1.918-.905-1.918-2.03V43.086c0-1.125.937-1.599 1.918-2.031z" fill="url(#t)" opacity=".654" transform="matrix(-.20439 0 0 .20439 66.857 -2.562)"/><path d="M38.974 13.023c4.033-.173 8.103-.937 12.105-2.185.528-.176 1.007-.42 1.103-1.081.159-1.57.163-3.53.026-5.1-.065-.508-.61-.705-1.073-.851-4.088-1.256-8.323-2.143-12.997-2.227z" fill="#c72418"/><path d="M-16.643 74.14c-19.733-.845-39.643-4.586-59.227-10.692-2.583-.858-4.925-2.05-5.396-5.288-.776-7.677-.796-17.273-.128-24.95.32-2.486 2.984-3.45 5.253-4.166 20-6.145 40.722-10.484 63.589-10.897z" fill="url(#u)" transform="matrix(-.20439 0 0 .20439 35.572 -2.13)"/><path d="M-16.643 74.14c-19.733-.845-39.643-4.586-59.227-10.692-2.583-.858-4.925-2.05-5.396-5.288-.776-7.677-.796-17.273-.128-24.95.32-2.486 2.984-3.45 5.253-4.166 20-6.145 40.722-10.484 63.589-10.897z" fill="url(#v)" transform="matrix(-.20439 0 0 .20439 35.572 -2.13)"/><path d="M-16.643 74.14c-19.733-.845-39.643-4.586-59.227-10.692-2.583-.858-4.925-2.05-5.396-5.288-.776-7.677-.796-17.273-.128-24.95.32-2.486 2.984-3.45 5.253-4.166 20-6.145 40.722-10.484 63.589-10.897z" fill="url(#w)" transform="matrix(-.20439 0 0 .20439 35.572 -2.13)"/><path d="M-67.578 26.548c-2.87.793-5.725 1.624-8.563 2.496-2.268.716-4.932 1.68-5.251 4.166-.337 3.863-.498 8.21-.477 12.555a12.017 12.017 0 0 0 6.434 1.883 12.017 12.017 0 0 0 12.018-12.016 12.017 12.017 0 0 0-4.16-9.084z" fill="url(#x)" opacity=".392" transform="matrix(-.20439 0 0 .20439 35.572 -2.13)"/><path d="M-16.643 74.14c-19.733-.845-39.643-4.586-59.227-10.692-2.583-.858-4.925-2.05-5.396-5.288-.776-7.677-.796-17.273-.128-24.95.32-2.486 2.984-3.45 5.253-4.166 20-6.145 40.722-10.484 63.589-10.897z" fill="url(#y)" opacity=".315" transform="matrix(-.20439 0 0 .20439 35.572 -2.13)"/><path d="M25.904 29.47v12.841h-3.419c-.675.02-.958.877 0 1.794l8.68 8.315c.248.237.551.356.854.356.303 0 .606-.119.853-.356l8.68-8.315c.958-.917.676-1.774 0-1.794h-3.419V29.47z" fill="url(#z)"/><path d="M25.99.987c-3.139 1.063-.828 17.111-.209 27.95v3.98c0 .434.35.784.784.784h10.66c.435 0 .785-.35.785-.784v-3.345c-.078-5.764 3.503-27.588-.418-28.586z" fill="url(#A)"/></svg>