<?xml version="1.0" encoding="UTF-8"?>
<svg width="64" height="64" version="1.1" viewBox="0 0 16.933 16.933" xmlns="http://www.w3.org/2000/svg">
 <defs>
  <linearGradient id="a" x1="7.937" x2="7.937" y1="15.081" y2="1.852" gradientTransform="matrix(1.0714 0 0 1.0714 -.60437 -.5958)" gradientUnits="userSpaceOnUse">
   <stop stop-color="#0e71de" offset="0"/>
   <stop stop-color="#25c9ff" offset="1"/>
  </linearGradient>
  <filter id="b" x="-.055401" y="-.06546" width="1.1108" height="1.1309" color-interpolation-filters="sRGB">
   <feGaussianBlur stdDeviation=".19"/>
  </filter>
  <filter id="filter7" x="-.027" y="-.027" width="1.054" height="1.054" color-interpolation-filters="sRGB">
   <feGaussianBlur stdDeviation="0.675"/>
  </filter>
 </defs>
 <rect transform="scale(.26458)" x="2" y="3" width="60" height="60" rx="30" ry="30" filter="url(#filter7)" opacity=".15"/>
 <rect x=".52916" y=".52916" width="15.875" height="15.875" rx="7.9373" ry="7.9373" fill="url(#a)" stroke-width="1.0714"/>
 <path d="M9.505 5.065a1.763 1.763 0 0 0-1.16 1.771l.02.301-.298-.036c-1.081-.142-2.027-.62-2.83-1.426l-.393-.4-.1.297c-.215.656-.078 1.352.367 1.819.238.257.184.294-.227.14-.142-.048-.267-.085-.28-.066-.04.043.103.602.215.824.154.308.47.61.814.787l.292.141-.344.007c-.333 0-.344.007-.311.135.119.4.589.825 1.112 1.01l.369.128-.321.197a3.289 3.289 0 0 1-1.592.455c-.268.006-.487.03-.487.048 0 .061.725.405 1.147.54 1.266.4 2.77.228 3.902-.454.802-.486 1.606-1.45 1.98-2.385.202-.499.404-1.407.404-1.847 0-.283.018-.32.352-.658.196-.197.38-.411.416-.474.06-.117.054-.117-.25-.01-.505.184-.578.16-.326-.117.184-.197.404-.553.404-.657 0-.018-.089.01-.19.067a3.2 3.2 0 0 1-.523.207l-.323.105-.29-.202a2.415 2.415 0 0 0-.506-.271 1.994 1.994 0 0 0-1.04.024" filter="url(#b)" opacity=".15"/>
 <path d="M9.505 5.065a1.763 1.763 0 0 0-1.16 1.771l.02.301-.298-.036c-1.081-.142-2.027-.62-2.83-1.426l-.393-.4-.1.297c-.215.656-.078 1.352.367 1.819.238.257.184.294-.227.14-.142-.048-.267-.085-.28-.066-.04.043.103.602.215.824.154.308.47.61.814.787l.292.141-.344.007c-.333 0-.344.007-.311.135.119.4.589.825 1.112 1.01l.369.128-.321.197a3.289 3.289 0 0 1-1.592.455c-.268.006-.487.03-.487.048 0 .061.725.405 1.147.54 1.266.4 2.77.228 3.902-.454.802-.486 1.606-1.45 1.98-2.385.202-.499.404-1.407.404-1.847 0-.283.018-.32.352-.658.196-.197.38-.411.416-.474.06-.117.054-.117-.25-.01-.505.184-.578.16-.326-.117.184-.197.404-.553.404-.657 0-.018-.089.01-.19.067a3.2 3.2 0 0 1-.523.207l-.323.105-.29-.202a2.415 2.415 0 0 0-.506-.271 1.994 1.994 0 0 0-1.04.024" fill="#fff"/>
</svg>
