<svg xmlns="http://www.w3.org/2000/svg" width="64" height="64" enable-background="new 0 0 1024 1024" image-rendering="optimizeSpeed"><defs><linearGradient id="b" x1="41.843" x2="982.15" y1="512" y2="512" gradientTransform="translate(-.67 -64.67)scale(.06381)" gradientUnits="userSpaceOnUse"><stop offset="0" stop-color="#5c5c5c"/><stop offset="1" stop-color="#2e2e2e"/></linearGradient><linearGradient id="d" x1="204.72" x2="747.67" y1="545.45" y2="545.45" gradientTransform="translate(-.623 -.714)scale(.0638)" gradientUnits="userSpaceOnUse"><stop offset="0" stop-color="#c2c2c2"/><stop offset="1" stop-color="#e5e5e5"/></linearGradient><filter id="a" width="1.072" height="1.072" x="-.036" y="-.036" color-interpolation-filters="sRGB"><feGaussianBlur stdDeviation="14.105"/></filter><filter id="c" width="1.218" height="1.214" x="-.109" y="-.107" color-interpolation-filters="sRGB"><feGaussianBlur stdDeviation="1.611"/></filter></defs><circle cx="512" cy="512" r="470.16" filter="url(#a)" opacity=".25" style="paint-order:stroke markers fill" transform="translate(-.67 -.67)scale(.0638)"/><circle cx="32" cy="-32" r="30" fill="url(#b)" style="mix-blend-mode:normal" transform="rotate(90)"/><rect width="33.645" height="34.452" x="-8.093" y="27.179" fill="gray" rx="3.58" ry="3.58" transform="rotate(-33.878)"/><rect width="33.645" height="34.452" x="3.103" y="23.406" fill="#a8a8a8" rx="3.58" ry="3.58" transform="rotate(-18.878)"/><rect width="33.645" height="34.452" x="12.894" y="17.539" stroke="#fff" filter="url(#c)" opacity=".35" rx="3.58" ry="3.58" transform="rotate(-3.878)"/><rect width="33.645" height="34.452" x="12.94" y="16.865" fill="url(#d)" rx="3.58" ry="3.58" transform="rotate(-3.878)"/><text xml:space="preserve" x="22.429" y="42.311" fill="#333" stroke-width=".701" font-family="sans-serif" font-size="28.049" style="line-height:1.25" transform="matrix(.96187 -.07015 .0652 1.0349 0 0)"><tspan x="22.429" y="42.311" font-family="Symbol">T</tspan></text></svg>