<svg width="64" height="64" xmlns="http://www.w3.org/2000/svg"><defs><linearGradient id="b" x1="408.25" x2="407.94" y1="547.6" y2="498.89" gradientTransform="translate(-510.64 -663.52) scale(1.3276)" gradientUnits="userSpaceOnUse"><stop stop-color="#fff" offset="0"/><stop stop-color="#e6e6e6" offset="1"/></linearGradient><linearGradient id="d" x1="19.5" x2="19.5" y1="34" y2="17" gradientUnits="userSpaceOnUse"><stop stop-color="#f60" offset="0"/><stop stop-color="#f80" offset="1"/></linearGradient><linearGradient id="e" x1="32" x2="32" y1="37" y2="11" gradientUnits="userSpaceOnUse"><stop stop-color="#2d2d2d" offset="0"/><stop stop-color="#535353" offset="1"/></linearGradient><filter id="a" x="-.036" y="-.036" width="1.072" height="1.072" color-interpolation-filters="sRGB"><feGaussianBlur stdDeviation=".89"/></filter><filter id="c" x="-.055" y="-.042" width="1.11" height="1.085" color-interpolation-filters="sRGB"><feGaussianBlur stdDeviation=".46"/></filter></defs><rect transform="translate(-389.32 -489.92) scale(1.0115)" x="386.85" y="486.31" width="59.315" height="59.315" ry="29.657" filter="url(#a)" opacity=".25"/><rect x="1.983" y="1.978" width="59.997" height="59.997" ry="29.998" fill="url(#b)"/><g transform="matrix(1.5 0 0 1.5 -2.5 -4)" filter="url(#c)" opacity=".15"><path d="M13 17v9.348c0 1.133.118 2.165.348 3.107.231.917.583 1.735 1.133 2.4 1.375 1.662 3.397 2.143 5.254 2.145 2.266.003 4.266-.245 6.266-1V17.004h-3V31c-1 .259-2 .365-2.949.374-1.489.014-2.547-.437-3.18-1.311-.629-.874-.871-2.326-.871-4.352v-8.71M31 11h2v26h-2"/></g><path d="M13 17v9.348c0 1.133.118 2.165.348 3.107.231.917.583 1.735 1.133 2.4 1.375 1.662 3.397 2.143 5.254 2.145 2.266.003 4.266-.245 6.266-1V17.004h-3V31c-1 .259-2 .365-2.949.374-1.489.014-2.547-.437-3.18-1.311-.629-.874-.871-2.326-.871-4.352v-8.71" fill="url(#d)" transform="matrix(1.5 0 0 1.5 -2.5 -4)"/><path d="M31 11h2v26h-2" fill="url(#e)" transform="matrix(1.5 0 0 1.5 -2.5 -4)"/></svg>