<svg width="64" height="64" version="1.1" xmlns="http://www.w3.org/2000/svg" xmlns:xlink="http://www.w3.org/1999/xlink">
 <defs>
  <filter id="i" x="-.036" y="-.036" width="1.072" height="1.072" color-interpolation-filters="sRGB">
   <feGaussianBlur stdDeviation="14.170353"/>
  </filter>
  <filter id="h" x="-.035863" y="-.036138" width="1.0717" height="1.0723" color-interpolation-filters="sRGB">
   <feGaussianBlur stdDeviation="0.75453"/>
  </filter>
  <linearGradient id="d" x1="23.683" x2="25.655" y1="-25.544" y2="75.049" gradientUnits="userSpaceOnUse">
   <stop stop-color="#111" offset="0"/>
   <stop stop-color="#4c4c4c" offset=".54902"/>
   <stop stop-color="#888" offset="1"/>
  </linearGradient>
  <linearGradient id="f" x1="512.4" x2="512.4" y1="290.23" y2="1201.6" gradientTransform="matrix(.063513 0 0 .063513 -.54372 -.49348)" gradientUnits="userSpaceOnUse">
   <stop stop-color="#fff" offset="0"/>
   <stop stop-color="#bdc3c7" offset="1"/>
  </linearGradient>
  <linearGradient id="linearGradient8630" x1="31.809" x2="31.809" y1="8.418" y2="57.831" gradientUnits="userSpaceOnUse">
   <stop stop-color="#ff781f" offset="0"/>
   <stop stop-color="#d33600" offset="1"/>
  </linearGradient>
  <linearGradient id="linearGradient14433" x1="20.853" x2="20.853" y1="55.599" y2="46.835" gradientUnits="userSpaceOnUse">
   <stop stop-color="#ce2e0a" offset="0"/>
   <stop stop-color="#e35f0b" offset="1"/>
  </linearGradient>
  <filter id="filter14632" x="-.108" y="-.108" width="1.216" height="1.216" color-interpolation-filters="sRGB">
   <feGaussianBlur stdDeviation="0.945"/>
  </filter>
 </defs>
 <path transform="matrix(.063513 0 0 .063513 -.54372 -.49348)" d="m970.43 391.52c-1.1008-4.3532-2.3517-9.0066-3.6527-13.61-1.0007-3.4025-2.0015-6.855-3.1523-10.508-1.6012-5.1538-3.4025-10.508-5.3039-15.862-6.4547-18.263-14.16-36.076-23.167-53.689-3.8028-7.4054-7.9558-14.961-12.309-22.416-20.315-34.525-45.833-67.249-76.406-97.821-72.653-72.653-157.26-116.74-253.84-132.15-16.262-2.6019-32.824-4.4032-50.087-5.3539-9.7071-0.5504-19.865-0.85062-30.122-0.85062-9.3568 0-18.614 0.25018-27.92 0.75055-118.44 6.1045-220.46 51.988-306.07 137.6q-138.35 138.35-138.35 333.99c0 130.45 46.134 241.83 138.35 334.04 56.741 56.691 120.64 95.97 191.24 117.64 36.777 11.258 74.855 17.863 114.83 19.965h0.40029c8.5062 0.45033 16.612 0.70051 24.518 0.70051h3.0022c10.308 0 20.515-0.30022 30.122-0.80058 2.5018-0.15011 4.7535-0.30022 6.9551-0.45033 20.215-1.4511 39.929-4.053 58.743-7.7056 7.9558-1.5511 15.812-3.3024 23.417-5.1538 80.859-20.315 152.26-61.645 214.81-124.19 48.636-48.636 84.462-102.57 107.43-161.92 18.463-47.685 28.671-98.872 30.572-153.61 0.20015-6.0544 0.30022-12.259 0.30022-18.514v-3.0022c-0.20014-40.68-4.9536-79.558-14.31-117.09z" filter="url(#i)" opacity=".25" stroke-width="15.695"/>
 <circle cx="32" cy="32" r="30" fill="url(#linearGradient8630)" stroke-linecap="round" stroke-linejoin="round" stroke-width="1.7911" style="paint-order:stroke fill markers"/>
 <path d="m3.2988 41c1.3855 4.5324 3.8789 8.6057 7.4883 12.215 3.6038 3.6006 7.6625 6.0963 12.146 7.4727 2.3358 0.71503 4.754 1.1341 7.293 1.2676h0.02539c0.54026 0.028602 1.0545 0.044922 1.5566 0.044922h0.19141c0.65469 0 1.3019-0.019 1.9121-0.05078 0.1589-0.0095 0.30353-0.01976 0.44336-0.0293 1.2839-0.09216 2.5355-0.25629 3.7305-0.48828 0.5053-0.09851 1.0033-0.21054 1.4863-0.32812 5.1356-1.2903 9.6718-3.9143 13.645-7.8867 3.089-3.089 5.3635-6.5157 6.8223-10.285 0.24529-0.63351 0.46273-1.2786 0.66211-1.9316z" fill="url(#f)" stroke-width=".99684"/>
 <path d="m32 47c-2.493 0-4.5 2.007-4.5 4.5s2.007 4.5 4.5 4.5a4.4895 4.4895 0 0 0 4.2188-3h12.562a4.485 4.485 0 0 0 1.998 2.4062c0.83276-0.68204 1.6494-1.4014 2.4375-2.1895 1.3349-1.3349 2.5085-2.7359 3.5391-4.1973-0.80371-1.2174-2.1798-2.0195-3.7539-2.0195a4.4895 4.4895 0 0 0-4.2207 3h-12.562a4.485 4.485 0 0 0-4.2188-3z" fill="#232629" opacity=".2"/>
 <path d="m11 47c-1.5732 0-2.95 0.8014-3.7539 2.0176 1.0309 1.4615 2.2059 2.8622 3.541 4.1973 0.78596 0.78526 1.5969 1.5095 2.4258 2.1895a4.4895 4.4895 0 0 0 2.0059-2.4043h12.562a4.485 4.485 0 0 0 8.7207-1.5c0-2.493-2.007-4.5-4.5-4.5a4.4895 4.4895 0 0 0-4.2207 3h-12.562a4.485 4.485 0 0 0-4.2188-3z" fill="url(#linearGradient14433)" stroke-width=".99684"/>
 <path d="m52.996 47a4.4895 4.4895 0 0 0-4.2188 3h-12.562c0.282 1.5 0.282 1.5 0 3h12.562a4.485 4.485 0 0 0 2 2.4082c0.83351-0.68253 1.6507-1.4027 2.4395-2.1914 1.3338-1.3338 2.5071-2.7333 3.5371-4.1934-0.80336-1.2194-2.1822-2.0234-3.7578-2.0234z" fill="#4d4d4d" opacity=".779"/>
 <path d="m30.5 12v15l-6.75-6.75-2.25 2.25 10.5 10.5 10.5-10.5-2.25-2.25-6.75 6.75v-15z" fill="#000000" filter="url(#filter14632)" opacity=".15"/>
 <path d="m30.5 11v15l-6.75-6.75-2.25 2.25 10.5 10.5 10.5-10.5-2.25-2.25-6.75 6.75v-15z" fill="#fcfcfc"/>
</svg>
