<svg xmlns="http://www.w3.org/2000/svg" width="64" height="64"><defs><filter id="a" width="1.072" height="1.072" x="-.036" y="-.036" color-interpolation-filters="sRGB"><feGaussianBlur stdDeviation="14.17"/></filter><filter id="c" width="1.072" height="1.072" x="-.036" y="-.036" color-interpolation-filters="sRGB"><feGaussianBlur stdDeviation=".755"/></filter><filter id="f" width="1.12" height="1.12" x="-.06" y="-.06" color-interpolation-filters="sRGB"><feGaussianBlur stdDeviation=".5"/></filter><linearGradient id="b" x1="512.4" x2="512.4" y1="39.259" y2="983.95" gradientTransform="translate(-.544 -.493)scale(.06351)" gradientUnits="userSpaceOnUse"><stop offset="0" stop-color="#1abc9c"/><stop offset="1" stop-color="#2980b9"/></linearGradient><linearGradient id="d" x1="512.4" x2="512.4" y1="323.06" y2="1288.9" gradientTransform="translate(-.544 -.493)scale(.06351)" gradientUnits="userSpaceOnUse"><stop offset="0" stop-color="#fff"/><stop offset="1" stop-color="#bdc3c7"/></linearGradient></defs><linearGradient id="e" x1="10" x2="34" y1="10" y2="34" gradientTransform="translate(0 16)" gradientUnits="userSpaceOnUse"><stop offset="0" stop-color="#292c2f"/><stop offset="1" stop-opacity="0"/></linearGradient><path d="M970.43 391.52a515 515 0 0 0-3.653-13.61c-1-3.403-2.001-6.855-3.152-10.508a422 422 0 0 0-5.304-15.862c-6.455-18.263-14.16-36.076-23.167-53.689a475 475 0 0 0-12.309-22.416c-20.315-34.525-45.833-67.249-76.406-97.821-72.653-72.653-157.26-116.74-253.84-132.15a484 484 0 0 0-50.087-5.354c-9.707-.55-19.865-.85-30.122-.85-9.357 0-18.614.25-27.92.75-118.44 6.105-220.46 51.988-306.07 137.6Q40.05 315.96 40.05 511.6c0 130.45 46.134 241.83 138.35 334.04 56.741 56.691 120.64 95.97 191.24 117.64 36.777 11.258 74.855 17.863 114.83 19.965h.4c8.507.45 16.612.7 24.518.7h3.003a583 583 0 0 0 30.122-.8c2.501-.15 4.753-.3 6.955-.45 20.215-1.451 39.929-4.053 58.743-7.706a520 520 0 0 0 23.417-5.154c80.859-20.315 152.26-61.645 214.81-124.19 48.636-48.636 84.462-102.57 107.43-161.92 18.463-47.685 28.67-98.872 30.572-153.61.2-6.054.3-12.259.3-18.514V508.6c-.2-40.68-4.954-79.558-14.31-117.09z" filter="url(#a)" opacity=".25" transform="translate(-.544 -.493)scale(.06351)"/><path fill="url(#b)" d="M61.091 24.373c-.07-.276-.15-.572-.232-.864-.064-.217-.127-.436-.2-.668A28 28 0 0 0 58.069 17c-1.29-2.193-2.911-4.271-4.853-6.213q-6.921-6.923-16.122-8.393a31 31 0 0 0-3.181-.34 34 34 0 0 0-3.687-.006q-11.283.582-19.439 8.74Q2 19.573 2 32c0 8.285 2.93 15.36 8.787 21.216 3.604 3.6 7.663 6.095 12.146 7.472a30.2 30.2 0 0 0 7.294 1.268h.025c.54.028 1.055.044 1.557.044H32c.656 0 1.304-.019 1.914-.05l.442-.03a31 31 0 0 0 3.73-.489 33 33 0 0 0 1.488-.327c5.135-1.29 9.67-3.915 13.643-7.888 3.089-3.089 5.364-6.514 6.823-10.284q1.76-4.542 1.942-9.756.018-.578.019-1.176v-.19a31.2 31.2 0 0 0-.909-7.437z"/><g stroke-width="15.683" filter="url(#c)" opacity=".2" transform="translate(15.898 16.787)scale(.64656)"/><path fill="url(#d)" d="M3.299 41q2.076 6.8 7.488 12.215c3.604 3.6 7.663 6.096 12.146 7.473a30.2 30.2 0 0 0 7.293 1.267h.025a29 29 0 0 0 1.557.045H32c.654 0 1.301-.019 1.912-.05l.443-.03a31 31 0 0 0 3.73-.488 33 33 0 0 0 1.487-.328c5.135-1.29 9.672-3.915 13.645-7.887q4.634-4.632 6.822-10.285.365-.951.662-1.932z"/><path fill="#232629" d="M32 47c-2.493 0-4.5 2.007-4.5 4.5S29.507 56 32 56a4.49 4.49 0 0 0 4.219-3H48.78a4.5 4.5 0 0 0 1.998 2.406 33 33 0 0 0 2.437-2.19 32 32 0 0 0 3.54-4.197A4.48 4.48 0 0 0 53 47a4.49 4.49 0 0 0-4.22 3H36.219A4.485 4.485 0 0 0 32 47" opacity=".2"/><path fill="url(#b)" d="M11 47c-1.573 0-2.95.801-3.754 2.018a32 32 0 0 0 3.541 4.197 33 33 0 0 0 2.426 2.19A4.5 4.5 0 0 0 15.219 53H27.78a4.485 4.485 0 0 0 8.72-1.5A4.49 4.49 0 0 0 32 47a4.49 4.49 0 0 0-4.22 3H15.219A4.485 4.485 0 0 0 11 47"/><path fill="#4d4d4d" d="M52.996 47a4.49 4.49 0 0 0-4.219 3H36.215c.282 1.5.282 1.5 0 3h12.562a4.5 4.5 0 0 0 2 2.408 33 33 0 0 0 2.44-2.191 32 32 0 0 0 3.537-4.194A4.49 4.49 0 0 0 52.996 47" opacity=".779"/><path fill="url(#e)" d="m25 26 15 15v5h4-14l-6-6z" filter="url(#f)" opacity=".2" transform="matrix(1.5 0 0 1.5 -4 -28)"/><path fill="#fcfcfc" d="M30.5 11v15l-6.75-6.75-2.25 2.25L32 32l10.5-10.5-2.25-2.25L33.5 26V11z"/></svg>