<svg width="64" height="64" viewBox="0 0 16.933 16.933" xmlns="http://www.w3.org/2000/svg"><defs><filter id="a" x="-.036" y="-.036" width="1.072" height="1.072" color-interpolation-filters="sRGB"><feGaussianBlur stdDeviation=".238"/></filter><filter id="c" x="-.068" y="-.054" width="1.136" height="1.107" color-interpolation-filters="sRGB"><feGaussianBlur stdDeviation=".2"/></filter><linearGradient id="b" x1="8.466" x2="8.466" y1=".529" y2="16.404" gradientUnits="userSpaceOnUse"><stop stop-color="#ff7712" offset="0"/><stop stop-color="#ff3d62" offset="1"/></linearGradient></defs><g stroke-width="1.111"><circle cx="8.466" cy="8.466" r="7.937" filter="url(#a)" opacity=".15" style="paint-order:stroke markers fill"/><circle cx="8.466" cy="8.466" r="7.937" fill="url(#b)" style="paint-order:stroke markers fill"/><path d="m4.94 4.055.033 5.914s-.034 2.473 2.617 2.994c1.523.3 4.405-.569 4.405-.569V4.056H9.75v6.735H7.504V6.302H6.222l1.603-2.246" filter="url(#c)" opacity=".15"/><path d="m4.94 4.055.033 5.914s-.034 2.473 2.617 2.994c1.523.3 4.405-.569 4.405-.569V4.056H9.75v6.735H7.504V6.302H6.222l1.603-2.246" fill="#fff"/></g></svg>