<svg width="64" height="64" enable-background="new 0 0 1024 1024" image-rendering="optimizeSpeed" xmlns="http://www.w3.org/2000/svg"><defs><linearGradient id="a" x1="520" x2="520" y1="44" y2="984" gradientUnits="userSpaceOnUse"><stop stop-color="#76dd10" offset="0"/><stop stop-color="#46a926" offset="1"/></linearGradient><linearGradient id="c" x1="520.53" x2="505.45" y1="-158.63" y2="1331.3" gradientTransform="translate(-.876 .128) scale(1.0007)" gradientUnits="userSpaceOnUse"><stop stop-color="#a6d74f" offset="0"/><stop stop-color="#46a926" offset="1"/></linearGradient><linearGradient id="f" x1="520.03" x2="520.03" y1="283.11" y2="825.22" gradientTransform="translate(-131.47 -142.43) scale(1.2524)" gradientUnits="userSpaceOnUse"><stop stop-color="#fff" offset="0"/><stop stop-color="#d7d7d7" offset="1"/></linearGradient><linearGradient id="d" x1="520.03" x2="520.03" y1="2.008" y2="1026" gradientUnits="userSpaceOnUse"><stop stop-color="#08e537" offset="0"/><stop stop-color="#07cb37" offset="1"/></linearGradient><filter id="e" x="-.036" y="-.036" width="1.072" height="1.072" color-interpolation-filters="sRGB"><feGaussianBlur stdDeviation="7.529"/></filter><filter id="b" x="-.036" y="-.036" width="1.072" height="1.072" color-interpolation-filters="sRGB"><feGaussianBlur stdDeviation="14.17"/></filter></defs><g transform="matrix(.06351 0 0 .06351 -.487 -.55)" fill="url(#a)" stroke-width="15.683"><g stroke-width="15.695"><path d="M969.53 392.41a514.995 514.995 0 0 0-3.653-13.61c-2.501-8.756-5.354-17.613-8.456-26.369-6.455-18.263-14.16-36.076-23.167-53.689a475.424 475.424 0 0 0-12.309-22.416c-20.315-34.525-45.833-67.249-76.406-97.821-72.653-72.653-157.26-116.74-253.84-132.15a484.051 484.051 0 0 0-50.087-5.354c-9.707-.55-19.865-.85-30.122-.85-9.357 0-18.614.25-27.92.75-118.44 6.105-220.46 51.988-306.07 137.6Q39.15 316.851 39.15 512.491c0 130.45 46.134 241.83 138.35 334.04 85.613 85.563 187.64 131.45 306.07 137.6h.4c8.507.45 16.612.7 24.518.7h3.003c10.308 0 20.515-.3 30.122-.8 2.501-.15 4.753-.3 6.955-.45 20.215-1.451 39.929-4.053 58.743-7.706a519.961 519.961 0 0 0 23.417-5.154c80.859-20.315 152.26-61.645 214.81-124.19 48.636-48.636 84.462-102.57 107.43-161.92 18.463-47.685 28.67-98.872 30.572-153.61.2-6.054.3-12.259.3-18.514v-3.002c-.2-40.68-4.954-79.558-14.31-117.09z" fill="#000" filter="url(#b)" opacity=".25"/><path d="M969.53 392.41a514.995 514.995 0 0 0-3.653-13.61c-2.501-8.756-5.354-17.613-8.456-26.369-6.455-18.263-14.16-36.076-23.167-53.689a475.424 475.424 0 0 0-12.309-22.416c-20.315-34.525-45.833-67.249-76.406-97.821-72.653-72.653-157.26-116.74-253.84-132.15a484.051 484.051 0 0 0-50.087-5.354c-9.707-.55-19.865-.85-30.122-.85-9.357 0-18.614.25-27.92.75-118.44 6.105-220.46 51.988-306.07 137.6Q39.15 316.851 39.15 512.491c0 130.45 46.134 241.83 138.35 334.04 85.613 85.563 187.64 131.45 306.07 137.6h.4c8.507.45 16.612.7 24.518.7h3.003a583.3 583.3 0 0 0 30.122-.8c2.501-.15 4.753-.3 6.955-.45 20.215-1.451 39.929-4.053 58.743-7.706a519.823 519.823 0 0 0 23.417-5.154c80.859-20.315 152.26-61.645 214.81-124.19 48.636-48.636 84.462-102.57 107.43-161.92 18.463-47.685 28.67-98.872 30.572-153.61.2-6.054.3-12.259.3-18.514v-3.002c-.2-40.68-4.954-79.558-14.31-117.09z" fill="url(#c)"/><path d="M969.53 392.41a514.995 514.995 0 0 0-3.653-13.61c-2.501-8.756-5.354-17.613-8.456-26.369-6.455-18.263-14.16-36.076-23.167-53.689a475.424 475.424 0 0 0-12.309-22.416c-20.315-34.525-45.833-67.249-76.406-97.821-72.653-72.653-157.26-116.74-253.84-132.15a484.051 484.051 0 0 0-50.087-5.354c-9.707-.55-19.865-.85-30.122-.85-9.357 0-18.614.25-27.92.75-118.44 6.105-220.46 51.988-306.07 137.6Q39.15 316.851 39.15 512.491c0 130.45 46.134 241.83 138.35 334.04 85.613 85.563 187.64 131.45 306.07 137.6h.4c8.507.45 16.612.7 24.518.7h3.003c10.308 0 20.515-.3 30.122-.8 2.501-.15 4.753-.3 6.955-.45 20.215-1.451 39.929-4.053 58.743-7.706a519.961 519.961 0 0 0 23.417-5.154c80.859-20.315 152.26-61.645 214.81-124.19 48.636-48.636 84.462-102.57 107.43-161.92 18.463-47.685 28.67-98.872 30.572-153.61.2-6.054.3-12.259.3-18.514v-3.002c-.2-40.68-4.954-79.558-14.31-117.09z" fill="url(#d)" opacity=".2"/></g><path d="M509.76 281.05c-139.18 0-250.98 111.8-250.98 250.98s111.8 250.98 250.98 250.98 250.98-111.8 250.98-250.98-111.8-250.98-250.98-250.98zm110.66 293.19L517.75 676.91c-2.282 2.282-5.704 3.422-7.986 3.422-3.422 0-5.704-1.14-7.985-3.422l-102.67-102.67c-2.282-2.282-3.423-4.563-3.423-7.986s1.14-5.704 3.422-7.985l15.971-15.972c4.564-4.564 11.408-4.564 15.971 0l45.633 45.633c3.423 3.422 10.267 1.14 10.267-4.564v-188.24c0-6.845 4.564-11.408 11.408-11.408h22.816c6.845 0 11.408 4.564 11.408 11.408v189.38c0 4.564 5.705 7.986 10.267 4.564l45.633-45.633c4.564-4.564 11.409-4.564 15.972 0l15.97 15.97c2.282 2.282 3.423 4.564 3.423 7.986 0 2.282-1.14 4.564-3.422 6.845z" fill="#000" filter="url(#e)" opacity=".15"/><path d="M509.76 271.01c-139.18 0-250.98 111.8-250.98 250.98s111.8 250.98 250.98 250.98 250.98-111.8 250.98-250.98-111.8-250.98-250.98-250.98zM620.42 564.2 517.75 666.87c-2.282 2.282-5.704 3.422-7.986 3.422-3.422 0-5.704-1.14-7.985-3.422L399.108 564.2c-2.282-2.282-3.423-4.563-3.423-7.986s1.14-5.704 3.422-7.985l15.971-15.972c4.564-4.564 11.408-4.564 15.971 0l45.633 45.633c3.423 3.422 10.267 1.14 10.267-4.564v-188.24c0-6.845 4.564-11.408 11.408-11.408h22.816c6.845 0 11.408 4.564 11.408 11.408v189.38c0 4.564 5.705 7.986 10.267 4.564l45.633-45.633c4.564-4.564 11.409-4.564 15.972 0l15.97 15.97c2.282 2.282 3.423 4.564 3.423 7.986 0 2.282-1.14 4.564-3.422 6.845z" fill="url(#f)"/></g></svg>