<svg xmlns="http://www.w3.org/2000/svg" width="64" height="64"><defs><filter id="a" width="1.072" height="1.072" x="-.036" y="-.036" color-interpolation-filters="sRGB"><feGaussianBlur stdDeviation=".89"/></filter><filter id="c" width="1.235" height="1.189" x="-.103" y="-.068"><feOffset dy="1" in="SourceAlpha" result="shadowOffsetOuter1"/><feGaussianBlur in="shadowOffsetOuter1" result="shadowBlurOuter1" stdDeviation="1"/><feComposite in="shadowBlurOuter1" in2="SourceAlpha" operator="out" result="shadowBlurOuter1"/><feColorMatrix in="shadowBlurOuter1" result="shadowMatrixOuter1" values="0 0 0 0 0 0 0 0 0 0 0 0 0 0 0 0 0 0 0.2 0"/><feMerge><feMergeNode in="shadowMatrixOuter1"/><feMergeNode in="SourceGraphic"/></feMerge></filter><linearGradient id="b" x1="408.25" x2="407.94" y1="547.6" y2="498.89" gradientTransform="translate(-510.64 -663.52)scale(1.3276)" gradientUnits="userSpaceOnUse"><stop offset="0" stop-color="#fff"/><stop offset="1" stop-color="#e6e6e6"/></linearGradient></defs><rect width="59.315" height="59.315" x="386.85" y="486.31" filter="url(#a)" opacity=".25" ry="29.657" transform="translate(-389.32 -489.92)scale(1.0115)"/><rect width="59.997" height="59.997" x="1.983" y="1.978" fill="url(#b)" ry="29.998"/><g fill="none"><path fill="#599ccd" d="M38.952 31.996V17.022l9.001-3.81v19.4c0 2.34-9 2.611-9-.62z"/><path fill="#7ec183" d="M31.377 48.897c-2.816 0-5.253-.393-7.302-1.179s-2.629-2.262-3.907-3.615c-.686-.722 5.709.423 9.97-.506 4.09-.845 6.062-3.642 6.743-4.308 1.38-1.348 2.066-3.638 2.066-6.869V18.59c3.712 1.436 8.397 6.336 9.002 11.658v2.788q0 3.51-.984 6.438c-.984 2.928-1.663 3.628-3.013 5.022-1.356 1.398-3.071 2.48-5.16 3.243-2.087.77-4.557 1.148-7.42 1.148z"/><path fill="#4675ab" d="M36.528 40.132c-.851 1.605-4.771 6.421-12.27 7.18l-1.082.028c-1.648-.746-3.041-1.71-4.17-2.896q-2.001-2.095-2.953-4.997-.96-2.904-.959-6.408v-5.436l9.002-3.967v8.787q-.001 2.428.554 4.128c.366 1.136.873 2.056 1.517 2.77a5.37 5.37 0 0 0 2.33 1.529q1.369.461 3 .46 3.317-.001 5.39-2.023l-.355.845z"/><g filter="url(#c)" transform="translate(14.528 12.499)"><path fill="#599ccd" d="M24.425 19.497V4.523l9-3.81v19.4c0 2.34-9 2.611-9-.62z"/><path fill="#7ec183" d="M16.85 36.399q-4.227 0-7.303-1.18c-3.076-1.18-2.629-2.262-3.907-3.615-.685-.722 5.71.423 9.97-.506 4.09-.845 6.063-3.642 6.744-4.308 1.38-1.348 2.065-3.637 2.065-6.869V6.091c3.712 1.436 8.397 6.336 9.002 11.658v2.789q0 3.51-.984 6.437c-.984 2.927-1.662 3.628-3.012 5.022-1.356 1.398-3.072 2.48-5.16 3.244-2.087.77-4.558 1.147-7.421 1.147z"/><path fill="#4675ab" d="M22 27.633c-.85 1.605-4.77 6.422-12.269 7.18l-1.082.028q-2.476-1.118-4.171-2.895-2-2.096-2.953-4.998-.958-2.903-.958-6.408v-5.436l9.001-3.966v8.786q0 2.428.554 4.128c.366 1.136.874 2.056 1.517 2.77a5.37 5.37 0 0 0 2.33 1.529q1.37.462 3 .461 3.318-.002 5.39-2.023l-.355.844z"/></g></g></svg>