<svg xmlns="http://www.w3.org/2000/svg" width="64" height="64"><defs><linearGradient id="e" x1="28.621" x2="41.413" y1="19.562" y2="31.844" gradientUnits="userSpaceOnUse"><stop offset="0" stop-color="#eceff4"/><stop offset="1" stop-color="#404040"/></linearGradient><linearGradient id="c" x1="36.098" x2="32.396" y1="46.81" y2="28.042" gradientUnits="userSpaceOnUse"><stop offset="0" stop-color="#404040"/><stop offset="1" stop-color="#6a6a6a"/></linearGradient><linearGradient id="d" x1="24.421" x2="15.521" y1="28.473" y2="46.666" gradientUnits="userSpaceOnUse"><stop offset="0" stop-color="#f4f4f4" stop-opacity="0"/><stop offset="1" stop-color="#e8e8e9"/></linearGradient><linearGradient id="b" x1="7.937" x2="7.937" y1="15.081" y2="1.852" gradientTransform="translate(-2.286 -2.252)scale(4.0494)" gradientUnits="userSpaceOnUse"><stop offset="0" stop-color="#f1efeb"/><stop offset="1" stop-color="#fdfcfc"/></linearGradient><filter id="a" width="1.078" height="1.078" x="-.039" y="-.039" color-interpolation-filters="sRGB"><feGaussianBlur stdDeviation=".972"/></filter></defs><rect width="60" height="60" x="2" y="2" filter="url(#a)" opacity=".35" rx="30" ry="30"/><rect width="60" height="60" x="2" y="2" fill="url(#b)" rx="30" ry="30"/><path fill="url(#c)" d="m30.655 13-15.438 8.868 16.861 9.737 16.706-9.737L33.504 13v6.81l6.018 3.482c.238.079.238.476 0 .635l-7.125 4.115c-.238.08-.477.08-.635 0l-7.125-4.115c-.238-.08-.238-.477 0-.635l6.018-3.483zm18.13 8.868-16.706 9.739-16.861-9.739v17.655l5.857-3.405v-6.887c0-.237.316-.397.475-.318l7.127 4.117c.238.08.316.316.316.633v8.235c.159.237-.159.395-.396.316l-6.018-3.482-5.857 3.402 15.357 8.868 15.28-8.868-5.858-3.402-6.018 3.562c-.237.159-.474-.08-.474-.318v-8.233c0-.237.158-.474.316-.633l7.125-4.117c.238-.158.477.079.477.316v6.887l5.857 3.405z" transform="translate(0 -.001)"/><path fill="url(#d)" d="m28.596 42.213-6.017-3.483-5.858 3.404L32.079 51V31.605l-16.863-9.738v17.654-.079.08l5.859-3.405V29.23c0-.238.316-.396.475-.317l7.125 4.117c.237.079.316.316.316.633v8.233c.159.238-.158.396-.395.317" class="st1" opacity=".1" transform="translate(0 -.001)"/><path fill="url(#e)" d="M33.504 13v6.808l6.017 3.484c.237.079.237.475 0 .633l-7.125 4.117c-.238.079-.475.079-.634 0l-7.125-4.117c-.237-.08-.237-.475 0-.633l6.017-3.484V13l-15.438 8.867 16.863 9.737 16.704-9.737z" class="st0" opacity=".2" transform="translate(0 -.001)"/></svg>