<svg xmlns="http://www.w3.org/2000/svg" width="64" height="64" viewBox="0 0 16.933 16.933"><defs><linearGradient id="b" x1="7.937" x2="7.937" y1="15.081" y2="1.852" gradientTransform="matrix(.96425 0 0 .9641 .302 .313)" gradientUnits="userSpaceOnUse"><stop offset="0" stop-color="#4791ce"/><stop offset="1" stop-color="#87bdff"/></linearGradient><filter id="a" width="1.054" height="1.054" x="-.027" y="-.027" color-interpolation-filters="sRGB"><feGaussianBlur stdDeviation=".675"/></filter></defs><rect width="60" height="60" x="2" y="3" filter="url(#a)" opacity=".15" rx="30" ry="30" transform="scale(.26458)"/><rect width="15.875" height="15.875" x=".529" y=".529" fill="#304059" rx="7.937" ry="7.937"/><path fill="url(#b)" d="M8.997 1.345v14.227a7.144 7.144 0 0 0 6.613-7.105 7.144 7.144 0 0 0-6.613-7.122m-1.06.016a7.144 7.144 0 0 0-6.614 7.106 7.144 7.144 0 0 0 6.614 7.105V1.36z"/><path fill="#87bdff" d="M7.937 1.36a7.144 7.144 0 0 0-6.614 7.107 7.144 7.144 0 0 0 6.614 7.105z"/><path fill="#4791ce" d="M7.937 1.36a7.1 7.1 0 0 0-2.148.5v.829H4.295a7 7 0 0 0-.798.67v1.623H5.79v2.293H3.497v2.293H5.79v2.293H3.497v1.713a7 7 0 0 0 .678.58h1.614v.92a7.1 7.1 0 0 0 2.148.498v-1.418H5.79v-2.293h2.147V9.568H5.79V7.275h2.147V4.98H5.79V2.688h2.147zM2.251 4.982a7.1 7.1 0 0 0-.817 2.294h2.062V4.98H2.251zm-.837 4.587a7.1 7.1 0 0 0 .787 2.293h1.295V9.568H1.414z" style="paint-order:stroke fill markers"/><circle cx="8.466" cy="8.466" r="1.587" fill="#304059" fill-rule="evenodd" style="paint-order:stroke fill markers"/><path fill="#87bdff" d="M8.07 7.937v1.059l-.794-.53zm.793 0v1.059l.794-.53z"/></svg>