<svg width="64" height="64" version="1.1" xmlns="http://www.w3.org/2000/svg" xmlns:xlink="http://www.w3.org/1999/xlink">
 <defs>
  <linearGradient id="f" x1="451.02" x2="451.02" y1="544.15" y2="543.09" gradientTransform="matrix(.5054 0 0 1 229.15 2.167)" gradientUnits="userSpaceOnUse">
   <stop stop-color="#f1d619" offset="0"/>
   <stop stop-color="#fa6c20" offset="1"/>
  </linearGradient>
  <filter id="filter25" x="-.029663" y="-.029663" width="1.0593" height="1.0593" color-interpolation-filters="sRGB">
   <feGaussianBlur stdDeviation="0.29776566"/>
  </filter>
  <filter id="filter26" x="-.013853" y="-.013853" width="1.0277" height="1.0277" color-interpolation-filters="sRGB">
   <feGaussianBlur stdDeviation="0.29776566"/>
  </filter>
  <linearGradient id="i" x1="45" x2="49" y1="47" y2="47" gradientUnits="userSpaceOnUse" xlink:href="#b-3"/>
  <linearGradient id="b-3" x1="467.17" x2="467.17" y1="546.85" y2="544.72" gradientTransform="matrix(1.8844,0,0,1.8844,-864.23,-981.74)" gradientUnits="userSpaceOnUse">
   <stop stop-color="#040404" offset="0"/>
   <stop stop-color="#121212" stop-opacity=".908" offset="1"/>
  </linearGradient>
  <linearGradient id="g-9" x1="3" x2="45" y1="42" y2="42" gradientTransform="translate(8,5)" gradientUnits="userSpaceOnUse">
   <stop stop-color="#1a1a1a" offset="0"/>
   <stop stop-color="#2c2c2e" offset=".111"/>
   <stop stop-color="#2b2b2d" offset=".29"/>
   <stop stop-color="#2a2b2d" offset=".512"/>
   <stop stop-color="#2b2b2d" offset=".752"/>
   <stop stop-color="#323232" offset=".897"/>
   <stop stop-color="#171717" offset="1"/>
  </linearGradient>
  <linearGradient id="f-6" x1="26" x2="26" y1="35" y2="7" gradientTransform="translate(8,5)" gradientUnits="userSpaceOnUse">
   <stop stop-color="#b6b9bf" offset="0"/>
   <stop stop-color="#dddfe2" offset="1"/>
  </linearGradient>
  <filter id="e-0" x="-.058664" y="-.061429" width="1.1173" height="1.1229" color-interpolation-filters="sRGB">
   <feGaussianBlur stdDeviation="1.075"/>
  </filter>
  <linearGradient id="d-6" x1="-39.605" x2="-39.605" y1="58.247" y2="6.988" gradientTransform="translate(70.543 .42)" gradientUnits="userSpaceOnUse">
   <stop stop-color="#4d4d4d" offset="0"/>
   <stop stop-color="gray" offset="1"/>
  </linearGradient>
  <filter id="c-3" x="-.03888" y="-.03888" width="1.0778" height="1.0778" color-interpolation-filters="sRGB">
   <feGaussianBlur stdDeviation=".972"/>
  </filter>
  <linearGradient id="linearGradient19" x1="467.17" x2="467.17" y1="546.85" y2="544.72" gradientTransform="matrix(1.8844,0,0,1.8844,-864.23,-981.74)" gradientUnits="userSpaceOnUse" xlink:href="#b-3"/>
  <linearGradient id="linearGradient24" x1="-414.02" x2="-374.93" y1="45.833" y2="45.833" gradientTransform="matrix(.5054 0 0 1 229.15 2.167)" gradientUnits="userSpaceOnUse" xlink:href="#f"/>
  <linearGradient id="linearGradient25" x1="-360.41" x2="-356.45" y1="46.833" y2="42.833" gradientTransform="matrix(.5054 0 0 1 229.15 2.167)" gradientUnits="userSpaceOnUse" xlink:href="#f"/>
 </defs>
 <circle cx="32" cy="32" r="30" filter="url(#c-3)" opacity=".15" style="isolation:isolate;paint-order:stroke fill markers"/>
 <circle cx="32" cy="32" r="30" fill="url(#d-6)" style="isolation:isolate;paint-order:stroke fill markers"/>
 <path d="m20.507 11c-2.894 0-4.79 2.156-5.224 4.768l-5.221 31.465c-0.065 0.388-0.051 0.766 0.016 1.129 0.192 2.598 2.439 4.638 5.205 4.638h33.432c2.66 0 4.84-1.887 5.175-4.344 0.122-0.45 0.147-0.929 0.049-1.423l-6.269-31.465c-0.517-2.599-2.33-4.768-5.223-4.768z" filter="url(#e-0)" opacity=".15"/>
 <path d="m21 10h21c2.77 0 4.505 2.169 5 4.767l6 31.465c0.496 2.599-2.23 4.768-5 4.768h-31.998c-2.77 0-5.415-2.156-5-4.768l4.998-31.465c0.415-2.611 2.23-4.767 5-4.767z" fill="url(#f-6)"/>
 <rect x="11" y="42" width="42" height="10" ry="5" fill="url(#g-9)"/>
 <rect x="20" y="46" width="20" height="2" ry="1" fill="url(#linearGradient24)"/>
 <circle cx="15.997" cy="47" r="2" fill="url(#linearGradient19)" opacity=".452"/>
 <path d="m16 46.075a0.143 0.143 0 0 0-0.105 0.045 0.138 0.138 0 0 0-0.043 0.103v0.745c0 0.04 0.013 0.074 0.043 0.103s0.065 0.045 0.105 0.045a0.14 0.14 0 0 0 0.104-0.045 0.142 0.142 0 0 0 0.044-0.103v-0.745a0.142 0.142 0 0 0-0.044-0.103 0.144 0.144 0 0 0-0.104-0.045zm-0.428 0.219c-0.04 0-0.076 0-0.11 0.03a0.87 0.87 0 0 0-0.357 0.71c0 0.12 0.026 0.236 0.073 0.346s0.11 0.205 0.19 0.285a0.908 0.908 0 0 0 0.63 0.26c0.12 0 0.236-0.024 0.346-0.07a0.869 0.869 0 0 0 0.474-0.475 0.88 0.88 0 0 0-0.285-1.057 0.143 0.143 0 0 0-0.111-0.03c-0.041 0-0.074 0.025-0.098 0.057a0.14 0.14 0 0 0-0.027 0.11c6e-3 0.04 0.024 0.074 0.057 0.1a0.592 0.592 0 0 1-0.586 1.02 0.587 0.587 0 0 1-0.319-0.316 0.588 0.588 0 0 1 0.191-0.705 0.15 0.15 0 0 0 0.06-0.1 0.141 0.141 0 0 0-0.03-0.109 0.134 0.134 0 0 0-0.098-0.056z" fill="#ffffff"/>
 <path d="m16 42c-2.77 0-5 2.23-5 5 0 0.059 6e-3 0.116 8e-3 0.174a4.724 4.724 0 0 1 4.732-4.652h32.52a4.724 4.724 0 0 1 4.733 4.652c2e-3 -0.058 7e-3 -0.115 7e-3 -0.174 0-2.77-2.23-5-5-5zm22.398-22.722-2.803-4e-3a0.457 0.457 0 0 0-0.284 0.094 0.297 0.297 0 0 0-0.119 0.229l-4e-3 2.26c0 0.178 0.179 0.323 0.401 0.323h0.39l-3e-3 1.722-2.971 1.605 0.013-6.577 1.034 1e-3a0.34 0.34 0 0 0 0.271-0.122 0.214 0.214 0 0 0 0.011-0.25l-2.037-3.183a0.335 0.335 0 0 0-0.282-0.139 0.334 0.334 0 0 0-0.282 0.138l-2.052 3.177a0.214 0.214 0 0 0 0.01 0.25 0.34 0.34 0 0 0 0.271 0.124l1.034 1e-3 -0.019 9.11-3.198-1.742 3e-3 -1.366c0.496-0.264 0.824-0.716 0.825-1.23 3e-3 -0.817-0.817-1.48-1.831-1.481-1.013-2e-3 -1.834 0.659-1.837 1.475-1e-3 0.515 0.326 0.968 0.821 1.234l-4e-3 1.8c0 0.27 0.166 0.524 0.446 0.676l4.771 2.597-6e-3 2.809c-0.673 0.29-1.136 0.856-1.138 1.515-1e-3 0.954 0.956 1.73 2.141 1.732 1.186 1e-3 2.148-0.771 2.15-1.726 1e-3 -0.659-0.46-1.225-1.131-1.518l0.011-5.341 4.549-2.457c0.054-0.03 0.105-0.064 0.15-0.1a0.745 0.745 0 0 0 0.298-0.576l3e-3 -2.154h0.391a0.457 0.457 0 0 0 0.284-0.095 0.297 0.297 0 0 0 0.119-0.229l4e-3 -2.258c0-0.18-0.179-0.324-0.401-0.324z" opacity=".15"/>
 <circle cx="47" cy="47" r="2" fill="url(#i)" style="paint-order:stroke fill markers"/>
 <circle cx="47" cy="47" r="1" fill="url(#linearGradient25)"/>
 <path d="m10.787 10.787c-11.752 11.752-11.752 30.674 0 42.426 0.11855 0.11855 0.24184 0.22911 0.36184 0.34527-11.399-11.775-11.288-30.431 0.34527-42.065 11.634-11.634 30.289-11.744 42.065-0.34527-0.11616-0.12-0.22671-0.24329-0.34527-0.36184-11.752-11.752-30.674-11.752-42.426 0z" fill="#ffffff" filter="url(#filter26)" opacity=".35"/>
 <path d="m37.435 61.526c5.7718-1.0635 11.297-3.831 15.779-8.3126s7.2491-10.007 8.3126-15.779c-1.5917 5.4332-4.6056 10.657-9.0198 15.072s-9.6384 7.428-15.072 9.0198z" fill="#ffffff" filter="url(#filter25)" opacity=".35"/>
</svg>
