<svg xmlns="http://www.w3.org/2000/svg" width="64" height="64"><defs><filter id="a" width="1.072" height="1.072" x="-.036" y="-.036" color-interpolation-filters="sRGB"><feGaussianBlur stdDeviation=".42"/></filter><filter id="c" width="1.185" height="1.045" x="-.092" y="-.022" color-interpolation-filters="sRGB"><feGaussianBlur stdDeviation=".307"/></filter><linearGradient id="b" x1="399.99" x2="399.99" y1="545.14" y2="518.14" gradientTransform="translate(-826.36 -1107.5) scale(2.1429)" gradientUnits="userSpaceOnUse"><stop offset="0" stop-color="#197ff1"/><stop offset="1" stop-color="#21c6fb"/></linearGradient></defs><circle cx="400.57" cy="531.8" r="14" filter="url(#a)" opacity=".25" transform="translate(-826.36 -1107.5) scale(2.1429)"/><g stroke-width="1.571" transform="translate(-.02 -.044)"><circle cx="32.02" cy="32.044" r="30.001" fill="url(#b)"/><circle cx="32.02" cy="32.044" r="30.001" fill="none"/></g><path fill-opacity=".852" d="M32.002 16a4 4 0 1 0-.003 7.999A4 4 0 0 0 32.002 16zm0 11C29.66 27 28 28.826 28 31.074v13.854c0 2.25 1.66 4.073 4.002 4.073C34.342 49 36 47.178 36 44.928V31.074C36 28.824 34.343 27 32.002 27z" filter="url(#c)" opacity=".15"/><path fill="#fff" fill-opacity=".852" d="M32.002 16a4 4 0 1 0-.003 7.999A4 4 0 0 0 32.002 16zm0 11C29.66 27 28 28.826 28 31.074v13.854c0 2.25 1.66 4.073 4.002 4.073C34.342 49 36 47.178 36 44.928V31.074C36 28.824 34.343 27 32.002 27z"/></svg>