<svg xmlns="http://www.w3.org/2000/svg" width="64" height="64" enable-background="new 0 0 1024 1024" image-rendering="optimizeSpeed"><defs><linearGradient id="b" x1="520" x2="520" y1="4" y2="1024" gradientUnits="userSpaceOnUse"><stop offset="0" stop-color="#030303"/><stop offset="1" stop-color="#42507e"/></linearGradient><linearGradient id="c" x1="540.11" x2="540.11" y1="2.008" y2="1026" gradientUnits="userSpaceOnUse"><stop offset="0" stop-color="#262d44"/><stop offset="1" stop-color="#262d44"/></linearGradient><linearGradient id="e" x1="558.02" x2="537.94" y1="1036.3" y2="92.612" gradientUnits="userSpaceOnUse"><stop offset="0" stop-color="#1f2435"/><stop offset="1" stop-color="#1f2435" stop-opacity="0"/></linearGradient><linearGradient id="i" x1="31.926" x2="31.618" y1="26.908" y2="39.216" gradientUnits="userSpaceOnUse"><stop offset="0" stop-color="#fff"/><stop offset="1" stop-color="#d0d0d0"/></linearGradient><linearGradient id="g" x1="33.569" x2="38.583" y1="19.695" y2="21.627" gradientUnits="userSpaceOnUse"><stop offset="0" stop-color="#f4f4f4"/><stop offset="1" stop-color="#bfbfbf"/></linearGradient><linearGradient id="d" x1="7.9" x2="56.17" y1="19.867" y2="19.867" gradientUnits="userSpaceOnUse"><stop offset="0" stop-color="#5b6bdb"/><stop offset="1" stop-color="#5bdb73"/></linearGradient><filter id="a" width="1.072" height="1.072" x="-.036" y="-.036" color-interpolation-filters="sRGB"><feGaussianBlur stdDeviation="14.16"/></filter><filter id="h" width="1.12" height="1.12" x="-.06" y="-.06" color-interpolation-filters="sRGB"><feGaussianBlur stdDeviation=".304"/></filter><filter id="f" width="1.124" height="1.051" x="-.062" y="-.025" color-interpolation-filters="sRGB"><feGaussianBlur stdDeviation=".301"/></filter></defs><g stroke-width="15.683"><path d="M849.15 181.65c-1.1-1.15-2.2-2.25-3.3-3.35-34.35-34.35-71.3-62.25-110.9-83.75-6.7-3.65-13.45-7.1-20.65-10.55-35.05-16.75-72.5-28.85-111.9-36-3.1-.55-6.2-1.1-9.35-1.6-.3-.05-.6-.1-.85-.15-4.2-.65-8.4-1.25-12.75-1.85-4.05-.5-8.2-1-12.4-1.45-3.6-.4-7.2-.75-11-1.05-4.45-.4-9.15-.75-13.9-1-.45-.05-.85-.05-1.3-.05-9.5-.55-19.1-.8-28.8-.8-9.35 0-18.6.25-27.9.75l-5.1.3c-3.65.2-7.3.45-11 .8-6.1.5-12.2 1.1-18.25 1.85-1.8.2-3.55.4-5.2.65-43.6 5.75-84.7 17.2-123.3 34.35-3.85 1.7-7.7 3.45-11.55 5.3-47.5 22.65-91.25 54.05-131.45 94.25l-1.55 1.55c-.65.65-1.25 1.25-1.85 1.9-40.45 41.15-71.75 86.05-94 134.75-7.85 17.15-14.5 34.6-20.05 52.5q-20.8 67.2-20.8 143.05c0 128.75 44.95 238.9 134.85 330.4l3.4 3.4c3.45 3.45 6.9 6.8 10.1 9.85 37.8 35.8 78.35 63.95 121.35 84.4a729.6 729.6 0 0 0 11.55 5.3c5.55 2.45 10.8 4.65 16.1 6.75 6.45 2.6 12.6 4.85 18.8 6.95 28.6 9.8 58.2 16.7 88.4 20.65 1.9.25 3.55.45 5.2.65 11.5 1.4 22.85 2.35 34.35 2.95h.4c8.5.45 16.6.7 24.5.7h3c9.75 0 19.35-.25 28.8-.7.45-.05.85-.05 1.3-.1 2.5-.15 4.75-.3 6.95-.45 10.3-.75 20.45-1.75 30.35-3.05 7.8-1.05 15.45-2.25 22.95-3.6 1.9-.35 3.65-.7 5.4-1.05 7.95-1.55 15.8-3.3 23.4-5.15 28.9-7.25 56.6-17.2 83.1-29.75 7-3.4 13.85-6.9 20.65-10.55 25.2-13.7 49.35-30 72.4-48.85 13.25-10.9 26.05-22.5 38.5-34.95l3.3-3.3c.65-.65 1.25-1.3 1.9-1.95 22.6-23.25 42.2-47.5 58.9-72.9 17.55-26.55 31.95-54.45 43.25-83.65 3.95-10.25 7.55-20.65 10.75-31.15 11.7-38.65 18.3-79.4 19.8-122.35.2-6.05.3-12.25.3-18.5v-3c-.2-40.65-4.95-79.5-14.3-117-1.1-4.35-2.35-9-3.65-13.6-2.25-7.85-4.75-15.8-7.55-23.8-.3-.75-.6-1.65-.9-2.55a431 431 0 0 0-14.4-35.6c-2.7-5.95-5.65-12-8.75-18.05-3.8-7.4-7.95-14.95-12.3-22.4-17.95-30.55-40.05-59.7-66.5-87.65-1.45-1.5-3.05-3.15-4.65-4.8-.65-.65-1.25-1.3-1.9-1.95z" filter="url(#a)" opacity=".25" transform="translate(-.546 -.546) scale(.06356)"/><path fill="url(#b)" d="M849.15 181.65c-1.1-1.15-2.2-2.25-3.3-3.35-34.35-34.35-71.3-62.25-110.9-83.75-6.7-3.65-13.45-7.1-20.65-10.55-35.05-16.75-72.5-28.85-111.9-36-3.1-.55-6.2-1.1-9.35-1.6-.3-.05-.6-.1-.85-.15-4.2-.65-8.4-1.25-12.75-1.85-4.05-.5-8.2-1-12.4-1.45-3.6-.4-7.2-.75-11-1.05-4.45-.4-9.15-.75-13.9-1-.45-.05-.85-.05-1.3-.05-9.5-.55-19.1-.8-28.8-.8-9.35 0-18.6.25-27.9.75l-5.1.3c-3.65.2-7.3.45-11 .8-6.1.5-12.2 1.1-18.25 1.85-1.8.2-3.55.4-5.2.65-43.6 5.75-84.7 17.2-123.3 34.35-3.85 1.7-7.7 3.45-11.55 5.3-47.5 22.65-91.25 54.05-131.45 94.25l-1.55 1.55c-.65.65-1.25 1.25-1.85 1.9-40.45 41.15-71.75 86.05-94 134.75-7.85 17.15-14.5 34.6-20.05 52.5q-20.8 67.2-20.8 143.05c0 128.75 44.95 238.9 134.85 330.4l3.4 3.4c3.45 3.45 6.9 6.8 10.1 9.85 37.8 35.8 78.35 63.95 121.35 84.4a729.6 729.6 0 0 0 11.55 5.3c5.55 2.45 10.8 4.65 16.1 6.75 6.45 2.6 12.6 4.85 18.8 6.95 28.6 9.8 58.2 16.7 88.4 20.65 1.9.25 3.55.45 5.2.65 11.5 1.4 22.85 2.35 34.35 2.95h.4c8.5.45 16.6.7 24.5.7h3c9.75 0 19.35-.25 28.8-.7.45-.05.85-.05 1.3-.1 2.5-.15 4.75-.3 6.95-.45 10.3-.75 20.45-1.75 30.35-3.05 7.8-1.05 15.45-2.25 22.95-3.6 1.9-.35 3.65-.7 5.4-1.05 7.95-1.55 15.8-3.3 23.4-5.15 28.9-7.25 56.6-17.2 83.1-29.75 7-3.4 13.85-6.9 20.65-10.55 25.2-13.7 49.35-30 72.4-48.85 13.25-10.9 26.05-22.5 38.5-34.95l3.3-3.3c.65-.65 1.25-1.3 1.9-1.95 22.6-23.25 42.2-47.5 58.9-72.9 17.55-26.55 31.95-54.45 43.25-83.65 3.95-10.25 7.55-20.65 10.75-31.15 11.7-38.65 18.3-79.4 19.8-122.35.2-6.05.3-12.25.3-18.5v-3c-.2-40.65-4.95-79.5-14.3-117-1.1-4.35-2.35-9-3.65-13.6-2.25-7.85-4.75-15.8-7.55-23.8-.3-.75-.6-1.65-.9-2.55a431 431 0 0 0-14.4-35.6c-2.7-5.95-5.65-12-8.75-18.05-3.8-7.4-7.95-14.95-12.3-22.4-17.95-30.55-40.05-59.7-66.5-87.65-1.45-1.5-3.05-3.15-4.65-4.8-.65-.65-1.25-1.3-1.9-1.95z" transform="translate(-.546 -.546) scale(.06356)"/><path fill="none" stroke="#333" stroke-linecap="round" stroke-linejoin="round" stroke-width=".1" d="M31.971 6.579v1.26"/><path fill="url(#c)" d="M892.05 512.1v-1.25h-121v1.25c0 71.5-25.3 132.55-75.9 183.1h-.025l-.025.025v.025c-50.55 50.55-111.55 75.85-183.05 75.85-71.55 0-132.6-25.3-183.15-75.85l-.025-.025h.025v.025c-50.55-50.6-75.85-111.65-75.85-183.15v-1.25h-121v1.25c0 104.9 37.1 194.45 111.25 268.7v-.025h.025l.025.025c74.2 74.2 163.75 111.3 268.7 111.3 104.9 0 194.45-37.1 268.65-111.3v-.025l-.025.025h.025c74.25-74.25 111.35-163.8 111.35-268.7z" transform="translate(-.487 -.55) scale(.06351)"/><path fill="url(#d)" d="M31.971 7.84c-6.637.016-12.305 2.37-17.002 7.066h-.002v.002a.616.616 0 0 0-.06.065c-4.653 4.68-6.987 10.32-7.006 16.922h7.685c.02-4.478 1.604-8.307 4.754-11.488l.063-.065c3.197-3.198 7.052-4.8 11.568-4.816V7.84zm.002 0v7.685h.062c4.48 0 8.316 1.565 11.504 4.692l.124.123v.002h.001c3.195 3.194 4.802 7.046 4.82 11.553h7.686c-.019-6.631-2.375-12.292-7.072-16.988h-.002l-.123-.123C44.286 10.154 38.64 7.84 32.035 7.84h-.063z"/><path fill="none" stroke="#333" stroke-linecap="round" stroke-linejoin="round" stroke-width=".1" d="M31.971 20.161v-4.636m0-7.685v7.685"/><path fill="url(#e)" d="M758.8 755.2q95.85-95.85 95.85-231.45c0-90.4-31.95-167.55-95.85-231.45s-141.05-95.85-231.45-95.85S359.8 228.4 295.9 292.3s-95.85 141.05-95.85 231.45S232 691.3 295.9 755.2s141.05 95.85 231.45 95.85S694.9 819.1 758.8 755.2z" transform="translate(-1.624 -1.204) scale(.06351)"/><g stroke-width=".996"><path d="m40.408 7.39-11.67 25.264 2.68 3.21 4.262-.69z" filter="url(#f)" opacity=".35"/><path fill="url(#g)" d="m40.408 7.39-11.67 25.264 2.68 3.21 4.262-.69z"/></g><g stroke-width=".996"><path d="M31.926 26.908c-.851 0-1.64.153-2.367.46a6.013 6.013 0 0 0-1.934 1.321c-.825.826-1.364 1.768-1.615 2.832a6.329 6.329 0 0 0-.166 1.469c0 .8.136 1.545.406 2.234a6.003 6.003 0 0 0 1.375 2.065c1.188 1.188 2.621 1.781 4.301 1.781 1.68 0 3.111-.593 4.299-1.781 1.188-1.188 1.781-2.619 1.781-4.299 0-1.629-.559-3.03-1.68-4.2l-.101-.1a6.295 6.295 0 0 0-1.387-1.057 7.188 7.188 0 0 0-.414-.207c-.759-.346-1.59-.518-2.492-.518h-.006z" filter="url(#h)" opacity=".5"/><path fill="url(#i)" d="M31.926 26.908c-.851 0-1.64.153-2.367.46a6.013 6.013 0 0 0-1.934 1.321c-.825.826-1.364 1.768-1.615 2.832a6.329 6.329 0 0 0-.166 1.469c0 .8.136 1.545.406 2.234a6.003 6.003 0 0 0 1.375 2.065c1.188 1.188 2.621 1.781 4.301 1.781 1.68 0 3.111-.593 4.299-1.781 1.188-1.188 1.781-2.619 1.781-4.299 0-1.629-.559-3.03-1.68-4.2l-.101-.1a6.295 6.295 0 0 0-1.387-1.057 7.188 7.188 0 0 0-.414-.207c-.759-.346-1.59-.518-2.492-.518h-.006z"/></g></g></svg>