<svg xmlns="http://www.w3.org/2000/svg" width="64" height="64" enable-background="new 0 0 1024 1024" image-rendering="optimizeSpeed"><defs><filter id="c" width="1.072" height="1.072" x="-.036" y="-.036" color-interpolation-filters="sRGB"><feGaussianBlur stdDeviation="14.16"/></filter><filter id="e" width="1.059" height="1.059" x="-.03" y="-.03" color-interpolation-filters="sRGB"><feGaussianBlur stdDeviation=".298"/></filter><filter id="d" width="1.028" height="1.028" x="-.014" y="-.014" color-interpolation-filters="sRGB"><feGaussianBlur stdDeviation=".298"/></filter><filter id="a" width="1.096" height="1.096" x="-.048" y="-.048" color-interpolation-filters="sRGB"><feGaussianBlur stdDeviation="1.2"/></filter><filter id="f" width="1.173" height="1.284" x="-.087" y="-.142" color-interpolation-filters="sRGB"><feGaussianBlur stdDeviation=".401"/></filter><radialGradient id="g" cx="13.074" cy="10.074" r="2.552" gradientTransform="scale(3.7796)" gradientUnits="userSpaceOnUse"><stop offset="0" stop-color="#52ffe9"/><stop offset="1" stop-color="#2fedd4" stop-opacity="0"/></radialGradient><linearGradient id="b" x1="7.937" x2="7.937" y1="15.081" y2="1.852" gradientTransform="translate(81.001 -4.97)scale(3.7796)" gradientUnits="userSpaceOnUse"><stop offset="0" stop-color="#767574"/><stop offset="1" stop-color="#d1e7ee"/></linearGradient></defs><circle cx="32" cy="32.88" r="30" filter="url(#a)" opacity=".25"/><circle cx="32" cy="32" r="30" fill="url(#b)"/><circle cx="32" cy="32" r="30" fill="url(#c)"/><circle cx="32" cy="32" r="27" fill="#1a1a1a" fill-rule="evenodd" style="paint-order:fill markers stroke"/><circle cx="32" cy="32" r="24" fill="#a1fbe6" fill-rule="evenodd" opacity=".08" style="paint-order:fill markers stroke"/><path fill="#fff" d="M10.787 10.787a29.934 29.934 0 0 0 0 42.426c.119.119.242.23.362.345-11.4-11.775-11.288-30.43.345-42.065S41.784-.25 53.56 11.148c-.116-.12-.227-.243-.345-.362a29.934 29.934 0 0 0-42.426 0z" filter="url(#d)" opacity=".55"/><path fill="#fff" d="M37.435 61.526c5.772-1.063 11.297-3.831 15.779-8.313s7.25-10.007 8.313-15.779c-1.592 5.434-4.606 10.657-9.02 15.072s-9.639 7.428-15.072 9.02" filter="url(#e)" opacity=".38"/><path fill="#a1fbe6" d="m32 8-.152.012v4.052H25.33v-3.11l-.3.097v3.013h-6.345a24 24 0 0 0-.482.362v6.46h-6.289l-.191.3h6.48v6.523H11.68v-6.443a24 24 0 0 0-.3.544v5.899H8.872l-.066.303h2.576v6.52H8.037l.024.302h3.32v6.52H9.193l.114.302h2.074v4.533a24 24 0 0 0 .299.545v-5.078h6.523v6.523h-5.492l.224.3h5.268v5.095l.299.225v-5.32h6.523v6.523h-4.513a24 24 0 0 0 .552.302h3.965v1.645l.295.098v-1.743h6.523v2.684L32 56l.148-.01v-2.686h6.522v1.743l.3-.098v-1.644h3.965a24 24 0 0 0 .553-.303H38.97l-.003-6.524h6.525v5.325l.3-.225v-5.1h5.272l.225-.298h-5.496v-6.524h6.523v5.086a24 24 0 0 0 .299-.547v-4.539h2.078l.113-.303h-2.191V32.83h3.326l.022-.299h-3.348v-6.523h2.621l-.084-.303h-2.537v-5.992a24 24 0 0 0-.299-.477v6.473h-6.523v-6.524h6.49l-.188-.298h-6.298V12.37a24 24 0 0 0-.436-.307h-6.394v-3.03l-.297-.083v3.113h-6.522v-4.06zm-13.494 4.363h6.523v6.524h-6.523zm6.82 0h6.526v6.524h-6.528zm6.823 0h6.525v6.524h-6.525zm6.822 0h6.523v6.524h-6.523zM18.5 19.186h6.524v6.523h-6.523zm6.823 0h6.524v6.523h-6.524zm6.824 0h6.526v6.523h-6.526zm6.823 0h6.523v6.523H38.97zm-27.29 6.822h6.523v6.523H11.68zm6.822 0h6.523v6.523h-6.523zm6.822 0h6.524v6.523h-6.524zm6.824 0h6.526v6.523h-6.526zm6.823 0h6.523v6.523h-6.527zm6.822 0h6.523v6.523h-6.523zM11.68 32.83h6.523v6.524H11.68zm6.822 0h6.524v6.524h-6.524zm6.823 0h6.523v6.524h-6.523zm6.824 0h6.525v6.524H32.15zm6.822 0h6.524v6.524h-6.528zm6.822 0h6.524v6.524h-6.524zm-27.29 6.826h6.523v6.524h-6.524zm6.822 0h6.523v6.524h-6.523zm6.824 0h6.525v6.524H32.15zm6.822 0h6.524v6.524h-6.528zM25.325 46.48h6.524v6.523h-6.524zm6.823 0h6.523v6.523h-6.518z" opacity=".25"/><path fill="#2eeed7" fill-opacity=".475" d="M7.166 5.081c-.026.004-.048.044-.076.127-.055.162-.068.395-.14 2.57-.038 1.147-.12 2.175-.192 2.385-.093.272-.247.187-.634-.35-.2-.276-.425-.558-.502-.625-.131-.116-.146-.117-.28-.019a.84.84 0 0 0-.225.331c-.118.323-.281.498-.508.545-.107.023-.664.005-1.236-.038l-1.038-.076v.186l.566.05c.312.028.867.056 1.234.056.776 0 .91-.061 1.082-.498.059-.15.131-.288.16-.309.115-.079.274.053.6.497.185.253.399.506.474.56.182.134.354.065.445-.179.093-.248.184-1.285.223-2.517.033-1.064.061-1.312.136-1.177.044.078.086.517.139 1.425.01.187.06.842.108 1.455.164 2.058.223 2.425.38 2.367.082-.031.191-.54.198-.93a2 2 0 0 1 .085-.51c.091-.244.136-.254.673-.143.488.101.592.038.801-.49.282-.709.292-.726.455-.747.127-.017.202.042.44.34.872 1.097.97 1.14 1.444.639.16-.17.316-.31.346-.31s.184.126.344.279c.218.198.394.28.637.308.17 0 .17-.256 0-.256-.232.09-.45-.125-.57-.238-.392-.374-.522-.37-.852.031-.373.453-.39.447-1.087-.423-.716-.894-.881-.883-1.216.083-.07.204-.187.44-.258.523-.124.147-.14.15-.45.077-.473-.109-.655-.094-.784.06a.9.9 0 0 0-.144.248c-.041.143-.119.146-.157.005-.044-.163-.138-1.092-.17-1.687-.04-.754-.243-3.158-.284-3.357a.54.54 0 0 0-.11-.24q-.032-.03-.057-.028" filter="url(#f)" transform="scale(3.7796)"/><path fill="#c1fdee" d="M27.085 19.204c-.098.015-.181.166-.287.48-.208.612-.257 1.493-.53 9.714-.143 4.335-.453 8.22-.725 9.014-.352 1.028-.934.707-2.396-1.323-.756-1.043-1.607-2.109-1.898-2.362-.495-.439-.552-.442-1.058-.072-.38.342-.673.771-.85 1.251-.446 1.22-1.063 1.882-1.92 2.06-.405.087-2.51.019-4.672-.144l-4.1-.292.175.703 2.14.194c1.18.107 3.278.212 4.665.212 2.933 0 3.44-.23 4.09-1.883.222-.566.495-1.088.604-1.167.435-.299 1.036.2 2.268 1.878.7.956 1.508 1.913 1.791 2.117.688.506 1.338.245 1.682-.677.352-.937.696-4.857.843-9.513.125-4.022.23-4.959.514-4.449.167.295.325 1.954.526 5.386.037.707.226 3.183.408 5.5.62 7.778.843 9.165 1.436 8.946.31-.117.722-2.041.748-3.515a7 7 0 0 1 .322-1.928c.344-.922.514-.96 2.543-.54 1.845.381 2.238.143 3.028-1.852 1.066-2.68 1.103-2.744 1.72-2.824.48-.064.763.159 1.663 1.285 3.295 4.147 3.666 4.31 5.457 2.416.605-.643 1.195-1.172 1.308-1.172s.695.476 1.3 1.054c.824.749 1.49 1.059 2.408 1.164.644 0 .644-.967 0-.967-.877.34-1.701-.473-2.155-.9-1.481-1.413-1.973-1.398-3.22.118-1.41 1.712-1.474 1.689-4.108-1.6-2.706-3.378-3.33-3.337-4.596.314-.265.771-.707 1.663-.975 1.977-.47.556-.53.567-1.701.291-1.788-.412-2.476-.355-2.963.227-.233.28-.417.596-.545.937-.155.54-.45.552-.593.02-.166-.617-.522-4.128-.643-6.377-.15-2.85-.918-11.936-1.073-12.688a2 2 0 0 0-.416-.907c-.083-.076-.15-.114-.215-.106"/><circle cx="49.415" cy="38.076" r="9.646" fill="url(#g)" opacity=".15"/></svg>