<svg width="64" height="64" version="1.1" xmlns="http://www.w3.org/2000/svg" xmlns:xlink="http://www.w3.org/1999/xlink">
 <defs>
  <linearGradient id="a" x1="399.57" x2="399.57" y1="545.8" y2="517.8" gradientTransform="translate(-826.34 -1107.5) scale(2.1429)" gradientUnits="userSpaceOnUse">
   <stop stop-color="#3889e9" offset="0"/>
   <stop stop-color="#5ea5fb" offset="1"/>
  </linearGradient>
  <linearGradient id="f" x1="26" x2="26" y1="35" y2="7" gradientTransform="translate(8 5)" gradientUnits="userSpaceOnUse">
   <stop stop-color="#b6b9bf" offset="0"/>
   <stop stop-color="#dddfe2" offset="1"/>
  </linearGradient>
  <linearGradient id="g" x1="3" x2="45" y1="42" y2="42" gradientTransform="translate(8 5)" gradientUnits="userSpaceOnUse">
   <stop stop-color="#1a1a1a" offset="0"/>
   <stop stop-color="#2c2c2e" offset=".111"/>
   <stop stop-color="#2b2b2d" offset=".29"/>
   <stop stop-color="#2a2b2d" offset=".512"/>
   <stop stop-color="#2b2b2d" offset=".752"/>
   <stop stop-color="#323232" offset=".897"/>
   <stop stop-color="#171717" offset="1"/>
  </linearGradient>
  <linearGradient id="b" x1="467.17" x2="467.17" y1="546.85" y2="544.72" gradientTransform="translate(-864.23 -981.74) scale(1.8844)" gradientUnits="userSpaceOnUse">
   <stop stop-color="#040404" offset="0"/>
   <stop stop-color="#121212" stop-opacity=".908" offset="1"/>
  </linearGradient>
  <linearGradient id="h" x1="27" x2="27" y1="48" y2="46" gradientUnits="userSpaceOnUse" xlink:href="#a"/>
  <linearGradient id="d" x1="-39.605" x2="-39.605" y1="58.247" y2="6.988" gradientTransform="translate(70.543 .42)" gradientUnits="userSpaceOnUse">
   <stop stop-color="#4d4d4d" offset="0"/>
   <stop stop-color="gray" offset="1"/>
  </linearGradient>
  <linearGradient id="i" x1="45" x2="49" y1="47" y2="47" gradientUnits="userSpaceOnUse" xlink:href="#b"/>
  <linearGradient id="j" x1="45" x2="49" y1="47" y2="47" gradientTransform="matrix(.5 0 0 .5 23.5 23.5)" gradientUnits="userSpaceOnUse" xlink:href="#a"/>
  <filter id="e" x="-.058664" y="-.061429" width="1.1173" height="1.1229" color-interpolation-filters="sRGB">
   <feGaussianBlur stdDeviation="1.075"/>
  </filter>
  <filter id="c" x="-.03888" y="-.03888" width="1.0778" height="1.0778" color-interpolation-filters="sRGB">
   <feGaussianBlur stdDeviation=".972"/>
  </filter>
  <filter id="filter26" x="-.013853" y="-.013853" width="1.0277" height="1.0277" color-interpolation-filters="sRGB">
   <feGaussianBlur stdDeviation="0.29776566"/>
  </filter>
  <filter id="filter25" x="-.029663" y="-.029663" width="1.0593" height="1.0593" color-interpolation-filters="sRGB">
   <feGaussianBlur stdDeviation="0.29776566"/>
  </filter>
 </defs>
 <circle cx="32" cy="32" r="30" filter="url(#c)" opacity=".15" style="isolation:isolate;paint-order:stroke fill markers"/>
 <circle cx="32" cy="32" r="30" fill="url(#d)" style="isolation:isolate;paint-order:stroke fill markers"/>
 <path d="M20.507 11c-2.894 0-4.79 2.156-5.224 4.768l-5.221 31.465c-.065.388-.051.766.016 1.129C10.27 50.96 12.517 53 15.283 53h33.432c2.66 0 4.84-1.887 5.175-4.344.122-.45.147-.929.049-1.423L47.67 15.768C47.153 13.169 45.34 11 42.447 11z" filter="url(#e)" opacity=".15"/>
 <path d="M21 10h21c2.77 0 4.505 2.169 5 4.767l6 31.465C53.496 48.831 50.77 51 48 51H16.002c-2.77 0-5.415-2.156-5-4.768L16 14.767C16.415 12.156 18.23 10 21 10z" fill="url(#f)"/>
 <rect x="11" y="42" width="42" height="10" ry="5" fill="url(#g)"/>
 <rect x="20" y="46" width="20" height="2" ry="1" fill="url(#h)"/>
 <circle cx="15.997" cy="47" r="2" fill="url(#b)" opacity=".452"/>
 <path d="M16 46.075a.143.143 0 0 0-.105.045.138.138 0 0 0-.043.103v.745c0 .04.013.074.043.103s.065.045.105.045a.14.14 0 0 0 .104-.045.142.142 0 0 0 .044-.103v-.745a.142.142 0 0 0-.044-.103.144.144 0 0 0-.104-.045zm-.428.219c-.04 0-.076 0-.11.03a.87.87 0 0 0-.357.71c0 .12.026.236.073.346.047.11.11.205.19.285a.908.908 0 0 0 .63.26c.12 0 .236-.024.346-.07a.869.869 0 0 0 .474-.475.88.88 0 0 0-.285-1.057.143.143 0 0 0-.111-.03c-.041 0-.074.025-.098.057a.14.14 0 0 0-.027.11c.006.04.024.074.057.1a.592.592 0 0 1-.586 1.02.587.587 0 0 1-.319-.316.588.588 0 0 1 .191-.705.15.15 0 0 0 .06-.1.141.141 0 0 0-.03-.109.134.134 0 0 0-.098-.056z" fill="#fff"/>
 <path d="M16 42c-2.77 0-5 2.23-5 5 0 .059.006.116.008.174a4.724 4.724 0 0 1 4.732-4.652h32.52a4.724 4.724 0 0 1 4.733 4.652c.002-.058.007-.115.007-.174 0-2.77-2.23-5-5-5H16zm22.398-22.722-2.803-.004a.457.457 0 0 0-.284.094.297.297 0 0 0-.119.229l-.004 2.26c0 .178.179.323.401.323h.39l-.003 1.722-2.971 1.605.013-6.577 1.034.001a.34.34 0 0 0 .271-.122.214.214 0 0 0 .011-.25l-2.037-3.183a.335.335 0 0 0-.282-.139.334.334 0 0 0-.282.138l-2.052 3.177a.214.214 0 0 0 .01.25.34.34 0 0 0 .271.124l1.034.001-.019 9.11-3.198-1.742.003-1.366c.496-.264.824-.716.825-1.23.003-.817-.817-1.48-1.831-1.481-1.013-.002-1.834.659-1.837 1.475-.001.515.326.968.821 1.234l-.004 1.8c0 .27.166.524.446.676L30.973 30l-.006 2.809c-.673.29-1.136.856-1.138 1.515-.001.954.956 1.73 2.141 1.732 1.186.001 2.148-.771 2.15-1.726.001-.659-.46-1.225-1.131-1.518L33 27.471l4.549-2.457c.054-.03.105-.064.15-.1a.745.745 0 0 0 .298-.576L38 22.184h.391a.457.457 0 0 0 .284-.095.297.297 0 0 0 .119-.229l.004-2.258c0-.18-.179-.324-.401-.324z" opacity=".15"/>
 <circle cx="47" cy="47" r="2" fill="url(#i)" style="paint-order:stroke fill markers"/>
 <circle cx="47" cy="47" r="1" fill="url(#j)" style="paint-order:stroke fill markers"/>
 <path d="m10.787 10.787c-11.752 11.752-11.752 30.674 0 42.426 0.11855 0.11855 0.24184 0.22911 0.36184 0.34527-11.399-11.775-11.288-30.431 0.34527-42.065 11.634-11.634 30.289-11.744 42.065-0.34527-0.11616-0.12-0.22671-0.24329-0.34527-0.36184-11.752-11.752-30.674-11.752-42.426 0z" fill="#ffffff" filter="url(#filter26)" opacity=".35"/>
 <path d="m37.435 61.526c5.7718-1.0635 11.297-3.831 15.779-8.3126s7.2491-10.007 8.3126-15.779c-1.5917 5.4332-4.6056 10.657-9.0198 15.072s-9.6384 7.428-15.072 9.0198z" fill="#ffffff" filter="url(#filter25)" opacity=".35"/>
</svg>
