<svg width="64" height="64" version="1.1" viewBox="0 0 16.933 16.933" xmlns="http://www.w3.org/2000/svg" xmlns:xlink="http://www.w3.org/1999/xlink">
 <defs>
  <filter id="c" x="-.036" y="-.036" width="1.072" height="1.072" color-interpolation-filters="sRGB">
   <feGaussianBlur stdDeviation="0.23812032"/>
  </filter>
  <linearGradient id="linearGradient4152" x1="26.173" x2="14.482" y1="32.403" y2="5.7699" gradientTransform="matrix(.38484 0 0 .38484 -.7697 .38485)" gradientUnits="userSpaceOnUse">
   <stop stop-color="#ffffff" offset="0"/>
   <stop stop-color="#cbb0ea" offset="1"/>
  </linearGradient>
  <linearGradient id="linearGradient887" x1="8.4665" x2="8.4665" y1=".5292" y2="16.404" gradientUnits="userSpaceOnUse">
   <stop stop-color="#7d519e" offset="0"/>
   <stop stop-color="#a987c2" offset="1"/>
  </linearGradient>
  <filter id="filter907" x="-.06" y="-.06" width="1.12" height="1.12" color-interpolation-filters="sRGB">
   <feGaussianBlur stdDeviation="0.21166213"/>
  </filter>
 </defs>
 <circle cx="8.4665" cy="8.4665" r="7.9373" filter="url(#c)" opacity=".15" stroke-width="1.1111" style="paint-order:stroke markers fill"/>
 <circle cx="8.4665" cy="8.4665" r="7.9373" fill="url(#linearGradient887)" stroke-width="1.1111" style="paint-order:stroke markers fill"/>
 <path d="m9.1933 4.2333c-0.18593 0-0.34023 0.14851-0.342 0.32847-0.00108 0.18078 0.15324 0.3328 0.3405 0.33373 0.80813 0.00607 1.4726 0.26148 2.0084 0.76518 0.5295 0.49902 0.80551 1.1904 0.81251 2.0926v7.697e-4c0.0019 0.17947 0.15633 0.3277 0.34275 0.3277 1.8e-5 0 0.0035-6.926e-4 0.0038-7.696e-4 0.18684-0.00173 0.34201-0.15236 0.3405-0.33298v-7.697e-4c-0.004381-0.52585-0.08987-1.0093-0.25711-1.4348-0.16925-0.42991-0.42652-0.81032-0.76218-1.1267-0.66289-0.6234-1.5097-0.94544-2.4842-0.95233h-0.00309zm-3.4711 0.77796c-0.13039-0.022163-0.27162 0.00208-0.41267 0.069903h-0.0112l-0.015782 0.00902c-0.26136 0.14856-0.50638 0.34774-0.73586 0.59754l-0.018037 0.019542v0.018038c-0.15878 0.19796-0.26373 0.39719-0.28788 0.59681-0.00771 0.033827-0.00757 0.064322-0.00757 0.096965 0 0.090807 0.013382 0.18309 0.041338 0.2736l0.00757 0.025558 0.015782 0.00902c0.090647 0.31099 0.29633 0.79496 0.7464 1.6145 0.29976 0.5432 0.60605 0.99697 0.91023 1.3793 0.16024 0.20093 0.34177 0.41012 0.55244 0.62086 0.00247 0.0025 0.011349 0.01158 0.021047 0.0203 0.00335 0.0033 8e-3 0.01029 0.019535 0.02179l0.021047 0.02105h0.00145c0.00742 0.0074 0.012363 0.0128 0.013527 0.01429l0.00378 0.0045 0.00378 0.0038c0.21069 0.20839 0.41849 0.391 0.62161 0.55021 0.38172 0.30422 0.83537 0.61294 1.3785 0.91323 0.82048 0.45265 1.309 0.65723 1.6183 0.7464l0.01132 0.01353 0.01879 0.0067c0.08762 0.02921 0.17881 0.04271 0.26909 0.04134 0.03662 0.0021 0.06903-5.77e-4 0.09996-0.0075 0.21185-0.02478 0.42159-0.12508 0.62914-0.29915l0.0023-0.0031 0.0023-0.0015c0.0032-0.0032 0.0013-0.0016 0.0031-0.0038 0.0019-0.0016 0.0026-0.0037 0.0045-0.0053 0.24564-0.22417 0.44389-0.468 0.59305-0.72908l0.0097-0.01654v-0.01567c0.13716-0.28529 0.08291-0.57654-0.13964-0.76218-0.0054-0.0047-0.11238-0.09406-0.24504-0.20219-0.13601-0.1104-0.2969-0.24035-0.40554-0.32006-0.20554-0.15205-0.52323-0.34872-0.7043-0.44949h-7.69e-4c-0.3478-0.19485-0.71122-0.081654-0.87116 0.12545l-0.28036 0.35102c-0.11306 0.14247-0.33901 0.12888-0.345 0.12853-1.9017-0.48925-2.4129-2.4014-2.4165-2.415-3.388e-4 -0.0059781-0.013964-0.23232 0.12852-0.34726l0.34951-0.27961c0.20761-0.15901 0.32433-0.52238 0.12853-0.87116-0.10214-0.18031-0.29966-0.50037-0.44949-0.7043h-7.694e-4c-0.08032-0.10824-0.20986-0.27009-0.3202-0.40589-0.055171-0.067897-0.1054-0.13004-0.14207-0.17438-0.018342-0.02217-0.033077-0.040077-0.043593-0.052615-0.00523-0.00627-0.00975-0.010674-0.0128-0.014283-0.0016-0.00181-0.00247-0.00299-0.00378-0.00451-0.096874-0.11502-0.22033-0.18509-0.35629-0.20821zm3.4914 0.76218c-0.18339-0.012931-0.34817 0.12448-0.36154 0.30141-0.013382 0.17712 0.1295 0.3351 0.31268 0.34801 0.453 0.032015 0.75868 0.16519 0.98843 0.40812v7.696e-4c0.23448 0.24745 0.34116 0.53004 0.33223 0.91627v0.0015c-0.0039 0.17771 0.14509 0.32832 0.32922 0.33221h0.0083c0.18144 0 0.3327-0.14323 0.33673-0.31869 0.012351-0.53081-0.16049-1.0045-0.50888-1.3718-0.34998-0.36912-0.8458-0.57584-1.4371-0.61786z" fill="#000000" filter="url(#filter907)" opacity=".15" stroke-width=".38484"/>
 <path d="m9.1933 4.2333c-0.18593 0-0.34023 0.14851-0.342 0.32847-0.00108 0.18078 0.15324 0.3328 0.3405 0.33373 0.80813 0.00607 1.4726 0.26148 2.0084 0.76518 0.5295 0.49902 0.80551 1.1904 0.81251 2.0926v7.697e-4c0.0019 0.17947 0.15633 0.3277 0.34275 0.3277 1.8e-5 0 0.0035-6.926e-4 0.0038-7.696e-4 0.18684-0.00173 0.34201-0.15236 0.3405-0.33298v-7.697e-4c-0.004381-0.52585-0.08987-1.0093-0.25711-1.4348-0.16925-0.42991-0.42652-0.81032-0.76218-1.1267-0.66289-0.6234-1.5097-0.94544-2.4842-0.95233h-0.00309zm-3.4711 0.77796c-0.13039-0.022163-0.27162 0.00208-0.41267 0.069903h-0.0112l-0.015782 0.00902c-0.26136 0.14856-0.50638 0.34774-0.73586 0.59754l-0.018037 0.019542v0.018038c-0.15878 0.19796-0.26373 0.39719-0.28788 0.59681-0.00771 0.033827-0.00757 0.064322-0.00757 0.096965 0 0.090807 0.013382 0.18309 0.041338 0.2736l0.00757 0.025558 0.015782 0.00902c0.090647 0.31099 0.29633 0.79496 0.7464 1.6145 0.29976 0.5432 0.60605 0.99697 0.91023 1.3793 0.16024 0.20093 0.34177 0.41012 0.55244 0.62086 0.00247 0.0025 0.011349 0.01158 0.021047 0.0203 0.00335 0.0033 8e-3 0.01029 0.019535 0.02179l0.021047 0.02105h0.00145c0.00742 0.0074 0.012363 0.0128 0.013527 0.01429l0.00378 0.0045 0.00378 0.0038c0.21069 0.20839 0.41849 0.391 0.62161 0.55021 0.38172 0.30422 0.83537 0.61294 1.3785 0.91323 0.82048 0.45265 1.309 0.65723 1.6183 0.7464l0.01132 0.01353 0.01879 0.0067c0.08762 0.02921 0.17881 0.04271 0.26909 0.04134 0.03662 0.0021 0.06903-5.77e-4 0.09996-0.0075 0.21185-0.02478 0.42159-0.12508 0.62914-0.29915l0.0023-0.0031 0.0023-0.0015c0.0032-0.0032 0.0013-0.0016 0.0031-0.0038 0.0019-0.0016 0.0026-0.0037 0.0045-0.0053 0.24564-0.22417 0.44389-0.468 0.59305-0.72908l0.0097-0.01654v-0.01567c0.13716-0.28529 0.08291-0.57654-0.13964-0.76218-0.0054-0.0047-0.11238-0.09406-0.24504-0.20219-0.13601-0.1104-0.2969-0.24035-0.40554-0.32006-0.20554-0.15205-0.52323-0.34872-0.7043-0.44949h-7.69e-4c-0.3478-0.19485-0.71122-0.081654-0.87116 0.12545l-0.28036 0.35102c-0.11306 0.14247-0.33901 0.12888-0.345 0.12853-1.9017-0.48925-2.4129-2.4014-2.4165-2.415-3.388e-4 -0.0059781-0.013964-0.23232 0.12852-0.34726l0.34951-0.27961c0.20761-0.15901 0.32433-0.52238 0.12853-0.87116-0.10214-0.18031-0.29966-0.50037-0.44949-0.7043h-7.694e-4c-0.08032-0.10824-0.20986-0.27009-0.3202-0.40589-0.055171-0.067897-0.1054-0.13004-0.14207-0.17438-0.018342-0.02217-0.033077-0.040077-0.043593-0.052615-0.00523-0.00627-0.00975-0.010674-0.0128-0.014283-0.0016-0.00181-0.00247-0.00299-0.00378-0.00451-0.096874-0.11502-0.22033-0.18509-0.35629-0.20821zm3.4914 0.76218c-0.18339-0.012931-0.34817 0.12448-0.36154 0.30141-0.013382 0.17712 0.1295 0.3351 0.31268 0.34801 0.453 0.032015 0.75868 0.16519 0.98843 0.40812v7.696e-4c0.23448 0.24745 0.34116 0.53004 0.33223 0.91627v0.0015c-0.0039 0.17771 0.14509 0.32832 0.32922 0.33221h0.0083c0.18144 0 0.3327-0.14323 0.33673-0.31869 0.012351-0.53081-0.16049-1.0045-0.50888-1.3718-0.34998-0.36912-0.8458-0.57584-1.4371-0.61786z" fill="url(#linearGradient4152)" stroke-width=".38484"/>
</svg>
