<svg xmlns="http://www.w3.org/2000/svg" width="64" height="64" viewBox="0 0 16.933 16.933"><defs><linearGradient id="d" x1="26.173" x2="14.482" y1="32.403" y2="5.77" gradientTransform="translate(-.77 .385)scale(.38484)" gradientUnits="userSpaceOnUse"><stop offset="0" stop-color="#fff"/><stop offset="1" stop-color="#cbb0ea"/></linearGradient><linearGradient id="b" x1="8.466" x2="8.466" y1=".529" y2="16.404" gradientUnits="userSpaceOnUse"><stop offset="0" stop-color="#7d519e"/><stop offset="1" stop-color="#a987c2"/></linearGradient><filter id="a" width="1.072" height="1.072" x="-.036" y="-.036" color-interpolation-filters="sRGB"><feGaussianBlur stdDeviation=".238"/></filter><filter id="c" width="1.12" height="1.12" x="-.06" y="-.06" color-interpolation-filters="sRGB"><feGaussianBlur stdDeviation=".212"/></filter></defs><circle cx="8.466" cy="8.466" r="7.937" filter="url(#a)" opacity=".15" style="paint-order:stroke markers fill"/><circle cx="8.466" cy="8.466" r="7.937" fill="url(#b)" style="paint-order:stroke markers fill"/><path d="M9.193 4.233a.34.34 0 0 0-.342.329.34.34 0 0 0 .34.333c.809.007 1.473.262 2.01.766.529.499.805 1.19.812 2.092v.001a.34.34 0 0 0 .346.327.34.34 0 0 0 .34-.333 4 4 0 0 0-.256-1.436 3.1 3.1 0 0 0-.763-1.126c-.662-.624-1.51-.946-2.484-.953zm-3.47.778a.7.7 0 0 0-.413.07h-.012l-.015.01a3 3 0 0 0-.736.597l-.018.02v.017c-.16.198-.264.397-.288.597q-.01.05-.008.097 0 .136.042.274l.007.025.016.01c.09.31.296.794.746 1.614.3.543.606.997.91 1.38.16.2.342.41.553.62l.021.02.02.022.02.021h.002l.014.014.003.005.004.004q.316.311.622.55c.381.304.835.613 1.378.913.82.453 1.31.657 1.619.746l.01.014.02.007a.8.8 0 0 0 .369.034q.318-.038.629-.3l.002-.003.002-.001.004-.004.004-.005q.37-.337.593-.73l.01-.016v-.016c.137-.285.083-.576-.14-.762a24 24 0 0 0-.65-.522 8 8 0 0 0-.705-.45c-.348-.194-.712-.081-.872.126l-.28.351c-.113.142-.339.129-.345.128-1.902-.489-2.413-2.4-2.417-2.415 0-.005-.013-.232.129-.347l.35-.28c.207-.158.324-.522.128-.87-.102-.18-.3-.5-.45-.705-.08-.108-.21-.27-.32-.406l-.142-.174-.044-.053-.013-.014-.004-.005a.6.6 0 0 0-.356-.208zm3.49.762a.34.34 0 0 0-.36.302.333.333 0 0 0 .312.348c.453.032.758.165.988.408.235.248.341.53.332.917v.002a.333.333 0 0 0 .33.332h.008a.334.334 0 0 0 .337-.319c.012-.53-.16-1.004-.51-1.372s-.845-.576-1.436-.618z" filter="url(#c)" opacity=".15"/><path fill="url(#d)" d="M9.193 4.233a.34.34 0 0 0-.342.329.34.34 0 0 0 .34.333c.809.007 1.473.262 2.01.766.529.499.805 1.19.812 2.092v.001a.34.34 0 0 0 .346.327.34.34 0 0 0 .34-.333 4 4 0 0 0-.256-1.436 3.1 3.1 0 0 0-.763-1.126c-.662-.624-1.51-.946-2.484-.953zm-3.47.778a.7.7 0 0 0-.413.07h-.012l-.015.01a3 3 0 0 0-.736.597l-.018.02v.017c-.16.198-.264.397-.288.597q-.01.05-.008.097 0 .136.042.274l.007.025.016.01c.09.31.296.794.746 1.614.3.543.606.997.91 1.38.16.2.342.41.553.62l.021.02.02.022.02.021h.002l.014.014.003.005.004.004q.316.311.622.55c.381.304.835.613 1.378.913.82.453 1.31.657 1.619.746l.01.014.02.007a.8.8 0 0 0 .369.034q.318-.038.629-.3l.002-.003.002-.001.004-.004.004-.005q.37-.337.593-.73l.01-.016v-.016c.137-.285.083-.576-.14-.762a24 24 0 0 0-.65-.522 8 8 0 0 0-.705-.45c-.348-.194-.712-.081-.872.126l-.28.351c-.113.142-.339.129-.345.128-1.902-.489-2.413-2.4-2.417-2.415 0-.005-.013-.232.129-.347l.35-.28c.207-.158.324-.522.128-.87-.102-.18-.3-.5-.45-.705-.08-.108-.21-.27-.32-.406l-.142-.174-.044-.053-.013-.014-.004-.005a.6.6 0 0 0-.356-.208zm3.49.762a.34.34 0 0 0-.36.302.333.333 0 0 0 .312.348c.453.032.758.165.988.408.235.248.341.53.332.917v.002a.333.333 0 0 0 .33.332h.008a.334.334 0 0 0 .337-.319c.012-.53-.16-1.004-.51-1.372s-.845-.576-1.436-.618z"/></svg>