<svg width="64" height="64" version="1.1" viewBox="0 0 64 64" xmlns="http://www.w3.org/2000/svg">
 <defs>
  <linearGradient id="linearGradient1372" x1="34.705" x2="34.705" y1="-30.727" y2="-38.74" gradientTransform="matrix(.26484 0 0 .26484 .51522 15.046)" gradientUnits="userSpaceOnUse">
   <stop stop-color="#efb63f" offset="0"/>
   <stop stop-color="#f8d650" offset="1"/>
  </linearGradient>
  <linearGradient id="linearGradient1380" x1="32.125" x2="32.125" y1="-29.828" y2="-39.838" gradientTransform="matrix(.26484 0 0 .26484 .51522 15.046)" gradientUnits="userSpaceOnUse">
   <stop stop-color="#a88a47" offset="0"/>
   <stop stop-color="#d7cfa7" offset="1"/>
  </linearGradient>
  <linearGradient id="linearGradient1384" x1="34.705" x2="34.705" y1="-30.727" y2="-38.74" gradientTransform="matrix(.26484 0 0 .26484 -3.2765 15.046)" gradientUnits="userSpaceOnUse">
   <stop stop-color="#68d848" offset="0"/>
   <stop stop-color="#99f27b" offset="1"/>
  </linearGradient>
  <linearGradient id="linearGradient1386" x1="32.125" x2="32.125" y1="-29.828" y2="-39.838" gradientTransform="matrix(.26484 0 0 .26484 -3.2765 15.046)" gradientUnits="userSpaceOnUse">
   <stop stop-color="#5a9555" offset="0"/>
   <stop stop-color="#ccf4bd" offset="1"/>
  </linearGradient>
  <linearGradient id="linearGradient1402" x1="34.705" x2="34.705" y1="-30.727" y2="-38.74" gradientTransform="matrix(.26484 0 0 .26484 4.1978 15.046)" gradientUnits="userSpaceOnUse">
   <stop stop-color="#e07f3e" offset="0"/>
   <stop stop-color="#f1a73e" offset="1"/>
  </linearGradient>
  <linearGradient id="linearGradient1404" x1="32.125" x2="32.125" y1="-29.828" y2="-39.838" gradientTransform="matrix(.26484 0 0 .26484 4.1978 15.046)" gradientUnits="userSpaceOnUse">
   <stop stop-color="#ae714f" offset="0"/>
   <stop stop-color="#ffdc8f" offset="1"/>
  </linearGradient>
  <linearGradient id="linearGradient1514" x1="34.705" x2="34.705" y1="-30.727" y2="-38.74" gradientTransform="matrix(.26484 0 0 .26484 -3.2765 18.745)" gradientUnits="userSpaceOnUse">
   <stop stop-color="#b9281b" offset="0"/>
   <stop stop-color="#e54e3b" offset="1"/>
  </linearGradient>
  <linearGradient id="linearGradient1516" x1="32.125" x2="32.125" y1="-29.828" y2="-39.838" gradientTransform="matrix(.26484 0 0 .26484 -3.2765 18.745)" gradientUnits="userSpaceOnUse">
   <stop stop-color="#84281e" offset="0"/>
   <stop stop-color="#df8881" offset="1"/>
  </linearGradient>
  <linearGradient id="linearGradient1560" x1="34.705" x2="34.705" y1="-30.727" y2="-38.74" gradientTransform="matrix(.26484 0 0 .26484 .51522 18.745)" gradientUnits="userSpaceOnUse">
   <stop stop-color="#878887" offset="0"/>
   <stop stop-color="#d8e3e9" offset="1"/>
  </linearGradient>
  <linearGradient id="linearGradient1562" x1="32.125" x2="32.125" y1="-29.828" y2="-39.838" gradientTransform="matrix(.26484 0 0 .26484 .51522 18.745)" gradientUnits="userSpaceOnUse">
   <stop stop-color="#6c6c6a" offset="0"/>
   <stop stop-color="#e3ebef" offset="1"/>
  </linearGradient>
  <linearGradient id="linearGradient1590" x1="34.705" x2="34.705" y1="-30.727" y2="-38.74" gradientTransform="matrix(.26484 0 0 .26484 4.1978 18.745)" gradientUnits="userSpaceOnUse">
   <stop stop-color="#e76872" offset="0"/>
   <stop stop-color="#ea4f66" offset="1"/>
  </linearGradient>
  <linearGradient id="linearGradient1592" x1="32.125" x2="32.125" y1="-29.828" y2="-39.838" gradientTransform="matrix(.26484 0 0 .26484 4.1978 18.745)" gradientUnits="userSpaceOnUse">
   <stop stop-color="#ab5863" offset="0"/>
   <stop stop-color="#d7798a" offset="1"/>
  </linearGradient>
  <linearGradient id="linearGradient1620" x1="34.705" x2="34.705" y1="-30.727" y2="-38.74" gradientTransform="matrix(.26484 0 0 .26484 -3.2765 22.445)" gradientUnits="userSpaceOnUse">
   <stop stop-color="#783bb3" offset="0"/>
   <stop stop-color="#b76de6" offset="1"/>
  </linearGradient>
  <linearGradient id="linearGradient1622" x1="32.125" x2="32.125" y1="-29.828" y2="-39.838" gradientTransform="matrix(.26484 0 0 .26484 -3.2765 22.445)" gradientUnits="userSpaceOnUse">
   <stop stop-color="#4b2677" offset="0"/>
   <stop stop-color="#b481d5" offset=".946"/>
   <stop stop-color="#ddc9ec" offset="1"/>
  </linearGradient>
  <linearGradient id="linearGradient1653" x1="34.705" x2="34.705" y1="-30.727" y2="-38.74" gradientTransform="matrix(.26484 0 0 .26484 .51522 22.445)" gradientUnits="userSpaceOnUse">
   <stop stop-color="#3468e0" offset="0"/>
   <stop stop-color="#61dafc" offset="1"/>
  </linearGradient>
  <linearGradient id="linearGradient1655" x1="32.125" x2="32.125" y1="-29.828" y2="-39.838" gradientTransform="matrix(.26484 0 0 .26484 .51522 22.445)" gradientUnits="userSpaceOnUse">
   <stop stop-color="#29438e" offset="0"/>
   <stop stop-color="#90dcec" offset=".946"/>
   <stop stop-color="#abe2eb" offset="1"/>
  </linearGradient>
  <linearGradient id="linearGradient1685" x1="34.705" x2="34.705" y1="-30.727" y2="-38.74" gradientTransform="matrix(.26484 0 0 .26484 4.1978 22.445)" gradientUnits="userSpaceOnUse">
   <stop stop-color="#5bc18f" offset="0"/>
   <stop stop-color="#84e4dd" offset="1"/>
  </linearGradient>
  <linearGradient id="linearGradient1687" x1="32.125" x2="32.125" y1="-29.828" y2="-39.838" gradientTransform="matrix(.26484 0 0 .26484 4.1978 22.445)" gradientUnits="userSpaceOnUse">
   <stop stop-color="#3f8264" offset="0"/>
   <stop stop-color="#a2e1e0" offset=".946"/>
   <stop stop-color="#b8e4e2" offset="1"/>
  </linearGradient>
  <filter id="filter1766" x="-.44318" y="-.46445" width="1.8864" height="1.9289" color-interpolation-filters="sRGB">
   <feGaussianBlur stdDeviation="0.45310276"/>
  </filter>
  <filter id="filter964" x="-.027" y="-.027" width="1.054" height="1.054" color-interpolation-filters="sRGB">
   <feGaussianBlur stdDeviation="0.675"/>
  </filter>
  <linearGradient id="linearGradient862-3" x1="7.9373" x2="7.9373" y1="15.081" y2="1.852" gradientTransform="matrix(4.0494 0 0 4.0494 -2.2856 -2.2519)" gradientUnits="userSpaceOnUse">
   <stop stop-color="#f1efeb" offset="0"/>
   <stop stop-color="#fdfcfc" offset="1"/>
  </linearGradient>
 </defs>
 <rect x="2" y="3" width="60" height="60" rx="30" ry="30" fill="#000000" filter="url(#filter964)" opacity=".15"/>
 <rect x="2" y="2" width="60" height="60" rx="30" ry="30" fill="url(#linearGradient862-3)" stroke-width="4.0494"/>
 <g transform="matrix(3.7796 0 0 3.7796 -3.9999 -4.0286)">
  <rect transform="matrix(.99996 0 0 .99996 1.0847 1.5577)" x="7.1485" y="3.477" width="2.6929" height="2.5696" rx=".3818" ry=".3818" fill="#000000" filter="url(#filter1766)" opacity=".15" stroke="#000000" stroke-dashoffset="1" stroke-linecap="round" stroke-linejoin="round" stroke-width=".21188"/>
  <rect transform="matrix(.99996 0 0 .99996 1.0847 1.5577)" x="3.3566" y="3.477" width="2.6929" height="2.5696" rx=".3818" ry=".3818" fill="#000000" filter="url(#filter1766)" opacity=".15" stroke="#000000" stroke-dashoffset="1" stroke-linecap="round" stroke-linejoin="round" stroke-width=".212"/>
  <rect transform="matrix(.99996 0 0 .99996 1.0847 1.5577)" x="10.831" y="3.477" width="2.6929" height="2.5696" rx=".3818" ry=".3818" fill="#000000" filter="url(#filter1766)" opacity=".15" stroke="#000000" stroke-dashoffset="1" stroke-linecap="round" stroke-linejoin="round" stroke-width=".21188"/>
  <rect transform="matrix(.99996 0 0 .99996 1.0847 1.5577)" x="3.3566" y="7.1773" width="2.6929" height="2.5696" rx=".3818" ry=".3818" fill="#000000" filter="url(#filter1766)" opacity=".15" stroke="#000000" stroke-dashoffset="1" stroke-linecap="round" stroke-linejoin="round" stroke-width=".21188"/>
  <rect transform="matrix(.99996 0 0 .99996 1.0847 1.5577)" x="7.1485" y="7.1773" width="2.6929" height="2.5696" rx=".3818" ry=".3818" fill="#000000" filter="url(#filter1766)" opacity=".15" stroke="#000000" stroke-dashoffset="1" stroke-linecap="round" stroke-linejoin="round" stroke-width=".21188"/>
  <rect transform="matrix(.99996 0 0 .99996 1.0847 1.5577)" x="10.831" y="7.1773" width="2.6929" height="2.5696" rx=".3818" ry=".3818" fill="#000000" filter="url(#filter1766)" opacity=".15" stroke="#000000" stroke-dashoffset="1" stroke-linecap="round" stroke-linejoin="round" stroke-width=".21188"/>
  <rect transform="matrix(.99996 0 0 .99996 1.0847 1.5577)" x="3.3566" y="10.878" width="2.6929" height="2.5696" rx=".3818" ry=".3818" fill="#000000" filter="url(#filter1766)" opacity=".15" stroke="#000000" stroke-dashoffset="1" stroke-linecap="round" stroke-linejoin="round" stroke-width=".21188"/>
  <rect transform="matrix(.99996 0 0 .99996 1.0847 1.5577)" x="7.1485" y="10.878" width="2.6929" height="2.5696" rx=".3818" ry=".3818" fill="#000000" filter="url(#filter1766)" opacity=".15" stroke="#000000" stroke-dashoffset="1" stroke-linecap="round" stroke-linejoin="round" stroke-width=".21188"/>
  <rect transform="matrix(.99996 0 0 .99996 1.0847 1.5577)" x="10.831" y="10.878" width="2.6929" height="2.5696" rx=".3818" ry=".3818" fill="#000000" filter="url(#filter1766)" opacity=".15" stroke="#000000" stroke-dashoffset="1" stroke-linecap="round" stroke-linejoin="round" stroke-width=".21188"/>
  <path d="m8.6145 4.5474h1.9292c0.21151 0 0.38178 0.17027 0.38178 0.38178v1.8059c0 0.21151-0.17027 0.38178-0.38178 0.38178h-1.9292c-0.21151 0-0.38178-0.17027-0.38178-0.38178v-1.8059c0-0.21151 0.17027-0.38178 0.38178-0.38178z" color="#000000" color-rendering="auto" dominant-baseline="auto" fill="url(#linearGradient1372)" image-rendering="auto" shape-rendering="auto" solid-color="#000000" stop-color="#000000" stroke-width=".99996" style="font-feature-settings:normal;font-variant-alternates:normal;font-variant-caps:normal;font-variant-east-asian:normal;font-variant-ligatures:normal;font-variant-numeric:normal;font-variant-position:normal;font-variation-settings:normal;inline-size:0;isolation:auto;mix-blend-mode:normal;shape-margin:0;shape-padding:0;text-decoration-color:#000000;text-decoration-line:none;text-decoration-style:solid;text-indent:0;text-orientation:mixed;text-transform:none;white-space:normal"/>
  <path d="m8.6145 4.4408c-0.26837 0-0.48826 0.2199-0.48826 0.48826v1.8065c0 0.26837 0.2199 0.48631 0.48826 0.48631h1.9296c0.26837 0 0.48826-0.21794 0.48826-0.48631v-1.8065c0-0.26837-0.2199-0.48826-0.48826-0.48826zm0 0.21288h1.9296c0.15465 0 0.27538 0.12072 0.27538 0.27538v1.8065c0 0.15465-0.12072 0.27538-0.27538 0.27538h-1.9296c-0.15465 0-0.27538-0.12072-0.27538-0.27538v-1.8065c0-0.15465 0.12072-0.27538 0.27538-0.27538z" color="#000000" color-rendering="auto" dominant-baseline="auto" fill="url(#linearGradient1380)" image-rendering="auto" shape-rendering="auto" solid-color="#000000" stop-color="#000000" stroke-width=".99996" style="font-feature-settings:normal;font-variant-alternates:normal;font-variant-caps:normal;font-variant-east-asian:normal;font-variant-ligatures:normal;font-variant-numeric:normal;font-variant-position:normal;font-variation-settings:normal;inline-size:0;isolation:auto;mix-blend-mode:normal;shape-margin:0;shape-padding:0;text-decoration-color:#000000;text-decoration-line:none;text-decoration-style:solid;text-indent:0;text-orientation:mixed;text-transform:none;white-space:normal"/>
  <path d="m4.823 4.5474h1.9292c0.21151 0 0.38178 0.17027 0.38178 0.38178v1.8059c0 0.21151-0.17027 0.38178-0.38178 0.38178h-1.9292c-0.21151 0-0.38178-0.17027-0.38178-0.38178v-1.8059c0-0.21151 0.17027-0.38178 0.38178-0.38178z" color="#000000" color-rendering="auto" dominant-baseline="auto" fill="url(#linearGradient1384)" image-rendering="auto" shape-rendering="auto" solid-color="#000000" stop-color="#000000" stroke-width=".99996" style="font-feature-settings:normal;font-variant-alternates:normal;font-variant-caps:normal;font-variant-east-asian:normal;font-variant-ligatures:normal;font-variant-numeric:normal;font-variant-position:normal;font-variation-settings:normal;inline-size:0;isolation:auto;mix-blend-mode:normal;shape-margin:0;shape-padding:0;text-decoration-color:#000000;text-decoration-line:none;text-decoration-style:solid;text-indent:0;text-orientation:mixed;text-transform:none;white-space:normal"/>
  <path d="m4.8238 4.4408c-0.2684 0-0.48826 0.21986-0.48826 0.48826v1.8065c0 0.2684 0.21986 0.48631 0.48826 0.48631h1.9276c0.2684 0 0.48826-0.21791 0.48826-0.48631v-1.8065c0-0.2684-0.21986-0.48826-0.48826-0.48826zm0 0.21288h1.9276c0.15462 0 0.27733 0.12075 0.27733 0.27538v1.8065c0 0.15462-0.12271 0.27538-0.27733 0.27538h-1.9276c-0.15462 0-0.27733-0.12075-0.27733-0.27538v-1.8065c0-0.15462 0.12271-0.27538 0.27733-0.27538z" color="#000000" color-rendering="auto" dominant-baseline="auto" fill="url(#linearGradient1386)" image-rendering="auto" shape-rendering="auto" solid-color="#000000" stop-color="#000000" stroke-width=".99996" style="font-feature-settings:normal;font-variant-alternates:normal;font-variant-caps:normal;font-variant-east-asian:normal;font-variant-ligatures:normal;font-variant-numeric:normal;font-variant-position:normal;font-variation-settings:normal;inline-size:0;isolation:auto;mix-blend-mode:normal;shape-margin:0;shape-padding:0;text-decoration-color:#000000;text-decoration-line:none;text-decoration-style:solid;text-indent:0;text-orientation:mixed;text-transform:none;white-space:normal"/>
  <path d="m12.297 4.5474h1.9292c0.21151 0 0.38178 0.17027 0.38178 0.38178v1.8059c0 0.21151-0.17027 0.38178-0.38178 0.38178h-1.9292c-0.21151 0-0.38178-0.17027-0.38178-0.38178v-1.8059c0-0.21151 0.17027-0.38178 0.38178-0.38178z" color="#000000" color-rendering="auto" dominant-baseline="auto" fill="url(#linearGradient1402)" image-rendering="auto" shape-rendering="auto" solid-color="#000000" stop-color="#000000" stroke-width=".99996" style="font-feature-settings:normal;font-variant-alternates:normal;font-variant-caps:normal;font-variant-east-asian:normal;font-variant-ligatures:normal;font-variant-numeric:normal;font-variant-position:normal;font-variation-settings:normal;inline-size:0;isolation:auto;mix-blend-mode:normal;shape-margin:0;shape-padding:0;text-decoration-color:#000000;text-decoration-line:none;text-decoration-style:solid;text-indent:0;text-orientation:mixed;text-transform:none;white-space:normal"/>
  <path d="m12.296 4.4408c-0.26837 0-0.48631 0.2199-0.48631 0.48826v1.8065c0 0.26837 0.21794 0.48631 0.48631 0.48631h1.9296c0.26837 0 0.48826-0.21794 0.48826-0.48631v-1.8065c0-0.26837-0.2199-0.48826-0.48826-0.48826zm0 0.21288h1.9296c0.15465 0 0.27538 0.12072 0.27538 0.27538v1.8065c0 0.15465-0.12072 0.27538-0.27538 0.27538h-1.9296c-0.15465 0-0.27538-0.12072-0.27538-0.27538v-1.8065c0-0.15465 0.12072-0.27538 0.27538-0.27538z" color="#000000" color-rendering="auto" dominant-baseline="auto" fill="url(#linearGradient1404)" image-rendering="auto" shape-rendering="auto" solid-color="#000000" stop-color="#000000" stroke-width=".99996" style="font-feature-settings:normal;font-variant-alternates:normal;font-variant-caps:normal;font-variant-east-asian:normal;font-variant-ligatures:normal;font-variant-numeric:normal;font-variant-position:normal;font-variation-settings:normal;inline-size:0;isolation:auto;mix-blend-mode:normal;shape-margin:0;shape-padding:0;text-decoration-color:#000000;text-decoration-line:none;text-decoration-style:solid;text-indent:0;text-orientation:mixed;text-transform:none;white-space:normal"/>
  <path d="m4.823 8.2473h1.9292c0.21151 0 0.38178 0.17027 0.38178 0.38178v1.8059c0 0.21151-0.17027 0.38178-0.38178 0.38178h-1.9292c-0.21151 0-0.38178-0.17027-0.38178-0.38178v-1.8059c0-0.21151 0.17027-0.38178 0.38178-0.38178z" color="#000000" color-rendering="auto" dominant-baseline="auto" fill="url(#linearGradient1514)" image-rendering="auto" shape-rendering="auto" solid-color="#000000" stop-color="#000000" stroke-width=".99996" style="font-feature-settings:normal;font-variant-alternates:normal;font-variant-caps:normal;font-variant-east-asian:normal;font-variant-ligatures:normal;font-variant-numeric:normal;font-variant-position:normal;font-variation-settings:normal;inline-size:0;isolation:auto;mix-blend-mode:normal;shape-margin:0;shape-padding:0;text-decoration-color:#000000;text-decoration-line:none;text-decoration-style:solid;text-indent:0;text-orientation:mixed;text-transform:none;white-space:normal"/>
  <path d="m4.8238 8.1418c-0.26837 0-0.48826 0.2199-0.48826 0.48826v1.8046c0 0.26837 0.2199 0.48826 0.48826 0.48826h1.9276c0.26837 0 0.48826-0.2199 0.48826-0.48826v-1.8046c0-0.26837-0.2199-0.48826-0.48826-0.48826zm0 0.21093h1.9276c0.15465 0 0.27733 0.12267 0.27733 0.27733v1.8046c0 0.15465-0.12267 0.27733-0.27733 0.27733h-1.9276c-0.15465 0-0.27733-0.12268-0.27733-0.27733v-1.8046c0-0.15465 0.12267-0.27733 0.27733-0.27733z" color="#000000" color-rendering="auto" dominant-baseline="auto" fill="url(#linearGradient1516)" image-rendering="auto" shape-rendering="auto" solid-color="#000000" stop-color="#000000" stroke-width=".99996" style="font-feature-settings:normal;font-variant-alternates:normal;font-variant-caps:normal;font-variant-east-asian:normal;font-variant-ligatures:normal;font-variant-numeric:normal;font-variant-position:normal;font-variation-settings:normal;inline-size:0;isolation:auto;mix-blend-mode:normal;shape-margin:0;shape-padding:0;text-decoration-color:#000000;text-decoration-line:none;text-decoration-style:solid;text-indent:0;text-orientation:mixed;text-transform:none;white-space:normal"/>
  <path d="m8.6145 8.2473h1.9292c0.21151 0 0.38178 0.17027 0.38178 0.38178v1.8059c0 0.21151-0.17027 0.38178-0.38178 0.38178h-1.9292c-0.21151 0-0.38178-0.17027-0.38178-0.38178v-1.8059c0-0.21151 0.17027-0.38178 0.38178-0.38178z" color="#000000" color-rendering="auto" dominant-baseline="auto" fill="url(#linearGradient1560)" image-rendering="auto" shape-rendering="auto" solid-color="#000000" stop-color="#000000" stroke-width=".99996" style="font-feature-settings:normal;font-variant-alternates:normal;font-variant-caps:normal;font-variant-east-asian:normal;font-variant-ligatures:normal;font-variant-numeric:normal;font-variant-position:normal;font-variation-settings:normal;inline-size:0;isolation:auto;mix-blend-mode:normal;shape-margin:0;shape-padding:0;text-decoration-color:#000000;text-decoration-line:none;text-decoration-style:solid;text-indent:0;text-orientation:mixed;text-transform:none;white-space:normal"/>
  <path d="m8.6145 8.1418c-0.26837 0-0.48826 0.2199-0.48826 0.48826v1.8046c0 0.26837 0.2199 0.48826 0.48826 0.48826h1.9296c0.26837 0 0.48826-0.2199 0.48826-0.48826v-1.8046c0-0.26837-0.2199-0.48826-0.48826-0.48826zm0 0.21093h1.9296c0.15465 0 0.27538 0.12267 0.27538 0.27733v1.8046c0 0.15465-0.12072 0.27733-0.27538 0.27733h-1.9296c-0.15465 0-0.27538-0.12268-0.27538-0.27733v-1.8046c0-0.15465 0.12072-0.27733 0.27538-0.27733z" color="#000000" color-rendering="auto" dominant-baseline="auto" fill="url(#linearGradient1562)" image-rendering="auto" shape-rendering="auto" solid-color="#000000" stop-color="#000000" stroke-width=".99996" style="font-feature-settings:normal;font-variant-alternates:normal;font-variant-caps:normal;font-variant-east-asian:normal;font-variant-ligatures:normal;font-variant-numeric:normal;font-variant-position:normal;font-variation-settings:normal;inline-size:0;isolation:auto;mix-blend-mode:normal;shape-margin:0;shape-padding:0;text-decoration-color:#000000;text-decoration-line:none;text-decoration-style:solid;text-indent:0;text-orientation:mixed;text-transform:none;white-space:normal"/>
  <path d="m12.297 8.2473h1.9292c0.21151 0 0.38178 0.17027 0.38178 0.38178v1.8059c0 0.21151-0.17027 0.38178-0.38178 0.38178h-1.9292c-0.21151 0-0.38178-0.17027-0.38178-0.38178v-1.8059c0-0.21151 0.17027-0.38178 0.38178-0.38178z" color="#000000" color-rendering="auto" dominant-baseline="auto" fill="url(#linearGradient1590)" image-rendering="auto" shape-rendering="auto" solid-color="#000000" stop-color="#000000" stroke-width=".99996" style="font-feature-settings:normal;font-variant-alternates:normal;font-variant-caps:normal;font-variant-east-asian:normal;font-variant-ligatures:normal;font-variant-numeric:normal;font-variant-position:normal;font-variation-settings:normal;inline-size:0;isolation:auto;mix-blend-mode:normal;shape-margin:0;shape-padding:0;text-decoration-color:#000000;text-decoration-line:none;text-decoration-style:solid;text-indent:0;text-orientation:mixed;text-transform:none;white-space:normal"/>
  <path d="m12.296 8.1418c-0.26837 0-0.48631 0.2199-0.48631 0.48826v1.8046c0 0.26837 0.21794 0.48826 0.48631 0.48826h1.9296c0.26837 0 0.48826-0.2199 0.48826-0.48826v-1.8046c0-0.26837-0.2199-0.48826-0.48826-0.48826zm0 0.21093h1.9296c0.15465 0 0.27538 0.12267 0.27538 0.27733v1.8046c0 0.15465-0.12072 0.27733-0.27538 0.27733h-1.9296c-0.15465 0-0.27538-0.12268-0.27538-0.27733v-1.8046c0-0.15465 0.12072-0.27733 0.27538-0.27733z" color="#000000" color-rendering="auto" dominant-baseline="auto" fill="url(#linearGradient1592)" image-rendering="auto" shape-rendering="auto" solid-color="#000000" stop-color="#000000" stroke-width=".99996" style="font-feature-settings:normal;font-variant-alternates:normal;font-variant-caps:normal;font-variant-east-asian:normal;font-variant-ligatures:normal;font-variant-numeric:normal;font-variant-position:normal;font-variation-settings:normal;inline-size:0;isolation:auto;mix-blend-mode:normal;shape-margin:0;shape-padding:0;text-decoration-color:#000000;text-decoration-line:none;text-decoration-style:solid;text-indent:0;text-orientation:mixed;text-transform:none;white-space:normal"/>
  <path d="m4.823 11.949h1.9292c0.21151 0 0.38178 0.17027 0.38178 0.38178v1.8059c0 0.21151-0.17027 0.38178-0.38178 0.38178h-1.9292c-0.21151 0-0.38178-0.17027-0.38178-0.38178v-1.8059c0-0.21151 0.17027-0.38178 0.38178-0.38178z" color="#000000" color-rendering="auto" dominant-baseline="auto" fill="url(#linearGradient1620)" image-rendering="auto" shape-rendering="auto" solid-color="#000000" stop-color="#000000" stroke-width=".99996" style="font-feature-settings:normal;font-variant-alternates:normal;font-variant-caps:normal;font-variant-east-asian:normal;font-variant-ligatures:normal;font-variant-numeric:normal;font-variant-position:normal;font-variation-settings:normal;inline-size:0;isolation:auto;mix-blend-mode:normal;shape-margin:0;shape-padding:0;text-decoration-color:#000000;text-decoration-line:none;text-decoration-style:solid;text-indent:0;text-orientation:mixed;text-transform:none;white-space:normal"/>
  <path d="m4.8238 11.843c-0.26837 0-0.48826 0.21794-0.48826 0.48631v1.8065c0 0.26837 0.2199 0.48826 0.48826 0.48826h1.9276c0.26837 0 0.48826-0.21989 0.48826-0.48826v-1.8065c0-0.26837-0.2199-0.48631-0.48826-0.48631zm0 0.21093h1.9276c0.15465 0 0.27733 0.12072 0.27733 0.27538v1.8065c0 0.15465-0.12267 0.27538-0.27733 0.27538h-1.9276c-0.15465 0-0.27733-0.12072-0.27733-0.27538v-1.8065c0-0.15465 0.12267-0.27538 0.27733-0.27538z" color="#000000" color-rendering="auto" dominant-baseline="auto" fill="url(#linearGradient1622)" image-rendering="auto" shape-rendering="auto" solid-color="#000000" stop-color="#000000" stroke-width=".99996" style="font-feature-settings:normal;font-variant-alternates:normal;font-variant-caps:normal;font-variant-east-asian:normal;font-variant-ligatures:normal;font-variant-numeric:normal;font-variant-position:normal;font-variation-settings:normal;inline-size:0;isolation:auto;mix-blend-mode:normal;shape-margin:0;shape-padding:0;text-decoration-color:#000000;text-decoration-line:none;text-decoration-style:solid;text-indent:0;text-orientation:mixed;text-transform:none;white-space:normal"/>
  <path d="m8.6145 11.949h1.9292c0.21151 0 0.38178 0.17027 0.38178 0.38178v1.8059c0 0.21151-0.17027 0.38178-0.38178 0.38178h-1.9292c-0.21151 0-0.38178-0.17027-0.38178-0.38178v-1.8059c0-0.21151 0.17027-0.38178 0.38178-0.38178z" color="#000000" color-rendering="auto" dominant-baseline="auto" fill="url(#linearGradient1653)" image-rendering="auto" shape-rendering="auto" solid-color="#000000" stop-color="#000000" stroke-width=".99996" style="font-feature-settings:normal;font-variant-alternates:normal;font-variant-caps:normal;font-variant-east-asian:normal;font-variant-ligatures:normal;font-variant-numeric:normal;font-variant-position:normal;font-variation-settings:normal;inline-size:0;isolation:auto;mix-blend-mode:normal;shape-margin:0;shape-padding:0;text-decoration-color:#000000;text-decoration-line:none;text-decoration-style:solid;text-indent:0;text-orientation:mixed;text-transform:none;white-space:normal"/>
  <path d="m8.6145 11.843c-0.26837 0-0.48826 0.21794-0.48826 0.48631v1.8065c0 0.26837 0.2199 0.48826 0.48826 0.48826h1.9296c0.26837 0 0.48826-0.21989 0.48826-0.48826v-1.8065c0-0.26837-0.2199-0.48631-0.48826-0.48631zm0 0.21093h1.9296c0.15465 0 0.27538 0.12072 0.27538 0.27538v1.8065c0 0.15465-0.12072 0.27538-0.27538 0.27538h-1.9296c-0.15465 0-0.27538-0.12072-0.27538-0.27538v-1.8065c0-0.15465 0.12072-0.27538 0.27538-0.27538z" color="#000000" color-rendering="auto" dominant-baseline="auto" fill="url(#linearGradient1655)" image-rendering="auto" shape-rendering="auto" solid-color="#000000" stop-color="#000000" stroke-width=".99996" style="font-feature-settings:normal;font-variant-alternates:normal;font-variant-caps:normal;font-variant-east-asian:normal;font-variant-ligatures:normal;font-variant-numeric:normal;font-variant-position:normal;font-variation-settings:normal;inline-size:0;isolation:auto;mix-blend-mode:normal;shape-margin:0;shape-padding:0;text-decoration-color:#000000;text-decoration-line:none;text-decoration-style:solid;text-indent:0;text-orientation:mixed;text-transform:none;white-space:normal"/>
  <path d="m12.297 11.949h1.9292c0.21151 0 0.38178 0.17027 0.38178 0.38178v1.8059c0 0.21151-0.17027 0.38178-0.38178 0.38178h-1.9292c-0.21151 0-0.38178-0.17027-0.38178-0.38178v-1.8059c0-0.21151 0.17027-0.38178 0.38178-0.38178z" color="#000000" color-rendering="auto" dominant-baseline="auto" fill="url(#linearGradient1685)" image-rendering="auto" shape-rendering="auto" solid-color="#000000" stop-color="#000000" stroke-width=".99996" style="font-feature-settings:normal;font-variant-alternates:normal;font-variant-caps:normal;font-variant-east-asian:normal;font-variant-ligatures:normal;font-variant-numeric:normal;font-variant-position:normal;font-variation-settings:normal;inline-size:0;isolation:auto;mix-blend-mode:normal;shape-margin:0;shape-padding:0;text-decoration-color:#000000;text-decoration-line:none;text-decoration-style:solid;text-indent:0;text-orientation:mixed;text-transform:none;white-space:normal"/>
  <path d="m12.296 11.843c-0.26837 0-0.48631 0.21794-0.48631 0.48631v1.8065c0 0.26837 0.21794 0.48826 0.48631 0.48826h1.9296c0.26837 0 0.48826-0.21989 0.48826-0.48826v-1.8065c0-0.26837-0.2199-0.48631-0.48826-0.48631zm0 0.21093h1.9296c0.15465 0 0.27538 0.12072 0.27538 0.27538v1.8065c0 0.15465-0.12072 0.27538-0.27538 0.27538h-1.9296c-0.15465 0-0.27538-0.12072-0.27538-0.27538v-1.8065c0-0.15465 0.12072-0.27538 0.27538-0.27538z" color="#000000" color-rendering="auto" dominant-baseline="auto" fill="url(#linearGradient1687)" image-rendering="auto" shape-rendering="auto" solid-color="#000000" stop-color="#000000" stroke-width=".99996" style="font-feature-settings:normal;font-variant-alternates:normal;font-variant-caps:normal;font-variant-east-asian:normal;font-variant-ligatures:normal;font-variant-numeric:normal;font-variant-position:normal;font-variation-settings:normal;inline-size:0;isolation:auto;mix-blend-mode:normal;shape-margin:0;shape-padding:0;text-decoration-color:#000000;text-decoration-line:none;text-decoration-style:solid;text-indent:0;text-orientation:mixed;text-transform:none;white-space:normal"/>
 </g>
 <style><![CDATA[.B{clip-path:url(#C)}.C{fill:#3e2723}.D{fill-opacity:.15}.E{fill-opacity:.2}]]></style>
 <style><![CDATA[.B{clip-path:url(#C)}.C{fill:#3e2723}.D{fill-opacity:.15}.E{fill-opacity:.2}]]></style>
</svg>
