<svg xmlns="http://www.w3.org/2000/svg" width="64" height="64"><defs><linearGradient id="d" x1="34.705" x2="34.705" y1="-30.727" y2="-38.74" gradientTransform="translate(.515 15.046)scale(.26484)" gradientUnits="userSpaceOnUse"><stop offset="0" stop-color="#efb63f"/><stop offset="1" stop-color="#f8d650"/></linearGradient><linearGradient id="e" x1="32.125" x2="32.125" y1="-29.828" y2="-39.838" gradientTransform="translate(.515 15.046)scale(.26484)" gradientUnits="userSpaceOnUse"><stop offset="0" stop-color="#a88a47"/><stop offset="1" stop-color="#d7cfa7"/></linearGradient><linearGradient id="f" x1="34.705" x2="34.705" y1="-30.727" y2="-38.74" gradientTransform="translate(-3.276 15.046)scale(.26484)" gradientUnits="userSpaceOnUse"><stop offset="0" stop-color="#68d848"/><stop offset="1" stop-color="#99f27b"/></linearGradient><linearGradient id="g" x1="32.125" x2="32.125" y1="-29.828" y2="-39.838" gradientTransform="translate(-3.276 15.046)scale(.26484)" gradientUnits="userSpaceOnUse"><stop offset="0" stop-color="#5a9555"/><stop offset="1" stop-color="#ccf4bd"/></linearGradient><linearGradient id="h" x1="34.705" x2="34.705" y1="-30.727" y2="-38.74" gradientTransform="translate(4.198 15.046)scale(.26484)" gradientUnits="userSpaceOnUse"><stop offset="0" stop-color="#e07f3e"/><stop offset="1" stop-color="#f1a73e"/></linearGradient><linearGradient id="i" x1="32.125" x2="32.125" y1="-29.828" y2="-39.838" gradientTransform="translate(4.198 15.046)scale(.26484)" gradientUnits="userSpaceOnUse"><stop offset="0" stop-color="#ae714f"/><stop offset="1" stop-color="#ffdc8f"/></linearGradient><linearGradient id="j" x1="34.705" x2="34.705" y1="-30.727" y2="-38.74" gradientTransform="translate(-3.276 18.745)scale(.26484)" gradientUnits="userSpaceOnUse"><stop offset="0" stop-color="#b9281b"/><stop offset="1" stop-color="#e54e3b"/></linearGradient><linearGradient id="k" x1="32.125" x2="32.125" y1="-29.828" y2="-39.838" gradientTransform="translate(-3.276 18.745)scale(.26484)" gradientUnits="userSpaceOnUse"><stop offset="0" stop-color="#84281e"/><stop offset="1" stop-color="#df8881"/></linearGradient><linearGradient id="l" x1="34.705" x2="34.705" y1="-30.727" y2="-38.74" gradientTransform="translate(.515 18.745)scale(.26484)" gradientUnits="userSpaceOnUse"><stop offset="0" stop-color="#878887"/><stop offset="1" stop-color="#d8e3e9"/></linearGradient><linearGradient id="m" x1="32.125" x2="32.125" y1="-29.828" y2="-39.838" gradientTransform="translate(.515 18.745)scale(.26484)" gradientUnits="userSpaceOnUse"><stop offset="0" stop-color="#6c6c6a"/><stop offset="1" stop-color="#e3ebef"/></linearGradient><linearGradient id="n" x1="34.705" x2="34.705" y1="-30.727" y2="-38.74" gradientTransform="translate(4.198 18.745)scale(.26484)" gradientUnits="userSpaceOnUse"><stop offset="0" stop-color="#e76872"/><stop offset="1" stop-color="#ea4f66"/></linearGradient><linearGradient id="o" x1="32.125" x2="32.125" y1="-29.828" y2="-39.838" gradientTransform="translate(4.198 18.745)scale(.26484)" gradientUnits="userSpaceOnUse"><stop offset="0" stop-color="#ab5863"/><stop offset="1" stop-color="#d7798a"/></linearGradient><linearGradient id="p" x1="34.705" x2="34.705" y1="-30.727" y2="-38.74" gradientTransform="translate(-3.276 22.445)scale(.26484)" gradientUnits="userSpaceOnUse"><stop offset="0" stop-color="#783bb3"/><stop offset="1" stop-color="#b76de6"/></linearGradient><linearGradient id="q" x1="32.125" x2="32.125" y1="-29.828" y2="-39.838" gradientTransform="translate(-3.276 22.445)scale(.26484)" gradientUnits="userSpaceOnUse"><stop offset="0" stop-color="#4b2677"/><stop offset=".946" stop-color="#b481d5"/><stop offset="1" stop-color="#ddc9ec"/></linearGradient><linearGradient id="r" x1="34.705" x2="34.705" y1="-30.727" y2="-38.74" gradientTransform="translate(.515 22.445)scale(.26484)" gradientUnits="userSpaceOnUse"><stop offset="0" stop-color="#3468e0"/><stop offset="1" stop-color="#61dafc"/></linearGradient><linearGradient id="s" x1="32.125" x2="32.125" y1="-29.828" y2="-39.838" gradientTransform="translate(.515 22.445)scale(.26484)" gradientUnits="userSpaceOnUse"><stop offset="0" stop-color="#29438e"/><stop offset=".946" stop-color="#90dcec"/><stop offset="1" stop-color="#abe2eb"/></linearGradient><linearGradient id="t" x1="34.705" x2="34.705" y1="-30.727" y2="-38.74" gradientTransform="translate(4.198 22.445)scale(.26484)" gradientUnits="userSpaceOnUse"><stop offset="0" stop-color="#5bc18f"/><stop offset="1" stop-color="#84e4dd"/></linearGradient><linearGradient id="u" x1="32.125" x2="32.125" y1="-29.828" y2="-39.838" gradientTransform="translate(4.198 22.445)scale(.26484)" gradientUnits="userSpaceOnUse"><stop offset="0" stop-color="#3f8264"/><stop offset=".946" stop-color="#a2e1e0"/><stop offset="1" stop-color="#b8e4e2"/></linearGradient><linearGradient id="b" x1="7.937" x2="7.937" y1="15.081" y2="1.852" gradientTransform="translate(-2.286 -2.252)scale(4.0494)" gradientUnits="userSpaceOnUse"><stop offset="0" stop-color="#f1efeb"/><stop offset="1" stop-color="#fdfcfc"/></linearGradient><filter id="c" width="1.886" height="1.929" x="-.443" y="-.464" color-interpolation-filters="sRGB"><feGaussianBlur stdDeviation=".453"/></filter><filter id="a" width="1.054" height="1.054" x="-.027" y="-.027" color-interpolation-filters="sRGB"><feGaussianBlur stdDeviation=".675"/></filter></defs><rect width="60" height="60" x="2" y="3" filter="url(#a)" opacity=".15" rx="30" ry="30"/><rect width="60" height="60" x="2" y="2" fill="url(#b)" rx="30" ry="30"/><g transform="translate(-4 -4.029)scale(3.7796)"><rect width="2.693" height="2.57" x="7.149" y="3.477" stroke="#000" stroke-dashoffset="1" stroke-linecap="round" stroke-linejoin="round" stroke-width=".212" filter="url(#c)" opacity=".15" rx=".382" ry=".382" transform="translate(1.085 1.558)scale(.99996)"/><rect width="2.693" height="2.57" x="3.357" y="3.477" stroke="#000" stroke-dashoffset="1" stroke-linecap="round" stroke-linejoin="round" stroke-width=".212" filter="url(#c)" opacity=".15" rx=".382" ry=".382" transform="translate(1.085 1.558)scale(.99996)"/><rect width="2.693" height="2.57" x="10.831" y="3.477" stroke="#000" stroke-dashoffset="1" stroke-linecap="round" stroke-linejoin="round" stroke-width=".212" filter="url(#c)" opacity=".15" rx=".382" ry=".382" transform="translate(1.085 1.558)scale(.99996)"/><rect width="2.693" height="2.57" x="3.357" y="7.177" stroke="#000" stroke-dashoffset="1" stroke-linecap="round" stroke-linejoin="round" stroke-width=".212" filter="url(#c)" opacity=".15" rx=".382" ry=".382" transform="translate(1.085 1.558)scale(.99996)"/><rect width="2.693" height="2.57" x="7.149" y="7.177" stroke="#000" stroke-dashoffset="1" stroke-linecap="round" stroke-linejoin="round" stroke-width=".212" filter="url(#c)" opacity=".15" rx=".382" ry=".382" transform="translate(1.085 1.558)scale(.99996)"/><rect width="2.693" height="2.57" x="10.831" y="7.177" stroke="#000" stroke-dashoffset="1" stroke-linecap="round" stroke-linejoin="round" stroke-width=".212" filter="url(#c)" opacity=".15" rx=".382" ry=".382" transform="translate(1.085 1.558)scale(.99996)"/><rect width="2.693" height="2.57" x="3.357" y="10.878" stroke="#000" stroke-dashoffset="1" stroke-linecap="round" stroke-linejoin="round" stroke-width=".212" filter="url(#c)" opacity=".15" rx=".382" ry=".382" transform="translate(1.085 1.558)scale(.99996)"/><rect width="2.693" height="2.57" x="7.149" y="10.878" stroke="#000" stroke-dashoffset="1" stroke-linecap="round" stroke-linejoin="round" stroke-width=".212" filter="url(#c)" opacity=".15" rx=".382" ry=".382" transform="translate(1.085 1.558)scale(.99996)"/><rect width="2.693" height="2.57" x="10.831" y="10.878" stroke="#000" stroke-dashoffset="1" stroke-linecap="round" stroke-linejoin="round" stroke-width=".212" filter="url(#c)" opacity=".15" rx=".382" ry=".382" transform="translate(1.085 1.558)scale(.99996)"/><path fill="url(#d)" d="M8.614 4.547h1.93a.38.38 0 0 1 .381.382v1.806a.38.38 0 0 1-.381.382h-1.93a.38.38 0 0 1-.381-.382V4.93a.38.38 0 0 1 .381-.382z" color="#000" style="font-feature-settings:normal;font-variant-alternates:normal;font-variant-caps:normal;font-variant-east-asian:normal;font-variant-ligatures:normal;font-variant-numeric:normal;font-variant-position:normal;font-variation-settings:normal;inline-size:0;isolation:auto;mix-blend-mode:normal;shape-margin:0;shape-padding:0;text-decoration-color:#000;text-decoration-line:none;text-decoration-style:solid;text-indent:0;text-orientation:mixed;text-transform:none;white-space:normal"/><path fill="url(#e)" d="M8.614 4.44a.49.49 0 0 0-.488.49v1.806c0 .268.22.486.488.486h1.93a.49.49 0 0 0 .488-.486V4.929a.49.49 0 0 0-.488-.488zm0 .214h1.93c.155 0 .275.12.275.275v1.807c0 .154-.12.275-.275.275h-1.93a.27.27 0 0 1-.275-.275V4.929c0-.155.12-.275.275-.275" color="#000" style="font-feature-settings:normal;font-variant-alternates:normal;font-variant-caps:normal;font-variant-east-asian:normal;font-variant-ligatures:normal;font-variant-numeric:normal;font-variant-position:normal;font-variation-settings:normal;inline-size:0;isolation:auto;mix-blend-mode:normal;shape-margin:0;shape-padding:0;text-decoration-color:#000;text-decoration-line:none;text-decoration-style:solid;text-indent:0;text-orientation:mixed;text-transform:none;white-space:normal"/><path fill="url(#f)" d="M4.823 4.547h1.93a.38.38 0 0 1 .381.382v1.806a.38.38 0 0 1-.382.382H4.823a.38.38 0 0 1-.382-.382V4.93a.38.38 0 0 1 .382-.382z" color="#000" style="font-feature-settings:normal;font-variant-alternates:normal;font-variant-caps:normal;font-variant-east-asian:normal;font-variant-ligatures:normal;font-variant-numeric:normal;font-variant-position:normal;font-variation-settings:normal;inline-size:0;isolation:auto;mix-blend-mode:normal;shape-margin:0;shape-padding:0;text-decoration-color:#000;text-decoration-line:none;text-decoration-style:solid;text-indent:0;text-orientation:mixed;text-transform:none;white-space:normal"/><path fill="url(#g)" d="M4.824 4.44a.49.49 0 0 0-.488.49v1.806c0 .268.22.486.488.486H6.75a.49.49 0 0 0 .489-.486V4.929a.49.49 0 0 0-.489-.488zm0 .214H6.75c.155 0 .278.12.278.275v1.807a.274.274 0 0 1-.278.275H4.824a.274.274 0 0 1-.278-.275V4.929c0-.155.123-.275.278-.275" color="#000" style="font-feature-settings:normal;font-variant-alternates:normal;font-variant-caps:normal;font-variant-east-asian:normal;font-variant-ligatures:normal;font-variant-numeric:normal;font-variant-position:normal;font-variation-settings:normal;inline-size:0;isolation:auto;mix-blend-mode:normal;shape-margin:0;shape-padding:0;text-decoration-color:#000;text-decoration-line:none;text-decoration-style:solid;text-indent:0;text-orientation:mixed;text-transform:none;white-space:normal"/><path fill="url(#h)" d="M12.297 4.547h1.93a.38.38 0 0 1 .381.382v1.806a.38.38 0 0 1-.382.382h-1.929a.38.38 0 0 1-.382-.382V4.93a.38.38 0 0 1 .382-.382z" color="#000" style="font-feature-settings:normal;font-variant-alternates:normal;font-variant-caps:normal;font-variant-east-asian:normal;font-variant-ligatures:normal;font-variant-numeric:normal;font-variant-position:normal;font-variation-settings:normal;inline-size:0;isolation:auto;mix-blend-mode:normal;shape-margin:0;shape-padding:0;text-decoration-color:#000;text-decoration-line:none;text-decoration-style:solid;text-indent:0;text-orientation:mixed;text-transform:none;white-space:normal"/><path fill="url(#i)" d="M12.296 4.44a.49.49 0 0 0-.486.49v1.806c0 .268.218.486.486.486h1.93a.49.49 0 0 0 .488-.486V4.929a.49.49 0 0 0-.488-.488zm0 .214h1.93c.154 0 .275.12.275.275v1.807c0 .154-.12.275-.275.275h-1.93a.27.27 0 0 1-.275-.275V4.929c0-.155.12-.275.275-.275" color="#000" style="font-feature-settings:normal;font-variant-alternates:normal;font-variant-caps:normal;font-variant-east-asian:normal;font-variant-ligatures:normal;font-variant-numeric:normal;font-variant-position:normal;font-variation-settings:normal;inline-size:0;isolation:auto;mix-blend-mode:normal;shape-margin:0;shape-padding:0;text-decoration-color:#000;text-decoration-line:none;text-decoration-style:solid;text-indent:0;text-orientation:mixed;text-transform:none;white-space:normal"/><path fill="url(#j)" d="M4.823 8.247h1.93a.38.38 0 0 1 .381.382v1.806a.38.38 0 0 1-.382.382H4.823a.38.38 0 0 1-.382-.382V8.629a.38.38 0 0 1 .382-.382" color="#000" style="font-feature-settings:normal;font-variant-alternates:normal;font-variant-caps:normal;font-variant-east-asian:normal;font-variant-ligatures:normal;font-variant-numeric:normal;font-variant-position:normal;font-variation-settings:normal;inline-size:0;isolation:auto;mix-blend-mode:normal;shape-margin:0;shape-padding:0;text-decoration-color:#000;text-decoration-line:none;text-decoration-style:solid;text-indent:0;text-orientation:mixed;text-transform:none;white-space:normal"/><path fill="url(#k)" d="M4.824 8.142a.49.49 0 0 0-.488.488v1.805c0 .268.22.488.488.488H6.75a.49.49 0 0 0 .489-.488V8.63a.49.49 0 0 0-.489-.488zm0 .21H6.75c.155 0 .278.123.278.278v1.805a.275.275 0 0 1-.278.277H4.824a.275.275 0 0 1-.278-.277V8.63c0-.155.123-.277.278-.277z" color="#000" style="font-feature-settings:normal;font-variant-alternates:normal;font-variant-caps:normal;font-variant-east-asian:normal;font-variant-ligatures:normal;font-variant-numeric:normal;font-variant-position:normal;font-variation-settings:normal;inline-size:0;isolation:auto;mix-blend-mode:normal;shape-margin:0;shape-padding:0;text-decoration-color:#000;text-decoration-line:none;text-decoration-style:solid;text-indent:0;text-orientation:mixed;text-transform:none;white-space:normal"/><path fill="url(#l)" d="M8.614 8.247h1.93a.38.38 0 0 1 .381.382v1.806a.38.38 0 0 1-.381.382h-1.93a.38.38 0 0 1-.381-.382V8.629a.38.38 0 0 1 .381-.382" color="#000" style="font-feature-settings:normal;font-variant-alternates:normal;font-variant-caps:normal;font-variant-east-asian:normal;font-variant-ligatures:normal;font-variant-numeric:normal;font-variant-position:normal;font-variation-settings:normal;inline-size:0;isolation:auto;mix-blend-mode:normal;shape-margin:0;shape-padding:0;text-decoration-color:#000;text-decoration-line:none;text-decoration-style:solid;text-indent:0;text-orientation:mixed;text-transform:none;white-space:normal"/><path fill="url(#m)" d="M8.614 8.142a.49.49 0 0 0-.488.488v1.805c0 .268.22.488.488.488h1.93a.49.49 0 0 0 .488-.488V8.63a.49.49 0 0 0-.488-.488zm0 .21h1.93c.155 0 .275.123.275.278v1.805c0 .154-.12.277-.275.277h-1.93a.274.274 0 0 1-.275-.277V8.63c0-.155.12-.277.275-.277z" color="#000" style="font-feature-settings:normal;font-variant-alternates:normal;font-variant-caps:normal;font-variant-east-asian:normal;font-variant-ligatures:normal;font-variant-numeric:normal;font-variant-position:normal;font-variation-settings:normal;inline-size:0;isolation:auto;mix-blend-mode:normal;shape-margin:0;shape-padding:0;text-decoration-color:#000;text-decoration-line:none;text-decoration-style:solid;text-indent:0;text-orientation:mixed;text-transform:none;white-space:normal"/><path fill="url(#n)" d="M12.297 8.247h1.93a.38.38 0 0 1 .381.382v1.806a.38.38 0 0 1-.382.382h-1.929a.38.38 0 0 1-.382-.382V8.629a.38.38 0 0 1 .382-.382" color="#000" style="font-feature-settings:normal;font-variant-alternates:normal;font-variant-caps:normal;font-variant-east-asian:normal;font-variant-ligatures:normal;font-variant-numeric:normal;font-variant-position:normal;font-variation-settings:normal;inline-size:0;isolation:auto;mix-blend-mode:normal;shape-margin:0;shape-padding:0;text-decoration-color:#000;text-decoration-line:none;text-decoration-style:solid;text-indent:0;text-orientation:mixed;text-transform:none;white-space:normal"/><path fill="url(#o)" d="M12.296 8.142a.49.49 0 0 0-.486.488v1.805c0 .268.218.488.486.488h1.93a.49.49 0 0 0 .488-.488V8.63a.49.49 0 0 0-.488-.488zm0 .21h1.93c.154 0 .275.123.275.278v1.805c0 .154-.12.277-.275.277h-1.93a.274.274 0 0 1-.275-.277V8.63c0-.155.12-.277.275-.277z" color="#000" style="font-feature-settings:normal;font-variant-alternates:normal;font-variant-caps:normal;font-variant-east-asian:normal;font-variant-ligatures:normal;font-variant-numeric:normal;font-variant-position:normal;font-variation-settings:normal;inline-size:0;isolation:auto;mix-blend-mode:normal;shape-margin:0;shape-padding:0;text-decoration-color:#000;text-decoration-line:none;text-decoration-style:solid;text-indent:0;text-orientation:mixed;text-transform:none;white-space:normal"/><path fill="url(#p)" d="M4.823 11.949h1.93a.38.38 0 0 1 .381.382v1.806a.38.38 0 0 1-.382.381H4.823a.38.38 0 0 1-.382-.381V12.33a.38.38 0 0 1 .382-.382z" color="#000" style="font-feature-settings:normal;font-variant-alternates:normal;font-variant-caps:normal;font-variant-east-asian:normal;font-variant-ligatures:normal;font-variant-numeric:normal;font-variant-position:normal;font-variation-settings:normal;inline-size:0;isolation:auto;mix-blend-mode:normal;shape-margin:0;shape-padding:0;text-decoration-color:#000;text-decoration-line:none;text-decoration-style:solid;text-indent:0;text-orientation:mixed;text-transform:none;white-space:normal"/><path fill="url(#q)" d="M4.824 11.843a.49.49 0 0 0-.488.486v1.807c0 .268.22.488.488.488H6.75a.49.49 0 0 0 .489-.488v-1.807a.49.49 0 0 0-.489-.486zm0 .21H6.75c.155 0 .278.122.278.276v1.807a.274.274 0 0 1-.278.275H4.824a.274.274 0 0 1-.278-.275v-1.807c0-.154.123-.275.278-.275z" color="#000" style="font-feature-settings:normal;font-variant-alternates:normal;font-variant-caps:normal;font-variant-east-asian:normal;font-variant-ligatures:normal;font-variant-numeric:normal;font-variant-position:normal;font-variation-settings:normal;inline-size:0;isolation:auto;mix-blend-mode:normal;shape-margin:0;shape-padding:0;text-decoration-color:#000;text-decoration-line:none;text-decoration-style:solid;text-indent:0;text-orientation:mixed;text-transform:none;white-space:normal"/><path fill="url(#r)" d="M8.614 11.949h1.93a.38.38 0 0 1 .381.382v1.806a.38.38 0 0 1-.381.381h-1.93a.38.38 0 0 1-.381-.381V12.33a.38.38 0 0 1 .381-.382z" color="#000" style="font-feature-settings:normal;font-variant-alternates:normal;font-variant-caps:normal;font-variant-east-asian:normal;font-variant-ligatures:normal;font-variant-numeric:normal;font-variant-position:normal;font-variation-settings:normal;inline-size:0;isolation:auto;mix-blend-mode:normal;shape-margin:0;shape-padding:0;text-decoration-color:#000;text-decoration-line:none;text-decoration-style:solid;text-indent:0;text-orientation:mixed;text-transform:none;white-space:normal"/><path fill="url(#s)" d="M8.614 11.843a.49.49 0 0 0-.488.486v1.807c0 .268.22.488.488.488h1.93a.49.49 0 0 0 .488-.488v-1.807a.49.49 0 0 0-.488-.486zm0 .21h1.93c.155 0 .275.122.275.276v1.807c0 .154-.12.275-.275.275h-1.93a.27.27 0 0 1-.275-.275v-1.807c0-.154.12-.275.275-.275z" color="#000" style="font-feature-settings:normal;font-variant-alternates:normal;font-variant-caps:normal;font-variant-east-asian:normal;font-variant-ligatures:normal;font-variant-numeric:normal;font-variant-position:normal;font-variation-settings:normal;inline-size:0;isolation:auto;mix-blend-mode:normal;shape-margin:0;shape-padding:0;text-decoration-color:#000;text-decoration-line:none;text-decoration-style:solid;text-indent:0;text-orientation:mixed;text-transform:none;white-space:normal"/><path fill="url(#t)" d="M12.297 11.949h1.93a.38.38 0 0 1 .381.382v1.806a.38.38 0 0 1-.382.381h-1.929a.38.38 0 0 1-.382-.381V12.33a.38.38 0 0 1 .382-.382z" color="#000" style="font-feature-settings:normal;font-variant-alternates:normal;font-variant-caps:normal;font-variant-east-asian:normal;font-variant-ligatures:normal;font-variant-numeric:normal;font-variant-position:normal;font-variation-settings:normal;inline-size:0;isolation:auto;mix-blend-mode:normal;shape-margin:0;shape-padding:0;text-decoration-color:#000;text-decoration-line:none;text-decoration-style:solid;text-indent:0;text-orientation:mixed;text-transform:none;white-space:normal"/><path fill="url(#u)" d="M12.296 11.843a.487.487 0 0 0-.486.486v1.807c0 .268.218.488.486.488h1.93a.49.49 0 0 0 .488-.488v-1.807a.49.49 0 0 0-.488-.486zm0 .21h1.93c.154 0 .275.122.275.276v1.807c0 .154-.12.275-.275.275h-1.93a.27.27 0 0 1-.275-.275v-1.807c0-.154.12-.275.275-.275z" color="#000" style="font-feature-settings:normal;font-variant-alternates:normal;font-variant-caps:normal;font-variant-east-asian:normal;font-variant-ligatures:normal;font-variant-numeric:normal;font-variant-position:normal;font-variation-settings:normal;inline-size:0;isolation:auto;mix-blend-mode:normal;shape-margin:0;shape-padding:0;text-decoration-color:#000;text-decoration-line:none;text-decoration-style:solid;text-indent:0;text-orientation:mixed;text-transform:none;white-space:normal"/></g></svg>