<svg xmlns="http://www.w3.org/2000/svg" width="64" height="64" enable-background="new 0 0 1024 1024" image-rendering="optimizeSpeed"><defs><filter id="a" width="1.072" height="1.072" x="-.036" y="-.036" color-interpolation-filters="sRGB"><feGaussianBlur stdDeviation="14.344"/></filter><filter id="d" width="1.128" height="1.113" x="-.064" y="-.056" color-interpolation-filters="sRGB"><feGaussianBlur stdDeviation=".8"/></filter><filter id="f" width="1.028" height="1.028" x="-.014" y="-.014" color-interpolation-filters="sRGB"><feGaussianBlur stdDeviation=".298"/></filter><filter id="g" width="1.059" height="1.059" x="-.03" y="-.03" color-interpolation-filters="sRGB"><feGaussianBlur stdDeviation=".298"/></filter><linearGradient id="b" x1="520" x2="520" y1="4" y2="1024" gradientTransform="translate(-3.527 -3.596)scale(.06946)" gradientUnits="userSpaceOnUse"><stop offset="0" stop-color="#141414"/><stop offset="1" stop-color="#565656"/></linearGradient><linearGradient id="e" x1="98.123" x2="510.56" y1="1517.5" y2="828.58" gradientTransform="matrix(.04232 0 0 .04066 28.527 -10.936)" gradientUnits="userSpaceOnUse"><stop offset="0" stop-color="#7ccbea"/><stop offset="1" stop-color="#00b9ff"/></linearGradient></defs><circle cx="512" cy="512" r="478.12" filter="url(#a)" opacity=".25" style="paint-order:stroke markers fill" transform="translate(-.125 -.125)scale(.06274)"/><circle cx="32" cy="32" r="30" fill="url(#b)" style="paint-order:stroke markers fill"/><path fill-rule="evenodd" d="m32 20.4-15 9v16l15 9 15-9v-16z" filter="url(#d)" opacity=".15" transform="translate(-5.886 -10.842)scale(1.1839)"/><path fill="url(#e)" fill-rule="evenodd" d="M32 11.6 14 22.4v19.2l18 10.8 18-10.8V22.4z"/><path d="M14 22.4 32 32v20.4L14 41.6z" opacity=".1"/><path fill="#fff" d="M50 22.4 32 32v20.4l18-10.8z" opacity=".1"/><path fill="#fff" fill-opacity=".801" d="M25.468 39.431c-.138.124-.391.144-.566.043l-1.936-1.118c-.158-.091-.2-.25-.097-.374l1.597-1.95-5.681 4.11a.52.52 0 0 1-.51.032l-.027-.015c-.141-.08-.192-.219-.121-.339l1.862-3.207-2.536.789a.51.51 0 0 1-.45-.064c-.118-.087-.15-.215-.081-.324l1.064-1.693-2.382-1.375c-.174-.1-.204-.284-.067-.408.138-.125.393-.143.566-.043l2.629 1.517c.145.083.194.227.117.348l-.76 1.209 2.494-.776a.52.52 0 0 1 .446.06c.116.084.153.21.091.32l-1.453 2.503 6.504-4.702a.52.52 0 0 1 .53-.022c.167.114.205.253.102.378l-3.062 3.735 1.661.958c.174.101.204.284.066.408m1.923.74-1-.577c-.174-.1-.429-.081-.566.043-.138.124-.108.308.066.408l1 .578c.174.1.428.08.566-.043.138-.124.107-.308-.066-.408m2.153 1.243L28.48 40.8c-.174-.1-.428-.081-.566.043s-.107.308.066.408l1.066.615c.172.1.428.08.565-.043.138-.124.107-.308-.067-.409"/><path fill="#fff" d="M10.787 10.787a29.934 29.934 0 0 0 0 42.426c.119.119.242.23.362.345-11.4-11.775-11.288-30.43.345-42.065S41.784-.25 53.56 11.148c-.116-.12-.227-.243-.345-.362a29.934 29.934 0 0 0-42.426 0z" filter="url(#f)" opacity=".15"/><path fill="#fff" d="M37.435 61.526c5.772-1.063 11.297-3.831 15.779-8.313s7.25-10.007 8.313-15.779c-1.592 5.434-4.606 10.657-9.02 15.072s-9.639 7.428-15.072 9.02" filter="url(#g)" opacity=".15"/></svg>