<svg width="64" height="64" version="1" xmlns="http://www.w3.org/2000/svg">
 <defs>
  <linearGradient id="linearGradient899" x1="-39.605" x2="-39.605" y1="58.247" y2="6.9877" gradientTransform="translate(70.543 .41975)" gradientUnits="userSpaceOnUse">
   <stop stop-color="#353637" offset="0"/>
   <stop stop-color="#6c6c6c" offset="1"/>
  </linearGradient>
  <filter id="filter1261" x="-.10671" y="-.10932" width="1.2134" height="1.2186" color-interpolation-filters="sRGB">
   <feGaussianBlur stdDeviation="1.6896429"/>
  </filter>
  <filter id="filter1415" x="-.041647" y="-.056639" width="1.0833" height="1.1133" color-interpolation-filters="sRGB">
   <feGaussianBlur stdDeviation="0.53379635"/>
  </filter>
 </defs>
 <circle cx="32" cy="32" r="30" fill="url(#linearGradient899)" stroke-linecap="square" stroke-width="2.2881" style="isolation:isolate;paint-order:stroke fill markers"/>
 <path d="m14.766 14.809c-0.97842 0-1.7656 0.78916-1.7656 1.7676v33.562c0 0.97842 0.78721 1.7656 1.7656 1.7656h1.8965c0.97842 0 1.7656-0.78721 1.7656-1.7656 0 0.97842 0.78916 1.7656 1.7676 1.7656h1.8965c0.97842 0 1.7656-0.78721 1.7656-1.7656 0 0.97842 0.78721 1.7656 1.7656 1.7656h1.8965c0.97842 0 1.7656-0.78721 1.7656-1.7656 0 0.97842 0.78916 1.7656 1.7676 1.7656h1.8945c0.97842 0 1.7676-0.78721 1.7676-1.7656 0 0.97842 0.78721 1.7656 1.7656 1.7656h1.8965c0.97842 0 1.7656-0.78721 1.7656-1.7656 0 0.97842 0.78721 1.7656 1.7656 1.7656h1.8965c0.97842 0 1.7676-0.78721 1.7676-1.7656 0 0.97842 0.78721 1.7656 1.7656 1.7656h1.8965c0.97842 0 1.7656-0.78721 1.7656-1.7656v-33.562c0-0.97842-0.78721-1.7676-1.7656-1.7676h-1.8965c-0.97842 0-1.7656 0.78916-1.7656 1.7676 0-0.97842-0.78916-1.7676-1.7676-1.7676h-1.8965c-0.97842 0-1.7656 0.78916-1.7656 1.7676 0-0.97842-0.78721-1.7676-1.7656-1.7676h-1.8965c-0.97842 0-1.7656 0.78916-1.7656 1.7676 0-0.97842-0.78916-1.7676-1.7676-1.7676h-1.8945c-0.97842 0-1.7676 0.78916-1.7676 1.7676 0-0.97842-0.78721-1.7676-1.7656-1.7676h-1.8965c-0.97842 0-1.7656 0.78916-1.7656 1.7676 0-0.97842-0.78721-1.7676-1.7656-1.7676h-1.8965c-0.97842 0-1.7676 0.78916-1.7676 1.7676 0-0.97842-0.78721-1.7676-1.7656-1.7676h-1.8965z" filter="url(#filter1261)" opacity=".2" stroke-width=".90476"/>
 <rect x="13" y="13.905" width="5.4286" height="37.095" ry="1.7661" fill="#d8d8d8" stroke-width=".90476"/>
 <rect x="18.429" y="13.905" width="5.4286" height="37.095" ry="1.7661" fill="#ffffff" stroke-width=".90476"/>
 <rect x="23.857" y="13.905" width="5.4286" height="37.095" ry="1.7661" fill="#d8d8d8" stroke-width=".90476"/>
 <rect x="29.286" y="13.905" width="5.4286" height="37.095" ry="1.7661" fill="#ffffff" stroke-width=".90476"/>
 <rect x="34.714" y="13.905" width="5.4286" height="37.095" ry="1.7661" fill="#d8d8d8" stroke-width=".90476"/>
 <rect x="40.143" y="13.905" width="5.4286" height="37.095" ry="1.7661" fill="#ffffff" stroke-width=".90476"/>
 <rect x="45.571" y="13.905" width="5.4286" height="37.095" ry="1.7661" fill="#d8d8d8" stroke-width=".90476"/>
 <path d="m17.517 12.83c-0.49616 0-0.89769 0.57669-0.89769 1.2934v20.031c0 0.71656 0.40153 1.2938 0.89769 1.2938h1.8272c0.49616 0 0.89407-0.57723 0.89407-1.2938v-20.031c0-0.7171-0.39791-1.2938-0.89407-1.2938h-1.8272zm5.4247 0c-0.4958 0-0.89389 0.57669-0.89389 1.2934v20.031c0 0.71656 0.39809 1.2938 0.89389 1.2938h1.8307c0.4958 0 0.89389-0.57723 0.89389-1.2938v-20.031c0-0.7171-0.39809-1.2938-0.89389-1.2938h-1.8307zm10.857 0c-0.4958 0-0.89389 0.57669-0.89389 1.2934v20.031c0 0.71656 0.39809 1.2938 0.89389 1.2938h1.8307c0.4958 0 0.89389-0.57723 0.89389-1.2938v-20.031c0-0.7171-0.39809-1.2938-0.89389-1.2938h-1.8307zm5.4285 0c-0.4958 0-0.89389 0.57669-0.89389 1.2934v20.031c0 0.71656 0.39809 1.2938 0.89389 1.2938h1.8307c0.4958 0 0.89389-0.57723 0.89389-1.2938v-20.031c0-0.7171-0.39809-1.2938-0.89389-1.2938h-1.8307zm5.4285 0c-0.4958 0-0.89389 0.57669-0.89389 1.2934v20.031c0 0.71656 0.39809 1.2938 0.89389 1.2938h1.8307c0.4958 0 0.89389-0.57723 0.89389-1.2938v-20.031c0-0.7171-0.39809-1.2938-0.89389-1.2938h-1.8307z" fill="#000000" filter="url(#filter1415)" opacity=".15" stroke-width=".90476"/>
 <path d="m17.517 12.096c-0.49616 0-0.89769 0.57669-0.89769 1.2934v20.031c0 0.71656 0.40153 1.2938 0.89769 1.2938h1.8272c0.49616 0 0.89407-0.57723 0.89407-1.2938v-20.031c0-0.7171-0.39791-1.2938-0.89407-1.2938h-1.8272zm5.4247 0c-0.4958 0-0.89389 0.57669-0.89389 1.2934v20.031c0 0.71656 0.39809 1.2938 0.89389 1.2938h1.8307c0.4958 0 0.89389-0.57723 0.89389-1.2938v-20.031c0-0.7171-0.39809-1.2938-0.89389-1.2938h-1.8307zm10.857 0c-0.4958 0-0.89389 0.57669-0.89389 1.2934v20.031c0 0.71656 0.39809 1.2938 0.89389 1.2938h1.8307c0.4958 0 0.89389-0.57723 0.89389-1.2938v-20.031c0-0.7171-0.39809-1.2938-0.89389-1.2938h-1.8307zm5.4285 0c-0.4958 0-0.89389 0.57669-0.89389 1.2934v20.031c0 0.71656 0.39809 1.2938 0.89389 1.2938h1.8307c0.4958 0 0.89389-0.57723 0.89389-1.2938v-20.031c0-0.7171-0.39809-1.2938-0.89389-1.2938h-1.8307zm5.4285 0c-0.4958 0-0.89389 0.57669-0.89389 1.2934v20.031c0 0.71656 0.39809 1.2938 0.89389 1.2938h1.8307c0.4958 0 0.89389-0.57723 0.89389-1.2938v-20.031c0-0.7171-0.39809-1.2938-0.89389-1.2938h-1.8307z" fill="#4f4f4f" stroke-width=".90476"/>
 <path d="m17.517 12.095c-0.49616 0-0.89769 0.57678-0.89769 1.2935v0.90476c0-0.71674 0.40153-1.2935 0.89769-1.2935h1.8272c0.49616 0 0.89416 0.57679 0.89416 1.2935v-0.90476c0-0.71674-0.398-1.2935-0.89416-1.2935zm5.425 0c-0.4958 0-0.89416 0.57678-0.89416 1.2935v0.90476c0-0.71674 0.39836-1.2935 0.89416-1.2935h1.8307c0.4958 0 0.89416 0.57679 0.89416 1.2935v-0.90476c0-0.71674-0.39836-1.2935-0.89416-1.2935zm10.857 0c-0.4958 0-0.89416 0.57678-0.89416 1.2935v0.90476c0-0.71674 0.39836-1.2935 0.89416-1.2935h1.8307c0.4958 0 0.89416 0.57679 0.89416 1.2935v-0.90476c0-0.71674-0.39836-1.2935-0.89416-1.2935zm5.4286 0c-0.4958 0-0.89416 0.57678-0.89416 1.2935v0.90476c0-0.71674 0.39836-1.2935 0.89416-1.2935h1.8307c0.4958 0 0.89416 0.57679 0.89416 1.2935v-0.90476c0-0.71674-0.39836-1.2935-0.89416-1.2935zm5.4286 0c-0.4958 0-0.89416 0.57678-0.89416 1.2935v0.90476c0-0.71674 0.39836-1.2935 0.89416-1.2935h1.8307c0.4958 0 0.89416 0.57679 0.89416 1.2935v-0.90476c0-0.71674-0.39836-1.2935-0.89416-1.2935z" fill="#ffffff" opacity=".1" stroke-width=".90476"/>
</svg>
