<svg xmlns="http://www.w3.org/2000/svg" width="64" height="64" enable-background="new 0 0 1024 1024" image-rendering="optimizeSpeed"><defs><linearGradient id="f" x1="499.95" x2="499.95" y1="2.008" y2="1026" gradientTransform="translate(2 2) scale(.99609)" gradientUnits="userSpaceOnUse"><stop offset="0" stop-color="#fff"/><stop offset="1" stop-color="#d7d7d7"/></linearGradient><linearGradient id="i" x1="2331.3" x2="2331.3" y1="435.51" y2="45.726" gradientTransform="translate(-5700.6 -128.41) scale(2.6682)" gradientUnits="userSpaceOnUse"><stop offset=".058" stop-color="#807c76"/><stop offset=".385" stop-color="#d4d7d0"/><stop offset=".558" stop-color="#bdbfba"/><stop offset=".635" stop-color="#acb3ac"/><stop offset=".75" stop-color="#dadfda"/><stop offset=".863" stop-color="#c2c7c1"/><stop offset=".941" stop-color="#7f7a75"/></linearGradient><linearGradient id="a" x1="399.57" x2="399.57" y1="545.8" y2="517.8" gradientUnits="userSpaceOnUse"><stop offset="0" stop-color="#3889e9"/><stop offset="1" stop-color="#5ea5fb"/></linearGradient><linearGradient id="c" x1="400.56" x2="400.56" y1="546.93" y2="516.48" gradientTransform="matrix(1.0619 0 0 1.0611 -24.729 -32.522)" gradientUnits="userSpaceOnUse"><stop offset="0" stop-color="#187ced"/><stop offset="1" stop-color="#42d6fc"/></linearGradient><linearGradient id="d" x1="16.038" x2="16.038" y1="29.505" y2="2.32" gradientTransform="matrix(1.1024 0 0 1.0988 382.95 514.19)" gradientUnits="userSpaceOnUse"><stop offset="0" stop-color="#0164c2"/><stop offset="1" stop-color="#00a9f3"/></linearGradient><filter id="b" width="1.072" height="1.072" x="-.036" y="-.036" color-interpolation-filters="sRGB"><feGaussianBlur stdDeviation="14.16"/></filter><filter id="e" width="1.12" height="1.12" x="-.06" y="-.06" color-interpolation-filters="sRGB"><feGaussianBlur stdDeviation=".65"/></filter><filter id="h" width="1.096" height="1.096" x="-.048" y="-.048" color-interpolation-filters="sRGB"><feGaussianBlur stdDeviation="6.174"/></filter><radialGradient id="g" cx="512.01" cy="512.01" r="470.16" gradientTransform="translate(12.152 12.141) scale(.97625)" gradientUnits="userSpaceOnUse"><stop offset="0" stop-opacity="0"/><stop offset="1" stop-opacity=".526"/></radialGradient></defs><path d="M969.7 392c-1.1-4.35-2.35-9-3.65-13.6-2.5-8.75-5.35-17.6-8.45-26.35-6.45-18.25-14.15-36.05-23.15-53.65-3.8-7.4-7.95-14.95-12.3-22.4h-.025q-30.601-52.01-76.325-97.75C753.65 86.1 642.35 40 512 40S270.4 86.1 178.25 178.25 40 381.65 40 512s46.1 241.65 138.25 333.8c68.05 68.05 146.5 110.95 234.9 128.65C445.1 980.85 477.9 984 512 984c130.35 0 241.65-46.05 333.8-138.2 48.6-48.6 84.4-102.5 107.35-161.8 17-43.95 27-90.8 29.95-140.75.6-10.2.9-20.65.9-31.25 0-41.75-4.7-81.6-14.3-120z" filter="url(#b)" opacity=".25" transform="translate(-.542 -.542) scale(.06356)"/><g stroke-width=".8" transform="matrix(2.0387 0 0 2.0403 -784.725 -1053.004)"><ellipse cx="400.6" cy="531.78" fill="url(#c)" rx="14.715" ry="14.704"/><path fill="url(#d)" d="M400.62 517.13c-1.854 0-3.618.352-5.249.971-.118.109-.273.192-.395.182-.017-.002-.033-.011-.05-.018-.804.335-1.567.745-2.29 1.211.094.152.122.322-.07.404a4.372 4.372 0 0 1-.585.052 14.627 14.627 0 0 0-4.76 5.83c.018-.003.032-.01.05-.011.16-.003.39.043.544.075.142.03.256.124.379.133.348.027.432-.243.716-.394.294.04.488-.05.754-.02.18.02.31.212.452.222.118.012.222-.11.337-.093.111.018.303.26.321.395.024.169-.124.321-.075.507.177.18.5.216.753.32.165-.136.022-.387 0-.584-.003-.086.012-.163 0-.243-.014-.135-.073-.259-.074-.375-.003-.534.433-.784.792-.995.156-.092.279-.254.414-.32.19-.096.333-.118.49-.207.286-.16.531-.288.754-.47.103-.242.01-.567.02-.806.102-.063.191.027.3.019.173-.036.187-.279.285-.375.056-.056.212-.095.283-.15.171-.135.227-.337.377-.395.054-.022.178-.015.263-.038.111-.03.27-.161.452-.224.118-.04.39-.049.435-.094.055-.056-.001-.215.019-.3.091-.424.732-.514 1.11-.657.266-.1.539-.284.83-.227-.057.201-.328.13-.282.374.063.34.52-.096.64-.147.23-.096.624-.155.926-.265.264-.096.738-.243.489-.545-.208-.011-.308.244-.49.32-.125.021-.1-.104-.208-.114-.1-.011-.158.094-.262.076-.104-.017-.25-.18-.266-.3-.04-.314.266-.444.396-.678-.086-.283-.48-.057-.717-.168.023-.17.198-.286.396-.318.162-.027.526-.013.623.072.056.048.004.166.094.245.096.087.215.077.34.057.043-.214-.28-.16-.245-.301.255-.166.669-.03.98-.076.18-.027.368-.153.527-.242.151-.086.348-.235.508-.094.043.153-.14.204-.225.28a6.11 6.11 0 0 0-.81.846c.138.133.388.066.62.094.091.012.206.038.302.056.112.02.232.014.32.037.158.038.2.208.357.208.258 0 .261-.279.115-.453.046-.177.119-.269.056-.393-.116-.232-.542-.012-.564-.3-.013-.188.157-.18.226-.32-.031-.361.297-.388.262-.712-.014-.136-.13-.137-.225-.265-.049-.062-.072-.182-.128-.236-.44-.038-.884-.062-1.335-.062zm-7.584 2.956h.002c.088.011.194.106.3.114.1.003.183-.055.245-.038.158.041.224.279.076.395-.123.015-.171-.054-.264-.037-.256.043-.354.543-.546.526-.18-.014-.278-.453-.094-.583.011-.114-.084-.133-.078-.245.055-.07.21-.144.36-.132zm-.848.059c.052.002.091.013.112.036-.025.2-.182.188-.338.28-.268.162-.422.408-.508.752-.024.1-.288.366-.416.34-.299-.064.083-.613.15-.696.077-.093.177-.174.266-.28.086-.104.143-.244.226-.301.09-.063.35-.138.508-.132zm2.23.675c.096.002.182.017.221.056-.061.248-.597.182-.793.093.011-.094.159-.12.282-.132.087-.003.195-.02.29-.017zm-1.22.458a.668.668 0 0 1 .195.03c-.173.144-.36.226-.658.32-.144.045-.391.1-.415-.059-.03-.195.21-.15.34-.167.165-.023.345-.119.538-.125zm18.717 1.113a.368.368 0 0 0-.036.157c.012.09.112.178.134.3.011.066-.03.206 0 .265.09.176.328.05.498.06a14.255 14.255 0 0 0-.596-.782zm.963 1.292a1.373 1.373 0 0 1-.186.406c-.165.249-.388.26-.623.393-.197.111-.281.297-.396.49-.125.208-.203.334-.151.636-.169.333-.423.537-.772.696-.103.046-.244.063-.339.131-.075.054-.118.2-.225.32-.132.146-.271.208-.34.32-.054.086-.073.258-.133.374-.08.158-.251.235-.357.395-.048.074-.08.224-.133.32-.12.217-.324.373-.302.563.022.184.231.216.246.376.003.09-.06.146-.057.245.003.144.1.245.112.356.028.279-.095.39-.148.581-.025.091-.013.194-.038.265-.047.14-.241.265-.245.43-.002.118.12.212.13.377.003.113-.056.234-.035.339.04.204.406.442.565.6.213.213.493.377.584.601.078.19.077.438.226.581.11.106.292.172.433.282.132.103.275.191.415.3.23.18.576.536.942.508.19-.013.386-.169.602-.207.223-.04.512-.06.737-.037.172.017.349.12.528.112.189-.012.405-.152.62-.245.173-.075.384-.158.617-.219.107-.714.164-1.447.164-2.192 0-3-.9-5.78-2.44-8.097zm-24.309 4.922c-.313.018-.518.032-.696.112-.408.185-.329.734-.736.864-.141.045-.334.047-.49.075-.134.025-.297.097-.434.095-.039 0-.093-.03-.141-.044a16.45 16.45 0 0 0-.09.78c.388.073.588.586.93.755.095.047.217.05.338.076.097.022.172.062.265.094.2.067.444.06.603.13.24.107.417.557.623.677.012.122-.024.285.02.375.096.132.235.103.395.189.193.103.252.37.434.452.063.028.22.024.32.055.25.075.331.363.545.3.14-.04.13-.185.152-.319.093-.1.195-.259.34-.262.233-.011.254.241.34.468.048.128.173.24.206.375.059.233.03.932-.02 1.071-.06.172-.292.244-.435.434-.068.09-.1.22-.151.282-.092.112-.23.141-.299.244-.038.059-.076.184-.114.262-.114.24-.265.409-.17.696.04.118.225.197.226.336 0 .163-.35.31-.376.489-.02.133.108.372.15.545.031.131.28.213.358.3.132.149.238.358.358.544.24.366.427.812.66 1.166.122.186.295.353.377.545.041.097.036.213.074.3.134.304.73.62 1.036.77.144.07.303.095.435.168.2.11.595.409.696.583.09.157.146.54.19.789.058.33 0 .583.019.94.011.193.073.387.076.58 0 .068-.036.119-.039.188 0 .01.004.024.004.035a14.722 14.722 0 0 0 6.073 1.31c.392 0 .78-.02 1.164-.05.017-.029.032-.059.053-.086a2.86 2.86 0 0 0 .226-.319c.056-.343-.137-.582-.056-.882.09-.338.557-.543.885-.696.113-.052.228-.137.32-.168.227-.08.51-.036.718-.112.353-.129.39-.506.564-.827.082-.152.19-.304.207-.412.014-.097-.036-.189-.02-.303.016-.114.118-.212.15-.336.041-.163.059-.402.059-.583 0-.149-.07-.279-.075-.413-.025-.487.176-.542.357-.807.091-.132.125-.282.188-.376.304-.452.83-.67.792-1.352-.011-.226-.154-.737-.321-.809-.095-.04-.314-.003-.452-.056-.446-.165-.707-.716-1.168-.75-.099-.012-.19.04-.3.037-.183-.011-.458-.127-.66-.15-.13-.013-.301.038-.378 0-.118-.057-.13-.273-.225-.338-.076-.052-.224-.07-.34-.114-.185-.07-.332-.154-.546-.169-.066-.003-.148.032-.225.02-.119-.02-.213-.159-.322-.225-.137-.084-.263-.124-.32-.242.124-.405-.218-.517-.301-.751-.04-.11-.022-.242-.057-.34-.05-.14-.188-.22-.34-.337-.273-.21-.514-.406-.904-.453-.171-.022-.341.051-.548.038-.22-.013-.495-.205-.66-.392-.159-.183-.236-.347-.375-.434-.132-.084-.307-.082-.396-.167-.04-.037-.033-.1-.076-.189-.066-.137-.178-.213-.095-.376-.15-.077-.154.143-.319.114-.146-.207-.27-.305-.602-.244-.153.028-.238.22-.415.224-.146.012-.26-.161-.452-.189-.145-.02-.31.04-.414.02-.16-.032-.21-.165-.357-.262-.108-.07-.317-.19-.378-.188-.189.011-.324.4-.585.263-.127-.16.207-.245.056-.395-.114-.114-.21.052-.301.114-.105.072-.203.144-.319.186-.259.097-.42.047-.623.15-.187.097-.195.26-.301.451-.087.158-.285.387-.415.397-.158.011-.309-.22-.452-.282-.432-.187-.64.165-1 .17-.332.012-.807-.535-.79-.847.003-.19.11-.479.132-.714.02-.187.149-.3.15-.47.004-.229-.303-.404-.451-.431-.352-.065-.841.141-1.245-.02-.077-.128.09-.216.134-.34.024-.07.01-.164.036-.241.044-.12.17-.213.226-.34.042-.096.053-.236.095-.356.05-.136.14-.224.15-.32a.423.423 0 0 0-.133-.356zm5.038 3.976c.128.012.144.275.013.296-.14.023-.213-.22-.076-.283a.123.123 0 0 1 .063-.01v-.003z"/></g><circle cx="50" cy="50" r="13" filter="url(#e)" opacity=".25" style="paint-order:stroke markers fill"/><g stroke-width="2.308" transform="translate(36.949 36.949) scale(.0255)"><path fill="url(#f)" d="M984.88 316.75q-9.292-22.529-20.962-44.139a451.94 451.94 0 0 0-13.938-24.203c-21.124-34.252-46.894-66.614-77.311-97.029-99.568-99.568-219.83-149.38-360.67-149.38-140.85 0-261.05 49.811-360.61 149.38-99.569 99.572-149.38 219.78-149.38 360.61s49.811 261.11 149.38 360.67c99.568 99.568 219.78 149.32 360.61 149.32 140.84 0 261.11-49.758 360.67-149.32 54.836-54.89 94.598-116.04 119.23-183.42 20.043-54.943 30.092-113.99 30.092-177.25 0-48.515-5.889-94.598-17.72-138.25a656.977 656.977 0 0 0-4.214-14.695 498.377 498.377 0 0 0-15.18-42.302z"/><circle cx="512" cy="511.99" r="458.99" fill="#666" color="#000"/><circle cx="512" cy="511.99" r="458.99" fill="url(#g)" color="#000"/><path fill="#050505" d="m2410.5 116.88-6.45 17.23c-.42 1.13.01 2.63.96 3.36l7.59 5.81c.93.71 2.52.75 3.5.05l14.96-10.68c.98-.7 2.47-.58 3.32.28l6.27 6.27c.87.87.98 2.34.28 3.32l-10.68 14.95c-.7.98-.67 2.55.06 3.5l5.82 7.59c.71.93 2.24 1.38 3.36.96l17.21-6.45c1.13-.42 2.53.08 3.13 1.13l4.43 7.67c.62 1.07.34 2.51-.59 3.28l-14.2 11.69c-.93.77-1.31 2.29-.85 3.39l3.65 8.83c.45 1.08 1.8 1.91 3 1.8l18.31-1.78c1.2-.12 2.43.73 2.74 1.9l2.29 8.56c.32 1.19-.32 2.51-1.42 3.01l-16.75 7.62c-1.1.5-1.86 1.87-1.7 3.06l1.25 9.47c.15 1.16 1.25 2.31 2.44 2.51l18.14 3.02c1.19.2 2.15 1.34 2.15 2.54v8.86c0 1.23-.96 2.35-2.15 2.54l-18.12 3.02c-1.19.2-2.28 1.32-2.43 2.51l-1.24 9.48c-.15 1.16.61 2.56 1.7 3.06l16.72 7.61c1.09.5 1.73 1.85 1.42 3.01l-2.29 8.56c-.32 1.19-1.54 2.02-2.74 1.9l-18.29-1.77c-1.2-.12-2.54.69-3 1.8l-3.67 8.83c-.45 1.08-.08 2.63.85 3.39l14.2 11.69c.93.77 1.2 2.23.59 3.28l-4.43 7.67c-.62 1.07-2.01 1.55-3.14 1.13l-17.23-6.45c-1.13-.42-2.63.01-3.36.96l-5.81 7.59c-.71.93-.75 2.52-.05 3.5l10.68 14.96c.7.98.58 2.47-.28 3.32l-6.27 6.27c-.87.87-2.34.98-3.32.28l-14.95-10.68c-.98-.7-2.55-.67-3.5.06l-7.59 5.82c-.93.71-1.38 2.24-.96 3.36l6.45 17.21c.42 1.13-.08 2.53-1.13 3.13l-7.67 4.43c-1.07.62-2.51.34-3.28-.59l-11.69-14.2c-.77-.93-2.29-1.31-3.39-.85l-8.83 3.65c-1.08.45-1.91 1.8-1.8 3l1.78 18.31c.12 1.2-.73 2.43-1.9 2.74l-8.56 2.29c-1.19.32-2.51-.32-3.01-1.42l-7.62-16.75c-.5-1.1-1.87-1.86-3.06-1.7l-9.47 1.25c-1.16.15-2.31 1.25-2.51 2.44l-3.02 18.14c-.2 1.19-1.34 2.15-2.54 2.15h-8.86c-1.23 0-2.35-.96-2.54-2.15l-3.02-18.12c-.2-1.19-1.32-2.28-2.51-2.43l-9.48-1.24c-1.16-.15-2.56.61-3.06 1.7l-7.61 16.72c-.5 1.09-1.85 1.73-3.01 1.42l-8.56-2.29c-1.19-.32-2.02-1.54-1.9-2.74l1.77-18.29c.12-1.2-.69-2.54-1.8-3l-8.83-3.67c-1.08-.45-2.63-.08-3.39.85l-11.69 14.2c-.77.93-2.23 1.2-3.28.59l-7.67-4.43c-1.07-.62-1.55-2.01-1.13-3.14l6.45-17.23c.42-1.13-.01-2.63-.96-3.36l-7.59-5.81c-.93-.71-2.52-.75-3.5-.05l-14.96 10.68c-.98.7-2.47.58-3.32-.28l-6.27-6.27c-.87-.87-.98-2.34-.28-3.32l10.68-14.95c.7-.98.67-2.55-.06-3.5l-5.82-7.59c-.71-.93-2.24-1.38-3.36-.96l-17.21 6.45c-1.13.42-2.53-.08-3.13-1.13l-4.43-7.67c-.62-1.07-.34-2.51.59-3.28l14.2-11.69c.93-.77 1.31-2.29.85-3.39l-3.65-8.83c-.45-1.08-1.8-1.91-3-1.8l-18.31 1.78c-1.2.12-2.43-.73-2.74-1.9l-2.29-8.56c-.32-1.19.32-2.51 1.42-3.01l16.75-7.62c1.1-.5 1.86-1.87 1.7-3.06l-1.25-9.47c-.15-1.16-1.25-2.31-2.44-2.51l-18.14-3.02c-1.19-.2-2.15-1.34-2.15-2.54v-8.86c0-1.23.96-2.35 2.15-2.54l18.12-3.02c1.19-.2 2.28-1.32 2.43-2.51l1.24-9.48c.15-1.16-.61-2.56-1.7-3.06l-16.72-7.61c-1.09-.5-1.73-1.85-1.42-3.01l2.29-8.56c.32-1.19 1.54-2.02 2.74-1.9l18.29 1.77c1.2.12 2.54-.69 3-1.8l3.67-8.83c.45-1.08.08-2.63-.85-3.39l-14.2-11.69c-.93-.77-1.2-2.23-.59-3.28l4.43-7.67c.62-1.07 2.01-1.55 3.14-1.13l17.23 6.45c1.13.42 2.63-.01 3.36-.96l5.81-7.59c.71-.93.75-2.52.05-3.5l-10.68-14.96c-.7-.98-.58-2.47.28-3.32l6.27-6.27c.87-.87 2.34-.98 3.32-.28l14.95 10.68c.98.7 2.55.67 3.5-.06l7.59-5.82c.93-.71 1.38-2.24.96-3.36l-6.45-17.21c-.42-1.13.08-2.53 1.13-3.13l7.67-4.43c1.07-.62 2.51-.34 3.28.59l11.69 14.2c.77.93 2.29 1.31 3.39.85l8.83-3.65c1.08-.45 1.91-1.8 1.8-3l-1.78-18.31c-.12-1.2.73-2.43 1.9-2.74l8.56-2.29c1.19-.32 2.51.32 3.01 1.42l7.62 16.75c.5 1.1 1.87 1.86 3.06 1.7l9.47-1.25c1.16-.15 2.31-1.25 2.51-2.44l3.02-18.14c.2-1.19 1.34-2.15 2.54-2.15h8.86c1.23 0 2.35.96 2.54 2.15l3.02 18.12c.2 1.19 1.32 2.28 2.51 2.43l9.48 1.24c1.16.15 2.56-.61 3.06-1.7l7.61-16.72c.5-1.09 1.85-1.73 3.01-1.42l8.56 2.29c1.19.32 2.02 1.54 1.9 2.74l-1.77 18.29c-.12 1.2.69 2.54 1.8 3l8.83 3.67c1.08.45 2.63.08 3.39-.85l11.69-14.2c.77-.93 2.23-1.2 3.28-.59l7.67 4.43c1.07.62 1.55 2.01 1.13 3.14zm-29.36 36.71c-24.86-14.36-53.13-17.48-78.92-10.94-4.97 1.26-2.05.57-2.05.57-6.92 2.36-9.68 9.49-6.19 15.85 0 0-2.01-3.67.16.28 10.34 18.87 31.04 56.63 31.04 56.63 4.68 8.54 16.37 15.3 26.12 15.1 0 0 45.86-.95 68.8-1.43 4.26-.09 0 0 0 0 7.06-.15 11.65-6.09 10.11-12.74-7.16-25.78-24.05-48.88-49.06-63.32zm-1.73 184.17c25.11-13.92 42.34-36.54 50.02-62.02 1.48-4.91.57-2.05.57-2.05 1.54-7.15-3.15-13.18-10.4-13.47 0 0 4.18.17-.32-.01-21.5-.85-64.52-2.56-64.52-2.56-9.73-.39-21.55 6.15-26.4 14.61 0 0-22.8 39.8-34.21 59.71-2.12 3.7 0 0 0 0-3.51 6.13-.77 13.12 5.72 15.23 0 0-4.1-1.14 0 0 25.79 7.14 54.29 4.56 79.54-9.44zm-125.19-16.85c5.07 4.57 12.5 3.44 16.05-2.67 0 0-2.14 3.68 0 0 11.54-19.83 34.6-59.48 34.6-59.48 4.9-8.43 4.66-21.93-.54-30.17 0 0-22.99-36.41-34.48-54.6-2.41-3.81-.17-.27-.17-.27-3.87-6.13-11.44-7.18-16.86-2.27 0 0 2.02-2.22-1.49 1.52-18.22 19.39-29.2 45.62-28.7 74.33.5 28.87 12.52 54.84 31.6 73.6z" class="shp86" filter="url(#h)" opacity=".75" transform="translate(-5700.6 -128.41) scale(2.6682)"/><path fill="url(#i)" d="m731.1 171.44-17.21 45.973c-1.12 3.015.027 7.017 2.562 8.965l20.252 15.502c2.48 1.895 6.723 2.001 9.338.134l39.916-28.496c2.615-1.868 6.59-1.548 8.859.747l16.73 16.73c2.32 2.321 2.614 6.243.747 8.858l-28.496 39.89c-1.868 2.615-1.788 6.804.16 9.339l15.529 20.252c1.894 2.481 5.977 3.682 8.965 2.561l45.92-17.21c3.015-1.12 6.75.214 8.351 3.015l11.82 20.465c1.655 2.855.908 6.698-1.574 8.752l-37.888 31.191c-2.481 2.055-3.495 6.11-2.268 9.045l9.74 23.56c1.2 2.882 4.802 5.097 8.004 4.803l48.855-4.75c3.202-.32 6.483 1.949 7.31 5.07l6.11 22.84c.855 3.176-.853 6.698-3.788 8.032l-44.692 20.332c-2.935 1.334-4.963 4.99-4.536 8.164l3.335 25.268c.4 3.095 3.336 6.164 6.51 6.698l48.402 8.058c3.175.533 5.736 3.575 5.736 6.777v23.64c0 3.282-2.561 6.27-5.736 6.777l-48.348 8.058c-3.175.534-6.084 3.522-6.484 6.697l-3.309 25.295c-.4 3.095 1.628 6.83 4.536 8.165l44.612 20.305c2.909 1.334 4.616 4.936 3.79 8.031l-6.111 22.84c-.854 3.175-4.109 5.39-7.31 5.07l-48.802-4.723c-3.202-.32-6.777 1.841-8.005 4.803l-9.792 23.56c-1.2 2.881-.213 7.017 2.268 9.045l37.888 31.191c2.482 2.055 3.202 5.95 1.574 8.752l-11.82 20.465c-1.654 2.855-5.363 4.135-8.378 3.015L808.4 715.78c-3.015-1.12-7.017.027-8.965 2.561l-15.502 20.252c-1.894 2.482-2.001 6.724-.133 9.339l28.496 39.916c1.867 2.615 1.547 6.59-.748 8.858l-16.73 16.73c-2.32 2.322-6.243 2.615-8.858.747l-39.89-28.496c-2.615-1.867-6.804-1.787-9.339.16l-20.252 15.53c-2.481 1.894-3.682 5.976-2.561 8.965l17.21 45.92c1.12 3.015-.214 6.75-3.015 8.351l-20.465 11.82c-2.855 1.655-6.697.907-8.752-1.574l-31.19-37.888c-2.055-2.481-6.111-3.495-9.046-2.268l-23.56 9.739c-2.882 1.2-5.096 4.803-4.803 8.005l4.75 48.855c.32 3.201-1.948 6.483-5.07 7.31l-22.84 6.11c-3.175.855-6.697-.853-8.031-3.788l-20.332-44.692c-1.335-2.935-4.99-4.963-8.165-4.536l-25.268 3.335c-3.095.4-6.164 3.335-6.697 6.51l-8.058 48.402c-.534 3.175-3.576 5.736-6.778 5.736h-23.64c-3.281 0-6.27-2.561-6.777-5.736l-8.058-48.348c-.533-3.176-3.522-6.084-6.697-6.484l-25.295-3.309c-3.095-.4-6.83 1.628-8.165 4.536l-20.305 44.612c-1.334 2.908-4.936 4.616-8.03 3.789L394 908.64c-3.176-.854-5.39-4.11-5.07-7.311l4.722-48.801c.32-3.202-1.84-6.777-4.803-8.005l-23.56-9.792c-2.881-1.2-7.017-.213-9.045 2.268l-31.19 37.888c-2.055 2.481-5.95 3.202-8.753 1.574l-20.465-11.82c-2.855-1.654-4.135-5.363-3.015-8.378l17.21-45.973c1.121-3.015-.026-7.017-2.561-8.965l-20.252-15.502c-2.482-1.895-6.724-2.001-9.339-.134l-39.916 28.496c-2.615 1.868-6.59 1.548-8.858-.747l-16.73-16.73c-2.322-2.321-2.615-6.243-.747-8.858l28.496-39.89c1.867-2.615 1.787-6.804-.16-9.339l-15.53-20.252c-1.894-2.481-5.976-3.682-8.965-2.561l-45.92 17.21c-3.015 1.12-6.75-.214-8.351-3.015l-11.82-20.465c-1.654-2.855-.907-6.698 1.574-8.752l37.888-31.191c2.481-2.055 3.495-6.11 2.268-9.045l-9.739-23.56c-1.2-2.882-4.803-5.097-8.004-4.803l-48.855 4.75c-3.202.32-6.484-1.949-7.311-5.07l-6.11-22.84c-.854-3.176.853-6.698 3.788-8.032l44.692-20.332c2.935-1.334 4.963-4.99 4.536-8.164l-3.335-25.268c-.4-3.095-3.335-6.164-6.51-6.698l-48.401-8.058c-3.176-.533-5.737-3.575-5.737-6.777v-23.64c0-3.282 2.561-6.27 5.737-6.777l48.348-8.058c3.175-.534 6.083-3.522 6.483-6.697L164 455.23c.4-3.095-1.628-6.83-4.536-8.165l-44.612-20.305c-2.908-1.334-4.616-4.936-3.789-8.031l6.11-22.84c.854-3.175 4.11-5.39 7.311-5.07l48.801 4.723c3.202.32 6.777-1.841 8.005-4.803l9.792-23.56c1.2-2.882.214-7.017-2.268-9.045l-37.888-31.191c-2.481-2.055-3.202-5.95-1.574-8.752l11.82-20.465c1.654-2.855 5.363-4.135 8.378-3.015l45.973 17.21c3.015 1.12 7.018-.027 8.965-2.561l15.502-20.252c1.895-2.482 2.002-6.724.134-9.339l-28.496-39.916c-1.868-2.615-1.548-6.59.747-8.858l16.73-16.73c2.321-2.322 6.243-2.615 8.858-.748l39.89 28.496c2.615 1.868 6.804 1.788 9.339-.16l20.252-15.529c2.481-1.894 3.682-5.976 2.562-8.965l-17.21-45.92c-1.121-3.015.213-6.75 3.015-8.351l20.465-11.82c2.855-1.655 6.697-.907 8.751 1.574l31.191 37.888c2.055 2.481 6.11 3.495 9.046 2.268l23.56-9.739c2.881-1.2 5.096-4.803 4.802-8.005l-4.75-48.855c-.32-3.201 1.949-6.483 5.07-7.31l22.84-6.11c3.176-.855 6.698.853 8.032 3.788l20.332 44.692c1.334 2.935 4.99 4.963 8.165 4.536l25.268-3.335c3.095-.4 6.163-3.335 6.697-6.51l8.058-48.402c.533-3.175 3.575-5.736 6.777-5.736h23.64c3.282 0 6.27 2.561 6.777 5.736l8.058 48.348c.534 3.176 3.522 6.084 6.697 6.484l25.295 3.309c3.095.4 6.83-1.628 8.165-4.536l20.305-44.612c1.334-2.909 4.936-4.616 8.031-3.789l22.84 6.11c3.175.854 5.39 4.11 5.07 7.311l-4.723 48.801c-.32 3.202 1.841 6.777 4.803 8.005l23.56 9.792c2.882 1.2 7.017.213 9.045-2.268l31.191-37.888c2.055-2.481 5.95-3.202 8.752-1.574l20.465 11.82c2.855 1.654 4.136 5.363 3.015 8.378zm-78.338 97.95c-66.331-38.315-141.76-46.64-210.57-29.19-13.261 3.362-5.47 1.52-5.47 1.52-18.464 6.298-25.828 25.322-16.516 42.292 0 0-5.363-9.792.427.747 27.59 50.349 82.821 151.1 82.821 151.1 12.487 22.786 43.678 40.823 69.693 40.29 0 0 122.36-2.535 183.57-3.816 11.367-.24 0 0 0 0 18.837-.4 31.085-16.249 26.976-33.993-19.104-68.786-64.17-130.42-130.9-168.95zm-4.616 491.4c66.998-37.141 112.97-97.496 133.46-165.48 3.949-13.101 1.52-5.47 1.52-5.47 4.11-19.078-8.404-35.167-27.748-35.94 0 0 11.153.453-.854-.028-57.366-2.268-172.15-6.83-172.15-6.83-25.962-1.04-57.5 16.409-70.44 38.982 0 0-60.835 106.19-91.279 159.32-5.657 9.872 0 0 0 0-9.365 16.356-2.054 35.007 15.262 40.637 0 0-10.94-3.042 0 0 68.813 19.05 144.86 12.167 212.23-25.188zm-334.03-44.959c13.528 12.194 33.352 9.179 42.825-7.124 0 0-5.71 9.819 0 0 30.791-52.91 92.32-158.7 92.32-158.7 13.074-22.493 12.434-58.514-1.44-80.5 0 0-61.343-97.15-92-145.68-6.431-10.166-.454-.72-.454-.72-10.326-16.357-30.524-19.159-44.986-6.057 0 0 5.39-5.924-3.976 4.055-48.615 51.736-77.911 121.72-76.577 198.33 1.334 77.031 33.406 146.32 84.315 196.38z" class="shp86"/></g></svg>