<svg xmlns="http://www.w3.org/2000/svg" width="64" height="64" enable-background="new 0 0 1024 1024" image-rendering="optimizeSpeed"><defs><linearGradient id="b" x1="520" x2="520.03" y1="44" y2="985.85" gradientTransform="translate(-.542 -.542)scale(.06356)" gradientUnits="userSpaceOnUse"><stop offset="0" stop-color="#15e1fc"/><stop offset="1" stop-color="#1863ee"/></linearGradient><linearGradient id="e" x1="-1.356" x2="-1.356" y1="-59.119" y2="196.88" gradientUnits="userSpaceOnUse"><stop offset="0" stop-color="#ffeb42"/><stop offset="1" stop-color="#ff9311"/></linearGradient><linearGradient id="f" x1="62.644" x2="62.644" y1="-123.12" y2="132.88" gradientUnits="userSpaceOnUse"><stop offset="0" stop-color="#fff"/><stop offset="1" stop-color="#e8e8e8"/></linearGradient><filter id="a" width="1.072" height="1.072" x="-.036" y="-.036" color-interpolation-filters="sRGB"><feGaussianBlur stdDeviation="14.16"/></filter><filter id="c" width="1.15" height="1.15" x="-.075" y="-.075" color-interpolation-filters="sRGB"><feGaussianBlur stdDeviation="8"/></filter><filter id="d" width="1.15" height="1.15" x="-.075" y="-.075" color-interpolation-filters="sRGB"><feGaussianBlur stdDeviation="8"/></filter></defs><path d="M969.7 392c-1.1-4.35-2.35-9-3.65-13.6-2.5-8.75-5.35-17.6-8.45-26.35-6.45-18.25-14.15-36.05-23.15-53.65-3.8-7.4-7.95-14.95-12.3-22.4h-.025q-30.601-52.01-76.325-97.75C753.65 86.1 642.35 40 512 40S270.4 86.1 178.25 178.25 40 381.65 40 512s46.1 241.65 138.25 333.8c68.05 68.05 146.5 110.95 234.9 128.65C445.1 980.85 477.9 984 512 984c130.35 0 241.65-46.05 333.8-138.2 48.6-48.6 84.4-102.5 107.35-161.8 17-43.95 27-90.8 29.95-140.75.6-10.2.9-20.65.9-31.25 0-41.75-4.7-81.6-14.3-120" filter="url(#a)" opacity=".25" transform="translate(-.542 -.542)scale(.06356)"/><path fill="url(#b)" d="M61.091 24.373a28.4 28.4 0 0 0-2.24-5.95A31 31 0 0 0 58.069 17h-.002q-1.945-3.306-4.851-6.213Q44.429 2.001 32 2c-12.429-.001-15.356 2.93-21.213 8.787S2 23.715 2 32s2.93 15.36 8.787 21.216c4.325 4.325 9.311 7.052 14.93 8.177C27.747 61.8 29.832 62 32 62q12.429 0 21.216-8.784 4.634-4.632 6.823-10.284c1.08-2.793 1.716-5.771 1.904-8.946Q62 33.012 62 32c0-2.654-.299-5.187-.91-7.627z"/><g stroke-width="13.333"><path d="M102.64 196.88c13.297 0 24-10.703 24-24v-208c0-13.297-10.703-24-24-24h-208c-13.297 0-24 10.703-24 24v208c0 13.297 10.703 24 24 24zm-40-64h-128v-128h128z" filter="url(#c)" opacity=".15" transform="matrix(.1 0 0 .1 28.936 28.312)"/><path d="M166.64 132.88c13.297 0 24-10.703 24-24v-208c0-13.297-10.703-24-24-24h-208c-13.297 0-24 10.703-24 24v40h192v128h-128v-64h-64v104c0 13.297 10.703 24 24 24z" filter="url(#d)" opacity=".15" transform="matrix(.1 0 0 .1 28.936 28.312)"/><path fill="url(#e)" d="M102.64 196.88c13.297 0 24-10.703 24-24v-208c0-13.297-10.703-24-24-24h-208c-13.297 0-24 10.703-24 24v208c0 13.297 10.703 24 24 24zm-40-64h-128v-128h128z" transform="matrix(.1 0 0 .1 28.936 28.312)"/><path fill="url(#f)" d="M166.64 132.88c13.297 0 24-10.703 24-24v-208c0-13.297-10.703-24-24-24h-208c-13.297 0-24 10.703-24 24v40h192v128h-128v-64h-64v104c0 13.297 10.703 24 24 24z" transform="matrix(.1 0 0 .1 28.936 28.312)"/></g></svg>