<svg xmlns="http://www.w3.org/2000/svg" width="64" height="64" enable-background="new 0 0 1024 1024" image-rendering="optimizeSpeed"><defs><filter id="a" width="1.072" height="1.072" x="-.036" y="-.036" color-interpolation-filters="sRGB"><feGaussianBlur stdDeviation="14.16"/></filter><filter id="c" width="1.12" height="1.12" x="-.06" y="-.06" color-interpolation-filters="sRGB"><feGaussianBlur stdDeviation=".6"/></filter><linearGradient id="b" x1="400.51" x2="400.7" y1="546.07" y2="517.77" gradientTransform="translate(-826.37 -1107.6)scale(2.1429)" gradientUnits="userSpaceOnUse"><stop offset="0" stop-color="#ff9300"/><stop offset="1" stop-color="#ffd702"/></linearGradient></defs><path d="M969.7 392c-1.1-4.35-2.35-9-3.65-13.6-2.5-8.75-5.35-17.6-8.45-26.35-6.45-18.25-14.15-36.05-23.15-53.65-3.8-7.4-7.95-14.95-12.3-22.4h-.025q-30.601-52.01-76.325-97.75C753.65 86.1 642.35 40 512 40S270.4 86.1 178.25 178.25 40 381.65 40 512s46.1 241.65 138.25 333.8c68.05 68.05 146.5 110.95 234.9 128.65C445.1 980.85 477.9 984 512 984c130.35 0 241.65-46.05 333.8-138.2 48.6-48.6 84.4-102.5 107.35-161.8 17-43.95 27-90.8 29.95-140.75.6-10.2.9-20.65.9-31.25 0-41.75-4.7-81.6-14.3-120" filter="url(#a)" opacity=".25" transform="translate(-.542 -.542)scale(.06356)"/><circle cx="32" cy="32" r="30" fill="url(#b)"/><path d="M14 12c-1 0-2 1-2 2v7c0 1 1 2 2 2s2-1 2-2v-3l2 2v3h3v-1q-.047-.995 1-1h1v-3h-3l-2-2h3c1 0 2-1 2-2s-1-2-2-2m6 0c-1 0-2 1-2 2s1 2 2 2h3l-2 2h-3v3h1q.995-.047 1 1v1h3v-3l2-2v3c0 1 1 2 2 2s2-1 2-2v-7c0-1-1-2-2-2M18 25v3c0 1 1 2 2 2h3v-3h-1q-.995.047-1-1v-1m6 0v1q.047.995-1 1h-1v3h3l2 2h-3c-1 0-2 1-2 2s1 2 2 2h7c1 0 2-1 2-2v-7c0-1-1-2-2-2s-2 1-2 2v3l-2-2v-3" filter="url(#c)" opacity=".15" transform="translate(-1.915 -1)scale(1.413)"/><path d="M17.867 15.956c-1.413 0-2.826 1.413-2.826 2.826v9.891c0 1.413 1.413 2.826 2.826 2.826s2.826-1.413 2.826-2.826v-4.239l2.826 2.826v4.239h4.239v-1.413q-.068-1.405 1.413-1.413h1.413v-4.239h-4.239l-2.826-2.826h4.239c1.413 0 2.826-1.413 2.826-2.826s-1.413-2.826-2.826-2.826m8.478 0c-1.413 0-2.826 1.413-2.826 2.826s1.413 2.826 2.826 2.826h4.239l-2.826 2.826H33.41v4.239h1.413q1.406-.067 1.413 1.413v1.413h4.239V27.26l2.826-2.826v4.239c0 1.413 1.413 2.826 2.826 2.826s2.826-1.413 2.826-2.826v-9.891c0-1.413-1.413-2.826-2.826-2.826M23.519 34.325v4.239c0 1.413 1.413 2.826 2.826 2.826h4.239v-4.239h-1.413q-1.405.068-1.413-1.413v-1.413m8.478 0v1.413q.067 1.406-1.413 1.413H33.41v4.239h4.239l2.826 2.826h-4.239c-1.413 0-2.826 1.413-2.826 2.826s1.413 2.826 2.826 2.826h9.891c1.413 0 2.826-1.413 2.826-2.826v-9.891c0-1.413-1.413-2.826-2.826-2.826s-2.826 1.413-2.826 2.826v4.239l-2.826-2.826v-4.239" opacity=".65"/></svg>