<svg version="1" viewBox="0 0 64 64" xmlns="http://www.w3.org/2000/svg" xmlns:dc="http://purl.org/dc/elements/1.1/" xmlns:rdf="http://www.w3.org/1999/02/22-rdf-syntax-ns#">
<defs>
<linearGradient id="c" x1="408.25" x2="407.94" y1="547.6" y2="498.89" gradientTransform="matrix(1.3276,0,0,1.3276,-510.64,-663.52)" gradientUnits="userSpaceOnUse">
<stop stop-color="#fff" offset="0"/>
<stop stop-color="#e6e6e6" offset="1"/>
</linearGradient>
<filter id="d" x="-.036" y="-.036" width="1.072" height="1.072" color-interpolation-filters="sRGB">
<feGaussianBlur stdDeviation="0.88972449"/>
</filter>
<linearGradient id="a" x1="297.6" x2="420.62" y1="598.39" y2="879.08" gradientUnits="userSpaceOnUse">
<stop stop-color="#81DA56" offset="0"/>
<stop stop-color="#77D34A" offset=".23339"/>
<stop stop-color="#6BCD3C" offset=".43312"/>
<stop stop-color="#65C139" offset=".58089"/>
<stop stop-color="#60B338" offset=".6993"/>
<stop stop-color="#529F2D" offset=".83813"/>
<stop stop-color="#4B9726" offset=".92839"/>
<stop stop-color="#3C7E1B" offset="1"/>
<stop stop-color="#438E1F" offset="1"/>
</linearGradient>
<filter id="b" color-interpolation-filters="sRGB">
<feGaussianBlur result="blur" stdDeviation="50.7837 50.4722"/>
</filter>
</defs>
<rect transform="matrix(1.0115,0,0,1.0115,-389.32,-489.92)" x="386.85" y="486.31" width="59.315" height="59.315" ry="29.657" filter="url(#d)" opacity=".25"/>
<rect x="1.9826" y="1.9784" width="59.997" height="59.997" ry="29.998" fill="url(#c)" stroke-width="1.0115"/>
<g transform="matrix(1.4999,0,0,1.4999,-580.81,-753.64)" font-size="12.666px" stroke-width=".66672">
<text x="730.88" y="132.19" font-family="'Droid Sans'" stroke-width=".66672"/>
</g>
<path d="m16.474 3c-7.4337 0-13.47 6.2469-13.47 13.938v32.125c0 7.6907 6.0364 13.938 13.47 13.938h31.054c7.4337 0 13.472-6.2469 13.472-13.938v-32.125c0-7.6907-6.0383-13.938-13.472-13.938zm1.0289 0.96875h28.996c6.9628 0 12.568 5.7987 12.568 13.002v29.998c0 7.2032-5.6052 13.002-12.568 13.002h-28.996c-6.9628 0-12.568-5.7987-12.568-13.002v-29.998c0-7.2032 5.6052-13.002 12.568-13.002z" color="#000000" color-rendering="auto" dominant-baseline="auto" image-rendering="auto" opacity=".01" solid-color="#000000" stop-color="#000000" stroke-width="3.7796" style="font-feature-settings:normal;font-variant-alternates:normal;font-variant-caps:normal;font-variant-east-asian:normal;font-variant-ligatures:normal;font-variant-numeric:normal;font-variant-position:normal;font-variation-settings:normal;inline-size:0;isolation:auto;mix-blend-mode:normal;shape-margin:0;shape-padding:0;text-decoration-color:#000000;text-decoration-line:none;text-decoration-style:solid;text-indent:0;text-orientation:mixed;text-transform:none;white-space:normal"/>
<g transform="matrix(.037447 0 0 .037447 12.812 12.794)" fill="#b3b3b3" filter="url(#b)">
<path d="m508.83 0.77246c-284.17 0-508.42 305.2-508.42 709.38l229.14 39.065c-60.472-52.698-23.386-461.16 279.28-461.16s349.76 408.36 288.31 461.16l226.24-39.065c0-404.18-230.37-709.38-514.54-709.38z"/>
<path d="m1023.4 707.99c0 137.63-161.67 127.12-269.4 166.76-107.73 39.649-209.31 149.02-242.1 149.02-35.318 0-188.61-135.12-239.76-149.02-94.479-33.513-271.74-29.137-271.74-166.76 0-281.91 229.01 114.82 511.5 114.82 282.49 0 511.5-396.72 511.5-114.82z"/>
<path d="m116.65 836.32c82.538 21.396 142.7 31.465 165.08 42.792 160.48 66.861 195.86 142.45 227.95 142.45 40.957 0 69.325-178.38 69.325-178.38-113.99-39.577-194.9-172.27-384.04-227.64 0 0-138.32-48.056-167.81-17.097-32.723 77.385-62.114 196.18 89.504 237.87z"/>
<path d="m732.76 881.38c-159.68 81.79-172.34 133.81-225.54 141.36 0 0-18.431-2.15-104.7-71.317-39.648-31.787-111.49-68.311-111.49-68.311 206.03 31.447 293.04-203.54 533.4-267.54 0 0 68.014 184.02-91.665 265.81z"/>
</g>
<g transform="matrix(.037447 0 0 .037447 12.812 12.794)">
<path d="m508.83 0.77246c-284.17 0-508.42 305.2-508.42 709.38l229.14 39.065c-60.472-52.698-23.386-461.16 279.28-461.16s349.76 408.36 288.31 461.16l226.24-39.065c0-404.18-230.37-709.38-514.54-709.38z" fill="#81da56"/>
<path d="m1023.4 707.99c0 137.63-161.67 127.12-269.4 166.76-107.73 39.649-209.31 149.02-242.1 149.02-35.318 0-188.61-135.12-239.76-149.02-94.479-33.513-271.74-29.137-271.74-166.76 0-281.91 229.01 114.82 511.5 114.82 282.49 0 511.5-396.72 511.5-114.82z" fill="#81da56"/>
<path d="m116.65 836.32c82.538 21.396 142.7 31.465 165.08 42.792 160.48 66.861 195.86 142.45 227.95 142.45 40.957 0 69.325-178.38 69.325-178.38-113.99-39.577-194.9-172.27-384.04-227.64 0 0-138.32-48.056-167.81-17.097-32.723 77.385-62.114 196.18 89.504 237.87z" fill="url(#a)"/>
<path d="m732.76 881.38c-159.68 81.79-172.34 133.81-225.54 141.36 0 0-18.431-2.15-104.7-71.317-39.648-31.787-111.49-68.311-111.49-68.311 206.03 31.447 293.04-203.54 533.4-267.54 0 0 68.014 184.02-91.665 265.81z" fill="#81da56"/>
</g>
</svg>
