<svg xmlns="http://www.w3.org/2000/svg" width="64" height="64" viewBox="0 0 16.933 16.933"><defs><filter id="c" width="1.171" height="1.092" x="-.086" y="-.046" color-interpolation-filters="sRGB"><feGaussianBlur stdDeviation=".173"/></filter><filter id="a" width="1.072" height="1.072" x="-.036" y="-.036" color-interpolation-filters="sRGB"><feGaussianBlur stdDeviation=".238"/></filter><linearGradient id="b" x1="8.466" x2="8.466" y1=".529" y2="16.404" gradientUnits="userSpaceOnUse"><stop offset="0" stop-color="#375295"/><stop offset="1" stop-color="#0c7ec0"/></linearGradient></defs><circle cx="8.466" cy="8.466" r="7.937" filter="url(#a)" opacity=".15" style="paint-order:stroke markers fill"/><circle cx="8.466" cy="8.466" r="7.937" fill="url(#b)" style="paint-order:stroke markers fill"/><path d="M6.045 6.736h1.038v-.692c0-.539.077-.911.203-1.176.13-.265.366-.48.708-.646.346-.168.783-.253 1.309-.253.539 0 1.105.139 1.585.345l-.345 1.039a3.31 3.31 0 0 0-.781-.082c-.275 0-.472.06-.594.176-.117.112-.356.272-.356.6v.69h1.73v1.038h-1.73v5.19H7.097l-.013-5.189H6.046" filter="url(#c)" opacity=".15"/><path fill="#f9f9f9" d="M6.045 6.736h1.038v-.692c0-.539.077-.911.203-1.176.13-.265.366-.48.708-.646.346-.168.783-.253 1.309-.253.539 0 1.105.139 1.585.345l-.345 1.039a3.31 3.31 0 0 0-.781-.082c-.275 0-.472.06-.594.176-.117.112-.356.272-.356.6v.69h1.73v1.038h-1.73v5.19H7.097l-.013-5.189H6.046"/></svg>