<svg xmlns="http://www.w3.org/2000/svg" width="64" height="64"><defs><filter id="a" width="1.072" height="1.072" x="-.036" y="-.036" color-interpolation-filters="sRGB"><feGaussianBlur stdDeviation="14.115"/></filter><filter id="c" width="114.28" height="114.28" x="16.219" y="16.922" color-interpolation-filters="sRGB" filterUnits="userSpaceOnUse"><feFlood flood-opacity="0" result="BackgroundImageFix"/><feColorMatrix in="SourceAlpha" result="hardAlpha" values="0 0 0 0 0 0 0 0 0 0 0 0 0 0 0 0 0 0 127 0"/><feOffset dx="1.5" dy="1.5"/><feGaussianBlur stdDeviation="1.5"/><feComposite in2="hardAlpha" operator="out"/><feColorMatrix values="0 0 0 0 0 0 0 0 0 0 0 0 0 0 0 0 0 0 0.2 0"/><feBlend in2="BackgroundImageFix" result="effect1_dropShadow_31_457"/><feBlend in="SourceGraphic" in2="effect1_dropShadow_31_457" result="shape"/></filter><filter id="d" width="96.212" height="83.066" x="26.649" y="34.013" color-interpolation-filters="sRGB" filterUnits="userSpaceOnUse"><feFlood flood-opacity="0" result="BackgroundImageFix"/><feColorMatrix in="SourceAlpha" result="hardAlpha" values="0 0 0 0 0 0 0 0 0 0 0 0 0 0 0 0 0 0 127 0"/><feOffset dx="3" dy="3"/><feGaussianBlur stdDeviation="3"/><feComposite in2="hardAlpha" operator="out"/><feColorMatrix values="0 0 0 0 0 0 0 0 0 0 0 0 0 0 0 0 0 0 0.2 0"/><feBlend in2="BackgroundImageFix" result="effect1_dropShadow_31_457"/><feBlend in="SourceGraphic" in2="effect1_dropShadow_31_457" result="shape"/></filter><filter id="e" width="1.028" height="1.028" x="-.014" y="-.014" color-interpolation-filters="sRGB"><feGaussianBlur stdDeviation=".298"/></filter><filter id="f" width="1.059" height="1.059" x="-.03" y="-.03" color-interpolation-filters="sRGB"><feGaussianBlur stdDeviation=".298"/></filter><linearGradient id="b" x2="0" y2="144" gradientTransform="translate(2 2)scale(.41667)" gradientUnits="userSpaceOnUse"><stop offset="0" stop-color="#19D7FF"/><stop offset="1" stop-color="#1E64F0"/></linearGradient></defs><path d="M511.51 983.01c259.84 0 470.5-210.66 470.5-470.5s-210.66-470.5-470.5-470.5-470.5 210.66-470.5 470.5 210.66 470.5 470.5 470.5" class="shp36" filter="url(#a)" opacity=".25" transform="translate(-.614 -.519)scale(.06376)"/><path fill="url(#b)" d="M32 2C15.38 2 2 15.38 2 32s13.38 30 30 30 30-13.38 30-30S48.62 2 32 2"/><path fill="#fff" d="M71.859 126.7a.703.703 0 0 1-.703-.703v-9.287a41 41 0 0 0 1.406 0v9.287a.703.703 0 0 1-.703.703m6.985-10.523 1.604 9.098a.703.703 0 1 0 1.385-.244l-1.604-9.092q-.69.13-1.386.238m7.482-1.837 3.153 8.663a.703.703 0 1 0 1.322-.481l-3.15-8.655q-.658.246-1.325.473m7.061-3.098 4.582 7.935a.703.703 0 0 0 1.218-.703l-4.576-7.925a46 46 0 0 1-1.224.693m6.503-4.321 5.884 7.012a.703.703 0 1 0 1.077-.904l-5.875-7.001q-.536.455-1.086.893m5.5-5.193 6.939 5.823a.704.704 0 1 0 .904-1.077l-6.921-5.808q-.454.538-.922 1.062m4.706-6.273 7.677 4.432a.704.704 0 0 0 .704-1.218l-7.657-4.42q-.353.609-.724 1.206m3.523-6.94 8.203 2.987a.703.703 0 0 0 .48-1.322l-8.18-2.977q-.24.66-.503 1.313m2.272-7.47 8.44 1.488a.704.704 0 0 0 .244-1.385l-8.415-1.484q-.124.694-.27 1.381m.942-7.782h8.464a.703.703 0 0 0 0-1.407h-8.438q-.002.706-.026 1.407m-.41-7.84 8.216-1.448a.703.703 0 0 0-.244-1.385l-8.19 1.444q.12.69.218 1.39m-1.775-7.68 7.678-2.795a.704.704 0 0 0-.481-1.321l-7.655 2.786q.24.66.458 1.33m-3.11-7.273 6.964-4.02a.703.703 0 0 0-.703-1.218l-6.945 4.01q.351.608.684 1.228m-4.298-6.564 6.02-5.053a.702.702 0 1 0-.903-1.077l-6.004 5.038q.451.54.887 1.092m-5.498-5.836 5.04-6.008a.703.703 0 1 0-1.076-.904l-5.03 5.994q.54.45 1.066.918m-6.418-4.76 3.863-6.69a.703.703 0 1 0-1.218-.703l-3.856 6.678q.612.348 1.211.715m-7.15-3.545 2.618-7.191a.703.703 0 0 0-1.322-.481l-2.614 7.182q.664.235 1.318.49m-7.671-2.22 1.326-7.521a.703.703 0 1 0-1.385-.244L79.116 27.3q.696.114 1.385.247m-7.94-.824a47 47 0 0 0-1.407 0v-7.599a.703.703 0 0 1 1.406 0zm-7.963.577-1.326-7.518a.703.703 0 1 0-1.385.244l1.326 7.521q.689-.134 1.385-.247m-7.738 1.977-2.615-7.182a.703.703 0 0 0-1.32.48l2.616 7.192q.655-.255 1.319-.49m-7.257 3.32-3.856-6.678a.703.703 0 1 0-1.218.703l3.863 6.69q.6-.366 1.21-.715m-6.48 4.488L38.15 31.16a.703.703 0 1 0-1.078.904L42.053 38q.527-.465 1.068-.915m-5.76 5.731-6.003-5.038a.703.703 0 0 0-.904 1.077l6.02 5.053q.435-.554.888-1.092m-4.5 6.427-6.945-4.01a.703.703 0 0 0-.703 1.219l6.963 4.02q.333-.62.684-1.229m-3.337 7.172-7.655-2.786a.703.703 0 1 0-.481 1.321l7.678 2.795q.22-.67.458-1.33m-2.016 7.62-8.189-1.443a.703.703 0 1 0-.244 1.385l8.216 1.448q.099-.698.217-1.39m-.653 7.823h-8.438a.703.703 0 1 0 0 1.407h8.464a46 46 0 0 1-.026-1.407m.7 7.808-8.416 1.484a.703.703 0 0 0 .244 1.385l8.44-1.488a45 45 0 0 1-.268-1.38m2.036 7.539-8.18 2.977a.703.703 0 0 0 .481 1.322l8.204-2.986a45 45 0 0 1-.505-1.313m3.303 7.046-7.656 4.42a.703.703 0 0 0 .703 1.218l7.677-4.432q-.37-.597-.724-1.206m4.509 6.417-6.922 5.808a.704.704 0 0 0 .904 1.077l6.94-5.823a45 45 0 0 1-.922-1.062m5.418 5.431-5.817 6.932a.704.704 0 0 0 1.077.904l5.828-6.945a43 43 0 0 1-1.088-.891m6.282 4.452-4.576 7.925a.703.703 0 1 0 1.218.703l4.581-7.935q-.618-.337-1.223-.693m6.96 3.318-3.15 8.655a.703.703 0 1 0 1.321.481l3.154-8.663a46 46 0 0 1-1.325-.473m7.421 2.072-1.603 9.092a.704.704 0 1 0 1.385.244l1.604-9.098a45 45 0 0 1-1.386-.238" filter="url(#c)" transform="translate(2.226 2.432)scale(.41667)"/><path fill="red" d="M113.71 37.957c.44-.49-.176-1.207-.727-.846L67.175 67.107l9.842 11.691z" filter="url(#d)" transform="translate(2 2)scale(.41667)"/><path fill="#fff" d="M30.516 107.99c-.558.351-1.16-.378-.71-.86l37.37-40.02 9.842 11.692z" filter="url(#d)" transform="translate(2 2)scale(.41667)"/><path fill="#fff" d="M10.787 10.787a29.934 29.934 0 0 0 0 42.426c.119.119.242.23.362.345-11.4-11.775-11.288-30.43.345-42.065S41.784-.25 53.56 11.148c-.116-.12-.227-.243-.345-.362a29.934 29.934 0 0 0-42.426 0z" filter="url(#e)" opacity=".35"/><path fill="#fff" d="M37.435 61.526c5.772-1.063 11.297-3.831 15.779-8.313s7.25-10.007 8.313-15.779c-1.592 5.434-4.606 10.657-9.02 15.072s-9.639 7.428-15.072 9.02" filter="url(#f)" opacity=".25"/></svg>