<svg xmlns="http://www.w3.org/2000/svg" width="64" height="64"><defs><filter id="a" width="1.072" height="1.072" x="-.036" y="-.036" color-interpolation-filters="sRGB"><feGaussianBlur stdDeviation="14.115"/></filter><filter id="d" width="1.121" height="1.119" x="-.061" y="-.059" color-interpolation-filters="sRGB"><feGaussianBlur stdDeviation="16.044"/></filter><filter id="c" width="1.072" height="1.072" x="-.036" y="-.036" color-interpolation-filters="sRGB"><feGaussianBlur stdDeviation=".81"/></filter><linearGradient id="b" x1="511.51" x2="511.5" y1="78.147" y2="946.86" gradientTransform="translate(-.615 -.678) scale(.06376)" gradientUnits="userSpaceOnUse"><stop offset="0" stop-color="#61c6f9"/><stop offset="1" stop-color="#1370db"/></linearGradient></defs><path d="M511.51 983.01c259.84 0 470.5-210.66 470.5-470.5s-210.66-470.5-470.5-470.5-470.5 210.66-470.5 470.5 210.66 470.5 470.5 470.5z" class="shp36" filter="url(#a)" opacity=".25" transform="translate(-.615 -.678) scale(.06376)"/><path fill="url(#b)" d="M32 62c16.568 0 30-13.432 30-30S48.568 2 32 2 2 15.432 2 32s13.432 30 30 30z" class="shp36"/><path d="M32 5c-.277 0-.5.223-.5.5v6a.499.499 0 1 0 1 0v-6c0-.277-.223-.5-.5-.5zm-6.79.908a.5.5 0 0 0-.553.625l1.036 3.863a.5.5 0 1 0 .967-.26l-1.035-3.863a.498.498 0 0 0-.414-.365zm13.579 0a.498.498 0 0 0-.414.365l-1.035 3.864a.5.5 0 1 0 .966.26l1.036-3.864a.5.5 0 0 0-.553-.625zM18.687 8.555a.5.5 0 0 0-.371.746l3 5.195a.5.5 0 1 0 .867-.5l-3-5.195a.5.5 0 0 0-.496-.246zm26.625 0a.5.5 0 0 0-.496.246l-3 5.195a.5.5 0 1 0 .867.5l3-5.195a.5.5 0 0 0-.371-.746zM13.26 12.762a.499.499 0 0 0-.354.854l2.828 2.827a.499.499 0 1 0 .708-.707l-2.829-2.828a.498.498 0 0 0-.353-.146zm37.477 0a.498.498 0 0 0-.354.146l-2.828 2.828a.499.499 0 1 0 .707.707l2.828-2.828a.499.499 0 0 0-.353-.853zM9.11 18.254a.5.5 0 0 0-.31.93l5.195 3a.5.5 0 1 0 .5-.868l-5.196-3a.503.503 0 0 0-.19-.062zm45.777 0a.503.503 0 0 0-.19.062l-5.195 3a.5.5 0 1 0 .5.868l5.195-3a.5.5 0 0 0-.31-.93zM6.333 24.647a.5.5 0 0 0-.06.979l3.863 1.034a.5.5 0 1 0 .26-.967l-3.864-1.035a.504.504 0 0 0-.2-.011zm51.332 0a.504.504 0 0 0-.2.011l-3.863 1.035a.5.5 0 1 0 .26.967l3.863-1.035a.5.5 0 0 0-.06-.979zM5.499 31.5a.499.499 0 1 0 0 1h6a.499.499 0 1 0 0-1h-6zm47 0a.499.499 0 1 0 0 1h6a.499.499 0 1 0 0-1h-6zm-42.164 5.828a.504.504 0 0 0-.2.012l-3.863 1.035a.5.5 0 1 0 .26.967l3.863-1.035a.5.5 0 0 0-.06-.979zm43.328 0a.5.5 0 0 0-.06.979l3.863 1.035a.5.5 0 1 0 .26-.967l-3.864-1.035a.504.504 0 0 0-.2-.012zm-39.48 4.426a.503.503 0 0 0-.189.062l-5.195 3a.5.5 0 1 0 .5.868l5.195-3a.5.5 0 0 0-.31-.93zm35.63 0a.5.5 0 0 0-.31.93l5.195 3a.5.5 0 1 0 .5-.868l-5.196-3a.503.503 0 0 0-.19-.062zM16.088 47.41a.498.498 0 0 0-.354.147l-2.828 2.828a.499.499 0 1 0 .707.707l2.828-2.828a.499.499 0 0 0-.353-.854zm31.82 0a.499.499 0 0 0-.354.854l2.828 2.828a.499.499 0 1 0 .708-.707l-2.829-2.828a.498.498 0 0 0-.353-.147zM21.81 49.258a.5.5 0 0 0-.496.246l-3 5.195a.5.5 0 1 0 .867.5l3-5.195a.5.5 0 0 0-.371-.746zm20.375 0a.5.5 0 0 0-.371.746l3 5.195a.5.5 0 1 0 .867-.5l-3-5.195a.5.5 0 0 0-.496-.246zM31.997 52c-.277 0-.5.223-.5.5v6a.499.499 0 1 0 1 0v-6c0-.277-.223-.5-.5-.5zm-5.893 1.238a.498.498 0 0 0-.414.366l-1.035 3.863a.5.5 0 1 0 .967.26l1.035-3.864a.5.5 0 0 0-.553-.625zm11.785 0a.5.5 0 0 0-.553.625l1.036 3.864a.5.5 0 1 0 .967-.26l-1.036-3.863a.498.498 0 0 0-.414-.366z" filter="url(#c)" opacity=".15" style="paint-order:normal"/><path fill="#fff" d="M32 5c-.277 0-.5.223-.5.5v6a.499.499 0 1 0 1 0v-6c0-.277-.223-.5-.5-.5zm-6.79.908a.5.5 0 0 0-.553.625l1.036 3.863a.5.5 0 1 0 .967-.26l-1.035-3.863a.498.498 0 0 0-.414-.365zm13.579 0a.498.498 0 0 0-.414.365l-1.035 3.864a.5.5 0 1 0 .966.26l1.036-3.864a.5.5 0 0 0-.553-.625zM18.687 8.555a.5.5 0 0 0-.371.746l3 5.195a.5.5 0 1 0 .867-.5l-3-5.195a.5.5 0 0 0-.496-.246zm26.625 0a.5.5 0 0 0-.496.246l-3 5.195a.5.5 0 1 0 .867.5l3-5.195a.5.5 0 0 0-.371-.746zM13.26 12.762a.499.499 0 0 0-.354.854l2.828 2.827a.499.499 0 1 0 .708-.707l-2.829-2.828a.498.498 0 0 0-.353-.146zm37.477 0a.498.498 0 0 0-.354.146l-2.828 2.828a.499.499 0 1 0 .707.707l2.828-2.828a.499.499 0 0 0-.353-.853zM9.11 18.254a.5.5 0 0 0-.31.93l5.195 3a.5.5 0 1 0 .5-.868l-5.196-3a.503.503 0 0 0-.19-.062zm45.777 0a.503.503 0 0 0-.19.062l-5.195 3a.5.5 0 1 0 .5.868l5.195-3a.5.5 0 0 0-.31-.93zM6.333 24.647a.5.5 0 0 0-.06.979l3.863 1.034a.5.5 0 1 0 .26-.967l-3.864-1.035a.504.504 0 0 0-.2-.011zm51.332 0a.504.504 0 0 0-.2.011l-3.863 1.035a.5.5 0 1 0 .26.967l3.863-1.035a.5.5 0 0 0-.06-.979zM5.499 31.5a.499.499 0 1 0 0 1h6a.499.499 0 1 0 0-1h-6zm47 0a.499.499 0 1 0 0 1h6a.499.499 0 1 0 0-1h-6zm-42.164 5.828a.504.504 0 0 0-.2.012l-3.863 1.035a.5.5 0 1 0 .26.967l3.863-1.035a.5.5 0 0 0-.06-.979zm43.328 0a.5.5 0 0 0-.06.979l3.863 1.035a.5.5 0 1 0 .26-.967l-3.864-1.035a.504.504 0 0 0-.2-.012zm-39.48 4.426a.503.503 0 0 0-.189.062l-5.195 3a.5.5 0 1 0 .5.868l5.195-3a.5.5 0 0 0-.31-.93zm35.63 0a.5.5 0 0 0-.31.93l5.195 3a.5.5 0 1 0 .5-.868l-5.196-3a.503.503 0 0 0-.19-.062zM16.088 47.41a.498.498 0 0 0-.354.147l-2.828 2.828a.499.499 0 1 0 .707.707l2.828-2.828a.499.499 0 0 0-.353-.854zm31.82 0a.499.499 0 0 0-.354.854l2.828 2.828a.499.499 0 1 0 .708-.707l-2.829-2.828a.498.498 0 0 0-.353-.147zM21.81 49.258a.5.5 0 0 0-.496.246l-3 5.195a.5.5 0 1 0 .867.5l3-5.195a.5.5 0 0 0-.371-.746zm20.375 0a.5.5 0 0 0-.371.746l3 5.195a.5.5 0 1 0 .867-.5l-3-5.195a.5.5 0 0 0-.496-.246zM31.997 52c-.277 0-.5.223-.5.5v6a.499.499 0 1 0 1 0v-6c0-.277-.223-.5-.5-.5zm-5.893 1.238a.498.498 0 0 0-.414.366l-1.035 3.863a.5.5 0 1 0 .967.26l1.035-3.864a.5.5 0 0 0-.553-.625zm11.785 0a.5.5 0 0 0-.553.625l1.036 3.864a.5.5 0 1 0 .967-.26l-1.036-3.863a.498.498 0 0 0-.414-.366z" style="paint-order:normal"/><path d="m479.01 455.95 110.34 110.34 284.51-363.27zM239.63 852.3l349.74-286.01-110.34-110.34z" class="shp40" filter="url(#d)" opacity=".35" transform="translate(-.615 -.678) scale(.06376)"/><g stroke-width="2.262"><path fill="#fe504d" d="m28.721 28.499 7.035 7.035L52.94 11.319zM11.54 52.716l24.217-17.182-7.035-7.036z" class="shp40"/><path fill="#eee" d="M28.722 28.5 11.541 52.716l24.217-17.181-7.036-7.035z"/><path fill-opacity=".251" d="M52.935 11.322 11.54 52.717l24.217-17.182 17.176-24.213z"/></g></svg>