<?xml version="1.0" encoding="UTF-8"?>
<svg width="64" height="64" version="1.1" viewBox="0 0 16.933 16.933" xmlns="http://www.w3.org/2000/svg" xmlns:cc="http://creativecommons.org/ns#" xmlns:dc="http://purl.org/dc/elements/1.1/" xmlns:rdf="http://www.w3.org/1999/02/22-rdf-syntax-ns#" xmlns:xlink="http://www.w3.org/1999/xlink">
 <metadata>
  <rdf:RDF>
   <cc:Work rdf:about="">
    <dc:format>image/svg+xml</dc:format>
    <dc:type rdf:resource="http://purl.org/dc/dcmitype/StillImage"/>
    <dc:title/>
   </cc:Work>
  </rdf:RDF>
 </metadata>
 <defs>
  <filter id="f" x="-.036" y="-.036" width="1.072" height="1.072" color-interpolation-filters="sRGB">
   <feGaussianBlur stdDeviation="14.1435"/>
  </filter>
  <linearGradient id="d" x1="520.32" x2="520.32" y1="1.8233" y2="1023.9" gradientUnits="userSpaceOnUse">
   <stop stop-color="#46a926" offset="0"/>
   <stop stop-color="#ffda64" offset="1"/>
  </linearGradient>
  <linearGradient id="a" x1="500.28" x2="500.28" y1="-18.217" y2="1023.9" gradientUnits="userSpaceOnUse">
   <stop stop-color="#a6d74f" offset="0"/>
   <stop stop-color="#46a926" offset="1"/>
  </linearGradient>
  <linearGradient id="linearGradient909" x1="500.28" x2="500.28" y1="-18.217" y2="1023.9" gradientUnits="userSpaceOnUse">
   <stop stop-color="#56bed1" offset="0"/>
   <stop stop-color="#3fdf9a" offset="1"/>
  </linearGradient>
  <filter id="h" x="-.06" y="-.06" width="1.12" height="1.12" color-interpolation-filters="sRGB">
   <feGaussianBlur stdDeviation="0.85"/>
  </filter>
  <linearGradient id="g" x1="32" x2="32" y1="15" y2="49" gradientTransform="scale(.26458)" gradientUnits="userSpaceOnUse">
   <stop stop-color="#303030" offset="0"/>
   <stop stop-color="#424242" offset="1"/>
  </linearGradient>
 </defs>
 <path transform="matrix(.016836 0 0 .016836 -.15028 -.14261)" d="m983.25 511.35c0-7.95-0.2-15.85-0.5-23.55q-8-180.15-137.55-309.85c-92.05-92-203.2-138.05-333.4-138.05-130.15 0-241.35 46.05-333.35 138.05-92.05 92-138.1 203.2-138.1 333.4 0 130.15 46.05 241.35 138.1 333.35 86.15 86.3 189.35 132.15 309.15 137.6 8 0.3 16 0.5 24.2 0.5 130.2 0 241.35-46.1 333.4-138.1 92-92 138.05-203.2 138.05-333.35z" filter="url(#f)" opacity=".5" stroke-width="15.683"/>
 <g transform="matrix(.016836 0 0 .016836 -.15028 -.14261)" fill="url(#d)" stroke-width="15.683">
  <g fill="url(#a)" stroke-width="15.683">
   <path d="m983.25 511.35c0-7.95-0.2-15.85-0.5-23.55q-8-180.15-137.55-309.85c-92.05-92-203.2-138.05-333.4-138.05-130.15 0-241.35 46.05-333.35 138.05-92.05 92-138.1 203.2-138.1 333.4 0 130.15 46.05 241.35 138.1 333.35 86.15 86.3 189.35 132.15 309.15 137.6 8 0.3 16 0.5 24.2 0.5 130.2 0 241.35-46.1 333.4-138.1 92-92 138.05-203.2 138.05-333.35z" fill="url(#linearGradient909)" stroke-width="15.683"/>
  </g>
 </g>
 <rect transform="matrix(.26458 0 0 .26458 -.042436 -.04234)" x="15.16" y="15.16" width="34" height="34" ry="5" fill="#303030" fill-rule="evenodd" filter="url(#h)" opacity=".5" style="paint-order:stroke fill markers"/>
 <rect x="3.9687" y="3.9687" width="8.9957" height="8.9957" ry="1.3229" fill="url(#g)" fill-rule="evenodd" stroke-width=".26458" style="paint-order:stroke fill markers"/>
 <path d="m9.6858 7.8419c0.29909 0.24301 0.55791 0.38271 0.93176 0.38271 0.29909 0 0.62118-0.13949 0.62118-0.34511v-0.0187c0-0.18693-0.2101-0.3228-0.77089-0.47234-0.67294-0.16823-1.107-0.55285-1.107-0.9857v-0.018694c0-0.61686 0.58377-0.95474 1.2567-0.95474 0.48602 0 0.78274 0.16188 1.136 0.37527l-0.34594 0.47145c-0.29909-0.20562-0.50964-0.22555-0.79002-0.22555-0.2804 0-0.62118 0.13718-0.62118 0.30541v0.057777c0 0.22431 0.21569 0.329 0.77648 0.47854 0.67294 0.18693 1.0741 0.40063 1.0741 0.9125v0.018694c0 0.57802-0.5191 1.0224-1.2294 1.0224-0.50471-0.018688-0.94477-0.20911-1.3373-0.56427m-0.52621-2.8522-0.62118 2.1741-0.62118-2.1741h-0.62118l-0.62118 2.1741-0.62118-2.1741h-0.62118l0.93176 3.4165h0.62118l0.62118-2.1741 0.62118 2.1741h0.62118l0.93176-3.4165" fill="#f9f9f9" stroke-width=".26457"/>
 <path d="m5.027 11.02h3.1059v0.62118h-3.1059z" fill="#f9f9f9" stroke-width=".26457"/>
</svg>
