<svg xmlns="http://www.w3.org/2000/svg" xmlns:xlink="http://www.w3.org/1999/xlink" width="64" height="64" viewBox="0 0 16.933 16.933"><defs><linearGradient id="a"><stop offset="0"/><stop offset="1" stop-color="#323232"/></linearGradient><linearGradient id="b" x1="8.466" x2="8.466" y1=".529" y2="16.404" gradientUnits="userSpaceOnUse"><stop offset="0" stop-color="#14bd59"/><stop offset="1" stop-color="#14bd8d"/></linearGradient><linearGradient id="d" x1="7.083" x2="7.083" y1="4.159" y2="11.291" gradientUnits="userSpaceOnUse"><stop offset="0" stop-color="#b4ea6e"/><stop offset="1" stop-color="#8cf464"/></linearGradient><linearGradient id="f" x1="10.65" x2="10.65" y1="7.06" y2="12.763" gradientUnits="userSpaceOnUse"><stop offset="0" stop-color="#fff"/><stop offset="1" stop-color="#ececec"/></linearGradient><linearGradient xlink:href="#a" id="g" x1="5.712" x2="5.712" y1="5.867" y2="7.01" gradientUnits="userSpaceOnUse"/><linearGradient xlink:href="#a" id="h" x1="8.376" x2="8.376" y1="5.867" y2="7.01" gradientUnits="userSpaceOnUse"/><linearGradient xlink:href="#a" id="i" x1="9.554" x2="9.554" y1="8.434" y2="9.348" gradientUnits="userSpaceOnUse"/><linearGradient xlink:href="#a" id="j" x1="11.685" x2="11.685" y1="8.434" y2="9.348" gradientUnits="userSpaceOnUse"/><filter id="c" width="1.152" height="1.159" x="-.076" y="-.079" color-interpolation-filters="sRGB"><feGaussianBlur stdDeviation=".236"/></filter><filter id="e" width="1.19" height="1.198" x="-.095" y="-.099" color-interpolation-filters="sRGB"><feGaussianBlur stdDeviation=".236"/></filter></defs><circle cx="8.466" cy="8.466" r="7.937" fill="url(#b)"/><path fill-rule="evenodd" d="M7.083 4.16a3.715 3.428 0 0 1 3.715 3.427 3.715 3.428 0 0 1-3.715 3.429 3.715 3.428 0 0 1-1.584-.33c-.65.552-1.339.605-1.339.605.372-.424.62-.997.625-1.01a3.715 3.428 0 0 1-1.417-2.694A3.715 3.428 0 0 1 7.083 4.16" filter="url(#c)" opacity=".15"/><g fill-rule="evenodd"><path fill="url(#d)" d="M7.083 4.16a3.715 3.428 0 0 1 3.715 3.427 3.715 3.428 0 0 1-3.715 3.429 3.715 3.428 0 0 1-1.584-.33c-.65.552-1.339.605-1.339.605.372-.424.62-.997.625-1.01a3.715 3.428 0 0 1-1.417-2.694A3.715 3.428 0 0 1 7.083 4.16"/><path d="M10.65 7.06a2.97 2.741 0 0 0-2.97 2.742 2.97 2.741 0 0 0 2.97 2.74 2.97 2.741 0 0 0 1.266-.263c.52.442 1.071.484 1.071.484a3.5 3.5 0 0 1-.5-.808A2.97 2.741 0 0 0 13.621 9.8a2.97 2.741 0 0 0-2.971-2.74" filter="url(#e)" opacity=".15"/><path fill="url(#f)" d="M10.65 7.06a2.97 2.741 0 0 0-2.97 2.742 2.97 2.741 0 0 0 2.97 2.74 2.97 2.741 0 0 0 1.266-.263c.52.442 1.071.484 1.071.484a3.5 3.5 0 0 1-.5-.808A2.97 2.741 0 0 0 13.621 9.8a2.97 2.741 0 0 0-2.971-2.74"/><circle cx="5.712" cy="6.439" r=".571" fill="url(#g)"/></g><g fill-rule="evenodd"><circle cx="8.376" cy="6.439" r=".571" fill="url(#h)"/><circle cx="9.554" cy="8.891" r=".457" fill="url(#i)"/><circle cx="11.685" cy="8.891" r=".457" fill="url(#j)"/></g></svg>