<svg id="SimpleNote" width="64" height="64" enable-background="new 0 0 1024 1024" image-rendering="optimizeSpeed" version="1.1" viewBox="0 0 64 64" xmlns="http://www.w3.org/2000/svg" xmlns:xlink="http://www.w3.org/1999/xlink">
 <defs>
  <linearGradient id="c" x1="519.68" x2="519.68" y1="2.8257" y2="1026.1" gradientTransform="matrix(1.0007 0 0 1.0007 -.029212 -.81883)" gradientUnits="userSpaceOnUse">
   <stop stop-color="#d7d7d7" offset="0"/>
   <stop stop-color="#faf8f6" offset=".5"/>
   <stop stop-color="#fff" offset="1"/>
  </linearGradient>
  <filter id="e" x="-.035863" y="-.036138" width="1.0717" height="1.0723" color-interpolation-filters="sRGB">
   <feGaussianBlur stdDeviation="0.75453"/>
  </filter>
  <linearGradient id="a" x1="23.683" x2="25.655" y1="-25.544" y2="75.049" gradientUnits="userSpaceOnUse">
   <stop stop-color="#111" offset="0"/>
   <stop stop-color="#4c4c4c" offset=".54902"/>
   <stop stop-color="#888" offset="1"/>
  </linearGradient>
  <filter id="d" x="-.036" y="-.036" width="1.072" height="1.072" color-interpolation-filters="sRGB">
   <feGaussianBlur stdDeviation="14.170353"/>
  </filter>
  <linearGradient id="linearGradient928" x1="29.532" x2="29.532" y1="15.029" y2="49.05" gradientUnits="userSpaceOnUse">
   <stop stop-color="#45ca7e" offset="0"/>
   <stop stop-color="#309c3a" offset="1"/>
  </linearGradient>
  <filter id="filter1048" x="-.10414" y="-.11215" width="1.2083" height="1.2243" color-interpolation-filters="sRGB">
   <feGaussianBlur stdDeviation="0.82672654"/>
  </filter>
  <filter id="filter1174" x="-.108" y="-.108" width="1.216" height="1.216" color-interpolation-filters="sRGB">
   <feGaussianBlur stdDeviation="1.7146783"/>
  </filter>
 </defs>
 <g id="bg" transform="matrix(.063513 0 0 .063513 -.54372 -.49348)" stroke-width="15.695">
  <path d="m970.43 391.52c-1.1008-4.3532-2.3517-9.0066-3.6527-13.61-1.0007-3.4025-2.0015-6.855-3.1523-10.508-1.6012-5.1538-3.4025-10.508-5.3039-15.862-6.4547-18.263-14.16-36.076-23.167-53.689-3.8028-7.4054-7.9558-14.961-12.309-22.416-20.315-34.525-45.833-67.249-76.406-97.821-72.653-72.653-157.26-116.74-253.84-132.15-16.262-2.6019-32.824-4.4032-50.087-5.3539-9.7071-0.5504-19.865-0.85062-30.122-0.85062-9.3568 0-18.614 0.25018-27.92 0.75055-118.44 6.1045-220.46 51.988-306.07 137.6q-138.35 138.35-138.35 333.99c0 130.45 46.134 241.83 138.35 334.04 56.741 56.691 120.64 95.97 191.24 117.64 36.777 11.258 74.855 17.863 114.83 19.965h0.40029c8.5062 0.45033 16.612 0.70051 24.518 0.70051h3.0022c10.308 0 20.515-0.30022 30.122-0.80058 2.5018-0.15011 4.7535-0.30022 6.9551-0.45033 20.215-1.4511 39.929-4.053 58.743-7.7056 7.9558-1.5511 15.812-3.3024 23.417-5.1538 80.859-20.315 152.26-61.645 214.81-124.19 48.636-48.636 84.462-102.57 107.43-161.92 18.463-47.685 28.671-98.872 30.572-153.61 0.20015-6.0544 0.30022-12.259 0.30022-18.514v-3.0022c-0.20014-40.68-4.9536-79.558-14.31-117.09z" filter="url(#d)" opacity=".25"/>
  <path d="m970.43 391.52c-1.1008-4.3532-2.3517-9.0066-3.6527-13.61-1.0007-3.4025-2.0015-6.855-3.1523-10.508-1.6012-5.1538-3.4025-10.508-5.3039-15.862-6.4547-18.263-14.16-36.076-23.167-53.689-3.8028-7.4054-7.9558-14.961-12.309-22.416-20.315-34.525-45.833-67.249-76.406-97.821-72.653-72.653-157.26-116.74-253.84-132.15-16.262-2.6019-32.824-4.4032-50.087-5.3539-9.7071-0.5504-19.865-0.85062-30.122-0.85062-9.3568 0-18.614 0.25018-27.92 0.75055-118.44 6.1045-220.46 51.988-306.07 137.6q-138.35 138.35-138.35 333.99c0 130.45 46.134 241.83 138.35 334.04 56.741 56.691 120.64 95.97 191.24 117.64 36.777 11.258 74.855 17.863 114.83 19.965h0.40029c8.5062 0.45033 16.612 0.70051 24.518 0.70051h3.0022c10.308 0 20.515-0.30022 30.122-0.80058 2.5018-0.15011 4.7535-0.30022 6.9551-0.45033 20.215-1.4511 39.929-4.053 58.743-7.7056 7.9558-1.5511 15.812-3.3024 23.417-5.1538 80.859-20.315 152.26-61.645 214.81-124.19 48.636-48.636 84.462-102.57 107.43-161.92 18.463-47.685 28.671-98.872 30.572-153.61 0.20015-6.0544 0.30022-12.259 0.30022-18.514v-3.0022c-0.20014-40.68-4.9536-79.558-14.31-117.09z" fill="url(#c)"/>
 </g>
 <g transform="matrix(.99727 0 0 .99727 .12551 .66576)" stroke-width=".68043">
  <path d="m31.962 13.371a19.052 19.052 0 0 0-19.052 19.052 19.052 19.052 0 0 0 2.2898 9.0198l-0.0345-0.0279c0.96022 2.2556 0.88993 2.8707 0.73888 4.7548-0.10526 1.3132-0.46147 2.6537-0.90633 3.4089-0.40336 0.68315-0.72697 1.3901-0.72697 1.5697 0 0.55591 3.2109 0.36063 6.0531-0.36743 3.1613-0.80903 3.6069-0.89272 5.9755-0.16875a19.052 19.052 0 0 0 0.07281 0.02314c0.10479 0.03198 0.19052 0.05647 0.30279 0.09118l-0.02654-0.02109a19.052 19.052 0 0 0 5.3135 0.76956 19.052 19.052 0 0 0 19.052-19.052 19.052 19.052 0 0 0-19.052-19.052z" filter="url(#filter1174)" opacity=".15"/>
  <path d="m31.962 12.368a19.052 19.052 0 0 0-19.052 19.052 19.052 19.052 0 0 0 2.2898 9.0198l-0.0345-0.0279c0.96022 2.2556 0.88993 2.8707 0.73888 4.7548-0.10526 1.3132-0.46147 2.6537-0.90633 3.4089-0.40336 0.68315-0.72697 1.3901-0.72697 1.5697 0 0.55591 3.2109 0.36063 6.0531-0.36743 3.1613-0.80903 3.6069-0.89272 5.9755-0.16875a19.052 19.052 0 0 0 0.07281 0.02314c0.10479 0.03198 0.19052 0.05647 0.30279 0.09118l-0.02654-0.02109a19.052 19.052 0 0 0 5.3135 0.76956 19.052 19.052 0 0 0 19.052-19.052 19.052 19.052 0 0 0-19.052-19.052z" fill="url(#linearGradient928)"/>
  <path d="m39.107 40.32c1.4282-0.68208 2.0923-1.5379 2.3212-2.9916 0.1745-1.1079 0.09402-1.3913-2.0786-2.4374-2.7625-1.3301-2.5922-1.3365-3.7823 0.14111-0.74066 0.91956-1.0589 1.2179-1.2993 1.2179-2.8153-0.76118-5.6799-2.9599-6.591-5.8473 0-0.12364 0.29965-0.57598 0.6659-1.0052 1.0769-1.2621 1.0781-1.293 0.13784-3.6095-1.0824-2.6668-1.4486-2.6487-2.6278-2.6975-1.2068-0.0499-1.5881 0.14191-2.3517 1.1829-0.78996 1.077-1.072 1.9434-1.0655 3.273 0.0086 1.6876 0.56163 3.0427 2.1634 5.2977 2.7498 3.871 5.4326 5.9721 9.2977 7.2813 2.3639 0.80076 3.8265 0.85538 5.2102 0.19458z" filter="url(#filter1048)" opacity=".15"/>
  <path d="m39.107 39.811c1.4282-0.68208 2.0923-1.5379 2.3212-2.9916 0.1745-1.1079 0.09402-1.3913-2.0786-2.4374-2.7625-1.3301-2.5922-1.3365-3.7823 0.14111-0.74066 0.91956-1.0589 1.2179-1.2993 1.2179-2.8153-0.76118-5.6799-2.9599-6.591-5.8473 0-0.12364 0.29965-0.57598 0.6659-1.0052 1.0769-1.2621 1.0781-1.293 0.13784-3.6095-1.0824-2.6668-1.4486-2.6487-2.6278-2.6975-1.2068-0.0499-1.5881 0.14191-2.3517 1.1829-0.78996 1.077-1.072 1.9434-1.0655 3.273 0.0086 1.6876 0.56163 3.0427 2.1634 5.2977 2.7498 3.871 5.4326 5.9721 9.2977 7.2813 2.3639 0.80076 3.8265 0.85538 5.2102 0.19458z" fill="#fff"/>
 </g>
</svg>
