<svg xmlns="http://www.w3.org/2000/svg" width="64" height="64" enable-background="new 0 0 1024 1024" image-rendering="optimizeSpeed"><defs><filter id="a" width="1.072" height="1.072" x="-.036" y="-.036" color-interpolation-filters="sRGB"><feGaussianBlur stdDeviation="14.17"/></filter><filter id="e" width="1.208" height="1.224" x="-.104" y="-.112" color-interpolation-filters="sRGB"><feGaussianBlur stdDeviation=".827"/></filter><filter id="c" width="1.216" height="1.216" x="-.108" y="-.108" color-interpolation-filters="sRGB"><feGaussianBlur stdDeviation="1.715"/></filter><linearGradient id="b" x1="519.68" x2="519.68" y1="2.826" y2="1026.1" gradientTransform="translate(-.03 -.819) scale(1.0007)" gradientUnits="userSpaceOnUse"><stop offset="0" stop-color="#d7d7d7"/><stop offset=".5" stop-color="#faf8f6"/><stop offset="1" stop-color="#fff"/></linearGradient><linearGradient id="d" x1="29.532" x2="29.532" y1="15.029" y2="49.05" gradientUnits="userSpaceOnUse"><stop offset="0" stop-color="#45ca7e"/><stop offset="1" stop-color="#309c3a"/></linearGradient></defs><g stroke-width="15.695"><path d="M970.43 391.52a514.995 514.995 0 0 0-3.653-13.61c-1-3.403-2.001-6.855-3.152-10.508a421.479 421.479 0 0 0-5.304-15.862c-6.455-18.263-14.16-36.076-23.167-53.689a475.424 475.424 0 0 0-12.309-22.416c-20.315-34.525-45.833-67.249-76.406-97.821-72.653-72.653-157.26-116.74-253.84-132.15a484.051 484.051 0 0 0-50.087-5.354c-9.707-.55-19.865-.85-30.122-.85-9.357 0-18.614.25-27.92.75-118.44 6.105-220.46 51.988-306.07 137.6Q40.05 315.96 40.05 511.6c0 130.45 46.134 241.83 138.35 334.04 56.741 56.691 120.64 95.97 191.24 117.64 36.777 11.258 74.855 17.863 114.83 19.965h.4c8.507.45 16.612.7 24.518.7h3.003a583.3 583.3 0 0 0 30.122-.8c2.501-.15 4.753-.3 6.955-.45 20.215-1.451 39.929-4.053 58.743-7.706a519.823 519.823 0 0 0 23.417-5.154c80.859-20.315 152.26-61.645 214.81-124.19 48.636-48.636 84.462-102.57 107.43-161.92 18.463-47.685 28.67-98.872 30.572-153.61.2-6.054.3-12.259.3-18.514V508.6c-.2-40.68-4.954-79.558-14.31-117.09z" filter="url(#a)" opacity=".25" transform="translate(-.544 -.493) scale(.06351)"/><path fill="url(#b)" d="M970.43 391.52a514.995 514.995 0 0 0-3.653-13.61c-1-3.403-2.001-6.855-3.152-10.508a421.479 421.479 0 0 0-5.304-15.862c-6.455-18.263-14.16-36.076-23.167-53.689a475.424 475.424 0 0 0-12.309-22.416c-20.315-34.525-45.833-67.249-76.406-97.821-72.653-72.653-157.26-116.74-253.84-132.15a484.051 484.051 0 0 0-50.087-5.354c-9.707-.55-19.865-.85-30.122-.85-9.357 0-18.614.25-27.92.75-118.44 6.105-220.46 51.988-306.07 137.6Q40.05 315.96 40.05 511.6c0 130.45 46.134 241.83 138.35 334.04 56.741 56.691 120.64 95.97 191.24 117.64 36.777 11.258 74.855 17.863 114.83 19.965h.4c8.507.45 16.612.7 24.518.7h3.003a583.3 583.3 0 0 0 30.122-.8c2.501-.15 4.753-.3 6.955-.45 20.215-1.451 39.929-4.053 58.743-7.706a519.823 519.823 0 0 0 23.417-5.154c80.859-20.315 152.26-61.645 214.81-124.19 48.636-48.636 84.462-102.57 107.43-161.92 18.463-47.685 28.67-98.872 30.572-153.61.2-6.054.3-12.259.3-18.514V508.6c-.2-40.68-4.954-79.558-14.31-117.09z" transform="translate(-.544 -.493) scale(.06351)"/></g><g stroke-width=".68"><path d="M31.962 13.371A19.052 19.052 0 0 0 12.91 32.423a19.052 19.052 0 0 0 2.29 9.02l-.035-.028c.96 2.256.89 2.87.74 4.755-.106 1.313-.462 2.653-.907 3.409-.404.683-.727 1.39-.727 1.57 0 .555 3.21.36 6.053-.368 3.161-.81 3.607-.893 5.975-.169a19.052 19.052 0 0 0 .073.023l.303.091-.026-.02a19.052 19.052 0 0 0 5.313.769 19.052 19.052 0 0 0 19.052-19.052A19.052 19.052 0 0 0 31.962 13.37z" filter="url(#c)" opacity=".15" transform="translate(.126 .666) scale(.99727)"/><path fill="url(#d)" d="M31.962 12.368A19.052 19.052 0 0 0 12.91 31.42a19.052 19.052 0 0 0 2.29 9.02l-.035-.028c.96 2.256.89 2.87.74 4.755-.106 1.313-.462 2.653-.907 3.409-.404.683-.727 1.39-.727 1.57 0 .555 3.21.36 6.053-.368 3.161-.81 3.607-.893 5.975-.169a19.052 19.052 0 0 0 .073.023l.303.091-.026-.02a19.052 19.052 0 0 0 5.313.769A19.052 19.052 0 0 0 51.014 31.42a19.052 19.052 0 0 0-19.052-19.052z" transform="translate(.126 .666) scale(.99727)"/><path d="M39.107 40.32c1.428-.682 2.092-1.538 2.321-2.992.175-1.108.094-1.39-2.078-2.437-2.763-1.33-2.593-1.336-3.783.141-.74.92-1.059 1.218-1.299 1.218-2.815-.761-5.68-2.96-6.591-5.847 0-.124.3-.576.666-1.005 1.077-1.263 1.078-1.293.138-3.61-1.083-2.667-1.449-2.649-2.628-2.697-1.207-.05-1.588.141-2.352 1.182-.79 1.077-1.072 1.944-1.065 3.273.008 1.688.561 3.043 2.163 5.298 2.75 3.871 5.433 5.972 9.298 7.281 2.364.801 3.826.856 5.21.195z" filter="url(#e)" opacity=".15" transform="translate(.126 .666) scale(.99727)"/><path fill="#fff" d="M39.126 40.368c1.424-.68 2.086-1.534 2.315-2.983.174-1.105.093-1.388-2.073-2.431-2.755-1.327-2.585-1.333-3.772.14-.739.918-1.056 1.215-1.296 1.215-2.808-.759-5.664-2.952-6.573-5.831 0-.123.299-.575.664-1.003 1.074-1.258 1.075-1.29.137-3.6-1.079-2.659-1.444-2.64-2.62-2.69-1.204-.05-1.584.142-2.345 1.18-.788 1.074-1.07 1.938-1.063 3.264.009 1.683.56 3.035 2.157 5.284 2.743 3.86 5.418 5.955 9.273 7.261 2.357.799 3.816.853 5.196.194z"/></g></svg>