<svg xmlns="http://www.w3.org/2000/svg" width="64" height="64"><defs><filter id="c" width="1.063" height="1.084" x="-.032" y="-.042" color-interpolation-filters="sRGB"><feGaussianBlur stdDeviation=".611"/></filter><filter id="a" width="1.072" height="1.072" x="-.036" y="-.036" color-interpolation-filters="sRGB"><feGaussianBlur stdDeviation=".42"/></filter><filter id="d" width="1.167" height="1.305" x="-.084" y="-.152" color-interpolation-filters="sRGB"><feGaussianBlur stdDeviation="1.08"/></filter><linearGradient id="b" x1="512" x2="512" y1="952.34" y2="71.604" gradientTransform="matrix(.06359 0 0 .06358 384.02 515.25)" gradientUnits="userSpaceOnUse"><stop offset="0" stop-color="#606060"/><stop offset="1" stop-color="#1e1e1e"/></linearGradient></defs><g transform="translate(-384.57 -515.8)"><circle cx="400.57" cy="531.8" r="14" filter="url(#a)" opacity=".25" transform="translate(-441.79 -591.7)scale(2.1429)"/><circle cx="416.59" cy="547.84" r="30.001" fill="none"/><path fill="url(#b)" d="M434.82 523.99q-3.86-2.973-8.444-4.556-4.737-1.637-9.802-1.637c-16.57 0-30.003 13.432-30.003 30.001 0 15.158 11.245 27.684 25.845 29.709q1.07.15 2.159.22a32 32 0 0 0 2 .07c16.566 0 29.996-13.433 29.996-30 0-1.31-.082-2.603-.244-3.866a30 30 0 0 0-.884-4.304q-1.33-4.69-4.082-8.727-2.722-3.977-6.54-6.91z"/><g transform="matrix(.46586 -.05557 .05726 .45209 175.16 362.17)"><rect width="46.303" height="34.939" x="334.23" y="513.13" filter="url(#c)" opacity=".75" ry="1.644" transform="matrix(1.735 .21325 -.21325 1.735 -46.117 -529.76)"/><rect width="80.96" height="61.472" x="473.85" y="376.8" fill="#b3b3b3" rx="4.261" ry="4.261" transform="rotate(7.007)"/><ellipse cx="498.91" cy="384.49" opacity=".35" rx="3.196" ry="3.293" transform="rotate(7.008)skewX(-.084)"/><ellipse cx="489.83" cy="384.49" opacity=".35" rx="3.196" ry="3.293" transform="rotate(7.007)"/><ellipse cx="481.31" cy="384.49" opacity=".35" rx="3.196" ry="3.293" transform="rotate(7.007)"/><path fill="#fff" d="m422.474 447.044-5.104 41.53a4.253 4.253 0 0 0 3.71 4.75l71.896 8.836a4.253 4.253 0 0 0 4.749-3.71l5.104-41.53z" opacity=".75"/></g><rect width="31" height="17.001" x="406.57" y="547.8" filter="url(#d)" opacity=".15" rx="2" ry="1.941"/><rect width="31" height="17.001" x="406.57" y="546.8" fill="#ccc" rx="2" ry="1.941"/><circle cx="418.89" cy="550.3" r="1.5" opacity=".35" transform="skewX(-.086)"/><circle cx="414.07" cy="550.3" r="1.5" opacity=".35"/><circle cx="410.07" cy="550.3" r="1.5" opacity=".35"/><path fill="#fff" d="M406.57 552.8v9.059c0 1.075.892 1.941 2 1.941h27c1.108 0 2-.866 2-1.941V552.8z"/></g></svg>