<svg width="64" height="64" version="1.1" xmlns="http://www.w3.org/2000/svg">
 <defs>
  <linearGradient id="b" x1="399.57" x2="399.57" y1="545.8" y2="517.8" gradientTransform="matrix(2.1429 0 0 2.1429 -826.36 -1107.5)" gradientUnits="userSpaceOnUse">
   <stop stop-color="#3889e9" offset="0"/>
   <stop stop-color="#5ea5fb" offset="1"/>
  </linearGradient>
  <linearGradient id="a" x1="399.99" x2="399.99" y1="545.14" y2="518.14" gradientTransform="matrix(2.1429 0 0 2.1429 -826.36 -1107.5)" gradientUnits="userSpaceOnUse">
   <stop stop-color="#21abf3" offset="0"/>
   <stop stop-color="#1d64ff" offset="1"/>
  </linearGradient>
  <filter id="c" x="-.036" y="-.036" width="1.072" height="1.072" color-interpolation-filters="sRGB">
   <feGaussianBlur stdDeviation="0.41999874"/>
  </filter>
  <filter id="e" x="-.062911" y="-.057347" width="1.1258" height="1.1147" color-interpolation-filters="sRGB">
   <feGaussianBlur stdDeviation="0.71680154"/>
  </filter>
  <filter id="d" x="-.06" y="-.06" width="1.12" height="1.12" color-interpolation-filters="sRGB">
   <feGaussianBlur stdDeviation="0.64998245"/>
  </filter>
  <linearGradient id="h" x1="499.95" x2="499.95" y1="2.0078" y2="1026" gradientTransform="matrix(.99609 0 0 .99609 2 2)" gradientUnits="userSpaceOnUse">
   <stop stop-color="#fff" offset="0"/>
   <stop stop-color="#d7d7d7" offset="1"/>
  </linearGradient>
  <linearGradient id="f" x1="2331.3" x2="2331.3" y1="435.51" y2="45.726" gradientTransform="matrix(2.6682,0,0,2.6682,-5700.6,-128.41)" gradientUnits="userSpaceOnUse">
   <stop stop-color="#807c76" offset=".057692"/>
   <stop stop-color="#d4d7d0" offset=".38462"/>
   <stop stop-color="#bdbfba" offset=".55769"/>
   <stop stop-color="#acb3ac" offset=".63462"/>
   <stop stop-color="#dadfda" offset=".75"/>
   <stop stop-color="#c2c7c1" offset=".86274"/>
   <stop stop-color="#7f7a75" offset=".94118"/>
  </linearGradient>
  <filter id="g" x="-.048" y="-.048" width="1.096" height="1.096" color-interpolation-filters="sRGB">
   <feGaussianBlur stdDeviation="6.174"/>
  </filter>
  <radialGradient id="i" cx="512.01" cy="512.01" r="470.16" gradientTransform="matrix(.97625 0 0 .97625 12.152 12.141)" gradientUnits="userSpaceOnUse">
   <stop stop-opacity="0" offset="0"/>
   <stop stop-opacity=".52593" offset="1"/>
  </radialGradient>
 </defs>
 <circle transform="matrix(2.1429 0 0 2.1429 -826.36 -1107.5)" cx="400.57" cy="531.8" r="14" filter="url(#c)" opacity=".25" stroke-width=".73333"/>
 <g stroke-width="1.5715">
  <circle cx="32.02" cy="32.044" r="30.001" fill="url(#a)"/>
  <circle cx="32.02" cy="32.044" r="30.001" fill-opacity="0"/>
  <circle cx="32.02" cy="32.044" r="0" fill="url(#b)"/>
 </g>
 <path d="m18.339 31-0.01134-9.7514 10.938-1.629v11.38zm12.752-11.671 14.578-2.3282v14h-14.578zm14.582 13.671-0.0038 14-14.578-2.2489v-11.751zm-16.403 11.498-10.931-1.6441v-9.8572h10.927v11.498z" filter="url(#e)" opacity=".15" stroke-width="3.7796"/>
 <path d="m18.339 31-0.01134-9.7514 10.938-1.629v11.38zm12.752-11.671 14.578-2.3282v14h-14.578zm14.582 13.671-0.0038 14-14.578-2.2489v-11.751zm-16.403 11.498-10.931-1.6441v-9.8572h10.927v11.498z" fill="#fff" stroke-width="3.7796"/>
 <circle cx="50" cy="50" r="13" filter="url(#d)" opacity=".25" stroke-width="3.7796" style="paint-order:stroke markers fill"/>
 <g transform="matrix(.43333 0 0 .43333 -.060649 25.322)" stroke-width="2.3077">
  <g transform="matrix(.058825 0 0 .058825 85.407 26.831)" image-rendering="optimizeSpeed">
   <path id="path" d="m984.88 316.75q-9.2923-22.529-20.962-44.139c-4.376-8.1578-9.0222-16.261-13.938-24.203-21.124-34.252-46.894-66.614-77.311-97.029-99.568-99.568-219.83-149.38-360.67-149.38-140.85 0-261.05 49.811-360.61 149.38-99.569 99.572-149.38 219.78-149.38 360.61s49.811 261.11 149.38 360.67c99.568 99.568 219.78 149.32 360.61 149.32 140.84 0 261.11-49.758 360.67-149.32 54.836-54.89 94.598-116.04 119.23-183.42 20.043-54.943 30.092-113.99 30.092-177.25 0-48.515-5.8888-94.598-17.72-138.25-1.3507-4.9163-2.7553-9.8326-4.2139-14.695-4.4302-14.371-9.5085-28.471-15.181-42.302z" fill="url(#h)" stroke-width="42.388"/>
   <circle cx="512" cy="511.99" r="458.99" color="#000000" fill="#666" stroke-width="88.676"/>
   <circle cx="512" cy="511.99" r="458.99" color="#000000" fill="url(#i)" stroke-width="88.676"/>
   <path class="shp86" transform="matrix(2.6682,0,0,2.6682,-5700.6,-128.41)" d="m2410.5 116.88-6.45 17.23c-0.42 1.13 0.01 2.63 0.96 3.36l7.59 5.81c0.93 0.71 2.52 0.75 3.5 0.05l14.96-10.68c0.98-0.7 2.47-0.58 3.32 0.28l6.27 6.27c0.87 0.87 0.98 2.34 0.28 3.32l-10.68 14.95c-0.7 0.98-0.67 2.55 0.06 3.5l5.82 7.59c0.71 0.93 2.24 1.38 3.36 0.96l17.21-6.45c1.13-0.42 2.53 0.08 3.13 1.13l4.43 7.67c0.62 1.07 0.34 2.51-0.59 3.28l-14.2 11.69c-0.93 0.77-1.31 2.29-0.85 3.39l3.65 8.83c0.45 1.08 1.8 1.91 3 1.8l18.31-1.78c1.2-0.12 2.43 0.73 2.74 1.9l2.29 8.56c0.32 1.19-0.32 2.51-1.42 3.01l-16.75 7.62c-1.1 0.5-1.86 1.87-1.7 3.06l1.25 9.47c0.15 1.16 1.25 2.31 2.44 2.51l18.14 3.02c1.19 0.2 2.15 1.34 2.15 2.54v8.86c0 1.23-0.96 2.35-2.15 2.54l-18.12 3.02c-1.19 0.2-2.28 1.32-2.43 2.51l-1.24 9.48c-0.15 1.16 0.61 2.56 1.7 3.06l16.72 7.61c1.09 0.5 1.73 1.85 1.42 3.01l-2.29 8.56c-0.32 1.19-1.54 2.02-2.74 1.9l-18.29-1.77c-1.2-0.12-2.54 0.69-3 1.8l-3.67 8.83c-0.45 1.08-0.08 2.63 0.85 3.39l14.2 11.69c0.93 0.77 1.2 2.23 0.59 3.28l-4.43 7.67c-0.62 1.07-2.01 1.55-3.14 1.13l-17.23-6.45c-1.13-0.42-2.63 0.01-3.36 0.96l-5.81 7.59c-0.71 0.93-0.75 2.52-0.05 3.5l10.68 14.96c0.7 0.98 0.58 2.47-0.28 3.32l-6.27 6.27c-0.87 0.87-2.34 0.98-3.32 0.28l-14.95-10.68c-0.98-0.7-2.55-0.67-3.5 0.06l-7.59 5.82c-0.93 0.71-1.38 2.24-0.96 3.36l6.45 17.21c0.42 1.13-0.08 2.53-1.13 3.13l-7.67 4.43c-1.07 0.62-2.51 0.34-3.28-0.59l-11.69-14.2c-0.77-0.93-2.29-1.31-3.39-0.85l-8.83 3.65c-1.08 0.45-1.91 1.8-1.8 3l1.78 18.31c0.12 1.2-0.73 2.43-1.9 2.74l-8.56 2.29c-1.19 0.32-2.51-0.32-3.01-1.42l-7.62-16.75c-0.5-1.1-1.87-1.86-3.06-1.7l-9.47 1.25c-1.16 0.15-2.31 1.25-2.51 2.44l-3.02 18.14c-0.2 1.19-1.34 2.15-2.54 2.15h-8.86c-1.23 0-2.35-0.96-2.54-2.15l-3.02-18.12c-0.2-1.19-1.32-2.28-2.51-2.43l-9.48-1.24c-1.16-0.15-2.56 0.61-3.06 1.7l-7.61 16.72c-0.5 1.09-1.85 1.73-3.01 1.42l-8.56-2.29c-1.19-0.32-2.02-1.54-1.9-2.74l1.77-18.29c0.12-1.2-0.69-2.54-1.8-3l-8.83-3.67c-1.08-0.45-2.63-0.08-3.39 0.85l-11.69 14.2c-0.77 0.93-2.23 1.2-3.28 0.59l-7.67-4.43c-1.07-0.62-1.55-2.01-1.13-3.14l6.45-17.23c0.42-1.13-0.01-2.63-0.96-3.36l-7.59-5.81c-0.93-0.71-2.52-0.75-3.5-0.05l-14.96 10.68c-0.98 0.7-2.47 0.58-3.32-0.28l-6.27-6.27c-0.87-0.87-0.98-2.34-0.28-3.32l10.68-14.95c0.7-0.98 0.67-2.55-0.06-3.5l-5.82-7.59c-0.71-0.93-2.24-1.38-3.36-0.96l-17.21 6.45c-1.13 0.42-2.53-0.08-3.13-1.13l-4.43-7.67c-0.62-1.07-0.34-2.51 0.59-3.28l14.2-11.69c0.93-0.77 1.31-2.29 0.85-3.39l-3.65-8.83c-0.45-1.08-1.8-1.91-3-1.8l-18.31 1.78c-1.2 0.12-2.43-0.73-2.74-1.9l-2.29-8.56c-0.32-1.19 0.32-2.51 1.42-3.01l16.75-7.62c1.1-0.5 1.86-1.87 1.7-3.06l-1.25-9.47c-0.15-1.16-1.25-2.31-2.44-2.51l-18.14-3.02c-1.19-0.2-2.15-1.34-2.15-2.54v-8.86c0-1.23 0.96-2.35 2.15-2.54l18.12-3.02c1.19-0.2 2.28-1.32 2.43-2.51l1.24-9.48c0.15-1.16-0.61-2.56-1.7-3.06l-16.72-7.61c-1.09-0.5-1.73-1.85-1.42-3.01l2.29-8.56c0.32-1.19 1.54-2.02 2.74-1.9l18.29 1.77c1.2 0.12 2.54-0.69 3-1.8l3.67-8.83c0.45-1.08 0.08-2.63-0.85-3.39l-14.2-11.69c-0.93-0.77-1.2-2.23-0.59-3.28l4.43-7.67c0.62-1.07 2.01-1.55 3.14-1.13l17.23 6.45c1.13 0.42 2.63-0.01 3.36-0.96l5.81-7.59c0.71-0.93 0.75-2.52 0.05-3.5l-10.68-14.96c-0.7-0.98-0.58-2.47 0.28-3.32l6.27-6.27c0.87-0.87 2.34-0.98 3.32-0.28l14.95 10.68c0.98 0.7 2.55 0.67 3.5-0.06l7.59-5.82c0.93-0.71 1.38-2.24 0.96-3.36l-6.45-17.21c-0.42-1.13 0.08-2.53 1.13-3.13l7.67-4.43c1.07-0.62 2.51-0.34 3.28 0.59l11.69 14.2c0.77 0.93 2.29 1.31 3.39 0.85l8.83-3.65c1.08-0.45 1.91-1.8 1.8-3l-1.78-18.31c-0.12-1.2 0.73-2.43 1.9-2.74l8.56-2.29c1.19-0.32 2.51 0.32 3.01 1.42l7.62 16.75c0.5 1.1 1.87 1.86 3.06 1.7l9.47-1.25c1.16-0.15 2.31-1.25 2.51-2.44l3.02-18.14c0.2-1.19 1.34-2.15 2.54-2.15h8.86c1.23 0 2.35 0.96 2.54 2.15l3.02 18.12c0.2 1.19 1.32 2.28 2.51 2.43l9.48 1.24c1.16 0.15 2.56-0.61 3.06-1.7l7.61-16.72c0.5-1.09 1.85-1.73 3.01-1.42l8.56 2.29c1.19 0.32 2.02 1.54 1.9 2.74l-1.77 18.29c-0.12 1.2 0.69 2.54 1.8 3l8.83 3.67c1.08 0.45 2.63 0.08 3.39-0.85l11.69-14.2c0.77-0.93 2.23-1.2 3.28-0.59l7.67 4.43c1.07 0.62 1.55 2.01 1.13 3.14zm-29.36 36.71c-24.86-14.36-53.13-17.48-78.92-10.94-4.97 1.26-2.05 0.57-2.05 0.57-6.92 2.36-9.68 9.49-6.19 15.85 0 0-2.01-3.67 0.16 0.28 10.34 18.87 31.04 56.63 31.04 56.63 4.68 8.54 16.37 15.3 26.12 15.1 0 0 45.86-0.95 68.8-1.43 4.26-0.09 0 0 0 0 7.06-0.15 11.65-6.09 10.11-12.74-7.16-25.78-24.05-48.88-49.06-63.32zm-1.73 184.17c25.11-13.92 42.34-36.54 50.02-62.02 1.48-4.91 0.57-2.05 0.57-2.05 1.54-7.15-3.15-13.18-10.4-13.47 0 0 4.18 0.17-0.32-0.01-21.5-0.85-64.52-2.56-64.52-2.56-9.73-0.39-21.55 6.15-26.4 14.61 0 0-22.8 39.8-34.21 59.71-2.12 3.7 0 0 0 0-3.51 6.13-0.77 13.12 5.72 15.23 0 0-4.1-1.14 0 0 25.79 7.14 54.29 4.56 79.54-9.44zm-125.19-16.85c5.07 4.57 12.5 3.44 16.05-2.67 0 0-2.14 3.68 0 0 11.54-19.83 34.6-59.48 34.6-59.48 4.9-8.43 4.66-21.93-0.54-30.17 0 0-22.99-36.41-34.48-54.6-2.41-3.81-0.17-0.27-0.17-0.27-3.87-6.13-11.44-7.18-16.86-2.27 0 0 2.02-2.22-1.49 1.52-18.22 19.39-29.2 45.62-28.7 74.33 0.5 28.87 12.52 54.84 31.6 73.6z" fill="#050505" filter="url(#g)" opacity=".75" stroke-width="39.231"/>
   <path id="gear" class="shp86" d="m731.1 171.44-17.21 45.973c-1.1206 3.0151 0.0267 7.0174 2.5615 8.9652l20.252 15.502c2.4814 1.8944 6.7239 2.0012 9.3387 0.13341l39.916-28.496c2.6148-1.8677 6.5905-1.5476 8.8584 0.7471l16.73 16.73c2.3213 2.3213 2.6148 6.2436 0.7471 8.8584l-28.496 39.89c-1.8677 2.6148-1.7877 6.8039 0.16009 9.3387l15.529 20.252c1.8944 2.4814 5.9768 3.6821 8.9652 2.5615l45.92-17.21c3.0151-1.1206 6.7506 0.21346 8.3515 3.0151l11.82 20.465c1.6543 2.855 0.90719 6.6972-1.5742 8.7517l-37.888 31.191c-2.4814 2.0545-3.4953 6.1102-2.268 9.0452l9.7389 23.56c1.2007 2.8817 4.8028 5.0963 8.0046 4.8028l48.855-4.7494c3.2018-0.32019 6.4837 1.9478 7.3109 5.0696l6.1102 22.84c0.85383 3.1752-0.85382 6.6972-3.7888 8.0313l-44.692 20.332c-2.935 1.3341-4.9628 4.9895-4.5359 8.1647l3.3352 25.268c0.40023 3.0951 3.3352 6.1635 6.5104 6.6972l48.401 8.058c3.1752 0.53364 5.7366 3.5754 5.7366 6.7772v23.64c0 3.2819-2.5615 6.2703-5.7366 6.7772l-48.348 8.058c-3.1752 0.53364-6.0835 3.522-6.4837 6.6972l-3.3086 25.295c-0.40023 3.0951 1.6276 6.8306 4.5359 8.1647l44.612 20.305c2.9083 1.3341 4.616 4.9362 3.7888 8.0313l-6.1102 22.84c-0.85383 3.1752-4.109 5.3898-7.3109 5.0696l-48.801-4.7227c-3.2018-0.32018-6.7772 1.8411-8.0046 4.8028l-9.7923 23.56c-1.2007 2.8816-0.21346 7.0174 2.268 9.0452l37.888 31.191c2.4814 2.0545 3.2018 5.9501 1.5742 8.7517l-11.82 20.465c-1.6543 2.855-5.3631 4.1357-8.3782 3.0151l-45.973-17.21c-3.0151-1.1206-7.0174 0.0267-8.9652 2.5615l-15.502 20.252c-1.8944 2.4814-2.0012 6.7239-0.13341 9.3387l28.496 39.916c1.8677 2.6148 1.5476 6.5904-0.7471 8.8584l-16.73 16.73c-2.3213 2.3213-6.2436 2.6148-8.8584 0.74709l-39.89-28.496c-2.6148-1.8677-6.8039-1.7877-9.3387 0.16009l-20.252 15.529c-2.4814 1.8944-3.6821 5.9768-2.5615 8.9652l17.21 45.92c1.1206 3.0151-0.21345 6.7505-3.0151 8.3515l-20.465 11.82c-2.855 1.6543-6.6972 0.90719-8.7517-1.5742l-31.191-37.888c-2.0545-2.4814-6.1102-3.4953-9.0452-2.268l-23.56 9.7389c-2.8816 1.2007-5.0963 4.8028-4.8028 8.0046l4.7494 48.855c0.32018 3.2018-1.9478 6.4837-5.0696 7.3109l-22.84 6.1102c-3.1752 0.85382-6.6972-0.85382-8.0313-3.7888l-20.332-44.692c-1.3341-2.935-4.9895-4.9629-8.1647-4.5359l-25.268 3.3352c-3.0951 0.40023-6.1636 3.3352-6.6972 6.5104l-8.058 48.401c-0.53364 3.1752-3.5754 5.7366-6.7772 5.7366h-23.64c-3.2819 0-6.2703-2.5615-6.7772-5.7366l-8.058-48.348c-0.53364-3.1752-3.522-6.0835-6.6972-6.4837l-25.295-3.3086c-3.0951-0.40023-6.8306 1.6276-8.1647 4.5359l-20.305 44.612c-1.3341 2.9083-4.9362 4.616-8.0313 3.7888l-22.84-6.1102c-3.1752-0.85382-5.3898-4.109-5.0696-7.3109l4.7227-48.801c0.32018-3.2018-1.8411-6.7772-4.8028-8.0046l-23.56-9.7923c-2.8817-1.2007-7.0174-0.21345-9.0452 2.268l-31.191 37.888c-2.0545 2.4814-5.9501 3.2018-8.7517 1.5742l-20.465-11.82c-2.855-1.6543-4.1357-5.3631-3.0151-8.3782l17.21-45.973c1.1206-3.0151-0.0267-7.0174-2.5615-8.9652l-20.252-15.502c-2.4814-1.8944-6.7239-2.0012-9.3387-0.13341l-39.916 28.496c-2.6148 1.8677-6.5905 1.5476-8.8584-0.74709l-16.73-16.73c-2.3213-2.3213-2.6148-6.2436-0.7471-8.8584l28.496-39.89c1.8677-2.6148 1.7877-6.8039-0.16009-9.3387l-15.529-20.252c-1.8944-2.4814-5.9768-3.6821-8.9652-2.5615l-45.92 17.21c-3.0151 1.1206-6.7506-0.21346-8.3515-3.0151l-11.82-20.465c-1.6543-2.855-0.90719-6.6972 1.5742-8.7517l37.888-31.191c2.4814-2.0545 3.4954-6.1102 2.268-9.0452l-9.7389-23.56c-1.2007-2.8816-4.8028-5.0963-8.0046-4.8028l-48.855 4.7494c-3.2018 0.32018-6.4837-1.9478-7.3109-5.0696l-6.1102-22.84c-0.85383-3.1752 0.85382-6.6972 3.7888-8.0313l44.692-20.332c2.935-1.3341 4.9628-4.9895 4.5359-8.1647l-3.3352-25.268c-0.40023-3.0951-3.3352-6.1635-6.5104-6.6972l-48.401-8.058c-3.1752-0.53364-5.7366-3.5754-5.7366-6.7772v-23.64c0-3.2819 2.5615-6.2703 5.7366-6.7772l48.348-8.058c3.1752-0.53364 6.0835-3.522 6.4837-6.6972l3.3086-25.295c0.40023-3.0951-1.6276-6.8306-4.5359-8.1647l-44.612-20.305c-2.9083-1.3341-4.616-4.9362-3.7888-8.0313l6.1102-22.84c0.85383-3.1752 4.109-5.3898 7.3109-5.0696l48.801 4.7227c3.2018 0.32019 6.7772-1.841 8.0046-4.8028l9.7923-23.56c1.2007-2.8817 0.21346-7.0174-2.268-9.0452l-37.888-31.191c-2.4814-2.0545-3.2018-5.9501-1.5742-8.7517l11.82-20.465c1.6543-2.855 5.3631-4.1357 8.3782-3.0151l45.973 17.21c3.0151 1.1206 7.0174-0.0267 8.9652-2.5615l15.502-20.252c1.8944-2.4814 2.0012-6.7239 0.13341-9.3387l-28.496-39.916c-1.8677-2.6148-1.5476-6.5904 0.7471-8.8584l16.73-16.73c2.3213-2.3213 6.2436-2.6148 8.8584-0.7471l39.89 28.496c2.6148 1.8677 6.8039 1.7877 9.3387-0.1601l20.252-15.529c2.4814-1.8944 3.6821-5.9768 2.5615-8.9652l-17.21-45.92c-1.1206-3.0151 0.21345-6.7506 3.0151-8.3515l20.465-11.82c2.855-1.6543 6.6972-0.90718 8.7517 1.5742l31.191 37.888c2.0545 2.4814 6.1102 3.4953 9.0452 2.268l23.56-9.7389c2.8817-1.2007 5.0963-4.8028 4.8028-8.0046l-4.7494-48.855c-0.32019-3.2018 1.9478-6.4837 5.0696-7.3109l22.84-6.1102c3.1752-0.85382 6.6972 0.85383 8.0313 3.7888l20.332 44.692c1.3341 2.935 4.9895 4.9628 8.1647 4.5359l25.268-3.3352c3.0951-0.40023 6.1635-3.3352 6.6972-6.5104l8.058-48.401c0.53364-3.1752 3.5754-5.7366 6.7772-5.7366h23.64c3.2819 0 6.2703 2.5615 6.7772 5.7366l8.058 48.348c0.53364 3.1752 3.522 6.0835 6.6972 6.4837l25.295 3.3086c3.0951 0.40023 6.8306-1.6276 8.1647-4.5359l20.305-44.612c1.3341-2.9083 4.9362-4.616 8.0313-3.7888l22.84 6.1102c3.1752 0.85382 5.3898 4.109 5.0696 7.3109l-4.7227 48.801c-0.32018 3.2018 1.8411 6.7772 4.8028 8.0046l23.56 9.7923c2.8816 1.2007 7.0174 0.21346 9.0452-2.268l31.191-37.888c2.0545-2.4814 5.9501-3.2018 8.7517-1.5742l20.465 11.82c2.855 1.6543 4.1357 5.3631 3.0151 8.3782zm-78.338 97.95c-66.331-38.315-141.76-46.64-210.57-29.19-13.261 3.3619-5.4698 1.5209-5.4698 1.5209-18.464 6.297-25.828 25.321-16.516 42.291 0 0-5.3631-9.7923 0.42691 0.7471 27.589 50.349 82.821 151.1 82.821 151.1 12.487 22.786 43.678 40.823 69.693 40.29 0 0 122.36-2.5348 183.57-3.8155 11.367-0.24014 0 0 0 0 18.837-0.40023 31.085-16.249 26.976-33.993-19.104-68.786-64.17-130.42-130.9-168.95zm-4.616 491.4c66.998-37.141 112.97-97.496 133.46-165.48 3.9489-13.101 1.5209-5.4698 1.5209-5.4698 4.109-19.078-8.4048-35.167-27.749-35.941 0 0 11.153 0.4536-0.85382-0.0267-57.366-2.268-172.15-6.8306-172.15-6.8306-25.962-1.0406-57.5 16.409-70.44 38.982 0 0-60.835 106.19-91.279 159.32-5.6566 9.8723 0 0 0 0-9.3654 16.356-2.0545 35.007 15.262 40.637 0 0-10.94-3.0418 0 0 68.813 19.051 144.86 12.167 212.23-25.188zm-334.03-44.959c13.528 12.194 33.352 9.1786 42.825-7.1241 0 0-5.7099 9.819 0 0 30.791-52.91 92.32-158.7 92.32-158.7 13.074-22.493 12.434-58.514-1.4408-80.5 0 0-61.342-97.149-92-145.68-6.4304-10.166-0.45359-0.72042-0.45359-0.72042-10.326-16.356-30.524-19.158-44.986-6.0568 0 0 5.3898-5.9234-3.9756 4.0557-48.615 51.736-77.911 121.72-76.577 198.33 1.3341 77.031 33.406 146.32 84.315 196.38z" fill="url(#f)" stroke-width="104.68"/>
  </g>
 </g>
</svg>
