<svg xmlns="http://www.w3.org/2000/svg" width="64" height="64"><defs><filter id="a" width="1.072" height="1.072" x="-.036" y="-.036" color-interpolation-filters="sRGB"><feGaussianBlur stdDeviation=".42"/></filter><filter id="c" width="1.126" height="1.115" x="-.063" y="-.057" color-interpolation-filters="sRGB"><feGaussianBlur stdDeviation=".717"/></filter><filter id="d" width="1.028" height="1.028" x="-.014" y="-.014" color-interpolation-filters="sRGB"><feGaussianBlur stdDeviation=".298"/></filter><filter id="e" width="1.059" height="1.059" x="-.03" y="-.03" color-interpolation-filters="sRGB"><feGaussianBlur stdDeviation=".298"/></filter><linearGradient id="b" x1="399.99" x2="399.99" y1="545.14" y2="518.14" gradientTransform="translate(-826.36 -1107.5)scale(2.1429)" gradientUnits="userSpaceOnUse"><stop offset="0" stop-color="#21abf3"/><stop offset="1" stop-color="#1d64ff"/></linearGradient></defs><circle cx="400.57" cy="531.8" r="14" filter="url(#a)" opacity=".25" transform="translate(-826.36 -1107.5)scale(2.1429)"/><g stroke-width="1.571"><circle cx="32.02" cy="32.044" r="30.001" fill="url(#b)"/><circle cx="32.02" cy="32.044" r="30.001" fill="none"/></g><path d="m18.339 31-.011-9.751 10.938-1.63V31zm12.752-11.671 14.578-2.328v14H31.091zM45.673 33l-.004 14-14.578-2.249v-11.75zM29.27 44.498l-10.931-1.644v-9.857h10.927v11.498z" filter="url(#c)" opacity=".15"/><path fill="#fff" d="m18.339 31-.011-9.751 10.938-1.63V31zm12.752-11.671 14.578-2.328v14H31.091zM45.673 33l-.004 14-14.578-2.249v-11.75zM29.27 44.498l-10.931-1.644v-9.857h10.927v11.498z"/><path fill="#fff" d="M10.787 10.787a29.934 29.934 0 0 0 0 42.426c.119.119.242.23.362.345-11.4-11.775-11.288-30.43.345-42.065S41.784-.25 53.56 11.148c-.116-.12-.227-.243-.345-.362a29.934 29.934 0 0 0-42.426 0z" filter="url(#d)" opacity=".35"/><path fill="#fff" d="M37.435 61.526c5.772-1.063 11.297-3.831 15.779-8.313s7.25-10.007 8.313-15.779c-1.592 5.434-4.606 10.657-9.02 15.072s-9.639 7.428-15.072 9.02" filter="url(#e)" opacity=".35"/></svg>