<svg width="64" height="64" xmlns="http://www.w3.org/2000/svg"><defs><filter id="a" x="-.036" y="-.036" width="1.072" height="1.072" color-interpolation-filters="sRGB"><feGaussianBlur stdDeviation=".42"/></filter><filter id="d" x="-.063" y="-.057" width="1.126" height="1.115" color-interpolation-filters="sRGB"><feGaussianBlur stdDeviation=".717"/></filter><filter id="e" x="-.06" y="-.06" width="1.12" height="1.12" color-interpolation-filters="sRGB"><feGaussianBlur stdDeviation=".65"/></filter><filter id="g" x="-.06" y="-.06" width="1.12" height="1.12" color-interpolation-filters="sRGB"><feGaussianBlur stdDeviation=".318"/></filter><linearGradient id="c" x1="399.57" x2="399.57" y1="545.8" y2="517.8" gradientTransform="translate(-826.36 -1107.5) scale(2.1429)" gradientUnits="userSpaceOnUse"><stop stop-color="#3889e9" offset="0"/><stop stop-color="#5ea5fb" offset="1"/></linearGradient><linearGradient id="b" x1="399.99" x2="399.99" y1="545.14" y2="518.14" gradientTransform="translate(-826.36 -1107.5) scale(2.1429)" gradientUnits="userSpaceOnUse"><stop stop-color="#21abf3" offset="0"/><stop stop-color="#1d64ff" offset="1"/></linearGradient><linearGradient id="f" x1="49" x2="49" y1="36.001" y2="62" gradientTransform="translate(1 1)" gradientUnits="userSpaceOnUse"><stop stop-color="#ff405f" offset="0"/><stop stop-color="#ff704e" offset="1"/></linearGradient></defs><circle transform="translate(-826.36 -1107.5) scale(2.1429)" cx="400.57" cy="531.8" r="14" filter="url(#a)" opacity=".25"/><g stroke-width="1.571"><circle cx="32.02" cy="32.044" r="30.001" fill="url(#b)"/><circle cx="32.02" cy="32.044" r="30.001" fill="none"/></g><path d="m18.339 31-.011-9.751 10.938-1.63V31zm12.752-11.671 14.578-2.328v14H31.091zM45.673 33l-.004 14-14.578-2.249v-11.75zM29.27 44.498l-10.931-1.644v-9.857h10.927v11.498z" filter="url(#d)" opacity=".15"/><path d="m18.339 31-.011-9.751 10.938-1.63V31zm12.752-11.671 14.578-2.328v14H31.091zM45.673 33l-.004 14-14.578-2.249v-11.75zM29.27 44.498l-10.931-1.644v-9.857h10.927v11.498z" fill="#fff"/><circle cx="50" cy="50" r="13" filter="url(#e)" opacity=".25" style="paint-order:stroke markers fill"/><circle cx="50" cy="50" r="13" fill="url(#f)" style="paint-order:stroke markers fill"/><path d="m45.051 43.637-1.414 1.414 4.95 4.95-4.95 4.948 1.414 1.415 4.95-4.95 4.948 4.95 1.414-1.415L51.414 50l4.95-4.949-1.415-1.414L50 48.587z" filter="url(#g)" opacity=".15" style="paint-order:markers stroke fill"/><path d="m45.051 43.637-1.414 1.414 4.95 4.95-4.95 4.948 1.414 1.415 4.95-4.95 4.948 4.95 1.414-1.415L51.414 50l4.95-4.949-1.415-1.414L50 48.587z" fill="#fff" style="paint-order:markers stroke fill"/></svg>