<svg width="64" height="64" viewBox="0 0 16.933 16.933" xmlns="http://www.w3.org/2000/svg" xmlns:xlink="http://www.w3.org/1999/xlink"><defs><linearGradient id="a" x1="399.57" x2="399.57" y1="545.8" y2="517.8" gradientTransform="translate(-826.36 -1107.5) scale(2.1429)" gradientUnits="userSpaceOnUse"><stop stop-color="#3889e9" offset="0"/><stop stop-color="#5ea5fb" offset="1"/></linearGradient><linearGradient id="d" x1="399.57" x2="399.57" y1="545.8" y2="517.8" gradientTransform="translate(-218.64 -293.03) scale(.56697)" gradientUnits="userSpaceOnUse" xlink:href="#a"/><linearGradient id="c" x1="399.99" x2="399.99" y1="545.14" y2="518.14" gradientTransform="translate(-218.64 -293.03) scale(.56697)" gradientUnits="userSpaceOnUse"><stop stop-color="#6abaf6" offset="0"/><stop stop-color="#4d7df5" offset="1"/></linearGradient><linearGradient id="e" x1="399.99" x2="399.99" y1="545.14" y2="518.14" gradientTransform="translate(-218.64 -293.03) scale(.56697)" gradientUnits="userSpaceOnUse"><stop stop-color="#3edff5" offset="0"/><stop stop-color="#0981b7" offset="1"/></linearGradient><filter id="b" x="-.036" y="-.036" width="1.072" height="1.072" color-interpolation-filters="sRGB"><feGaussianBlur stdDeviation=".42"/></filter><filter id="f" x="-.082" y="-.158" width="1.164" height="1.317" color-interpolation-filters="sRGB"><feGaussianBlur stdDeviation="1.895"/></filter></defs><circle transform="translate(-218.64 -293.02) scale(.56696)" cx="400.57" cy="531.8" r="14" filter="url(#b)" opacity=".25"/><g stroke-width=".416"><circle cx="8.467" cy="8.467" r="7.938" fill="url(#c)"/><circle cx="8.467" cy="8.467" r="7.938" fill="none"/><circle cx="8.467" cy="8.467" r="7.938" fill="url(#e)"/></g><path transform="scale(.26458)" d="M44.596 17.283c-12.151.184-18.954 7.113-22.541 13.859-3.282 6.175-3.777 11.281-3.873 12.27H4.254a30.001 30.001 0 0 0 1.223 2.607h13.725c.371 0 .732-.166.976-.447.137-.163.242-.36.287-.572a.841.841 0 0 0 0-.162s.611-6.182 3.912-12.393c3.083-5.793 8.563-11.391 18.34-12.268-5.818 11.648.291 25.107.291 25.107.046.056.101.113.163.164.224.331.612.55 1.013.57h14.34a30.001 30.001 0 0 0 1.221-2.607H45.163c-.5-1.115-6.124-13.982.617-24.131.174-.305.22-.683.123-1.02a1.338 1.338 0 0 0-.287-.57 1.322 1.322 0 0 0-1.017-.408h-.002z" filter="url(#f)" opacity=".15"/><path d="M11.799 4.315c-3.215.048-5.015 1.881-5.964 3.666-.868 1.634-.999 2.985-1.024 3.246H1.023c.088.236.186.466.294.69H5.08a.347.347 0 0 0 .335-.27.225.225 0 0 0 0-.042s.161-1.636 1.035-3.279c.815-1.533 2.265-3.014 4.852-3.246-1.54 3.082.077 6.643.077 6.643.012.015.027.03.043.043.06.088.162.146.268.152h3.926c.108-.225.206-.455.294-.69h-3.96c-.133-.296-1.621-3.7.162-6.385a.355.355 0 0 0 .033-.27.354.354 0 0 0-.076-.15.35.35 0 0 0-.27-.109z" opacity=".75"/><path d="M16.404 8.467a7.938 7.938 0 0 1-7.938 7.937A7.938 7.938 0 0 1 .53 8.467 7.938 7.938 0 0 1 8.466.529a7.938 7.938 0 0 1 7.938 7.938z" fill="none"/></svg>