<svg xmlns="http://www.w3.org/2000/svg" xmlns:xlink="http://www.w3.org/1999/xlink" width="64" height="64"><defs><linearGradient id="j" x1="27" x2="19" y1="44" y2="33" gradientTransform="matrix(1.3333 0 0 1.6667 0 -4.667)" gradientUnits="userSpaceOnUse"><stop offset="0" stop-color="#18222a"/><stop offset="1" stop-color="#566069"/></linearGradient><linearGradient id="i" x2="0" y1="36" y2="32" gradientTransform="translate(.667 8.667)scale(1.3333)" gradientUnits="userSpaceOnUse"><stop offset="0" stop-color="#f39c12"/><stop offset="1" stop-color="#f5ab35"/></linearGradient><linearGradient id="a" x1="11" x2="29.13" y1="4" y2="22.13" gradientTransform="translate(7 4)" gradientUnits="userSpaceOnUse"><stop offset="0"/><stop offset="1" stop-opacity="0"/></linearGradient><linearGradient id="h" x1="8" x2="21" y1="4" y2="32" gradientTransform="translate(16 8.667)scale(1.3333)" gradientUnits="userSpaceOnUse"><stop offset="0" stop-color="#bdc3c7"/><stop offset="1" stop-color="#7f8c8d"/></linearGradient><linearGradient xlink:href="#a" id="e" x1="21.57" x2="42" y1="8.773" y2="29.2" gradientUnits="userSpaceOnUse"/><linearGradient xlink:href="#a" id="g" x1="14" x2="21" y1="39" y2="46" gradientTransform="translate(-50.034 15.39)" gradientUnits="userSpaceOnUse"/><linearGradient xlink:href="#a" id="f" x1="11" x2="29.13" y1="4" y2="22.13" gradientTransform="translate(7 4)" gradientUnits="userSpaceOnUse"/><linearGradient id="c" x1="519.68" x2="519.68" y1="2.826" y2="1026.1" gradientTransform="translate(-.546 -.545)scale(.06356)" gradientUnits="userSpaceOnUse"><stop offset="0" stop-color="#d7d7d7"/><stop offset=".5" stop-color="#faf8f6"/><stop offset="1" stop-color="#fff"/></linearGradient><filter id="b" width="1.072" height="1.072" x="-.036" y="-.036" color-interpolation-filters="sRGB"><feGaussianBlur stdDeviation="14.17"/></filter><filter id="d" width="1.137" height="1.107" x="-.069" y="-.053" color-interpolation-filters="sRGB"><feGaussianBlur stdDeviation=".8"/></filter></defs><path d="M970.43 391.52a515 515 0 0 0-3.653-13.61c-1-3.403-2.001-6.855-3.152-10.508a422 422 0 0 0-5.304-15.862c-6.455-18.263-14.16-36.076-23.167-53.689a475 475 0 0 0-12.309-22.416c-20.315-34.525-45.833-67.249-76.406-97.821-72.653-72.653-157.26-116.74-253.84-132.15a484 484 0 0 0-50.087-5.354c-9.707-.55-19.865-.85-30.122-.85-9.357 0-18.614.25-27.92.75-118.44 6.105-220.46 51.988-306.07 137.6Q40.05 315.96 40.05 511.6c0 130.45 46.134 241.83 138.35 334.04 56.741 56.691 120.64 95.97 191.24 117.64 36.777 11.258 74.855 17.863 114.83 19.965h.4c8.507.45 16.612.7 24.518.7h3.003a583 583 0 0 0 30.122-.8c2.501-.15 4.753-.3 6.955-.45 20.215-1.451 39.929-4.053 58.743-7.706a520 520 0 0 0 23.417-5.154c80.859-20.315 152.26-61.645 214.81-124.19 48.636-48.636 84.462-102.57 107.43-161.92 18.463-47.685 28.67-98.872 30.572-153.61.2-6.054.3-12.259.3-18.514V508.6c-.2-40.68-4.954-79.558-14.31-117.09z" filter="url(#b)" opacity=".25" transform="translate(-.544 -.493)scale(.06351)"/><path fill="url(#c)" d="M61.091 24.373c-.07-.276-.15-.572-.232-.864-.064-.217-.127-.436-.2-.668A28 28 0 0 0 58.069 17c-1.29-2.193-2.911-4.271-4.853-6.213q-6.921-6.923-16.122-8.393a31 31 0 0 0-3.181-.34 34 34 0 0 0-3.687-.006q-11.283.582-19.439 8.74Q2 19.573 2 32c0 8.285 2.93 15.36 8.787 21.216 3.604 3.6 7.663 6.095 12.146 7.472a30.2 30.2 0 0 0 7.294 1.268h.025c.54.028 1.055.044 1.557.044H32c.656 0 1.304-.019 1.914-.05l.442-.03a31 31 0 0 0 3.73-.489 33 33 0 0 0 1.488-.327c5.135-1.29 9.67-3.915 13.643-7.888 3.089-3.089 5.364-6.514 6.823-10.284q1.76-4.542 1.942-9.756.018-.578.019-1.176v-.19a31.2 31.2 0 0 0-.909-7.437z"/><g fill-rule="evenodd" stroke-width=".8" filter="url(#d)" transform="translate(70.042 -15.237)scale(1.25)"><path fill="url(#e)" d="M21.57 8.773 21 10l1 34h20V29.203z" opacity=".1" transform="translate(-50.034 15.39)"/><path fill="url(#f)" d="m18 8 2 2 2 20-7 2z" opacity=".2" transform="translate(-50.034 15.39)"/><path fill="url(#g)" d="m-36.034 54.39 5 5h5v-5z" opacity=".2"/></g><g stroke-linejoin="bevel"><path fill="url(#h)" d="M30.667 14A2.667 2.667 0 0 0 28 16.667a2.67 2.67 0 0 0 1.14 2.182C27.187 24.747 23.615 34.387 20 38c0 0 5.334 8 5.334 13.333h13.333C38.667 46 44 38 44 38c-3.613-3.613-7.183-13.24-9.133-19.148A2.67 2.67 0 0 0 36 16.667 2.667 2.667 0 0 0 33.333 14v24.36a2.666 2.666 0 1 1-2.667.001V19.333z"/><path fill="url(#i)" d="M25.333 51.333h13.333c1.108 0 2 .892 2 2s-.892 2-2 2H25.333c-1.108 0-2-.892-2-2s.892-2 2-2"/><path fill="url(#j)" d="M25.334 55.334v5.965a31 31 0 0 0 4.893.656h.025c.54.029 1.054.045 1.557.045H32c.655 0 1.302-.019 1.912-.05l.443-.03a31 31 0 0 0 3.731-.488c.197-.039.385-.087.58-.13v-5.968z"/></g></svg>