<svg xmlns="http://www.w3.org/2000/svg" width="64" height="64" enable-background="new 0 0 1024 1024" image-rendering="optimizeSpeed"><defs><linearGradient id="c" x1="520" x2="520" y1="4" y2="1024" gradientUnits="userSpaceOnUse"><stop offset="0" stop-color="#323232"/><stop offset="1" stop-color="#5c5c5c"/></linearGradient><linearGradient id="b" x1="520" x2="520" y1="4" y2="1024" gradientTransform="translate(-54.199 -55.306)scale(1.1069)" gradientUnits="userSpaceOnUse"><stop offset="0" stop-color="#2f5fdd"/><stop offset="1" stop-color="#1a7fd4"/></linearGradient><linearGradient id="d" x1="760" x2="760" y1="4" y2="1024" gradientTransform="rotate(180 515.85 515.85)scale(1.0151)" gradientUnits="userSpaceOnUse"><stop offset="0" stop-color="#5e7ee2"/><stop offset="1" stop-color="#3f9ae5"/></linearGradient><filter id="a" width="1.072" height="1.072" x="-.036" y="-.036" color-interpolation-filters="sRGB"><feGaussianBlur stdDeviation="14.344"/></filter></defs><g stroke-width="15.938" transform="rotate(180 32.063 32.063)scale(.06274)"><circle cx="512" cy="512" r="478.12" filter="url(#a)" opacity=".25" style="paint-order:stroke markers fill"/><circle cx="512" cy="512" r="478.12" fill="url(#b)" style="paint-order:stroke markers fill"/><circle cx="511.5" cy="512.5" r="431.93" fill="url(#c)" style="paint-order:stroke markers fill"/><path fill="url(#d)" d="M512 512V33.87c-131.68.12-244.12 46.822-337.26 139.91C81.536 266.984 34.89 379.64 34.89 511.49c0 .17.004.338.004.508z"/></g><path fill-rule="evenodd" d="M32 59V31.99h27v-1H32V5h-1v25.99H5v1h26V59z" opacity=".2" style="paint-order:fill markers stroke"/></svg>