<svg width="64" height="64" version="1.1" viewBox="0 0 16.933 16.933" xmlns="http://www.w3.org/2000/svg" xmlns:xlink="http://www.w3.org/1999/xlink">
 <defs>
  <filter id="b" x="-.036" y="-.036" width="1.072" height="1.072" color-interpolation-filters="sRGB">
   <feGaussianBlur stdDeviation="0.41999874"/>
  </filter>
  <linearGradient id="d" x1="399.99" x2="399.99" y1="545.14" y2="518.14" gradientTransform="matrix(2.1429,0,0,2.1429,-826.36,-1107.5)" gradientUnits="userSpaceOnUse">
   <stop stop-color="#e78275" offset="0"/>
   <stop stop-color="#dc4c3a" offset="1"/>
  </linearGradient>
  <linearGradient id="c" x1="399.57" x2="399.57" y1="545.8" y2="517.8" gradientTransform="matrix(2.1429,0,0,2.1429,-826.36,-1107.5)" gradientUnits="userSpaceOnUse">
   <stop stop-color="#3889e9" offset="0"/>
   <stop stop-color="#5ea5fb" offset="1"/>
  </linearGradient>
  <linearGradient id="a" x1="8.5988" x2="8.5988" y1="4.4978" y2="12.435" gradientTransform="matrix(2.1429,0,0,2.1429,-826.36,-1107.5)" gradientUnits="userSpaceOnUse">
   <stop stop-color="#fff" offset="0"/>
   <stop stop-color="#fee2d2" offset="1"/>
  </linearGradient>
 </defs>
 <circle transform="matrix(.56696 0 0 .56696 -218.64 -293.02)" cx="400.57" cy="531.8" r="14" filter="url(#b)" opacity=".25" stroke-width=".73333"/>
 <g transform="matrix(.26458 0 0 .26458 -.0052844 -.0116)" stroke-width="1.5715">
  <circle cx="32.02" cy="32.044" r="30.001" fill="url(#d)"/>
  <circle cx="32.02" cy="32.044" r="30.001" fill-opacity="0"/>
  <circle cx="32.02" cy="32.044" r="0" fill="url(#c)"/>
 </g>
 <path d="m7.8051 4.498c-0.21986 0-0.39687 0.177-0.39687 0.39687v3.1749c0 0.21986 0.177 0.39687 0.39687 0.39687s0.39687-0.177 0.39687-0.39687v-2.7781h1.3229a1.852 1.852 0 0 1 1.852 1.852 1.852 1.852 0 0 1-1.852 1.852h-2.9104v0.0067a1.7198 1.7198 0 0 0-1.5875 1.713 1.7198 1.7198 0 0 0 1.7198 1.7198h1.0583c0.21986 0 0.39687-0.177 0.39687-0.39687v-1.3229c0-0.21986-0.177-0.39687-0.39687-0.39687s-0.39687 0.177-0.39687 0.39687v0.92602h-0.66144a0.92602 0.92602 0 0 1-0.92602-0.92602 0.92602 0.92602 0 0 1 0.92602-0.92602h2.7781a2.6458 2.6458 0 0 0 2.6458-2.6458 2.6458 2.6458 0 0 0-2.6458-2.6458z" fill="url(#a)" fill-rule="evenodd" style="paint-order:stroke fill markers"/>
</svg>
