<svg width="64" height="64" viewBox="0 0 16.933 16.933" xmlns="http://www.w3.org/2000/svg"><defs><linearGradient id="b" x1="399.99" x2="399.99" y1="545.14" y2="518.14" gradientTransform="translate(-826.36 -1107.5) scale(2.1429)" gradientUnits="userSpaceOnUse"><stop stop-color="#e78275" offset="0"/><stop stop-color="#dc4c3a" offset="1"/></linearGradient><linearGradient id="c" x1="399.57" x2="399.57" y1="545.8" y2="517.8" gradientTransform="translate(-826.36 -1107.5) scale(2.1429)" gradientUnits="userSpaceOnUse"><stop stop-color="#3889e9" offset="0"/><stop stop-color="#5ea5fb" offset="1"/></linearGradient><linearGradient id="d" x1="8.599" x2="8.599" y1="4.498" y2="12.435" gradientTransform="translate(-826.36 -1107.5) scale(2.1429)" gradientUnits="userSpaceOnUse"><stop stop-color="#fff" offset="0"/><stop stop-color="#fee2d2" offset="1"/></linearGradient><filter id="a" x="-.036" y="-.036" width="1.072" height="1.072" color-interpolation-filters="sRGB"><feGaussianBlur stdDeviation=".42"/></filter></defs><circle transform="translate(-218.64 -293.02) scale(.56696)" cx="400.57" cy="531.8" r="14" filter="url(#a)" opacity=".25"/><g transform="translate(-.005 -.012) scale(.26458)" stroke-width="1.571"><circle cx="32.02" cy="32.044" r="30.001" fill="url(#b)"/><circle cx="32.02" cy="32.044" r="30.001" fill="none"/></g><path d="M7.805 4.498a.396.396 0 0 0-.397.397V8.07a.396.396 0 1 0 .794 0V5.292h1.323a1.852 1.852 0 0 1 1.852 1.852 1.852 1.852 0 0 1-1.852 1.852h-2.91v.006a1.72 1.72 0 0 0-1.588 1.713 1.72 1.72 0 0 0 1.72 1.72h1.058c.22 0 .397-.177.397-.397v-1.323a.396.396 0 1 0-.794 0v.926h-.661a.926.926 0 0 1-.926-.926.926.926 0 0 1 .926-.926h2.778a2.646 2.646 0 0 0 2.646-2.645 2.646 2.646 0 0 0-2.646-2.646z" fill="url(#d)" fill-rule="evenodd" style="paint-order:stroke fill markers"/></svg>