<?xml version="1.0" encoding="UTF-8"?>
<svg width="64" height="64" version="1.1" viewBox="0 0 16.933 16.933" xmlns="http://www.w3.org/2000/svg" xmlns:cc="http://creativecommons.org/ns#" xmlns:dc="http://purl.org/dc/elements/1.1/" xmlns:rdf="http://www.w3.org/1999/02/22-rdf-syntax-ns#" xmlns:xlink="http://www.w3.org/1999/xlink">
 <metadata>
  <rdf:RDF>
   <cc:Work rdf:about="">
    <dc:format>image/svg+xml</dc:format>
    <dc:type rdf:resource="http://purl.org/dc/dcmitype/StillImage"/>
    <dc:title/>
   </cc:Work>
  </rdf:RDF>
 </metadata>
 <defs>
  <filter id="b" x="-.036" y="-.036" width="1.072" height="1.072" color-interpolation-filters="sRGB">
   <feGaussianBlur stdDeviation="0.41999874"/>
  </filter>
  <linearGradient id="d" x1="399.99" x2="399.99" y1="545.14" y2="518.14" gradientTransform="matrix(2.1429,0,0,2.1429,-826.36,-1107.5)" gradientUnits="userSpaceOnUse">
   <stop stop-color="#6abaf6" offset="0"/>
   <stop stop-color="#2770dd" offset="1"/>
  </linearGradient>
  <linearGradient id="c" x1="399.57" x2="399.57" y1="545.8" y2="517.8" gradientTransform="matrix(2.1429,0,0,2.1429,-826.36,-1107.5)" gradientUnits="userSpaceOnUse">
   <stop stop-color="#3889e9" offset="0"/>
   <stop stop-color="#5ea5fb" offset="1"/>
  </linearGradient>
  <linearGradient id="linearGradient863" x1="8.9688" x2="9.0764" y1="5.0915" y2="13.289" gradientTransform="translate(0 -.1767)" gradientUnits="userSpaceOnUse">
   <stop stop-color="#f0faff" offset="0"/>
   <stop stop-color="#c5e4fc" offset="1"/>
  </linearGradient>
  <filter id="filter899" x="-.051617" y="-.071634" width="1.1032" height="1.1433" color-interpolation-filters="sRGB">
   <feGaussianBlur stdDeviation="0.22110899"/>
  </filter>
 </defs>
 <circle transform="matrix(.56696 0 0 .56696 -218.64 -293.02)" cx="400.57" cy="531.8" r="14" filter="url(#b)" opacity=".25" stroke-width=".73333"/>
 <g transform="matrix(.26458 0 0 .26458 -.0052869 -.011621)" stroke-width="1.5715">
  <circle cx="32.02" cy="32.044" r="30.001" fill="url(#d)"/>
  <circle cx="32.02" cy="32.044" r="30.001" fill-opacity="0"/>
  <circle cx="32.02" cy="32.044" r="0" fill="url(#c)"/>
 </g>
 <path d="m3.696 5.576c-0.274 0-0.449 0.246-0.334 0.494l2.721 5.891 0.245 0.53c0.113 0.246 0.306 0.488 0.576 0.493 0.27-5e-3 0.463-0.247 0.576-0.493l1.381-2.99 1.092-2.36c0.076-0.166 0.253-0.33 0.436-0.33h1.156c0.021 1e-3 0.041 4e-3 0.06 8e-3 5e-3 0 0.01 4e-3 0.014 6e-3a0.222 0.222 0 0 1 0.14 0.316l-0.864 1.872-0.109 0.234-0.432 0.936-0.109 0.234-0.055 0.12-0.053 0.114c-0.02 0.05-0.041 0.111-0.108 0.11-0.068 1e-3 -0.09-0.066-0.108-0.11l-0.432-0.936-0.109-0.234-0.052-0.113-0.66 1.424 0.785 1.7c0.114 0.246 0.307 0.488 0.576 0.492 0.27-5e-3 0.463-0.246 0.577-0.493l0.244-0.53 2.721-5.89c0.115-0.249-0.06-0.495-0.334-0.495h-3.456c-0.274 0-0.54 0.246-0.654 0.494l-1.585 3.431h0.00201l-0.1 0.214-0.107 0.234-0.108 0.234-0.109 0.234-0.108 0.234c-0.017999 0.044-0.04 0.111-0.108 0.11-0.066 1e-3 -0.088-0.06-0.108-0.11l-0.052011-0.113-0.056-0.12-0.108-0.235-0.109-0.234-0.432-0.936-0.865-1.872c-0.077-0.166 0.04-0.33 0.223-0.33h1.149c0.182 0 0.36 0.164 0.436 0.33l0.667 1.444 0.661-1.426-0.502-1.09c-0.115-0.247-0.38-0.493-0.655-0.493h-1.237z" filter="url(#filter899)" opacity=".1"/>
 <path d="m3.696 5.576c-0.274 0-0.449 0.246-0.334 0.494l2.721 5.891 0.245 0.53c0.113 0.246 0.306 0.488 0.576 0.493 0.27-5e-3 0.463-0.247 0.576-0.493l1.381-2.99 1.092-2.36c0.076-0.166 0.253-0.33 0.436-0.33h1.156c0.021 1e-3 0.041 4e-3 0.06 8e-3 5e-3 0 0.01 4e-3 0.014 6e-3a0.222 0.222 0 0 1 0.14 0.316l-0.864 1.872-0.109 0.234-0.432 0.936-0.109 0.234-0.055 0.12-0.053 0.114c-0.02 0.05-0.041 0.111-0.108 0.11-0.068 1e-3 -0.09-0.066-0.108-0.11l-0.432-0.936-0.109-0.234-0.052-0.113-0.66 1.424 0.785 1.7c0.114 0.246 0.307 0.488 0.576 0.492 0.27-5e-3 0.463-0.246 0.577-0.493l0.244-0.53 2.721-5.89c0.115-0.249-0.06-0.495-0.334-0.495h-3.456c-0.274 0-0.54 0.246-0.654 0.494l-1.585 3.431h0.00201l-0.1 0.214-0.107 0.234-0.108 0.234-0.109 0.234-0.108 0.234c-0.017999 0.044-0.04 0.111-0.108 0.11-0.066 1e-3 -0.088-0.06-0.108-0.11l-0.052011-0.113-0.056-0.12-0.108-0.235-0.109-0.234-0.432-0.936-0.865-1.872c-0.077-0.166 0.04-0.33 0.223-0.33h1.149c0.182 0 0.36 0.164 0.436 0.33l0.667 1.444 0.661-1.426-0.502-1.09c-0.115-0.247-0.38-0.493-0.655-0.493h-1.237z" fill="url(#linearGradient863)"/>
</svg>
