<svg xmlns="http://www.w3.org/2000/svg" width="64" height="64" viewBox="0 0 16.933 16.933"><defs><filter id="a" width="1.072" height="1.072" x="-.036" y="-.036" color-interpolation-filters="sRGB"><feGaussianBlur stdDeviation=".42"/></filter><filter id="c" width="1.103" height="1.143" x="-.052" y="-.072" color-interpolation-filters="sRGB"><feGaussianBlur stdDeviation=".221"/></filter><filter id="e" width="1.028" height="1.028" x="-.014" y="-.014" color-interpolation-filters="sRGB"><feGaussianBlur stdDeviation=".298"/></filter><filter id="f" width="1.059" height="1.059" x="-.03" y="-.03" color-interpolation-filters="sRGB"><feGaussianBlur stdDeviation=".298"/></filter><linearGradient id="b" x1="399.99" x2="399.99" y1="545.14" y2="518.14" gradientTransform="translate(-826.36 -1107.5)scale(2.1429)" gradientUnits="userSpaceOnUse"><stop offset="0" stop-color="#6abaf6"/><stop offset="1" stop-color="#2770dd"/></linearGradient><linearGradient id="d" x1="8.969" x2="9.076" y1="5.091" y2="13.289" gradientTransform="translate(0 -.177)" gradientUnits="userSpaceOnUse"><stop offset="0" stop-color="#f0faff"/><stop offset="1" stop-color="#c5e4fc"/></linearGradient></defs><circle cx="400.57" cy="531.8" r="14" filter="url(#a)" opacity=".25" transform="translate(-218.64 -293.02)scale(.56696)"/><g stroke-width="1.571" transform="translate(-.005 -.012)scale(.26458)"><circle cx="32.02" cy="32.044" r="30.001" fill="url(#b)"/><circle cx="32.02" cy="32.044" r="30.001" fill="none"/></g><path d="M3.696 5.576c-.274 0-.449.246-.334.494l2.721 5.891.245.53c.113.246.306.488.576.493.27-.005.463-.247.576-.493l1.381-2.99 1.092-2.36c.076-.166.253-.33.436-.33h1.156a.4.4 0 0 1 .06.008q.008.001.014.006a.222.222 0 0 1 .14.316l-.864 1.872-.109.234-.432.936-.109.234-.055.12-.053.114c-.02.05-.041.111-.108.11-.068.001-.09-.066-.108-.11l-.432-.936-.109-.234-.052-.113-.66 1.424.785 1.7c.114.246.307.488.576.492.27-.005.463-.246.577-.493l.244-.53 2.721-5.89c.115-.249-.06-.495-.334-.495H9.781c-.274 0-.54.246-.654.494L7.542 9.501h.002l-.1.214-.107.234-.108.234-.109.234-.108.234c-.018.044-.04.111-.108.11-.066.001-.088-.06-.108-.11l-.052-.113-.056-.12-.108-.235-.109-.234-.432-.936-.865-1.872c-.077-.166.04-.33.223-.33h1.149c.182 0 .36.164.436.33l.667 1.444.661-1.426-.502-1.09c-.115-.247-.38-.493-.655-.493H5.916z" filter="url(#c)" opacity=".1"/><path fill="url(#d)" d="M3.696 5.576c-.274 0-.449.246-.334.494l2.721 5.891.245.53c.113.246.306.488.576.493.27-.005.463-.247.576-.493l1.381-2.99 1.092-2.36c.076-.166.253-.33.436-.33h1.156a.4.4 0 0 1 .06.008q.008.001.014.006a.222.222 0 0 1 .14.316l-.864 1.872-.109.234-.432.936-.109.234-.055.12-.053.114c-.02.05-.041.111-.108.11-.068.001-.09-.066-.108-.11l-.432-.936-.109-.234-.052-.113-.66 1.424.785 1.7c.114.246.307.488.576.492.27-.005.463-.246.577-.493l.244-.53 2.721-5.89c.115-.249-.06-.495-.334-.495H9.781c-.274 0-.54.246-.654.494L7.542 9.501h.002l-.1.214-.107.234-.108.234-.109.234-.108.234c-.018.044-.04.111-.108.11-.066.001-.088-.06-.108-.11l-.052-.113-.056-.12-.108-.235-.109-.234-.432-.936-.865-1.872c-.077-.166.04-.33.223-.33h1.149c.182 0 .36.164.436.33l.667 1.444.661-1.426-.502-1.09c-.115-.247-.38-.493-.655-.493H5.916z"/><path fill="#fff" d="M10.787 10.787a29.934 29.934 0 0 0 0 42.426c.119.119.242.23.362.345-11.4-11.775-11.288-30.43.345-42.065S41.784-.25 53.56 11.148c-.116-.12-.227-.243-.345-.362a29.934 29.934 0 0 0-42.426 0z" filter="url(#e)" opacity=".35" transform="scale(.26458)"/><path fill="#fff" d="M37.435 61.526c5.772-1.063 11.297-3.831 15.779-8.313s7.25-10.007 8.313-15.779c-1.592 5.434-4.606 10.657-9.02 15.072s-9.639 7.428-15.072 9.02" filter="url(#f)" opacity=".35" transform="scale(.26458)"/></svg>