<svg width="64" height="64" version="1.1" viewBox="0 0 16.933 16.933" xmlns="http://www.w3.org/2000/svg">
 <defs>
  <filter id="f" x="-.029686" y="-.029686" width="1.0594" height="1.0594" color-interpolation-filters="sRGB">
   <feGaussianBlur stdDeviation=".298"/>
  </filter>
  <filter id="e" x="-.013864" y="-.013864" width="1.0277" height="1.0277" color-interpolation-filters="sRGB">
   <feGaussianBlur stdDeviation=".298"/>
  </filter>
  <linearGradient id="b" x1="399.99" x2="399.99" y1="545.14" y2="518.14" gradientTransform="matrix(.56696 0 0 .56696 -218.64 -293.03)" gradientUnits="userSpaceOnUse">
   <stop stop-color="#07b670" offset="0"/>
   <stop stop-color="#008852" offset="1"/>
  </linearGradient>
  <filter id="a" x="-.036" y="-.036" width="1.072" height="1.072" color-interpolation-filters="sRGB">
   <feGaussianBlur stdDeviation=".42"/>
  </filter>
 </defs>
 <circle transform="matrix(.56696 0 0 .56696 -218.64 -293.02)" cx="400.57" cy="531.8" r="14" filter="url(#a)" opacity=".25"/>
 <circle cx="8.466" cy="8.466" r="7.938" fill="url(#b)"/>
 <circle cx="8.466" cy="8.466" r="7.938" fill="none"/>
 <path transform="scale(.26458)" d="m10.787 10.787a29.934 29.934 0 0 0 0 42.426c0.119 0.119 0.242 0.23 0.362 0.345-11.4-11.775-11.288-30.43 0.345-42.065s30.29-11.743 42.066-0.345c-0.116-0.12-0.227-0.243-0.345-0.362a29.934 29.934 0 0 0-42.426 0z" fill="#fff" filter="url(#e)" opacity=".35"/>
 <g stroke-linecap="round" stroke-linejoin="round">
  <path d="m14.138 4.1784a0.88168 0.88168 0 0 0-0.32109 1.2041c1.7095 2.9609 0.7003 6.7213-2.2607 8.4307a0.88168 0.88168 0 0 0-0.32109 1.2041 0.88168 0.88168 0 0 0 1.2041 0.32326c3.7863-2.186 5.091-7.0527 2.905-10.839a0.88168 0.88168 0 0 0-1.2062-0.32326z" fill="#07b670" stop-color="#000000" stroke-width="1.1108"/>
  <path d="m13.452 12.579a0.88168 0.88168 0 0 0-0.62482 0.25817c-2.4176 2.4176-6.3104 2.4176-8.728 0a0.88168 0.88168 0 0 0-1.2453 0 0.88168 0.88168 0 0 0 0 1.2474c3.0915 3.0915 8.1294 3.0915 11.221 0a0.88168 0.88168 0 0 0 0-1.2474 0.88168 0.88168 0 0 0-0.62266-0.25817z" fill="#008852" stop-color="#000000" stroke-width="1.1108"/>
  <path d="m8.4963 11.991q-0.87594 0-1.495-0.27517-0.61912-0.27975-0.94932-0.80715-0.3302-0.5274-0.3302-1.2703h1.3621q0.00918 0.37606 0.17886 0.64205 0.17427 0.26599 0.49072 0.40816 0.31644 0.14217 0.75212 0.14217 0.3944 0 0.68333-0.10548 0.29351-0.11007 0.45403-0.30727 0.1651-0.1972 0.1651-0.4632 0-0.22014-0.12841-0.38065-0.12382-0.1651-0.3944-0.28892-0.26599-0.12382-0.70168-0.21555l-0.72002-0.15592q-1.0181-0.22014-1.5135-0.6925-0.4953-0.47237-0.4953-1.2061 0-0.62371 0.32562-1.0869 0.32562-0.46778 0.90805-0.72919 0.58702-0.2614 1.3621-0.2614 0.78422 0 1.3575 0.26599 0.57326 0.26599 0.8897 0.76129 0.32103 0.49072 0.34396 1.1787h-1.3208q-0.036689-0.48613-0.37606-0.76588-0.33937-0.27975-0.8897-0.27975-0.34396 0-0.61454 0.11007-0.26599 0.10548-0.42192 0.29809-0.15135 0.19261-0.15135 0.44026 0 0.21096 0.11924 0.36688 0.11924 0.15135 0.38065 0.26599 0.2614 0.11466 0.67874 0.20637l0.65581 0.14217q0.54575 0.11924 0.94473 0.29351 0.39899 0.16969 0.65581 0.40816 0.25682 0.23389 0.38065 0.54116 0.12382 0.30727 0.12382 0.6925 0 0.65581-0.3302 1.1373-0.32562 0.47695-0.93557 0.73377-0.60536 0.25683-1.4446 0.25683z" fill="#fff" stroke-width="0" aria-label="S"/>
 </g>
 <path transform="scale(.26458)" d="m37.435 61.526c5.772-1.063 11.297-3.831 15.779-8.313s7.25-10.007 8.313-15.779c-1.592 5.434-4.606 10.657-9.02 15.072s-9.639 7.428-15.072 9.02" fill="#fff" filter="url(#f)" opacity=".35"/>
</svg>
