<svg xmlns="http://www.w3.org/2000/svg" width="64" height="64" viewBox="0 0 16.933 16.933"><defs><linearGradient id="b" x1="399.99" x2="399.99" y1="545.14" y2="518.14" gradientTransform="translate(-826.36 -1107.5) scale(2.1429)" gradientUnits="userSpaceOnUse"><stop offset="0" stop-color="#e78275"/><stop offset="1" stop-color="#dc4c3a"/></linearGradient><linearGradient id="c" x1="8.599" x2="8.599" y1="4.498" y2="12.435" gradientTransform="translate(-826.36 -1107.5) scale(2.1429)" gradientUnits="userSpaceOnUse"><stop offset="0" stop-color="#fff"/><stop offset="1" stop-color="#fee2d2"/></linearGradient><filter id="a" width="1.072" height="1.072" x="-.036" y="-.036" color-interpolation-filters="sRGB"><feGaussianBlur stdDeviation=".42"/></filter></defs><circle cx="400.57" cy="531.8" r="14" filter="url(#a)" opacity=".25" transform="translate(-218.64 -293.02) scale(.56696)"/><g stroke-width="1.571" transform="translate(-.005 -.012) scale(.26458)"><circle cx="32.02" cy="32.044" r="30.001" fill="url(#b)"/><circle cx="32.02" cy="32.044" r="30.001" fill="none"/></g><path fill="url(#c)" fill-rule="evenodd" d="M7.805 4.498a.396.396 0 0 0-.397.397V8.07a.396.396 0 1 0 .794 0V5.292h1.323a1.852 1.852 0 0 1 1.852 1.852 1.852 1.852 0 0 1-1.852 1.852h-2.91v.006a1.72 1.72 0 0 0-1.588 1.713 1.72 1.72 0 0 0 1.72 1.72h1.058c.22 0 .397-.177.397-.397v-1.323a.396.396 0 1 0-.794 0v.926h-.661a.926.926 0 0 1-.926-.926.926.926 0 0 1 .926-.926h2.778a2.646 2.646 0 0 0 2.646-2.645 2.646 2.646 0 0 0-2.646-2.646z" style="paint-order:stroke fill markers"/></svg>