<svg width="64" height="64" version="1.1" viewBox="0 0 16.933 16.933" xmlns="http://www.w3.org/2000/svg">
 <defs>
  <linearGradient id="linearGradient7" x1="10.123" x2="11.641" y1="5.8068" y2="6.3499" gradientTransform="translate(0 .52914)" gradientUnits="userSpaceOnUse">
   <stop offset="0"/>
   <stop stop-opacity="0" offset="1"/>
  </linearGradient>
  <filter id="f" x="-.029686" y="-.029686" width="1.0594" height="1.0594" color-interpolation-filters="sRGB">
   <feGaussianBlur stdDeviation=".298"/>
  </filter>
  <filter id="d-2" x="-.013864" y="-.013864" width="1.0277" height="1.0277" color-interpolation-filters="sRGB">
   <feGaussianBlur stdDeviation=".298"/>
  </filter>
  <linearGradient id="b" x1="33.27" x2="33.27" y1="5.514" y2="62.082" gradientTransform="matrix(.28064 0 0 .28064 -.86993 -1.0181)" gradientUnits="userSpaceOnUse">
   <stop stop-color="#eee" offset="0"/>
   <stop stop-color="#fbfbf5" offset="1"/>
  </linearGradient>
  <filter id="a" x="-.035999" y="-.035999" width="1.072" height="1.072" color-interpolation-filters="sRGB">
   <feGaussianBlur stdDeviation="14.17"/>
  </filter>
 </defs>
 <path transform="matrix(.016803 0 0 .016803 -.14393 -.13044)" d="m970.43 391.52a515 515 0 0 0-3.653-13.61c-1-3.403-2.001-6.855-3.152-10.508a422 422 0 0 0-5.304-15.862c-6.455-18.263-14.16-36.076-23.167-53.689a475 475 0 0 0-12.309-22.416c-20.315-34.525-45.833-67.249-76.406-97.821-72.653-72.653-157.26-116.74-253.84-132.15a484 484 0 0 0-50.087-5.354c-9.707-0.55-19.865-0.85-30.122-0.85-9.357 0-18.614 0.25-27.92 0.75-118.44 6.105-220.46 51.988-306.07 137.6q-138.35 138.35-138.35 333.99c0 130.45 46.134 241.83 138.35 334.04 56.741 56.691 120.64 95.97 191.24 117.64 36.777 11.258 74.855 17.863 114.83 19.965h0.4c8.507 0.45 16.612 0.7 24.518 0.7h3.003a583 583 0 0 0 30.122-0.8c2.501-0.15 4.753-0.3 6.955-0.45 20.215-1.451 39.929-4.053 58.743-7.706a520 520 0 0 0 23.417-5.154c80.859-20.315 152.26-61.645 214.81-124.19 48.636-48.636 84.462-102.57 107.43-161.92 18.463-47.685 28.67-98.872 30.572-153.61 0.2-6.054 0.3-12.259 0.3-18.514v-3.001c-0.2-40.68-4.954-79.558-14.31-117.09z" filter="url(#a)" opacity=".25"/>
 <circle cx="8.4665" cy="8.4665" r="7.9373" fill="url(#b)" fill-rule="evenodd" stroke-width=".26458" style="paint-order:normal"/>
 <path transform="scale(.26458)" d="m10.787 10.787a29.934 29.934 0 0 0 0 42.426c0.119 0.119 0.242 0.23 0.362 0.345-11.4-11.775-11.288-30.43 0.345-42.065s30.29-11.743 42.066-0.345c-0.116-0.12-0.227-0.243-0.345-0.362a29.934 29.934 0 0 0-42.426 0z" fill="#fff" filter="url(#d-2)"/>
 <path transform="scale(.26458)" d="m37.435 61.526c5.772-1.063 11.297-3.831 15.779-8.313s7.25-10.007 8.313-15.779c-1.592 5.434-4.606 10.657-9.02 15.072s-9.639 7.428-15.072 9.02" fill="#fff" filter="url(#f)"/>
 <path d="m3.5929 5.5562a0.77987 0.77987 0 0 0-0.69239 1.1388l3.0327 5.8486a0.77987 0.77987 0 0 0 1.3704 0.02589v-8.4e-5l2.3336-4.5004a0.25993 0.25993 0 0 1 0.0071-0.012775 0.25993 0.25993 0 0 1 8.4e-5 -8.4e-5l0.48745-0.9403h1.9674l-1.6009 3.3247-0.75255-1.4515-0.87854 1.6941 0.96459 1.8605a0.77987 0.77987 0 0 0 1.3949-0.02081l2.8159-5.8483a0.77987 0.77987 0 0 0-0.70263-1.1183h-3.6822a0.77987 0.77987 0 0 0-0.6874 0.41139l-0.0013 0.00245a0.77987 0.77987 0 0 0-0.0037 7e-3l-0.28305 0.54584-0.1078 0.20798-0.87837 1.6937 1.645e-4 2.532e-4 -1.0713 2.0659-1.7496-3.3749h2.142l0.386 0.74417 0.87837-1.694-0.097976-0.18902a0.77987 0.77987 0 0 0-0.69205-0.42086z" fill="#fe2e14" fill-opacity=".99608" stop-color="#000000" stroke-linecap="round" stroke-linejoin="round" stroke-width=".16374"/>
 <path d="m11.405 5.5561c-0.29116 1.026e-4 -0.55802 0.16239-0.69205 0.42086l-0.59009 1.1386h1.9674l-8.4e-5 1.638e-4h1.731l0.21255-0.44151c0.24638-0.51145-0.11881-1.1064-0.68638-1.1182z" fill="url(#linearGradient7)" opacity=".15" stop-color="#000000" stroke-linecap="round" stroke-linejoin="round" stroke-width=".16374"/>
</svg>
