<svg xmlns="http://www.w3.org/2000/svg" width="64" height="64" viewBox="0 0 16.933 16.933"><defs><filter id="a" width="1.072" height="1.072" x="-.036" y="-.036" color-interpolation-filters="sRGB"><feGaussianBlur stdDeviation=".42"/></filter><filter id="e" width="1.028" height="1.028" x="-.014" y="-.014" color-interpolation-filters="sRGB"><feGaussianBlur stdDeviation=".298"/></filter><filter id="f" width="1.059" height="1.059" x="-.03" y="-.03" color-interpolation-filters="sRGB"><feGaussianBlur stdDeviation=".298"/></filter><linearGradient id="b" x1="399.99" x2="399.99" y1="545.14" y2="518.14" gradientTransform="translate(-218.64 -293.03)scale(.56696)" gradientUnits="userSpaceOnUse"><stop offset="0" stop-color="#7eca7e"/><stop offset="1" stop-color="#46b246"/></linearGradient><linearGradient id="d" x1="8.466" x2="8.466" y1="6.061" y2="12.641" gradientTransform="translate(-12.7 -7.407)scale(.05292)" gradientUnits="userSpaceOnUse"><stop offset="0" stop-color="#f0faff"/><stop offset="1" stop-color="#c5fcdd"/></linearGradient></defs><circle cx="400.57" cy="531.8" r="14" filter="url(#a)" opacity=".25" transform="translate(-218.64 -293.02)scale(.56696)"/><circle cx="8.466" cy="8.466" r="7.938" fill="url(#b)"/><circle cx="8.466" cy="8.466" r="7.938" fill="none"/><path fill="none" stroke="url(#d)" stroke-linecap="round" stroke-linejoin="round" stroke-width=".94" d="M8.463 9.35h-2.35s-1.41 0-1.41-1.41 1.41-1.41 1.41-1.41h5.64M8.47 9.35h2.35s1.41 0 1.41 1.41-1.41 1.41-1.41 1.41H5.18" transform="translate(0 -.884)"/><path fill="#fff" d="M10.787 10.787a29.934 29.934 0 0 0 0 42.426c.119.119.242.23.362.345-11.4-11.775-11.288-30.43.345-42.065S41.784-.25 53.56 11.148c-.116-.12-.227-.243-.345-.362a29.934 29.934 0 0 0-42.426 0z" filter="url(#e)" opacity=".35" transform="scale(.26458)"/><path fill="#fff" d="M37.435 61.526c5.772-1.063 11.297-3.831 15.779-8.313s7.25-10.007 8.313-15.779c-1.592 5.434-4.606 10.657-9.02 15.072s-9.639 7.428-15.072 9.02" filter="url(#f)" opacity=".35" transform="scale(.26458)"/></svg>