<svg xmlns="http://www.w3.org/2000/svg" width="64" height="64"><defs><linearGradient id="b" x1="399.99" x2="399.99" y1="545.14" y2="518.14" gradientTransform="translate(-826.36 -1107.5) scale(2.1429)" gradientUnits="userSpaceOnUse"><stop offset="0" stop-color="#197ff1"/><stop offset="1" stop-color="#21c6fb"/></linearGradient><linearGradient id="d" x1="32" x2="32" y1="45" y2="19" gradientTransform="translate(100.61)" gradientUnits="userSpaceOnUse"><stop offset="0" stop-color="#e4f9ff"/><stop offset="1" stop-color="#acd9fb"/></linearGradient><filter id="a" width="1.072" height="1.072" x="-.036" y="-.036" color-interpolation-filters="sRGB"><feGaussianBlur stdDeviation=".42"/></filter><filter id="c" width="1.099" height="1.152" x="-.05" y="-.076" color-interpolation-filters="sRGB"><feGaussianBlur stdDeviation=".825"/></filter></defs><circle cx="400.57" cy="531.8" r="14" filter="url(#a)" opacity=".25" transform="translate(-826.36 -1107.5) scale(2.1429)"/><g stroke-width="1.571"><circle cx="32.02" cy="32.044" r="30.001" fill="url(#b)"/><circle cx="32.02" cy="32.044" r="30.001" fill="none"/></g><path d="m28 19-5 12H12v2h12.5l3.5-8.5L36 45l5-12h11v-2H39.5L36 39.5z" filter="url(#c)" opacity=".15"/><path fill="url(#d)" d="m28 19-5 12H12v2h12.5l3.5-8.5L36 45l5-12h11v-2H39.5L36 39.5z"/></svg>