<svg xmlns="http://www.w3.org/2000/svg" width="64" height="64" version="1"><defs><filter id="c" width="1.294" height="1.294" x="-.147" y="-.147" color-interpolation-filters="sRGB"><feGaussianBlur stdDeviation="2.45"/></filter><filter id="a" width="1.072" height="1.072" x="-.036" y="-.036" color-interpolation-filters="sRGB"><feGaussianBlur stdDeviation="14.16"/></filter><linearGradient id="b" x1="-13.304" x2="-13.304" y1=".529" y2="15.329" gradientTransform="translate(82.284)scale(3.7796)" gradientUnits="userSpaceOnUse"><stop offset="0" stop-color="#f54800"/><stop offset="1" stop-color="#ffb200"/></linearGradient></defs><path d="M969.7 392c-1.1-4.35-2.35-9-3.65-13.6-2.5-8.75-5.35-17.6-8.45-26.35-6.45-18.25-14.15-36.05-23.15-53.65-3.8-7.4-7.95-14.95-12.3-22.4h-.025q-30.601-52.01-76.325-97.75C753.65 86.1 642.35 40 512 40S270.4 86.1 178.25 178.25 40 381.65 40 512s46.1 241.65 138.25 333.8c68.05 68.05 146.5 110.95 234.9 128.65C445.1 980.85 477.9 984 512 984c130.35 0 241.65-46.05 333.8-138.2 48.6-48.6 84.4-102.5 107.35-161.8 17-43.95 27-90.8 29.95-140.75.6-10.2.9-20.65.9-31.25 0-41.75-4.7-81.6-14.3-120" filter="url(#a)" opacity=".25" transform="translate(-.542 -.542)scale(.06356)"/><path fill="url(#b)" d="M61.091 24.373a28.4 28.4 0 0 0-2.24-5.95A31 31 0 0 0 58.069 17h-.002q-1.945-3.306-4.851-6.213Q44.429 2.001 32 2c-12.429-.001-15.356 2.93-21.213 8.787S2 23.715 2 32s2.93 15.36 8.787 21.216c4.325 4.325 9.311 7.052 14.93 8.177C27.747 61.8 29.832 62 32 62q12.429 0 21.216-8.784 4.634-4.632 6.823-10.284c1.08-2.793 1.716-5.771 1.904-8.946Q62 33.012 62 32c0-2.654-.299-5.187-.91-7.627z"/><path d="M22 13a10 10 0 0 0-10 10 10 10 0 0 0 10 10 10 10 0 0 0-10 10 10 10 0 0 0 10 10 10 10 0 0 0 10-10 10 10 0 0 0-.035-.684l.035.004h.023A10 10 0 0 0 32 43a10 10 0 0 0 10 10 10 10 0 0 0 10-10 10 10 0 0 0-10-10l-.035.004V33H42a10 10 0 0 0 10-10 10 10 0 0 0-10-10 10 10 0 0 0-9.976 9.32h-.059A10 10 0 0 0 22 13m19.981 5.95a4 4 0 0 1 3.696 5.624c-1.172 2.734-2.186 5.512-4.209 8.024C39.448 35.108 35.984 37 32 37c-2.39 0-2.366.108-3.011.867-.646.76-1.714 3.053-3.325 6.735a4 4 0 1 1-7.328-3.204c1.565-3.576 2.494-6.284 4.554-8.71C24.952 30.262 28.39 29 32 29c2.017 0 2.357-.322 3.239-1.418s1.869-3.317 3.086-6.156a4 4 0 0 1 3.656-2.477zm-19.98.05a4 4 0 0 1 4 4 4 4 0 0 1-4 4 4 4 0 0 1-4-4 4 4 0 0 1 4-4m20 20a4 4 0 0 1 4 4 4 4 0 0 1-4 4 4 4 0 0 1-4-4 4 4 0 0 1 4-4" filter="url(#c)" opacity=".15" transform="translate(4.66 4.806)scale(.85437)"/><path fill="#fff" d="M23.456 15.058a8.544 8.544 0 0 0-8.544 8.544 8.544 8.544 0 0 0 8.544 8.543 8.544 8.544 0 0 0-8.544 8.544 8.544 8.544 0 0 0 8.544 8.544A8.544 8.544 0 0 0 32 40.689a9 9 0 0 0-.03-.584l.03.003h.02a9 9 0 0 0-.02.581 8.544 8.544 0 0 0 8.543 8.544 8.544 8.544 0 0 0 8.544-8.544 8.544 8.544 0 0 0-8.544-8.544l-.03.004v-.004h.03a8.544 8.544 0 0 0 8.544-8.543 8.544 8.544 0 0 0-8.544-8.544 8.544 8.544 0 0 0-8.523 7.963h-.05a8.544 8.544 0 0 0-8.514-7.963m17.071 5.083a3.417 3.417 0 0 1 3.158 4.806c-1.002 2.335-1.868 4.709-3.596 6.855-1.726 2.144-4.686 3.76-8.09 3.76-2.041 0-2.02.093-2.572.742s-1.464 2.608-2.84 5.754a3.417 3.417 0 1 1-6.261-2.738c1.337-3.055 2.13-5.368 3.89-7.441 1.762-2.073 4.7-3.151 7.784-3.151 1.723 0 2.013-.275 2.767-1.212.753-.936 1.597-2.833 2.636-5.26a3.42 3.42 0 0 1 3.124-2.115m-17.07.043a3.417 3.417 0 0 1 3.417 3.418 3.417 3.417 0 0 1-3.417 3.417 3.417 3.417 0 0 1-3.417-3.417 3.417 3.417 0 0 1 3.417-3.418m17.087 17.087a3.417 3.417 0 0 1 3.417 3.418 3.417 3.417 0 0 1-3.417 3.417 3.417 3.417 0 0 1-3.417-3.417 3.417 3.417 0 0 1 3.417-3.418"/></svg>