<svg xmlns="http://www.w3.org/2000/svg" width="64" height="64"><defs><linearGradient id="b" x1="408.58" x2="408.43" y1="543.13" y2="506.31" gradientTransform="matrix(1.5 0 0 1.5 -644.87 -753.7)" gradientUnits="userSpaceOnUse"><stop offset="0" stop-color="#18222a"/><stop offset="1" stop-color="#566069"/></linearGradient><linearGradient id="d" x1="50" x2="50" y1="37" y2="63" gradientTransform="matrix(1.5 0 0 1.5 -580.84 -753.7)" gradientUnits="userSpaceOnUse"><stop offset="0" stop-color="#026ddc"/><stop offset="1" stop-color="#28b0fd"/></linearGradient><linearGradient id="f" x1="50" x2="50" y1="43" y2="59" gradientUnits="userSpaceOnUse"><stop offset="0" stop-color="#fff"/><stop offset="1" stop-color="#dafbff"/></linearGradient><filter id="a" width="1.072" height="1.072" x="-.036" y="-.036" color-interpolation-filters="sRGB"><feGaussianBlur stdDeviation=".6"/></filter><filter id="c" width="1.12" height="1.12" x="-.06" y="-.06" color-interpolation-filters="sRGB"><feGaussianBlur stdDeviation=".65"/></filter><filter id="e" width="1.129" height="1.113" x="-.064" y="-.056" color-interpolation-filters="sRGB"><feGaussianBlur stdDeviation=".375"/></filter></defs><rect width="40" height="40" x="-428.57" y="503.8" filter="url(#a)" opacity=".25" rx="20" transform="matrix(-1.5 0 0 1.5 -580.84 -753.7)"/><rect width="60" height="60" x="-62.015" y="2" fill="url(#b)" rx="30" transform="scale(-1 1)"/><path fill="#fff" d="M25.865 3.563c-.183.008-.23.08-.64.08-.659 0-.846.197-.659.277.187.08-.366.278-.183.51.182.231.183 0 .183 0s.84-.528 1.045-.35c.205.178-.009-.32.672-.16.68.16 1-.095.164-.277-.314-.069-.472-.086-.582-.08zm11.781 1.415a.787.787 0 0 0-.186.026c-.52.129-.11.365.522.668.632.302.528.316 1.018.32.493 0-.04-.32-.377-.508-.296-.163-.566-.51-.977-.505zm-5.42.784c-.573.02-1.216.189-1.58.279-.485.12-.84.387-.725.463.116.08.28.173-.427.244-.703.071-.493.507-.248.69.249.182.356 0 .48.183.125.182.636.382.272.547-.36.165-1.349.088-1.55.088-.2 0 .468-.32-.702 0s-1.309-.004-.909-.2c.405-.195.144-.44-.154-.257-.298.182.01.711-.289.773-.298.063-.593-.298-.922.063-.329.36-.902-.173-.808.205.093.378-.587.346-.293-.268.293-.614-.402-.911.47-.515.872.391 1.42.396 1.024-.37-.396-.765-.846-.494-1.024-.765-.182-.271.458-.57-.699-.57-1.16 0-1.374.027-2.281.392-.908.365-2.047 1.313-2.639 1.313-.591 0-1.294.409-1.605.787-.312.378-.61 1.089-.153.87.459-.217 1.146-.386.852.095-.294.48-.85.978-.24.978s1.018-.618 1.379-.8c.355-.179.528-.281.613-.766.084-.49 1.37-.906 1.793-1.164.422-.258 1.384-.388.428.199-.957.587-1.398.898-1.483 1.223-.08.324-.155.42.512.326.667-.094.988.18.285.283-.703.102-.64.286-.975.49-.338.205-.352-.276-.73 0s-.528.677-1.115.762c-.587.084-.837.204-1.166 0-.325-.205-1.024-.26-.588-.442.436-.182.441.268.588-.533.147-.8-.432-.32-.672 0-.24.32-.138.686-.916.864-.779.177-1.464.514-1.95.732-.484.218-.635.317-.933.219-.298-.098 0 .101-.578.101s.375 1.02-.2 1.531c-.573.512-.646.513-1.411.22-.765-.294-.952.755-1.383 1.236-.432.48-.174.519-.365.746-.192.226-.294.152 0 .375.293.222.121.484.726.279.605-.205.724-.005 1.133-.494.41-.49 1.056-.88 1.496-1.276.44-.4.534-.316.881-.316s1.059-.396 1.059.227.414 1.249.414 1.494c0 .244-.037.44-.344.546-.307.112-1.076-.274-.693.215.387.49.354.147.617-.08.267-.227.513.115.584-.427.07-.548.151-.512.302-.254.152.253.143.005-.08-.44-.222-.445-.48-1.526.08-1.678.56-.15-.022.348.213.717.236.37.716.893.422 1.276-.293.382-.106.82-.199 1.064-.093.245-.013.507.094.436.107-.071.285-.52.463-.342.178.178.15.07.15-.477s.108-.436.299-.365c.191.071-.032-.378.373-.098s1.112-.048.863-.212c-.249-.165-.124-.583.512-1.014.636-.436.96-.696 1.133-.438.178.258 0-.027 0 .258 0 .285.143.61.347.362.138-.165.138-.344 0-.536.098-.053.246-.078.446-.078.298 0 1.253-.347.47.258-.783.605-.222.289 0 1.027.223.739-.213.84-.609.84s-.542-.547-1.066-.547c-.525 0-.895-.014-1.1.084-.205.098-.458.206-.996.282-.538.075-.054 1.743.404 1.459.458-.285.112.08.46.177.346.098 1.11-.494.857.08-.254.574-.494.512-.725.926-.231.414-.177 1.032-.885.787-.707-.244-.628 0-1.015 0-.387 0 .05-.173-.582-.435-.632-.263-.236-.825-.881-.455-.645.369-.605.9-.881.744-.276-.156-.538-1.205-.8-1.205-.263 0-.792-.17-.329-.735s.08-.624.422-.793c.347-.173-.12-.174-.498-.174s-1.366-.327-1.953-.078c-.592.254-.573.501-.987.252-.413-.253-.187-.618-.588-.174-.4.445-1.334.988-1.574 1.522s-.743.878-1.504 1.367c-.76.49-1.455 2.055-2.033 3.367-.578 1.313-1.191 2.21-.68 4.047.512 1.837 1.156 2.781 1.325 2.719.169-.062.819-.68 1.148-.342.33.343 1.437-.878 1.744-.486.307.391.137 1.256.858.824.72-.431.277 1.96.277 2.334 0 .374 1 1.914 1.25 3.227.089.467.292.907.314 1.459.045 1.005-.092 2.121.33 2.615.654.77 1.672 2.869 2.073 3.465.4.596 1.704 2.216 1.904 2.51.196.293.628-.143 1.184-.223.556-.076 1.121-.792 1.006-1.717-.116-.925-.374-1.45 0-1.918.373-.467-.816-1.815-.166-2.646.649-.832.837-1.57.277-3.545-.56-1.97-.647-1.95.67-3.93 1.317-1.975 3.377-4.341 1.691-3.834-1.69.507-1.135.028-1.486-.52-.351-.547-.232-.404-.606-2.18-.373-1.77-.101-2.99-.181-3.825-.08-.832.084-.352.435.253.352.605.477 2.217.477 3.04s-.116 2.962.262 2.712c.378-.249 2.527-1.317 2.963-1.597.435-.28 2.113-1.65 1.615-2.051-.498-.4-.338-.845-.338-1.094 0-.253-.41.182-.846.436-.436.258-.614.155-.797-.543-.182-.699-.324-1.446.174-1.637.498-.191.268.534.62.898.35.36.507.605.845.356.338-.25-.156.575.644.695.801.12 1.41-.223 1.752.23.339.459 1.397 1.403 1.397 1.595 0 .19-.413 2.05.152 3.74.565 1.69 1.032-.046 1.192-.78.16-.734-.013-.795.636-1.4.65-.605 2.299-1.535 2.704-1.73.404-.196.166.12.406.703.24.582-.053 1.832.672 1.49.485-.227.64-.094.466.4-.182 1.21-.147 2.005.102 2.4.378.588 1.125 3.018 1.299 2.089.169-.93-.217-1.522-.662-1.825-.45-.298-.774-1.058-.258-1.86.516-.804.506.316.92.663.414.347.525.837.748.463.222-.374 1.401-.636.654-2.197-.747-1.566-.53-1.041-.18-1.602a1.27 1.27 0 0 1 .237-.258c.07.045.143.045.277.014.174-.04.405-.046.356.039-.05.08-.032.262.07.338.102.08.12-.054.09-.16-.031-.107.143-.186.365-.217.218-.031.275-.04.36-.15.084-.112.111-.05.204 0 .094.048.147-.05.338-.16.192-.112.285.084.405 0 .12-.085-.049-.237.187-.303.236-.067.182-.189.387-.34.138-.103.35-.142.47-.293.054-.071.05-.24.087-.324.044-.116.155-.13.222-.205.085-.094.125-.246.192-.415.12-.302.244-.413 0-.48-.245-.067-.24-.152 0-.223.24-.07.194-.127.074-.22-.12-.094-.143-.147 0-.147.142 0 .17-.015.04-.18-.128-.164-.183-.653-.357-.79-.173-.138-.137-.05-.052-.196.084-.147.423-.4.761-.48.338-.08-.036-.175-.152-.22-.116-.044-.152-.137-.285 0-.134.139-.373.134-.324 0 .044-.137.044-.163-.174-.26-.218-.103-.143-.286 0-.286s.115 0 .498-.24c.382-.24.333-.436.498-.387.227.13-.016.268-.172.557-.156.293.15.212.328.07.178-.142.353-.183.49-.271l.05-.028c.19.174.233.335.107.48-.227.259-.112.178.15.258.263.08 0 .576 0 .807s.77.412.86-.197c.084-.61-.759-.96-.194-1.38.547-.404.332-.496.588-.72.02.007.05-.011.107-.06.018-.015.03-.03.045-.045.25-.133.48-.072.655 0 .204.084 1.28-1.024 1.662-1.824.378-.806.645-2.096 0-1.807-.645.29-1.067-.21-.489-.592s1.18-1.244 1.776-1.244c.596 0 1.208-.102 1.377 0 .169.102.49.14.775.123.285-.022-.17-.337.328-.6.499-.262 1.117-.355 1.041-.097-.075.258.174.204.432 0 .258-.205.797-.642.396-.121-.395.52-.87.762-1.222 1.158-.352.396-.58.382-.41 1.605.169 1.224.301.743.502.258.2-.485.315-.044.418-.56.102-.516.316.147.316-.39 0-.54.388-.158.25-.456-.138-.298-.351-.47-.178-.693.178-.223.164-.4.645-.516.48-.116.614-.294.894-.08.28.213.449-.313.969-.504s.925-.038.756-.443c-.17-.405-.733-.486-.123-.557a.421.421 0 0 0 .197-.068 30.052 30.052 0 0 0-1.75-1.602c-.248.007-.299.036-.299.219 0 .267-.622-.223-1.111-.111-.49.11-.669.258-.984-.116-.32-.373-.925-.08-1.512-.261-.587-.183-.609-.49-1.16-.588-.552-.098-1.354.013-1.354.195s.063.379-.596.187c-.653-.186-.708-.204-.859 0-.151.205-.614.179-.498-.306.111-.485-.373-.578-.773-.53-.4.05-.191.387-.707.258s-.655-.257-1.34-.257-1.664.08-.414-.436.365-.952-.12-.863c-.484.089-.267-.526-1.005-.219-.743.307-1.028.37-1.873.37-.846 0-1.084.64-1.649.57-.565-.067-1.232-.241-.898.212.333.454.231 1.21 0 1.014-.231-.196.42-.36-.131-.648-.547-.29-.738-.182-.947-.182-.21 0-.277-.352-.526.182-.235.5-.013.461.227.783a.348.348 0 0 0-.338-.01c-.436.205-.216.533-.813.645-.596.11.277 0 .415-.645.137-.645.127-.832.505-1.139.379-.307-.24-.404-.836-.07s-.63.636-.515.8c.111.165.111.534-.098.409-.204-.125-.663-.711-1.072-.711-.41 0-.525-.668-.307-.94.218-.27-.117-.359 1.07-.568 1.188-.209 2.488-.414 1.838-.556a2.202 2.202 0 0 0-.537-.04zM45.75 7.066a6.734 6.734 0 0 0-.504.038c-.867.088-.396.343.084.44.48.094.714.307.63-.12-.022-.109.015-.154.089-.162-.02-.014-.023-.03-.002-.055.07-.08.072-.15-.297-.14zm.506.23c.252.077.592.253.748.253.276 0 .173-.236-.271-.24a10.094 10.094 0 0 1-.477-.012zm-30.863 1.65c-.08 0-.53.106-.863.386-.334.28-.529.819-.262.912.258.098 0 .49-.33.49-.334 0-.132.182-.363.328-.236.147-.415.082-.215.184.204.102.397.15-.2.28-.596.128-.16.208.133.146.294-.062.721.174.975.062.254-.11.13-.212.383-.39.253-.183.23-.285.066-.285s-.182 0 0-.147c.183-.151.284-.748.23-1.002-.053-.253-.199-.154.108-.252s.69-.272.338-.33c-.351-.058-.097 0 .103-.191.2-.192-.023-.192-.103-.192zm-1.832.97c-.102 0-.204.2-.418.248-.214.053 0-.125-.25.084-.25.21.193.25-.363.62-.556.368.555.151.836-.12.28-.271.27-.276.466-.418.196-.142.076-.289-.093-.289-.17 0-.076-.125-.178-.125zm31.775 4.502c.004.169-.04.248-.125.248-.13 0-.063-.059-.094.582-.03.64-.23 1.816.094 1.816.325 0 .125-.276.125-.552s.049-.352.191-.352c.143 0 .116-.164 0-.578-.115-.414-.04-.675-.076-.84a1.762 1.762 0 0 0-.115-.324zm11.057.064a6.29 6.29 0 0 1-.711.291 5.057 5.057 0 0 1-3.3 0c.747.379 1.693.471 2.841.28.532-.09.945-.237 1.29-.403l-.12-.168zm-11.381 2.98c-.022.01-.033.047-.033.128 0 .325-.169.38-.356.492-.187.111-.167.109-.123.79.045.68-.552 1.2-.926 1.444-.373.245-.913.383-1.113.383-.2 0-.489.341-.693.412-.138.045-.115.339.072.877.125-.026.199-.061.234-.101.08-.116.077-.335.077-.473 0-.334.315.089.453 0s.205-.156.361-.303c.156-.146.298.148.61-.105.31-.254.556-.094.8-.192.24-.097.125-.69.383-1.183.258-.494.227-.895-.062-1.166-.29-.267.505-.059.923-.268.419-.209.122-.332-.168-.443-.216-.083-.374-.317-.44-.291zm-5.13 6.163c-.063 0-.045.152 0 .125.044-.027.061-.125 0-.125zm.257 0c-.054 0-.05.094 0 .063.053-.027.058-.063 0-.063zm.086.094a.428.428 0 0 1-.174.09.544.544 0 0 0-.045.013c-.262.08-.364.164-.387.39l.088.01c.022-.182.095-.245.326-.316a.193.193 0 0 1 .04-.013.495.495 0 0 0 .209-.104l-.057-.07zm-.944.111c-.106 0-.2.098-.285.285-.035.071-.083.156-.136.254-.054.098-.01.275.136.533.076-.164.174-.378.285-.64.17-.392.16-.427 0-.432zm.053 1.094c-.124.191-.28.41-.463.65l.073.053c.186-.24.342-.459.466-.654l-.076-.05zm-1.64.115c-.054 0-.05.094 0 .063.053-.027.057-.063 0-.063zm-.09.135c-.054 0-.05.094 0 .062.053-.026.058-.062 0-.062zm.267.088c-.053 0-.049.093 0 .062.054-.026.058-.062 0-.062zm-1.765.195c-.25 0-.38.108-.41.108-.032 0-.165.036-.098.312s.334.123.383.06c.049-.062.125-.19.205-.292.08-.103.169-.188-.08-.188zm2.97.578c-.162-.032-.344.39-.431.674-.076.254 0 .587.226.996l1.055.37a14.976 14.976 0 0 0-.783-.704c-.552-.467.266-.597.084-1.13-.046-.134-.096-.195-.15-.206zm-.662.211c-.08.214-.12.476-.138.8l.09.005c.017-.316.057-.569.132-.774l-.084-.03zm-2.054.174c-.054 0-.05.092 0 .06.053-.026.057-.06 0-.06zm.177.043c-.053 0-.049.094 0 .062.054-.026.058-.062 0-.062zm-.222.178c-.054 0-.05.093 0 .062.053-.026.057-.062 0-.062zm-.637.037v.568c0 .018.003.045.008.094 0 .009.006.018.006.031 0 .018.004.026.004.035.004.027.005.054.01.076l.087-.01a.491.491 0 0 0-.008-.08c0-.008-.005-.017-.005-.035-.005-.013-.004-.018-.004-.027v-.004c-.005-.04-.01-.066-.01-.08v-.568h-.088zm1.525.053c-.053 0-.049.093 0 .062.054-.027.058-.062 0-.062zm-.623.044c-.053 0-.049.094 0 .063.054-.027.058-.063 0-.063zm-.355.088c-.054 0-.05.094 0 .063.053-.027.058-.063 0-.063zm.756.09c-.054 0-.05.094 0 .063.053-.027.058-.063 0-.063zm1.277.889c-.005.062-.01.106-.01.146-.026.134-.12.343-.258.578l.077.045c.142-.244.24-.458.267-.609.005-.04.01-.094.014-.156l-.09-.004zm-2.563.424a1.314 1.314 0 0 1-.173.435 2.942 2.942 0 0 0-.168.268l.074.043c.049-.09.104-.173.166-.262.093-.133.156-.289.191-.467l-.09-.017zm1.909.066c-.054 0-.05.094 0 .063.053-.027.058-.063 0-.063zm-.623.178c-.054 0-.05.094 0 .062.053-.026.057-.062 0-.062zm.756.045c-.054 0-.05.093 0 .062.053-.026.057-.062 0-.062zm.177 0c-.053 0-.049.093 0 .062.054-.026.058-.062 0-.062zm-1.199.133c-.053 0-.049.093 0 .062.053-.027.058-.062 0-.062zm-9.16.035c0 .11-.066.311-.195.592-.196.427.194 1.04.439.595.16-.298.08-.694-.244-1.187zm9.426.1c-.054 0-.05.091 0 .06.053-.027.057-.06 0-.06zm-.578.31c-.054 0-.05.094 0 .062.053-.026.057-.062 0-.062zm.4 0c-.053 0-.049.094 0 .062.053-.026.058-.062 0-.062zm.623 0c-.053 0-.049.094 0 .062.053-.026.058-.062 0-.062zm2.545.037a.704.704 0 0 0-.356.078c-.796.356-.476.446 0 .317.316-.085.342.03.075.345.275.276.44.33.494.156.065-.206.175-.852-.213-.896zm-3.836.008c-.053 0-.049.093 0 .062.053-.026.058-.062 0-.062zm1.394.035a.708.708 0 0 1-.093.102c-.125.133-.201.25-.38.552l.077.045c.169-.293.243-.41.363-.535.031-.031.069-.065.1-.105l-.067-.059zm-.591.232c-.054 0-.05.092 0 .06.053-.026.057-.06 0-.06zm-.846.176c-.053 0-.049.094 0 .063.053-.027.058-.063 0-.063zm.623 0c-.053 0-.049.094 0 .063.053-.027.058-.063 0-.063zm-1.201.045c-.054 0-.05.094 0 .063.053-.027.058-.063 0-.063zm-.414.076a.95.95 0 0 0 .076.41c.053.112.123.236.203.356l.072-.049a2.096 2.096 0 0 1-.195-.344.84.84 0 0 1-.066-.369l-.09-.004zm1.302.324c-.053 0-.048.094 0 .063.054-.027.058-.063 0-.063zm1.295.024c-.14.002-.298.123-.369.27-.142.293-1.192.815-1.65 1.126-.458.307-.578.537-.2 1.084.374.552 1.023.842 1.467.842.445 0 .935-.85.891-1.388-.044-.539.123-.832.123-1.49 0-.33-.122-.446-.262-.444zm-6.013.074c0 .25.163.534.488.863.49.499.894 2.074 1.375 2.51.48.436.877.56.877.805s.924.369 1.672.533c.747.16 2.292.233 2.83.233.538 0 1.351-.469.76-.086-.592.382.067.526.685.086.619-.44 0-.45 0-.463 0-.014-1.005.012-1.601.23-.596.218-2.233-.315-3.096-.533-.863-.218-.925-.244-1.094-.244-.169 0-.232-.111-.156-.56.075-.45-.156-.527-.352-.843-.195-.315-.511-.946-1.01-1.337-.333-.263-.791-.66-1.378-1.194zm4.675.125c-.053 0-.048.094 0 .063.054-.027.058-.063 0-.063zm.266.244c-.053.067-.107.14-.16.201-.138.165-.28.226-.432.2l-.013.09c.182.03.356-.046.511-.233.058-.067.111-.136.164-.203l-.07-.055zm3.23 1.123c-.275-.006-1.048.056-1.238.19-.253.178-.399.468-.523.94-.085.31-.002.679.252 1.097.098 0 .191-.156.271-.467.12-.471.189.161.518.57.329.41.253-.334 0-.779-.254-.445-.378-.262 0-.516.378-.253-.001-.35-.633-.453-.632-.098 1.193-.481 1.424-.552.058-.018.021-.027-.07-.03zm2.028.58a.368.368 0 0 0-.28.104c-.346.316-.001.574.141.863.143.29.882.249 1.674.582.792.334 0 .895.4.895.396 0 1.082.507 1.291.142.21-.36.454-.263 1.01.196.556.458 1.209.32.987.17a2.995 2.995 0 0 1-.987-1.288c-.276-.694-2.07-.987-2.52-1.125-.449-.137-.781.562-.968.14-.14-.318-.454-.66-.748-.679zm3.006 3.614c-.201-.016-.287.41-.287.92 0 .814.066 1.296-.735.757-.8-.538-1.223-.591-.783-1.09.44-.498-1.099-.703-1.539-.187-.44.516-.23.69-.582.69-.351 0-.311-.329-.947.2-.636.53-.935 1.254-1.553 1.534-.618.28-.117-.177-1.13.521-1.024.703.272 1.695.663 3.573.392 1.877 1.454.329 2.024.16.569-.17.943-1.028 2.53-.365 1.589.662 1.157.657 1.46.968.302.312 1.37 1.104 1.935.989.565-.12 1.054-.215 1.223-.825.169-.609 1.281-1.827.734-3.085-.547-1.26-1.967-3.082-2.523-4.172-.209-.41-.37-.579-.49-.588zm-25.385.756c-.11.006-.113.803-.26 1.117-.231.502-.386.445-.684.445s-.062.443.116.893c.178.449.137 1.313.568 2.043.431.73.629 1.168.629-.393s.53-.746 0-2.988c-.199-.841-.303-1.121-.37-1.117zm33.582 6.757c-.058.01-.029.14.092.387.275.356.334.672.173.943-.24.41-.107.28.067.44.173.156.075.233 0 .326-.076.093-.07.454.285 0 .356-.454.191-.562.383-.562.191 0 .426-.552.185-.467-.235.084-.498.081-.498-.092 0-.174-.007-.437-.074-.219-.067.218-.09.08-.187-.142-.098-.223-.094-.445-.338-.582-.04-.024-.069-.035-.088-.032zm-.178 1.985c-.037-.012-.113.028-.27.203-.413.471.176.054-.412.472-.587.419-1.272.966-.93 1.135.343.17.65.169.93-.254.274-.412.564-.512.66-.517-.043-.013-.104-.082.079-.367.289-.445.066-.672 0-.56-.042.071.004-.093-.057-.112zm-6.932.004c-.436 0-.32.115 0 .56.32.445.24.396.48.112.241-.285-.044-.672-.48-.672zm-3.398 8.59-8.582.779-1.807 1.902-.412-.965-3.394-.383-1.174.793-2.781 1.743-5.406 1.255A30 30 0 0 0 32.015 62c6.98 0 13.383-2.367 18.469-6.336l-.528-.389-3.562-.556-3.817-.778z" opacity=".35"/><circle cx="50" cy="50" r="13" filter="url(#c)" opacity=".25" style="paint-order:stroke markers fill"/><circle cx="50" cy="50" r="13" fill="url(#d)" style="paint-order:stroke markers fill"/><path d="M47 43v8h-4l7 8 7-8h-4v-8z" filter="url(#e)" opacity=".15"/><path fill="url(#f)" d="M47 43v8h-4l7 8 7-8h-4v-8z"/></svg>