<svg width="64" height="64" version="1" xmlns="http://www.w3.org/2000/svg" xmlns:xlink="http://www.w3.org/1999/xlink">
 <defs>
  <linearGradient id="b">
   <stop stop-color="#47c4e5" offset="0"/>
   <stop stop-color="#478be5" offset="1"/>
  </linearGradient>
  <linearGradient id="a" x1="29.565" x2="29.728" y1="11.048" y2="53.559" gradientUnits="userSpaceOnUse">
   <stop stop-color="#ebebeb" offset="0"/>
   <stop stop-color="#c7c7c7" offset="1"/>
  </linearGradient>
  <linearGradient id="f" x1="10.879" x2="33.505" y1="28.256" y2="28.256" gradientUnits="userSpaceOnUse" xlink:href="#a"/>
  <linearGradient id="j" x1="24.989" x2="53.454" y1="34.095" y2="34.095" gradientUnits="userSpaceOnUse" xlink:href="#a"/>
  <filter id="c" x="-.036" y="-.036" width="1.072" height="1.072" color-interpolation-filters="sRGB">
   <feGaussianBlur stdDeviation="14.16"/>
  </filter>
  <filter id="i" x="-.1403" y="-.1403" width="1.2806" height="1.2806" color-interpolation-filters="sRGB">
   <feGaussianBlur stdDeviation="1.664"/>
  </filter>
  <filter id="e" x="-.1765" y="-.1765" width="1.353" height="1.353" color-interpolation-filters="sRGB">
   <feGaussianBlur stdDeviation="1.664"/>
  </filter>
  <filter id="l" x="-.028499" y="-.055334" width="1.057" height="1.1107" color-interpolation-filters="sRGB">
   <feGaussianBlur stdDeviation=".338"/>
  </filter>
  <filter id="g" x="-.035854" y="-.069085" width="1.0717" height="1.1382" color-interpolation-filters="sRGB">
   <feGaussianBlur stdDeviation=".338"/>
  </filter>
  <radialGradient id="h" cx="22.192" cy="26.066" r="4.014" gradientUnits="userSpaceOnUse" xlink:href="#b"/>
  <radialGradient id="k" cx="41.168" cy="31.905" r="6.204" gradientUnits="userSpaceOnUse" xlink:href="#b"/>
  <filter id="e-1" x="-.013864" y="-.013864" width="1.0277" height="1.0277" color-interpolation-filters="sRGB">
   <feGaussianBlur stdDeviation=".298"/>
  </filter>
  <filter id="f-5" x="-.029686" y="-.029686" width="1.0594" height="1.0594" color-interpolation-filters="sRGB">
   <feGaussianBlur stdDeviation=".298"/>
  </filter>
  <linearGradient id="linearGradient19" x1="32" x2="32" y1="2" y2="984.25" gradientTransform="matrix(.06356 0 0 .06356 73.608 -.542)" gradientUnits="userSpaceOnUse">
   <stop stop-color="#353535" offset="0"/>
   <stop stop-color="#6d6d6d" offset="1"/>
  </linearGradient>
 </defs>
 <path transform="translate(-.542 -.542)scale(.06356)" d="M969.7 392c-1.1-4.35-2.35-9-3.65-13.6-2.5-8.75-5.35-17.6-8.45-26.35-6.45-18.25-14.15-36.05-23.15-53.65-3.8-7.4-7.95-14.95-12.3-22.4h-.025q-30.601-52.01-76.325-97.75C753.65 86.1 642.35 40 512 40S270.4 86.1 178.25 178.25 40 381.65 40 512s46.1 241.65 138.25 333.8c68.05 68.05 146.5 110.95 234.9 128.65C445.1 980.85 477.9 984 512 984c130.35 0 241.65-46.05 333.8-138.2 48.6-48.6 84.4-102.5 107.35-161.8 17-43.95 27-90.8 29.95-140.75.6-10.2.9-20.65.9-31.25 0-41.75-4.7-81.6-14.3-120" filter="url(#c)" opacity=".25"/>
 <circle cx="32" cy="32" r="30" fill="url(#linearGradient19)"/>
 <path d="m10.787 10.787a29.934 29.934 0 0 0 0 42.426c0.119 0.119 0.242 0.23 0.362 0.345-11.4-11.775-11.288-30.43 0.345-42.065s30.29-11.743 42.066-0.345c-0.116-0.12-0.227-0.243-0.345-0.362a29.934 29.934 0 0 0-42.426 0z" fill="#ffffff" filter="url(#e-1)" opacity=".25"/>
 <path d="m37.435 61.526c5.772-1.063 11.297-3.831 15.779-8.313s7.25-10.007 8.313-15.779c-1.592 5.434-4.606 10.657-9.02 15.072s-9.639 7.428-15.072 9.02" fill="#ffffff" filter="url(#f-5)" opacity=".25"/>
 <circle cx="22.192" cy="28.986" r="11.313" filter="url(#e)" opacity=".2"/>
 <circle cx="22.192" cy="28.256" r="11.313" fill="url(#f)"/>
 <path d="M22.192 16.943a11.313 11.313 0 0 0-11.313 11.313 11 11 0 0 0 .016.428 11.313 11.313 0 0 1 11.297-11.011 11.313 11.313 0 0 1 11.297 10.885 11 11 0 0 0 .015-.303 11.313 11.313 0 0 0-11.313-11.313z" fill="#fff" filter="url(#g)" opacity=".2"/>
 <circle cx="22.192" cy="26.066" r="4.014" fill="url(#h)"/>
 <circle cx="22.192" cy="26.066" r="1.095" opacity=".75"/>
 <circle cx="39.222" cy="34.825" r="14.232" filter="url(#i)" opacity=".2"/>
 <circle cx="39.222" cy="34.095" r="14.232" fill="url(#j)"/>
 <circle cx="41.168" cy="31.905" r="6.204" fill="url(#k)"/>
 <circle cx="41.168" cy="31.905" r="1.825" opacity=".75"/>
 <path d="M39.223 19.862a14.23 14.23 0 0 0-14.232 14.232 14 14 0 0 0 .016.428 14.23 14.23 0 0 1 14.217-13.93A14.23 14.23 0 0 1 53.44 34.397l.015-.303a14.23 14.23 0 0 0-14.232-14.232" fill="#fff" filter="url(#l)" opacity=".2"/>
</svg>
