<svg width="64" height="64" xmlns="http://www.w3.org/2000/svg"><defs><linearGradient id="c" x1="399.57" x2="399.57" y1="545.8" y2="517.8" gradientTransform="translate(-826.36 -1107.5) scale(2.1429)" gradientUnits="userSpaceOnUse"><stop stop-color="#3889e9" offset="0"/><stop stop-color="#5ea5fb" offset="1"/></linearGradient><linearGradient id="b" x1="-62.73" x2="-62.73" y1="1118.6" y2="1067.2" gradientTransform="translate(94.902 -1060.4)" gradientUnits="userSpaceOnUse"><stop stop-color="#9575cd" offset="0"/><stop stop-color="#cd75bc" offset="1"/></linearGradient><filter id="a" x="-.036" y="-.036" width="1.072" height="1.072" color-interpolation-filters="sRGB"><feGaussianBlur stdDeviation=".42"/></filter><filter id="d" x="-.092" y="-.022" width="1.185" height="1.045" color-interpolation-filters="sRGB"><feGaussianBlur stdDeviation=".307"/></filter></defs><circle transform="translate(-826.36 -1107.5) scale(2.1429)" cx="400.57" cy="531.8" r="14" filter="url(#a)" opacity=".25"/><g transform="translate(-.02 -.044)" stroke-width="1.571"><circle cx="32.02" cy="32.044" r="30.001" fill="url(#b)"/><circle cx="32.02" cy="32.044" r="30.001" fill="none"/></g><path d="M32.002 16a4 4 0 1 0-.003 7.999A4 4 0 0 0 32.002 16zm0 11C29.66 27 28 28.826 28 31.074v13.854c0 2.25 1.66 4.073 4.002 4.073C34.342 49 36 47.178 36 44.928V31.074C36 28.824 34.343 27 32.002 27z" fill-opacity=".852" filter="url(#d)" opacity=".15"/><path d="M32.002 16a4 4 0 1 0-.003 7.999A4 4 0 0 0 32.002 16zm0 11C29.66 27 28 28.826 28 31.074v13.854c0 2.25 1.66 4.073 4.002 4.073C34.342 49 36 47.178 36 44.928V31.074C36 28.824 34.343 27 32.002 27z" fill="#fff" fill-opacity=".972"/></svg>