<svg xmlns="http://www.w3.org/2000/svg" xmlns:xlink="http://www.w3.org/1999/xlink" width="64" height="64" version="1"><defs><linearGradient id="b"><stop offset="0" stop-color="#47c4e5"/><stop offset="1" stop-color="#478be5"/></linearGradient><linearGradient id="a" x1="29.565" x2="29.728" y1="11.048" y2="53.559" gradientUnits="userSpaceOnUse"><stop offset="0" stop-color="#ebebeb"/><stop offset="1" stop-color="#c7c7c7"/></linearGradient><linearGradient id="d" x1="520" x2="520.03" y1="44" y2="985.85" gradientTransform="translate(-.542 -.542) scale(.06356)" gradientUnits="userSpaceOnUse"><stop offset="0" stop-color="#353535"/><stop offset="1" stop-color="#6d6d6d"/></linearGradient><linearGradient xlink:href="#a" id="f" x1="10.879" x2="33.505" y1="28.256" y2="28.256" gradientUnits="userSpaceOnUse"/><linearGradient xlink:href="#a" id="j" x1="24.989" x2="53.454" y1="34.095" y2="34.095" gradientUnits="userSpaceOnUse"/><filter id="c" width="1.072" height="1.072" x="-.036" y="-.036" color-interpolation-filters="sRGB"><feGaussianBlur stdDeviation="14.16"/></filter><filter id="i" width="1.281" height="1.281" x="-.14" y="-.14" color-interpolation-filters="sRGB"><feGaussianBlur stdDeviation="1.664"/></filter><filter id="e" width="1.353" height="1.353" x="-.177" y="-.177" color-interpolation-filters="sRGB"><feGaussianBlur stdDeviation="1.664"/></filter><filter id="l" width="1.057" height="1.111" x="-.029" y="-.055" color-interpolation-filters="sRGB"><feGaussianBlur stdDeviation=".338"/></filter><filter id="g" width="1.072" height="1.138" x="-.036" y="-.069" color-interpolation-filters="sRGB"><feGaussianBlur stdDeviation=".338"/></filter><radialGradient xlink:href="#b" id="h" cx="22.192" cy="26.066" r="4.014" gradientUnits="userSpaceOnUse"/><radialGradient xlink:href="#b" id="k" cx="41.168" cy="31.905" r="6.204" gradientUnits="userSpaceOnUse"/></defs><path d="M969.7 392c-1.1-4.35-2.35-9-3.65-13.6-2.5-8.75-5.35-17.6-8.45-26.35-6.45-18.25-14.15-36.05-23.15-53.65-3.8-7.4-7.95-14.95-12.3-22.4h-.025q-30.601-52.01-76.325-97.75C753.65 86.1 642.35 40 512 40S270.4 86.1 178.25 178.25 40 381.65 40 512s46.1 241.65 138.25 333.8c68.05 68.05 146.5 110.95 234.9 128.65C445.1 980.85 477.9 984 512 984c130.35 0 241.65-46.05 333.8-138.2 48.6-48.6 84.4-102.5 107.35-161.8 17-43.95 27-90.8 29.95-140.75.6-10.2.9-20.65.9-31.25 0-41.75-4.7-81.6-14.3-120z" filter="url(#c)" opacity=".25" transform="translate(-.542 -.542) scale(.06356)"/><path fill="url(#d)" d="M61.091 24.373a28.41 28.41 0 0 0-2.24-5.95A31 31 0 0 0 58.069 17h-.002q-1.945-3.306-4.851-6.213C47.359 4.93 40.285 2 32 2s-15.356 2.93-21.213 8.787S2 23.715 2 32s2.93 15.36 8.787 21.216c4.325 4.325 9.311 7.052 14.93 8.177C27.747 61.8 29.832 62 32 62c8.285 0 15.359-2.927 21.216-8.784 3.089-3.089 5.364-6.515 6.823-10.284 1.08-2.793 1.716-5.771 1.904-8.946.038-.648.057-1.312.057-1.986 0-2.654-.299-5.187-.91-7.627z"/><circle cx="22.192" cy="28.986" r="11.313" filter="url(#e)" opacity=".2"/><circle cx="22.192" cy="28.256" r="11.313" fill="url(#f)"/><path fill="#fff" d="M22.192 16.943a11.313 11.313 0 0 0-11.313 11.313 11.313 11.313 0 0 0 .016.428 11.313 11.313 0 0 1 11.297-11.011 11.313 11.313 0 0 1 11.297 10.885 11.313 11.313 0 0 0 .015-.303 11.313 11.313 0 0 0-11.313-11.313z" filter="url(#g)" opacity=".2"/><circle cx="22.192" cy="26.066" r="4.014" fill="url(#h)"/><circle cx="22.192" cy="26.066" r="1.095" opacity=".75"/><circle cx="39.222" cy="34.825" r="14.232" filter="url(#i)" opacity=".2"/><circle cx="39.222" cy="34.095" r="14.232" fill="url(#j)"/><circle cx="41.168" cy="31.905" r="6.204" fill="url(#k)"/><circle cx="41.168" cy="31.905" r="1.825" opacity=".75"/><path fill="#fff" d="M39.223 19.862a14.232 14.232 0 0 0-14.232 14.232 14.232 14.232 0 0 0 .016.428 14.232 14.232 0 0 1 14.217-13.93A14.232 14.232 0 0 1 53.44 34.397a14.232 14.232 0 0 0 .015-.303 14.232 14.232 0 0 0-14.232-14.232z" filter="url(#l)" opacity=".2"/></svg>