<svg xmlns="http://www.w3.org/2000/svg" width="64" height="64"><defs><linearGradient id="d" x1="409.57" x2="409.94" y1="542.8" y2="504.19" gradientTransform="matrix(.8636 0 0 .82352 -320.85 -400.19)" gradientUnits="userSpaceOnUse"><stop offset="0" stop-color="#86d0fb"/><stop offset="1" stop-color="#2794f5"/></linearGradient><linearGradient id="b" x1="519.2" x2="519.2" y1="1024.8" y2="4.8" gradientTransform="matrix(.06359 0 0 .06358 -.556 -.553)" gradientUnits="userSpaceOnUse"><stop offset="0" stop-color="#606060"/><stop offset=".02" stop-color="#414141"/><stop offset="1" stop-color="#1e1e1e"/></linearGradient><filter id="c" width="1.188" height="1.255" x="-.094" y="-.127" color-interpolation-filters="sRGB"><feGaussianBlur stdDeviation="1.485"/></filter><filter id="a" width="1.072" height="1.072" x="-.036" y="-.036" color-interpolation-filters="sRGB"><feGaussianBlur stdDeviation=".42"/></filter></defs><circle cx="400.57" cy="531.8" r="14" filter="url(#a)" opacity=".25" transform="translate(-826.36 -1107.5)scale(2.1429)"/><circle cx="32.02" cy="32.044" r="30.001" fill="none"/><path fill="url(#b)" d="M50.249 8.193q-3.86-2.972-8.444-4.556Q37.068 2 32.003 2C15.433 2 2 15.432 2 32.001c0 15.158 11.245 27.684 25.845 29.71a32 32 0 0 0 4.158.29C48.57 61.999 62 48.567 62 32c0-1.31-.082-2.604-.244-3.866a30 30 0 0 0-.884-4.305q-1.33-4.69-4.082-8.726-2.722-3.977-6.54-6.912z"/><rect width="38" height="28" x="13" y="19" filter="url(#c)" opacity=".35" rx="1.999" ry="1.999"/><rect width="38" height="28" x="13" y="18" fill="url(#d)" rx="1.999" ry="1.999"/><path d="M13 38v6c0 1.107.893 2 2 2h34c1.107 0 2-.893 2-2v-6z" opacity=".35" style="paint-order:stroke fill markers"/><rect width="16" height="4" x="15" y="40" fill="#fff" opacity=".5" rx="1" ry="1" style="paint-order:stroke fill markers"/><rect width="16" height="4" x="33" y="40" fill="#fff" opacity=".75" rx="1" ry="1" style="paint-order:stroke fill markers"/></svg>