<svg xmlns="http://www.w3.org/2000/svg" xmlns:xlink="http://www.w3.org/1999/xlink" width="64" height="64"><defs><linearGradient id="a"><stop offset="0"/><stop offset="1" stop-opacity="0"/></linearGradient><linearGradient id="c" x1="32.249" x2="16.546" y1="42.037" y2="4.902" gradientTransform="translate(0 16)" gradientUnits="userSpaceOnUse"><stop offset="0" stop-color="#c61423"/><stop offset="1" stop-color="#f58273"/></linearGradient><linearGradient id="h" x1="17.197" x2="27.308" y1="11.627" y2="31.453" gradientTransform="translate(0 16)" gradientUnits="userSpaceOnUse"><stop offset="0" stop-color="#fcfcfc"/><stop offset="1" stop-color="#fbc2bb"/></linearGradient><linearGradient xlink:href="#a" id="f" x1="22.137" x2="29.967" y1="1.975" y2="1.975" gradientTransform="rotate(45 -19.314 8)" gradientUnits="userSpaceOnUse"/><linearGradient xlink:href="#a" id="d" x1="19.732" x2="33.161" y1="23.413" y2="36.842" gradientTransform="translate(0 16)" gradientUnits="userSpaceOnUse"/><filter id="b" width="1.072" height="1.072" x="-.036" y="-.036" color-interpolation-filters="sRGB"><feGaussianBlur stdDeviation=".6"/></filter><filter id="e" width="1.113" height="1.128" x="-.056" y="-.064" color-interpolation-filters="sRGB"><feGaussianBlur stdDeviation=".766"/></filter><filter id="g" width="1.118" height="1.122" x="-.059" y="-.061" color-interpolation-filters="sRGB"><feGaussianBlur stdDeviation=".675"/></filter></defs><g stroke-width=".667" transform="matrix(1.5 0 0 1.5 -4 -28)"><rect width="40" height="40" x="4" y="20" filter="url(#b)" opacity=".25" rx="20"/><rect width="40" height="40" x="4" y="20" fill="url(#c)" rx="20"/><path fill="url(#d)" d="m34.318 31.289-5.03 4.719-14.284 8.556-3.614 4.428 10.934 10.934a19.954 19.954 0 0 0 21.653-18.979z" filter="url(#e)" opacity=".2"/><path fill="url(#f)" d="m15.519 33.395 2.719-2.306 20.557 20.557-5.942 5.942-21.562-21.562 1.402-1.413z" filter="url(#g)" opacity=".2"/><path fill="url(#h)" d="M17.93 31.001c-.066.001-.14.006-.226.012-.324.02-6.437 1.165-6.827 1.278-.41.12-.762.372-.848.61-.146.407.278 1.728.837 2.615 2.23 2.648 4.707 3.321 7.134 4.749.279.326.389.484-1.748 1.43-3.34 1.479-4.42 2.737-5.06 4.597-.19.55-.277 2.004-.144 2.37.173.474.277.57 3.504-.042 3.241-.615 2.973-.651 3.244-.907.22-.209.232-.26.329-1.246.055-.566.17-1.67.253-1.963.195-.679.684-1.389 1.218-1.764 2.021-1.423 5.827-.713 7.886 1.47.776.823 1.263 1.997 1.652 3.273.224.737.452 1.056.806 1.127.325.064.333-.037 4.458-.82 2.294-.436 3.249-.648 3.384-.753.29-.226.29-.779.002-1.692-.496-1.57-1.356-2.612-2.95-3.82-.788-.596-1.783-1.16-3.468-1.968C29.763 38.79 29 38.582 29 38.344c0-.197.63-.285 1.901-.666 2.786-.833 4.128-2.003 4.128-4.168 0-.95-.18-1.717-.458-1.966-.371-.331-1.022-.342-2.58-.06-4.992.903-4.648.868-4.88 1.243-.123.2-.118.246.108 1.15.13.517.233 1.165.233 1.315-.002.32-.418.854-.62 1.044-.498.466-1.624.782-2.778.782-1.396 0-2.448-.48-3.492-1.592-.755-.804-1.14-1.581-1.655-3.013-.451-1.257-.513-1.42-.977-1.412z" enable-background="new"/></g></svg>