<?xml version="1.0" encoding="UTF-8"?>
<svg id="Iterm" width="64" height="64" enable-background="new 0 0 1024 1024" image-rendering="optimizeSpeed" version="1.1" viewBox="0 0 64 64" xmlns="http://www.w3.org/2000/svg" xmlns:cc="http://creativecommons.org/ns#" xmlns:dc="http://purl.org/dc/elements/1.1/" xmlns:rdf="http://www.w3.org/1999/02/22-rdf-syntax-ns#" xmlns:xlink="http://www.w3.org/1999/xlink">
 <metadata>
  <rdf:RDF>
   <cc:Work rdf:about="">
    <dc:format>image/svg+xml</dc:format>
    <dc:type rdf:resource="http://purl.org/dc/dcmitype/StillImage"/>
    <dc:title/>
   </cc:Work>
  </rdf:RDF>
 </metadata>
 <defs>
  <filter id="e" x="-.042651" y="-.031144" width="1.0853" height="1.0623" color-interpolation-filters="sRGB">
   <feGaussianBlur stdDeviation="4.9310891"/>
  </filter>
  <linearGradient id="b" x1="-506.45" x2="-506.45" y1="-19.101" y2="1013.6" gradientTransform="matrix(.058824 0 0 .058824 61.791 3.1236)" gradientUnits="userSpaceOnUse">
   <stop stop-color="#333" offset="0"/>
   <stop stop-color="#333" offset=".50769"/>
   <stop stop-color="#4a4a4a" offset="1"/>
  </linearGradient>
  <filter id="d" x="-.036" y="-.036" width="1.072" height="1.072" color-interpolation-filters="sRGB">
   <feGaussianBlur stdDeviation="0.90000006"/>
  </filter>
  <linearGradient id="linearGradient866" x1="24.396" x2="24.396" y1="33.775" y2="22.949" gradientUnits="userSpaceOnUse">
   <stop stop-color="#58ff00" offset="0"/>
   <stop stop-color="#a0ff00" offset="1"/>
  </linearGradient>
  <linearGradient id="linearGradient868" x1="42.434" x2="38.599" y1="-33.033" y2="-33.033" gradientUnits="userSpaceOnUse">
   <stop stop-color="#58ff00" offset="0"/>
   <stop stop-color="#cf0" offset="1"/>
  </linearGradient>
 </defs>
 <mask>
  <g id="g">
   <path d="m969.75 392.05c-1.1-4.35-2.35-9-3.65-13.6-1-3.4-2-6.85-3.15-10.5-1.6-5.15-3.4-10.5-5.3-15.85-6.45-18.25-14.15-36.05-23.15-53.65-3.8-7.4-7.95-14.95-12.3-22.4-20.3-34.5-45.8-67.2-76.35-97.75-72.6-72.6-157.15-116.65-253.65-132.05-16.25-2.6-32.8-4.4-50.05-5.35-9.7-0.55-19.85-0.85-30.1-0.85-9.35 0-18.6 0.25-27.9 0.75-118.35 6.1-220.3 51.95-305.85 137.5q-138.25 138.25-138.25 333.75c0 130.35 46.1 241.65 138.25 333.8 56.7 56.65 120.55 95.9 191.1 117.55 36.75 11.25 74.8 17.85 114.75 19.95h0.4c8.5 0.45 16.6 0.7 24.5 0.7h3c10.3 0 20.5-0.3 30.1-0.8 2.5-0.15 4.75-0.3 6.95-0.45 20.2-1.45 39.9-4.05 58.7-7.7 7.95-1.55 15.8-3.3 23.4-5.15 80.8-20.3 152.15-61.6 214.65-124.1 48.6-48.6 84.4-102.5 107.35-161.8 18.45-47.65 28.65-98.8 30.55-153.5 0.2-6.05 0.3-12.25 0.3-18.5v-3c-0.2-40.65-4.95-79.5-14.3-117z" fill="#fff"/>
  </g>
 </mask>
 <circle cx="32" cy="32" r="30" fill-rule="evenodd" filter="url(#d)" opacity=".25" style="paint-order:fill markers stroke"/>
 <circle cx="32" cy="32" r="30" fill="url(#b)" fill-rule="evenodd" style="paint-order:fill markers stroke"/>
 <path transform="matrix(.06383 0 0 .06383 -.066492 -1.2261)" d="m350.86 388.74c-4.9 0-9.0996 1.75-12.6 5.25-3.45 3.45-5.2012 7.6508-5.2012 12.551s1.7512 9.1008 5.2012 12.551l54.449 54.449-54.4 54.4c-3.5 3.5-5.2488 7.6996-5.2988 12.6 0.05 4.9 1.8 9.1008 5.25 12.551 3.5 3.45 7.6988 5.2 12.549 5.25 4.95 0 9.1504-1.75 12.65-5.25l60.5-60.551c12.7-12.65 12.7-25.351 0-38.051l-60.551-60.549c-3.4667-3.4667-7.6488-5.2012-12.549-5.2012z" filter="url(#e)" stroke-width="15.667"/>
 <rect transform="matrix(0 .06383 -.06383 0 65.347 -1.071)" x="637.78" y="314.78" width="40" height="380" rx="20" filter="url(#e)" opacity=".5" stroke-width="15.667" style="paint-order:stroke markers fill"/>
 <path d="m22.329 22.949c-0.31277 0-0.58082 0.1117-0.80426 0.3351-0.22021 0.22021-0.33199 0.48835-0.33199 0.80113s0.11178 0.5809 0.33199 0.80113l3.4755 3.4755-3.4723 3.4723c-0.2234 0.2234-0.33503 0.49146-0.33822 0.80425 0.0032 0.31277 0.11489 0.5809 0.33511 0.80113 0.2234 0.22021 0.49141 0.33191 0.801 0.33511 0.31596 0 0.58407-0.11171 0.80745-0.33511l3.8617-3.865c0.81064-0.80745 0.81064-1.6182 0-2.4288l-3.865-3.8648c-0.22128-0.22127-0.48822-0.33199-0.801-0.33199z" fill="url(#linearGradient866)"/>
 <rect transform="rotate(90)" x="39" y="-45.255" width="2.5532" height="24.255" rx="1.2766" fill="url(#linearGradient868)" style="paint-order:stroke markers fill"/>
</svg>
