<svg xmlns="http://www.w3.org/2000/svg" width="64" height="64" enable-background="new 0 0 1024 1024" image-rendering="optimizeSpeed"><defs><linearGradient id="b" x1="-506.45" x2="-506.45" y1="-19.101" y2="1013.6" gradientTransform="translate(61.791 3.124) scale(.05882)" gradientUnits="userSpaceOnUse"><stop offset="0" stop-color="#333"/><stop offset=".508" stop-color="#333"/><stop offset="1" stop-color="#4a4a4a"/></linearGradient><linearGradient id="d" x1="24.396" x2="24.396" y1="33.775" y2="22.949" gradientUnits="userSpaceOnUse"><stop offset="0" stop-color="#58ff00"/><stop offset="1" stop-color="#a0ff00"/></linearGradient><linearGradient id="e" x1="42.434" x2="38.599" y1="-33.033" y2="-33.033" gradientUnits="userSpaceOnUse"><stop offset="0" stop-color="#58ff00"/><stop offset="1" stop-color="#cf0"/></linearGradient><filter id="c" width="1.085" height="1.062" x="-.043" y="-.031" color-interpolation-filters="sRGB"><feGaussianBlur stdDeviation="4.931"/></filter><filter id="a" width="1.072" height="1.072" x="-.036" y="-.036" color-interpolation-filters="sRGB"><feGaussianBlur stdDeviation=".9"/></filter></defs><circle cx="32" cy="32" r="30" fill-rule="evenodd" filter="url(#a)" opacity=".25" style="paint-order:fill markers stroke"/><circle cx="32" cy="32" r="30" fill="url(#b)" fill-rule="evenodd" style="paint-order:fill markers stroke"/><path d="M350.86 388.74c-4.9 0-9.1 1.75-12.6 5.25-3.45 3.45-5.201 7.65-5.201 12.551s1.751 9.1 5.201 12.551l54.449 54.449-54.4 54.4c-3.5 3.5-5.249 7.7-5.299 12.6.05 4.9 1.8 9.1 5.25 12.551 3.5 3.45 7.699 5.2 12.55 5.25 4.95 0 9.15-1.75 12.65-5.25l60.5-60.551c12.7-12.65 12.7-25.351 0-38.051l-60.552-60.549c-3.466-3.467-7.649-5.201-12.549-5.201z" filter="url(#c)" transform="translate(-.066 -1.226) scale(.06383)"/><rect width="40" height="380" x="637.78" y="314.78" filter="url(#c)" opacity=".5" rx="20" style="paint-order:stroke markers fill" transform="rotate(90 33.209 32.138) scale(.06383)"/><path fill="url(#d)" d="M22.329 22.949c-.313 0-.58.112-.804.335-.22.22-.332.488-.332.801s.112.581.332.801L25 28.362l-3.472 3.472a1.112 1.112 0 0 0-.338.804c.003.313.115.581.335.802.223.22.491.331.8.335a1.1 1.1 0 0 0 .808-.335l3.862-3.865c.81-.808.81-1.619 0-2.43l-3.865-3.864a1.092 1.092 0 0 0-.801-.332z"/><rect width="2.553" height="24.255" x="39" y="-45.255" fill="url(#e)" rx="1.277" style="paint-order:stroke markers fill" transform="rotate(90)"/></svg>