<svg xmlns="http://www.w3.org/2000/svg" xmlns:xlink="http://www.w3.org/1999/xlink" width="64" height="64"><defs><radialGradient id="f" cx="64" cy="220" r="48" gradientTransform="translate(-4.205 -100.69)scale(.56571)" gradientUnits="userSpaceOnUse"><stop offset="0" stop-color="#ababab"/><stop offset=".758" stop-color="#a5a59f"/><stop offset="1" stop-color="#5f5e59"/></radialGradient><radialGradient xlink:href="#a" id="g" cx="61.855" cy="209.59" r="34.573" gradientTransform="translate(-4.205 -100.69)scale(.56571)"/><radialGradient id="h" cx="64" cy="218" r="31.18" gradientTransform="matrix(.68159 .03408 -.02653 .53064 -5.837 -94.657)" gradientUnits="userSpaceOnUse"><stop offset="0" stop-color="#656461"/><stop offset=".488" stop-color="#7e7d7a" stop-opacity=".51"/><stop offset="1" stop-color="#9a9996" stop-opacity="0"/></radialGradient><radialGradient xlink:href="#a" id="i" cx="64" cy="257.38" r="30.712" gradientTransform="translate(-4.205 -100.69)scale(.56571)"/><linearGradient id="b" x1="55.867" x2="68.871" y1="20.605" y2="45.125" gradientUnits="userSpaceOnUse"><stop offset="0" stop-color="#67554b"/><stop offset=".179" stop-color="#77767b"/><stop offset=".801" stop-color="#241f31"/><stop offset="1" stop-color="#5e5c64"/></linearGradient><linearGradient id="a" gradientUnits="userSpaceOnUse"><stop offset="0" stop-color="#fff"/><stop offset="1" stop-color="#fff" stop-opacity="0"/></linearGradient><linearGradient xlink:href="#b" id="d" x1="55.867" x2="68.871" y1="20.605" y2="45.125" gradientTransform="translate(-4.205 -3.39)scale(.56571)" gradientUnits="userSpaceOnUse"/><linearGradient id="c" x1="7.937" x2="7.937" y1="15.081" y2="1.852" gradientTransform="scale(3.7796)" gradientUnits="userSpaceOnUse"><stop offset="0" stop-color="#363636"/><stop offset="1" stop-color="#6c6c6c"/></linearGradient><clipPath id="e"><rect width="60" height="60" x="2" y="2" fill="url(#c)" stroke-width="3.78" opacity=".412" rx="30" ry="30"/></clipPath></defs><rect width="60" height="60" x="2" y="2" fill="#b5835a" rx="30" ry="30"/><path d="M42.37 3.969c.258.05.502.105.759.156l-.4-.156zM16.01 6.596a30 30 0 0 0-3.9 2.92c6.553.724 12.39 2.06 16.986 3.816 3.53 1.348 6.321 2.944 8.142 4.588 1.822 1.644 2.643 3.24 2.643 4.824s-.822 3.183-2.643 4.826c-1.82 1.644-4.611 3.238-8.142 4.586C22.32 34.744 12.84 36.42 2.34 36.553c.173 1.149.42 2.273.719 3.375 10.618-.196 20.216-1.878 27.416-4.627 3.83-1.463 6.994-3.217 9.29-5.291 2.297-2.072 3.753-4.56 3.753-7.266 0-2.705-1.458-5.19-3.752-7.264-2.297-2.074-5.461-3.828-9.291-5.29-4.12-1.574-9.036-2.793-14.465-3.594m-9.742 9.94a30 30 0 0 0-1.594 3.046c.158.065.318.13.465.2 2.097.99 2.935 2.123 2.935 2.964s-.838 1.977-2.935 2.967c-.748.352-1.667.642-2.65.896a30 30 0 0 0-.434 3.639c1.743-.347 3.34-.854 4.724-1.508 2.762-1.303 4.932-3.337 4.932-5.994s-2.169-4.688-4.932-5.992c-.164-.078-.341-.145-.511-.219M61.727 36.02a71.78 67 0 0 1-4.944 1.851C44.184 42.06 26.553 44.7 7.082 44.7c-.77 0-1.532-.011-2.293-.025a30 30 0 0 0 1.867 3.414l.426.004c19.821 0 37.768-2.653 50.918-7.024a78 78 0 0 0 2.914-1.04q.538-1.955.813-4.008M53.81 52.625c-11.799 2.228-25.012 3.631-39.059 3.945a30 30 0 0 0 5.777 3.17c9.888-.42 19.326-1.359 28.116-2.752a30 30 0 0 0 5.166-4.363" style="stroke-width:1.03506;-inkscape-stroke:none;opacity:.1;fill:#000"/><g stroke-width=".566"><path fill="#241f31" d="M28.607 42.999h6.789a3.395 3.395 0 0 1 3.394 3.394v7.92a3.395 3.395 0 0 1-3.394 3.395h-6.789a3.395 3.395 0 0 1-3.394-3.395v-7.92A3.395 3.395 0 0 1 28.607 43"/><path fill="url(#d)" d="M28.607 41.868h6.789a3.395 3.395 0 0 1 3.394 3.394v7.92a3.395 3.395 0 0 1-3.394 3.395h-6.789a3.395 3.395 0 0 1-3.394-3.395v-7.92a3.395 3.395 0 0 1 3.394-3.394"/><path fill="#9b9b98" d="M37.095 49.222a5.094 5.094 0 1 1-10.187 0 5.094 5.094 0 0 1 10.187 0" clip-path="url(#e)"/><path fill-opacity=".259" d="M25.212 46.729v6.135a20.2 20.2 0 0 0 6.789 1.17c2.38 0 4.662-.415 6.788-1.17v-6.135a14.7 14.7 0 0 1-6.788 1.649c-2.453 0-4.76-.597-6.789-1.649"/><path fill="url(#d)" d="M39.921 14.714a7.921 7.921 0 0 1-15.84 0 7.921 7.921 0 0 1 15.84 0"/></g><path fill="none" stroke="#000" stroke-opacity=".224" stroke-width="5.657" d="M49.538 34.231c0 10.154-7.851 18.386-17.537 18.386s-17.537-8.232-17.537-18.386 7.851-18.386 17.537-18.386 17.537 8.232 17.537 18.386z"/><path fill-opacity=".208" d="M32.001 13.467c-2.804 0-5.48.57-7.913 1.604a7.9 7.9 0 0 0 2.068 5.25 14.7 14.7 0 0 1 5.845-1.197c2.082 0 4.057.427 5.845 1.198a7.9 7.9 0 0 0 2.068-5.25 20.2 20.2 0 0 0-7.913-1.605"/><path fill="url(#f)" stroke="#5e5c64" stroke-width="1.131" d="M32.001 11.461c-11.215 0-20.366 9.15-20.366 20.366s9.15 20.366 20.366 20.366 20.366-9.15 20.366-20.366-9.15-20.366-20.366-20.366zm0 5.657c8.156 0 14.709 6.552 14.709 14.71s-6.552 14.708-14.709 14.708-14.709-6.552-14.709-14.709 6.552-14.709 14.709-14.709z"/><path fill="none" stroke="url(#g)" stroke-width="2.263" d="M50.429 32.008c0 10.178-8.251 18.428-18.428 18.428s-18.428-8.25-18.428-18.428c0-10.176 8.252-18.425 18.428-18.425s18.428 8.25 18.428 18.425z"/><path fill="none" stroke="url(#h)" stroke-width="2.263" d="M47.505 32.008c0 8.563-6.941 15.504-15.504 15.504s-15.504-6.941-15.504-15.504c0-8.56 6.941-15.502 15.504-15.502s15.504 6.941 15.504 15.502z"/><path fill="#5e5c64" d="M32.001 9.627a1.78 1.78 0 0 0-1.794 1.794v6.789A1.78 1.78 0 0 0 32 20.002a1.78 1.78 0 0 0 1.794-1.792v-6.79A1.78 1.78 0 0 0 32 9.626"/><path fill="#8f8f8e" d="M32.001 9.66c-.685 0-1.213.528-1.213 1.213v5.787c0 .685.528 1.216 1.213 1.216s1.213-.53 1.213-1.216v-5.787c0-.685-.528-1.213-1.213-1.213"/><path fill="none" stroke="url(#i)" stroke-width="2.263" d="M48.369 32.008c0 9.043-7.328 16.37-16.368 16.37s-16.368-7.328-16.368-16.37c0-9.04 7.328-16.368 16.368-16.368s16.368 7.328 16.368 16.368z"/></svg>