<svg xmlns="http://www.w3.org/2000/svg" xmlns:xlink="http://www.w3.org/1999/xlink" width="64" height="64"><defs><linearGradient id="a" x1="399.57" x2="399.57" y1="545.8" y2="517.8" gradientTransform="translate(-826.36 -1107.5) scale(2.1429)" gradientUnits="userSpaceOnUse"><stop offset="0" stop-color="#3889e9"/><stop offset="1" stop-color="#5ea5fb"/></linearGradient><linearGradient id="b" x1="519.2" x2="519.2" y1="1024.8" y2="4.8" gradientTransform="matrix(.06359 0 0 .06358 -.556 -.554)" gradientUnits="userSpaceOnUse"><stop offset="0" stop-color="#606060"/><stop offset=".02" stop-color="#414141"/><stop offset="1" stop-color="#1e1e1e"/></linearGradient><linearGradient id="g" x1="32" x2="32" y1="16" y2="19" gradientTransform="matrix(1.3835 0 0 7.1637 -12.081 -116.11)" gradientUnits="userSpaceOnUse"><stop offset="0" stop-color="#f8f8f8"/><stop offset="1" stop-color="#b6b6b6"/></linearGradient><linearGradient id="k" x1="367.9" x2="367.9" y1="339.9" y2="519.9" gradientTransform="translate(-1.121 1.921) scale(.06383)" gradientUnits="userSpaceOnUse"><stop offset="0" stop-color="#fff"/><stop offset="1" stop-color="#d7d7d7"/></linearGradient><linearGradient id="m" x1="26.5" x2="26.5" y1="40" y2="42.644" gradientTransform="matrix(.06383 0 0 .03947 -2.738 -39.983)" gradientUnits="userSpaceOnUse"><stop offset="0" stop-color="#fff"/><stop offset="1" stop-color="#d7d7d7"/></linearGradient><linearGradient id="e" x1="519.2" x2="519.2" y1="1024.8" y2="4.8" gradientTransform="matrix(.05299 0 0 .05298 4.87 4.873)" gradientUnits="userSpaceOnUse"><stop offset="0" stop-color="#86d0fb"/><stop offset="1" stop-color="#2794f5"/></linearGradient><linearGradient xlink:href="#a" id="i" x1="47" x2="47" y1="17" y2="19" gradientTransform="translate(0 -1)" gradientUnits="userSpaceOnUse"/><linearGradient xlink:href="#b" id="h" x1="47" x2="47" y1="17" y2="19" gradientTransform="translate(-23.898 -10.153) scale(1.5085)" gradientUnits="userSpaceOnUse"/><filter id="c" width="1.072" height="1.072" x="-.036" y="-.036" color-interpolation-filters="sRGB"><feGaussianBlur stdDeviation=".42"/></filter><filter id="f" width="1.065" height="1.72" x="-.033" y="-.36" color-interpolation-filters="sRGB"><feGaussianBlur stdDeviation=".6"/></filter><filter id="j" width="1.085" height="1.062" x="-.043" y="-.031" color-interpolation-filters="sRGB"><feGaussianBlur stdDeviation="4.931"/></filter><filter id="l" width="1.071" height="1.4" x="-.035" y="-.2" color-interpolation-filters="sRGB"><feGaussianBlur stdDeviation=".221"/></filter><filter id="d" width="1.106" height="1.138" x="-.053" y="-.069" color-interpolation-filters="sRGB"><feGaussianBlur stdDeviation="1.105"/></filter></defs><circle cx="400.57" cy="531.8" r="14" filter="url(#c)" opacity=".25" transform="translate(-826.36 -1107.5) scale(2.1429)"/><circle cx="32.02" cy="32.044" r="30.001" fill="none"/><path fill="url(#b)" d="M4.504 20A29.885 29.885 0 0 0 2 32c0 15.158 11.246 27.686 25.846 29.711a31.982 31.982 0 0 0 4.158.29C48.571 62 62 48.566 62 32c0-1.31-.082-2.604-.244-3.866a29.935 29.935 0 0 0-.885-4.305 29.96 29.96 0 0 0-1.39-3.83H4.504z"/><path d="M10.914 18.576A24.876 24.876 0 0 0 7 32.002c0 12.632 9.37 23.068 21.537 24.756.593.082 1.195.146 1.799.184.55.034 1.104.058 1.666.058C45.808 57 57 45.806 57 32c0-1.091-.068-2.169-.203-3.22a24.958 24.958 0 0 0-.739-3.588 24.811 24.811 0 0 0-2.99-6.616H10.914z" filter="url(#d)" opacity=".5"/><path fill="url(#e)" d="M10.914 18.576A24.876 24.876 0 0 0 7 32.002c0 12.632 9.37 23.068 21.537 24.756.593.082 1.195.146 1.799.184.55.034 1.104.058 1.666.058C45.808 57 57 45.806 57 32c0-1.091-.068-2.169-.203-3.22a24.958 24.958 0 0 0-.739-3.588 24.811 24.811 0 0 0-2.99-6.616H10.914z"/><rect width="44" height="4" x="10" y="16" fill-rule="evenodd" filter="url(#f)" opacity=".35" ry="1" style="paint-order:fill markers stroke"/><path fill="url(#g)" fill-rule="evenodd" d="M32.002 2C19.701 2 9.135 9.405 4.504 19.998V20h54.977a29.92 29.92 0 0 0-2.691-4.896 30.092 30.092 0 0 0-6.54-6.913l-.002.002A29.8 29.8 0 0 0 32.002 2z" style="paint-order:fill markers stroke"/><circle cx="47" cy="17" r="1.508" fill="url(#h)" fill-rule="evenodd" style="paint-order:fill markers stroke"/><circle cx="47" cy="17" r="1" fill="url(#i)" fill-rule="evenodd" style="paint-order:fill markers stroke"/><path d="M350.86 388.74c-4.9 0-9.1 1.75-12.6 5.25-3.45 3.45-5.201 7.65-5.201 12.551s1.751 9.1 5.201 12.551l54.449 54.449-54.4 54.4c-3.5 3.5-5.249 7.7-5.299 12.6.05 4.9 1.8 9.1 5.25 12.551 3.5 3.45 7.699 5.2 12.55 5.25 4.95 0 9.15-1.75 12.65-5.25l60.5-60.551c12.7-12.65 12.7-25.351 0-38.051l-60.552-60.549c-3.466-3.467-7.649-5.201-12.549-5.201z" filter="url(#j)" opacity=".25" transform="translate(-2.067 -.226) scale(.06383)"/><path fill="url(#k)" d="M20.329 23.949c-.313 0-.58.112-.804.335-.22.22-.332.488-.332.801s.112.581.332.801L23 29.362l-3.472 3.472a1.112 1.112 0 0 0-.338.804c.003.313.115.581.335.802.223.22.491.331.8.335a1.1 1.1 0 0 0 .808-.335l3.862-3.865c.81-.808.81-1.619 0-2.43l-3.865-3.864a1.092 1.092 0 0 0-.801-.332z"/><rect width="15" height="2.644" x="19" y="40.356" fill-rule="evenodd" filter="url(#l)" opacity=".35" ry="1.322" style="paint-order:fill markers stroke"/><rect width="15" height="2.644" x="19" y="40" fill="url(#m)" fill-rule="evenodd" ry="1.322" style="paint-order:fill markers stroke"/></svg>