<svg xmlns="http://www.w3.org/2000/svg" width="64" height="64"><defs><linearGradient id="b" x1="399.99" x2="399.99" y1="545.14" y2="518.14" gradientTransform="translate(-826.37 -1107.5) scale(2.1429)" gradientUnits="userSpaceOnUse"><stop offset="0" stop-color="#a4d65c"/><stop offset="1" stop-color="#649e26"/></linearGradient><linearGradient id="d" x1="46.949" x2="46.949" y1="35.914" y2="59.335" gradientUnits="userSpaceOnUse"><stop offset="0" stop-color="#333"/><stop offset="1" stop-color="#616161"/></linearGradient><filter id="a" width="1.072" height="1.072" x="-.036" y="-.036" color-interpolation-filters="sRGB"><feGaussianBlur stdDeviation=".42"/></filter><filter id="c" width="1.216" height="1.216" x="-.108" y="-.108" color-interpolation-filters="sRGB"><feGaussianBlur stdDeviation="1.26"/></filter></defs><linearGradient id="e" x1="22" x2="22" y1="30" y2="8" gradientTransform="translate(9.968 10.129) scale(1.6667)" gradientUnits="userSpaceOnUse"><stop offset="0" stop-color="#cfd2d5"/><stop offset="1" stop-color="#eff0f1"/></linearGradient><circle cx="400.57" cy="531.8" r="14" filter="url(#a)" opacity=".25" transform="translate(-826.37 -1107.5) scale(2.1429)"/><circle cx="32" cy="32" r="30.001" fill="url(#b)"/><circle cx="32" cy="32" r="30.001" fill="none"/><path fill="#fff" d="M28 2v31l2-2 2 2 2-2s2 2 2 1.944V2z" opacity=".75"/><path fill="#fff" d="M25 2.826A30.001 30.001 0 0 0 2 32a30.001 30.001 0 0 0 23 29.172z" opacity=".25"/><path fill="#fff" d="M16 36a6 6 0 0 0-6 6 6 6 0 0 0 6 6 6 6 0 0 0 6-6 6 6 0 0 0-6-6zm-3 3h2v2h2v-2h2v4h-2v2h-2v-2h-2z" opacity=".75" style="paint-order:markers stroke fill"/><circle cx="46.635" cy="47.579" r="14" filter="url(#c)" opacity=".35" style="paint-order:markers stroke fill"/><circle cx="46.635" cy="46.796" r="14" fill="url(#d)" style="paint-order:markers stroke fill"/><path fill="url(#e)" d="M46.635 36.796a10 10 0 1 0 0 20 10 10 0 0 0 0-20zm0 1.667c.288 0 .553.023.833.051.067.007.142-.008.209 0 .088.012.173.039.26.054.24.036.445.098.678.155.427.106.85.248 1.25.416.218.094.415.202.625.314v.051c.047.022.073.112.155.157.03.017.025.037.053.052.047.026.114.056.104.105-.014.066-.11.051-.157.103.007.097-.078.092-.103.157.015.041.096.053.103.103-.008.053-.123.05-.103.105.09.07.175.017.26 0 .186-.023.353-.01.468-.105-.015-.088.167-.075.157-.155.048.033.108.067.156.103-.018.017-.033.044-.053.052-.033.017-.072.033-.103.053l-.157.104c-.038.026-.117.156-.155.156-.05 0-.122-.063-.157-.053-.05.017-.048.085-.105.105-.11.04-.326-.06-.363.105.047.095.228.05.312.103a.517.517 0 0 1 .156.209.983.983 0 0 1 0 .313c-.051.133-.211.105-.365.103h-.105c-.256-.016-.508-.133-.625.052.009.142.034.242 0 .365-.021.09-.16.183-.155.26 0 .04.094.1.104.157.006.03-.014.075 0 .105.043.081.133-.017.208 0 .073.016.157.125.157.208a.433.433 0 0 1-.052.208c-.073.11-.208.095-.313.155-.087.05-.104.175-.155.262-.055.093-.127.127-.105.26a.608.608 0 0 1-.314.312c-.045.02-.113.023-.155.053-.033.023-.058.102-.105.155-.058.067-.123.107-.155.157-.025.038-.028.103-.053.156-.037.07-.11.085-.155.155-.022.034-.03.114-.053.157-.054.097-.114.177-.104.262.009.08.1.083.104.155.005.04-.054.06-.052.105.002.063.047.105.052.155.011.123-.08.176-.104.261-.011.04.01.07 0 .104-.02.061-.103.135-.105.208 0 .052.1.083.105.157.004.048-.061.11-.053.156.018.09.192.19.262.26.095.095.218.16.26.26.035.085.04.25.105.314.046.046.146.053.208.103.057.045.093.055.155.105.102.08.255.272.417.26.085-.017.166-.087.261-.105.099-.017.212-.06.312-.05.077.017.18.055.26.05.083-.017.167-.01.262-.05.165-.073.436-.192.676-.158.184.026.184.231.312.313.147.017.248-.028.365 0 .088.022.2.138.208.208.009.072-.095.164-.105.209-.021.096.017.2 0 .26-.013.05-.053.108-.05.156 0 .044.059.15.104.209.055.07.141.133.208.208.122.14.175.283.26.468.022.047-.02.097 0 .157-.037.28-.13.472-.313.782-.085.1-.21.186-.209.311-.005.3.17.492.157.782-.03.39.03.417 0 .625.133.067.038.278 0 .417-.057.165-.123.201-.155.313.088.038.213.022.312 0l-.157.155a8.672 8.672 0 0 1-1.25 1.042 8.233 8.233 0 0 1-2.863 1.25 8.308 8.308 0 0 1-1.772.156 8.32 8.32 0 0 1-.938-.051c-.244-.029-.49-.057-.729-.105-.471-.097-.915-.295-1.355-.469-.015-.028-.055-.07-.05-.105.085-.036.249.124.312 0 .032-.058-.042-.2 0-.26.03-.04.198-.04.26-.051.088-.017.21-.029.26-.052.055-.035.115-.158.105-.262-.005-.048-.067-.06-.105-.103-.032-.037.022-.07 0-.105-.04-.058-.138-.07-.155-.155.12-.023.295.1.467.052.083-.024.223-.184.261-.26.012-.024-.013-.075 0-.105.015-.03.047-.087.052-.104.012-.045-.01-.023 0-.053.03-.083.107-.147.157-.208.038-.047.121-.107.156-.155.04-.052.025-.059.052-.105.025-.15-.088-.284-.052-.417.04-.15.272-.243.417-.312.05-.023.113-.038.155-.053.1-.033.22-.07.313-.103.157-.057.184-.17.26-.314.037-.066.099-.158.105-.208.007-.043-.008-.052 0-.103.009-.049-.013-.1 0-.157a1.9 1.9 0 0 0 .052-.312c0-.066-.05-.096-.052-.156-.011-.217.077-.195.155-.314.04-.058.077-.166.105-.208.135-.2.382-.268.365-.572-.006-.1-.083-.333-.156-.365-.042-.018-.095-.03-.157-.051-.197-.074-.367-.297-.572-.314h-.105c-.08 0-.17-.04-.26-.051-.056-.017-.175.016-.208 0-.052-.025-.063-.129-.105-.157-.033-.023-.105-.033-.155-.052-.083-.03-.113-.098-.208-.105-.03 0-.072.017-.105 0-.052-.016-.109-.021-.157-.05-.06-.038-.13-.053-.155-.105.055-.18-.12-.208-.157-.313-.016-.048.017-.165 0-.208-.021-.062-.088-.104-.156-.155a.623.623 0 0 0-.365-.157c-.077-.017-.169.017-.26 0a.593.593 0 0 1-.314-.157c-.07-.081-.093-.17-.155-.208-.058-.037-.116-.067-.156-.105-.019-.017-.035-.013-.052-.05-.03-.063-.09-.083-.053-.158-.067-.034-.032.065-.104.053-.065-.092-.113-.183-.26-.157-.066.017-.13.155-.208.157-.067 0-.123-.143-.208-.157-.067-.016-.164.06-.209.052-.071-.017-.091-.06-.156-.103-.049-.034-.13-.107-.157-.105-.083 0-.145.166-.26.105-.057-.072.118-.09.052-.157-.05-.048-.064.028-.104.052-.046.03-.105.033-.156.053-.115.043-.224.055-.314.103a.308.308 0 0 0-.155.157c-.038.07-.098.205-.156.208-.07 0-.094-.076-.157-.105-.192-.083-.31.05-.468.054-.147 0-.372-.227-.365-.367.005-.083.043-.207.053-.312.008-.083.102-.183.103-.26.002-.103-.193-.145-.26-.156-.156-.029-.343.07-.521 0-.034-.057.033-.1.053-.155.012-.03-.012-.07 0-.105.018-.054.13-.1.155-.157.018-.043-.017-.1 0-.155.022-.06.1-.113.105-.157.007-.056-.06-.12-.105-.156-.138.016-.233.011-.312.051-.18.084-.131.309-.313.365a1.523 1.523 0 0 1-.208.052c-.03.017-.07-.003-.104 0 .004-.017-.003-.033 0-.052.007-.038.044-.066.052-.105a8.183 8.183 0 0 1 .522-1.561h.05c.065.016.103.1.158.105.152.016.185-.142.312-.209.13.017.195-.016.313 0 .08.017.197.097.26.104.053 0 .053-.059.103-.052.05.017.149.095.157.155.008.075-.073.178-.052.262.079.08.254.108.364.155.073-.062.011-.174 0-.26 0-.039.005-.12 0-.155-.007-.06-.05-.105-.05-.157 0-.238.203-.323.363-.417.068-.04.148-.126.208-.156.085-.042.139-.012.209-.052.126-.072.215-.18.313-.262.045-.108-.005-.256 0-.363.045-.028.107 0 .155 0 .077-.017.113-.113.157-.157.025-.025.073-.026.105-.051.075-.06.088-.13.155-.157a.433.433 0 0 1 .105-.052c.05-.016.128-.023.208-.053.05-.017.188-.03.208-.05.025-.027-.006-.12 0-.158.04-.187.3-.197.469-.26.116-.044.233-.179.365-.155-.025.09-.127.1-.105.208.028.15.208-.032.261-.053.1-.044.284-.105.417-.155.117-.042.317-.075.208-.209-.091-.016-.13.07-.208.104-.055.016-.058-.047-.105-.052-.045 0-.058.06-.105.052-.045-.017-.097-.1-.103-.157-.019-.14.1-.157.156-.26-.038-.127-.206-.055-.313-.105a.188.188 0 0 1 .157-.155c.071-.017.27.013.313.052.025.021-.038.07 0 .105.043.038.1.016.155 0 .02-.095-.12-.044-.103-.105.113-.074.33-.034.468-.052a1.133 1.133 0 0 0 .26-.105c.067-.038.087-.115.157-.052.02.069-.014.12-.052.157-.128.113-.265.233-.365.363.062.06.157.042.26.054.04.016.115-.009.157 0 .05.016.116-.017.156 0 .07.016.087.155.155.155.114 0 .067-.134 0-.209.02-.078.082-.151.054-.208-.052-.103-.25.032-.262-.103-.005-.084.075-.094.105-.157-.013-.16.12-.167.105-.312-.008-.06-.063-.048-.105-.105-.022-.03-.027-.133-.052-.155-.086-.073-.25-.016-.261-.156-.004-.084.011-.172 0-.262-.012-.083-.084-.347-.155-.363-.094-.02-.15.155-.262.208a.627.627 0 0 1-.26.052c-.04-.017-.1-.025-.103-.105-.007-.07.078-.1.103-.155.007-.014-.003-.034 0-.054.122-.033.242-.075.365-.103.07-.017.138-.038.208-.052.05-.01.107.009.157 0a8.35 8.35 0 0 1 1.51-.156zm-3.385.781c-.053.304-.338.425-.678.417-.075.073-.01.21-.05.312-.037.085-.177.163-.262.156-.062 0-.157-.098-.157-.156 0-.072.115-.074.054-.155.001-.017.033-.037.05-.054.035-.02.071-.031.105-.051.301-.187.611-.322.938-.469zm6.978.312c-.03.017-.025.037-.051.053-.064.039-.109.085-.157.104-.067.025-.145.041-.155.105-.008.05.053.055.05.103-.023.062-.037.082-.05.157.083.138.258-.032.363-.054.047-.016.08-.011.105-.05.029-.046.03-.093.052-.158.023-.07.113-.093.105-.155-.007-.062-.158-.113-.262-.105zm-9.113 1.042c.078.063.19.2.05.261a.86.86 0 0 1-.258.05c-.017 0-.039-.038-.054-.05.087-.083.172-.181.262-.261zm.312.313c.04 0 .056.1.105.103.045 0 .076-.058.103-.051.07.018.118.156.052.208-.055.017-.064-.058-.104-.052-.113.02-.176.267-.261.26-.08-.016-.134-.201-.05-.26 0-.05-.005-.053 0-.105.023-.03.088-.108.155-.103zm-.417.052c.023 0 .043-.017.052 0-.012.088-.035.115-.104.156-.118.072-.221.16-.261.312-.012.045-.15.167-.209.157-.131-.029.075-.275.105-.314.034-.041.067-.055.105-.103.037-.047.067-.13.104-.157a.41.41 0 0 1 .208-.051zm11.302.26c.133-.017.2.13.262.208a1 1 0 0 0 .26.208c.046.025.103.082.155.105.108.049.308.205.313.312.002.053-.06.107-.052.157.082.016.154-.127.155-.209.154.217.285.447.417.677.063.11.15.2.208.313-.073.022-.091.034-.103.104-.017.093.035.245-.105.261-.087.017-.19-.076-.312-.105-.05-.016-.116.017-.156 0-.092-.03-.077-.153-.155-.208a.835.835 0 0 0-.262-.105c-.045 0-.057.017-.103 0-.057-.017-.162.023-.209 0a.535.535 0 0 1-.156-.155c-.019-.062.153-.105.156-.157.004-.04-.045-.095-.053-.156-.005-.037.008-.079 0-.104-.012-.043-.087-.05-.155-.053h-.157c-.073 0-.221-.007-.313 0-.055 0-.103-.005-.155 0-.145.017-.252-.017-.365 0a1.047 1.047 0 0 0-.313.105l-.104.052a.685.685 0 0 1-.105.053c-.045.022-.11.09-.155.103-.066.017-.143-.016-.261 0-.084 0-.205-.055-.209-.156 0-.155.272-.075.417-.104.055-.016.09-.065.157-.105.033-.016.023-.031.053-.051.05-.035.147-.117.155-.157.007-.037-.005-.075 0-.103.007-.035.06-.059.105-.105.07-.07.122-.164.208-.209.059-.03.129-.055.155-.103.007-.053 0-.055 0-.105a.217.217 0 0 1 .105-.052c.09-.02.155.005.26 0 .045 0 .109.022.157 0 .04-.026.063-.083.105-.105a.412.412 0 0 1 .155-.05zm.938.99h-.208c-.073 0-.167-.039-.208 0 .061.1.173.131.311.156a.322.322 0 0 0 .105-.156zm-11.407-.939H42c.042 0 .087-.016.103 0-.026.11-.278.094-.363.054.003-.042.05-.047.103-.054zm-.365.209c-.071.053-.145.121-.26.156-.063.02-.145.019-.156-.051-.014-.087.1-.044.156-.052.074-.017.175-.05.26-.053zm10.833 0c-.055.018-.081.14 0 .156.039-.023.064-.083.054-.155-.022-.023-.037-.016-.054 0zm-.103.261c0 .094.017.179 0 .26.053.104.182.017.208-.051.032-.174-.025-.23-.105-.209-.026.017-.075-.021-.103 0zM38.405 45.65c.095.085.15.205.262.262a.782.782 0 0 0 .155.052c.045.016.063-.014.105 0 .088.03.19.071.26.105.106.046.221.206.313.26.005.053-.017.116 0 .155.043.058.085.116.155.156.085.047.13.12.208.157.029.017.062-.017.105 0 .11.033.167.183.26.157.062-.019.044-.097.054-.157.041-.045.09-.105.155-.105.103 0 .118.16.156.262.022.056.09.095.105.155a1.572 1.572 0 0 1 0 .47c-.026.076-.145.071-.208.155-.03.04-.03.128-.053.156-.04.05-.074.059-.104.105a.748.748 0 0 0-.053.104c-.05.106-.145.183-.103.313.016.05.105.093.105.155 0 .073-.145.128-.157.208-.008.059.033.132.052.209.013.058.121.118.156.156.059.067.102.179.155.262.105.162.159.362.262.52.055.082.172.122.208.208.017.044-.016.117 0 .157.06.133.334.298.469.363.063.034.15.02.208.054.088.05.267.183.313.26.039.07.032.253.05.365.027.146-.005.258 0 .416.007.087.054.122.054.209v.155c-.002.103.008.208 0 .313a.997.997 0 0 0 0 .157c.005.05.05.056.051.103.004.05-.056.118-.051.157.011.105.083.163.105.26.016.076.061.273.05.365-.005.048-.044.1-.05.156-.005.044.005.064 0 .104-.005.038.008.073 0 .105-.054-.034-.105-.07-.157-.105a8.672 8.672 0 0 1-1.25-1.042l-.157-.155a8.667 8.667 0 0 1-.833-1.042c-.023-.033-.03-.071-.052-.105a8.04 8.04 0 0 1-.73-1.355c-.015-.033-.036-.066-.051-.103a8.365 8.365 0 0 1-.469-1.615 8.35 8.35 0 0 1-.156-1.51c0-.397.05-.765.105-1.147zm3.23.887c.08-.037.065.092 0 .103-.062.017-.06-.073 0-.103z"/></svg>