<svg width="64" height="64" xmlns="http://www.w3.org/2000/svg"><defs><linearGradient id="c" x1="399.57" x2="399.57" y1="545.8" y2="517.8" gradientTransform="translate(-826.37 -1107.5) scale(2.1429)" gradientUnits="userSpaceOnUse"><stop stop-color="#3889e9" offset="0"/><stop stop-color="#5ea5fb" offset="1"/></linearGradient><linearGradient id="b" x1="399.99" x2="399.99" y1="545.14" y2="518.14" gradientTransform="translate(-826.37 -1107.5) scale(2.1429)" gradientUnits="userSpaceOnUse"><stop stop-color="#a4d65c" offset="0"/><stop stop-color="#649e26" offset="1"/></linearGradient><filter id="a" x="-.036" y="-.036" width="1.072" height="1.072" color-interpolation-filters="sRGB"><feGaussianBlur stdDeviation=".42"/></filter></defs><circle transform="translate(-826.37 -1107.5) scale(2.1429)" cx="400.57" cy="531.8" r="14" filter="url(#a)" opacity=".25"/><circle cx="32" cy="32" r="30.001" fill="url(#b)"/><circle cx="32" cy="32" r="30.001" fill="none"/><path d="M28 2v31l2-2 2 2 2-2s2 2 2 1.944V2z" fill="#fff" opacity=".75"/><path d="M25 2.826A30.001 30.001 0 0 0 2 32a30.001 30.001 0 0 0 23 29.172V2.826z" fill="#fff" opacity=".25"/><path d="M16 36a6 6 0 0 0-6 6 6 6 0 0 0 6 6 6 6 0 0 0 6-6 6 6 0 0 0-6-6zm-3 3h2v2h2v-2h2v4h-2v2h-2v-2h-2z" fill="#fff" opacity=".75" style="paint-order:markers stroke fill"/></svg>