<svg width="64" height="64" version="1.1" viewBox="0 0 64 64" xmlns="http://www.w3.org/2000/svg" xmlns:xlink="http://www.w3.org/1999/xlink">
 <defs>
  <filter id="c-5" x="-.036" y="-.036" width="1.072" height="1.072" color-interpolation-filters="sRGB">
   <feGaussianBlur stdDeviation="0.41999874"/>
  </filter>
  <linearGradient id="e-6" x1="399.99" x2="399.99" y1="545.14" y2="518.14" gradientTransform="matrix(2.1429 0 0 2.1429 -826.37 -1107.5)" gradientUnits="userSpaceOnUse">
   <stop stop-color="#a4d65c" offset="0"/>
   <stop stop-color="#649e26" offset="1"/>
  </linearGradient>
  <filter id="filter945" x="-.108" y="-.108" width="1.216" height="1.216" color-interpolation-filters="sRGB">
   <feGaussianBlur stdDeviation="1.26"/>
  </filter>
  <linearGradient id="linearGradient939" x1="46.949" x2="46.949" y1="35.914" y2="59.335" gradientUnits="userSpaceOnUse">
   <stop stop-color="#333333" offset="0"/>
   <stop stop-color="#616161" offset="1"/>
  </linearGradient>
 </defs>
 <linearGradient id="l" x1="22" x2="22" y1="30" y2="8" gradientTransform="matrix(0 -1.6667 -1.6667 0 83.302 83.462)" gradientUnits="userSpaceOnUse">
  <stop stop-color="#cfd2d5" offset="0"/>
  <stop stop-color="#eff0f1" offset="1"/>
 </linearGradient>
 <circle transform="matrix(2.1429 0 0 2.1429 -826.37 -1107.5)" cx="400.57" cy="531.8" r="14" filter="url(#c-5)" opacity=".25" stroke-width=".73333"/>
 <circle cx="32" cy="32" r="30.001" fill="url(#e-6)" stroke-width="1.5715"/>
 <circle cx="32" cy="32" r="30.001" fill-opacity="0" stroke-width="1.5715"/>
 <path d="m28 2v31l2-2 2 2 2-2s2 2 2 1.944v-30.944z" fill="#ffffff" opacity=".75" stroke-opacity=".55" stroke-width="3.734"/>
 <path d="m25 2.8262a30.001 30.001 0 0 0-23 29.174 30.001 30.001 0 0 0 23 29.172z" fill="#ffffff" opacity=".25" stroke-width="1.5715"/>
 <path d="m16 36a6 6 0 0 0-6 6 6 6 0 0 0 6 6 6 6 0 0 0 6-6 6 6 0 0 0-6-6zm-3 3h2v2h2v-2h2v4h-2v2h-2v-2h-2z" fill="#ffffff" opacity=".75" stroke-linecap="round" stroke-linejoin="round" stroke-width="1.8456" style="paint-order:markers stroke fill"/>
 <circle cx="46.635" cy="47.579" r="14" fill="#000000" filter="url(#filter945)" opacity=".35" stroke-linecap="round" stroke-linejoin="round" stroke-width="2.4437" style="paint-order:markers stroke fill"/>
 <circle cx="46.635" cy="46.796" r="14" fill="url(#linearGradient939)" stroke-linecap="round" stroke-linejoin="round" stroke-width="2.4437" style="paint-order:markers stroke fill"/>
 <path d="m56.635 46.796a9.9333 9.9333 0 0 1-1.4067 5.0517l-4.4783-4.4783 1.1967-1.1983 2.7083 2.7083c0.08667-0.325 0.16333-0.65 0.20833-0.99 0.01333-0.08667 0.04333-0.17167 0.05333-0.26 0.02833-0.28 0.05167-0.545 0.05167-0.83333a8.3333 8.3333 0 0 0-8.3333-8.3333c-0.405 0-0.81 0.04667-1.1983 0.105-0.22667 0.03333-0.45667 0.05167-0.67667 0.10333a7.895 7.895 0 0 0-1.355 0.46833c-0.05 0.02333-0.105 0.03-0.155 0.05333-0.15333 0.06667-0.27333 0.18-0.41666 0.26-0.01333 0.0067-0.03833-0.0083-0.05333 0l-1.1967-1.25a9.9333 9.9333 0 0 1 5.0517-1.4067 10 10 0 0 1 10 10zm-4.9483 8.5933a9.9333 9.9333 0 0 1-5.0517 1.4067 10 10 0 0 1-10-10 9.9333 9.9333 0 0 1 1.4067-5.0517l1.25 1.25 3.1767 3.2283-1.1467 1.1467-2.7083-2.6567c-0.08333 0.325-0.16167 0.65-0.20833 0.99-0.01167 0.08667-0.04167 0.17167-0.05 0.26-0.03 0.28-0.05333 0.545-0.05333 0.83333s0.02333 0.55333 0.05167 0.83333c0.02833 0.28 0.05 0.56167 0.105 0.83333a8.3617 8.3617 0 0 0 8.1767 6.6667c0.41333 0 0.8-0.04667 1.1983-0.105 0.22667-0.03333 0.45667-0.05167 0.67667-0.10333 0.47833-0.11167 0.91333-0.27833 1.355-0.46833 0.05-0.02167 0.105-0.03 0.155-0.05333 0.15-0.06667 0.275-0.18 0.41667-0.26h0.05333z" fill="url(#l)" stroke-width="1.6667"/>
</svg>
