<svg xmlns="http://www.w3.org/2000/svg" width="64" height="64"><defs><linearGradient id="b" x1="399.99" x2="399.99" y1="545.14" y2="518.14" gradientTransform="translate(-826.37 -1107.5)scale(2.1429)" gradientUnits="userSpaceOnUse"><stop offset="0" stop-color="#a4d65c"/><stop offset="1" stop-color="#649e26"/></linearGradient><filter id="a" width="1.072" height="1.072" x="-.036" y="-.036" color-interpolation-filters="sRGB"><feGaussianBlur stdDeviation=".42"/></filter></defs><circle cx="400.57" cy="531.8" r="14" filter="url(#a)" opacity=".25" transform="translate(-826.37 -1107.5)scale(2.1429)"/><circle cx="32" cy="32" r="30.001" fill="url(#b)"/><circle cx="32" cy="32" r="30.001" fill="none"/><path fill="#fff" d="M28 2v31l2-2 2 2 2-2s2 2 2 1.944V2z" opacity=".75"/><path fill="#fff" d="M25 2.826A30 30 0 0 0 2 32a30 30 0 0 0 23 29.172z" opacity=".25"/><path fill="#fff" d="M16 36a6 6 0 0 0-6 6 6 6 0 0 0 6 6 6 6 0 0 0 6-6 6 6 0 0 0-6-6m-3 3h2v2h2v-2h2v4h-2v2h-2v-2h-2z" opacity=".75" style="paint-order:markers stroke fill"/></svg>