<svg width="64" height="64" xmlns="http://www.w3.org/2000/svg"><defs><filter id="c" x="-.108" y="-.108" width="1.216" height="1.216" color-interpolation-filters="sRGB"><feGaussianBlur stdDeviation="1.26"/></filter><filter id="a" x="-.036" y="-.036" width="1.072" height="1.072" color-interpolation-filters="sRGB"><feGaussianBlur stdDeviation=".42"/></filter><filter id="e" x="-.075" y="-.075" width="1.15" height="1.15" color-interpolation-filters="sRGB"><feGaussianBlur stdDeviation=".625"/></filter><linearGradient id="d" x1="46.949" x2="46.949" y1="35.914" y2="59.335" gradientUnits="userSpaceOnUse"><stop stop-color="#333" offset="0"/><stop stop-color="#616161" offset="1"/></linearGradient><linearGradient id="b" x1="399.99" x2="399.99" y1="545.14" y2="518.14" gradientTransform="translate(-826.37 -1107.5) scale(2.1429)" gradientUnits="userSpaceOnUse"><stop stop-color="#a4d65c" offset="0"/><stop stop-color="#649e26" offset="1"/></linearGradient></defs><linearGradient id="f" x1="22" x2="22" y1="30" y2="8" gradientTransform="translate(9.968 10.129) scale(1.6667)" gradientUnits="userSpaceOnUse"><stop stop-color="#cfd2d5" offset="0"/><stop stop-color="#eff0f1" offset="1"/></linearGradient><circle transform="translate(-826.37 -1107.5) scale(2.1429)" cx="400.57" cy="531.8" r="14" filter="url(#a)" opacity=".25"/><circle cx="32" cy="32" r="30.001" fill="url(#b)"/><circle cx="32" cy="32" r="30.001" fill="none"/><path d="M28 2v31l2-2 2 2 2-2s2 2 2 1.944V2z" fill="#fff" opacity=".75"/><path d="M25 2.826A30.001 30.001 0 0 0 2 32a30.001 30.001 0 0 0 23 29.172z" fill="#fff" opacity=".25"/><path d="M16 36a6 6 0 0 0-6 6 6 6 0 0 0 6 6 6 6 0 0 0 6-6 6 6 0 0 0-6-6zm-3 3h2v2h2v-2h2v4h-2v2h-2v-2h-2z" fill="#fff" opacity=".75" style="paint-order:markers stroke fill"/><circle cx="46.635" cy="47.579" r="14" filter="url(#c)" opacity=".35" style="paint-order:markers stroke fill"/><circle cx="46.635" cy="46.796" r="14" fill="url(#d)" style="paint-order:markers stroke fill"/><path d="M44.968 37.41v1.837a8.333 8.333 0 0 0-2.923 1.216l-1.302-1.301-2.357 2.356 1.302 1.302a8.333 8.333 0 0 0-1.212 2.923h-1.841v3.334h1.836A8.333 8.333 0 0 0 39.688 52l-1.302 1.302 2.357 2.356 1.302-1.301a8.333 8.333 0 0 0 2.923 1.211v1.842h3.333v-1.837a8.333 8.333 0 0 0 2.924-1.216l1.301 1.301 2.357-2.356L53.581 52a8.333 8.333 0 0 0 1.212-2.923h1.842v-3.334h-1.837a8.333 8.333 0 0 0-1.217-2.923l1.302-1.302-2.357-2.356-1.301 1.301a8.333 8.333 0 0 0-2.924-1.211V37.41zm1.667 3.333a6.667 6.667 0 0 1 4.783 2.022 6.667 6.667 0 0 1 1.883 4.645 6.667 6.667 0 0 1-2.021 4.783 6.667 6.667 0 0 1-4.645 1.884 6.667 6.667 0 0 1-4.784-2.022 6.667 6.667 0 0 1-1.883-4.645 6.667 6.667 0 0 1 2.022-4.783 6.667 6.667 0 0 1 4.645-1.884zm-1.667 3.334v6.666l5-3.333z" filter="url(#e)" opacity=".15"/><path d="M44.968 36.796v1.837a8.333 8.333 0 0 0-2.923 1.216l-1.302-1.301-2.357 2.356 1.302 1.302a8.333 8.333 0 0 0-1.212 2.923h-1.841v3.334h1.836a8.333 8.333 0 0 0 1.217 2.923l-1.302 1.302 2.357 2.356 1.302-1.301a8.333 8.333 0 0 0 2.923 1.211v1.842h3.333V54.96a8.333 8.333 0 0 0 2.924-1.216l1.301 1.301 2.357-2.356-1.302-1.302a8.333 8.333 0 0 0 1.212-2.923h1.842v-3.334h-1.837a8.333 8.333 0 0 0-1.217-2.923l1.302-1.302-2.357-2.356-1.301 1.301a8.333 8.333 0 0 0-2.924-1.211v-1.842zm1.667 3.333a6.667 6.667 0 0 1 4.783 2.022 6.667 6.667 0 0 1 1.883 4.645 6.667 6.667 0 0 1-2.021 4.783 6.667 6.667 0 0 1-4.645 1.884 6.667 6.667 0 0 1-4.784-2.022 6.667 6.667 0 0 1-1.883-4.645 6.667 6.667 0 0 1 2.022-4.783 6.667 6.667 0 0 1 4.645-1.884zm-1.667 3.334v6.666l5-3.333z" fill="url(#f)"/></svg>