<svg width="64" height="64" version="1.1" xmlns="http://www.w3.org/2000/svg" xmlns:xlink="http://www.w3.org/1999/xlink">
 <defs>
  <linearGradient id="linearGradient939" x1="46.949" x2="46.949" y1="35.914" y2="59.335" gradientTransform="translate(4.4119e-6)" gradientUnits="userSpaceOnUse">
   <stop stop-color="#333333" offset="0"/>
   <stop stop-color="#616161" offset="1"/>
  </linearGradient>
  <filter id="filter945" x="-.108" y="-.108" width="1.216" height="1.216" color-interpolation-filters="sRGB">
   <feGaussianBlur stdDeviation="1.26"/>
  </filter>
  <linearGradient id="e-6" x1="399.99" x2="399.99" y1="545.14" y2="518.14" gradientTransform="matrix(2.1429,0,0,2.1429,-826.37,-1107.5)" gradientUnits="userSpaceOnUse">
   <stop stop-color="#a4d65c" offset="0"/>
   <stop stop-color="#649e26" offset="1"/>
  </linearGradient>
  <filter id="c-5" x="-.036" y="-.036" width="1.072" height="1.072" color-interpolation-filters="sRGB">
   <feGaussianBlur stdDeviation="0.41999874"/>
  </filter>
  <filter id="filter944" x="-.075" y="-.075" width="1.15" height="1.15" color-interpolation-filters="sRGB">
   <feGaussianBlur stdDeviation="0.625"/>
  </filter>
 </defs>
 <linearGradient id="i" x1="22" x2="22" y1="30" y2="8" gradientTransform="matrix(1.6667 0 0 1.6667 9.9683 10.129)" gradientUnits="userSpaceOnUse">
  <stop stop-color="#cfd2d5" offset="0"/>
  <stop stop-color="#eff0f1" offset="1"/>
 </linearGradient>
 <circle transform="matrix(2.1429,0,0,2.1429,-826.37,-1107.5)" cx="400.57" cy="531.8" r="14" filter="url(#c-5)" opacity=".25" stroke-width=".73333"/>
 <circle cx="32" cy="32" r="30.001" fill="url(#e-6)" stroke-width="1.5715"/>
 <circle cx="32" cy="32" r="30.001" fill-opacity="0" stroke-width="1.5715"/>
 <path d="m28 2v31l2-2 2 2 2-2s2 2 2 1.944v-30.944z" fill="#ffffff" opacity=".75" stroke-opacity=".55" stroke-width="3.734"/>
 <path d="m25 2.8262a30.001 30.001 0 0 0-23 29.174 30.001 30.001 0 0 0 23 29.172z" fill="#ffffff" opacity=".25" stroke-width="1.5715"/>
 <path d="m16 36a6 6 0 0 0-6 6 6 6 0 0 0 6 6 6 6 0 0 0 6-6 6 6 0 0 0-6-6zm-3 3h2v2h2v-2h2v4h-2v2h-2v-2h-2z" fill="#ffffff" opacity=".75" stroke-linecap="round" stroke-linejoin="round" stroke-width="1.8456" style="paint-order:markers stroke fill"/>
 <circle cx="46.635" cy="47.579" r="14" fill="#000000" filter="url(#filter945)" opacity=".35" stroke-linecap="round" stroke-linejoin="round" stroke-width="2.4437" style="paint-order:markers stroke fill"/>
 <circle cx="46.635" cy="46.796" r="14" fill="url(#linearGradient939)" stroke-linecap="round" stroke-linejoin="round" stroke-width="2.4437" style="paint-order:markers stroke fill"/>
 <path d="m44.968 37.41v1.8367a8.3333 8.3333 0 0 0-2.9233 1.2167l-1.3017-1.3017-2.3567 2.3567 1.3017 1.3017a8.3333 8.3333 0 0 0-1.2117 2.9233h-1.8417v3.3333h1.8367a8.3333 8.3333 0 0 0 1.2167 2.9233l-1.3017 1.3017 2.3567 2.3567 1.3017-1.3017a8.3333 8.3333 0 0 0 2.9233 1.2117v1.8417h3.3333v-1.8367a8.3333 8.3333 0 0 0 2.9233-1.2167l1.3017 1.3017 2.3567-2.3567-1.3017-1.3017a8.3333 8.3333 0 0 0 1.2117-2.9233h1.8417v-3.3333h-1.8367a8.3333 8.3333 0 0 0-1.2167-2.9233l1.3017-1.3017-2.3567-2.3567-1.3017 1.3017a8.3333 8.3333 0 0 0-2.9233-1.2117v-1.8417zm1.6667 3.3333a6.6667 6.6667 0 0 1 4.7833 2.0217 6.6667 6.6667 0 0 1 1.8833 4.645 6.6667 6.6667 0 0 1-2.0217 4.7833 6.6667 6.6667 0 0 1-4.645 1.8833 6.6667 6.6667 0 0 1-4.7833-2.0217 6.6667 6.6667 0 0 1-1.8833-4.645 6.6667 6.6667 0 0 1 2.0217-4.7833 6.6667 6.6667 0 0 1 4.645-1.8833zm-1.6667 3.3333v6.6667l5-3.3333z" fill="#000000" filter="url(#filter944)" opacity=".15" stroke-width="1.6667"/>
 <path d="m44.968 36.796v1.8367a8.3333 8.3333 0 0 0-2.9233 1.2167l-1.3017-1.3017-2.3567 2.3567 1.3017 1.3017a8.3333 8.3333 0 0 0-1.2117 2.9233h-1.8417v3.3333h1.8367a8.3333 8.3333 0 0 0 1.2167 2.9233l-1.3017 1.3017 2.3567 2.3567 1.3017-1.3017a8.3333 8.3333 0 0 0 2.9233 1.2117v1.8417h3.3333v-1.8367a8.3333 8.3333 0 0 0 2.9233-1.2167l1.3017 1.3017 2.3567-2.3567-1.3017-1.3017a8.3333 8.3333 0 0 0 1.2117-2.9233h1.8417v-3.3333h-1.8367a8.3333 8.3333 0 0 0-1.2167-2.9233l1.3017-1.3017-2.3567-2.3567-1.3017 1.3017a8.3333 8.3333 0 0 0-2.9233-1.2117v-1.8417zm1.6667 3.3333a6.6667 6.6667 0 0 1 4.7833 2.0217 6.6667 6.6667 0 0 1 1.8833 4.645 6.6667 6.6667 0 0 1-2.0217 4.7833 6.6667 6.6667 0 0 1-4.645 1.8833 6.6667 6.6667 0 0 1-4.7833-2.0217 6.6667 6.6667 0 0 1-1.8833-4.645 6.6667 6.6667 0 0 1 2.0217-4.7833 6.6667 6.6667 0 0 1 4.645-1.8833zm-1.6667 3.3333v6.6667l5-3.3333z" fill="url(#i)" stroke-width="1.6667"/>
</svg>
