<svg xmlns="http://www.w3.org/2000/svg" width="64" height="64"><defs><linearGradient id="e" x1="11.993" x2="11.993" y1="15.289" y2="8.384" gradientTransform="translate(0 1)scale(3.7796)" gradientUnits="userSpaceOnUse"><stop offset="0" stop-color="#2e2e2e"/><stop offset="1" stop-color="#5c5c5c"/></linearGradient><linearGradient id="g" x1="2331.3" x2="2331.3" y1="435.51" y2="45.726" gradientTransform="translate(-134.88 27.286)scale(.07774)" gradientUnits="userSpaceOnUse"><stop offset=".058" stop-color="#807c76"/><stop offset=".385" stop-color="#d4d7d0"/><stop offset=".558" stop-color="#bdbfba"/><stop offset=".635" stop-color="#acb3ac"/><stop offset=".75" stop-color="#dadfda"/><stop offset=".863" stop-color="#c2c7c1"/><stop offset=".941" stop-color="#7f7a75"/></linearGradient><linearGradient id="b" x1="7.937" x2="7.937" y1="15.081" y2="1.852" gradientTransform="translate(-2.286 -2.252)scale(4.0494)" gradientUnits="userSpaceOnUse"><stop offset="0" stop-color="#1fe0aa"/><stop offset="1" stop-color="#b2ff85"/></linearGradient><filter id="f" width="1.216" height="1.216" x="-.108" y="-.108" color-interpolation-filters="sRGB"><feGaussianBlur stdDeviation="1.08"/></filter><filter id="c" width="1.352" height="1.252" x="-.176" y="-.126" color-interpolation-filters="sRGB"><feGaussianBlur stdDeviation="1.681"/></filter><filter id="a" width="1.078" height="1.078" x="-.039" y="-.039" color-interpolation-filters="sRGB"><feGaussianBlur stdDeviation=".972"/></filter><radialGradient id="d" cx="12.171" cy="12.171" r="4.762" gradientTransform="scale(3.7796)" gradientUnits="userSpaceOnUse"><stop offset="0"/><stop offset="1" stop-opacity="0"/></radialGradient></defs><rect width="60" height="60" x="2" y="2" filter="url(#a)" opacity=".35" rx="30" ry="30"/><rect width="60" height="60" x="2" y="2" fill="url(#b)" rx="30" ry="30"/><rect width="64" height="64" fill="none" rx="0" ry="0" style="paint-order:stroke fill markers"/><circle cx="32.02" cy="32.044" r="30.001" fill="none"/><g fill="#fff" stroke-linecap="square" stroke-width="7.587" aria-label="y"><path fill="#000" d="M25.149 49.722h6.282l3.55-9.878 8.467-22.122h-5.781l-5.508 16.751-5.19-16.75h-6.417l8.603 22.121z" filter="url(#c)" opacity=".15"/><path d="M25.149 48h6.282l3.55-9.878L43.448 16h-5.781l-5.508 16.751-5.19-16.75h-6.417l8.603 22.121z"/></g><circle cx="46.002" cy="46.002" r="18" fill="url(#d)"/><circle cx="46.002" cy="46.002" r="16" fill="url(#e)"/><path d="m52.527 36.694-.501 1.34a.24.24 0 0 0 .074.26l.59.452a.25.25 0 0 0 .272.004l1.163-.83a.21.21 0 0 1 .259.022l.487.487a.206.206 0 0 1 .022.258l-.83 1.163a.24.24 0 0 0 .004.272l.453.59a.25.25 0 0 0 .26.074l1.339-.501a.206.206 0 0 1 .243.088l.345.596a.205.205 0 0 1-.046.255l-1.104.909a.24.24 0 0 0-.066.264l.283.686c.035.084.14.149.234.14l1.423-.138a.21.21 0 0 1 .213.147l.178.666a.205.205 0 0 1-.11.234l-1.302.592a.24.24 0 0 0-.132.238l.097.736c.011.09.097.18.19.196l1.41.234a.21.21 0 0 1 .167.198v.689a.205.205 0 0 1-.167.197l-1.409.235a.24.24 0 0 0-.189.195l-.096.737a.25.25 0 0 0 .132.238l1.3.592a.21.21 0 0 1 .11.234l-.178.665a.206.206 0 0 1-.213.148l-1.422-.138a.24.24 0 0 0-.233.14l-.285.687a.24.24 0 0 0 .066.263l1.104.909c.072.06.093.173.045.255l-.344.596a.206.206 0 0 1-.244.088l-1.34-.501a.24.24 0 0 0-.26.074l-.452.59a.25.25 0 0 0-.004.273l.83 1.163a.21.21 0 0 1-.022.258l-.487.487a.206.206 0 0 1-.258.022l-1.163-.83a.24.24 0 0 0-.272.004l-.59.453a.25.25 0 0 0-.075.261l.502 1.338a.206.206 0 0 1-.088.243l-.596.345a.205.205 0 0 1-.255-.046l-.91-1.104a.24.24 0 0 0-.263-.066l-.686.284a.25.25 0 0 0-.14.233l.138 1.423a.21.21 0 0 1-.147.214l-.666.178a.205.205 0 0 1-.234-.11l-.592-1.303a.24.24 0 0 0-.238-.132l-.736.097a.25.25 0 0 0-.196.19l-.234 1.41a.21.21 0 0 1-.198.167h-.689a.205.205 0 0 1-.197-.167l-.235-1.409a.24.24 0 0 0-.195-.189l-.737-.096a.25.25 0 0 0-.238.132l-.592 1.3a.21.21 0 0 1-.234.11l-.665-.178a.206.206 0 0 1-.148-.213l.138-1.422a.24.24 0 0 0-.14-.233l-.687-.285a.24.24 0 0 0-.263.066l-.91 1.104a.21.21 0 0 1-.254.046l-.596-.345a.206.206 0 0 1-.088-.244l.501-1.34a.24.24 0 0 0-.074-.26l-.59-.452a.25.25 0 0 0-.273-.004l-1.163.83a.21.21 0 0 1-.258-.021l-.487-.488a.206.206 0 0 1-.022-.258l.83-1.162a.24.24 0 0 0-.004-.272l-.453-.59a.25.25 0 0 0-.261-.075l-1.338.501a.206.206 0 0 1-.244-.088l-.344-.596a.205.205 0 0 1 .046-.255l1.104-.909a.24.24 0 0 0 .066-.263l-.284-.687a.25.25 0 0 0-.233-.14l-1.423.139a.21.21 0 0 1-.213-.148l-.179-.666a.205.205 0 0 1 .11-.234l1.303-.592a.24.24 0 0 0 .132-.238l-.097-.736a.25.25 0 0 0-.19-.195l-1.41-.235a.21.21 0 0 1-.167-.197v-.69c0-.095.075-.182.167-.197l1.409-.235a.24.24 0 0 0 .189-.195l.096-.737a.25.25 0 0 0-.132-.238l-1.3-.591a.21.21 0 0 1-.11-.234l.178-.666a.206.206 0 0 1 .213-.148l1.422.138a.24.24 0 0 0 .233-.14l.285-.686a.24.24 0 0 0-.066-.264l-1.104-.909a.21.21 0 0 1-.046-.255l.345-.596a.206.206 0 0 1 .244-.088l1.34.502a.24.24 0 0 0 .26-.075l.452-.59a.25.25 0 0 0 .004-.272l-.83-1.163a.21.21 0 0 1 .022-.258l.487-.488a.206.206 0 0 1 .258-.022l1.162.83a.24.24 0 0 0 .273-.004l.59-.453a.25.25 0 0 0 .074-.26l-.501-1.339a.206.206 0 0 1 .088-.243l.596-.345a.205.205 0 0 1 .255.046l.909 1.104a.24.24 0 0 0 .263.066l.687-.283a.25.25 0 0 0 .14-.234l-.139-1.423a.21.21 0 0 1 .148-.213l.666-.178a.205.205 0 0 1 .234.11l.592 1.302a.24.24 0 0 0 .238.133l.736-.098a.25.25 0 0 0 .195-.19l.235-1.41a.21.21 0 0 1 .198-.167h.688c.096 0 .183.075.198.167l.235 1.41a.24.24 0 0 0 .195.188l.737.096a.25.25 0 0 0 .238-.132l.591-1.3a.21.21 0 0 1 .234-.11l.666.178c.092.025.157.12.148.213l-.138 1.422a.24.24 0 0 0 .14.233l.686.286a.24.24 0 0 0 .264-.067l.909-1.104a.21.21 0 0 1 .255-.045l.596.344c.083.048.12.156.088.244m-2.283 2.854a8.2 8.2 0 0 0-6.135-.85c-.386.097-.16.044-.16.044-.537.183-.752.738-.48 1.232 0 0-.157-.285.012.022l2.413 4.403c.364.663 1.273 1.19 2.03 1.174l5.35-.112c.33-.007 0 0 0 0 .548-.011.905-.473.785-.99a8.2 8.2 0 0 0-3.814-4.923zm-.134 14.318a8.2 8.2 0 0 0 3.889-4.822c.115-.381.044-.16.044-.16.12-.555-.245-1.024-.809-1.046l-.025-.001-5.016-.2c-.756-.03-1.675.479-2.052 1.137l-2.66 4.642c-.164.288 0 0 0 0-.272.476-.06 1.02.445 1.184 0 0-.319-.089 0 0a8.2 8.2 0 0 0 6.184-.734m-9.733-1.31c.394.355.972.267 1.248-.208 0 0-.166.287 0 0l2.69-4.624c.38-.655.362-1.705-.042-2.345l-2.68-4.245c-.188-.296-.014-.021-.014-.021-.3-.477-.89-.558-1.31-.177 0 0 .156-.172-.117.119a8.2 8.2 0 0 0-2.23 5.778 8.2 8.2 0 0 0 2.456 5.722z" class="shp86" filter="url(#f)" opacity=".5"/><path fill="url(#g)" d="m52.527 36.023-.501 1.34a.24.24 0 0 0 .074.26l.59.452a.25.25 0 0 0 .272.004l1.163-.83a.21.21 0 0 1 .259.022l.487.487a.206.206 0 0 1 .022.258l-.83 1.163a.24.24 0 0 0 .004.272l.453.59a.25.25 0 0 0 .26.074l1.339-.501a.206.206 0 0 1 .243.088l.345.596a.205.205 0 0 1-.046.255l-1.104.909a.24.24 0 0 0-.066.264l.283.686c.035.084.14.149.234.14l1.423-.138a.21.21 0 0 1 .213.147l.178.666a.205.205 0 0 1-.11.234l-1.302.592a.24.24 0 0 0-.132.238l.097.736c.011.09.097.18.19.196l1.41.234a.21.21 0 0 1 .167.198v.689a.205.205 0 0 1-.167.197l-1.409.235a.24.24 0 0 0-.189.195l-.096.737a.25.25 0 0 0 .132.238l1.3.592a.21.21 0 0 1 .11.234l-.178.665a.206.206 0 0 1-.213.148l-1.422-.138a.24.24 0 0 0-.233.14l-.285.687a.24.24 0 0 0 .066.263l1.104.909c.072.06.093.173.045.255l-.344.596a.206.206 0 0 1-.244.088l-1.34-.501a.24.24 0 0 0-.26.074l-.452.59a.25.25 0 0 0-.004.273l.83 1.163a.21.21 0 0 1-.022.258l-.487.487a.206.206 0 0 1-.258.022l-1.163-.83a.24.24 0 0 0-.272.004l-.59.453a.25.25 0 0 0-.075.261l.502 1.338a.206.206 0 0 1-.088.243l-.596.345a.205.205 0 0 1-.255-.046l-.91-1.104a.24.24 0 0 0-.263-.066l-.686.284a.25.25 0 0 0-.14.233l.138 1.423a.21.21 0 0 1-.147.214l-.666.178a.205.205 0 0 1-.234-.11l-.592-1.303a.24.24 0 0 0-.238-.132l-.736.097a.25.25 0 0 0-.196.19l-.234 1.41a.21.21 0 0 1-.198.167h-.689a.205.205 0 0 1-.197-.167l-.235-1.409a.24.24 0 0 0-.195-.189l-.737-.096a.25.25 0 0 0-.238.132l-.592 1.3a.21.21 0 0 1-.234.11l-.665-.178a.206.206 0 0 1-.148-.213l.138-1.422a.24.24 0 0 0-.14-.233l-.687-.285a.24.24 0 0 0-.263.066l-.91 1.104a.21.21 0 0 1-.254.046l-.596-.345a.206.206 0 0 1-.088-.244l.501-1.34a.24.24 0 0 0-.074-.26l-.59-.452a.25.25 0 0 0-.273-.004l-1.163.83a.21.21 0 0 1-.258-.021l-.487-.488a.206.206 0 0 1-.022-.258l.83-1.162a.24.24 0 0 0-.004-.272l-.453-.59a.25.25 0 0 0-.261-.075l-1.338.501a.206.206 0 0 1-.244-.088l-.344-.596a.205.205 0 0 1 .046-.255l1.104-.909a.24.24 0 0 0 .066-.263l-.284-.687a.25.25 0 0 0-.233-.14l-1.423.139a.21.21 0 0 1-.213-.148l-.179-.666a.205.205 0 0 1 .11-.234l1.303-.592a.24.24 0 0 0 .132-.238l-.097-.736a.25.25 0 0 0-.19-.195l-1.41-.235a.21.21 0 0 1-.167-.197v-.69c0-.095.075-.182.167-.197l1.409-.235a.24.24 0 0 0 .189-.195l.096-.737a.25.25 0 0 0-.132-.238l-1.3-.591a.21.21 0 0 1-.11-.234l.178-.666a.206.206 0 0 1 .213-.148l1.422.138a.24.24 0 0 0 .233-.14l.285-.686a.24.24 0 0 0-.066-.264l-1.104-.909a.21.21 0 0 1-.046-.255l.345-.596a.206.206 0 0 1 .244-.088l1.34.502a.24.24 0 0 0 .26-.075l.452-.59a.25.25 0 0 0 .004-.272l-.83-1.163a.21.21 0 0 1 .022-.258l.487-.488a.206.206 0 0 1 .258-.022l1.162.83a.24.24 0 0 0 .273-.004l.59-.453a.25.25 0 0 0 .074-.26l-.501-1.339a.206.206 0 0 1 .088-.243l.596-.345a.205.205 0 0 1 .255.046l.909 1.104a.24.24 0 0 0 .263.066l.687-.283a.25.25 0 0 0 .14-.234l-.139-1.423a.21.21 0 0 1 .148-.213l.666-.178a.205.205 0 0 1 .234.11l.592 1.302a.24.24 0 0 0 .238.133l.736-.098a.25.25 0 0 0 .195-.19l.235-1.41a.21.21 0 0 1 .198-.167h.688c.096 0 .183.075.198.167l.235 1.41a.24.24 0 0 0 .195.188l.737.096a.25.25 0 0 0 .238-.132l.591-1.3a.21.21 0 0 1 .234-.11l.666.178c.092.025.157.12.148.213l-.138 1.422a.24.24 0 0 0 .14.233l.686.286a.24.24 0 0 0 .264-.067l.909-1.104a.21.21 0 0 1 .255-.045l.596.344c.083.048.12.156.088.244m-2.283 2.854a8.2 8.2 0 0 0-6.135-.85c-.386.097-.16.044-.16.044-.537.183-.752.738-.48 1.232 0 0-.157-.285.012.022l2.413 4.403c.364.663 1.273 1.19 2.03 1.174l5.35-.112c.33-.007 0 0 0 0 .548-.011.905-.473.785-.99a8.2 8.2 0 0 0-3.814-4.923zm-.134 14.318a8.2 8.2 0 0 0 3.889-4.822c.115-.381.044-.16.044-.16.12-.555-.245-1.024-.809-1.046l-.025-.001-5.016-.2c-.756-.03-1.675.479-2.052 1.137l-2.66 4.642c-.164.288 0 0 0 0-.272.476-.06 1.02.445 1.184 0 0-.319-.089 0 0a8.2 8.2 0 0 0 6.184-.734m-9.733-1.31c.394.355.972.267 1.248-.208 0 0-.166.287 0 0l2.69-4.624c.38-.655.362-1.705-.042-2.345l-2.68-4.245c-.188-.296-.014-.021-.014-.021-.3-.477-.89-.558-1.31-.177 0 0 .156-.172-.117.119a8.2 8.2 0 0 0-2.23 5.778 8.2 8.2 0 0 0 2.456 5.722z" class="shp86"/></svg>