<svg xmlns="http://www.w3.org/2000/svg" width="64" height="64"><defs><linearGradient id="f" x1="20.336" x2="20.336" y1="43.964" y2="12" gradientUnits="userSpaceOnUse"><stop offset="0" stop-color="#0bb0da"/><stop offset="1" stop-color="#2bccf6"/></linearGradient><linearGradient id="d" x1="42.426" x2="42.426" y1="52" y2="20" gradientUnits="userSpaceOnUse"><stop offset="0" stop-color="#ff210a"/><stop offset="1" stop-color="#ff5f4c"/></linearGradient><linearGradient id="b" x1="33.27" x2="33.27" y1="5.514" y2="62.082" gradientTransform="translate(-3.288 -3.848)scale(1.0607)" gradientUnits="userSpaceOnUse"><stop offset="0" stop-color="#eee"/><stop offset="1" stop-color="#fbfbf5"/></linearGradient><filter id="c" width="1.202" height="1.126" x="-.101" y="-.063" color-interpolation-filters="sRGB"><feGaussianBlur stdDeviation=".84"/></filter><filter id="e" width="1.202" height="1.126" x="-.101" y="-.063" color-interpolation-filters="sRGB"><feGaussianBlur stdDeviation=".84"/></filter><filter id="a" width="1.072" height="1.072" x="-.036" y="-.036" color-interpolation-filters="sRGB"><feGaussianBlur stdDeviation="14.17"/></filter></defs><path d="M970.43 391.52a515 515 0 0 0-3.653-13.61c-1-3.403-2.001-6.855-3.152-10.508a422 422 0 0 0-5.304-15.862c-6.455-18.263-14.16-36.076-23.167-53.689a475 475 0 0 0-12.309-22.416c-20.315-34.525-45.833-67.249-76.406-97.821-72.653-72.653-157.26-116.74-253.84-132.15a484 484 0 0 0-50.087-5.354c-9.707-.55-19.865-.85-30.122-.85-9.357 0-18.614.25-27.92.75-118.44 6.105-220.46 51.988-306.07 137.6Q40.05 315.96 40.05 511.6c0 130.45 46.134 241.83 138.35 334.04 56.741 56.691 120.64 95.97 191.24 117.64 36.777 11.258 74.855 17.863 114.83 19.965h.4c8.507.45 16.612.7 24.518.7h3.003a583 583 0 0 0 30.122-.8c2.501-.15 4.753-.3 6.955-.45 20.215-1.451 39.929-4.053 58.743-7.706a520 520 0 0 0 23.417-5.154c80.859-20.315 152.26-61.645 214.81-124.19 48.636-48.636 84.462-102.57 107.43-161.92 18.463-47.685 28.67-98.872 30.572-153.61.2-6.054.3-12.259.3-18.514V508.6c-.2-40.68-4.954-79.558-14.31-117.09z" filter="url(#a)" opacity=".25" transform="translate(-.544 -.493)scale(.06351)"/><circle cx="32" cy="32" r="30" fill="url(#b)" fill-rule="evenodd" style="paint-order:normal"/><path d="M38 21a16 16 0 0 1 16 16 16 16 0 0 1-16 16h-4V21zm0 4v24a12 12 0 0 0 12-12 12 12 0 0 0-12-12" filter="url(#c)" opacity=".1"/><path fill="url(#d)" d="M38 20a16 16 0 0 1 16 16 16 16 0 0 1-16 16h-4V20zm0 4v24a12 12 0 0 0 12-12 12 12 0 0 0-12-12"/><path d="M26 13a16 16 0 0 0-16 16 16 16 0 0 0 16 16h4V13zm0 4v24a12 12 0 0 1-12-12 12 12 0 0 1 12-12" filter="url(#e)" opacity=".1"/><path fill="url(#f)" d="M26 12a16 16 0 0 0-16 16 16 16 0 0 0 16 16h4V12zm0 4v24a12 12 0 0 1-12-12 12 12 0 0 1 12-12"/></svg>