<svg xmlns="http://www.w3.org/2000/svg" width="64" height="64" enable-background="new 0 0 1024 1024" image-rendering="optimizeSpeed"><defs><filter id="a" width="1.072" height="1.072" x="-.036" y="-.036" color-interpolation-filters="sRGB"><feGaussianBlur stdDeviation="14.16"/></filter><filter id="c" width="1.099" height="1.151" x="-.05" y="-.076" color-interpolation-filters="sRGB"><feGaussianBlur stdDeviation=".664"/></filter><linearGradient id="b" x1="19.751" x2="18.792" y1="2.925" y2="58.151" gradientTransform="translate(11.135 -1.478)scale(1.0827)" gradientUnits="userSpaceOnUse"><stop offset="0" stop-color="#ff4949"/><stop offset="1" stop-color="#ff4c83"/></linearGradient></defs><path d="M966.1 378.45c-2.5-8.75-5.35-17.6-8.45-26.35-6.45-18.25-14.15-36.05-23.15-53.65-3.8-7.4-7.95-14.95-12.3-22.4-20.3-34.5-45.8-67.2-76.35-97.75C773.25 105.7 688.7 61.65 592.2 46.25c-16.25-2.6-32.8-4.4-50.05-5.35-9.7-.55-19.85-.85-30.1-.85-9.35 0-18.6.25-27.9.75-118.35 6.1-220.3 51.95-305.85 137.5Q40.05 316.55 40.05 512.05c0 130.35 46.1 241.65 138.25 333.8 85.55 85.5 187.5 131.35 305.85 137.5h.4c8.5.45 16.6.7 24.5.7h8.45c8.55-.1 16.8-.4 24.65-.8 2.5-.15 4.75-.3 6.95-.45 20.2-1.45 39.9-4.05 58.7-7.7 7.95-1.55 15.8-3.3 23.4-5.15 80.8-20.3 152.15-61.6 214.65-124.1 48.6-48.6 84.4-102.5 107.35-161.8 16.6-42.9 26.55-88.65 29.75-137.45.35-5.2.6-10.6.8-16.05.2-6.05.3-12.25.3-18.5v-3c-.2-40.65-4.95-79.5-14.3-117-1.1-4.35-2.35-9-3.65-13.6" filter="url(#a)" opacity=".25" transform="translate(-.546 -.546)scale(.06356)"/><circle cx="32" cy="32" r="30" fill="url(#b)" style="paint-order:stroke markers fill"/><path d="M34.797 21.455c-4.105 0-6.752.071-8.448.316-.85.123-1.469.298-1.948.57-.502.284-.858.77-.858 1.344 0 .374.18.65.475.807.211.112.425.133.614.126.367-.013.757-.128 1.196-.3.05-.02.386-.101.828-.175s1.01-.151 1.656-.221a73 73 0 0 1 4.523-.332l3.971-.174-.782.743c-1.2 1.124-5.151 4.145-9.046 6.99a257 257 0 0 1-5.49 3.923c-1.608 1.11-2.921 1.957-3.449 2.23-.683.346-1.36.705-2.039 1.06.112.39.194.823.276 1.17.848.038 1.697.055 2.546.08.501.013 1.94.176 3.71.442 1.77.267 3.913.625 5.996 1.012 4.42.823 7.743 1.309 10.242 1.44 2.496.13 4.194-.054 5.397-.696.904-.482 1.773-1.443 2.499-2.467.722-1.023 1.336-2.073 1.334-3.067a1 1 0 0 0-.108-.443.73.73 0 0 0-.276-.285.7.7 0 0 0-.383-.127.9.9 0 0 0-.475.127c-.466.344-.743.913-1.013 1.28-.695 1.178-1.352 1.817-2.484 2.247-1.126.427-2.79.601-5.335.601-2.257 0-5.768-.317-8.786-.728-1.508-.204-2.899-.43-3.94-.648h-.015c-.49-.103-.957-.212-1.252-.3.348-.385 1.07-.976 2.05-1.788 6.908-5.428 12.704-9.73 19.67-14.758H34.798z" color="#000" filter="url(#c)" opacity=".25"/><path fill="#f1f2f2" d="M34.797 21.455c-4.105 0-6.752.071-8.448.316-.85.123-1.469.298-1.948.57-.502.284-.858.77-.858 1.344 0 .374.18.65.475.807.211.112.425.133.614.126.367-.013.757-.128 1.196-.3.05-.02.386-.101.828-.175s1.01-.151 1.656-.221a73 73 0 0 1 4.523-.332l3.971-.174-.782.743c-1.2 1.124-5.151 4.145-9.046 6.99a257 257 0 0 1-5.49 3.923c-1.608 1.11-2.921 1.957-3.449 2.23-.683.346-1.36.705-2.039 1.06.112.39.194.823.276 1.17.848.038 1.697.055 2.546.08.501.013 1.94.176 3.71.442 1.77.267 3.913.625 5.996 1.012 4.42.823 7.743 1.309 10.242 1.44 2.496.13 4.194-.054 5.397-.696.904-.482 1.773-1.443 2.499-2.467.722-1.023 1.336-2.073 1.334-3.067a1 1 0 0 0-.108-.443.73.73 0 0 0-.276-.285.7.7 0 0 0-.383-.127.9.9 0 0 0-.475.127c-.466.344-.743.913-1.013 1.28-.695 1.178-1.352 1.817-2.484 2.247-1.126.427-2.79.601-5.335.601-2.257 0-5.768-.317-8.786-.728-1.508-.204-2.899-.43-3.94-.648h-.015c-.49-.103-.957-.212-1.252-.3.348-.385 1.07-.976 2.05-1.788 6.908-5.428 12.704-9.73 19.67-14.758H34.798z" color="#000"/></svg>