<svg width="64" height="64" version="1.1" xmlns="http://www.w3.org/2000/svg">
 <defs>
  <filter id="g" x="-.029686" y="-.029686" width="1.0594" height="1.0594" color-interpolation-filters="sRGB">
   <feGaussianBlur stdDeviation=".298"/>
  </filter>
  <filter id="f" x="-.013864" y="-.013864" width="1.0277" height="1.0277" color-interpolation-filters="sRGB">
   <feGaussianBlur stdDeviation=".298"/>
  </filter>
  <linearGradient id="e" x1="519.2" x2="519.2" y1="945.94" y2="51.342" gradientTransform="matrix(.06358 0 0 .06358 -.559 -.581)" gradientUnits="userSpaceOnUse">
   <stop stop-color="#cbb0fe" offset="0"/>
   <stop stop-color="#975dfe" offset="1"/>
  </linearGradient>
  <filter id="d" x="-.036" y="-.036" width="1.072" height="1.072" color-interpolation-filters="sRGB">
   <feGaussianBlur stdDeviation=".42"/>
  </filter>
 </defs>
 <circle transform="matrix(2.1429,0,0,2.1429,-826.34,-1107.5)" cx="400.57" cy="531.8" r="14" filter="url(#d)" opacity=".25"/>
 <circle cx="32.017" cy="31.998" r="30" fill="none"/>
 <path d="m50.246 8.118q-3.86-2.972-8.444-4.555-4.737-1.638-9.802-1.638c-16.569 0-30.003 13.431-30.003 30 0 15.158 11.245 27.683 25.845 29.71 0.713 0.098 1.434 0.174 2.159 0.219 0.661 0.04 1.326 0.07 2 0.07 16.567 0 29.997-13.432 29.997-29.999 0-1.31-0.083-2.603-0.245-3.865a30 30 0 0 0-0.884-4.305q-1.329-4.689-4.082-8.726-2.721-3.977-6.54-6.911z" fill="url(#e)"/>
 <path d="m10.787 10.787a29.934 29.934 0 0 0 0 42.426c0.119 0.119 0.242 0.23 0.362 0.345-11.4-11.775-11.288-30.43 0.345-42.065s30.29-11.743 42.066-0.345c-0.116-0.12-0.227-0.243-0.345-0.362a29.934 29.934 0 0 0-42.426 0z" fill="#ffffff" filter="url(#f)" opacity=".15"/>
 <path d="m37.435 61.526c5.772-1.063 11.297-3.831 15.779-8.313s7.25-10.007 8.313-15.779c-1.592 5.434-4.606 10.657-9.02 15.072s-9.639 7.428-15.072 9.02" fill="#ffffff" filter="url(#g)" opacity=".15"/>
 <path d="M47.054 43.298c-.035 2.059-1.761 3.69-3.825 3.69H27.716a.844.844 0 0 1-.781-1.168l.005-.012a14.027 13.994 0 0 1 4.788-6.043c.264-.188.581-.286.904-.286h10.659a3.764 3.755 0 0 1 3.763 3.82zM36.285 16.953a.844.844 0 0 1 .782 1.167l-.005.013a14.027 13.994 0 0 1-4.789 6.043c-.263.188-.58.285-.904.285H20.773c-2.064 0-3.79-1.631-3.825-3.69a3.764 3.755 0 0 1 3.763-3.819zM20.71 46.989a3.763 3.754 0 0 1-3.475-5.193 24.535 24.477 0 0 1 5.211-7.85 24.47 24.413 0 0 1 8.115-5.444 16.97 16.97 0 0 0 9.252-9.23 3.764 3.755 0 0 1 6.954 2.872 24.535 24.477 0 0 1-5.211 7.85 24.47 24.413 0 0 1-8.115 5.445 16.97 16.97 0 0 0-9.253 9.23 3.764 3.755 0 0 1-3.478 2.32" fill="#fff" stroke-width="0"/>
</svg>
