<svg width="64" height="64" version="1.1" xmlns="http://www.w3.org/2000/svg">
 <defs>
  <filter id="a" x="-.036" y="-.036" width="1.072" height="1.072" color-interpolation-filters="sRGB">
   <feGaussianBlur stdDeviation=".42"/>
  </filter>
  <filter id="c" x="-.084826" y="-.14844" width="1.1697" height="1.2969" color-interpolation-filters="sRGB">
   <feGaussianBlur stdDeviation="1.237"/>
  </filter>
  <linearGradient id="b" x1="399.99" x2="399.99" y1="545.14" y2="518.14" gradientTransform="translate(-826.36 -1107.5)scale(2.1429)" gradientUnits="userSpaceOnUse">
   <stop stop-color="#6abaf6" offset="0"/>
   <stop stop-color="#2770dd" offset="1"/>
  </linearGradient>
  <filter id="e" x="-.013864" y="-.013864" width="1.0277" height="1.0277" color-interpolation-filters="sRGB">
   <feGaussianBlur stdDeviation=".298"/>
  </filter>
  <filter id="f" x="-.029686" y="-.029686" width="1.0594" height="1.0594" color-interpolation-filters="sRGB">
   <feGaussianBlur stdDeviation=".298"/>
  </filter>
 </defs>
 <circle transform="translate(-826.37 -1107.5)scale(2.1429)" cx="400.57" cy="531.8" r="14" filter="url(#a)" opacity=".25"/>
 <g transform="translate(-.02 -.044)" stroke-width="1.571">
  <circle cx="32.02" cy="32.044" r="30.001" fill="url(#b)"/>
  <circle cx="32.02" cy="32.044" r="30.001" fill="none"/>
 </g>
 <path d="M17.166 23A2.15 2.15 0 0 0 15 25.143v12.143C15 40.45 17.576 43 20.777 43h18.057A2.15 2.15 0 0 0 41 40.858V28.715C41 25.549 38.424 23 35.223 23H20.778zm31.564.004c-.425-.032-.908.176-1.37.635-1.62 1.614-3.519 2.976-4.847 4.906-.547.794-.51 1.846-.513 2.836-.003.543.002 1.083 0 1.619.002.536-.003 1.076 0 1.619.004.99-.034 2.041.513 2.836 1.328 1.93 3.228 3.292 4.848 4.906.46.46.944.666 1.369.635.708-.053 1.252-.771 1.252-2.104 0-2.608.038-5.248 0-7.892.038-2.645 0-5.284 0-7.893 0-1.332-.544-2.051-1.252-2.103" filter="url(#c)" opacity=".15"/>
 <path d="M17.166 22A2.15 2.15 0 0 0 15 24.143v12.143C15 39.45 17.576 42 20.777 42h18.057A2.15 2.15 0 0 0 41 39.858V27.715C41 24.549 38.424 22 35.223 22H20.778zm31.564.004c-.425-.032-.908.176-1.37.635-1.62 1.614-3.519 2.976-4.847 4.906-.547.794-.51 1.846-.513 2.836-.003.543.002 1.083 0 1.619.002.536-.003 1.076 0 1.619.004.99-.034 2.041.513 2.836 1.328 1.93 3.228 3.292 4.848 4.906.46.46.944.666 1.369.635.708-.053 1.252-.771 1.252-2.104 0-2.608.038-5.248 0-7.892.038-2.645 0-5.284 0-7.893 0-1.332-.544-2.051-1.252-2.103" fill="#fff"/>
 <path d="m10.787 10.787a29.934 29.934 0 0 0 0 42.426c0.119 0.119 0.242 0.23 0.362 0.345-11.4-11.775-11.288-30.43 0.345-42.065s30.29-11.743 42.066-0.345c-0.116-0.12-0.227-0.243-0.345-0.362a29.934 29.934 0 0 0-42.426 0z" fill="#ffffff" filter="url(#e)" opacity=".45"/>
 <path d="m37.435 61.526c5.772-1.063 11.297-3.831 15.779-8.313s7.25-10.007 8.313-15.779c-1.592 5.434-4.606 10.657-9.02 15.072s-9.639 7.428-15.072 9.02" fill="#ffffff" filter="url(#f)" opacity=".35"/>
</svg>
