<svg width="64" height="64" fill="none" version="1.1" xmlns="http://www.w3.org/2000/svg">
 <defs>
  <filter id="c" x="-.12967" y="-.16957" width="1.2593" height="1.3391" color-interpolation-filters="sRGB">
   <feGaussianBlur stdDeviation="1.837"/>
  </filter>
  <filter id="a" x="-.03888" y="-.03888" width="1.0778" height="1.0778" color-interpolation-filters="sRGB">
   <feGaussianBlur stdDeviation=".972"/>
  </filter>
  <linearGradient id="b" x1="7.937" x2="7.937" y1="15.081" y2="1.852" gradientTransform="translate(-2.286 -2.252)scale(4.0494)" gradientUnits="userSpaceOnUse">
   <stop stop-color="#0e71de" offset="0"/>
   <stop stop-color="#25c9ff" offset="1"/>
  </linearGradient>
  <filter id="e" x="-.013864" y="-.013864" width="1.0277" height="1.0277" color-interpolation-filters="sRGB">
   <feGaussianBlur stdDeviation=".298"/>
  </filter>
  <filter id="f" x="-.029686" y="-.029686" width="1.0594" height="1.0594" color-interpolation-filters="sRGB">
   <feGaussianBlur stdDeviation=".298"/>
  </filter>
 </defs>
 <rect x="2" y="2" width="60" height="60" rx="30" ry="30" fill="#000" filter="url(#a)" opacity=".35"/>
 <rect x="2" y="2" width="60" height="60" rx="30" ry="30" fill="url(#b)"/>
 <path d="M22 20c-2.77 0-5 2.23-5 5v16h-2v5h19v-5H22V25h25v-5zm18 9c-1.108 0-2 .892-2 2v13c0 1.108.892 2 2 2h7c1.108 0 2-.892 2-2V31c0-1.108-.892-2-2-2zm0 2h7v11h-7z" fill="#000" filter="url(#c)" opacity=".15"/>
 <path d="M22 19c-2.77 0-5 2.23-5 5v16h-2v5h19v-5H22V24h25v-5zm18 9c-1.108 0-2 .892-2 2v13c0 1.108.892 2 2 2h7c1.108 0 2-.892 2-2V30c0-1.108-.892-2-2-2zm0 2h7v11h-7z" fill="#fff"/>
 <path d="m10.787 10.787a29.934 29.934 0 0 0 0 42.426c0.119 0.119 0.242 0.23 0.362 0.345-11.4-11.775-11.288-30.43 0.345-42.065s30.29-11.743 42.066-0.345c-0.116-0.12-0.227-0.243-0.345-0.362a29.934 29.934 0 0 0-42.426 0z" fill="#ffffff" filter="url(#e)" opacity=".45"/>
 <path d="m37.435 61.526c5.772-1.063 11.297-3.831 15.779-8.313s7.25-10.007 8.313-15.779c-1.592 5.434-4.606 10.657-9.02 15.072s-9.639 7.428-15.072 9.02" fill="#ffffff" filter="url(#f)" opacity=".35"/>
</svg>
