<?xml version="1.0" encoding="UTF-8"?>
<svg width="64" height="64" fill="none" version="1.1" xmlns="http://www.w3.org/2000/svg">
 <defs>
  <filter id="filter943" x="-.03888" y="-.03888" width="1.0778" height="1.0778" color-interpolation-filters="sRGB">
   <feGaussianBlur stdDeviation="0.972"/>
  </filter>
  <linearGradient id="linearGradient25799" x1="-8.2319" x2="-8.2319" y1="16.457" y2="2.3273" gradientTransform="matrix(3.7796 0 0 3.7796 61.445 -3.3092)" gradientUnits="userSpaceOnUse">
   <stop stop-color="#2858e4" offset="0"/>
   <stop stop-color="#5ab9f4" offset="1"/>
  </linearGradient>
 </defs>
 <rect x="2" y="2" width="60" height="60" rx="30" ry="30" fill="#000" filter="url(#filter943)" opacity=".35" stroke-width="1.0714"/>
 <rect x="2" y="2" width="60" height="60" rx="30" ry="30" fill="url(#linearGradient25799)" stroke-width="1.0714"/>
 <g transform="matrix(.31808 0 0 .31808 -2.7372 -40.549)" enable-background="new">
  <g transform="matrix(0 1.0719 -1.0719 0 292.42 -181.07)">
   <g transform="translate(83.961)">
    <path d="m330.38 128.38v82.516h0.0364c-0.0218 0.23939-0.0335 0.47945-0.0364 0.71971 3.5e-4 5.3492 4.5932 9.6855 10.26 9.6861 5.6676 3.9e-4 10.263-4.3362 10.264-9.6861-4.4e-4 -0.24015-0.01-0.48024-0.0291-0.71971h0.0291v-82.516zm10.656 79.741c1.5457 0 2.4045 2.3042 2.4045 3.8498s-2.8297 5.6894-4.3754 5.6894c-1.5457-1e-5 -4.5068-5.1948-4.5068-6.7405s4.932-2.7987 6.4777-2.7987z" enable-background="new" fill="#bcc5ca"/>
    <path transform="matrix(.9329 0 0 .9329 362.57 117.96)" d="m-35.805 11.172v88.451h0.03906c-0.02337 0.25661-0.03595 0.51394-0.03906 0.77148 3.76e-4 5.734 4.9235 10.382 10.998 10.383 6.0753 4.2e-4 11.002-4.6481 11.002-10.383-4.71e-4 -0.25743-0.01045-0.51479-0.03125-0.77148h0.03125v-88.451zm11 86.604a3 3 0 0 1 3 3 3 3 0 0 1-3 3 3 3 0 0 1-3-3 3 3 0 0 1 3-3z" enable-background="new" fill="#f1f3f5"/>
    <path d="m336.66 211.64a2.7987 2.7987 0 0 0-0.0219 0.3298 2.7987 2.7987 0 0 0 2.7987 2.7987 2.7987 2.7987 0 0 0 2.7987-2.7987 2.7987 2.7987 0 0 0-0.0219-0.32615 2.7987 2.7987 0 0 1-2.7768 2.4689 2.7987 2.7987 0 0 1-2.7768-2.4725z" fill="#bcc5ca"/>
   </g>
   <rect x="413.13" y="161.6" width="20.524" height="13.061" enable-background="new" fill="#00aade"/>
   <rect x="413.13" y="133.61" width="20.524" height="13.061" enable-background="new" fill="#c1ebf7"/>
   <rect x="413.13" y="175.59" width="20.524" height="13.061" enable-background="new" fill="#006888"/>
   <rect x="413.13" y="189.58" width="20.524" height="13.061" enable-background="new" fill="#003445"/>
   <rect x="413.13" y="147.6" width="20.524" height="13.061" enable-background="new" fill="#6acfec"/>
  </g>
  <g transform="matrix(.53596 .92832 -.92832 .53596 50.05 -207.9)" enable-background="new">
   <g transform="translate(55.974)">
    <path transform="matrix(.9329 0 0 .9329 362.57 117.96)" d="m-35.805 11.172v88.451h0.03906c-0.02337 0.25661-0.03595 0.51394-0.03906 0.77148 3.76e-4 5.734 4.9235 10.382 10.998 10.383 6.0753 4.2e-4 11.002-4.6481 11.002-10.383-4.71e-4 -0.25743-0.01045-0.51479-0.03125-0.77148h0.03125v-88.451zm11 86.604a3 3 0 0 1 3 3 3 3 0 0 1-3 3 3 3 0 0 1-3-3 3 3 0 0 1 3-3z" enable-background="new" fill="#f1f3f5"/>
    <path d="m336.66 211.64a2.7987 2.7987 0 0 0-0.0219 0.3298 2.7987 2.7987 0 0 0 2.7987 2.7987 2.7987 2.7987 0 0 0 2.7987-2.7987 2.7987 2.7987 0 0 0-0.0219-0.32615 2.7987 2.7987 0 0 1-2.7768 2.4689 2.7987 2.7987 0 0 1-2.7768-2.4725z" fill="#bcc5ca"/>
   </g>
   <rect x="385.14" y="161.6" width="20.524" height="13.061" enable-background="new" fill="#6acc0a"/>
   <rect x="385.14" y="133.61" width="20.524" height="13.061" enable-background="new" fill="#d7fdb2"/>
   <rect x="385.14" y="175.59" width="20.524" height="13.061" enable-background="new" fill="#52a302"/>
   <rect x="385.14" y="189.58" width="20.524" height="13.061" enable-background="new" fill="#3c7902"/>
   <rect x="385.14" y="147.6" width="20.524" height="13.061" enable-background="new" fill="#aef766"/>
  </g>
  <g transform="matrix(.92832 .53596 -.53596 .92832 -162.28 -120.93)">
   <g transform="translate(27.987)">
    <path transform="matrix(.9329 0 0 .9329 362.57 117.96)" d="m-35.805 11.172v88.451h0.03906c-0.02337 0.25661-0.03595 0.51394-0.03906 0.77148 3.76e-4 5.734 4.9235 10.382 10.998 10.383 6.0753 4.2e-4 11.002-4.6481 11.002-10.383-4.71e-4 -0.25743-0.01045-0.51479-0.03125-0.77148h0.03125v-88.451zm11 86.604a3 3 0 0 1 3 3 3 3 0 0 1-3 3 3 3 0 0 1-3-3 3 3 0 0 1 3-3z" enable-background="new" fill="#f1f3f5"/>
    <path d="m336.66 211.64a2.7987 2.7987 0 0 0-0.0219 0.3298 2.7987 2.7987 0 0 0 2.7987 2.7987 2.7987 2.7987 0 0 0 2.7987-2.7987 2.7987 2.7987 0 0 0-0.0219-0.32615 2.7987 2.7987 0 0 1-2.7768 2.4689 2.7987 2.7987 0 0 1-2.7768-2.4725z" fill="#bcc5ca"/>
   </g>
   <rect x="357.16" y="161.6" width="20.524" height="13.061" enable-background="new" fill="#f9da02"/>
   <rect x="357.16" y="133.61" width="20.524" height="13.061" enable-background="new" fill="#fcf4c0"/>
   <rect x="357.16" y="175.59" width="20.524" height="13.061" enable-background="new" fill="#dcb102"/>
   <rect x="357.16" y="189.58" width="20.524" height="13.061" enable-background="new" fill="#ad7702"/>
   <rect x="357.16" y="147.6" width="20.524" height="13.061" enable-background="new" fill="#fbeb83"/>
  </g>
  <g transform="matrix(1.0719 0 0 1.0719 -298.65 45.554)">
   <path transform="matrix(.9329 0 0 .9329 362.57 117.96)" d="m-35.805 11.172v88.451h0.03906c-0.02337 0.25661-0.03595 0.51394-0.03906 0.77148 3.76e-4 5.734 4.9235 10.382 10.998 10.383 6.0753 4.2e-4 11.002-4.6481 11.002-10.383-4.71e-4 -0.25743-0.01045-0.51479-0.03125-0.77148h0.03125v-88.451zm11 86.604a3 3 0 0 1 3 3 3 3 0 0 1-3 3 3 3 0 0 1-3-3 3 3 0 0 1 3-3z" enable-background="new" fill="#f1f3f5"/>
   <path d="m336.66 211.64a2.7987 2.7987 0 0 0-0.0219 0.3298 2.7987 2.7987 0 0 0 2.7987 2.7987 2.7987 2.7987 0 0 0 2.7987-2.7987 2.7987 2.7987 0 0 0-0.0219-0.32615 2.7987 2.7987 0 0 1-2.7768 2.4689 2.7987 2.7987 0 0 1-2.7768-2.4725z" fill="#bcc5ca"/>
   <rect x="329.17" y="161.6" width="20.524" height="13.061" enable-background="new" fill="#e6461d"/>
   <rect x="329.17" y="133.61" width="20.524" height="13.061" enable-background="new" fill="#f3b6a6"/>
   <rect x="329.17" y="175.59" width="20.524" height="13.061" enable-background="new" fill="#c02700"/>
   <rect x="329.17" y="189.58" width="20.524" height="13.061" enable-background="new" fill="#851b00"/>
   <rect x="329.17" y="147.6" width="20.524" height="13.061" enable-background="new" fill="#ec866a"/>
  </g>
 </g>
</svg>
