<svg width="200" height="200" version="1.1" xmlns="http://www.w3.org/2000/svg">
 <defs>
  <linearGradient id="d" x1="-26.201" x2="-26.201" y1="1070.2" y2="1082.6" gradientUnits="userSpaceOnUse">
   <stop stop-color="#78d9fd" offset="0"/>
   <stop stop-color="#7bdeff" offset="1"/>
  </linearGradient>
  <linearGradient id="c" x1="-9.9121" x2="-9.9121" y1="1081.4" y2="1139.8" gradientUnits="userSpaceOnUse">
   <stop stop-color="#35cafc" offset="0"/>
   <stop stop-color="#50d4ff" offset=".5"/>
   <stop stop-color="#4dcbf6" offset="1"/>
  </linearGradient>
  <linearGradient id="b" x1="-9.6167" x2="-9.6167" y1="1138.4" y2="1140.2" gradientUnits="userSpaceOnUse">
   <stop stop-color="#3bc1f1" offset="0"/>
   <stop stop-color="#0e95c5" offset="1"/>
  </linearGradient>
  <linearGradient id="a" x1="-56.654" x2="-56.654" y1="1093.1" y2="1129.2" gradientTransform="matrix(1.1429 0 0 1.1429 60.621 -158.28)" gradientUnits="userSpaceOnUse">
   <stop stop-color="#03b6ec" offset="0"/>
   <stop stop-color="#13c0f7" offset="1"/>
  </linearGradient>
 </defs>
 <g transform="translate(0 -852.36)">
  <g transform="matrix(2.2139 0 0 2.2139 -104.08 -1156)">
   <g transform="translate(96.47 -152.03)">
    <path d="m-44.762 1070.2h22.131c3.2871 0 4.6525 7.0711 7.7278 7.0711h51.522c1.8188 0 3.283 1.4642 3.283 3.283v50.508c0 1.8188-1.4642-2.0203-3.283-2.0203h-81.38c-1.8188 0-3.283-1.4642-3.283-3.283v-52.275c0-1.8188 1.4642-3.283 3.283-3.283z" color="#000000" fill="url(#d)"/>
    <path d="m-44.762 1081.3h81.38c1.8188 0 3.283 1.4642 3.283 3.283v52.275c0 1.8188-1.4642 3.283-3.283 3.283h-81.38c-1.8188 0-3.283-1.4642-3.283-3.283v-52.275c0-1.8188 1.4642-3.283 3.283-3.283z" color="#000000" fill="url(#c)"/>
    <path d="m-48.031 1134.1v1h87.938v-1h-87.938z" color="#000000" fill="#3bc1f1" opacity=".97608" style="block-progression:tb;text-indent:0;text-transform:none"/>
    <path d="m-48.031 1136.3v0.5312c0 0.162 0.0088 0.3132 0.03125 0.4688h87.875c0.02244-0.1556 0.03125-0.3068 0.03125-0.4688v-0.5312h-87.938z" color="#000000" fill="#3bc1f1" opacity=".97608" style="block-progression:tb;text-indent:0;text-transform:none"/>
    <path d="m-47.75 1138.2c0.51197 1.1442 1.6612 1.9375 3 1.9375h81.375c1.3394 0 2.4884-0.7925 3-1.9375h-87.375z" color="#000000" fill="url(#b)" opacity=".97608" style="block-progression:tb;text-indent:0;text-transform:none"/>
    <path class="ColorScheme-Text" d="m-3.9026 1091.3c-0.26525 0-0.52989 0.098-0.77463 0.2457l-1.3556 0.7808c-0.8703 0.5037-1.156 1.6112-0.6536 2.4885l11.765 20.543 4.3089-2.9031-11.596-20.227c-0.31403-0.5467-0.8478-0.8864-1.4283-0.927-0.087042-0.011-0.17783 0-0.26629 0zm-4.1635 7.0023c-0.58045 0.062-1.1384 0.3563-1.4525 0.9024l-1.1862 2.0493 4.4785 2.6108 1.1862-2.0493c0.50243-0.8773 0.21672-1.9823-0.6536-2.4885l-1.3315-0.7808c-0.32637-0.1904-0.69267-0.2703-1.0409-0.2458zm-3.3891 4.2939-10.143 17.738 4.4785 2.5861 10.143-17.714zm-14.815 7.9539v5.221h6.0038l2.9776-5.221zm17.526 0-2.9776 5.221h15.759l-3.0018-5.221zm18.325 0 3.0018 5.221h5.544v-5.221zm0.58137 3.2447-4.3089 2.9032 2.1544 3.7577 4.3089-2.9032zm2.9291 5.1239-4.3089 2.9032c0.12832 5.1907 4.0617 4.5444 5.5676 7.7831 2.8675-3.0771 2.0004-7.8084-1.2588-10.687zm-35.465 2.757-2.3482 8.4661 6.8264-5.8561z" fill="url(#a)" opacity=".816" stroke-width=".4517"/>
   </g>
  </g>
 </g>
</svg>
