<?xml version="1.0" encoding="UTF-8" standalone="no"?>
<!-- Created with Inkscape (http://www.inkscape.org/) -->

<svg
   xmlns:dc="http://purl.org/dc/elements/1.1/"
   xmlns:cc="http://creativecommons.org/ns#"
   xmlns:rdf="http://www.w3.org/1999/02/22-rdf-syntax-ns#"
   xmlns:svg="http://www.w3.org/2000/svg"
   xmlns="http://www.w3.org/2000/svg"
   xmlns:xlink="http://www.w3.org/1999/xlink"
   xmlns:sodipodi="http://sodipodi.sourceforge.net/DTD/sodipodi-0.dtd"
   xmlns:inkscape="http://www.inkscape.org/namespaces/inkscape"
   width="200"
   height="200"
   id="svg18416"
   version="1.1"
   inkscape:version="0.92.2 (5c3e80d, 2017-08-06)"
   sodipodi:docname="folder-pictures.svg">
  <defs
     id="defs18418">
    <linearGradient
       id="linearGradient868">
      <stop
         id="stop864"
         offset="0"
         style="stop-color:#03b6ec;stop-opacity:1" />
      <stop
         id="stop866"
         offset="1"
         style="stop-color:#13c0f7;stop-opacity:1" />
    </linearGradient>
    <linearGradient
       id="linearGradient19076">
      <stop
         style="stop-color:#3bc1f1;stop-opacity:1;"
         offset="0"
         id="stop19078" />
      <stop
         style="stop-color:#0e95c5;stop-opacity:1;"
         offset="1"
         id="stop19080" />
    </linearGradient>
    <linearGradient
       id="linearGradient18984">
      <stop
         style="stop-color:#78d9fd;stop-opacity:1;"
         offset="0"
         id="stop18986" />
      <stop
         style="stop-color:#7bdeff;stop-opacity:1;"
         offset="1"
         id="stop18988" />
    </linearGradient>
    <linearGradient
       id="linearGradient18973">
      <stop
         style="stop-color:#35cafc;stop-opacity:1;"
         offset="0"
         id="stop18975" />
      <stop
         id="stop18981"
         offset="0.5"
         style="stop-color:#50d4ff;stop-opacity:1;" />
      <stop
         style="stop-color:#4dcbf6;stop-opacity:1;"
         offset="1"
         id="stop18977" />
    </linearGradient>
    <linearGradient
       inkscape:collect="always"
       xlink:href="#linearGradient18973"
       id="linearGradient18979"
       x1="-9.9121208"
       y1="1081.4041"
       x2="-9.9121208"
       y2="1139.7776"
       gradientUnits="userSpaceOnUse" />
    <linearGradient
       inkscape:collect="always"
       xlink:href="#linearGradient18984"
       id="linearGradient18990"
       x1="-26.20083"
       y1="1070.1985"
       x2="-26.20083"
       y2="1082.5807"
       gradientUnits="userSpaceOnUse" />
    <linearGradient
       inkscape:collect="always"
       xlink:href="#linearGradient18973-9"
       id="linearGradient18979-8"
       x1="-9.9121208"
       y1="1081.4041"
       x2="-9.9121208"
       y2="1139.7776"
       gradientUnits="userSpaceOnUse" />
    <linearGradient
       id="linearGradient18973-9">
      <stop
         style="stop-color:#35cafc;stop-opacity:1;"
         offset="0"
         id="stop18975-4" />
      <stop
         id="stop18981-4"
         offset="0.5"
         style="stop-color:#50d4ff;stop-opacity:1;" />
      <stop
         style="stop-color:#4dcbf6;stop-opacity:1;"
         offset="1"
         id="stop18977-5" />
    </linearGradient>
    <linearGradient
       gradientTransform="translate(0,2.9382813e-5)"
       y2="1139.7776"
       x2="-9.9121208"
       y1="1081.4041"
       x1="-9.9121208"
       gradientUnits="userSpaceOnUse"
       id="linearGradient19047"
       xlink:href="#linearGradient18973-9"
       inkscape:collect="always" />
    <linearGradient
       inkscape:collect="always"
       xlink:href="#linearGradient19076"
       id="linearGradient19082"
       x1="-9.6167412"
       y1="1138.386"
       x2="-9.6167412"
       y2="1140.1899"
       gradientUnits="userSpaceOnUse" />
    <linearGradient
       inkscape:collect="always"
       xlink:href="#linearGradient18984"
       id="linearGradient19091"
       gradientUnits="userSpaceOnUse"
       x1="-26.20083"
       y1="1070.1985"
       x2="-26.20083"
       y2="1082.5807" />
    <linearGradient
       inkscape:collect="always"
       xlink:href="#linearGradient18973"
       id="linearGradient19093"
       gradientUnits="userSpaceOnUse"
       x1="-9.9121208"
       y1="1081.4041"
       x2="-9.9121208"
       y2="1139.7776" />
    <linearGradient
       inkscape:collect="always"
       xlink:href="#linearGradient19076"
       id="linearGradient19095"
       gradientUnits="userSpaceOnUse"
       x1="-9.6167412"
       y1="1138.386"
       x2="-9.6167412"
       y2="1140.1899" />
    <linearGradient
       inkscape:collect="always"
       xlink:href="#linearGradient18984"
       id="linearGradient19106"
       gradientUnits="userSpaceOnUse"
       x1="-26.20083"
       y1="1070.1985"
       x2="-26.20083"
       y2="1082.5807" />
    <linearGradient
       inkscape:collect="always"
       xlink:href="#linearGradient18973"
       id="linearGradient19108"
       gradientUnits="userSpaceOnUse"
       x1="-9.9121208"
       y1="1081.4041"
       x2="-9.9121208"
       y2="1139.7776" />
    <linearGradient
       inkscape:collect="always"
       xlink:href="#linearGradient19076"
       id="linearGradient19110"
       gradientUnits="userSpaceOnUse"
       x1="-9.6167412"
       y1="1138.386"
       x2="-9.6167412"
       y2="1140.1899" />
    <linearGradient
       inkscape:collect="always"
       xlink:href="#linearGradient868"
       id="linearGradient862"
       x1="-6.5454307"
       y1="1093.0649"
       x2="-6.5454307"
       y2="1124.684"
       gradientUnits="userSpaceOnUse" />
  </defs>
  <sodipodi:namedview
     id="base"
     pagecolor="#ffffff"
     bordercolor="#666666"
     borderopacity="1.0"
     inkscape:pageopacity="0.0"
     inkscape:pageshadow="2"
     inkscape:zoom="2.8"
     inkscape:cx="35.178571"
     inkscape:cy="97.142857"
     inkscape:document-units="px"
     inkscape:current-layer="g19084"
     showgrid="true"
     inkscape:window-width="1440"
     inkscape:window-height="779"
     inkscape:window-x="0"
     inkscape:window-y="25"
     inkscape:window-maximized="1"
     inkscape:pagecheckerboard="true">
    <inkscape:grid
       type="xygrid"
       id="grid844" />
  </sodipodi:namedview>
  <metadata
     id="metadata18421">
    <rdf:RDF>
      <cc:Work
         rdf:about="">
        <dc:format>image/svg+xml</dc:format>
        <dc:type
           rdf:resource="http://purl.org/dc/dcmitype/StillImage" />
        <dc:title />
      </cc:Work>
    </rdf:RDF>
  </metadata>
  <g
     inkscape:label="Layer 1"
     inkscape:groupmode="layer"
     id="layer1"
     transform="translate(0,-852.36218)">
    <g
       id="g19098"
       transform="matrix(2.213863,0,0,2.213863,-104.07972,-1155.9649)">
      <g
         transform="translate(96.469568,-152.02796)"
         id="g19084">
        <path
           style="color:#000000;fill:url(#linearGradient19106);fill-opacity:1;fill-rule:nonzero;stroke:none;stroke-width:0.40000001;marker:none;visibility:visible;display:inline;overflow:visible;enable-background:accumulate"
           d="m -44.762384,1070.2064 c 7.37694,0 14.753879,0 22.130819,0 3.287123,0 4.652547,7.0711 7.727809,7.0711 16.8372138,0 34.684579,0 51.521792,0 1.818779,0 3.282995,1.4642 3.282995,3.283 l 0,50.5076 c 0,1.8188 -1.464216,-2.0203 -3.282995,-2.0203 l -81.38042,0 c -1.81878,0 -3.282996,-1.4642 -3.282996,-3.283 l 0,-52.2754 c 0,-1.8188 1.464216,-3.283 3.282996,-3.283 z"
           id="rect18953-5"
           inkscape:connector-curvature="0"
           sodipodi:nodetypes="sccssssssss" />
        <path
           id="rect18953"
           d="m -44.762384,1081.2778 81.38042,0 c 1.818779,0 3.282995,1.4642 3.282995,3.283 l 0,52.2754 c 0,1.8188 -1.464216,3.283 -3.282995,3.283 l -81.38042,0 c -1.81878,0 -3.282996,-1.4642 -3.282996,-3.283 l 0,-52.2754 c 0,-1.8188 1.464216,-3.283 3.282996,-3.283 z"
           style="color:#000000;fill:url(#linearGradient19108);fill-opacity:1;fill-rule:nonzero;stroke:none;stroke-width:0.40000001;marker:none;visibility:visible;display:inline;overflow:visible;enable-background:accumulate"
           inkscape:connector-curvature="0" />
        <path
           inkscape:connector-curvature="0"
           style="font-size:medium;font-style:normal;font-variant:normal;font-weight:normal;font-stretch:normal;text-indent:0;text-align:start;text-decoration:none;line-height:normal;letter-spacing:normal;word-spacing:normal;text-transform:none;direction:ltr;block-progression:tb;writing-mode:lr-tb;text-anchor:start;baseline-shift:baseline;opacity:0.97607655;color:#000000;fill:#3bc1f1;fill-opacity:1;fill-rule:nonzero;stroke:none;stroke-width:1px;marker:none;visibility:visible;display:inline;overflow:visible;enable-background:accumulate;font-family:Sans;-inkscape-font-specification:Sans"
           d="m -48.03125,1134.0809 0,1 87.9375,0 0,-1 -87.9375,0 z"
           id="path19074" />
        <path
           inkscape:connector-curvature="0"
           style="font-size:medium;font-style:normal;font-variant:normal;font-weight:normal;font-stretch:normal;text-indent:0;text-align:start;text-decoration:none;line-height:normal;letter-spacing:normal;word-spacing:normal;text-transform:none;direction:ltr;block-progression:tb;writing-mode:lr-tb;text-anchor:start;baseline-shift:baseline;opacity:0.97607655;color:#000000;fill:#3bc1f1;fill-opacity:1;fill-rule:nonzero;stroke:none;stroke-width:1px;marker:none;visibility:visible;display:inline;overflow:visible;enable-background:accumulate;font-family:Sans;-inkscape-font-specification:Sans"
           d="m -48.03125,1136.2997 0,0.5312 c 0,0.162 0.0088,0.3132 0.03125,0.4688 l 87.875,0 c 0.02244,-0.1556 0.03125,-0.3068 0.03125,-0.4688 l 0,-0.5312 -87.9375,0 z"
           id="path19072" />
        <path
           inkscape:connector-curvature="0"
           style="font-size:medium;font-style:normal;font-variant:normal;font-weight:normal;font-stretch:normal;text-indent:0;text-align:start;text-decoration:none;line-height:normal;letter-spacing:normal;word-spacing:normal;text-transform:none;direction:ltr;block-progression:tb;writing-mode:lr-tb;text-anchor:start;baseline-shift:baseline;opacity:0.97607655;color:#000000;fill:url(#linearGradient19110);fill-opacity:1;fill-rule:nonzero;stroke:none;stroke-width:1px;marker:none;visibility:visible;display:inline;overflow:visible;enable-background:accumulate;font-family:Sans;-inkscape-font-specification:Sans"
           d="m -47.75,1138.1747 c 0.511971,1.1442 1.661176,1.9375 3,1.9375 l 81.375,0 c 1.33942,0 2.488367,-0.7925 3,-1.9375 l -87.375,0 z"
           id="path18992" />
        <path
           inkscape:connector-curvature="0"
           style="fill-opacity:1;stroke-width:1.06282163;fill:url(#linearGradient862);opacity:1"
           d="M 9.2640388,1097.582 H 3.9499306 l -1.487951,-2.232 c -0.4251293,-0.6377 -1.0628206,-0.9565 -1.80679443,-0.9565 H -9.8667496 c -0.7439744,0 -1.3816694,0.3188 -1.8067964,0.9565 l -1.381668,2.232 h -5.314109 c -2.338207,0 -4.251284,1.9129 -4.251284,4.2513 v 18.0677 c 0,2.3384 1.913077,4.2513 4.251284,4.2513 H 9.2640388 c 2.3382072,0 4.2512852,-1.9129 4.2512852,-4.2513 v -18.0677 c 0,-2.3384 -1.913078,-4.2513 -4.2512852,-4.2513 z m -26.5705398,7.4397 c -1.169104,0 -2.125642,-0.9567 -2.125642,-2.1256 0,-1.1692 0.956538,-2.1257 2.125642,-2.1257 1.169103,0 2.125642,0.9565 2.125642,2.1257 0,1.1689 -0.956539,2.1256 -2.125642,2.1256 z m 12.7538594,13.8165 c -4.6764139,0 -8.5025724,-3.8261 -8.5025724,-8.5026 0,-4.6762 3.8261585,-8.5023 8.5025724,-8.5023 4.67641489,0 8.5025722,3.8261 8.5025722,8.5023 0,4.6765 -3.82615731,8.5026 -8.5025722,8.5026 z"
           id="path4" />
      </g>
    </g>
  </g>
</svg>
