<svg width="48" height="48" version="1.1" xmlns="http://www.w3.org/2000/svg" xmlns:xlink="http://www.w3.org/1999/xlink">
 <defs>
  <linearGradient x2="47" y1="23.5" y2="23.5" gradientUnits="userSpaceOnUse">
   <stop stop-color="#a9a3d4" offset="0"/>
   <stop stop-color="#87baff" offset=".47002"/>
   <stop stop-color="#89ec85" offset="1"/>
  </linearGradient>
  <linearGradient id="d" x1="10.094" x2="122.72" y1="107.36" y2="107.36" gradientTransform="matrix(.34772 0 0 .34193 -5.7406 1006.2)" gradientUnits="userSpaceOnUse">
   <stop stop-color="#1a1a1a" offset="0"/>
   <stop stop-color="#2c2c2e" offset=".11054"/>
   <stop stop-color="#2b2b2d" offset=".29001"/>
   <stop stop-color="#2a2b2d" offset=".51187"/>
   <stop stop-color="#2b2b2d" offset=".75173"/>
   <stop stop-color="#323232" offset=".89659"/>
   <stop stop-color="#171717" offset="1"/>
  </linearGradient>
  <linearGradient id="a" x1="449.43" x2="449.55" y1="540.75" y2="518.41" gradientTransform="matrix(1.3997 0 0 1.3997 -612.37 282.29)" gradientUnits="userSpaceOnUse">
   <stop stop-color="#b6b9bf" offset="0"/>
   <stop stop-color="#dddfe2" offset="1"/>
  </linearGradient>
  <linearGradient id="c" x1="451.02" x2="451.02" y1="544.15" y2="543.09" gradientTransform="matrix(.70742 0 0 1.3997 -300.97 282.36)" gradientUnits="userSpaceOnUse">
   <stop stop-color="#3ec896" offset="0"/>
   <stop stop-color="#66d9af" offset="1"/>
  </linearGradient>
  <linearGradient id="b" x1="467.17" x2="467.17" y1="546.85" y2="544.72" gradientTransform="matrix(1.3997 0 0 1.3997 -621.72 279.48)" gradientUnits="userSpaceOnUse">
   <stop stop-color="#040404" offset="0"/>
   <stop stop-color="#121212" stop-opacity=".90816" offset="1"/>
  </linearGradient>
 </defs>
 <g transform="translate(-384.57 -499.8)">
  <g transform="translate(392.24 -502.52)">
   <g transform="matrix(1.1386 0 0 1.1386 -3.4562 -142.8)" stroke-width="1.3174">
    <g transform="matrix(1.0539 0 0 1.0539 -.91299 -55.412)">
     <g transform="matrix(.83333 0 0 .83333 -408.28 587.9)">
      <g transform="matrix(1.1125 0 0 1.1125 -46.055 -58.718)">
       <g transform="matrix(.84003 0 0 .84003 94.723 341.97)"></g>
      </g>
     </g>
     <g>
      <path d="m-2.2307 1039.7 0.34771 5.4805c0 0.5683 0.46525 1.0258 1.0432 1.0258h36.38c0.57791 0 1.0432-0.4575 1.0432-1.0258l0.34771-5.4805z" fill="url(#d)"/>
      <path d="m0.90117 1007.5h32.557c0.57791 0 1.0432 0.4575 1.0432 1.0258l2.4341 30.934c0 0.5683-0.46523 1.0258-1.0431 1.0258h-37.078c-0.57791 0-1.0431-0.4575-1.0431-1.0258l2.0861-30.934c0-0.5683 0.46525-1.0259 1.0431-1.0259z" fill="url(#a)"/>
      <rect x="9.3905" y="1043" width="16.046" height="1.0762" ry=".53811" fill="url(#c)"/>
      <ellipse cx="32.089" cy="1043.6" rx="1.4855" ry="1.4855" fill="url(#b)" opacity=".452"/>
      <path d="m32.086 1043.7c0.03352 0 0.06256-0.012 0.08704-0.037 0.0245-0.024 0.03677-0.054 0.03677-0.087v-0.619c0-0.034-0.01226-0.062-0.03677-0.087-0.02448-0.024-0.0535-0.037-0.08704-0.037-0.03353 0-0.06255 0.012-0.08705 0.037-0.0245 0.024-0.03675 0.053-0.03675 0.087v0.619c0 0.033 0.01225 0.063 0.03675 0.087s0.05353 0.037 0.08705 0.037z" fill="#e3e8ea" opacity=".668" stroke="#909296" stroke-width=".0018647"/>
      <path d="m32.75 1043.3c-0.05191-0.1038-0.12492-0.1909-0.21905-0.2611-0.02708-0.021-0.0577-0.029-0.09188-0.024-0.03418 0-0.06125 0.021-0.08124 0.048-0.02063 0.027-0.02853 0.058-0.02369 0.091 0.0048 0.034 0.0208 0.061 0.04787 0.082 0.06316 0.048 0.11204 0.1061 0.14651 0.1751 0.0345 0.069 0.05173 0.1425 0.05173 0.2205 0 0.067-0.01306 0.131-0.03916 0.192-0.02611 0.061-0.06142 0.1136-0.10591 0.1581-0.04449 0.044-0.09718 0.08-0.15812 0.1059-0.06093 0.026-0.12493 0.039-0.19198 0.039-0.06705 0-0.13104-0.013-0.19197-0.039-0.06093-0.026-0.11364-0.061-0.15813-0.1059-0.04448-0.044-0.07978-0.097-0.1059-0.1581-0.02612-0.061-0.03917-0.1249-0.03917-0.192 0-0.078 0.01725-0.1515 0.05174-0.2205 0.0345-0.069 0.08333-0.1273 0.14652-0.1751 0.02708-0.021 0.04303-0.048 0.04787-0.082 0.0048-0.034-0.0031-0.064-0.02369-0.091-0.01999-0.028-0.0469-0.044-0.08076-0.048-0.03385 0-0.06465 0-0.09237 0.024-0.09415 0.07-0.16715 0.1573-0.21906 0.2611-0.05191 0.1038-0.07786 0.2144-0.07786 0.3317 0 0.1006 0.01967 0.1966 0.059 0.2882 0.03934 0.092 0.0922 0.1705 0.15862 0.237 0.0664 0.066 0.14539 0.1192 0.23695 0.1585 0.09156 0.039 0.18763 0.059 0.28821 0.059s0.19665-0.02 0.28821-0.059c0.09156-0.039 0.17055-0.092 0.23695-0.1585 0.0664-0.066 0.11926-0.1454 0.1586-0.237 0.03933-0.092 0.05899-0.1876 0.05899-0.2882 0-0.1173-0.02591-0.2279-0.07782-0.3317z" fill="#e3e8ea" opacity=".668" stroke="#909296" stroke-width=".0018647"/>
      <ellipse cx="17.353" cy="1022.8" rx="13.002" ry="9.2109" opacity=".05"/>
      <path d="m17.333 1013.8c-1.6403 0-3.2015 0.2179-4.6443 0.6004-0.10493 0.067-0.24134 0.1187-0.34925 0.1123-0.0152 0-0.02934-0.01-0.04508-0.011-0.71122 0.2071-1.3859 0.461-2.0256 0.7489 0.08308 0.094 0.10782 0.1986-0.06301 0.2494-0.02873 0.01-0.39053 0.034-0.51687 0.032-1.8192 0.9204-3.2785 2.1583-4.2113 3.6034 0.015024 0 0.028015-0.01 0.043835-0.01 0.14157 0 0.34529 0.027 0.48127 0.047 0.12548 0.018 0.22669 0.077 0.33529 0.082 0.30819 0.016 0.38228-0.1506 0.6337-0.2441 0.25982 0.025 0.4322-0.031 0.66678-0.013 0.15991 0.013 0.27544 0.1313 0.40004 0.138 0.10482 0.01 0.19705-0.069 0.29847-0.057 0.098549 0.011 0.26846 0.1602 0.2845 0.2441 0.020765 0.1043-0.1103 0.1984-0.067172 0.3131 0.15706 0.1112 0.4424 0.1338 0.66675 0.198 0.14614-0.084 0.019622-0.2394 0-0.3608-0.0026-0.054 0.010257-0.1011 0-0.1503-0.012905-0.084-0.064607-0.1602-0.065397-0.2317-0.00269-0.3304 0.38278-0.485 0.70103-0.6154 0.13776-0.057 0.24623-0.1565 0.36575-0.1981 0.16884-0.059 0.29457-0.073 0.43433-0.1274 0.25263-0.099 0.46924-0.178 0.66677-0.29 0.09118-0.1498 0.0088-0.3506 0.01697-0.4987 0.09122-0.039 0.16983 0.017 0.26668 0.011 0.1524-0.022 0.16509-0.1718 0.25146-0.2316 0.05011-0.034 0.1878-0.059 0.25014-0.093 0.15192-0.083 0.20138-0.2083 0.33408-0.2441 0.04763-0.013 0.15734-0.01 0.23241-0.024 0.0987-0.018 0.23922-0.099 0.40001-0.1379 0.1048-0.025 0.34482-0.03 0.38481-0.058 0.0494-0.035-7.16e-4 -0.1333 0.01697-0.1857 0.08087-0.2621 0.6478-0.3177 0.98295-0.4059 0.23492-0.062 0.47593-0.1755 0.73406-0.1406-0.05063 0.1246-0.29097 0.08-0.25022 0.2317 0.05621 0.2099 0.45997-0.06 0.56647-0.091 0.20337-0.059 0.55218-0.096 0.81911-0.1636 0.23407-0.059 0.65369-0.1505 0.43311-0.3369-0.18405-0.01-0.27272 0.1503-0.43311 0.198-0.11078 0.013-0.08939-0.064-0.18414-0.071-0.08953-0.01-0.14014 0.057-0.23246 0.046-0.0917-0.01-0.22057-0.111-0.23492-0.1856-0.03633-0.1939 0.23523-0.2738 0.35055-0.4183-0.07654-0.1753-0.42454-0.036-0.63501-0.1043 0.02067-0.1044 0.17538-0.1764 0.3505-0.1963 0.14355-0.017 0.4657-0.01 0.55119 0.045 0.04958 0.03 0.0035 0.1024 0.08369 0.1512 0.08493 0.054 0.1895 0.048 0.29977 0.035 0.03924-0.1323-0.24708-0.099-0.2159-0.1866 0.22523-0.1026 0.59166-0.019 0.86743-0.047 0.15872-0.016 0.32535-0.094 0.46606-0.1494 0.13379-0.053 0.30761-0.1452 0.44958-0.058 0.03766 0.095-0.12365 0.1262-0.19941 0.1733-0.25508 0.1581-0.51794 0.3391-0.71623 0.5227 0.12162 0.083 0.34273 0.041 0.54864 0.058 0.08051 0.01 0.18154 0.024 0.26665 0.034 0.09964 0.013 0.20538 0.01 0.2832 0.022 0.14012 0.024 0.17755 0.1282 0.31625 0.1282 0.22813-3e-4 0.23085-0.172 0.10155-0.2794 0.04083-0.1096 0.1048-0.1664 0.04985-0.2432-0.10276-0.1431-0.47975-0.01-0.4991-0.1856-0.01184-0.1158 0.13912-0.1106 0.19938-0.1972-0.0274-0.2237 0.26347-0.2399 0.23239-0.4404-0.01299-0.084-0.11502-0.085-0.19939-0.1636-0.04286-0.038-0.06389-0.1127-0.11302-0.1459-0.38911-0.024-0.78261-0.039-1.181-0.039zm-6.7106 1.8269h0.0018c0.07777 0.01 0.17142 0.066 0.26541 0.071 0.08859 0 0.16239-0.034 0.21719-0.024 0.13943 0.025 0.19821 0.1722 0.06663 0.244-0.109 0.01-0.15149-0.034-0.23365-0.023-0.22647 0.027-0.31335 0.3356-0.48262 0.3254-0.15962-0.01-0.246-0.2802-0.08362-0.3607 0.01025-0.07-0.07406-0.082-0.06841-0.1513 0.04816-0.043 0.18487-0.089 0.3175-0.081zm-0.75054 0.036c0.046397 0 0.081126 0.01 0.099044 0.022-0.02227 0.1237-0.1612 0.1156-0.29846 0.1733-0.23709 0.1-0.37413 0.2514-0.44957 0.4642-0.02201 0.062-0.25545 0.226-0.36829 0.2096-0.26442-0.038 0.073443-0.3782 0.13334-0.4297 0.067078-0.058 0.15633-0.1073 0.23495-0.1734 0.076183-0.064 0.1259-0.1502 0.19939-0.1857 0.080513-0.038 0.31028-0.085 0.44958-0.081zm1.9735 0.4173c0.08457 0 0.16085 0.011 0.1956 0.034-0.05435 0.1533-0.52882 0.1129-0.70229 0.057 0.01026-0.057 0.14102-0.074 0.25017-0.081 0.07697 0 0.172-0.013 0.25652-0.01zm-1.0794 0.283c0.05621 0 0.11346 0.01 0.17269 0.019-0.15344 0.089-0.3194 0.1399-0.58294 0.1981-0.12671 0.028-0.34552 0.062-0.36701-0.036-0.02625-0.1208 0.18529-0.093 0.30096-0.1035 0.1457-0.014 0.30561-0.073 0.4763-0.077zm16.561 0.688c-0.02006 0.033-0.03386 0.066-0.03173 0.097 0.01026 0.056 0.09845 0.1099 0.11808 0.1858 0.01026 0.041-0.02705 0.1268 0 0.1635 0.08034 0.1084 0.2904 0.031 0.44071 0.037-0.17074-0.1638-0.34127-0.3278-0.52706-0.4829zm0.85217 0.7984c-0.02403 0.08-0.10199 0.1843-0.1651 0.2511-0.14534 0.154-0.34278 0.1612-0.55118 0.2432-0.17379 0.069-0.24863 0.1832-0.35052 0.3024-0.11044 0.1289-0.17883 0.2068-0.13332 0.3936-0.14903 0.2058-0.37465 0.3318-0.68328 0.4297-0.09114 0.029-0.21598 0.039-0.29973 0.081-0.06646 0.034-0.10456 0.1231-0.19938 0.1972-0.1169 0.091-0.23952 0.1289-0.30099 0.1981-0.04763 0.054-0.06371 0.1599-0.11681 0.2317-0.0715 0.098-0.22277 0.1452-0.31628 0.244-0.0426 0.046-0.07141 0.1383-0.11806 0.1981-0.10568 0.1337-0.2861 0.23-0.26673 0.3475 0.01953 0.1137 0.20455 0.1336 0.21716 0.2326 0.0027 0.056-0.05312 0.09-0.04985 0.1512 0.0027 0.089 0.08898 0.1516 0.09904 0.2202 0.02493 0.1724-0.08404 0.2412-0.1308 0.359-0.02227 0.056-0.01238 0.1196-0.03394 0.1636-0.04154 0.086-0.21372 0.1642-0.21719 0.2661-0.0018 0.073 0.10689 0.1309 0.11563 0.2327 0.0027 0.07-0.04975 0.145-0.03146 0.2095 0.03518 0.1263 0.35935 0.2732 0.50042 0.3714 0.18861 0.1314 0.43556 0.233 0.51686 0.3714 0.06823 0.1175 0.06761 0.2704 0.1994 0.359 0.09724 0.065 0.25896 0.1061 0.38353 0.1742 0.11624 0.064 0.24283 0.1183 0.36703 0.1857 0.20294 0.1106 0.5098 0.3309 0.8331 0.314 0.16885-0.01 0.34189-0.1046 0.53344-0.1283 0.19701-0.024 0.45271-0.037 0.65146-0.022 0.15226 0.011 0.30909 0.074 0.46736 0.069 0.16711-0.01 0.35877-0.093 0.54865-0.1511 0.15279-0.046 0.34029-0.098 0.54608-0.1354 0.09445-0.4416 0.14479-0.8941 0.14479-1.3547 0-1.8541-0.79624-3.5726-2.159-5.0049zm-21.509 3.0428c-0.27702 0.011-0.45847 0.02-0.61595 0.069-0.36077 0.1143-0.29111 0.4537-0.65156 0.534-0.12458 0.028-0.29576 0.029-0.43296 0.047-0.11852 0.015-0.26282 0.06-0.38482 0.058-0.033937-3e-4 -0.081926-0.018-0.1245-0.027-0.031728 0.1591-0.058417 0.3201-0.07901 0.4818 0.34294 0.045 0.51992 0.3623 0.82301 0.467 0.082986 0.029 0.19151 0.03 0.29841 0.047 0.085991 0.014 0.15183 0.038 0.23491 0.058 0.1764 0.041 0.39237 0.037 0.53345 0.081 0.21251 0.066 0.36839 0.3438 0.55117 0.4183 0.010252 0.075-0.021299 0.1757 0.016968 0.2316 0.08608 0.082 0.20822 0.064 0.35047 0.1167 0.17022 0.064 0.2223 0.229 0.38357 0.2795 0.055589 0.017 0.19521 0.015 0.2832 0.034 0.22101 0.046 0.29315 0.2246 0.48261 0.1857 0.12424-0.025 0.11444-0.1145 0.1346-0.1972 0.082102-0.062 0.17173-0.1601 0.29971-0.1618 0.20718-0.01 0.22564 0.149 0.30098 0.2891 0.042774 0.079 0.15383 0.1482 0.1829 0.2317 0.051703 0.1442 0.025986 0.5761-0.01821 0.6623-0.052232 0.1058-0.25797 0.1506-0.3848 0.2679-0.059655 0.055-0.08802 0.1356-0.13335 0.1743-0.081656 0.069-0.20304 0.087-0.26412 0.1512-0.034291 0.036-0.06805 0.1132-0.10169 0.1618-0.10011 0.1477-0.23408 0.2524-0.14987 0.4297 0.034998 0.073 0.19896 0.122 0.19941 0.2079 4.685e-4 0.101-0.30879 0.1915-0.33271 0.3024-0.018206 0.082 0.095651 0.2296 0.13331 0.3369 0.027574 0.081 0.24759 0.1318 0.31625 0.1857 0.11703 0.091 0.21058 0.2211 0.31748 0.336 0.21142 0.226 0.37711 0.5016 0.58295 0.7207 0.10876 0.1147 0.26152 0.2178 0.33399 0.3369 0.036763 0.06 0.031728 0.1317 0.065666 0.1857 0.11911 0.1873 0.64534 0.3828 0.91692 0.4757 0.1271 0.043 0.26816 0.058 0.38481 0.1034 0.17671 0.069 0.52674 0.253 0.61596 0.3608 0.07963 0.097 0.12898 0.3331 0.16761 0.4873 0.05179 0.2037 5.97e-4 0.3602 0.01697 0.581 0.01026 0.1193 0.06495 0.2393 0.06716 0.3589 6.51e-4 0.042-0.03173 0.073-0.03411 0.1159-9.7e-5 0.01 0.0035 0.015 0.0035 0.022 1.6378 0.516 3.4526 0.8099 5.3733 0.8099 0.34701 0 0.68994-0.013 1.0299-0.032 0.01529-0.017 0.02854-0.036 0.04746-0.053 0.07848-0.072 0.14784-0.1342 0.19947-0.1972 0.0494-0.212-0.12145-0.36-0.04985-0.5456 0.07971-0.2085 0.49351-0.3357 0.78366-0.4298 0.0997-0.032 0.20191-0.085 0.28313-0.1044 0.2008-0.048 0.45149-0.022 0.63501-0.069 0.31243-0.08 0.34506-0.313 0.4991-0.5111 0.073-0.094 0.16867-0.1879 0.1829-0.2547 0.01228-0.06-0.03155-0.1166-0.01812-0.1875 0.01494-0.07 0.1054-0.1307 0.13333-0.2078 0.03633-0.1005 0.05223-0.2479 0.05223-0.3598 0-0.092-0.0616-0.1726-0.06655-0.2556-0.02182-0.3011 0.15623-0.3348 0.31625-0.4987 0.08034-0.081 0.11033-0.1742 0.16635-0.2326 0.26868-0.279 0.73476-0.4137 0.70104-0.8357-0.01026-0.1395-0.13697-0.455-0.28447-0.4995-0.08431-0.025-0.27796 0-0.40006-0.034-0.3941-0.1024-0.62538-0.4426-1.0338-0.4643-0.08696-0.01-0.16724 0.025-0.2654 0.024-0.16162-0.01-0.40531-0.079-0.5842-0.093-0.11373-0.01-0.26578 0.024-0.33406 0-0.10402-0.036-0.11467-0.1689-0.19939-0.2087-0.06672-0.033-0.19782-0.043-0.29971-0.071-0.16419-0.043-0.29439-0.095-0.48383-0.1043-0.05833 0-0.13131 0.02-0.1994 0.013-0.10482-0.013-0.18776-0.099-0.28445-0.1397-0.12119-0.052-0.23316-0.076-0.28324-0.1494 0.10947-0.25-0.19308-0.3198-0.26671-0.4642-0.035-0.068-0.01927-0.1493-0.04985-0.2096-0.04393-0.087-0.16632-0.1365-0.30099-0.2087-0.24128-0.1293-0.45528-0.2507-0.8001-0.2803-0.15159-0.013-0.30198 0.032-0.48516 0.024-0.19406-0.01-0.43774-0.1268-0.58288-0.2423-0.14116-0.1128-0.20979-0.214-0.33276-0.2679-0.11646-0.053-0.27104-0.051-0.35053-0.1035-0.03535-0.023-0.02899-0.062-0.06725-0.1168-0.05842-0.084-0.1569-0.1313-0.08361-0.2325-0.13288-0.048-0.13654 0.088-0.28193 0.071-0.12965-0.1281-0.2391-0.1887-0.53343-0.1512-0.13476 0.018-0.20999 0.1359-0.36701 0.1389-0.12879 0.01-0.22997-0.1-0.40003-0.1168-0.1284-0.013-0.2744 0.024-0.36578 0.012-0.1423-0.02-0.18623-0.1023-0.31624-0.1619-0.09532-0.043-0.28053-0.1178-0.334-0.1166-0.16759 0.01-0.28702 0.2479-0.51815 0.1626-0.11234-0.099 0.18295-0.1513 0.04985-0.244-0.10099-0.07-0.18589 0.032-0.26667 0.071-0.09261 0.044-0.17963 0.089-0.28197 0.1149-0.22905 0.059-0.37219 0.029-0.55117 0.093-0.16572 0.06-0.17279 0.1598-0.26668 0.2785-0.076973 0.097-0.25165 0.239-0.36705 0.2449-0.13972 0.01-0.27329-0.136-0.40003-0.1741-0.38186-0.1152-0.56683 0.1022-0.88388 0.1051-0.29428 0.01-0.71457-0.3308-0.69981-0.5234 0.00266-0.1175 0.097082-0.2959 0.11681-0.4412 0.018206-0.1157 0.13146-0.1853 0.1334-0.291 0.00266-0.141-0.26865-0.2494-0.4001-0.2661-0.3115-0.04-0.74399 0.087-1.101-0.013-0.067874-0.079 0.079981-0.1331 0.11808-0.2096 0.021917-0.043 0.00884-0.1016 0.031639-0.1494 0.039239-0.074 0.15084-0.1313 0.20059-0.2096 0.036676-0.059 0.046663-0.146 0.083605-0.2202 0.044277-0.084 0.12393-0.1388 0.13337-0.198 0.011577-0.078-0.030049-0.1687-0.11816-0.2202zm4.4577 2.4574c0.11303 0.01 0.12717 0.17 0.01141 0.183-0.12469 0.013-0.18807-0.1361-0.06681-0.175 0.02059-0.01 0.03976-0.01 0.05576-0.01z" fill="#a1a7ae" stroke="#909296" stroke-width=".25"/>
     </g>
    </g>
   </g>
  </g>
 </g>
</svg>
