<svg width="48" height="48" version="1.1" xmlns="http://www.w3.org/2000/svg">
 <defs>
  <linearGradient id="d" x1="10.094" x2="122.72" y1="107.36" y2="107.36" gradientTransform="matrix(.41725 0 0 .41031 -3.7143 -.80178)" gradientUnits="userSpaceOnUse">
   <stop stop-color="#1a1a1a" offset="0"/>
   <stop stop-color="#2c2c2e" offset=".11054"/>
   <stop stop-color="#2b2b2d" offset=".29001"/>
   <stop stop-color="#2a2b2d" offset=".51187"/>
   <stop stop-color="#2b2b2d" offset=".75173"/>
   <stop stop-color="#323232" offset=".89659"/>
   <stop stop-color="#171717" offset="1"/>
  </linearGradient>
  <linearGradient id="a" x1="449.43" x2="449.55" y1="540.75" y2="518.41" gradientTransform="matrix(1.6796 0 0 1.6796 -731.65 -869.47)" gradientUnits="userSpaceOnUse">
   <stop stop-color="#b6b9bf" offset="0"/>
   <stop stop-color="#dddfe2" offset="1"/>
  </linearGradient>
  <linearGradient id="c" x1="451.02" x2="451.02" y1="544.15" y2="543.09" gradientTransform="matrix(.84888 0 0 1.6796 -357.98 -869.39)" gradientUnits="userSpaceOnUse">
   <stop stop-color="#3ec896" offset="0"/>
   <stop stop-color="#66d9af" offset="1"/>
  </linearGradient>
  <linearGradient id="b" x1="467.17" x2="467.17" y1="546.85" y2="544.72" gradientTransform="matrix(1.6796 0 0 1.6796 -742.87 -872.84)" gradientUnits="userSpaceOnUse">
   <stop stop-color="#040404" offset="0"/>
   <stop stop-color="#121212" stop-opacity=".90816" offset="1"/>
  </linearGradient>
 </defs>
 <g stroke-width="1.5808">
  <path d="m0.4975 39.397 0.41724 6.5764c0 0.68194 0.55829 1.2309 1.2518 1.2309h43.655c0.69348 0 1.2518-0.54899 1.2518-1.2309l0.41724-6.5764z" fill="url(#d)"/>
  <path d="m4.2556 0.75818h39.067c0.69348 0 1.2518 0.54899 1.2518 1.2309l2.9208 37.12c0 0.68194-0.55826 1.2309-1.2517 1.2309h-44.493c-0.69348 0-1.2517-0.54899-1.2517-1.2309l2.5033-37.12c0-0.68194 0.55829-1.231 1.2517-1.231z" fill="url(#a)"/>
  <rect x="14.443" y="43.357" width="19.255" height="1.2914" ry=".64572" fill="url(#c)"/>
  <circle cx="41.68" cy="44.077" r="1.7826" fill="url(#b)" opacity=".452"/>
 </g>
 <ellipse cx="23.997" cy="20.549" rx="16.25" ry="11.25" fill="none" opacity=".15" stroke="#000" stroke-linecap="round" stroke-linejoin="round" stroke-width=".5" style="paint-order:normal"/>
 <path d="m41.677 44.197c0.04022 0 0.07507-0.0144 0.10444-0.0444 0.0294-0.0288 0.04412-0.0648 0.04412-0.1044v-0.74278c0-0.0408-0.01471-0.0744-0.04412-0.1044-0.02938-0.0288-0.0642-0.0444-0.10444-0.0444s-0.07506 0.0144-0.10446 0.0444c-0.0294 0.0288-0.0441 0.0636-0.0441 0.1044v0.74278c0 0.0396 0.0147 0.0756 0.0441 0.1044s0.06423 0.0444 0.10446 0.0444z" fill="#e3e8ea" opacity=".668" stroke="#909296" stroke-width=".0022376"/>
 <path d="m42.473 43.717c-0.06229-0.12456-0.1499-0.22908-0.26285-0.31331-0.0325-0.0252-0.06924-0.0348-0.11025-0.0288-0.04102 0-0.0735 0.0252-0.09749 0.0576-0.02475 0.0324-0.03423 0.0696-0.02843 0.1092 0.0058 0.0408 0.02496 0.0732 0.05744 0.0984 0.07579 0.0576 0.13444 0.12732 0.17581 0.21011 0.0414 0.0828 0.06207 0.171 0.06207 0.26459 0 0.0804-0.01567 0.1572-0.04699 0.23039-0.03133 0.0732-0.0737 0.13632-0.12709 0.18972-0.05339 0.0528-0.11661 0.096-0.18974 0.12708-0.07311 0.0312-0.14991 0.0468-0.23037 0.0468s-0.15724-0.0156-0.23036-0.0468c-0.07311-0.0312-0.13636-0.0732-0.18975-0.12708-0.05337-0.0528-0.09573-0.1164-0.12708-0.18972-0.03134-0.0732-0.047-0.14988-0.047-0.23039 0-0.0936 0.0207-0.1818 0.06209-0.26459 0.0414-0.0828 0.09999-0.15276 0.17582-0.21011 0.03249-0.0252 0.05163-0.0576 0.05744-0.0984 0.0058-0.0408-0.0037-0.0768-0.02843-0.1092-0.02399-0.0336-0.05628-0.0528-0.09691-0.0576-0.04062 0-0.07758 0-0.11084 0.0288-0.11298 0.084-0.20058 0.18876-0.26286 0.31331s-0.09343 0.25727-0.09343 0.39803c0 0.12072 0.0236 0.23591 0.0708 0.34583 0.04721 0.1104 0.11064 0.2046 0.19034 0.28439 0.07968 0.0792 0.17446 0.14304 0.28433 0.1902 0.10987 0.0468 0.22515 0.0708 0.34584 0.0708s0.23597-0.024 0.34584-0.0708 0.20466-0.1104 0.28433-0.1902c0.07968-0.0792 0.14311-0.17448 0.19032-0.28439 0.0472-0.1104 0.07079-0.22511 0.07079-0.34583 0-0.14076-0.03109-0.27347-0.09338-0.39803z" fill="#e3e8ea" opacity=".668" stroke="#909296" stroke-width=".0022376"/>
 <path d="m24.004 9.5488a16.037 11 0 0 0-1.4232 0.054688c0.46805-0.028787 0.94164-0.046875 1.4213-0.046875l2e-3 -0.00781zm1.4624 0.048828c0.05915 0.041153 0.08473 0.13074 0.13704 0.17578 0.10425 0.095518 0.23061 0.097221 0.24666 0.19922 0.0384 0.24347-0.32164 0.26336-0.28778 0.53516-0.07446 0.10512-0.25934 0.09764-0.24471 0.23828 0.02391 0.21324 0.48969 0.05281 0.61667 0.22656 0.06791 0.09336-0.01219 0.16184-0.06265 0.29492 0.15977 0.13044 0.1566 0.33753-0.12529 0.33789-0.17139 0-0.21839-0.1243-0.39153-0.1543-0.09616-0.0156-0.22534-0.01174-0.34847-0.02734-0.10516-0.0108-0.23137-0.02901-0.33085-0.04102-0.25444-0.0216-0.52708 0.03049-0.67736-0.07031 0.24502-0.22295 0.56968-0.44289 0.88487-0.63477 0.09362-0.05724 0.2932-0.09454 0.24666-0.21094-0.17543-0.10548-0.39066 0.0067-0.55599 0.07031-0.17388 0.06612-0.37944 0.16244-0.57556 0.18164-0.34076 0.0336-0.79255-0.06792-1.0709 0.05664-0.03853 0.10644 0.31473 0.06589 0.26624 0.22656-0.13626 0.0144-0.26506 0.02303-0.37-0.04297-0.0991-0.0594-0.04248-0.14639-0.10376-0.18359-0.10564-0.066-0.5039-0.07629-0.68128-0.05469-0.2164 0.02424-0.4071 0.11144-0.43265 0.23828 0.26008 0.0822 0.68851-0.08592 0.78308 0.12695-0.1425 0.17556-0.47753 0.27238-0.43265 0.50781 0.01773 0.09048 0.17642 0.21261 0.28974 0.22461 0.11408 0.0144 0.17715-0.06669 0.28778-0.05469 0.11707 0.0084 0.0902 0.10154 0.22709 0.08594 0.19819-0.05784 0.30898-0.25223 0.53641-0.24023 0.27257 0.22631-0.24718 0.33816-0.53641 0.41016-0.32984 0.08232-0.76082 0.12527-1.0122 0.19727-0.1316 0.0372-0.62944 0.3662-0.6989 0.11133-0.05036-0.18407 0.24676-0.12993 0.30931-0.28125-0.31896-0.04248-0.61808 0.09432-0.90837 0.16992-0.41414 0.10716-1.1138 0.17579-1.2137 0.49414-0.02185 0.06372 0.03951 0.18261-0.02153 0.22461-0.04941 0.0348-0.34622 0.03911-0.47572 0.07031-0.19868 0.04716-0.37138 0.14517-0.49334 0.16797-0.09277 0.018-0.22893 0.01565-0.28778 0.03125-0.16397 0.04356-0.22534 0.19412-0.41307 0.29492-0.07704 0.042-0.24544 0.07443-0.30736 0.11523-0.10673 0.07272-0.12296 0.25365-0.31128 0.28125-0.11968 0.0072-0.21814-0.06047-0.33085-0.01367-0.01013 0.17976 0.09309 0.42355-0.01958 0.60547-0.24409 0.13608-0.51201 0.23121-0.82419 0.35156-0.1727 0.06576-0.32778 0.0823-0.53641 0.1543-0.14768 0.05064-0.282 0.17259-0.45222 0.24219-0.39326 0.15828-0.87056 0.34494-0.86726 0.74609 9.72e-4 0.087 0.06627 0.17925 0.08222 0.28125 0.01268 0.05976-0.0032 0.11879 0 0.18359 0.02425 0.14748 0.18058 0.3355 0 0.4375-0.27723-0.078-0.63011-0.10524-0.82419-0.24024-0.05329-0.13932 0.10788-0.25414 0.08222-0.38086-0.01982-0.10188-0.22865-0.28172-0.35043-0.29492-0.12532-0.0156-0.24048 0.08036-0.37 0.06836-0.15397-0.0082-0.29574-0.15237-0.49334-0.16797-0.28987-0.0228-0.50313 0.04683-0.82419 0.01563-0.31067 0.11364-0.40225 0.31608-0.78308 0.29688-0.13419-6e-3 -0.25998-0.07681-0.41503-0.09961-0.16086-0.02183-0.39622-0.05202-0.56969-0.05469a16.037 11 0 0 0-1.2568 2.9863c0.025847 0.0067 0.053994 0.01545 0.074393 0.01563 0.15075 0.0024 0.32927-0.05231 0.47572-0.07031 0.16954-0.0216 0.38246-0.02184 0.53641-0.05664 0.4454-0.09756 0.35882-0.50972 0.80461-0.64844 0.19459-0.06 0.41923-0.07078 0.76154-0.08398 0.10888 0.06252 0.16114 0.17278 0.14682 0.26758-0.01167 0.07188-0.10974 0.13824-0.16444 0.24023-0.04565 0.09024-0.05845 0.19558-0.10376 0.26758-0.06147 0.09504-0.20014 0.16391-0.24863 0.25391-0.02817 0.05808-0.01207 0.13004-0.03915 0.18164-0.04708 0.093-0.22873 0.15791-0.14487 0.25391 0.44115 0.1212 0.97568-0.03237 1.3606 0.01563 0.16243 0.02028 0.49665 0.15298 0.49334 0.32422-0.0024 0.12828-0.14195 0.21288-0.16444 0.35352-0.02438 0.1764-0.14156 0.39248-0.14487 0.53516-0.01824 0.23388 0.50166 0.64872 0.8653 0.63672 0.39177-0.0036 0.62054-0.2687 1.0923-0.12891 0.1566 0.04632 0.32264 0.22294 0.4953 0.21094 0.1426-0.0072 0.35711-0.17808 0.45222-0.29688 0.11602-0.14424 0.12607-0.26469 0.33085-0.33789 0.22117-0.078 0.39628-0.04128 0.67932-0.11328 0.12646-0.03156 0.23404-0.08783 0.34847-0.14062 0.09981-0.0468 0.20606-0.17114 0.33085-0.08594 0.16447 0.11268-0.20146 0.17664-0.06265 0.29688 0.28561 0.10368 0.43308-0.18527 0.64016-0.19727 0.06607-0.0016 0.29529 0.08902 0.41307 0.14062 0.16066 0.07236 0.2157 0.17207 0.39153 0.19727 0.11291 0.0156 0.29356-0.03123 0.45222-0.01563 0.21014 0.02028 0.3342 0.15458 0.49334 0.14258 0.19402-0.0037 0.28766-0.14637 0.45418-0.16797 0.3637-0.0456 0.49758 0.02808 0.65778 0.18359 0.17966 0.0204 0.18427-0.14549 0.34847-0.08789-0.09056 0.12276 0.03157 0.18121 0.10376 0.2832 0.04728 0.06624 0.04049 0.11182 0.08418 0.14063 0.09823 0.06456 0.28874 0.06335 0.43265 0.12695 0.15195 0.0654 0.23668 0.1873 0.41112 0.32422 0.17935 0.14028 0.48063 0.28292 0.72043 0.29492 0.22635 0.0084 0.41174-0.0449 0.59906-0.0293 0.42608 0.036 0.69049 0.18289 0.98864 0.33984 0.16641 0.08772 0.31768 0.14831 0.37196 0.25391 0.03778 0.07332 0.0194 0.17111 0.06265 0.25391 0.09098 0.17532 0.46416 0.26074 0.32889 0.56445 0.06188 0.08892 0.20067 0.11924 0.35043 0.18164 0.11948 0.04944 0.2209 0.15237 0.35043 0.16797 0.08414 0.0096 0.1746-0.01367 0.24667-0.01367 0.23409 0.01152 0.39421 0.0734 0.59709 0.125 0.1259 0.0348 0.2895 0.04709 0.37196 0.08789 0.10468 0.04836 0.11814 0.20875 0.24666 0.25195 0.08437 0.03 0.27058-0.012 0.41112 0 0.22106 0.018 0.52268 0.10323 0.72238 0.11523 0.12129 0.0012 0.22144-0.04325 0.32889-0.03125 0.50468 0.02628 0.78943 0.44014 1.2764 0.56445 0.15087 0.0408 0.39111 0.0098 0.4953 0.04102 0.18226 0.05412 0.33775 0.43799 0.35043 0.60742 0.04167 0.51251-0.53329 0.6748-0.8653 1.0137-0.06922 0.07092-0.10628 0.1848-0.20556 0.2832-0.19773 0.19908-0.4185 0.23972-0.39153 0.60547 0.0061 0.10068 0.08222 0.19775 0.08222 0.31055 0 0.13584-0.01972 0.31351-0.0646 0.43555-0.03451 0.0936-0.14598 0.16871-0.16444 0.25391-0.01659 0.08604 0.03671 0.15336 0.02153 0.22656-0.01758 0.08124-0.13492 0.19535-0.22514 0.31055-0.19034 0.24059-0.23061 0.52194-0.61667 0.61914-0.22677 0.0564-0.53691 0.02638-0.78503 0.08398-0.10036 0.02352-0.22723 0.08735-0.35043 0.12695-0.35854 0.11436-0.8686 0.27024-0.9671 0.52344-0.08848 0.22548 0.12173 0.40472 0.06069 0.66211-0.0638 0.07656-0.14969 0.15068-0.24667 0.23828-0.02338 0.0216-0.03983 0.04481-0.05873 0.06641-0.41428 0.02367-0.83215 0.03864-1.2549 0.03906a16.037 11 0 0 0 0.01567 0 16.037 11 0 0 0 15.834-9.3438c-0.24386 0.0453-0.46775 0.10493-0.64996 0.1582-0.23463 0.07176-0.47282 0.17159-0.67931 0.18359-0.19558 6e-3 -0.38741-0.07078-0.57556-0.08398-0.24559-0.0168-0.56312-0.0027-0.80657 0.02734-0.23669 0.0288-0.44914 0.14425-0.65778 0.15625-0.3995 0.02052-0.77898-0.24842-1.0297-0.38281-0.15347-0.08184-0.31054-0.14661-0.45418-0.22461-0.15393-0.0828-0.3536-0.13174-0.47376-0.21094-0.16285-0.10752-0.16235-0.29482-0.24666-0.4375-0.10046-0.168-0.40514-0.28962-0.63821-0.44922-0.17432-0.11928-0.57516-0.2977-0.61863-0.45117-0.0226-0.07824 0.04256-0.17066 0.03915-0.25586-0.0108-0.1236-0.14512-0.19245-0.14291-0.28125 0.0043-0.1236 0.21688-0.21982 0.26821-0.32422 0.02664-0.0534 0.01359-0.12886 0.04112-0.19726 0.05778-0.14304 0.19329-0.2281 0.16249-0.4375-0.01244-0.08328-0.11993-0.15958-0.12334-0.26758-4e-3 -0.0744 0.06605-0.11519 0.06265-0.18359-0.01559-0.12024-0.24407-0.14325-0.26821-0.28125-0.02394-0.14268 0.1983-0.2594 0.32889-0.42188 0.05764-0.0726 0.0942-0.18504 0.14682-0.24024 0.11555-0.12 0.30122-0.17808 0.38958-0.29688 0.06561-0.08712 0.08602-0.21645 0.14487-0.28125 0.07596-0.084 0.22751-0.12984 0.37196-0.24023 0.11716-0.09012 0.16454-0.19823 0.24667-0.24023 0.10349-0.0516 0.25739-0.06286 0.37-0.09766 0.38137-0.11892 0.65961-0.27348 0.84377-0.52344-0.05623-0.2268 0.02993-0.31997 0.16641-0.47656 0.1259-0.14472 0.2179-0.28319 0.43265-0.36719 0.25752-0.0996 0.50168-0.10992 0.68128-0.29688 0.07614-0.0792 0.16765-0.20065 0.19969-0.29688a16.037 11 0 0 0-0.40524-0.39062c-0.18519-0.0046-0.43839 0.08504-0.53641-0.04492-0.03343-0.04452 0.01268-0.14807 0-0.19727-0.02426-0.09204-0.13414-0.15816-0.14682-0.22656-0.0024-0.03403 0.01384-0.07103 0.03524-0.10742a16.037 11 0 0 0-10.88-3.918zm-3.285 0.039063a16.037 11 0 0 0-1.065 0.10156c0.35003-0.044187 0.70718-0.073261 1.065-0.10156zm-1.6033 0.18555a16.037 11 0 0 0-0.95144 0.1543c0.31178-0.060666 0.6323-0.10617 0.95144-0.1543zm-2.3277 0.46875a16.037 11 0 0 0-0.42678 0.12891c0.0026 4.23e-4 0.0051 2e-3 0.0078 2e-3 0.12964 0.0076 0.29084-0.05259 0.41895-0.13086zm-2.9698 1.0449a16.037 11 0 0 0-0.64996 0.32031c0.1894-0.0046 0.53245-0.02455 0.56382-0.03516 0.20033-0.05854 0.17618-0.17497 0.08614-0.28516zm0.42873 0.4375c-0.16388-0.0096-0.33204 0.04801-0.39153 0.09961-7e-3 0.084 0.09684 0.09839 0.08419 0.18359-0.20065 0.0978-0.09349 0.4255 0.10376 0.4375 0.20917 0.01236 0.31725-0.36093 0.59709-0.39453 0.10153-0.012 0.1531 0.03934 0.28778 0.02734 0.16259-0.08724 0.09007-0.26372-0.08222-0.29492-0.06772-0.0108-0.15874 0.0293-0.26821 0.0293-0.11614-6e-3 -0.23278-0.07394-0.32889-0.08594h-2e-3v-2e-3zm-0.92794 0.04687c-0.17213-0.0048-0.45453 0.05206-0.55402 0.09766-0.09081 0.0432-0.15253 0.14856-0.24667 0.22656-0.09715 0.08016-0.20685 0.13818-0.28974 0.20898-0.07401 0.06252-0.49314 0.47588-0.16641 0.52148 0.13944 0.01992 0.42895-0.17831 0.45614-0.25391 0.09322-0.25847 0.26301-0.44106 0.55599-0.5625 0.16962-0.07008 0.34054-0.0607 0.36805-0.21094-0.02213-0.0156-0.066-0.02734-0.12334-0.02734zm2.4393 0.50391c-0.10444-0.0036-0.22204 0.01367-0.31715 0.01367-0.13488 0.0084-0.29663 0.02926-0.30931 0.09766 0.21436 0.06864 0.80205 0.11788 0.86922-0.06836-0.04294-0.0276-0.13825-0.04102-0.24276-0.04102zm-1.3332 0.3457v2e-3c-0.21092 0.0048-0.40922 0.075-0.58926 0.0918-0.14293 0.01164-0.40439-0.01968-0.37196 0.12695 0.02655 0.1188 0.29761 0.07777 0.45418 0.04297 0.32565-0.07068 0.53083-0.13224 0.72043-0.24024-0.07319-0.0108-0.14393-0.02344-0.21339-0.02344zm20.569 0.93164c0.14187 0.12137 0.27898 0.24531 0.41307 0.37109a16.037 11 0 0 0-0.41307-0.37109zm1.0023 0.9375c0.07206 0.07549 0.13811 0.1537 0.20751 0.23047a16.037 11 0 0 0-0.20751-0.23047zm0.75371 0.88086c0.06218 0.08061 0.12469 0.1604 0.18402 0.24219a16.037 11 0 0 0-0.18402-0.24219zm1.2392 2.1152c0.02577 0.06204 0.04822 0.12502 0.07244 0.1875a16.037 11 0 0 0-0.07244-0.1875zm0.33868 0.99609c0.02033 0.07501 0.04454 0.14906 0.06265 0.22461a16.037 11 0 0 0-0.06265-0.22461zm-31.724 1.0723a16.037 11 0 0 0-0.068519 0.94531 16.037 11 0 0 0 9.3616 9.9883c0.0029-0.05208 0.04192-0.09023 0.04111-0.14062-0.0027-0.1452-0.06954-0.29071-0.08222-0.43555-0.02023-0.2682 0.04247-0.45776-0.02153-0.70508-0.04773-0.18732-0.10911-0.473-0.20751-0.5918-0.11025-0.13092-0.54319-0.35545-0.76154-0.43945-0.14414-0.05592-0.31866-0.0734-0.47572-0.125-0.33558-0.11292-0.98437-0.35061-1.1315-0.57812-0.04194-0.06552-0.0368-0.15141-0.08222-0.22461-0.08955-0.14472-0.27868-0.27084-0.41307-0.41016-0.25435-0.26615-0.45723-0.60045-0.71848-0.875-0.1321-0.13944-0.24888-0.29781-0.3935-0.4082-0.08484-0.0654-0.35551-0.12621-0.38958-0.22461-0.04654-0.1302-0.1889-0.31056-0.16641-0.41016 0.02956-0.13464 0.41169-0.24455 0.41112-0.36719-5.56e-4 -0.10428-0.20146-0.16315-0.24471-0.25195-0.10406-0.21528 0.06032-0.34197 0.18402-0.52148 0.04157-0.05892 0.08292-0.15407 0.12529-0.19727 0.07548-0.07812 0.22604-0.09959 0.32693-0.18359 0.05601-0.04692 0.09073-0.14374 0.16444-0.21094 0.15673-0.14244 0.41118-0.19778 0.47572-0.32617 0.05462-0.10476 0.08738-0.62754 0.02349-0.80273-0.03592-0.10152-0.17424-0.18525-0.22709-0.28125-0.0931-0.17004-0.11595-0.36356-0.37196-0.35156-0.15814 0.0019-0.26855 0.11971-0.37 0.19531-0.02491 0.10044-0.01288 0.20903-0.16641 0.24023-0.23412 0.04728-0.324-0.16941-0.59709-0.22461-0.10872-0.0228-0.27978-0.01942-0.34847-0.04102-0.19927-0.06132-0.26342-0.26184-0.47376-0.33984-0.17578-0.0636-0.32824-0.04298-0.4346-0.14258-0.04729-0.06792-0.0069-0.19005-0.01958-0.28125-0.22586-0.09048-0.41868-0.42741-0.68128-0.50781-0.17433-0.054-0.44177-0.04846-0.65974-0.09766-0.10266-0.0252-0.18348-0.05351-0.28974-0.07031-0.1321-0.0192-0.26746-0.02064-0.37-0.05664-0.35184-0.1195-0.57151-0.45846-0.94752-0.54492zm8.2673 1.5488c-0.01978 0-0.04308-2.82e-4 -0.06852 0.01172-0.14983 0.04728-0.07186 0.22849 0.08222 0.21289 0.14305-0.01572 0.12596-0.21066-0.0137-0.22266v-2e-3zm23.664 0.40625c-0.01071 0.08051-0.02597 0.16025-0.03915 0.24023a16.037 11 0 0 0 0.03915-0.24023zm-20.784 9.4785a16.037 11 0 0 0 0.4444 0.08398c-0.14772-0.02853-0.29843-0.05269-0.4444-0.08398zm1.5427 0.27734a16.037 11 0 0 0 0.69498 0.07813c-0.23214-0.02567-0.46636-0.04572-0.69498-0.07813zm1.6072 0.17188a16.037 11 0 0 0 1.3312 0.05078c-0.4481-0.0059-0.89342-0.02006-1.3312-0.05078z" opacity=".15" stroke-width="1.5808"/>
</svg>
